v -7.609506 5.257659 3.48681
v -0.1345057 5.257659 8.26081
v -6.039506 5.257659 2.32781
v -7.609506 5.257659 3.48681
v -6.039506 5.257659 2.32781
v -6.451506 5.257659 2.06481
v 0.3954943 5.257659 -7.74619
v 4.393494 5.257659 1.17181
v 6.685253 5.257659 -3.728418
v -6.039506 5.257659 2.32781
v -0.1345057 5.257659 8.26081
v 3.505494 5.257659 2.56281
v -6.039506 5.257659 2.32781
v 2.895332 5.257659 1.33781
v 3.404494 5.257659 0.54081
v 0.3954943 5.257659 -7.74619
v 3.404494 5.257659 0.54081
v 4.393494 5.257659 1.17181
v -6.039506 5.257659 2.32781
v 3.404494 5.257659 0.54081
v 0.3954943 5.257659 -7.74619
v 6.685253 5.257659 -3.728418
v 7.074494 5.257659 -3.02519
v 7.280494 5.257659 -3.34819
v -7.609506 5.257659 3.48681
v -6.451506 5.257659 2.06481
v -6.629506 5.257659 1.95081
v 4.393494 5.257659 1.17181
v 7.074494 5.257659 -3.02519
v 6.685253 5.257659 -3.728418
v -6.039506 5.257659 2.32781
v 3.505494 5.257659 2.56281
v 2.516494 5.257659 1.93081
v -6.039506 5.257659 2.32781
v 2.516494 5.257659 1.93081
v 2.895332 5.257659 1.33781
v 6.685253 5.257659 -3.728418
v 7.468494 4.38066 -3.64219
v 6.87048 4.38066 -4.024257
v 6.685253 5.257659 -3.728418
v 7.280494 5.257659 -3.34819
v 7.468494 4.38066 -3.64219
v 0.3954943 5.257659 -7.74619
v 6.685253 5.257659 -3.728418
v 6.87048 4.38066 -4.024257
v 0.1714943 4.38066 -8.30419
v 0.3954943 5.257659 -7.74619
v 6.87048 4.38066 -4.024257
v -6.451506 4.384659 2.06481
v -6.039506 5.257659 2.32781
v 0.3954943 5.257659 -7.74619
v -6.451506 4.384659 2.06481
v 0.3954943 5.257659 -7.74619
v 0.1714943 4.38066 -8.30419
v 3.505494 5.365659 2.56281
v 4.393494 5.365659 1.17181
v 3.631494 5.797659 1.25181
v 3.190494 5.796659 1.92381
v 3.505494 5.365659 2.56281
v 3.631494 5.797659 1.25181
v 3.404494 5.365659 0.54081
v 3.631494 5.797659 1.25181
v 4.393494 5.365659 1.17181
v 2.516494 5.365659 1.93081
v 3.505494 5.365659 2.56281
v 3.190494 5.796659 1.92381
v 2.516494 5.365659 1.93081
v 3.190494 5.796659 1.92381
v 3.631494 5.797659 1.25181
v 2.516494 5.365659 1.93081
v 3.631494 5.797659 1.25181
v 3.404494 5.365659 0.54081
v -7.609506 5.257659 3.48681
v -6.629506 5.257659 1.95081
v -6.629506 -5.232199 1.95081
v -7.609506 -5.232199 3.48681
v -7.609506 -5.232199 3.48681
v -0.1345057 -5.232199 8.26081
v -0.1345057 5.257659 8.26081
v -7.609506 5.257659 3.48681
v 1.685494 -5.232199 5.41181
v 3.505494 -5.232199 2.56281
v 3.505494 5.257659 2.56281
v -0.1345057 5.257659 8.26081
v -0.1345057 -5.232199 8.26081
v 1.685494 -5.232199 5.41181
v -0.1345057 5.257659 8.26081
v 1.685494 -5.232199 5.41181
v 3.505494 5.257659 2.56281
v 3.505494 -5.232199 2.56281
v 4.393494 -5.232199 1.17181
v 4.393494 5.257659 1.17181
v 3.505494 5.257659 2.56281
v 4.393494 -5.232199 1.17181
v 7.074494 -5.232199 -3.02519
v 7.074494 5.257659 -3.02519
v 4.393494 5.257659 1.17181
v 7.177494 -5.232199 -3.18669
v 7.280494 -5.232199 -3.34819
v 7.280494 5.257659 -3.34819
v 7.074494 5.257659 -3.02519
v 7.074494 -5.232199 -3.02519
v 7.177494 -5.232199 -3.18669
v 7.074494 5.257659 -3.02519
v 7.177494 -5.232199 -3.18669
v 7.280494 5.257659 -3.34819
v 7.280494 -5.232199 -3.34819
v 7.468494 -5.232199 -3.64219
v 7.468494 4.38066 -3.64219
v 7.280494 5.257659 -3.34819
v 3.505494 5.257659 2.56281
v 4.393494 5.257659 1.17181
v 4.393494 5.365659 1.17181
v 3.505494 5.365659 2.56281
v -6.451506 5.257659 2.06481
v -6.039506 5.257659 2.32781
v -6.451506 4.384659 2.06481
v -6.629506 5.257659 1.95081
v -6.451506 4.384659 2.06481
v -6.451506 -5.232199 2.06481
v -6.629506 -5.232199 1.95081
v -6.629506 5.257659 1.95081
v -6.451506 5.257659 2.06481
v -6.451506 4.384659 2.06481
v 6.87048 4.38066 -4.024257
v 7.468494 4.38066 -3.64219
v 7.468494 -5.232199 -3.64219
v 6.87048 -5.232199 -4.024257
v 0.1714943 4.38066 -8.30419
v 6.87048 4.38066 -4.024257
v 6.87048 -5.232199 -4.024257
v 0.1714943 -5.232199 -8.30419
v -6.451506 4.384659 2.06481
v 0.1714943 4.38066 -8.30419
v 0.1714943 -5.232199 -8.30419
v -6.451506 -5.232199 2.06481
v 3.404494 5.365659 0.54081
v 4.393494 5.365659 1.17181
v 4.393494 5.257659 1.17181
v 3.404494 5.257659 0.54081
v 2.516494 5.257659 1.93081
v 3.505494 5.257659 2.56281
v 3.505494 5.365659 2.56281
v 2.516494 5.365659 1.93081
v 2.516494 5.365659 1.93081
v 2.895332 5.257659 1.33781
v 2.516494 5.257659 1.93081
v 2.895332 5.257659 1.33781
v 3.404494 5.365659 0.54081
v 3.404494 5.257659 0.54081
v 2.516494 5.365659 1.93081
v 3.404494 5.365659 0.54081
v 2.895332 5.257659 1.33781
v -0.1345057 -5.232199 8.26081
v -7.609506 -5.232199 3.48681
v -6.629506 -5.232199 1.95081
v -6.451506 -5.232199 2.06481
v 0.1714943 -5.232199 -8.30419
v 6.87048 -5.232199 -4.024257
v 7.468494 -5.232199 -3.64219
v 7.280494 -5.232199 -3.34819
v 7.177494 -5.232199 -3.18669
v 7.074494 -5.232199 -3.02519
v 4.393494 -5.232199 1.17181
v 3.505494 -5.232199 2.56281
v 1.685494 -5.232199 5.41181
vt 0.413310 0.001379
vt 0.579094 0.180440
vt 0.370266 0.037890
vt 0.413310 0.001379
vt 0.370266 0.037890
vt 0.361133 0.028020
vt 0.002101 0.184819
vt 0.320017 0.283821
vt 0.141632 0.335474
vt 0.370266 0.037890
vt 0.579094 0.180440
vt 0.370851 0.263547
vt 0.370266 0.037890
vt 0.327232 0.248507
vt 0.298106 0.260132
vt 0.002101 0.184819
vt 0.298106 0.260132
vt 0.320017 0.283821
vt 0.370266 0.037890
vt 0.298106 0.260132
vt 0.002101 0.184819
vt 0.141632 0.335474
vt 0.166639 0.345029
vt 0.154836 0.349731
vt 0.413310 0.001379
vt 0.361133 0.028020
vt 0.357174 0.023756
vt 0.320017 0.283821
vt 0.166639 0.345029
vt 0.141632 0.335474
vt 0.370266 0.037890
vt 0.370851 0.263547
vt 0.348904 0.239858
vt 0.370266 0.037890
vt 0.348904 0.239858
vt 0.327232 0.248507
vt 0.512099 0.725976
vt 0.505123 0.747995
vt 0.491963 0.733719
vt 0.512099 0.725976
vt 0.525210 0.740201
vt 0.505123 0.747995
vt 0.373557 0.575657
vt 0.512099 0.725976
vt 0.491963 0.733719
vt 0.344538 0.573793
vt 0.373557 0.575657
vt 0.491963 0.733719
vt 0.863251 0.776552
vt 0.882009 0.788179
vt 0.514450 0.934418
vt 0.863251 0.776552
vt 0.514450 0.934418
vt 0.485294 0.926892
vt 0.308824 0.969522
vt 0.358171 0.950345
vt 0.361117 0.969427
vt 0.337236 0.978964
vt 0.308824 0.969522
vt 0.361117 0.969427
vt 0.457983 0.950345
vt 0.486296 0.954086
vt 0.478528 0.972846
vt 0.445955 0.972771
vt 0.424370 0.950345
vt 0.452727 0.956510
vt 0.414648 0.950345
vt 0.418475 0.966503
vt 0.394725 0.976123
vt 0.414648 0.950345
vt 0.394725 0.976123
vt 0.365546 0.969684
vt 0.303731 0.970953
vt 0.248078 0.992716
vt 0.134454 0.971830
vt 0.189396 0.950345
vt 0.173461 0.772804
vt 0.002101 0.596906
vt 0.165975 0.573793
vt 0.339571 0.751995
vt 0.105486 0.481444
vt 0.208874 0.441054
vt 0.371396 0.488008
vt 0.161943 0.569832
vt 0.002101 0.521833
vt 0.105486 0.481444
vt 0.161943 0.569832
vt 0.105486 0.481444
vt 0.371396 0.488008
vt 0.208874 0.441054
vt 0.259352 0.421347
vt 0.422528 0.468047
vt 0.371396 0.488008
vt 0.259352 0.421347
vt 0.411663 0.361848
vt 0.576813 0.407778
vt 0.422528 0.468047
vt 0.417524 0.359562
vt 0.423385 0.357276
vt 0.588686 0.403147
vt 0.576813 0.407778
vt 0.411663 0.361848
vt 0.417524 0.359562
vt 0.576813 0.407778
vt 0.417524 0.359562
vt 0.588686 0.403147
vt 0.423385 0.357276
vt 0.434055 0.353103
vt 0.585499 0.395045
vt 0.588686 0.403147
vt 0.371396 0.488008
vt 0.422528 0.468047
vt 0.424230 0.468534
vt 0.373091 0.488498
vt 0.119571 0.954517
vt 0.128597 0.964174
vt 0.110004 0.958285
vt 0.115658 0.950345
vt 0.110004 0.958285
vt 0.005964 0.999261
vt 0.002101 0.995142
vt 0.115658 0.950345
vt 0.119571 0.954517
vt 0.110004 0.958285
vt 0.842936 0.513255
vt 0.856144 0.527551
vt 0.753818 0.565564
vt 0.740765 0.551435
vt 0.694981 0.353103
vt 0.842936 0.513255
vt 0.740765 0.551435
vt 0.594538 0.393160
vt 0.480851 0.796188
vt 0.102553 0.946622
vt 0.002101 0.925235
vt 0.375924 0.776552
vt 0.492693 0.950345
vt 0.512871 0.972846
vt 0.511772 0.973267
vt 0.491597 0.950768
vt 0.540105 0.973008
vt 0.518908 0.950585
vt 0.520510 0.950345
vt 0.541710 0.972771
vt 0.596313 0.950582
vt 0.574282 0.958449
vt 0.595162 0.950345
vt 0.574282 0.958449
vt 0.547363 0.969582
vt 0.546219 0.969342
vt 0.596313 0.950582
vt 0.547363 0.969582
vt 0.574282 0.958449
vt 0.600840 0.950345
vt 0.600840 0.950345
vt 0.600840 0.950345
vt 0.600840 0.950345
vt 0.600840 0.950345
vt 0.600840 0.950345
vt 0.600840 0.950345
vt 0.600840 0.950345
vt 0.600840 0.950345
vt 0.600840 0.950345
vt 0.600840 0.950345
vt 0.600840 0.950345
vt 0.600840 0.950345
vn 0 1 0
vn 0 1 0
vn 0 1 0
vn 0 1 0
vn 0 1 0
vn 0 1 0
vn 0 1 0
vn 0 1 0
vn 0 1 0
vn 0 1 0
vn 0 1 0
vn 0 1 0
vn 0 1 0
vn 0 1 0
vn 0 1 0
vn 0 1 0
vn 0 1 0
vn 0 1 0
vn 0 1 0
vn 0 1 0
vn 0 1 0
vn 0 1 0
vn 0 1 0
vn 0 1 0
vn 0 1 0
vn 0 1 0
vn 0 1 0
vn 0 1 0
vn 0 1 0
vn 0 1 0
vn 0 1 0
vn 0 1 0
vn 0 1 0
vn 0 1 0
vn 0 1 0
vn 0 1 0
vn 0.5002321 0.3697703 -0.7829673
vn 0.5002321 0.3697703 -0.7829673
vn 0.5002321 0.3697703 -0.7829673
vn 0.5001805 0.3697186 -0.7830247
vn 0.5001805 0.3697186 -0.7830247
vn 0.5001805 0.3697186 -0.7830247
vn 0.5001693 0.3697706 -0.7830073
vn 0.5001693 0.3697706 -0.7830073
vn 0.5001693 0.3697706 -0.7830073
vn 0.5001149 0.3703166 -0.7827839
vn 0.5001149 0.3703166 -0.7827839
vn 0.5001149 0.3703166 -0.7827839
vn -0.7353295 0.4885328 -0.4697087
vn -0.7353295 0.4885328 -0.4697087
vn -0.7353295 0.4885328 -0.4697087
vn -0.7359076 0.4871543 -0.4702348
vn -0.7359076 0.4871543 -0.4702348
vn -0.7359076 0.4871543 -0.4702348
vn 0.492918 0.8111796 0.3146737
vn 0.492918 0.8111796 0.3146737
vn 0.492918 0.8111796 0.3146737
vn 0.4794722 0.8187376 0.315872
vn 0.4794722 0.8187376 0.315872
vn 0.4794722 0.8187376 0.315872
vn 0.3609359 0.7414127 -0.5657141
vn 0.3609359 0.7414127 -0.5657141
vn 0.3609359 0.7414127 -0.5657141
vn -0.4091203 0.6501824 0.6402214
vn -0.4091203 0.6501824 0.6402214
vn -0.4091203 0.6501824 0.6402214
vn -0.5103092 0.7926043 -0.3337109
vn -0.5103092 0.7926043 -0.3337109
vn -0.5103092 0.7926043 -0.3337109
vn -0.506711 0.7990335 -0.3237118
vn -0.506711 0.7990335 -0.3237118
vn -0.506711 0.7990335 -0.3237118
vn -0.8430281 0 -0.5378695
vn -0.8430281 0 -0.5378695
vn -0.8430281 0 -0.5378695
vn -0.8430281 0 -0.5378695
vn -0.5382536 0 0.8427829
vn -0.5382536 0 0.8427829
vn -0.5382536 0 0.8427829
vn -0.5382536 0 0.8427829
vn 0.8427224 0 0.5383484
vn 0.8427224 0 0.5383484
vn 0.8427224 0 0.5383484
vn 0.8427224 0 0.5383484
vn 0.8427224 0 0.5383484
vn 0.8427224 0 0.5383484
vn 0.8427224 2.389815E-11 0.5383484
vn 0.8427224 2.389815E-11 0.5383484
vn 0.8427224 2.389815E-11 0.5383484
vn 0.8428871 0 0.5380904
vn 0.8428871 0 0.5380904
vn 0.8428871 0 0.5380904
vn 0.8428871 0 0.5380904
vn 0.8427342 0 0.5383298
vn 0.8427342 0 0.5383298
vn 0.8427342 0 0.5383298
vn 0.8427342 0 0.5383298
vn 0.8431237 0 0.5377197
vn 0.8431237 0 0.5377197
vn 0.8431237 0 0.5377197
vn 0.8431237 0 0.5377197
vn 0.8431237 0 0.5377197
vn 0.8431237 0 0.5377197
vn 0.8431237 2.387022E-11 0.5377197
vn 0.8431237 2.387022E-11 0.5377197
vn 0.8431237 2.387022E-11 0.5377197
vn 0.8424795 0 0.5387284
vn 0.8424795 0 0.5387284
vn 0.8424795 0 0.5387284
vn 0.8424795 0 0.5387284
vn 0.8428871 0 0.5380904
vn 0.8428871 0 0.5380904
vn 0.8428871 0 0.5380904
vn 0.8428871 0 0.5380904
vn 0.5380664 0 -0.8429025
vn 0.5380664 0 -0.8429025
vn 0.5380664 0 -0.8429025
vn 0.5393221 0 -0.8420995
vn 0.5393221 0 -0.8420995
vn 0.5393221 0 -0.8420995
vn 0.5393221 0 -0.8420995
vn 0.5393221 0 -0.8420995
vn 0.5393221 0 -0.8420995
vn 0.5393221 0 -0.8420995
vn 0.5383915 0 -0.8426948
vn 0.5383915 0 -0.8426948
vn 0.5383915 0 -0.8426948
vn 0.5383915 0 -0.8426948
vn 0.5383915 0 -0.8426948
vn 0.5383915 0 -0.8426948
vn 0.5383915 0 -0.8426948
vn 0.5383915 0 -0.8426948
vn -0.8427567 0 -0.5382947
vn -0.8427567 0 -0.5382947
vn -0.8427567 0 -0.5382947
vn -0.8427567 0 -0.5382947
vn 0.5378679 0 -0.8430291
vn 0.5378679 0 -0.8430291
vn 0.5378679 0 -0.8430291
vn 0.5378679 0 -0.8430291
vn -0.5384733 0 0.8426425
vn -0.5384733 0 0.8426425
vn -0.5384733 0 0.8426425
vn -0.5384733 0 0.8426425
vn -0.8427116 0 -0.5383654
vn -0.8427116 0 -0.5383654
vn -0.8427116 0 -0.5383654
vn -0.8427116 0 -0.5383654
vn -0.8427116 0 -0.5383654
vn -0.8427116 0 -0.5383654
vn -0.8427116 3.318369E-08 -0.5383654
vn -0.8427116 3.318369E-08 -0.5383654
vn -0.8427116 3.318369E-08 -0.5383654
vn 0 -1 0
vn 0 -1 0
vn 0 -1 0
vn 0 -1 0
vn 0 -1 0
vn 0 -1 0
vn 0 -1 0
vn 0 -1 0
vn 0 -1 0
vn 0 -1 0
vn 0 -1 0
vn 0 -1 0
vn 0 -1 0

g CDNNDG02_0013510
f 1/1/1 2/2/2 3/3/3
f 4/4/4 5/5/5 6/6/6
f 7/7/7 8/8/8 9/9/9
f 10/10/10 11/11/11 12/12/12
f 13/13/13 14/14/14 15/15/15
f 16/16/16 17/17/17 18/18/18
f 19/19/19 20/20/20 21/21/21
f 22/22/22 23/23/23 24/24/24
f 25/25/25 26/26/26 27/27/27
f 28/28/28 29/29/29 30/30/30
f 31/31/31 32/32/32 33/33/33
f 34/34/34 35/35/35 36/36/36
f 37/37/37 38/38/38 39/39/39
f 40/40/40 41/41/41 42/42/42
f 43/43/43 44/44/44 45/45/45
f 46/46/46 47/47/47 48/48/48
f 49/49/49 50/50/50 51/51/51
f 52/52/52 53/53/53 54/54/54
f 55/55/55 56/56/56 57/57/57
f 58/58/58 59/59/59 60/60/60
f 61/61/61 62/62/62 63/63/63
f 64/64/64 65/65/65 66/66/66
f 67/67/67 68/68/68 69/69/69
f 70/70/70 71/71/71 72/72/72
f 74/74/74 75/75/75 76/76/76
f 73/73/73 74/74/74 76/76/76
f 80/80/80 77/77/77 79/79/79
f 79/79/79 77/77/77 78/78/78
f 81/81/81 82/82/82 83/83/83
f 84/84/84 85/85/85 86/86/86
f 87/87/87 88/88/88 89/89/89
f 91/91/91 92/92/92 90/90/90
f 90/90/90 92/92/92 93/93/93
f 95/95/95 96/96/96 94/94/94
f 94/94/94 96/96/96 97/97/97
f 98/98/98 99/99/99 100/100/100
f 101/101/101 102/102/102 103/103/103
f 104/104/104 105/105/105 106/106/106
f 108/108/108 109/109/109 107/107/107
f 107/107/107 109/109/109 110/110/110
f 114/114/114 111/111/111 113/113/113
f 112/112/112 113/113/113 111/111/111
f 115/115/115 116/116/116 117/117/117
f 119/119/119 120/120/120 121/121/121
f 118/118/118 119/119/119 121/121/121
f 122/122/122 123/123/123 124/124/124
f 127/127/127 128/128/128 126/126/126
f 125/125/125 126/126/126 128/128/128
f 132/132/132 129/129/129 131/131/131
f 130/130/130 131/131/131 129/129/129
f 136/136/136 134/134/134 135/135/135
f 136/136/136 133/133/133 134/134/134
f 137/137/137 139/139/139 140/140/140
f 137/137/137 138/138/138 139/139/139
f 144/144/144 141/141/141 143/143/143
f 143/143/143 141/141/141 142/142/142
f 145/145/145 146/146/146 147/147/147
f 148/148/148 149/149/149 150/150/150
f 151/151/151 152/152/152 153/153/153
f 166/166/166 154/154/154 157/157/157
f 165/165/165 166/166/166 157/157/157
f 164/164/164 157/157/157 158/158/158
f 155/155/155 156/156/156 157/157/157
f 164/164/164 165/165/165 157/157/157
f 162/162/162 163/163/163 159/159/159
f 157/157/157 154/154/154 155/155/155
f 158/158/158 159/159/159 164/164/164
f 161/161/161 159/159/159 160/160/160
f 159/159/159 161/161/161 162/162/162
f 164/164/164 159/159/159 163/163/163
