v -3.573594 6.197165 10.95973
v -1.950594 6.197165 10.69773
v 3.107406 6.197165 3.030733
v 3.618406 6.197165 2.252733
v 1.692406 6.197165 0.9887329
v 1.627406 6.197165 0.3797329
v 5.405406 6.197165 -5.375267
v 6.299406 6.197165 -4.788267
v 8.937407 6.197165 -8.807267
v 3.938406 6.197165 -12.08727
v 1.859406 6.197165 -8.920267
v 1.348406 6.197165 -8.142267
v -8.315594 6.197165 6.579733
v -5.650594 6.197165 8.329733
v -5.320594 6.197165 9.812733
v -3.573594 -6.197165 10.95973
v -1.950594 -6.197165 10.69773
v -1.950594 6.197165 10.69773
v -3.573594 6.197165 10.95973
v -1.950594 -6.197165 10.69773
v 3.107406 -6.197165 3.030733
v 3.107406 6.197165 3.030733
v -1.950594 6.197165 10.69773
v 3.107406 -6.197165 3.030733
v 3.618406 -6.197165 2.252733
v 3.618406 6.197165 2.252733
v 3.107406 6.197165 3.030733
v 1.692406 6.197165 0.9887329
v 3.618406 6.197165 2.252733
v 3.618406 -6.197165 2.252733
v 1.692406 -6.197165 0.9887329
v 1.627406 6.197165 0.3797329
v 1.692406 6.197165 0.9887329
v 1.692406 -6.197165 0.9887329
v 1.627406 -6.197165 0.3797329
v 3.516406 -6.197165 -2.497767
v 5.405406 -6.197165 -5.375267
v 5.405406 6.197165 -5.375267
v 1.627406 6.197165 0.3797329
v 1.627406 -6.197165 0.3797329
v 3.516406 -6.197165 -2.497767
v 1.627406 6.197165 0.3797329
v 3.516406 -6.197165 -2.497767
v 5.405406 6.197165 -5.375267
v 5.405406 -6.197165 -5.375267
v 6.299406 -6.197165 -4.788267
v 6.299406 6.197165 -4.788267
v 5.405406 6.197165 -5.375267
v 6.299406 -6.197165 -4.788267
v 8.937407 -6.197165 -8.807267
v 8.937407 6.197165 -8.807267
v 6.299406 6.197165 -4.788267
v 3.938406 6.197165 -12.08727
v 6.437906 -6.197165 -10.44727
v 3.938406 -6.197165 -12.08727
v 6.437906 -6.197165 -10.44727
v 8.937407 6.197165 -8.807267
v 8.937407 -6.197165 -8.807267
v 3.938406 6.197165 -12.08727
v 8.937407 6.197165 -8.807267
v 6.437906 -6.197165 -10.44727
v 1.859406 6.197165 -8.920267
v 3.938406 6.197165 -12.08727
v 3.938406 -6.197165 -12.08727
v 1.859406 -6.197165 -8.920267
v 1.348406 6.197165 -8.142267
v 1.859406 6.197165 -8.920267
v 1.859406 -6.197165 -8.920267
v 1.348406 -6.197165 -8.142267
v -8.315594 6.197165 6.579733
v 1.348406 6.197165 -8.142267
v 1.348406 -6.197165 -8.142267
v -8.315594 -6.197165 6.579733
v -8.315594 -6.197165 6.579733
v -5.650594 -6.197165 8.329733
v -5.650594 6.197165 8.329733
v -8.315594 6.197165 6.579733
v -5.650594 -6.197165 8.329733
v -5.320594 -6.197165 9.812733
v -5.320594 6.197165 9.812733
v -5.650594 6.197165 8.329733
v -5.320594 -6.197165 9.812733
v -3.573594 -6.197165 10.95973
v -3.573594 6.197165 10.95973
v -5.320594 6.197165 9.812733
v -1.950594 -6.197165 10.69773
v -3.573594 -6.197165 10.95973
v -5.320594 -6.197165 9.812733
v -5.650594 -6.197165 8.329733
v -8.315594 -6.197165 6.579733
v 1.348406 -6.197165 -8.142267
v 1.859406 -6.197165 -8.920267
v 3.938406 -6.197165 -12.08727
v 6.437906 -6.197165 -10.44727
v 8.937407 -6.197165 -8.807267
v 6.299406 -6.197165 -4.788267
v 5.405406 -6.197165 -5.375267
v 3.516406 -6.197165 -2.497767
v 1.627406 -6.197165 0.3797329
v 1.692406 -6.197165 0.9887329
v 3.618406 -6.197165 2.252733
v 3.107406 -6.197165 3.030733
vt 0.001799 0.279620
vt 0.009629 0.243988
vt 0.250821 0.131518
vt 0.275298 0.120154
vt 0.315840 0.162115
vt 0.335130 0.163414
vt 0.516195 0.079396
vt 0.497368 0.059917
vt 0.623821 0.001247
vt 0.729021 0.110167
vt 0.629375 0.156402
vt 0.604897 0.167765
vt 0.141737 0.382659
vt 0.085609 0.324605
vt 0.038588 0.317678
vt 0.802158 0.772435
vt 0.809826 0.738155
vt 0.842121 0.807719
vt 0.834334 0.842529
vt 0.640288 0.503861
vt 0.875211 0.396167
vt 0.912343 0.464437
vt 0.673783 0.573793
vt 0.875211 0.396167
vt 0.899051 0.385287
vt 0.936552 0.453388
vt 0.912343 0.464437
vt 0.796899 0.847200
vt 0.758093 0.805934
vt 0.721223 0.738155
vt 0.759438 0.778793
vt 0.147353 0.984542
vt 0.128861 0.983183
vt 0.091727 0.915212
vt 0.109936 0.916551
vt 0.239061 0.778308
vt 0.327045 0.738155
vt 0.368075 0.805548
vt 0.189386 0.887093
vt 0.151079 0.818459
vt 0.239061 0.778308
vt 0.189386 0.887093
vt 0.239061 0.778308
vt 0.368075 0.805548
vt 0.865191 0.838884
vt 0.847122 0.819678
vt 0.893696 0.738155
vt 0.912049 0.757664
vt 0.473022 0.794133
vt 0.595597 0.738155
vt 0.638141 0.804273
vt 0.513668 0.861116
vt 0.146055 0.912029
vt 0.051912 0.791118
vt 0.102024 0.844080
vt 0.051912 0.791118
vt 0.044280 0.804467
vt 0.001799 0.738155
vt 0.146055 0.912029
vt 0.044280 0.804467
vt 0.051912 0.791118
vt 0.535963 0.431540
vt 0.636511 0.385287
vt 0.585206 0.466726
vt 0.486218 0.512260
vt 0.511262 0.442908
vt 0.535963 0.431540
vt 0.486218 0.512260
vt 0.461901 0.523452
vt 0.043907 0.657886
vt 0.511262 0.442908
vt 0.461901 0.523452
vt 0.001799 0.735089
vt 0.426620 0.873258
vt 0.372302 0.815834
vt 0.412906 0.738155
vt 0.468079 0.796485
vt 0.047487 0.999517
vt 0.001799 0.992577
vt 0.041591 0.915212
vt 0.087999 0.922261
vt 0.677505 0.854001
vt 0.642086 0.816415
vt 0.681205 0.738155
vt 0.717182 0.776333
vt 0.151079 0.915212
vt 0.151079 0.915212
vt 0.151079 0.915212
vt 0.151079 0.915212
vt 0.151079 0.915212
vt 0.151079 0.915212
vt 0.151079 0.915212
vt 0.151079 0.915212
vt 0.151079 0.915212
vt 0.151079 0.915212
vt 0.151079 0.915212
vt 0.151079 0.915212
vt 0.151079 0.915212
vt 0.151079 0.915212
vt 0.151079 0.915212
vt 0.151079 0.915212
vt 0.151079 0.915212
vn 0 1 0
vn 0 1 0
vn 0 1 0
vn 0 1 0
vn 0 1 0
vn 0 1 0
vn 0 1 0
vn 0 1 0
vn 0 1 0
vn 0 1 0
vn 0 1 0
vn 0 1 0
vn 0 1 0
vn 0 1 0
vn 0 1 0
vn 0.1593663 0 0.9872195
vn 0.1593663 0 0.9872195
vn 0.1593663 0 0.9872195
vn 0.1593663 0 0.9872195
vn 0.8347205 0 0.5506738
vn 0.8347205 0 0.5506738
vn 0.8347205 0 0.5506738
vn 0.8347205 0 0.5506738
vn 0.8358322 0 0.5489849
vn 0.8358322 0 0.5489849
vn 0.8358322 0 0.5489849
vn 0.8358322 0 0.5489849
vn 0.5486754 0 -0.8360355
vn 0.5486754 0 -0.8360355
vn 0.5486754 0 -0.8360355
vn 0.5486754 0 -0.8360355
vn 0.9943523 0 -0.1061296
vn 0.9943523 0 -0.1061296
vn 0.9943523 0 -0.1061296
vn 0.9943523 0 -0.1061296
vn 0.8359625 0 0.5487865
vn 0.8359625 0 0.5487865
vn 0.8359625 0 0.5487865
vn 0.8359625 0 0.5487865
vn 0.8359625 0 0.5487865
vn 0.8359625 0 0.5487865
vn 0.8359625 1.865522E-11 0.5487865
vn 0.8359625 1.865522E-11 0.5487865
vn 0.8359625 1.865522E-11 0.5487865
vn -0.5488607 0 0.8359138
vn -0.5488607 0 0.8359138
vn -0.5488607 0 0.8359138
vn -0.5488607 0 0.8359138
vn 0.8359972 0 0.5487337
vn 0.8359972 0 0.5487337
vn 0.8359972 0 0.5487337
vn 0.8359972 0 0.5487337
vn 0.548587 0 -0.8360935
vn 0.548587 0 -0.8360935
vn 0.548587 0 -0.8360935
vn 0.548587 0 -0.8360935
vn 0.548587 0 -0.8360935
vn 0.548587 0 -0.8360935
vn 0.548587 -1.28818E-12 -0.8360935
vn 0.548587 -1.28818E-12 -0.8360935
vn 0.548587 -1.28818E-12 -0.8360935
vn -0.8359684 0 -0.5487775
vn -0.8359684 0 -0.5487775
vn -0.8359684 0 -0.5487775
vn -0.8359684 0 -0.5487775
vn -0.8358322 0 -0.5489849
vn -0.8358322 0 -0.5489849
vn -0.8358322 0 -0.5489849
vn -0.8358322 0 -0.5489849
vn -0.8359779 0 -0.5487631
vn -0.8359779 0 -0.5487631
vn -0.8359779 0 -0.5487631
vn -0.8359779 0 -0.5487631
vn -0.5488962 0 0.8358905
vn -0.5488962 0 0.8358905
vn -0.5488962 0 0.8358905
vn -0.5488962 0 0.8358905
vn -0.9761251 0 0.2172092
vn -0.9761251 0 0.2172092
vn -0.9761251 0 0.2172092
vn -0.9761251 0 0.2172092
vn -0.5488341 0 0.8359313
vn -0.5488341 0 0.8359313
vn -0.5488341 0 0.8359313
vn -0.5488341 0 0.8359313
vn 0 -1 0
vn 0 -1 0
vn 0 -1 0
vn 0 -1 0
vn 0 -1 0
vn 0 -1 0
vn 0 -1 0
vn 0 -1 0
vn 0 -1 0
vn 0 -1 0
vn 0 -1 0
vn 0 -1 0
vn 0 -1 0
vn 0 -1 0
vn 0 -1 0
vn 0 -1 0
vn 0 -1 0

g CDNNDG02_0000650
f 5/5/5 14/14/14 3/3/3
f 15/15/15 1/1/1 14/14/14
f 14/14/14 2/2/2 3/3/3
f 14/14/14 1/1/1 2/2/2
f 12/12/12 13/13/13 6/6/6
f 3/3/3 4/4/4 5/5/5
f 14/14/14 5/5/5 13/13/13
f 7/7/7 12/12/12 6/6/6
f 5/5/5 6/6/6 13/13/13
f 12/12/12 7/7/7 11/11/11
f 7/7/7 10/10/10 11/11/11
f 9/9/9 7/7/7 8/8/8
f 9/9/9 10/10/10 7/7/7
f 19/19/19 16/16/16 18/18/18
f 18/18/18 16/16/16 17/17/17
f 21/21/21 22/22/22 23/23/23
f 20/20/20 21/21/21 23/23/23
f 25/25/25 26/26/26 24/24/24
f 24/24/24 26/26/26 27/27/27
f 28/28/28 30/30/30 31/31/31
f 28/28/28 29/29/29 30/30/30
f 32/32/32 34/34/34 35/35/35
f 34/34/34 32/32/32 33/33/33
f 36/36/36 37/37/37 38/38/38
f 39/39/39 40/40/40 41/41/41
f 42/42/42 43/43/43 44/44/44
f 45/45/45 47/47/47 48/48/48
f 47/47/47 45/45/45 46/46/46
f 50/50/50 51/51/51 49/49/49
f 49/49/49 51/51/51 52/52/52
f 53/53/53 54/54/54 55/55/55
f 56/56/56 57/57/57 58/58/58
f 59/59/59 60/60/60 61/61/61
f 62/62/62 64/64/64 65/65/65
f 62/62/62 63/63/63 64/64/64
f 66/66/66 68/68/68 69/69/69
f 66/66/66 67/67/67 68/68/68
f 70/70/70 72/72/72 73/73/73
f 70/70/70 71/71/71 72/72/72
f 74/74/74 76/76/76 77/77/77
f 76/76/76 74/74/74 75/75/75
f 78/78/78 80/80/80 81/81/81
f 78/78/78 79/79/79 80/80/80
f 82/82/82 84/84/84 85/85/85
f 84/84/84 82/82/82 83/83/83
f 86/86/86 87/87/87 89/89/89
f 102/102/102 86/86/86 89/89/89
f 101/101/101 102/102/102 100/100/100
f 100/100/100 102/102/102 89/89/89
f 99/99/99 100/100/100 90/90/90
f 88/88/88 89/89/89 87/87/87
f 98/98/98 99/99/99 91/91/91
f 97/97/97 91/91/91 92/92/92
f 91/91/91 99/99/99 90/90/90
f 95/95/95 96/96/96 97/97/97
f 92/92/92 93/93/93 94/94/94
f 97/97/97 98/98/98 91/91/91
f 97/97/97 94/94/94 95/95/95
f 94/94/94 97/97/97 92/92/92
f 90/90/90 100/100/100 89/89/89
