v -1.855403 6.112592 9.863084
v -1.182403 6.112592 10.23208
v 3.458597 6.112592 2.706084
v 0.9215971 6.112592 1.141084
v 0.7525972 6.112592 -0.3789164
v 1.085597 6.112592 -0.9149163
v 2.515597 6.112592 -0.02591636
v 7.804597 6.112592 -8.531917
v 3.206597 6.112592 -11.39092
v 1.927597 6.112592 -9.332916
v 0.5585971 6.112592 -7.131917
v -7.700403 6.112592 6.151083
v -4.216403 6.112592 8.318084
v -4.218403 6.112592 9.070084
v -2.799403 6.112592 10.20308
v -1.855403 -6.112592 9.863084
v -1.182403 -6.112592 10.23208
v -1.182403 6.112592 10.23208
v -1.855403 6.112592 9.863084
v -1.182403 -6.112592 10.23208
v 3.458597 -6.112592 2.706084
v 3.458597 6.112592 2.706084
v -1.182403 6.112592 10.23208
v 0.9215971 6.112592 1.141084
v 3.458597 6.112592 2.706084
v 3.458597 -6.112592 2.706084
v 0.9215971 -6.112592 1.141084
v 0.7525972 6.112592 -0.3789164
v 0.9215971 6.112592 1.141084
v 0.9215971 -6.112592 1.141084
v 0.7525972 -6.112592 -0.3789164
v 0.9190971 -6.112592 -0.6469164
v 1.085597 -6.112592 -0.9149163
v 1.085597 6.112592 -0.9149163
v 0.7525972 6.112592 -0.3789164
v 0.7525972 -6.112592 -0.3789164
v 0.9190971 -6.112592 -0.6469164
v 0.7525972 6.112592 -0.3789164
v 0.9190971 -6.112592 -0.6469164
v 1.085597 6.112592 -0.9149163
v 1.800597 -6.112592 -0.4704164
v 2.515597 -6.112592 -0.02591636
v 2.515597 6.112592 -0.02591636
v 1.085597 6.112592 -0.9149163
v 1.085597 -6.112592 -0.9149163
v 1.800597 -6.112592 -0.4704164
v 1.085597 6.112592 -0.9149163
v 1.800597 -6.112592 -0.4704164
v 2.515597 6.112592 -0.02591636
v 2.515597 -6.112592 -0.02591636
v 7.804597 -6.112592 -8.531917
v 7.804597 6.112592 -8.531917
v 2.515597 6.112592 -0.02591636
v 3.206597 6.112592 -11.39092
v 7.804597 6.112592 -8.531917
v 7.804597 -6.112592 -8.531917
v 3.206597 -6.112592 -11.39092
v 1.927597 6.112592 -9.332916
v 3.206597 6.112592 -11.39092
v 3.206597 -6.112592 -11.39092
v 1.927597 -6.112592 -9.332916
v 0.5585971 6.112592 -7.131917
v 1.243097 -6.112592 -8.232416
v 0.5585971 -6.112592 -7.131917
v 1.243097 -6.112592 -8.232416
v 1.927597 6.112592 -9.332916
v 1.927597 -6.112592 -9.332916
v 0.5585971 6.112592 -7.131917
v 1.927597 6.112592 -9.332916
v 1.243097 -6.112592 -8.232416
v -7.700403 6.112592 6.151083
v 0.5585971 6.112592 -7.131917
v 0.5585971 -6.112592 -7.131917
v -7.700403 -6.112592 6.151083
v -7.700403 -6.112592 6.151083
v -4.216403 -6.112592 8.318084
v -4.216403 6.112592 8.318084
v -7.700403 6.112592 6.151083
v -4.218403 6.112592 9.070084
v -4.216403 6.112592 8.318084
v -4.216403 -6.112592 8.318084
v -4.218403 -6.112592 9.070084
v -4.218403 -6.112592 9.070084
v -2.799403 -6.112592 10.20308
v -2.799403 6.112592 10.20308
v -4.218403 6.112592 9.070084
v -2.799403 -6.112592 10.20308
v -1.855403 -6.112592 9.863084
v -1.855403 6.112592 9.863084
v -2.799403 6.112592 10.20308
v -1.855403 -6.112592 9.863084
v -2.799403 -6.112592 10.20308
v -4.218403 -6.112592 9.070084
v -4.216403 -6.112592 8.318084
v -7.700403 -6.112592 6.151083
v 0.5585971 -6.112592 -7.131917
v 1.243097 -6.112592 -8.232416
v 1.927597 -6.112592 -9.332916
v 3.206597 -6.112592 -11.39092
v 7.804597 -6.112592 -8.531917
v 2.515597 -6.112592 -0.02591636
v 1.800597 -6.112592 -0.4704164
v 1.085597 -6.112592 -0.9149163
v 0.9190971 -6.112592 -0.6469164
v 0.7525972 -6.112592 -0.3789164
v 0.9215971 -6.112592 1.141084
v 3.458597 -6.112592 2.706084
v -1.182403 -6.112592 10.23208
vt 0.691550 0.139565
vt 0.703360 0.155468
vt 0.458524 0.263391
vt 0.408367 0.203417
vt 0.359158 0.199177
vt 0.341721 0.206922
vt 0.370216 0.240728
vt 0.093514 0.363724
vt 0.001873 0.255029
vt 0.068818 0.225285
vt 0.140417 0.193447
vt 0.572545 0.001361
vt 0.642003 0.083733
vt 0.666368 0.083815
vt 0.702770 0.117407
vt 0.795463 0.834014
vt 0.806978 0.849337
vt 0.732664 0.890701
vt 0.720974 0.875145
vt 0.971040 0.711178
vt 0.730630 0.816876
vt 0.651685 0.782136
vt 0.895746 0.674830
vt 0.203867 0.930076
vt 0.151685 0.870499
vt 0.347030 0.834014
vt 0.398416 0.892685
vt 0.051660 0.999469
vt 0.001873 0.995878
vt 0.196411 0.959184
vt 0.245442 0.962720
vt 0.898938 0.872670
vt 0.890490 0.876383
vt 0.810861 0.841551
vt 0.828015 0.834014
vt 0.907387 0.868958
vt 0.898938 0.872670
vt 0.828015 0.834014
vt 0.898938 0.872670
vt 0.810861 0.841551
vt 0.496547 0.850392
vt 0.510488 0.866770
vt 0.430928 0.909648
vt 0.402622 0.876394
vt 0.482606 0.834014
vt 0.496547 0.850392
vt 0.402622 0.876394
vt 0.496547 0.850392
vt 0.430928 0.909648
vt 0.358178 0.709936
vt 0.086312 0.830495
vt 0.001873 0.797223
vt 0.277867 0.674830
vt 0.458698 0.818354
vt 0.363296 0.709881
vt 0.553277 0.674830
vt 0.647225 0.781656
vt 0.512026 0.398313
vt 0.579838 0.367347
vt 0.768668 0.412062
vt 0.701890 0.442555
vt 0.439504 0.431457
vt 0.666183 0.458873
vt 0.630475 0.475191
vt 0.666183 0.458873
vt 0.512026 0.398313
vt 0.701890 0.442555
vt 0.439504 0.431457
vt 0.512026 0.398313
vt 0.666183 0.458873
vt 0.001873 0.631394
vt 0.439504 0.431457
vt 0.630475 0.475191
vt 0.199520 0.672069
vt 0.078799 0.834014
vt 0.147059 0.914359
vt 0.071172 0.955179
vt 0.001873 0.873611
vt 0.274942 0.999140
vt 0.250936 0.999125
vt 0.326372 0.959184
vt 0.350018 0.959198
vt 0.590220 0.834014
vt 0.625806 0.866530
vt 0.551109 0.907560
vt 0.514981 0.874550
vt 0.716229 0.870433
vt 0.705382 0.891843
vt 0.631086 0.855750
vt 0.642097 0.834014
vt 0.353933 0.959184
vt 0.353933 0.959184
vt 0.353933 0.959184
vt 0.353933 0.959184
vt 0.353933 0.959184
vt 0.353933 0.959184
vt 0.353933 0.959184
vt 0.353933 0.959184
vt 0.353933 0.959184
vt 0.353933 0.959184
vt 0.353933 0.959184
vt 0.353933 0.959184
vt 0.353933 0.959184
vt 0.353933 0.959184
vt 0.353933 0.959184
vt 0.353933 0.959184
vt 0.353933 0.959184
vt 0.353933 0.959184
vn 0 1 0
vn 0 1 0
vn 0 1 0
vn 0 1 0
vn 0 1 0
vn 0 1 0
vn 0 1 0
vn 0 1 0
vn 0 1 0
vn 0 1 0
vn 0 1 0
vn 0 1 0
vn 0 1 0
vn 0 1 0
vn 0 1 0
vn -0.480768 0 0.8768479
vn -0.480768 0 0.8768479
vn -0.480768 0 0.8768479
vn -0.480768 0 0.8768479
vn 0.8511726 0 0.524886
vn 0.8511726 0 0.524886
vn 0.8511726 0 0.524886
vn 0.8511726 0 0.524886
vn 0.5250143 0 -0.8510934
vn 0.5250143 0 -0.8510934
vn 0.5250143 0 -0.8510934
vn 0.5250143 0 -0.8510934
vn 0.9938757 0 -0.1105033
vn 0.9938757 0 -0.1105033
vn 0.9938757 0 -0.1105033
vn 0.9938757 0 -0.1105033
vn 0.8494197 0 0.5277178
vn 0.8494197 0 0.5277178
vn 0.8494197 0 0.5277178
vn 0.8494197 0 0.5277178
vn 0.8494197 0 0.5277178
vn 0.8494197 0 0.5277178
vn 0.8494197 0 0.5277178
vn 0.8494197 0 0.5277178
vn 0.8494197 0 0.5277178
vn -0.5279688 0 0.8492637
vn -0.5279688 0 0.8492637
vn -0.5279688 0 0.8492637
vn -0.5279688 0 0.8492637
vn -0.5279688 0 0.8492637
vn -0.5279688 0 0.8492637
vn -0.5279688 -1.256907E-12 0.8492637
vn -0.5279688 -1.256907E-12 0.8492637
vn -0.5279688 -1.256907E-12 0.8492637
vn 0.8492188 0 0.5280412
vn 0.8492188 0 0.5280412
vn 0.8492188 0 0.5280412
vn 0.8492188 0 0.5280412
vn 0.5280385 0 -0.8492204
vn 0.5280385 0 -0.8492204
vn 0.5280385 0 -0.8492204
vn 0.5280385 0 -0.8492204
vn -0.8493403 0 -0.5278456
vn -0.8493403 0 -0.5278456
vn -0.8493403 0 -0.5278456
vn -0.8493403 0 -0.5278456
vn -0.8491451 0 -0.5281597
vn -0.8491451 0 -0.5281597
vn -0.8491451 0 -0.5281597
vn -0.8491451 0 -0.5281597
vn -0.8491451 0 -0.5281597
vn -0.8491451 0 -0.5281597
vn -0.8491451 1.809626E-11 -0.5281597
vn -0.8491451 1.809626E-11 -0.5281597
vn -0.8491451 1.809626E-11 -0.5281597
vn -0.849228 0 -0.5280263
vn -0.849228 0 -0.5280263
vn -0.849228 0 -0.5280263
vn -0.849228 0 -0.5280263
vn -0.5281574 0 0.8491465
vn -0.5281574 0 0.8491465
vn -0.5281574 0 0.8491465
vn -0.5281574 0 0.8491465
vn -0.9999965 0 -0.002659565
vn -0.9999965 0 -0.002659565
vn -0.9999965 0 -0.002659565
vn -0.9999965 0 -0.002659565
vn -0.623956 0 0.7814595
vn -0.623956 0 0.7814595
vn -0.623956 0 0.7814595
vn -0.623956 0 0.7814595
vn 0.3388606 0 0.9408366
vn 0.3388606 0 0.9408366
vn 0.3388606 0 0.9408366
vn 0.3388606 0 0.9408366
vn 0 -1 0
vn 0 -1 0
vn 0 -1 0
vn 0 -1 0
vn 0 -1 0
vn 0 -1 0
vn 0 -1 0
vn 0 -1 0
vn 0 -1 0
vn 0 -1 0
vn 0 -1 0
vn 0 -1 0
vn 0 -1 0
vn 0 -1 0
vn 0 -1 0
vn 0 -1 0
vn 0 -1 0
vn 0 -1 0

g CDNNDG02_0001330
f 1/1/1 14/14/14 15/15/15
f 14/14/14 1/1/1 13/13/13
f 3/3/3 1/1/1 2/2/2
f 4/4/4 12/12/12 13/13/13
f 5/5/5 11/11/11 12/12/12
f 1/1/1 3/3/3 4/4/4
f 1/1/1 4/4/4 13/13/13
f 4/4/4 5/5/5 12/12/12
f 11/11/11 6/6/6 7/7/7
f 5/5/5 6/6/6 11/11/11
f 8/8/8 10/10/10 11/11/11
f 7/7/7 8/8/8 11/11/11
f 8/8/8 9/9/9 10/10/10
f 16/16/16 18/18/18 19/19/19
f 18/18/18 16/16/16 17/17/17
f 20/20/20 22/22/22 23/23/23
f 20/20/20 21/21/21 22/22/22
f 25/25/25 26/26/26 27/27/27
f 24/24/24 25/25/25 27/27/27
f 31/31/31 28/28/28 30/30/30
f 30/30/30 28/28/28 29/29/29
f 32/32/32 33/33/33 34/34/34
f 35/35/35 36/36/36 37/37/37
f 38/38/38 39/39/39 40/40/40
f 41/41/41 42/42/42 43/43/43
f 44/44/44 45/45/45 46/46/46
f 47/47/47 48/48/48 49/49/49
f 53/53/53 50/50/50 52/52/52
f 51/51/51 52/52/52 50/50/50
f 56/56/56 54/54/54 55/55/55
f 54/54/54 56/56/56 57/57/57
f 61/61/61 59/59/59 60/60/60
f 61/61/61 58/58/58 59/59/59
f 62/62/62 63/63/63 64/64/64
f 65/65/65 66/66/66 67/67/67
f 68/68/68 69/69/69 70/70/70
f 71/71/71 73/73/73 74/74/74
f 71/71/71 72/72/72 73/73/73
f 75/75/75 77/77/77 78/78/78
f 77/77/77 75/75/75 76/76/76
f 79/79/79 80/80/80 81/81/81
f 82/82/82 79/79/79 81/81/81
f 83/83/83 85/85/85 86/86/86
f 85/85/85 83/83/83 84/84/84
f 87/87/87 88/88/88 89/89/89
f 90/90/90 87/87/87 89/89/89
f 91/91/91 107/107/107 108/108/108
f 107/107/107 91/91/91 106/106/106
f 91/91/91 92/92/92 93/93/93
f 91/91/91 94/94/94 106/106/106
f 91/91/91 93/93/93 94/94/94
f 95/95/95 105/105/105 106/106/106
f 96/96/96 104/104/104 105/105/105
f 95/95/95 96/96/96 105/105/105
f 96/96/96 97/97/97 100/100/100
f 97/97/97 98/98/98 100/100/100
f 96/96/96 103/103/103 104/104/104
f 98/98/98 99/99/99 100/100/100
f 94/94/94 95/95/95 106/106/106
f 96/96/96 100/100/100 101/101/101
f 96/96/96 101/101/101 102/102/102
f 96/96/96 102/102/102 103/103/103
