v -1.088937 6.6831 6.484326
v 5.416063 6.6821 -3.728674
v 1.089063 6.6841 -6.484674
v -5.415937 6.6851 3.729326
v -1.088937 -6.6836 6.484326
v 5.416063 -6.6836 -3.728674
v 5.416063 6.6821 -3.728674
v -1.088937 6.6831 6.484326
v 1.089063 6.6841 -6.484674
v 5.416063 6.6821 -3.728674
v 5.416063 -6.6836 -3.728674
v 1.089063 -6.6836 -6.484674
v -5.415937 6.6851 3.729326
v 1.089063 6.6841 -6.484674
v 1.089063 -6.6836 -6.484674
v -5.415937 -6.6836 3.729326
v -5.415937 -6.6836 3.729326
v -1.088937 -6.6836 6.484326
v -1.088937 6.6831 6.484326
v -5.415937 6.6851 3.729326
v -5.415937 -6.6836 3.729326
v 1.089063 -6.6836 -6.484674
v 5.416063 -6.6836 -3.728674
v -1.088937 -6.6836 6.484326
vt 0.594856 0.128116
vt 0.128725 0.317978
vt 0.002639 0.191561
vt 0.468820 0.001689
vt 0.666104 0.380201
vt 0.208896 0.567534
vt 0.002639 0.513089
vt 0.467426 0.322635
vt 0.131058 0.998333
vt 0.002639 0.871051
vt 0.209644 0.814189
vt 0.335957 0.939350
vt 0.002639 0.763224
vt 0.476557 0.570946
vt 0.685290 0.621688
vt 0.219258 0.810771
vt 0.543412 0.814189
vt 0.666897 0.938000
vt 0.468584 0.985741
vt 0.343008 0.859876
vt 0.672823 0.814189
vt 0.672823 0.814189
vt 0.672823 0.814189
vt 0.672823 0.814189
vn 0.0003731989 0.9999999 0.0001397816
vn 0.0003731843 0.9999999 0.0001397791
vn 0.0003731989 0.9999999 0.0001397816
vn 0.0003732135 0.9999999 0.000139784
vn 0.8434438 0 0.5372174
vn 0.8434438 0 0.5372174
vn 0.8434438 0 0.5372174
vn 0.8434438 0 0.5372174
vn 0.537216 0 -0.8434447
vn 0.537216 0 -0.8434447
vn 0.537216 0 -0.8434447
vn 0.537216 0 -0.8434447
vn -0.8434676 0 -0.53718
vn -0.8434676 0 -0.53718
vn -0.8434676 0 -0.53718
vn -0.8434676 0 -0.53718
vn -0.5370773 0 0.843533
vn -0.5370773 0 0.843533
vn -0.5370773 0 0.843533
vn -0.5370773 0 0.843533
vn 0 -1 0
vn 0 -1 0
vn 0 -1 0
vn 0 -1 0

g CDNNDG02_0002810
f 4/4/4 1/1/1 3/3/3
f 2/2/2 3/3/3 1/1/1
f 5/5/5 7/7/7 8/8/8
f 5/5/5 6/6/6 7/7/7
f 11/11/11 12/12/12 10/10/10
f 9/9/9 10/10/10 12/12/12
f 16/16/16 14/14/14 15/15/15
f 16/16/16 13/13/13 14/14/14
f 17/17/17 19/19/19 20/20/20
f 19/19/19 17/17/17 18/18/18
f 24/24/24 21/21/21 22/22/22
f 24/24/24 22/22/22 23/23/23
