v 1.06308 5.548875 -7.734303
v 7.13308 5.550864 -3.828303
v 7.40708 4.915207 -4.258303
v 0.85308 4.915207 -8.445303
v 1.06308 5.548875 -7.734303
v 7.40708 4.915207 -4.258303
v 0.3130798 5.550875 6.845697
v 7.13308 5.550864 -3.828303
v 1.06308 5.548875 -7.734303
v -5.88592 5.548875 3.064697
v 0.21908 5.550876 6.992697
v 0.3130798 5.550875 6.845697
v -0.81792 5.54992 2.191697
v -0.21092 5.550118 2.579697
v 1.06308 5.548875 -7.734303
v -5.88592 5.548875 3.064697
v -0.81792 5.54992 2.191697
v 1.06308 5.548875 -7.734303
v -0.21092 5.550118 2.579697
v 0.3130798 5.550875 6.845697
v 1.06308 5.548875 -7.734303
v -5.88592 5.548875 3.064697
v 0.3130798 5.550875 6.845697
v -1.22192 5.54992 2.822697
v -5.88592 5.548875 3.064697
v -1.22192 5.54992 2.822697
v -0.81792 5.54992 2.191697
v -0.61392 5.550119 3.211697
v 0.3130798 5.550875 6.845697
v -0.21092 5.550118 2.579697
v -1.22192 5.54992 2.822697
v 0.3130798 5.550875 6.845697
v -0.61392 5.550119 3.211697
v -6.59392 4.915207 3.211697
v -5.88592 5.548875 3.064697
v 0.85308 4.915207 -8.445303
v -5.88592 5.548875 3.064697
v 1.06308 5.548875 -7.734303
v 0.85308 4.915207 -8.445303
v -2.07792 4.914207 6.096697
v -0.03992003 4.914207 7.398697
v 0.21908 5.550876 6.992697
v -5.94992 4.915207 3.622697
v -2.07792 4.914207 6.096697
v -5.88592 5.548875 3.064697
v -6.59392 4.915207 3.211697
v -5.94992 4.915207 3.622697
v -5.88592 5.548875 3.064697
v -5.88592 5.548875 3.064697
v -2.07792 4.914207 6.096697
v 0.21908 5.550876 6.992697
v -7.16292 4.523207 5.522697
v -3.28992 4.523207 7.995697
v -2.07792 4.914207 6.096697
v -7.16292 4.523207 5.522697
v -2.07792 4.914207 6.096697
v -5.94992 4.915207 3.622697
v -1.22192 6.397207 2.822697
v -0.21092 6.397207 2.579697
v -0.81792 6.399207 2.191697
v -1.22192 6.397207 2.822697
v -0.61392 6.397207 3.211697
v -0.21092 6.397207 2.579697
v 7.13308 -5.44766 -3.828303
v 7.40708 -5.44766 -4.258303
v 7.40708 4.915207 -4.258303
v 7.13308 5.550864 -3.828303
v 0.21908 -5.44766 6.992697
v 0.3130798 -5.44766 6.845697
v 0.3130798 5.550875 6.845697
v 0.21908 5.550876 6.992697
v 0.3130798 -5.44766 6.845697
v 7.13308 -5.44766 -3.828303
v 7.13308 5.550864 -3.828303
v 0.3130798 5.550875 6.845697
v -0.03992003 -5.44766 7.398697
v 0.21908 -5.44766 6.992697
v 0.21908 5.550876 6.992697
v -0.03992003 4.914207 7.398697
v 0.85308 4.915207 -8.445303
v 7.40708 4.915207 -4.258303
v 7.40708 -5.44766 -4.258303
v 0.85308 -5.44766 -8.445303
v -6.59392 4.915207 3.211697
v 0.85308 4.915207 -8.445303
v 0.85308 -5.44766 -8.445303
v -6.59392 -5.44766 3.211697
v -2.07792 -5.44766 6.096697
v -0.03992003 -5.44766 7.398697
v -0.03992003 4.914207 7.398697
v -2.07792 4.914207 6.096697
v -6.59392 -5.44766 3.211697
v -5.94992 -5.44766 3.622697
v -5.94992 4.915207 3.622697
v -6.59392 4.915207 3.211697
v -7.16292 -5.44766 5.522697
v -3.28992 -5.44766 7.995697
v -3.28992 4.523207 7.995697
v -7.16292 4.523207 5.522697
v -3.28992 -5.44766 7.995697
v -2.07792 -5.44766 6.096697
v -2.07792 4.914207 6.096697
v -3.28992 4.523207 7.995697
v -7.16292 4.523207 5.522697
v -5.94992 4.915207 3.622697
v -5.94992 -5.44766 3.622697
v -7.16292 -5.44766 5.522697
v -1.22192 5.54992 2.822697
v -0.61392 5.550119 3.211697
v -0.61392 6.397207 3.211697
v -1.22192 6.397207 2.822697
v -0.61392 5.550119 3.211697
v -0.21092 5.550118 2.579697
v -0.21092 6.397207 2.579697
v -0.61392 6.397207 3.211697
v -0.81792 6.399207 2.191697
v -0.21092 6.397207 2.579697
v -0.21092 5.550118 2.579697
v -0.81792 5.54992 2.191697
v -1.22192 6.397207 2.822697
v -0.81792 6.399207 2.191697
v -0.81792 5.54992 2.191697
v -1.22192 5.54992 2.822697
v -3.28992 -5.44766 7.995697
v -7.16292 -5.44766 5.522697
v -5.94992 -5.44766 3.622697
v -6.59392 -5.44766 3.211697
v 0.85308 -5.44766 -8.445303
v 7.40708 -5.44766 -4.258303
v 7.13308 -5.44766 -3.828303
v 0.3130798 -5.44766 6.845697
v 0.21908 -5.44766 6.992697
v -0.03992003 -5.44766 7.398697
v -2.07792 -5.44766 6.096697
vt 0.965991 0.797512
vt 0.814570 0.633406
vt 0.832162 0.624806
vt 0.994351 0.801863
vt 0.965991 0.797512
vt 0.832162 0.624806
vt 0.007893 0.188570
vt 0.420763 0.001550
vt 0.573441 0.166367
vt 0.155752 0.356897
vt 0.002208 0.191147
vt 0.007893 0.188570
vt 0.188672 0.218798
vt 0.173505 0.202317
vt 0.573441 0.166367
vt 0.155752 0.356897
vt 0.188672 0.218798
vt 0.573441 0.166367
vt 0.173505 0.202317
vt 0.007893 0.188570
vt 0.573441 0.166367
vt 0.155752 0.356897
vt 0.007893 0.188570
vt 0.164266 0.229876
vt 0.155752 0.356897
vt 0.164266 0.229876
vt 0.188672 0.218798
vt 0.149060 0.213368
vt 0.007893 0.188570
vt 0.173505 0.202317
vt 0.164266 0.229876
vt 0.007893 0.188570
vt 0.149060 0.213368
vt 0.002208 0.838012
vt 0.006490 0.815301
vt 0.452690 0.634020
vt 0.006490 0.815301
vt 0.424140 0.624806
vt 0.452690 0.634020
vt 0.692832 0.690678
vt 0.642384 0.635483
vt 0.656546 0.624806
vt 0.788685 0.795534
vt 0.692832 0.690678
vt 0.808856 0.790285
vt 0.804609 0.812975
vt 0.788685 0.795534
vt 0.808856 0.790285
vt 0.808856 0.790285
vt 0.692832 0.690678
vt 0.656546 0.624806
vt 0.219391 0.981631
vt 0.123620 0.877085
vt 0.195527 0.841860
vt 0.219391 0.981631
vt 0.195527 0.841860
vt 0.291380 0.946427
vt 0.623748 0.868029
vt 0.632544 0.841860
vt 0.646980 0.857514
vt 0.623748 0.868029
vt 0.609272 0.852354
vt 0.632544 0.841860
vt 0.923913 0.368632
vt 0.940304 0.361240
vt 0.922550 0.379249
vt 0.904826 0.387864
vt 0.511448 0.555139
vt 0.517051 0.552603
vt 0.492309 0.574392
vt 0.486628 0.576963
vt 0.517051 0.552603
vt 0.923913 0.368632
vt 0.904826 0.387864
vt 0.492309 0.574392
vt 0.495973 0.562125
vt 0.511448 0.555139
vt 0.486628 0.576963
vt 0.472406 0.582760
vt 0.621326 0.819989
vt 0.459161 0.642798
vt 0.476782 0.624806
vt 0.636850 0.799708
vt 0.002208 0.565495
vt 0.452752 0.361240
vt 0.467668 0.419228
vt 0.022949 0.620838
vt 0.367061 0.953224
vt 0.318094 0.899049
vt 0.295806 0.841860
vt 0.345414 0.896746
vt 0.504997 0.913590
vt 0.490009 0.896596
vt 0.470199 0.841860
vt 0.485383 0.859078
vt 0.118209 0.999354
vt 0.024161 0.895988
vt 0.002208 0.841860
vt 0.097441 0.946529
vt 0.532464 0.873839
vt 0.603531 0.841860
vt 0.581036 0.862743
vt 0.509934 0.894326
vt 0.373068 0.876838
vt 0.444309 0.841860
vt 0.464868 0.896797
vt 0.393736 0.929261
vt 0.668309 0.861746
vt 0.654937 0.846317
vt 0.653422 0.841860
vt 0.666808 0.857305
vt 0.723496 0.851726
vt 0.745991 0.841860
vt 0.744373 0.843398
vt 0.721854 0.853274
vt 0.686622 0.858640
vt 0.673289 0.843446
vt 0.674834 0.841860
vt 0.688156 0.857034
vt 0.693157 0.852023
vt 0.715657 0.841860
vt 0.717209 0.846229
vt 0.694730 0.856371
vt 0.750552 0.841860
vt 0.750552 0.841860
vt 0.750552 0.841860
vt 0.750552 0.841860
vt 0.750552 0.841860
vt 0.750552 0.841860
vt 0.750552 0.841860
vt 0.750552 0.841860
vt 0.750552 0.841860
vt 0.750552 0.841860
vt 0.750552 0.841860
vn 0.4219739 0.6257033 -0.6560742
vn 0.4219739 0.6257033 -0.6560742
vn 0.4219739 0.6257033 -0.6560742
vn 0.4271515 0.6086677 -0.6686293
vn 0.4271515 0.6086677 -0.6686293
vn 0.4271515 0.6086677 -0.6686293
vn -0.0002316795 0.9999999 -0.0001490823
vn -0.0002316795 0.9999999 -0.0001490823
vn -0.0002316795 0.9999999 -0.0001490823
vn -0.0002316713 0.9999999 -0.0001490954
vn -0.0002316713 0.9999999 -0.0001490954
vn -0.0002316713 0.9999999 -0.0001490954
vn -0.0002316746 0.9999999 -0.0001490812
vn -0.0002316746 0.9999999 -0.0001490812
vn -0.0002316746 0.9999999 -0.0001490812
vn -0.0002316789 0.9999999 -0.000149082
vn -0.0002316789 0.9999999 -0.000149082
vn -0.0002316789 0.9999999 -0.000149082
vn -0.0002316862 0.9999999 -0.0001490826
vn -0.0002316862 0.9999999 -0.0001490826
vn -0.0002316862 0.9999999 -0.0001490826
vn -0.0002316784 0.9999999 -0.0001490837
vn -0.0002316784 0.9999999 -0.0001490837
vn -0.0002316784 0.9999999 -0.0001490837
vn -0.0002316781 0.9999999 -0.0001490776
vn -0.0002316781 0.9999999 -0.0001490776
vn -0.0002316781 0.9999999 -0.0001490776
vn -0.0002316668 0.9999999 -0.000149085
vn -0.0002316668 0.9999999 -0.000149085
vn -0.0002316668 0.9999999 -0.000149085
vn -0.0002316914 0.9999999 -0.0001490787
vn -0.0002316914 0.9999999 -0.0001490787
vn -0.0002316914 0.9999999 -0.0001490787
vn -0.6527057 0.632539 -0.4169769
vn -0.6527057 0.632539 -0.4169769
vn -0.6527057 0.632539 -0.4169769
vn -0.6294708 0.6630963 -0.4050553
vn -0.6294708 0.6630963 -0.4050553
vn -0.6294708 0.6630963 -0.4050553
vn -0.4293753 0.6032628 0.6720943
vn -0.4293753 0.6032628 0.6720943
vn -0.4293753 0.6032628 0.6720943
vn -0.421043 0.6230221 0.6592164
vn -0.421043 0.6230221 0.6592164
vn -0.421043 0.6230221 0.6592164
vn -0.4207787 0.6230886 0.6593223
vn -0.4207787 0.6230886 0.6593223
vn -0.4207787 0.6230886 0.6593223
vn -0.4289752 0.6098136 0.666414
vn -0.4289752 0.6098136 0.666414
vn -0.4289752 0.6098136 0.666414
vn -0.09202962 0.9852702 0.1441289
vn -0.09202962 0.9852702 0.1441289
vn -0.09202962 0.9852702 0.1441289
vn -0.0920659 0.9852142 0.1444884
vn -0.0920659 0.9852142 0.1444884
vn -0.0920659 0.9852142 0.1444884
vn 0.0009003785 0.9999925 0.003746019
vn 0.0009003785 0.9999925 0.003746019
vn 0.0009003785 0.9999925 0.003746019
vn 0 1 0
vn 0 1 0
vn 0 1 0
vn 0.8433381 0 0.5373833
vn 0.8433381 0 0.5373833
vn 0.8433381 0 0.5373833
vn 0.8433381 0 0.5373833
vn 0.8424804 0 0.538727
vn 0.8424804 0 0.538727
vn 0.8424804 0 0.538727
vn 0.8424804 0 0.538727
vn 0.8426784 0 0.5384173
vn 0.8426784 0 0.5384173
vn 0.8426784 0 0.5384173
vn 0.8426784 0 0.5384173
vn 0.8430623 0 0.5378159
vn 0.8430623 0 0.5378159
vn 0.8430623 0 0.5378159
vn 0.8430623 0 0.5378159
vn 0.5383639 0 -0.8427125
vn 0.5383639 0 -0.8427125
vn 0.5383639 0 -0.8427125
vn 0.5383639 0 -0.8427125
vn -0.8427136 0 -0.5383622
vn -0.8427136 0 -0.5383622
vn -0.8427136 0 -0.5383622
vn -0.8427136 0 -0.5383622
vn -0.538373 0 0.8427067
vn -0.538373 0 0.8427067
vn -0.538373 0 0.8427067
vn -0.538373 0 0.8427067
vn -0.5379761 0 0.8429601
vn -0.5379761 0 0.8429601
vn -0.5379761 0 0.8429601
vn -0.5379761 0 0.8429601
vn -0.5381703 0 0.8428361
vn -0.5381703 0 0.8428361
vn -0.5381703 0 0.8428361
vn -0.5381703 0 0.8428361
vn 0.8429479 0 0.5379952
vn 0.8429479 0 0.5379952
vn 0.8429479 0 0.5379952
vn 0.8429479 0 0.5379952
vn -0.8428751 0 -0.5381092
vn -0.8428751 0 -0.5381092
vn -0.8428751 0 -0.5381092
vn -0.8428751 0 -0.5381092
vn -0.5389357 0 0.8423469
vn -0.5389357 0 0.8423469
vn -0.5389357 0 0.8423469
vn -0.5389357 0 0.8423469
vn 0.8431667 0 0.5376522
vn 0.8431667 0 0.5376522
vn 0.8431667 0 0.5376522
vn 0.8431667 0 0.5376522
vn 0.538581 0 -0.8425738
vn 0.538581 0 -0.8425738
vn 0.538581 0 -0.8425738
vn 0.538581 0 -0.8425738
vn -0.8421744 0 -0.5392052
vn -0.8421744 0 -0.5392052
vn -0.8421744 0 -0.5392052
vn -0.8421744 0 -0.5392052
vn 0 -1 0
vn 0 -1 0
vn 0 -1 0
vn 0 -1 0
vn 0 -1 0
vn 0 -1 0
vn 0 -1 0
vn 0 -1 0
vn 0 -1 0
vn 0 -1 0
vn 0 -1 0

g CDNNDG02_0005790
f 1/1/1 2/2/2 3/3/3
f 4/4/4 5/5/5 6/6/6
f 7/7/7 8/8/8 9/9/9
f 10/10/10 11/11/11 12/12/12
f 13/13/13 14/14/14 15/15/15
f 16/16/16 17/17/17 18/18/18
f 19/19/19 20/20/20 21/21/21
f 22/22/22 23/23/23 24/24/24
f 25/25/25 26/26/26 27/27/27
f 28/28/28 29/29/29 30/30/30
f 31/31/31 32/32/32 33/33/33
f 34/34/34 35/35/35 36/36/36
f 37/37/37 38/38/38 39/39/39
f 40/40/40 41/41/41 42/42/42
f 43/43/43 44/44/44 45/45/45
f 46/46/46 47/47/47 48/48/48
f 49/49/49 50/50/50 51/51/51
f 52/52/52 53/53/53 54/54/54
f 55/55/55 56/56/56 57/57/57
f 58/58/58 59/59/59 60/60/60
f 61/61/61 62/62/62 63/63/63
f 65/65/65 66/66/66 64/64/64
f 64/64/64 66/66/66 67/67/67
f 69/69/69 70/70/70 68/68/68
f 68/68/68 70/70/70 71/71/71
f 75/75/75 72/72/72 74/74/74
f 73/73/73 74/74/74 72/72/72
f 79/79/79 76/76/76 77/77/77
f 77/77/77 78/78/78 79/79/79
f 83/83/83 80/80/80 82/82/82
f 81/81/81 82/82/82 80/80/80
f 84/84/84 86/86/86 87/87/87
f 84/84/84 85/85/85 86/86/86
f 88/88/88 90/90/90 91/91/91
f 90/90/90 88/88/88 89/89/89
f 93/93/93 94/94/94 95/95/95
f 95/95/95 92/92/92 93/93/93
f 99/99/99 96/96/96 98/98/98
f 98/98/98 96/96/96 97/97/97
f 101/101/101 102/102/102 103/103/103
f 100/100/100 101/101/101 103/103/103
f 107/107/107 104/104/104 106/106/106
f 106/106/106 104/104/104 105/105/105
f 109/109/109 110/110/110 111/111/111
f 108/108/108 109/109/109 111/111/111
f 112/112/112 114/114/114 115/115/115
f 112/112/112 113/113/113 114/114/114
f 119/119/119 116/116/116 117/117/117
f 117/117/117 118/118/118 119/119/119
f 120/120/120 122/122/122 123/123/123
f 122/122/122 120/120/120 121/121/121
f 130/130/130 131/131/131 134/134/134
f 134/134/134 132/132/132 133/133/133
f 134/134/134 131/131/131 132/132/132
f 124/124/124 125/125/125 134/134/134
f 125/125/125 126/126/126 134/134/134
f 126/126/126 127/127/127 128/128/128
f 128/128/128 130/130/130 134/134/134
f 126/126/126 128/128/128 134/134/134
f 128/128/128 129/129/129 130/130/130
