v -3.160121 5.505517 -2.353543
v 0.6298792 5.505517 6.536457
v -2.420121 5.505517 -1.898543
v -2.420121 5.505517 -1.898543
v 0.6298792 5.505517 6.536457
v 6.072879 5.505517 -2.427543
v -2.420121 5.505517 -1.898543
v 6.072879 5.505517 -2.427543
v -2.135115 5.505517 -2.361758
v -6.087121 5.505517 2.404457
v 0.6298792 5.505517 6.536457
v -3.160121 5.505517 -2.353543
v -2.717121 5.505517 -3.073543
v 6.072879 5.505517 -2.427543
v -0.5921208 5.505517 -6.527543
v -2.717121 5.505517 -3.073543
v -1.977121 5.505517 -2.618543
v 6.072879 5.505517 -2.427543
v -2.135115 5.505517 -2.361758
v 6.072879 5.505517 -2.427543
v -1.977121 5.505517 -2.618543
v -3.160121 6.619516 -2.353543
v -2.420121 6.619516 -1.898543
v -1.977121 6.619516 -2.618543
v -2.717121 6.619516 -3.073543
v -6.087121 5.505517 2.404457
v -3.160121 5.505517 -2.353543
v -3.160121 -5.516441 -2.353543
v -6.087121 -5.516441 2.404457
v -2.717121 5.505517 -3.073543
v -0.5921208 5.505517 -6.527543
v -0.5921208 -5.516441 -6.527543
v -2.717121 -5.516441 -3.073543
v -3.160121 5.505517 -2.353543
v -2.717121 5.505517 -3.073543
v -2.717121 -5.516441 -3.073543
v -3.160121 -5.516441 -2.353543
v -3.160121 6.619516 -2.353543
v -2.717121 6.619516 -3.073543
v -2.717121 5.505517 -3.073543
v -3.160121 5.505517 -2.353543
v -6.087121 -5.516441 2.404457
v 0.6298792 -5.516441 6.536457
v 0.6298792 5.505517 6.536457
v -6.087121 5.505517 2.404457
v 0.6298792 -5.516441 6.536457
v 6.072879 -5.516441 -2.427543
v 6.072879 5.505517 -2.427543
v 0.6298792 5.505517 6.536457
v -0.5921208 5.505517 -6.527543
v 2.740379 -5.516441 -4.477543
v -0.5921208 -5.516441 -6.527543
v 2.740379 -5.516441 -4.477543
v 6.072879 5.505517 -2.427543
v 6.072879 -5.516441 -2.427543
v -0.5921208 5.505517 -6.527543
v 6.072879 5.505517 -2.427543
v 2.740379 -5.516441 -4.477543
v -3.160121 5.505517 -2.353543
v -2.420121 5.505517 -1.898543
v -2.420121 6.619516 -1.898543
v -3.160121 6.619516 -2.353543
v -2.135115 5.505517 -2.361758
v -1.977121 5.505517 -2.618543
v -1.977121 6.619516 -2.618543
v -2.420121 6.619516 -1.898543
v -2.420121 5.505517 -1.898543
v -2.135115 5.505517 -2.361758
v -2.420121 6.619516 -1.898543
v -2.135115 5.505517 -2.361758
v -1.977121 6.619516 -2.618543
v -2.717121 6.619516 -3.073543
v -1.977121 6.619516 -2.618543
v -1.977121 5.505517 -2.618543
v -2.717121 5.505517 -3.073543
v -3.160121 -5.516441 -2.353543
v -2.717121 -5.516441 -3.073543
v -0.5921208 -5.516441 -6.527543
v 2.740379 -5.516441 -4.477543
v 6.072879 -5.516441 -2.427543
v 0.6298792 -5.516441 6.536457
v -6.087121 -5.516441 2.404457
vt 0.460781 0.325428
vt 0.003021 0.183451
vt 0.438230 0.299033
vt 0.438230 0.299033
vt 0.003021 0.183451
vt 0.479477 0.002028
vt 0.438230 0.299033
vt 0.479477 0.002028
vt 0.462856 0.289527
vt 0.207834 0.423043
vt 0.003021 0.183451
vt 0.460781 0.325428
vt 0.499059 0.310653
vt 0.479477 0.002028
vt 0.682689 0.239782
vt 0.499059 0.310653
vt 0.476508 0.284258
vt 0.479477 0.002028
vt 0.462856 0.289527
vt 0.479477 0.002028
vt 0.476508 0.284258
vt 0.024624 0.998884
vt 0.003021 0.973590
vt 0.039689 0.959432
vt 0.061291 0.984726
vt 0.199396 0.959432
vt 0.199396 0.959432
vt 0.199396 0.959432
vt 0.199396 0.959432
vt 0.199396 0.959432
vt 0.199396 0.959432
vt 0.199396 0.959432
vt 0.199396 0.959432
vt 0.199396 0.959432
vt 0.199396 0.959432
vt 0.199396 0.959432
vt 0.199396 0.959432
vt 0.199396 0.959432
vt 0.199396 0.959432
vt 0.199396 0.959432
vt 0.199396 0.959432
vt 0.811392 0.950230
vt 0.610272 0.714598
vt 0.736678 0.693712
vt 0.940548 0.932575
vt 0.003021 0.870602
vt 0.470226 0.693712
vt 0.603527 0.774385
vt 0.129954 0.953682
vt 0.291757 0.454048
vt 0.104124 0.544015
vt 0.003021 0.427992
vt 0.104124 0.544015
vt 0.496712 0.689262
vt 0.205222 0.660034
vt 0.291757 0.454048
vt 0.496712 0.689262
vt 0.104124 0.544015
vt 0.090395 0.986051
vt 0.069486 0.961297
vt 0.082126 0.959432
vt 0.103064 0.984220
vt 0.135016 0.964243
vt 0.147896 0.959432
vt 0.160872 0.967433
vt 0.124708 0.980940
vt 0.111782 0.972921
vt 0.135016 0.964243
vt 0.124708 0.980940
vt 0.135016 0.964243
vt 0.160872 0.967433
vt 0.169184 0.959432
vt 0.169184 0.959432
vt 0.169184 0.959432
vt 0.169184 0.959432
vt 0.184290 0.959432
vt 0.184290 0.959432
vt 0.184290 0.959432
vt 0.184290 0.959432
vt 0.184290 0.959432
vt 0.184290 0.959432
vt 0.184290 0.959432
vn 0 1 0
vn 0 1 0
vn 0 1 0
vn 0 1 0
vn 0 1 0
vn 0 1 0
vn 0 1 0
vn 0 1 0
vn 0 1 0
vn 0 1 0
vn 0 1 0
vn 0 1 0
vn 0 1 0
vn 0 1 0
vn 0 1 0
vn 0 1 0
vn 0 1 0
vn 0 1 0
vn 0 1 0
vn 0 1 0
vn 0 1 0
vn 0 1 0
vn 0 1 0
vn 0 1 0
vn 0 1 0
vn -0.8517382 0 -0.5239676
vn -0.8517382 0 -0.5239676
vn -0.8517382 0 -0.5239676
vn -0.8517382 0 -0.5239676
vn -0.8517176 0 -0.5240011
vn -0.8517176 0 -0.5240011
vn -0.8517176 0 -0.5240011
vn -0.8517176 0 -0.5240011
vn -0.8516989 0 -0.5240314
vn -0.8516989 0 -0.5240314
vn -0.8516989 0 -0.5240314
vn -0.8516989 0 -0.5240314
vn -0.8516989 0 -0.5240314
vn -0.8516989 0 -0.5240314
vn -0.8516989 0 -0.5240314
vn -0.8516989 0 -0.5240314
vn -0.5239559 0 0.8517454
vn -0.5239559 0 0.8517454
vn -0.5239559 0 0.8517454
vn -0.5239559 0 0.8517454
vn 0.8547633 0 0.5190179
vn 0.8547633 0 0.5190179
vn 0.8547633 0 0.5190179
vn 0.8547633 0 0.5190179
vn 0.5239548 0 -0.8517461
vn 0.5239548 0 -0.8517461
vn 0.5239548 0 -0.8517461
vn 0.5239548 0 -0.8517461
vn 0.5239548 0 -0.8517461
vn 0.5239548 0 -0.8517461
vn 0.5239548 -1.383511E-12 -0.8517461
vn 0.5239548 -1.383511E-12 -0.8517461
vn 0.5239548 -1.383511E-12 -0.8517461
vn -0.5237762 0 0.8518559
vn -0.5237762 0 0.8518559
vn -0.5237762 0 0.8518559
vn -0.5237762 0 0.8518559
vn 0.8516989 0 0.5240314
vn 0.8516989 0 0.5240314
vn 0.8516989 0 0.5240314
vn 0.8516989 0 0.5240314
vn 0.8516989 0 0.5240314
vn 0.8516989 0 0.5240314
vn 0.8516989 1.375681E-09 0.5240314
vn 0.8516989 1.375681E-09 0.5240314
vn 0.8516989 1.375681E-09 0.5240314
vn 0.5237762 0 -0.8518559
vn 0.5237762 0 -0.8518559
vn 0.5237762 0 -0.8518559
vn 0.5237762 0 -0.8518559
vn 0 -1 0
vn 0 -1 0
vn 0 -1 0
vn 0 -1 0
vn 0 -1 0
vn 0 -1 0
vn 0 -1 0

g CDNNDG02_0014190
f 1/1/1 2/2/2 3/3/3
f 4/4/4 5/5/5 6/6/6
f 7/7/7 8/8/8 9/9/9
f 10/10/10 11/11/11 12/12/12
f 13/13/13 14/14/14 15/15/15
f 16/16/16 17/17/17 18/18/18
f 19/19/19 20/20/20 21/21/21
f 22/22/22 23/23/23 25/25/25
f 24/24/24 25/25/25 23/23/23
f 26/26/26 28/28/28 29/29/29
f 26/26/26 27/27/27 28/28/28
f 30/30/30 32/32/32 33/33/33
f 30/30/30 31/31/31 32/32/32
f 34/34/34 36/36/36 37/37/37
f 34/34/34 35/35/35 36/36/36
f 38/38/38 40/40/40 41/41/41
f 38/38/38 39/39/39 40/40/40
f 42/42/42 44/44/44 45/45/45
f 44/44/44 42/42/42 43/43/43
f 49/49/49 46/46/46 48/48/48
f 47/47/47 48/48/48 46/46/46
f 50/50/50 51/51/51 52/52/52
f 53/53/53 54/54/54 55/55/55
f 56/56/56 57/57/57 58/58/58
f 59/59/59 61/61/61 62/62/62
f 61/61/61 59/59/59 60/60/60
f 63/63/63 64/64/64 65/65/65
f 66/66/66 67/67/67 68/68/68
f 69/69/69 70/70/70 71/71/71
f 75/75/75 72/72/72 74/74/74
f 73/73/73 74/74/74 72/72/72
f 76/76/76 81/81/81 82/82/82
f 79/79/79 80/80/80 81/81/81
f 76/76/76 79/79/79 81/81/81
f 77/77/77 78/78/78 79/79/79
f 76/76/76 77/77/77 79/79/79
