v -0.6907902 5.961331 2.996365
v -0.6232901 5.961331 3.041571
v -0.4684216 5.961331 -3.266068
v -3.548422 5.961331 1.394933
v -1.247357 5.961331 3.347107
v -1.066315 5.961331 3.077288
v -0.4684216 5.961331 -3.266068
v 5.182579 5.961331 -3.416067
v 3.763578 5.961331 -3.864067
v 3.763578 5.961331 -3.864067
v 5.182579 5.961331 -3.416067
v 3.988578 5.961331 -4.205068
v -0.4684216 5.961331 -3.266068
v 3.763578 5.961331 -3.864067
v 3.426288 5.961331 -4.086604
v -0.4684216 5.961331 -3.266068
v 3.426288 5.961331 -4.086604
v 3.134578 5.961331 -4.279068
v -0.4684216 5.961331 -3.266068
v 3.134578 5.961331 -4.279068
v 2.876975 5.961331 -4.449366
v 0.1135783 5.961331 -4.146068
v 2.752793 5.961331 -4.531461
v 2.417578 5.961331 -4.753067
v 0.1135783 5.961331 -4.146068
v 2.417578 5.961331 -4.753067
v 2.642578 5.961331 -5.094068
v -0.6313752 5.961331 3.370869
v 0.2935784 5.961331 3.981933
v -0.4764217 5.961331 3.139933
v -0.4764217 5.961331 3.139933
v 0.2935784 5.961331 3.981933
v -0.4684216 5.961331 -3.266068
v -0.6232901 5.961331 3.041571
v -0.4764217 5.961331 3.139933
v -0.4684216 5.961331 -3.266068
v 1.060578 5.961331 -5.578067
v 2.642578 5.961331 -5.094068
v 1.318578 5.961331 -5.969068
v 0.1135783 5.961331 -4.146068
v 2.642578 5.961331 -5.094068
v 1.060578 5.961331 -5.578067
v -0.4684216 5.961331 -3.266068
v 2.876975 5.961331 -4.449366
v 2.752793 5.961331 -4.531461
v -0.4684216 5.961331 -3.266068
v 2.752793 5.961331 -4.531461
v 0.1135783 5.961331 -4.146068
v -2.463422 5.961331 5.987933
v -0.9080354 5.961331 3.63498
v -1.275422 5.961331 3.388933
v -5.330421 5.961331 4.091933
v -1.275422 5.961331 3.388933
v -3.548422 5.961331 1.394933
v -3.548422 5.961331 1.394933
v -1.275422 5.961331 3.388933
v -1.247357 5.961331 3.347107
v -5.330421 5.961331 4.091933
v -2.463422 5.961331 5.987933
v -1.275422 5.961331 3.388933
v -0.4684216 5.961331 -3.266068
v 0.2935784 5.961331 3.981933
v 5.182579 5.961331 -3.416067
v -0.9124216 5.961331 2.847933
v -0.6907902 5.961331 2.996365
v -0.4684216 5.961331 -3.266068
v -3.548422 5.961331 1.394933
v -1.066315 5.961331 3.077288
v -0.9124216 5.961331 2.847933
v -3.548422 5.961331 1.394933
v -0.9124216 5.961331 2.847933
v -0.4684216 5.961331 -3.266068
v 3.359578 6.583331 -4.620068
v 3.763578 5.962331 -3.864067
v 3.988578 5.961331 -4.205068
v 3.134578 6.583331 -4.279068
v 3.763578 5.962331 -3.864067
v 3.359578 6.583331 -4.620068
v 2.417578 5.962331 -4.753067
v 3.134578 6.583331 -4.279068
v 3.359578 6.583331 -4.620068
v 2.417578 5.962331 -4.753067
v 3.359578 6.583331 -4.620068
v 2.642578 5.961331 -5.094068
v -0.9124216 6.748332 2.847933
v -0.6313752 6.748332 3.370869
v -0.4764217 6.748332 3.139933
v -1.275422 6.748332 3.388933
v -0.6313752 6.748332 3.370869
v -0.9124216 6.748332 2.847933
v -0.9080354 6.748332 3.63498
v -0.8394216 6.748332 3.680933
v -0.6313752 6.748332 3.370869
v -1.275422 6.748332 3.388933
v -0.9080354 6.748332 3.63498
v -0.6313752 6.748332 3.370869
v -5.330421 5.961331 4.091933
v -3.548422 5.961331 1.394933
v -3.548422 -5.970908 1.394933
v -5.330421 -5.970908 4.091933
v 1.060578 5.961331 -5.578067
v 1.318578 5.961331 -5.969068
v 1.318578 -5.970908 -5.969068
v 1.060578 -5.970908 -5.578067
v 0.1135783 5.961331 -4.146068
v 1.060578 5.961331 -5.578067
v 1.060578 -5.970908 -5.578067
v 0.1135783 -5.970908 -4.146068
v -0.4684216 5.961331 -3.266068
v 0.1135783 5.961331 -4.146068
v 0.1135783 -5.970908 -4.146068
v -0.4684216 -5.970908 -3.266068
v -3.548422 5.961331 1.394933
v -0.4684216 5.961331 -3.266068
v -0.4684216 -5.970908 -3.266068
v -3.548422 -5.970908 1.394933
v -5.330421 -5.970908 4.091933
v -2.463422 -5.970908 5.987933
v -2.463422 5.961331 5.987933
v -5.330421 5.961331 4.091933
v -2.463422 -5.970908 5.987933
v -0.9080354 -5.970908 3.63498
v -0.9080354 5.961331 3.63498
v -2.463422 5.961331 5.987933
v -0.6313752 -5.970908 3.370869
v 0.2935784 -5.970908 3.981933
v 0.2935784 5.961331 3.981933
v -0.6313752 5.961331 3.370869
v 0.2935784 -5.970908 3.981933
v 5.182579 -5.970908 -3.416067
v 5.182579 5.961331 -3.416067
v 0.2935784 5.961331 3.981933
v 3.988578 5.961331 -4.205068
v 5.182579 5.961331 -3.416067
v 5.182579 -5.970908 -3.416067
v 3.988578 -5.970908 -4.205068
v 3.359578 5.961331 -4.620068
v 3.988578 5.961331 -4.205068
v 3.988578 -5.970908 -4.205068
v 3.359578 -5.970908 -4.620068
v 2.642578 5.961331 -5.094068
v 3.359578 5.961331 -4.620068
v 3.359578 -5.970908 -4.620068
v 2.642578 -5.970908 -5.094068
v 1.318578 5.961331 -5.969068
v 2.642578 5.961331 -5.094068
v 2.642578 -5.970908 -5.094068
v 1.318578 -5.970908 -5.969068
v 3.359578 6.583331 -4.620068
v 3.988578 5.961331 -4.205068
v 3.359578 5.961331 -4.620068
v 2.642578 5.961331 -5.094068
v 3.359578 6.583331 -4.620068
v 3.359578 5.961331 -4.620068
v 3.134578 6.583331 -4.279068
v 3.763578 5.961331 -3.864067
v 3.763578 5.962331 -3.864067
v 3.134578 6.583331 -4.279068
v 3.134578 5.961331 -4.279068
v 3.426288 5.961331 -4.086604
v 3.134578 6.583331 -4.279068
v 3.426288 5.961331 -4.086604
v 3.763578 5.961331 -3.864067
v 2.876975 5.961331 -4.449366
v 3.134578 5.961331 -4.279068
v 3.134578 6.583331 -4.279068
v 2.752793 5.961331 -4.531461
v 2.876975 5.961331 -4.449366
v 3.134578 6.583331 -4.279068
v 2.417578 5.962331 -4.753067
v 2.417578 5.961331 -4.753067
v 2.752793 5.961331 -4.531461
v 2.417578 5.962331 -4.753067
v 2.752793 5.961331 -4.531461
v 3.134578 6.583331 -4.279068
v 3.763578 5.962331 -3.864067
v 3.763578 5.961331 -3.864067
v 3.988578 5.961331 -4.205068
v 2.417578 5.962331 -4.753067
v 2.642578 5.961331 -5.094068
v 2.417578 5.961331 -4.753067
v -0.9080354 -5.970908 3.63498
v -0.8394216 -5.970908 3.680933
v -0.8394216 6.748332 3.680933
v -0.9080354 5.961331 3.63498
v -0.9080354 6.748332 3.63498
v -0.9080354 5.961331 3.63498
v -0.8394216 6.748332 3.680933
v -1.275422 5.961331 3.388933
v -0.9080354 5.961331 3.63498
v -0.9080354 6.748332 3.63498
v -1.275422 6.748332 3.388933
v -0.8394216 6.748332 3.680933
v -0.6313752 5.961331 3.370869
v -0.6313752 6.748332 3.370869
v -0.8394216 -5.970908 3.680933
v -0.6313752 -5.970908 3.370869
v -0.6313752 5.961331 3.370869
v -0.8394216 6.748332 3.680933
v -0.6313752 5.961331 3.370869
v -0.4764217 5.961331 3.139933
v -0.4764217 6.748332 3.139933
v -0.6313752 6.748332 3.370869
v -0.9124216 6.748332 2.847933
v -0.6907902 5.961331 2.996365
v -0.9124216 5.961331 2.847933
v -0.9124216 6.748332 2.847933
v -0.4764217 6.748332 3.139933
v -0.6907902 5.961331 2.996365
v -0.6232901 5.961331 3.041571
v -0.4764217 6.748332 3.139933
v -0.4764217 5.961331 3.139933
v -0.6907902 5.961331 2.996365
v -0.4764217 6.748332 3.139933
v -0.6232901 5.961331 3.041571
v -1.275422 6.748332 3.388933
v -1.247357 5.961331 3.347107
v -1.275422 5.961331 3.388933
v -1.275422 6.748332 3.388933
v -1.066315 5.961331 3.077288
v -1.247357 5.961331 3.347107
v -1.066315 5.961331 3.077288
v -0.9124216 6.748332 2.847933
v -0.9124216 5.961331 2.847933
v -1.275422 6.748332 3.388933
v -0.9124216 6.748332 2.847933
v -1.066315 5.961331 3.077288
v -3.548422 -5.970908 1.394933
v -0.4684216 -5.970908 -3.266068
v 0.1135783 -5.970908 -4.146068
v 1.060578 -5.970908 -5.578067
v 1.318578 -5.970908 -5.969068
v 2.642578 -5.970908 -5.094068
v 3.359578 -5.970908 -4.620068
v 3.988578 -5.970908 -4.205068
v 5.182579 -5.970908 -3.416067
v 0.2935784 -5.970908 3.981933
v -0.6313752 -5.970908 3.370869
v -0.8394216 -5.970908 3.680933
v -0.9080354 -5.970908 3.63498
v -2.463422 -5.970908 5.987933
v -5.330421 -5.970908 4.091933
vt 0.164138 0.211939
vt 0.161693 0.209536
vt 0.501667 0.203540
vt 0.250787 0.313698
vt 0.145297 0.231808
vt 0.159820 0.225333
vt 0.501667 0.203540
vt 0.509110 0.002049
vt 0.533420 0.052610
vt 0.533420 0.052610
vt 0.509110 0.002049
vt 0.551776 0.044562
vt 0.501667 0.203540
vt 0.533420 0.052610
vt 0.545454 0.064619
vt 0.501667 0.203540
vt 0.545454 0.064619
vt 0.555862 0.075005
vt 0.501667 0.203540
vt 0.555862 0.075005
vt 0.565070 0.084177
vt 0.549035 0.182724
vt 0.569510 0.088598
vt 0.581493 0.100533
vt 0.549035 0.182724
vt 0.581493 0.100533
vt 0.599848 0.092485
vt 0.143945 0.209849
vt 0.110900 0.176918
vt 0.156375 0.204307
vt 0.156375 0.204307
vt 0.110900 0.176918
vt 0.501667 0.203540
vt 0.161693 0.209536
vt 0.156375 0.204307
vt 0.501667 0.203540
vt 0.626116 0.148853
vt 0.599848 0.092485
vt 0.647163 0.139625
vt 0.549035 0.182724
vt 0.599848 0.092485
vt 0.626116 0.148853
vt 0.501667 0.203540
vt 0.565070 0.084177
vt 0.569510 0.088598
vt 0.501667 0.203540
vt 0.569510 0.088598
vt 0.549035 0.182724
vt 0.003096 0.275361
vt 0.129741 0.219732
vt 0.143046 0.232812
vt 0.105625 0.377429
vt 0.143046 0.232812
vt 0.250787 0.313698
vt 0.250787 0.313698
vt 0.143046 0.232812
vt 0.145297 0.231808
vt 0.105625 0.377429
vt 0.003096 0.275361
vt 0.143046 0.232812
vt 0.501667 0.203540
vt 0.110900 0.176918
vt 0.509110 0.002049
vt 0.172164 0.219829
vt 0.164138 0.211939
vt 0.501667 0.203540
vt 0.250787 0.313698
vt 0.159820 0.225333
vt 0.172164 0.219829
vt 0.250787 0.313698
vt 0.172164 0.219829
vt 0.501667 0.203540
vt 0.628031 0.765460
vt 0.591331 0.744919
vt 0.608510 0.737705
vt 0.610840 0.772669
vt 0.591331 0.744919
vt 0.628031 0.765460
vt 0.566176 0.775728
vt 0.541796 0.745592
vt 0.559148 0.737705
vt 0.566176 0.775728
vt 0.559148 0.737705
vt 0.583514 0.767856
vt 0.676831 0.752211
vt 0.650341 0.742884
vt 0.662009 0.737705
vt 0.649497 0.764344
vt 0.650341 0.742884
vt 0.676831 0.752211
vt 0.637008 0.752120
vt 0.634675 0.749838
vt 0.650341 0.742884
vt 0.649497 0.764344
vt 0.637008 0.752120
vt 0.650341 0.742884
vt 0.003096 0.626897
vt 0.149182 0.561585
vt 0.149406 0.667756
vt 0.005499 0.732092
vt 0.526903 0.392654
vt 0.548084 0.383197
vt 0.542360 0.492032
vt 0.521495 0.501347
vt 0.449330 0.427365
vt 0.526903 0.392654
vt 0.521495 0.501347
vt 0.445079 0.535540
vt 0.401661 0.448697
vt 0.449330 0.427365
vt 0.445079 0.535540
vt 0.398121 0.556553
vt 0.149182 0.561585
vt 0.401661 0.448697
vt 0.398121 0.556553
vt 0.149406 0.667756
vt 0.244065 0.944967
vt 0.143193 0.844017
vt 0.139319 0.737705
vt 0.241718 0.840184
vt 0.260337 0.788918
vt 0.384059 0.737705
vt 0.376326 0.863200
vt 0.250774 0.915169
vt 0.426039 0.877430
vt 0.395361 0.845011
vt 0.393189 0.737705
vt 0.424332 0.770616
vt 0.565366 0.544884
vt 0.960208 0.383197
vt 0.957957 0.506234
vt 0.557276 0.670308
vt 0.042507 0.903387
vt 0.003096 0.860654
vt 0.005312 0.737705
vt 0.044149 0.779816
vt 0.063235 0.925898
vt 0.042507 0.903387
vt 0.044149 0.779816
vt 0.064575 0.801999
vt 0.086912 0.951559
vt 0.063235 0.925898
vt 0.064575 0.801999
vt 0.087906 0.827287
vt 0.130617 0.998942
vt 0.086912 0.951559
vt 0.087906 0.827287
vt 0.130975 0.873981
vt 0.063164 0.932457
vt 0.042507 0.903387
vt 0.063235 0.925898
vt 0.086912 0.951559
vt 0.063164 0.932457
vt 0.063235 0.925898
vt 0.511012 0.753869
vt 0.489164 0.737714
vt 0.489164 0.737705
vt 0.511012 0.753869
vt 0.510795 0.759474
vt 0.500763 0.749382
vt 0.511012 0.753869
vt 0.500763 0.749382
vt 0.489164 0.737714
vt 0.519671 0.768386
vt 0.510795 0.759474
vt 0.511012 0.753869
vt 0.523950 0.772682
vt 0.519671 0.768386
vt 0.511012 0.753869
vt 0.535501 0.784269
vt 0.535500 0.784278
vt 0.523950 0.772682
vt 0.535501 0.784269
vt 0.523950 0.772682
vt 0.511012 0.753869
vt 0.761610 0.743416
vt 0.761610 0.743408
vt 0.777561 0.737705
vt 0.736842 0.744334
vt 0.752765 0.737705
vt 0.736842 0.744342
vt 0.471470 0.853614
vt 0.469373 0.851216
vt 0.467492 0.737705
vt 0.469739 0.747269
vt 0.469623 0.740141
vt 0.469739 0.747269
vt 0.467492 0.737705
vt 0.481137 0.760300
vt 0.469739 0.747269
vt 0.469623 0.740141
vt 0.481032 0.753186
vt 0.433437 0.878009
vt 0.449149 0.862693
vt 0.448685 0.871066
vt 0.441064 0.744540
vt 0.456076 0.737705
vt 0.449149 0.862693
vt 0.433437 0.878009
vt 0.449149 0.862693
vt 0.460494 0.857527
vt 0.460041 0.865896
vt 0.448685 0.871066
vt 0.696176 0.759920
vt 0.690491 0.744794
vt 0.696567 0.752123
vt 0.696176 0.759920
vt 0.684211 0.745487
vt 0.690491 0.744794
vt 0.688640 0.742562
vt 0.684211 0.745487
vt 0.684613 0.737705
vt 0.690491 0.744794
vt 0.684211 0.745487
vt 0.688640 0.742562
vt 0.702786 0.749880
vt 0.704950 0.755521
vt 0.702899 0.756462
vt 0.702786 0.749880
vt 0.718176 0.749455
vt 0.704950 0.755521
vt 0.718176 0.749455
vt 0.729333 0.737705
vt 0.729420 0.744298
vt 0.702786 0.749880
vt 0.729333 0.737705
vt 0.718176 0.749455
vt 0.786378 0.737705
vt 0.786378 0.737705
vt 0.786378 0.737705
vt 0.786378 0.737705
vt 0.786378 0.737705
vt 0.786378 0.737705
vt 0.786378 0.737705
vt 0.786378 0.737705
vt 0.786378 0.737705
vt 0.786378 0.737705
vt 0.786378 0.737705
vt 0.786378 0.737705
vt 0.786378 0.737705
vt 0.786378 0.737705
vt 0.786378 0.737705
vn 0 1 0
vn 0 1 0
vn 0 1 0
vn 0 1 0
vn 0 1 0
vn 0 1 0
vn 0 1 0
vn 0 1 0
vn 0 1 0
vn 0 1 0
vn 0 1 0
vn 0 1 0
vn 0 1 0
vn 0 1 0
vn 0 1 0
vn 0 1 0
vn 0 1 0
vn 0 1 0
vn 0 1 0
vn 0 1 0
vn 0 1 0
vn 0 1 0
vn 0 1 0
vn 0 1 0
vn 0 1 0
vn 0 1 0
vn 0 1 0
vn 0 1 0
vn 0 1 0
vn 0 1 0
vn 0 1 0
vn 0 1 0
vn 0 1 0
vn 0 1 0
vn 0 1 0
vn 0 1 0
vn 0 1 0
vn 0 1 0
vn 0 1 0
vn 0 1 0
vn 0 1 0
vn 0 1 0
vn 0 1 0
vn 0 1 0
vn 0 1 0
vn 0 1 0
vn 0 1 0
vn 0 1 0
vn 0 1 0
vn 0 1 0
vn 0 1 0
vn 0 1 0
vn 0 1 0
vn 0 1 0
vn 0 1 0
vn 0 1 0
vn 0 1 0
vn 0 1 0
vn 0 1 0
vn 0 1 0
vn 0 1 0
vn 0 1 0
vn 0 1 0
vn 0 1 0
vn 0 1 0
vn 0 1 0
vn 0 1 0
vn 0 1 0
vn 0 1 0
vn 0 1 0
vn 0 1 0
vn 0 1 0
vn 0.5323682 0.7712184 0.3490077
vn 0.5323682 0.7712184 0.3490077
vn 0.5323682 0.7712184 0.3490077
vn 0.530821 0.7717222 0.3502484
vn 0.530821 0.7717222 0.3502484
vn 0.530821 0.7717222 0.3502484
vn -0.4888195 0.8105718 -0.3225349
vn -0.4888195 0.8105718 -0.3225349
vn -0.4888195 0.8105718 -0.3225349
vn -0.4882422 0.8101234 -0.3245297
vn -0.4882422 0.8101234 -0.3245297
vn -0.4882422 0.8101234 -0.3245297
vn 0 1 0
vn 0 1 0
vn 0 1 0
vn 0 1 0
vn 0 1 0
vn 0 1 0
vn 0 1 0
vn 0 1 0
vn 0 1 0
vn 0 1 0
vn 0 1 0
vn 0 1 0
vn -0.8343277 0 -0.5512688
vn -0.8343277 0 -0.5512688
vn -0.8343277 0 -0.5512688
vn -0.8343277 0 -0.5512688
vn -0.8346683 0 -0.550753
vn -0.8346683 0 -0.550753
vn -0.8346683 0 -0.550753
vn -0.8346683 0 -0.550753
vn -0.8341056 0 -0.5516047
vn -0.8341056 0 -0.5516047
vn -0.8341056 0 -0.5516047
vn -0.8341056 0 -0.5516047
vn -0.8340861 0 -0.5516343
vn -0.8340861 0 -0.5516343
vn -0.8340861 0 -0.5516343
vn -0.8340861 0 -0.5516343
vn -0.8343015 0 -0.5513085
vn -0.8343015 0 -0.5513085
vn -0.8343015 0 -0.5513085
vn -0.8343015 0 -0.5513085
vn -0.551608 0 0.8341035
vn -0.551608 0 0.8341035
vn -0.551608 0 0.8341035
vn -0.551608 0 0.8341035
vn 0.8342118 0 0.5514441
vn 0.8342118 0 0.5514441
vn 0.8342118 0 0.5514441
vn 0.8342118 0 0.5514441
vn -0.5512156 0 0.8343629
vn -0.5512156 0 0.8343629
vn -0.5512156 0 0.8343629
vn -0.5512156 0 0.8343629
vn 0.8342816 0 0.5513386
vn 0.8342816 0 0.5513386
vn 0.8342816 0 0.5513386
vn 0.8342816 0 0.5513386
vn 0.5513094 0 -0.8343009
vn 0.5513094 0 -0.8343009
vn 0.5513094 0 -0.8343009
vn 0.5513094 0 -0.8343009
vn 0.5507128 0 -0.8346948
vn 0.5507128 0 -0.8346948
vn 0.5507128 0 -0.8346948
vn 0.5507128 0 -0.8346948
vn 0.5514742 0 -0.834192
vn 0.5514742 0 -0.834192
vn 0.5514742 0 -0.834192
vn 0.5514742 0 -0.834192
vn 0.5513512 0 -0.8342732
vn 0.5513512 0 -0.8342732
vn 0.5513512 0 -0.8342732
vn 0.5513512 0 -0.8342732
vn 0.5507128 0 -0.8346948
vn 0.5507128 0 -0.8346948
vn 0.5507128 0 -0.8346948
vn 0.5514742 0 -0.834192
vn 0.5514742 0 -0.834192
vn 0.5514742 0 -0.834192
vn -0.5507128 0 0.8346948
vn -0.5507128 0 0.8346948
vn -0.5507128 0 0.8346948
vn -0.5507128 0 0.8346948
vn -0.5507128 0 0.8346948
vn -0.5507128 0 0.8346948
vn -0.5507128 1.67391E-08 0.8346948
vn -0.5507128 1.67391E-08 0.8346948
vn -0.5507128 1.67391E-08 0.8346948
vn -0.5514742 0 0.834192
vn -0.5514742 0 0.834192
vn -0.5514742 0 0.834192
vn -0.5514742 -1.434334E-08 0.834192
vn -0.5514742 -1.434334E-08 0.834192
vn -0.5514742 -1.434334E-08 0.834192
vn -0.5514742 0 0.834192
vn -0.5514742 0 0.834192
vn -0.5514742 0 0.834192
vn -0.5514742 6.13491E-09 0.834192
vn -0.5514742 6.13491E-09 0.834192
vn -0.5514742 6.13491E-09 0.834192
vn 0.8346769 0 0.5507399
vn 0.8346769 0 0.5507399
vn 0.8346769 0 0.5507399
vn -0.8346769 0 -0.5507399
vn -0.8346769 0 -0.5507399
vn -0.8346769 0 -0.5507399
vn -0.556458 0 0.8308758
vn -0.556458 0 0.8308758
vn -0.556458 0 0.8308758
vn -0.556458 0 0.8308758
vn -0.556458 0 0.8308758
vn -0.556458 0 0.8308758
vn -0.556458 0 0.8308758
vn -0.5564581 0 0.8308757
vn -0.5564581 0 0.8308757
vn -0.5564581 0 0.8308757
vn -0.5564581 0 0.8308757
vn 0.8303936 0 0.5571772
vn 0.8303936 0 0.5571772
vn 0.8303936 0 0.5571772
vn 0.8303936 0 0.5571772
vn 0.8303936 0 0.5571772
vn 0.8303936 0 0.5571772
vn 0.8303936 0 0.5571772
vn 0.8303936 0 0.5571772
vn 0.8303936 0 0.5571772
vn 0.8303936 0 0.5571772
vn 0.8303936 0 0.5571772
vn 0.5564581 0 -0.8308757
vn 0.5564581 0 -0.8308757
vn 0.5564581 0 -0.8308757
vn 0.5564581 -1.992579E-09 -0.8308757
vn 0.5564581 -1.992579E-09 -0.8308757
vn 0.5564581 -1.992579E-09 -0.8308757
vn 0.5564581 0 -0.8308757
vn 0.5564581 0 -0.8308757
vn 0.5564581 0 -0.8308757
vn 0.5564581 -3.229681E-09 -0.8308757
vn 0.5564581 -3.229681E-09 -0.8308757
vn 0.5564581 -3.229681E-09 -0.8308757
vn -0.8303936 0 -0.5571772
vn -0.8303936 0 -0.5571772
vn -0.8303936 0 -0.5571772
vn -0.8303936 -2.245172E-09 -0.5571772
vn -0.8303936 -2.245172E-09 -0.5571772
vn -0.8303936 -2.245172E-09 -0.5571772
vn -0.8303936 0 -0.5571772
vn -0.8303936 0 -0.5571772
vn -0.8303936 0 -0.5571772
vn -0.8303936 1.815665E-09 -0.5571772
vn -0.8303936 1.815665E-09 -0.5571772
vn -0.8303936 1.815665E-09 -0.5571772
vn 0 -1 0
vn 0 -1 0
vn 0 -1 0
vn 0 -1 0
vn 0 -1 0
vn 0 -1 0
vn 0 -1 0
vn 0 -1 0
vn 0 -1 0
vn 0 -1 0
vn 0 -1 0
vn 0 -1 0
vn 0 -1 0
vn 0 -1 0
vn 0 -1 0

g CDNNDG02_0008760
f 1/1/1 2/2/2 3/3/3
f 4/4/4 5/5/5 6/6/6
f 7/7/7 8/8/8 9/9/9
f 10/10/10 11/11/11 12/12/12
f 13/13/13 14/14/14 15/15/15
f 16/16/16 17/17/17 18/18/18
f 19/19/19 20/20/20 21/21/21
f 22/22/22 23/23/23 24/24/24
f 25/25/25 26/26/26 27/27/27
f 28/28/28 29/29/29 30/30/30
f 31/31/31 32/32/32 33/33/33
f 34/34/34 35/35/35 36/36/36
f 37/37/37 38/38/38 39/39/39
f 40/40/40 41/41/41 42/42/42
f 43/43/43 44/44/44 45/45/45
f 46/46/46 47/47/47 48/48/48
f 49/49/49 50/50/50 51/51/51
f 52/52/52 53/53/53 54/54/54
f 55/55/55 56/56/56 57/57/57
f 58/58/58 59/59/59 60/60/60
f 61/61/61 62/62/62 63/63/63
f 64/64/64 65/65/65 66/66/66
f 67/67/67 68/68/68 69/69/69
f 70/70/70 71/71/71 72/72/72
f 73/73/73 74/74/74 75/75/75
f 76/76/76 77/77/77 78/78/78
f 79/79/79 80/80/80 81/81/81
f 82/82/82 83/83/83 84/84/84
f 85/85/85 86/86/86 87/87/87
f 88/88/88 89/89/89 90/90/90
f 91/91/91 92/92/92 93/93/93
f 94/94/94 95/95/95 96/96/96
f 97/97/97 98/98/98 99/99/99
f 100/100/100 97/97/97 99/99/99
f 101/101/101 103/103/103 104/104/104
f 101/101/101 102/102/102 103/103/103
f 105/105/105 107/107/107 108/108/108
f 105/105/105 106/106/106 107/107/107
f 110/110/110 111/111/111 112/112/112
f 109/109/109 110/110/110 112/112/112
f 113/113/113 115/115/115 116/116/116
f 113/113/113 114/114/114 115/115/115
f 117/117/117 119/119/119 120/120/120
f 119/119/119 117/117/117 118/118/118
f 122/122/122 123/123/123 124/124/124
f 121/121/121 122/122/122 124/124/124
f 128/128/128 125/125/125 127/127/127
f 127/127/127 125/125/125 126/126/126
f 129/129/129 131/131/131 132/132/132
f 129/129/129 130/130/130 131/131/131
f 133/133/133 135/135/135 136/136/136
f 133/133/133 134/134/134 135/135/135
f 139/139/139 137/137/137 138/138/138
f 137/137/137 139/139/139 140/140/140
f 143/143/143 144/144/144 142/142/142
f 141/141/141 142/142/142 144/144/144
f 147/147/147 145/145/145 146/146/146
f 145/145/145 147/147/147 148/148/148
f 149/149/149 150/150/150 151/151/151
f 152/152/152 153/153/153 154/154/154
f 155/155/155 156/156/156 157/157/157
f 158/158/158 159/159/159 160/160/160
f 161/161/161 162/162/162 163/163/163
f 164/164/164 165/165/165 166/166/166
f 167/167/167 168/168/168 169/169/169
f 170/170/170 171/171/171 172/172/172
f 173/173/173 174/174/174 175/175/175
f 176/176/176 177/177/177 178/178/178
f 179/179/179 180/180/180 181/181/181
f 183/183/183 184/184/184 185/185/185
f 185/185/185 182/182/182 183/183/183
f 186/186/186 187/187/187 188/188/188
f 189/189/189 191/191/191 192/192/192
f 191/191/191 189/189/189 190/190/190
f 193/193/193 194/194/194 195/195/195
f 196/196/196 198/198/198 199/199/199
f 196/196/196 197/197/197 198/198/198
f 201/201/201 202/202/202 200/200/200
f 200/200/200 202/202/202 203/203/203
f 204/204/204 205/205/205 206/206/206
f 207/207/207 208/208/208 209/209/209
f 210/210/210 211/211/211 212/212/212
f 213/213/213 214/214/214 215/215/215
f 216/216/216 217/217/217 218/218/218
f 219/219/219 220/220/220 221/221/221
f 222/222/222 223/223/223 224/224/224
f 225/225/225 226/226/226 227/227/227
f 240/240/240 241/241/241 242/242/242
f 228/228/228 240/240/240 242/242/242
f 238/238/238 239/239/239 240/240/240
f 228/228/228 229/229/229 238/238/238
f 229/229/229 230/230/230 234/234/234
f 230/230/230 231/231/231 233/233/233
f 228/228/228 238/238/238 240/240/240
f 231/231/231 232/232/232 233/233/233
f 230/230/230 233/233/233 234/234/234
f 229/229/229 234/234/234 235/235/235
f 229/229/229 235/235/235 236/236/236
f 229/229/229 237/237/237 238/238/238
f 229/229/229 236/236/236 237/237/237
