v -7.064319 5.49081 3.183671
v -0.3433191 5.48981 7.462671
v -7.035319 5.49081 3.137671
v -7.035319 5.49081 3.137671
v 1.692681 5.490407 -4.593328
v -1.255319 5.49081 -5.941329
v -0.3433191 5.48981 7.462671
v 5.087681 5.48981 -1.069329
v 1.692681 5.490407 -4.593328
v -7.035319 5.49081 3.137671
v 1.692681 5.490407 -4.593328
v 5.087681 5.48981 -1.069329
v 5.113681 5.48981 -1.109329
v -1.255319 5.49081 -5.941329
v 1.692681 5.490407 -4.593328
v -1.016319 5.49081 -6.317328
v 5.113681 5.48981 -1.109329
v 5.497681 5.48981 -1.713329
v 5.414681 5.48992 -3.200329
v 5.414681 5.48992 -3.200329
v 5.497681 5.48981 -1.713329
v 6.147681 5.48981 -2.733329
v 1.692681 5.490407 -4.593328
v 5.113681 5.48981 -1.109329
v 5.414681 5.48992 -3.200329
v 1.692681 5.490407 -4.593328
v 5.414681 5.48992 -3.200329
v 2.134681 5.490407 -5.287329
v 5.827672 3.19759 -3.848315
v 8.666687 2.815882 -6.691339
v 6.902688 2.814882 -7.814339
v 5.414681 3.272441 -3.200329
v 6.147681 3.272882 -2.733329
v 5.827672 3.19759 -3.848315
v 4.796695 3.19703 -4.504351
v 5.827672 3.19759 -3.848315
v 6.902688 2.814882 -7.814339
v 5.827672 3.19759 -3.848315
v 6.147681 3.272882 -2.733329
v 8.666687 2.815882 -6.691339
v -7.064319 5.49081 3.183671
v -7.035319 5.49081 3.137671
v -7.035319 -5.322383 3.137671
v -7.064319 -5.322383 3.183671
v -1.255319 5.49081 -5.941329
v -1.135819 -5.322383 -6.129329
v -1.255319 -5.322383 -5.941329
v -1.135819 -5.322383 -6.129329
v -1.016319 5.49081 -6.317328
v -1.016319 -5.322383 -6.317328
v -1.255319 5.49081 -5.941329
v -1.016319 5.49081 -6.317328
v -1.135819 -5.322383 -6.129329
v -7.035319 5.49081 3.137671
v -4.145319 -5.322383 -1.401829
v -7.035319 -5.322383 3.137671
v -4.145319 -5.322383 -1.401829
v -1.255319 5.49081 -5.941329
v -1.255319 -5.322383 -5.941329
v -7.035319 5.49081 3.137671
v -1.255319 5.49081 -5.941329
v -4.145319 -5.322383 -1.401829
v -7.064319 -5.322383 3.183671
v -0.3433191 -5.322383 7.462671
v -0.3433191 5.48981 7.462671
v -7.064319 5.49081 3.183671
v 2.372181 -5.322383 3.196671
v 5.087681 -5.322383 -1.069329
v 5.087681 5.48981 -1.069329
v -0.3433191 5.48981 7.462671
v -0.3433191 -5.322383 7.462671
v 2.372181 -5.322383 3.196671
v -0.3433191 5.48981 7.462671
v 2.372181 -5.322383 3.196671
v 5.087681 5.48981 -1.069329
v 5.100681 -5.322383 -1.089329
v 5.113681 5.429757 -1.109329
v 5.113681 5.48981 -1.109329
v 5.100681 -5.322383 -1.089329
v 5.113681 -5.322383 -1.109329
v 5.113681 5.429757 -1.109329
v 5.087681 5.48981 -1.069329
v 5.087681 -5.322383 -1.069329
v 5.100681 -5.322383 -1.089329
v 5.087681 5.48981 -1.069329
v 5.100681 -5.322383 -1.089329
v 5.113681 5.48981 -1.109329
v 5.113681 5.429757 -1.109329
v 5.497681 5.429757 -1.713329
v 5.497681 5.48981 -1.713329
v 5.113681 5.48981 -1.109329
v 5.497681 5.429757 -1.713329
v 6.147681 3.272882 -2.733329
v 6.147681 5.48981 -2.733329
v 5.497681 -5.322383 -1.713329
v 6.147681 -5.322383 -2.733329
v 6.147681 3.272882 -2.733329
v 5.497681 5.429757 -1.713329
v 5.497681 5.48981 -1.713329
v 5.497681 5.429757 -1.713329
v 6.147681 5.48981 -2.733329
v 5.305681 -5.322383 -1.411329
v 5.497681 -5.322383 -1.713329
v 5.497681 5.429757 -1.713329
v 5.113681 5.429757 -1.109329
v 5.113681 -5.322383 -1.109329
v 5.305681 -5.322383 -1.411329
v 5.113681 5.429757 -1.109329
v 5.305681 -5.322383 -1.411329
v 5.497681 5.429757 -1.713329
v 6.147681 -5.322383 -2.733329
v 8.666687 -5.322383 -6.691339
v 8.666687 2.815882 -6.691339
v 6.147681 3.272882 -2.733329
v 5.414681 5.48992 -3.200329
v 6.147681 5.48981 -2.733329
v 6.147681 3.272882 -2.733329
v 5.414681 3.272441 -3.200329
v 2.134681 5.490407 -5.287329
v 5.414681 3.272441 -3.200329
v 5.414681 -5.322383 -3.200329
v 2.134681 -5.322383 -5.287329
v 2.134681 5.490407 -5.287329
v 5.414681 5.48992 -3.200329
v 5.414681 3.272441 -3.200329
v 1.692681 5.490407 -4.593328
v 2.134681 5.490407 -5.287329
v 2.134681 -5.322383 -5.287329
v 1.692681 -5.322383 -4.593328
v -1.016319 5.49081 -6.317328
v 0.3381809 -5.322383 -5.455328
v -1.016319 -5.322383 -6.317328
v 0.3381809 -5.322383 -5.455328
v 1.692681 5.490407 -4.593328
v 1.692681 -5.322383 -4.593328
v -1.016319 5.49081 -6.317328
v 1.692681 5.490407 -4.593328
v 0.3381809 -5.322383 -5.455328
v 6.902688 2.814882 -7.814339
v 7.784688 -5.322383 -7.252839
v 6.902688 -5.322383 -7.814339
v 7.784688 -5.322383 -7.252839
v 8.666687 2.815882 -6.691339
v 8.666687 -5.322383 -6.691339
v 6.902688 2.814882 -7.814339
v 8.666687 2.815882 -6.691339
v 7.784688 -5.322383 -7.252839
v 4.796695 3.19703 -4.504351
v 6.902688 2.814882 -7.814339
v 6.902688 -5.322383 -7.814339
v 4.796695 -5.322383 -4.504351
v 4.796695 -5.322383 -4.504351
v 5.827672 -5.322383 -3.848315
v 5.827672 3.19759 -3.848315
v 4.796695 3.19703 -4.504351
v 5.414681 3.272441 -3.200329
v 5.621177 -5.322383 -3.524322
v 5.414681 -5.322383 -3.200329
v 5.621177 -5.322383 -3.524322
v 5.827672 3.19759 -3.848315
v 5.827672 -5.322383 -3.848315
v 5.414681 3.272441 -3.200329
v 5.827672 3.19759 -3.848315
v 5.621177 -5.322383 -3.524322
v -1.255319 -5.322383 -5.941329
v -1.135819 -5.322383 -6.129329
v -1.016319 -5.322383 -6.317328
v 0.3381809 -5.322383 -5.455328
v 1.692681 -5.322383 -4.593328
v 2.134681 -5.322383 -5.287329
v 5.414681 -5.322383 -3.200329
v 5.621177 -5.322383 -3.524322
v 5.827672 -5.322383 -3.848315
v 4.796695 -5.322383 -4.504351
v 6.902688 -5.322383 -7.814339
v 7.784688 -5.322383 -7.252839
v 8.666687 -5.322383 -6.691339
v 6.147681 -5.322383 -2.733329
v 5.497681 -5.322383 -1.713329
v 5.305681 -5.322383 -1.411329
v 5.113681 -5.322383 -1.109329
v 5.100681 -5.322383 -1.089329
v 5.087681 -5.322383 -1.069329
v 2.372181 -5.322383 3.196671
v -0.3433191 -5.322383 7.462671
v -7.064319 -5.322383 3.183671
v -7.035319 -5.322383 3.137671
v -4.145319 -5.322383 -1.401829
vt 0.160213 0.343088
vt 0.002114 0.169004
vt 0.161914 0.342340
vt 0.161914 0.342340
vt 0.447924 0.116839
vt 0.497711 0.193178
vt 0.002114 0.169004
vt 0.317683 0.028838
vt 0.447924 0.116839
vt 0.161914 0.342340
vt 0.447924 0.116839
vt 0.317683 0.028838
vt 0.319163 0.028166
vt 0.497711 0.193178
vt 0.447924 0.116839
vt 0.511618 0.187010
vt 0.319163 0.028166
vt 0.341503 0.018256
vt 0.396486 0.020467
vt 0.396486 0.020467
vt 0.341503 0.018256
vt 0.379231 0.001479
vt 0.447924 0.116839
vt 0.319163 0.028166
vt 0.396486 0.020467
vt 0.447924 0.116839
vt 0.396486 0.020467
vt 0.473594 0.105432
vt 0.373491 0.956789
vt 0.481340 0.884615
vt 0.522424 0.929684
vt 0.349019 0.967276
vt 0.331924 0.948538
vt 0.373491 0.956789
vt 0.397503 0.983141
vt 0.373491 0.956789
vt 0.522424 0.929684
vt 0.373491 0.956789
vt 0.331924 0.948538
vt 0.481340 0.884615
vt 0.002114 0.802705
vt 0.003834 0.801970
vt 0.113204 0.880663
vt 0.111508 0.881388
vt 0.343251 0.655466
vt 0.454989 0.733146
vt 0.448055 0.736134
vt 0.454989 0.733146
vt 0.357308 0.649408
vt 0.461923 0.730158
vt 0.343251 0.655466
vt 0.357308 0.649408
vt 0.454989 0.733146
vt 0.003834 0.801970
vt 0.280627 0.808399
vt 0.113204 0.880663
vt 0.280627 0.808399
vt 0.343251 0.655466
vt 0.448055 0.736134
vt 0.003834 0.801970
vt 0.343251 0.655466
vt 0.280627 0.808399
vt 0.798445 0.346154
vt 0.951402 0.515784
vt 0.793511 0.592664
vt 0.638478 0.420764
vt 0.479495 0.486877
vt 0.326552 0.555468
vt 0.165446 0.485178
vt 0.475430 0.346154
vt 0.632443 0.418284
vt 0.479495 0.486877
vt 0.475430 0.346154
vt 0.479495 0.486877
vt 0.165446 0.485178
vt 0.325835 0.555797
vt 0.164899 0.486239
vt 0.163992 0.485843
vt 0.325835 0.555797
vt 0.325118 0.556125
vt 0.164899 0.486239
vt 0.165446 0.485178
vt 0.326552 0.555468
vt 0.325835 0.555797
vt 0.165446 0.485178
vt 0.325835 0.555797
vt 0.163992 0.485843
vt 0.164899 0.486239
vt 0.142957 0.496067
vt 0.142049 0.495673
vt 0.163992 0.485843
vt 0.142957 0.496067
vt 0.138541 0.526802
vt 0.104992 0.512311
vt 0.303464 0.565824
vt 0.266896 0.582242
vt 0.138541 0.526802
vt 0.142957 0.496067
vt 0.142049 0.495673
vt 0.142957 0.496067
vt 0.104992 0.512311
vt 0.314291 0.560975
vt 0.303464 0.565824
vt 0.142957 0.496067
vt 0.164899 0.486239
vt 0.325118 0.556125
vt 0.314291 0.560975
vt 0.164899 0.486239
vt 0.314291 0.560975
vt 0.142957 0.496067
vt 0.266896 0.582242
vt 0.125000 0.645867
vt 0.002114 0.594044
vt 0.138541 0.526802
vt 0.484524 0.721856
vt 0.467230 0.703086
vt 0.488653 0.688124
vt 0.505904 0.706838
vt 0.561809 0.805845
vt 0.505904 0.706838
vt 0.587660 0.649408
vt 0.663912 0.732269
vt 0.561809 0.805845
vt 0.484524 0.721856
vt 0.505904 0.706838
vt 0.528541 0.895715
vt 0.554193 0.884615
vt 0.658106 0.965703
vt 0.632799 0.976653
vt 0.733904 0.792379
vt 0.803859 0.683596
vt 0.835289 0.717783
vt 0.803859 0.683596
vt 0.670190 0.723073
vt 0.772428 0.649408
vt 0.733904 0.792379
vt 0.670190 0.723073
vt 0.803859 0.683596
vt 0.252568 0.982599
vt 0.307305 0.906777
vt 0.327668 0.928939
vt 0.307305 0.906777
vt 0.211416 0.937831
vt 0.286941 0.884615
vt 0.252568 0.982599
vt 0.211416 0.937831
vt 0.307305 0.906777
vt 0.002114 0.934554
vt 0.128486 0.884615
vt 0.205910 0.946850
vt 0.084514 0.999180
vt 0.791541 0.884615
vt 0.814826 0.910353
vt 0.687371 0.971714
vt 0.663848 0.945701
vt 0.820296 0.894347
vt 0.914955 0.954195
vt 0.903180 0.959292
vt 0.914955 0.954195
vt 0.844827 0.884615
vt 0.926729 0.949098
vt 0.820296 0.894347
vt 0.844827 0.884615
vt 0.914955 0.954195
vt 0.932347 0.884615
vt 0.932347 0.884615
vt 0.932347 0.884615
vt 0.932347 0.884615
vt 0.932347 0.884615
vt 0.932347 0.884615
vt 0.932347 0.884615
vt 0.932347 0.884615
vt 0.932347 0.884615
vt 0.932347 0.884615
vt 0.932347 0.884615
vt 0.932347 0.884615
vt 0.932347 0.884615
vt 0.932347 0.884615
vt 0.932347 0.884615
vt 0.932347 0.884615
vt 0.932347 0.884615
vt 0.932347 0.884615
vt 0.932347 0.884615
vt 0.932347 0.884615
vt 0.932347 0.884615
vt 0.932347 0.884615
vt 0.932347 0.884615
vt 0.932347 0.884615
vn 0.0001058699 1 6.739621E-05
vn 0.0001058699 1 6.739621E-05
vn 0.0001058699 1 6.739621E-05
vn 0.0001058702 1 6.739949E-05
vn 0.0001058702 1 6.739949E-05
vn 0.0001058702 1 6.739949E-05
vn 0.0001058682 1 6.739778E-05
vn 0.0001058676 1 6.739768E-05
vn 0.0001058682 1 6.739778E-05
vn 0.0001058688 1 6.739789E-05
vn 0.0001059195 1 6.734768E-05
vn 0.0001059195 1 6.734768E-05
vn 0.0001059195 1 6.734768E-05
vn 0.0001058695 1 6.74011E-05
vn 0.0001058695 1 6.74011E-05
vn 0.0001058695 1 6.74011E-05
vn 0.0001058486 1 6.739379E-05
vn 0.0001058486 1 6.739379E-05
vn 0.0001058486 1 6.739379E-05
vn 0.0001058629 1 6.7393E-05
vn 0.0001058629 1 6.7393E-05
vn 0.0001058629 1 6.7393E-05
vn 0.0001058695 1 6.73968E-05
vn 0.0001058695 1 6.73968E-05
vn 0.0001058695 1 6.73968E-05
vn 0.0001058691 1 6.739789E-05
vn 0.0001058691 1 6.739789E-05
vn 0.0001058691 1 6.739789E-05
vn 0.05166313 0.9952892 -0.08203834
vn 0.05166313 0.9952892 -0.08203834
vn 0.05166313 0.9952892 -0.08203834
vn 0.05166924 0.9952888 -0.08203901
vn 0.05166924 0.9952888 -0.08203901
vn 0.05166924 0.9952888 -0.08203901
vn 0.05166314 0.9952892 -0.08203834
vn 0.05166314 0.9952892 -0.08203834
vn 0.05166314 0.9952892 -0.08203834
vn 0.05166396 0.9952893 -0.08203752
vn 0.05166396 0.9952893 -0.08203752
vn 0.05166396 0.9952893 -0.08203752
vn -0.8459257 0 -0.5333008
vn -0.8459257 0 -0.5333008
vn -0.8459257 0 -0.5333008
vn -0.8459257 0 -0.5333008
vn -0.8439386 0 -0.5364397
vn -0.8439386 0 -0.5364397
vn -0.8439386 0 -0.5364397
vn -0.8439386 0 -0.5364398
vn -0.8439386 0 -0.5364398
vn -0.8439386 0 -0.5364398
vn -0.8439386 3.929644E-10 -0.5364397
vn -0.8439386 3.929644E-10 -0.5364397
vn -0.8439386 3.929644E-10 -0.5364397
vn -0.8435582 0 -0.5370378
vn -0.8435582 0 -0.5370378
vn -0.8435582 0 -0.5370378
vn -0.8435582 0 -0.5370378
vn -0.8435582 0 -0.5370378
vn -0.8435582 0 -0.5370378
vn -0.8435582 0 -0.5370378
vn -0.8435582 0 -0.5370378
vn -0.8435582 0 -0.5370378
vn -0.5370541 0 0.8435478
vn -0.5370541 0 0.8435478
vn -0.5370541 0 0.8435478
vn -0.5370541 0 0.8435478
vn 0.8435923 0 0.5369843
vn 0.8435923 0 0.5369843
vn 0.8435923 0 0.5369843
vn 0.8435923 0 0.5369843
vn 0.8435923 0 0.5369843
vn 0.8435923 0 0.5369843
vn 0.8435923 0 0.5369843
vn 0.8435923 0 0.5369843
vn 0.8435923 0 0.5369843
vn 0.8384436 0 0.5449883
vn 0.8384436 0 0.5449883
vn 0.8384436 0 0.5449883
vn 0.8384436 0 0.5449883
vn 0.8384436 0 0.5449883
vn 0.8384436 0 0.5449883
vn 0.8384436 0 0.5449883
vn 0.8384436 0 0.5449883
vn 0.8384436 0 0.5449883
vn 0.8384436 -2.572854E-11 0.5449883
vn 0.8384436 -2.572854E-11 0.5449883
vn 0.8384436 -2.572854E-11 0.5449883
vn 0.8438916 0 0.5365138
vn 0.8438916 0 0.5365138
vn 0.8438916 0 0.5365138
vn 0.8438916 0 0.5365138
vn 0.8433209 0 0.5374104
vn 0.8433209 0 0.5374104
vn 0.8433209 0 0.5374104
vn 0.8433209 0 0.5374104
vn 0.8433209 0 0.5374104
vn 0.8433209 0 0.5374104
vn 0.8433209 0 0.5374104
vn 0.8433209 0 0.5374104
vn 0.8433209 0 0.5374104
vn 0.8433209 0 0.5374104
vn 0.8438916 0 0.5365138
vn 0.8438916 0 0.5365138
vn 0.8438916 0 0.5365138
vn 0.8438916 0 0.5365138
vn 0.8438916 0 0.5365138
vn 0.8438916 0 0.5365138
vn 0.8438916 0 0.5365138
vn 0.8438916 0 0.5365138
vn 0.8438916 0 0.5365138
vn 0.8436351 0 0.5369169
vn 0.8436351 0 0.5369169
vn 0.8436351 0 0.5369169
vn 0.8436351 0 0.5369169
vn 0.5373221 0 -0.8433771
vn 0.5373221 0 -0.8433771
vn 0.5373221 0 -0.8433771
vn 0.5373221 0 -0.8433771
vn 0.5368255 0 -0.8436933
vn 0.5368255 0 -0.8436933
vn 0.5368255 0 -0.8436933
vn 0.5368255 0 -0.8436933
vn 0.5368255 0 -0.8436933
vn 0.5368255 0 -0.8436933
vn 0.5368255 0 -0.8436933
vn -0.8434613 0 -0.53719
vn -0.8434613 0 -0.53719
vn -0.8434613 0 -0.53719
vn -0.8434613 0 -0.53719
vn 0.5368956 0 -0.8436487
vn 0.5368956 0 -0.8436487
vn 0.5368956 0 -0.8436487
vn 0.5368956 0 -0.8436487
vn 0.5368956 0 -0.8436487
vn 0.5368956 0 -0.8436487
vn 0.5368956 -2.848868E-10 -0.8436487
vn 0.5368956 -2.848868E-10 -0.8436487
vn 0.5368956 -2.848868E-10 -0.8436487
vn 0.5370302 0 -0.843563
vn 0.5370302 0 -0.843563
vn 0.5370302 0 -0.843563
vn 0.5370302 0 -0.843563
vn 0.5370302 0 -0.843563
vn 0.5370302 0 -0.843563
vn 0.5370302 -1.920632E-12 -0.843563
vn 0.5370302 -1.920632E-12 -0.843563
vn 0.5370302 -1.920632E-12 -0.843563
vn -0.8437034 0 -0.5368095
vn -0.8437034 0 -0.5368095
vn -0.8437034 0 -0.5368095
vn -0.8437034 0 -0.5368095
vn -0.5368522 0 0.8436763
vn -0.5368522 0 0.8436763
vn -0.5368522 0 0.8436763
vn -0.5368522 0 0.8436763
vn -0.8432862 0 -0.5374649
vn -0.8432862 0 -0.5374649
vn -0.8432862 0 -0.5374649
vn -0.8432862 0 -0.5374649
vn -0.8432862 0 -0.5374649
vn -0.8432862 0 -0.5374649
vn -0.8432862 2.924681E-10 -0.5374649
vn -0.8432862 2.924681E-10 -0.5374649
vn -0.8432862 2.924681E-10 -0.5374649
vn 0 -1 0
vn 0 -1 0
vn 0 -1 0
vn 0 -1 0
vn 0 -1 0
vn 0 -1 0
vn 0 -1 0
vn 0 -1 0
vn 0 -1 0
vn 0 -1 0
vn 0 -1 0
vn 0 -1 0
vn 0 -1 0
vn 0 -1 0
vn 0 -1 0
vn 0 -1 0
vn 0 -1 0
vn 0 -1 0
vn 0 -1 0
vn 0 -1 0
vn 0 -1 0
vn 0 -1 0
vn 0 -1 0
vn 0 -1 0

g CDNNDG02_0003070
f 1/1/1 2/2/2 3/3/3
f 4/4/4 5/5/5 6/6/6
f 10/10/10 7/7/7 9/9/9
f 8/8/8 9/9/9 7/7/7
f 11/11/11 12/12/12 13/13/13
f 14/14/14 15/15/15 16/16/16
f 17/17/17 18/18/18 19/19/19
f 20/20/20 21/21/21 22/22/22
f 23/23/23 24/24/24 25/25/25
f 26/26/26 27/27/27 28/28/28
f 29/29/29 30/30/30 31/31/31
f 32/32/32 33/33/33 34/34/34
f 35/35/35 36/36/36 37/37/37
f 38/38/38 39/39/39 40/40/40
f 41/41/41 43/43/43 44/44/44
f 41/41/41 42/42/42 43/43/43
f 45/45/45 46/46/46 47/47/47
f 48/48/48 49/49/49 50/50/50
f 51/51/51 52/52/52 53/53/53
f 54/54/54 55/55/55 56/56/56
f 57/57/57 58/58/58 59/59/59
f 60/60/60 61/61/61 62/62/62
f 66/66/66 63/63/63 65/65/65
f 65/65/65 63/63/63 64/64/64
f 67/67/67 68/68/68 69/69/69
f 70/70/70 71/71/71 72/72/72
f 73/73/73 74/74/74 75/75/75
f 76/76/76 77/77/77 78/78/78
f 79/79/79 80/80/80 81/81/81
f 82/82/82 83/83/83 84/84/84
f 85/85/85 86/86/86 87/87/87
f 91/91/91 88/88/88 89/89/89
f 89/89/89 90/90/90 91/91/91
f 92/92/92 93/93/93 94/94/94
f 96/96/96 97/97/97 95/95/95
f 95/95/95 97/97/97 98/98/98
f 99/99/99 100/100/100 101/101/101
f 102/102/102 103/103/103 104/104/104
f 105/105/105 106/106/106 107/107/107
f 108/108/108 109/109/109 110/110/110
f 111/111/111 113/113/113 114/114/114
f 111/111/111 112/112/112 113/113/113
f 117/117/117 115/115/115 116/116/116
f 115/115/115 117/117/117 118/118/118
f 121/121/121 122/122/122 120/120/120
f 119/119/119 120/120/120 122/122/122
f 123/123/123 124/124/124 125/125/125
f 127/127/127 128/128/128 129/129/129
f 126/126/126 127/127/127 129/129/129
f 130/130/130 131/131/131 132/132/132
f 133/133/133 134/134/134 135/135/135
f 136/136/136 137/137/137 138/138/138
f 139/139/139 140/140/140 141/141/141
f 142/142/142 143/143/143 144/144/144
f 145/145/145 146/146/146 147/147/147
f 149/149/149 150/150/150 151/151/151
f 148/148/148 149/149/149 151/151/151
f 153/153/153 154/154/154 155/155/155
f 155/155/155 152/152/152 153/153/153
f 156/156/156 157/157/157 158/158/158
f 159/159/159 160/160/160 161/161/161
f 162/162/162 163/163/163 164/164/164
f 184/184/184 187/187/187 188/188/188
f 185/185/185 186/186/186 187/187/187
f 165/165/165 166/166/166 168/168/168
f 184/184/184 185/185/185 187/187/187
f 166/166/166 167/167/167 168/168/168
f 165/165/165 168/168/168 188/188/188
f 168/168/168 169/169/169 188/188/188
f 169/169/169 184/184/184 188/188/188
f 169/169/169 171/171/171 181/181/181
f 171/171/171 172/172/172 178/178/178
f 172/172/172 173/173/173 178/178/178
f 169/169/169 170/170/170 171/171/171
f 173/173/173 174/174/174 176/176/176
f 174/174/174 175/175/175 176/176/176
f 173/173/173 176/176/176 177/177/177
f 169/169/169 183/183/183 184/184/184
f 173/173/173 177/177/177 178/178/178
f 171/171/171 178/178/178 179/179/179
f 171/171/171 179/179/179 180/180/180
f 171/171/171 180/180/180 181/181/181
f 169/169/169 181/181/181 182/182/182
f 169/169/169 182/182/182 183/183/183
