v 10.29285 5.354678 -0.4737337
v 12.47785 5.353197 9.038266
v 14.04585 5.353197 6.572266
v 3.753849 5.354678 9.816266
v 7.258849 5.353792 12.04327
v 12.47785 5.353197 9.038266
v 10.29285 5.354678 -0.4737337
v 14.04585 5.353197 6.572266
v 18.20985 5.352678 4.553266
v 3.753849 5.354678 9.816266
v 12.47785 5.353197 9.038266
v 10.29285 5.354678 -0.4737337
v -2.002089 4.482305 2.545954
v 0.4614738 4.482653 4.111891
v 2.096099 4.483464 1.539516
v -0.3675262 4.483268 -0.02635894
v -0.3675262 4.483268 -0.02635894
v 2.096099 4.483464 1.539516
v 3.730724 4.484275 -1.032859
v 1.267036 4.484231 -2.598671
v 0.4614738 4.482653 4.111891
v 2.925036 4.483001 5.677828
v 4.559724 4.48366 3.105391
v 2.096099 4.483464 1.539516
v 2.096099 4.483464 1.539516
v 4.559724 4.48366 3.105391
v 6.194411 4.48432 0.5329537
v 3.730724 4.484275 -1.032859
v -6.100151 4.480843 3.552266
v 0.4614738 4.482653 4.111891
v -2.002089 4.482305 2.545954
v -6.100151 4.480843 3.552266
v 3.753849 4.482842 9.816266
v 0.4614738 4.482653 4.111891
v -6.100151 4.480843 3.552266
v -2.002089 4.482305 2.545954
v -0.3675262 4.483268 -0.02635894
v -0.3675262 4.483268 -0.02635894
v 1.267036 4.484231 -2.598671
v 0.4378487 4.485301 -6.736734
v -6.100151 4.480843 3.552266
v -0.3675262 4.483268 -0.02635894
v 0.4378487 4.485301 -6.736734
v 0.4378487 4.485301 -6.736734
v 1.267036 4.484231 -2.598671
v 3.730724 4.484275 -1.032859
v 2.925036 4.483001 5.677828
v 3.753849 4.482842 9.816266
v 4.559724 4.48366 3.105391
v 0.4614738 4.482653 4.111891
v 3.753849 4.482842 9.816266
v 2.925036 4.483001 5.677828
v 3.753849 4.482842 9.816266
v 10.29285 4.484871 -0.4737337
v 4.559724 4.48366 3.105391
v 3.730724 4.484275 -1.032859
v 6.194411 4.48432 0.5329537
v 10.29285 4.484871 -0.4737337
v 4.559724 4.48366 3.105391
v 10.29285 4.484871 -0.4737337
v 6.194411 4.48432 0.5329537
v 0.4378487 4.485301 -6.736734
v 3.730724 4.484275 -1.032859
v 10.29285 4.484871 -0.4737337
v -6.321151 4.480866 3.413266
v 0.2178487 4.485311 -6.876734
v -4.551151 4.485518 -9.906734
v -16.55915 4.480866 -3.093734
v -4.551151 4.485518 -9.906734
v -9.928151 4.484866 -13.52773
v -9.928151 4.484866 -13.52773
v -4.551151 4.485518 -9.906734
v -4.459151 4.485583 -10.05173
v -16.55915 4.480866 -3.093734
v -6.321151 4.480866 3.413266
v -4.551151 4.485518 -9.906734
v -6.321151 5.096842 3.413266
v -6.100151 5.096842 3.552266
v 0.2178487 5.095842 -6.876734
v -6.100151 5.096842 3.552266
v 0.4378487 5.096842 -6.736734
v 0.2178487 5.095842 -6.876734
v 9.868349 -4.692039 10.54077
v 12.47785 -4.692039 9.038266
v 12.47785 5.353197 9.038266
v 7.258849 5.353792 12.04327
v 7.258849 -4.692039 12.04327
v 9.868349 -4.692039 10.54077
v 7.258849 5.353792 12.04327
v 9.868349 -4.692039 10.54077
v 12.47785 5.353197 9.038266
v 12.47785 -4.692039 9.038266
v 14.04585 -4.692039 6.572266
v 14.04585 5.353197 6.572266
v 12.47785 5.353197 9.038266
v 14.04585 -4.692039 6.572266
v 18.20985 -4.692039 4.553266
v 18.20985 5.352678 4.553266
v 14.04585 5.353197 6.572266
v 10.29285 5.354678 -0.4737337
v 14.25135 -4.692039 2.039766
v 10.29285 4.484871 -0.4737337
v 10.29285 4.484871 -0.4737337
v 14.25135 -4.692039 2.039766
v 10.29285 -4.692039 -0.4737337
v 14.25135 -4.692039 2.039766
v 18.20985 5.352678 4.553266
v 18.20985 -4.692039 4.553266
v 10.29285 5.354678 -0.4737337
v 18.20985 5.352678 4.553266
v 14.25135 -4.692039 2.039766
v 0.4378487 4.485301 -6.736734
v 5.365349 -4.692039 -3.605234
v 0.4378487 -4.692039 -6.736734
v 5.365349 -4.692039 -3.605234
v 10.29285 4.484871 -0.4737337
v 10.29285 -4.692039 -0.4737337
v 0.4378487 4.485301 -6.736734
v 10.29285 4.484871 -0.4737337
v 5.365349 -4.692039 -3.605234
v 0.2178487 4.485311 -6.876734
v 0.4378487 4.485301 -6.736734
v 0.4378487 -4.692039 -6.736734
v 0.2178487 -4.692039 -6.876734
v -4.551151 4.485518 -9.906734
v 0.2178487 4.485311 -6.876734
v 0.2178487 -4.692039 -6.876734
v -4.551151 -4.692039 -9.906734
v 0.2178487 5.095842 -6.876734
v 0.4378487 5.096842 -6.736734
v 0.4378487 4.485301 -6.736734
v 0.2178487 4.485311 -6.876734
v 3.753849 5.354678 9.816266
v 10.29285 5.354678 -0.4737337
v 10.29285 4.484871 -0.4737337
v 3.753849 4.482842 9.816266
v 3.753849 -4.692039 9.816266
v 7.258849 -4.692039 12.04327
v 7.258849 5.353792 12.04327
v 3.753849 4.482842 9.816266
v 3.753849 5.354678 9.816266
v 3.753849 4.482842 9.816266
v 7.258849 5.353792 12.04327
v -6.321151 -4.692039 3.413266
v -6.100151 -4.692039 3.552266
v -6.100151 4.480843 3.552266
v -6.321151 4.480866 3.413266
v -1.173151 -4.692039 6.684266
v 3.753849 -4.692039 9.816266
v 3.753849 4.482842 9.816266
v -6.100151 4.480843 3.552266
v -6.100151 -4.692039 3.552266
v -1.173151 -4.692039 6.684266
v -6.100151 4.480843 3.552266
v -1.173151 -4.692039 6.684266
v 3.753849 4.482842 9.816266
v -16.55915 -4.692039 -3.093734
v -6.321151 -4.692039 3.413266
v -6.321151 4.480866 3.413266
v -16.55915 4.480866 -3.093734
v -6.321151 4.480866 3.413266
v -6.100151 4.480843 3.552266
v -6.100151 5.096842 3.552266
v -6.321151 5.096842 3.413266
v -4.505151 -4.692039 -9.979234
v -4.459151 -4.692039 -10.05173
v -4.459151 4.485583 -10.05173
v -4.551151 4.485518 -9.906734
v -4.551151 -4.692039 -9.906734
v -4.505151 -4.692039 -9.979234
v -4.551151 4.485518 -9.906734
v -4.505151 -4.692039 -9.979234
v -4.459151 4.485583 -10.05173
v -9.928151 4.484866 -13.52773
v -4.459151 4.485583 -10.05173
v -4.459151 -4.692039 -10.05173
v -9.928151 -4.692039 -13.52773
v -16.55915 4.480866 -3.093734
v -9.928151 4.484866 -13.52773
v -9.928151 -4.692039 -13.52773
v -16.55915 -4.692039 -3.093734
v -6.100151 4.480843 3.552266
v 0.4378487 4.485301 -6.736734
v 0.4378487 5.096842 -6.736734
v -6.100151 5.096842 3.552266
v -6.321151 5.096842 3.413266
v 0.2178487 5.095842 -6.876734
v 0.2178487 4.485311 -6.876734
v -6.321151 4.480866 3.413266
v -16.55915 -4.692039 -3.093734
v -9.928151 -4.692039 -13.52773
v -4.459151 -4.692039 -10.05173
v -4.505151 -4.692039 -9.979234
v -4.551151 -4.692039 -9.906734
v 0.2178487 -4.692039 -6.876734
v 0.4378487 -4.692039 -6.736734
v 5.365349 -4.692039 -3.605234
v 10.29285 -4.692039 -0.4737337
v 14.25135 -4.692039 2.039766
v 18.20985 -4.692039 4.553266
v 14.04585 -4.692039 6.572266
v 12.47785 -4.692039 9.038266
v 9.868349 -4.692039 10.54077
v 7.258849 -4.692039 12.04327
v 3.753849 -4.692039 9.816266
v -1.173151 -4.692039 6.684266
v -6.100151 -4.692039 3.552266
v -6.321151 -4.692039 3.413266
vt 0.270536 0.727521
vt 0.065136 0.697135
vt 0.118030 0.674082
vt 0.049824 0.823654
vt 0.001236 0.773165
vt 0.065136 0.697135
vt 0.270536 0.727521
vt 0.118030 0.674082
vt 0.160858 0.613466
vt 0.049824 0.823654
vt 0.065136 0.697135
vt 0.270536 0.727521
vt 0.527245 0.546684
vt 0.493089 0.511223
vt 0.548271 0.487210
vt 0.582427 0.522673
vt 0.582427 0.522673
vt 0.548271 0.487210
vt 0.603456 0.463197
vt 0.637611 0.498662
vt 0.493089 0.511223
vt 0.458932 0.475761
vt 0.514115 0.451746
vt 0.548271 0.487210
vt 0.548271 0.487210
vt 0.514115 0.451746
vt 0.569299 0.427731
vt 0.603456 0.463197
vt 0.506220 0.606151
vt 0.493089 0.511223
vt 0.527245 0.546684
vt 0.506220 0.606151
vt 0.369592 0.464315
vt 0.493089 0.511223
vt 0.506220 0.606151
vt 0.527245 0.546684
vt 0.582427 0.522673
vt 0.582427 0.522673
vt 0.637611 0.498662
vt 0.726951 0.510116
vt 0.506220 0.606151
vt 0.582427 0.522673
vt 0.726951 0.510116
vt 0.726951 0.510116
vt 0.637611 0.498662
vt 0.603456 0.463197
vt 0.458932 0.475761
vt 0.369592 0.464315
vt 0.514115 0.451746
vt 0.493089 0.511223
vt 0.369592 0.464315
vt 0.458932 0.475761
vt 0.369592 0.464315
vt 0.590329 0.368246
vt 0.514115 0.451746
vt 0.603456 0.463197
vt 0.569299 0.427731
vt 0.590329 0.368246
vt 0.514115 0.451746
vt 0.590329 0.368246
vt 0.569299 0.427731
vt 0.726951 0.510116
vt 0.603456 0.463197
vt 0.590329 0.368246
vt 0.001236 0.464303
vt 0.222004 0.368246
vt 0.288101 0.436899
vt 0.143175 0.611666
vt 0.288101 0.436899
vt 0.367026 0.514271
vt 0.367026 0.514271
vt 0.288101 0.436899
vt 0.291212 0.435547
vt 0.143175 0.611666
vt 0.001236 0.464303
vt 0.288101 0.436899
vt 0.574104 0.712284
vt 0.571075 0.709116
vt 0.794528 0.616618
vt 0.571075 0.709116
vt 0.791486 0.613466
vt 0.794528 0.616618
vt 0.638339 0.862791
vt 0.669757 0.825436
vt 0.744238 0.841844
vt 0.680613 0.917493
vt 0.606922 0.900143
vt 0.638339 0.862791
vt 0.680613 0.917493
vt 0.638339 0.862791
vt 0.744238 0.841844
vt 0.122373 0.946736
vt 0.174343 0.924356
vt 0.249423 0.940285
vt 0.196797 0.962947
vt 0.001236 0.983800
vt 0.043289 0.924356
vt 0.118844 0.939697
vt 0.076263 0.999891
vt 0.681391 0.211909
vt 0.648484 0.284475
vt 0.674011 0.213356
vt 0.674011 0.213356
vt 0.648484 0.284475
vt 0.597093 0.228439
vt 0.648484 0.284475
vt 0.785417 0.325366
vt 0.699872 0.340509
vt 0.681391 0.211909
vt 0.785417 0.325366
vt 0.648484 0.284475
vt 0.544511 0.072264
vt 0.533062 0.158682
vt 0.469028 0.088920
vt 0.533062 0.158682
vt 0.674011 0.213356
vt 0.597093 0.228439
vt 0.544511 0.072264
vt 0.674011 0.213356
vt 0.533062 0.158682
vt 0.541616 0.069114
vt 0.544511 0.072264
vt 0.469028 0.088920
vt 0.466165 0.085806
vt 0.478959 0.000831
vt 0.541616 0.069114
vt 0.466165 0.085806
vt 0.404203 0.018284
vt 0.546696 0.067990
vt 0.549601 0.071141
vt 0.544511 0.072264
vt 0.541616 0.069114
vt 0.604072 0.827262
vt 0.385569 0.917772
vt 0.378245 0.915853
vt 0.596497 0.825436
vt 0.049196 0.073920
vt 0.001236 0.023464
vt 0.077771 0.000831
vt 0.119572 0.053856
vt 0.126344 0.051926
vt 0.119572 0.053856
vt 0.077771 0.000831
vt 0.187078 0.218943
vt 0.184084 0.215762
vt 0.256001 0.197344
vt 0.259029 0.200562
vt 0.116642 0.144843
vt 0.049196 0.073920
vt 0.119572 0.053856
vt 0.256001 0.197344
vt 0.184084 0.215762
vt 0.116642 0.144843
vt 0.256001 0.197344
vt 0.116642 0.144843
vt 0.119572 0.053856
vt 0.327183 0.366297
vt 0.187078 0.218943
vt 0.259029 0.200562
vt 0.400750 0.349620
vt 0.259029 0.200562
vt 0.256001 0.197344
vt 0.260890 0.196092
vt 0.263920 0.199313
vt 0.253681 0.924998
vt 0.255199 0.924356
vt 0.327319 0.941488
vt 0.324248 0.942787
vt 0.252163 0.925641
vt 0.253681 0.924998
vt 0.324248 0.942787
vt 0.253681 0.924998
vt 0.327319 0.941488
vt 0.303448 0.825436
vt 0.374967 0.903260
vt 0.300632 0.920590
vt 0.229913 0.843633
vt 0.568211 0.629260
vt 0.346625 0.721085
vt 0.273177 0.704264
vt 0.492328 0.613466
vt 0.001236 0.920990
vt 0.221525 0.825436
vt 0.226387 0.826578
vt 0.005963 0.922214
vt 0.971313 0.826618
vt 0.752878 0.917099
vt 0.747837 0.915861
vt 0.966062 0.825436
vt 0.330037 0.924356
vt 0.330037 0.924356
vt 0.330037 0.924356
vt 0.330037 0.924356
vt 0.330037 0.924356
vt 0.330037 0.924356
vt 0.330037 0.924356
vt 0.330037 0.924356
vt 0.330037 0.924356
vt 0.330037 0.924356
vt 0.330037 0.924356
vt 0.330037 0.924356
vt 0.330037 0.924356
vt 0.330037 0.924356
vt 0.330037 0.924356
vt 0.330037 0.924356
vt 0.330037 0.924356
vt 0.330037 0.924356
vt 0.330037 0.924356
vn 0.0001799943 1 0.00011438
vn 0.0001799943 1 0.00011438
vn 0.0001799943 1 0.00011438
vn 0.0001799929 1 0.0001143803
vn 0.0001799929 1 0.0001143803
vn 0.0001799929 1 0.0001143803
vn 0.0001799937 1 0.0001143803
vn 0.0001799937 1 0.0001143803
vn 0.0001799937 1 0.0001143803
vn 0.0001799929 1 0.0001143803
vn 0.0001799929 1 0.0001143803
vn 0.0001799929 1 0.0001143803
vn -0.0002347919 0.9999999 0.0001955498
vn -0.0002433829 0.9999999 0.0001605677
vn -0.0002347919 0.9999999 0.0001955498
vn -0.000226201 0.9999999 0.000230532
vn -0.0001908794 0.9999999 0.0002234559
vn -0.0001994702 0.9999999 0.000188476
vn -0.0001908794 0.9999999 0.0002234559
vn -0.0001822886 0.9999999 0.0002584359
vn -0.0002080589 0.9999999 0.0001534948
vn -0.0002166494 0.9999999 0.0001185164
vn -0.0002080589 0.9999999 0.0001534948
vn -0.0001994685 0.9999999 0.0001884732
vn -0.0001641478 0.9999999 0.0001814004
vn -0.0001727393 1 0.0001464196
vn -0.0001641478 0.9999999 0.0001814004
vn -0.0001555564 0.9999999 0.0002163812
vn -0.0002968504 0.9999999 0.0002446838
vn -0.0002968504 0.9999999 0.0002446838
vn -0.0002968504 0.9999999 0.0002446838
vn -0.0002872967 0.9999999 0.0001326663
vn -0.0002872967 0.9999999 0.0001326663
vn -0.0002872967 0.9999999 0.0001326663
vn -0.0003140303 0.9999999 0.0001747213
vn -0.0003140303 0.9999999 0.0001747213
vn -0.0003140303 0.9999999 0.0001747213
vn -0.000138371 0.9999999 0.0002863431
vn -0.000138371 0.9999999 0.0002863431
vn -0.000138371 0.9999999 0.0002863431
vn -0.000252933 0.9999999 0.0002725934
vn -0.000252933 0.9999999 0.0002725934
vn -0.000252933 0.9999999 0.0002725934
vn -0.0002090229 0.9999999 0.0003005003
vn -0.0002090229 0.9999999 0.0003005003
vn -0.0002090229 0.9999999 0.0003005003
vn -0.0002605629 0.9999999 9.061096E-05
vn -0.0002605629 0.9999999 9.061096E-05
vn -0.0002605629 0.9999999 9.061096E-05
vn -0.0001899185 1 7.646288E-05
vn -0.0001899185 1 7.646288E-05
vn -0.0001899185 1 7.646288E-05
vn -0.0001460107 1 0.000104367
vn -0.0001460107 1 0.000104367
vn -0.0001460107 1 0.000104367
vn -0.0001021006 1 0.0001322725
vn -0.0001021006 1 0.0001322725
vn -0.0001021006 1 0.0001322725
vn -8.491793E-05 1 0.0002022268
vn -8.491793E-05 1 0.0002022268
vn -8.491793E-05 1 0.0002022268
vn -0.0001116445 0.9999999 0.0002442833
vn -0.0001116445 0.9999999 0.0002442833
vn -0.0001116445 0.9999999 0.0002442833
vn -0.0001644641 0.9999999 0.0003273925
vn -0.0001644641 0.9999999 0.0003273925
vn -0.0001644641 0.9999999 0.0003273925
vn -0.000265703 0.9999999 0.0002145029
vn -0.000265703 0.9999999 0.0002145029
vn -0.000265703 0.9999999 0.0002145029
vn -0.0002977298 0.9999999 0.0002620611
vn -0.0002977298 0.9999999 0.0002620611
vn -0.0002977298 0.9999999 0.0002620611
vn -0.000204685 0.9999999 0.0003220479
vn -0.000204685 0.9999999 0.0003220479
vn -0.000204685 0.9999999 0.0003220479
vn 4.366934E-05 1 -6.943112E-05
vn 4.366934E-05 1 -6.943112E-05
vn 4.366934E-05 1 -6.943112E-05
vn -0.00323663 0.9999927 -0.002056671
vn -0.00323663 0.9999927 -0.002056671
vn -0.00323663 0.9999927 -0.002056671
vn 0.4989795 0 0.8666137
vn 0.4989795 0 0.8666137
vn 0.4989795 0 0.8666137
vn 0.4989795 0 0.8666137
vn 0.4989795 0 0.8666137
vn 0.4989795 0 0.8666137
vn 0.4989795 6.905412E-10 0.8666137
vn 0.4989795 6.905412E-10 0.8666137
vn 0.4989795 6.905412E-10 0.8666137
vn 0.8438587 0 0.5365655
vn 0.8438587 0 0.5365655
vn 0.8438587 0 0.5365655
vn 0.8438587 0 0.5365655
vn 0.4362895 0 0.8998064
vn 0.4362895 0 0.8998064
vn 0.4362895 0 0.8998064
vn 0.4362895 0 0.8998064
vn 0.5360334 0 -0.8441968
vn 0.5360334 0 -0.8441968
vn 0.5360334 0 -0.8441968
vn 0.5360334 0 -0.8441968
vn 0.5360334 0 -0.8441968
vn 0.5360334 0 -0.8441968
vn 0.5360334 0 -0.8441968
vn 0.5360334 0 -0.8441968
vn 0.5360334 0 -0.8441968
vn 0.5360334 -2.655566E-10 -0.8441968
vn 0.5360334 -2.655566E-10 -0.8441968
vn 0.5360334 -2.655566E-10 -0.8441968
vn 0.5363656 0 -0.8439857
vn 0.5363656 0 -0.8439857
vn 0.5363656 0 -0.8439857
vn 0.5363656 0 -0.8439857
vn 0.5363656 0 -0.8439857
vn 0.5363656 0 -0.8439857
vn 0.5363656 4.282512E-10 -0.8439857
vn 0.5363656 4.282512E-10 -0.8439857
vn 0.5363656 4.282512E-10 -0.8439857
vn 0.5368755 0 -0.8436615
vn 0.5368755 0 -0.8436615
vn 0.5368755 0 -0.8436615
vn 0.5368755 0 -0.8436615
vn 0.5362684 0 -0.8440475
vn 0.5362684 0 -0.8440475
vn 0.5362684 0 -0.8440475
vn 0.5362684 0 -0.8440475
vn 0.5368755 0 -0.8436615
vn 0.5368755 0 -0.8436615
vn 0.5368755 0 -0.8436615
vn 0.5368755 0 -0.8436615
vn -0.8440024 0 -0.5363393
vn -0.8440024 0 -0.5363393
vn -0.8440024 0 -0.5363393
vn -0.8440024 0 -0.5363393
vn -0.5362833 0 0.8440381
vn -0.5362833 0 0.8440381
vn -0.5362833 0 0.8440381
vn -0.5362833 0 0.8440381
vn -0.5362833 0 0.8440381
vn -0.5362833 0 0.8440381
vn -0.5362833 0 0.8440381
vn -0.5324069 0 0.8464886
vn -0.5324069 0 0.8464886
vn -0.5324069 0 0.8464886
vn -0.5324069 0 0.8464886
vn -0.5364653 0 0.8439223
vn -0.5364653 0 0.8439223
vn -0.5364653 0 0.8439223
vn -0.5364653 0 0.8439223
vn -0.5364653 0 0.8439223
vn -0.5364653 0 0.8439223
vn -0.5364653 -1.701896E-12 0.8439223
vn -0.5364653 -1.701896E-12 0.8439223
vn -0.5364653 -1.701896E-12 0.8439223
vn -0.5364007 0 0.8439634
vn -0.5364007 0 0.8439634
vn -0.5364007 0 0.8439634
vn -0.5364007 0 0.8439634
vn -0.5324069 0 0.8464886
vn -0.5324069 0 0.8464886
vn -0.5324069 0 0.8464886
vn -0.5324069 0 0.8464886
vn 0.8443801 0 0.5357445
vn 0.8443801 0 0.5357445
vn 0.8443801 0 0.5357445
vn 0.84438 0 0.5357447
vn 0.84438 0 0.5357447
vn 0.84438 0 0.5357447
vn 0.8443801 4.87745E-10 0.5357446
vn 0.8443801 4.87745E-10 0.5357446
vn 0.8443801 4.87745E-10 0.5357446
vn 0.5364062 0 -0.84396
vn 0.5364062 0 -0.84396
vn 0.5364062 0 -0.84396
vn 0.5364062 0 -0.84396
vn -0.8439844 0 -0.5363677
vn -0.8439844 0 -0.5363677
vn -0.8439844 0 -0.5363677
vn -0.8439844 0 -0.5363677
vn 0.844016 0 0.5363181
vn 0.844016 0 0.5363181
vn 0.844016 0 0.5363181
vn 0.844016 0 0.5363181
vn -0.8440024 0 -0.5363393
vn -0.8440024 0 -0.5363393
vn -0.8440024 0 -0.5363393
vn -0.8440024 0 -0.5363393
vn 0 -1 0
vn 0 -1 0
vn 0 -1 0
vn 0 -1 0
vn 0 -1 0
vn 0 -1 0
vn 0 -1 0
vn 0 -1 0
vn 0 -1 0
vn 0 -1 0
vn 0 -1 0
vn 0 -1 0
vn 0 -1 0
vn 0 -1 0
vn 0 -1 0
vn 0 -1 0
vn 0 -1 0
vn 0 -1 0
vn 0 -1 0

g CDNNDG02_0014890
f 1/1/1 2/2/2 3/3/3
f 4/4/4 5/5/5 6/6/6
f 7/7/7 8/8/8 9/9/9
f 10/10/10 11/11/11 12/12/12
f 13/13/13 15/15/15 16/16/16
f 13/13/13 14/14/14 15/15/15
f 17/17/17 19/19/19 20/20/20
f 19/19/19 17/17/17 18/18/18
f 21/21/21 23/23/23 24/24/24
f 21/21/21 22/22/22 23/23/23
f 25/25/25 27/27/27 28/28/28
f 27/27/27 25/25/25 26/26/26
f 29/29/29 30/30/30 31/31/31
f 32/32/32 33/33/33 34/34/34
f 35/35/35 36/36/36 37/37/37
f 38/38/38 39/39/39 40/40/40
f 41/41/41 42/42/42 43/43/43
f 44/44/44 45/45/45 46/46/46
f 47/47/47 48/48/48 49/49/49
f 50/50/50 51/51/51 52/52/52
f 53/53/53 54/54/54 55/55/55
f 56/56/56 57/57/57 58/58/58
f 59/59/59 60/60/60 61/61/61
f 62/62/62 63/63/63 64/64/64
f 65/65/65 66/66/66 67/67/67
f 68/68/68 69/69/69 70/70/70
f 71/71/71 72/72/72 73/73/73
f 74/74/74 75/75/75 76/76/76
f 77/77/77 78/78/78 79/79/79
f 80/80/80 81/81/81 82/82/82
f 83/83/83 84/84/84 85/85/85
f 86/86/86 87/87/87 88/88/88
f 89/89/89 90/90/90 91/91/91
f 92/92/92 94/94/94 95/95/95
f 92/92/92 93/93/93 94/94/94
f 99/99/99 96/96/96 98/98/98
f 98/98/98 96/96/96 97/97/97
f 100/100/100 101/101/101 102/102/102
f 103/103/103 104/104/104 105/105/105
f 106/106/106 107/107/107 108/108/108
f 109/109/109 110/110/110 111/111/111
f 112/112/112 113/113/113 114/114/114
f 115/115/115 116/116/116 117/117/117
f 118/118/118 119/119/119 120/120/120
f 123/123/123 124/124/124 122/122/122
f 121/121/121 122/122/122 124/124/124
f 125/125/125 126/126/126 128/128/128
f 128/128/128 126/126/126 127/127/127
f 129/129/129 131/131/131 132/132/132
f 129/129/129 130/130/130 131/131/131
f 133/133/133 135/135/135 136/136/136
f 133/133/133 134/134/134 135/135/135
f 138/138/138 139/139/139 140/140/140
f 140/140/140 137/137/137 138/138/138
f 141/141/141 142/142/142 143/143/143
f 144/144/144 146/146/146 147/147/147
f 146/146/146 144/144/144 145/145/145
f 148/148/148 149/149/149 150/150/150
f 151/151/151 152/152/152 153/153/153
f 154/154/154 155/155/155 156/156/156
f 157/157/157 159/159/159 160/160/160
f 159/159/159 157/157/157 158/158/158
f 161/161/161 163/163/163 164/164/164
f 163/163/163 161/161/161 162/162/162
f 165/165/165 166/166/166 167/167/167
f 168/168/168 169/169/169 170/170/170
f 171/171/171 172/172/172 173/173/173
f 177/177/177 174/174/174 176/176/176
f 175/175/175 176/176/176 174/174/174
f 178/178/178 180/180/180 181/181/181
f 180/180/180 178/178/178 179/179/179
f 185/185/185 182/182/182 183/183/183
f 183/183/183 184/184/184 185/185/185
f 186/186/186 187/187/187 188/188/188
f 189/189/189 186/186/186 188/188/188
f 197/197/197 206/206/206 207/207/207
f 190/190/190 194/194/194 208/208/208
f 198/198/198 205/205/205 206/206/206
f 190/190/190 191/191/191 194/194/194
f 203/203/203 204/204/204 205/205/205
f 191/191/191 192/192/192 193/193/193
f 191/191/191 193/193/193 194/194/194
f 208/208/208 195/195/195 207/207/207
f 194/194/194 195/195/195 208/208/208
f 195/195/195 196/196/196 207/207/207
f 196/196/196 197/197/197 207/207/207
f 197/197/197 198/198/198 206/206/206
f 198/198/198 199/199/199 201/201/201
f 198/198/198 203/203/203 205/205/205
f 199/199/199 200/200/200 201/201/201
f 198/198/198 201/201/201 202/202/202
f 198/198/198 202/202/202 203/203/203
