v -6.576785 7.362638 3.453105
v -4.482785 7.288638 4.726105
v 0.5542148 7.835638 -8.298895
v -2.403785 7.328784 2.636105
v 0.3713216 7.382751 -0.1888467
v 4.637215 7.479638 -5.826895
v -4.482785 7.288638 4.726105
v -2.403785 7.328784 2.636105
v 4.637215 7.479638 -5.826895
v -4.482785 7.288638 4.726105
v -2.666785 7.321678 3.089105
v -2.403785 7.328784 2.636105
v -2.403785 7.328784 2.636105
v 0.2098253 7.378726 0.05780831
v 0.3713216 7.382751 -0.1888467
v -2.201189 7.329237 2.754206
v 0.5914273 7.379321 0.3041616
v 0.2098253 7.378726 0.05780831
v 0.3713216 7.382751 -0.1888467
v 6.251215 7.479638 -4.550895
v 4.637215 7.479638 -5.826895
v -2.403785 7.328784 2.636105
v -2.201189 7.329237 2.754206
v 0.2098253 7.378726 0.05780831
v 0.3713216 7.382751 -0.1888467
v 0.7592691 7.383335 0.06353873
v 6.251215 7.479638 -4.550895
v -2.201189 7.329237 2.754206
v 0.6159234 7.379364 0.3194793
v 0.5914273 7.379321 0.3041616
v 0.7592691 7.383335 0.06353873
v 0.8475163 7.383485 0.1193221
v 6.251215 7.479638 -4.550895
v -4.482785 7.288638 4.726105
v -2.620113 7.321783 3.116266
v -2.666785 7.321678 3.089105
v -5.303785 7.288638 6.088105
v -1.072785 7.288638 8.795105
v -4.482785 7.288638 4.726105
v 4.637215 7.479638 -5.826895
v 6.251215 7.479638 -4.550895
v 6.567215 7.479638 -5.071895
v 4.822215 7.479638 -6.130895
v -4.482785 7.288638 4.726105
v -2.245785 7.32324 3.334105
v -2.51972 7.321813 3.174689
v -2.245785 7.32324 3.334105
v 0.8817024 7.379296 0.4865364
v -1.981785 7.329775 2.882105
v -2.078306 7.329273 2.825839
v -1.981785 7.329775 2.882105
v 0.8817024 7.379296 0.4865364
v -4.482785 7.288638 4.726105
v -1.072785 7.288638 8.795105
v -2.245785 7.32324 3.334105
v -2.245785 7.32324 3.334105
v 1.050727 7.380121 0.5913918
v 0.8817024 7.379296 0.4865364
v -2.245785 7.32324 3.334105
v -1.072785 7.288638 8.795105
v 1.050727 7.380121 0.5913918
v -1.072785 7.288638 8.795105
v 1.200929 7.383771 0.3422091
v 1.050727 7.380121 0.5913918
v 1.125294 7.383413 0.2940253
v 1.200929 7.383771 0.3422091
v 6.819215 7.479638 -4.205895
v -1.072785 7.288638 8.795105
v 6.819215 7.479638 -4.205895
v 1.200929 7.383771 0.3422091
v -4.482785 7.288638 4.726105
v 4.637215 7.479638 -5.826895
v 0.5542148 7.835638 -8.298895
v -4.482785 7.288638 4.726105
v -2.51972 7.321813 3.174689
v -2.620113 7.321783 3.116266
v 1.125294 7.383413 0.2940253
v 6.819215 7.479638 -4.205895
v 6.251215 7.479638 -4.550895
v 0.8475163 7.383485 0.1193221
v 1.125294 7.383413 0.2940253
v 6.251215 7.479638 -4.550895
v -2.078306 7.329273 2.825839
v 0.8817024 7.379296 0.4865364
v 0.6159234 7.379364 0.3194793
v -2.201189 7.329237 2.754206
v -2.078306 7.329273 2.825839
v 0.6159234 7.379364 0.3194793
v -2.666785 8.001638 3.089105
v -2.245785 8.001638 3.334105
v -1.981785 8.001638 2.882105
v -2.666785 8.001638 3.089105
v -1.981785 8.001638 2.882105
v -2.403785 8.000638 2.636105
v 0.4132148 7.488638 0.006104932
v 0.5914273 7.379321 0.3041616
v 0.9902148 7.488638 0.3801049
v 0.2098253 7.378726 0.05780831
v 0.5914273 7.379321 0.3041616
v 0.4132148 7.488638 0.006104932
v 0.8817024 7.379296 0.4865364
v 1.050727 7.380121 0.5913918
v 0.9902148 7.488638 0.3801049
v 0.5914273 7.379321 0.3041616
v 0.6159234 7.379364 0.3194793
v 0.9902148 7.488638 0.3801049
v 0.6159234 7.379364 0.3194793
v 0.8817024 7.379296 0.4865364
v 0.9902148 7.488638 0.3801049
v 0.9902148 7.488638 0.3801049
v 1.050727 7.380121 0.5913918
v 1.200929 7.383771 0.3422091
v 0.2098253 7.378726 0.05780831
v 0.4132148 7.488638 0.006104932
v 0.3713216 7.382751 -0.1888467
v 0.9902148 7.488638 0.3801049
v 1.200929 7.383771 0.3422091
v 1.125294 7.383413 0.2940253
v 0.7592691 7.383335 0.06353873
v 0.9902148 7.488638 0.3801049
v 0.8475163 7.383485 0.1193221
v 0.8475163 7.383485 0.1193221
v 0.9902148 7.488638 0.3801049
v 1.125294 7.383413 0.2940253
v 0.3713216 7.382751 -0.1888467
v 0.4132148 7.488638 0.006104932
v 0.9902148 7.488638 0.3801049
v 0.3713216 7.382751 -0.1888467
v 0.9902148 7.488638 0.3801049
v 0.7592691 7.383335 0.06353873
v -6.576785 -7.439711 3.453105
v -4.482785 -7.439711 4.726105
v -4.482785 7.288638 4.726105
v -6.576785 7.362638 3.453105
v -5.303785 7.288638 6.088105
v -4.893285 -7.439711 5.407105
v -5.303785 -7.439711 6.088105
v -4.893285 -7.439711 5.407105
v -4.482785 7.288638 4.726105
v -4.482785 -7.439711 4.726105
v -5.303785 7.288638 6.088105
v -4.482785 7.288638 4.726105
v -4.893285 -7.439711 5.407105
v -3.188285 -7.439711 7.441605
v -1.072785 -7.439711 8.795105
v -1.072785 7.288638 8.795105
v -5.303785 7.288638 6.088105
v -5.303785 -7.439711 6.088105
v -3.188285 -7.439711 7.441605
v -5.303785 7.288638 6.088105
v -3.188285 -7.439711 7.441605
v -1.072785 7.288638 8.795105
v -1.072785 -7.439711 8.795105
v 6.819215 -7.439711 -4.205895
v 6.819215 7.479638 -4.205895
v -1.072785 7.288638 8.795105
v 6.251215 7.479638 -4.550895
v 6.535215 -7.439711 -4.378395
v 6.251215 -7.439711 -4.550895
v 6.535215 -7.439711 -4.378395
v 6.819215 7.479638 -4.205895
v 6.819215 -7.439711 -4.205895
v 6.251215 7.479638 -4.550895
v 6.819215 7.479638 -4.205895
v 6.535215 -7.439711 -4.378395
v 6.251215 -7.439711 -4.550895
v 6.567215 -7.439711 -5.071895
v 6.567215 7.479638 -5.071895
v 6.251215 7.479638 -4.550895
v 4.822215 7.479638 -6.130895
v 5.694715 -7.439711 -5.601395
v 4.822215 -7.439711 -6.130895
v 5.694715 -7.439711 -5.601395
v 6.567215 7.479638 -5.071895
v 6.567215 -7.439711 -5.071895
v 4.822215 7.479638 -6.130895
v 6.567215 7.479638 -5.071895
v 5.694715 -7.439711 -5.601395
v 4.637215 7.479638 -5.826895
v 4.729715 -7.439711 -5.978895
v 4.637215 -7.439711 -5.826895
v 4.729715 -7.439711 -5.978895
v 4.822215 7.479638 -6.130895
v 4.822215 -7.439711 -6.130895
v 4.637215 7.479638 -5.826895
v 4.822215 7.479638 -6.130895
v 4.729715 -7.439711 -5.978895
v 0.5542148 7.835638 -8.298895
v 2.595715 -7.439711 -7.062895
v 0.5542148 -7.439711 -8.298895
v 2.595715 -7.439711 -7.062895
v 4.637215 7.479638 -5.826895
v 4.637215 -7.439711 -5.826895
v 0.5542148 7.835638 -8.298895
v 4.637215 7.479638 -5.826895
v 2.595715 -7.439711 -7.062895
v -6.576785 7.362638 3.453105
v -3.011285 -7.439711 -2.422895
v -6.576785 -7.439711 3.453105
v -3.011285 -7.439711 -2.422895
v 0.5542148 7.835638 -8.298895
v 0.5542148 -7.439711 -8.298895
v -6.576785 7.362638 3.453105
v 0.5542148 7.835638 -8.298895
v -3.011285 -7.439711 -2.422895
v -2.51972 7.321813 3.174689
v -2.245785 7.32324 3.334105
v -2.245785 8.001638 3.334105
v -2.666785 8.001638 3.089105
v -2.51972 7.321813 3.174689
v -2.245785 8.001638 3.334105
v -2.666785 8.001638 3.089105
v -2.666785 7.321678 3.089105
v -2.620113 7.321783 3.116266
v -2.666785 8.001638 3.089105
v -2.620113 7.321783 3.116266
v -2.51972 7.321813 3.174689
v -2.245785 7.32324 3.334105
v -1.981785 7.329775 2.882105
v -1.981785 8.001638 2.882105
v -2.245785 8.001638 3.334105
v -2.403785 8.000638 2.636105
v -2.201189 7.329237 2.754206
v -2.403785 7.328784 2.636105
v -2.403785 8.000638 2.636105
v -1.981785 8.001638 2.882105
v -2.201189 7.329237 2.754206
v -2.078306 7.329273 2.825839
v -1.981785 8.001638 2.882105
v -1.981785 7.329775 2.882105
v -2.201189 7.329237 2.754206
v -1.981785 8.001638 2.882105
v -2.078306 7.329273 2.825839
v -2.666785 8.001638 3.089105
v -2.403785 8.000638 2.636105
v -2.403785 7.328784 2.636105
v -2.666785 7.321678 3.089105
v 0.5542148 -7.439711 -8.298895
v 2.595715 -7.439711 -7.062895
v 4.637215 -7.439711 -5.826895
v 4.729715 -7.439711 -5.978895
v 4.822215 -7.439711 -6.130895
v 5.694715 -7.439711 -5.601395
v 6.567215 -7.439711 -5.071895
v 6.251215 -7.439711 -4.550895
v 6.535215 -7.439711 -4.378395
v 6.819215 -7.439711 -4.205895
v -1.072785 -7.439711 8.795105
v -3.188285 -7.439711 7.441605
v -5.303785 -7.439711 6.088105
v -4.893285 -7.439711 5.407105
v -4.482785 -7.439711 4.726105
v -6.576785 -7.439711 3.453105
v -3.011285 -7.439711 -2.422895
vt 0.228647 0.379337
vt 0.174699 0.321196
vt 0.717005 0.175102
vt 0.261380 0.262286
vt 0.378577 0.183630
vt 0.613131 0.062304
vt 0.174699 0.321196
vt 0.261380 0.262286
vt 0.613131 0.062304
vt 0.174699 0.321196
vt 0.242503 0.269795
vt 0.261380 0.262286
vt 0.261380 0.262286
vt 0.368306 0.188232
vt 0.378577 0.183630
vt 0.256332 0.256640
vt 0.357795 0.177604
vt 0.368306 0.188232
vt 0.378577 0.183630
vt 0.558848 0.017412
vt 0.613131 0.062304
vt 0.261380 0.262286
vt 0.256332 0.256640
vt 0.368306 0.188232
vt 0.378577 0.183630
vt 0.367810 0.172825
vt 0.558848 0.017412
vt 0.256332 0.256640
vt 0.357141 0.176921
vt 0.357795 0.177604
vt 0.367810 0.172825
vt 0.365429 0.170367
vt 0.558848 0.017412
vt 0.174699 0.321196
vt 0.241342 0.268494
vt 0.242503 0.269795
vt 0.117848 0.344560
vt 0.002375 0.226748
vt 0.174699 0.321196
vt 0.613131 0.062304
vt 0.558848 0.017412
vt 0.580603 0.008416
vt 0.625824 0.057038
vt 0.174699 0.321196
vt 0.232028 0.258061
vt 0.238846 0.265697
vt 0.232028 0.258061
vt 0.350012 0.169519
vt 0.250865 0.250526
vt 0.253271 0.253217
vt 0.250865 0.250526
vt 0.350012 0.169519
vt 0.174699 0.321196
vt 0.002375 0.226748
vt 0.232028 0.258061
vt 0.232028 0.258061
vt 0.345533 0.164808
vt 0.350012 0.169519
vt 0.232028 0.258061
vt 0.002375 0.226748
vt 0.345533 0.164808
vt 0.002375 0.226748
vt 0.355917 0.160523
vt 0.345533 0.164808
vt 0.357974 0.162630
vt 0.355917 0.160523
vt 0.544116 0.001585
vt 0.002375 0.226748
vt 0.544116 0.001585
vt 0.355917 0.160523
vt 0.174699 0.321196
vt 0.613131 0.062304
vt 0.717005 0.175102
vt 0.174699 0.321196
vt 0.238846 0.265697
vt 0.241342 0.268494
vt 0.357974 0.162630
vt 0.544116 0.001585
vt 0.558848 0.017412
vt 0.365429 0.170367
vt 0.357974 0.162630
vt 0.558848 0.017412
vt 0.253271 0.253217
vt 0.350012 0.169519
vt 0.357141 0.176921
vt 0.256332 0.256640
vt 0.253271 0.253217
vt 0.357141 0.176921
vt 0.396876 0.938617
vt 0.387173 0.927735
vt 0.404667 0.920761
vt 0.396876 0.938617
vt 0.404667 0.920761
vt 0.414413 0.931671
vt 0.380825 0.937081
vt 0.369854 0.932753
vt 0.366273 0.922019
vt 0.379442 0.942714
vt 0.369854 0.932753
vt 0.380825 0.937081
vt 0.362756 0.925175
vt 0.358670 0.920761
vt 0.366273 0.922019
vt 0.369854 0.932753
vt 0.369258 0.932113
vt 0.366273 0.922019
vt 0.369258 0.932113
vt 0.362756 0.925175
vt 0.366273 0.922019
vt 0.495896 0.925868
vt 0.489311 0.924093
vt 0.497583 0.920761
vt 0.503563 0.925288
vt 0.504781 0.920761
vt 0.511807 0.921822
vt 0.330166 0.926720
vt 0.332084 0.920761
vt 0.333918 0.922716
vt 0.342682 0.932188
vt 0.330166 0.926720
vt 0.340560 0.929905
vt 0.340560 0.929905
vt 0.330166 0.926720
vt 0.333918 0.922716
vt 0.352281 0.942225
vt 0.344388 0.941653
vt 0.330166 0.926720
vt 0.352281 0.942225
vt 0.330166 0.926720
vt 0.342682 0.932188
vt 0.529691 0.920761
vt 0.529691 0.920761
vt 0.529691 0.920761
vt 0.529691 0.920761
vt 0.102138 0.943606
vt 0.208009 0.967812
vt 0.180495 0.979025
vt 0.208009 0.967812
vt 0.158194 0.920761
vt 0.235522 0.956600
vt 0.102138 0.943606
vt 0.158194 0.920761
vt 0.208009 0.967812
vt 0.517815 0.920761
vt 0.517815 0.920761
vt 0.517815 0.920761
vt 0.517815 0.920761
vt 0.517815 0.920761
vt 0.517815 0.920761
vt 0.517815 0.920761
vt 0.517815 0.920761
vt 0.517815 0.920761
vt 0.084982 0.598178
vt 0.613562 0.383518
vt 0.539766 0.454508
vt 0.002375 0.672209
vt 0.881038 0.762250
vt 0.946014 0.684295
vt 0.952912 0.691886
vt 0.946014 0.684295
vt 0.866983 0.746783
vt 0.939116 0.676704
vt 0.881038 0.762250
vt 0.866983 0.746783
vt 0.946014 0.684295
vt 0.074391 0.929234
vt 0.095138 0.920761
vt 0.023511 0.990864
vt 0.002375 0.999496
vt 0.789265 0.795027
vt 0.839103 0.700144
vt 0.860414 0.723585
vt 0.839103 0.700144
vt 0.745843 0.747268
vt 0.817792 0.676704
vt 0.789265 0.795027
vt 0.745843 0.747268
vt 0.839103 0.700144
vt 0.242280 0.925873
vt 0.317890 0.964088
vt 0.311815 0.966596
vt 0.317890 0.964088
vt 0.254662 0.920761
vt 0.323966 0.961579
vt 0.242280 0.925873
vt 0.254662 0.920761
vt 0.317890 0.964088
vt 0.668020 0.862665
vt 0.689620 0.731813
vt 0.739693 0.786922
vt 0.689620 0.731813
vt 0.567696 0.748584
vt 0.639546 0.676704
vt 0.668020 0.862665
vt 0.567696 0.748584
vt 0.689620 0.731813
vt 0.002375 0.880453
vt 0.320669 0.816774
vt 0.080125 0.916132
vt 0.320669 0.816774
vt 0.490288 0.676704
vt 0.561227 0.717409
vt 0.002375 0.880453
vt 0.490288 0.676704
vt 0.320669 0.816774
vt 0.541568 0.920761
vt 0.541568 0.920761
vt 0.541568 0.920761
vt 0.541568 0.920761
vt 0.541568 0.920761
vt 0.541568 0.920761
vt 0.541568 0.920761
vt 0.541568 0.920761
vt 0.541568 0.920761
vt 0.541568 0.920761
vt 0.541568 0.920761
vt 0.541568 0.920761
vt 0.440385 0.927035
vt 0.457264 0.920761
vt 0.453981 0.923746
vt 0.437055 0.930055
vt 0.429017 0.934430
vt 0.427930 0.926233
vt 0.432050 0.931287
vt 0.429017 0.934430
vt 0.420428 0.923895
vt 0.427930 0.926233
vt 0.425432 0.923167
vt 0.420428 0.923895
vt 0.423468 0.920761
vt 0.427930 0.926233
vt 0.420428 0.923895
vt 0.425432 0.923167
vt 0.463183 0.927032
vt 0.480282 0.920761
vt 0.483509 0.922230
vt 0.466464 0.928513
vt 0.553444 0.920761
vt 0.553444 0.920761
vt 0.553444 0.920761
vt 0.553444 0.920761
vt 0.553444 0.920761
vt 0.553444 0.920761
vt 0.553444 0.920761
vt 0.553444 0.920761
vt 0.553444 0.920761
vt 0.553444 0.920761
vt 0.553444 0.920761
vt 0.553444 0.920761
vt 0.553444 0.920761
vt 0.553444 0.920761
vt 0.553444 0.920761
vt 0.553444 0.920761
vt 0.553444 0.920761
vn 0.00793314 0.9989546 0.04502014
vn 0.00793314 0.9989546 0.04502014
vn 0.00793314 0.9989546 0.04502014
vn -0.00850003 0.9999061 0.01075161
vn -0.00850003 0.9999061 0.01075161
vn -0.00850003 0.9999061 0.01075161
vn -0.008500041 0.9999061 0.01075161
vn -0.008500041 0.9999061 0.01075161
vn -0.008500041 0.9999061 0.01075161
vn -0.008500015 0.9999061 0.01075163
vn -0.008500015 0.9999061 0.01075163
vn -0.008500015 0.9999061 0.01075163
vn -0.008500041 0.9999061 0.0107516
vn -0.008500041 0.9999061 0.0107516
vn -0.008500041 0.9999061 0.0107516
vn -0.008500033 0.9999061 0.01075161
vn -0.008500033 0.9999061 0.01075161
vn -0.008500033 0.9999061 0.01075161
vn -0.008500034 0.9999061 0.01075161
vn -0.008500034 0.9999061 0.01075161
vn -0.008500034 0.9999061 0.01075161
vn -0.008500036 0.9999061 0.01075161
vn -0.008500036 0.9999061 0.01075161
vn -0.008500036 0.9999061 0.01075161
vn -0.008500032 0.9999061 0.01075161
vn -0.008500032 0.9999061 0.01075161
vn -0.008500032 0.9999061 0.01075161
vn -0.008499981 0.9999061 0.01075167
vn -0.008499981 0.9999061 0.01075167
vn -0.008499981 0.9999061 0.01075167
vn -0.008500047 0.9999061 0.0107516
vn -0.008500047 0.9999061 0.0107516
vn -0.008500047 0.9999061 0.0107516
vn -0.008500118 0.9999061 0.01075152
vn -0.008500118 0.9999061 0.01075152
vn -0.008500118 0.9999061 0.01075152
vn 0 1 0
vn 0 1 0
vn 0 1 0
vn 0 1 0
vn 0 1 0
vn 0 1 0
vn 0 1 0
vn -0.0101655 0.999912 0.008519107
vn -0.0101655 0.999912 0.008519107
vn -0.0101655 0.999912 0.008519107
vn -0.01016549 0.999912 0.00851913
vn -0.01016549 0.999912 0.00851913
vn -0.01016549 0.999912 0.00851913
vn -0.01016553 0.999912 0.008519073
vn -0.01016553 0.999912 0.008519073
vn -0.01016553 0.999912 0.008519073
vn -0.01016549 0.999912 0.008519126
vn -0.01016549 0.999912 0.008519126
vn -0.01016549 0.999912 0.008519126
vn -0.01016546 0.999912 0.008519158
vn -0.01016546 0.999912 0.008519158
vn -0.01016546 0.999912 0.008519158
vn -0.01016549 0.999912 0.008519125
vn -0.01016549 0.999912 0.008519125
vn -0.01016549 0.999912 0.008519125
vn -0.0101656 0.999912 0.008519096
vn -0.0101656 0.999912 0.008519096
vn -0.0101656 0.999912 0.008519096
vn -0.01016556 0.999912 0.00851904
vn -0.01016556 0.999912 0.00851904
vn -0.01016556 0.999912 0.00851904
vn -0.01016549 0.999912 0.008519126
vn -0.01016549 0.999912 0.008519126
vn -0.01016549 0.999912 0.008519126
vn 0.04989094 0.9968804 0.06115887
vn 0.04989094 0.9968804 0.06115887
vn 0.04989094 0.9968804 0.06115887
vn -0.007343268 0.9998999 0.01208993
vn -0.007343268 0.9998999 0.01208993
vn -0.007343268 0.9998999 0.01208993
vn -0.007343319 0.9998999 0.01208987
vn -0.007343319 0.9998999 0.01208987
vn -0.007343319 0.9998999 0.01208987
vn -0.007343309 0.9998999 0.01208988
vn -0.007343309 0.9998999 0.01208988
vn -0.007343309 0.9998999 0.01208988
vn -0.007343333 0.9998999 0.01208985
vn -0.007343333 0.9998999 0.01208985
vn -0.007343333 0.9998999 0.01208985
vn -0.007343286 0.9998999 0.0120899
vn -0.007343286 0.9998999 0.0120899
vn -0.007343286 0.9998999 0.0120899
vn 0 1 0
vn 0 1 0
vn 0 1 0
vn -0.0008090204 0.9999961 -0.002677193
vn -0.0008090204 0.9999961 -0.002677193
vn -0.0008090204 0.9999961 -0.002677193
vn -0.3159597 0.8139752 0.4874566
vn -0.3159597 0.8139752 0.4874566
vn -0.3159597 0.8139752 0.4874566
vn -0.3159597 0.8139752 0.4874566
vn -0.3159597 0.8139752 0.4874566
vn -0.3159597 0.8139752 0.4874566
vn -0.3162868 0.8040072 0.5035226
vn -0.3162868 0.8040072 0.5035226
vn -0.3162868 0.8040072 0.5035226
vn -0.3162868 0.804007 0.503523
vn -0.3162868 0.804007 0.503523
vn -0.3162868 0.804007 0.503523
vn -0.3162868 0.8040072 0.5035226
vn -0.3162868 0.8040072 0.5035226
vn -0.3162868 0.8040072 0.5035226
vn 0.4677125 0.8335044 0.294135
vn 0.4677125 0.8335044 0.294135
vn 0.4677125 0.8335044 0.294135
vn -0.5121616 0.7961059 -0.3223443
vn -0.5121616 0.7961059 -0.3223443
vn -0.5121616 0.7961059 -0.3223443
vn 0.3131219 0.8089624 -0.4975284
vn 0.3131219 0.8089624 -0.4975284
vn 0.3131219 0.8089624 -0.4975284
vn 0.313122 0.8089624 -0.4975283
vn 0.313122 0.8089624 -0.4975283
vn 0.313122 0.8089624 -0.4975283
vn 0.313122 0.8089625 -0.4975283
vn 0.313122 0.8089625 -0.4975283
vn 0.313122 0.8089625 -0.4975283
vn 0.3269081 0.7992275 -0.5043475
vn 0.3269081 0.7992275 -0.5043475
vn 0.3269081 0.7992275 -0.5043475
vn 0.3269081 0.7992275 -0.5043475
vn 0.3269081 0.7992275 -0.5043475
vn 0.3269081 0.7992275 -0.5043475
vn -0.5194679 0 0.85449
vn -0.5194679 0 0.85449
vn -0.5194679 0 0.85449
vn -0.5194679 0 0.85449
vn -0.856437 0 -0.5162516
vn -0.856437 0 -0.5162516
vn -0.856437 0 -0.5162516
vn -0.856437 0 -0.5162516
vn -0.856437 0 -0.5162516
vn -0.856437 0 -0.5162516
vn -0.856437 -1.46298E-11 -0.5162516
vn -0.856437 -1.46298E-11 -0.5162516
vn -0.856437 -1.46298E-11 -0.5162516
vn -0.5389351 0 0.8423473
vn -0.5389351 0 0.8423473
vn -0.5389351 0 0.8423473
vn -0.5389351 0 0.8423473
vn -0.5389351 0 0.8423473
vn -0.5389351 0 0.8423473
vn -0.5389351 2.663222E-11 0.8423473
vn -0.5389351 2.663222E-11 0.8423473
vn -0.5389351 2.663222E-11 0.8423473
vn 0.8548302 0 0.5189078
vn 0.8548302 0 0.5189078
vn 0.8548302 0 0.5189078
vn 0.8548302 0 0.5189078
vn 0.5191352 0 -0.8546922
vn 0.5191352 0 -0.8546922
vn 0.5191352 0 -0.8546922
vn 0.5191352 0 -0.8546922
vn 0.5191352 0 -0.8546922
vn 0.5191352 0 -0.8546922
vn 0.5191352 0 -0.8546922
vn 0.5191352 0 -0.8546922
vn 0.5191352 0 -0.8546922
vn 0.8550214 0 0.5185927
vn 0.8550214 0 0.5185927
vn 0.8550214 0 0.5185927
vn 0.8550214 0 0.5185927
vn 0.5188119 0 -0.8548884
vn 0.5188119 0 -0.8548884
vn 0.5188119 0 -0.8548884
vn 0.5188119 0 -0.8548884
vn 0.5188119 0 -0.8548884
vn 0.5188119 0 -0.8548884
vn 0.5188119 0 -0.8548884
vn 0.5188119 0 -0.8548884
vn 0.5188119 0 -0.8548884
vn -0.8542528 0 -0.5198578
vn -0.8542528 0 -0.5198578
vn -0.8542528 0 -0.5198578
vn -0.8542528 0 -0.5198578
vn -0.8542528 0 -0.5198578
vn -0.8542528 0 -0.5198578
vn -0.8542528 -1.455932E-11 -0.5198578
vn -0.8542528 -1.455932E-11 -0.5198578
vn -0.8542528 -1.455932E-11 -0.5198578
vn 0.5179116 0 -0.8554341
vn 0.5179116 0 -0.8554341
vn 0.5179116 0 -0.8554341
vn 0.5179116 0 -0.8554341
vn 0.5179116 0 -0.8554341
vn 0.5179116 0 -0.8554341
vn 0.5179116 2.538654E-11 -0.8554341
vn 0.5179116 2.538654E-11 -0.8554341
vn 0.5179116 2.538654E-11 -0.8554341
vn -0.8549212 0 -0.5187579
vn -0.8549212 0 -0.5187579
vn -0.8549212 0 -0.5187579
vn -0.8549212 0 -0.5187579
vn -0.8549212 0 -0.5187579
vn -0.8549212 0 -0.5187579
vn -0.8549212 -1.654474E-12 -0.5187579
vn -0.8549212 -1.654474E-12 -0.5187579
vn -0.8549212 -1.654474E-12 -0.5187579
vn -0.5029773 0 0.8642997
vn -0.5029773 0 0.8642997
vn -0.5029773 0 0.8642997
vn -0.5029773 2.101776E-09 0.8642997
vn -0.5029773 2.101776E-09 0.8642997
vn -0.5029773 2.101776E-09 0.8642997
vn -0.5029773 0 0.8642997
vn -0.5029773 0 0.8642997
vn -0.5029773 0 0.8642997
vn -0.5029773 1.358697E-09 0.8642997
vn -0.5029773 1.358697E-09 0.8642997
vn -0.5029773 1.358697E-09 0.8642997
vn 0.8635016 0 0.5043461
vn 0.8635016 0 0.5043461
vn 0.8635016 0 0.5043461
vn 0.8635016 0 0.5043461
vn 0.5036165 0 -0.8639274
vn 0.5036165 0 -0.8639274
vn 0.5036165 0 -0.8639274
vn 0.5036165 -4.04746E-10 -0.8639274
vn 0.5036165 -4.04746E-10 -0.8639274
vn 0.5036165 -4.04746E-10 -0.8639274
vn 0.5036165 0 -0.8639274
vn 0.5036165 0 -0.8639274
vn 0.5036165 0 -0.8639274
vn 0.5036164 1.394571E-08 -0.8639274
vn 0.5036164 1.394571E-08 -0.8639274
vn 0.5036164 1.394571E-08 -0.8639274
vn -0.8648157 0 -0.5020894
vn -0.8648157 0 -0.5020894
vn -0.8648157 0 -0.5020894
vn -0.8648157 0 -0.5020894
vn 0 -1 0
vn 0 -1 0
vn 0 -1 0
vn 0 -1 0
vn 0 -1 0
vn 0 -1 0
vn 0 -1 0
vn 0 -1 0
vn 0 -1 0
vn 0 -1 0
vn 0 -1 0
vn 0 -1 0
vn 0 -1 0
vn 0 -1 0
vn 0 -1 0
vn 0 -1 0
vn 0 -1 0

g CDNNDG02_0006840
f 1/1/1 2/2/2 3/3/3
f 4/4/4 5/5/5 6/6/6
f 7/7/7 8/8/8 9/9/9
f 10/10/10 11/11/11 12/12/12
f 13/13/13 14/14/14 15/15/15
f 16/16/16 17/17/17 18/18/18
f 19/19/19 20/20/20 21/21/21
f 22/22/22 23/23/23 24/24/24
f 25/25/25 26/26/26 27/27/27
f 28/28/28 29/29/29 30/30/30
f 31/31/31 32/32/32 33/33/33
f 34/34/34 35/35/35 36/36/36
f 37/37/37 38/38/38 39/39/39
f 43/43/43 40/40/40 42/42/42
f 42/42/42 40/40/40 41/41/41
f 44/44/44 45/45/45 46/46/46
f 47/47/47 48/48/48 49/49/49
f 50/50/50 51/51/51 52/52/52
f 53/53/53 54/54/54 55/55/55
f 56/56/56 57/57/57 58/58/58
f 59/59/59 60/60/60 61/61/61
f 62/62/62 63/63/63 64/64/64
f 65/65/65 66/66/66 67/67/67
f 68/68/68 69/69/69 70/70/70
f 71/71/71 72/72/72 73/73/73
f 74/74/74 75/75/75 76/76/76
f 77/77/77 78/78/78 79/79/79
f 80/80/80 81/81/81 82/82/82
f 83/83/83 84/84/84 85/85/85
f 86/86/86 87/87/87 88/88/88
f 89/89/89 90/90/90 91/91/91
f 92/92/92 93/93/93 94/94/94
f 95/95/95 96/96/96 97/97/97
f 98/98/98 99/99/99 100/100/100
f 101/101/101 102/102/102 103/103/103
f 104/104/104 105/105/105 106/106/106
f 107/107/107 108/108/108 109/109/109
f 110/110/110 111/111/111 112/112/112
f 113/113/113 114/114/114 115/115/115
f 116/116/116 117/117/117 118/118/118
f 119/119/119 120/120/120 121/121/121
f 122/122/122 123/123/123 124/124/124
f 125/125/125 126/126/126 127/127/127
f 128/128/128 129/129/129 130/130/130
f 131/131/131 133/133/133 134/134/134
f 133/133/133 131/131/131 132/132/132
f 135/135/135 136/136/136 137/137/137
f 138/138/138 139/139/139 140/140/140
f 141/141/141 142/142/142 143/143/143
f 144/144/144 145/145/145 146/146/146
f 147/147/147 148/148/148 149/149/149
f 150/150/150 151/151/151 152/152/152
f 156/156/156 153/153/153 154/154/154
f 154/154/154 155/155/155 156/156/156
f 157/157/157 158/158/158 159/159/159
f 160/160/160 161/161/161 162/162/162
f 163/163/163 164/164/164 165/165/165
f 166/166/166 168/168/168 169/169/169
f 166/166/166 167/167/167 168/168/168
f 170/170/170 171/171/171 172/172/172
f 173/173/173 174/174/174 175/175/175
f 176/176/176 177/177/177 178/178/178
f 179/179/179 180/180/180 181/181/181
f 182/182/182 183/183/183 184/184/184
f 185/185/185 186/186/186 187/187/187
f 188/188/188 189/189/189 190/190/190
f 191/191/191 192/192/192 193/193/193
f 194/194/194 195/195/195 196/196/196
f 197/197/197 198/198/198 199/199/199
f 200/200/200 201/201/201 202/202/202
f 203/203/203 204/204/204 205/205/205
f 206/206/206 207/207/207 208/208/208
f 209/209/209 210/210/210 211/211/211
f 212/212/212 213/213/213 214/214/214
f 215/215/215 216/216/216 217/217/217
f 219/219/219 220/220/220 221/221/221
f 218/218/218 219/219/219 221/221/221
f 222/222/222 223/223/223 224/224/224
f 225/225/225 226/226/226 227/227/227
f 228/228/228 229/229/229 230/230/230
f 231/231/231 232/232/232 233/233/233
f 234/234/234 235/235/235 236/236/236
f 237/237/237 234/234/234 236/236/236
f 252/252/252 253/253/253 254/254/254
f 254/254/254 240/240/240 245/245/245
f 238/238/238 239/239/239 254/254/254
f 239/239/239 240/240/240 254/254/254
f 240/240/240 241/241/241 243/243/243
f 241/241/241 242/242/242 243/243/243
f 249/249/249 251/251/251 252/252/252
f 240/240/240 243/243/243 245/245/245
f 248/248/248 252/252/252 254/254/254
f 243/243/243 244/244/244 245/245/245
f 249/249/249 250/250/250 251/251/251
f 254/254/254 245/245/245 246/246/246
f 254/254/254 246/246/246 247/247/247
f 248/248/248 249/249/249 252/252/252
f 247/247/247 248/248/248 254/254/254
