v -6.009629 5.436243 2.563003
v -1.279629 5.436243 7.827003
v -0.7396293 5.436243 7.022003
v -7.794629 5.436243 3.682003
v -6.009629 5.436243 2.563003
v -6.840629 5.436243 1.973003
v -0.7396293 5.436243 7.022003
v -0.1936292 5.436243 7.439003
v 2.801307 5.436243 2.344878
v -0.1936292 5.436243 7.439003
v 5.038371 5.436243 -0.609997
v 2.99377 5.436243 2.469703
v -0.1936292 5.436243 7.439003
v 2.99377 5.436243 2.469703
v 2.801307 5.436243 2.344878
v 3.349242 5.436243 1.621126
v 3.487107 5.436243 1.710876
v 5.038371 5.436243 -0.609997
v 2.99377 5.436243 2.469703
v 5.038371 5.436243 -0.609997
v 3.487107 5.436243 1.710876
v 0.7573708 5.436243 -8.175997
v 5.038371 5.436243 -0.609997
v 7.295371 5.436243 -4.156997
v -6.009629 5.436243 2.563003
v 5.038371 5.436243 -0.609997
v 0.7573708 5.436243 -8.175997
v -6.009629 5.436243 2.563003
v 2.161384 5.436243 1.929845
v 2.655647 5.436243 1.169594
v -6.009629 5.436243 2.563003
v -0.7396293 5.436243 7.022003
v 2.161384 5.436243 1.929845
v -6.009629 5.436243 2.563003
v 2.655647 5.436243 1.169594
v 5.038371 5.436243 -0.609997
v -0.7396293 5.436243 7.022003
v 2.801307 5.436243 2.344878
v 2.161384 5.436243 1.929845
v 2.655647 5.436243 1.169594
v 3.349242 5.436243 1.621126
v 5.038371 5.436243 -0.609997
v -7.794629 5.436243 3.682003
v -1.279629 5.436243 7.827003
v -6.009629 5.436243 2.563003
v 2.161384 5.436243 1.929845
v 2.824371 5.965242 1.909003
v 2.655647 5.436243 1.169594
v 2.655647 5.436243 1.169594
v 2.824371 5.965242 1.909003
v 3.349242 5.436243 1.621126
v 2.824371 5.965242 1.909003
v 3.487107 5.436243 1.710876
v 3.349242 5.436243 1.621126
v 2.161384 5.436243 1.929845
v 2.801307 5.436243 2.344878
v 2.824371 5.965242 1.909003
v 2.801307 5.436243 2.344878
v 2.99377 5.436243 2.469703
v 2.824371 5.965242 1.909003
v 2.824371 5.965242 1.909003
v 2.99377 5.436243 2.469703
v 3.487107 5.436243 1.710876
v -1.279629 -5.437684 7.827003
v -1.279629 5.436243 7.827003
v -7.794629 5.436243 3.682003
v -7.794629 -5.437684 3.682003
v -0.7396293 -5.437684 7.022003
v -0.7396293 5.436243 7.022003
v -1.279629 -5.437684 7.827003
v -1.279629 5.436243 7.827003
v -0.7396293 -5.437684 7.022003
v -0.1936292 5.436243 7.439003
v -0.7396293 5.436243 7.022003
v -0.1936292 -5.437684 7.439003
v -0.1936292 -5.437684 7.439003
v 5.038371 5.436243 -0.609997
v -0.1936292 5.436243 7.439003
v 5.038371 -5.437684 -0.609997
v 7.295371 -5.437684 -4.156997
v 7.295371 5.436243 -4.156997
v 5.038371 -5.437684 -0.609997
v 5.038371 5.436243 -0.609997
v 0.7573708 5.436243 -8.175997
v 4.026371 -5.437684 -6.166497
v 0.7573708 -5.437684 -8.175997
v 4.026371 -5.437684 -6.166497
v 7.295371 5.436243 -4.156997
v 7.295371 -5.437684 -4.156997
v 0.7573708 5.436243 -8.175997
v 7.295371 5.436243 -4.156997
v 4.026371 -5.437684 -6.166497
v -6.009629 5.436243 2.563003
v 0.7573708 -5.437684 -8.175997
v -6.009629 -5.437684 2.563003
v 0.7573708 5.436243 -8.175997
v -6.009629 -5.437684 2.563003
v -6.840629 5.436243 1.973003
v -6.009629 5.436243 2.563003
v -6.840629 -5.437684 1.973003
v -7.794629 5.436243 3.682003
v -6.840629 5.436243 1.973003
v -6.840629 -5.437684 1.973003
v -7.794629 -5.437684 3.682003
v 4.026371 -5.437684 -6.166497
v 7.295371 -5.437684 -4.156997
v 5.038371 -5.437684 -0.609997
v -7.794629 -5.437684 3.682003
v -6.840629 -5.437684 1.973003
v -6.009629 -5.437684 2.563003
v -1.279629 -5.437684 7.827003
v 0.7573708 -5.437684 -8.175997
v -0.7396293 -5.437684 7.022003
v -0.1936292 -5.437684 7.439003
vt 0.225050 0.377858
vt 0.002398 0.245065
vt 0.036181 0.229728
vt 0.178308 0.428358
vt 0.225050 0.377858
vt 0.250068 0.401229
vt 0.036181 0.229728
vt 0.018506 0.214375
vt 0.232383 0.129233
vt 0.018506 0.214375
vt 0.356343 0.065740
vt 0.227086 0.123818
vt 0.018506 0.214375
vt 0.227086 0.123818
vt 0.232383 0.129233
vt 0.262744 0.113682
vt 0.258936 0.109803
vt 0.356343 0.065740
vt 0.227086 0.123818
vt 0.356343 0.065740
vt 0.258936 0.109803
vt 0.675843 0.185587
vt 0.356343 0.065740
vt 0.505240 0.001608
vt 0.225050 0.377858
vt 0.356343 0.065740
vt 0.675843 0.185587
vt 0.225050 0.377858
vt 0.249994 0.147237
vt 0.281904 0.133196
vt 0.225050 0.377858
vt 0.036181 0.229728
vt 0.249994 0.147237
vt 0.225050 0.377858
vt 0.281904 0.133196
vt 0.356343 0.065740
vt 0.036181 0.229728
vt 0.232383 0.129233
vt 0.249994 0.147237
vt 0.281904 0.133196
vt 0.262744 0.113682
vt 0.356343 0.065740
vt 0.178308 0.428358
vt 0.002398 0.245065
vt 0.225050 0.377858
vt 0.691740 0.944388
vt 0.690647 0.924437
vt 0.721506 0.931264
vt 0.685540 0.946353
vt 0.654676 0.943437
vt 0.667685 0.928071
vt 0.654676 0.943437
vt 0.664136 0.924437
vt 0.667685 0.928071
vt 0.649013 0.946424
vt 0.633087 0.929521
vt 0.647954 0.926371
vt 0.633087 0.929521
vt 0.628297 0.924437
vt 0.647954 0.926371
vt 0.746839 0.943228
vt 0.726619 0.937423
vt 0.756299 0.924437
vt 0.571715 0.730447
vt 0.529976 0.678457
vt 0.704781 0.861570
vt 0.744149 0.911076
vt 0.445742 0.924437
vt 0.404546 0.956388
vt 0.413343 0.939133
vt 0.371703 0.971286
vt 0.232181 0.990858
vt 0.175060 0.924437
vt 0.192108 0.939521
vt 0.215364 0.975978
vt 0.044968 0.887747
vt 0.339889 0.772127
vt 0.002398 0.920339
vt 0.377890 0.741541
vt 0.524620 0.678457
vt 0.488633 0.708177
vt 0.377890 0.741541
vt 0.339889 0.772127
vt 0.919819 0.891443
vt 0.869796 0.768864
vt 0.953257 0.859268
vt 0.869796 0.768864
vt 0.750600 0.708150
vt 0.786331 0.678457
vt 0.919819 0.891443
vt 0.750600 0.708150
vt 0.869796 0.768864
vt 0.002398 0.624738
vt 0.485888 0.485289
vt 0.041374 0.674943
vt 0.453019 0.432476
vt 0.343033 0.924437
vt 0.328733 0.981345
vt 0.304556 0.958520
vt 0.366882 0.946953
vt 0.002398 0.951177
vt 0.072954 0.924437
vt 0.110956 0.973609
vt 0.041357 0.999987
vt 0.762590 0.924437
vt 0.762590 0.924437
vt 0.762590 0.924437
vt 0.762590 0.924437
vt 0.762590 0.924437
vt 0.762590 0.924437
vt 0.762590 0.924437
vt 0.762590 0.924437
vt 0.762590 0.924437
vt 0.762590 0.924437
vn 0 1 0
vn 0 1 0
vn 0 1 0
vn 0 1 0
vn 0 1 0
vn 0 1 0
vn 0 1 0
vn 0 1 0
vn 0 1 0
vn 0 1 0
vn 0 1 0
vn 0 1 0
vn 0 1 0
vn 0 1 0
vn 0 1 0
vn 0 1 0
vn 0 1 0
vn 0 1 0
vn 0 1 0
vn 0 1 0
vn 0 1 0
vn 0 1 0
vn 0 1 0
vn 0 1 0
vn 0 1 0
vn 0 1 0
vn 0 1 0
vn 0 1 0
vn 0 1 0
vn 0 1 0
vn 0 1 0
vn 0 1 0
vn 0 1 0
vn 0 1 0
vn 0 1 0
vn 0 1 0
vn 0 1 0
vn 0 1 0
vn 0 1 0
vn 0 1 0
vn 0 1 0
vn 0 1 0
vn 0 1 0
vn 0 1 0
vn 0 1 0
vn -0.5842223 0.7172312 -0.3798207
vn -0.5842223 0.7172312 -0.3798207
vn -0.5842223 0.7172312 -0.3798207
vn 0.3862867 0.7061806 -0.5933731
vn 0.3862867 0.7061806 -0.5933731
vn 0.3862867 0.7061806 -0.5933731
vn 0.3862867 0.7061806 -0.5933731
vn 0.3862867 0.7061806 -0.5933731
vn 0.3862867 0.7061806 -0.5933731
vn -0.4426333 0.5816343 0.6824788
vn -0.4426333 0.5816343 0.6824788
vn -0.4426333 0.5816343 0.6824788
vn -0.4426333 0.5816343 0.6824788
vn -0.4426333 0.5816343 0.6824788
vn -0.4426333 0.5816343 0.6824788
vn 0.6400027 0.645964 0.4160853
vn 0.6400027 0.645964 0.4160853
vn 0.6400027 0.645964 0.4160853
vn -0.5367917 0 0.8437148
vn -0.5367917 0 0.8437148
vn -0.5367917 0 0.8437148
vn -0.5367917 0 0.8437148
vn 0.8304598 0 0.5570786
vn 0.8304598 0 0.5570786
vn 0.8304598 0 0.5570786
vn 0.8304598 0 0.5570786
vn -0.6069638 0 0.7947295
vn -0.6069638 0 0.7947295
vn -0.6069638 0 0.7947295
vn -0.6069638 0 0.7947295
vn 0.8384365 0 0.5449994
vn 0.8384365 0 0.5449994
vn 0.8384365 0 0.5449994
vn 0.8384365 0 0.5449994
vn 0.8436811 0 0.5368447
vn 0.8436811 0 0.5368447
vn 0.8436811 0 0.5368447
vn 0.8436811 0 0.5368447
vn 0.523683 0 -0.8519132
vn 0.523683 0 -0.8519132
vn 0.523683 0 -0.8519132
vn 0.523683 0 -0.8519132
vn 0.523683 0 -0.8519132
vn 0.523683 0 -0.8519132
vn 0.523683 -1.40162E-12 -0.8519132
vn 0.523683 -1.40162E-12 -0.8519132
vn 0.523683 -1.40162E-12 -0.8519132
vn -0.8460407 0 -0.5331183
vn -0.8460407 0 -0.5331183
vn -0.8460407 0 -0.5331183
vn -0.8460407 0 -0.5331183
vn 0.5789154 0 -0.8153876
vn 0.5789154 0 -0.8153876
vn 0.5789154 0 -0.8153876
vn 0.5789154 0 -0.8153876
vn -0.8731673 0 -0.4874205
vn -0.8731673 0 -0.4874205
vn -0.8731673 0 -0.4874205
vn -0.8731673 0 -0.4874205
vn 0 -1 0
vn 0 -1 0
vn 0 -1 0
vn 0 -1 0
vn 0 -1 0
vn 0 -1 0
vn 0 -1 0
vn 0 -1 0
vn 0 -1 0
vn 0 -1 0

g CDNNDG02_0016630
f 1/1/1 2/2/2 3/3/3
f 4/4/4 5/5/5 6/6/6
f 7/7/7 8/8/8 9/9/9
f 10/10/10 11/11/11 12/12/12
f 13/13/13 14/14/14 15/15/15
f 16/16/16 17/17/17 18/18/18
f 19/19/19 20/20/20 21/21/21
f 22/22/22 23/23/23 24/24/24
f 25/25/25 26/26/26 27/27/27
f 28/28/28 29/29/29 30/30/30
f 31/31/31 32/32/32 33/33/33
f 34/34/34 35/35/35 36/36/36
f 37/37/37 38/38/38 39/39/39
f 40/40/40 41/41/41 42/42/42
f 43/43/43 44/44/44 45/45/45
f 46/46/46 47/47/47 48/48/48
f 49/49/49 50/50/50 51/51/51
f 52/52/52 53/53/53 54/54/54
f 55/55/55 56/56/56 57/57/57
f 58/58/58 59/59/59 60/60/60
f 61/61/61 62/62/62 63/63/63
f 64/64/64 65/65/65 66/66/66
f 66/66/66 67/67/67 64/64/64
f 68/68/68 69/69/69 70/70/70
f 70/70/70 69/69/69 71/71/71
f 72/72/72 73/73/73 74/74/74
f 73/73/73 72/72/72 75/75/75
f 76/76/76 77/77/77 78/78/78
f 76/76/76 79/79/79 77/77/77
f 80/80/80 81/81/81 82/82/82
f 82/82/82 81/81/81 83/83/83
f 84/84/84 85/85/85 86/86/86
f 87/87/87 88/88/88 89/89/89
f 90/90/90 91/91/91 92/92/92
f 93/93/93 94/94/94 95/95/95
f 93/93/93 96/96/96 94/94/94
f 97/97/97 98/98/98 99/99/99
f 98/98/98 97/97/97 100/100/100
f 101/101/101 102/102/102 103/103/103
f 104/104/104 101/101/101 103/103/103
f 105/105/105 106/106/106 107/107/107
f 108/108/108 109/109/109 110/110/110
f 108/108/108 110/110/110 111/111/111
f 110/110/110 112/112/112 107/107/107
f 112/112/112 105/105/105 107/107/107
f 110/110/110 113/113/113 111/111/111
f 110/110/110 107/107/107 113/113/113
f 113/113/113 107/107/107 114/114/114
