v -0.6955274 6.054642 9.640693
v 3.536472 6.054687 2.769693
v 1.826472 6.055207 1.715693
v 1.640472 6.055369 0.8506928
v 7.174472 6.055429 -8.133307
v 3.187473 6.056642 -10.58831
v 2.178472 6.056631 -8.951307
v 1.821472 6.057291 -9.171308
v -7.270528 6.056671 5.591693
v 1.420472 -6.055924 6.205193
v 3.536472 -6.055924 2.769693
v 3.536472 6.054687 2.769693
v -0.6955274 6.054642 9.640693
v -0.6955274 -6.055924 9.640693
v 1.420472 -6.055924 6.205193
v -0.6955274 6.054642 9.640693
v 1.420472 -6.055924 6.205193
v 3.536472 6.054687 2.769693
v 1.826472 6.055207 1.715693
v 3.536472 6.054687 2.769693
v 3.536472 -6.055924 2.769693
v 1.826472 -6.055924 1.715693
v 1.640472 6.055369 0.8506928
v 1.733472 -6.055924 1.283193
v 1.640472 -6.055924 0.8506928
v 1.733472 -6.055924 1.283193
v 1.826472 6.055207 1.715693
v 1.826472 -6.055924 1.715693
v 1.640472 6.055369 0.8506928
v 1.826472 6.055207 1.715693
v 1.733472 -6.055924 1.283193
v 4.407472 -6.055924 -3.641307
v 7.174472 -6.055924 -8.133307
v 7.174472 6.055429 -8.133307
v 1.640472 6.055369 0.8506928
v 1.640472 -6.055924 0.8506928
v 4.407472 -6.055924 -3.641307
v 1.640472 6.055369 0.8506928
v 4.407472 -6.055924 -3.641307
v 7.174472 6.055429 -8.133307
v 3.187473 6.056642 -10.58831
v 7.174472 6.055429 -8.133307
v 7.174472 -6.055924 -8.133307
v 3.187473 -6.055924 -10.58831
v 2.178472 6.056631 -8.951307
v 2.682972 -6.055924 -9.769807
v 2.178472 -6.055924 -8.951307
v 2.682972 -6.055924 -9.769807
v 3.187473 6.056642 -10.58831
v 3.187473 -6.055924 -10.58831
v 2.178472 6.056631 -8.951307
v 3.187473 6.056642 -10.58831
v 2.682972 -6.055924 -9.769807
v 1.821472 6.057291 -9.171308
v 2.178472 6.056631 -8.951307
v 2.178472 -6.055924 -8.951307
v 1.821472 -6.055924 -9.171308
v -7.270528 6.056671 5.591693
v 1.821472 6.057291 -9.171308
v 1.821472 -6.055924 -9.171308
v -7.270528 -6.055924 5.591693
v -3.983028 -6.055924 7.616193
v -0.6955274 -6.055924 9.640693
v -0.6955274 6.054642 9.640693
v -7.270528 6.056671 5.591693
v -7.270528 -6.055924 5.591693
v -3.983028 -6.055924 7.616193
v -7.270528 6.056671 5.591693
v -3.983028 -6.055924 7.616193
v -0.6955274 6.054642 9.640693
v -3.983028 -6.055924 7.616193
v -7.270528 -6.055924 5.591693
v 1.821472 -6.055924 -9.171308
v 2.178472 -6.055924 -8.951307
v 2.682972 -6.055924 -9.769807
v 3.187473 -6.055924 -10.58831
v 7.174472 -6.055924 -8.133307
v 4.407472 -6.055924 -3.641307
v 1.640472 -6.055924 0.8506928
v 1.733472 -6.055924 1.283193
v 1.826472 -6.055924 1.715693
v 3.536472 -6.055924 2.769693
v 1.420472 -6.055924 6.205193
v -0.6955274 -6.055924 9.640693
vt 0.001883 0.185879
vt 0.228058 0.086779
vt 0.262998 0.126631
vt 0.291547 0.130928
vt 0.587297 0.001333
vt 0.668674 0.094254
vt 0.614784 0.117882
vt 0.622073 0.126201
vt 0.136110 0.339096
vt 0.803377 0.765718
vt 0.692633 0.813558
vt 0.497175 0.749131
vt 0.722014 0.652000
vt 0.914125 0.717876
vt 0.803377 0.765718
vt 0.722014 0.652000
vt 0.803377 0.765718
vt 0.497175 0.749131
vt 0.320468 0.947061
vt 0.288136 0.907313
vt 0.367559 0.845333
vt 0.399414 0.884490
vt 0.517268 0.912297
vt 0.582128 0.847697
vt 0.595737 0.850060
vt 0.582128 0.847697
vt 0.489642 0.907499
vt 0.568520 0.845333
vt 0.517268 0.912297
vt 0.489642 0.907499
vt 0.582128 0.847697
vt 0.347686 0.779796
vt 0.202798 0.842426
vt 0.001883 0.779160
vt 0.296043 0.652000
vt 0.492579 0.717164
vt 0.347686 0.779796
vt 0.296043 0.652000
vt 0.347686 0.779796
vt 0.001883 0.779160
vt 0.077491 0.999537
vt 0.001883 0.906457
vt 0.076362 0.845333
vt 0.150853 0.937026
vt 0.156309 0.869395
vt 0.257537 0.948614
vt 0.231121 0.960462
vt 0.257537 0.948614
vt 0.209956 0.845333
vt 0.283954 0.936767
vt 0.156309 0.869395
vt 0.209956 0.845333
vt 0.257537 0.948614
vt 0.411597 0.915792
vt 0.404896 0.907539
vt 0.478277 0.845333
vt 0.484882 0.853461
vt 0.001883 0.561010
vt 0.491127 0.342667
vt 0.566677 0.434259
vt 0.084856 0.649273
vt 0.828579 0.417763
vt 0.893030 0.492858
vt 0.701512 0.579331
vt 0.570621 0.426886
vt 0.764127 0.342667
vt 0.828579 0.417763
vt 0.570621 0.426886
vt 0.828579 0.417763
vt 0.701512 0.579331
vt 0.600753 0.845333
vt 0.600753 0.845333
vt 0.600753 0.845333
vt 0.600753 0.845333
vt 0.600753 0.845333
vt 0.600753 0.845333
vt 0.600753 0.845333
vt 0.600753 0.845333
vt 0.600753 0.845333
vt 0.600753 0.845333
vt 0.600753 0.845333
vt 0.600753 0.845333
vt 0.600753 0.845333
vt 0.600753 0.845333
vn 0.0002194312 0.9999999 0.0001412221
vn 0.0002175756 0.9999999 0.0001406316
vn 0.0002197929 0.9999999 0.0001408163
vn 0.0006000946 0.9999998 0.0001748846
vn 0.0002175785 0.9999999 0.0001406328
vn 0.0002175784 0.9999999 0.0001406333
vn 0.0007156656 0.9999997 0.0001679709
vn 0.0009811415 0.9999995 0.0002094508
vn 0.0002307489 0.9999999 0.0001593572
vn 0.8514541 0 0.5244292
vn 0.8514541 0 0.5244292
vn 0.8514541 0 0.5244292
vn 0.8514541 0 0.5244292
vn 0.8514541 0 0.5244292
vn 0.8514541 0 0.5244292
vn 0.8514541 2.036932E-10 0.5244292
vn 0.8514541 2.036932E-10 0.5244292
vn 0.8514541 2.036932E-10 0.5244292
vn 0.5247083 0 -0.8512821
vn 0.5247083 0 -0.8512821
vn 0.5247083 0 -0.8512821
vn 0.5247083 0 -0.8512821
vn 0.9776533 0 -0.2102235
vn 0.9776533 0 -0.2102235
vn 0.9776533 0 -0.2102235
vn 0.9776534 0 -0.2102235
vn 0.9776534 0 -0.2102235
vn 0.9776534 0 -0.2102235
vn 0.9776534 4.906498E-10 -0.2102235
vn 0.9776534 4.906498E-10 -0.2102235
vn 0.9776534 4.906498E-10 -0.2102235
vn 0.8514305 0 0.5244675
vn 0.8514305 0 0.5244675
vn 0.8514305 0 0.5244675
vn 0.8514305 0 0.5244675
vn 0.8514305 0 0.5244675
vn 0.8514305 0 0.5244675
vn 0.8514305 2.016494E-11 0.5244675
vn 0.8514305 2.016494E-11 0.5244675
vn 0.8514305 2.016494E-11 0.5244675
vn 0.5243238 0 -0.851519
vn 0.5243238 0 -0.851519
vn 0.5243238 0 -0.851519
vn 0.5243238 0 -0.851519
vn -0.8512831 0 -0.5247067
vn -0.8512831 0 -0.5247067
vn -0.8512831 0 -0.5247067
vn -0.8512831 0 -0.5247067
vn -0.8512831 0 -0.5247067
vn -0.8512831 0 -0.5247067
vn -0.8512831 -2.221753E-11 -0.5247067
vn -0.8512831 -2.221753E-11 -0.5247067
vn -0.8512831 -2.221753E-11 -0.5247067
vn 0.5246295 0 -0.8513306
vn 0.5246295 0 -0.8513306
vn 0.5246295 0 -0.8513306
vn 0.5246295 0 -0.8513306
vn -0.8514761 0 -0.5243934
vn -0.8514761 0 -0.5243934
vn -0.8514761 0 -0.5243934
vn -0.8514761 0 -0.5243934
vn -0.5243648 0 0.8514938
vn -0.5243648 0 0.8514938
vn -0.5243648 0 0.8514938
vn -0.5243648 0 0.8514938
vn -0.5243648 0 0.8514938
vn -0.5243648 0 0.8514938
vn -0.5243648 -1.839882E-10 0.8514938
vn -0.5243648 -1.839882E-10 0.8514938
vn -0.5243648 -1.839882E-10 0.8514938
vn 0 -1 0
vn 0 -1 0
vn 0 -1 0
vn 0 -1 0
vn 0 -1 0
vn 0 -1 0
vn 0 -1 0
vn 0 -1 0
vn 0 -1 0
vn 0 -1 0
vn 0 -1 0
vn 0 -1 0
vn 0 -1 0
vn 0 -1 0

g CDNNDG02_0000170
f 9/9/9 1/1/1 3/3/3
f 7/7/7 8/8/8 4/4/4
f 4/4/4 8/8/8 9/9/9
f 2/2/2 3/3/3 1/1/1
f 5/5/5 6/6/6 7/7/7
f 3/3/3 4/4/4 9/9/9
f 4/4/4 5/5/5 7/7/7
f 10/10/10 11/11/11 12/12/12
f 13/13/13 14/14/14 15/15/15
f 16/16/16 17/17/17 18/18/18
f 21/21/21 22/22/22 20/20/20
f 19/19/19 20/20/20 22/22/22
f 23/23/23 24/24/24 25/25/25
f 26/26/26 27/27/27 28/28/28
f 29/29/29 30/30/30 31/31/31
f 32/32/32 33/33/33 34/34/34
f 35/35/35 36/36/36 37/37/37
f 38/38/38 39/39/39 40/40/40
f 42/42/42 43/43/43 44/44/44
f 41/41/41 42/42/42 44/44/44
f 45/45/45 46/46/46 47/47/47
f 48/48/48 49/49/49 50/50/50
f 51/51/51 52/52/52 53/53/53
f 55/55/55 56/56/56 57/57/57
f 54/54/54 55/55/55 57/57/57
f 58/58/58 60/60/60 61/61/61
f 60/60/60 58/58/58 59/59/59
f 62/62/62 63/63/63 64/64/64
f 65/65/65 66/66/66 67/67/67
f 68/68/68 69/69/69 70/70/70
f 71/71/71 83/83/83 84/84/84
f 81/81/81 82/82/82 83/83/83
f 71/71/71 81/81/81 83/83/83
f 71/71/71 72/72/72 81/81/81
f 72/72/72 80/80/80 81/81/81
f 72/72/72 73/73/73 79/79/79
f 78/78/78 73/73/73 74/74/74
f 74/74/74 75/75/75 77/77/77
f 75/75/75 76/76/76 77/77/77
f 72/72/72 79/79/79 80/80/80
f 74/74/74 77/77/77 78/78/78
f 73/73/73 78/78/78 79/79/79
