v -8.072998 5.90947 6.099692
v -7.653998 5.909547 6.366692
v -7.674998 5.909591 7.151692
v -6.102998 5.909882 8.153691
v -5.148998 5.910012 7.998692
v -2.676998 5.90966 9.574692
v 8.667002 5.909581 -8.222308
v 5.429002 5.91047 -10.28631
v 4.441001 5.910417 -8.736308
v 3.321002 5.91021 -9.450309
v 1.306002 5.910104 -6.289309
v 2.310002 5.910289 -5.649308
v 0.2530015 5.910181 -2.421309
v -1.804998 5.9098 -3.733308
v -8.072998 -5.909902 6.099692
v -7.653998 -5.909902 6.366692
v -7.653998 5.909547 6.366692
v -8.072998 5.90947 6.099692
v -7.674998 5.909591 7.151692
v -7.664498 -5.909902 6.759192
v -7.674998 -5.909902 7.151692
v -7.664498 -5.909902 6.759192
v -7.653998 5.909547 6.366692
v -7.653998 -5.909902 6.366692
v -7.674998 5.909591 7.151692
v -7.653998 5.909547 6.366692
v -7.664498 -5.909902 6.759192
v -7.674998 -5.909902 7.151692
v -6.102998 -5.909902 8.153691
v -6.102998 5.909882 8.153691
v -7.674998 5.909591 7.151692
v -6.102998 -5.909902 8.153691
v -5.148998 -5.909902 7.998692
v -5.148998 5.910012 7.998692
v -6.102998 5.909882 8.153691
v -3.912998 -5.909902 8.786692
v -2.676998 -5.909902 9.574692
v -2.676998 5.90966 9.574692
v -5.148998 5.910012 7.998692
v -5.148998 -5.909902 7.998692
v -3.912998 -5.909902 8.786692
v -5.148998 5.910012 7.998692
v -3.912998 -5.909902 8.786692
v -2.676998 5.90966 9.574692
v 2.995002 -5.909902 0.6761917
v 8.667002 -5.909902 -8.222308
v 8.667002 5.909581 -8.222308
v -2.676998 5.90966 9.574692
v -2.676998 -5.909902 9.574692
v 2.995002 -5.909902 0.6761917
v -2.676998 5.90966 9.574692
v 2.995002 -5.909902 0.6761917
v 8.667002 5.909581 -8.222308
v 5.429002 5.91047 -10.28631
v 7.048002 -5.909902 -9.254309
v 5.429002 -5.909902 -10.28631
v 7.048002 -5.909902 -9.254309
v 8.667002 5.909581 -8.222308
v 8.667002 -5.909902 -8.222308
v 5.429002 5.91047 -10.28631
v 8.667002 5.909581 -8.222308
v 7.048002 -5.909902 -9.254309
v 4.441001 5.910417 -8.736308
v 4.935002 -5.909902 -9.511309
v 4.441001 -5.909902 -8.736308
v 4.935002 -5.909902 -9.511309
v 5.429002 5.91047 -10.28631
v 5.429002 -5.909902 -10.28631
v 4.441001 5.910417 -8.736308
v 5.429002 5.91047 -10.28631
v 4.935002 -5.909902 -9.511309
v 3.321002 5.91021 -9.450309
v 3.881002 -5.909902 -9.093308
v 3.321002 -5.909902 -9.450309
v 3.881002 -5.909902 -9.093308
v 4.441001 5.910417 -8.736308
v 4.441001 -5.909902 -8.736308
v 3.321002 5.91021 -9.450309
v 4.441001 5.910417 -8.736308
v 3.881002 -5.909902 -9.093308
v 1.306002 5.910104 -6.289309
v 3.321002 5.91021 -9.450309
v 3.321002 -5.909902 -9.450309
v 1.306002 -5.909902 -6.289309
v 1.808002 -5.909902 -5.969308
v 2.310002 -5.909902 -5.649308
v 2.310002 5.910289 -5.649308
v 1.306002 5.910104 -6.289309
v 1.306002 -5.909902 -6.289309
v 1.808002 -5.909902 -5.969308
v 1.306002 5.910104 -6.289309
v 1.808002 -5.909902 -5.969308
v 2.310002 5.910289 -5.649308
v 0.2530015 5.910181 -2.421309
v 2.310002 5.910289 -5.649308
v 2.310002 -5.909902 -5.649308
v 0.2530015 -5.909902 -2.421309
v -1.804998 5.9098 -3.733308
v 0.2530015 5.910181 -2.421309
v 0.2530015 -5.909902 -2.421309
v -1.804998 -5.909902 -3.733308
v -8.072998 5.90947 6.099692
v -4.938998 -5.909902 1.183192
v -8.072998 -5.909902 6.099692
v -4.938998 -5.909902 1.183192
v -1.804998 5.9098 -3.733308
v -1.804998 -5.909902 -3.733308
v -8.072998 5.90947 6.099692
v -1.804998 5.9098 -3.733308
v -4.938998 -5.909902 1.183192
v -1.804998 -5.909902 -3.733308
v 0.2530015 -5.909902 -2.421309
v 2.310002 -5.909902 -5.649308
v 1.808002 -5.909902 -5.969308
v 1.306002 -5.909902 -6.289309
v 3.321002 -5.909902 -9.450309
v 3.881002 -5.909902 -9.093308
v 4.441001 -5.909902 -8.736308
v 4.935002 -5.909902 -9.511309
v 5.429002 -5.909902 -10.28631
v 7.048002 -5.909902 -9.254309
v 8.667002 -5.909902 -8.222308
v 2.995002 -5.909902 0.6761917
v -2.676998 -5.909902 9.574692
v -3.912998 -5.909902 8.786692
v -5.148998 -5.909902 7.998692
v -6.102998 -5.909902 8.153691
v -7.674998 -5.909902 7.151692
v -7.664498 -5.909902 6.759192
v -7.653998 -5.909902 6.366692
v -8.072998 -5.909902 6.099692
v -4.938998 -5.909902 1.183192
vt 0.535235 0.001274
vt 0.543796 0.010533
vt 0.569222 0.010198
vt 0.601348 0.044936
vt 0.596133 0.065894
vt 0.646671 0.120520
vt 0.068069 0.367113
vt 0.001876 0.295568
vt 0.052265 0.274092
vt 0.029372 0.249346
vt 0.132136 0.205545
vt 0.152657 0.227729
vt 0.257602 0.183014
vt 0.215535 0.137539
vt 0.309380 0.931210
vt 0.317775 0.940137
vt 0.209268 0.985943
vt 0.200750 0.976885
vt 0.322702 0.931754
vt 0.489303 0.978535
vt 0.476603 0.978802
vt 0.489303 0.978535
vt 0.348482 0.931210
vt 0.502002 0.978267
vt 0.322702 0.931754
vt 0.348482 0.931210
vt 0.489303 0.978535
vt 0.588715 0.831847
vt 0.620297 0.865588
vt 0.512344 0.912229
vt 0.480300 0.877992
vt 0.793579 0.954604
vt 0.788510 0.974755
vt 0.681051 0.951656
vt 0.686195 0.931210
vt 0.613369 0.666101
vt 0.638244 0.692711
vt 0.530784 0.740577
vt 0.480300 0.686576
vt 0.588494 0.639490
vt 0.613369 0.666101
vt 0.480300 0.686576
vt 0.613369 0.666101
vt 0.530784 0.740577
vt 0.403612 0.514917
vt 0.118448 0.636266
vt 0.001876 0.616972
vt 0.580583 0.370701
vt 0.688801 0.393556
vt 0.403612 0.514917
vt 0.580583 0.370701
vt 0.403612 0.514917
vt 0.001876 0.616972
vt 0.329467 0.922993
vt 0.442375 0.866882
vt 0.476215 0.901917
vt 0.442375 0.866882
vt 0.260788 0.851879
vt 0.408535 0.831847
vt 0.329467 0.922993
vt 0.260788 0.851879
vt 0.442375 0.866882
vt 0.624765 0.853934
vt 0.796156 0.894525
vt 0.771154 0.905405
vt 0.796156 0.894525
vt 0.675518 0.831847
vt 0.821158 0.883645
vt 0.624765 0.853934
vt 0.675518 0.831847
vt 0.796156 0.894525
vt 0.530277 0.976586
vt 0.665396 0.943164
vt 0.677076 0.955118
vt 0.665396 0.943164
vt 0.506567 0.952323
vt 0.653717 0.931210
vt 0.530277 0.976586
vt 0.506567 0.952323
vt 0.665396 0.943164
vt 0.643527 0.684716
vt 0.747238 0.639490
vt 0.893571 0.690800
vt 0.791388 0.735357
vt 0.950197 0.842597
vt 0.960278 0.853347
vt 0.845972 0.902509
vt 0.825516 0.880693
vt 0.940116 0.831847
vt 0.950197 0.842597
vt 0.825516 0.880693
vt 0.950197 0.842597
vt 0.845972 0.902509
vt 0.001876 0.878015
vt 0.107793 0.831847
vt 0.255988 0.882818
vt 0.151631 0.928303
vt 0.045504 0.998871
vt 0.001876 0.953884
vt 0.152223 0.931210
vt 0.195204 0.975538
vt 0.001876 0.781057
vt 0.315718 0.759157
vt 0.156252 0.828891
vt 0.315718 0.759157
vt 0.325583 0.639490
vt 0.475192 0.689419
vt 0.001876 0.781057
vt 0.325583 0.639490
vt 0.315718 0.759157
vt 0.797373 0.931210
vt 0.797373 0.931210
vt 0.797373 0.931210
vt 0.797373 0.931210
vt 0.797373 0.931210
vt 0.797373 0.931210
vt 0.797373 0.931210
vt 0.797373 0.931210
vt 0.797373 0.931210
vt 0.797373 0.931210
vt 0.797373 0.931210
vt 0.797373 0.931210
vt 0.797373 0.931210
vt 0.797373 0.931210
vt 0.797373 0.931210
vt 0.797373 0.931210
vt 0.797373 0.931210
vt 0.797373 0.931210
vt 0.797373 0.931210
vt 0.797373 0.931210
vt 0.797373 0.931210
vt 0.797373 0.931210
vn -0.0001467504 1 -5.98934E-05
vn -0.0001467496 1 -5.989436E-05
vn -0.000146743 1 -5.990013E-05
vn -0.0001467484 1 -5.989549E-05
vn -6.472992E-05 1 -1.737082E-05
vn 0.0001105429 1 7.041519E-05
vn 0.0001620576 1 0.000131698
vn 0.0001799127 1 0.000148325
vn 7.037768E-05 1 8.423172E-05
vn -0.0001467515 1 -5.989629E-05
vn -0.0001467497 1 -5.989581E-05
vn 1.326109E-05 1 4.637927E-05
vn 1.923172E-05 1 3.241715E-05
vn -0.00014675 1 -5.989314E-05
vn -0.5373963 0 0.8433298
vn -0.5373963 0 0.8433298
vn -0.5373963 0 0.8433298
vn -0.5373963 0 0.8433298
vn -0.9996424 0 -0.02674205
vn -0.9996424 0 -0.02674205
vn -0.9996424 0 -0.02674205
vn -0.9996424 0 -0.02674202
vn -0.9996424 0 -0.02674202
vn -0.9996424 0 -0.02674202
vn -0.9996424 -4.209136E-10 -0.02674204
vn -0.9996424 -4.209136E-10 -0.02674204
vn -0.9996424 -4.209136E-10 -0.02674204
vn -0.5375001 0 0.8432637
vn -0.5375001 0 0.8432637
vn -0.5375001 0 0.8432637
vn -0.5375001 0 0.8432637
vn 0.1603709 0 0.9870569
vn 0.1603709 0 0.9870569
vn 0.1603709 0 0.9870569
vn 0.1603709 0 0.9870569
vn -0.5375816 0 0.8432118
vn -0.5375816 0 0.8432118
vn -0.5375816 0 0.8432118
vn -0.5375816 0 0.8432117
vn -0.5375816 0 0.8432117
vn -0.5375816 0 0.8432117
vn -0.5375816 5.598744E-10 0.8432117
vn -0.5375816 5.598744E-10 0.8432117
vn -0.5375816 5.598744E-10 0.8432117
vn 0.8432613 0 0.5375038
vn 0.8432613 0 0.5375038
vn 0.8432613 0 0.5375038
vn 0.8432613 0 0.5375038
vn 0.8432613 0 0.5375038
vn 0.8432613 0 0.5375038
vn 0.8432613 -1.453781E-10 0.5375038
vn 0.8432613 -1.453781E-10 0.5375038
vn 0.8432613 -1.453781E-10 0.5375038
vn 0.5375157 0 -0.8432537
vn 0.5375157 0 -0.8432537
vn 0.5375157 0 -0.8432537
vn 0.5375157 0 -0.8432537
vn 0.5375157 0 -0.8432537
vn 0.5375157 0 -0.8432537
vn 0.5375157 -1.944223E-10 -0.8432537
vn 0.5375157 -1.944223E-10 -0.8432537
vn 0.5375157 -1.944223E-10 -0.8432537
vn -0.843258 0 -0.537509
vn -0.843258 0 -0.537509
vn -0.843258 0 -0.537509
vn -0.843258 0 -0.537509
vn -0.843258 0 -0.537509
vn -0.843258 0 -0.537509
vn -0.843258 -3.359406E-10 -0.537509
vn -0.843258 -3.359406E-10 -0.537509
vn -0.843258 -3.359406E-10 -0.537509
vn 0.5375574 0 -0.8432272
vn 0.5375574 0 -0.8432272
vn 0.5375574 0 -0.8432272
vn 0.5375574 0 -0.8432272
vn 0.5375574 0 -0.8432272
vn 0.5375574 0 -0.8432272
vn 0.5375574 -1.058603E-10 -0.8432272
vn 0.5375574 -1.058603E-10 -0.8432272
vn 0.5375574 -1.058603E-10 -0.8432272
vn -0.8432438 0 -0.5375313
vn -0.8432438 0 -0.5375313
vn -0.8432438 0 -0.5375313
vn -0.8432438 0 -0.5375313
vn -0.5375275 0 0.8432462
vn -0.5375275 0 0.8432462
vn -0.5375275 0 0.8432462
vn -0.5375275 0 0.8432462
vn -0.5375275 0 0.8432462
vn -0.5375275 0 0.8432462
vn -0.5375275 -5.917448E-10 0.8432462
vn -0.5375275 -5.917448E-10 0.8432462
vn -0.5375275 -5.917448E-10 0.8432462
vn -0.8433278 0 -0.5373994
vn -0.8433278 0 -0.5373994
vn -0.8433278 0 -0.5373994
vn -0.8433278 0 -0.5373994
vn 0.5375646 0 -0.8432226
vn 0.5375646 0 -0.8432226
vn 0.5375646 0 -0.8432226
vn 0.5375646 0 -0.8432226
vn -0.8432481 0 -0.5375246
vn -0.8432481 0 -0.5375246
vn -0.8432481 0 -0.5375246
vn -0.8432481 0 -0.5375246
vn -0.8432481 0 -0.5375246
vn -0.8432481 0 -0.5375246
vn -0.8432481 2.117717E-11 -0.5375246
vn -0.8432481 2.117717E-11 -0.5375246
vn -0.8432481 2.117717E-11 -0.5375246
vn 0 -1 0
vn 0 -1 0
vn 0 -1 0
vn 0 -1 0
vn 0 -1 0
vn 0 -1 0
vn 0 -1 0
vn 0 -1 0
vn 0 -1 0
vn 0 -1 0
vn 0 -1 0
vn 0 -1 0
vn 0 -1 0
vn 0 -1 0
vn 0 -1 0
vn 0 -1 0
vn 0 -1 0
vn 0 -1 0
vn 0 -1 0
vn 0 -1 0
vn 0 -1 0
vn 0 -1 0

g CDNNDG02_0001150
f 1/1/1 2/2/2 14/14/14
f 2/2/2 13/13/13 14/14/14
f 2/2/2 5/5/5 13/13/13
f 7/7/7 12/12/12 13/13/13
f 2/2/2 3/3/3 4/4/4
f 5/5/5 6/6/6 13/13/13
f 2/2/2 4/4/4 5/5/5
f 10/10/10 11/11/11 12/12/12
f 9/9/9 10/10/10 12/12/12
f 7/7/7 9/9/9 12/12/12
f 6/6/6 7/7/7 13/13/13
f 7/7/7 8/8/8 9/9/9
f 16/16/16 17/17/17 18/18/18
f 18/18/18 15/15/15 16/16/16
f 19/19/19 20/20/20 21/21/21
f 22/22/22 23/23/23 24/24/24
f 25/25/25 26/26/26 27/27/27
f 31/31/31 28/28/28 29/29/29
f 30/30/30 31/31/31 29/29/29
f 33/33/33 34/34/34 35/35/35
f 32/32/32 33/33/33 35/35/35
f 36/36/36 37/37/37 38/38/38
f 39/39/39 40/40/40 41/41/41
f 42/42/42 43/43/43 44/44/44
f 45/45/45 46/46/46 47/47/47
f 48/48/48 49/49/49 50/50/50
f 51/51/51 52/52/52 53/53/53
f 54/54/54 55/55/55 56/56/56
f 57/57/57 58/58/58 59/59/59
f 60/60/60 61/61/61 62/62/62
f 63/63/63 64/64/64 65/65/65
f 66/66/66 67/67/67 68/68/68
f 69/69/69 70/70/70 71/71/71
f 72/72/72 73/73/73 74/74/74
f 75/75/75 76/76/76 77/77/77
f 78/78/78 79/79/79 80/80/80
f 81/81/81 83/83/83 84/84/84
f 83/83/83 81/81/81 82/82/82
f 85/85/85 86/86/86 87/87/87
f 88/88/88 89/89/89 90/90/90
f 91/91/91 92/92/92 93/93/93
f 97/97/97 94/94/94 96/96/96
f 96/96/96 94/94/94 95/95/95
f 98/98/98 100/100/100 101/101/101
f 98/98/98 99/99/99 100/100/100
f 102/102/102 103/103/103 104/104/104
f 105/105/105 106/106/106 107/107/107
f 108/108/108 109/109/109 110/110/110
f 132/132/132 111/111/111 112/112/112
f 131/131/131 132/132/132 130/130/130
f 121/121/121 122/122/122 118/118/118
f 125/125/125 123/123/123 124/124/124
f 122/122/122 113/113/113 118/118/118
f 114/114/114 116/116/116 117/117/117
f 115/115/115 116/116/116 114/114/114
f 118/118/118 119/119/119 121/121/121
f 123/123/123 132/132/132 112/112/112
f 117/117/117 113/113/113 114/114/114
f 118/118/118 113/113/113 117/117/117
f 119/119/119 120/120/120 121/121/121
f 126/126/126 130/130/130 132/132/132
f 113/113/113 122/122/122 123/123/123
f 127/127/127 129/129/129 130/130/130
f 126/126/126 127/127/127 130/130/130
f 123/123/123 112/112/112 113/113/113
f 132/132/132 125/125/125 126/126/126
f 129/129/129 127/127/127 128/128/128
f 123/123/123 125/125/125 132/132/132
