v 1.758063 5.120838 -11.59207
v 3.920063 6.157838 -5.550075
v 6.045063 5.120838 -9.103075
v -0.4399372 6.157838 -7.788075
v 3.920063 6.157838 -5.550075
v 1.758063 5.120838 -11.59207
v -6.485937 6.157838 6.003925
v -0.3349372 5.511838 10.30293
v 0.1590628 6.157838 9.414926
v -8.178937 5.511838 6.130925
v -0.3349372 5.511838 10.30293
v -6.485937 6.157838 6.003925
v -6.536937 5.647838 4.092925
v -6.485937 6.157838 6.003925
v -5.719937 6.157838 4.511925
v -8.178937 5.511838 6.130925
v -6.485937 6.157838 6.003925
v -6.536937 5.647838 4.092925
v -8.178937 5.511838 6.130925
v -6.536937 5.647838 4.092925
v -7.032937 5.511838 3.860925
v 0.1590628 6.157838 9.414926
v 7.022063 6.157838 -3.959075
v 3.920063 6.157838 -5.550075
v -5.719937 6.157838 4.511925
v -6.485937 6.157838 6.003925
v 0.1590628 6.157838 9.414926
v -5.719937 6.157838 4.511925
v -5.719937 6.157838 4.511925
v 3.920063 6.157838 -5.550075
v -0.4399372 6.157838 -7.788075
v -6.536937 6.157838 4.092925
v -5.719937 6.157838 4.511925
v -0.4399372 6.157838 -7.788075
v 3.920063 -6.069014 -5.550075
v 6.045063 -6.069014 -9.103075
v 6.045063 5.120838 -9.103075
v 3.920063 6.157838 -5.550075
v 1.758063 5.120838 -11.59207
v 3.901563 -6.069014 -10.34758
v 1.758063 -6.069014 -11.59207
v 3.901563 -6.069014 -10.34758
v 6.045063 5.120838 -9.103075
v 6.045063 -6.069014 -9.103075
v 1.758063 5.120838 -11.59207
v 6.045063 5.120838 -9.103075
v 3.901563 -6.069014 -10.34758
v -0.4399372 6.157838 -7.788075
v 1.758063 5.120838 -11.59207
v 1.758063 -6.069014 -11.59207
v -0.4399372 -6.069014 -7.788075
v -6.536937 6.157838 4.092925
v -0.4399372 6.157838 -7.788075
v -6.536937 5.647838 4.092925
v -6.536937 5.647838 4.092925
v -0.4399372 6.157838 -7.788075
v -0.4399372 -6.069014 -7.788075
v -6.536937 -6.069014 4.092925
v -8.178937 -6.069014 6.130925
v -0.3349372 -6.069014 10.30293
v -0.3349372 5.511838 10.30293
v -8.178937 5.511838 6.130925
v -0.08793718 -6.069014 9.858925
v 0.1590628 -6.069014 9.414926
v 0.1590628 6.157838 9.414926
v -0.3349372 5.511838 10.30293
v -0.3349372 -6.069014 10.30293
v -0.08793718 -6.069014 9.858925
v -0.3349372 5.511838 10.30293
v -0.08793718 -6.069014 9.858925
v 0.1590628 6.157838 9.414926
v 3.590563 -6.069014 2.727925
v 7.022063 -6.069014 -3.959075
v 7.022063 6.157838 -3.959075
v 0.1590628 6.157838 9.414926
v 0.1590628 -6.069014 9.414926
v 3.590563 -6.069014 2.727925
v 0.1590628 6.157838 9.414926
v 3.590563 -6.069014 2.727925
v 7.022063 6.157838 -3.959075
v -8.178937 5.511838 6.130925
v -7.605937 -6.069014 4.995925
v -8.178937 -6.069014 6.130925
v -7.605937 -6.069014 4.995925
v -7.032937 5.511838 3.860925
v -7.032937 -6.069014 3.860925
v -8.178937 5.511838 6.130925
v -7.032937 5.511838 3.860925
v -7.605937 -6.069014 4.995925
v -7.032937 5.511838 3.860925
v -6.536937 5.647838 4.092925
v -6.536937 -6.069014 4.092925
v -7.032937 -6.069014 3.860925
v 3.920063 6.157838 -5.550075
v 7.022063 6.157838 -3.959075
v 7.022063 -6.069014 -3.959075
v 3.920063 -6.069014 -5.550075
v -6.536937 6.157838 4.092925
v -6.536937 5.647838 4.092925
v -5.719937 6.157838 4.511925
v -7.032937 -6.069014 3.860925
v -6.536937 -6.069014 4.092925
v -0.4399372 -6.069014 -7.788075
v 1.758063 -6.069014 -11.59207
v 3.901563 -6.069014 -10.34758
v 6.045063 -6.069014 -9.103075
v 3.920063 -6.069014 -5.550075
v 7.022063 -6.069014 -3.959075
v 3.590563 -6.069014 2.727925
v 0.1590628 -6.069014 9.414926
v -0.08793718 -6.069014 9.858925
v -0.3349372 -6.069014 10.30293
v -8.178937 -6.069014 6.130925
v -7.605937 -6.069014 4.995925
vt 0.002128 0.893301
vt 0.221642 0.940492
vt 0.095370 0.999861
vt 0.137465 0.831884
vt 0.221642 0.940492
vt 0.002128 0.893301
vt 0.797872 0.640731
vt 0.959423 0.792655
vt 0.925650 0.806560
vt 0.803385 0.597101
vt 0.959423 0.792655
vt 0.797872 0.640731
vt 0.663830 0.873214
vt 0.731523 0.874816
vt 0.678013 0.894155
vt 0.736953 0.831884
vt 0.731523 0.874816
vt 0.663830 0.873214
vt 0.939035 0.831884
vt 0.865702 0.872766
vt 0.857447 0.860490
vt 0.638668 0.168462
vt 0.146980 0.344993
vt 0.086793 0.267380
vt 0.454783 0.021893
vt 0.509639 0.002188
vt 0.638668 0.168462
vt 0.454783 0.021893
vt 0.454783 0.021893
vt 0.086793 0.267380
vt 0.002128 0.158290
vt 0.438933 0.001449
vt 0.454783 0.021893
vt 0.002128 0.158290
vt 0.619017 0.890818
vt 0.491887 0.944128
vt 0.457447 0.891007
vt 0.583277 0.831884
vt 0.227660 0.831884
vt 0.308917 0.939199
vt 0.263256 0.886673
vt 0.308917 0.939199
vt 0.320256 0.938403
vt 0.354577 0.991725
vt 0.227660 0.831884
vt 0.320256 0.938403
vt 0.308917 0.939199
vt 0.138432 0.774699
vt 0.002128 0.828899
vt 0.038356 0.806708
vt 0.175967 0.751268
vt 0.575156 0.618178
vt 0.138432 0.774699
vt 0.576466 0.617286
vt 0.576466 0.617286
vt 0.138432 0.774699
vt 0.175967 0.751268
vt 0.606119 0.597101
vt 0.638653 0.597101
vt 0.792698 0.789903
vt 0.766912 0.812033
vt 0.610638 0.616444
vt 0.536842 0.413276
vt 0.520798 0.419525
vt 0.493013 0.358694
vt 0.527054 0.349275
vt 0.552886 0.407027
vt 0.536842 0.413276
vt 0.527054 0.349275
vt 0.536842 0.413276
vt 0.493013 0.358694
vt 0.279040 0.506493
vt 0.037293 0.593458
vt 0.002128 0.535285
vt 0.493013 0.358694
vt 0.520798 0.419525
vt 0.279040 0.506493
vt 0.493013 0.358694
vt 0.279040 0.506493
vt 0.002128 0.535285
vt 0.824654 0.850784
vt 0.811994 0.846040
vt 0.852460 0.831884
vt 0.811994 0.846040
vt 0.742553 0.879506
vt 0.771529 0.860197
vt 0.824654 0.850784
vt 0.742553 0.879506
vt 0.811994 0.846040
vt 0.623404 0.831884
vt 0.631408 0.843395
vt 0.659362 0.903217
vt 0.651148 0.891175
vt 0.359574 0.831884
vt 0.418648 0.908998
vt 0.453165 0.966899
vt 0.394980 0.890945
vt 0.944681 0.832722
vt 0.945832 0.831884
vt 0.958596 0.851883
vt 0.963830 0.831884
vt 0.963830 0.831884
vt 0.963830 0.831884
vt 0.963830 0.831884
vt 0.963830 0.831884
vt 0.963830 0.831884
vt 0.963830 0.831884
vt 0.963830 0.831884
vt 0.963830 0.831884
vt 0.963830 0.831884
vt 0.963830 0.831884
vt 0.963830 0.831884
vt 0.963830 0.831884
vt 0.963830 0.831884
vn 0.1220092 0.970027 -0.210146
vn 0.1220092 0.970027 -0.210146
vn 0.1220092 0.970027 -0.210146
vn 0.1050284 0.973192 -0.204613
vn 0.1050284 0.973192 -0.204613
vn 0.1050284 0.973192 -0.204613
vn -0.2450963 0.843769 0.4774743
vn -0.2450963 0.843769 0.4774743
vn -0.2450963 0.843769 0.4774743
vn -0.2723947 0.8145611 0.5121438
vn -0.2723947 0.8145611 0.5121438
vn -0.2723947 0.8145611 0.5121438
vn -0.4319672 0.8741971 -0.221774
vn -0.4319672 0.8741971 -0.221774
vn -0.4319672 0.8741971 -0.221774
vn -0.3619295 0.9030437 -0.2313417
vn -0.3619295 0.9030437 -0.2313417
vn -0.3619295 0.9030437 -0.2313417
vn -0.2152687 0.9704888 -0.1086775
vn -0.2152687 0.9704888 -0.1086775
vn -0.2152687 0.9704888 -0.1086775
vn 0 1 0
vn 0 1 0
vn 0 1 0
vn 0 1 0
vn 0 1 0
vn 0 1 0
vn 0 1 0
vn 0 1 0
vn 0 1 0
vn 0 1 0
vn 0 1 0
vn 0 1 0
vn 0 1 0
vn 0.8582167 0 0.5132875
vn 0.8582167 0 0.5132875
vn 0.8582167 0 0.5132875
vn 0.8582167 0 0.5132875
vn 0.5021014 0 -0.8648087
vn 0.5021014 0 -0.8648087
vn 0.5021014 0 -0.8648087
vn 0.5021014 0 -0.8648087
vn 0.5021014 0 -0.8648087
vn 0.5021014 0 -0.8648087
vn 0.5021014 3.598866E-11 -0.8648087
vn 0.5021014 3.598866E-11 -0.8648087
vn 0.5021014 3.598866E-11 -0.8648087
vn -0.8658519 0 -0.5003003
vn -0.8658519 0 -0.5003003
vn -0.8658519 0 -0.5003003
vn -0.8658519 0 -0.5003003
vn -0.8896903 0 -0.4565644
vn -0.8896903 0 -0.4565644
vn -0.8896903 0 -0.4565644
vn -0.8896903 0 -0.4565644
vn -0.8896903 0 -0.4565644
vn -0.8896903 0 -0.4565644
vn -0.8896903 0 -0.4565644
vn -0.4695831 0 0.8828883
vn -0.4695831 0 0.8828883
vn -0.4695831 0 0.8828883
vn -0.4695831 0 0.8828883
vn 0.8738786 0 0.4861442
vn 0.8738786 0 0.4861442
vn 0.8738786 0 0.4861442
vn 0.8738786 0 0.4861442
vn 0.8738786 0 0.4861442
vn 0.8738786 0 0.4861442
vn 0.8738786 2.136555E-12 0.4861442
vn 0.8738786 2.136555E-12 0.4861442
vn 0.8738786 2.136555E-12 0.4861442
vn 0.8896949 0 0.4565557
vn 0.8896949 0 0.4565557
vn 0.8896949 0 0.4565557
vn 0.8896949 0 0.4565557
vn 0.8896949 0 0.4565557
vn 0.8896949 0 0.4565557
vn 0.8896949 0 0.4565557
vn 0.8896949 0 0.4565557
vn 0.8896949 0 0.4565557
vn -0.8926902 0 -0.4506709
vn -0.8926902 0 -0.4506709
vn -0.8926902 0 -0.4506709
vn -0.8926902 0 -0.4506709
vn -0.8926902 0 -0.4506709
vn -0.8926902 0 -0.4506709
vn -0.8926902 2.243416E-12 -0.4506709
vn -0.8926902 2.243416E-12 -0.4506709
vn -0.8926902 2.243416E-12 -0.4506709
vn 0.4236851 0 -0.9058095
vn 0.4236851 0 -0.9058095
vn 0.4236851 0 -0.9058095
vn 0.4236851 0 -0.9058095
vn 0.4563691 0 -0.8897906
vn 0.4563691 0 -0.8897906
vn 0.4563691 0 -0.8897906
vn 0.4563691 0 -0.8897906
vn -0.4563388 0 0.8898062
vn -0.4563388 0 0.8898062
vn -0.4563388 0 0.8898062
vn 0 -1 0
vn 0 -1 0
vn 0 -1 0
vn 0 -1 0
vn 0 -1 0
vn 0 -1 0
vn 0 -1 0
vn 0 -1 0
vn 0 -1 0
vn 0 -1 0
vn 0 -1 0
vn 0 -1 0
vn 0 -1 0
vn 0 -1 0

g CDNNDG01_0003000
f 1/1/1 2/2/2 3/3/3
f 4/4/4 5/5/5 6/6/6
f 7/7/7 8/8/8 9/9/9
f 10/10/10 11/11/11 12/12/12
f 13/13/13 14/14/14 15/15/15
f 16/16/16 17/17/17 18/18/18
f 19/19/19 20/20/20 21/21/21
f 22/22/22 24/24/24 25/25/25
f 22/22/22 23/23/23 24/24/24
f 26/26/26 27/27/27 28/28/28
f 29/29/29 30/30/30 31/31/31
f 32/32/32 33/33/33 34/34/34
f 36/36/36 37/37/37 35/35/35
f 35/35/35 37/37/37 38/38/38
f 39/39/39 40/40/40 41/41/41
f 42/42/42 43/43/43 44/44/44
f 45/45/45 46/46/46 47/47/47
f 49/49/49 50/50/50 51/51/51
f 48/48/48 49/49/49 51/51/51
f 52/52/52 53/53/53 54/54/54
f 58/58/58 55/55/55 57/57/57
f 57/57/57 55/55/55 56/56/56
f 59/59/59 61/61/61 62/62/62
f 61/61/61 59/59/59 60/60/60
f 63/63/63 64/64/64 65/65/65
f 66/66/66 67/67/67 68/68/68
f 69/69/69 70/70/70 71/71/71
f 72/72/72 73/73/73 74/74/74
f 75/75/75 76/76/76 77/77/77
f 78/78/78 79/79/79 80/80/80
f 81/81/81 82/82/82 83/83/83
f 84/84/84 85/85/85 86/86/86
f 87/87/87 88/88/88 89/89/89
f 92/92/92 90/90/90 91/91/91
f 90/90/90 92/92/92 93/93/93
f 96/96/96 94/94/94 95/95/95
f 94/94/94 96/96/96 97/97/97
f 98/98/98 99/99/99 100/100/100
f 114/114/114 101/101/101 102/102/102
f 113/113/113 114/114/114 102/102/102
f 107/107/107 103/103/103 105/105/105
f 102/102/102 110/110/110 111/111/111
f 111/111/111 113/113/113 102/102/102
f 103/103/103 104/104/104 105/105/105
f 111/111/111 112/112/112 113/113/113
f 110/110/110 102/102/102 109/109/109
f 109/109/109 102/102/102 103/103/103
f 105/105/105 106/106/106 107/107/107
f 107/107/107 109/109/109 103/103/103
f 107/107/107 108/108/108 109/109/109
