v -4.389025 6.535868 9.296627
v -3.006025 6.535868 10.14763
v -1.944025 6.535868 9.784627
v -4.550025 6.535868 7.967627
v -4.389025 6.535868 9.296627
v -1.944025 6.535868 9.784627
v -1.944025 6.535868 9.784627
v -1.177025 6.535868 10.25663
v 2.695975 6.535868 3.955627
v -7.415025 6.535868 6.200627
v -4.550025 6.535868 7.967627
v -4.351025 6.535868 1.216627
v -4.018025 6.535868 1.420627
v 0.5619748 6.535868 2.643627
v -3.962081 6.535868 1.329597
v -4.550025 6.535868 7.967627
v -4.018025 6.535868 1.420627
v -4.351025 6.535868 1.216627
v -4.550025 6.535868 7.967627
v 0.5619748 6.535868 2.643627
v -4.018025 6.535868 1.420627
v -1.944025 6.535868 9.784627
v 2.695975 6.535868 3.955627
v 0.5619748 6.535868 2.643627
v -4.550025 6.535868 7.967627
v -3.962081 6.535868 1.329597
v 0.5619748 6.535868 2.643627
v -3.554025 6.535868 0.6656271
v -3.886025 6.535868 0.4616271
v -3.554025 6.535868 0.6656271
v 0.5619748 6.535868 2.643627
v 0.5619748 6.535868 2.643627
v 7.684975 6.535868 -8.943373
v 3.482975 6.535868 -11.52637
v -3.886025 6.535868 0.4616271
v -4.351025 7.483868 1.216627
v -4.018025 7.482868 1.420627
v -3.886025 7.483868 0.4616271
v -4.018025 7.482868 1.420627
v -3.554025 7.483868 0.6656271
v -3.886025 7.483868 0.4616271
v -3.006025 -6.538714 10.14763
v -1.944025 -6.538714 9.784627
v -1.944025 6.535868 9.784627
v -3.006025 6.535868 10.14763
v -1.560525 -6.538714 10.02063
v -1.177025 -6.538714 10.25663
v -1.177025 6.535868 10.25663
v -1.944025 6.535868 9.784627
v -1.944025 -6.538714 9.784627
v -1.560525 -6.538714 10.02063
v -1.944025 6.535868 9.784627
v -1.560525 -6.538714 10.02063
v -1.177025 6.535868 10.25663
v -1.177025 -6.538714 10.25663
v 2.695975 -6.538714 3.955627
v 2.695975 6.535868 3.955627
v -1.177025 6.535868 10.25663
v 0.5619748 6.535868 2.643627
v 2.695975 6.535868 3.955627
v 2.695975 -6.538714 3.955627
v 0.5619748 -6.538714 2.643627
v 0.5619748 -6.538714 2.643627
v 7.684975 -6.538714 -8.943373
v 7.684975 6.535868 -8.943373
v 0.5619748 6.535868 2.643627
v 3.482975 6.535868 -11.52637
v 7.684975 6.535868 -8.943373
v 7.684975 -6.538714 -8.943373
v 3.482975 -6.538714 -11.52637
v -3.886025 6.535868 0.4616271
v -0.2015252 -6.538714 -5.532373
v -3.886025 -6.538714 0.4616271
v -0.2015252 -6.538714 -5.532373
v 3.482975 6.535868 -11.52637
v 3.482975 -6.538714 -11.52637
v -3.886025 6.535868 0.4616271
v 3.482975 6.535868 -11.52637
v -0.2015252 -6.538714 -5.532373
v -4.351025 6.535868 1.216627
v -3.886025 6.535868 0.4616271
v -3.886025 -6.538714 0.4616271
v -4.351025 -6.538714 1.216627
v -7.415025 6.535868 6.200627
v -4.351025 6.535868 1.216627
v -4.351025 -6.538714 1.216627
v -7.415025 -6.538714 6.200627
v -4.351025 7.483868 1.216627
v -3.886025 7.483868 0.4616271
v -3.886025 6.535868 0.4616271
v -4.351025 6.535868 1.216627
v -7.415025 -6.538714 6.200627
v -4.550025 -6.538714 7.967627
v -4.550025 6.535868 7.967627
v -7.415025 6.535868 6.200627
v -4.550025 -6.538714 7.967627
v -4.389025 -6.538714 9.296627
v -4.389025 6.535868 9.296627
v -4.550025 6.535868 7.967627
v -4.389025 -6.538714 9.296627
v -3.006025 -6.538714 10.14763
v -3.006025 6.535868 10.14763
v -4.389025 6.535868 9.296627
v -3.962081 6.535868 1.329597
v -3.554025 6.535868 0.6656271
v -3.554025 7.483868 0.6656271
v -4.018025 7.482868 1.420627
v -4.018025 6.535868 1.420627
v -3.962081 6.535868 1.329597
v -4.018025 7.482868 1.420627
v -3.962081 6.535868 1.329597
v -3.554025 7.483868 0.6656271
v -3.886025 7.483868 0.4616271
v -3.554025 7.483868 0.6656271
v -3.554025 6.535868 0.6656271
v -3.886025 6.535868 0.4616271
v -4.351025 6.535868 1.216627
v -4.018025 6.535868 1.420627
v -4.018025 7.482868 1.420627
v -4.351025 7.483868 1.216627
v -4.389025 -6.538714 9.296627
v -4.550025 -6.538714 7.967627
v -7.415025 -6.538714 6.200627
v -4.351025 -6.538714 1.216627
v -3.886025 -6.538714 0.4616271
v -0.2015252 -6.538714 -5.532373
v 3.482975 -6.538714 -11.52637
v 7.684975 -6.538714 -8.943373
v 0.5619748 -6.538714 2.643627
v 2.695975 -6.538714 3.955627
v -1.177025 -6.538714 10.25663
v -1.560525 -6.538714 10.02063
v -1.944025 -6.538714 9.784627
v -3.006025 -6.538714 10.14763
vt 0.030452 0.253768
vt 0.003687 0.222946
vt 0.016750 0.199935
vt 0.074240 0.258151
vt 0.030452 0.253768
vt 0.016750 0.199935
vt 0.016750 0.199935
vt 0.001905 0.182841
vt 0.214141 0.102136
vt 0.129817 0.322001
vt 0.074240 0.258151
vt 0.297687 0.258159
vt 0.291273 0.250739
vt 0.255400 0.149697
vt 0.294339 0.249573
vt 0.074240 0.258151
vt 0.291273 0.250739
vt 0.297687 0.258159
vt 0.074240 0.258151
vt 0.255400 0.149697
vt 0.291273 0.250739
vt 0.016750 0.199935
vt 0.214141 0.102136
vt 0.255400 0.149697
vt 0.074240 0.258151
vt 0.294339 0.249573
vt 0.255400 0.149697
vt 0.316704 0.241071
vt 0.323118 0.248469
vt 0.316704 0.241071
vt 0.255400 0.149697
vt 0.255400 0.149697
vt 0.645707 0.001263
vt 0.726924 0.094918
vt 0.323118 0.248469
vt 0.451777 0.890949
vt 0.445714 0.884022
vt 0.475804 0.881905
vt 0.445714 0.884022
vt 0.469744 0.875000
vt 0.475804 0.881905
vt 0.112381 0.897324
vt 0.124820 0.875000
vt 0.170829 0.968115
vt 0.158188 0.990801
vt 0.260906 0.946896
vt 0.253333 0.938635
vt 0.298716 0.875000
vt 0.314112 0.891795
vt 0.268480 0.955157
vt 0.260906 0.946896
vt 0.314112 0.891795
vt 0.260906 0.946896
vt 0.298716 0.875000
vt 0.586667 0.712303
vt 0.793412 0.633838
vt 0.843677 0.725738
vt 0.633577 0.805474
vt 0.937453 0.772594
vt 0.897222 0.725580
vt 0.847619 0.633838
vt 0.887208 0.680103
vt 0.001905 0.778448
vt 0.383278 0.633838
vt 0.440536 0.724337
vt 0.052975 0.871288
vt 0.582170 0.816981
vt 0.502432 0.724197
vt 0.445714 0.633838
vt 0.524181 0.725143
vt 0.242583 0.489780
vt 0.387690 0.472499
vt 0.190600 0.553175
vt 0.387690 0.472499
vt 0.643281 0.325758
vt 0.584791 0.391819
vt 0.242583 0.489780
vt 0.643281 0.325758
vt 0.387690 0.472499
vt 0.217348 0.500129
vt 0.242583 0.489780
vt 0.190600 0.553175
vt 0.165776 0.563356
vt 0.050773 0.568323
vt 0.217348 0.500129
vt 0.165776 0.563356
vt 0.001905 0.630442
vt 0.221154 0.495463
vt 0.246419 0.485101
vt 0.242583 0.489780
vt 0.217348 0.500129
vt 0.059349 0.999825
vt 0.001905 0.937777
vt 0.049111 0.875000
vt 0.107502 0.938073
vt 0.361076 0.940691
vt 0.318095 0.937293
vt 0.364455 0.875000
vt 0.408144 0.878454
vt 0.202695 0.967967
vt 0.175238 0.938115
vt 0.220928 0.875000
vt 0.248837 0.905345
vt 0.416200 0.882858
vt 0.437109 0.875000
vt 0.440724 0.881493
vt 0.416916 0.890431
vt 0.413333 0.883935
vt 0.416200 0.882858
vt 0.416916 0.890431
vt 0.416200 0.882858
vt 0.440724 0.881493
vt 0.488540 0.888183
vt 0.483213 0.881410
vt 0.480000 0.875000
vt 0.485321 0.881765
vt 0.499051 0.885885
vt 0.493333 0.879220
vt 0.496504 0.875000
vt 0.502232 0.881668
vt 0.506667 0.875000
vt 0.506667 0.875000
vt 0.506667 0.875000
vt 0.506667 0.875000
vt 0.506667 0.875000
vt 0.506667 0.875000
vt 0.506667 0.875000
vt 0.506667 0.875000
vt 0.506667 0.875000
vt 0.506667 0.875000
vt 0.506667 0.875000
vt 0.506667 0.875000
vt 0.506667 0.875000
vt 0.506667 0.875000
vn 0 1 0
vn 0 1 0
vn 0 1 0
vn 0 1 0
vn 0 1 0
vn 0 1 0
vn 0 1 0
vn 0 1 0
vn 0 1 0
vn 0 1 0
vn 0 1 0
vn 0 1 0
vn 0 1 0
vn 0 1 0
vn 0 1 0
vn 0 1 0
vn 0 1 0
vn 0 1 0
vn 0 1 0
vn 0 1 0
vn 0 1 0
vn 0 1 0
vn 0 1 0
vn 0 1 0
vn 0 1 0
vn 0 1 0
vn 0 1 0
vn 0 1 0
vn 0 1 0
vn 0 1 0
vn 0 1 0
vn 0 1 0
vn 0 1 0
vn 0 1 0
vn 0 1 0
vn 0.002180341 0.9999967 0.001342859
vn 0.002180341 0.9999967 0.001342859
vn 0.002180341 0.9999967 0.001342859
vn -0.0005907629 0.9999993 0.0009614376
vn -0.0005907629 0.9999993 0.0009614376
vn -0.0005907629 0.9999993 0.0009614376
vn 0.3234358 0 0.9462501
vn 0.3234358 0 0.9462501
vn 0.3234358 0 0.9462501
vn 0.3234358 0 0.9462501
vn -0.5240974 0 0.8516583
vn -0.5240974 0 0.8516583
vn -0.5240974 0 0.8516583
vn -0.5240974 0 0.8516583
vn -0.5240974 0 0.8516583
vn -0.5240974 0 0.8516583
vn -0.5240974 -3.033247E-11 0.8516583
vn -0.5240974 -3.033247E-11 0.8516583
vn -0.5240974 -3.033247E-11 0.8516583
vn 0.8519321 0 0.5236523
vn 0.8519321 0 0.5236523
vn 0.8519321 0 0.5236523
vn 0.8519321 0 0.5236523
vn 0.523741 0 -0.8518776
vn 0.523741 0 -0.8518776
vn 0.523741 0 -0.8518776
vn 0.523741 0 -0.8518776
vn 0.8519031 0 0.5236995
vn 0.8519031 0 0.5236995
vn 0.8519031 0 0.5236995
vn 0.8519031 0 0.5236995
vn 0.5236788 0 -0.8519158
vn 0.5236788 0 -0.8519158
vn 0.5236788 0 -0.8519158
vn 0.5236788 0 -0.8519158
vn -0.8519193 0 -0.5236731
vn -0.8519193 0 -0.5236731
vn -0.8519193 0 -0.5236731
vn -0.8519193 0 -0.5236731
vn -0.8519193 0 -0.5236731
vn -0.8519193 0 -0.5236731
vn -0.8519193 -1.896366E-12 -0.5236731
vn -0.8519193 -1.896366E-12 -0.5236731
vn -0.8519193 -1.896366E-12 -0.5236731
vn -0.8514646 0 -0.524412
vn -0.8514646 0 -0.524412
vn -0.8514646 0 -0.524412
vn -0.8514646 0 -0.524412
vn -0.851893 0 -0.5237159
vn -0.851893 0 -0.5237159
vn -0.851893 0 -0.5237159
vn -0.851893 0 -0.5237159
vn -0.8514646 0 -0.524412
vn -0.8514646 0 -0.524412
vn -0.8514646 0 -0.524412
vn -0.8514646 0 -0.524412
vn -0.5249425 0 0.8511377
vn -0.5249425 0 0.8511377
vn -0.5249425 0 0.8511377
vn -0.5249425 0 0.8511377
vn -0.9927419 0 0.1202644
vn -0.9927419 0 0.1202644
vn -0.9927419 0 0.1202644
vn -0.9927419 0 0.1202644
vn -0.5240631 0 0.8516794
vn -0.5240631 0 0.8516794
vn -0.5240631 0 0.8516794
vn -0.5240631 0 0.8516794
vn 0.8519681 0 0.5235937
vn 0.8519681 0 0.5235937
vn 0.8519681 0 0.5235937
vn 0.8519681 0 0.5235937
vn 0.8519681 0 0.5235937
vn 0.8519681 0 0.5235937
vn 0.8519681 1.383327E-09 0.5235937
vn 0.8519681 1.383327E-09 0.5235937
vn 0.8519681 1.383327E-09 0.5235937
vn 0.5235246 0 -0.8520105
vn 0.5235246 0 -0.8520105
vn 0.5235246 0 -0.8520105
vn 0.5235246 0 -0.8520105
vn -0.5223819 0 0.8527116
vn -0.5223819 0 0.8527116
vn -0.5223819 0 0.8527116
vn -0.5223819 0 0.8527116
vn 0 -1 0
vn 0 -1 0
vn 0 -1 0
vn 0 -1 0
vn 0 -1 0
vn 0 -1 0
vn 0 -1 0
vn 0 -1 0
vn 0 -1 0
vn 0 -1 0
vn 0 -1 0
vn 0 -1 0
vn 0 -1 0
vn 0 -1 0

g CDNNDG02_0012660
f 1/1/1 2/2/2 3/3/3
f 4/4/4 5/5/5 6/6/6
f 7/7/7 8/8/8 9/9/9
f 10/10/10 11/11/11 12/12/12
f 13/13/13 14/14/14 15/15/15
f 16/16/16 17/17/17 18/18/18
f 19/19/19 20/20/20 21/21/21
f 22/22/22 24/24/24 25/25/25
f 22/22/22 23/23/23 24/24/24
f 26/26/26 27/27/27 28/28/28
f 29/29/29 30/30/30 31/31/31
f 32/32/32 33/33/33 34/34/34
f 35/35/35 32/32/32 34/34/34
f 36/36/36 37/37/37 38/38/38
f 39/39/39 40/40/40 41/41/41
f 42/42/42 44/44/44 45/45/45
f 42/42/42 43/43/43 44/44/44
f 46/46/46 47/47/47 48/48/48
f 49/49/49 50/50/50 51/51/51
f 52/52/52 53/53/53 54/54/54
f 56/56/56 57/57/57 58/58/58
f 55/55/55 56/56/56 58/58/58
f 59/59/59 61/61/61 62/62/62
f 59/59/59 60/60/60 61/61/61
f 63/63/63 65/65/65 66/66/66
f 63/63/63 64/64/64 65/65/65
f 69/69/69 67/67/67 68/68/68
f 67/67/67 69/69/69 70/70/70
f 71/71/71 72/72/72 73/73/73
f 74/74/74 75/75/75 76/76/76
f 77/77/77 78/78/78 79/79/79
f 81/81/81 82/82/82 83/83/83
f 80/80/80 81/81/81 83/83/83
f 84/84/84 85/85/85 86/86/86
f 87/87/87 84/84/84 86/86/86
f 88/88/88 90/90/90 91/91/91
f 88/88/88 89/89/89 90/90/90
f 92/92/92 94/94/94 95/95/95
f 94/94/94 92/92/92 93/93/93
f 97/97/97 98/98/98 99/99/99
f 96/96/96 97/97/97 99/99/99
f 100/100/100 102/102/102 103/103/103
f 102/102/102 100/100/100 101/101/101
f 104/104/104 105/105/105 106/106/106
f 107/107/107 108/108/108 109/109/109
f 110/110/110 111/111/111 112/112/112
f 113/113/113 115/115/115 116/116/116
f 113/113/113 114/114/114 115/115/115
f 117/117/117 119/119/119 120/120/120
f 119/119/119 117/117/117 118/118/118
f 134/134/134 121/121/121 133/133/133
f 130/130/130 132/132/132 133/133/133
f 121/121/121 122/122/122 133/133/133
f 130/130/130 131/131/131 132/132/132
f 122/122/122 123/123/123 124/124/124
f 129/129/129 130/130/130 133/133/133
f 122/122/122 124/124/124 129/129/129
f 124/124/124 125/125/125 129/129/129
f 125/125/125 126/126/126 129/129/129
f 126/126/126 128/128/128 129/129/129
f 126/126/126 127/127/127 128/128/128
f 122/122/122 129/129/129 133/133/133
