v -0.3781134 2.943628 -3.09867
v -0.7028633 2.943628 -2.631483
v 0.9186366 2.805128 -2.010545
v 0.5501366 2.805128 -1.480421
v -0.05336335 2.943628 -3.565858
v -0.3781134 2.943628 -3.09867
v 1.287137 2.805128 -2.540671
v 0.9186366 2.805128 -2.010545
v 0.9186366 2.805128 -2.010545
v 0.5501366 2.805128 -1.480421
v 2.215387 2.666628 -0.9224206
v 1.803137 2.666628 -0.329358
v 1.287137 2.805128 -2.540671
v 0.9186366 2.805128 -2.010545
v 2.627637 2.666628 -1.515483
v 2.215387 2.666628 -0.9224206
v -2.236863 3.082128 -3.378296
v 0.5501366 2.805128 -1.480421
v -0.7028633 2.943628 -2.631483
v -2.236863 3.082128 -3.378296
v 2.600137 2.528128 1.477704
v 0.5501366 2.805128 -1.480421
v -2.236863 3.082128 -3.378296
v -0.7028633 2.943628 -2.631483
v -0.3781134 2.943628 -3.09867
v -1.112863 3.082128 -4.995296
v -0.3781134 2.943628 -3.09867
v -0.05336335 2.943628 -3.565858
v -2.236863 3.082128 -3.378296
v -0.3781134 2.943628 -3.09867
v -1.112863 3.082128 -4.995296
v -1.112863 3.082128 -4.995296
v -0.05336335 2.943628 -3.565858
v 1.287137 2.805128 -2.540671
v 1.803137 2.666628 -0.329358
v 2.600137 2.528128 1.477704
v 2.215387 2.666628 -0.9224206
v 0.5501366 2.805128 -1.480421
v 2.600137 2.528128 1.477704
v 1.803137 2.666628 -0.329358
v 2.215387 2.666628 -0.9224206
v 2.600137 2.528128 1.477704
v 4.424137 2.528128 -1.146296
v 1.287137 2.805128 -2.540671
v 2.627637 2.666628 -1.515483
v 4.424137 2.528128 -1.146296
v 2.215387 2.666628 -0.9224206
v 4.424137 2.528128 -1.146296
v 2.627637 2.666628 -1.515483
v -1.112863 3.082128 -4.995296
v 1.287137 2.805128 -2.540671
v 4.424137 2.528128 -1.146296
v -4.691864 3.082128 0.1537044
v 2.600137 2.528128 1.477704
v -2.236863 3.082128 -3.378296
v 1.115137 2.753128 3.720705
v 4.189137 2.528128 2.581704
v 2.600137 2.528128 1.477704
v -1.955863 2.917628 2.178205
v -2.039613 2.917628 2.298704
v -0.6291134 2.835378 3.249704
v -0.5316133 2.835378 3.109454
v -3.380113 2.999878 1.246954
v -3.450113 2.999878 1.347704
v -2.039613 2.917628 2.298704
v -1.955863 2.917628 2.178205
v -1.872113 2.917628 2.057704
v -1.955863 2.917628 2.178205
v -0.5316133 2.835378 3.109454
v -0.4341134 2.835378 2.969204
v -3.310113 2.999878 1.146204
v -3.380113 2.999878 1.246954
v -1.955863 2.917628 2.178205
v -1.872113 2.917628 2.057704
v -0.6291134 2.835378 3.249704
v 0.6701366 2.753128 4.360704
v -0.5316133 2.835378 3.109454
v -0.5316133 2.835378 3.109454
v 0.6701366 2.753128 4.360704
v 1.115137 2.753128 3.720705
v -2.039613 2.917628 2.298704
v 0.6701366 2.753128 4.360704
v -0.6291134 2.835378 3.249704
v -4.916863 3.082128 0.4777044
v -2.039613 2.917628 2.298704
v -3.450113 2.999878 1.347704
v -4.916863 3.082128 0.4777044
v 0.6701366 2.753128 4.360704
v -2.039613 2.917628 2.298704
v -4.916863 3.082128 0.4777044
v -3.450113 2.999878 1.347704
v -3.380113 2.999878 1.246954
v -1.872113 2.917628 2.057704
v -0.4341134 2.835378 2.969204
v 1.115137 2.753128 3.720705
v -0.5316133 2.835378 3.109454
v 1.115137 2.753128 3.720705
v -0.4341134 2.835378 2.969204
v -4.691864 3.082128 0.1537044
v -1.872113 2.917628 2.057704
v 1.115137 2.753128 3.720705
v -4.691864 3.082128 0.1537044
v -3.380113 2.999878 1.246954
v -3.310113 2.999878 1.146204
v -4.691864 3.082128 0.1537044
v -3.310113 2.999878 1.146204
v -1.872113 2.917628 2.057704
v -4.916863 3.082128 0.4777044
v -3.380113 2.999878 1.246954
v -4.691864 3.082128 0.1537044
v 1.115137 2.753128 3.720705
v 2.654137 2.530128 4.789704
v 4.189137 2.528128 2.581704
v -4.691864 3.082128 0.1537044
v 1.115137 2.753128 3.720705
v 2.600137 2.528128 1.477704
v 1.115137 -2.812341 3.720705
v 1.115137 2.753128 3.720705
v 0.6701366 -2.812341 4.360704
v 0.6701366 2.753128 4.360704
v 1.115137 -2.812341 3.720705
v 2.654137 2.530128 4.789704
v 1.115137 2.753128 3.720705
v 2.654137 -2.812341 4.789704
v 4.189137 -2.812341 2.581704
v 4.189137 2.528128 2.581704
v 2.654137 -2.812341 4.789704
v 2.654137 2.530128 4.789704
v 4.189137 -2.812341 2.581704
v 2.600137 -2.812341 1.477704
v 4.189137 2.528128 2.581704
v 2.600137 2.528128 1.477704
v 2.600137 -2.812341 1.477704
v 4.424137 2.528128 -1.146296
v 2.600137 2.528128 1.477704
v 4.424137 -2.812341 -1.146296
v -1.112863 3.082128 -4.995296
v 1.655637 -2.812341 -3.070796
v -1.112863 -2.812341 -4.995296
v 1.655637 -2.812341 -3.070796
v 4.424137 2.528128 -1.146296
v 4.424137 -2.812341 -1.146296
v -1.112863 3.082128 -4.995296
v 4.424137 2.528128 -1.146296
v 1.655637 -2.812341 -3.070796
v -2.236863 3.082128 -3.378296
v -1.112863 -2.812341 -4.995296
v -2.236863 -2.812341 -3.378296
v -1.112863 3.082128 -4.995296
v -4.691864 3.082128 0.1537044
v -2.236863 -2.812341 -3.378296
v -4.691864 -2.812341 0.1537044
v -2.236863 3.082128 -3.378296
v -4.916863 3.082128 0.4777044
v -4.691864 -2.812341 0.1537044
v -4.916863 -2.812341 0.4777044
v -4.691864 3.082128 0.1537044
v -4.916863 -2.812341 0.4777044
v 0.6701366 2.753128 4.360704
v -4.916863 3.082128 0.4777044
v 0.6701366 -2.812341 4.360704
v -4.691864 -2.812341 0.1537044
v -2.236863 -2.812341 -3.378296
v 2.600137 -2.812341 1.477704
v -1.112863 -2.812341 -4.995296
v 1.655637 -2.812341 -3.070796
v 4.424137 -2.812341 -1.146296
v -4.916863 -2.812341 0.4777044
v 0.6701366 -2.812341 4.360704
v 1.115137 -2.812341 3.720705
v 4.189137 -2.812341 2.581704
v 2.654137 -2.812341 4.789704
vt 0.874003 0.483894
vt 0.859868 0.491589
vt 0.840188 0.453243
vt 0.824151 0.461973
vt 0.888139 0.476198
vt 0.874003 0.483894
vt 0.856225 0.444512
vt 0.840188 0.453243
vt 0.840188 0.453243
vt 0.824151 0.461973
vt 0.806384 0.422602
vt 0.788446 0.432367
vt 0.856225 0.444512
vt 0.840188 0.453243
vt 0.824322 0.412836
vt 0.806384 0.422602
vt 0.883363 0.527873
vt 0.824151 0.461973
vt 0.859868 0.491589
vt 0.883363 0.527873
vt 0.732915 0.413571
vt 0.824151 0.461973
vt 0.883363 0.527873
vt 0.859868 0.491589
vt 0.874003 0.483894
vt 0.932296 0.501236
vt 0.874003 0.483894
vt 0.888139 0.476198
vt 0.883363 0.527873
vt 0.874003 0.483894
vt 0.932296 0.501236
vt 0.932296 0.501236
vt 0.888139 0.476198
vt 0.856225 0.444512
vt 0.788446 0.432367
vt 0.732915 0.413571
vt 0.806384 0.422602
vt 0.824151 0.461973
vt 0.732915 0.413571
vt 0.788446 0.432367
vt 0.806384 0.422602
vt 0.732915 0.413571
vt 0.812268 0.370370
vt 0.856225 0.444512
vt 0.824322 0.412836
vt 0.812268 0.370370
vt 0.806384 0.422602
vt 0.812268 0.370370
vt 0.824322 0.412836
vt 0.932296 0.501236
vt 0.856225 0.444512
vt 0.812268 0.370370
vt 0.776481 0.586053
vt 0.732915 0.413571
vt 0.883363 0.527873
vt 0.666372 0.448861
vt 0.699449 0.376105
vt 0.732915 0.413571
vt 0.714125 0.521413
vt 0.710479 0.523398
vt 0.681163 0.490079
vt 0.685406 0.487769
vt 0.742849 0.555063
vt 0.739801 0.556722
vt 0.710479 0.523398
vt 0.714125 0.521413
vt 0.717771 0.519429
vt 0.714125 0.521413
vt 0.685406 0.487769
vt 0.689649 0.485459
vt 0.745897 0.553404
vt 0.742849 0.555063
vt 0.714125 0.521413
vt 0.717771 0.519429
vt 0.681163 0.490079
vt 0.647013 0.459403
vt 0.685406 0.487769
vt 0.685406 0.487769
vt 0.647013 0.459403
vt 0.666372 0.448861
vt 0.710479 0.523398
vt 0.647013 0.459403
vt 0.681163 0.490079
vt 0.766676 0.591386
vt 0.710479 0.523398
vt 0.739801 0.556722
vt 0.766676 0.591386
vt 0.647013 0.459403
vt 0.710479 0.523398
vt 0.766676 0.591386
vt 0.739801 0.556722
vt 0.742849 0.555063
vt 0.717771 0.519429
vt 0.689649 0.485459
vt 0.666372 0.448861
vt 0.685406 0.487769
vt 0.666372 0.448861
vt 0.689649 0.485459
vt 0.776481 0.586053
vt 0.717771 0.519429
vt 0.666372 0.448861
vt 0.776481 0.586053
vt 0.742849 0.555063
vt 0.745897 0.553404
vt 0.776481 0.586053
vt 0.745897 0.553404
vt 0.717771 0.519429
vt 0.766676 0.591386
vt 0.742849 0.555063
vt 0.776481 0.586053
vt 0.666372 0.448861
vt 0.632689 0.412462
vt 0.699449 0.376105
vt 0.776481 0.586053
vt 0.666372 0.448861
vt 0.732915 0.413571
vt 0.154185 0.931413
vt 0.183396 0.969409
vt 0.135325 0.941063
vt 0.164407 0.979125
vt 0.034008 0.999992
vt 0.032651 0.931413
vt 0.066426 0.966134
vt 0.001757 0.964146
vt 0.885146 0.824417
vt 0.913879 0.860747
vt 0.818981 0.858009
vt 0.847291 0.894572
vt 0.671353 0.824417
vt 0.701998 0.861504
vt 0.699782 0.860772
vt 0.730628 0.898102
vt 0.558875 0.864387
vt 0.667213 0.860777
vt 0.587879 0.901009
vt 0.637692 0.824417
vt 0.525278 0.775652
vt 0.437448 0.668861
vt 0.491767 0.734154
vt 0.437448 0.668861
vt 0.412759 0.640284
vt 0.383128 0.603567
vt 0.525278 0.775652
vt 0.412759 0.640284
vt 0.437448 0.668861
vt 0.840077 0.630739
vt 0.852287 0.639394
vt 0.803502 0.666366
vt 0.889223 0.603567
vt 0.732729 0.690085
vt 0.803502 0.666366
vt 0.696945 0.725275
vt 0.840077 0.630739
vt 0.722882 0.695525
vt 0.696945 0.725275
vt 0.687170 0.730674
vt 0.732729 0.690085
vt 0.647952 0.769382
vt 0.561783 0.603567
vt 0.683570 0.734146
vt 0.528998 0.637744
vt 0.441125 0.931413
vt 0.441125 0.931413
vt 0.441125 0.931413
vt 0.441125 0.931413
vt 0.441125 0.931413
vt 0.441125 0.931413
vt 0.441125 0.931413
vt 0.441125 0.931413
vt 0.441125 0.931413
vt 0.441125 0.931413
vt 0.441125 0.931413
vn 0.06723166 0.9966423 0.04673387
vn 0.06723164 0.9966423 0.04673393
vn 0.06723164 0.9966423 0.04673393
vn 0.06723162 0.9966423 0.04673398
vn 0.06723163 0.9966423 0.04673385
vn 0.06723161 0.9966423 0.04673391
vn 0.06723161 0.9966423 0.04673391
vn 0.06723159 0.9966423 0.04673396
vn 0.06723159 0.9966423 0.04673396
vn 0.06723157 0.9966423 0.04673401
vn 0.06723157 0.9966423 0.04673401
vn 0.06723156 0.9966423 0.04673405
vn 0.06723156 0.9966423 0.04673394
vn 0.06723155 0.9966423 0.04673398
vn 0.06723155 0.9966423 0.04673398
vn 0.06723154 0.9966423 0.04673403
vn 0.0672318 0.9966423 0.04673379
vn 0.0672318 0.9966423 0.04673379
vn 0.0672318 0.9966423 0.04673379
vn 0.06723166 0.9966423 0.04673401
vn 0.06723166 0.9966423 0.04673401
vn 0.06723166 0.9966423 0.04673401
vn 0.06723173 0.9966423 0.04673392
vn 0.06723173 0.9966423 0.04673392
vn 0.06723173 0.9966423 0.04673392
vn 0.0672316 0.9966423 0.04673383
vn 0.0672316 0.9966423 0.04673383
vn 0.0672316 0.9966423 0.04673383
vn 0.06723176 0.9966423 0.04673376
vn 0.06723176 0.9966423 0.04673376
vn 0.06723176 0.9966423 0.04673376
vn 0.06723171 0.9966423 0.04673373
vn 0.06723171 0.9966423 0.04673373
vn 0.06723171 0.9966423 0.04673373
vn 0.06723159 0.9966423 0.04673407
vn 0.06723159 0.9966423 0.04673407
vn 0.06723159 0.9966423 0.04673407
vn 0.06723151 0.9966423 0.0467341
vn 0.06723151 0.9966423 0.0467341
vn 0.06723151 0.9966423 0.0467341
vn 0.06723149 0.9966423 0.04673408
vn 0.06723149 0.9966423 0.04673408
vn 0.06723149 0.9966423 0.04673408
vn 0.06723146 0.9966423 0.04673406
vn 0.06723146 0.9966423 0.04673406
vn 0.06723146 0.9966423 0.04673406
vn 0.06723148 0.9966423 0.04673399
vn 0.06723148 0.9966423 0.04673399
vn 0.06723148 0.9966423 0.04673399
vn 0.06723153 0.9966423 0.04673392
vn 0.06723153 0.9966423 0.04673392
vn 0.06723153 0.9966423 0.04673392
vn 0.06723346 0.9966422 0.0467322
vn 0.06723346 0.9966422 0.0467322
vn 0.06723346 0.9966422 0.0467322
vn 0.04757029 0.9965185 -0.06846847
vn 0.04757029 0.9965185 -0.06846847
vn 0.04757029 0.9965185 -0.06846847
vn 0.03965816 0.998833 0.02756654
vn 0.03965987 0.9988329 0.02756443
vn 0.03965816 0.998833 0.02756654
vn 0.03965645 0.998833 0.02756866
vn 0.03966175 0.998833 0.02756115
vn 0.03966408 0.998833 0.02755817
vn 0.03966175 0.998833 0.02756115
vn 0.03965942 0.998833 0.02756412
vn 0.03965774 0.998833 0.02756625
vn 0.03965942 0.998833 0.02756412
vn 0.03965774 0.998833 0.02756625
vn 0.03965607 0.998833 0.02756839
vn 0.03966126 0.998833 0.0275608
vn 0.03966355 0.998833 0.0275578
vn 0.03966126 0.998833 0.0275608
vn 0.03965897 0.998833 0.02756381
vn 0.03965722 0.9988329 0.02756919
vn 0.03965722 0.9988329 0.02756919
vn 0.03965722 0.9988329 0.02756919
vn 0.03965422 0.998833 0.02757207
vn 0.03965422 0.998833 0.02757207
vn 0.03965422 0.998833 0.02757207
vn 0.03965455 0.9988329 0.02757231
vn 0.03965455 0.9988329 0.02757231
vn 0.03965455 0.9988329 0.02757231
vn 0.03967036 0.998833 0.02754886
vn 0.03967036 0.998833 0.02754886
vn 0.03967036 0.998833 0.02754886
vn 0.03966031 0.9988329 0.02756474
vn 0.03966031 0.9988329 0.02756474
vn 0.03966031 0.9988329 0.02756474
vn 0.03966462 0.9988329 0.02755854
vn 0.03966462 0.9988329 0.02755854
vn 0.03966462 0.9988329 0.02755854
vn 0.03965388 0.998833 0.02757184
vn 0.03965388 0.998833 0.02757184
vn 0.03965388 0.998833 0.02757184
vn 0.03965569 0.9988331 0.02756812
vn 0.03965569 0.9988331 0.02756812
vn 0.03965569 0.9988331 0.02756812
vn 0.03965853 0.9988331 0.0275635
vn 0.03965853 0.9988331 0.0275635
vn 0.03965853 0.9988331 0.0275635
vn 0.03966248 0.9988331 0.02755706
vn 0.03966248 0.9988331 0.02755706
vn 0.03966248 0.9988331 0.02755706
vn 0.03966903 0.9988331 0.02754794
vn 0.03966903 0.9988331 0.02754794
vn 0.03966903 0.9988331 0.02754794
vn 0.0396697 0.998833 0.0275484
vn 0.0396697 0.998833 0.0275484
vn 0.0396697 0.998833 0.0275484
vn 0.09745071 0.9929928 0.06684822
vn 0.09745071 0.9929928 0.06684822
vn 0.09745071 0.9929928 0.06684822
vn 0.08370158 0.9954992 -0.04444515
vn 0.08370158 0.9954992 -0.04444515
vn 0.08370158 0.9954992 -0.04444515
vn 0.8210359 0 0.5708765
vn 0.8210359 0 0.5708765
vn 0.8210359 0 0.5708765
vn 0.8210359 0 0.5708765
vn -0.5704858 0 0.8213075
vn -0.5704858 0 0.8213075
vn -0.5704858 0 0.8213075
vn -0.5704858 0 0.8213075
vn 0.8210795 0 0.5708139
vn 0.8210795 0 0.5708139
vn 0.8210795 0 0.5708139
vn 0.8210795 0 0.5708139
vn 0.5705798 0 -0.8212422
vn 0.5705798 0 -0.8212422
vn 0.5705798 0 -0.8212422
vn 0.5705798 0 -0.8212422
vn 0.8211092 0 0.570771
vn 0.8211092 0 0.570771
vn 0.8211092 0 0.570771
vn 0.8211092 0 0.570771
vn 0.570782 0 -0.8211016
vn 0.570782 0 -0.8211016
vn 0.570782 0 -0.8211016
vn 0.570782 0 -0.8211016
vn 0.570782 0 -0.8211016
vn 0.570782 0 -0.8211016
vn 0.570782 0 -0.8211016
vn 0.570782 0 -0.8211016
vn 0.570782 0 -0.8211016
vn -0.8211122 0 -0.5707669
vn -0.8211122 0 -0.5707669
vn -0.8211122 0 -0.5707669
vn -0.8211122 0 -0.5707669
vn -0.8211278 0 -0.5707443
vn -0.8211278 0 -0.5707443
vn -0.8211278 0 -0.5707443
vn -0.8211278 0 -0.5707443
vn -0.8213699 0 -0.5703958
vn -0.8213699 0 -0.5703958
vn -0.8213699 0 -0.5703958
vn -0.8213699 0 -0.5703958
vn -0.570707 0 0.8211538
vn -0.570707 0 0.8211538
vn -0.570707 0 0.8211538
vn -0.570707 0 0.8211538
vn 0 -1 0
vn 0 -1 0
vn 0 -1 0
vn 0 -1 0
vn 0 -1 0
vn 0 -1 0
vn 0 -1 0
vn 0 -1 0
vn 0 -1 0
vn 0 -1 0
vn 0 -1 0

g CDNNDG02_0018190
f 1/1/1 2/2/2 3/3/3
f 3/3/3 2/2/2 4/4/4
f 5/5/5 6/6/6 7/7/7
f 7/7/7 6/6/6 8/8/8
f 9/9/9 10/10/10 11/11/11
f 11/11/11 10/10/10 12/12/12
f 13/13/13 14/14/14 15/15/15
f 15/15/15 14/14/14 16/16/16
f 17/17/17 18/18/18 19/19/19
f 20/20/20 21/21/21 22/22/22
f 23/23/23 24/24/24 25/25/25
f 26/26/26 27/27/27 28/28/28
f 29/29/29 30/30/30 31/31/31
f 32/32/32 33/33/33 34/34/34
f 35/35/35 36/36/36 37/37/37
f 38/38/38 39/39/39 40/40/40
f 41/41/41 42/42/42 43/43/43
f 44/44/44 45/45/45 46/46/46
f 47/47/47 48/48/48 49/49/49
f 50/50/50 51/51/51 52/52/52
f 53/53/53 54/54/54 55/55/55
f 56/56/56 57/57/57 58/58/58
f 59/59/59 60/60/60 61/61/61
f 62/62/62 59/59/59 61/61/61
f 63/63/63 64/64/64 65/65/65
f 66/66/66 63/63/63 65/65/65
f 67/67/67 68/68/68 69/69/69
f 70/70/70 67/67/67 69/69/69
f 71/71/71 72/72/72 73/73/73
f 74/74/74 71/71/71 73/73/73
f 75/75/75 76/76/76 77/77/77
f 78/78/78 79/79/79 80/80/80
f 81/81/81 82/82/82 83/83/83
f 84/84/84 85/85/85 86/86/86
f 87/87/87 88/88/88 89/89/89
f 90/90/90 91/91/91 92/92/92
f 93/93/93 94/94/94 95/95/95
f 96/96/96 97/97/97 98/98/98
f 99/99/99 100/100/100 101/101/101
f 102/102/102 103/103/103 104/104/104
f 105/105/105 106/106/106 107/107/107
f 108/108/108 109/109/109 110/110/110
f 111/111/111 112/112/112 113/113/113
f 114/114/114 115/115/115 116/116/116
f 117/117/117 118/118/118 119/119/119
f 119/119/119 118/118/118 120/120/120
f 121/121/121 122/122/122 123/123/123
f 122/122/122 121/121/121 124/124/124
f 125/125/125 126/126/126 127/127/127
f 127/127/127 126/126/126 128/128/128
f 129/129/129 130/130/130 131/131/131
f 132/132/132 131/131/131 130/130/130
f 133/133/133 134/134/134 135/135/135
f 133/133/133 136/136/136 134/134/134
f 137/137/137 138/138/138 139/139/139
f 140/140/140 141/141/141 142/142/142
f 143/143/143 144/144/144 145/145/145
f 146/146/146 147/147/147 148/148/148
f 146/146/146 149/149/149 147/147/147
f 150/150/150 151/151/151 152/152/152
f 150/150/150 153/153/153 151/151/151
f 154/154/154 155/155/155 156/156/156
f 154/154/154 157/157/157 155/155/155
f 158/158/158 159/159/159 160/160/160
f 159/159/159 158/158/158 161/161/161
f 162/162/162 163/163/163 164/164/164
f 163/163/163 165/165/165 166/166/166
f 163/163/163 166/166/166 164/164/164
f 166/166/166 167/167/167 164/164/164
f 168/168/168 162/162/162 169/169/169
f 162/162/162 164/164/164 170/170/170
f 162/162/162 170/170/170 169/169/169
f 170/170/170 171/171/171 172/172/172
f 170/170/170 164/164/164 171/171/171
