v 0.8616095 4.679024 -8.426411
v 6.00261 5.571023 -4.417411
v 6.87161 4.673024 -4.565411
v 0.5406095 5.571023 -7.925411
v 6.00261 5.571023 -4.417411
v 0.8616095 4.679024 -8.426411
v 4.863609 4.679024 -1.439411
v 6.87161 4.673024 -4.565411
v 6.00261 5.571023 -4.417411
v 4.014609 5.571023 -1.321411
v 4.863609 4.679024 -1.439411
v 6.00261 5.571023 -4.417411
v 4.863609 4.679024 -1.439411
v 5.13461 5.571023 -0.602411
v 5.435609 4.676023 -1.071411
v 4.014609 5.571023 -1.321411
v 5.13461 5.571023 -0.602411
v 4.863609 4.679024 -1.439411
v -1.84639 5.957024 -2.123411
v -1.73239 5.572024 -1.459411
v -1.18039 5.572024 -2.318411
v -2.51239 5.571023 -3.173411
v 4.014609 5.571023 -1.321411
v 0.5406095 5.571023 -7.925411
v -0.5713905 5.571023 8.280589
v 5.13461 5.571023 -0.602411
v 4.014609 5.571023 -1.321411
v 0.5406095 5.571023 -7.925411
v 4.014609 5.571023 -1.321411
v 6.00261 5.571023 -4.417411
v -7.15339 5.571023 4.052589
v -0.5713905 5.571023 8.280589
v -1.73239 5.571023 -1.459411
v -1.73239 5.571023 -1.459411
v -0.5713905 5.571023 8.280589
v 4.014609 5.571023 -1.321411
v -7.15339 5.571023 4.052589
v -1.73239 5.571023 -1.459411
v -2.397891 5.571023 -1.887411
v -7.15339 5.571023 4.052589
v -2.397891 5.571023 -1.887411
v -3.06339 5.571023 -2.315411
v -1.73239 5.571023 -1.459411
v 4.014609 5.571023 -1.321411
v -1.338024 5.571023 -2.073109
v -1.338024 5.571023 -2.073109
v 4.014609 5.571023 -1.321411
v -1.18039 5.571023 -2.318411
v -1.84639 5.571023 -2.745911
v -1.18039 5.571023 -2.318411
v 4.014609 5.571023 -1.321411
v -2.51239 5.571023 -3.173411
v -1.84639 5.571023 -2.745911
v 4.014609 5.571023 -1.321411
v -2.51239 5.571023 -3.173411
v -2.457391 5.957024 -2.520411
v -1.84639 5.957024 -2.123411
v -2.51239 5.571023 -3.173411
v -1.84639 5.957024 -2.123411
v -1.18039 5.572024 -2.318411
v -3.06339 5.571023 -2.315411
v -1.84639 5.957024 -2.123411
v -2.457391 5.957024 -2.520411
v -3.06339 5.571023 -2.315411
v -1.73239 5.572024 -1.459411
v -1.84639 5.957024 -2.123411
v -3.06339 5.571023 -2.315411
v -2.457391 5.957024 -2.520411
v -2.51239 5.571023 -3.173411
v 0.8616095 4.679024 -8.426411
v 3.86661 -5.547077 -6.495911
v 0.8616095 -5.547077 -8.426411
v 3.86661 -5.547077 -6.495911
v 6.87161 4.673024 -4.565411
v 6.87161 -5.547077 -4.565411
v 0.8616095 4.679024 -8.426411
v 6.87161 4.673024 -4.565411
v 3.86661 -5.547077 -6.495911
v 0.5406095 5.571023 -7.925411
v 0.7011095 -5.547077 -8.175911
v 0.5406095 -5.547077 -7.925411
v 0.7011095 -5.547077 -8.175911
v 0.8616095 4.679024 -8.426411
v 0.8616095 -5.547077 -8.426411
v 0.5406095 5.571023 -7.925411
v 0.8616095 4.679024 -8.426411
v 0.7011095 -5.547077 -8.175911
v -2.51239 5.571023 -3.173411
v 0.5406095 5.571023 -7.925411
v 0.5406095 -5.547077 -7.925411
v -2.51239 -5.547077 -3.173411
v -3.06339 5.571023 -2.315411
v -2.78789 -5.547077 -2.744411
v -3.06339 -5.547077 -2.315411
v -2.78789 -5.547077 -2.744411
v -2.51239 5.571023 -3.173411
v -2.51239 -5.547077 -3.173411
v -3.06339 5.571023 -2.315411
v -2.51239 5.571023 -3.173411
v -2.78789 -5.547077 -2.744411
v -7.15339 5.571023 4.052589
v -3.06339 5.571023 -2.315411
v -3.06339 -5.547077 -2.315411
v -7.15339 -5.547077 4.052589
v 4.863609 -5.547077 -1.439411
v 6.87161 -5.547077 -4.565411
v 6.87161 4.673024 -4.565411
v 4.863609 4.679024 -1.439411
v 5.28511 -5.547077 -0.836911
v 5.435609 -5.547077 -1.071411
v 5.435609 4.676023 -1.071411
v 5.13461 5.571023 -0.602411
v 5.13461 -5.547077 -0.602411
v 5.28511 -5.547077 -0.836911
v 5.13461 5.571023 -0.602411
v 5.28511 -5.547077 -0.836911
v 5.435609 4.676023 -1.071411
v -0.5713905 -5.547077 8.280589
v 5.13461 -5.547077 -0.602411
v 5.13461 5.571023 -0.602411
v -0.5713905 5.571023 8.280589
v 4.863609 4.679024 -1.439411
v 5.435609 4.676023 -1.071411
v 5.435609 -5.547077 -1.071411
v 4.863609 -5.547077 -1.439411
v -1.338024 5.571023 -2.073109
v -1.18039 5.571023 -2.318411
v -1.18039 5.572024 -2.318411
v -1.73239 5.571023 -1.459411
v -1.338024 5.571023 -2.073109
v -1.18039 5.572024 -2.318411
v -1.73239 5.572024 -1.459411
v -7.15339 -5.547077 4.052589
v -0.5713905 -5.547077 8.280589
v -0.5713905 5.571023 8.280589
v -7.15339 5.571023 4.052589
v -2.51239 5.571023 -3.173411
v -1.18039 5.572024 -2.318411
v -1.84639 5.571023 -2.745911
v -1.84639 5.571023 -2.745911
v -1.18039 5.572024 -2.318411
v -1.18039 5.571023 -2.318411
v -2.397891 5.571023 -1.887411
v -1.73239 5.571023 -1.459411
v -1.73239 5.572024 -1.459411
v -3.06339 5.571023 -2.315411
v -2.397891 5.571023 -1.887411
v -1.73239 5.572024 -1.459411
v -2.78789 -5.547077 -2.744411
v -2.51239 -5.547077 -3.173411
v 0.5406095 -5.547077 -7.925411
v 0.7011095 -5.547077 -8.175911
v 0.8616095 -5.547077 -8.426411
v 3.86661 -5.547077 -6.495911
v 6.87161 -5.547077 -4.565411
v 4.863609 -5.547077 -1.439411
v 5.435609 -5.547077 -1.071411
v 5.28511 -5.547077 -0.836911
v 5.13461 -5.547077 -0.602411
v -0.5713905 -5.547077 8.280589
v -7.15339 -5.547077 4.052589
v -3.06339 -5.547077 -2.315411
vt 0.771605 0.884706
vt 0.599010 0.733563
vt 0.604378 0.705479
vt 0.751115 0.896618
vt 0.599010 0.733563
vt 0.771605 0.884706
vt 0.781449 0.765328
vt 0.915052 0.705479
vt 0.909703 0.733269
vt 0.777228 0.792574
vt 0.781449 0.765328
vt 0.909703 0.733269
vt 0.184514 0.932674
vt 0.150990 0.926942
vt 0.169423 0.916096
vt 0.180504 0.959426
vt 0.150990 0.926942
vt 0.184514 0.932674
vt 0.428494 0.935625
vt 0.400990 0.931593
vt 0.436062 0.916096
vt 0.501363 0.257971
vt 0.419492 0.061921
vt 0.707600 0.165516
vt 0.002475 0.201133
vt 0.387981 0.028332
vt 0.419492 0.061921
vt 0.707600 0.165516
vt 0.419492 0.061921
vt 0.553862 0.001712
vt 0.187775 0.398506
vt 0.002475 0.201133
vt 0.426613 0.234743
vt 0.426613 0.234743
vt 0.002475 0.201133
vt 0.419492 0.061921
vt 0.187775 0.398506
vt 0.426613 0.234743
vt 0.445370 0.254700
vt 0.187775 0.398506
vt 0.445370 0.254700
vt 0.464127 0.274656
vt 0.426613 0.234743
vt 0.419492 0.061921
vt 0.453247 0.222800
vt 0.453247 0.222800
vt 0.419492 0.061921
vt 0.463893 0.218027
vt 0.482628 0.237999
vt 0.463893 0.218027
vt 0.419492 0.061921
vt 0.501363 0.257971
vt 0.482628 0.237999
vt 0.419492 0.061921
vt 0.275943 0.954538
vt 0.249221 0.954014
vt 0.232673 0.936371
vt 0.275943 0.954538
vt 0.232673 0.936371
vt 0.240321 0.916096
vt 0.387188 0.954595
vt 0.379335 0.917140
vt 0.395900 0.934819
vt 0.387188 0.954595
vt 0.351485 0.916096
vt 0.379335 0.917140
vt 0.443069 0.935145
vt 0.451691 0.916096
vt 0.478129 0.919635
vt 0.592558 0.907782
vt 0.498420 0.793991
vt 0.580997 0.882500
vt 0.498420 0.793991
vt 0.425265 0.728462
vt 0.415842 0.705479
vt 0.592558 0.907782
vt 0.425265 0.728462
vt 0.498420 0.793991
vt 0.528316 0.406826
vt 0.525701 0.467168
vt 0.514982 0.471967
vt 0.525701 0.467168
vt 0.548947 0.402397
vt 0.536420 0.462369
vt 0.528316 0.406826
vt 0.548947 0.402397
vt 0.525701 0.467168
vt 0.322124 0.499397
vt 0.528316 0.406826
vt 0.514982 0.471967
vt 0.311651 0.563253
vt 0.284895 0.516104
vt 0.293295 0.571490
vt 0.274939 0.579728
vt 0.293295 0.571490
vt 0.322124 0.499397
vt 0.311651 0.563253
vt 0.284895 0.516104
vt 0.322124 0.499397
vt 0.293295 0.571490
vt 0.008598 0.640113
vt 0.284895 0.516104
vt 0.274939 0.579728
vt 0.002475 0.702014
vt 0.002475 0.975122
vt 0.134460 0.916096
vt 0.143853 0.938809
vt 0.010169 0.998610
vt 0.391684 0.709957
vt 0.401695 0.705479
vt 0.409267 0.729026
vt 0.389636 0.740196
vt 0.381673 0.714434
vt 0.391684 0.709957
vt 0.389636 0.740196
vt 0.391684 0.709957
vt 0.409267 0.729026
vt 0.002475 0.884174
vt 0.381673 0.714434
vt 0.389636 0.740196
vt 0.005108 0.912321
vt 0.303586 0.955346
vt 0.289034 0.938848
vt 0.282178 0.916096
vt 0.296543 0.932378
vt 0.510205 0.920411
vt 0.520221 0.916096
vt 0.520221 0.916098
vt 0.485149 0.931205
vt 0.510205 0.920411
vt 0.520221 0.916098
vt 0.485149 0.931208
vt 0.735647 0.661577
vt 0.554455 0.466985
vt 0.557978 0.402397
vt 0.741718 0.599729
vt 0.225846 0.954540
vt 0.190595 0.916098
vt 0.208220 0.935318
vt 0.208220 0.935318
vt 0.190595 0.916098
vt 0.190594 0.916096
vt 0.327072 0.935348
vt 0.309406 0.916102
vt 0.309407 0.916096
vt 0.344738 0.954595
vt 0.327072 0.935348
vt 0.309407 0.916096
vt 0.527228 0.916096
vt 0.527228 0.916096
vt 0.527228 0.916096
vt 0.527228 0.916096
vt 0.527228 0.916096
vt 0.527228 0.916096
vt 0.527228 0.916096
vt 0.527228 0.916096
vt 0.527228 0.916096
vt 0.527228 0.916096
vt 0.527228 0.916096
vt 0.527228 0.916096
vt 0.527228 0.916096
vt 0.527228 0.916096
vn 0.4510605 0.5520689 -0.7012591
vn 0.4510605 0.5520689 -0.7012591
vn 0.4510605 0.5520689 -0.7012591
vn 0.4495587 0.5549244 -0.6999685
vn 0.4495587 0.5549244 -0.6999685
vn 0.4495587 0.5549244 -0.6999685
vn 0.681403 0.5874456 0.4365748
vn 0.681403 0.5874456 0.4365748
vn 0.681403 0.5874456 0.4365748
vn 0.6798247 0.5893059 0.4365283
vn 0.6798247 0.5893059 0.4365283
vn 0.6798247 0.5893059 0.4365283
vn 0.4612558 0.5285671 -0.712643
vn 0.4612558 0.5285671 -0.712643
vn 0.4612558 0.5285671 -0.712643
vn 0.4580065 0.5303072 -0.7134454
vn 0.4580065 0.5303072 -0.7134454
vn 0.4580065 0.5303072 -0.7134454
vn 0.5435051 0.763295 0.3492605
vn 0.5435051 0.763295 0.3492605
vn 0.5435051 0.763295 0.3492605
vn 0 1 0
vn 0 1 0
vn 0 1 0
vn 0 1 0
vn 0 1 0
vn 0 1 0
vn 0 1 0
vn 0 1 0
vn 0 1 0
vn 0 1 0
vn 0 1 0
vn 0 1 0
vn 0 1 0
vn 0 1 0
vn 0 1 0
vn 0 1 0
vn 0 1 0
vn 0 1 0
vn 0 1 0
vn 0 1 0
vn 0 1 0
vn 0 1 0
vn 0 1 0
vn 0 1 0
vn 0 1 0
vn 0 1 0
vn 0 1 0
vn 0 1 0
vn 0 1 0
vn 0 1 0
vn 0 1 0
vn 0 1 0
vn 0 1 0
vn 0.3257174 0.8016318 -0.501293
vn 0.3257174 0.8016318 -0.501293
vn 0.3257174 0.8016318 -0.501293
vn 0.3196213 0.805582 -0.4988785
vn 0.3196213 0.805582 -0.4988785
vn 0.3196213 0.805582 -0.4988785
vn -0.3320825 0.7927856 0.5110891
vn -0.3320825 0.7927856 0.5110891
vn -0.3320825 0.7927856 0.5110891
vn -0.3319103 0.7902147 0.5151663
vn -0.3319103 0.7902147 0.5151663
vn -0.3319103 0.7902147 0.5151663
vn -0.5849478 0.7188354 -0.3756483
vn -0.5849478 0.7188354 -0.3756483
vn -0.5849478 0.7188354 -0.3756483
vn 0.5405028 0 -0.8413422
vn 0.5405028 0 -0.8413422
vn 0.5405028 0 -0.8413422
vn 0.5405028 0 -0.8413422
vn 0.5405028 0 -0.8413422
vn 0.5405028 0 -0.8413422
vn 0.5405028 0 -0.8413422
vn 0.5405028 0 -0.8413422
vn 0.5405028 0 -0.8413422
vn -0.8419966 0 -0.5394828
vn -0.8419966 0 -0.5394828
vn -0.8419966 0 -0.5394828
vn -0.8419966 0 -0.5394828
vn -0.8419966 0 -0.5394828
vn -0.8419966 0 -0.5394828
vn -0.8419966 2.353953E-11 -0.5394828
vn -0.8419966 2.353953E-11 -0.5394828
vn -0.8419966 2.353953E-11 -0.5394828
vn -0.841328 0 -0.5405249
vn -0.841328 0 -0.5405249
vn -0.841328 0 -0.5405249
vn -0.841328 0 -0.5405249
vn -0.8414333 0 -0.540361
vn -0.8414333 0 -0.540361
vn -0.8414333 0 -0.540361
vn -0.8414333 0 -0.540361
vn -0.8414333 0 -0.540361
vn -0.8414333 0 -0.540361
vn -0.8414333 2.263203E-11 -0.540361
vn -0.8414333 2.263203E-11 -0.540361
vn -0.8414333 2.263203E-11 -0.540361
vn -0.8414016 0 -0.5404103
vn -0.8414016 0 -0.5404103
vn -0.8414016 0 -0.5404103
vn -0.8414016 0 -0.5404103
vn 0.8413708 0 0.5404583
vn 0.8413708 0 0.5404583
vn 0.8413708 0 0.5404583
vn 0.8413708 0 0.5404583
vn 0.8415864 0 0.5401226
vn 0.8415864 0 0.5401226
vn 0.8415864 0 0.5401226
vn 0.8415864 0 0.5401226
vn 0.8415864 0 0.5401226
vn 0.8415864 0 0.5401226
vn 0.8415864 2.357076E-11 0.5401226
vn 0.8415864 2.357076E-11 0.5401226
vn 0.8415864 2.357076E-11 0.5401226
vn 0.8413723 0 0.5404559
vn 0.8413723 0 0.5404559
vn 0.8413723 0 0.5404559
vn 0.8413723 0 0.5404559
vn 0.5410548 0 -0.8409873
vn 0.5410548 0 -0.8409873
vn 0.5410548 0 -0.8409873
vn 0.5410548 0 -0.8409873
vn 0.8412739 0 0.5406091
vn 0.8412739 0 0.5406091
vn 0.8412739 0 0.5406091
vn 0.8412739 0 0.5406091
vn 0.8412739 -4.036994E-07 0.5406091
vn 0.8412739 -8.073987E-07 0.5406091
vn 0.8412739 -4.036994E-07 0.5406091
vn -0.5404603 0 0.8413695
vn -0.5404603 0 0.8413695
vn -0.5404603 0 0.8413695
vn -0.5404603 0 0.8413695
vn 0.5401827 3.144276E-08 -0.8415478
vn 0.5401827 3.144276E-08 -0.8415478
vn 0.5401827 3.144276E-08 -0.8415478
vn 0.5401827 0 -0.8415478
vn 0.5401827 0 -0.8415478
vn 0.5401827 0 -0.8415478
vn -0.5409173 0 0.8410758
vn -0.5409173 0 0.8410758
vn -0.5409173 0 0.8410758
vn -0.5409173 7.833128E-07 0.8410758
vn -0.5409173 7.833128E-07 0.8410758
vn -0.5409173 7.833128E-07 0.8410758
vn 0 -1 0
vn 0 -1 0
vn 0 -1 0
vn 0 -1 0
vn 0 -1 0
vn 0 -1 0
vn 0 -1 0
vn 0 -1 0
vn 0 -1 0
vn 0 -1 0
vn 0 -1 0
vn 0 -1 0
vn 0 -1 0
vn 0 -1 0

g CDNNDG02_0005090
f 1/1/1 2/2/2 3/3/3
f 4/4/4 5/5/5 6/6/6
f 7/7/7 8/8/8 9/9/9
f 10/10/10 11/11/11 12/12/12
f 13/13/13 14/14/14 15/15/15
f 16/16/16 17/17/17 18/18/18
f 19/19/19 20/20/20 21/21/21
f 22/22/22 23/23/23 24/24/24
f 25/25/25 26/26/26 27/27/27
f 28/28/28 29/29/29 30/30/30
f 31/31/31 32/32/32 33/33/33
f 34/34/34 35/35/35 36/36/36
f 37/37/37 38/38/38 39/39/39
f 40/40/40 41/41/41 42/42/42
f 43/43/43 44/44/44 45/45/45
f 46/46/46 47/47/47 48/48/48
f 49/49/49 50/50/50 51/51/51
f 52/52/52 53/53/53 54/54/54
f 55/55/55 56/56/56 57/57/57
f 58/58/58 59/59/59 60/60/60
f 61/61/61 62/62/62 63/63/63
f 64/64/64 65/65/65 66/66/66
f 67/67/67 68/68/68 69/69/69
f 70/70/70 71/71/71 72/72/72
f 73/73/73 74/74/74 75/75/75
f 76/76/76 77/77/77 78/78/78
f 79/79/79 80/80/80 81/81/81
f 82/82/82 83/83/83 84/84/84
f 85/85/85 86/86/86 87/87/87
f 88/88/88 90/90/90 91/91/91
f 88/88/88 89/89/89 90/90/90
f 92/92/92 93/93/93 94/94/94
f 95/95/95 96/96/96 97/97/97
f 98/98/98 99/99/99 100/100/100
f 104/104/104 101/101/101 103/103/103
f 103/103/103 101/101/101 102/102/102
f 106/106/106 107/107/107 105/105/105
f 105/105/105 107/107/107 108/108/108
f 109/109/109 110/110/110 111/111/111
f 112/112/112 113/113/113 114/114/114
f 115/115/115 116/116/116 117/117/117
f 121/121/121 118/118/118 120/120/120
f 119/119/119 120/120/120 118/118/118
f 123/123/123 124/124/124 125/125/125
f 122/122/122 123/123/123 125/125/125
f 126/126/126 127/127/127 128/128/128
f 130/130/130 131/131/131 132/132/132
f 129/129/129 130/130/130 132/132/132
f 134/134/134 135/135/135 136/136/136
f 136/136/136 133/133/133 134/134/134
f 137/137/137 138/138/138 139/139/139
f 140/140/140 141/141/141 142/142/142
f 143/143/143 144/144/144 145/145/145
f 146/146/146 147/147/147 148/148/148
f 160/160/160 161/161/161 162/162/162
f 159/159/159 160/160/160 162/162/162
f 156/156/156 159/159/159 162/162/162
f 149/149/149 150/150/150 156/156/156
f 150/150/150 151/151/151 154/154/154
f 151/151/151 152/152/152 154/154/154
f 156/156/156 158/158/158 159/159/159
f 152/152/152 153/153/153 154/154/154
f 156/156/156 157/157/157 158/158/158
f 150/150/150 154/154/154 156/156/156
f 154/154/154 155/155/155 156/156/156
f 149/149/149 156/156/156 162/162/162
