v -1.056544 5.758511 -4.716552
v 6.259456 5.758511 -3.434552
v 0.4804558 5.758511 -7.162552
v -6.226544 5.758511 3.511448
v -0.5745441 5.758511 7.158448
v -4.946544 5.758511 1.473448
v -4.418544 5.758511 0.6344482
v -4.253544 5.758511 0.7374483
v -1.468544 5.758511 -4.061552
v -4.253544 5.758511 0.7374483
v -0.5745441 5.758511 7.158448
v -1.512536 5.758511 -1.807528
v -4.307386 5.758511 0.8231053
v -0.5745441 5.758511 7.158448
v -4.253544 5.758511 0.7374483
v -4.253544 5.758511 0.7374483
v -1.512536 5.758511 -1.807528
v -1.468544 5.758511 -4.061552
v -1.512536 5.758511 -1.807528
v -0.5745441 5.758511 7.158448
v -1.277022 5.758511 -1.657882
v -1.512536 5.758511 -1.807528
v -1.313853 5.758511 -2.120131
v -1.468544 5.758511 -4.061552
v -4.781544 5.758511 1.577448
v -0.5745441 5.758511 7.158448
v -4.307386 5.758511 0.8231053
v -4.946544 5.758511 1.473448
v -0.5745441 5.758511 7.158448
v -4.781544 5.758511 1.577448
v -1.170086 5.758511 -4.037337
v 6.259456 5.758511 -3.434552
v -0.8315442 5.758511 -4.575552
v -1.056544 5.758511 -4.716552
v -0.8315442 5.758511 -4.575552
v 6.259456 5.758511 -3.434552
v -1.170086 5.758511 -4.037337
v -0.9232728 5.758511 -2.73466
v -0.3340093 5.758511 -2.35935
v -1.170086 5.758511 -4.037337
v 1.256397 5.758511 -0.6616549
v 6.259456 5.758511 -3.434552
v -0.9232728 5.758511 -1.43311
v 0.05905043 5.758511 1.243478
v -0.3340093 5.758511 -2.35935
v -1.170086 5.758511 -4.037337
v -0.3340093 5.758511 -2.35935
v 1.256397 5.758511 -0.6616549
v 2.214274 5.758511 2.598217
v 6.259456 5.758511 -3.434552
v 3.41162 5.758511 0.6930846
v -0.3340093 5.758511 -2.35935
v 0.05905043 5.758511 1.243478
v 1.256397 5.758511 -0.6616549
v 1.256397 5.758511 -0.6616549
v 3.41162 5.758511 0.6930846
v 6.259456 5.758511 -3.434552
v -0.5745441 5.758511 7.158448
v 2.214274 5.758511 2.598217
v 0.05905043 5.758511 1.243478
v -0.5745441 5.758511 7.158448
v 6.259456 5.758511 -3.434552
v 2.214274 5.758511 2.598217
v -1.468544 5.758511 -4.061552
v -1.313853 5.758511 -2.120131
v -1.243544 5.758511 -3.920552
v -1.313853 5.758511 -2.120131
v -0.9232728 5.758511 -2.73466
v -1.243544 5.758511 -3.920552
v -1.277022 5.758511 -1.657882
v -0.5745441 5.758511 7.158448
v 0.05905043 5.758511 1.243478
v -1.277022 5.758511 -1.657882
v 0.05905043 5.758511 1.243478
v -0.9232728 5.758511 -1.43311
v -1.243544 5.758511 -3.920552
v -0.9232728 5.758511 -2.73466
v -1.170086 5.758511 -4.037337
v -0.9785442 6.103511 -2.045552
v -0.9232728 5.758511 -1.43311
v -0.3340093 5.758511 -2.35935
v -0.9785442 6.103511 -2.045552
v -0.3340093 5.758511 -2.35935
v -0.9232728 5.758511 -2.73466
v -1.512536 5.758511 -1.807528
v -1.277022 5.758511 -1.657882
v -0.9785442 6.103511 -2.045552
v -1.277022 5.758511 -1.657882
v -0.9232728 5.758511 -1.43311
v -0.9785442 6.103511 -2.045552
v -1.512536 5.758511 -1.807528
v -0.9785442 6.103511 -2.045552
v -1.313853 5.758511 -2.120131
v -1.313853 5.758511 -2.120131
v -0.9785442 6.103511 -2.045552
v -0.9232728 5.758511 -2.73466
v 1.535456 6.93751 0.9074482
v 2.214274 5.758511 2.598217
v 3.41162 5.758511 0.6930846
v 1.256397 5.758511 -0.6616549
v 1.535456 6.93751 0.9074482
v 3.41162 5.758511 0.6930846
v 0.05905043 5.758511 1.243478
v 2.214274 5.758511 2.598217
v 1.535456 6.93751 0.9074482
v 0.05905043 5.758511 1.243478
v 1.535456 6.93751 0.9074482
v 1.256397 5.758511 -0.6616549
v -1.243544 6.568511 -3.920552
v -0.8315442 6.568511 -4.575552
v -1.056544 6.568511 -4.716552
v -1.468544 6.568511 -4.061552
v -4.781544 6.568511 1.577448
v -4.253544 6.568511 0.7374483
v -4.418544 6.568511 0.6344482
v -4.946544 6.568511 1.473448
v -6.226544 5.758511 3.511448
v -4.946544 5.758511 1.473448
v -4.946544 -5.791091 1.473448
v -6.226544 -5.791091 3.511448
v -1.056544 5.758511 -4.716552
v 0.4804558 5.758511 -7.162552
v 0.4804558 -5.791091 -7.162552
v -1.056544 -5.791091 -4.716552
v -1.468544 5.758511 -4.061552
v -1.262544 -5.791091 -4.389052
v -1.468544 -5.791091 -4.061552
v -1.262544 -5.791091 -4.389052
v -1.056544 5.758511 -4.716552
v -1.056544 -5.791091 -4.716552
v -1.468544 5.758511 -4.061552
v -1.056544 5.758511 -4.716552
v -1.262544 -5.791091 -4.389052
v -4.418544 5.758511 0.6344482
v -1.468544 5.758511 -4.061552
v -1.468544 -5.791091 -4.061552
v -4.418544 -5.791091 0.6344482
v -4.946544 5.758511 1.473448
v -4.418544 5.758511 0.6344482
v -4.418544 -5.791091 0.6344482
v -4.946544 -5.791091 1.473448
v -1.468544 6.568511 -4.061552
v -1.056544 6.568511 -4.716552
v -1.056544 5.758511 -4.716552
v -1.468544 5.758511 -4.061552
v -4.946544 6.568511 1.473448
v -4.418544 6.568511 0.6344482
v -4.418544 5.758511 0.6344482
v -4.946544 5.758511 1.473448
v -6.226544 -5.791091 3.511448
v -0.5745441 -5.791091 7.158448
v -0.5745441 5.758511 7.158448
v -6.226544 5.758511 3.511448
v -0.5745441 -5.791091 7.158448
v 6.259456 -5.791091 -3.434552
v 6.259456 5.758511 -3.434552
v -0.5745441 5.758511 7.158448
v 0.4804558 5.758511 -7.162552
v 3.369956 -5.791091 -5.298552
v 0.4804558 -5.791091 -7.162552
v 3.369956 -5.791091 -5.298552
v 6.259456 5.758511 -3.434552
v 6.259456 -5.791091 -3.434552
v 0.4804558 5.758511 -7.162552
v 6.259456 5.758511 -3.434552
v 3.369956 -5.791091 -5.298552
v -1.170086 5.758511 -4.037337
v -0.8315442 5.758511 -4.575552
v -0.8315442 6.568511 -4.575552
v -1.243544 6.568511 -3.920552
v -1.243544 6.568511 -3.920552
v -1.243544 5.758511 -3.920552
v -1.170086 5.758511 -4.037337
v -1.056544 6.568511 -4.716552
v -0.8315442 6.568511 -4.575552
v -0.8315442 5.758511 -4.575552
v -1.056544 5.758511 -4.716552
v -1.468544 5.758511 -4.061552
v -1.243544 5.758511 -3.920552
v -1.243544 6.568511 -3.920552
v -1.468544 6.568511 -4.061552
v -4.307386 5.758511 0.8231053
v -4.253544 5.758511 0.7374483
v -4.253544 6.568511 0.7374483
v -4.781544 5.758511 1.577448
v -4.307386 5.758511 0.8231053
v -4.253544 6.568511 0.7374483
v -4.781544 6.568511 1.577448
v -4.418544 6.568511 0.6344482
v -4.253544 6.568511 0.7374483
v -4.253544 5.758511 0.7374483
v -4.418544 5.758511 0.6344482
v -4.946544 5.758511 1.473448
v -4.781544 5.758511 1.577448
v -4.781544 6.568511 1.577448
v -4.946544 6.568511 1.473448
v -1.468544 -5.791091 -4.061552
v -1.262544 -5.791091 -4.389052
v -1.056544 -5.791091 -4.716552
v 0.4804558 -5.791091 -7.162552
v 3.369956 -5.791091 -5.298552
v 6.259456 -5.791091 -3.434552
v -0.5745441 -5.791091 7.158448
v -6.226544 -5.791091 3.511448
v -4.946544 -5.791091 1.473448
v -4.418544 -5.791091 0.6344482
vt 0.501730 0.237651
vt 0.457496 0.001862
vt 0.606751 0.190767
vt 0.148468 0.395350
vt 0.002445 0.210608
vt 0.235965 0.356308
vt 0.271988 0.340202
vt 0.267871 0.334812
vt 0.473607 0.250220
vt 0.267871 0.334812
vt 0.002445 0.210608
vt 0.378657 0.249430
vt 0.264193 0.336454
vt 0.002445 0.210608
vt 0.267871 0.334812
vt 0.267871 0.334812
vt 0.378657 0.249430
vt 0.473607 0.250220
vt 0.378657 0.249430
vt 0.002445 0.210608
vt 0.372670 0.241734
vt 0.378657 0.249430
vt 0.392081 0.243365
vt 0.473607 0.250220
vt 0.231806 0.350917
vt 0.002445 0.210608
vt 0.264193 0.336454
vt 0.235965 0.356308
vt 0.002445 0.210608
vt 0.231806 0.350917
vt 0.472985 0.240628
vt 0.457496 0.001862
vt 0.496094 0.230301
vt 0.501730 0.237651
vt 0.496094 0.230301
vt 0.457496 0.001862
vt 0.472985 0.240628
vt 0.418472 0.231445
vt 0.403456 0.212188
vt 0.472985 0.240628
vt 0.334100 0.159546
vt 0.457496 0.001862
vt 0.363678 0.230174
vt 0.252302 0.196071
vt 0.403456 0.212188
vt 0.472985 0.240628
vt 0.403456 0.212188
vt 0.334100 0.159546
vt 0.198134 0.125657
vt 0.457496 0.001862
vt 0.279932 0.089132
vt 0.403456 0.212188
vt 0.252302 0.196071
vt 0.334100 0.159546
vt 0.334100 0.159546
vt 0.279932 0.089132
vt 0.457496 0.001862
vt 0.002445 0.210608
vt 0.198134 0.125657
vt 0.252302 0.196071
vt 0.002445 0.210608
vt 0.457496 0.001862
vt 0.198134 0.125657
vt 0.473607 0.250220
vt 0.392081 0.243365
vt 0.467971 0.242869
vt 0.392081 0.243365
vt 0.418472 0.231445
vt 0.467971 0.242869
vt 0.372670 0.241734
vt 0.002445 0.210608
vt 0.252302 0.196071
vt 0.372670 0.241734
vt 0.252302 0.196071
vt 0.363678 0.230174
vt 0.467971 0.242869
vt 0.418472 0.231445
vt 0.472985 0.240628
vt 0.397119 0.951996
vt 0.369193 0.948212
vt 0.406234 0.931099
vt 0.447396 0.931099
vt 0.428007 0.952317
vt 0.413203 0.934654
vt 0.639799 0.948686
vt 0.634251 0.941657
vt 0.653299 0.932446
vt 0.634251 0.941657
vt 0.625917 0.931099
vt 0.653299 0.932446
vt 0.619252 0.931099
vt 0.616256 0.947622
vt 0.606660 0.936817
vt 0.606660 0.936817
vt 0.616256 0.947622
vt 0.581907 0.948057
vt 0.267437 0.996401
vt 0.185819 0.967744
vt 0.264447 0.931099
vt 0.002445 0.931099
vt 0.091898 0.933120
vt 0.058187 0.999239
vt 0.150632 0.999983
vt 0.097800 0.931099
vt 0.178968 0.950887
vt 0.353220 0.931099
vt 0.362748 0.980449
vt 0.273839 0.967641
vt 0.545232 0.942590
vt 0.571478 0.931099
vt 0.576739 0.937819
vt 0.550493 0.949310
vt 0.452323 0.945947
vt 0.486437 0.931099
vt 0.490331 0.936068
vt 0.456257 0.950916
vt 0.692549 0.715008
vt 0.605639 0.755217
vt 0.365487 0.723066
vt 0.451166 0.683426
vt 0.341678 0.877408
vt 0.237378 0.925685
vt 0.002445 0.891125
vt 0.105267 0.843530
vt 0.369609 0.864466
vt 0.119035 0.837151
vt 0.132802 0.830772
vt 0.119035 0.837151
vt 0.341678 0.877408
vt 0.105267 0.843530
vt 0.369609 0.864466
vt 0.341678 0.877408
vt 0.119035 0.837151
vt 0.569860 0.771803
vt 0.369609 0.864466
vt 0.132802 0.830772
vt 0.330215 0.739418
vt 0.605639 0.755217
vt 0.569860 0.771803
vt 0.330215 0.739418
vt 0.365487 0.723066
vt 0.386472 0.866866
vt 0.358513 0.879820
vt 0.341678 0.877408
vt 0.369609 0.864466
vt 0.622740 0.757506
vt 0.586925 0.774109
vt 0.569860 0.771803
vt 0.605639 0.755217
vt 0.842499 0.894547
vt 0.699266 0.713145
vt 0.819703 0.683426
vt 0.964982 0.867425
vt 0.002445 0.611021
vt 0.444367 0.400372
vt 0.573202 0.465751
vt 0.124972 0.679400
vt 0.815533 0.400372
vt 0.656654 0.560424
vt 0.579462 0.468604
vt 0.656654 0.560424
vt 0.972132 0.586655
vt 0.733845 0.652242
vt 0.815533 0.400372
vt 0.972132 0.586655
vt 0.656654 0.560424
vt 0.664798 0.940682
vt 0.686236 0.931099
vt 0.694914 0.935521
vt 0.668799 0.947196
vt 0.668799 0.947196
vt 0.660147 0.942762
vt 0.664798 0.940682
vt 0.717031 0.931099
vt 0.722399 0.937367
vt 0.707074 0.941600
vt 0.701711 0.935337
vt 0.757907 0.939005
vt 0.753056 0.932850
vt 0.760877 0.931099
vt 0.765733 0.937259
vt 0.526693 0.932651
vt 0.530141 0.931099
vt 0.538696 0.935702
vt 0.496333 0.946322
vt 0.526693 0.932651
vt 0.538696 0.935702
vt 0.504854 0.950940
vt 0.743942 0.931099
vt 0.747815 0.935568
vt 0.732475 0.939776
vt 0.728606 0.935311
vt 0.788321 0.936656
vt 0.784841 0.932593
vt 0.792246 0.931099
vt 0.795729 0.935165
vt 0.772616 0.931099
vt 0.772616 0.931099
vt 0.772616 0.931099
vt 0.772616 0.931099
vt 0.772616 0.931099
vt 0.772616 0.931099
vt 0.772616 0.931099
vt 0.772616 0.931099
vt 0.772616 0.931099
vt 0.772616 0.931099
vn 0 1 0
vn 0 1 0
vn 0 1 0
vn 0 1 0
vn 0 1 0
vn 0 1 0
vn 0 1 0
vn 0 1 0
vn 0 1 0
vn 0 1 0
vn 0 1 0
vn 0 1 0
vn 0 1 0
vn 0 1 0
vn 0 1 0
vn 0 1 0
vn 0 1 0
vn 0 1 0
vn 0 1 0
vn 0 1 0
vn 0 1 0
vn 0 1 0
vn 0 1 0
vn 0 1 0
vn 0 1 0
vn 0 1 0
vn 0 1 0
vn 0 1 0
vn 0 1 0
vn 0 1 0
vn 0 1 0
vn 0 1 0
vn 0 1 0
vn 0 1 0
vn 0 1 0
vn 0 1 0
vn 0 1 0
vn 0 1 0
vn 0 1 0
vn 0 1 0
vn 0 1 0
vn 0 1 0
vn 0 1 0
vn 0 1 0
vn 0 1 0
vn 0 1 0
vn 0 1 0
vn 0 1 0
vn 0 1 0
vn 0 1 0
vn 0 1 0
vn 0 1 0
vn 0 1 0
vn 0 1 0
vn 0 1 0
vn 0 1 0
vn 0 1 0
vn 0 1 0
vn 0 1 0
vn 0 1 0
vn 0 1 0
vn 0 1 0
vn 0 1 0
vn 0 1 0
vn 0 1 0
vn 0 1 0
vn 0 1 0
vn 0 1 0
vn 0 1 0
vn 0 1 0
vn 0 1 0
vn 0 1 0
vn 0 1 0
vn 0 1 0
vn 0 1 0
vn 0 1 0
vn 0 1 0
vn 0 1 0
vn 0.5709428 0.7362677 0.3632273
vn 0.5709428 0.7362677 0.3632273
vn 0.5709428 0.7362677 0.3632273
vn 0.2641599 0.870748 -0.4147498
vn 0.2641599 0.870748 -0.4147498
vn 0.2641599 0.870748 -0.4147498
vn -0.3098965 0.8161466 0.4877181
vn -0.3098965 0.8161466 0.4877181
vn -0.3098965 0.8161466 0.4877181
vn -0.3098965 0.8161466 0.4877181
vn -0.3098965 0.8161466 0.4877181
vn -0.3098965 0.8161466 0.4877181
vn -0.6160978 0.6834402 -0.3915775
vn -0.6160978 0.6834402 -0.3915775
vn -0.6160978 0.6834402 -0.3915775
vn -0.6160978 0.6834402 -0.3915775
vn -0.6160978 0.6834402 -0.3915775
vn -0.6160978 0.6834402 -0.3915775
vn 0.5287627 0.7810083 0.3323192
vn 0.5287627 0.7810083 0.3323192
vn 0.5287627 0.7810083 0.3323192
vn 0.3761571 0.7073894 -0.5984196
vn 0.3761571 0.7073894 -0.5984196
vn 0.3761571 0.7073894 -0.5984196
vn -0.394049 0.6721181 0.6268833
vn -0.394049 0.6721181 0.6268833
vn -0.394049 0.6721181 0.6268833
vn -0.626643 0.6724672 -0.3938355
vn -0.626643 0.6724672 -0.3938355
vn -0.626643 0.6724672 -0.3938355
vn 0 1 0
vn 0 1 0
vn 0 1 0
vn 0 1 0
vn 0 1 0
vn 0 1 0
vn 0 1 0
vn 0 1 0
vn -0.8468291 0 -0.5318652
vn -0.8468291 0 -0.5318652
vn -0.8468291 0 -0.5318652
vn -0.8468291 0 -0.5318652
vn -0.8467123 0 -0.532051
vn -0.8467123 0 -0.532051
vn -0.8467123 0 -0.532051
vn -0.8467123 0 -0.532051
vn -0.8464701 0 -0.5324362
vn -0.8464701 0 -0.5324362
vn -0.8464701 0 -0.5324362
vn -0.8464701 0 -0.5324362
vn -0.8464701 0 -0.5324362
vn -0.8464701 0 -0.5324362
vn -0.8464701 0 -0.5324362
vn -0.8464701 0 -0.5324362
vn -0.8464701 0 -0.5324362
vn -0.8467804 0 -0.5319425
vn -0.8467804 0 -0.5319425
vn -0.8467804 0 -0.5319425
vn -0.8467804 0 -0.5319425
vn -0.8463507 0 -0.532626
vn -0.8463507 0 -0.532626
vn -0.8463507 0 -0.532626
vn -0.8463507 0 -0.532626
vn -0.8464701 0 -0.5324362
vn -0.8464701 0 -0.5324362
vn -0.8464701 0 -0.5324362
vn -0.8464701 0 -0.5324362
vn -0.8463507 0 -0.532626
vn -0.8463507 0 -0.532626
vn -0.8463507 0 -0.532626
vn -0.8463507 0 -0.532626
vn -0.5421844 0 0.8402595
vn -0.5421844 0 0.8402595
vn -0.5421844 0 0.8402595
vn -0.5421844 0 0.8402595
vn 0.8403037 0 0.542116
vn 0.8403037 0 0.542116
vn 0.8403037 0 0.542116
vn 0.8403037 0 0.542116
vn 0.5420871 0 -0.8403223
vn 0.5420871 0 -0.8403223
vn 0.5420871 0 -0.8403223
vn 0.5420871 0 -0.8403223
vn 0.5420871 0 -0.8403223
vn 0.5420871 0 -0.8403223
vn 0.5420871 0 -0.8403223
vn 0.5420871 0 -0.8403223
vn 0.5420871 0 -0.8403223
vn 0.8464701 -7.218926E-11 0.5324362
vn 0.8464701 0 0.5324362
vn 0.8464701 -7.218926E-11 0.5324362
vn 0.8464701 -1.443785E-10 0.5324362
vn 0.8464701 0 0.5324362
vn 0.8464701 0 0.5324362
vn 0.8464701 0 0.5324362
vn 0.5310141 0 -0.847363
vn 0.5310141 0 -0.847363
vn 0.5310141 0 -0.847363
vn 0.5310141 0 -0.847363
vn -0.5310141 0 0.847363
vn -0.5310141 0 0.847363
vn -0.5310141 0 0.847363
vn -0.5310141 0 0.847363
vn 0.8466365 0 0.5321715
vn 0.8466365 0 0.5321715
vn 0.8466365 0 0.5321715
vn 0.8466365 0 0.5321715
vn 0.8466365 6.942496E-10 0.5321715
vn 0.8466365 1.388499E-09 0.5321715
vn 0.8466365 6.942496E-10 0.5321715
vn 0.5295367 0 -0.848287
vn 0.5295367 0 -0.848287
vn 0.5295367 0 -0.848287
vn 0.5295367 0 -0.848287
vn -0.5332212 0 0.8459759
vn -0.5332212 0 0.8459759
vn -0.5332212 0 0.8459759
vn -0.5332212 0 0.8459759
vn 0 -1 0
vn 0 -1 0
vn 0 -1 0
vn 0 -1 0
vn 0 -1 0
vn 0 -1 0
vn 0 -1 0
vn 0 -1 0
vn 0 -1 0
vn 0 -1 0

g CDNNDG02_0014800
f 1/1/1 2/2/2 3/3/3
f 4/4/4 5/5/5 6/6/6
f 7/7/7 8/8/8 9/9/9
f 10/10/10 11/11/11 12/12/12
f 13/13/13 14/14/14 15/15/15
f 16/16/16 17/17/17 18/18/18
f 19/19/19 20/20/20 21/21/21
f 22/22/22 23/23/23 24/24/24
f 25/25/25 26/26/26 27/27/27
f 28/28/28 29/29/29 30/30/30
f 31/31/31 32/32/32 33/33/33
f 34/34/34 35/35/35 36/36/36
f 37/37/37 38/38/38 39/39/39
f 40/40/40 41/41/41 42/42/42
f 43/43/43 44/44/44 45/45/45
f 46/46/46 47/47/47 48/48/48
f 49/49/49 50/50/50 51/51/51
f 52/52/52 53/53/53 54/54/54
f 55/55/55 56/56/56 57/57/57
f 58/58/58 59/59/59 60/60/60
f 61/61/61 62/62/62 63/63/63
f 64/64/64 65/65/65 66/66/66
f 67/67/67 68/68/68 69/69/69
f 70/70/70 71/71/71 72/72/72
f 73/73/73 74/74/74 75/75/75
f 76/76/76 77/77/77 78/78/78
f 79/79/79 80/80/80 81/81/81
f 82/82/82 83/83/83 84/84/84
f 85/85/85 86/86/86 87/87/87
f 88/88/88 89/89/89 90/90/90
f 91/91/91 92/92/92 93/93/93
f 94/94/94 95/95/95 96/96/96
f 97/97/97 98/98/98 99/99/99
f 100/100/100 101/101/101 102/102/102
f 103/103/103 104/104/104 105/105/105
f 106/106/106 107/107/107 108/108/108
f 109/109/109 111/111/111 112/112/112
f 109/109/109 110/110/110 111/111/111
f 113/113/113 115/115/115 116/116/116
f 113/113/113 114/114/114 115/115/115
f 117/117/117 118/118/118 119/119/119
f 120/120/120 117/117/117 119/119/119
f 121/121/121 123/123/123 124/124/124
f 121/121/121 122/122/122 123/123/123
f 125/125/125 126/126/126 127/127/127
f 128/128/128 129/129/129 130/130/130
f 131/131/131 132/132/132 133/133/133
f 134/134/134 136/136/136 137/137/137
f 134/134/134 135/135/135 136/136/136
f 139/139/139 140/140/140 141/141/141
f 138/138/138 139/139/139 141/141/141
f 142/142/142 144/144/144 145/145/145
f 142/142/142 143/143/143 144/144/144
f 146/146/146 148/148/148 149/149/149
f 146/146/146 147/147/147 148/148/148
f 153/153/153 150/150/150 152/152/152
f 152/152/152 150/150/150 151/151/151
f 157/157/157 154/154/154 156/156/156
f 155/155/155 156/156/156 154/154/154
f 158/158/158 159/159/159 160/160/160
f 161/161/161 162/162/162 163/163/163
f 164/164/164 165/165/165 166/166/166
f 167/167/167 168/168/168 169/169/169
f 170/170/170 167/167/167 169/169/169
f 171/171/171 172/172/172 173/173/173
f 176/176/176 174/174/174 175/175/175
f 174/174/174 176/176/176 177/177/177
f 178/178/178 180/180/180 181/181/181
f 180/180/180 178/178/178 179/179/179
f 182/182/182 183/183/183 184/184/184
f 188/188/188 185/185/185 186/186/186
f 186/186/186 187/187/187 188/188/188
f 191/191/191 189/189/189 190/190/190
f 189/189/189 191/191/191 192/192/192
f 193/193/193 195/195/195 196/196/196
f 195/195/195 193/193/193 194/194/194
f 203/203/203 205/205/205 206/206/206
f 203/203/203 204/204/204 205/205/205
f 197/197/197 203/203/203 206/206/206
f 197/197/197 198/198/198 201/201/201
f 198/198/198 199/199/199 201/201/201
f 197/197/197 202/202/202 203/203/203
f 199/199/199 200/200/200 201/201/201
f 197/197/197 201/201/201 202/202/202
