v -5.344539 5.577635 1.154559
v -0.1535394 5.577635 7.423559
v -5.081501 5.577635 1.320719
v -6.69354 5.577635 3.286559
v -0.2895394 5.577635 7.474558
v -5.344539 5.577635 1.154559
v -6.755539 5.577635 3.385559
v -0.2895394 5.577635 7.474558
v -6.69354 5.577635 3.286559
v -4.896539 5.577635 1.437559
v -0.1535394 5.577635 7.423559
v -4.676744 5.577635 1.090513
v -5.081501 5.577635 1.320719
v -0.1535394 5.577635 7.423559
v -4.896539 5.577635 1.437559
v -0.2895394 5.577635 7.474558
v -0.2155394 5.577635 7.521559
v -0.1535394 5.577635 7.423559
v -5.344539 5.577635 1.154559
v -0.2895394 5.577635 7.474558
v -0.1535394 5.577635 7.423559
v -5.00954 5.577635 0.6245585
v 3.739461 5.577635 -4.775442
v -0.06953938 5.577635 -7.184442
v -0.1535394 5.577635 7.423559
v 3.356461 5.577635 1.759559
v 2.572461 5.577635 1.266559
v 3.356461 5.577635 1.759559
v 6.271461 5.577635 -2.735441
v 4.07546 5.577635 0.6165586
v -0.1535394 5.577635 7.423559
v 6.271461 5.577635 -2.735441
v 3.356461 5.577635 1.759559
v -4.676744 5.577635 1.090513
v -0.1535394 5.577635 7.423559
v 2.572461 5.577635 1.266559
v -4.554539 5.577635 0.8975585
v 3.291461 5.577635 0.1225585
v 6.271461 5.577635 -2.735441
v 3.291461 5.577635 0.1225585
v 4.07546 5.577635 0.6165586
v 6.271461 5.577635 -2.735441
v -4.676744 5.577635 1.090513
v 3.291461 5.577635 0.1225585
v -4.554539 5.577635 0.8975585
v -5.00954 5.577635 0.6245585
v -4.554539 5.577635 0.8975585
v 6.271461 5.577635 -2.735441
v -4.676744 5.577635 1.090513
v 2.572461 5.577635 1.266559
v 3.291461 5.577635 0.1225585
v 6.027461 5.577635 -3.901442
v 6.271461 5.577635 -2.735441
v 6.350461 5.577635 -2.859442
v -5.00954 5.577635 0.6245585
v 6.271461 5.577635 -2.735441
v 3.739461 5.577635 -4.775442
v 3.739461 5.577635 -4.775442
v 6.271461 5.577635 -2.735441
v 6.027461 5.577635 -3.901442
v 3.739461 5.577635 -4.775442
v 6.027461 5.577635 -3.901442
v 4.388461 5.577635 -4.938441
v 3.285461 6.165635 0.9815585
v 3.356461 5.813635 1.759559
v 4.07546 5.813635 0.6165586
v 2.572461 5.813635 1.266559
v 3.356461 5.813635 1.759559
v 3.285461 6.165635 0.9815585
v 3.285461 6.165635 0.9815585
v 4.07546 5.813635 0.6165586
v 3.291461 5.813635 0.1225585
v 2.572461 5.813635 1.266559
v 3.285461 6.165635 0.9815585
v 3.291461 5.813635 0.1225585
v -0.06953938 4.815635 -7.184442
v 3.755461 4.815635 -5.072442
v 0.06946062 4.815635 -7.404441
v 3.739461 4.815635 -4.775442
v 4.388461 4.815635 -4.938441
v 3.755461 4.815635 -5.072442
v -0.06953938 4.815635 -7.184442
v 3.739461 4.815635 -4.775442
v 3.755461 4.815635 -5.072442
v 3.755461 4.815635 -5.072442
v 4.388461 4.815635 -4.938441
v 4.541461 4.815635 -5.258441
v 4.388461 4.815635 -4.938441
v 6.242461 4.815635 -4.182441
v 4.541461 4.815635 -5.258441
v 4.388461 4.815635 -4.938441
v 6.027461 4.815635 -3.901442
v 6.242461 4.815635 -4.182441
v 6.027461 4.815635 -3.901442
v 6.552461 4.815635 -3.178442
v 6.242461 4.815635 -4.182441
v 6.027461 4.815635 -3.901442
v 6.350461 4.815635 -2.859442
v 6.552461 4.815635 -3.178442
v -5.287539 7.032635 1.065559
v -4.896539 7.032635 1.437559
v -4.554539 7.032635 0.8975585
v -5.00954 7.032635 0.6245585
v -5.344539 7.033635 1.154559
v -4.896539 7.032635 1.437559
v -5.287539 7.032635 1.065559
v -6.69354 5.577635 3.286559
v -5.344539 5.577635 1.154559
v -5.344539 -5.570958 1.154559
v -6.69354 -5.570958 3.286559
v -6.755539 5.577635 3.385559
v -6.69354 5.577635 3.286559
v -6.69354 -5.570958 3.286559
v -6.755539 -5.570958 3.385559
v -5.00954 5.577635 0.6245585
v -2.539539 -5.570958 -3.279942
v -5.00954 -5.570958 0.6245585
v -5.00954 5.577635 0.6245585
v -0.06953938 5.577635 -7.184442
v -2.539539 -5.570958 -3.279942
v -2.539539 -5.570958 -3.279942
v -0.06953938 5.577635 -7.184442
v -0.06953938 4.815635 -7.184442
v -2.539539 -5.570958 -3.279942
v -0.06953938 4.815635 -7.184442
v -0.06953938 -5.570958 -7.184442
v -5.287539 5.577635 1.065559
v -5.00954 5.577635 0.6245585
v -5.00954 -5.570958 0.6245585
v -5.287539 -5.570958 1.065559
v -5.344539 5.577635 1.154559
v -5.287539 5.577635 1.065559
v -5.287539 -5.570958 1.065559
v -5.344539 -5.570958 1.154559
v -0.06953938 4.815635 -7.184442
v 0.06946062 4.815635 -7.404441
v 0.06946062 -5.570958 -7.404441
v -0.06953938 -5.570958 -7.184442
v -5.344539 7.033635 1.154559
v -5.287539 7.032635 1.065559
v -5.287539 5.577635 1.065559
v -5.344539 5.577635 1.154559
v -5.287539 7.032635 1.065559
v -5.00954 7.032635 0.6245585
v -5.00954 5.577635 0.6245585
v -5.287539 5.577635 1.065559
v -6.755539 -5.570958 3.385559
v -0.2895394 -5.570958 7.474558
v -0.2895394 5.577635 7.474558
v -6.755539 5.577635 3.385559
v -0.2895394 -5.570958 7.474558
v -0.2155394 -5.570958 7.521559
v -0.2155394 5.577635 7.521559
v -0.2895394 5.577635 7.474558
v -0.2155394 -5.570958 7.521559
v -0.1535394 -5.570958 7.423559
v -0.1535394 5.577635 7.423559
v -0.2155394 5.577635 7.521559
v 3.058961 -5.570958 2.344059
v 6.271461 -5.570958 -2.735441
v 6.271461 5.577635 -2.735441
v -0.1535394 5.577635 7.423559
v -0.1535394 -5.570958 7.423559
v 3.058961 -5.570958 2.344059
v -0.1535394 5.577635 7.423559
v 3.058961 -5.570958 2.344059
v 6.271461 5.577635 -2.735441
v 6.271461 5.577635 -2.735441
v 6.350461 4.815635 -2.859442
v 6.350461 5.577635 -2.859442
v 6.271461 -5.570958 -2.735441
v 6.350461 -5.570958 -2.859442
v 6.350461 4.815635 -2.859442
v 6.271461 5.577635 -2.735441
v 6.350461 -5.570958 -2.859442
v 6.552461 -5.570958 -3.178442
v 6.552461 4.815635 -3.178442
v 6.350461 4.815635 -2.859442
v 6.027461 5.577635 -3.901442
v 6.350461 5.577635 -2.859442
v 6.350461 4.815635 -2.859442
v 6.027461 4.815635 -3.901442
v 4.388461 5.577635 -4.938441
v 6.027461 5.577635 -3.901442
v 6.027461 4.815635 -3.901442
v 4.388461 4.815635 -4.938441
v 3.739461 5.577635 -4.775442
v 4.388461 5.577635 -4.938441
v 4.388461 4.815635 -4.938441
v 3.739461 4.815635 -4.775442
v -0.06953938 5.577635 -7.184442
v 3.739461 5.577635 -4.775442
v 3.739461 4.815635 -4.775442
v -0.06953938 4.815635 -7.184442
v 3.356461 5.577635 1.759559
v 4.07546 5.577635 0.6165586
v 4.07546 5.813635 0.6165586
v 3.356461 5.813635 1.759559
v 2.572461 5.577635 1.266559
v 3.356461 5.577635 1.759559
v 3.356461 5.813635 1.759559
v 2.572461 5.813635 1.266559
v 3.291461 5.813635 0.1225585
v 4.07546 5.813635 0.6165586
v 4.07546 5.577635 0.6165586
v 3.291461 5.577635 0.1225585
v 2.572461 5.813635 1.266559
v 3.291461 5.813635 0.1225585
v 3.291461 5.577635 0.1225585
v 2.572461 5.577635 1.266559
v 6.242461 4.815635 -4.182441
v 6.552461 4.815635 -3.178442
v 6.552461 -5.570958 -3.178442
v 6.242461 -5.570958 -4.182441
v 4.541461 4.815635 -5.258441
v 6.242461 4.815635 -4.182441
v 6.242461 -5.570958 -4.182441
v 4.541461 -5.570958 -5.258441
v 3.755461 4.815635 -5.072442
v 4.541461 4.815635 -5.258441
v 4.541461 -5.570958 -5.258441
v 3.755461 -5.570958 -5.072442
v 0.06946062 4.815635 -7.404441
v 3.755461 4.815635 -5.072442
v 3.755461 -5.570958 -5.072442
v 0.06946062 -5.570958 -7.404441
v -5.081501 5.577635 1.320719
v -4.896539 5.577635 1.437559
v -4.896539 7.032635 1.437559
v -5.344539 7.033635 1.154559
v -5.344539 5.577635 1.154559
v -5.081501 5.577635 1.320719
v -5.344539 7.033635 1.154559
v -5.081501 5.577635 1.320719
v -4.896539 7.032635 1.437559
v -4.676744 5.577635 1.090513
v -4.554539 5.577635 0.8975585
v -4.554539 7.032635 0.8975585
v -4.896539 7.032635 1.437559
v -4.896539 5.577635 1.437559
v -4.676744 5.577635 1.090513
v -4.896539 7.032635 1.437559
v -4.676744 5.577635 1.090513
v -4.554539 7.032635 0.8975585
v -5.00954 7.032635 0.6245585
v -4.554539 7.032635 0.8975585
v -4.554539 5.577635 0.8975585
v -5.00954 5.577635 0.6245585
v -5.287539 -5.570958 1.065559
v -5.00954 -5.570958 0.6245585
v -2.539539 -5.570958 -3.279942
v -0.06953938 -5.570958 -7.184442
v 0.06946062 -5.570958 -7.404441
v 3.755461 -5.570958 -5.072442
v 4.541461 -5.570958 -5.258441
v 6.242461 -5.570958 -4.182441
v 6.552461 -5.570958 -3.178442
v 6.350461 -5.570958 -2.859442
v 6.271461 -5.570958 -2.735441
v 3.058961 -5.570958 2.344059
v -0.1535394 -5.570958 7.423559
v -0.2155394 -5.570958 7.521559
v -0.2895394 -5.570958 7.474558
v -6.755539 -5.570958 3.385559
v -6.69354 -5.570958 3.286559
v -5.344539 -5.570958 1.154559
vt 0.266948 0.318986
vt 0.006375 0.180150
vt 0.259997 0.311912
vt 0.179449 0.356026
vt 0.004319 0.183842
vt 0.266948 0.318986
vt 0.175385 0.357728
vt 0.004319 0.183842
vt 0.179449 0.356026
vt 0.255109 0.306938
vt 0.006375 0.180150
vt 0.269352 0.300903
vt 0.259997 0.311912
vt 0.006375 0.180150
vt 0.255109 0.306938
vt 0.004319 0.183842
vt 0.002353 0.181852
vt 0.006375 0.180150
vt 0.266948 0.318986
vt 0.004319 0.183842
vt 0.006375 0.180150
vt 0.288700 0.309788
vt 0.508432 0.071699
vt 0.609210 0.174141
vt 0.006375 0.180150
vt 0.238865 0.083735
vt 0.259492 0.104821
vt 0.238865 0.083735
vt 0.423335 0.003713
vt 0.285779 0.063989
vt 0.006375 0.180150
vt 0.423335 0.003713
vt 0.238865 0.083735
vt 0.269352 0.300903
vt 0.006375 0.180150
vt 0.259492 0.104821
vt 0.277271 0.297548
vt 0.306447 0.085075
vt 0.423335 0.003713
vt 0.306447 0.085075
vt 0.285779 0.063989
vt 0.423335 0.003713
vt 0.269352 0.300903
vt 0.306447 0.085075
vt 0.277271 0.297548
vt 0.288700 0.309788
vt 0.277271 0.297548
vt 0.423335 0.003713
vt 0.269352 0.300903
vt 0.259492 0.104821
vt 0.306447 0.085075
vt 0.471545 0.010016
vt 0.423335 0.003713
vt 0.428424 0.001543
vt 0.288700 0.309788
vt 0.423335 0.003713
vt 0.508432 0.071699
vt 0.508432 0.071699
vt 0.423335 0.003713
vt 0.471545 0.010016
vt 0.508432 0.071699
vt 0.471545 0.010016
vt 0.514928 0.054098
vt 0.387520 0.915635
vt 0.355294 0.911651
vt 0.399706 0.893519
vt 0.501653 0.914543
vt 0.482353 0.894564
vt 0.514827 0.893519
vt 0.265882 0.915635
vt 0.277855 0.893519
vt 0.296771 0.913202
vt 0.404706 0.914543
vt 0.418149 0.893519
vt 0.450028 0.896022
vt 0.677897 0.813006
vt 0.590209 0.710600
vt 0.686842 0.809209
vt 0.578073 0.711106
vt 0.584508 0.693597
vt 0.590209 0.710600
vt 0.677897 0.813006
vt 0.578073 0.711106
vt 0.590209 0.710600
vt 0.590209 0.710600
vt 0.584508 0.693597
vt 0.597535 0.689398
vt 0.584508 0.693597
vt 0.552947 0.643890
vt 0.597535 0.689398
vt 0.584508 0.693597
vt 0.541535 0.649749
vt 0.552947 0.643890
vt 0.541535 0.649749
vt 0.511793 0.635802
vt 0.552947 0.643890
vt 0.541535 0.649749
vt 0.498824 0.641321
vt 0.511793 0.635802
vt 0.661600 0.912086
vt 0.647059 0.902292
vt 0.667862 0.893519
vt 0.678590 0.904954
vt 0.658178 0.913548
vt 0.647059 0.902292
vt 0.661600 0.912086
vt 0.077837 0.542824
vt 0.166086 0.505819
vt 0.093411 0.594390
vt 0.006394 0.630877
vt 0.073739 0.544525
vt 0.077837 0.542824
vt 0.006394 0.630877
vt 0.002353 0.632554
vt 0.188024 0.496630
vt 0.274411 0.518518
vt 0.115043 0.585329
vt 0.188024 0.496630
vt 0.511279 0.361111
vt 0.274411 0.518518
vt 0.274411 0.518518
vt 0.511279 0.361111
vt 0.505912 0.367385
vt 0.274411 0.518518
vt 0.505912 0.367385
vt 0.433785 0.451704
vt 0.169770 0.504256
vt 0.188024 0.496630
vt 0.115043 0.585329
vt 0.097043 0.592848
vt 0.166086 0.505819
vt 0.169770 0.504256
vt 0.097043 0.592848
vt 0.093411 0.594390
vt 0.505912 0.367385
vt 0.515011 0.363575
vt 0.442765 0.447944
vt 0.433785 0.451704
vt 0.175729 0.494067
vt 0.179413 0.492508
vt 0.169770 0.504256
vt 0.166086 0.505819
vt 0.179413 0.492508
vt 0.197702 0.484868
vt 0.188024 0.496630
vt 0.169770 0.504256
vt 0.689360 0.626602
vt 0.521925 0.453591
vt 0.590582 0.363119
vt 0.760384 0.538581
vt 0.521925 0.453591
vt 0.520000 0.451611
vt 0.588630 0.361111
vt 0.590582 0.363119
vt 0.002353 0.814233
vt 0.006286 0.812598
vt 0.066959 0.887929
vt 0.062971 0.889586
vt 0.210151 0.727907
vt 0.414026 0.643211
vt 0.480365 0.716192
vt 0.066959 0.887929
vt 0.006286 0.812598
vt 0.210151 0.727907
vt 0.066959 0.887929
vt 0.210151 0.727907
vt 0.480365 0.716192
vt 0.480365 0.716192
vt 0.480814 0.709030
vt 0.485412 0.714080
vt 0.414026 0.643211
vt 0.419003 0.641128
vt 0.480814 0.709030
vt 0.480365 0.716192
vt 0.419003 0.641128
vt 0.431807 0.635802
vt 0.493784 0.703635
vt 0.480814 0.709030
vt 0.765030 0.905682
vt 0.724400 0.898035
vt 0.720000 0.893519
vt 0.760592 0.901158
vt 0.259060 0.940959
vt 0.218556 0.898449
vt 0.214118 0.893519
vt 0.254583 0.935988
vt 0.771765 0.893519
vt 0.771765 0.893519
vt 0.771765 0.893519
vt 0.771765 0.893519
vt 0.103488 0.999111
vt 0.006940 0.898593
vt 0.002353 0.893519
vt 0.098809 0.993942
vt 0.595294 0.911473
vt 0.639805 0.893519
vt 0.641129 0.894998
vt 0.596606 0.912958
vt 0.322134 0.915441
vt 0.303529 0.895379
vt 0.304933 0.893519
vt 0.323544 0.913587
vt 0.475962 0.914602
vt 0.457722 0.895006
vt 0.456471 0.893519
vt 0.474705 0.913109
vt 0.521492 0.912040
vt 0.566814 0.893519
vt 0.565309 0.895370
vt 0.520000 0.913886
vt 0.209227 0.968481
vt 0.169093 0.960397
vt 0.108235 0.893519
vt 0.147857 0.901499
vt 0.958678 0.748111
vt 0.915550 0.703228
vt 0.854118 0.635802
vt 0.896696 0.680114
vt 0.795294 0.893519
vt 0.795294 0.893519
vt 0.795294 0.893519
vt 0.795294 0.893519
vt 0.848236 0.802050
vt 0.754097 0.704365
vt 0.691765 0.635802
vt 0.784704 0.732242
vt 0.333821 0.909345
vt 0.329412 0.904613
vt 0.338105 0.893519
vt 0.348810 0.904995
vt 0.340091 0.916076
vt 0.333821 0.909345
vt 0.348810 0.904995
vt 0.333821 0.909345
vt 0.338105 0.893519
vt 0.697882 0.896552
vt 0.705208 0.893519
vt 0.713162 0.902989
vt 0.692623 0.911493
vt 0.684706 0.902007
vt 0.697882 0.896552
vt 0.692623 0.911493
vt 0.697882 0.896552
vt 0.713162 0.902989
vt 0.589351 0.914484
vt 0.579380 0.903094
vt 0.571765 0.893519
vt 0.581718 0.904888
vt 0.783529 0.893519
vt 0.783529 0.893519
vt 0.783529 0.893519
vt 0.783529 0.893519
vt 0.783529 0.893519
vt 0.783529 0.893519
vt 0.783529 0.893519
vt 0.783529 0.893519
vt 0.783529 0.893519
vt 0.783529 0.893519
vt 0.783529 0.893519
vt 0.783529 0.893519
vt 0.783529 0.893519
vt 0.783529 0.893519
vt 0.783529 0.893519
vt 0.783529 0.893519
vt 0.783529 0.893519
vt 0.783529 0.893519
vn 0 1 0
vn 0 1 0
vn 0 1 0
vn 0 1 0
vn 0 1 0
vn 0 1 0
vn 0 1 0
vn 0 1 0
vn 0 1 0
vn 0 1 0
vn 0 1 0
vn 0 1 0
vn 0 1 0
vn 0 1 0
vn 0 1 0
vn 0 1 0
vn 0 1 0
vn 0 1 0
vn 0 1 0
vn 0 1 0
vn 0 1 0
vn 0 1 0
vn 0 1 0
vn 0 1 0
vn 0 1 0
vn 0 1 0
vn 0 1 0
vn 0 1 0
vn 0 1 0
vn 0 1 0
vn 0 1 0
vn 0 1 0
vn 0 1 0
vn 0 1 0
vn 0 1 0
vn 0 1 0
vn 0 1 0
vn 0 1 0
vn 0 1 0
vn 0 1 0
vn 0 1 0
vn 0 1 0
vn 0 1 0
vn 0 1 0
vn 0 1 0
vn 0 1 0
vn 0 1 0
vn 0 1 0
vn 0 1 0
vn 0 1 0
vn 0 1 0
vn 0 1 0
vn 0 1 0
vn 0 1 0
vn 0 1 0
vn 0 1 0
vn 0 1 0
vn 0 1 0
vn 0 1 0
vn 0 1 0
vn 0 1 0
vn 0 1 0
vn 0 1 0
vn 0.5044146 0.8030483 0.3173002
vn 0.5044146 0.8030483 0.3173002
vn 0.5044146 0.8030483 0.3173002
vn -0.2625601 0.8698981 0.4175397
vn -0.2625601 0.8698981 0.4175397
vn -0.2625601 0.8698981 0.4175397
vn 0.2315546 0.9007416 -0.3674875
vn 0.2315546 0.9007416 -0.3674875
vn 0.2315546 0.9007416 -0.3674875
vn -0.5201996 0.7889869 -0.3269436
vn -0.5201996 0.7889869 -0.3269436
vn -0.5201996 0.7889869 -0.3269436
vn 0 1 0
vn 0 1 0
vn 0 1 0
vn 0 1 0
vn 0 1 0
vn 0 1 0
vn 0 1 0
vn 0 1 0
vn 0 1 0
vn 0 1 0
vn 0 1 0
vn 0 1 0
vn 0 1 0
vn 0 1 0
vn 0 1 0
vn 0 1 0
vn 0 1 0
vn 0 1 0
vn 0 1 0
vn 0 1 0
vn 0 1 0
vn 0 1 0
vn 0 1 0
vn 0 1 0
vn 0 1 0
vn 0 1 0
vn 0 1 0
vn 0 1 0
vn 0.006642193 0.9999536 -0.006981445
vn 0.006642193 0.9999536 -0.006981445
vn 0.006642193 0.9999536 -0.006981445
vn -0.8450459 0 -0.5346937
vn -0.8450459 0 -0.5346937
vn -0.8450459 0 -0.5346937
vn -0.8450459 0 -0.5346937
vn -0.847517 0 -0.5307682
vn -0.847517 0 -0.5307682
vn -0.847517 0 -0.5307682
vn -0.847517 0 -0.5307682
vn -0.8450978 0 -0.5346118
vn -0.8450978 0 -0.5346118
vn -0.8450978 0 -0.5346118
vn -0.8450978 2.453615E-11 -0.5346118
vn -0.8450978 2.453615E-11 -0.5346118
vn -0.8450978 2.453615E-11 -0.5346118
vn -0.8450978 0 -0.5346118
vn -0.8450978 0 -0.5346118
vn -0.8450978 0 -0.5346118
vn -0.8450978 0 -0.5346118
vn -0.8450978 0 -0.5346118
vn -0.8450978 0 -0.5346118
vn -0.8459444 0 -0.5332711
vn -0.8459444 0 -0.5332711
vn -0.8459444 0 -0.5332711
vn -0.8459444 0 -0.5332711
vn -0.8420995 0 -0.5393221
vn -0.8420995 0 -0.5393221
vn -0.8420995 0 -0.5393221
vn -0.8420995 0 -0.5393221
vn -0.8453976 0 -0.5341375
vn -0.8453976 0 -0.5341375
vn -0.8453976 0 -0.5341375
vn -0.8453976 0 -0.5341375
vn -0.8420995 0 -0.5393221
vn -0.8420995 0 -0.5393221
vn -0.8420995 0 -0.5393221
vn -0.8420995 0 -0.5393221
vn -0.8459444 0 -0.5332711
vn -0.8459444 0 -0.5332711
vn -0.8459444 0 -0.5332711
vn -0.8459444 0 -0.5332711
vn -0.5344798 0 0.8451813
vn -0.5344798 0 0.8451813
vn -0.5344798 0 0.8451813
vn -0.5344798 0 0.8451813
vn -0.5361372 0 0.8441309
vn -0.5361372 0 0.8441309
vn -0.5361372 0 0.8441309
vn -0.5361372 0 0.8441309
vn 0.8450788 0 0.5346417
vn 0.8450788 0 0.5346417
vn 0.8450788 0 0.5346417
vn 0.8450788 0 0.5346417
vn 0.8451586 0 0.5345156
vn 0.8451586 0 0.5345156
vn 0.8451586 0 0.5345156
vn 0.8451586 0 0.5345156
vn 0.8451586 0 0.5345156
vn 0.8451586 0 0.5345156
vn 0.8451586 0 0.5345156
vn 0.8451586 0 0.5345156
vn 0.8451586 0 0.5345156
vn 0.8433813 0 0.5373155
vn 0.8433813 0 0.5373155
vn 0.8433813 0 0.5373155
vn 0.8433813 0 0.5373155
vn 0.8433813 0 0.5373155
vn 0.8433813 0 0.5373155
vn 0.8433813 0 0.5373155
vn 0.844859 0 0.5349891
vn 0.844859 0 0.5349891
vn 0.844859 0 0.5349891
vn 0.844859 0 0.5349891
vn 0.9551625 0 -0.296082
vn 0.9551625 0 -0.296082
vn 0.9551625 0 -0.296082
vn 0.9551625 0 -0.296082
vn 0.5346718 0 -0.8450598
vn 0.5346718 0 -0.8450598
vn 0.5346718 0 -0.8450598
vn 0.5346718 0 -0.8450598
vn -0.2435904 0 -0.9698782
vn -0.2435904 0 -0.9698782
vn -0.2435904 0 -0.9698782
vn -0.2435904 0 -0.9698782
vn 0.5345188 0 -0.8451566
vn 0.5345188 0 -0.8451566
vn 0.5345188 0 -0.8451566
vn 0.5345188 0 -0.8451566
vn 0.8464554 0 0.5324597
vn 0.8464554 0 0.5324597
vn 0.8464554 0 0.5324597
vn 0.8464554 0 0.5324597
vn -0.5323263 0 0.8465393
vn -0.5323263 0 0.8465393
vn -0.5323263 0 0.8465393
vn -0.5323263 0 0.8465393
vn 0.5330995 0 -0.8460526
vn 0.5330995 0 -0.8460526
vn 0.5330995 0 -0.8460526
vn 0.5330995 0 -0.8460526
vn -0.8466651 0 -0.5321261
vn -0.8466651 0 -0.5321261
vn -0.8466651 0 -0.5321261
vn -0.8466651 0 -0.5321261
vn 0.9554905 0 -0.295022
vn 0.9554905 0 -0.295022
vn 0.9554905 0 -0.295022
vn 0.9554905 0 -0.295022
vn 0.534591 0 -0.8451109
vn 0.534591 0 -0.8451109
vn 0.534591 0 -0.8451109
vn 0.534591 0 -0.8451109
vn -0.2302813 0 -0.9731241
vn -0.2302813 0 -0.9731241
vn -0.2302813 0 -0.9731241
vn -0.2302813 0 -0.9731241
vn 0.5346484 0 -0.8450746
vn 0.5346484 0 -0.8450746
vn 0.5346484 0 -0.8450746
vn 0.5346484 0 -0.8450746
vn -0.534064 0 0.8454441
vn -0.534064 0 0.8454441
vn -0.534064 0 0.8454441
vn -0.534064 0 0.8454441
vn -0.534064 0 0.8454441
vn -0.534064 0 0.8454441
vn -0.534064 1.068678E-09 0.8454441
vn -0.534064 1.068678E-09 0.8454441
vn -0.534064 1.068678E-09 0.8454441
vn 0.8448191 0 0.5350521
vn 0.8448191 0 0.5350521
vn 0.8448191 0 0.5350521
vn 0.8448191 0 0.5350521
vn 0.8448191 0 0.5350521
vn 0.8448191 0 0.5350521
vn 0.8448191 -1.04498E-09 0.5350521
vn 0.8448191 -1.04498E-09 0.5350521
vn 0.8448191 -1.04498E-09 0.5350521
vn 0.5144957 0 -0.8574929
vn 0.5144957 0 -0.8574929
vn 0.5144957 0 -0.8574929
vn 0.5144957 0 -0.8574929
vn 0 -1 0
vn 0 -1 0
vn 0 -1 0
vn 0 -1 0
vn 0 -1 0
vn 0 -1 0
vn 0 -1 0
vn 0 -1 0
vn 0 -1 0
vn 0 -1 0
vn 0 -1 0
vn 0 -1 0
vn 0 -1 0
vn 0 -1 0
vn 0 -1 0
vn 0 -1 0
vn 0 -1 0
vn 0 -1 0

g CDNNDG02_0008300
f 1/1/1 2/2/2 3/3/3
f 4/4/4 5/5/5 6/6/6
f 7/7/7 8/8/8 9/9/9
f 10/10/10 11/11/11 12/12/12
f 13/13/13 14/14/14 15/15/15
f 16/16/16 17/17/17 18/18/18
f 19/19/19 20/20/20 21/21/21
f 22/22/22 23/23/23 24/24/24
f 25/25/25 26/26/26 27/27/27
f 28/28/28 29/29/29 30/30/30
f 31/31/31 32/32/32 33/33/33
f 34/34/34 35/35/35 36/36/36
f 37/37/37 38/38/38 39/39/39
f 40/40/40 41/41/41 42/42/42
f 43/43/43 44/44/44 45/45/45
f 46/46/46 47/47/47 48/48/48
f 49/49/49 50/50/50 51/51/51
f 52/52/52 53/53/53 54/54/54
f 55/55/55 56/56/56 57/57/57
f 58/58/58 59/59/59 60/60/60
f 61/61/61 62/62/62 63/63/63
f 64/64/64 65/65/65 66/66/66
f 67/67/67 68/68/68 69/69/69
f 70/70/70 71/71/71 72/72/72
f 73/73/73 74/74/74 75/75/75
f 76/76/76 77/77/77 78/78/78
f 79/79/79 80/80/80 81/81/81
f 82/82/82 83/83/83 84/84/84
f 85/85/85 86/86/86 87/87/87
f 88/88/88 89/89/89 90/90/90
f 91/91/91 92/92/92 93/93/93
f 94/94/94 95/95/95 96/96/96
f 97/97/97 98/98/98 99/99/99
f 100/100/100 102/102/102 103/103/103
f 102/102/102 100/100/100 101/101/101
f 104/104/104 105/105/105 106/106/106
f 107/107/107 108/108/108 109/109/109
f 110/110/110 107/107/107 109/109/109
f 111/111/111 113/113/113 114/114/114
f 111/111/111 112/112/112 113/113/113
f 115/115/115 116/116/116 117/117/117
f 118/118/118 119/119/119 120/120/120
f 121/121/121 122/122/122 123/123/123
f 124/124/124 125/125/125 126/126/126
f 127/127/127 129/129/129 130/130/130
f 127/127/127 128/128/128 129/129/129
f 131/131/131 133/133/133 134/134/134
f 131/131/131 132/132/132 133/133/133
f 135/135/135 137/137/137 138/138/138
f 135/135/135 136/136/136 137/137/137
f 140/140/140 141/141/141 142/142/142
f 139/139/139 140/140/140 142/142/142
f 144/144/144 145/145/145 146/146/146
f 143/143/143 144/144/144 146/146/146
f 147/147/147 149/149/149 150/150/150
f 149/149/149 147/147/147 148/148/148
f 151/151/151 153/153/153 154/154/154
f 153/153/153 151/151/151 152/152/152
f 155/155/155 157/157/157 158/158/158
f 155/155/155 156/156/156 157/157/157
f 159/159/159 160/160/160 161/161/161
f 162/162/162 163/163/163 164/164/164
f 165/165/165 166/166/166 167/167/167
f 168/168/168 169/169/169 170/170/170
f 171/171/171 173/173/173 174/174/174
f 171/171/171 172/172/172 173/173/173
f 176/176/176 177/177/177 175/175/175
f 175/175/175 177/177/177 178/178/178
f 182/182/182 179/179/179 181/181/181
f 181/181/181 179/179/179 180/180/180
f 186/186/186 183/183/183 185/185/185
f 184/184/184 185/185/185 183/183/183
f 187/187/187 189/189/189 190/190/190
f 187/187/187 188/188/188 189/189/189
f 194/194/194 191/191/191 193/193/193
f 192/192/192 193/193/193 191/191/191
f 195/195/195 197/197/197 198/198/198
f 195/195/195 196/196/196 197/197/197
f 202/202/202 199/199/199 201/201/201
f 201/201/201 199/199/199 200/200/200
f 203/203/203 205/205/205 206/206/206
f 203/203/203 204/204/204 205/205/205
f 210/210/210 207/207/207 209/209/209
f 209/209/209 207/207/207 208/208/208
f 214/214/214 211/211/211 213/213/213
f 213/213/213 211/211/211 212/212/212
f 216/216/216 217/217/217 218/218/218
f 215/215/215 216/216/216 218/218/218
f 220/220/220 221/221/221 219/219/219
f 219/219/219 221/221/221 222/222/222
f 223/223/223 225/225/225 226/226/226
f 223/223/223 224/224/224 225/225/225
f 227/227/227 228/228/228 229/229/229
f 230/230/230 231/231/231 232/232/232
f 233/233/233 234/234/234 235/235/235
f 236/236/236 237/237/237 238/238/238
f 239/239/239 240/240/240 241/241/241
f 242/242/242 243/243/243 244/244/244
f 247/247/247 245/245/245 246/246/246
f 245/245/245 247/247/247 248/248/248
f 266/266/266 249/249/249 261/261/261
f 258/258/258 256/256/256 257/257/257
f 265/265/265 266/266/266 263/263/263
f 254/254/254 251/251/251 252/252/252
f 259/259/259 256/256/256 258/258/258
f 264/264/264 265/265/265 263/263/263
f 252/252/252 253/253/253 254/254/254
f 263/263/263 266/266/266 261/261/261
f 262/262/262 263/263/263 261/261/261
f 259/259/259 255/255/255 256/256/256
f 255/255/255 259/259/259 254/254/254
f 261/261/261 249/249/249 250/250/250
f 259/259/259 260/260/260 254/254/254
f 260/260/260 261/261/261 250/250/250
f 251/251/251 254/254/254 260/260/260
f 251/251/251 260/260/260 250/250/250
