v -3.275354 6.004505 -2.463955
v -1.827354 6.004505 -1.584955
v -7.778354 6.004505 8.227045
v -3.204354 6.004505 11.30204
v 7.695646 6.004505 -6.038955
v 5.374646 6.004505 -7.446955
v 5.814646 6.004505 -8.170955
v 1.785646 6.004505 -10.61495
v 1.413646 6.004505 -10.01595
v -3.275354 -6.004505 -2.463955
v -1.827354 -6.004505 -1.584955
v -1.827354 6.004505 -1.584955
v -3.275354 6.004505 -2.463955
v -7.778354 6.004505 8.227045
v -1.827354 6.004505 -1.584955
v -1.827354 -6.004505 -1.584955
v -7.778354 -6.004505 8.227045
v -7.778354 -6.004505 8.227045
v -3.204354 -6.004505 11.30204
v -3.204354 6.004505 11.30204
v -7.778354 6.004505 8.227045
v 2.245646 -6.004505 2.631545
v 7.695646 -6.004505 -6.038955
v 7.695646 6.004505 -6.038955
v -3.204354 6.004505 11.30204
v -3.204354 -6.004505 11.30204
v 2.245646 -6.004505 2.631545
v -3.204354 6.004505 11.30204
v 2.245646 -6.004505 2.631545
v 7.695646 6.004505 -6.038955
v 5.374646 6.004505 -7.446955
v 7.695646 6.004505 -6.038955
v 7.695646 -6.004505 -6.038955
v 5.374646 -6.004505 -7.446955
v 5.374646 -6.004505 -7.446955
v 5.814646 -6.004505 -8.170955
v 5.814646 6.004505 -8.170955
v 5.374646 6.004505 -7.446955
v 1.785646 6.004505 -10.61495
v 5.814646 6.004505 -8.170955
v 5.814646 -6.004505 -8.170955
v 1.785646 -6.004505 -10.61495
v 1.413646 6.004505 -10.01595
v 1.599646 -6.004505 -10.31545
v 1.413646 -6.004505 -10.01595
v 1.599646 -6.004505 -10.31545
v 1.785646 6.004505 -10.61495
v 1.785646 -6.004505 -10.61495
v 1.413646 6.004505 -10.01595
v 1.785646 6.004505 -10.61495
v 1.599646 -6.004505 -10.31545
v -3.275354 6.004505 -2.463955
v 1.413646 6.004505 -10.01595
v 1.413646 -6.004505 -10.01595
v -3.275354 -6.004505 -2.463955
v -3.275354 -6.004505 -2.463955
v 1.413646 -6.004505 -10.01595
v 1.599646 -6.004505 -10.31545
v 1.785646 -6.004505 -10.61495
v 5.814646 -6.004505 -8.170955
v 5.374646 -6.004505 -7.446955
v 7.695646 -6.004505 -6.038955
v 2.245646 -6.004505 2.631545
v -3.204354 -6.004505 11.30204
v -7.778354 -6.004505 8.227045
v -1.827354 -6.004505 -1.584955
vt 0.498724 0.291128
vt 0.468601 0.251845
vt 0.108012 0.402716
vt 0.002079 0.278398
vt 0.639810 0.001536
vt 0.688060 0.064509
vt 0.714671 0.053352
vt 0.798419 0.162662
vt 0.776395 0.172105
vt 0.031264 0.999052
vt 0.002079 0.960935
vt 0.078087 0.920123
vt 0.107708 0.958812
vt 0.073894 0.876810
vt 0.433692 0.726574
vt 0.356565 0.767839
vt 0.002079 0.915856
vt 0.924633 0.889194
vt 0.821206 0.767393
vt 0.890980 0.726574
vt 0.995954 0.850201
vt 0.314406 0.542114
vt 0.626751 0.407066
vt 0.706767 0.448753
vt 0.072791 0.722860
vt 0.002079 0.677154
vt 0.314406 0.542114
vt 0.072791 0.722860
vt 0.314406 0.542114
vt 0.706767 0.448753
vt 0.232848 0.920123
vt 0.232848 0.920123
vt 0.232848 0.920123
vt 0.232848 0.920123
vt 0.112266 0.930747
vt 0.137905 0.920123
vt 0.217687 0.961551
vt 0.191666 0.972334
vt 0.222453 0.920123
vt 0.222453 0.920123
vt 0.222453 0.920123
vt 0.222453 0.920123
vt 0.793059 0.735968
vt 0.722272 0.773735
vt 0.711454 0.778362
vt 0.722272 0.773735
vt 0.815020 0.726574
vt 0.733091 0.769107
vt 0.793059 0.735968
vt 0.815020 0.726574
vt 0.722272 0.773735
vt 0.516187 0.854369
vt 0.793059 0.735968
vt 0.711454 0.778362
vt 0.438669 0.895015
vt 0.243243 0.920123
vt 0.243243 0.920123
vt 0.243243 0.920123
vt 0.243243 0.920123
vt 0.243243 0.920123
vt 0.243243 0.920123
vt 0.243243 0.920123
vt 0.243243 0.920123
vt 0.243243 0.920123
vt 0.243243 0.920123
vt 0.243243 0.920123
vn 0 1 0
vn 0 1 0
vn 0 1 0
vn 0 1 0
vn 0 1 0
vn 0 1 0
vn 0 1 0
vn 0 1 0
vn 0 1 0
vn -0.5189165 0 0.8548249
vn -0.5189165 0 0.8548249
vn -0.5189165 0 0.8548249
vn -0.5189165 0 0.8548249
vn -0.8550304 0 -0.5185779
vn -0.8550304 0 -0.5185779
vn -0.8550304 0 -0.5185779
vn -0.8550304 0 -0.5185779
vn -0.55792 0 0.8298947
vn -0.55792 0 0.8298947
vn -0.55792 0 0.8298947
vn -0.55792 0 0.8298947
vn 0.8466378 0 0.5321695
vn 0.8466378 0 0.5321695
vn 0.8466378 0 0.5321695
vn 0.8466378 0 0.5321695
vn 0.8466378 0 0.5321695
vn 0.8466378 0 0.5321695
vn 0.8466378 0 0.5321695
vn 0.8466378 0 0.5321695
vn 0.8466378 0 0.5321695
vn 0.5186609 0 -0.8549801
vn 0.5186609 0 -0.8549801
vn 0.5186609 0 -0.8549801
vn 0.5186609 0 -0.8549801
vn 0.8545631 0 0.5193477
vn 0.8545631 0 0.5193477
vn 0.8545631 0 0.5193477
vn 0.8545631 0 0.5193477
vn 0.5186403 0 -0.8549926
vn 0.5186403 0 -0.8549926
vn 0.5186403 0 -0.8549926
vn 0.5186403 0 -0.8549926
vn -0.8495086 0 -0.5275747
vn -0.8495086 0 -0.5275747
vn -0.8495086 0 -0.5275747
vn -0.8495086 0 -0.5275747
vn -0.8495086 0 -0.5275747
vn -0.8495086 0 -0.5275747
vn -0.8495086 2.045723E-11 -0.5275747
vn -0.8495086 2.045723E-11 -0.5275747
vn -0.8495086 2.045723E-11 -0.5275747
vn -0.8495619 0 -0.5274889
vn -0.8495619 0 -0.5274889
vn -0.8495619 0 -0.5274889
vn -0.8495619 0 -0.5274889
vn 0 -1 0
vn 0 -1 0
vn 0 -1 0
vn 0 -1 0
vn 0 -1 0
vn 0 -1 0
vn 0 -1 0
vn 0 -1 0
vn 0 -1 0
vn 0 -1 0
vn 0 -1 0

g CDNNDG02_0011700
f 7/7/7 8/8/8 9/9/9
f 6/6/6 7/7/7 9/9/9
f 2/2/2 6/6/6 9/9/9
f 2/2/2 5/5/5 6/6/6
f 2/2/2 4/4/4 5/5/5
f 1/1/1 2/2/2 9/9/9
f 2/2/2 3/3/3 4/4/4
f 13/13/13 10/10/10 12/12/12
f 12/12/12 10/10/10 11/11/11
f 17/17/17 14/14/14 16/16/16
f 16/16/16 14/14/14 15/15/15
f 18/18/18 20/20/20 21/21/21
f 20/20/20 18/18/18 19/19/19
f 22/22/22 23/23/23 24/24/24
f 25/25/25 26/26/26 27/27/27
f 28/28/28 29/29/29 30/30/30
f 33/33/33 31/31/31 32/32/32
f 31/31/31 33/33/33 34/34/34
f 36/36/36 37/37/37 35/35/35
f 35/35/35 37/37/37 38/38/38
f 41/41/41 39/39/39 40/40/40
f 39/39/39 41/41/41 42/42/42
f 43/43/43 44/44/44 45/45/45
f 46/46/46 47/47/47 48/48/48
f 49/49/49 50/50/50 51/51/51
f 52/52/52 54/54/54 55/55/55
f 52/52/52 53/53/53 54/54/54
f 61/61/61 63/63/63 66/66/66
f 57/57/57 61/61/61 66/66/66
f 63/63/63 64/64/64 65/65/65
f 66/66/66 63/63/63 65/65/65
f 61/61/61 62/62/62 63/63/63
f 56/56/56 57/57/57 66/66/66
f 57/57/57 58/58/58 61/61/61
f 58/58/58 59/59/59 60/60/60
f 58/58/58 60/60/60 61/61/61
