v -5.808045 5.444451 -0.4576757
v 2.614387 5.444451 4.660411
v 2.618955 5.444451 4.653324
v -1.025045 5.444451 -7.883676
v 2.618955 5.444451 4.653324
v 7.542955 5.444451 -2.365676
v 2.618955 5.444451 4.653324
v 2.904039 5.444451 4.836424
v 7.542955 5.444451 -2.365676
v -5.808045 5.444451 -0.4576757
v 2.618955 5.444451 4.653324
v -1.025045 5.444451 -7.883676
v -7.567045 5.444451 2.305324
v 0.9859552 5.444451 7.814324
v -7.499045 5.444451 2.167324
v -7.499045 5.444451 2.167324
v 0.9859552 5.444451 7.814324
v 2.445271 5.444451 5.548679
v -6.381045 5.444451 0.4323243
v -6.381045 5.444451 0.4323243
v 2.445271 5.444451 5.548679
v 2.159955 5.444451 5.365324
v -5.808045 5.444451 -0.4576757
v 2.159955 5.444451 5.365324
v 2.614387 5.444451 4.660411
v -6.381045 5.444451 0.4323243
v 2.159955 5.444451 5.365324
v -5.808045 5.444451 -0.4576757
v 2.445271 6.611451 5.548679
v 3.130955 6.611451 5.989324
v 3.588955 6.611451 5.276324
v 2.904039 6.611451 4.836424
v 2.445271 6.611451 5.548679
v 2.904039 6.611451 4.836424
v 2.618955 6.611451 4.653324
v 2.159955 6.611451 5.365324
v -7.567045 5.444451 2.305324
v -7.499045 5.444451 2.167324
v -7.499045 -5.454618 2.167324
v -7.567045 -5.454618 2.305324
v -5.808045 5.444451 -0.4576757
v -1.025045 5.444451 -7.883676
v -1.025045 -5.454618 -7.883676
v -5.808045 -5.454618 -0.4576757
v -6.381045 5.444451 0.4323243
v -5.808045 5.444451 -0.4576757
v -5.808045 -5.454618 -0.4576757
v -6.381045 -5.454618 0.4323243
v -7.499045 5.444451 2.167324
v -6.381045 5.444451 0.4323243
v -6.381045 -5.454618 0.4323243
v -7.499045 -5.454618 2.167324
v -7.567045 -5.454618 2.305324
v 0.9859552 -5.454618 7.814324
v 0.9859552 5.444451 7.814324
v -7.567045 5.444451 2.305324
v 0.9859552 -5.454618 7.814324
v 2.445271 -5.454618 5.548679
v 2.445271 5.444451 5.548679
v 0.9859552 5.444451 7.814324
v 2.904039 -5.454618 4.836424
v 7.542955 -5.454618 -2.365676
v 7.542955 5.444451 -2.365676
v 2.904039 5.444451 4.836424
v -1.025045 5.444451 -7.883676
v 7.542955 5.444451 -2.365676
v 7.542955 -5.454618 -2.365676
v -1.025045 -5.454618 -7.883676
v 2.788113 -5.454618 5.769001
v 3.130955 -5.454618 5.989324
v 3.130955 6.611451 5.989324
v 2.445271 6.611451 5.548679
v 2.788113 -5.454618 5.769001
v 3.130955 6.611451 5.989324
v 2.445271 6.611451 5.548679
v 2.445271 5.444451 5.548679
v 2.788113 -5.454618 5.769001
v 2.445271 5.444451 5.548679
v 2.445271 -5.454618 5.548679
v 2.788113 -5.454618 5.769001
v 2.159955 5.444451 5.365324
v 2.445271 5.444451 5.548679
v 2.445271 6.611451 5.548679
v 2.159955 6.611451 5.365324
v 3.130955 -5.454618 5.989324
v 3.588955 -5.454618 5.276324
v 3.588955 6.611451 5.276324
v 3.130955 6.611451 5.989324
v 2.904039 6.611451 4.836424
v 3.246497 -5.454618 5.056374
v 2.904039 5.444451 4.836424
v 2.904039 5.444451 4.836424
v 3.246497 -5.454618 5.056374
v 2.904039 -5.454618 4.836424
v 3.246497 -5.454618 5.056374
v 3.588955 6.611451 5.276324
v 3.588955 -5.454618 5.276324
v 2.904039 6.611451 4.836424
v 3.588955 6.611451 5.276324
v 3.246497 -5.454618 5.056374
v 2.618955 6.611451 4.653324
v 2.904039 6.611451 4.836424
v 2.904039 5.444451 4.836424
v 2.618955 5.444451 4.653324
v 2.159955 6.611451 5.365324
v 2.618955 6.611451 4.653324
v 2.614387 5.444451 4.660411
v 2.159955 5.444451 5.365324
v 2.614387 5.444451 4.660411
v 2.618955 6.611451 4.653324
v 2.618955 5.444451 4.653324
v 0.9859552 -5.454618 7.814324
v -7.567045 -5.454618 2.305324
v -7.499045 -5.454618 2.167324
v -6.381045 -5.454618 0.4323243
v -5.808045 -5.454618 -0.4576757
v -1.025045 -5.454618 -7.883676
v 7.542955 -5.454618 -2.365676
v 2.904039 -5.454618 4.836424
v 3.246497 -5.454618 5.056374
v 3.588955 -5.454618 5.276324
v 3.130955 -5.454618 5.989324
v 2.788113 -5.454618 5.769001
v 2.445271 -5.454618 5.548679
vt 0.302520 0.351546
vt 0.116572 0.131086
vt 0.116829 0.130966
vt 0.572058 0.225779
vt 0.116829 0.130966
vt 0.371595 0.001511
vt 0.116829 0.130966
vt 0.110177 0.123504
vt 0.371595 0.001511
vt 0.302520 0.351546
vt 0.116829 0.130966
vt 0.572058 0.225779
vt 0.202238 0.397798
vt 0.002092 0.173943
vt 0.207246 0.396009
vt 0.207246 0.396009
vt 0.002092 0.173943
vt 0.084325 0.135568
vt 0.270218 0.366613
vt 0.270218 0.366613
vt 0.084325 0.135568
vt 0.090987 0.143036
vt 0.302520 0.351546
vt 0.090987 0.143036
vt 0.116572 0.131086
vt 0.270218 0.366613
vt 0.090987 0.143036
vt 0.302520 0.351546
vt 0.180693 0.929246
vt 0.165272 0.911925
vt 0.190200 0.900302
vt 0.205595 0.917603
vt 0.180693 0.929246
vt 0.205595 0.917603
vt 0.212003 0.924805
vt 0.187110 0.936453
vt 0.885980 0.474458
vt 0.881001 0.476172
vt 0.716241 0.403504
vt 0.721153 0.401813
vt 0.786110 0.519033
vt 0.517679 0.640261
vt 0.357741 0.565421
vt 0.622609 0.445798
vt 0.818282 0.504510
vt 0.786110 0.519033
vt 0.622609 0.445798
vt 0.654354 0.431467
vt 0.881001 0.476172
vt 0.818282 0.504510
vt 0.654354 0.431467
vt 0.716241 0.403504
vt 0.779083 0.303921
vt 0.577406 0.081438
vt 0.705254 0.001511
vt 0.909701 0.227060
vt 0.391213 0.739139
vt 0.472469 0.703928
vt 0.591748 0.783090
vt 0.509399 0.818774
vt 0.002092 0.816438
vt 0.261680 0.703928
vt 0.385389 0.781836
vt 0.122308 0.895857
vt 0.162435 0.401813
vt 0.353067 0.627031
vt 0.190200 0.700699
vt 0.002092 0.478474
vt 0.807179 0.801445
vt 0.799163 0.792606
vt 0.941012 0.703928
vt 0.957287 0.721875
vt 0.807179 0.801445
vt 0.941012 0.703928
vt 0.957287 0.721875
vt 0.943355 0.730543
vt 0.807179 0.801445
vt 0.943355 0.730543
vt 0.815194 0.810283
vt 0.807179 0.801445
vt 0.950117 0.738000
vt 0.943355 0.730543
vt 0.957287 0.721875
vt 0.964059 0.729343
vt 0.002092 0.911328
vt 0.027593 0.900302
vt 0.159639 0.987453
vt 0.133757 0.998643
vt 0.779830 0.711366
vt 0.603697 0.802833
vt 0.761834 0.719469
vt 0.761834 0.719469
vt 0.603697 0.802833
vt 0.596234 0.794028
vt 0.603697 0.802833
vt 0.794977 0.729239
vt 0.611160 0.811637
vt 0.779830 0.711366
vt 0.794977 0.729239
vt 0.603697 0.802833
vt 0.773525 0.703928
vt 0.779830 0.711366
vt 0.761834 0.719469
vt 0.755538 0.712041
vt 0.259546 0.908017
vt 0.234846 0.918903
vt 0.217819 0.911064
vt 0.242238 0.900302
vt 0.217819 0.911064
vt 0.234846 0.918903
vt 0.217573 0.911173
vt 0.265690 0.900302
vt 0.265690 0.900302
vt 0.265690 0.900302
vt 0.265690 0.900302
vt 0.265690 0.900302
vt 0.265690 0.900302
vt 0.265690 0.900302
vt 0.265690 0.900302
vt 0.265690 0.900302
vt 0.265690 0.900302
vt 0.265690 0.900302
vt 0.265690 0.900302
vt 0.265690 0.900302
vn 0 1 0
vn 0 1 0
vn 0 1 0
vn 0 1 0
vn 0 1 0
vn 0 1 0
vn 0 1 0
vn 0 1 0
vn 0 1 0
vn 0 1 0
vn 0 1 0
vn 0 1 0
vn 0 1 0
vn 0 1 0
vn 0 1 0
vn 0 1 0
vn 0 1 0
vn 0 1 0
vn 0 1 0
vn 0 1 0
vn 0 1 0
vn 0 1 0
vn 0 1 0
vn 0 1 0
vn 0 1 0
vn 0 1 0
vn 0 1 0
vn 0 1 0
vn 0 1 0
vn 0 1 0
vn 0 1 0
vn 0 1 0
vn 0 1 0
vn 0 1 0
vn 0 1 0
vn 0 1 0
vn -0.8970121 0 -0.442006
vn -0.8970121 0 -0.442006
vn -0.8970121 0 -0.442006
vn -0.8970121 0 -0.442006
vn -0.8407073 0 -0.5414898
vn -0.8407073 0 -0.5414898
vn -0.8407073 0 -0.5414898
vn -0.8407073 0 -0.5414898
vn -0.8408099 0 -0.5413305
vn -0.8408099 0 -0.5413305
vn -0.8408099 0 -0.5413305
vn -0.8408099 0 -0.5413305
vn -0.8405955 0 -0.5416633
vn -0.8405955 0 -0.5416633
vn -0.8405955 0 -0.5416633
vn -0.8405955 0 -0.5416633
vn -0.5414976 0 0.8407023
vn -0.5414976 0 0.8407023
vn -0.5414976 0 0.8407023
vn -0.5414976 0 0.8407023
vn 0.8407005 0 0.5415003
vn 0.8407005 0 0.5415003
vn 0.8407005 0 0.5415003
vn 0.8407005 0 0.5415003
vn 0.8407005 0 0.5415003
vn 0.8407005 0 0.5415003
vn 0.8407005 0 0.5415003
vn 0.8407005 0 0.5415003
vn 0.5414517 0 -0.8407319
vn 0.5414517 0 -0.8407319
vn 0.5414517 0 -0.8407319
vn 0.5414517 0 -0.8407319
vn -0.5406262 0 0.8412629
vn -0.5406262 0 0.8412629
vn -0.5406262 0 0.8412629
vn -0.5406262 -3.116253E-11 0.8412629
vn -0.5406262 -3.116253E-11 0.8412629
vn -0.5406262 -3.116253E-11 0.8412629
vn -0.5406262 0 0.8412629
vn -0.5406262 0 0.8412629
vn -0.5406262 0 0.8412629
vn -0.5406262 0 0.8412629
vn -0.5406262 0 0.8412629
vn -0.5406262 0 0.8412629
vn -0.5406262 0 0.8412629
vn -0.5406262 0 0.8412629
vn -0.5406262 0 0.8412629
vn -0.5406262 0 0.8412629
vn 0.8413701 0 0.5404593
vn 0.8413701 0 0.5404593
vn 0.8413701 0 0.5404593
vn 0.8413701 0 0.5404593
vn 0.5404068 0 -0.8414039
vn 0.5404068 0 -0.8414039
vn 0.5404068 0 -0.8414039
vn 0.5404068 0 -0.8414039
vn 0.5404068 0 -0.8414039
vn 0.5404068 0 -0.8414039
vn 0.5404068 0 -0.8414038
vn 0.5404068 0 -0.8414038
vn 0.5404068 0 -0.8414038
vn 0.5404068 1.005209E-10 -0.8414039
vn 0.5404068 1.005209E-10 -0.8414039
vn 0.5404068 1.005209E-10 -0.8414039
vn 0.5404068 0 -0.8414038
vn 0.5404068 0 -0.8414038
vn 0.5404068 0 -0.8414038
vn 0.5404068 0 -0.8414038
vn -0.8404874 2.349327E-09 -0.5418311
vn -0.8404874 4.698654E-09 -0.5418311
vn -0.8404874 2.349327E-09 -0.5418311
vn -0.8404874 0 -0.5418311
vn -0.8404871 0 -0.5418316
vn -0.8404871 0 -0.5418316
vn -0.8404871 0 -0.5418316
vn 0 -1 0
vn 0 -1 0
vn 0 -1 0
vn 0 -1 0
vn 0 -1 0
vn 0 -1 0
vn 0 -1 0
vn 0 -1 0
vn 0 -1 0
vn 0 -1 0
vn 0 -1 0
vn 0 -1 0
vn 0 -1 0

g CDNNDG02_0015310
f 1/1/1 2/2/2 3/3/3
f 4/4/4 5/5/5 6/6/6
f 7/7/7 8/8/8 9/9/9
f 10/10/10 11/11/11 12/12/12
f 13/13/13 14/14/14 15/15/15
f 19/19/19 16/16/16 17/17/17
f 18/18/18 19/19/19 17/17/17
f 20/20/20 21/21/21 22/22/22
f 23/23/23 24/24/24 25/25/25
f 26/26/26 27/27/27 28/28/28
f 30/30/30 31/31/31 32/32/32
f 29/29/29 30/30/30 32/32/32
f 36/36/36 33/33/33 35/35/35
f 34/34/34 35/35/35 33/33/33
f 37/37/37 39/39/39 40/40/40
f 37/37/37 38/38/38 39/39/39
f 44/44/44 41/41/41 43/43/43
f 43/43/43 41/41/41 42/42/42
f 45/45/45 47/47/47 48/48/48
f 45/45/45 46/46/46 47/47/47
f 49/49/49 50/50/50 51/51/51
f 52/52/52 49/49/49 51/51/51
f 56/56/56 53/53/53 55/55/55
f 55/55/55 53/53/53 54/54/54
f 58/58/58 59/59/59 57/57/57
f 57/57/57 59/59/59 60/60/60
f 61/61/61 63/63/63 64/64/64
f 61/61/61 62/62/62 63/63/63
f 68/68/68 65/65/65 67/67/67
f 66/66/66 67/67/67 65/65/65
f 69/69/69 70/70/70 71/71/71
f 72/72/72 73/73/73 74/74/74
f 75/75/75 76/76/76 77/77/77
f 78/78/78 79/79/79 80/80/80
f 84/84/84 81/81/81 83/83/83
f 83/83/83 81/81/81 82/82/82
f 86/86/86 87/87/87 85/85/85
f 85/85/85 87/87/87 88/88/88
f 89/89/89 90/90/90 91/91/91
f 92/92/92 93/93/93 94/94/94
f 95/95/95 96/96/96 97/97/97
f 98/98/98 99/99/99 100/100/100
f 101/101/101 103/103/103 104/104/104
f 101/101/101 102/102/102 103/103/103
f 108/108/108 105/105/105 107/107/107
f 107/107/107 105/105/105 106/106/106
f 109/109/109 110/110/110 111/111/111
f 124/124/124 115/115/115 116/116/116
f 124/124/124 119/119/119 123/123/123
f 123/123/123 119/119/119 120/120/120
f 113/113/113 114/114/114 112/112/112
f 114/114/114 115/115/115 112/112/112
f 124/124/124 116/116/116 119/119/119
f 119/119/119 117/117/117 118/118/118
f 120/120/120 121/121/121 122/122/122
f 117/117/117 119/119/119 116/116/116
f 124/124/124 112/112/112 115/115/115
f 123/123/123 120/120/120 122/122/122
