v -0.9124482 4.110488 -6.833259
v 1.586552 4.110488 -5.469259
v 2.305552 4.110488 -6.785259
v -0.1934482 4.110488 -8.150259
v -7.127448 5.315425 2.921741
v 1.551552 5.316425 7.659741
v 1.586552 5.315792 -5.469259
v -7.127448 5.315425 2.921741
v -0.9124482 5.315504 -6.833259
v -1.598448 5.315425 -7.208259
v -7.127448 5.315425 2.921741
v 1.586552 5.315792 -5.469259
v -0.9124482 5.315504 -6.833259
v 1.551552 5.316425 7.659741
v 7.081552 5.316425 -2.470259
v 1.586552 5.315792 -5.469259
v 1.946052 -5.277227 -6.127259
v 2.305552 -5.277227 -6.785259
v 2.305552 4.110488 -6.785259
v 1.586552 4.110488 -5.469259
v 1.586552 -5.277227 -5.469259
v 1.946052 -5.277227 -6.127259
v 1.586552 4.110488 -5.469259
v 1.946052 -5.277227 -6.127259
v 2.305552 4.110488 -6.785259
v -0.1934482 4.110488 -8.150259
v 2.305552 4.110488 -6.785259
v 2.305552 -5.277227 -6.785259
v -0.1934482 -5.277227 -8.150259
v -0.9124482 4.110488 -6.833259
v -0.1934482 4.110488 -8.150259
v -0.1934482 -5.277227 -8.150259
v -0.9124482 -5.277227 -6.833259
v -7.127448 -5.277227 2.921741
v 1.551552 -5.277227 7.659741
v 1.551552 5.316425 7.659741
v -7.127448 5.315425 2.921741
v 1.551552 -5.277227 7.659741
v 7.081552 -5.277227 -2.470259
v 7.081552 5.316425 -2.470259
v 1.551552 5.316425 7.659741
v 1.586552 5.315792 -5.469259
v 4.334052 -5.277227 -3.969759
v 1.586552 4.110488 -5.469259
v 1.586552 4.110488 -5.469259
v 4.334052 -5.277227 -3.969759
v 1.586552 -5.277227 -5.469259
v 4.334052 -5.277227 -3.969759
v 7.081552 5.316425 -2.470259
v 7.081552 -5.277227 -2.470259
v 1.586552 5.315792 -5.469259
v 7.081552 5.316425 -2.470259
v 4.334052 -5.277227 -3.969759
v -1.598448 5.315425 -7.208259
v -0.9124482 4.110488 -6.833259
v -0.9124482 -5.277227 -6.833259
v -1.598448 -5.277227 -7.208259
v -1.598448 5.315425 -7.208259
v -0.9124482 5.315504 -6.833259
v -0.9124482 4.110488 -6.833259
v -0.9124482 5.315504 -6.833259
v 1.586552 5.315792 -5.469259
v 1.586552 4.110488 -5.469259
v -0.9124482 4.110488 -6.833259
v -7.127448 5.315425 2.921741
v -4.362948 -5.277227 -2.143259
v -7.127448 -5.277227 2.921741
v -4.362948 -5.277227 -2.143259
v -1.598448 5.315425 -7.208259
v -1.598448 -5.277227 -7.208259
v -7.127448 5.315425 2.921741
v -1.598448 5.315425 -7.208259
v -4.362948 -5.277227 -2.143259
v -0.9124482 -5.277227 -6.833259
v -0.1934482 -5.277227 -8.150259
v 2.305552 -5.277227 -6.785259
v 1.946052 -5.277227 -6.127259
v 1.586552 -5.277227 -5.469259
v 4.334052 -5.277227 -3.969759
v 7.081552 -5.277227 -2.470259
v 1.551552 -5.277227 7.659741
v -7.127448 -5.277227 2.921741
v -4.362948 -5.277227 -2.143259
v -1.598448 -5.277227 -7.208259
vt 0.801692 0.826213
vt 0.748235 0.752598
vt 0.799994 0.731579
vt 0.853489 0.805195
vt 0.191729 0.425669
vt 0.002353 0.165975
vt 0.528471 0.166191
vt 0.191729 0.425669
vt 0.582985 0.240970
vt 0.597973 0.261497
vt 0.191729 0.425669
vt 0.528471 0.166191
vt 0.582985 0.240970
vt 0.002353 0.165975
vt 0.408606 0.001754
vt 0.528471 0.166191
vt 0.354946 0.984936
vt 0.329223 0.995538
vt 0.188235 0.961800
vt 0.240274 0.940351
vt 0.380669 0.974334
vt 0.354946 0.984936
vt 0.240274 0.940351
vt 0.354946 0.984936
vt 0.188235 0.961800
vt 0.616336 0.839989
vt 0.562353 0.766200
vt 0.689584 0.731579
vt 0.742952 0.804530
vt 0.002353 0.960852
vt 0.054903 0.940351
vt 0.181504 0.979444
vt 0.129550 0.999713
vt 0.760323 0.001754
vt 0.952541 0.256823
vt 0.799423 0.303467
vt 0.604706 0.045069
vt 0.898677 0.469173
vt 0.499508 0.635942
vt 0.341176 0.598769
vt 0.745541 0.429825
vt 0.121848 0.631670
vt 0.208174 0.510850
vt 0.138571 0.627090
vt 0.138571 0.627090
vt 0.208174 0.510850
vt 0.267149 0.591874
vt 0.208174 0.510850
vt 0.002353 0.467520
vt 0.149197 0.429825
vt 0.121848 0.631670
vt 0.002353 0.467520
vt 0.208174 0.510850
vt 0.191136 0.726810
vt 0.192833 0.701630
vt 0.320793 0.665568
vt 0.335542 0.685797
vt 0.191136 0.726810
vt 0.176195 0.706319
vt 0.192833 0.701630
vt 0.176195 0.706319
vt 0.121848 0.631670
vt 0.138571 0.627090
vt 0.192833 0.701630
vt 0.002353 0.892720
vt 0.353912 0.855675
vt 0.152379 0.935209
vt 0.353912 0.855675
vt 0.410656 0.731579
vt 0.555455 0.776136
vt 0.002353 0.892720
vt 0.410656 0.731579
vt 0.353912 0.855675
vt 0.385882 0.940351
vt 0.385882 0.940351
vt 0.385882 0.940351
vt 0.385882 0.940351
vt 0.385882 0.940351
vt 0.385882 0.940351
vt 0.385882 0.940351
vt 0.385882 0.940351
vt 0.385882 0.940351
vt 0.385882 0.940351
vt 0.385882 0.940351
vn 0 1 0
vn 0 1 0
vn 0 1 0
vn 0 1 0
vn -8.875874E-05 1 -4.845354E-05
vn -8.875874E-05 1 -4.845354E-05
vn -8.875874E-05 1 -4.845354E-05
vn -8.876023E-05 1 -4.845462E-05
vn -8.876023E-05 1 -4.845462E-05
vn -8.876023E-05 1 -4.845462E-05
vn -8.875906E-05 1 -4.845388E-05
vn -8.875906E-05 1 -4.845388E-05
vn -8.875906E-05 1 -4.845388E-05
vn -8.875848E-05 1 -4.845354E-05
vn -8.875848E-05 1 -4.845354E-05
vn -8.875848E-05 1 -4.845354E-05
vn 0.8775641 0 0.4794594
vn 0.8775641 0 0.4794594
vn 0.8775641 0 0.4794594
vn 0.8775641 0 0.4794594
vn 0.8775641 0 0.4794594
vn 0.8775641 0 0.4794594
vn 0.8775641 2.720627E-12 0.4794594
vn 0.8775641 2.720627E-12 0.4794594
vn 0.8775641 2.720627E-12 0.4794594
vn 0.4793687 0 -0.8776136
vn 0.4793687 0 -0.8776136
vn 0.4793687 0 -0.8776136
vn 0.4793687 0 -0.8776136
vn -0.8777172 0 -0.479179
vn -0.8777172 0 -0.479179
vn -0.8777172 0 -0.479179
vn -0.8777172 0 -0.479179
vn -0.4791639 0 0.8777255
vn -0.4791639 0 0.8777255
vn -0.4791639 0 0.8777255
vn -0.4791639 0 0.8777255
vn 0.87773 0 0.4791556
vn 0.87773 0 0.4791556
vn 0.87773 0 0.4791556
vn 0.87773 0 0.4791556
vn 0.4790648 4.454019E-09 -0.8777795
vn 0.4790648 4.454019E-09 -0.8777795
vn 0.4790648 4.454019E-09 -0.8777795
vn 0.4790648 0 -0.8777795
vn 0.4790648 0 -0.8777795
vn 0.4790648 0 -0.8777795
vn 0.4790648 0 -0.8777795
vn 0.4790648 0 -0.8777795
vn 0.4790648 0 -0.8777795
vn 0.4790648 -4.257554E-10 -0.8777795
vn 0.4790648 -4.257554E-10 -0.8777795
vn 0.4790648 -4.257554E-10 -0.8777795
vn 0.4796585 0 -0.8774552
vn 0.4796585 0 -0.8774552
vn 0.4796585 0 -0.8774552
vn 0.4796585 0 -0.8774552
vn 0.4796585 0 -0.8774552
vn 0.4796585 0 -0.8774552
vn 0.4796585 0 -0.8774552
vn 0.4790982 2.227503E-09 -0.8777613
vn 0.4790982 4.455006E-09 -0.8777613
vn 0.4790982 2.227503E-09 -0.8777613
vn 0.4790982 0 -0.8777613
vn -0.8777664 0 -0.4790889
vn -0.8777664 0 -0.4790889
vn -0.8777664 0 -0.4790889
vn -0.8777664 0 -0.4790889
vn -0.8777664 0 -0.4790889
vn -0.8777664 0 -0.4790889
vn -0.8777664 -2.347283E-11 -0.4790889
vn -0.8777664 -2.347283E-11 -0.4790889
vn -0.8777664 -2.347283E-11 -0.4790889
vn 0 -1 0
vn 0 -1 0
vn 0 -1 0
vn 0 -1 0
vn 0 -1 0
vn 0 -1 0
vn 0 -1 0
vn 0 -1 0
vn 0 -1 0
vn 0 -1 0
vn 0 -1 0

g CDNNDG01_0001230
f 1/1/1 2/2/2 4/4/4
f 4/4/4 2/2/2 3/3/3
f 5/5/5 6/6/6 7/7/7
f 8/8/8 9/9/9 10/10/10
f 11/11/11 12/12/12 13/13/13
f 14/14/14 15/15/15 16/16/16
f 17/17/17 18/18/18 19/19/19
f 20/20/20 21/21/21 22/22/22
f 23/23/23 24/24/24 25/25/25
f 27/27/27 28/28/28 29/29/29
f 26/26/26 27/27/27 29/29/29
f 30/30/30 32/32/32 33/33/33
f 30/30/30 31/31/31 32/32/32
f 35/35/35 36/36/36 37/37/37
f 37/37/37 34/34/34 35/35/35
f 41/41/41 38/38/38 40/40/40
f 39/39/39 40/40/40 38/38/38
f 42/42/42 43/43/43 44/44/44
f 45/45/45 46/46/46 47/47/47
f 48/48/48 49/49/49 50/50/50
f 51/51/51 52/52/52 53/53/53
f 56/56/56 57/57/57 55/55/55
f 54/54/54 55/55/55 57/57/57
f 58/58/58 59/59/59 60/60/60
f 61/61/61 63/63/63 64/64/64
f 61/61/61 62/62/62 63/63/63
f 65/65/65 66/66/66 67/67/67
f 68/68/68 69/69/69 70/70/70
f 71/71/71 72/72/72 73/73/73
f 83/83/83 78/78/78 79/79/79
f 83/83/83 84/84/84 74/74/74
f 83/83/83 74/74/74 78/78/78
f 81/81/81 82/82/82 83/83/83
f 76/76/76 77/77/77 75/75/75
f 81/81/81 83/83/83 79/79/79
f 77/77/77 74/74/74 75/75/75
f 78/78/78 74/74/74 77/77/77
f 79/79/79 80/80/80 81/81/81
