v 0.380233 5.435739 4.163312
v 1.009233 5.435739 -7.126688
v 0.433233 5.435739 -7.496688
v 1.009233 5.435739 -7.126688
v 6.104233 5.435739 -3.525688
v 6.577233 5.435739 -4.262688
v 1.330233 5.435739 -7.627688
v -5.648767 5.435739 6.026312
v -3.065767 5.435739 7.683312
v -2.460767 5.435739 6.740312
v -5.114767 5.435739 5.192312
v -6.948767 5.435739 4.015312
v -5.114767 5.435739 5.192312
v 0.380233 5.435739 4.163312
v 0.380233 5.435739 4.163312
v 6.104233 5.435739 -3.525688
v 1.009233 5.435739 -7.126688
v -2.460767 5.435739 6.740312
v -1.618767 5.435739 7.280312
v 0.380233 5.435739 4.163312
v -5.114767 5.435739 5.192312
v -2.460767 5.435739 6.740312
v 0.380233 5.435739 4.163312
v 1.624233 5.435739 4.961312
v 6.787233 5.435739 -3.088688
v 6.104233 5.435739 -3.525688
v 0.380233 5.435739 4.163312
v -6.948767 5.435739 4.015312
v -0.8557671 5.435739 2.406312
v 0.433233 5.435739 -7.496688
v -6.948767 5.435739 4.015312
v 0.380233 5.435739 4.163312
v -0.8557671 5.435739 2.406312
v -0.8557671 5.435739 2.406312
v -0.4337671 5.435739 1.731312
v 0.433233 5.435739 -7.496688
v -0.173767 5.435739 2.833312
v 0.380233 5.435739 4.163312
v 0.2492329 5.435739 2.158312
v -0.8557671 5.435739 2.406312
v 0.380233 5.435739 4.163312
v -0.173767 5.435739 2.833312
v -0.4337671 5.435739 1.731312
v 0.2492329 5.435739 2.158312
v 0.433233 5.435739 -7.496688
v 0.2492329 5.435739 2.158312
v 0.380233 5.435739 4.163312
v 0.433233 5.435739 -7.496688
v -0.8557671 6.584739 2.406312
v -0.173767 6.584739 2.833312
v 0.2492329 6.584739 2.158312
v -0.4337671 6.584739 1.731312
v -5.648767 -5.443388 6.026312
v -3.065767 -5.443388 7.683312
v -3.065767 5.435739 7.683312
v -5.648767 5.435739 6.026312
v -2.763267 -5.443388 7.211812
v -2.460767 -5.443388 6.740312
v -2.460767 5.435739 6.740312
v -3.065767 5.435739 7.683312
v -3.065767 -5.443388 7.683312
v -2.763267 -5.443388 7.211812
v -3.065767 5.435739 7.683312
v -2.763267 -5.443388 7.211812
v -2.460767 5.435739 6.740312
v -2.460767 -5.443388 6.740312
v -1.618767 -5.443388 7.280312
v -1.618767 5.435739 7.280312
v -2.460767 5.435739 6.740312
v -1.618767 -5.443388 7.280312
v 0.380233 -5.443388 4.163312
v 0.380233 5.435739 4.163312
v -1.618767 5.435739 7.280312
v 0.380233 -5.443388 4.163312
v 1.624233 -5.443388 4.961312
v 1.624233 5.435739 4.961312
v 0.380233 5.435739 4.163312
v 1.624233 -5.443388 4.961312
v 6.787233 -5.443388 -3.088688
v 6.787233 5.435739 -3.088688
v 1.624233 5.435739 4.961312
v 6.104233 5.435739 -3.525688
v 6.787233 5.435739 -3.088688
v 6.787233 -5.443388 -3.088688
v 6.104233 -5.443388 -3.525688
v 6.104233 -5.443388 -3.525688
v 6.577233 -5.443388 -4.262688
v 6.577233 5.435739 -4.262688
v 6.104233 5.435739 -3.525688
v 1.330233 5.435739 -7.627688
v 6.577233 5.435739 -4.262688
v 6.577233 -5.443388 -4.262688
v 1.330233 -5.443388 -7.627688
v 1.009233 5.435739 -7.126688
v 1.330233 5.435739 -7.627688
v 1.330233 -5.443388 -7.627688
v 1.009233 -5.443388 -7.126688
v 0.433233 5.435739 -7.496688
v 1.009233 5.435739 -7.126688
v 1.009233 -5.443388 -7.126688
v 0.433233 -5.443388 -7.496688
v -6.948767 5.435739 4.015312
v -3.257767 -5.443388 -1.740688
v -6.948767 -5.443388 4.015312
v -3.257767 -5.443388 -1.740688
v 0.433233 5.435739 -7.496688
v 0.433233 -5.443388 -7.496688
v -6.948767 5.435739 4.015312
v 0.433233 5.435739 -7.496688
v -3.257767 -5.443388 -1.740688
v -6.948767 -5.443388 4.015312
v -5.114767 -5.443388 5.192312
v -5.114767 5.435739 5.192312
v -6.948767 5.435739 4.015312
v -5.648767 5.435739 6.026312
v -5.381767 -5.443388 5.609312
v -5.648767 -5.443388 6.026312
v -5.381767 -5.443388 5.609312
v -5.114767 5.435739 5.192312
v -5.114767 -5.443388 5.192312
v -5.648767 5.435739 6.026312
v -5.114767 5.435739 5.192312
v -5.381767 -5.443388 5.609312
v -0.8557671 5.435739 2.406312
v -0.173767 5.435739 2.833312
v -0.173767 6.584739 2.833312
v -0.8557671 6.584739 2.406312
v -0.173767 5.435739 2.833312
v 0.2492329 5.435739 2.158312
v 0.2492329 6.584739 2.158312
v -0.173767 6.584739 2.833312
v -0.4337671 6.584739 1.731312
v 0.2492329 6.584739 2.158312
v 0.2492329 5.435739 2.158312
v -0.4337671 5.435739 1.731312
v -0.8557671 6.584739 2.406312
v -0.4337671 6.584739 1.731312
v -0.4337671 5.435739 1.731312
v -0.8557671 5.435739 2.406312
v -5.381767 -5.443388 5.609312
v -5.114767 -5.443388 5.192312
v -6.948767 -5.443388 4.015312
v -3.257767 -5.443388 -1.740688
v 0.433233 -5.443388 -7.496688
v 1.009233 -5.443388 -7.126688
v 1.330233 -5.443388 -7.627688
v 6.577233 -5.443388 -4.262688
v 6.104233 -5.443388 -3.525688
v 6.787233 -5.443388 -3.088688
v 1.624233 -5.443388 4.961312
v 0.380233 -5.443388 4.163312
v -1.618767 -5.443388 7.280312
v -2.460767 -5.443388 6.740312
v -2.763267 -5.443388 7.211812
v -3.065767 -5.443388 7.683312
v -5.648767 -5.443388 6.026312
vt 0.131351 0.160719
vt 0.548149 0.143856
vt 0.561936 0.158059
vt 0.548149 0.143856
vt 0.414077 0.018254
vt 0.441193 0.006469
vt 0.566583 0.135858
vt 0.063853 0.310043
vt 0.002105 0.246354
vt 0.036798 0.231282
vt 0.094536 0.296740
vt 0.138395 0.341961
vt 0.094536 0.296740
vt 0.131351 0.160719
vt 0.131351 0.160719
vt 0.414077 0.018254
vt 0.548149 0.143856
vt 0.036798 0.231282
vt 0.016675 0.210520
vt 0.131351 0.160719
vt 0.094536 0.296740
vt 0.036798 0.231282
vt 0.131351 0.160719
vt 0.101613 0.130043
vt 0.397792 0.001410
vt 0.414077 0.018254
vt 0.131351 0.160719
vt 0.138395 0.341961
vt 0.196501 0.191085
vt 0.561936 0.158059
vt 0.138395 0.341961
vt 0.131351 0.160719
vt 0.196501 0.191085
vt 0.196501 0.191085
vt 0.221338 0.180570
vt 0.561936 0.158059
vt 0.180586 0.174267
vt 0.131351 0.160719
vt 0.205422 0.163727
vt 0.196501 0.191085
vt 0.131351 0.160719
vt 0.180586 0.174267
vt 0.221338 0.180570
vt 0.205422 0.163727
vt 0.561936 0.158059
vt 0.205422 0.163727
vt 0.131351 0.160719
vt 0.561936 0.158059
vt 0.661514 0.938689
vt 0.646316 0.922622
vt 0.670032 0.912553
vt 0.685230 0.928643
vt 0.630954 0.596615
vt 0.690202 0.658255
vt 0.525314 0.722791
vt 0.465263 0.660319
vt 0.829182 0.886462
vt 0.812400 0.893611
vt 0.648421 0.815620
vt 0.682437 0.801128
vt 0.845964 0.879313
vt 0.829182 0.886462
vt 0.682437 0.801128
vt 0.829182 0.886462
vt 0.648421 0.815620
vt 0.367117 0.912553
vt 0.386387 0.932541
vt 0.221636 0.997206
vt 0.202105 0.976948
vt 0.971732 0.674637
vt 0.860453 0.722062
vt 0.694737 0.644681
vt 0.807514 0.596615
vt 0.383191 0.801128
vt 0.411684 0.830708
vt 0.245721 0.896521
vt 0.216842 0.866542
vt 0.460043 0.673919
vt 0.171811 0.796918
vt 0.002105 0.721275
vt 0.294218 0.596615
vt 0.432868 0.895501
vt 0.416842 0.878876
vt 0.513137 0.801128
vt 0.528946 0.817528
vt 0.197565 0.987735
vt 0.171339 0.998902
vt 0.002105 0.923870
vt 0.028685 0.912553
vt 0.655020 0.552741
vt 0.530526 0.424000
vt 0.627097 0.345557
vt 0.749905 0.472559
vt 0.528421 0.920381
vt 0.546683 0.912553
vt 0.641722 0.980369
vt 0.623708 0.988091
vt 0.548295 0.894794
vt 0.534737 0.880775
vt 0.628962 0.801128
vt 0.642337 0.814958
vt 0.002105 0.527870
vt 0.314288 0.503859
vt 0.104348 0.593776
vt 0.314288 0.503859
vt 0.427761 0.345557
vt 0.524238 0.413938
vt 0.002105 0.527870
vt 0.427761 0.345557
vt 0.314288 0.503859
vt 0.168660 0.801128
vt 0.210718 0.844814
vt 0.044734 0.908571
vt 0.002105 0.864295
vt 0.391579 0.925583
vt 0.508655 0.984706
vt 0.493624 0.991133
vt 0.508655 0.984706
vt 0.422055 0.912553
vt 0.523687 0.978280
vt 0.391579 0.925583
vt 0.422055 0.912553
vt 0.508655 0.984706
vt 0.737050 0.912553
vt 0.751751 0.928249
vt 0.734722 0.934928
vt 0.720000 0.919209
vt 0.798474 0.920360
vt 0.775040 0.929909
vt 0.757895 0.922116
vt 0.781363 0.912553
vt 0.705273 0.936798
vt 0.690526 0.920791
vt 0.700491 0.912553
vt 0.715216 0.928537
vt 0.804211 0.922242
vt 0.827911 0.912553
vt 0.838190 0.919331
vt 0.814524 0.929005
vt 0.844211 0.912553
vt 0.844211 0.912553
vt 0.844211 0.912553
vt 0.844211 0.912553
vt 0.844211 0.912553
vt 0.844211 0.912553
vt 0.844211 0.912553
vt 0.844211 0.912553
vt 0.844211 0.912553
vt 0.844211 0.912553
vt 0.844211 0.912553
vt 0.844211 0.912553
vt 0.844211 0.912553
vt 0.844211 0.912553
vt 0.844211 0.912553
vt 0.844211 0.912553
vt 0.844211 0.912553
vn 0 1 0
vn 0 1 0
vn 0 1 0
vn 0 1 0
vn 0 1 0
vn 0 1 0
vn 0 1 0
vn 0 1 0
vn 0 1 0
vn 0 1 0
vn 0 1 0
vn 0 1 0
vn 0 1 0
vn 0 1 0
vn 0 1 0
vn 0 1 0
vn 0 1 0
vn 0 1 0
vn 0 1 0
vn 0 1 0
vn 0 1 0
vn 0 1 0
vn 0 1 0
vn 0 1 0
vn 0 1 0
vn 0 1 0
vn 0 1 0
vn 0 1 0
vn 0 1 0
vn 0 1 0
vn 0 1 0
vn 0 1 0
vn 0 1 0
vn 0 1 0
vn 0 1 0
vn 0 1 0
vn 0 1 0
vn 0 1 0
vn 0 1 0
vn 0 1 0
vn 0 1 0
vn 0 1 0
vn 0 1 0
vn 0 1 0
vn 0 1 0
vn 0 1 0
vn 0 1 0
vn 0 1 0
vn 0 1 0
vn 0 1 0
vn 0 1 0
vn 0 1 0
vn -0.5399503 0 0.8416969
vn -0.5399503 0 0.8416969
vn -0.5399503 0 0.8416969
vn -0.5399503 0 0.8416969
vn 0.8416711 0 0.5399905
vn 0.8416711 0 0.5399905
vn 0.8416711 0 0.5399905
vn 0.8416711 0 0.5399905
vn 0.8416711 0 0.5399905
vn 0.8416711 0 0.5399905
vn 0.8416711 0 0.5399905
vn 0.8416711 0 0.5399905
vn 0.8416711 0 0.5399905
vn -0.5398478 0 0.8417627
vn -0.5398478 0 0.8417627
vn -0.5398478 0 0.8417627
vn -0.5398478 0 0.8417627
vn 0.8417659 0 0.5398428
vn 0.8417659 0 0.5398428
vn 0.8417659 0 0.5398428
vn 0.8417659 0 0.5398428
vn -0.5399366 0 0.8417057
vn -0.5399366 0 0.8417057
vn -0.5399366 0 0.8417057
vn -0.5399366 0 0.8417057
vn 0.8417488 0 0.5398694
vn 0.8417488 0 0.5398694
vn 0.8417488 0 0.5398694
vn 0.8417488 0 0.5398694
vn 0.5389487 0 -0.8423386
vn 0.5389487 0 -0.8423386
vn 0.5389487 0 -0.8423386
vn 0.5389487 0 -0.8423386
vn 0.8415864 0 0.5401226
vn 0.8415864 0 0.5401226
vn 0.8415864 0 0.5401226
vn 0.8415864 0 0.5401226
vn 0.5398411 0 -0.841767
vn 0.5398411 0 -0.841767
vn 0.5398411 0 -0.841767
vn 0.5398411 0 -0.841767
vn -0.8419966 0 -0.5394828
vn -0.8419966 0 -0.5394828
vn -0.8419966 0 -0.5394828
vn -0.8419966 0 -0.5394828
vn 0.5404623 0 -0.8413683
vn 0.5404623 0 -0.8413683
vn 0.5404623 0 -0.8413683
vn 0.5404623 0 -0.8413683
vn -0.8417956 0 -0.5397964
vn -0.8417956 0 -0.5397964
vn -0.8417956 0 -0.5397964
vn -0.8417956 0 -0.5397964
vn -0.8417956 0 -0.5397964
vn -0.8417956 0 -0.5397964
vn -0.8417956 0 -0.5397964
vn -0.8417956 0 -0.5397964
vn -0.8417956 0 -0.5397964
vn -0.540108 0 0.8415957
vn -0.540108 0 0.8415957
vn -0.540108 0 0.8415957
vn -0.540108 0 0.8415957
vn -0.8421614 0 -0.5392256
vn -0.8421614 0 -0.5392256
vn -0.8421614 0 -0.5392256
vn -0.8421614 0 -0.5392256
vn -0.8421614 0 -0.5392256
vn -0.8421614 0 -0.5392256
vn -0.8421614 2.533353E-11 -0.5392256
vn -0.8421614 2.533353E-11 -0.5392256
vn -0.8421614 2.533353E-11 -0.5392256
vn -0.530669 0 0.8475791
vn -0.530669 0 0.8475791
vn -0.530669 0 0.8475791
vn -0.530669 0 0.8475791
vn 0.847363 0 0.5310141
vn 0.847363 0 0.5310141
vn 0.847363 0 0.5310141
vn 0.847363 0 0.5310141
vn 0.5301105 0 -0.8479285
vn 0.5301105 0 -0.8479285
vn 0.5301105 0 -0.8479285
vn 0.5301105 0 -0.8479285
vn -0.8479277 0 -0.5301118
vn -0.8479277 0 -0.5301118
vn -0.8479277 0 -0.5301118
vn -0.8479277 0 -0.5301118
vn 0 -1 0
vn 0 -1 0
vn 0 -1 0
vn 0 -1 0
vn 0 -1 0
vn 0 -1 0
vn 0 -1 0
vn 0 -1 0
vn 0 -1 0
vn 0 -1 0
vn 0 -1 0
vn 0 -1 0
vn 0 -1 0
vn 0 -1 0
vn 0 -1 0
vn 0 -1 0
vn 0 -1 0

g CDNNDG02_0004430
f 1/1/1 2/2/2 3/3/3
f 4/4/4 5/5/5 6/6/6
f 7/7/7 4/4/4 6/6/6
f 11/11/11 8/8/8 9/9/9
f 10/10/10 11/11/11 9/9/9
f 12/12/12 13/13/13 14/14/14
f 15/15/15 16/16/16 17/17/17
f 18/18/18 19/19/19 20/20/20
f 21/21/21 22/22/22 23/23/23
f 24/24/24 26/26/26 27/27/27
f 24/24/24 25/25/25 26/26/26
f 28/28/28 29/29/29 30/30/30
f 31/31/31 32/32/32 33/33/33
f 34/34/34 35/35/35 36/36/36
f 37/37/37 38/38/38 39/39/39
f 40/40/40 41/41/41 42/42/42
f 43/43/43 44/44/44 45/45/45
f 46/46/46 47/47/47 48/48/48
f 50/50/50 51/51/51 52/52/52
f 49/49/49 50/50/50 52/52/52
f 53/53/53 55/55/55 56/56/56
f 55/55/55 53/53/53 54/54/54
f 57/57/57 58/58/58 59/59/59
f 60/60/60 61/61/61 62/62/62
f 63/63/63 64/64/64 65/65/65
f 66/66/66 68/68/68 69/69/69
f 68/68/68 66/66/66 67/67/67
f 71/71/71 72/72/72 70/70/70
f 70/70/70 72/72/72 73/73/73
f 77/77/77 74/74/74 76/76/76
f 76/76/76 74/74/74 75/75/75
f 81/81/81 78/78/78 80/80/80
f 79/79/79 80/80/80 78/78/78
f 84/84/84 85/85/85 83/83/83
f 82/82/82 83/83/83 85/85/85
f 87/87/87 88/88/88 86/86/86
f 86/86/86 88/88/88 89/89/89
f 90/90/90 92/92/92 93/93/93
f 90/90/90 91/91/91 92/92/92
f 94/94/94 96/96/96 97/97/97
f 94/94/94 95/95/95 96/96/96
f 100/100/100 98/98/98 99/99/99
f 98/98/98 100/100/100 101/101/101
f 102/102/102 103/103/103 104/104/104
f 105/105/105 106/106/106 107/107/107
f 108/108/108 109/109/109 110/110/110
f 114/114/114 111/111/111 112/112/112
f 113/113/113 114/114/114 112/112/112
f 115/115/115 116/116/116 117/117/117
f 118/118/118 119/119/119 120/120/120
f 121/121/121 122/122/122 123/123/123
f 124/124/124 126/126/126 127/127/127
f 126/126/126 124/124/124 125/125/125
f 131/131/131 128/128/128 130/130/130
f 129/129/129 130/130/130 128/128/128
f 135/135/135 132/132/132 134/134/134
f 133/133/133 134/134/134 132/132/132
f 139/139/139 136/136/136 138/138/138
f 138/138/138 136/136/136 137/137/137
f 155/155/155 140/140/140 154/154/154
f 148/148/148 149/149/149 150/150/150
f 156/156/156 140/140/140 155/155/155
f 142/142/142 143/143/143 141/141/141
f 143/143/143 144/144/144 145/145/145
f 154/154/154 140/140/140 141/141/141
f 145/145/145 146/146/146 147/147/147
f 153/153/153 141/141/141 151/151/151
f 145/145/145 147/147/147 148/148/148
f 153/153/153 151/151/151 152/152/152
f 153/153/153 154/154/154 141/141/141
f 145/145/145 148/148/148 143/143/143
f 151/151/151 148/148/148 150/150/150
f 151/151/151 143/143/143 148/148/148
f 151/151/151 141/141/141 143/143/143
