v -6.779537 4.125894 3.06193
v -1.618537 3.037894 7.24893
v 1.808463 3.632894 -7.23307
v -1.618537 3.037894 7.24893
v 6.922463 3.037894 -3.04507
v 1.808463 3.632894 -7.23307
v -1.618537 3.037894 7.24893
v -1.618537 -3.428112 7.24893
v 6.922463 3.037894 -3.04507
v 6.922463 -3.428112 -3.04507
v 6.922463 3.037894 -3.04507
v 6.922463 -3.428112 -3.04507
v 1.808463 -3.428112 -7.23307
v 1.808463 3.632894 -7.23307
v -6.779537 -3.428112 3.06193
v 1.808463 3.632894 -7.23307
v 1.808463 -3.428112 -7.23307
v -6.779537 4.125894 3.06193
v -4.199037 -3.428112 5.15543
v -1.618537 -3.428112 7.24893
v -1.618537 3.037894 7.24893
v -6.779537 4.125894 3.06193
v -6.779537 -3.428112 3.06193
v -4.199037 -3.428112 5.15543
v -6.779537 4.125894 3.06193
v -4.199037 -3.428112 5.15543
v -1.618537 3.037894 7.24893
v -6.779537 -3.428112 3.06193
v 1.808463 -3.428112 -7.23307
v -4.199037 -3.428112 5.15543
v 6.922463 -3.428112 -3.04507
v -1.618537 -3.428112 7.24893
vt 0.879392 0.863928
vt 0.855392 0.839578
vt 0.941308 0.824827
vt 0.855392 0.839578
vt 0.916788 0.801264
vt 0.941308 0.824827
vt 0.541317 0.937760
vt 0.547610 0.930817
vt 0.602642 0.899509
vt 0.608454 0.892867
vt 0.130602 0.962664
vt 0.136378 0.956041
vt 0.161040 0.978689
vt 0.154943 0.986123
vt 0.417428 0.940737
vt 0.472441 0.892867
vt 0.478510 0.902580
vt 0.410364 0.930694
vt 0.117570 0.976280
vt 0.105286 0.964785
vt 0.099090 0.956041
vt 0.122834 0.977760
vt 0.129854 0.987776
vt 0.117570 0.976280
vt 0.122834 0.977760
vt 0.117570 0.976280
vt 0.099090 0.956041
vt 0.280812 0.992630
vt 0.280812 0.992630
vt 0.280812 0.992630
vt 0.280812 0.992630
vt 0.280812 0.992630
vn 0.146854 0.9862899 0.07527351
vn 0.146854 0.9862899 0.07527351
vn 0.146854 0.9862899 0.07527351
vn 0.0689972 0.9959729 0.05724743
vn 0.0689972 0.9959729 0.05724743
vn 0.0689972 0.9959729 0.05724743
vn 0.7695922 0 0.6385357
vn 0.7695922 0 0.6385357
vn 0.7695922 0 0.6385357
vn 0.7695922 0 0.6385357
vn 0.6335837 0 -0.7736741
vn 0.6335837 0 -0.7736741
vn 0.6335837 0 -0.7736741
vn 0.6335837 0 -0.7736741
vn -0.7678971 0 -0.6405731
vn -0.7678971 0 -0.6405731
vn -0.7678971 0 -0.6405731
vn -0.7678971 0 -0.6405731
vn -0.6300203 0 0.7765787
vn -0.6300203 0 0.7765787
vn -0.6300203 0 0.7765787
vn -0.6300203 0 0.7765787
vn -0.6300203 0 0.7765787
vn -0.6300203 0 0.7765787
vn -0.6300203 5.158663E-11 0.7765787
vn -0.6300203 5.158663E-11 0.7765787
vn -0.6300203 5.158663E-11 0.7765787
vn 0 -1 0
vn 0 -1 0
vn 0 -1 0
vn 0 -1 0
vn 0 -1 0

g CDNNDG01_0004020
f 1/1/1 2/2/2 3/3/3
f 4/4/4 5/5/5 6/6/6
f 7/7/7 8/8/8 9/9/9
f 10/10/10 9/9/9 8/8/8
f 11/11/11 12/12/12 13/13/13
f 14/14/14 11/11/11 13/13/13
f 15/15/15 16/16/16 17/17/17
f 15/15/15 18/18/18 16/16/16
f 19/19/19 20/20/20 21/21/21
f 22/22/22 23/23/23 24/24/24
f 25/25/25 26/26/26 27/27/27
f 28/28/28 29/29/29 30/30/30
f 30/30/30 29/29/29 31/31/31
f 30/30/30 31/31/31 32/32/32
