v 0.6832462 5.253812 -8.120455
v 4.648246 5.252809 -0.1504549
v 0.9802462 5.253788 -8.238455
v -7.254754 5.253811 4.194545
v 2.969131 5.25293 0.7508379
v 3.369892 5.25293 0.1294384
v -7.254754 5.253811 4.194545
v 3.369892 5.25293 0.1294384
v 0.6832462 5.253812 -8.120455
v -7.254754 5.253811 4.194545
v 3.738246 5.252809 1.260545
v 2.964312 5.25293 0.7582989
v -7.254754 5.253811 4.194545
v 2.964312 5.25293 0.7582989
v 2.969131 5.25293 0.7508379
v 0.6832462 5.253812 -8.120455
v 0.9802462 5.253788 -8.238455
v 0.8242462 5.253812 -8.339455
v -7.254754 5.253811 4.194545
v -0.8267538 5.252809 8.339545
v 3.738246 5.252809 1.260545
v 0.9802462 5.253788 -8.238455
v 4.648246 5.252809 -0.1504549
v 7.255246 5.252809 -4.193455
v 0.6832462 5.253812 -8.120455
v 3.369892 5.25293 0.1294384
v 3.870515 5.25293 -0.6468023
v 0.6832462 5.253812 -8.120455
v 3.870515 5.25293 -0.6468023
v 4.648246 5.252809 -0.1504549
v 3.542148 5.252873 0.6583863
v 3.738246 5.252809 1.260545
v 4.003246 5.252873 -0.05545488
v 3.738246 5.252809 1.260545
v 4.648246 5.252809 -0.1504549
v 4.003246 5.252873 -0.05545488
v 3.494246 5.252873 0.7325451
v 3.738246 5.252809 1.260545
v 3.542148 5.252873 0.6583863
v 3.870515 5.25293 -0.6468023
v 4.003246 5.474809 -0.05545488
v 4.648246 5.252809 -0.1504549
v 2.964312 5.25293 0.7582989
v 3.494246 5.474809 0.7325451
v 4.003246 5.474809 -0.05545488
v 2.964312 5.25293 0.7582989
v 4.003246 5.474809 -0.05545488
v 2.969131 5.25293 0.7508379
v 2.969131 5.25293 0.7508379
v 4.003246 5.474809 -0.05545488
v 3.369892 5.25293 0.1294384
v 3.369892 5.25293 0.1294384
v 4.003246 5.474809 -0.05545488
v 3.870515 5.25293 -0.6468023
v 2.964312 5.25293 0.7582989
v 3.738246 5.252809 1.260545
v 3.494246 5.474809 0.7325451
v -7.254754 -5.254036 4.194545
v -0.8267538 -5.254036 8.339545
v -0.8267538 5.252809 8.339545
v -7.254754 5.253811 4.194545
v -0.8267538 -5.254036 8.339545
v 3.738246 -5.254036 1.260545
v 3.738246 5.252809 1.260545
v -0.8267538 5.252809 8.339545
v 3.738246 -5.254036 1.260545
v 4.648246 -5.254036 -0.1504549
v 4.648246 5.252809 -0.1504549
v 3.738246 5.252809 1.260545
v 4.648246 -5.254036 -0.1504549
v 7.255246 -5.254036 -4.193455
v 7.255246 5.252809 -4.193455
v 4.648246 5.252809 -0.1504549
v 0.9802462 5.253788 -8.238455
v 4.117746 -5.254036 -6.215955
v 0.9802462 -5.254036 -8.238455
v 4.117746 -5.254036 -6.215955
v 7.255246 5.252809 -4.193455
v 7.255246 -5.254036 -4.193455
v 0.9802462 5.253788 -8.238455
v 7.255246 5.252809 -4.193455
v 4.117746 -5.254036 -6.215955
v 0.8242462 5.253812 -8.339455
v 0.9022462 -5.254036 -8.288955
v 0.8242462 -5.254036 -8.339455
v 0.9022462 -5.254036 -8.288955
v 0.9802462 5.253788 -8.238455
v 0.9802462 -5.254036 -8.238455
v 0.8242462 5.253812 -8.339455
v 0.9802462 5.253788 -8.238455
v 0.9022462 -5.254036 -8.288955
v 0.6832462 5.253812 -8.120455
v 0.8242462 5.253812 -8.339455
v 0.8242462 -5.254036 -8.339455
v 0.6832462 -5.254036 -8.120455
v -7.254754 5.253811 4.194545
v 0.6832462 5.253812 -8.120455
v 0.6832462 -5.254036 -8.120455
v -7.254754 -5.254036 4.194545
v 4.003246 5.474809 -0.05545488
v 4.003246 5.252873 -0.05545488
v 4.648246 5.252809 -0.1504549
v 3.542148 5.252873 0.6583863
v 4.003246 5.252873 -0.05545488
v 4.003246 5.474809 -0.05545488
v 3.494246 5.474809 0.7325451
v 3.494246 5.252873 0.7325451
v 3.542148 5.252873 0.6583863
v 3.494246 5.474809 0.7325451
v 3.542148 5.252873 0.6583863
v 4.003246 5.474809 -0.05545488
v 3.494246 5.474809 0.7325451
v 3.738246 5.252809 1.260545
v 3.494246 5.252873 0.7325451
v 0.8242462 -5.254036 -8.339455
v 0.9022462 -5.254036 -8.288955
v 0.9802462 -5.254036 -8.238455
v 4.117746 -5.254036 -6.215955
v 7.255246 -5.254036 -4.193455
v 4.648246 -5.254036 -0.1504549
v 3.738246 -5.254036 1.260545
v -0.8267538 -5.254036 8.339545
v -7.254754 -5.254036 4.194545
v 0.6832462 -5.254036 -8.120455
vt 0.610233 0.146143
vt 0.314819 0.059302
vt 0.614536 0.139565
vt 0.156621 0.322862
vt 0.281841 0.096514
vt 0.304731 0.087591
vt 0.156621 0.322862
vt 0.304731 0.087591
vt 0.610233 0.146143
vt 0.156621 0.322862
vt 0.262844 0.079563
vt 0.281567 0.096621
vt 0.156621 0.322862
vt 0.281567 0.096621
vt 0.281841 0.096514
vt 0.610233 0.146143
vt 0.614536 0.139565
vt 0.618300 0.143003
vt 0.156621 0.322862
vt 0.002101 0.181197
vt 0.262844 0.079563
vt 0.614536 0.139565
vt 0.314819 0.059302
vt 0.463747 0.001256
vt 0.610233 0.146143
vt 0.304731 0.087591
vt 0.333324 0.076445
vt 0.610233 0.146143
vt 0.333324 0.076445
vt 0.314819 0.059302
vt 0.250471 0.831247
vt 0.228992 0.827160
vt 0.275800 0.821431
vt 0.228992 0.827160
vt 0.279057 0.807789
vt 0.275800 0.821431
vt 0.247840 0.832266
vt 0.228992 0.827160
vt 0.250471 0.831247
vt 0.389107 0.823604
vt 0.367647 0.822040
vt 0.372064 0.807789
vt 0.284275 0.829950
vt 0.283613 0.818570
vt 0.311626 0.807789
vt 0.284275 0.829950
vt 0.311626 0.807789
vt 0.284540 0.829848
vt 0.284540 0.829848
vt 0.311626 0.807789
vt 0.306624 0.821362
vt 0.306624 0.821362
vt 0.311626 0.807789
vt 0.334211 0.810761
vt 0.344804 0.807789
vt 0.361690 0.823393
vt 0.340336 0.819965
vt 0.832545 0.581658
vt 0.981667 0.718631
vt 0.798150 0.791072
vt 0.647059 0.652321
vt 0.640806 0.633991
vt 0.387010 0.730363
vt 0.200166 0.679287
vt 0.457259 0.581658
vt 0.387010 0.730363
vt 0.336425 0.749573
vt 0.148923 0.698748
vt 0.200166 0.679287
vt 0.336425 0.749573
vt 0.191486 0.804606
vt 0.002101 0.754498
vt 0.148923 0.698748
vt 0.152177 0.995365
vt 0.146513 0.875156
vt 0.220574 0.942521
vt 0.146513 0.875156
vt 0.002101 0.858849
vt 0.072451 0.807789
vt 0.152177 0.995365
vt 0.002101 0.858849
vt 0.146513 0.875156
vt 0.155924 0.998758
vt 0.222423 0.944195
vt 0.224272 0.945870
vt 0.222423 0.944195
vt 0.152177 0.995365
vt 0.220574 0.942521
vt 0.155924 0.998758
vt 0.152177 0.995365
vt 0.222423 0.944195
vt 0.455960 0.328521
vt 0.464032 0.325377
vt 0.530482 0.400834
vt 0.522517 0.403937
vt 0.002101 0.505503
vt 0.455960 0.328521
vt 0.522517 0.403937
vt 0.074614 0.578591
vt 0.394958 0.807789
vt 0.396971 0.808802
vt 0.395183 0.821738
vt 0.429418 0.809707
vt 0.405034 0.818632
vt 0.401260 0.817644
vt 0.428185 0.807789
vt 0.431951 0.808780
vt 0.429418 0.809707
vt 0.428185 0.807789
vt 0.429418 0.809707
vt 0.401260 0.817644
vt 0.453162 0.813116
vt 0.436975 0.807789
vt 0.454575 0.812179
vt 0.460084 0.807789
vt 0.460084 0.807789
vt 0.460084 0.807789
vt 0.460084 0.807789
vt 0.460084 0.807789
vt 0.460084 0.807789
vt 0.460084 0.807789
vt 0.460084 0.807789
vt 0.460084 0.807789
vt 0.460084 0.807789
vn 0.0001099413 1 7.112333E-05
vn 0.0001099413 1 7.112333E-05
vn 0.0001099413 1 7.112333E-05
vn 0.0001101447 1 7.103592E-05
vn 0.0001101447 1 7.103592E-05
vn 0.0001101447 1 7.103592E-05
vn 0.0001101407 1 7.102529E-05
vn 0.0001101407 1 7.102529E-05
vn 0.0001101407 1 7.102529E-05
vn 0.0001101393 1 7.10197E-05
vn 0.0001101393 1 7.10197E-05
vn 0.0001101393 1 7.10197E-05
vn 0.0001101924 1 7.117748E-05
vn 0.0001101924 1 7.117748E-05
vn 0.0001101924 1 7.117748E-05
vn 0.0001098089 1 7.079021E-05
vn 0.0001098089 1 7.079021E-05
vn 0.0001098089 1 7.079021E-05
vn 0.0001101411 1 7.102612E-05
vn 0.0001101411 1 7.102612E-05
vn 0.0001101411 1 7.102612E-05
vn 0.0001101518 1 7.102786E-05
vn 0.0001101518 1 7.102786E-05
vn 0.0001101518 1 7.102786E-05
vn 0.0001101324 1 7.102798E-05
vn 0.0001101324 1 7.102798E-05
vn 0.0001101324 1 7.102798E-05
vn 0.000110136 1 7.102644E-05
vn 0.000110136 1 7.102644E-05
vn 0.000110136 1 7.102644E-05
vn 0.000110139 1 7.103103E-05
vn 0.000110139 1 7.103103E-05
vn 0.000110139 1 7.103103E-05
vn 0.0001101363 1 7.103048E-05
vn 0.0001101363 1 7.103048E-05
vn 0.0001101363 1 7.103048E-05
vn 0.0001101625 1 7.10234E-05
vn 0.0001101625 1 7.10234E-05
vn 0.0001101625 1 7.10234E-05
vn 0.2481681 0.8873392 -0.3886407
vn 0.2481681 0.8873392 -0.3886407
vn 0.2481681 0.8873392 -0.3886407
vn -0.3843557 0.8891752 -0.2482703
vn -0.3843557 0.8891752 -0.2482703
vn -0.3843557 0.8891752 -0.2482703
vn -0.3843552 0.8891755 -0.2482697
vn -0.3843552 0.8891755 -0.2482697
vn -0.3843552 0.8891755 -0.2482697
vn -0.3839125 0.8895541 -0.2475977
vn -0.3839125 0.8895541 -0.2475977
vn -0.3839125 0.8895541 -0.2475977
vn -0.3839125 0.8895541 -0.2475977
vn -0.3839125 0.8895541 -0.2475977
vn -0.3839125 0.8895541 -0.2475977
vn -0.3167417 0.8131787 0.4882777
vn -0.3167417 0.8131787 0.4882777
vn -0.3167417 0.8131787 0.4882777
vn -0.5419333 0 0.8404215
vn -0.5419333 0 0.8404215
vn -0.5419333 0 0.8404215
vn -0.5419333 0 0.8404215
vn 0.84041 0 0.5419511
vn 0.84041 0 0.5419511
vn 0.84041 0 0.5419511
vn 0.84041 0 0.5419511
vn 0.8403842 0 0.5419912
vn 0.8403842 0 0.5419912
vn 0.8403842 0 0.5419912
vn 0.8403842 0 0.5419912
vn 0.840428 0 0.5419233
vn 0.840428 0 0.5419233
vn 0.840428 0 0.5419233
vn 0.840428 0 0.5419233
vn 0.5418065 0 -0.8405033
vn 0.5418065 0 -0.8405033
vn 0.5418065 0 -0.8405033
vn 0.5418065 0 -0.8405033
vn 0.5418065 0 -0.8405033
vn 0.5418065 0 -0.8405033
vn 0.5418065 -1.500721E-12 -0.8405033
vn 0.5418065 -1.500721E-12 -0.8405033
vn 0.5418065 -1.500721E-12 -0.8405033
vn 0.5434744 0 -0.8394257
vn 0.5434744 0 -0.8394257
vn 0.5434744 0 -0.8394257
vn 0.5434744 0 -0.8394257
vn 0.5434744 0 -0.8394257
vn 0.5434744 0 -0.8394257
vn 0.5434744 -1.505275E-12 -0.8394257
vn 0.5434744 -1.505275E-12 -0.8394257
vn 0.5434744 -1.505275E-12 -0.8394257
vn -0.840804 0 -0.5413396
vn -0.840804 0 -0.5413396
vn -0.840804 0 -0.5413396
vn -0.840804 0 -0.5413396
vn -0.8405192 0 -0.5417817
vn -0.8405192 0 -0.5417817
vn -0.8405192 0 -0.5417817
vn -0.8405192 0 -0.5417817
vn 0.1457148 0 0.9893267
vn 0.1457148 0 0.9893267
vn 0.1457148 0 0.9893267
vn 0.8399989 0 0.5425881
vn 0.8399989 0 0.5425881
vn 0.8399989 0 0.5425881
vn 0.8399988 0 0.5425882
vn 0.8399988 0 0.5425882
vn 0.8399988 0 0.5425882
vn 0.8399989 1.918458E-08 0.5425881
vn 0.8399989 1.918458E-08 0.5425881
vn 0.8399989 1.918458E-08 0.5425881
vn 0.907758 0 -0.4194942
vn 0.907758 0 -0.4194942
vn 0.907758 0 -0.4194942
vn 0 -1 0
vn 0 -1 0
vn 0 -1 0
vn 0 -1 0
vn 0 -1 0
vn 0 -1 0
vn 0 -1 0
vn 0 -1 0
vn 0 -1 0
vn 0 -1 0

g CDNNDG02_0004340
f 1/1/1 2/2/2 3/3/3
f 4/4/4 5/5/5 6/6/6
f 7/7/7 8/8/8 9/9/9
f 10/10/10 11/11/11 12/12/12
f 13/13/13 14/14/14 15/15/15
f 16/16/16 17/17/17 18/18/18
f 19/19/19 20/20/20 21/21/21
f 22/22/22 23/23/23 24/24/24
f 25/25/25 26/26/26 27/27/27
f 28/28/28 29/29/29 30/30/30
f 31/31/31 32/32/32 33/33/33
f 34/34/34 35/35/35 36/36/36
f 37/37/37 38/38/38 39/39/39
f 40/40/40 41/41/41 42/42/42
f 43/43/43 44/44/44 45/45/45
f 46/46/46 47/47/47 48/48/48
f 49/49/49 50/50/50 51/51/51
f 52/52/52 53/53/53 54/54/54
f 55/55/55 56/56/56 57/57/57
f 58/58/58 60/60/60 61/61/61
f 60/60/60 58/58/58 59/59/59
f 65/65/65 62/62/62 64/64/64
f 63/63/63 64/64/64 62/62/62
f 67/67/67 68/68/68 66/66/66
f 66/66/66 68/68/68 69/69/69
f 71/71/71 72/72/72 70/70/70
f 70/70/70 72/72/72 73/73/73
f 74/74/74 75/75/75 76/76/76
f 77/77/77 78/78/78 79/79/79
f 80/80/80 81/81/81 82/82/82
f 83/83/83 84/84/84 85/85/85
f 86/86/86 87/87/87 88/88/88
f 89/89/89 90/90/90 91/91/91
f 92/92/92 94/94/94 95/95/95
f 92/92/92 93/93/93 94/94/94
f 96/96/96 98/98/98 99/99/99
f 96/96/96 97/97/97 98/98/98
f 100/100/100 101/101/101 102/102/102
f 103/103/103 104/104/104 105/105/105
f 106/106/106 107/107/107 108/108/108
f 109/109/109 110/110/110 111/111/111
f 112/112/112 113/113/113 114/114/114
f 124/124/124 116/116/116 117/117/117
f 118/118/118 124/124/124 117/117/117
f 124/124/124 115/115/115 116/116/116
f 123/123/123 124/124/124 121/121/121
f 124/124/124 120/120/120 121/121/121
f 118/118/118 120/120/120 124/124/124
f 121/121/121 122/122/122 123/123/123
f 120/120/120 118/118/118 119/119/119
