v 3.309291 5.898335 -5.455494
v 9.02729 5.898335 -7.620494
v 5.103291 5.898335 -8.197495
v -7.35571 5.898335 3.282506
v -4.82871 5.898335 7.148506
v -6.71671 5.898335 2.307506
v 0.3622906 5.898335 -2.672494
v 3.165291 5.898335 1.341506
v 1.753291 5.898335 -3.076494
v -7.597709 5.898335 5.248506
v -4.82871 5.898335 7.148506
v -7.35571 5.898335 3.282506
v -8.32871 5.898335 4.770505
v -7.597709 5.898335 5.248506
v -7.35571 5.898335 3.282506
v 1.753291 5.898335 -3.076494
v 3.165291 5.898335 1.341506
v 3.309291 5.898335 -5.455494
v 3.165291 5.898335 1.341506
v 9.02729 5.898335 -7.620494
v 3.309291 5.898335 -5.455494
v -7.772709 5.898335 5.514505
v -4.962709 5.898335 7.352506
v -4.82871 5.898335 7.148506
v -7.597709 5.898335 5.248506
v -4.82871 5.898335 7.148506
v -1.862709 5.898335 9.026505
v 3.165291 5.898335 1.341506
v -4.82871 5.898335 7.148506
v -1.890709 5.898335 9.070505
v -1.862709 5.898335 9.026505
v -6.71671 5.898335 2.307506
v 0.3622906 5.898335 -2.672494
v -2.313709 5.898335 -4.422494
v 5.103291 5.898335 -8.197495
v 9.02729 5.898335 -7.620494
v 6.015291 5.898335 -9.591495
v -4.82871 5.898335 7.148506
v 3.165291 5.898335 1.341506
v 0.3622906 5.898335 -2.672494
v -6.71671 5.898335 2.307506
v 2.58727 5.421404 -7.042508
v 3.309291 5.934326 -5.455494
v 5.103291 5.934326 -8.197495
v 2.043318 5.19524 -7.397476
v 2.58727 5.421404 -7.042508
v 3.327293 5.195326 -9.359492
v 2.58727 5.421404 -7.042508
v 5.103291 5.934326 -8.197495
v 3.327293 5.195326 -9.359492
v 2.076272 5.4214 -6.261507
v 3.309291 5.934326 -5.455494
v 2.58727 5.421404 -7.042508
v -8.32871 -5.883237 4.770505
v -7.597709 -5.883237 5.248506
v -7.597709 5.898335 5.248506
v -8.32871 5.898335 4.770505
v -7.772709 5.898335 5.514505
v -7.597709 5.898335 5.248506
v -7.597709 -5.883237 5.248506
v -7.772709 -5.883237 5.514505
v -6.36771 -5.883237 6.433506
v -4.962709 -5.883237 7.352506
v -4.962709 5.898335 7.352506
v -7.772709 5.898335 5.514505
v -7.772709 -5.883237 5.514505
v -6.36771 -5.883237 6.433506
v -7.772709 5.898335 5.514505
v -6.36771 -5.883237 6.433506
v -4.962709 5.898335 7.352506
v -4.962709 -5.883237 7.352506
v -4.82871 -5.883237 7.148506
v -4.82871 5.898335 7.148506
v -4.962709 5.898335 7.352506
v -3.35971 -5.883237 8.109506
v -1.890709 -5.883237 9.070505
v -1.890709 5.898335 9.070505
v -4.82871 5.898335 7.148506
v -4.82871 -5.883237 7.148506
v -3.35971 -5.883237 8.109506
v -4.82871 5.898335 7.148506
v -3.35971 -5.883237 8.109506
v -1.890709 5.898335 9.070505
v -1.876709 -5.883237 9.048506
v -1.862709 -5.883237 9.026505
v -1.862709 5.898335 9.026505
v -1.890709 5.898335 9.070505
v -1.890709 -5.883237 9.070505
v -1.876709 -5.883237 9.048506
v -1.890709 5.898335 9.070505
v -1.876709 -5.883237 9.048506
v -1.862709 5.898335 9.026505
v -1.862709 -5.883237 9.026505
v 3.165291 -5.883237 1.341506
v 3.165291 5.898335 1.341506
v -1.862709 5.898335 9.026505
v 3.165291 -5.883237 1.341506
v 9.02729 -5.883237 -7.620494
v 9.02729 5.898335 -7.620494
v 3.165291 5.898335 1.341506
v 6.015291 5.898335 -9.591495
v 9.02729 5.898335 -7.620494
v 9.02729 -5.883237 -7.620494
v 6.015291 -5.883237 -9.591495
v 5.103291 5.898335 -8.197495
v 6.015291 5.898335 -9.591495
v 6.015291 -5.883237 -9.591495
v 5.103291 -5.883237 -8.197495
v 1.753291 5.898335 -3.076494
v 3.309291 5.898335 -5.455494
v 3.309291 -5.883237 -5.455494
v 1.753291 -5.883237 -3.076494
v 0.3622906 5.898335 -2.672494
v 1.057791 -5.883237 -2.874495
v 0.3622906 -5.883237 -2.672494
v 1.057791 -5.883237 -2.874495
v 1.753291 5.898335 -3.076494
v 1.753291 -5.883237 -3.076494
v 0.3622906 5.898335 -2.672494
v 1.753291 5.898335 -3.076494
v 1.057791 -5.883237 -2.874495
v -2.313709 5.898335 -4.422494
v 0.3622906 5.898335 -2.672494
v 0.3622906 -5.883237 -2.672494
v -2.313709 -5.883237 -4.422494
v -6.71671 5.898335 2.307506
v -2.313709 5.898335 -4.422494
v -2.313709 -5.883237 -4.422494
v -6.71671 -5.883237 2.307506
v -7.35571 5.898335 3.282506
v -7.03621 -5.883237 2.795006
v -7.35571 -5.883237 3.282506
v -7.03621 -5.883237 2.795006
v -6.71671 5.898335 2.307506
v -6.71671 -5.883237 2.307506
v -7.35571 5.898335 3.282506
v -6.71671 5.898335 2.307506
v -7.03621 -5.883237 2.795006
v -8.32871 5.898335 4.770505
v -7.35571 5.898335 3.282506
v -7.35571 -5.883237 3.282506
v -8.32871 -5.883237 4.770505
v 2.076272 5.4214 -6.261507
v 3.309291 5.898335 -5.455494
v 3.309291 5.934326 -5.455494
v 2.076272 -5.883237 -6.261507
v 3.309291 -5.883237 -5.455494
v 3.309291 5.898335 -5.455494
v 2.076272 5.4214 -6.261507
v 3.327293 5.195326 -9.359492
v 4.215292 -5.883237 -8.778494
v 3.327293 -5.883237 -9.359492
v 3.327293 5.195326 -9.359492
v 5.103291 5.934326 -8.197495
v 4.215292 -5.883237 -8.778494
v 4.215292 -5.883237 -8.778494
v 5.103291 5.934326 -8.197495
v 5.103291 5.898335 -8.197495
v 4.215292 -5.883237 -8.778494
v 5.103291 5.898335 -8.197495
v 5.103291 -5.883237 -8.197495
v 2.043318 5.19524 -7.397476
v 3.327293 5.195326 -9.359492
v 3.327293 -5.883237 -9.359492
v 2.043318 -5.883237 -7.397476
v 2.315295 -5.883237 -7.219992
v 2.58727 -5.883237 -7.042508
v 2.58727 5.421404 -7.042508
v 2.043318 5.19524 -7.397476
v 2.043318 -5.883237 -7.397476
v 2.315295 -5.883237 -7.219992
v 2.043318 5.19524 -7.397476
v 2.315295 -5.883237 -7.219992
v 2.58727 5.421404 -7.042508
v 2.076272 5.4214 -6.261507
v 2.58727 5.421404 -7.042508
v 2.58727 -5.883237 -7.042508
v 2.076272 -5.883237 -6.261507
v 3.309291 5.898335 -5.455494
v 5.103291 5.898335 -8.197495
v 5.103291 5.934326 -8.197495
v 3.309291 5.934326 -5.455494
v -6.71671 -5.883237 2.307506
v -2.313709 -5.883237 -4.422494
v 0.3622906 -5.883237 -2.672494
v 1.057791 -5.883237 -2.874495
v 1.753291 -5.883237 -3.076494
v 3.309291 -5.883237 -5.455494
v 2.076272 -5.883237 -6.261507
v 2.58727 -5.883237 -7.042508
v 2.315295 -5.883237 -7.219992
v 2.043318 -5.883237 -7.397476
v 3.327293 -5.883237 -9.359492
v 4.215292 -5.883237 -8.778494
v 5.103291 -5.883237 -8.197495
v 6.015291 -5.883237 -9.591495
v 9.02729 -5.883237 -7.620494
v 3.165291 -5.883237 1.341506
v -1.862709 -5.883237 9.026505
v -1.876709 -5.883237 9.048506
v -1.890709 -5.883237 9.070505
v -3.35971 -5.883237 8.109506
v -4.82871 -5.883237 7.148506
v -4.962709 -5.883237 7.352506
v -6.36771 -5.883237 6.433506
v -7.772709 -5.883237 5.514505
v -7.597709 -5.883237 5.248506
v -8.32871 -5.883237 4.770505
v -7.35571 -5.883237 3.282506
v -7.03621 -5.883237 2.795006
vt 0.524080 0.136237
vt 0.607408 0.001385
vt 0.623530 0.095428
vt 0.201659 0.384318
vt 0.067091 0.321224
vt 0.237019 0.369783
vt 0.421889 0.204523
vt 0.282367 0.134731
vt 0.437799 0.171630
vt 0.131525 0.388662
vt 0.067091 0.321224
vt 0.201659 0.384318
vt 0.147696 0.406448
vt 0.131525 0.388662
vt 0.201659 0.384318
vt 0.437799 0.171630
vt 0.282367 0.134731
vt 0.524080 0.136237
vt 0.282367 0.134731
vt 0.607408 0.001385
vt 0.524080 0.136237
vt 0.121877 0.392643
vt 0.059692 0.324272
vt 0.067091 0.321224
vt 0.131525 0.388662
vt 0.067091 0.321224
vt 0.003657 0.249100
vt 0.282367 0.134731
vt 0.067091 0.321224
vt 0.002062 0.249736
vt 0.003657 0.249100
vt 0.237019 0.369783
vt 0.421889 0.204523
vt 0.481093 0.269637
vt 0.623530 0.095428
vt 0.607408 0.001385
vt 0.674090 0.074682
vt 0.067091 0.321224
vt 0.282367 0.134731
vt 0.421889 0.204523
vt 0.237019 0.369783
vt 0.331671 0.935089
vt 0.280412 0.914543
vt 0.379213 0.873961
vt 0.341839 0.949239
vt 0.331671 0.935089
vt 0.412470 0.920221
vt 0.331671 0.935089
vt 0.379213 0.873961
vt 0.412470 0.920221
vt 0.303548 0.946641
vt 0.280412 0.914543
vt 0.331671 0.935089
vt 0.580729 0.940625
vt 0.564948 0.923270
vt 0.649013 0.873961
vt 0.665024 0.891572
vt 0.974538 0.877891
vt 0.984063 0.873961
vt 0.900108 0.923019
vt 0.890722 0.926892
vt 0.609911 0.767142
vt 0.579381 0.733494
vt 0.662936 0.682826
vt 0.724890 0.751110
vt 0.640441 0.800789
vt 0.609911 0.767142
vt 0.724890 0.751110
vt 0.609911 0.767142
vt 0.662936 0.682826
vt 0.105155 0.962705
vt 0.112307 0.959834
vt 0.195394 0.984508
vt 0.188137 0.987421
vt 0.458737 0.769789
vt 0.426804 0.734593
vt 0.509545 0.682826
vt 0.574346 0.754251
vt 0.490669 0.804984
vt 0.458737 0.769789
vt 0.574346 0.754251
vt 0.458737 0.769789
vt 0.509545 0.682826
vt 0.002848 0.654020
vt 0.003634 0.653707
vt 0.087445 0.678447
vt 0.085850 0.679082
vt 0.002062 0.654333
vt 0.002848 0.654020
vt 0.085850 0.679082
vt 0.002848 0.654020
vt 0.087445 0.678447
vt 0.003634 0.653707
vt 0.278354 0.541175
vt 0.366178 0.564273
vt 0.087445 0.678447
vt 0.278354 0.541175
vt 0.598741 0.409972
vt 0.691245 0.431155
vt 0.366178 0.564273
vt 0.220619 0.959834
vt 0.220619 0.959834
vt 0.220619 0.959834
vt 0.220619 0.959834
vt 0.510198 0.894584
vt 0.560470 0.873961
vt 0.468100 0.927882
vt 0.418557 0.948206
vt 0.819103 0.718109
vt 0.905124 0.682826
vt 0.814672 0.736011
vt 0.729897 0.770783
vt 0.210309 0.959834
vt 0.210309 0.959834
vt 0.210309 0.959834
vt 0.210309 0.959834
vt 0.210309 0.959834
vt 0.210309 0.959834
vt 0.210309 0.959834
vt 0.210309 0.959834
vt 0.210309 0.959834
vt 0.200000 0.959834
vt 0.200000 0.959834
vt 0.200000 0.959834
vt 0.200000 0.959834
vt 0.177317 0.783480
vt 0.422313 0.682826
vt 0.331869 0.734507
vt 0.090422 0.833703
vt 0.141824 0.798088
vt 0.072933 0.840902
vt 0.055443 0.848100
vt 0.072933 0.840902
vt 0.177317 0.783480
vt 0.090422 0.833703
vt 0.141824 0.798088
vt 0.177317 0.783480
vt 0.072933 0.840902
vt 0.087658 0.820330
vt 0.141824 0.798088
vt 0.055443 0.848100
vt 0.002062 0.870019
vt 0.115295 0.906107
vt 0.091944 0.874126
vt 0.092223 0.873961
vt 0.028727 0.956642
vt 0.002062 0.927257
vt 0.091944 0.874126
vt 0.115295 0.906107
vt 0.241237 0.959834
vt 0.241237 0.959834
vt 0.241237 0.959834
vt 0.241237 0.959834
vt 0.241237 0.959834
vt 0.241237 0.959834
vt 0.241237 0.959834
vt 0.241237 0.959834
vt 0.241237 0.959834
vt 0.241237 0.959834
vt 0.241237 0.959834
vt 0.241237 0.959834
vt 0.205366 0.902997
vt 0.276153 0.873961
vt 0.189409 0.923804
vt 0.119588 0.952444
vt 0.675956 0.930855
vt 0.670103 0.924406
vt 0.756797 0.873961
vt 0.766906 0.888061
vt 0.681810 0.937305
vt 0.675956 0.930855
vt 0.766906 0.888061
vt 0.675956 0.930855
vt 0.756797 0.873961
vt 0.857729 0.885467
vt 0.885784 0.873961
vt 0.798799 0.924382
vt 0.771134 0.935728
vt 0.002062 0.999417
vt 0.099781 0.959834
vt 0.100063 0.959902
vt 0.002340 0.999486
vt 0.230928 0.959834
vt 0.230928 0.959834
vt 0.230928 0.959834
vt 0.230928 0.959834
vt 0.230928 0.959834
vt 0.230928 0.959834
vt 0.230928 0.959834
vt 0.230928 0.959834
vt 0.230928 0.959834
vt 0.230928 0.959834
vt 0.230928 0.959834
vt 0.230928 0.959834
vt 0.230928 0.959834
vt 0.230928 0.959834
vt 0.230928 0.959834
vt 0.230928 0.959834
vt 0.230928 0.959834
vt 0.230928 0.959834
vt 0.230928 0.959834
vt 0.230928 0.959834
vt 0.230928 0.959834
vt 0.230928 0.959834
vt 0.230928 0.959834
vt 0.230928 0.959834
vt 0.230928 0.959834
vt 0.230928 0.959834
vt 0.230928 0.959834
vt 0.230928 0.959834
vn 0 1 0
vn 0 1 0
vn 0 1 0
vn 0 1 0
vn 0 1 0
vn 0 1 0
vn 0 1 0
vn 0 1 0
vn 0 1 0
vn 0 1 0
vn 0 1 0
vn 0 1 0
vn 0 1 0
vn 0 1 0
vn 0 1 0
vn 0 1 0
vn 0 1 0
vn 0 1 0
vn 0 1 0
vn 0 1 0
vn 0 1 0
vn 0 1 0
vn 0 1 0
vn 0 1 0
vn 0 1 0
vn 0 1 0
vn 0 1 0
vn 0 1 0
vn 0 1 0
vn 0 1 0
vn 0 1 0
vn 0 1 0
vn 0 1 0
vn 0 1 0
vn 0 1 0
vn 0 1 0
vn 0 1 0
vn 0 1 0
vn 0 1 0
vn 0 1 0
vn 0 1 0
vn -0.2751708 0.9443879 -0.1800352
vn -0.2751708 0.9443879 -0.1800352
vn -0.2751708 0.9443879 -0.1800352
vn -0.2751702 0.9443881 -0.1800348
vn -0.2751702 0.9443881 -0.1800348
vn -0.2751702 0.9443881 -0.1800348
vn -0.2751707 0.9443879 -0.1800349
vn -0.2751707 0.9443879 -0.1800349
vn -0.2751707 0.9443879 -0.1800349
vn -0.2751708 0.9443879 -0.1800352
vn -0.2751708 0.9443879 -0.1800352
vn -0.2751708 0.9443879 -0.1800352
vn -0.5472802 0 0.8369495
vn -0.5472802 0 0.8369495
vn -0.5472802 0 0.8369495
vn -0.5472802 0 0.8369495
vn -0.8354171 0 -0.5496165
vn -0.8354171 0 -0.5496165
vn -0.8354171 0 -0.5496165
vn -0.8354171 0 -0.5496165
vn -0.5473938 0 0.8368751
vn -0.5473938 0 0.8368751
vn -0.5473938 0 0.8368751
vn -0.5473938 0 0.8368751
vn -0.5473938 0 0.8368751
vn -0.5473938 0 0.8368751
vn -0.5473938 -1.352216E-12 0.8368751
vn -0.5473938 -1.352216E-12 0.8368751
vn -0.5473938 -1.352216E-12 0.8368751
vn 0.8358129 0 0.5490144
vn 0.8358129 0 0.5490144
vn 0.8358129 0 0.5490144
vn 0.8358129 0 0.5490144
vn -0.5474489 0 0.8368391
vn -0.5474489 0 0.8368391
vn -0.5474489 0 0.8368391
vn -0.5474489 0 0.8368391
vn -0.5474489 0 0.8368391
vn -0.5474489 0 0.8368391
vn -0.5474489 0 0.8368391
vn -0.5474489 0 0.8368391
vn -0.5474489 0 0.8368391
vn 0.8436615 0 0.5368755
vn 0.8436615 0 0.5368755
vn 0.8436615 0 0.5368755
vn 0.8436615 0 0.5368755
vn 0.8436615 0 0.5368755
vn 0.8436615 0 0.5368755
vn 0.8436615 0 0.5368755
vn 0.8436615 0 0.5368755
vn 0.8436615 0 0.5368755
vn 0.8368104 0 0.5474929
vn 0.8368104 0 0.5474929
vn 0.8368104 0 0.5474929
vn 0.8368104 0 0.5474929
vn 0.8368742 0 0.5473953
vn 0.8368742 0 0.5473953
vn 0.8368742 0 0.5473953
vn 0.8368742 0 0.5473953
vn 0.5475637 0 -0.836764
vn 0.5475637 0 -0.836764
vn 0.5475637 0 -0.836764
vn 0.5475637 0 -0.836764
vn -0.8368216 0 -0.5474758
vn -0.8368216 0 -0.5474758
vn -0.8368216 0 -0.5474758
vn -0.8368216 0 -0.5474758
vn -0.836889 0 -0.5473726
vn -0.836889 0 -0.5473726
vn -0.836889 0 -0.5473726
vn -0.836889 0 -0.5473726
vn -0.2789129 0 -0.9603164
vn -0.2789129 0 -0.9603164
vn -0.2789129 0 -0.9603164
vn -0.2789129 0 -0.9603164
vn -0.2789129 0 -0.9603164
vn -0.2789129 0 -0.9603164
vn -0.2789129 3.864506E-11 -0.9603164
vn -0.2789129 3.864506E-11 -0.9603164
vn -0.2789129 3.864506E-11 -0.9603164
vn 0.5473168 0 -0.8369255
vn 0.5473168 0 -0.8369255
vn 0.5473168 0 -0.8369255
vn 0.5473168 0 -0.8369255
vn -0.8368207 0 -0.5474771
vn -0.8368207 0 -0.5474771
vn -0.8368207 0 -0.5474771
vn -0.8368207 0 -0.5474771
vn -0.8363798 0 -0.5481504
vn -0.8363798 0 -0.5481504
vn -0.8363798 0 -0.5481504
vn -0.8363798 0 -0.5481504
vn -0.8363798 0 -0.5481504
vn -0.8363798 0 -0.5481504
vn -0.8363798 2.16654E-11 -0.5481504
vn -0.8363798 2.16654E-11 -0.5481504
vn -0.8363798 2.16654E-11 -0.5481504
vn -0.8369498 0 -0.5472797
vn -0.8369498 0 -0.5472797
vn -0.8369498 0 -0.5472797
vn -0.8369498 0 -0.5472797
vn -0.5471579 0 0.8370294
vn -0.5471579 0 0.8370294
vn -0.5471579 0 0.8370294
vn -0.5471579 0 0.8370294
vn -0.5471579 0 0.8370294
vn -0.5471579 0 0.8370294
vn -0.5471579 0 0.8370294
vn 0.5475032 0 -0.8368036
vn 0.5475032 0 -0.8368036
vn 0.5475032 0 -0.8368036
vn 0.5475032 3.403782E-11 -0.8368036
vn 0.5475032 3.403782E-11 -0.8368036
vn 0.5475032 3.403782E-11 -0.8368036
vn 0.5475032 0 -0.8368036
vn 0.5475032 0 -0.8368036
vn 0.5475032 0 -0.8368036
vn 0.5475032 0 -0.8368036
vn 0.5475032 0 -0.8368036
vn 0.5475032 0 -0.8368036
vn -0.8367511 0 -0.5475835
vn -0.8367511 0 -0.5475835
vn -0.8367511 0 -0.5475835
vn -0.8367511 0 -0.5475835
vn -0.5465025 0 0.8374575
vn -0.5465025 0 0.8374575
vn -0.5465025 0 0.8374575
vn -0.5465025 0 0.8374575
vn -0.5465025 0 0.8374575
vn -0.5465025 0 0.8374575
vn -0.5465025 -6.277411E-10 0.8374575
vn -0.5465025 -6.277411E-10 0.8374575
vn -0.5465025 -6.277411E-10 0.8374575
vn -0.8368006 0 -0.5475078
vn -0.8368006 0 -0.5475078
vn -0.8368006 0 -0.5475078
vn -0.8368006 0 -0.5475078
vn 0.8368083 0 0.547496
vn 0.8368083 0 0.547496
vn 0.8368083 0 0.547496
vn 0.8368083 0 0.547496
vn 0 -1 0
vn 0 -1 0
vn 0 -1 0
vn 0 -1 0
vn 0 -1 0
vn 0 -1 0
vn 0 -1 0
vn 0 -1 0
vn 0 -1 0
vn 0 -1 0
vn 0 -1 0
vn 0 -1 0
vn 0 -1 0
vn 0 -1 0
vn 0 -1 0
vn 0 -1 0
vn 0 -1 0
vn 0 -1 0
vn 0 -1 0
vn 0 -1 0
vn 0 -1 0
vn 0 -1 0
vn 0 -1 0
vn 0 -1 0
vn 0 -1 0
vn 0 -1 0
vn 0 -1 0
vn 0 -1 0

g CDNNDG02_0011900
f 1/1/1 2/2/2 3/3/3
f 4/4/4 5/5/5 6/6/6
f 7/7/7 8/8/8 9/9/9
f 10/10/10 11/11/11 12/12/12
f 13/13/13 14/14/14 15/15/15
f 16/16/16 17/17/17 18/18/18
f 19/19/19 20/20/20 21/21/21
f 22/22/22 23/23/23 24/24/24
f 25/25/25 22/22/22 24/24/24
f 26/26/26 27/27/27 28/28/28
f 29/29/29 30/30/30 31/31/31
f 32/32/32 33/33/33 34/34/34
f 35/35/35 36/36/36 37/37/37
f 39/39/39 40/40/40 41/41/41
f 38/38/38 39/39/39 41/41/41
f 42/42/42 43/43/43 44/44/44
f 45/45/45 46/46/46 47/47/47
f 48/48/48 49/49/49 50/50/50
f 51/51/51 52/52/52 53/53/53
f 57/57/57 54/54/54 56/56/56
f 56/56/56 54/54/54 55/55/55
f 61/61/61 59/59/59 60/60/60
f 61/61/61 58/58/58 59/59/59
f 62/62/62 63/63/63 64/64/64
f 65/65/65 66/66/66 67/67/67
f 68/68/68 69/69/69 70/70/70
f 71/71/71 73/73/73 74/74/74
f 71/71/71 72/72/72 73/73/73
f 75/75/75 76/76/76 77/77/77
f 78/78/78 79/79/79 80/80/80
f 81/81/81 82/82/82 83/83/83
f 84/84/84 85/85/85 86/86/86
f 87/87/87 88/88/88 89/89/89
f 90/90/90 91/91/91 92/92/92
f 96/96/96 93/93/93 95/95/95
f 94/94/94 95/95/95 93/93/93
f 100/100/100 97/97/97 98/98/98
f 98/98/98 99/99/99 100/100/100
f 103/103/103 101/101/101 102/102/102
f 101/101/101 103/103/103 104/104/104
f 105/105/105 107/107/107 108/108/108
f 105/105/105 106/106/106 107/107/107
f 109/109/109 111/111/111 112/112/112
f 109/109/109 110/110/110 111/111/111
f 113/113/113 114/114/114 115/115/115
f 116/116/116 117/117/117 118/118/118
f 119/119/119 120/120/120 121/121/121
f 124/124/124 125/125/125 123/123/123
f 122/122/122 123/123/123 125/125/125
f 129/129/129 126/126/126 128/128/128
f 128/128/128 126/126/126 127/127/127
f 130/130/130 131/131/131 132/132/132
f 133/133/133 134/134/134 135/135/135
f 136/136/136 137/137/137 138/138/138
f 139/139/139 141/141/141 142/142/142
f 139/139/139 140/140/140 141/141/141
f 143/143/143 144/144/144 145/145/145
f 147/147/147 148/148/148 149/149/149
f 149/149/149 146/146/146 147/147/147
f 150/150/150 151/151/151 152/152/152
f 153/153/153 154/154/154 155/155/155
f 156/156/156 157/157/157 158/158/158
f 159/159/159 160/160/160 161/161/161
f 165/165/165 162/162/162 164/164/164
f 164/164/164 162/162/162 163/163/163
f 166/166/166 167/167/167 168/168/168
f 169/169/169 170/170/170 171/171/171
f 172/172/172 173/173/173 174/174/174
f 175/175/175 177/177/177 178/178/178
f 175/175/175 176/176/176 177/177/177
f 182/182/182 179/179/179 181/181/181
f 180/180/180 181/181/181 179/179/179
f 210/210/210 183/183/183 203/203/203
f 205/205/205 203/203/203 204/204/204
f 183/183/183 184/184/184 185/185/185
f 209/209/209 210/210/210 205/205/205
f 197/197/197 188/188/188 195/195/195
f 185/185/185 186/186/186 198/198/198
f 186/186/186 187/187/187 198/198/198
f 187/187/187 188/188/188 198/198/198
f 197/197/197 195/195/195 196/196/196
f 189/189/189 190/190/190 188/188/188
f 190/190/190 193/193/193 194/194/194
f 191/191/191 193/193/193 190/190/190
f 192/192/192 193/193/193 191/191/191
f 198/198/198 188/188/188 197/197/197
f 194/194/194 195/195/195 190/190/190
f 195/195/195 188/188/188 190/190/190
f 208/208/208 209/209/209 207/207/207
f 207/207/207 205/205/205 206/206/206
f 207/207/207 209/209/209 205/205/205
f 198/198/198 183/183/183 185/185/185
f 205/205/205 210/210/210 203/203/203
f 199/199/199 202/202/202 198/198/198
f 200/200/200 202/202/202 199/199/199
f 201/201/201 202/202/202 200/200/200
f 202/202/202 203/203/203 198/198/198
f 203/203/203 183/183/183 198/198/198
