v -5.18064 5.435214 0.7288637
v 0.4813604 5.435214 -7.000136
v -0.01763956 5.435214 -7.321136
v 0.4813604 5.435214 -7.000136
v 6.117361 5.435214 -2.986136
v 0.9593604 5.435214 -7.746136
v 0.9593604 5.435214 -7.746136
v 6.117361 5.435214 -2.986136
v 7.34636 5.435214 -3.651136
v 6.117361 5.435214 -2.986136
v 6.68636 5.435214 -2.621136
v 7.34636 5.435214 -3.651136
v -5.18064 5.435214 0.7288637
v -3.98264 5.435214 1.497864
v 0.4813604 5.435214 -7.000136
v -5.98964 5.435214 4.627864
v -4.881639 5.435214 5.337863
v -3.98264 5.435214 1.497864
v -5.493639 5.435214 6.293864
v -3.062639 5.435214 7.852864
v -2.43264 5.435214 6.869864
v -4.881639 5.435214 5.337863
v -4.881639 5.435214 5.337863
v -2.43264 5.435214 6.869864
v -3.98264 5.435214 1.497864
v -3.98264 5.435214 1.497864
v -2.059522 5.435214 0.6440757
v -2.02064 5.435214 0.5818637
v -3.98264 5.435214 1.497864
v -2.02064 5.435214 0.5818637
v 0.4813604 5.435214 -7.000136
v -2.02064 5.435214 0.5818637
v 6.117361 5.435214 -2.986136
v 0.4813604 5.435214 -7.000136
v -2.02064 5.435214 0.5818637
v -1.978623 5.435214 0.6081599
v 6.117361 5.435214 -2.986136
v -3.98264 5.435214 1.497864
v -2.43264 5.435214 6.869864
v -0.8526396 5.435214 7.882864
v -3.98264 5.435214 1.497864
v -2.47564 5.435214 1.309864
v -2.059522 5.435214 0.6440757
v -3.98264 5.435214 1.497864
v -1.74964 5.435214 1.764864
v -2.47564 5.435214 1.309864
v -1.74964 5.435214 1.764864
v -0.8526396 5.435214 7.882864
v -1.29364 5.435214 1.036864
v -3.98264 5.435214 1.497864
v -0.8526396 5.435214 7.882864
v -1.74964 5.435214 1.764864
v -1.978623 5.435214 0.6081599
v -1.29364 5.435214 1.036864
v 6.117361 5.435214 -2.986136
v -1.29364 5.435214 1.036864
v -0.8526396 5.435214 7.882864
v 6.117361 5.435214 -2.986136
v -2.47564 6.584213 1.309864
v -1.74964 6.584213 1.764864
v -1.29364 6.584213 1.036864
v -2.02064 6.584213 0.5818637
v -5.493639 5.435214 6.293864
v -4.881639 5.435214 5.337863
v -4.881639 -5.444151 5.337863
v -5.493639 -5.444151 6.293864
v -4.27814 -5.444151 7.073364
v -3.062639 -5.444151 7.852864
v -3.062639 5.435214 7.852864
v -5.493639 5.435214 6.293864
v -5.493639 -5.444151 6.293864
v -4.27814 -5.444151 7.073364
v -5.493639 5.435214 6.293864
v -4.27814 -5.444151 7.073364
v -3.062639 5.435214 7.852864
v -3.062639 -5.444151 7.852864
v -2.43264 -5.444151 6.869864
v -2.43264 5.435214 6.869864
v -3.062639 5.435214 7.852864
v -2.43264 -5.444151 6.869864
v -0.8526396 -5.444151 7.882864
v -0.8526396 5.435214 7.882864
v -2.43264 5.435214 6.869864
v -0.8526396 -5.444151 7.882864
v 6.117361 -5.444151 -2.986136
v 6.117361 5.435214 -2.986136
v -0.8526396 5.435214 7.882864
v 6.117361 -5.444151 -2.986136
v 6.68636 -5.444151 -2.621136
v 6.68636 5.435214 -2.621136
v 6.117361 5.435214 -2.986136
v 6.68636 -5.444151 -2.621136
v 7.34636 -5.444151 -3.651136
v 7.34636 5.435214 -3.651136
v 6.68636 5.435214 -2.621136
v 0.9593604 5.435214 -7.746136
v 7.34636 5.435214 -3.651136
v 7.34636 -5.444151 -3.651136
v 0.9593604 -5.444151 -7.746136
v 0.4813604 5.435214 -7.000136
v 0.9593604 5.435214 -7.746136
v 0.9593604 -5.444151 -7.746136
v 0.4813604 -5.444151 -7.000136
v -0.01763956 5.435214 -7.321136
v 0.4813604 5.435214 -7.000136
v 0.4813604 -5.444151 -7.000136
v -0.01763956 -5.444151 -7.321136
v -5.18064 5.435214 0.7288637
v -0.01763956 5.435214 -7.321136
v -0.01763956 -5.444151 -7.321136
v -5.18064 -5.444151 0.7288637
v -5.18064 -5.444151 0.7288637
v -3.98264 -5.444151 1.497864
v -3.98264 5.435214 1.497864
v -5.18064 5.435214 0.7288637
v -5.98964 5.435214 4.627864
v -4.98614 -5.444151 3.062864
v -5.98964 -5.444151 4.627864
v -4.98614 -5.444151 3.062864
v -3.98264 5.435214 1.497864
v -3.98264 -5.444151 1.497864
v -5.98964 5.435214 4.627864
v -3.98264 5.435214 1.497864
v -4.98614 -5.444151 3.062864
v -5.98964 -5.444151 4.627864
v -4.881639 -5.444151 5.337863
v -4.881639 5.435214 5.337863
v -5.98964 5.435214 4.627864
v -2.47564 5.435214 1.309864
v -1.74964 5.435214 1.764864
v -1.74964 6.584213 1.764864
v -2.47564 6.584213 1.309864
v -1.74964 5.435214 1.764864
v -1.29364 5.435214 1.036864
v -1.29364 6.584213 1.036864
v -1.74964 6.584213 1.764864
v -2.02064 6.584213 0.5818637
v -1.978623 5.435214 0.6081599
v -2.02064 5.435214 0.5818637
v -2.02064 6.584213 0.5818637
v -1.29364 6.584213 1.036864
v -1.29364 5.435214 1.036864
v -1.978623 5.435214 0.6081599
v -2.47564 6.584213 1.309864
v -2.02064 6.584213 0.5818637
v -2.059522 5.435214 0.6440757
v -2.47564 5.435214 1.309864
v -2.059522 5.435214 0.6440757
v -2.02064 6.584213 0.5818637
v -2.02064 5.435214 0.5818637
v -5.98964 -5.444151 4.627864
v -4.98614 -5.444151 3.062864
v -3.98264 -5.444151 1.497864
v -5.18064 -5.444151 0.7288637
v -0.01763956 -5.444151 -7.321136
v 0.4813604 -5.444151 -7.000136
v 0.9593604 -5.444151 -7.746136
v 7.34636 -5.444151 -3.651136
v 6.68636 -5.444151 -2.621136
v 6.117361 -5.444151 -2.986136
v -0.8526396 -5.444151 7.882864
v -2.43264 -5.444151 6.869864
v -3.062639 -5.444151 7.852864
v -4.27814 -5.444151 7.073364
v -5.493639 -5.444151 6.293864
v -4.881639 -5.444151 5.337863
vt 0.267255 0.318931
vt 0.551491 0.174757
vt 0.563453 0.187345
vt 0.551491 0.174757
vt 0.402030 0.032621
vt 0.578941 0.162574
vt 0.578941 0.162574
vt 0.402030 0.032621
vt 0.426328 0.001443
vt 0.402030 0.032621
vt 0.388427 0.018266
vt 0.426328 0.001443
vt 0.267255 0.318931
vt 0.238596 0.288712
vt 0.551491 0.174757
vt 0.123433 0.339861
vt 0.096971 0.311912
vt 0.238596 0.288712
vt 0.061797 0.327509
vt 0.003693 0.266186
vt 0.039861 0.250130
vt 0.096971 0.311912
vt 0.096971 0.311912
vt 0.039861 0.250130
vt 0.238596 0.288712
vt 0.238596 0.288712
vt 0.269713 0.239952
vt 0.272003 0.238961
vt 0.238596 0.288712
vt 0.272003 0.238961
vt 0.551491 0.174757
vt 0.272003 0.238961
vt 0.402030 0.032621
vt 0.551491 0.174757
vt 0.272003 0.238961
vt 0.271022 0.237901
vt 0.402030 0.032621
vt 0.238596 0.288712
vt 0.039861 0.250130
vt 0.002105 0.210273
vt 0.238596 0.288712
vt 0.245214 0.250560
vt 0.269713 0.239952
vt 0.238596 0.288712
vt 0.228253 0.232244
vt 0.245214 0.250560
vt 0.228253 0.232244
vt 0.002105 0.210273
vt 0.255042 0.220620
vt 0.238596 0.288712
vt 0.002105 0.210273
vt 0.228253 0.232244
vt 0.271022 0.237901
vt 0.255042 0.220620
vt 0.402030 0.032621
vt 0.255042 0.220620
vt 0.002105 0.210273
vt 0.402030 0.032621
vt 0.685709 0.937767
vt 0.669474 0.920225
vt 0.695117 0.909091
vt 0.711353 0.926658
vt 0.395789 0.924384
vt 0.430749 0.909091
vt 0.534627 0.978791
vt 0.500141 0.993876
vt 0.595561 0.624188
vt 0.623427 0.653858
vt 0.460696 0.722123
vt 0.404211 0.661980
vt 0.567696 0.594517
vt 0.595561 0.624188
vt 0.404211 0.661980
vt 0.595561 0.624188
vt 0.460696 0.722123
vt 0.794773 0.875715
vt 0.759786 0.890943
vt 0.597895 0.813414
vt 0.633353 0.797980
vt 0.165147 0.797980
vt 0.201323 0.836467
vt 0.038771 0.905318
vt 0.002105 0.866310
vt 0.559341 0.421177
vt 0.169859 0.591247
vt 0.002105 0.515801
vt 0.396832 0.343434
vt 0.378121 0.909091
vt 0.391142 0.922901
vt 0.223724 0.993974
vt 0.210526 0.979978
vt 0.205762 0.983603
vt 0.169093 0.999547
vt 0.002105 0.925250
vt 0.039268 0.909091
vt 0.715893 0.581649
vt 0.564211 0.421182
vt 0.663321 0.343434
vt 0.812949 0.501734
vt 0.538947 0.921033
vt 0.566189 0.909091
vt 0.663441 0.980750
vt 0.636568 0.992530
vt 0.811763 0.889719
vt 0.800000 0.877302
vt 0.896389 0.797980
vt 0.907993 0.810230
vt 0.002105 0.724787
vt 0.299384 0.594517
vt 0.397949 0.666555
vt 0.104696 0.795057
vt 0.372263 0.797980
vt 0.399717 0.827123
vt 0.234142 0.894851
vt 0.206316 0.865314
vt 0.629474 0.644919
vt 0.790331 0.689729
vt 0.733567 0.714588
vt 0.790331 0.689729
vt 0.744561 0.594517
vt 0.847096 0.664869
vt 0.629474 0.644919
vt 0.744561 0.594517
vt 0.790331 0.689729
vt 0.568242 0.797980
vt 0.593584 0.824922
vt 0.429895 0.892326
vt 0.404211 0.865020
vt 0.764264 0.909091
vt 0.779928 0.926244
vt 0.763056 0.933277
vt 0.747368 0.916099
vt 0.869730 0.916904
vt 0.844398 0.927436
vt 0.827368 0.919637
vt 0.852736 0.909091
vt 0.731597 0.934770
vt 0.740843 0.925493
vt 0.741755 0.926499
vt 0.731597 0.934770
vt 0.715789 0.917337
vt 0.725970 0.909091
vt 0.740843 0.925493
vt 0.785263 0.919843
vt 0.810904 0.909091
vt 0.819184 0.917164
vt 0.795769 0.926983
vt 0.819184 0.917164
vt 0.810904 0.909091
vt 0.821372 0.916246
vt 0.875789 0.909091
vt 0.875789 0.909091
vt 0.875789 0.909091
vt 0.875789 0.909091
vt 0.875789 0.909091
vt 0.875789 0.909091
vt 0.875789 0.909091
vt 0.875789 0.909091
vt 0.875789 0.909091
vt 0.875789 0.909091
vt 0.875789 0.909091
vt 0.875789 0.909091
vt 0.875789 0.909091
vt 0.875789 0.909091
vt 0.875789 0.909091
vt 0.875789 0.909091
vn 0 1 0
vn 0 1 0
vn 0 1 0
vn 0 1 0
vn 0 1 0
vn 0 1 0
vn 0 1 0
vn 0 1 0
vn 0 1 0
vn 0 1 0
vn 0 1 0
vn 0 1 0
vn 0 1 0
vn 0 1 0
vn 0 1 0
vn 0 1 0
vn 0 1 0
vn 0 1 0
vn 0 1 0
vn 0 1 0
vn 0 1 0
vn 0 1 0
vn 0 1 0
vn 0 1 0
vn 0 1 0
vn 0 1 0
vn 0 1 0
vn 0 1 0
vn 0 1 0
vn 0 1 0
vn 0 1 0
vn 0 1 0
vn 0 1 0
vn 0 1 0
vn 0 1 0
vn 0 1 0
vn 0 1 0
vn 0 1 0
vn 0 1 0
vn 0 1 0
vn 0 1 0
vn 0 1 0
vn 0 1 0
vn 0 1 0
vn 0 1 0
vn 0 1 0
vn 0 1 0
vn 0 1 0
vn 0 1 0
vn 0 1 0
vn 0 1 0
vn 0 1 0
vn 0 1 0
vn 0 1 0
vn 0 1 0
vn 0 1 0
vn 0 1 0
vn 0 1 0
vn 0 1 0
vn 0 1 0
vn 0 1 0
vn 0 1 0
vn -0.8422074 0 -0.5391537
vn -0.8422074 0 -0.5391537
vn -0.8422074 0 -0.5391537
vn -0.8422074 0 -0.5391537
vn -0.5398297 0 0.8417742
vn -0.5398297 0 0.8417742
vn -0.5398297 0 0.8417742
vn -0.5398297 0 0.8417742
vn -0.5398297 0 0.8417742
vn -0.5398297 0 0.8417742
vn -0.5398297 3.602983E-11 0.8417742
vn -0.5398297 3.602983E-11 0.8417742
vn -0.5398297 3.602983E-11 0.8417742
vn 0.841929 0 0.5395883
vn 0.841929 0 0.5395883
vn 0.841929 0 0.5395883
vn 0.841929 0 0.5395883
vn -0.5397339 0 0.8418357
vn -0.5397339 0 0.8418357
vn -0.5397339 0 0.8418357
vn -0.5397339 0 0.8418357
vn 0.8417844 0 0.5398139
vn 0.8417844 0 0.5398139
vn 0.8417844 0 0.5398139
vn 0.8417844 0 0.5398139
vn -0.5399349 0 0.8417068
vn -0.5399349 0 0.8417068
vn -0.5399349 0 0.8417068
vn -0.5399349 0 0.8417068
vn 0.8419744 0 0.5395175
vn 0.8419744 0 0.5395175
vn 0.8419744 0 0.5395175
vn 0.8419744 0 0.5395175
vn 0.539738 0 -0.8418331
vn 0.539738 0 -0.8418331
vn 0.539738 0 -0.8418331
vn 0.539738 0 -0.8418331
vn -0.8419843 0 -0.539502
vn -0.8419843 0 -0.539502
vn -0.8419843 0 -0.539502
vn -0.8419843 0 -0.539502
vn 0.5410131 0 -0.8410141
vn 0.5410131 0 -0.8410141
vn 0.5410131 0 -0.8410141
vn 0.5410131 0 -0.8410141
vn -0.8417488 0 -0.5398694
vn -0.8417488 0 -0.5398694
vn -0.8417488 0 -0.5398694
vn -0.8417488 0 -0.5398694
vn -0.5401894 0 0.8415434
vn -0.5401894 0 0.8415434
vn -0.5401894 0 0.8415434
vn -0.5401894 0 0.8415434
vn -0.8418071 0 -0.5397785
vn -0.8418071 0 -0.5397785
vn -0.8418071 0 -0.5397785
vn -0.8418071 0 -0.5397785
vn -0.8418071 0 -0.5397785
vn -0.8418071 0 -0.5397785
vn -0.8418071 2.310373E-11 -0.5397785
vn -0.8418071 2.310373E-11 -0.5397785
vn -0.8418071 2.310373E-11 -0.5397785
vn -0.539528 0 0.8419676
vn -0.539528 0 0.8419676
vn -0.539528 0 0.8419676
vn -0.539528 0 0.8419676
vn -0.5310476 0 0.847342
vn -0.5310476 0 0.847342
vn -0.5310476 0 0.847342
vn -0.5310476 0 0.847342
vn 0.8474747 0 0.5308358
vn 0.8474747 0 0.5308358
vn 0.8474747 0 0.5308358
vn 0.8474747 0 0.5308358
vn 0.5305228 0 -0.8476706
vn 0.5305228 0 -0.8476706
vn 0.5305228 0 -0.8476706
vn 0.5305229 1.607991E-09 -0.8476706
vn 0.5305229 8.039957E-10 -0.8476706
vn 0.5305229 0 -0.8476706
vn 0.5305229 8.039957E-10 -0.8476706
vn -0.8479983 -1.458774E-09 -0.529999
vn -0.8479983 -2.917547E-09 -0.529999
vn -0.8479983 -1.458774E-09 -0.529999
vn -0.8479983 0 -0.529999
vn -0.8479983 0 -0.5299989
vn -0.8479983 0 -0.5299989
vn -0.8479983 0 -0.5299989
vn 0 -1 0
vn 0 -1 0
vn 0 -1 0
vn 0 -1 0
vn 0 -1 0
vn 0 -1 0
vn 0 -1 0
vn 0 -1 0
vn 0 -1 0
vn 0 -1 0
vn 0 -1 0
vn 0 -1 0
vn 0 -1 0
vn 0 -1 0
vn 0 -1 0
vn 0 -1 0

g CDNNDG02_0004440
f 1/1/1 2/2/2 3/3/3
f 4/4/4 5/5/5 6/6/6
f 7/7/7 8/8/8 9/9/9
f 10/10/10 11/11/11 12/12/12
f 13/13/13 14/14/14 15/15/15
f 16/16/16 17/17/17 18/18/18
f 22/22/22 19/19/19 20/20/20
f 21/21/21 22/22/22 20/20/20
f 23/23/23 24/24/24 25/25/25
f 26/26/26 27/27/27 28/28/28
f 29/29/29 30/30/30 31/31/31
f 32/32/32 33/33/33 34/34/34
f 35/35/35 36/36/36 37/37/37
f 38/38/38 39/39/39 40/40/40
f 41/41/41 42/42/42 43/43/43
f 44/44/44 45/45/45 46/46/46
f 47/47/47 48/48/48 49/49/49
f 50/50/50 51/51/51 52/52/52
f 53/53/53 54/54/54 55/55/55
f 56/56/56 57/57/57 58/58/58
f 59/59/59 61/61/61 62/62/62
f 59/59/59 60/60/60 61/61/61
f 63/63/63 65/65/65 66/66/66
f 63/63/63 64/64/64 65/65/65
f 67/67/67 68/68/68 69/69/69
f 70/70/70 71/71/71 72/72/72
f 73/73/73 74/74/74 75/75/75
f 77/77/77 78/78/78 76/76/76
f 76/76/76 78/78/78 79/79/79
f 83/83/83 80/80/80 82/82/82
f 82/82/82 80/80/80 81/81/81
f 87/87/87 84/84/84 85/85/85
f 85/85/85 86/86/86 87/87/87
f 88/88/88 90/90/90 91/91/91
f 90/90/90 88/88/88 89/89/89
f 93/93/93 94/94/94 92/92/92
f 92/92/92 94/94/94 95/95/95
f 99/99/99 96/96/96 97/97/97
f 97/97/97 98/98/98 99/99/99
f 100/100/100 102/102/102 103/103/103
f 100/100/100 101/101/101 102/102/102
f 106/106/106 104/104/104 105/105/105
f 104/104/104 106/106/106 107/107/107
f 111/111/111 108/108/108 110/110/110
f 110/110/110 108/108/108 109/109/109
f 112/112/112 114/114/114 115/115/115
f 114/114/114 112/112/112 113/113/113
f 116/116/116 117/117/117 118/118/118
f 119/119/119 120/120/120 121/121/121
f 122/122/122 123/123/123 124/124/124
f 125/125/125 127/127/127 128/128/128
f 127/127/127 125/125/125 126/126/126
f 130/130/130 131/131/131 132/132/132
f 132/132/132 129/129/129 130/130/130
f 134/134/134 135/135/135 136/136/136
f 133/133/133 134/134/134 136/136/136
f 137/137/137 138/138/138 139/139/139
f 143/143/143 140/140/140 141/141/141
f 141/141/141 142/142/142 143/143/143
f 147/147/147 144/144/144 146/146/146
f 146/146/146 144/144/144 145/145/145
f 148/148/148 149/149/149 150/150/150
f 151/151/151 152/152/152 166/166/166
f 164/164/164 165/165/165 166/166/166
f 162/162/162 164/164/164 166/166/166
f 162/162/162 163/163/163 164/164/164
f 160/160/160 156/156/156 157/157/157
f 153/153/153 154/154/154 156/156/156
f 166/166/166 152/152/152 162/162/162
f 154/154/154 155/155/155 156/156/156
f 153/153/153 161/161/161 162/162/162
f 153/153/153 156/156/156 160/160/160
f 152/152/152 153/153/153 162/162/162
f 157/157/157 158/158/158 160/160/160
f 161/161/161 153/153/153 160/160/160
f 158/158/158 159/159/159 160/160/160
