v -0.3470499 3.102663 -3.854296
v 1.75995 3.102663 1.409704
v 3.02995 3.102663 -0.5462962
v -3.48405 3.102663 1.447704
v 0.1469501 3.102663 3.892704
v 1.75995 3.102663 1.409704
v -3.48405 3.102663 1.447704
v 1.75995 3.102663 1.409704
v -0.3470499 3.102663 -3.854296
v -0.3470499 3.102663 -3.854296
v 3.02995 3.102663 -0.5462962
v 3.58795 3.102663 -1.405296
v 1.75995 -3.102663 1.409704
v 1.75995 3.102663 1.409704
v 0.1469501 -3.102663 3.892704
v 0.1469501 3.102663 3.892704
v 3.02995 -3.102663 -0.5462962
v 3.02995 3.102663 -0.5462962
v 1.75995 -3.102663 1.409704
v 1.75995 3.102663 1.409704
v 3.58795 -3.102663 -1.405296
v 3.58795 3.102663 -1.405296
v 3.02995 3.102663 -0.5462962
v 3.02995 -3.102663 -0.5462962
v -0.3470499 -3.102663 -3.854296
v -0.3470499 3.102663 -3.854296
v 3.58795 3.102663 -1.405296
v 3.58795 -3.102663 -1.405296
v -3.48405 3.102663 1.447704
v -1.91555 -3.102663 -1.203296
v -3.48405 -3.102663 1.447704
v -1.91555 -3.102663 -1.203296
v -0.3470499 3.102663 -3.854296
v -0.3470499 -3.102663 -3.854296
v -3.48405 3.102663 1.447704
v -0.3470499 3.102663 -3.854296
v -1.91555 -3.102663 -1.203296
v -1.66855 -3.102663 2.670204
v 0.1469501 -3.102663 3.892704
v 0.1469501 3.102663 3.892704
v -3.48405 3.102663 1.447704
v -3.48405 -3.102663 1.447704
v -1.66855 -3.102663 2.670204
v -3.48405 3.102663 1.447704
v -1.66855 -3.102663 2.670204
v 0.1469501 3.102663 3.892704
v -1.91555 -3.102663 -1.203296
v -0.3470499 -3.102663 -3.854296
v 3.02995 -3.102663 -0.5462962
v -3.48405 -3.102663 1.447704
v -1.66855 -3.102663 2.670204
v 1.75995 -3.102663 1.409704
v 3.58795 -3.102663 -1.405296
v 0.1469501 -3.102663 3.892704
vt 0.335961 0.778475
vt 0.109314 0.716063
vt 0.193454 0.678127
vt 0.107881 0.872204
vt 0.002506 0.764243
vt 0.109314 0.716063
vt 0.107881 0.872204
vt 0.109314 0.716063
vt 0.335961 0.778475
vt 0.335961 0.778475
vt 0.193454 0.678127
vt 0.230406 0.661458
vt 0.108376 0.930609
vt 0.170457 0.951123
vt 0.002506 0.978145
vt 0.063772 0.999024
vt 0.191778 0.893181
vt 0.254501 0.913407
vt 0.108376 0.930609
vt 0.170457 0.951123
vt 0.228405 0.876736
vt 0.291410 0.896836
vt 0.254501 0.913407
vt 0.191778 0.893181
vt 0.521303 0.680632
vt 0.654089 0.661458
vt 0.754137 0.778612
vt 0.620598 0.796899
vt 0.658565 0.905114
vt 0.411173 0.921428
vt 0.524103 0.876736
vt 0.411173 0.921428
vt 0.430987 0.995175
vt 0.298246 0.966118
vt 0.658565 0.905114
vt 0.430987 0.995175
vt 0.411173 0.921428
vt 0.396493 0.745841
vt 0.343358 0.692054
vt 0.406950 0.661458
vt 0.514045 0.769870
vt 0.449627 0.799628
vt 0.396493 0.745841
vt 0.514045 0.769870
vt 0.396493 0.745841
vt 0.406950 0.661458
vt 0.897243 0.876736
vt 0.897243 0.876736
vt 0.897243 0.876736
vt 0.897243 0.876736
vt 0.897243 0.876736
vt 0.897243 0.876736
vt 0.897243 0.876736
vt 0.897243 0.876736
vn 0 1 0
vn 0 1 0
vn 0 1 0
vn 0 1 0
vn 0 1 0
vn 0 1 0
vn 0 1 0
vn 0 1 0
vn 0 1 0
vn 0 1 0
vn 0 1 0
vn 0 1 0
vn 0.8385902 0 0.5447628
vn 0.8385902 0 0.5447628
vn 0.8385902 0 0.5447628
vn 0.8385902 0 0.5447628
vn 0.8387178 0 0.5445663
vn 0.8387178 0 0.5445663
vn 0.8387178 0 0.5445663
vn 0.8387178 0 0.5445663
vn 0.8385997 0 0.5447481
vn 0.8385997 0 0.5447481
vn 0.8385997 0 0.5447481
vn 0.8385997 0 0.5447481
vn 0.5283883 0 -0.8490028
vn 0.5283883 0 -0.8490028
vn 0.5283883 0 -0.8490028
vn 0.5283883 0 -0.8490028
vn -0.860642 0 -0.5092105
vn -0.860642 0 -0.5092105
vn -0.860642 0 -0.5092105
vn -0.860642 0 -0.5092105
vn -0.860642 0 -0.5092105
vn -0.860642 0 -0.5092105
vn -0.860642 3.821228E-11 -0.5092105
vn -0.860642 3.821228E-11 -0.5092105
vn -0.860642 3.821228E-11 -0.5092105
vn -0.5585427 0 0.8294758
vn -0.5585427 0 0.8294758
vn -0.5585427 0 0.8294758
vn -0.5585427 0 0.8294758
vn -0.5585427 0 0.8294758
vn -0.5585427 0 0.8294758
vn -0.5585427 -5.962605E-11 0.8294758
vn -0.5585427 -5.962605E-11 0.8294758
vn -0.5585427 -5.962605E-11 0.8294758
vn 0 -1 0
vn 0 -1 0
vn 0 -1 0
vn 0 -1 0
vn 0 -1 0
vn 0 -1 0
vn 0 -1 0
vn 0 -1 0

g CDNNDG02_0018080
f 1/1/1 2/2/2 3/3/3
f 4/4/4 5/5/5 6/6/6
f 7/7/7 8/8/8 9/9/9
f 10/10/10 11/11/11 12/12/12
f 13/13/13 14/14/14 15/15/15
f 15/15/15 14/14/14 16/16/16
f 17/17/17 18/18/18 19/19/19
f 19/19/19 18/18/18 20/20/20
f 21/21/21 22/22/22 23/23/23
f 24/24/24 21/21/21 23/23/23
f 25/25/25 26/26/26 27/27/27
f 27/27/27 28/28/28 25/25/25
f 29/29/29 30/30/30 31/31/31
f 32/32/32 33/33/33 34/34/34
f 35/35/35 36/36/36 37/37/37
f 38/38/38 39/39/39 40/40/40
f 41/41/41 42/42/42 43/43/43
f 44/44/44 45/45/45 46/46/46
f 47/47/47 48/48/48 49/49/49
f 50/50/50 47/47/47 51/51/51
f 47/47/47 52/52/52 51/51/51
f 47/47/47 49/49/49 52/52/52
f 48/48/48 53/53/53 49/49/49
f 51/51/51 52/52/52 54/54/54
