v -3.299312 5.930296 -3.459905
v 6.725688 5.930296 -2.409905
v -0.8453116 5.930296 -7.276905
v -3.279829 5.930296 -2.782112
v -3.094312 5.930296 3.672095
v 2.751688 5.930296 2.298095
v -3.094312 5.930296 3.672095
v 0.9806883 5.930296 6.291095
v 2.751688 5.930296 2.298095
v -3.279829 5.930296 -2.782112
v 6.725688 5.930296 -2.409905
v -2.977312 5.930296 -3.252905
v -3.299312 5.930296 -3.459905
v -2.977312 5.930296 -3.252905
v 6.725688 5.930296 -2.409905
v -3.279829 5.930296 -2.782112
v 2.751688 5.930296 2.298095
v 3.746688 5.930296 0.750095
v 0.9806883 5.930296 6.291095
v 6.725688 5.930296 -2.409905
v 3.304688 5.930296 2.654095
v 3.746688 5.930296 0.750095
v 4.299688 5.930296 1.105095
v 6.725688 5.930296 -2.409905
v 3.304688 5.930296 2.654095
v 6.725688 5.930296 -2.409905
v 4.299688 5.930296 1.105095
v -3.279829 5.930296 -2.782112
v 3.746688 5.930296 0.750095
v 6.725688 5.930296 -2.409905
v 0.9806883 5.930296 6.291095
v 3.304688 5.930296 2.654095
v 2.751688 5.930296 2.298095
v 0.9806883 5.930296 6.291095
v 1.088688 5.930296 6.361095
v 6.725688 5.930296 -2.409905
v -3.617312 5.930296 -2.256905
v -3.094312 5.930296 3.672095
v -3.279829 5.930296 -2.782112
v -3.939312 5.930296 -2.463905
v -3.094312 5.930296 3.672095
v -3.617312 5.930296 -2.256905
v -6.483312 5.930296 1.493095
v -3.094312 5.930296 3.672095
v -3.939312 5.930296 -2.463905
v -3.094312 5.279296 3.672095
v 0.07168835 4.925296 7.704095
v 0.9806883 5.280296 6.291095
v -4.003312 4.925296 5.085095
v 0.07168835 4.925296 7.704095
v -3.094312 5.279296 3.672095
v -3.939312 6.909297 -2.463905
v -3.617312 6.910296 -2.256905
v -2.977312 6.909297 -3.252905
v -3.939312 6.909297 -2.463905
v -2.977312 6.909297 -3.252905
v -3.299312 6.909297 -3.459905
v 2.751688 6.284297 2.298095
v 3.846688 6.479296 1.224095
v 3.746688 6.284297 0.750095
v 2.751688 6.284297 2.298095
v 3.229688 6.479296 2.196095
v 3.846688 6.479296 1.224095
v 2.751688 6.284297 2.298095
v 3.304688 6.285296 2.654095
v 3.229688 6.479296 2.196095
v 3.746688 6.284297 0.750095
v 3.846688 6.479296 1.224095
v 4.299688 6.285296 1.105095
v 3.229688 6.479296 2.196095
v 4.299688 6.285296 1.105095
v 3.846688 6.479296 1.224095
v 3.229688 6.479296 2.196095
v 3.304688 6.285296 2.654095
v 4.299688 6.285296 1.105095
v -6.483312 5.930296 1.493095
v -3.094312 5.279296 3.672095
v -3.094312 5.930296 3.672095
v -6.483312 -5.878818 1.493095
v -3.094312 -5.878818 3.672095
v -3.094312 5.279296 3.672095
v -6.483312 5.930296 1.493095
v -3.094312 5.279296 3.672095
v 0.9806883 5.280296 6.291095
v 0.9806883 5.930296 6.291095
v -3.094312 5.930296 3.672095
v 0.9806883 -5.878818 6.291095
v 1.088688 -5.878818 6.361095
v 1.088688 5.930296 6.361095
v 0.9806883 5.280296 6.291095
v 0.9806883 5.930296 6.291095
v 0.9806883 5.280296 6.291095
v 1.088688 5.930296 6.361095
v 1.088688 -5.878818 6.361095
v 6.725688 -5.878818 -2.409905
v 6.725688 5.930296 -2.409905
v 1.088688 5.930296 6.361095
v -0.8453116 5.930296 -7.276905
v 6.725688 5.930296 -2.409905
v 6.725688 -5.878818 -2.409905
v -0.8453116 -5.878818 -7.276905
v -3.299312 5.930296 -3.459905
v -0.8453116 5.930296 -7.276905
v -0.8453116 -5.878818 -7.276905
v -3.299312 -5.878818 -3.459905
v -3.939312 5.930296 -2.463905
v -3.299312 5.930296 -3.459905
v -3.299312 -5.878818 -3.459905
v -3.939312 -5.878818 -2.463905
v -6.483312 5.930296 1.493095
v -3.939312 5.930296 -2.463905
v -3.939312 -5.878818 -2.463905
v -6.483312 -5.878818 1.493095
v -3.939312 6.909297 -2.463905
v -3.299312 6.909297 -3.459905
v -3.299312 5.930296 -3.459905
v -3.939312 5.930296 -2.463905
v -4.003312 -5.878818 5.085095
v 0.07168835 -5.878818 7.704095
v 0.07168835 4.925296 7.704095
v -4.003312 4.925296 5.085095
v 0.5261884 -5.878818 6.997595
v 0.9806883 -5.878818 6.291095
v 0.9806883 5.280296 6.291095
v 0.07168835 4.925296 7.704095
v 0.07168835 -5.878818 7.704095
v 0.5261884 -5.878818 6.997595
v 0.07168835 4.925296 7.704095
v 0.5261884 -5.878818 6.997595
v 0.9806883 5.280296 6.291095
v -4.003312 4.925296 5.085095
v -3.094312 5.279296 3.672095
v -3.094312 -5.878818 3.672095
v -4.003312 -5.878818 5.085095
v -3.279829 5.930296 -2.782112
v -2.977312 5.930296 -3.252905
v -2.977312 6.909297 -3.252905
v -3.617312 6.910296 -2.256905
v -3.617312 5.930296 -2.256905
v -3.279829 5.930296 -2.782112
v -3.617312 6.910296 -2.256905
v -3.279829 5.930296 -2.782112
v -2.977312 6.909297 -3.252905
v -3.299312 6.909297 -3.459905
v -2.977312 6.909297 -3.252905
v -2.977312 5.930296 -3.252905
v -3.299312 5.930296 -3.459905
v -3.939312 5.930296 -2.463905
v -3.617312 5.930296 -2.256905
v -3.617312 6.910296 -2.256905
v -3.939312 6.909297 -2.463905
v 2.751688 6.284297 2.298095
v 3.746688 6.284297 0.750095
v 3.746688 5.930296 0.750095
v 2.751688 5.930296 2.298095
v 2.751688 5.930296 2.298095
v 3.304688 5.930296 2.654095
v 3.304688 6.285296 2.654095
v 2.751688 6.284297 2.298095
v 3.746688 6.284297 0.750095
v 4.299688 6.285296 1.105095
v 4.299688 5.930296 1.105095
v 3.746688 5.930296 0.750095
v 3.304688 5.930296 2.654095
v 4.299688 5.930296 1.105095
v 4.299688 6.285296 1.105095
v 3.304688 6.285296 2.654095
v -3.094312 -5.878818 3.672095
v -6.483312 -5.878818 1.493095
v -3.939312 -5.878818 -2.463905
v -3.299312 -5.878818 -3.459905
v -0.8453116 -5.878818 -7.276905
v 6.725688 -5.878818 -2.409905
v 1.088688 -5.878818 6.361095
v 0.9806883 -5.878818 6.291095
v 0.5261884 -5.878818 6.997595
v 0.07168835 -5.878818 7.704095
v -4.003312 -5.878818 5.085095
vt 0.178658 0.112277
vt 0.225722 0.461365
vt 0.002667 0.197256
vt 0.209853 0.113035
vt 0.506899 0.120249
vt 0.442913 0.323589
vt 0.506899 0.120249
vt 0.626922 0.262409
vt 0.442913 0.323589
vt 0.209853 0.113035
vt 0.225722 0.461365
vt 0.188145 0.123511
vt 0.178658 0.112277
vt 0.188145 0.123511
vt 0.225722 0.461365
vt 0.209853 0.113035
vt 0.442913 0.323589
vt 0.371538 0.358042
vt 0.626922 0.262409
vt 0.225722 0.461365
vt 0.459228 0.342880
vt 0.371538 0.358042
vt 0.387807 0.377333
vt 0.225722 0.461365
vt 0.459228 0.342880
vt 0.225722 0.461365
vt 0.387807 0.377333
vt 0.209853 0.113035
vt 0.371538 0.358042
vt 0.225722 0.461365
vt 0.626922 0.262409
vt 0.459228 0.342880
vt 0.442913 0.323589
vt 0.626922 0.262409
vt 0.630130 0.266177
vt 0.225722 0.461365
vt 0.234069 0.101348
vt 0.506899 0.120249
vt 0.209853 0.113035
vt 0.224582 0.090115
vt 0.506899 0.120249
vt 0.234069 0.101348
vt 0.407036 0.002016
vt 0.506899 0.120249
vt 0.224582 0.090115
vt 0.200000 0.781977
vt 0.386596 0.888416
vt 0.319987 0.922476
vt 0.266656 0.747984
vt 0.386596 0.888416
vt 0.200000 0.781977
vt 0.046642 0.967742
vt 0.055720 0.978372
vt 0.011751 0.999350
vt 0.046642 0.967742
vt 0.011751 0.999350
vt 0.002667 0.988718
vt 0.748856 0.747984
vt 0.699816 0.785835
vt 0.680000 0.781178
vt 0.748856 0.747984
vt 0.743063 0.765245
vt 0.699816 0.785835
vt 0.168015 0.967742
vt 0.182732 0.985126
vt 0.162667 0.984095
vt 0.189333 0.967742
vt 0.207290 0.970546
vt 0.203629 0.985186
vt 0.879398 0.747984
vt 0.832000 0.783735
vt 0.836029 0.768325
vt 0.879398 0.747984
vt 0.901097 0.750938
vt 0.832000 0.783735
vt 0.637333 0.082660
vt 0.742264 0.195653
vt 0.737798 0.200256
vt 0.718689 0.002016
vt 0.817698 0.117912
vt 0.742264 0.195653
vt 0.637333 0.082660
vt 0.742264 0.195653
vt 0.862907 0.336941
vt 0.858545 0.341651
vt 0.737798 0.200256
vt 0.936697 0.257263
vt 0.939877 0.260956
vt 0.861772 0.345398
vt 0.862907 0.336941
vt 0.858545 0.341651
vt 0.862907 0.336941
vt 0.861772 0.345398
vt 0.975814 0.492962
vt 0.577757 0.684415
vt 0.493333 0.659988
vt 0.897224 0.465726
vt 0.226667 0.967742
vt 0.226667 0.967742
vt 0.226667 0.967742
vt 0.226667 0.967742
vt 0.177939 0.657226
vt 0.002667 0.742749
vt 0.090111 0.659377
vt 0.262849 0.575090
vt 0.223675 0.634921
vt 0.177939 0.657226
vt 0.262849 0.575090
vt 0.307923 0.553108
vt 0.405383 0.546257
vt 0.223675 0.634921
vt 0.307923 0.553108
vt 0.487003 0.465726
vt 0.216580 0.641811
vt 0.170788 0.664143
vt 0.177939 0.657226
vt 0.223675 0.634921
vt 0.074457 0.747984
vt 0.192855 0.886853
vt 0.122654 0.963278
vt 0.002667 0.822547
vt 0.640882 0.787726
vt 0.609249 0.802768
vt 0.536000 0.777661
vt 0.602476 0.747984
vt 0.672516 0.772685
vt 0.640882 0.787726
vt 0.602476 0.747984
vt 0.640882 0.787726
vt 0.536000 0.777661
vt 0.458333 0.821876
vt 0.392000 0.855635
vt 0.466661 0.778860
vt 0.529747 0.747984
vt 0.088879 0.980902
vt 0.068169 0.990615
vt 0.061333 0.988317
vt 0.105192 0.967742
vt 0.111982 0.970067
vt 0.088879 0.980902
vt 0.105192 0.967742
vt 0.088879 0.980902
vt 0.061333 0.988317
vt 0.253333 0.967742
vt 0.253333 0.967742
vt 0.253333 0.967742
vt 0.253333 0.967742
vt 0.147449 0.967742
vt 0.155701 0.977856
vt 0.149590 0.984122
vt 0.141333 0.973988
vt 0.823618 0.750457
vt 0.754667 0.783559
vt 0.757089 0.781072
vt 0.826009 0.747984
vt 0.119504 0.967742
vt 0.133991 0.985287
vt 0.131821 0.987674
vt 0.117333 0.970115
vt 0.213333 0.967742
vt 0.213333 0.967742
vt 0.213333 0.967742
vt 0.213333 0.967742
vt 0.978257 0.748744
vt 0.909095 0.781426
vt 0.906667 0.780680
vt 0.975859 0.747984
vt 0.240000 0.967742
vt 0.240000 0.967742
vt 0.240000 0.967742
vt 0.240000 0.967742
vt 0.240000 0.967742
vt 0.240000 0.967742
vt 0.240000 0.967742
vt 0.240000 0.967742
vt 0.240000 0.967742
vt 0.240000 0.967742
vt 0.240000 0.967742
vn 0 1 0
vn 0 1 0
vn 0 1 0
vn 0 1 0
vn 0 1 0
vn 0 1 0
vn 0 1 0
vn 0 1 0
vn 0 1 0
vn 0 1 0
vn 0 1 0
vn 0 1 0
vn 0 1 0
vn 0 1 0
vn 0 1 0
vn 0 1 0
vn 0 1 0
vn 0 1 0
vn 0 1 0
vn 0 1 0
vn 0 1 0
vn 0 1 0
vn 0 1 0
vn 0 1 0
vn 0 1 0
vn 0 1 0
vn 0 1 0
vn 0 1 0
vn 0 1 0
vn 0 1 0
vn 0 1 0
vn 0 1 0
vn 0 1 0
vn 0 1 0
vn 0 1 0
vn 0 1 0
vn 0 1 0
vn 0 1 0
vn 0 1 0
vn 0 1 0
vn 0 1 0
vn 0 1 0
vn 0 1 0
vn 0 1 0
vn 0 1 0
vn -0.1119404 0.9783984 0.1737987
vn -0.1119404 0.9783984 0.1737987
vn -0.1119404 0.9783984 0.1737987
vn -0.1114691 0.978516 0.173439
vn -0.1114691 0.978516 0.173439
vn -0.1114691 0.978516 0.173439
vn -0.001740977 0.9999962 -0.002122713
vn -0.001740977 0.9999962 -0.002122713
vn -0.001740977 0.9999962 -0.002122713
vn 0 1 0
vn 0 1 0
vn 0 1 0
vn -0.4181305 0.8677184 -0.2687596
vn -0.4181305 0.8677184 -0.2687596
vn -0.4181305 0.8677184 -0.2687596
vn -0.411898 0.8729134 -0.261462
vn -0.411898 0.8729134 -0.261462
vn -0.411898 0.8729134 -0.261462
vn -0.2672054 0.8708293 0.4126229
vn -0.2672054 0.8708293 0.4126229
vn -0.2672054 0.8708293 0.4126229
vn 0.264249 0.8710366 -0.4140866
vn 0.264249 0.8710366 -0.4140866
vn 0.264249 0.8710366 -0.4140866
vn 0.4390101 0.8541732 0.2786721
vn 0.4390101 0.8541732 0.2786721
vn 0.4390101 0.8541732 0.2786721
vn 0.4456874 0.8481759 0.2862873
vn 0.4456874 0.8481759 0.2862873
vn 0.4456874 0.8481759 0.2862873
vn -0.5408203 0 0.8411381
vn -0.5408203 0 0.8411381
vn -0.5408203 0 0.8411381
vn -0.5408203 0 0.8411381
vn -0.5408203 0 0.8411381
vn -0.5408203 0 0.8411381
vn -0.5408203 0 0.8411381
vn -0.5406637 0 0.8412389
vn -0.5406637 0 0.8412389
vn -0.5406637 0 0.8412389
vn -0.5406637 0 0.8412389
vn -0.5438955 0 0.839153
vn -0.5438955 0 0.839153
vn -0.5438955 0 0.839153
vn -0.5438955 0 0.839153
vn -0.5438955 0 0.839153
vn -0.5438955 0 0.839153
vn -0.5438955 0 0.839153
vn 0.8412439 0 0.5406558
vn 0.8412439 0 0.5406558
vn 0.8412439 0 0.5406558
vn 0.8412439 0 0.5406558
vn 0.540752 0 -0.8411821
vn 0.540752 0 -0.8411821
vn 0.540752 0 -0.8411821
vn 0.540752 0 -0.8411821
vn -0.841157 0 -0.540791
vn -0.841157 0 -0.540791
vn -0.841157 0 -0.540791
vn -0.841157 0 -0.540791
vn -0.8412882 0 -0.5405868
vn -0.8412882 0 -0.5405868
vn -0.8412882 0 -0.5405868
vn -0.8412882 0 -0.5405868
vn -0.8411577 0 -0.5407898
vn -0.8411577 0 -0.5407898
vn -0.8411577 0 -0.5407898
vn -0.8411577 0 -0.5407898
vn -0.8412882 0 -0.5405868
vn -0.8412882 0 -0.5405868
vn -0.8412882 0 -0.5405868
vn -0.8412882 0 -0.5405868
vn -0.5406637 0 0.8412389
vn -0.5406637 0 0.8412389
vn -0.5406637 0 0.8412389
vn -0.5406637 0 0.8412389
vn 0.8410044 0 0.5410283
vn 0.8410044 0 0.5410283
vn 0.8410044 0 0.5410283
vn 0.8410044 0 0.5410283
vn 0.8410044 0 0.5410283
vn 0.8410044 0 0.5410283
vn 0.8410044 2.294161E-11 0.5410283
vn 0.8410044 2.294161E-11 0.5410283
vn 0.8410044 2.294161E-11 0.5410283
vn -0.8410044 0 -0.5410283
vn -0.8410044 0 -0.5410283
vn -0.8410044 0 -0.5410283
vn -0.8410044 0 -0.5410283
vn 0.8412882 0 0.5405868
vn 0.8412882 0 0.5405868
vn 0.8412882 0 0.5405868
vn 0.8412882 0 0.5405868
vn 0.8412882 0 0.5405868
vn 0.8412882 0 0.5405868
vn 0.8412882 -9.185681E-10 0.5405868
vn 0.8412882 -9.185681E-10 0.5405868
vn 0.8412882 -9.185681E-10 0.5405868
vn 0.5407576 0 -0.8411785
vn 0.5407576 0 -0.8411785
vn 0.5407576 0 -0.8411785
vn 0.5407576 0 -0.8411785
vn -0.5407576 0 0.8411785
vn -0.5407576 0 0.8411785
vn -0.5407576 0 0.8411785
vn -0.5407576 0 0.8411785
vn -0.8412138 0 -0.5407026
vn -0.8412138 0 -0.5407026
vn -0.8412138 0 -0.5407026
vn -0.8412138 0 -0.5407026
vn -0.5412954 0 0.8408325
vn -0.5412954 0 0.8408325
vn -0.5412954 0 0.8408325
vn -0.5412954 0 0.8408325
vn 0.5402191 0 -0.8415244
vn 0.5402191 0 -0.8415244
vn 0.5402191 0 -0.8415244
vn 0.5402191 0 -0.8415244
vn 0.8413725 0 0.5404556
vn 0.8413725 0 0.5404556
vn 0.8413725 0 0.5404556
vn 0.8413725 0 0.5404556
vn 0 -1 0
vn 0 -1 0
vn 0 -1 0
vn 0 -1 0
vn 0 -1 0
vn 0 -1 0
vn 0 -1 0
vn 0 -1 0
vn 0 -1 0
vn 0 -1 0
vn 0 -1 0

g CDNNDG02_0004730
f 1/1/1 2/2/2 3/3/3
f 4/4/4 5/5/5 6/6/6
f 7/7/7 8/8/8 9/9/9
f 10/10/10 11/11/11 12/12/12
f 13/13/13 14/14/14 15/15/15
f 16/16/16 17/17/17 18/18/18
f 19/19/19 20/20/20 21/21/21
f 22/22/22 23/23/23 24/24/24
f 25/25/25 26/26/26 27/27/27
f 28/28/28 29/29/29 30/30/30
f 31/31/31 32/32/32 33/33/33
f 34/34/34 35/35/35 36/36/36
f 37/37/37 38/38/38 39/39/39
f 40/40/40 41/41/41 42/42/42
f 43/43/43 44/44/44 45/45/45
f 46/46/46 47/47/47 48/48/48
f 49/49/49 50/50/50 51/51/51
f 52/52/52 53/53/53 54/54/54
f 55/55/55 56/56/56 57/57/57
f 58/58/58 59/59/59 60/60/60
f 61/61/61 62/62/62 63/63/63
f 64/64/64 65/65/65 66/66/66
f 67/67/67 68/68/68 69/69/69
f 70/70/70 71/71/71 72/72/72
f 73/73/73 74/74/74 75/75/75
f 76/76/76 77/77/77 78/78/78
f 82/82/82 79/79/79 81/81/81
f 81/81/81 79/79/79 80/80/80
f 84/84/84 85/85/85 86/86/86
f 83/83/83 84/84/84 86/86/86
f 88/88/88 89/89/89 90/90/90
f 90/90/90 87/87/87 88/88/88
f 91/91/91 92/92/92 93/93/93
f 97/97/97 94/94/94 96/96/96
f 95/95/95 96/96/96 94/94/94
f 101/101/101 98/98/98 100/100/100
f 99/99/99 100/100/100 98/98/98
f 103/103/103 104/104/104 105/105/105
f 102/102/102 103/103/103 105/105/105
f 107/107/107 108/108/108 109/109/109
f 106/106/106 107/107/107 109/109/109
f 110/110/110 112/112/112 113/113/113
f 110/110/110 111/111/111 112/112/112
f 114/114/114 116/116/116 117/117/117
f 114/114/114 115/115/115 116/116/116
f 118/118/118 120/120/120 121/121/121
f 120/120/120 118/118/118 119/119/119
f 122/122/122 123/123/123 124/124/124
f 125/125/125 126/126/126 127/127/127
f 128/128/128 129/129/129 130/130/130
f 131/131/131 133/133/133 134/134/134
f 133/133/133 131/131/131 132/132/132
f 135/135/135 136/136/136 137/137/137
f 138/138/138 139/139/139 140/140/140
f 141/141/141 142/142/142 143/143/143
f 146/146/146 144/144/144 145/145/145
f 144/144/144 146/146/146 147/147/147
f 149/149/149 150/150/150 151/151/151
f 151/151/151 148/148/148 149/149/149
f 152/152/152 154/154/154 155/155/155
f 152/152/152 153/153/153 154/154/154
f 159/159/159 156/156/156 157/157/157
f 158/158/158 159/159/159 157/157/157
f 163/163/163 160/160/160 162/162/162
f 161/161/161 162/162/162 160/160/160
f 167/167/167 164/164/164 165/165/165
f 165/165/165 166/166/166 167/167/167
f 176/176/176 177/177/177 178/178/178
f 168/168/168 176/176/176 178/178/178
f 168/168/168 169/169/169 170/170/170
f 168/168/168 170/170/170 171/171/171
f 176/176/176 168/168/168 175/175/175
f 168/168/168 171/171/171 173/173/173
f 173/173/173 174/174/174 175/175/175
f 171/171/171 172/172/172 173/173/173
f 168/168/168 173/173/173 175/175/175
