v 0.008618761 5.841377 -7.274806
v 2.666619 5.841377 3.088193
v 2.431619 5.841377 -5.069807
v 2.431619 5.841377 -5.069807
v 2.666619 5.841377 3.088193
v 2.723025 5.841377 -4.883508
v 0.008618761 5.841377 -7.274806
v 2.431619 5.841377 -5.069807
v 2.727619 5.841377 -5.532806
v 2.666619 5.841377 3.088193
v 3.881619 5.841377 -4.142807
v 2.723025 5.841377 -4.883508
v 2.666619 5.841377 3.088193
v 4.177619 5.841377 -4.605807
v 3.881619 5.841377 -4.142807
v -6.600381 5.841377 3.062193
v -0.01038124 5.841377 7.275193
v 1.742619 5.841377 4.533194
v 4.177619 5.841377 -4.605807
v 6.549619 5.841377 -2.985807
v 6.596619 5.841377 -3.058807
v -6.600381 5.841377 3.062193
v 0.9306188 5.841377 4.014194
v 1.524795 5.841377 3.08499
v -6.600381 5.841377 3.062193
v 1.742619 5.841377 4.533194
v 0.9306188 5.841377 4.014194
v -6.600381 5.841377 3.062193
v 1.524795 5.841377 3.08499
v 1.854619 5.841377 2.569193
v 0.008618761 5.841377 -7.274806
v 1.854619 5.841377 2.569193
v 2.666619 5.841377 3.088193
v -6.600381 5.841377 3.062193
v 1.854619 5.841377 2.569193
v 0.008618761 5.841377 -7.274806
v 2.666619 5.841377 3.088193
v 6.549619 5.841377 -2.985807
v 4.177619 5.841377 -4.605807
v 1.742619 5.841377 4.533194
v 2.666619 5.841377 3.088193
v 1.986619 6.224377 3.221193
v 1.563619 6.224377 3.857193
v 1.742619 5.841377 4.533194
v 1.986619 6.224377 3.221193
v 1.854619 5.841377 2.569193
v 1.986619 6.224377 3.221193
v 2.666619 5.841377 3.088193
v 0.9306188 5.841377 4.014194
v 1.742619 5.841377 4.533194
v 1.563619 6.224377 3.857193
v 0.9306188 5.841377 4.014194
v 1.563619 6.224377 3.857193
v 1.524795 5.841377 3.08499
v 1.524795 5.841377 3.08499
v 1.563619 6.224377 3.857193
v 1.854619 5.841377 2.569193
v 1.563619 6.224377 3.857193
v 1.986619 6.224377 3.221193
v 1.854619 5.841377 2.569193
v 2.431619 6.335377 -5.069807
v 4.177619 6.335377 -4.605807
v 2.727619 6.334377 -5.532806
v 2.431619 6.335377 -5.069807
v 3.881619 6.335377 -4.142807
v 4.177619 6.335377 -4.605807
v -6.600381 -5.849203 3.062193
v -0.01038124 -5.849203 7.275193
v -0.01038124 5.841377 7.275193
v -6.600381 5.841377 3.062193
v 0.8661188 -5.849203 5.904193
v 1.742619 -5.849203 4.533194
v 1.742619 5.841377 4.533194
v -0.01038124 5.841377 7.275193
v -0.01038124 -5.849203 7.275193
v 0.8661188 -5.849203 5.904193
v -0.01038124 5.841377 7.275193
v 0.8661188 -5.849203 5.904193
v 1.742619 5.841377 4.533194
v 2.204619 -5.849203 3.810693
v 2.666619 -5.849203 3.088193
v 2.666619 5.841377 3.088193
v 1.742619 5.841377 4.533194
v 1.742619 -5.849203 4.533194
v 2.204619 -5.849203 3.810693
v 1.742619 5.841377 4.533194
v 2.204619 -5.849203 3.810693
v 2.666619 5.841377 3.088193
v 2.666619 -5.849203 3.088193
v 6.549619 -5.849203 -2.985807
v 6.549619 5.841377 -2.985807
v 2.666619 5.841377 3.088193
v 6.549619 -5.849203 -2.985807
v 6.596619 -5.849203 -3.058807
v 6.596619 5.841377 -3.058807
v 6.549619 5.841377 -2.985807
v 4.177619 5.841377 -4.605807
v 6.596619 5.841377 -3.058807
v 6.596619 -5.849203 -3.058807
v 4.177619 -5.849203 -4.605807
v 2.727619 5.841377 -5.532806
v 4.177619 5.841377 -4.605807
v 4.177619 -5.849203 -4.605807
v 2.727619 -5.849203 -5.532806
v 0.008618761 5.841377 -7.274806
v 2.727619 5.841377 -5.532806
v 2.727619 -5.849203 -5.532806
v 0.008618761 -5.849203 -7.274806
v 2.727619 6.334377 -5.532806
v 4.177619 6.335377 -4.605807
v 4.177619 5.841377 -4.605807
v 2.727619 5.841377 -5.532806
v -6.600381 5.841377 3.062193
v 0.008618761 5.841377 -7.274806
v 0.008618761 -5.849203 -7.274806
v -6.600381 -5.849203 3.062193
v 2.723025 5.841377 -4.883508
v 3.881619 5.841377 -4.142807
v 3.881619 6.335377 -4.142807
v 2.431619 6.335377 -5.069807
v 2.431619 6.335377 -5.069807
v 2.431619 5.841377 -5.069807
v 2.723025 5.841377 -4.883508
v 3.881619 5.841377 -4.142807
v 4.177619 5.841377 -4.605807
v 4.177619 6.335377 -4.605807
v 3.881619 6.335377 -4.142807
v 2.431619 6.335377 -5.069807
v 2.727619 6.334377 -5.532806
v 2.727619 5.841377 -5.532806
v 2.431619 5.841377 -5.069807
v -0.01038124 -5.849203 7.275193
v -6.600381 -5.849203 3.062193
v 0.008618761 -5.849203 -7.274806
v 2.727619 -5.849203 -5.532806
v 4.177619 -5.849203 -4.605807
v 6.596619 -5.849203 -3.058807
v 6.549619 -5.849203 -2.985807
v 2.666619 -5.849203 3.088193
v 2.204619 -5.849203 3.810693
v 1.742619 -5.849203 4.533194
v 0.8661188 -5.849203 5.904193
vt 0.645573 0.208191
vt 0.191115 0.117047
vt 0.551331 0.131682
vt 0.551331 0.131682
vt 0.191115 0.117047
vt 0.543483 0.122552
vt 0.645573 0.208191
vt 0.551331 0.131682
vt 0.572183 0.123000
vt 0.191115 0.117047
vt 0.512280 0.086251
vt 0.543483 0.122552
vt 0.191115 0.117047
vt 0.533132 0.077569
vt 0.512280 0.086251
vt 0.180043 0.402019
vt 0.002551 0.195562
vt 0.126038 0.144148
vt 0.533132 0.077569
vt 0.464671 0.003155
vt 0.467960 0.001776
vt 0.180043 0.402019
vt 0.147903 0.169588
vt 0.189751 0.152161
vt 0.180043 0.402019
vt 0.126038 0.144148
vt 0.147903 0.169588
vt 0.180043 0.402019
vt 0.189751 0.152161
vt 0.212980 0.142487
vt 0.645573 0.208191
vt 0.212980 0.142487
vt 0.191115 0.117047
vt 0.180043 0.402019
vt 0.212980 0.142487
vt 0.645573 0.208191
vt 0.191115 0.117047
vt 0.464671 0.003155
vt 0.533132 0.077569
vt 0.400510 0.743287
vt 0.462999 0.717584
vt 0.457437 0.741036
vt 0.429899 0.752830
vt 0.400510 0.743287
vt 0.457437 0.741036
vt 0.530171 0.741282
vt 0.505102 0.740567
vt 0.510361 0.717584
vt 0.490957 0.741270
vt 0.469388 0.717584
vt 0.498283 0.720240
vt 0.331633 0.751701
vt 0.339263 0.730241
vt 0.371697 0.733929
vt 0.371697 0.733929
vt 0.339263 0.730241
vt 0.393937 0.724063
vt 0.339263 0.730241
vt 0.366698 0.717584
vt 0.393937 0.724063
vt 0.259534 0.770215
vt 0.242014 0.717584
vt 0.279606 0.761770
vt 0.259534 0.770215
vt 0.221939 0.726029
vt 0.242014 0.717584
vt 0.187277 0.999537
vt 0.002551 0.797851
vt 0.028273 0.717584
vt 0.215720 0.922246
vt 0.063014 0.570789
vt 0.123477 0.545699
vt 0.152664 0.662175
vt 0.029986 0.713080
vt 0.002551 0.595878
vt 0.063014 0.570789
vt 0.029986 0.713080
vt 0.063014 0.570789
vt 0.152664 0.662175
vt 0.155341 0.532474
vt 0.187205 0.519249
vt 0.217315 0.635342
vt 0.152664 0.662175
vt 0.123477 0.545699
vt 0.155341 0.532474
vt 0.152664 0.662175
vt 0.155341 0.532474
vt 0.217315 0.635342
vt 0.187205 0.519249
vt 0.455088 0.408095
vt 0.489080 0.522581
vt 0.217315 0.635342
vt 0.455088 0.408095
vt 0.458308 0.406750
vt 0.492347 0.521215
vt 0.489080 0.522581
vt 0.751037 0.191492
vt 0.686865 0.116268
vt 0.653061 0.001776
vt 0.716317 0.075927
vt 0.789489 0.236581
vt 0.751037 0.191492
vt 0.716317 0.075927
vt 0.754220 0.120374
vt 0.861753 0.321134
vt 0.789489 0.236581
vt 0.754220 0.120374
vt 0.825453 0.203720
vt 0.790999 0.241556
vt 0.752526 0.196449
vt 0.751037 0.191492
vt 0.789489 0.236581
vt 0.526082 0.613017
vt 0.987210 0.406750
vt 0.951878 0.487044
vt 0.497449 0.690311
vt 0.317099 0.755918
vt 0.285714 0.721000
vt 0.287066 0.717584
vt 0.326369 0.761312
vt 0.326369 0.761312
vt 0.324993 0.764700
vt 0.317099 0.755918
vt 0.561224 0.725149
vt 0.579735 0.717584
vt 0.581075 0.721946
vt 0.562553 0.729515
vt 0.537014 0.725718
vt 0.555479 0.717584
vt 0.554170 0.720658
vt 0.535714 0.728792
vt 0.586735 0.717584
vt 0.586735 0.717584
vt 0.586735 0.717584
vt 0.586735 0.717584
vt 0.586735 0.717584
vt 0.586735 0.717584
vt 0.586735 0.717584
vt 0.586735 0.717584
vt 0.586735 0.717584
vt 0.586735 0.717584
vt 0.586735 0.717584
vn 0 1 0
vn 0 1 0
vn 0 1 0
vn 0 1 0
vn 0 1 0
vn 0 1 0
vn 0 1 0
vn 0 1 0
vn 0 1 0
vn 0 1 0
vn 0 1 0
vn 0 1 0
vn 0 1 0
vn 0 1 0
vn 0 1 0
vn 0 1 0
vn 0 1 0
vn 0 1 0
vn 0 1 0
vn 0 1 0
vn 0 1 0
vn 0 1 0
vn 0 1 0
vn 0 1 0
vn 0 1 0
vn 0 1 0
vn 0 1 0
vn 0 1 0
vn 0 1 0
vn 0 1 0
vn 0 1 0
vn 0 1 0
vn 0 1 0
vn 0 1 0
vn 0 1 0
vn 0 1 0
vn 0 1 0
vn 0 1 0
vn 0 1 0
vn 0.5115137 0.7945872 0.3270856
vn 0.5115137 0.7945872 0.3270856
vn 0.5115137 0.7945872 0.3270856
vn 0.4917051 0.8070175 0.3270303
vn 0.4917051 0.8070175 0.3270303
vn 0.4917051 0.8070175 0.3270303
vn 0.3366325 0.7805699 -0.5266775
vn 0.3366325 0.7805699 -0.5266775
vn 0.3366325 0.7805699 -0.5266775
vn -0.3388249 0.7772925 0.5301076
vn -0.3388249 0.7772925 0.5301076
vn -0.3388249 0.7772925 0.5301076
vn -0.5469537 0.760604 -0.3497475
vn -0.5469537 0.760604 -0.3497475
vn -0.5469537 0.760604 -0.3497475
vn -0.5469537 0.760604 -0.3497475
vn -0.5469537 0.760604 -0.3497475
vn -0.5469537 0.760604 -0.3497475
vn -0.5253346 0.7758513 -0.3493971
vn -0.5253346 0.7758513 -0.3493971
vn -0.5253346 0.7758513 -0.3493971
vn 0.0004906192 0.9999982 -0.001846166
vn 0.0004906192 0.9999982 -0.001846166
vn 0.0004906192 0.9999982 -0.001846166
vn 0 1 0
vn 0 1 0
vn 0 1 0
vn -0.5386364 0 0.8425383
vn -0.5386364 0 0.8425383
vn -0.5386364 0 0.8425383
vn -0.5386364 0 0.8425383
vn 0.8425336 0 0.5386438
vn 0.8425336 0 0.5386438
vn 0.8425336 0 0.5386438
vn 0.8425336 0 0.5386438
vn 0.8425336 0 0.5386438
vn 0.8425336 0 0.5386438
vn 0.8425336 0 0.5386438
vn 0.8425336 0 0.5386438
vn 0.8425336 0 0.5386438
vn 0.8424831 0 0.5387228
vn 0.8424831 0 0.5387228
vn 0.8424831 0 0.5387228
vn 0.8424831 0 0.5387228
vn 0.8424831 0 0.5387228
vn 0.8424831 0 0.5387228
vn 0.8424831 -2.14585E-11 0.5387228
vn 0.8424831 -2.14585E-11 0.5387228
vn 0.8424831 -2.14585E-11 0.5387228
vn 0.8425459 0 0.5386246
vn 0.8425459 0 0.5386246
vn 0.8425459 0 0.5386246
vn 0.8425459 0 0.5386246
vn 0.840804 0 0.5413396
vn 0.840804 0 0.5413396
vn 0.840804 0 0.5413396
vn 0.840804 0 0.5413396
vn 0.538767 0 -0.8424548
vn 0.538767 0 -0.8424548
vn 0.538767 0 -0.8424548
vn 0.538767 0 -0.8424548
vn 0.5386414 0 -0.8425351
vn 0.5386414 0 -0.8425351
vn 0.5386414 0 -0.8425351
vn 0.5386414 0 -0.8425351
vn 0.5394579 0 -0.8420126
vn 0.5394579 0 -0.8420126
vn 0.5394579 0 -0.8420126
vn 0.5394579 0 -0.8420126
vn 0.5386414 0 -0.8425351
vn 0.5386414 0 -0.8425351
vn 0.5386414 0 -0.8425351
vn 0.5386414 0 -0.8425351
vn -0.8425185 0 -0.5386674
vn -0.8425185 0 -0.5386674
vn -0.8425185 0 -0.5386674
vn -0.8425185 0 -0.5386674
vn -0.5386414 1.975314E-09 0.8425351
vn -0.5386414 0 0.8425351
vn -0.5386414 1.975314E-09 0.8425351
vn -0.5386414 3.950627E-09 0.8425351
vn -0.5386414 0 0.8425351
vn -0.5386414 0 0.8425351
vn -0.5386414 0 0.8425351
vn 0.8425357 0 0.5386405
vn 0.8425357 0 0.5386405
vn 0.8425357 0 0.5386405
vn 0.8425357 0 0.5386405
vn -0.8425357 0 -0.5386405
vn -0.8425357 0 -0.5386405
vn -0.8425357 0 -0.5386405
vn -0.8425357 0 -0.5386405
vn 0 -1 0
vn 0 -1 0
vn 0 -1 0
vn 0 -1 0
vn 0 -1 0
vn 0 -1 0
vn 0 -1 0
vn 0 -1 0
vn 0 -1 0
vn 0 -1 0
vn 0 -1 0

g CDNNDG02_0013040
f 1/1/1 2/2/2 3/3/3
f 4/4/4 5/5/5 6/6/6
f 7/7/7 8/8/8 9/9/9
f 10/10/10 11/11/11 12/12/12
f 13/13/13 14/14/14 15/15/15
f 16/16/16 17/17/17 18/18/18
f 19/19/19 20/20/20 21/21/21
f 22/22/22 23/23/23 24/24/24
f 25/25/25 26/26/26 27/27/27
f 28/28/28 29/29/29 30/30/30
f 31/31/31 32/32/32 33/33/33
f 34/34/34 35/35/35 36/36/36
f 37/37/37 38/38/38 39/39/39
f 40/40/40 41/41/41 42/42/42
f 43/43/43 44/44/44 45/45/45
f 46/46/46 47/47/47 48/48/48
f 49/49/49 50/50/50 51/51/51
f 52/52/52 53/53/53 54/54/54
f 55/55/55 56/56/56 57/57/57
f 58/58/58 59/59/59 60/60/60
f 61/61/61 62/62/62 63/63/63
f 64/64/64 65/65/65 66/66/66
f 70/70/70 67/67/67 69/69/69
f 69/69/69 67/67/67 68/68/68
f 71/71/71 72/72/72 73/73/73
f 74/74/74 75/75/75 76/76/76
f 77/77/77 78/78/78 79/79/79
f 80/80/80 81/81/81 82/82/82
f 83/83/83 84/84/84 85/85/85
f 86/86/86 87/87/87 88/88/88
f 89/89/89 91/91/91 92/92/92
f 89/89/89 90/90/90 91/91/91
f 94/94/94 95/95/95 96/96/96
f 93/93/93 94/94/94 96/96/96
f 99/99/99 97/97/97 98/98/98
f 97/97/97 99/99/99 100/100/100
f 103/103/103 101/101/101 102/102/102
f 101/101/101 103/103/103 104/104/104
f 107/107/107 108/108/108 106/106/106
f 105/105/105 106/106/106 108/108/108
f 112/112/112 109/109/109 111/111/111
f 110/110/110 111/111/111 109/109/109
f 116/116/116 113/113/113 115/115/115
f 115/115/115 113/113/113 114/114/114
f 117/117/117 119/119/119 120/120/120
f 117/117/117 118/118/118 119/119/119
f 121/121/121 122/122/122 123/123/123
f 127/127/127 124/124/124 126/126/126
f 125/125/125 126/126/126 124/124/124
f 129/129/129 130/130/130 131/131/131
f 128/128/128 129/129/129 131/131/131
f 142/142/142 132/132/132 133/133/133
f 141/141/141 133/133/133 140/140/140
f 139/139/139 134/134/134 135/135/135
f 140/140/140 133/133/133 139/139/139
f 141/141/141 142/142/142 133/133/133
f 134/134/134 139/139/139 133/133/133
f 136/136/136 139/139/139 135/135/135
f 138/138/138 139/139/139 136/136/136
f 138/138/138 136/136/136 137/137/137
