v -6.035322 6.090078 3.608989
v -5.804322 6.049078 3.757989
v 0.7776777 5.372078 -6.960011
v -0.1963223 5.997078 6.092989
v 1.412678 5.729364 0.902989
v 0.3386777 5.713039 0.191989
v -0.1963223 5.997078 6.092989
v 1.902678 5.687096 0.162989
v 1.412678 5.729364 0.902989
v -0.1963223 5.997078 6.092989
v 0.3386777 5.713039 0.191989
v 0.7776777 5.372078 -6.960011
v 0.8286777 5.670771 -0.5480109
v 1.902678 5.687096 0.162989
v 6.199678 5.433078 -3.829011
v -0.1963223 5.997078 6.092989
v 6.199678 5.433078 -3.829011
v 1.902678 5.687096 0.162989
v 0.3386777 5.713039 0.191989
v 0.8286777 5.670771 -0.5480109
v 0.7776777 5.372078 -6.960011
v 0.7776777 5.372078 -6.960011
v 0.8286777 5.670771 -0.5480109
v 6.199678 5.433078 -3.829011
v -5.941322 6.049078 3.970989
v -2.931322 6.049078 5.910989
v -2.798322 6.049078 5.703989
v -5.804322 6.049078 3.757989
v -5.804322 6.049078 3.757989
v -2.798322 6.049078 5.703989
v 0.7776777 5.372078 -6.960011
v -2.798322 6.049078 5.703989
v -0.1963223 5.997078 6.092989
v 0.7776777 5.372078 -6.960011
v -2.798322 6.049078 5.703989
v -0.7823223 6.049078 7.003989
v -0.3393223 6.010078 6.315989
v -2.798322 6.049078 5.703989
v -0.3393223 6.010078 6.315989
v -0.1963223 5.997078 6.092989
v 0.7776777 5.372078 -6.960011
v 6.199678 5.433078 -3.829011
v 0.9436777 5.433078 -7.217011
v 0.8286777 6.054078 -0.5480109
v 0.9526777 6.368078 0.08498903
v 1.257678 6.368078 0.279989
v 0.8286777 6.054078 -0.5480109
v 1.257678 6.368078 0.279989
v 1.902678 6.054078 0.162989
v 1.257678 6.368078 0.279989
v 1.412678 6.054078 0.902989
v 1.902678 6.054078 0.162989
v 0.3386777 6.054078 0.191989
v 0.9526777 6.368078 0.08498903
v 0.8286777 6.054078 -0.5480109
v 0.3386777 6.054078 0.191989
v 1.257678 6.368078 0.279989
v 0.9526777 6.368078 0.08498903
v 0.3386777 6.054078 0.191989
v 1.412678 6.054078 0.902989
v 1.257678 6.368078 0.279989
v -2.931322 -5.730247 5.910989
v -2.798322 -5.730247 5.703989
v -2.798322 6.049078 5.703989
v -2.931322 6.049078 5.910989
v -1.790322 -5.730247 6.353989
v -0.7823223 -5.730247 7.003989
v -0.7823223 6.049078 7.003989
v -2.798322 6.049078 5.703989
v -2.798322 -5.730247 5.703989
v -1.790322 -5.730247 6.353989
v -2.798322 6.049078 5.703989
v -1.790322 -5.730247 6.353989
v -0.7823223 6.049078 7.003989
v -0.7823223 -5.730247 7.003989
v -0.3393223 -5.730247 6.315989
v -0.3393223 6.010078 6.315989
v -0.7823223 6.049078 7.003989
v -0.2678223 -5.730247 6.204489
v -0.1963223 -5.730247 6.092989
v -0.1963223 5.997078 6.092989
v -0.3393223 6.010078 6.315989
v -0.3393223 -5.730247 6.315989
v -0.2678223 -5.730247 6.204489
v -0.3393223 6.010078 6.315989
v -0.2678223 -5.730247 6.204489
v -0.1963223 5.997078 6.092989
v -0.1963223 -5.730247 6.092989
v 6.199678 -5.730247 -3.829011
v 6.199678 5.433078 -3.829011
v -0.1963223 5.997078 6.092989
v 0.9436777 5.433078 -7.217011
v 6.199678 5.433078 -3.829011
v 6.199678 -5.730247 -3.829011
v 0.9436777 -5.730247 -7.217011
v 0.7776777 5.372078 -6.960011
v 0.9436777 5.433078 -7.217011
v 0.9436777 -5.730247 -7.217011
v 0.7776777 -5.730247 -6.960011
v -6.035322 6.090078 3.608989
v 0.7776777 5.372078 -6.960011
v 0.7776777 -5.730247 -6.960011
v -6.035322 -5.730247 3.608989
v -6.035322 -5.730247 3.608989
v -5.804322 -5.730247 3.757989
v -5.804322 6.049078 3.757989
v -6.035322 6.090078 3.608989
v -5.941322 6.049078 3.970989
v -5.872822 -5.730247 3.864489
v -5.941322 -5.730247 3.970989
v -5.872822 -5.730247 3.864489
v -5.804322 6.049078 3.757989
v -5.804322 -5.730247 3.757989
v -5.941322 6.049078 3.970989
v -5.804322 6.049078 3.757989
v -5.872822 -5.730247 3.864489
v -4.436322 -5.730247 4.940989
v -2.931322 -5.730247 5.910989
v -2.931322 6.049078 5.910989
v -5.941322 6.049078 3.970989
v -5.941322 -5.730247 3.970989
v -4.436322 -5.730247 4.940989
v -5.941322 6.049078 3.970989
v -4.436322 -5.730247 4.940989
v -2.931322 6.049078 5.910989
v 0.8286777 6.054078 -0.5480109
v 1.902678 6.054078 0.162989
v 1.902678 5.687096 0.162989
v 0.8286777 5.670771 -0.5480109
v 1.412678 5.729364 0.902989
v 1.902678 5.687096 0.162989
v 1.902678 6.054078 0.162989
v 1.412678 6.054078 0.902989
v 0.3386777 6.054078 0.191989
v 0.8286777 6.054078 -0.5480109
v 0.8286777 5.670771 -0.5480109
v 0.3386777 5.713039 0.191989
v 0.3386777 5.713039 0.191989
v 1.412678 5.729364 0.902989
v 1.412678 6.054078 0.902989
v 0.3386777 6.054078 0.191989
v -2.931322 -5.730247 5.910989
v -4.436322 -5.730247 4.940989
v -5.941322 -5.730247 3.970989
v -5.872822 -5.730247 3.864489
v -5.804322 -5.730247 3.757989
v -6.035322 -5.730247 3.608989
v 0.7776777 -5.730247 -6.960011
v 0.9436777 -5.730247 -7.217011
v 6.199678 -5.730247 -3.829011
v -0.1963223 -5.730247 6.092989
v -0.2678223 -5.730247 6.204489
v -0.3393223 -5.730247 6.315989
v -0.7823223 -5.730247 7.003989
v -1.790322 -5.730247 6.353989
v -2.798322 -5.730247 5.703989
vt 0.151952 0.324021
vt 0.145560 0.317963
vt 0.617716 0.144320
vt 0.042657 0.170202
vt 0.271352 0.127705
vt 0.302735 0.156001
vt 0.042657 0.170202
vt 0.303934 0.114780
vt 0.271352 0.127705
vt 0.042657 0.170202
vt 0.302735 0.156001
vt 0.617716 0.144320
vt 0.335315 0.143075
vt 0.303934 0.114780
vt 0.479561 0.001511
vt 0.042657 0.170202
vt 0.479561 0.001511
vt 0.303934 0.114780
vt 0.302735 0.156001
vt 0.335315 0.143075
vt 0.617716 0.144320
vt 0.617716 0.144320
vt 0.335315 0.143075
vt 0.479561 0.001511
vt 0.136228 0.321589
vt 0.050734 0.242297
vt 0.059804 0.238777
vt 0.145560 0.317963
vt 0.145560 0.317963
vt 0.059804 0.238777
vt 0.617716 0.144320
vt 0.059804 0.238777
vt 0.042657 0.170202
vt 0.617716 0.144320
vt 0.059804 0.238777
vt 0.002513 0.185668
vt 0.032830 0.173975
vt 0.059804 0.238777
vt 0.032830 0.173975
vt 0.042657 0.170202
vt 0.138919 0.999973
vt 0.002513 0.858006
vt 0.149809 0.995555
vt 0.491665 0.885142
vt 0.464858 0.883488
vt 0.457286 0.875783
vt 0.491665 0.885142
vt 0.457286 0.875783
vt 0.464024 0.858006
vt 0.558982 0.875328
vt 0.535176 0.869310
vt 0.565685 0.858006
vt 0.497487 0.875719
vt 0.500493 0.858006
vt 0.527933 0.863389
vt 0.447122 0.885158
vt 0.441898 0.859264
vt 0.450143 0.866980
vt 0.447122 0.885158
vt 0.417085 0.858006
vt 0.441898 0.859264
vt 0.328708 0.861214
vt 0.337399 0.858006
vt 0.287712 0.931316
vt 0.278894 0.934571
vt 0.937735 0.733374
vt 0.909396 0.707134
vt 0.859297 0.610272
vt 0.916824 0.663539
vt 0.966074 0.759614
vt 0.937735 0.733374
vt 0.916824 0.663539
vt 0.937735 0.733374
vt 0.859297 0.610272
vt 0.054800 0.780985
vt 0.084747 0.770154
vt 0.033071 0.843268
vt 0.002513 0.854504
vt 0.089600 0.768407
vt 0.094453 0.766659
vt 0.042977 0.839640
vt 0.033071 0.843268
vt 0.084747 0.770154
vt 0.089600 0.768407
vt 0.033071 0.843268
vt 0.089600 0.768407
vt 0.042977 0.839640
vt 0.094453 0.766659
vt 0.526354 0.610272
vt 0.483373 0.677530
vt 0.042977 0.839640
vt 0.671563 0.816444
vt 0.532663 0.677454
vt 0.575258 0.610272
vt 0.712258 0.747364
vt 0.471228 0.332808
vt 0.482334 0.327795
vt 0.521836 0.420647
vt 0.510669 0.425083
vt 0.002513 0.511546
vt 0.471228 0.332808
vt 0.510669 0.425083
vt 0.051443 0.607136
vt 0.209096 0.958440
vt 0.202738 0.952456
vt 0.155779 0.858006
vt 0.162067 0.863747
vt 0.216080 0.861685
vt 0.267718 0.954225
vt 0.263262 0.956038
vt 0.267718 0.954225
vt 0.225126 0.858006
vt 0.272174 0.952413
vt 0.216080 0.861685
vt 0.225126 0.858006
vt 0.267718 0.954225
vt 0.810692 0.745669
vt 0.768205 0.706434
vt 0.718593 0.610272
vt 0.804840 0.689918
vt 0.853178 0.784903
vt 0.810692 0.745669
vt 0.804840 0.689918
vt 0.810692 0.745669
vt 0.718593 0.610272
vt 0.371558 0.887484
vt 0.344221 0.860204
vt 0.345627 0.858006
vt 0.373013 0.885175
vt 0.611816 0.869263
vt 0.642476 0.858006
vt 0.641062 0.860083
vt 0.610553 0.871105
vt 0.572864 0.870149
vt 0.603310 0.858006
vt 0.604729 0.860962
vt 0.574140 0.872774
vt 0.410556 0.888052
vt 0.380624 0.860636
vt 0.379397 0.858006
vt 0.409280 0.885302
vt 0.648241 0.858006
vt 0.648241 0.858006
vt 0.648241 0.858006
vt 0.648241 0.858006
vt 0.648241 0.858006
vt 0.648241 0.858006
vt 0.648241 0.858006
vt 0.648241 0.858006
vt 0.648241 0.858006
vt 0.648241 0.858006
vt 0.648241 0.858006
vt 0.648241 0.858006
vt 0.648241 0.858006
vt 0.648241 0.858006
vt 0.648241 0.858006
vn 0.1543574 0.9874831 0.03241782
vn 0.1543574 0.9874831 0.03241782
vn 0.1543574 0.9874831 0.03241782
vn 0.01570291 0.9987878 -0.04665194
vn 0.01570291 0.9987878 -0.04665194
vn 0.01570291 0.9987878 -0.04665194
vn 0.01570288 0.9987878 -0.04665194
vn 0.01570288 0.9987878 -0.04665194
vn 0.01570288 0.9987878 -0.04665194
vn 0.01570289 0.9987878 -0.04665194
vn 0.01570289 0.9987878 -0.04665194
vn 0.01570289 0.9987878 -0.04665194
vn 0.0157029 0.9987878 -0.04665194
vn 0.0157029 0.9987878 -0.04665194
vn 0.0157029 0.9987878 -0.04665194
vn 0.01570291 0.9987878 -0.04665194
vn 0.01570291 0.9987878 -0.04665194
vn 0.01570291 0.9987878 -0.04665194
vn 0.01570292 0.9987878 -0.04665194
vn 0.01570292 0.9987878 -0.04665194
vn 0.01570292 0.9987878 -0.04665194
vn 0.01570291 0.9987878 -0.04665194
vn 0.01570291 0.9987878 -0.04665194
vn 0.01570291 0.9987878 -0.04665194
vn 0 1 0
vn 0 1 0
vn 0 1 0
vn 0 1 0
vn 0.0292167 0.9985538 -0.04513124
vn 0.0292167 0.9985538 -0.04513124
vn 0.0292167 0.9985538 -0.04513124
vn 0.02680567 0.9985903 -0.045814
vn 0.02680567 0.9985903 -0.045814
vn 0.02680567 0.9985903 -0.045814
vn 0.02579974 0.9988661 -0.04000944
vn 0.02579974 0.9988661 -0.04000944
vn 0.02579974 0.9988661 -0.04000944
vn 0.02615771 0.998798 -0.04145211
vn 0.02615771 0.998798 -0.04145211
vn 0.02615771 0.998798 -0.04145211
vn -0.1059371 0.9806975 0.1643463
vn -0.1059371 0.9806975 0.1643463
vn -0.1059371 0.9806975 0.1643463
vn 0.3007723 0.8295923 -0.4704388
vn 0.3007723 0.8295923 -0.4704388
vn 0.3007723 0.8295923 -0.4704388
vn 0.3141862 0.8222214 -0.4745935
vn 0.3141862 0.8222214 -0.4745935
vn 0.3141862 0.8222214 -0.4745935
vn 0.461011 0.8332363 0.305264
vn 0.461011 0.8332363 0.305264
vn 0.461011 0.8332363 0.305264
vn -0.4750836 0.8217868 -0.3145824
vn -0.4750836 0.8217868 -0.3145824
vn -0.4750836 0.8217868 -0.3145824
vn -0.3221022 0.8015204 0.5038008
vn -0.3221022 0.8015204 0.5038008
vn -0.3221022 0.8015204 0.5038008
vn -0.3236122 0.8101349 0.4888318
vn -0.3236122 0.8101349 0.4888318
vn -0.3236122 0.8101349 0.4888318
vn 0.8413105 0 0.5405521
vn 0.8413105 0 0.5405521
vn 0.8413105 0 0.5405521
vn 0.8413105 0 0.5405521
vn -0.5419369 0 0.8404192
vn -0.5419369 0 0.8404192
vn -0.5419369 0 0.8404192
vn -0.5419369 0 0.8404192
vn -0.5419369 0 0.8404192
vn -0.5419369 0 0.8404192
vn -0.5419369 -3.188453E-11 0.8404192
vn -0.5419369 -3.188453E-11 0.8404192
vn -0.5419369 -3.188453E-11 0.8404192
vn 0.8407812 0 0.5413751
vn 0.8407812 0 0.5413751
vn 0.8407812 0 0.5413751
vn 0.8407812 0 0.5413751
vn 0.8417912 0 0.5398033
vn 0.8417912 0 0.5398033
vn 0.8417912 0 0.5398033
vn 0.8417912 0 0.5398033
vn 0.8417912 0 0.5398033
vn 0.8417912 0 0.5398033
vn 0.8417912 -2.14223E-11 0.5398033
vn 0.8417912 -2.14223E-11 0.5398033
vn 0.8417912 -2.14223E-11 0.5398033
vn 0.8405007 0 0.5418104
vn 0.8405007 0 0.5418104
vn 0.8405007 0 0.5418104
vn 0.8405007 0 0.5418104
vn 0.5417917 0 -0.8405128
vn 0.5417917 0 -0.8405128
vn 0.5417917 0 -0.8405128
vn 0.5417917 0 -0.8405128
vn -0.8400083 0 -0.5425735
vn -0.8400083 0 -0.5425735
vn -0.8400083 0 -0.5425735
vn -0.8400083 0 -0.5425735
vn -0.8405035 0 -0.5418062
vn -0.8405035 0 -0.5418062
vn -0.8405035 0 -0.5418062
vn -0.8405035 0 -0.5418062
vn -0.542044 0 0.8403501
vn -0.542044 0 0.8403501
vn -0.542044 0 0.8403501
vn -0.542044 0 0.8403501
vn -0.8410501 0 -0.5409572
vn -0.8410501 0 -0.5409572
vn -0.8410501 0 -0.5409572
vn -0.8410501 0 -0.5409572
vn -0.8410501 0 -0.5409572
vn -0.8410501 0 -0.5409572
vn -0.8410501 2.138517E-11 -0.5409572
vn -0.8410501 2.138517E-11 -0.5409572
vn -0.8410501 2.138517E-11 -0.5409572
vn -0.5417452 0 0.8405428
vn -0.5417452 0 0.8405428
vn -0.5417452 0 0.8405428
vn -0.5417452 0 0.8405428
vn -0.5417452 0 0.8405428
vn -0.5417452 0 0.8405428
vn -0.5417452 -1.338522E-12 0.8405428
vn -0.5417452 -1.338522E-12 0.8405428
vn -0.5417452 -1.338522E-12 0.8405428
vn 0.5520098 0 -0.8338376
vn 0.5520098 0 -0.8338376
vn 0.5520098 0 -0.8338376
vn 0.5520098 0 -0.8338376
vn 0.8337797 0 0.5520973
vn 0.8337797 0 0.5520973
vn 0.8337797 0 0.5520973
vn 0.8337797 0 0.5520973
vn -0.8337797 0 -0.5520973
vn -0.8337797 0 -0.5520973
vn -0.8337797 0 -0.5520973
vn -0.8337797 0 -0.5520973
vn -0.5520098 0 0.8338376
vn -0.5520098 0 0.8338376
vn -0.5520098 0 0.8338376
vn -0.5520098 0 0.8338376
vn 0 -1 0
vn 0 -1 0
vn 0 -1 0
vn 0 -1 0
vn 0 -1 0
vn 0 -1 0
vn 0 -1 0
vn 0 -1 0
vn 0 -1 0
vn 0 -1 0
vn 0 -1 0
vn 0 -1 0
vn 0 -1 0
vn 0 -1 0
vn 0 -1 0

g CDNNDG02_0008960
f 1/1/1 2/2/2 3/3/3
f 4/4/4 5/5/5 6/6/6
f 7/7/7 8/8/8 9/9/9
f 10/10/10 11/11/11 12/12/12
f 13/13/13 14/14/14 15/15/15
f 16/16/16 17/17/17 18/18/18
f 19/19/19 20/20/20 21/21/21
f 22/22/22 23/23/23 24/24/24
f 25/25/25 26/26/26 27/27/27
f 28/28/28 25/25/25 27/27/27
f 29/29/29 30/30/30 31/31/31
f 32/32/32 33/33/33 34/34/34
f 35/35/35 36/36/36 37/37/37
f 38/38/38 39/39/39 40/40/40
f 41/41/41 42/42/42 43/43/43
f 44/44/44 45/45/45 46/46/46
f 47/47/47 48/48/48 49/49/49
f 50/50/50 51/51/51 52/52/52
f 53/53/53 54/54/54 55/55/55
f 56/56/56 57/57/57 58/58/58
f 59/59/59 60/60/60 61/61/61
f 63/63/63 64/64/64 62/62/62
f 62/62/62 64/64/64 65/65/65
f 66/66/66 67/67/67 68/68/68
f 69/69/69 70/70/70 71/71/71
f 72/72/72 73/73/73 74/74/74
f 76/76/76 77/77/77 75/75/75
f 75/75/75 77/77/77 78/78/78
f 79/79/79 80/80/80 81/81/81
f 82/82/82 83/83/83 84/84/84
f 85/85/85 86/86/86 87/87/87
f 91/91/91 88/88/88 90/90/90
f 89/89/89 90/90/90 88/88/88
f 93/93/93 94/94/94 92/92/92
f 92/92/92 94/94/94 95/95/95
f 96/96/96 98/98/98 99/99/99
f 98/98/98 96/96/96 97/97/97
f 101/101/101 102/102/102 103/103/103
f 100/100/100 101/101/101 103/103/103
f 104/104/104 106/106/106 107/107/107
f 106/106/106 104/104/104 105/105/105
f 108/108/108 109/109/109 110/110/110
f 111/111/111 112/112/112 113/113/113
f 114/114/114 115/115/115 116/116/116
f 117/117/117 118/118/118 119/119/119
f 120/120/120 121/121/121 122/122/122
f 123/123/123 124/124/124 125/125/125
f 126/126/126 128/128/128 129/129/129
f 126/126/126 127/127/127 128/128/128
f 130/130/130 132/132/132 133/133/133
f 130/130/130 131/131/131 132/132/132
f 137/137/137 134/134/134 135/135/135
f 136/136/136 137/137/137 135/135/135
f 141/141/141 139/139/139 140/140/140
f 141/141/141 138/138/138 139/139/139
f 148/148/148 151/151/151 156/156/156
f 153/153/153 154/154/154 155/155/155
f 152/152/152 153/153/153 155/155/155
f 142/142/142 143/143/143 156/156/156
f 143/143/143 144/144/144 145/145/145
f 143/143/143 145/145/145 146/146/146
f 143/143/143 146/146/146 156/156/156
f 151/151/151 152/152/152 155/155/155
f 146/146/146 147/147/147 148/148/148
f 146/146/146 148/148/148 156/156/156
f 156/156/156 151/151/151 155/155/155
f 148/148/148 149/149/149 150/150/150
f 148/148/148 150/150/150 151/151/151
