v -5.843067 5.542274 1.624253
v -5.531067 5.542274 3.640253
v -5.647067 5.542274 1.320253
v -5.647067 5.542274 1.320253
v -5.531067 5.542274 3.640253
v -5.535067 5.542274 1.145253
v -0.1670667 5.542274 7.080253
v 6.691933 5.542274 -3.614747
v 3.682933 5.542274 -5.545747
v -1.940067 5.542274 5.943253
v -5.535067 5.542274 1.145253
v -5.531067 5.542274 3.640253
v -1.940067 5.542274 5.943253
v -5.535067 5.542274 1.145253
v 0.9069332 5.542274 -7.325747
v 0.1909333 5.542274 -7.783747
v -5.535067 5.542274 1.145253
v 1.707933 5.542274 -6.811747
v 0.9069332 5.542274 -7.325747
v -5.535067 5.542274 1.145253
v 2.756933 5.542274 -6.138747
v 1.707933 5.542274 -6.811747
v -2.203454 5.542274 0.8416716
v 3.682933 5.542274 -5.545747
v -1.955939 5.542274 0.4279964
v -2.203454 5.542274 0.8416716
v -1.940067 5.542274 5.943253
v 3.682933 5.542274 -5.545747
v -5.535067 5.542274 1.145253
v -1.940067 5.542274 5.943253
v -2.203454 5.542274 0.8416716
v -5.535067 5.542274 1.145253
v -2.452349 5.542274 0.1308397
v 3.682933 5.542274 -5.545747
v -5.535067 5.542274 1.145253
v -2.203454 5.542274 0.8416716
v -2.699864 5.542274 0.5438254
v -5.535067 5.542274 1.145253
v -2.699864 5.542274 0.5438254
v -2.452349 5.542274 0.1308397
v -2.452349 5.542274 0.1308397
v -1.955939 5.542274 0.4279964
v 3.682933 5.542274 -5.545747
v -5.535067 5.542274 1.145253
v 3.682933 5.542274 -5.545747
v 2.756933 5.542274 -6.138747
v -2.353067 5.784274 0.4962528
v -2.203454 5.542274 0.8416716
v -1.955939 5.542274 0.4279964
v -2.452349 5.542274 0.1308397
v -2.353067 5.784274 0.4962528
v -1.955939 5.542274 0.4279964
v -2.699864 5.542274 0.5438254
v -2.203454 5.542274 0.8416716
v -2.353067 5.784274 0.4962528
v -2.699864 5.542274 0.5438254
v -2.353067 5.784274 0.4962528
v -2.452349 5.542274 0.1308397
v 0.9069332 5.073274 -7.325747
v 1.707933 5.491274 -6.811747
v 1.165933 5.073274 -7.729747
v 1.165933 5.073274 -7.729747
v 1.707933 5.491274 -6.811747
v 1.910933 5.072274 -7.912747
v 1.707933 5.491274 -6.811747
v 2.756933 5.491274 -6.138747
v 1.910933 5.072274 -7.912747
v 1.910933 5.072274 -7.912747
v 2.756933 5.491274 -6.138747
v 3.711933 5.072274 -6.760747
v 2.756933 5.491274 -6.138747
v 3.854933 5.071274 -5.813747
v 3.711933 5.072274 -6.760747
v 2.756933 5.491274 -6.138747
v 3.682933 5.072274 -5.545747
v 3.854933 5.071274 -5.813747
v -4.035067 4.073274 9.209252
v -2.262067 4.073274 10.34725
v -2.042067 4.073274 10.00525
v -2.042067 4.073274 10.00525
v -0.1670667 4.073274 7.080253
v -1.940067 4.073274 5.943253
v -4.035067 4.073274 9.209252
v -5.843067 5.542274 1.624253
v -5.647067 5.542274 1.320253
v -5.647067 -5.437103 1.320253
v -5.843067 -5.437103 1.624253
v -5.535067 5.542274 1.145253
v 0.1909333 5.542274 -7.783747
v 0.1909333 -5.437103 -7.783747
v -5.535067 -5.437103 1.145253
v -5.647067 5.542274 1.320253
v -5.535067 5.542274 1.145253
v -5.535067 -5.437103 1.145253
v -5.647067 -5.437103 1.320253
v -5.843067 -5.437103 1.624253
v -5.531067 -5.437103 3.640253
v -5.531067 5.542274 3.640253
v -5.843067 5.542274 1.624253
v -5.531067 5.542274 3.640253
v -1.940067 4.073274 5.943253
v -1.940067 5.542274 5.943253
v -5.531067 -5.437103 3.640253
v -1.940067 -5.437103 5.943253
v -1.940067 4.073274 5.943253
v -5.531067 5.542274 3.640253
v -1.940067 4.073274 5.943253
v -0.1670667 4.073274 7.080253
v -0.1670667 5.542274 7.080253
v -1.940067 5.542274 5.943253
v 3.262433 -5.437103 1.732753
v 6.691933 -5.437103 -3.614747
v 6.691933 5.542274 -3.614747
v -0.1670667 5.542274 7.080253
v 3.262433 -5.437103 1.732753
v 6.691933 5.542274 -3.614747
v -0.1670667 5.542274 7.080253
v -0.1670667 4.073274 7.080253
v 3.262433 -5.437103 1.732753
v -0.1670667 4.073274 7.080253
v -0.1670667 -5.437103 7.080253
v 3.262433 -5.437103 1.732753
v -2.262067 -5.437103 10.34725
v -2.042067 -5.437103 10.00525
v -2.042067 4.073274 10.00525
v -2.262067 4.073274 10.34725
v -1.104567 -5.437103 8.542753
v -0.1670667 -5.437103 7.080253
v -0.1670667 4.073274 7.080253
v -2.042067 4.073274 10.00525
v -2.042067 -5.437103 10.00525
v -1.104567 -5.437103 8.542753
v -2.042067 4.073274 10.00525
v -1.104567 -5.437103 8.542753
v -0.1670667 4.073274 7.080253
v 3.682933 5.542274 -5.545747
v 6.691933 5.542274 -3.614747
v 3.682933 5.072274 -5.545747
v 3.682933 5.072274 -5.545747
v 6.691933 5.542274 -3.614747
v 6.691933 -5.437103 -3.614747
v 3.682933 -5.437103 -5.545747
v 2.756933 5.542274 -6.138747
v 3.682933 5.542274 -5.545747
v 2.756933 5.491274 -6.138747
v 2.756933 5.491274 -6.138747
v 3.682933 5.542274 -5.545747
v 3.682933 5.072274 -5.545747
v 1.707933 5.542274 -6.811747
v 2.756933 5.542274 -6.138747
v 2.756933 5.491274 -6.138747
v 1.707933 5.491274 -6.811747
v 0.9069332 5.542274 -7.325747
v 1.707933 5.491274 -6.811747
v 0.9069332 5.073274 -7.325747
v 0.9069332 5.542274 -7.325747
v 1.707933 5.542274 -6.811747
v 1.707933 5.491274 -6.811747
v 0.1909333 5.542274 -7.783747
v 0.9069332 5.073274 -7.325747
v 0.9069332 -5.437103 -7.325747
v 0.1909333 -5.437103 -7.783747
v 0.1909333 5.542274 -7.783747
v 0.9069332 5.542274 -7.325747
v 0.9069332 5.073274 -7.325747
v 0.9069332 5.073274 -7.325747
v 1.165933 5.073274 -7.729747
v 1.165933 -5.437103 -7.729747
v 0.9069332 -5.437103 -7.325747
v 1.165933 5.073274 -7.729747
v 1.910933 5.072274 -7.912747
v 1.910933 -5.437103 -7.912747
v 1.165933 -5.437103 -7.729747
v 1.910933 5.072274 -7.912747
v 3.711933 5.072274 -6.760747
v 3.711933 -5.437103 -6.760747
v 1.910933 -5.437103 -7.912747
v 3.711933 5.072274 -6.760747
v 3.783433 -5.437103 -6.287247
v 3.711933 -5.437103 -6.760747
v 3.783433 -5.437103 -6.287247
v 3.854933 5.071274 -5.813747
v 3.854933 -5.437103 -5.813747
v 3.711933 5.072274 -6.760747
v 3.854933 5.071274 -5.813747
v 3.783433 -5.437103 -6.287247
v 3.682933 -5.437103 -5.545747
v 3.854933 -5.437103 -5.813747
v 3.854933 5.071274 -5.813747
v 3.682933 5.072274 -5.545747
v -4.035067 4.073274 9.209252
v -2.987567 -5.437103 7.576253
v -4.035067 -5.437103 9.209252
v -2.987567 -5.437103 7.576253
v -1.940067 4.073274 5.943253
v -1.940067 -5.437103 5.943253
v -4.035067 4.073274 9.209252
v -1.940067 4.073274 5.943253
v -2.987567 -5.437103 7.576253
v -4.035067 -5.437103 9.209252
v -2.262067 -5.437103 10.34725
v -2.262067 4.073274 10.34725
v -4.035067 4.073274 9.209252
v -5.843067 -5.437103 1.624253
v -5.647067 -5.437103 1.320253
v -5.535067 -5.437103 1.145253
v 0.1909333 -5.437103 -7.783747
v 0.9069332 -5.437103 -7.325747
v 1.165933 -5.437103 -7.729747
v 1.910933 -5.437103 -7.912747
v 3.711933 -5.437103 -6.760747
v 3.783433 -5.437103 -6.287247
v 3.854933 -5.437103 -5.813747
v 3.682933 -5.437103 -5.545747
v 6.691933 -5.437103 -3.614747
v 3.262433 -5.437103 1.732753
v -0.1670667 -5.437103 7.080253
v -1.104567 -5.437103 8.542753
v -2.042067 -5.437103 10.00525
v -2.262067 -5.437103 10.34725
v -4.035067 -5.437103 9.209252
v -2.987567 -5.437103 7.576253
v -1.940067 -5.437103 5.943253
v -5.531067 -5.437103 3.640253
vt 0.213687 0.342140
vt 0.135933 0.333934
vt 0.225358 0.336787
vt 0.225358 0.336787
vt 0.135933 0.333934
vt 0.232078 0.333728
vt 0.002198 0.188911
vt 0.412851 0.001548
vt 0.487918 0.082908
vt 0.046401 0.236848
vt 0.232078 0.333728
vt 0.135933 0.333934
vt 0.046401 0.236848
vt 0.232078 0.333728
vt 0.557114 0.157966
vt 0.574919 0.177325
vt 0.232078 0.333728
vt 0.537133 0.136308
vt 0.557114 0.157966
vt 0.232078 0.333728
vt 0.510971 0.107945
vt 0.537133 0.136308
vt 0.243050 0.243346
vt 0.487918 0.082908
vt 0.258937 0.236581
vt 0.243050 0.243346
vt 0.046401 0.236848
vt 0.487918 0.082908
vt 0.232078 0.333728
vt 0.046401 0.236848
vt 0.243050 0.243346
vt 0.232078 0.333728
vt 0.270497 0.250005
vt 0.487918 0.082908
vt 0.232078 0.333728
vt 0.243050 0.243346
vt 0.254636 0.256769
vt 0.232078 0.333728
vt 0.254636 0.256769
vt 0.270497 0.250005
vt 0.270497 0.250005
vt 0.258937 0.236581
vt 0.487918 0.082908
vt 0.232078 0.333728
vt 0.487918 0.082908
vt 0.510971 0.107945
vt 0.874725 0.938080
vt 0.890022 0.942030
vt 0.876281 0.947867
vt 0.869089 0.950067
vt 0.854945 0.948198
vt 0.858935 0.938080
vt 0.840514 0.938080
vt 0.850471 0.949927
vt 0.835165 0.947469
vt 0.894676 0.947312
vt 0.894506 0.938080
vt 0.908677 0.941533
vt 0.767018 0.960756
vt 0.745055 0.938080
vt 0.781795 0.954145
vt 0.823862 0.956950
vt 0.786813 0.941038
vt 0.830636 0.938080
vt 0.300190 0.991996
vt 0.274725 0.964298
vt 0.344646 0.985610
vt 0.344646 0.985610
vt 0.274725 0.964298
vt 0.301079 0.938080
vt 0.358353 0.967285
vt 0.349451 0.938080
vt 0.383931 0.941667
vt 0.389011 0.938080
vt 0.417149 0.962420
vt 0.407727 0.966821
vt 0.256948 0.933634
vt 0.213187 0.886267
vt 0.226175 0.880329
vt 0.226175 0.880329
vt 0.337259 0.829721
vt 0.380981 0.877089
vt 0.256948 0.933634
vt 0.002198 0.770045
vt 0.013920 0.764743
vt 0.105460 0.821306
vt 0.093899 0.826535
vt 0.020667 0.761713
vt 0.364969 0.606811
vt 0.451713 0.665536
vt 0.112116 0.818318
vt 0.013920 0.764743
vt 0.020667 0.761713
vt 0.112116 0.818318
vt 0.105460 0.821306
vt 0.193342 0.938080
vt 0.268546 0.946167
vt 0.078428 0.999867
vt 0.002198 0.991670
vt 0.457143 0.661427
vt 0.570005 0.749521
vt 0.544421 0.757089
vt 0.647310 0.606811
vt 0.733410 0.701186
vt 0.570005 0.749521
vt 0.457143 0.661427
vt 0.570005 0.749521
vt 0.613015 0.796666
vt 0.587510 0.804320
vt 0.544421 0.757089
vt 0.396020 0.512895
vt 0.196408 0.603498
vt 0.002198 0.583371
vt 0.406862 0.399693
vt 0.396020 0.512895
vt 0.002198 0.583371
vt 0.406862 0.399693
vt 0.432417 0.402752
vt 0.396020 0.512895
vt 0.432417 0.402752
vt 0.595639 0.422290
vt 0.396020 0.512895
vt 0.717599 0.366939
vt 0.704831 0.372752
vt 0.542894 0.352630
vt 0.555811 0.346749
vt 0.650235 0.397521
vt 0.595639 0.422290
vt 0.432417 0.402752
vt 0.542894 0.352630
vt 0.704831 0.372752
vt 0.650235 0.397521
vt 0.542894 0.352630
vt 0.650235 0.397521
vt 0.432417 0.402752
vt 0.813150 0.709207
vt 0.738462 0.628118
vt 0.816873 0.708235
vt 0.816873 0.708235
vt 0.738462 0.628118
vt 0.825329 0.606811
vt 0.898995 0.686794
vt 0.836086 0.734161
vt 0.813150 0.709207
vt 0.836489 0.734054
vt 0.836489 0.734054
vt 0.813150 0.709207
vt 0.816873 0.708235
vt 0.862116 0.762430
vt 0.836086 0.734161
vt 0.836489 0.734054
vt 0.862517 0.762321
vt 0.881996 0.784015
vt 0.862517 0.762321
vt 0.885671 0.783001
vt 0.881996 0.784015
vt 0.862116 0.762430
vt 0.862517 0.762321
vt 0.899710 0.803310
vt 0.885671 0.783001
vt 0.966900 0.760580
vt 0.984372 0.779612
vt 0.899710 0.803310
vt 0.881996 0.784015
vt 0.885671 0.783001
vt 0.819780 0.836605
vt 0.835086 0.829721
vt 0.916694 0.885293
vt 0.901588 0.892087
vt 0.595604 0.849636
vt 0.602548 0.829721
vt 0.683885 0.885766
vt 0.677040 0.905425
vt 0.734264 0.898674
vt 0.690110 0.850850
vt 0.770933 0.829721
vt 0.814509 0.876921
vt 0.457948 0.961913
vt 0.520940 0.939833
vt 0.538694 0.941585
vt 0.520940 0.939833
vt 0.421978 0.958359
vt 0.503187 0.938080
vt 0.457948 0.961913
vt 0.421978 0.958359
vt 0.520940 0.939833
vt 0.740320 0.957286
vt 0.730397 0.961589
vt 0.545055 0.942441
vt 0.555089 0.938080
vt 0.002198 0.885863
vt 0.146217 0.907177
vt 0.084467 0.934915
vt 0.146217 0.907177
vt 0.127178 0.829721
vt 0.207968 0.879439
vt 0.002198 0.885863
vt 0.127178 0.829721
vt 0.146217 0.907177
vt 0.548333 0.829721
vt 0.590758 0.875924
vt 0.429741 0.923753
vt 0.386813 0.877006
vt 0.914286 0.938080
vt 0.914286 0.938080
vt 0.914286 0.938080
vt 0.914286 0.938080
vt 0.914286 0.938080
vt 0.914286 0.938080
vt 0.914286 0.938080
vt 0.914286 0.938080
vt 0.914286 0.938080
vt 0.914286 0.938080
vt 0.914286 0.938080
vt 0.914286 0.938080
vt 0.914286 0.938080
vt 0.914286 0.938080
vt 0.914286 0.938080
vt 0.914286 0.938080
vt 0.914286 0.938080
vt 0.914286 0.938080
vt 0.914286 0.938080
vt 0.914286 0.938080
vt 0.914286 0.938080
vn 0 1 0
vn 0 1 0
vn 0 1 0
vn 0 1 0
vn 0 1 0
vn 0 1 0
vn 0 1 0
vn 0 1 0
vn 0 1 0
vn 0 1 0
vn 0 1 0
vn 0 1 0
vn 0 1 0
vn 0 1 0
vn 0 1 0
vn 0 1 0
vn 0 1 0
vn 0 1 0
vn 0 1 0
vn 0 1 0
vn 0 1 0
vn 0 1 0
vn 0 1 0
vn 0 1 0
vn 0 1 0
vn 0 1 0
vn 0 1 0
vn 0 1 0
vn 0 1 0
vn 0 1 0
vn 0 1 0
vn 0 1 0
vn 0 1 0
vn 0 1 0
vn 0 1 0
vn 0 1 0
vn 0 1 0
vn 0 1 0
vn 0 1 0
vn 0 1 0
vn 0 1 0
vn 0 1 0
vn 0 1 0
vn 0 1 0
vn 0 1 0
vn 0 1 0
vn 0.5325808 0.7841001 0.3186609
vn 0.5325808 0.7841001 0.3186609
vn 0.5325808 0.7841001 0.3186609
vn 0.3481115 0.7352816 -0.5815319
vn 0.3481115 0.7352816 -0.5815319
vn 0.3481115 0.7352816 -0.5815319
vn -0.3813078 0.6713625 0.635513
vn -0.3813078 0.6713625 0.635513
vn -0.3813078 0.6713625 0.635513
vn -0.5689693 0.748326 -0.3410016
vn -0.5689693 0.748326 -0.3410016
vn -0.5689693 0.748326 -0.3410016
vn -0.3385298 0.9155853 -0.2170278
vn -0.3385298 0.9155853 -0.2170278
vn -0.3385298 0.9155853 -0.2170278
vn -0.08929908 0.9252905 -0.3685962
vn -0.08929908 0.9252905 -0.3685962
vn -0.08929908 0.9252905 -0.3685962
vn 0.2024104 0.9270882 -0.3154956
vn 0.2024104 0.9270882 -0.3154956
vn 0.2024104 0.9270882 -0.3154956
vn 0.2016012 0.9273729 -0.3151769
vn 0.2016012 0.9273729 -0.3151769
vn 0.2016012 0.9273729 -0.3151769
vn 0.3708944 0.9270433 -0.05502731
vn 0.3708944 0.9270433 -0.05502731
vn 0.3708944 0.9270433 -0.05502731
vn 0.3012474 0.9344552 0.1898511
vn 0.3012474 0.9344552 0.1898511
vn 0.3012474 0.9344552 0.1898511
vn 0 1 0
vn 0 1 0
vn 0 1 0
vn 0 1 0
vn 0 1 0
vn 0 1 0
vn 0 1 0
vn -0.8404591 0 -0.5418749
vn -0.8404591 0 -0.5418749
vn -0.8404591 0 -0.5418749
vn -0.8404591 0 -0.5418749
vn -0.8417814 0 -0.5398186
vn -0.8417814 0 -0.5398186
vn -0.8417814 0 -0.5398186
vn -0.8417814 0 -0.5398186
vn -0.8422714 0 -0.5390537
vn -0.8422714 0 -0.5390537
vn -0.8422714 0 -0.5390537
vn -0.8422714 0 -0.5390537
vn -0.9882353 0 0.1529412
vn -0.9882353 0 0.1529412
vn -0.9882353 0 0.1529412
vn -0.9882353 0 0.1529412
vn -0.539845 0 0.8417645
vn -0.539845 0 0.8417645
vn -0.539845 0 0.8417645
vn -0.539845 0 0.8417645
vn -0.539845 0 0.8417645
vn -0.539845 0 0.8417645
vn -0.539845 0 0.8417645
vn -0.5398214 0 0.8417796
vn -0.5398214 0 0.8417796
vn -0.5398214 0 0.8417796
vn -0.5398214 0 0.8417796
vn 0.8417636 0 0.5398463
vn 0.8417636 0 0.5398463
vn 0.8417636 0 0.5398463
vn 0.8417636 2.06648E-11 0.5398463
vn 0.8417636 2.06648E-11 0.5398463
vn 0.8417636 2.06648E-11 0.5398463
vn 0.8417636 0 0.5398463
vn 0.8417636 0 0.5398463
vn 0.8417636 0 0.5398463
vn 0.8417636 0 0.5398463
vn 0.8417636 0 0.5398463
vn 0.8417636 0 0.5398463
vn 0.8410186 0 0.5410061
vn 0.8410186 0 0.5410061
vn 0.8410186 0 0.5410061
vn 0.8410186 0 0.5410061
vn 0.8418791 0 0.5396661
vn 0.8418791 0 0.5396661
vn 0.8418791 0 0.5396661
vn 0.8418791 0 0.5396661
vn 0.8418791 0 0.5396661
vn 0.8418791 0 0.5396661
vn 0.8418791 0 0.5396661
vn 0.8418791 0 0.5396661
vn 0.8418791 0 0.5396661
vn 0.540093 0 -0.8416053
vn 0.540093 0 -0.8416053
vn 0.540093 0 -0.8416053
vn 0.540093 0 -0.8416053
vn 0.540093 0 -0.8416053
vn 0.540093 0 -0.8416053
vn 0.540093 0 -0.8416053
vn 0.539286 0 -0.8421227
vn 0.539286 0 -0.8421227
vn 0.539286 0 -0.8421227
vn 0.539286 0 -0.8421227
vn 0.539286 0 -0.8421227
vn 0.539286 0 -0.8421227
vn 0.5399868 0 -0.8416734
vn 0.5399868 0 -0.8416734
vn 0.5399868 0 -0.8416734
vn 0.5399868 0 -0.8416734
vn 0.5400671 0 -0.841622
vn 0.5400671 0 -0.841622
vn 0.5400671 0 -0.841622
vn 0.5400671 0 -0.841622
vn 0.5400671 0 -0.841622
vn 0.5400671 0 -0.841622
vn 0.5388533 0 -0.8423996
vn 0.5388533 0 -0.8423996
vn 0.5388533 0 -0.8423996
vn 0.5388533 0 -0.8423996
vn 0.5388533 0 -0.8423996
vn 0.5388533 0 -0.8423996
vn 0.5388533 0 -0.8423996
vn -0.8418549 0 -0.539704
vn -0.8418549 0 -0.539704
vn -0.8418549 0 -0.539704
vn -0.8418549 0 -0.539704
vn -0.2385463 0 -0.9711311
vn -0.2385463 0 -0.9711311
vn -0.2385463 0 -0.9711311
vn -0.2385463 0 -0.9711311
vn 0.5388413 0 -0.8424073
vn 0.5388413 0 -0.8424073
vn 0.5388413 0 -0.8424073
vn 0.5388413 0 -0.8424073
vn 0.9887903 0 -0.1493105
vn 0.9887903 0 -0.1493105
vn 0.9887903 0 -0.1493105
vn 0.9887903 0 -0.1493105
vn 0.9887903 0 -0.1493105
vn 0.9887903 0 -0.1493105
vn 0.9887903 0 -0.1493105
vn 0.9887903 0 -0.1493105
vn 0.9887903 0 -0.1493105
vn 0.8415864 0 0.5401226
vn 0.8415864 0 0.5401226
vn 0.8415864 0 0.5401226
vn 0.8415864 0 0.5401226
vn -0.841714 0 -0.5399237
vn -0.841714 0 -0.5399237
vn -0.841714 0 -0.5399237
vn -0.841714 0 -0.5399237
vn -0.841714 0 -0.5399237
vn -0.841714 0 -0.5399237
vn -0.841714 2.643655E-11 -0.5399237
vn -0.841714 2.643655E-11 -0.5399237
vn -0.841714 2.643655E-11 -0.5399237
vn -0.5401577 0 0.8415638
vn -0.5401577 0 0.8415638
vn -0.5401577 0 0.8415638
vn -0.5401577 0 0.8415638
vn 0 -1 0
vn 0 -1 0
vn 0 -1 0
vn 0 -1 0
vn 0 -1 0
vn 0 -1 0
vn 0 -1 0
vn 0 -1 0
vn 0 -1 0
vn 0 -1 0
vn 0 -1 0
vn 0 -1 0
vn 0 -1 0
vn 0 -1 0
vn 0 -1 0
vn 0 -1 0
vn 0 -1 0
vn 0 -1 0
vn 0 -1 0
vn 0 -1 0
vn 0 -1 0

g CDNNDG02_0004580
f 1/1/1 2/2/2 3/3/3
f 4/4/4 5/5/5 6/6/6
f 8/8/8 9/9/9 10/10/10
f 7/7/7 8/8/8 10/10/10
f 11/11/11 12/12/12 13/13/13
f 14/14/14 15/15/15 16/16/16
f 17/17/17 18/18/18 19/19/19
f 20/20/20 21/21/21 22/22/22
f 23/23/23 24/24/24 25/25/25
f 26/26/26 27/27/27 28/28/28
f 29/29/29 30/30/30 31/31/31
f 32/32/32 33/33/33 34/34/34
f 35/35/35 36/36/36 37/37/37
f 38/38/38 39/39/39 40/40/40
f 41/41/41 42/42/42 43/43/43
f 44/44/44 45/45/45 46/46/46
f 47/47/47 48/48/48 49/49/49
f 50/50/50 51/51/51 52/52/52
f 53/53/53 54/54/54 55/55/55
f 56/56/56 57/57/57 58/58/58
f 59/59/59 60/60/60 61/61/61
f 62/62/62 63/63/63 64/64/64
f 65/65/65 66/66/66 67/67/67
f 68/68/68 69/69/69 70/70/70
f 71/71/71 72/72/72 73/73/73
f 74/74/74 75/75/75 76/76/76
f 77/77/77 78/78/78 79/79/79
f 83/83/83 80/80/80 82/82/82
f 81/81/81 82/82/82 80/80/80
f 84/84/84 86/86/86 87/87/87
f 84/84/84 85/85/85 86/86/86
f 88/88/88 90/90/90 91/91/91
f 88/88/88 89/89/89 90/90/90
f 92/92/92 93/93/93 94/94/94
f 95/95/95 92/92/92 94/94/94
f 98/98/98 96/96/96 97/97/97
f 96/96/96 98/98/98 99/99/99
f 100/100/100 101/101/101 102/102/102
f 103/103/103 105/105/105 106/106/106
f 105/105/105 103/103/103 104/104/104
f 107/107/107 109/109/109 110/110/110
f 109/109/109 107/107/107 108/108/108
f 111/111/111 112/112/112 113/113/113
f 114/114/114 115/115/115 116/116/116
f 117/117/117 118/118/118 119/119/119
f 120/120/120 121/121/121 122/122/122
f 124/124/124 125/125/125 123/123/123
f 123/123/123 125/125/125 126/126/126
f 127/127/127 128/128/128 129/129/129
f 130/130/130 131/131/131 132/132/132
f 133/133/133 134/134/134 135/135/135
f 136/136/136 137/137/137 138/138/138
f 141/141/141 139/139/139 140/140/140
f 139/139/139 141/141/141 142/142/142
f 143/143/143 144/144/144 145/145/145
f 146/146/146 147/147/147 148/148/148
f 152/152/152 149/149/149 151/151/151
f 150/150/150 151/151/151 149/149/149
f 153/153/153 154/154/154 155/155/155
f 156/156/156 157/157/157 158/158/158
f 161/161/161 162/162/162 160/160/160
f 159/159/159 160/160/160 162/162/162
f 163/163/163 164/164/164 165/165/165
f 166/166/166 168/168/168 169/169/169
f 166/166/166 167/167/167 168/168/168
f 171/171/171 172/172/172 173/173/173
f 170/170/170 171/171/171 173/173/173
f 174/174/174 176/176/176 177/177/177
f 174/174/174 175/175/175 176/176/176
f 178/178/178 179/179/179 180/180/180
f 181/181/181 182/182/182 183/183/183
f 184/184/184 185/185/185 186/186/186
f 188/188/188 189/189/189 187/187/187
f 187/187/187 189/189/189 190/190/190
f 191/191/191 192/192/192 193/193/193
f 194/194/194 195/195/195 196/196/196
f 197/197/197 198/198/198 199/199/199
f 203/203/203 200/200/200 202/202/202
f 202/202/202 200/200/200 201/201/201
f 224/224/224 204/204/204 205/205/205
f 221/221/221 219/219/219 220/220/220
f 208/208/208 211/211/211 212/212/212
f 223/223/223 224/224/224 206/206/206
f 208/208/208 206/206/206 207/207/207
f 210/210/210 211/211/211 208/208/208
f 208/208/208 209/209/209 210/210/210
f 223/223/223 217/217/217 218/218/218
f 212/212/212 213/213/213 214/214/214
f 222/222/222 223/223/223 218/218/218
f 212/212/212 214/214/214 208/208/208
f 214/214/214 216/216/216 208/208/208
f 206/206/206 224/224/224 205/205/205
f 215/215/215 216/216/216 214/214/214
f 217/217/217 223/223/223 216/216/216
f 206/206/206 208/208/208 216/216/216
f 219/219/219 221/221/221 222/222/222
f 206/206/206 216/216/216 223/223/223
f 218/218/218 219/219/219 222/222/222
