v 3.493003 6.727712 3.596837
v 4.079003 6.727712 3.927837
v 4.396003 6.727712 3.366837
v 3.809003 6.727712 3.035837
v 2.124003 5.593712 -5.893163
v 4.353003 5.593712 -4.635163
v 5.054003 4.964712 -5.877162
v 2.825003 4.964712 -7.135163
v 6.522003 6.816712 -3.411163
v 7.224003 6.816712 -3.014163
v 7.603003 6.816712 -3.736163
v 6.945003 6.816712 -4.147162
v 2.124003 5.593227 -5.893163
v 3.809003 5.592657 3.035837
v 4.353003 5.592967 -4.635163
v 3.809003 5.592657 3.035837
v 6.522003 5.592713 -3.411163
v 4.353003 5.592967 -4.635163
v 3.809003 5.592657 3.035837
v 7.224003 5.592631 -3.014163
v 6.522003 5.592713 -3.411163
v -7.252997 5.593676 2.653837
v -6.801997 5.593623 2.908837
v -1.328997 5.593631 -7.842163
v -6.801997 5.593623 2.908837
v 3.809003 5.592657 3.035837
v 2.124003 5.593227 -5.893163
v -1.328997 5.593631 -7.842163
v -7.152997 5.593625 3.531837
v 1.889003 5.592671 6.437837
v -6.801997 5.593623 2.908837
v -7.152997 5.593625 3.531837
v 1.350003 5.592631 8.330837
v 1.889003 5.592671 6.437837
v -6.801997 5.593623 2.908837
v 3.493003 5.592659 3.596837
v 3.809003 5.592657 3.035837
v 1.350003 5.592631 8.330837
v 2.291003 5.592624 6.663837
v 1.889003 5.592671 6.437837
v -6.801997 5.593623 2.908837
v 1.889003 5.592671 6.437837
v 3.493003 5.592659 3.596837
v 3.493003 -5.595689 3.596837
v 4.079003 -5.595689 3.927837
v 4.079003 6.727712 3.927837
v 3.493003 5.592659 3.596837
v 3.493003 5.592659 3.596837
v 4.079003 6.727712 3.927837
v 3.493003 6.727712 3.596837
v 4.237503 -5.595689 3.647337
v 4.396003 -5.595689 3.366837
v 4.396003 6.727712 3.366837
v 4.079003 6.727712 3.927837
v 4.079003 -5.595689 3.927837
v 4.237503 -5.595689 3.647337
v 4.079003 6.727712 3.927837
v 4.237503 -5.595689 3.647337
v 4.396003 6.727712 3.366837
v 3.809003 5.592657 3.035837
v 3.809003 6.727712 3.035837
v 4.396003 6.727712 3.366837
v 3.809003 5.592657 3.035837
v 4.396003 6.727712 3.366837
v 4.396003 -5.595689 3.366837
v 3.809003 -5.595689 3.035837
v 3.493003 6.727712 3.596837
v 3.809003 6.727712 3.035837
v 3.809003 5.592657 3.035837
v 3.493003 5.592659 3.596837
v 2.124003 5.593227 -5.893163
v 4.353003 5.592967 -4.635163
v 4.353003 5.593712 -4.635163
v 2.124003 5.593712 -5.893163
v 4.703503 -5.595689 -5.256163
v 5.054003 -5.595689 -5.877162
v 5.054003 4.964712 -5.877162
v 4.353003 5.593712 -4.635163
v 4.703503 -5.595689 -5.256163
v 5.054003 4.964712 -5.877162
v 4.353003 5.593712 -4.635163
v 4.353003 5.592967 -4.635163
v 4.703503 -5.595689 -5.256163
v 4.353003 -5.595689 -4.635163
v 4.703503 -5.595689 -5.256163
v 4.353003 5.592967 -4.635163
v 2.825003 4.964712 -7.135163
v 5.054003 4.964712 -5.877162
v 5.054003 -5.595689 -5.877162
v 2.825003 -5.595689 -7.135163
v 2.124003 5.593227 -5.893163
v 2.124003 5.593712 -5.893163
v 2.474503 -5.595689 -6.514163
v 2.124003 5.593227 -5.893163
v 2.474503 -5.595689 -6.514163
v 2.124003 -5.595689 -5.893163
v 2.474503 -5.595689 -6.514163
v 2.825003 4.964712 -7.135163
v 2.825003 -5.595689 -7.135163
v 2.124003 5.593712 -5.893163
v 2.825003 4.964712 -7.135163
v 2.474503 -5.595689 -6.514163
v 6.522003 5.592713 -3.411163
v 7.224003 5.592631 -3.014163
v 7.224003 6.816712 -3.014163
v 6.522003 6.816712 -3.411163
v 7.413503 -5.595689 -3.375163
v 7.603003 -5.595689 -3.736163
v 7.603003 6.816712 -3.736163
v 7.224003 6.816712 -3.014163
v 7.413503 -5.595689 -3.375163
v 7.603003 6.816712 -3.736163
v 7.224003 5.592631 -3.014163
v 7.413503 -5.595689 -3.375163
v 7.224003 6.816712 -3.014163
v 7.224003 5.592631 -3.014163
v 7.224003 -5.595689 -3.014163
v 7.413503 -5.595689 -3.375163
v 5.516503 -5.595689 0.01083733
v 7.224003 -5.595689 -3.014163
v 7.224003 5.592631 -3.014163
v 3.809003 5.592657 3.035837
v 3.809003 -5.595689 3.035837
v 5.516503 -5.595689 0.01083733
v 3.809003 5.592657 3.035837
v 5.516503 -5.595689 0.01083733
v 7.224003 5.592631 -3.014163
v 6.945003 6.816712 -4.147162
v 7.603003 6.816712 -3.736163
v 7.603003 -5.595689 -3.736163
v 6.945003 -5.595689 -4.147162
v 6.522003 6.816712 -3.411163
v 6.945003 6.816712 -4.147162
v 6.522003 5.592713 -3.411163
v 6.522003 5.592713 -3.411163
v 6.945003 6.816712 -4.147162
v 6.945003 -5.595689 -4.147162
v 6.522003 -5.595689 -3.411163
v -7.152997 -5.595689 3.531837
v 1.350003 -5.595689 8.330837
v 1.350003 5.592631 8.330837
v -7.152997 5.593625 3.531837
v 1.820503 -5.595689 7.497337
v 2.291003 -5.595689 6.663837
v 2.291003 5.592624 6.663837
v 1.350003 5.592631 8.330837
v 1.350003 -5.595689 8.330837
v 1.820503 -5.595689 7.497337
v 1.350003 5.592631 8.330837
v 1.820503 -5.595689 7.497337
v 2.291003 5.592624 6.663837
v 1.889003 5.592671 6.437837
v 2.090003 -5.595689 6.550838
v 1.889003 -5.595689 6.437837
v 2.090003 -5.595689 6.550838
v 2.291003 5.592624 6.663837
v 2.291003 -5.595689 6.663837
v 1.889003 5.592671 6.437837
v 2.291003 5.592624 6.663837
v 2.090003 -5.595689 6.550838
v 2.691003 -5.595689 5.017337
v 3.493003 -5.595689 3.596837
v 3.493003 5.592659 3.596837
v 1.889003 5.592671 6.437837
v 1.889003 -5.595689 6.437837
v 2.691003 -5.595689 5.017337
v 1.889003 5.592671 6.437837
v 2.691003 -5.595689 5.017337
v 3.493003 5.592659 3.596837
v 4.353003 -5.595689 -4.635163
v 4.353003 5.592967 -4.635163
v 5.437503 -5.595689 -4.023163
v 5.437503 -5.595689 -4.023163
v 6.522003 5.592713 -3.411163
v 6.522003 -5.595689 -3.411163
v 4.353003 5.592967 -4.635163
v 6.522003 5.592713 -3.411163
v 5.437503 -5.595689 -4.023163
v -1.328997 5.593631 -7.842163
v 0.397503 -5.595689 -6.867663
v -1.328997 -5.595689 -7.842163
v 0.397503 -5.595689 -6.867663
v 2.124003 5.593227 -5.893163
v 2.124003 -5.595689 -5.893163
v -1.328997 5.593631 -7.842163
v 2.124003 5.593227 -5.893163
v 0.397503 -5.595689 -6.867663
v -7.252997 5.593676 2.653837
v -1.328997 5.593631 -7.842163
v -1.328997 -5.595689 -7.842163
v -7.252997 -5.595689 2.653837
v -7.252997 -5.595689 2.653837
v -6.801997 -5.595689 2.908837
v -6.801997 5.593623 2.908837
v -7.252997 5.593676 2.653837
v -7.152997 5.593625 3.531837
v -6.801997 5.593623 2.908837
v -6.801997 -5.595689 2.908837
v -7.152997 -5.595689 3.531837
v -7.152997 -5.595689 3.531837
v -6.801997 -5.595689 2.908837
v -7.252997 -5.595689 2.653837
v -1.328997 -5.595689 -7.842163
v 0.397503 -5.595689 -6.867663
v 2.124003 -5.595689 -5.893163
v 2.474503 -5.595689 -6.514163
v 2.825003 -5.595689 -7.135163
v 5.054003 -5.595689 -5.877162
v 4.703503 -5.595689 -5.256163
v 4.353003 -5.595689 -4.635163
v 5.437503 -5.595689 -4.023163
v 6.522003 -5.595689 -3.411163
v 6.945003 -5.595689 -4.147162
v 7.603003 -5.595689 -3.736163
v 7.413503 -5.595689 -3.375163
v 7.224003 -5.595689 -3.014163
v 5.516503 -5.595689 0.01083733
v 3.809003 -5.595689 3.035837
v 4.396003 -5.595689 3.366837
v 4.237503 -5.595689 3.647337
v 4.079003 -5.595689 3.927837
v 3.493003 -5.595689 3.596837
v 2.691003 -5.595689 5.017337
v 1.889003 -5.595689 6.437837
v 2.090003 -5.595689 6.550838
v 2.291003 -5.595689 6.663837
v 1.820503 -5.595689 7.497337
v 1.350003 -5.595689 8.330837
vt 0.915790 0.915044
vt 0.929705 0.931680
vt 0.906772 0.940921
vt 0.892857 0.924257
vt 0.438323 0.764602
vt 0.493317 0.830709
vt 0.445258 0.853750
vt 0.390306 0.787695
vt 0.839159 0.915044
vt 0.856073 0.935184
vt 0.826149 0.946367
vt 0.808673 0.927502
vt 0.089523 0.289015
vt 0.480471 0.337000
vt 0.145659 0.356150
vt 0.480471 0.337000
vt 0.200276 0.421477
vt 0.145659 0.356150
vt 0.480471 0.337000
vt 0.217990 0.442620
vt 0.200276 0.421477
vt 0.457941 0.001770
vt 0.469319 0.015355
vt 0.002551 0.185010
vt 0.469319 0.015355
vt 0.480471 0.337000
vt 0.089523 0.289015
vt 0.002551 0.185010
vt 0.496351 0.004497
vt 0.628073 0.277615
vt 0.469319 0.015355
vt 0.496351 0.004497
vt 0.710485 0.260619
vt 0.628073 0.277615
vt 0.469319 0.015355
vt 0.504811 0.327226
vt 0.480471 0.337000
vt 0.710485 0.260619
vt 0.638158 0.289724
vt 0.628073 0.277615
vt 0.469319 0.015355
vt 0.628073 0.277615
vt 0.504811 0.327226
vt 0.585700 0.764602
vt 0.599823 0.781740
vt 0.514338 0.847070
vt 0.508002 0.823596
vt 0.508002 0.823596
vt 0.514338 0.847070
vt 0.500000 0.829672
vt 0.791450 0.952264
vt 0.779676 0.956925
vt 0.693878 0.924507
vt 0.717783 0.915044
vt 0.803224 0.947603
vt 0.791450 0.952264
vt 0.717783 0.915044
vt 0.791450 0.952264
vt 0.693878 0.924507
vt 0.028061 0.994690
vt 0.028061 0.994690
vt 0.028061 0.994690
vt 0.028061 0.994690
vt 0.028061 0.994690
vt 0.028061 0.994690
vt 0.028061 0.994690
vt 0.958860 0.920560
vt 0.936224 0.929192
vt 0.943827 0.923665
vt 0.966431 0.915044
vt 0.234697 0.915044
vt 0.287948 0.980804
vt 0.287942 0.980808
vt 0.234694 0.915047
vt 0.661037 0.955000
vt 0.634869 0.965378
vt 0.556122 0.937754
vt 0.604425 0.915044
vt 0.661037 0.955000
vt 0.556122 0.937754
vt 0.604425 0.915044
vt 0.604430 0.915046
vt 0.661037 0.955000
vt 0.687205 0.944622
vt 0.661037 0.955000
vt 0.604430 0.915046
vt 0.971939 0.915044
vt 0.971939 0.915044
vt 0.971939 0.915044
vt 0.971939 0.915044
vt 0.050935 0.973397
vt 0.050931 0.973400
vt 0.108391 0.925414
vt 0.050935 0.973397
vt 0.108391 0.925414
vt 0.134623 0.915044
vt 0.108391 0.925414
vt 0.002551 0.991085
vt 0.082158 0.935783
vt 0.050931 0.973400
vt 0.002551 0.991085
vt 0.108391 0.925414
vt 0.870706 0.915044
vt 0.886710 0.934970
vt 0.878272 0.941406
vt 0.862245 0.921450
vt 0.110456 0.904190
vt 0.095047 0.909934
vt 0.002551 0.877817
vt 0.033841 0.866153
vt 0.110456 0.904190
vt 0.002551 0.877817
vt 0.043041 0.869382
vt 0.110456 0.904190
vt 0.033841 0.866153
vt 0.043041 0.869382
vt 0.125865 0.898446
vt 0.110456 0.904190
vt 0.254927 0.846769
vt 0.125865 0.898446
vt 0.043041 0.869382
vt 0.304722 0.764602
vt 0.383991 0.795091
vt 0.254927 0.846769
vt 0.304722 0.764602
vt 0.254927 0.846769
vt 0.043041 0.869382
vt 0.015306 0.994690
vt 0.015306 0.994690
vt 0.015306 0.994690
vt 0.015306 0.994690
vt 0.842751 0.831463
vt 0.811224 0.844178
vt 0.851873 0.824779
vt 0.851873 0.824779
vt 0.811224 0.844178
vt 0.902941 0.777126
vt 0.933993 0.764602
vt 0.081585 0.447788
vt 0.289639 0.700350
vt 0.213480 0.759371
vt 0.002551 0.503339
vt 0.514587 0.960032
vt 0.479393 0.974032
vt 0.403061 0.943431
vt 0.474418 0.915044
vt 0.549781 0.946032
vt 0.514587 0.960032
vt 0.474418 0.915044
vt 0.514587 0.960032
vt 0.403061 0.943431
vt 0.040816 0.994690
vt 0.040816 0.994690
vt 0.040816 0.994690
vt 0.040816 0.994690
vt 0.040816 0.994690
vt 0.040816 0.994690
vt 0.040816 0.994690
vt 0.040816 0.994690
vt 0.040816 0.994690
vt 0.745843 0.819613
vt 0.685603 0.843644
vt 0.607143 0.813328
vt 0.729282 0.764602
vt 0.806084 0.795581
vt 0.745843 0.819613
vt 0.729282 0.764602
vt 0.745843 0.819613
vt 0.607143 0.813328
vt 0.002551 0.994690
vt 0.002551 0.994690
vt 0.002551 0.994690
vt 0.002551 0.994690
vt 0.002551 0.994690
vt 0.002551 0.994690
vt 0.002551 0.994690
vt 0.002551 0.994690
vt 0.002551 0.994690
vt 0.984694 0.915044
vt 0.984694 0.915044
vt 0.984694 0.915044
vt 0.984694 0.915044
vt 0.984694 0.915044
vt 0.984694 0.915044
vt 0.984694 0.915044
vt 0.984694 0.915044
vt 0.984694 0.915044
vt 0.751908 0.503200
vt 0.295918 0.683674
vt 0.381987 0.625812
vt 0.831787 0.447788
vt 0.218334 0.915044
vt 0.229177 0.928180
vt 0.151300 0.982791
vt 0.140306 0.969475
vt 0.319915 0.969439
vt 0.293367 0.979929
vt 0.371563 0.925392
vt 0.397751 0.915044
vt 0.053571 0.994690
vt 0.053571 0.994690
vt 0.053571 0.994690
vt 0.053571 0.994690
vt 0.053571 0.994690
vt 0.053571 0.994690
vt 0.053571 0.994690
vt 0.053571 0.994690
vt 0.053571 0.994690
vt 0.053571 0.994690
vt 0.053571 0.994690
vt 0.053571 0.994690
vt 0.053571 0.994690
vt 0.053571 0.994690
vt 0.053571 0.994690
vt 0.053571 0.994690
vt 0.053571 0.994690
vt 0.053571 0.994690
vt 0.053571 0.994690
vt 0.053571 0.994690
vt 0.053571 0.994690
vt 0.053571 0.994690
vt 0.053571 0.994690
vt 0.053571 0.994690
vt 0.053571 0.994690
vt 0.053571 0.994690
vt 0.053571 0.994690
vt 0.053571 0.994690
vt 0.053571 0.994690
vn 0 1 0
vn 0 1 0
vn 0 1 0
vn 0 1 0
vn 0.1983396 0.9149636 -0.35143
vn 0.1983396 0.9149636 -0.35143
vn 0.1983396 0.9149636 -0.35143
vn 0.1983396 0.9149636 -0.35143
vn 0 1 0
vn 0 1 0
vn 0 1 0
vn 0 1 0
vn 9.047506E-05 1 4.684506E-05
vn 9.047506E-05 1 4.684506E-05
vn 9.047506E-05 1 4.684506E-05
vn 9.047561E-05 1 4.68451E-05
vn 9.047561E-05 1 4.68451E-05
vn 9.047561E-05 1 4.68451E-05
vn 9.047402E-05 1 4.684443E-05
vn 9.047402E-05 1 4.684443E-05
vn 9.047402E-05 1 4.684443E-05
vn 9.047597E-05 1 4.684447E-05
vn 9.047597E-05 1 4.684447E-05
vn 9.047597E-05 1 4.684447E-05
vn 9.047559E-05 1 4.684449E-05
vn 9.047599E-05 1 4.684488E-05
vn 9.047559E-05 1 4.684449E-05
vn 9.04752E-05 1 4.684409E-05
vn 9.047433E-05 1 4.684828E-05
vn 9.047433E-05 1 4.684828E-05
vn 9.047433E-05 1 4.684828E-05
vn 9.047559E-05 1 4.684435E-05
vn 9.047559E-05 1 4.684435E-05
vn 9.047559E-05 1 4.684435E-05
vn 9.047598E-05 1 4.684565E-05
vn 9.047598E-05 1 4.684565E-05
vn 9.047598E-05 1 4.684565E-05
vn 9.047986E-05 1 4.684556E-05
vn 9.047986E-05 1 4.684556E-05
vn 9.047986E-05 1 4.684556E-05
vn 9.047609E-05 1 4.684395E-05
vn 9.047609E-05 1 4.684395E-05
vn 9.047609E-05 1 4.684395E-05
vn -0.4918124 0 0.8707012
vn -0.4918124 0 0.8707012
vn -0.4918124 0 0.8707012
vn -0.4918124 0 0.8707012
vn -0.4918124 0 0.8707012
vn -0.4918124 0 0.8707012
vn -0.4918124 0 0.8707012
vn 0.8706207 0 0.491955
vn 0.8706207 0 0.491955
vn 0.8706207 0 0.491955
vn 0.8706207 0 0.491955
vn 0.8706207 0 0.491955
vn 0.8706207 0 0.491955
vn 0.8706207 -1.858938E-11 0.491955
vn 0.8706207 -1.858938E-11 0.491955
vn 0.8706207 -1.858938E-11 0.491955
vn 0.4911768 0 -0.8710599
vn 0.4911768 0 -0.8710599
vn 0.4911768 0 -0.8710599
vn 0.4911768 0 -0.8710599
vn 0.4911768 0 -0.8710599
vn 0.4911768 0 -0.8710599
vn 0.4911768 0 -0.8710599
vn -0.871285 0 -0.4907773
vn -0.871285 0 -0.4907773
vn -0.871285 0 -0.4907773
vn -0.871285 0 -0.4907773
vn -0.4915036 0 0.8708755
vn -0.4915036 0 0.8708755
vn -0.4915036 0 0.8708755
vn -0.4915036 0 0.8708755
vn 0.870863 0 0.4915258
vn 0.870863 0 0.4915258
vn 0.870863 0 0.4915258
vn 0.870863 -2.104705E-11 0.4915258
vn 0.870863 -2.104705E-11 0.4915258
vn 0.870863 -2.104705E-11 0.4915258
vn 0.870863 0 0.4915258
vn 0.870863 0 0.4915258
vn 0.870863 0 0.4915258
vn 0.870863 0 0.4915258
vn 0.870863 0 0.4915258
vn 0.870863 0 0.4915258
vn 0.4915036 0 -0.8708755
vn 0.4915036 0 -0.8708755
vn 0.4915036 0 -0.8708755
vn 0.4915036 0 -0.8708755
vn -0.870863 0 -0.4915258
vn -0.870863 0 -0.4915258
vn -0.870863 0 -0.4915258
vn -0.870863 0 -0.4915258
vn -0.870863 0 -0.4915258
vn -0.870863 0 -0.4915258
vn -0.870863 0 -0.4915258
vn -0.870863 0 -0.4915258
vn -0.870863 0 -0.4915258
vn -0.870863 -2.104704E-11 -0.4915258
vn -0.870863 -2.104704E-11 -0.4915258
vn -0.870863 -2.104704E-11 -0.4915258
vn -0.4922615 0 0.8704473
vn -0.4922615 0 0.8704473
vn -0.4922615 0 0.8704473
vn -0.4922615 0 0.8704473
vn 0.8854231 0 0.4647858
vn 0.8854231 0 0.4647858
vn 0.8854231 0 0.4647858
vn 0.8854231 -1.95129E-11 0.4647858
vn 0.8854231 -1.95129E-11 0.4647858
vn 0.8854231 -1.95129E-11 0.4647858
vn 0.8854231 0 0.4647858
vn 0.8854231 0 0.4647858
vn 0.8854231 0 0.4647858
vn 0.8854231 0 0.4647858
vn 0.8854231 0 0.4647858
vn 0.8854231 0 0.4647858
vn 0.8708442 0 0.4915591
vn 0.8708442 0 0.4915591
vn 0.8708442 0 0.4915591
vn 0.8708442 0 0.4915591
vn 0.8708442 0 0.4915591
vn 0.8708442 0 0.4915591
vn 0.8708442 -7.997211E-10 0.4915591
vn 0.8708442 -7.997211E-10 0.4915591
vn 0.8708442 -7.997211E-10 0.4915591
vn 0.5297672 0 -0.8481431
vn 0.5297672 0 -0.8481431
vn 0.5297672 0 -0.8481431
vn 0.5297672 0 -0.8481431
vn -0.8670081 0 -0.4982941
vn -0.8670081 0 -0.4982941
vn -0.8670081 0 -0.4982941
vn -0.8670081 0 -0.4982941
vn -0.8670081 0 -0.4982941
vn -0.8670081 0 -0.4982941
vn -0.8670081 0 -0.4982941
vn -0.4915104 0 0.8708717
vn -0.4915104 0 0.8708717
vn -0.4915104 0 0.8708717
vn -0.4915104 0 0.8708717
vn 0.8708351 0 0.4915752
vn 0.8708351 0 0.4915752
vn 0.8708351 0 0.4915752
vn 0.8708351 0 0.4915752
vn 0.8708351 0 0.4915752
vn 0.8708351 0 0.4915752
vn 0.8708351 2.045952E-11 0.4915752
vn 0.8708351 2.045952E-11 0.4915752
vn 0.8708351 2.045952E-11 0.4915752
vn 0.4900554 0 -0.8716913
vn 0.4900554 0 -0.8716913
vn 0.4900554 0 -0.8716913
vn 0.4900553 0 -0.8716913
vn 0.4900553 0 -0.8716913
vn 0.4900553 0 -0.8716913
vn 0.4900553 -2.192594E-10 -0.8716913
vn 0.4900553 -2.192594E-10 -0.8716913
vn 0.4900553 -2.192594E-10 -0.8716913
vn 0.8707968 0 0.4916431
vn 0.8707968 0 0.4916431
vn 0.8707968 0 0.4916431
vn 0.8707968 0 0.4916431
vn 0.8707968 0 0.4916431
vn 0.8707968 0 0.4916431
vn 0.8707968 2.265173E-12 0.4916431
vn 0.8707968 2.265173E-12 0.4916431
vn 0.8707968 2.265173E-12 0.4916431
vn 0.4914618 0 -0.8708991
vn 0.4914618 0 -0.8708991
vn 0.4914618 0 -0.8708991
vn 0.4914618 0 -0.8708991
vn 0.4914618 0 -0.8708991
vn 0.4914618 0 -0.8708991
vn 0.4914618 -3.239617E-10 -0.8708991
vn 0.4914618 -3.239617E-10 -0.8708991
vn 0.4914618 -3.239617E-10 -0.8708991
vn 0.4915419 0 -0.8708539
vn 0.4915419 0 -0.8708539
vn 0.4915419 0 -0.8708539
vn 0.4915419 0 -0.8708539
vn 0.4915419 0 -0.8708539
vn 0.4915419 0 -0.8708539
vn 0.4915419 -3.358937E-10 -0.8708539
vn 0.4915419 -3.358937E-10 -0.8708539
vn 0.4915419 -3.358937E-10 -0.8708539
vn -0.8708656 0 -0.4915213
vn -0.8708656 0 -0.4915213
vn -0.8708656 0 -0.4915213
vn -0.8708656 0 -0.4915213
vn -0.4921845 0 0.8704909
vn -0.4921845 0 0.8704909
vn -0.4921845 0 0.8704909
vn -0.4921845 0 0.8704909
vn -0.8712392 0 -0.4908586
vn -0.8712392 0 -0.4908586
vn -0.8712392 0 -0.4908586
vn -0.8712392 0 -0.4908586
vn 0 -1 0
vn 0 -1 0
vn 0 -1 0
vn 0 -1 0
vn 0 -1 0
vn 0 -1 0
vn 0 -1 0
vn 0 -1 0
vn 0 -1 0
vn 0 -1 0
vn 0 -1 0
vn 0 -1 0
vn 0 -1 0
vn 0 -1 0
vn 0 -1 0
vn 0 -1 0
vn 0 -1 0
vn 0 -1 0
vn 0 -1 0
vn 0 -1 0
vn 0 -1 0
vn 0 -1 0
vn 0 -1 0
vn 0 -1 0
vn 0 -1 0
vn 0 -1 0
vn 0 -1 0
vn 0 -1 0
vn 0 -1 0

g CDNNDG01_0001460
f 4/4/4 1/1/1 3/3/3
f 3/3/3 1/1/1 2/2/2
f 6/6/6 7/7/7 8/8/8
f 5/5/5 6/6/6 8/8/8
f 9/9/9 11/11/11 12/12/12
f 9/9/9 10/10/10 11/11/11
f 13/13/13 14/14/14 15/15/15
f 16/16/16 17/17/17 18/18/18
f 19/19/19 20/20/20 21/21/21
f 22/22/22 23/23/23 24/24/24
f 28/28/28 25/25/25 27/27/27
f 27/27/27 25/25/25 26/26/26
f 29/29/29 30/30/30 31/31/31
f 32/32/32 33/33/33 34/34/34
f 35/35/35 36/36/36 37/37/37
f 38/38/38 39/39/39 40/40/40
f 41/41/41 42/42/42 43/43/43
f 45/45/45 46/46/46 47/47/47
f 47/47/47 44/44/44 45/45/45
f 48/48/48 49/49/49 50/50/50
f 51/51/51 52/52/52 53/53/53
f 54/54/54 55/55/55 56/56/56
f 57/57/57 58/58/58 59/59/59
f 60/60/60 61/61/61 62/62/62
f 65/65/65 63/63/63 64/64/64
f 63/63/63 65/65/65 66/66/66
f 70/70/70 68/68/68 69/69/69
f 70/70/70 67/67/67 68/68/68
f 74/74/74 71/71/71 73/73/73
f 73/73/73 71/71/71 72/72/72
f 75/75/75 76/76/76 77/77/77
f 78/78/78 79/79/79 80/80/80
f 81/81/81 82/82/82 83/83/83
f 84/84/84 85/85/85 86/86/86
f 87/87/87 89/89/89 90/90/90
f 87/87/87 88/88/88 89/89/89
f 91/91/91 92/92/92 93/93/93
f 94/94/94 95/95/95 96/96/96
f 97/97/97 98/98/98 99/99/99
f 100/100/100 101/101/101 102/102/102
f 103/103/103 105/105/105 106/106/106
f 105/105/105 103/103/103 104/104/104
f 107/107/107 108/108/108 109/109/109
f 110/110/110 111/111/111 112/112/112
f 113/113/113 114/114/114 115/115/115
f 116/116/116 117/117/117 118/118/118
f 119/119/119 120/120/120 121/121/121
f 122/122/122 123/123/123 124/124/124
f 125/125/125 126/126/126 127/127/127
f 128/128/128 130/130/130 131/131/131
f 128/128/128 129/129/129 130/130/130
f 132/132/132 133/133/133 134/134/134
f 135/135/135 137/137/137 138/138/138
f 137/137/137 135/135/135 136/136/136
f 139/139/139 141/141/141 142/142/142
f 141/141/141 139/139/139 140/140/140
f 143/143/143 144/144/144 145/145/145
f 146/146/146 147/147/147 148/148/148
f 149/149/149 150/150/150 151/151/151
f 152/152/152 153/153/153 154/154/154
f 155/155/155 156/156/156 157/157/157
f 158/158/158 159/159/159 160/160/160
f 161/161/161 162/162/162 163/163/163
f 164/164/164 165/165/165 166/166/166
f 167/167/167 168/168/168 169/169/169
f 170/170/170 171/171/171 172/172/172
f 173/173/173 174/174/174 175/175/175
f 176/176/176 177/177/177 178/178/178
f 179/179/179 180/180/180 181/181/181
f 182/182/182 183/183/183 184/184/184
f 185/185/185 186/186/186 187/187/187
f 191/191/191 188/188/188 189/189/189
f 190/190/190 191/191/191 189/189/189
f 195/195/195 192/192/192 194/194/194
f 194/194/194 192/192/192 193/193/193
f 197/197/197 198/198/198 199/199/199
f 196/196/196 197/197/197 199/199/199
f 224/224/224 227/227/227 228/228/228
f 225/225/225 226/226/226 227/227/227
f 201/201/201 222/222/222 223/223/223
f 201/201/201 202/202/202 203/203/203
f 224/224/224 225/225/225 227/227/227
f 201/201/201 203/203/203 204/204/204
f 201/201/201 204/204/204 205/205/205
f 210/210/210 205/205/205 206/206/206
f 209/209/209 206/206/206 207/207/207
f 201/201/201 205/205/205 218/218/218
f 200/200/200 224/224/224 228/228/228
f 207/207/207 208/208/208 209/209/209
f 206/206/206 209/209/209 210/210/210
f 205/205/205 210/210/210 217/217/217
f 210/210/210 211/211/211 217/217/217
f 215/215/215 212/212/212 213/213/213
f 211/211/211 212/212/212 217/217/217
f 213/213/213 214/214/214 215/215/215
f 212/212/212 215/215/215 216/216/216
f 212/212/212 216/216/216 217/217/217
f 205/205/205 217/217/217 218/218/218
f 201/201/201 223/223/223 224/224/224
f 201/201/201 218/218/218 222/222/222
f 218/218/218 219/219/219 220/220/220
f 218/218/218 220/220/220 222/222/222
f 200/200/200 201/201/201 224/224/224
f 220/220/220 221/221/221 222/222/222
