v 2.12327 6.100521 -9.620548
v 5.41127 6.100521 -7.533548
v 3.51427 6.100521 -10.07055
v -2.15673 6.100521 0.7974517
v 7.82127 6.100521 -6.094548
v 5.41127 6.100521 -7.533548
v -2.85173 6.100521 -2.122548
v 2.12327 6.100521 -9.620548
v 1.75627 6.100521 -9.839548
v -3.65573 6.100521 -0.09854834
v -2.15673 6.100521 0.7974517
v -2.85173 6.100521 -2.122548
v -5.63873 6.100521 7.698452
v -1.78673 6.100521 9.998451
v -4.38673 6.100521 5.010452
v -3.95473 6.100521 -0.2765483
v -3.65573 6.100521 -0.09854834
v -2.85173 6.100521 -2.122548
v -2.15673 6.100521 0.7974517
v -1.78673 6.100521 9.998451
v 7.82127 6.100521 -6.094548
v 3.51427 6.100521 -10.07055
v 5.41127 6.100521 -7.533548
v 5.25527 6.100521 -9.031549
v -4.38673 6.100521 5.010452
v -1.78673 6.100521 9.998451
v -3.96773 6.100521 3.831452
v -4.59673 6.100521 4.884452
v -4.38673 6.100521 5.010452
v -4.22773 6.100521 4.266452
v -3.96773 6.100521 3.831452
v -1.78673 6.100521 9.998451
v -2.15673 6.100521 0.7974517
v -4.38673 6.100521 5.010452
v -3.96773 6.100521 3.831452
v -4.22773 6.100521 4.266452
v -2.85173 6.100521 -2.122548
v -2.15673 6.100521 0.7974517
v 5.41127 6.100521 -7.533548
v -5.89873 6.100521 7.543452
v -5.63873 6.100521 7.698452
v -4.38673 6.100521 5.010452
v -2.85173 6.100521 -2.122548
v 5.41127 6.100521 -7.533548
v 2.12327 6.100521 -9.620548
v -3.437105 5.15091 2.090452
v -2.984293 5.15091 1.331952
v -3.359105 5.00841 1.107952
v -3.81198 5.00841 1.866452
v -3.889918 5.15091 2.848952
v -3.437105 5.15091 2.090452
v -3.81198 5.00841 1.866452
v -4.264855 5.00841 2.624952
v -3.81198 5.00841 1.866452
v -3.359105 5.00841 1.107952
v -3.733917 4.86591 0.8839517
v -4.186855 4.86591 1.642452
v -4.264855 5.00841 2.624952
v -3.81198 5.00841 1.866452
v -4.186855 4.86591 1.642452
v -4.639792 4.86591 2.400952
v -3.359105 5.00841 1.107952
v -2.984293 5.15091 1.331952
v -2.15673 5.29341 0.7974517
v -3.65573 4.72341 -0.09854834
v -3.359105 5.00841 1.107952
v -2.15673 5.29341 0.7974517
v -3.437105 5.15091 2.090452
v -2.15673 5.29341 0.7974517
v -2.984293 5.15091 1.331952
v -3.96773 5.29341 3.831452
v -3.437105 5.15091 2.090452
v -3.889918 5.15091 2.848952
v -3.96773 5.29341 3.831452
v -2.15673 5.29341 0.7974517
v -3.437105 5.15091 2.090452
v -4.264855 5.00841 2.624952
v -3.96773 5.29341 3.831452
v -3.889918 5.15091 2.848952
v -4.186855 4.86591 1.642452
v -3.733917 4.86591 0.8839517
v -3.65573 4.72341 -0.09854834
v -3.733917 4.86591 0.8839517
v -3.359105 5.00841 1.107952
v -3.65573 4.72341 -0.09854834
v -5.46773 4.72341 2.935452
v -4.186855 4.86591 1.642452
v -3.65573 4.72341 -0.09854834
v -5.46773 4.72341 2.935452
v -4.264855 5.00841 2.624952
v -4.639792 4.86591 2.400952
v -5.46773 4.72341 2.935452
v -4.639792 4.86591 2.400952
v -4.186855 4.86591 1.642452
v -5.46773 4.72341 2.935452
v -3.96773 5.29341 3.831452
v -4.264855 5.00841 2.624952
v -6.51273 1.07241 2.902452
v -5.89873 1.07241 7.543452
v -4.59673 1.07241 4.884452
v -5.89873 1.07241 7.543452
v -4.38673 1.07241 5.010452
v -4.59673 1.07241 4.884452
v -9.64473 1.07241 8.152452
v -5.89873 1.07241 7.543452
v -6.51273 1.07241 2.902452
v -6.51273 1.07241 2.902452
v -4.59673 1.07241 4.884452
v -4.22773 1.07641 4.266452
v -9.64473 1.07241 8.152452
v -6.97073 1.07241 9.898452
v -5.89873 1.07241 7.543452
v -6.97073 1.07241 9.898452
v -5.63873 1.07241 7.698452
v -5.89873 1.07241 7.543452
v -3.96773 6.100521 3.831452
v -2.15673 6.100521 0.7974517
v -2.15673 5.29341 0.7974517
v -3.96773 5.29341 3.831452
v -4.22773 6.100521 4.266452
v -3.96773 5.29341 3.831452
v -4.22773 1.07641 4.266452
v -4.22773 1.07641 4.266452
v -3.96773 -5.665669 3.831452
v -4.22773 -5.665669 4.266452
v -4.22773 6.100521 4.266452
v -3.96773 6.100521 3.831452
v -3.96773 5.29341 3.831452
v -4.22773 1.07641 4.266452
v -3.96773 5.29341 3.831452
v -3.96773 -5.665669 3.831452
v -4.59673 6.100521 4.884452
v -4.22773 6.100521 4.266452
v -4.22773 1.07641 4.266452
v -4.59673 1.07241 4.884452
v -4.59673 1.07241 4.884452
v -4.38673 1.07241 5.010452
v -4.38673 6.100521 5.010452
v -4.59673 6.100521 4.884452
v -5.89873 6.100521 7.543452
v -4.38673 6.100521 5.010452
v -4.38673 1.07241 5.010452
v -5.89873 1.07241 7.543452
v -5.89873 1.07241 7.543452
v -5.63873 1.07241 7.698452
v -5.63873 6.100521 7.698452
v -5.89873 6.100521 7.543452
v -5.63873 -5.665669 7.698452
v -1.78673 -5.665669 9.998451
v -1.78673 6.100521 9.998451
v -5.63873 1.07241 7.698452
v -5.63873 6.100521 7.698452
v -5.63873 1.07241 7.698452
v -1.78673 6.100521 9.998451
v -1.78673 -5.665669 9.998451
v 7.82127 -5.665669 -6.094548
v 7.82127 6.100521 -6.094548
v -1.78673 6.100521 9.998451
v 5.41127 6.100521 -7.533548
v 7.82127 6.100521 -6.094548
v 7.82127 -5.665669 -6.094548
v 5.41127 -5.665669 -7.533548
v 5.25527 6.100521 -9.031549
v 5.41127 6.100521 -7.533548
v 5.41127 -5.665669 -7.533548
v 5.25527 -5.665669 -9.031549
v 3.51427 6.100521 -10.07055
v 5.25527 6.100521 -9.031549
v 5.25527 -5.665669 -9.031549
v 3.51427 -5.665669 -10.07055
v 2.12327 6.100521 -9.620548
v 3.51427 6.100521 -10.07055
v 3.51427 -5.665669 -10.07055
v 2.12327 -5.665669 -9.620548
v 1.75627 6.100521 -9.839548
v 2.12327 6.100521 -9.620548
v 2.12327 -5.665669 -9.620548
v 1.75627 -5.665669 -9.839548
v -2.85173 6.100521 -2.122548
v 1.75627 6.100521 -9.839548
v 1.75627 -5.665669 -9.839548
v -2.85173 -5.665669 -2.122548
v -3.95473 6.100521 -0.2765483
v -2.85173 6.100521 -2.122548
v -2.85173 -5.665669 -2.122548
v -3.95473 -5.665669 -0.2765483
v -3.95473 6.100521 -0.2765483
v -3.65573 4.72341 -0.09854834
v -3.65573 6.100521 -0.09854834
v -3.95473 -5.665669 -0.2765483
v -3.65573 -5.665669 -0.09854834
v -3.65573 4.72341 -0.09854834
v -3.95473 6.100521 -0.2765483
v -3.65573 6.100521 -0.09854834
v -2.15673 5.29341 0.7974517
v -2.15673 6.100521 0.7974517
v -3.65573 6.100521 -0.09854834
v -3.65573 4.72341 -0.09854834
v -2.15673 5.29341 0.7974517
v -5.46773 4.72341 2.935452
v -3.65573 4.72341 -0.09854834
v -3.65573 -5.665669 -0.09854834
v -5.46773 -5.665669 2.935452
v -4.71773 -5.665669 3.383452
v -3.96773 -5.665669 3.831452
v -3.96773 5.29341 3.831452
v -5.46773 4.72341 2.935452
v -5.46773 -5.665669 2.935452
v -4.71773 -5.665669 3.383452
v -5.46773 4.72341 2.935452
v -4.71773 -5.665669 3.383452
v -3.96773 5.29341 3.831452
v -6.51273 1.07241 2.902452
v -4.22773 1.07641 4.266452
v -4.22773 -5.665669 4.266452
v -6.51273 -5.665669 2.902452
v -9.64473 1.07241 8.152452
v -6.51273 1.07241 2.902452
v -6.51273 -5.665669 2.902452
v -9.64473 -5.665669 8.152452
v -9.64473 -5.665669 8.152452
v -6.97073 -5.665669 9.898452
v -6.97073 1.07241 9.898452
v -9.64473 1.07241 8.152452
v -6.97073 -5.665669 9.898452
v -5.63873 -5.665669 7.698452
v -5.63873 1.07241 7.698452
v -6.97073 1.07241 9.898452
v -5.46773 -5.665669 2.935452
v -3.65573 -5.665669 -0.09854834
v -3.95473 -5.665669 -0.2765483
v -2.85173 -5.665669 -2.122548
v 1.75627 -5.665669 -9.839548
v 2.12327 -5.665669 -9.620548
v 3.51427 -5.665669 -10.07055
v 5.25527 -5.665669 -9.031549
v 5.41127 -5.665669 -7.533548
v 7.82127 -5.665669 -6.094548
v -1.78673 -5.665669 9.998451
v -5.63873 -5.665669 7.698452
v -6.97073 -5.665669 9.898452
v -9.64473 -5.665669 8.152452
v -6.51273 -5.665669 2.902452
v -4.22773 -5.665669 4.266452
v -3.96773 -5.665669 3.831452
v -4.71773 -5.665669 3.383452
vt 0.662186 0.134924
vt 0.591558 0.057843
vt 0.677195 0.102247
vt 0.311803 0.235923
vt 0.542843 0.001339
vt 0.591558 0.057843
vt 0.410208 0.252089
vt 0.662186 0.134924
vt 0.669599 0.143528
vt 0.342136 0.271064
vt 0.311803 0.235923
vt 0.410208 0.252089
vt 0.079789 0.318006
vt 0.001919 0.227706
vt 0.170170 0.288482
vt 0.348162 0.278073
vt 0.342136 0.271064
vt 0.410208 0.252089
vt 0.311803 0.235923
vt 0.001919 0.227706
vt 0.542843 0.001339
vt 0.677195 0.102247
vt 0.591558 0.057843
vt 0.642023 0.061429
vt 0.170170 0.288482
vt 0.001919 0.227706
vt 0.209827 0.278587
vt 0.174436 0.293405
vt 0.170170 0.288482
vt 0.195207 0.284712
vt 0.209827 0.278587
vt 0.001919 0.227706
vt 0.311803 0.235923
vt 0.170170 0.288482
vt 0.209827 0.278587
vt 0.195207 0.284712
vt 0.410208 0.252089
vt 0.311803 0.235923
vt 0.591558 0.057843
vt 0.085036 0.324101
vt 0.079789 0.318006
vt 0.170170 0.288482
vt 0.410208 0.252089
vt 0.591558 0.057843
vt 0.662186 0.134924
vt 0.607770 0.793076
vt 0.632951 0.782556
vt 0.641398 0.791535
vt 0.616222 0.802055
vt 0.582589 0.803596
vt 0.607770 0.793076
vt 0.616222 0.802055
vt 0.591045 0.812575
vt 0.616222 0.802055
vt 0.641398 0.791535
vt 0.649842 0.800511
vt 0.624670 0.811031
vt 0.591045 0.812575
vt 0.616222 0.802055
vt 0.624670 0.811031
vt 0.599498 0.821550
vt 0.641398 0.791535
vt 0.632951 0.782556
vt 0.649687 0.763052
vt 0.683451 0.798965
vt 0.641398 0.791535
vt 0.649687 0.763052
vt 0.607770 0.793076
vt 0.649687 0.763052
vt 0.632951 0.782556
vt 0.548944 0.805136
vt 0.607770 0.793076
vt 0.582589 0.803596
vt 0.548944 0.805136
vt 0.649687 0.763052
vt 0.607770 0.793076
vt 0.591045 0.812575
vt 0.548944 0.805136
vt 0.582589 0.803596
vt 0.624670 0.811031
vt 0.649842 0.800511
vt 0.683451 0.798965
vt 0.649842 0.800511
vt 0.641398 0.791535
vt 0.683451 0.798965
vt 0.582781 0.841040
vt 0.624670 0.811031
vt 0.683451 0.798965
vt 0.582781 0.841040
vt 0.591045 0.812575
vt 0.599498 0.821550
vt 0.582781 0.841040
vt 0.599498 0.821550
vt 0.624670 0.811031
vt 0.582781 0.841040
vt 0.548944 0.805136
vt 0.591045 0.812575
vt 0.633958 0.652626
vt 0.479421 0.638630
vt 0.567786 0.608323
vt 0.479421 0.638630
vt 0.563569 0.603463
vt 0.567786 0.608323
vt 0.459551 0.725468
vt 0.479421 0.638630
vt 0.633958 0.652626
vt 0.633958 0.652626
vt 0.567786 0.608323
vt 0.588289 0.599732
vt 0.459551 0.725468
vt 0.401152 0.663590
vt 0.479421 0.638630
vt 0.401152 0.663590
vt 0.474234 0.632612
vt 0.479421 0.638630
vt 0.036938 0.908207
vt 0.137840 0.866131
vt 0.143261 0.867937
vt 0.042462 0.909970
vt 0.022472 0.914247
vt 0.042462 0.909970
vt 0.056765 0.925128
vt 0.056765 0.925128
vt 0.116366 0.933565
vt 0.102111 0.939517
vt 0.022472 0.914247
vt 0.036938 0.908207
vt 0.042462 0.909970
vt 0.056765 0.925128
vt 0.042462 0.909970
vt 0.116366 0.933565
vt 0.001919 0.922820
vt 0.022472 0.914247
vt 0.056765 0.925128
vt 0.036369 0.933656
vt 0.621337 0.942436
vt 0.625400 0.946923
vt 0.543436 0.956719
vt 0.539347 0.952204
vt 0.416507 0.977181
vt 0.500527 0.942436
vt 0.534914 0.953184
vt 0.451423 0.987710
vt 0.721828 0.607457
vt 0.726902 0.613446
vt 0.644261 0.623831
vt 0.639155 0.617804
vt 0.836043 0.599732
vt 0.910701 0.687733
vt 0.720021 0.713125
vt 0.726902 0.613446
vt 0.644261 0.623831
vt 0.726902 0.613446
vt 0.720021 0.713125
vt 0.732113 0.377090
vt 0.201579 0.596121
vt 0.001919 0.550237
vt 0.540250 0.327979
vt 0.046943 0.863067
vt 0.001919 0.806755
vt 0.075189 0.763052
vt 0.119561 0.818551
vt 0.338925 0.990896
vt 0.289827 0.986359
vt 0.362481 0.942436
vt 0.410869 0.946907
vt 0.381769 0.848121
vt 0.349328 0.807535
vt 0.421092 0.763052
vt 0.453062 0.803053
vt 0.527831 0.898230
vt 0.542563 0.866131
vt 0.614651 0.893923
vt 0.600134 0.925552
vt 0.214090 0.996053
vt 0.207294 0.987571
vt 0.278385 0.942436
vt 0.285083 0.950796
vt 0.063842 0.707841
vt 0.322713 0.599732
vt 0.396122 0.627305
vt 0.141032 0.733833
vt 0.001919 0.733717
vt 0.063842 0.707841
vt 0.141032 0.733833
vt 0.080014 0.759331
vt 0.147793 0.890573
vt 0.176767 0.894539
vt 0.153642 0.897448
vt 0.342935 0.866131
vt 0.348699 0.872907
vt 0.176767 0.894539
vt 0.147793 0.890573
vt 0.153642 0.897448
vt 0.196618 0.930175
vt 0.183084 0.931916
vt 0.153642 0.897448
vt 0.176767 0.894539
vt 0.196618 0.930175
vt 0.353167 0.908047
vt 0.454120 0.866131
vt 0.522598 0.888520
vt 0.422947 0.929894
vt 0.187072 0.959378
vt 0.201579 0.976320
vt 0.021841 0.998996
vt 0.001919 0.963479
vt 0.172565 0.942436
vt 0.187072 0.959378
vt 0.001919 0.963479
vt 0.187072 0.959378
vt 0.021841 0.998996
vt 0.500920 0.842927
vt 0.458733 0.790067
vt 0.503082 0.763052
vt 0.544892 0.815491
vt 0.124760 0.835554
vt 0.299081 0.763052
vt 0.344234 0.777031
vt 0.171371 0.848926
vt 0.797578 0.763052
vt 0.854042 0.823804
vt 0.745997 0.837187
vt 0.689059 0.775927
vt 0.800892 0.894575
vt 0.728925 0.924420
vt 0.619962 0.896226
vt 0.692531 0.866131
vt 0.629559 0.942436
vt 0.629559 0.942436
vt 0.629559 0.942436
vt 0.629559 0.942436
vt 0.629559 0.942436
vt 0.629559 0.942436
vt 0.629559 0.942436
vt 0.629559 0.942436
vt 0.629559 0.942436
vt 0.629559 0.942436
vt 0.629559 0.942436
vt 0.629559 0.942436
vt 0.629559 0.942436
vt 0.629559 0.942436
vt 0.629559 0.942436
vt 0.629559 0.942436
vt 0.629559 0.942436
vt 0.629559 0.942436
vn 0 1 0
vn 0 1 0
vn 0 1 0
vn 0 1 0
vn 0 1 0
vn 0 1 0
vn 0 1 0
vn 0 1 0
vn 0 1 0
vn 0 1 0
vn 0 1 0
vn 0 1 0
vn 0 1 0
vn 0 1 0
vn 0 1 0
vn 0 1 0
vn 0 1 0
vn 0 1 0
vn 0 1 0
vn 0 1 0
vn 0 1 0
vn 0 1 0
vn 0 1 0
vn 0 1 0
vn 0 1 0
vn 0 1 0
vn 0 1 0
vn 0 1 0
vn 0 1 0
vn 0 1 0
vn 0 1 0
vn 0 1 0
vn 0 1 0
vn 0 1 0
vn 0 1 0
vn 0 1 0
vn 0 1 0
vn 0 1 0
vn 0 1 0
vn 0 1 0
vn 0 1 0
vn 0 1 0
vn 0 1 0
vn 0 1 0
vn 0 1 0
vn -0.2663591 0.9506671 -0.1590121
vn -0.266369 0.9506615 -0.1590291
vn -0.266379 0.9506559 -0.159046
vn -0.266369 0.9506615 -0.1590291
vn -0.2663295 0.9506783 -0.1589945
vn -0.2663394 0.9506727 -0.1590114
vn -0.2663494 0.9506671 -0.1590283
vn -0.2663394 0.9506727 -0.1590114
vn -0.2663494 0.9506671 -0.1590283
vn -0.2663593 0.9506615 -0.1590452
vn -0.2663693 0.9506559 -0.1590621
vn -0.2663593 0.9506615 -0.1590452
vn -0.2663198 0.9506783 -0.1590106
vn -0.2663298 0.9506727 -0.1590276
vn -0.2663397 0.9506671 -0.1590445
vn -0.2663298 0.9506727 -0.1590276
vn -0.2663983 0.9506559 -0.1590136
vn -0.2663983 0.9506559 -0.1590136
vn -0.2663983 0.9506559 -0.1590136
vn -0.2664086 0.9506447 -0.1590636
vn -0.2664086 0.9506447 -0.1590636
vn -0.2664086 0.9506447 -0.1590636
vn -0.2664182 0.9506446 -0.1590475
vn -0.2664182 0.9506446 -0.1590475
vn -0.2664182 0.9506446 -0.1590475
vn -0.2662999 0.9506896 -0.1589768
vn -0.2662999 0.9506896 -0.1589768
vn -0.2662999 0.9506896 -0.1589768
vn -0.2663687 0.9506671 -0.158996
vn -0.2663687 0.9506671 -0.158996
vn -0.2663687 0.9506671 -0.158996
vn -0.2663391 0.9506783 -0.1589783
vn -0.2663391 0.9506783 -0.1589783
vn -0.2663391 0.9506783 -0.1589783
vn -0.2663989 0.9506447 -0.1590798
vn -0.2663989 0.9506447 -0.1590798
vn -0.2663989 0.9506447 -0.1590798
vn -0.2663596 0.9506559 -0.1590783
vn -0.2663596 0.9506559 -0.1590783
vn -0.2663596 0.9506559 -0.1590783
vn -0.2663301 0.9506671 -0.1590607
vn -0.2663301 0.9506671 -0.1590607
vn -0.2663301 0.9506671 -0.1590607
vn -0.2663005 0.9506783 -0.159043
vn -0.2663005 0.9506783 -0.159043
vn -0.2663005 0.9506783 -0.159043
vn -0.2662806 0.9506896 -0.1590092
vn -0.2662806 0.9506896 -0.1590092
vn -0.2662806 0.9506896 -0.1590092
vn -0.2662902 0.9506896 -0.158993
vn -0.2662902 0.9506896 -0.158993
vn -0.2662902 0.9506896 -0.158993
vn 0 1 0
vn 0 1 0
vn 0 1 0
vn 0 1 0
vn 0 1 0
vn 0 1 0
vn 0 1 0
vn 0 1 0
vn 0 1 0
vn -0.004138915 0.9999834 0.004001091
vn -0.004138915 0.9999834 0.004001091
vn -0.004138915 0.9999834 0.004001091
vn 0 1 0
vn 0 1 0
vn 0 1 0
vn 0 1 0
vn 0 1 0
vn 0 1 0
vn -0.8586644 0 -0.5125383
vn -0.8586644 0 -0.5125383
vn -0.8586644 0 -0.5125383
vn -0.8586644 0 -0.5125383
vn -0.8583623 0 -0.5130441
vn -0.8583623 0 -0.5130441
vn -0.8583623 0 -0.5130441
vn -0.8583623 0 -0.5130441
vn -0.8583623 0 -0.5130441
vn -0.8583623 0 -0.5130441
vn -0.8583623 0 -0.5130441
vn -0.8583623 0 -0.5130441
vn -0.8583623 0 -0.5130441
vn -0.8583623 0 -0.5130441
vn -0.8583623 0 -0.5130441
vn -0.8583623 0 -0.5130441
vn -0.8585942 0 -0.5126558
vn -0.8585942 0 -0.5126558
vn -0.8585942 0 -0.5126558
vn -0.8585942 0 -0.5126558
vn -0.5144957 0 0.8574929
vn -0.5144957 0 0.8574929
vn -0.5144957 0 0.8574929
vn -0.5144957 0 0.8574929
vn -0.8586572 0 -0.5125502
vn -0.8586572 0 -0.5125502
vn -0.8586572 0 -0.5125502
vn -0.8586572 0 -0.5125502
vn -0.5120645 0 0.858947
vn -0.5120645 0 0.858947
vn -0.5120645 0 0.858947
vn -0.5120645 0 0.858947
vn -0.512659 0 0.8585923
vn -0.512659 0 0.8585923
vn -0.512659 0 0.8585923
vn -0.512659 0 0.8585923
vn -0.512659 0 0.8585923
vn -0.512659 0 0.8585923
vn -0.512659 0 0.8585923
vn 0.858616 0 0.5126193
vn 0.858616 0 0.5126193
vn 0.858616 0 0.5126193
vn 0.858616 0 0.5126193
vn 0.5126609 0 -0.8585912
vn 0.5126609 0 -0.8585912
vn 0.5126609 0 -0.8585912
vn 0.5126609 0 -0.8585912
vn 0.9946213 0 -0.1035787
vn 0.9946213 0 -0.1035787
vn 0.9946213 0 -0.1035787
vn 0.9946213 0 -0.1035787
vn 0.5124634 0 -0.8587091
vn 0.5124634 0 -0.8587091
vn 0.5124634 0 -0.8587091
vn 0.5124634 0 -0.8587091
vn -0.3078021 0 -0.9514504
vn -0.3078021 0 -0.9514504
vn -0.3078021 0 -0.9514504
vn -0.3078021 0 -0.9514504
vn 0.5124297 0 -0.8587292
vn 0.5124297 0 -0.8587292
vn 0.5124297 0 -0.8587292
vn 0.5124297 0 -0.8587292
vn -0.8585807 0 -0.5126784
vn -0.8585807 0 -0.5126784
vn -0.8585807 0 -0.5126784
vn -0.8585807 0 -0.5126784
vn -0.8584352 0 -0.512922
vn -0.8584352 0 -0.512922
vn -0.8584352 0 -0.512922
vn -0.8584352 0 -0.512922
vn -0.5115344 0 0.8592628
vn -0.5115344 0 0.8592628
vn -0.5115344 0 0.8592628
vn -0.5115344 0 0.8592628
vn -0.5115344 0 0.8592628
vn -0.5115344 0 0.8592628
vn -0.5115344 0 0.8592628
vn -0.5130635 0 0.8583506
vn -0.5130635 0 0.8583506
vn -0.5130635 0 0.8583506
vn -0.5130635 0 0.8583506
vn -0.5130635 0 0.8583506
vn -0.5130635 0 0.8583506
vn -0.8585398 0 -0.5127469
vn -0.8585398 0 -0.5127469
vn -0.8585398 0 -0.5127469
vn -0.8585398 0 -0.5127469
vn -0.5128114 0 0.8585013
vn -0.5128114 0 0.8585013
vn -0.5128114 0 0.8585013
vn -0.5128114 0 0.8585013
vn -0.5128114 0 0.8585013
vn -0.5128114 0 0.8585013
vn -0.5128114 0 0.8585013
vn -0.5128114 0 0.8585013
vn -0.5128114 0 0.8585013
vn 0.5125603 0 -0.8586512
vn 0.5125603 0 -0.8586512
vn 0.5125603 0 -0.8586512
vn 0.5125603 0 -0.8586512
vn -0.8587892 0 -0.5123291
vn -0.8587892 0 -0.5123291
vn -0.8587892 0 -0.5123291
vn -0.8587892 0 -0.5123291
vn -0.5467262 0 0.8373114
vn -0.5467262 0 0.8373114
vn -0.5467262 0 0.8373114
vn -0.5467262 0 0.8373114
vn 0.8554276 0 0.5179225
vn 0.8554276 0 0.5179225
vn 0.8554276 0 0.5179225
vn 0.8554276 0 0.5179225
vn 0 -1 0
vn 0 -1 0
vn 0 -1 0
vn 0 -1 0
vn 0 -1 0
vn 0 -1 0
vn 0 -1 0
vn 0 -1 0
vn 0 -1 0
vn 0 -1 0
vn 0 -1 0
vn 0 -1 0
vn 0 -1 0
vn 0 -1 0
vn 0 -1 0
vn 0 -1 0
vn 0 -1 0
vn 0 -1 0

g CDNNDG02_0001540
f 1/1/1 2/2/2 3/3/3
f 4/4/4 5/5/5 6/6/6
f 7/7/7 8/8/8 9/9/9
f 10/10/10 11/11/11 12/12/12
f 13/13/13 14/14/14 15/15/15
f 16/16/16 17/17/17 18/18/18
f 19/19/19 20/20/20 21/21/21
f 22/22/22 23/23/23 24/24/24
f 25/25/25 26/26/26 27/27/27
f 28/28/28 29/29/29 30/30/30
f 31/31/31 32/32/32 33/33/33
f 34/34/34 35/35/35 36/36/36
f 37/37/37 38/38/38 39/39/39
f 40/40/40 41/41/41 42/42/42
f 43/43/43 44/44/44 45/45/45
f 46/46/46 47/47/47 49/49/49
f 49/49/49 47/47/47 48/48/48
f 50/50/50 51/51/51 53/53/53
f 53/53/53 51/51/51 52/52/52
f 54/54/54 55/55/55 57/57/57
f 57/57/57 55/55/55 56/56/56
f 58/58/58 59/59/59 61/61/61
f 61/61/61 59/59/59 60/60/60
f 62/62/62 63/63/63 64/64/64
f 65/65/65 66/66/66 67/67/67
f 68/68/68 69/69/69 70/70/70
f 71/71/71 72/72/72 73/73/73
f 74/74/74 75/75/75 76/76/76
f 77/77/77 78/78/78 79/79/79
f 80/80/80 81/81/81 82/82/82
f 83/83/83 84/84/84 85/85/85
f 86/86/86 87/87/87 88/88/88
f 89/89/89 90/90/90 91/91/91
f 92/92/92 93/93/93 94/94/94
f 95/95/95 96/96/96 97/97/97
f 98/98/98 99/99/99 100/100/100
f 101/101/101 102/102/102 103/103/103
f 104/104/104 105/105/105 106/106/106
f 107/107/107 108/108/108 109/109/109
f 110/110/110 111/111/111 112/112/112
f 113/113/113 114/114/114 115/115/115
f 119/119/119 116/116/116 118/118/118
f 118/118/118 116/116/116 117/117/117
f 120/120/120 121/121/121 122/122/122
f 123/123/123 124/124/124 125/125/125
f 126/126/126 127/127/127 128/128/128
f 129/129/129 130/130/130 131/131/131
f 132/132/132 134/134/134 135/135/135
f 132/132/132 133/133/133 134/134/134
f 136/136/136 138/138/138 139/139/139
f 138/138/138 136/136/136 137/137/137
f 143/143/143 140/140/140 142/142/142
f 142/142/142 140/140/140 141/141/141
f 145/145/145 146/146/146 147/147/147
f 147/147/147 144/144/144 145/145/145
f 151/151/151 148/148/148 149/149/149
f 150/150/150 151/151/151 149/149/149
f 152/152/152 153/153/153 154/154/154
f 158/158/158 155/155/155 156/156/156
f 156/156/156 157/157/157 158/158/158
f 161/161/161 159/159/159 160/160/160
f 159/159/159 161/161/161 162/162/162
f 166/166/166 163/163/163 165/165/165
f 165/165/165 163/163/163 164/164/164
f 169/169/169 167/167/167 168/168/168
f 167/167/167 169/169/169 170/170/170
f 172/172/172 173/173/173 171/171/171
f 171/171/171 173/173/173 174/174/174
f 175/175/175 177/177/177 178/178/178
f 175/175/175 176/176/176 177/177/177
f 180/180/180 181/181/181 182/182/182
f 179/179/179 180/180/180 182/182/182
f 183/183/183 185/185/185 186/186/186
f 183/183/183 184/184/184 185/185/185
f 187/187/187 188/188/188 189/189/189
f 192/192/192 193/193/193 190/190/190
f 192/192/192 190/190/190 191/191/191
f 194/194/194 195/195/195 196/196/196
f 197/197/197 198/198/198 199/199/199
f 200/200/200 201/201/201 202/202/202
f 203/203/203 200/200/200 202/202/202
f 204/204/204 205/205/205 206/206/206
f 207/207/207 208/208/208 209/209/209
f 210/210/210 211/211/211 212/212/212
f 213/213/213 215/215/215 216/216/216
f 213/213/213 214/214/214 215/215/215
f 217/217/217 219/219/219 220/220/220
f 217/217/217 218/218/218 219/219/219
f 224/224/224 221/221/221 223/223/223
f 223/223/223 221/221/221 222/222/222
f 225/225/225 227/227/227 228/228/228
f 225/225/225 226/226/226 227/227/227
f 246/246/246 229/229/229 230/230/230
f 234/234/234 235/235/235 237/237/237
f 234/234/234 237/237/237 232/232/232
f 231/231/231 232/232/232 230/230/230
f 232/232/232 233/233/233 234/234/234
f 245/245/245 238/238/238 239/239/239
f 237/237/237 235/235/235 236/236/236
f 238/238/238 232/232/232 237/237/237
f 245/245/245 230/230/230 238/238/238
f 230/230/230 232/232/232 238/238/238
f 244/244/244 239/239/239 240/240/240
f 244/244/244 245/245/245 239/239/239
f 242/242/242 243/243/243 240/240/240
f 245/245/245 246/246/246 230/230/230
f 240/240/240 243/243/243 244/244/244
f 240/240/240 241/241/241 242/242/242
