v -7.280749 5.806913 7.466188
v -2.53375 5.806913 10.47219
v -3.05975 5.806913 2.880188
v 1.295251 5.806913 -9.095812
v 1.323766 5.806913 -9.144354
v 1.30725 5.806913 -9.154812
v 0.6072505 5.806913 -9.023811
v 1.295251 5.806913 -9.095812
v 0.8372505 5.806913 -9.386812
v 1.295251 5.806913 -9.095812
v 1.498623 5.806913 -9.033633
v 1.323766 5.806913 -9.144354
v 0.6072505 5.806913 -9.023811
v 1.498623 5.806913 -9.033633
v 1.295251 5.806913 -9.095812
v 0.6072505 5.806913 -9.023811
v 1.870606 5.806913 -8.798091
v 1.498623 5.806913 -9.033633
v -4.490749 5.806913 -0.9738117
v -2.60875 5.806913 0.2181882
v 0.6072505 5.806913 -9.023811
v -2.60875 5.806913 0.2181882
v 3.604281 5.806913 -7.700553
v 0.6072505 5.806913 -9.023811
v -2.60875 5.806913 0.2181882
v 3.883534 5.806913 -7.523798
v 3.604281 5.806913 -7.700553
v 0.6072505 5.806913 -9.023811
v 2.632251 5.806913 -8.315812
v 1.870606 5.806913 -8.798091
v 0.6072505 5.806913 -9.023811
v 3.604281 5.806913 -7.700553
v 2.632251 5.806913 -8.315812
v -2.60875 5.806913 0.2181882
v -2.249749 5.806913 1.601188
v 6.382949 5.806913 -5.46093
v -2.249749 5.806913 1.601188
v 6.435572 5.806913 -5.427595
v 6.382949 5.806913 -5.46093
v -7.280749 5.806913 7.466188
v -3.05975 5.806913 2.880188
v -3.999749 5.806913 2.284188
v -3.05975 5.806913 2.880188
v -2.53375 5.806913 10.47219
v -2.249749 5.806913 1.601188
v -2.60875 5.806913 0.2181882
v 3.888278 5.806913 -7.520794
v 3.883534 5.806913 -7.523798
v -2.60875 5.806913 0.2181882
v 4.245251 5.806913 -7.354812
v 3.888278 5.806913 -7.520794
v 3.888278 5.806913 -7.520794
v 4.245251 5.806913 -7.354812
v 3.91625 5.806913 -7.562812
v -2.53375 5.806913 10.47219
v 7.464251 5.806913 -5.316812
v -2.249749 5.806913 1.601188
v -2.60875 5.806913 0.2181882
v 5.117761 5.806913 -6.262418
v 4.00125 5.806913 -6.969812
v -2.60875 5.806913 0.2181882
v 4.00125 5.806913 -6.969812
v 4.245251 5.806913 -7.354812
v -2.249749 5.806913 1.601188
v 6.56625 5.806913 -5.344812
v 6.435572 5.806913 -5.427595
v -2.249749 5.806913 1.601188
v 7.464251 5.806913 -5.316812
v 6.56625 5.806913 -5.344812
v 6.56625 5.806913 -5.344812
v 7.464251 5.806913 -5.316812
v 6.81025 5.806913 -5.730812
v -2.60875 5.806913 0.2181882
v 6.382949 5.806913 -5.46093
v 5.240251 5.806913 -6.184812
v -2.60875 5.806913 0.2181882
v 5.240251 5.806913 -6.184812
v 5.117761 5.806913 -6.262418
v 2.632251 6.182913 -8.315812
v 3.91625 5.806913 -7.562812
v 2.829251 6.182913 -8.626812
v 2.829251 6.182913 -8.626812
v 3.91625 5.806913 -7.562812
v 4.08525 5.806913 -7.830812
v 2.632251 6.182913 -8.315812
v 3.888278 5.807045 -7.520794
v 3.91625 5.806913 -7.562812
v 1.30725 5.806913 -9.154812
v 2.632251 6.182913 -8.315812
v 1.51025 5.806913 -9.461812
v 1.51025 5.806913 -9.461812
v 2.632251 6.182913 -8.315812
v 2.829251 6.182913 -8.626812
v 5.240251 6.480913 -6.184812
v 6.81025 5.806913 -5.730812
v 5.484251 6.480913 -6.569812
v 5.240251 6.480913 -6.184812
v 6.56625 5.806913 -5.344812
v 6.81025 5.806913 -5.730812
v 4.00125 5.806913 -6.969812
v 5.240251 6.480913 -6.184812
v 5.484251 6.480913 -6.569812
v 4.245251 5.806913 -7.354812
v 0.6072505 5.806913 -9.023811
v 0.8372505 5.806913 -9.386812
v 0.8372505 -5.812495 -9.386812
v 0.6072505 -5.812495 -9.023811
v -4.490749 5.806913 -0.9738117
v 0.6072505 5.806913 -9.023811
v 0.6072505 -5.812495 -9.023811
v -4.490749 -5.812495 -0.9738117
v -4.490749 -5.812495 -0.9738117
v -2.60875 -5.812495 0.2181882
v -2.60875 5.806913 0.2181882
v -4.490749 5.806913 -0.9738117
v -2.60875 -5.812495 0.2181882
v -2.249749 -5.812495 1.601188
v -2.249749 5.806913 1.601188
v -2.60875 5.806913 0.2181882
v -3.05975 5.806913 2.880188
v -2.249749 5.806913 1.601188
v -2.249749 -5.812495 1.601188
v -3.05975 -5.812495 2.880188
v -3.999749 5.806913 2.284188
v -3.52975 -5.812495 2.582188
v -3.999749 -5.812495 2.284188
v -3.52975 -5.812495 2.582188
v -3.05975 5.806913 2.880188
v -3.05975 -5.812495 2.880188
v -3.999749 5.806913 2.284188
v -3.05975 5.806913 2.880188
v -3.52975 -5.812495 2.582188
v -7.280749 5.806913 7.466188
v -3.999749 5.806913 2.284188
v -3.999749 -5.812495 2.284188
v -7.280749 -5.812495 7.466188
v -4.907249 -5.812495 8.969189
v -2.53375 -5.812495 10.47219
v -2.53375 5.806913 10.47219
v -7.280749 5.806913 7.466188
v -7.280749 -5.812495 7.466188
v -4.907249 -5.812495 8.969189
v -7.280749 5.806913 7.466188
v -4.907249 -5.812495 8.969189
v -2.53375 5.806913 10.47219
v -2.53375 -5.812495 10.47219
v 7.464251 -5.812495 -5.316812
v 7.464251 5.806913 -5.316812
v -2.53375 5.806913 10.47219
v 6.81025 5.806913 -5.730812
v 7.13725 -5.812495 -5.523812
v 6.81025 -5.812495 -5.730812
v 7.13725 -5.812495 -5.523812
v 7.464251 5.806913 -5.316812
v 7.464251 -5.812495 -5.316812
v 6.81025 5.806913 -5.730812
v 7.464251 5.806913 -5.316812
v 7.13725 -5.812495 -5.523812
v 5.484251 5.806913 -6.569812
v 6.81025 5.806913 -5.730812
v 6.81025 -5.812495 -5.730812
v 5.484251 -5.812495 -6.569812
v 4.245251 5.806913 -7.354812
v 5.484251 5.806913 -6.569812
v 5.484251 -5.812495 -6.569812
v 4.245251 -5.812495 -7.354812
v 3.91625 5.806913 -7.562812
v 4.245251 5.806913 -7.354812
v 4.245251 -5.812495 -7.354812
v 3.91625 -5.812495 -7.562812
v 5.484251 6.480913 -6.569812
v 6.81025 5.806913 -5.730812
v 5.484251 5.806913 -6.569812
v 4.245251 5.806913 -7.354812
v 5.484251 6.480913 -6.569812
v 5.484251 5.806913 -6.569812
v 3.91625 -5.812495 -7.562812
v 4.08525 -5.812495 -7.830812
v 4.08525 5.806913 -7.830812
v 3.91625 5.806913 -7.562812
v 2.829251 5.806913 -8.626812
v 3.457251 -5.812495 -8.228812
v 2.829251 -5.812495 -8.626812
v 3.457251 -5.812495 -8.228812
v 4.08525 5.806913 -7.830812
v 4.08525 -5.812495 -7.830812
v 2.829251 5.806913 -8.626812
v 4.08525 5.806913 -7.830812
v 3.457251 -5.812495 -8.228812
v 1.51025 5.806913 -9.461812
v 2.829251 5.806913 -8.626812
v 2.829251 -5.812495 -8.626812
v 1.51025 -5.812495 -9.461812
v 2.829251 6.182913 -8.626812
v 4.08525 5.806913 -7.830812
v 2.829251 5.806913 -8.626812
v 1.51025 5.806913 -9.461812
v 2.829251 6.182913 -8.626812
v 2.829251 5.806913 -8.626812
v 1.30725 5.806913 -9.154812
v 1.51025 5.806913 -9.461812
v 1.51025 -5.812495 -9.461812
v 1.30725 -5.812495 -9.154812
v 1.295251 5.806913 -9.095812
v 1.30725 5.806913 -9.154812
v 1.30725 -5.812495 -9.154812
v 1.295251 -5.812495 -9.095812
v 0.8372505 5.806913 -9.386812
v 1.295251 5.806913 -9.095812
v 1.295251 -5.812495 -9.095812
v 0.8372505 -5.812495 -9.386812
v 3.883534 5.806913 -7.523798
v 3.888278 5.806913 -7.520794
v 3.888278 5.807045 -7.520794
v 2.632251 6.182913 -8.315812
v 3.883534 5.806913 -7.523798
v 3.888278 5.807045 -7.520794
v 2.632251 6.182913 -8.315812
v 2.632251 5.806913 -8.315812
v 3.604281 5.806913 -7.700553
v 2.632251 6.182913 -8.315812
v 3.604281 5.806913 -7.700553
v 3.883534 5.806913 -7.523798
v 1.870606 5.806913 -8.798091
v 2.632251 5.806913 -8.315812
v 2.632251 6.182913 -8.315812
v 1.498623 5.806913 -9.033633
v 1.870606 5.806913 -8.798091
v 2.632251 6.182913 -8.315812
v 1.323766 5.806913 -9.144354
v 1.498623 5.806913 -9.033633
v 2.632251 6.182913 -8.315812
v 1.30725 5.806913 -9.154812
v 1.323766 5.806913 -9.144354
v 2.632251 6.182913 -8.315812
v 3.888278 5.807045 -7.520794
v 3.888278 5.806913 -7.520794
v 3.91625 5.806913 -7.562812
v 5.240251 6.480913 -6.184812
v 6.435572 5.806913 -5.427595
v 6.56625 5.806913 -5.344812
v 5.240251 6.480913 -6.184812
v 5.240251 5.806913 -6.184812
v 6.382949 5.806913 -5.46093
v 5.240251 6.480913 -6.184812
v 6.382949 5.806913 -5.46093
v 6.435572 5.806913 -5.427595
v 5.117761 5.806913 -6.262418
v 5.240251 5.806913 -6.184812
v 5.240251 6.480913 -6.184812
v 4.00125 5.806913 -6.969812
v 5.117761 5.806913 -6.262418
v 5.240251 6.480913 -6.184812
v 0.8372505 -5.812495 -9.386812
v 1.295251 -5.812495 -9.095812
v 1.30725 -5.812495 -9.154812
v 1.51025 -5.812495 -9.461812
v 2.829251 -5.812495 -8.626812
v 3.457251 -5.812495 -8.228812
v 4.08525 -5.812495 -7.830812
v 3.91625 -5.812495 -7.562812
v 4.245251 -5.812495 -7.354812
v 5.484251 -5.812495 -6.569812
v 6.81025 -5.812495 -5.730812
v 7.13725 -5.812495 -5.523812
v 7.464251 -5.812495 -5.316812
v -2.53375 -5.812495 10.47219
v -4.907249 -5.812495 8.969189
v -7.280749 -5.812495 7.466188
v -3.999749 -5.812495 2.284188
v -3.52975 -5.812495 2.582188
v -3.05975 -5.812495 2.880188
v -2.249749 -5.812495 1.601188
v -2.60875 -5.812495 0.2181882
v -4.490749 -5.812495 -0.9738117
v 0.6072505 -5.812495 -9.023811
vt 0.106795 0.374815
vt 0.002101 0.249172
vt 0.278687 0.268665
vt 0.720508 0.164698
vt 0.722310 0.163995
vt 0.722674 0.164432
vt 0.717146 0.182520
vt 0.720508 0.164698
vt 0.730643 0.176822
vt 0.720508 0.164698
vt 0.718455 0.159366
vt 0.722310 0.163995
vt 0.717146 0.182520
vt 0.718455 0.159366
vt 0.720508 0.164698
vt 0.717146 0.182520
vt 0.710253 0.149520
vt 0.718455 0.159366
vt 0.417854 0.308803
vt 0.376342 0.258989
vt 0.717146 0.182520
vt 0.376342 0.258989
vt 0.672033 0.103629
vt 0.717146 0.182520
vt 0.376342 0.258989
vt 0.665878 0.096237
vt 0.672033 0.103629
vt 0.717146 0.182520
vt 0.693458 0.129359
vt 0.710253 0.149520
vt 0.717146 0.182520
vt 0.672033 0.103629
vt 0.693458 0.129359
vt 0.376342 0.258989
vt 0.326238 0.248600
vt 0.593232 0.029706
vt 0.326238 0.248600
vt 0.592071 0.028313
vt 0.593232 0.029706
vt 0.106795 0.374815
vt 0.278687 0.268665
vt 0.299445 0.293545
vt 0.278687 0.268665
vt 0.002101 0.249172
vt 0.326238 0.248600
vt 0.376342 0.258989
vt 0.665774 0.096112
vt 0.665878 0.096237
vt 0.376342 0.258989
vt 0.660094 0.086708
vt 0.665774 0.096112
vt 0.665774 0.096112
vt 0.660094 0.086708
vt 0.667337 0.095417
vt 0.002101 0.249172
vt 0.589122 0.001497
vt 0.326238 0.248600
vt 0.376342 0.258989
vt 0.621144 0.063198
vt 0.645780 0.092753
vt 0.376342 0.258989
vt 0.645780 0.092753
vt 0.660094 0.086708
vt 0.326238 0.248600
vt 0.589188 0.024854
vt 0.592071 0.028313
vt 0.326238 0.248600
vt 0.589122 0.001497
vt 0.589188 0.024854
vt 0.589188 0.024854
vt 0.589122 0.001497
vt 0.603540 0.018810
vt 0.376342 0.258989
vt 0.593232 0.029706
vt 0.618442 0.059955
vt 0.376342 0.258989
vt 0.618442 0.059955
vt 0.621144 0.063198
vt 0.369841 0.955590
vt 0.346016 0.920185
vt 0.380774 0.950904
vt 0.380774 0.950904
vt 0.346016 0.920185
vt 0.355432 0.916168
vt 0.369841 0.955590
vt 0.344538 0.920852
vt 0.346016 0.920185
vt 0.328946 0.957495
vt 0.298319 0.921216
vt 0.339758 0.952297
vt 0.339758 0.952297
vt 0.298319 0.921216
vt 0.309278 0.916168
vt 0.232042 0.960783
vt 0.219483 0.916168
vt 0.245620 0.954955
vt 0.232042 0.960783
vt 0.205882 0.921989
vt 0.219483 0.916168
vt 0.279572 0.958610
vt 0.250000 0.922430
vt 0.263603 0.916168
vt 0.293163 0.952353
vt 0.913503 0.384802
vt 0.926845 0.378743
vt 0.955306 0.456677
vt 0.942158 0.462649
vt 0.617647 0.519104
vt 0.913503 0.384802
vt 0.942158 0.462649
vt 0.650580 0.595005
vt 0.651000 0.837190
vt 0.608496 0.788811
vt 0.575630 0.712575
vt 0.618759 0.761664
vt 0.954812 0.797634
vt 0.905527 0.788523
vt 0.871849 0.712575
vt 0.921857 0.721820
vt 0.747899 0.733735
vt 0.793983 0.712575
vt 0.827618 0.788684
vt 0.782201 0.809538
vt 0.675295 0.825027
vt 0.695578 0.724649
vt 0.705353 0.736723
vt 0.695578 0.724649
vt 0.655462 0.800531
vt 0.685803 0.712575
vt 0.675295 0.825027
vt 0.655462 0.800531
vt 0.695578 0.724649
vt 0.262605 0.798802
vt 0.452449 0.712575
vt 0.487010 0.788482
vt 0.299911 0.873460
vt 0.095150 0.850448
vt 0.040828 0.789167
vt 0.002101 0.712575
vt 0.112340 0.836937
vt 0.149471 0.911728
vt 0.095150 0.850448
vt 0.112340 0.836937
vt 0.095150 0.850448
vt 0.002101 0.712575
vt 0.037505 0.620649
vt 0.612781 0.378743
vt 0.585675 0.463692
vt 0.002101 0.709084
vt 0.169524 0.814322
vt 0.189048 0.721016
vt 0.195979 0.729456
vt 0.189048 0.721016
vt 0.155462 0.797198
vt 0.182117 0.712575
vt 0.169524 0.814322
vt 0.155462 0.797198
vt 0.189048 0.721016
vt 0.198020 0.849042
vt 0.169524 0.814322
vt 0.195979 0.729456
vt 0.224070 0.763683
vt 0.224684 0.881484
vt 0.198020 0.849042
vt 0.224070 0.763683
vt 0.250354 0.795664
vt 0.231748 0.890098
vt 0.224684 0.881484
vt 0.250354 0.795664
vt 0.257318 0.804156
vt 0.196486 0.854069
vt 0.169524 0.814322
vt 0.198020 0.849042
vt 0.224684 0.881484
vt 0.196486 0.854069
vt 0.198020 0.849042
vt 0.856575 0.716614
vt 0.865828 0.712575
vt 0.841320 0.797760
vt 0.831933 0.801858
vt 0.518478 0.831192
vt 0.530131 0.728764
vt 0.543381 0.744953
vt 0.530131 0.728764
vt 0.491597 0.798347
vt 0.516882 0.712575
vt 0.518478 0.831192
vt 0.491597 0.798347
vt 0.530131 0.728764
vt 0.546675 0.865682
vt 0.518478 0.831192
vt 0.543381 0.744953
vt 0.571176 0.778953
vt 0.517660 0.834024
vt 0.491597 0.798347
vt 0.518478 0.831192
vt 0.546675 0.865682
vt 0.517660 0.834024
vt 0.518478 0.831192
vt 0.002101 0.921457
vt 0.012886 0.916168
vt 0.040055 0.993516
vt 0.029426 0.998729
vt 0.046218 0.916482
vt 0.048257 0.916168
vt 0.075103 0.993335
vt 0.073094 0.993645
vt 0.719578 0.810826
vt 0.710084 0.798913
vt 0.733932 0.712575
vt 0.743291 0.724318
vt 0.142965 0.916291
vt 0.142857 0.916169
vt 0.142857 0.916168
vt 0.170475 0.946059
vt 0.142965 0.916291
vt 0.142857 0.916168
vt 0.170475 0.946059
vt 0.171401 0.948603
vt 0.149311 0.923502
vt 0.170475 0.946059
vt 0.149311 0.923502
vt 0.142965 0.916291
vt 0.188717 0.968270
vt 0.171401 0.948603
vt 0.170475 0.946059
vt 0.197173 0.977876
vt 0.188717 0.968270
vt 0.170475 0.946059
vt 0.201148 0.982391
vt 0.197173 0.977876
vt 0.170475 0.946059
vt 0.201524 0.982817
vt 0.201148 0.982391
vt 0.170475 0.946059
vt 0.397059 0.916168
vt 0.397059 0.916168
vt 0.397059 0.916168
vt 0.108265 0.945791
vt 0.082804 0.919542
vt 0.079832 0.916168
vt 0.108265 0.945791
vt 0.109992 0.950410
vt 0.084001 0.920901
vt 0.108265 0.945791
vt 0.084001 0.920901
vt 0.082804 0.919542
vt 0.112778 0.953573
vt 0.109992 0.950410
vt 0.108265 0.945791
vt 0.138177 0.982405
vt 0.112778 0.953573
vt 0.108265 0.945791
vt 0.386555 0.916168
vt 0.386555 0.916168
vt 0.386555 0.916168
vt 0.386555 0.916168
vt 0.386555 0.916168
vt 0.386555 0.916168
vt 0.386555 0.916168
vt 0.386555 0.916168
vt 0.386555 0.916168
vt 0.386555 0.916168
vt 0.386555 0.916168
vt 0.386555 0.916168
vt 0.386555 0.916168
vt 0.386555 0.916168
vt 0.386555 0.916168
vt 0.386555 0.916168
vt 0.386555 0.916168
vt 0.386555 0.916168
vt 0.386555 0.916168
vt 0.386555 0.916168
vt 0.386555 0.916168
vt 0.386555 0.916168
vt 0.386555 0.916168
vn 0 1 0
vn 0 1 0
vn 0 1 0
vn 0 1 0
vn 0 1 0
vn 0 1 0
vn 0 1 0
vn 0 1 0
vn 0 1 0
vn 0 1 0
vn 0 1 0
vn 0 1 0
vn 0 1 0
vn 0 1 0
vn 0 1 0
vn 0 1 0
vn 0 1 0
vn 0 1 0
vn 0 1 0
vn 0 1 0
vn 0 1 0
vn 0 1 0
vn 0 1 0
vn 0 1 0
vn 0 1 0
vn 0 1 0
vn 0 1 0
vn 0 1 0
vn 0 1 0
vn 0 1 0
vn 0 1 0
vn 0 1 0
vn 0 1 0
vn 0 1 0
vn 0 1 0
vn 0 1 0
vn 0 1 0
vn 0 1 0
vn 0 1 0
vn 0 1 0
vn 0 1 0
vn 0 1 0
vn 0 1 0
vn 0 1 0
vn 0 1 0
vn 0 1 0
vn 0 1 0
vn 0 1 0
vn 0 1 0
vn 0 1 0
vn 0 1 0
vn 0 1 0
vn 0 1 0
vn 0 1 0
vn 0 1 0
vn 0 1 0
vn 0 1 0
vn 0 1 0
vn 0 1 0
vn 0 1 0
vn 0 1 0
vn 0 1 0
vn 0 1 0
vn 0 1 0
vn 0 1 0
vn 0 1 0
vn 0 1 0
vn 0 1 0
vn 0 1 0
vn 0 1 0
vn 0 1 0
vn 0 1 0
vn 0 1 0
vn 0 1 0
vn 0 1 0
vn 0 1 0
vn 0 1 0
vn 0 1 0
vn 0.2070077 0.969512 0.131127
vn 0.2070077 0.969512 0.131127
vn 0.2070077 0.969512 0.131127
vn 0.2073585 0.9694867 0.1307597
vn 0.2073585 0.9694867 0.1307597
vn 0.2073585 0.9694867 0.1307597
vn 0.205463 0.9694828 0.1337464
vn 0.205463 0.9694828 0.1337464
vn 0.205463 0.9694828 0.1337464
vn -0.1945093 0.9724319 -0.1286169
vn -0.1945093 0.9724319 -0.1286169
vn -0.1945093 0.9724319 -0.1286169
vn -0.1978147 0.9721977 -0.1253038
vn -0.1978147 0.9721977 -0.1253038
vn -0.1978147 0.9721977 -0.1253038
vn 0.3333571 0.9188241 0.2112705
vn 0.3333571 0.9188241 0.2112705
vn 0.3333571 0.9188241 0.2112705
vn 0.3335086 0.9188729 0.2108189
vn 0.3335086 0.9188729 0.2108189
vn 0.3335086 0.9188729 0.2108189
vn -0.3526817 0.9086558 -0.2235177
vn -0.3526817 0.9086558 -0.2235177
vn -0.3526817 0.9086558 -0.2235177
vn -0.3526817 0.9086558 -0.2235177
vn -0.8447139 0 -0.5352182
vn -0.8447139 0 -0.5352182
vn -0.8447139 0 -0.5352182
vn -0.8447139 0 -0.5352182
vn -0.8448349 0 -0.5350271
vn -0.8448349 0 -0.5350271
vn -0.8448349 0 -0.5350271
vn -0.8448349 0 -0.5350271
vn -0.5350735 0 0.8448055
vn -0.5350735 0 0.8448055
vn -0.5350735 0 0.8448055
vn -0.5350735 0 0.8448055
vn -0.9679213 0 0.2512536
vn -0.9679213 0 0.2512536
vn -0.9679213 0 0.2512536
vn -0.9679213 0 0.2512536
vn -0.844829 0 -0.5350364
vn -0.844829 0 -0.5350364
vn -0.844829 0 -0.5350364
vn -0.844829 0 -0.5350364
vn 0.5354795 0 -0.8445482
vn 0.5354795 0 -0.8445482
vn 0.5354795 0 -0.8445482
vn 0.5354795 0 -0.8445482
vn 0.5354795 0 -0.8445482
vn 0.5354795 0 -0.8445482
vn 0.5354795 3.51875E-11 -0.8445482
vn 0.5354795 3.51875E-11 -0.8445482
vn 0.5354795 3.51875E-11 -0.8445482
vn -0.8448879 0 -0.5349435
vn -0.8448879 0 -0.5349435
vn -0.8448879 0 -0.5349435
vn -0.8448879 0 -0.5349435
vn -0.534997 0 0.8448539
vn -0.534997 0 0.8448539
vn -0.534997 0 0.8448539
vn -0.534997 0 0.8448539
vn -0.534997 0 0.8448539
vn -0.534997 0 0.8448539
vn -0.534997 -3.519853E-11 0.8448539
vn -0.534997 -3.519853E-11 0.8448539
vn -0.534997 -3.519853E-11 0.8448539
vn 0.8448602 0 0.5349872
vn 0.8448602 0 0.5349872
vn 0.8448602 0 0.5349872
vn 0.8448602 0 0.5349872
vn 0.5348676 0 -0.8449358
vn 0.5348676 0 -0.8449358
vn 0.5348676 0 -0.8449358
vn 0.5348676 0 -0.8449358
vn 0.5348676 0 -0.8449358
vn 0.5348676 0 -0.8449358
vn 0.5348676 3.386178E-11 -0.8449358
vn 0.5348676 3.386178E-11 -0.8449358
vn 0.5348676 3.386178E-11 -0.8449358
vn 0.5346882 0 -0.8450494
vn 0.5346882 0 -0.8450494
vn 0.5346882 0 -0.8450494
vn 0.5346882 0 -0.8450494
vn 0.535198 0 -0.8447266
vn 0.535198 0 -0.8447266
vn 0.535198 0 -0.8447266
vn 0.535198 0 -0.8447266
vn 0.5343796 0 -0.8452446
vn 0.5343796 0 -0.8452446
vn 0.5343796 0 -0.8452446
vn 0.5343796 0 -0.8452446
vn 0.5346882 0 -0.8450494
vn 0.5346882 0 -0.8450494
vn 0.5346882 0 -0.8450494
vn 0.535198 0 -0.8447266
vn 0.535198 0 -0.8447266
vn 0.535198 0 -0.8447266
vn 0.8458637 0 0.5333991
vn 0.8458637 0 0.5333991
vn 0.8458637 0 0.5333991
vn 0.8458637 0 0.5333991
vn 0.5353081 0 -0.8446569
vn 0.5353081 0 -0.8446569
vn 0.5353081 0 -0.8446569
vn 0.5353081 0 -0.8446569
vn 0.5353081 0 -0.8446569
vn 0.5353081 0 -0.8446569
vn 0.5353081 -1.340817E-12 -0.8446569
vn 0.5353081 -1.340817E-12 -0.8446569
vn 0.5353081 -1.340817E-12 -0.8446569
vn 0.5348845 0 -0.8449252
vn 0.5348845 0 -0.8449252
vn 0.5348845 0 -0.8449252
vn 0.5348845 0 -0.8449252
vn 0.5353081 0 -0.8446569
vn 0.5353081 0 -0.8446569
vn 0.5353081 0 -0.8446569
vn 0.5348845 0 -0.8449252
vn 0.5348845 0 -0.8449252
vn 0.5348845 0 -0.8449252
vn -0.8341344 0 -0.5515612
vn -0.8341344 0 -0.5515612
vn -0.8341344 0 -0.5515612
vn -0.8341344 0 -0.5515612
vn -0.9799367 0 -0.1993092
vn -0.9799367 0 -0.1993092
vn -0.9799367 0 -0.1993092
vn -0.9799367 0 -0.1993092
vn 0.5362791 0 -0.8440407
vn 0.5362791 0 -0.8440407
vn 0.5362791 0 -0.8440407
vn 0.5362791 0 -0.8440407
vn -0.5348291 0 0.8449603
vn -0.5348291 0 0.8449603
vn -0.5348291 0 0.8449603
vn -0.534829 -4.645821E-06 0.8449603
vn -0.534829 -4.645821E-06 0.8449603
vn -0.534829 -4.645821E-06 0.8449603
vn -0.534828 0 0.8449609
vn -0.534828 0 0.8449609
vn -0.534828 0 0.8449609
vn -0.534828 6.992313E-08 0.844961
vn -0.534828 6.992313E-08 0.844961
vn -0.534828 6.992313E-08 0.844961
vn -0.5349762 0 0.8448671
vn -0.5349762 0 0.8448671
vn -0.5349762 0 0.8448671
vn -0.5349762 -1.175943E-08 0.8448671
vn -0.5349762 -1.175943E-08 0.8448671
vn -0.5349762 -1.175943E-08 0.8448671
vn -0.5349762 1.479808E-08 0.8448671
vn -0.5349762 1.479808E-08 0.8448671
vn -0.5349762 1.479808E-08 0.8448671
vn -0.5349762 -2.351738E-07 0.8448671
vn -0.5349762 -2.351738E-07 0.8448671
vn -0.5349762 -2.351738E-07 0.8448671
vn 0.8324153 0 0.5541523
vn 0.8324153 0 0.5541523
vn 0.8324153 0 0.5541523
vn -0.535143 7.877216E-08 0.8447615
vn -0.535143 7.877216E-08 0.8447615
vn -0.535143 7.877216E-08 0.8447615
vn -0.535143 0 0.8447615
vn -0.535143 0 0.8447615
vn -0.535143 0 0.8447615
vn -0.5351431 -1.504128E-07 0.8447614
vn -0.5351431 -1.504128E-07 0.8447614
vn -0.5351431 -1.504128E-07 0.8447614
vn -0.535198 0 0.8447266
vn -0.535198 0 0.8447266
vn -0.535198 0 0.8447266
vn -0.535198 2.176048E-09 0.8447266
vn -0.535198 2.176048E-09 0.8447266
vn -0.535198 2.176048E-09 0.8447266
vn 0 -1 0
vn 0 -1 0
vn 0 -1 0
vn 0 -1 0
vn 0 -1 0
vn 0 -1 0
vn 0 -1 0
vn 0 -1 0
vn 0 -1 0
vn 0 -1 0
vn 0 -1 0
vn 0 -1 0
vn 0 -1 0
vn 0 -1 0
vn 0 -1 0
vn 0 -1 0
vn 0 -1 0
vn 0 -1 0
vn 0 -1 0
vn 0 -1 0
vn 0 -1 0
vn 0 -1 0
vn 0 -1 0

g CDNNDG02_0008040
f 1/1/1 2/2/2 3/3/3
f 4/4/4 5/5/5 6/6/6
f 7/7/7 8/8/8 9/9/9
f 10/10/10 11/11/11 12/12/12
f 13/13/13 14/14/14 15/15/15
f 16/16/16 17/17/17 18/18/18
f 19/19/19 20/20/20 21/21/21
f 22/22/22 23/23/23 24/24/24
f 25/25/25 26/26/26 27/27/27
f 28/28/28 29/29/29 30/30/30
f 31/31/31 32/32/32 33/33/33
f 34/34/34 35/35/35 36/36/36
f 37/37/37 38/38/38 39/39/39
f 40/40/40 41/41/41 42/42/42
f 43/43/43 44/44/44 45/45/45
f 46/46/46 47/47/47 48/48/48
f 49/49/49 50/50/50 51/51/51
f 52/52/52 53/53/53 54/54/54
f 55/55/55 56/56/56 57/57/57
f 58/58/58 59/59/59 60/60/60
f 61/61/61 62/62/62 63/63/63
f 64/64/64 65/65/65 66/66/66
f 67/67/67 68/68/68 69/69/69
f 70/70/70 71/71/71 72/72/72
f 73/73/73 74/74/74 75/75/75
f 76/76/76 77/77/77 78/78/78
f 79/79/79 80/80/80 81/81/81
f 82/82/82 83/83/83 84/84/84
f 85/85/85 86/86/86 87/87/87
f 88/88/88 89/89/89 90/90/90
f 91/91/91 92/92/92 93/93/93
f 94/94/94 95/95/95 96/96/96
f 97/97/97 98/98/98 99/99/99
f 100/100/100 101/101/101 103/103/103
f 103/103/103 101/101/101 102/102/102
f 105/105/105 106/106/106 107/107/107
f 104/104/104 105/105/105 107/107/107
f 108/108/108 110/110/110 111/111/111
f 108/108/108 109/109/109 110/110/110
f 115/115/115 112/112/112 114/114/114
f 114/114/114 112/112/112 113/113/113
f 118/118/118 116/116/116 117/117/117
f 116/116/116 118/118/118 119/119/119
f 120/120/120 122/122/122 123/123/123
f 120/120/120 121/121/121 122/122/122
f 124/124/124 125/125/125 126/126/126
f 127/127/127 128/128/128 129/129/129
f 130/130/130 131/131/131 132/132/132
f 133/133/133 134/134/134 135/135/135
f 136/136/136 133/133/133 135/135/135
f 137/137/137 138/138/138 139/139/139
f 140/140/140 141/141/141 142/142/142
f 143/143/143 144/144/144 145/145/145
f 149/149/149 146/146/146 147/147/147
f 147/147/147 148/148/148 149/149/149
f 150/150/150 151/151/151 152/152/152
f 153/153/153 154/154/154 155/155/155
f 156/156/156 157/157/157 158/158/158
f 161/161/161 159/159/159 160/160/160
f 159/159/159 161/161/161 162/162/162
f 165/165/165 163/163/163 164/164/164
f 163/163/163 165/165/165 166/166/166
f 167/167/167 169/169/169 170/170/170
f 167/167/167 168/168/168 169/169/169
f 171/171/171 172/172/172 173/173/173
f 174/174/174 175/175/175 176/176/176
f 178/178/178 179/179/179 180/180/180
f 177/177/177 178/178/178 180/180/180
f 181/181/181 182/182/182 183/183/183
f 184/184/184 185/185/185 186/186/186
f 187/187/187 188/188/188 189/189/189
f 192/192/192 190/190/190 191/191/191
f 190/190/190 192/192/192 193/193/193
f 194/194/194 195/195/195 196/196/196
f 197/197/197 198/198/198 199/199/199
f 201/201/201 202/202/202 203/203/203
f 200/200/200 201/201/201 203/203/203
f 204/204/204 206/206/206 207/207/207
f 204/204/204 205/205/205 206/206/206
f 209/209/209 210/210/210 211/211/211
f 208/208/208 209/209/209 211/211/211
f 212/212/212 213/213/213 214/214/214
f 215/215/215 216/216/216 217/217/217
f 218/218/218 219/219/219 220/220/220
f 221/221/221 222/222/222 223/223/223
f 224/224/224 225/225/225 226/226/226
f 227/227/227 228/228/228 229/229/229
f 230/230/230 231/231/231 232/232/232
f 233/233/233 234/234/234 235/235/235
f 236/236/236 237/237/237 238/238/238
f 239/239/239 240/240/240 241/241/241
f 242/242/242 243/243/243 244/244/244
f 245/245/245 246/246/246 247/247/247
f 248/248/248 249/249/249 250/250/250
f 251/251/251 252/252/252 253/253/253
f 274/274/274 275/275/275 276/276/276
f 276/276/276 261/261/261 274/274/274
f 264/264/264 274/274/274 263/263/263
f 255/255/255 256/256/256 257/257/257
f 255/255/255 257/257/257 258/258/258
f 267/267/267 272/272/272 273/273/273
f 255/255/255 258/258/258 276/276/276
f 258/258/258 261/261/261 276/276/276
f 258/258/258 259/259/259 261/261/261
f 265/265/265 266/266/266 273/273/273
f 259/259/259 260/260/260 261/261/261
f 264/264/264 273/273/273 274/274/274
f 274/274/274 261/261/261 262/262/262
f 274/274/274 262/262/262 263/263/263
f 269/269/269 271/271/271 272/272/272
f 265/265/265 273/273/273 264/264/264
f 269/269/269 270/270/270 271/271/271
f 266/266/266 267/267/267 273/273/273
f 268/268/268 269/269/269 272/272/272
f 267/267/267 268/268/268 272/272/272
f 255/255/255 276/276/276 254/254/254
