v -0.7137478 4.867535 -6.023335
v 5.965252 4.867535 -2.061335
v -0.6047478 4.867535 -6.210335
v -0.9007478 4.867535 -5.743335
v 5.965252 4.867535 -2.061335
v -0.7137478 4.867535 -6.023335
v -6.037748 4.867535 1.952665
v 0.7292522 4.867535 6.227665
v -1.593748 4.867535 0.305665
v -1.593748 4.867535 0.305665
v 0.7292522 4.867535 6.227665
v 5.965252 4.867535 -2.061335
v -6.037748 4.867535 1.952665
v -2.277748 4.867535 -0.111335
v -1.809748 4.867535 -0.879335
v -6.037748 4.867535 1.952665
v -1.593748 4.867535 0.305665
v -2.277748 4.867535 -0.111335
v -1.124748 4.867535 -0.461335
v 5.965252 4.867535 -2.061335
v -0.9007478 4.867535 -5.743335
v -1.593748 4.867535 0.305665
v 5.965252 4.867535 -2.061335
v -1.124748 4.867535 -0.461335
v -6.037748 4.867535 1.952665
v -1.809748 4.867535 -0.879335
v -0.9007478 4.867535 -5.743335
v -1.809748 4.867535 -0.879335
v -1.124748 4.867535 -0.461335
v -0.9007478 4.867535 -5.743335
v -2.277748 6.025535 -0.111335
v -1.593748 6.025535 0.305665
v -1.124748 6.025535 -0.461335
v -1.809748 6.025535 -0.879335
v -6.037748 4.867535 1.952665
v -0.9007478 4.867535 -5.743335
v -0.9007478 -4.879611 -5.743335
v -6.037748 -4.879611 1.952665
v -0.7137478 4.867535 -6.023335
v -0.6047478 4.867535 -6.210335
v -0.6047478 -4.879611 -6.210335
v -0.7137478 -4.879611 -6.023335
v -0.9007478 4.867535 -5.743335
v -0.7137478 4.867535 -6.023335
v -0.7137478 -4.879611 -6.023335
v -0.9007478 -4.879611 -5.743335
v -6.037748 -4.879611 1.952665
v 0.7292522 -4.879611 6.227665
v 0.7292522 4.867535 6.227665
v -6.037748 4.867535 1.952665
v 0.7292522 -4.879611 6.227665
v 5.965252 -4.879611 -2.061335
v 5.965252 4.867535 -2.061335
v 0.7292522 4.867535 6.227665
v -0.6047478 4.867535 -6.210335
v 2.680252 -4.879611 -4.135835
v -0.6047478 -4.879611 -6.210335
v 2.680252 -4.879611 -4.135835
v 5.965252 4.867535 -2.061335
v 5.965252 -4.879611 -2.061335
v -0.6047478 4.867535 -6.210335
v 5.965252 4.867535 -2.061335
v 2.680252 -4.879611 -4.135835
v -2.277748 4.867535 -0.111335
v -1.593748 4.867535 0.305665
v -1.593748 6.025535 0.305665
v -2.277748 6.025535 -0.111335
v -1.593748 4.867535 0.305665
v -1.124748 4.867535 -0.461335
v -1.124748 6.025535 -0.461335
v -1.593748 6.025535 0.305665
v -1.809748 6.025535 -0.879335
v -1.124748 6.025535 -0.461335
v -1.124748 4.867535 -0.461335
v -1.809748 4.867535 -0.879335
v -2.277748 6.025535 -0.111335
v -1.809748 6.025535 -0.879335
v -1.809748 4.867535 -0.879335
v -2.277748 4.867535 -0.111335
v -0.9007478 -4.879611 -5.743335
v -0.7137478 -4.879611 -6.023335
v -0.6047478 -4.879611 -6.210335
v 2.680252 -4.879611 -4.135835
v 5.965252 -4.879611 -2.061335
v 0.7292522 -4.879611 6.227665
v -6.037748 -4.879611 1.952665
vt 0.015006 0.259771
vt 0.255577 0.583536
vt 0.003571 0.265028
vt 0.032131 0.250746
vt 0.255577 0.583536
vt 0.015006 0.259771
vt 0.502845 0.002833
vt 0.762500 0.330913
vt 0.401474 0.217826
vt 0.401474 0.217826
vt 0.762500 0.330913
vt 0.255577 0.583536
vt 0.502845 0.002833
vt 0.376151 0.184666
vt 0.329185 0.207245
vt 0.502845 0.002833
vt 0.401474 0.217826
vt 0.376151 0.184666
vt 0.354570 0.240453
vt 0.255577 0.583536
vt 0.032131 0.250746
vt 0.401474 0.217826
vt 0.255577 0.583536
vt 0.354570 0.240453
vt 0.502845 0.002833
vt 0.329185 0.207245
vt 0.032131 0.250746
vt 0.329185 0.207245
vt 0.354570 0.240453
vt 0.032131 0.250746
vt 0.048574 0.946176
vt 0.072840 0.977876
vt 0.027895 0.999508
vt 0.003571 0.967761
vt 0.608755 0.683414
vt 0.137224 0.925607
vt 0.031833 0.828573
vt 0.497792 0.589235
vt 0.120070 0.934424
vt 0.108625 0.939548
vt 0.003571 0.842350
vt 0.014881 0.837285
vt 0.137224 0.925607
vt 0.120070 0.934424
vt 0.014881 0.837285
vt 0.031833 0.828573
vt 0.260714 0.946176
vt 0.260714 0.946176
vt 0.260714 0.946176
vt 0.260714 0.946176
vt 0.225000 0.946176
vt 0.225000 0.946176
vt 0.225000 0.946176
vt 0.225000 0.946176
vt 0.724016 0.589235
vt 0.741717 0.775839
vt 0.617857 0.618988
vt 0.741717 0.775839
vt 0.974698 0.906695
vt 0.865573 0.932686
vt 0.724016 0.589235
vt 0.974698 0.906695
vt 0.741717 0.775839
vt 0.207143 0.946176
vt 0.207143 0.946176
vt 0.207143 0.946176
vt 0.207143 0.946176
vt 0.189286 0.946176
vt 0.189286 0.946176
vt 0.189286 0.946176
vt 0.189286 0.946176
vt 0.094303 0.946176
vt 0.117521 0.977207
vt 0.105328 0.980593
vt 0.082143 0.949606
vt 0.181989 0.956888
vt 0.137411 0.977270
vt 0.125000 0.966528
vt 0.169514 0.946176
vt 0.242857 0.946176
vt 0.242857 0.946176
vt 0.242857 0.946176
vt 0.242857 0.946176
vt 0.242857 0.946176
vt 0.242857 0.946176
vt 0.242857 0.946176
vn 0 1 0
vn 0 1 0
vn 0 1 0
vn 0 1 0
vn 0 1 0
vn 0 1 0
vn 0 1 0
vn 0 1 0
vn 0 1 0
vn 0 1 0
vn 0 1 0
vn 0 1 0
vn 0 1 0
vn 0 1 0
vn 0 1 0
vn 0 1 0
vn 0 1 0
vn 0 1 0
vn 0 1 0
vn 0 1 0
vn 0 1 0
vn 0 1 0
vn 0 1 0
vn 0 1 0
vn 0 1 0
vn 0 1 0
vn 0 1 0
vn 0 1 0
vn 0 1 0
vn 0 1 0
vn 0 1 0
vn 0 1 0
vn 0 1 0
vn 0 1 0
vn -0.8317342 0 -0.555174
vn -0.8317342 0 -0.555174
vn -0.8317342 0 -0.555174
vn -0.8317342 0 -0.555174
vn -0.8639464 0 -0.5035837
vn -0.8639464 0 -0.5035837
vn -0.8639464 0 -0.5035837
vn -0.8639464 0 -0.5035837
vn -0.8315931 0 -0.5553854
vn -0.8315931 0 -0.5553854
vn -0.8315931 0 -0.5553854
vn -0.8315931 0 -0.5553854
vn -0.5340917 0 0.8454266
vn -0.5340917 0 0.8454266
vn -0.5340917 0 0.8454266
vn -0.5340917 0 0.8454266
vn 0.8454501 0 0.5340544
vn 0.8454501 0 0.5340544
vn 0.8454501 0 0.5340544
vn 0.8454501 0 0.5340544
vn 0.5339494 0 -0.8455164
vn 0.5339494 0 -0.8455164
vn 0.5339494 0 -0.8455164
vn 0.5339494 0 -0.8455164
vn 0.5339494 0 -0.8455164
vn 0.5339494 0 -0.8455164
vn 0.5339494 1.594305E-12 -0.8455164
vn 0.5339494 1.594305E-12 -0.8455164
vn 0.5339494 1.594305E-12 -0.8455164
vn -0.5205408 0 0.8538368
vn -0.5205408 0 0.8538368
vn -0.5205408 0 0.8538368
vn -0.5205408 0 0.8538368
vn 0.8531443 0 0.5216749
vn 0.8531443 0 0.5216749
vn 0.8531443 0 0.5216749
vn 0.8531443 0 0.5216749
vn 0.5208954 0 -0.8536205
vn 0.5208954 0 -0.8536205
vn 0.5208954 0 -0.8536205
vn 0.5208954 0 -0.8536205
vn -0.8539408 0 -0.5203702
vn -0.8539408 0 -0.5203702
vn -0.8539408 0 -0.5203702
vn -0.8539408 0 -0.5203702
vn 0 -1 0
vn 0 -1 0
vn 0 -1 0
vn 0 -1 0
vn 0 -1 0
vn 0 -1 0
vn 0 -1 0

g CDNNDG02_0010190
f 1/1/1 2/2/2 3/3/3
f 4/4/4 5/5/5 6/6/6
f 7/7/7 8/8/8 9/9/9
f 10/10/10 11/11/11 12/12/12
f 13/13/13 14/14/14 15/15/15
f 16/16/16 17/17/17 18/18/18
f 19/19/19 20/20/20 21/21/21
f 22/22/22 23/23/23 24/24/24
f 25/25/25 26/26/26 27/27/27
f 28/28/28 29/29/29 30/30/30
f 32/32/32 33/33/33 34/34/34
f 31/31/31 32/32/32 34/34/34
f 35/35/35 37/37/37 38/38/38
f 35/35/35 36/36/36 37/37/37
f 39/39/39 40/40/40 41/41/41
f 42/42/42 39/39/39 41/41/41
f 43/43/43 45/45/45 46/46/46
f 43/43/43 44/44/44 45/45/45
f 48/48/48 49/49/49 50/50/50
f 50/50/50 47/47/47 48/48/48
f 54/54/54 51/51/51 53/53/53
f 52/52/52 53/53/53 51/51/51
f 55/55/55 56/56/56 57/57/57
f 58/58/58 59/59/59 60/60/60
f 61/61/61 62/62/62 63/63/63
f 67/67/67 64/64/64 66/66/66
f 66/66/66 64/64/64 65/65/65
f 71/71/71 68/68/68 70/70/70
f 69/69/69 70/70/70 68/68/68
f 75/75/75 72/72/72 74/74/74
f 73/73/73 74/74/74 72/72/72
f 76/76/76 78/78/78 79/79/79
f 76/76/76 77/77/77 78/78/78
f 86/86/86 80/80/80 83/83/83
f 85/85/85 86/86/86 83/83/83
f 80/80/80 81/81/81 83/83/83
f 81/81/81 82/82/82 83/83/83
f 83/83/83 84/84/84 85/85/85
