v -6.869728 5.709992 3.591325
v -0.7697279 5.709992 7.722325
v 5.881272 5.709992 -2.097675
v 6.153272 5.709992 -2.499675
v 5.720272 5.709992 -2.792675
v 5.75466 5.709992 -2.843436
v 6.537272 5.709992 -3.998675
v 1.131272 5.709992 -7.659675
v 0.298272 5.709992 -6.428675
v 0.03627205 5.709992 -6.606675
v -6.790728 5.709992 3.475325
v -6.869728 -5.709992 3.591325
v -0.7697279 -5.709992 7.722325
v -0.7697279 5.709992 7.722325
v -6.869728 5.709992 3.591325
v -0.7697279 -5.709992 7.722325
v 5.881272 -5.709992 -2.097675
v 5.881272 5.709992 -2.097675
v -0.7697279 5.709992 7.722325
v 6.017272 -5.709992 -2.298675
v 6.153272 -5.709992 -2.499675
v 6.153272 5.709992 -2.499675
v 5.881272 5.709992 -2.097675
v 5.881272 -5.709992 -2.097675
v 6.017272 -5.709992 -2.298675
v 5.881272 5.709992 -2.097675
v 6.017272 -5.709992 -2.298675
v 6.153272 5.709992 -2.499675
v 5.720272 5.709992 -2.792675
v 6.153272 5.709992 -2.499675
v 6.153272 -5.709992 -2.499675
v 5.720272 -5.709992 -2.792675
v 5.720272 -5.709992 -2.792675
v 5.75466 -5.709992 -2.843436
v 5.75466 5.709992 -2.843436
v 5.720272 5.709992 -2.792675
v 5.75466 -5.709992 -2.843436
v 6.537272 -5.709992 -3.998675
v 6.537272 5.709992 -3.998675
v 5.75466 5.709992 -2.843436
v 1.131272 5.709992 -7.659675
v 6.537272 5.709992 -3.998675
v 6.537272 -5.709992 -3.998675
v 1.131272 -5.709992 -7.659675
v 0.298272 5.709992 -6.428675
v 1.131272 5.709992 -7.659675
v 1.131272 -5.709992 -7.659675
v 0.298272 -5.709992 -6.428675
v 0.03627205 5.709992 -6.606675
v 0.298272 5.709992 -6.428675
v 0.298272 -5.709992 -6.428675
v 0.03627205 -5.709992 -6.606675
v -6.790728 5.709992 3.475325
v 0.03627205 5.709992 -6.606675
v 0.03627205 -5.709992 -6.606675
v -6.790728 -5.709992 3.475325
v -6.869728 5.709992 3.591325
v -6.790728 5.709992 3.475325
v -6.790728 -5.709992 3.475325
v -6.869728 -5.709992 3.591325
v -6.869728 -5.709992 3.591325
v -6.790728 -5.709992 3.475325
v 0.03627205 -5.709992 -6.606675
v 0.298272 -5.709992 -6.428675
v 1.131272 -5.709992 -7.659675
v 6.537272 -5.709992 -3.998675
v 5.75466 -5.709992 -2.843436
v 5.720272 -5.709992 -2.792675
v 6.153272 -5.709992 -2.499675
v 6.017272 -5.709992 -2.298675
v 5.881272 -5.709992 -2.097675
v -0.7697279 -5.709992 7.722325
vt 0.190030 0.403076
vt 0.002551 0.222598
vt 0.439241 0.021770
vt 0.457119 0.013556
vt 0.470417 0.026369
vt 0.472674 0.025330
vt 0.524051 0.001698
vt 0.690197 0.161659
vt 0.635451 0.186812
vt 0.643529 0.194564
vt 0.195188 0.400691
vt 0.192090 0.998891
vt 0.009227 0.819401
vt 0.002551 0.718166
vt 0.188065 0.900262
vt 0.479867 0.608281
vt 0.906610 0.415360
vt 0.899654 0.498216
vt 0.466837 0.693878
vt 0.915345 0.411415
vt 0.924080 0.407470
vt 0.917373 0.490213
vt 0.899654 0.498216
vt 0.906610 0.415360
vt 0.915345 0.411415
vt 0.899654 0.498216
vt 0.915345 0.411415
vt 0.917373 0.490213
vt 0.506315 0.812474
vt 0.494898 0.799939
vt 0.500799 0.718166
vt 0.512055 0.730526
vt 0.437410 0.741633
vt 0.439536 0.740646
vt 0.433279 0.822740
vt 0.431122 0.823742
vt 0.439536 0.740646
vt 0.487917 0.718166
vt 0.482348 0.799941
vt 0.433279 0.822740
vt 0.359533 0.958837
vt 0.198980 0.800658
vt 0.204702 0.718166
vt 0.363001 0.874128
vt 0.372167 0.743115
vt 0.425230 0.718166
vt 0.422202 0.819514
vt 0.369898 0.844106
vt 0.524198 0.809840
vt 0.517857 0.802260
vt 0.521287 0.718166
vt 0.527539 0.725639
vt 0.007749 0.613518
vt 0.459546 0.407470
vt 0.457072 0.509133
vt 0.011730 0.712230
vt 0.002551 0.615902
vt 0.007749 0.613518
vt 0.011730 0.712230
vt 0.006607 0.714580
vt 0.533163 0.718166
vt 0.533163 0.718166
vt 0.533163 0.718166
vt 0.533163 0.718166
vt 0.533163 0.718166
vt 0.533163 0.718166
vt 0.533163 0.718166
vt 0.533163 0.718166
vt 0.533163 0.718166
vt 0.533163 0.718166
vt 0.533163 0.718166
vt 0.533163 0.718166
vn 0 1 0
vn 0 1 0
vn 0 1 0
vn 0 1 0
vn 0 1 0
vn 0 1 0
vn 0 1 0
vn 0 1 0
vn 0 1 0
vn 0 1 0
vn 0 1 0
vn -0.5607311 0 0.827998
vn -0.5607311 0 0.827998
vn -0.5607311 0 0.827998
vn -0.5607311 0 0.827998
vn 0.8279679 0 0.5607755
vn 0.8279679 0 0.5607755
vn 0.8279679 0 0.5607755
vn 0.8279679 0 0.5607755
vn 0.8282272 0 0.5603925
vn 0.8282272 0 0.5603925
vn 0.8282272 0 0.5603925
vn 0.8282272 0 0.5603925
vn 0.8282272 0 0.5603925
vn 0.8282272 0 0.5603925
vn 0.8282272 0 0.5603925
vn 0.8282272 0 0.5603925
vn 0.8282272 0 0.5603925
vn 0.5604252 0 -0.8282051
vn 0.5604252 0 -0.8282051
vn 0.5604252 0 -0.8282051
vn 0.5604252 0 -0.8282051
vn 0.8279084 0 0.5608633
vn 0.8279084 0 0.5608633
vn 0.8279084 0 0.5608633
vn 0.8279084 0 0.5608633
vn 0.8279084 0 0.5608633
vn 0.8279084 0 0.5608633
vn 0.8279084 0 0.5608633
vn 0.8279084 0 0.5608633
vn 0.5607296 0 -0.827999
vn 0.5607296 0 -0.827999
vn 0.5607296 0 -0.827999
vn 0.5607296 0 -0.827999
vn -0.8282008 0 -0.5604315
vn -0.8282008 0 -0.5604315
vn -0.8282008 0 -0.5604315
vn -0.8282008 0 -0.5604315
vn 0.5619646 0 -0.8271613
vn 0.5619646 0 -0.8271613
vn 0.5619646 0 -0.8271613
vn 0.5619646 0 -0.8271613
vn -0.8280233 0 -0.5606938
vn -0.8280233 0 -0.5606938
vn -0.8280233 0 -0.5606938
vn -0.8280233 0 -0.5606938
vn -0.8265287 0 -0.5628946
vn -0.8265287 0 -0.5628946
vn -0.8265287 0 -0.5628946
vn -0.8265287 0 -0.5628946
vn 0 -1 0
vn 0 -1 0
vn 0 -1 0
vn 0 -1 0
vn 0 -1 0
vn 0 -1 0
vn 0 -1 0
vn 0 -1 0
vn 0 -1 0
vn 0 -1 0
vn 0 -1 0
vn 0 -1 0

g CDNNDG02_0000100
f 9/9/9 10/10/10 11/11/11
f 3/3/3 9/9/9 11/11/11
f 6/6/6 8/8/8 9/9/9
f 1/1/1 2/2/2 11/11/11
f 6/6/6 7/7/7 8/8/8
f 2/2/2 3/3/3 11/11/11
f 5/5/5 6/6/6 9/9/9
f 3/3/3 4/4/4 5/5/5
f 3/3/3 5/5/5 9/9/9
f 12/12/12 14/14/14 15/15/15
f 14/14/14 12/12/12 13/13/13
f 19/19/19 16/16/16 18/18/18
f 17/17/17 18/18/18 16/16/16
f 20/20/20 21/21/21 22/22/22
f 23/23/23 24/24/24 25/25/25
f 26/26/26 27/27/27 28/28/28
f 31/31/31 29/29/29 30/30/30
f 29/29/29 31/31/31 32/32/32
f 33/33/33 35/35/35 36/36/36
f 33/33/33 34/34/34 35/35/35
f 37/37/37 39/39/39 40/40/40
f 37/37/37 38/38/38 39/39/39
f 41/41/41 43/43/43 44/44/44
f 41/41/41 42/42/42 43/43/43
f 46/46/46 47/47/47 48/48/48
f 45/45/45 46/46/46 48/48/48
f 49/49/49 51/51/51 52/52/52
f 49/49/49 50/50/50 51/51/51
f 53/53/53 55/55/55 56/56/56
f 53/53/53 54/54/54 55/55/55
f 57/57/57 59/59/59 60/60/60
f 57/57/57 58/58/58 59/59/59
f 62/62/62 71/71/71 72/72/72
f 68/68/68 70/70/70 71/71/71
f 68/68/68 69/69/69 70/70/70
f 61/61/61 62/62/62 72/72/72
f 62/62/62 63/63/63 64/64/64
f 71/71/71 62/62/62 64/64/64
f 71/71/71 64/64/64 68/68/68
f 64/64/64 65/65/65 67/67/67
f 64/64/64 67/67/67 68/68/68
f 65/65/65 66/66/66 67/67/67
