v -5.724946 2.677023 6.617041
v -3.598945 2.677023 7.913041
v -1.911945 2.677023 5.144041
v -7.247945 2.677023 5.689041
v -5.724946 2.677023 6.617041
v -5.560946 2.677023 2.920041
v -5.724946 2.677023 6.617041
v -1.911945 2.677023 5.144041
v -5.560946 2.677023 2.920041
v -0.04294531 6.221023 2.406041
v 2.530055 6.221023 3.974041
v 6.453055 6.221023 -3.912959
v -0.04294531 6.221023 2.406041
v 3.915055 6.221023 -5.825959
v 0.8900547 6.221023 -7.668959
v -0.7749453 6.221023 0.1940408
v -0.04294531 6.221023 2.406041
v -0.03294531 6.221023 -0.9449592
v -0.04294531 6.221023 2.406041
v 0.8900547 6.221023 -7.668959
v -0.03294531 6.221023 -0.9449592
v -5.560946 6.221023 2.920041
v -0.04294531 6.221023 2.406041
v -0.7749453 6.221023 0.1940408
v -2.364945 6.221023 -0.8419592
v -1.622945 6.221023 -1.981959
v 0.8900547 6.221023 -7.668959
v -1.622945 6.221023 -1.981959
v -0.03294531 6.221023 -0.9449592
v 0.8900547 6.221023 -7.668959
v -5.560946 6.221023 2.920041
v -0.7749453 6.221023 0.1940408
v -2.364945 6.221023 -0.8419592
v -5.560946 6.221023 2.920041
v -2.364945 6.221023 -0.8419592
v 0.8900547 6.221023 -7.668959
v -1.911945 6.221023 5.144041
v -1.764945 6.221023 5.233041
v -0.04294531 6.221023 2.406041
v -0.04294531 6.221023 2.406041
v 6.453055 6.221023 -3.912959
v 3.915055 6.221023 -5.825959
v 3.915055 6.221023 -5.825959
v 6.453055 6.221023 -3.912959
v 6.261055 6.221023 -5.363959
v -5.560946 6.221023 2.920041
v -1.911945 6.221023 5.144041
v -0.04294531 6.221023 2.406041
v 2.530055 6.221023 3.974041
v 2.784055 6.221023 4.128041
v 7.350055 6.221023 -3.366959
v 3.915055 6.221023 -5.825959
v 6.261055 6.221023 -5.363959
v 4.899055 6.221023 -6.193959
v 2.530055 6.221023 3.974041
v 7.350055 6.221023 -3.366959
v 6.453055 6.221023 -3.912959
v -2.364945 6.292023 -0.8419592
v -1.620945 6.758023 -1.130959
v -1.622945 6.292023 -1.981959
v -2.364945 6.292023 -0.8419592
v -0.9229453 6.758023 -0.7159593
v -1.620945 6.758023 -1.130959
v -2.364945 6.292023 -0.8419592
v -0.7749453 6.292023 0.1940408
v -0.9229453 6.758023 -0.7159593
v -0.9229453 6.758023 -0.7159593
v -0.7749453 6.292023 0.1940408
v -0.03294531 6.291023 -0.9449592
v -1.622945 6.292023 -1.981959
v -1.620945 6.758023 -1.130959
v -0.9229453 6.758023 -0.7159593
v -1.622945 6.292023 -1.981959
v -0.9229453 6.758023 -0.7159593
v -0.03294531 6.291023 -0.9449592
v -7.247945 1.319023 5.689041
v -7.077945 1.319023 8.839041
v -5.724946 1.319023 6.617041
v -10.59595 1.319023 6.696041
v -7.247945 1.319023 5.689041
v -9.241945 1.319023 4.474041
v -10.59595 1.319023 6.696041
v -7.077945 1.319023 8.839041
v -7.247945 1.319023 5.689041
v -7.247945 1.319023 5.689041
v -5.724946 1.319023 6.617041
v -5.724946 2.677023 6.617041
v -7.247945 2.677023 5.689041
v -5.724946 -5.593864 6.617041
v -3.598945 -5.593864 7.913041
v -3.598945 2.677023 7.913041
v -5.724946 1.319023 6.617041
v -5.724946 2.677023 6.617041
v -5.724946 1.319023 6.617041
v -3.598945 2.677023 7.913041
v -3.598945 -5.593864 7.913041
v -1.911945 -5.593864 5.144041
v -1.911945 2.677023 5.144041
v -3.598945 2.677023 7.913041
v -7.247945 2.677023 5.689041
v -5.560946 2.677023 2.920041
v -7.247945 1.319023 5.689041
v -7.247945 1.319023 5.689041
v -5.560946 2.677023 2.920041
v -5.560946 -5.593864 2.920041
v -7.247945 -5.593864 5.689041
v -5.560946 6.221023 2.920041
v 0.8900547 6.221023 -7.668959
v -5.560946 2.677023 2.920041
v -5.560946 2.677023 2.920041
v 0.8900547 6.221023 -7.668959
v 0.8900547 -5.593864 -7.668959
v -5.560946 -5.593864 2.920041
v -1.911945 -5.593864 5.144041
v -1.764945 -5.593864 5.233041
v -1.764945 6.221023 5.233041
v -1.911945 2.677023 5.144041
v -1.911945 6.221023 5.144041
v -1.911945 2.677023 5.144041
v -1.764945 6.221023 5.233041
v -5.560946 2.677023 2.920041
v -1.911945 2.677023 5.144041
v -1.911945 6.221023 5.144041
v -5.560946 6.221023 2.920041
v -1.764945 -5.593864 5.233041
v -0.04294531 -5.593864 2.406041
v -0.04294531 6.221023 2.406041
v -1.764945 6.221023 5.233041
v -0.04294531 -5.593864 2.406041
v 2.530055 -5.593864 3.974041
v 2.530055 6.221023 3.974041
v -0.04294531 6.221023 2.406041
v 2.530055 -5.593864 3.974041
v 2.784055 -5.593864 4.128041
v 2.784055 6.221023 4.128041
v 2.530055 6.221023 3.974041
v 2.784055 -5.593864 4.128041
v 7.350055 -5.593864 -3.366959
v 7.350055 6.221023 -3.366959
v 2.784055 6.221023 4.128041
v 6.453055 6.221023 -3.912959
v 7.350055 6.221023 -3.366959
v 7.350055 -5.593864 -3.366959
v 6.453055 -5.593864 -3.912959
v 6.261055 6.221023 -5.363959
v 6.453055 6.221023 -3.912959
v 6.453055 -5.593864 -3.912959
v 6.261055 -5.593864 -5.363959
v 4.899055 6.221023 -6.193959
v 5.580055 -5.593864 -5.778959
v 4.899055 -5.593864 -6.193959
v 5.580055 -5.593864 -5.778959
v 6.261055 6.221023 -5.363959
v 6.261055 -5.593864 -5.363959
v 4.899055 6.221023 -6.193959
v 6.261055 6.221023 -5.363959
v 5.580055 -5.593864 -5.778959
v 3.915055 6.221023 -5.825959
v 4.899055 6.221023 -6.193959
v 4.899055 -5.593864 -6.193959
v 3.915055 -5.593864 -5.825959
v 0.8900547 6.221023 -7.668959
v 2.402555 -5.593864 -6.747459
v 0.8900547 -5.593864 -7.668959
v 2.402555 -5.593864 -6.747459
v 3.915055 6.221023 -5.825959
v 3.915055 -5.593864 -5.825959
v 0.8900547 6.221023 -7.668959
v 3.915055 6.221023 -5.825959
v 2.402555 -5.593864 -6.747459
v -2.364945 6.292023 -0.8419592
v -1.622945 6.292023 -1.981959
v -1.622945 6.221023 -1.981959
v -2.364945 6.221023 -0.8419592
v -2.364945 6.221023 -0.8419592
v -0.7749453 6.221023 0.1940408
v -0.7749453 6.292023 0.1940408
v -2.364945 6.292023 -0.8419592
v -0.7749453 6.221023 0.1940408
v -0.03294531 6.221023 -0.9449592
v -0.03294531 6.291023 -0.9449592
v -0.7749453 6.292023 0.1940408
v -1.622945 6.292023 -1.981959
v -0.03294531 6.291023 -0.9449592
v -0.03294531 6.221023 -0.9449592
v -1.622945 6.221023 -1.981959
v -10.59595 1.319023 6.696041
v -9.241945 1.319023 4.474041
v -9.241945 -5.593864 4.474041
v -10.59595 -5.593864 6.696041
v -8.836946 -5.593864 7.767541
v -7.077945 -5.593864 8.839041
v -7.077945 1.319023 8.839041
v -10.59595 1.319023 6.696041
v -10.59595 -5.593864 6.696041
v -8.836946 -5.593864 7.767541
v -10.59595 1.319023 6.696041
v -8.836946 -5.593864 7.767541
v -7.077945 1.319023 8.839041
v -7.077945 -5.593864 8.839041
v -5.724946 -5.593864 6.617041
v -5.724946 1.319023 6.617041
v -7.077945 1.319023 8.839041
v -9.241945 1.319023 4.474041
v -7.247945 1.319023 5.689041
v -7.247945 -5.593864 5.689041
v -9.241945 -5.593864 4.474041
v -10.59595 -5.593864 6.696041
v -9.241945 -5.593864 4.474041
v -7.247945 -5.593864 5.689041
v -5.560946 -5.593864 2.920041
v 0.8900547 -5.593864 -7.668959
v 2.402555 -5.593864 -6.747459
v 3.915055 -5.593864 -5.825959
v 4.899055 -5.593864 -6.193959
v 5.580055 -5.593864 -5.778959
v 6.261055 -5.593864 -5.363959
v 6.453055 -5.593864 -3.912959
v 7.350055 -5.593864 -3.366959
v 2.784055 -5.593864 4.128041
v 2.530055 -5.593864 3.974041
v -0.04294531 -5.593864 2.406041
v -1.764945 -5.593864 5.233041
v -1.911945 -5.593864 5.144041
v -3.598945 -5.593864 7.913041
v -5.724946 -5.593864 6.617041
v -7.077945 -5.593864 8.839041
v -8.836946 -5.593864 7.767541
vt 0.404626 0.744080
vt 0.354610 0.686598
vt 0.468841 0.643963
vt 0.440439 0.785257
vt 0.404626 0.744080
vt 0.554668 0.742624
vt 0.404626 0.744080
vt 0.468841 0.643963
vt 0.554668 0.742624
vt 0.120363 0.195461
vt 0.059138 0.125139
vt 0.387301 0.026065
vt 0.120363 0.195461
vt 0.462712 0.095725
vt 0.534665 0.178401
vt 0.210201 0.216867
vt 0.120363 0.195461
vt 0.257801 0.197850
vt 0.120363 0.195461
vt 0.534665 0.178401
vt 0.257801 0.197850
vt 0.092675 0.343191
vt 0.120363 0.195461
vt 0.210201 0.216867
vt 0.250782 0.260375
vt 0.298423 0.241359
vt 0.534665 0.178401
vt 0.298423 0.241359
vt 0.257801 0.197850
vt 0.534665 0.178401
vt 0.092675 0.343191
vt 0.210201 0.216867
vt 0.250782 0.260375
vt 0.092675 0.343191
vt 0.250782 0.260375
vt 0.534665 0.178401
vt 0.005838 0.243467
vt 0.002364 0.239450
vt 0.120363 0.195461
vt 0.120363 0.195461
vt 0.387301 0.026065
vt 0.462712 0.095725
vt 0.462712 0.095725
vt 0.387301 0.026065
vt 0.446579 0.032371
vt 0.092675 0.343191
vt 0.005838 0.243467
vt 0.120363 0.195461
vt 0.059138 0.125139
vt 0.053127 0.118197
vt 0.365984 0.001548
vt 0.462712 0.095725
vt 0.446579 0.032371
vt 0.478985 0.069597
vt 0.059138 0.125139
vt 0.365984 0.001548
vt 0.387301 0.026065
vt 0.099291 0.978501
vt 0.109572 0.956656
vt 0.144471 0.959426
vt 0.972899 0.870066
vt 0.966602 0.829165
vt 0.983224 0.847568
vt 0.972899 0.870066
vt 0.931442 0.828173
vt 0.966602 0.829165
vt 0.081600 0.982803
vt 0.047281 0.974553
vt 0.092581 0.956656
vt 0.877187 0.870209
vt 0.842862 0.873394
vt 0.827423 0.854965
vt 0.877187 0.870209
vt 0.827423 0.854965
vt 0.838452 0.828173
vt 0.859901 0.685029
vt 0.732861 0.678062
vt 0.824210 0.643963
vt 0.815278 0.772917
vt 0.859901 0.685029
vt 0.906628 0.738793
vt 0.815278 0.772917
vt 0.732861 0.678062
vt 0.859901 0.685029
vt 0.465316 0.934007
vt 0.427666 0.893295
vt 0.423830 0.885102
vt 0.461544 0.925884
vt 0.446994 0.934571
vt 0.394864 0.878229
vt 0.371158 0.828173
vt 0.427666 0.893295
vt 0.423830 0.885102
vt 0.427666 0.893295
vt 0.371158 0.828173
vt 0.253131 0.869895
vt 0.364970 0.828173
vt 0.344660 0.897547
vt 0.231678 0.939695
vt 0.002364 0.590292
vt 0.116598 0.544476
vt 0.006214 0.598490
vt 0.006214 0.598490
vt 0.116598 0.544476
vt 0.138670 0.594447
vt 0.025612 0.639791
vt 0.106998 0.522744
vt 0.545824 0.346749
vt 0.116598 0.544476
vt 0.116598 0.544476
vt 0.545824 0.346749
vt 0.571045 0.421043
vt 0.138670 0.594447
vt 0.038458 0.904785
vt 0.034869 0.900881
vt 0.002364 0.828173
vt 0.015843 0.854154
vt 0.006007 0.832136
vt 0.015843 0.854154
vt 0.002364 0.828173
vt 0.106473 0.952074
vt 0.015843 0.854154
vt 0.006007 0.832136
vt 0.097044 0.930495
vt 0.234895 0.686674
vt 0.349208 0.643963
vt 0.321662 0.743106
vt 0.205674 0.786443
vt 0.200491 0.793865
vt 0.137314 0.725389
vt 0.105589 0.650824
vt 0.169709 0.720323
vt 0.137314 0.725389
vt 0.131109 0.718629
vt 0.099291 0.643963
vt 0.105589 0.650824
vt 0.605596 0.460398
vt 0.911490 0.346749
vt 0.887214 0.443463
vt 0.576832 0.558776
vt 0.133661 0.948518
vt 0.113475 0.924360
vt 0.136701 0.828173
vt 0.156594 0.851983
vt 0.527939 0.930742
vt 0.470449 0.924508
vt 0.493900 0.828173
vt 0.550558 0.834318
vt 0.591239 0.777445
vt 0.597852 0.662063
vt 0.613106 0.680163
vt 0.597852 0.662063
vt 0.560284 0.740715
vt 0.582598 0.643963
vt 0.591239 0.777445
vt 0.560284 0.740715
vt 0.597852 0.662063
vt 0.555556 0.854685
vt 0.569948 0.828173
vt 0.594726 0.903331
vt 0.580546 0.929452
vt 0.072292 0.823716
vt 0.059299 0.684279
vt 0.093757 0.724595
vt 0.059299 0.684279
vt 0.002364 0.741902
vt 0.024841 0.643963
vt 0.072292 0.823716
vt 0.002364 0.741902
vt 0.059299 0.684279
vt 0.151300 0.975550
vt 0.196480 0.956656
vt 0.196647 0.957074
vt 0.151472 0.975965
vt 0.925391 0.870498
vt 0.884335 0.828609
vt 0.884161 0.828173
vt 0.925221 0.870066
vt 0.203465 0.974139
vt 0.248759 0.956656
vt 0.248610 0.957213
vt 0.203310 0.974705
vt 0.040611 0.999178
vt 0.002364 0.957238
vt 0.002512 0.956656
vt 0.040757 0.998584
vt 0.713948 0.864351
vt 0.803881 0.828173
vt 0.822519 0.868421
vt 0.733360 0.904287
vt 0.682784 0.731800
vt 0.639548 0.685047
vt 0.619385 0.643963
vt 0.706607 0.738279
vt 0.726019 0.778552
vt 0.682784 0.731800
vt 0.706607 0.738279
vt 0.682784 0.731800
vt 0.619385 0.643963
vt 0.618647 0.861535
vt 0.708021 0.828173
vt 0.690609 0.886724
vt 0.600473 0.920369
vt 0.208441 0.940565
vt 0.163121 0.887239
vt 0.179982 0.828173
vt 0.224919 0.881048
vt 0.255319 0.956656
vt 0.255319 0.956656
vt 0.255319 0.956656
vt 0.255319 0.956656
vt 0.255319 0.956656
vt 0.255319 0.956656
vt 0.255319 0.956656
vt 0.255319 0.956656
vt 0.255319 0.956656
vt 0.255319 0.956656
vt 0.255319 0.956656
vt 0.255319 0.956656
vt 0.255319 0.956656
vt 0.255319 0.956656
vt 0.255319 0.956656
vt 0.255319 0.956656
vt 0.255319 0.956656
vt 0.255319 0.956656
vt 0.255319 0.956656
vt 0.255319 0.956656
vt 0.255319 0.956656
vn 0 1 0
vn 0 1 0
vn 0 1 0
vn 0 1 0
vn 0 1 0
vn 0 1 0
vn 0 1 0
vn 0 1 0
vn 0 1 0
vn 0 1 0
vn 0 1 0
vn 0 1 0
vn 0 1 0
vn 0 1 0
vn 0 1 0
vn 0 1 0
vn 0 1 0
vn 0 1 0
vn 0 1 0
vn 0 1 0
vn 0 1 0
vn 0 1 0
vn 0 1 0
vn 0 1 0
vn 0 1 0
vn 0 1 0
vn 0 1 0
vn 0 1 0
vn 0 1 0
vn 0 1 0
vn 0 1 0
vn 0 1 0
vn 0 1 0
vn 0 1 0
vn 0 1 0
vn 0 1 0
vn 0 1 0
vn 0 1 0
vn 0 1 0
vn 0 1 0
vn 0 1 0
vn 0 1 0
vn 0 1 0
vn 0 1 0
vn 0 1 0
vn 0 1 0
vn 0 1 0
vn 0 1 0
vn 0 1 0
vn 0 1 0
vn 0 1 0
vn 0 1 0
vn 0 1 0
vn 0 1 0
vn 0 1 0
vn 0 1 0
vn 0 1 0
vn -0.5926945 0.7070317 -0.3857713
vn -0.5926945 0.7070317 -0.3857713
vn -0.5926945 0.7070317 -0.3857713
vn -0.3043377 0.8033452 0.511874
vn -0.3043377 0.8033452 0.511874
vn -0.3043377 0.8033452 0.511874
vn -0.3080953 0.8255247 0.472849
vn -0.3080953 0.8255247 0.472849
vn -0.3080953 0.8255247 0.472849
vn 0.5037162 0.7994066 0.3274434
vn 0.5037162 0.7994066 0.3274434
vn 0.5037162 0.7994066 0.3274434
vn 0.2748595 0.843052 -0.4622937
vn 0.2748595 0.843052 -0.4622937
vn 0.2748595 0.843052 -0.4622937
vn 0.310095 0.823732 -0.4746648
vn 0.310095 0.823732 -0.4746648
vn 0.310095 0.823732 -0.4746648
vn 0 1 0
vn 0 1 0
vn 0 1 0
vn 0 1 0
vn 0 1 0
vn 0 1 0
vn 0 1 0
vn 0 1 0
vn 0 1 0
vn -0.5203382 0 0.8539603
vn -0.5203382 0 0.8539603
vn -0.5203382 0 0.8539603
vn -0.5203382 0 0.8539603
vn -0.5205075 0 0.8538571
vn -0.5205075 0 0.8538571
vn -0.5205075 0 0.8538571
vn -0.5205075 0 0.8538571
vn -0.5205075 0 0.8538571
vn -0.5205075 0 0.8538571
vn -0.5205075 0 0.8538571
vn 0.85399 0 0.5202894
vn 0.85399 0 0.5202894
vn 0.85399 0 0.5202894
vn 0.85399 0 0.5202894
vn -0.85399 0 -0.5202894
vn -0.85399 0 -0.5202894
vn -0.85399 0 -0.5202894
vn -0.85399 0 -0.5202894
vn -0.85399 0 -0.5202894
vn -0.85399 0 -0.5202894
vn -0.85399 0 -0.5202894
vn -0.8540007 0 -0.5202718
vn -0.8540007 0 -0.5202718
vn -0.8540007 0 -0.5202718
vn -0.8540007 0 -0.5202718
vn -0.8540007 0 -0.5202718
vn -0.8540007 0 -0.5202718
vn -0.8540007 0 -0.5202718
vn -0.5179148 0 0.8554322
vn -0.5179148 0 0.8554322
vn -0.5179148 0 0.8554322
vn -0.5179148 0 0.8554322
vn -0.5179148 0 0.8554322
vn -0.5179148 0 0.8554322
vn -0.5179148 0 0.8554322
vn -0.5204368 0 0.8539002
vn -0.5204368 0 0.8539002
vn -0.5204368 0 0.8539002
vn -0.5204368 0 0.8539002
vn 0.8540352 0 0.5202153
vn 0.8540352 0 0.5202153
vn 0.8540352 0 0.5202153
vn 0.8540352 0 0.5202153
vn -0.5203891 0 0.8539293
vn -0.5203891 0 0.8539293
vn -0.5203891 0 0.8539293
vn -0.5203891 0 0.8539293
vn -0.5184509 0 0.8551074
vn -0.5184509 0 0.8551074
vn -0.5184509 0 0.8551074
vn -0.5184509 0 0.8551074
vn 0.8540049 0 0.520265
vn 0.8540049 0 0.520265
vn 0.8540049 0 0.520265
vn 0.8540049 0 0.520265
vn 0.5199469 0 -0.8541986
vn 0.5199469 0 -0.8541986
vn 0.5199469 0 -0.8541986
vn 0.5199469 0 -0.8541986
vn 0.9913587 0 -0.1311791
vn 0.9913587 0 -0.1311791
vn 0.9913587 0 -0.1311791
vn 0.9913587 0 -0.1311791
vn 0.5203844 0 -0.8539321
vn 0.5203844 0 -0.8539321
vn 0.5203844 0 -0.8539321
vn 0.5203844 0 -0.8539321
vn 0.5203844 0 -0.8539321
vn 0.5203844 0 -0.8539321
vn 0.5203844 0 -0.8539321
vn 0.5203844 0 -0.8539321
vn 0.5203844 0 -0.8539321
vn -0.3502888 0 -0.9366418
vn -0.3502888 0 -0.9366418
vn -0.3502888 0 -0.9366418
vn -0.3502888 0 -0.9366418
vn 0.5202962 0 -0.8539858
vn 0.5202962 0 -0.8539858
vn 0.5202962 0 -0.8539858
vn 0.5202962 0 -0.8539858
vn 0.5202962 0 -0.8539858
vn 0.5202962 0 -0.8539858
vn 0.5202962 0 -0.8539858
vn 0.5202962 0 -0.8539858
vn 0.5202962 0 -0.8539858
vn -0.8381075 0 -0.545505
vn -0.8381075 0 -0.545505
vn -0.8381075 0 -0.545505
vn -0.8381075 0 -0.545505
vn -0.5459141 0 0.8378412
vn -0.5459141 0 0.8378412
vn -0.5459141 0 0.8378412
vn -0.5459141 0 0.8378412
vn 0.8378885 0 0.5458413
vn 0.8378885 0 0.5458413
vn 0.8378885 0 0.5458413
vn 0.8378885 0 0.5458413
vn 0.5462838 0 -0.8376001
vn 0.5462838 0 -0.8376001
vn 0.5462838 0 -0.8376001
vn 0.5462838 0 -0.8376001
vn -0.8539461 0 -0.5203614
vn -0.8539461 0 -0.5203614
vn -0.8539461 0 -0.5203614
vn -0.8539461 0 -0.5203614
vn -0.5202318 0 0.8540251
vn -0.5202318 0 0.8540251
vn -0.5202318 0 0.8540251
vn -0.5202318 0 0.8540251
vn -0.5202318 0 0.8540251
vn -0.5202318 0 0.8540251
vn -0.5202318 -5.533805E-11 0.8540251
vn -0.5202318 -5.533805E-11 0.8540251
vn -0.5202318 -5.533805E-11 0.8540251
vn 0.8541169 0 0.5200811
vn 0.8541169 0 0.5200811
vn 0.8541169 0 0.5200811
vn 0.8541169 0 0.5200811
vn 0.5203409 0 -0.8539586
vn 0.5203409 0 -0.8539586
vn 0.5203409 0 -0.8539586
vn 0.5203409 0 -0.8539586
vn 0 -1 0
vn 0 -1 0
vn 0 -1 0
vn 0 -1 0
vn 0 -1 0
vn 0 -1 0
vn 0 -1 0
vn 0 -1 0
vn 0 -1 0
vn 0 -1 0
vn 0 -1 0
vn 0 -1 0
vn 0 -1 0
vn 0 -1 0
vn 0 -1 0
vn 0 -1 0
vn 0 -1 0
vn 0 -1 0
vn 0 -1 0
vn 0 -1 0
vn 0 -1 0

g CDNNDG02_0008000
f 1/1/1 2/2/2 3/3/3
f 4/4/4 5/5/5 6/6/6
f 7/7/7 8/8/8 9/9/9
f 10/10/10 11/11/11 12/12/12
f 13/13/13 14/14/14 15/15/15
f 16/16/16 17/17/17 18/18/18
f 19/19/19 20/20/20 21/21/21
f 22/22/22 23/23/23 24/24/24
f 25/25/25 26/26/26 27/27/27
f 28/28/28 29/29/29 30/30/30
f 31/31/31 32/32/32 33/33/33
f 34/34/34 35/35/35 36/36/36
f 37/37/37 38/38/38 39/39/39
f 40/40/40 41/41/41 42/42/42
f 43/43/43 44/44/44 45/45/45
f 46/46/46 47/47/47 48/48/48
f 49/49/49 50/50/50 51/51/51
f 52/52/52 53/53/53 54/54/54
f 55/55/55 56/56/56 57/57/57
f 58/58/58 59/59/59 60/60/60
f 61/61/61 62/62/62 63/63/63
f 64/64/64 65/65/65 66/66/66
f 67/67/67 68/68/68 69/69/69
f 70/70/70 71/71/71 72/72/72
f 73/73/73 74/74/74 75/75/75
f 76/76/76 77/77/77 78/78/78
f 79/79/79 80/80/80 81/81/81
f 82/82/82 83/83/83 84/84/84
f 86/86/86 87/87/87 88/88/88
f 88/88/88 85/85/85 86/86/86
f 90/90/90 91/91/91 92/92/92
f 92/92/92 89/89/89 90/90/90
f 93/93/93 94/94/94 95/95/95
f 96/96/96 98/98/98 99/99/99
f 96/96/96 97/97/97 98/98/98
f 100/100/100 101/101/101 102/102/102
f 103/103/103 105/105/105 106/106/106
f 105/105/105 103/103/103 104/104/104
f 107/107/107 108/108/108 109/109/109
f 110/110/110 112/112/112 113/113/113
f 112/112/112 110/110/110 111/111/111
f 115/115/115 116/116/116 117/117/117
f 117/117/117 114/114/114 115/115/115
f 118/118/118 119/119/119 120/120/120
f 124/124/124 121/121/121 123/123/123
f 123/123/123 121/121/121 122/122/122
f 125/125/125 127/127/127 128/128/128
f 125/125/125 126/126/126 127/127/127
f 132/132/132 129/129/129 131/131/131
f 131/131/131 129/129/129 130/130/130
f 136/136/136 133/133/133 134/134/134
f 135/135/135 136/136/136 134/134/134
f 140/140/140 137/137/137 139/139/139
f 138/138/138 139/139/139 137/137/137
f 143/143/143 144/144/144 142/142/142
f 141/141/141 142/142/142 144/144/144
f 148/148/148 145/145/145 147/147/147
f 147/147/147 145/145/145 146/146/146
f 149/149/149 150/150/150 151/151/151
f 152/152/152 153/153/153 154/154/154
f 155/155/155 156/156/156 157/157/157
f 158/158/158 160/160/160 161/161/161
f 158/158/158 159/159/159 160/160/160
f 162/162/162 163/163/163 164/164/164
f 165/165/165 166/166/166 167/167/167
f 168/168/168 169/169/169 170/170/170
f 174/174/174 171/171/171 173/173/173
f 173/173/173 171/171/171 172/172/172
f 175/175/175 177/177/177 178/178/178
f 175/175/175 176/176/176 177/177/177
f 179/179/179 181/181/181 182/182/182
f 179/179/179 180/180/180 181/181/181
f 186/186/186 183/183/183 184/184/184
f 184/184/184 185/185/185 186/186/186
f 188/188/188 189/189/189 190/190/190
f 187/187/187 188/188/188 190/190/190
f 191/191/191 192/192/192 193/193/193
f 194/194/194 195/195/195 196/196/196
f 197/197/197 198/198/198 199/199/199
f 201/201/201 202/202/202 200/200/200
f 200/200/200 202/202/202 203/203/203
f 204/204/204 206/206/206 207/207/207
f 204/204/204 205/205/205 206/206/206
f 228/228/228 210/210/210 227/227/227
f 228/228/228 208/208/208 209/209/209
f 228/228/228 209/209/209 210/210/210
f 226/226/226 210/210/210 211/211/211
f 222/222/222 218/218/218 221/221/221
f 226/226/226 224/224/224 225/225/225
f 224/224/224 211/211/211 222/222/222
f 222/222/222 212/212/212 213/213/213
f 226/226/226 227/227/227 210/210/210
f 216/216/216 214/214/214 215/215/215
f 217/217/217 218/218/218 216/216/216
f 218/218/218 214/214/214 216/216/216
f 219/219/219 221/221/221 218/218/218
f 224/224/224 226/226/226 211/211/211
f 220/220/220 221/221/221 219/219/219
f 218/218/218 222/222/222 214/214/214
f 222/222/222 213/213/213 214/214/214
f 222/222/222 223/223/223 224/224/224
f 222/222/222 211/211/211 212/212/212
