v -8.088828 5.476795 4.389565
v -8.225828 5.476795 4.596565
v -1.846828 5.476795 8.786565
v 1.188172 5.476795 4.166564
v 1.861172 5.476795 3.142565
v 5.784172 5.476795 -2.830436
v 5.976172 5.476795 -3.147435
v 6.574172 5.476795 -4.034435
v 8.383172 5.476795 -6.845436
v 3.740172 5.476795 -9.876435
v 1.336172 5.476795 -6.194436
v 2.834172 5.476795 -5.210435
v 0.5051719 5.476795 -1.664436
v -0.7698281 5.476795 -1.607435
v -3.131828 5.476795 -3.158435
v -3.556828 5.476795 -2.511436
v -8.225828 5.476795 4.596565
v -8.088828 5.476795 4.389565
v -8.088828 -5.476795 4.389565
v -8.225828 -5.476795 4.596565
v -3.556828 5.476795 -2.511436
v -3.131828 5.476795 -3.158435
v -3.131828 -5.476795 -3.158435
v -3.556828 -5.476795 -2.511436
v -8.088828 5.476795 4.389565
v -3.556828 5.476795 -2.511436
v -3.556828 -5.476795 -2.511436
v -8.088828 -5.476795 4.389565
v -8.225828 -5.476795 4.596565
v -1.846828 -5.476795 8.786565
v -1.846828 5.476795 8.786565
v -8.225828 5.476795 4.596565
v -1.846828 -5.476795 8.786565
v 1.188172 -5.476795 4.166564
v 1.188172 5.476795 4.166564
v -1.846828 5.476795 8.786565
v 1.188172 -5.476795 4.166564
v 1.861172 -5.476795 3.142565
v 1.861172 5.476795 3.142565
v 1.188172 5.476795 4.166564
v 1.861172 -5.476795 3.142565
v 5.784172 -5.476795 -2.830436
v 5.784172 5.476795 -2.830436
v 1.861172 5.476795 3.142565
v 5.784172 -5.476795 -2.830436
v 5.976172 -5.476795 -3.147435
v 5.976172 5.476795 -3.147435
v 5.784172 5.476795 -2.830436
v 5.976172 -5.476795 -3.147435
v 6.574172 -5.476795 -4.034435
v 6.574172 5.476795 -4.034435
v 5.976172 5.476795 -3.147435
v 7.478672 -5.476795 -5.439936
v 8.383172 -5.476795 -6.845436
v 8.383172 5.476795 -6.845436
v 6.574172 5.476795 -4.034435
v 6.574172 -5.476795 -4.034435
v 7.478672 -5.476795 -5.439936
v 6.574172 5.476795 -4.034435
v 7.478672 -5.476795 -5.439936
v 8.383172 5.476795 -6.845436
v 0.5051719 5.476795 -1.664436
v 2.834172 5.476795 -5.210435
v 2.834172 -5.476795 -5.210435
v 0.5051719 -5.476795 -1.664436
v -0.7698281 5.476795 -1.607435
v 0.5051719 5.476795 -1.664436
v 0.5051719 -5.476795 -1.664436
v -0.7698281 -5.476795 -1.607435
v -3.131828 5.476795 -3.158435
v -0.7698281 5.476795 -1.607435
v -0.7698281 -5.476795 -1.607435
v -3.131828 -5.476795 -3.158435
v 3.740172 5.476795 -9.876435
v 8.383172 5.476795 -6.845436
v 8.383172 -5.476795 -6.845436
v 3.740172 -5.476795 -9.876435
v 1.336172 5.476795 -6.194436
v 3.740172 5.476795 -9.876435
v 3.740172 -5.476795 -9.876435
v 1.336172 -5.476795 -6.194436
v 2.085172 -5.476795 -5.702435
v 2.834172 -5.476795 -5.210435
v 2.834172 5.476795 -5.210435
v 1.336172 5.476795 -6.194436
v 1.336172 -5.476795 -6.194436
v 2.085172 -5.476795 -5.702435
v 1.336172 5.476795 -6.194436
v 2.085172 -5.476795 -5.702435
v 2.834172 5.476795 -5.210435
v -3.556828 -5.476795 -2.511436
v -3.131828 -5.476795 -3.158435
v -0.7698281 -5.476795 -1.607435
v 0.5051719 -5.476795 -1.664436
v 2.834172 -5.476795 -5.210435
v 2.085172 -5.476795 -5.702435
v 1.336172 -5.476795 -6.194436
v 3.740172 -5.476795 -9.876435
v 8.383172 -5.476795 -6.845436
v 7.478672 -5.476795 -5.439936
v 6.574172 -5.476795 -4.034435
v 5.976172 -5.476795 -3.147435
v 5.784172 -5.476795 -2.830436
v 1.861172 -5.476795 3.142565
v 1.188172 -5.476795 4.166564
v -1.846828 -5.476795 8.786565
v -8.225828 -5.476795 4.596565
v -8.088828 -5.476795 4.389565
vt 0.175037 0.474758
vt 0.167053 0.478723
vt 0.002208 0.297829
vt 0.180413 0.209962
vt 0.219912 0.190478
vt 0.450323 0.076893
vt 0.462558 0.071327
vt 0.496770 0.054019
vt 0.605226 0.001623
vt 0.724481 0.133314
vt 0.582434 0.202923
vt 0.543722 0.160439
vt 0.406931 0.227870
vt 0.405168 0.264271
vt 0.466186 0.331256
vt 0.441229 0.343560
vt 0.028619 0.980948
vt 0.036573 0.977008
vt 0.010053 0.996063
vt 0.002208 0.999949
vt 0.301772 0.846641
vt 0.326637 0.834416
vt 0.296157 0.855417
vt 0.271632 0.867476
vt 0.036573 0.977008
vt 0.301772 0.846641
vt 0.271632 0.867476
vt 0.010053 0.996063
vt 0.788128 0.681221
vt 0.626932 0.503633
vt 0.650984 0.482143
vt 0.814409 0.662188
vt 0.002208 0.766824
vt 0.176635 0.682371
vt 0.200574 0.744891
vt 0.023761 0.830497
vt 0.176635 0.682371
vt 0.215298 0.663644
vt 0.239764 0.725908
vt 0.200574 0.744891
vt 0.215298 0.663644
vt 0.440822 0.554474
vt 0.468372 0.615248
vt 0.239764 0.725908
vt 0.440822 0.554474
vt 0.452792 0.549130
vt 0.480506 0.609831
vt 0.468372 0.615248
vt 0.452792 0.549130
vt 0.486283 0.532490
vt 0.514455 0.592963
vt 0.480506 0.609831
vt 0.539355 0.507316
vt 0.592427 0.482143
vt 0.622051 0.541929
vt 0.514455 0.592963
vt 0.486283 0.532490
vt 0.539355 0.507316
vt 0.514455 0.592963
vt 0.539355 0.507316
vt 0.622051 0.541929
vt 0.629925 0.900867
vt 0.765327 0.834416
vt 0.733995 0.857543
vt 0.600442 0.923087
vt 0.843267 0.834416
vt 0.843267 0.834416
vt 0.843267 0.834416
vt 0.843267 0.834416
vt 0.415777 0.962998
vt 0.357470 0.897183
vt 0.331126 0.834416
vt 0.388648 0.899344
vt 0.963396 0.671592
vt 0.848270 0.541698
vt 0.818985 0.482143
vt 0.932558 0.610287
vt 0.453509 0.903058
vt 0.594209 0.834416
vt 0.560412 0.857923
vt 0.421634 0.925628
vt 0.788971 0.877900
vt 0.770419 0.857389
vt 0.801177 0.834416
vt 0.838793 0.876005
vt 0.807523 0.898410
vt 0.788971 0.877900
vt 0.838793 0.876005
vt 0.788971 0.877900
vt 0.801177 0.834416
vt 0.854305 0.834416
vt 0.854305 0.834416
vt 0.854305 0.834416
vt 0.854305 0.834416
vt 0.854305 0.834416
vt 0.854305 0.834416
vt 0.854305 0.834416
vt 0.854305 0.834416
vt 0.854305 0.834416
vt 0.854305 0.834416
vt 0.854305 0.834416
vt 0.854305 0.834416
vt 0.854305 0.834416
vt 0.854305 0.834416
vt 0.854305 0.834416
vt 0.854305 0.834416
vt 0.854305 0.834416
vt 0.854305 0.834416
vn 0 1 0
vn 0 1 0
vn 0 1 0
vn 0 1 0
vn 0 1 0
vn 0 1 0
vn 0 1 0
vn 0 1 0
vn 0 1 0
vn 0 1 0
vn 0 1 0
vn 0 1 0
vn 0 1 0
vn 0 1 0
vn 0 1 0
vn 0 1 0
vn -0.8339049 0 -0.5519081
vn -0.8339049 0 -0.5519081
vn -0.8339049 0 -0.5519081
vn -0.8339049 0 -0.5519081
vn -0.8358071 0 -0.5490232
vn -0.8358071 0 -0.5490232
vn -0.8358071 0 -0.5490232
vn -0.8358071 0 -0.5490232
vn -0.835869 0 -0.5489289
vn -0.835869 0 -0.5489289
vn -0.835869 0 -0.5489289
vn -0.835869 0 -0.5489289
vn -0.5490027 0 0.8358206
vn -0.5490027 0 0.8358206
vn -0.5490027 0 0.8358206
vn -0.5490027 0 0.8358206
vn 0.8357885 0 0.5490515
vn 0.8357885 0 0.5490515
vn 0.8357885 0 0.5490515
vn 0.8357885 0 0.5490515
vn 0.8356734 0 0.5492268
vn 0.8356734 0 0.5492268
vn 0.8356734 0 0.5492268
vn 0.8356734 0 0.5492268
vn 0.8358412 0 0.5489712
vn 0.8358412 0 0.5489712
vn 0.8358412 0 0.5489712
vn 0.8358412 0 0.5489712
vn 0.8553427 0 0.5180625
vn 0.8553427 0 0.5180625
vn 0.8553427 0 0.5180625
vn 0.8553427 0 0.5180625
vn 0.8291628 0 0.5590072
vn 0.8291628 0 0.5590072
vn 0.8291628 0 0.5590072
vn 0.8291628 0 0.5590072
vn 0.8409159 0 0.5411658
vn 0.8409159 0 0.5411658
vn 0.8409159 0 0.5411658
vn 0.8409159 0 0.5411658
vn 0.8409159 0 0.5411658
vn 0.8409159 0 0.5411658
vn 0.8409159 -2.300615E-11 0.5411658
vn 0.8409159 -2.300615E-11 0.5411658
vn 0.8409159 -2.300615E-11 0.5411658
vn -0.8358384 0 -0.5489756
vn -0.8358384 0 -0.5489756
vn -0.8358384 0 -0.5489756
vn -0.8358384 0 -0.5489756
vn -0.04466128 0 -0.9990022
vn -0.04466128 0 -0.9990022
vn -0.04466128 0 -0.9990022
vn -0.04466128 0 -0.9990022
vn 0.5488883 0 -0.8358957
vn 0.5488883 0 -0.8358957
vn 0.5488883 0 -0.8358957
vn 0.5488883 0 -0.8358957
vn 0.5466418 0 -0.8373665
vn 0.5466418 0 -0.8373665
vn 0.5466418 0 -0.8373665
vn 0.5466418 0 -0.8373665
vn -0.83733 0 -0.5466978
vn -0.83733 0 -0.5466978
vn -0.83733 0 -0.5466978
vn -0.83733 0 -0.5466978
vn -0.549022 0 0.8358079
vn -0.549022 0 0.8358079
vn -0.549022 0 0.8358079
vn -0.549022 0 0.8358079
vn -0.549022 0 0.8358079
vn -0.549022 0 0.8358079
vn -0.549022 -3.553205E-11 0.8358079
vn -0.549022 -3.553205E-11 0.8358079
vn -0.549022 -3.553205E-11 0.8358079
vn 0 -1 0
vn 0 -1 0
vn 0 -1 0
vn 0 -1 0
vn 0 -1 0
vn 0 -1 0
vn 0 -1 0
vn 0 -1 0
vn 0 -1 0
vn 0 -1 0
vn 0 -1 0
vn 0 -1 0
vn 0 -1 0
vn 0 -1 0
vn 0 -1 0
vn 0 -1 0
vn 0 -1 0
vn 0 -1 0

g CDNNDG02_0000250
f 13/13/13 14/14/14 5/5/5
f 15/15/15 16/16/16 14/14/14
f 16/16/16 1/1/1 14/14/14
f 14/14/14 1/1/1 4/4/4
f 3/3/3 1/1/1 2/2/2
f 13/13/13 5/5/5 6/6/6
f 4/4/4 1/1/1 3/3/3
f 12/12/12 6/6/6 7/7/7
f 9/9/9 12/12/12 8/8/8
f 12/12/12 7/7/7 8/8/8
f 11/11/11 12/12/12 10/10/10
f 12/12/12 9/9/9 10/10/10
f 5/5/5 14/14/14 4/4/4
f 12/12/12 13/13/13 6/6/6
f 17/17/17 18/18/18 19/19/19
f 20/20/20 17/17/17 19/19/19
f 21/21/21 23/23/23 24/24/24
f 21/21/21 22/22/22 23/23/23
f 25/25/25 27/27/27 28/28/28
f 25/25/25 26/26/26 27/27/27
f 32/32/32 29/29/29 31/31/31
f 31/31/31 29/29/29 30/30/30
f 34/34/34 35/35/35 36/36/36
f 33/33/33 34/34/34 36/36/36
f 38/38/38 39/39/39 40/40/40
f 37/37/37 38/38/38 40/40/40
f 42/42/42 43/43/43 44/44/44
f 41/41/41 42/42/42 44/44/44
f 46/46/46 47/47/47 45/45/45
f 45/45/45 47/47/47 48/48/48
f 50/50/50 51/51/51 49/49/49
f 49/49/49 51/51/51 52/52/52
f 53/53/53 54/54/54 55/55/55
f 56/56/56 57/57/57 58/58/58
f 59/59/59 60/60/60 61/61/61
f 62/62/62 64/64/64 65/65/65
f 62/62/62 63/63/63 64/64/64
f 67/67/67 68/68/68 66/66/66
f 66/66/66 68/68/68 69/69/69
f 72/72/72 70/70/70 71/71/71
f 70/70/70 72/72/72 73/73/73
f 74/74/74 76/76/76 77/77/77
f 74/74/74 75/75/75 76/76/76
f 78/78/78 80/80/80 81/81/81
f 78/78/78 79/79/79 80/80/80
f 82/82/82 83/83/83 84/84/84
f 85/85/85 86/86/86 87/87/87
f 88/88/88 89/89/89 90/90/90
f 108/108/108 93/93/93 105/105/105
f 91/91/91 92/92/92 93/93/93
f 108/108/108 91/91/91 93/93/93
f 100/100/100 95/95/95 98/98/98
f 106/106/106 107/107/107 108/108/108
f 93/93/93 104/104/104 105/105/105
f 94/94/94 104/104/104 93/93/93
f 96/96/96 98/98/98 95/95/95
f 97/97/97 98/98/98 96/96/96
f 105/105/105 106/106/106 108/108/108
f 99/99/99 100/100/100 98/98/98
f 104/104/104 94/94/94 103/103/103
f 103/103/103 94/94/94 95/95/95
f 100/100/100 101/101/101 95/95/95
f 101/101/101 102/102/102 95/95/95
f 102/102/102 103/103/103 95/95/95
