v -0.9070826 4.921671 -6.5547
v -6.007082 4.921671 2.8673
v 0.8839174 4.921671 6.5973
v 5.984917 4.921671 -2.824701
v 2.815917 4.921671 -4.539701
v 3.054917 4.921671 -4.9817
v 2.423917 4.921671 -5.3237
v 2.184917 4.921671 -4.881701
v 2.815917 -4.921671 -4.539701
v 3.054917 -4.921671 -4.9817
v 3.054917 4.921671 -4.9817
v 2.815917 4.921671 -4.539701
v 2.423917 4.921671 -5.3237
v 3.054917 4.921671 -4.9817
v 3.054917 -4.921671 -4.9817
v 2.423917 -4.921671 -5.3237
v 2.184917 4.921671 -4.881701
v 2.423917 4.921671 -5.3237
v 2.423917 -4.921671 -5.3237
v 2.184917 -4.921671 -4.881701
v -6.007082 -4.921671 2.8673
v 0.8839174 -4.921671 6.5973
v 0.8839174 4.921671 6.5973
v -6.007082 4.921671 2.8673
v 0.8839174 -4.921671 6.5973
v 5.984917 -4.921671 -2.824701
v 5.984917 4.921671 -2.824701
v 0.8839174 4.921671 6.5973
v 2.815917 4.921671 -4.539701
v 5.984917 4.921671 -2.824701
v 5.984917 -4.921671 -2.824701
v 2.815917 -4.921671 -4.539701
v -0.9070826 4.921671 -6.5547
v 2.184917 4.921671 -4.881701
v 2.184917 -4.921671 -4.881701
v -0.9070826 -4.921671 -6.5547
v -6.007082 4.921671 2.8673
v -0.9070826 4.921671 -6.5547
v -0.9070826 -4.921671 -6.5547
v -6.007082 -4.921671 2.8673
v 2.184917 -4.921671 -4.881701
v 2.423917 -4.921671 -5.3237
v 3.054917 -4.921671 -4.9817
v 2.815917 -4.921671 -4.539701
v 5.984917 -4.921671 -2.824701
v 0.8839174 -4.921671 6.5973
v -6.007082 -4.921671 2.8673
v -0.9070826 -4.921671 -6.5547
vt 0.576505 0.220676
vt 0.164857 0.381376
vt 0.002564 0.162609
vt 0.414219 0.001862
vt 0.488837 0.102476
vt 0.508149 0.094945
vt 0.523029 0.114979
vt 0.503717 0.122510
vt 0.347910 0.978041
vt 0.329093 0.985577
vt 0.143590 0.888447
vt 0.162634 0.880819
vt 0.017267 0.998517
vt 0.002564 0.978737
vt 0.121961 0.880819
vt 0.136488 0.900365
vt 0.353846 0.888102
vt 0.372994 0.880819
vt 0.491676 0.949038
vt 0.472756 0.956234
vt 0.766147 0.001862
vt 0.931088 0.216648
vt 0.748995 0.286765
vt 0.582051 0.069381
vt 0.592819 0.484477
vt 0.188435 0.646989
vt 0.002564 0.549951
vt 0.411825 0.385475
vt 0.815171 0.849139
vt 0.741026 0.749186
vt 0.862208 0.651769
vt 0.935468 0.750532
vt 0.615904 0.848133
vt 0.543590 0.750613
vt 0.663690 0.651769
vt 0.735141 0.748129
vt 0.002564 0.809657
vt 0.416295 0.651769
vt 0.535975 0.719815
vt 0.127173 0.875817
vt 0.497436 0.880819
vt 0.497436 0.880819
vt 0.497436 0.880819
vt 0.497436 0.880819
vt 0.497436 0.880819
vt 0.497436 0.880819
vt 0.497436 0.880819
vt 0.497436 0.880819
vn 0 1 0
vn 0 1 0
vn 0 1 0
vn 0 1 0
vn 0 1 0
vn 0 1 0
vn 0 1 0
vn 0 1 0
vn 0.879639 0 0.4756419
vn 0.879639 0 0.4756419
vn 0.879639 0 0.4756419
vn 0.879639 0 0.4756419
vn 0.4765075 0 -0.8791704
vn 0.4765075 0 -0.8791704
vn 0.4765075 0 -0.8791704
vn 0.4765075 0 -0.8791704
vn -0.879639 0 -0.4756419
vn -0.879639 0 -0.4756419
vn -0.879639 0 -0.4756419
vn -0.879639 0 -0.4756419
vn -0.4760241 0 0.8794322
vn -0.4760241 0 0.8794322
vn -0.4760241 0 0.8794322
vn -0.4760241 0 0.8794322
vn 0.8793929 0 0.4760967
vn 0.8793929 0 0.4760967
vn 0.8793929 0 0.4760967
vn 0.8793929 0 0.4760967
vn 0.4759523 0 -0.8794711
vn 0.4759523 0 -0.8794711
vn 0.4759523 0 -0.8794711
vn 0.4759523 0 -0.8794711
vn 0.4758799 0 -0.8795103
vn 0.4758799 0 -0.8795103
vn 0.4758799 0 -0.8795103
vn 0.4758799 0 -0.8795103
vn -0.879432 0 -0.4760245
vn -0.879432 0 -0.4760245
vn -0.879432 0 -0.4760245
vn -0.879432 0 -0.4760245
vn 0 -1 0
vn 0 -1 0
vn 0 -1 0
vn 0 -1 0
vn 0 -1 0
vn 0 -1 0
vn 0 -1 0
vn 0 -1 0

g CDNNDG01_0000450
f 8/8/8 5/5/5 6/6/6
f 5/5/5 2/2/2 3/3/3
f 8/8/8 1/1/1 2/2/2
f 6/6/6 7/7/7 8/8/8
f 5/5/5 3/3/3 4/4/4
f 5/5/5 8/8/8 2/2/2
f 10/10/10 11/11/11 9/9/9
f 9/9/9 11/11/11 12/12/12
f 13/13/13 15/15/15 16/16/16
f 13/13/13 14/14/14 15/15/15
f 17/17/17 19/19/19 20/20/20
f 17/17/17 18/18/18 19/19/19
f 24/24/24 21/21/21 23/23/23
f 23/23/23 21/21/21 22/22/22
f 28/28/28 25/25/25 27/27/27
f 26/26/26 27/27/27 25/25/25
f 31/31/31 29/29/29 30/30/30
f 29/29/29 31/31/31 32/32/32
f 35/35/35 33/33/33 34/34/34
f 33/33/33 35/35/35 36/36/36
f 37/37/37 39/39/39 40/40/40
f 37/37/37 38/38/38 39/39/39
f 41/41/41 47/47/47 48/48/48
f 44/44/44 46/46/46 47/47/47
f 43/43/43 41/41/41 42/42/42
f 47/47/47 41/41/41 44/44/44
f 46/46/46 44/44/44 45/45/45
f 41/41/41 43/43/43 44/44/44
