v -8.084698 6.085444 6.149752
v -5.057698 6.085444 8.174752
v -7.196698 6.085444 4.785752
v -7.196698 6.085444 4.785752
v -5.057698 6.085444 8.174752
v -6.398698 6.085444 3.559752
v -5.265698 6.085444 8.493752
v -2.065698 6.085444 10.57675
v -1.860698 6.085444 10.26075
v -5.057698 6.085444 8.174752
v -8.109697 6.085444 6.187752
v -5.057698 6.085444 8.174752
v -8.084698 6.085444 6.149752
v -6.398698 6.085444 3.559752
v 1.430302 6.085444 2.555752
v 0.4733023 6.085444 -6.999248
v -5.057698 6.085444 8.174752
v -1.860698 6.085444 10.26075
v -0.6306977 6.085444 9.139751
v 0.4733023 6.085444 -6.999248
v 3.060302 6.085444 -10.43325
v 2.813302 6.085444 -10.59425
v -1.860698 6.085444 10.26075
v -1.509698 6.085444 10.48875
v -0.6306977 6.085444 9.139751
v -5.057698 6.085444 8.174752
v -1.163698 6.085444 8.792752
v -0.4974994 6.085444 7.769307
v -5.057698 6.085444 8.174752
v -0.6306977 6.085444 9.139751
v -1.163698 6.085444 8.792752
v 0.4733023 6.085444 -6.999248
v 5.388302 6.085444 -8.917248
v 3.060302 6.085444 -10.43325
v -6.398698 6.085444 3.559752
v -5.057698 6.085444 8.174752
v -0.4974994 6.085444 7.769307
v -6.398698 6.085444 3.559752
v -0.4974994 6.085444 7.769307
v -0.2336424 6.085444 7.363957
v 0.3073023 6.085444 7.697752
v 2.992302 6.085444 3.572752
v 1.430302 6.085444 2.555752
v -6.398698 6.085444 3.559752
v -0.2256977 6.085444 7.351752
v 1.430302 6.085444 2.555752
v -0.2256977 6.085444 7.351752
v 0.3073023 6.085444 7.697752
v 1.430302 6.085444 2.555752
v -6.398698 6.085444 3.559752
v -0.2336424 6.085444 7.363957
v -0.2256977 6.085444 7.351752
v 0.4733023 6.085444 -6.999248
v 7.854302 6.085444 -7.312248
v 5.388302 6.085444 -8.917248
v 0.4733023 6.085444 -6.999248
v 1.430302 6.085444 2.555752
v 7.854302 6.085444 -7.312248
v -1.163698 7.190444 8.792752
v -0.6306977 7.190444 9.139751
v -0.2256977 7.190444 7.351752
v -0.6306977 7.190444 9.139751
v 0.3073023 7.189444 7.697752
v -0.2256977 7.190444 7.351752
v 3.060302 5.562444 -10.43325
v 6.330302 5.189444 -10.36525
v 4.002302 5.189444 -11.88025
v 3.060302 5.562444 -10.43325
v 5.388302 5.561444 -8.917248
v 6.330302 5.189444 -10.36525
v -5.265698 -6.072168 8.493752
v -2.065698 -6.072168 10.57675
v -2.065698 6.085444 10.57675
v -5.265698 6.085444 8.493752
v -1.963198 -6.072168 10.41875
v -1.860698 -6.072168 10.26075
v -1.860698 6.085444 10.26075
v -2.065698 6.085444 10.57675
v -2.065698 -6.072168 10.57675
v -1.963198 -6.072168 10.41875
v -2.065698 6.085444 10.57675
v -1.963198 -6.072168 10.41875
v -1.860698 6.085444 10.26075
v -1.685198 -6.072168 10.37475
v -1.509698 -6.072168 10.48875
v -1.509698 6.085444 10.48875
v -1.860698 6.085444 10.26075
v -1.860698 -6.072168 10.26075
v -1.685198 -6.072168 10.37475
v -1.860698 6.085444 10.26075
v -1.685198 -6.072168 10.37475
v -1.509698 6.085444 10.48875
v -1.509698 -6.072168 10.48875
v -0.6306977 -6.072168 9.139751
v -0.6306977 6.085444 9.139751
v -1.509698 6.085444 10.48875
v -0.6306977 -6.072168 9.139751
v 0.3073023 -6.072168 7.697752
v 0.3073023 6.085444 7.697752
v -0.6306977 6.085444 9.139751
v 0.3073023 -6.072168 7.697752
v 2.992302 -6.072168 3.572752
v 2.992302 6.085444 3.572752
v 0.3073023 6.085444 7.697752
v -0.6306977 6.085444 9.139751
v 0.3073023 6.085444 7.697752
v 0.3073023 7.189444 7.697752
v -0.6306977 7.190444 9.139751
v 1.430302 6.085444 2.555752
v 2.992302 6.085444 3.572752
v 2.992302 -6.072168 3.572752
v 1.430302 -6.072168 2.555752
v 1.430302 -6.072168 2.555752
v 7.854302 -6.072168 -7.312248
v 7.854302 6.085444 -7.312248
v 1.430302 6.085444 2.555752
v 5.388302 6.085444 -8.917248
v 7.854302 6.085444 -7.312248
v 5.388302 5.561444 -8.917248
v 5.388302 5.561444 -8.917248
v 7.854302 6.085444 -7.312248
v 7.854302 -6.072168 -7.312248
v 5.388302 -6.072168 -8.917248
v 3.060302 6.085444 -10.43325
v 5.388302 6.085444 -8.917248
v 5.388302 5.561444 -8.917248
v 3.060302 5.562444 -10.43325
v 2.813302 6.085444 -10.59425
v 3.060302 5.562444 -10.43325
v 3.060302 -6.072168 -10.43325
v 2.813302 -6.072168 -10.59425
v 2.813302 6.085444 -10.59425
v 3.060302 6.085444 -10.43325
v 3.060302 5.562444 -10.43325
v 0.4733023 6.085444 -6.999248
v 2.813302 6.085444 -10.59425
v 2.813302 -6.072168 -10.59425
v 0.4733023 -6.072168 -6.999248
v -6.398698 6.085444 3.559752
v 0.4733023 6.085444 -6.999248
v 0.4733023 -6.072168 -6.999248
v -6.398698 -6.072168 3.559752
v -7.196698 6.085444 4.785752
v -6.398698 6.085444 3.559752
v -6.398698 -6.072168 3.559752
v -7.196698 -6.072168 4.785752
v -8.084698 6.085444 6.149752
v -7.640698 -6.072168 5.467752
v -8.084698 -6.072168 6.149752
v -7.640698 -6.072168 5.467752
v -7.196698 6.085444 4.785752
v -7.196698 -6.072168 4.785752
v -8.084698 6.085444 6.149752
v -7.196698 6.085444 4.785752
v -7.640698 -6.072168 5.467752
v -8.109697 6.085444 6.187752
v -8.084698 6.085444 6.149752
v -8.084698 -6.072168 6.149752
v -8.109697 -6.072168 6.187752
v -8.109697 -6.072168 6.187752
v -5.057698 -6.072168 8.174752
v -5.057698 6.085444 8.174752
v -8.109697 6.085444 6.187752
v -5.265698 6.085444 8.493752
v -5.057698 6.085444 8.174752
v -5.057698 -6.072168 8.174752
v -5.265698 -6.072168 8.493752
v -0.2256977 7.190444 7.351752
v 0.3073023 7.189444 7.697752
v 0.3073023 6.085444 7.697752
v -0.2256977 6.085444 7.351752
v -1.163698 7.190444 8.792752
v -0.2256977 7.190444 7.351752
v -0.4974994 6.085444 7.769307
v -1.163698 6.085444 8.792752
v -0.2336424 6.085444 7.363957
v -0.2256977 7.190444 7.351752
v -0.2256977 6.085444 7.351752
v -0.4974994 6.085444 7.769307
v -0.2256977 7.190444 7.351752
v -0.2336424 6.085444 7.363957
v -1.163698 6.085444 8.792752
v -0.6306977 6.085444 9.139751
v -0.6306977 7.190444 9.139751
v -1.163698 7.190444 8.792752
v 5.859302 -6.072168 -9.641248
v 6.330302 -6.072168 -10.36525
v 6.330302 5.189444 -10.36525
v 5.388302 5.561444 -8.917248
v 5.388302 -6.072168 -8.917248
v 5.859302 -6.072168 -9.641248
v 5.388302 5.561444 -8.917248
v 5.859302 -6.072168 -9.641248
v 6.330302 5.189444 -10.36525
v 4.002302 5.189444 -11.88025
v 6.330302 5.189444 -10.36525
v 6.330302 -6.072168 -10.36525
v 4.002302 -6.072168 -11.88025
v 3.060302 5.562444 -10.43325
v 4.002302 5.189444 -11.88025
v 4.002302 -6.072168 -11.88025
v 3.060302 -6.072168 -10.43325
v -8.109697 -6.072168 6.187752
v -8.084698 -6.072168 6.149752
v -7.640698 -6.072168 5.467752
v -7.196698 -6.072168 4.785752
v -6.398698 -6.072168 3.559752
v 0.4733023 -6.072168 -6.999248
v 2.813302 -6.072168 -10.59425
v 3.060302 -6.072168 -10.43325
v 4.002302 -6.072168 -11.88025
v 6.330302 -6.072168 -10.36525
v 5.859302 -6.072168 -9.641248
v 5.388302 -6.072168 -8.917248
v 7.854302 -6.072168 -7.312248
v 1.430302 -6.072168 2.555752
v 2.992302 -6.072168 3.572752
v 0.3073023 -6.072168 7.697752
v -0.6306977 -6.072168 9.139751
v -1.509698 -6.072168 10.48875
v -1.685198 -6.072168 10.37475
v -1.860698 -6.072168 10.26075
v -1.963198 -6.072168 10.41875
v -2.065698 -6.072168 10.57675
v -5.265698 -6.072168 8.493752
v -5.057698 -6.072168 8.174752
vt 0.156362 0.393005
vt 0.086092 0.315243
vt 0.206843 0.371650
vt 0.206843 0.371650
vt 0.086092 0.315243
vt 0.252217 0.352459
vt 0.074285 0.320245
vt 0.002092 0.238078
vt 0.013787 0.233149
vt 0.086092 0.315243
vt 0.154956 0.393607
vt 0.086092 0.315243
vt 0.156362 0.393005
vt 0.252217 0.352459
vt 0.297103 0.155968
vt 0.643023 0.187188
vt 0.086092 0.315243
vt 0.013787 0.233149
vt 0.055813 0.202994
vt 0.643023 0.187188
vt 0.770508 0.124564
vt 0.776088 0.130907
vt 0.013787 0.233149
vt 0.005885 0.224136
vt 0.055813 0.202994
vt 0.086092 0.315243
vt 0.067840 0.216681
vt 0.105719 0.200658
vt 0.086092 0.315243
vt 0.055813 0.202994
vt 0.067840 0.216681
vt 0.643023 0.187188
vt 0.717974 0.064782
vt 0.770508 0.124564
vt 0.252217 0.352459
vt 0.086092 0.315243
vt 0.105719 0.200658
vt 0.252217 0.352459
vt 0.105719 0.200658
vt 0.120721 0.194312
vt 0.109183 0.180435
vt 0.261856 0.115856
vt 0.297103 0.155968
vt 0.252217 0.352459
vt 0.121173 0.194121
vt 0.297103 0.155968
vt 0.121173 0.194121
vt 0.109183 0.180435
vt 0.297103 0.155968
vt 0.252217 0.352459
vt 0.120721 0.194312
vt 0.121173 0.194121
vt 0.643023 0.187188
vt 0.662355 0.001453
vt 0.717974 0.064782
vt 0.643023 0.187188
vt 0.297103 0.155968
vt 0.662355 0.001453
vt 0.421740 0.952182
vt 0.410042 0.938955
vt 0.473618 0.930380
vt 0.410042 0.938955
vt 0.461954 0.917151
vt 0.473618 0.930380
vt 0.053703 0.999123
vt 0.054224 0.917151
vt 0.105774 0.976055
vt 0.053703 0.999123
vt 0.002092 0.940190
vt 0.054224 0.917151
vt 0.586472 0.875862
vt 0.512552 0.796056
vt 0.517595 0.736919
vt 0.592649 0.817950
vt 0.484213 0.919477
vt 0.489347 0.917151
vt 0.494508 0.941954
vt 0.484085 0.946677
vt 0.479079 0.921804
vt 0.484213 0.919477
vt 0.484085 0.946677
vt 0.484213 0.919477
vt 0.494508 0.941954
vt 0.256695 0.980201
vt 0.253138 0.975871
vt 0.257613 0.917151
vt 0.264835 0.925945
vt 0.260251 0.984532
vt 0.256695 0.980201
vt 0.264835 0.925945
vt 0.256695 0.980201
vt 0.257613 0.917151
vt 0.682008 0.842813
vt 0.730932 0.822137
vt 0.737317 0.847391
vt 0.687651 0.868381
vt 0.730932 0.822137
vt 0.783228 0.800074
vt 0.790406 0.824995
vt 0.737317 0.847391
vt 0.783228 0.800074
vt 0.932830 0.736919
vt 0.942277 0.760882
vt 0.790406 0.824995
vt 0.737317 0.847391
vt 0.790406 0.824995
vt 0.791068 0.827295
vt 0.737907 0.849725
vt 0.312700 0.980204
vt 0.278964 0.940839
vt 0.269874 0.917151
vt 0.303106 0.955928
vt 0.002092 0.888447
vt 0.360855 0.736919
vt 0.376291 0.759247
vt 0.012087 0.913073
vt 0.450895 0.822173
vt 0.396025 0.759216
vt 0.450191 0.821157
vt 0.450191 0.821157
vt 0.396025 0.759216
vt 0.380753 0.736919
vt 0.434803 0.798936
vt 0.502721 0.881606
vt 0.450895 0.822173
vt 0.450191 0.821157
vt 0.501985 0.880553
vt 0.508226 0.887912
vt 0.501985 0.880553
vt 0.485856 0.857481
vt 0.491278 0.863693
vt 0.508226 0.887912
vt 0.502721 0.881606
vt 0.501985 0.880553
vt 0.493239 0.456711
vt 0.625074 0.396802
vt 0.608181 0.458201
vt 0.478338 0.517203
vt 0.106049 0.632634
vt 0.493239 0.456711
vt 0.478338 0.517203
vt 0.096997 0.690466
vt 0.061095 0.653062
vt 0.106049 0.632634
vt 0.096997 0.690466
vt 0.052722 0.710585
vt 0.011081 0.675793
vt 0.028093 0.721779
vt 0.003464 0.732972
vt 0.028093 0.721779
vt 0.061095 0.653062
vt 0.052722 0.710585
vt 0.011081 0.675793
vt 0.061095 0.653062
vt 0.028093 0.721779
vt 0.009688 0.676433
vt 0.011081 0.675793
vt 0.003464 0.732972
vt 0.002092 0.733602
vt 0.668790 0.870979
vt 0.598326 0.794892
vt 0.604672 0.736919
vt 0.676216 0.814174
vt 0.323623 0.922377
vt 0.334055 0.917151
vt 0.328266 0.974416
vt 0.317992 0.979563
vt 0.584114 0.931894
vt 0.573794 0.919283
vt 0.573222 0.917151
vt 0.583527 0.929743
vt 0.500548 0.940152
vt 0.551596 0.917151
vt 0.536205 0.929129
vt 0.500000 0.945442
vt 0.550545 0.922668
vt 0.551596 0.917151
vt 0.550977 0.922473
vt 0.536205 0.929129
vt 0.551596 0.917151
vt 0.550545 0.922668
vt 0.567477 0.934990
vt 0.556485 0.922327
vt 0.556958 0.917151
vt 0.567965 0.929833
vt 0.364579 0.927991
vt 0.390247 0.917151
vt 0.405642 0.937854
vt 0.354078 0.960541
vt 0.338912 0.938830
vt 0.364579 0.927991
vt 0.354078 0.960541
vt 0.364579 0.927991
vt 0.405642 0.937854
vt 0.177261 0.997029
vt 0.126273 0.938162
vt 0.110879 0.917151
vt 0.161161 0.975204
vt 0.197644 0.939027
vt 0.248707 0.917151
vt 0.232858 0.973606
vt 0.182008 0.997035
vt 0.589958 0.917151
vt 0.589958 0.917151
vt 0.589958 0.917151
vt 0.589958 0.917151
vt 0.589958 0.917151
vt 0.589958 0.917151
vt 0.589958 0.917151
vt 0.589958 0.917151
vt 0.589958 0.917151
vt 0.589958 0.917151
vt 0.589958 0.917151
vt 0.589958 0.917151
vt 0.589958 0.917151
vt 0.589958 0.917151
vt 0.589958 0.917151
vt 0.589958 0.917151
vt 0.589958 0.917151
vt 0.589958 0.917151
vt 0.589958 0.917151
vt 0.589958 0.917151
vt 0.589958 0.917151
vt 0.589958 0.917151
vt 0.589958 0.917151
vt 0.589958 0.917151
vn 0 1 0
vn 0 1 0
vn 0 1 0
vn 0 1 0
vn 0 1 0
vn 0 1 0
vn 0 1 0
vn 0 1 0
vn 0 1 0
vn 0 1 0
vn 0 1 0
vn 0 1 0
vn 0 1 0
vn 0 1 0
vn 0 1 0
vn 0 1 0
vn 0 1 0
vn 0 1 0
vn 0 1 0
vn 0 1 0
vn 0 1 0
vn 0 1 0
vn 0 1 0
vn 0 1 0
vn 0 1 0
vn 0 1 0
vn 0 1 0
vn 0 1 0
vn 0 1 0
vn 0 1 0
vn 0 1 0
vn 0 1 0
vn 0 1 0
vn 0 1 0
vn 0 1 0
vn 0 1 0
vn 0 1 0
vn 0 1 0
vn 0 1 0
vn 0 1 0
vn 0 1 0
vn 0 1 0
vn 0 1 0
vn 0 1 0
vn 0 1 0
vn 0 1 0
vn 0 1 0
vn 0 1 0
vn 0 1 0
vn 0 1 0
vn 0 1 0
vn 0 1 0
vn 0 1 0
vn 0 1 0
vn 0 1 0
vn 0 1 0
vn 0 1 0
vn 0 1 0
vn 0 1 0
vn 0 1 0
vn 0 1 0
vn 0.001635662 0.9999986 0.0003704939
vn 0.001635662 0.9999986 0.0003704939
vn 0.001635662 0.9999986 0.0003704939
vn 0.1151756 0.9774516 -0.1769827
vn 0.1151756 0.9774516 -0.1769827
vn 0.1151756 0.9774516 -0.1769827
vn 0.1151755 0.9775892 -0.1762209
vn 0.1151755 0.9775892 -0.1762209
vn 0.1151755 0.9775892 -0.1762209
vn -0.5455406 0 0.8380844
vn -0.5455406 0 0.8380844
vn -0.5455406 0 0.8380844
vn -0.5455406 0 0.8380844
vn 0.8389285 0 0.5442416
vn 0.8389285 0 0.5442416
vn 0.8389285 0 0.5442416
vn 0.8389285 0 0.5442416
vn 0.8389285 0 0.5442416
vn 0.8389285 0 0.5442416
vn 0.8389285 1.883727E-11 0.5442416
vn 0.8389285 1.883727E-11 0.5442416
vn 0.8389285 1.883727E-11 0.5442416
vn -0.5447364 0 0.8386073
vn -0.5447364 0 0.8386073
vn -0.5447364 0 0.8386073
vn -0.5447364 0 0.8386073
vn -0.5447364 0 0.8386073
vn -0.5447364 0 0.8386073
vn -0.5447364 -1.304032E-12 0.8386073
vn -0.5447364 -1.304032E-12 0.8386073
vn -0.5447364 -1.304032E-12 0.8386073
vn 0.8378329 0 0.5459267
vn 0.8378329 0 0.5459267
vn 0.8378329 0 0.5459267
vn 0.8378329 0 0.5459267
vn 0.8382576 0 0.5452744
vn 0.8382576 0 0.5452744
vn 0.8382576 0 0.5452744
vn 0.8382576 0 0.5452744
vn 0.8380953 0 0.5455238
vn 0.8380953 0 0.5455238
vn 0.8380953 0 0.5455238
vn 0.8380953 0 0.5455238
vn 0.8382576 0 0.5452744
vn 0.8382576 0 0.5452744
vn 0.8382576 0 0.5452744
vn 0.8382576 0 0.5452744
vn 0.5456294 0 -0.8380266
vn 0.5456294 0 -0.8380266
vn 0.5456294 0 -0.8380266
vn 0.5456294 0 -0.8380266
vn 0.8380631 0 0.5455733
vn 0.8380631 0 0.5455733
vn 0.8380631 0 0.5455733
vn 0.8380631 0 0.5455733
vn 0.54549 0 -0.8381174
vn 0.54549 0 -0.8381174
vn 0.54549 0 -0.8381174
vn 0.54549 0 -0.8381174
vn 0.54549 0 -0.8381174
vn 0.54549 0 -0.8381174
vn 0.54549 0 -0.8381174
vn 0.5456967 0 -0.8379828
vn 0.5456967 0 -0.8379828
vn 0.5456967 0 -0.8379828
vn 0.5456967 0 -0.8379828
vn 0.5460609 0 -0.8377455
vn 0.5460609 0 -0.8377455
vn 0.5460609 0 -0.8377455
vn 0.5460609 0 -0.8377455
vn 0.5460609 0 -0.8377455
vn 0.5460609 0 -0.8377455
vn 0.5460609 0 -0.8377455
vn -0.8380972 0 -0.5455208
vn -0.8380972 0 -0.5455208
vn -0.8380972 0 -0.5455208
vn -0.8380972 0 -0.5455208
vn -0.8381298 0 -0.545471
vn -0.8381298 0 -0.545471
vn -0.8381298 0 -0.545471
vn -0.8381298 0 -0.545471
vn -0.8380998 0 -0.5455168
vn -0.8380998 0 -0.5455168
vn -0.8380998 0 -0.5455168
vn -0.8380998 0 -0.5455168
vn -0.8380504 0 -0.5455929
vn -0.8380504 0 -0.5455929
vn -0.8380504 0 -0.5455929
vn -0.8380504 0 -0.5455929
vn -0.8380504 0 -0.5455929
vn -0.8380504 0 -0.5455929
vn -0.8380504 2.006187E-12 -0.5455929
vn -0.8380504 2.006187E-12 -0.5455929
vn -0.8380504 2.006187E-12 -0.5455929
vn -0.8354171 0 -0.5496165
vn -0.8354171 0 -0.5496165
vn -0.8354171 0 -0.5496165
vn -0.8354171 0 -0.5496165
vn -0.5456059 0 0.8380419
vn -0.5456059 0 0.8380419
vn -0.5456059 0 0.8380419
vn -0.5456059 0 0.8380419
vn -0.8376628 0 -0.5461877
vn -0.8376628 0 -0.5461877
vn -0.8376628 0 -0.5461877
vn -0.8376628 0 -0.5461877
vn 0.5444905 0 -0.8387671
vn 0.5444905 0 -0.8387671
vn 0.5444905 0 -0.8387671
vn 0.5444905 0 -0.8387671
vn -0.8380846 3.435524E-10 -0.5455402
vn -0.8380846 6.871047E-10 -0.5455402
vn -0.8380846 3.435524E-10 -0.5455402
vn -0.8380846 0 -0.5455402
vn -0.8380846 0 -0.5455403
vn -0.8380846 0 -0.5455403
vn -0.8380846 0 -0.5455403
vn -0.8380846 1.864413E-09 -0.5455402
vn -0.8380846 1.864413E-09 -0.5455402
vn -0.8380846 1.864413E-09 -0.5455402
vn -0.5455961 0 0.8380482
vn -0.5455961 0 0.8380482
vn -0.5455961 0 0.8380482
vn -0.5455961 0 0.8380482
vn 0.8382319 0 0.5453139
vn 0.8382319 0 0.5453139
vn 0.8382319 0 0.5453139
vn 0.8382319 0 0.5453139
vn 0.8382319 0 0.5453139
vn 0.8382319 0 0.5453139
vn 0.8382319 -2.431313E-11 0.5453139
vn 0.8382319 -2.431313E-11 0.5453139
vn 0.8382319 -2.431313E-11 0.5453139
vn 0.5454438 0 -0.8381473
vn 0.5454438 0 -0.8381473
vn 0.5454438 0 -0.8381473
vn 0.5454438 0 -0.8381473
vn -0.8380597 0 -0.5455786
vn -0.8380597 0 -0.5455786
vn -0.8380597 0 -0.5455786
vn -0.8380597 0 -0.5455786
vn 0 -1 0
vn 0 -1 0
vn 0 -1 0
vn 0 -1 0
vn 0 -1 0
vn 0 -1 0
vn 0 -1 0
vn 0 -1 0
vn 0 -1 0
vn 0 -1 0
vn 0 -1 0
vn 0 -1 0
vn 0 -1 0
vn 0 -1 0
vn 0 -1 0
vn 0 -1 0
vn 0 -1 0
vn 0 -1 0
vn 0 -1 0
vn 0 -1 0
vn 0 -1 0
vn 0 -1 0
vn 0 -1 0
vn 0 -1 0

g CDNNDG02_0012360
f 1/1/1 2/2/2 3/3/3
f 4/4/4 5/5/5 6/6/6
f 10/10/10 7/7/7 9/9/9
f 9/9/9 7/7/7 8/8/8
f 11/11/11 12/12/12 13/13/13
f 14/14/14 15/15/15 16/16/16
f 17/17/17 18/18/18 19/19/19
f 20/20/20 21/21/21 22/22/22
f 23/23/23 24/24/24 25/25/25
f 26/26/26 27/27/27 28/28/28
f 29/29/29 30/30/30 31/31/31
f 32/32/32 33/33/33 34/34/34
f 35/35/35 36/36/36 37/37/37
f 38/38/38 39/39/39 40/40/40
f 41/41/41 42/42/42 43/43/43
f 44/44/44 45/45/45 46/46/46
f 47/47/47 48/48/48 49/49/49
f 50/50/50 51/51/51 52/52/52
f 53/53/53 54/54/54 55/55/55
f 56/56/56 57/57/57 58/58/58
f 59/59/59 60/60/60 61/61/61
f 62/62/62 63/63/63 64/64/64
f 65/65/65 66/66/66 67/67/67
f 68/68/68 69/69/69 70/70/70
f 71/71/71 73/73/73 74/74/74
f 73/73/73 71/71/71 72/72/72
f 75/75/75 76/76/76 77/77/77
f 78/78/78 79/79/79 80/80/80
f 81/81/81 82/82/82 83/83/83
f 84/84/84 85/85/85 86/86/86
f 87/87/87 88/88/88 89/89/89
f 90/90/90 91/91/91 92/92/92
f 94/94/94 95/95/95 93/93/93
f 93/93/93 95/95/95 96/96/96
f 98/98/98 99/99/99 97/97/97
f 97/97/97 99/99/99 100/100/100
f 102/102/102 103/103/103 101/101/101
f 101/101/101 103/103/103 104/104/104
f 108/108/108 105/105/105 107/107/107
f 106/106/106 107/107/107 105/105/105
f 111/111/111 109/109/109 110/110/110
f 109/109/109 111/111/111 112/112/112
f 113/113/113 115/115/115 116/116/116
f 113/113/113 114/114/114 115/115/115
f 117/117/117 118/118/118 119/119/119
f 122/122/122 120/120/120 121/121/121
f 120/120/120 122/122/122 123/123/123
f 125/125/125 126/126/126 127/127/127
f 124/124/124 125/125/125 127/127/127
f 129/129/129 130/130/130 131/131/131
f 128/128/128 129/129/129 131/131/131
f 132/132/132 133/133/133 134/134/134
f 135/135/135 136/136/136 137/137/137
f 138/138/138 135/135/135 137/137/137
f 142/142/142 139/139/139 141/141/141
f 141/141/141 139/139/139 140/140/140
f 143/143/143 145/145/145 146/146/146
f 143/143/143 144/144/144 145/145/145
f 147/147/147 148/148/148 149/149/149
f 150/150/150 151/151/151 152/152/152
f 153/153/153 154/154/154 155/155/155
f 156/156/156 157/157/157 158/158/158
f 159/159/159 156/156/156 158/158/158
f 160/160/160 162/162/162 163/163/163
f 162/162/162 160/160/160 161/161/161
f 164/164/164 166/166/166 167/167/167
f 164/164/164 165/165/165 166/166/166
f 169/169/169 170/170/170 171/171/171
f 168/168/168 169/169/169 171/171/171
f 175/175/175 172/172/172 174/174/174
f 174/174/174 172/172/172 173/173/173
f 176/176/176 177/177/177 178/178/178
f 179/179/179 180/180/180 181/181/181
f 182/182/182 184/184/184 185/185/185
f 184/184/184 182/182/182 183/183/183
f 186/186/186 187/187/187 188/188/188
f 189/189/189 190/190/190 191/191/191
f 192/192/192 193/193/193 194/194/194
f 195/195/195 197/197/197 198/198/198
f 195/195/195 196/196/196 197/197/197
f 200/200/200 201/201/201 202/202/202
f 199/199/199 200/200/200 202/202/202
f 226/226/226 207/207/207 218/218/218
f 226/226/226 218/218/218 219/219/219
f 215/215/215 216/216/216 208/208/208
f 226/226/226 203/203/203 204/204/204
f 215/215/215 208/208/208 214/214/214
f 208/208/208 210/210/210 214/214/214
f 210/210/210 213/213/213 214/214/214
f 210/210/210 208/208/208 209/209/209
f 211/211/211 213/213/213 210/210/210
f 224/224/224 225/225/225 223/223/223
f 213/213/213 211/211/211 212/212/212
f 207/207/207 208/208/208 216/216/216
f 223/223/223 225/225/225 226/226/226
f 222/222/222 226/226/226 219/219/219
f 216/216/216 218/218/218 207/207/207
f 217/217/217 218/218/218 216/216/216
f 205/205/205 226/226/226 204/204/204
f 219/219/219 221/221/221 222/222/222
f 205/205/205 206/206/206 226/226/226
f 226/226/226 206/206/206 207/207/207
f 221/221/221 219/219/219 220/220/220
f 222/222/222 223/223/223 226/226/226
