v 4.021218 5.964349 -8.324255
v 6.215219 5.963969 -8.221255
v 5.319219 5.964146 -8.795255
v -0.7997814 5.96466 4.455745
v 4.021218 5.964349 -8.324255
v 3.005219 5.965103 -8.976255
v -6.217782 5.965497 5.413745
v -0.7997814 5.96466 4.455745
v 3.005219 5.965103 -8.976255
v -0.7997814 5.96466 4.455745
v 6.479218 5.963871 -6.900255
v 4.021218 5.964349 -8.324255
v 4.021218 5.964349 -8.324255
v 6.479218 5.963871 -6.900255
v 6.215219 5.963969 -8.221255
v -1.148781 5.96455 8.662745
v 0.8692185 5.96433 5.525745
v -0.7997814 5.96466 4.455745
v -6.217782 5.965497 5.413745
v -1.148781 5.96455 8.662745
v -0.7997814 5.96466 4.455745
v -4.038763 5.045467 7.589216
v -3.861022 5.114191 7.31373
v -5.127892 5.113985 6.501723
v -5.305254 5.045275 6.777451
v -2.772272 5.04566 8.40098
v -2.594152 5.114397 8.125738
v -3.861022 5.114191 7.31373
v -4.038763 5.045467 7.589216
v -4.216503 4.976744 7.864701
v -4.038763 5.045467 7.589216
v -5.305254 5.045275 6.777451
v -5.482614 4.976564 7.053179
v -2.950392 4.976923 8.676223
v -2.772272 5.04566 8.40098
v -4.038763 5.045467 7.589216
v -4.216503 4.976744 7.864701
v -6.217782 5.182477 5.413745
v -5.305254 5.045275 6.777451
v -5.127892 5.113985 6.501723
v -6.925706 4.907688 6.517628
v -5.305254 5.045275 6.777451
v -6.217782 5.182477 5.413745
v -6.217782 5.182477 5.413745
v -5.127892 5.113985 6.501723
v -3.861022 5.114191 7.31373
v -3.861022 5.114191 7.31373
v -2.594152 5.114397 8.125738
v -1.148781 5.183352 8.662745
v -6.217782 5.182477 5.413745
v -3.861022 5.114191 7.31373
v -1.148781 5.183352 8.662745
v -2.772272 5.04566 8.40098
v -1.148781 5.183352 8.662745
v -2.594152 5.114397 8.125738
v -6.925706 4.907688 6.517628
v -4.216503 4.976744 7.864701
v -5.482614 4.976564 7.053179
v -6.925706 4.907688 6.517628
v -5.482614 4.976564 7.053179
v -5.305254 5.045275 6.777451
v -6.925706 4.907688 6.517628
v -1.862781 4.908352 9.762745
v -4.216503 4.976744 7.864701
v -2.950392 4.976923 8.676223
v -1.862781 4.908352 9.762745
v -2.772272 5.04566 8.40098
v -4.216503 4.976744 7.864701
v -1.862781 4.908352 9.762745
v -2.950392 4.976923 8.676223
v -2.772272 5.04566 8.40098
v -1.862781 4.908352 9.762745
v -1.148781 5.183352 8.662745
v 3.005219 5.402352 -8.976255
v 5.331219 4.981352 -10.42925
v 4.343218 4.979352 -11.06326
v 5.319219 5.217352 -8.795255
v 5.694219 5.098352 -9.381255
v 5.331219 4.981352 -10.42925
v 3.005219 5.402352 -8.976255
v 4.021218 5.403352 -8.324255
v 5.331219 4.981352 -10.42925
v 4.021218 5.403352 -8.324255
v 5.319219 5.217352 -8.795255
v 5.331219 4.981352 -10.42925
v -6.217782 5.182477 5.413745
v -1.148781 5.183352 8.662745
v -1.148781 5.96455 8.662745
v -6.217782 5.965497 5.413745
v -0.1397814 -5.855798 7.094245
v 0.8692185 -5.855798 5.525745
v 0.8692185 5.96433 5.525745
v -1.148781 5.96455 8.662745
v -0.1397814 -5.855798 7.094245
v 0.8692185 5.96433 5.525745
v -1.148781 5.96455 8.662745
v -1.148781 5.183352 8.662745
v -0.1397814 -5.855798 7.094245
v -1.148781 5.183352 8.662745
v -1.148781 -5.855798 8.662745
v -0.1397814 -5.855798 7.094245
v -1.505781 -5.855798 9.212745
v -1.148781 -5.855798 8.662745
v -1.148781 5.183352 8.662745
v -1.862781 4.908352 9.762745
v -1.862781 -5.855798 9.762745
v -1.505781 -5.855798 9.212745
v -1.862781 4.908352 9.762745
v -1.505781 -5.855798 9.212745
v -1.148781 5.183352 8.662745
v 0.8692185 -5.855798 5.525745
v -0.7997814 -5.855798 4.455745
v 0.8692185 5.96433 5.525745
v -0.7997814 5.96466 4.455745
v -0.7997814 5.96466 4.455745
v -0.7997814 -5.855798 4.455745
v 6.479218 5.963871 -6.900255
v 6.479218 -5.855798 -6.900255
v 6.215219 -5.855798 -8.221255
v 6.479218 5.963871 -6.900255
v 6.479218 -5.855798 -6.900255
v 6.215219 5.963969 -8.221255
v 5.319219 5.964146 -8.795255
v 6.215219 5.963969 -8.221255
v 5.319219 5.217352 -8.795255
v 6.215219 -5.855798 -8.221255
v 5.319219 5.217352 -8.795255
v 6.215219 5.963969 -8.221255
v 5.319219 -5.855798 -8.795255
v 4.021218 5.403352 -8.324255
v 4.021218 5.964349 -8.324255
v 5.319219 5.964146 -8.795255
v 5.319219 5.217352 -8.795255
v 3.005219 5.965103 -8.976255
v 4.021218 5.403352 -8.324255
v 3.005219 5.402352 -8.976255
v 4.021218 5.964349 -8.324255
v -6.217782 5.965497 5.413745
v -1.606282 -5.855798 -1.781255
v -6.217782 5.182477 5.413745
v -6.217782 5.182477 5.413745
v -1.606282 -5.855798 -1.781255
v -6.217782 -5.855798 5.413745
v -1.606282 -5.855798 -1.781255
v 3.005219 5.965103 -8.976255
v 3.005219 5.402352 -8.976255
v -1.606282 -5.855798 -1.781255
v 3.005219 5.402352 -8.976255
v 3.005219 -5.855798 -8.976255
v -6.217782 5.965497 5.413745
v 3.005219 5.965103 -8.976255
v -1.606282 -5.855798 -1.781255
v -6.925706 4.907688 6.517628
v -6.217782 -5.855798 5.413745
v -6.925706 -5.855798 6.517628
v -6.217782 5.182477 5.413745
v 3.005219 5.402352 -8.976255
v 3.674218 -5.855798 -10.01976
v 3.005219 -5.855798 -8.976255
v 3.674218 -5.855798 -10.01976
v 4.343218 4.979352 -11.06326
v 4.343218 -5.855798 -11.06326
v 3.005219 5.402352 -8.976255
v 4.343218 4.979352 -11.06326
v 3.674218 -5.855798 -10.01976
v -4.394244 -5.855798 8.140186
v -1.862781 -5.855798 9.762745
v -1.862781 4.908352 9.762745
v -6.925706 4.907688 6.517628
v -6.925706 -5.855798 6.517628
v -4.394244 -5.855798 8.140186
v -6.925706 4.907688 6.517628
v -4.394244 -5.855798 8.140186
v -1.862781 4.908352 9.762745
v 5.694219 -5.855798 -9.381255
v 5.694219 5.098352 -9.381255
v 5.319219 -5.855798 -8.795255
v 5.319219 5.217352 -8.795255
v 5.331219 -5.855798 -10.42925
v 5.331219 4.981352 -10.42925
v 5.694219 -5.855798 -9.381255
v 5.694219 5.098352 -9.381255
v 5.331219 -5.855798 -10.42925
v 4.343218 4.979352 -11.06326
v 5.331219 4.981352 -10.42925
v 4.343218 -5.855798 -11.06326
v -6.217782 -5.855798 5.413745
v -0.7997814 -5.855798 4.455745
v -4.394244 -5.855798 8.140186
v -1.606282 -5.855798 -1.781255
v -1.148781 -5.855798 8.662745
v -1.505781 -5.855798 9.212745
v -6.925706 -5.855798 6.517628
v 3.005219 -5.855798 -8.976255
v 6.479218 -5.855798 -6.900255
v 5.319219 -5.855798 -8.795255
v -1.862781 -5.855798 9.762745
v -0.1397814 -5.855798 7.094245
v 3.674218 -5.855798 -10.01976
v 4.343218 -5.855798 -11.06326
v 5.331219 -5.855798 -10.42925
v 0.8692185 -5.855798 5.525745
v 5.694219 -5.855798 -9.381255
v 6.215219 -5.855798 -8.221255
vt 0.527634 0.344834
vt 0.523704 0.300013
vt 0.541831 0.318215
vt 0.132312 0.445818
vt 0.527634 0.344834
vt 0.548220 0.365474
vt 0.104379 0.556720
vt 0.132312 0.445818
vt 0.548220 0.365474
vt 0.132312 0.445818
vt 0.482585 0.294872
vt 0.527634 0.344834
vt 0.527634 0.344834
vt 0.482585 0.294872
vt 0.523704 0.300013
vt 0.001770 0.453758
vt 0.098520 0.411915
vt 0.132312 0.445818
vt 0.104379 0.556720
vt 0.001770 0.453758
vt 0.132312 0.445818
vt 0.798374 0.617879
vt 0.789191 0.621763
vt 0.764684 0.596398
vt 0.773876 0.592523
vt 0.822871 0.643234
vt 0.813698 0.647128
vt 0.789191 0.621763
vt 0.798374 0.617879
vt 0.807555 0.613995
vt 0.798374 0.617879
vt 0.773876 0.592523
vt 0.783067 0.588650
vt 0.832043 0.639341
vt 0.822871 0.643234
vt 0.798374 0.617879
vt 0.807555 0.613995
vt 0.730973 0.574897
vt 0.773876 0.592523
vt 0.764684 0.596398
vt 0.767776 0.559441
vt 0.773876 0.592523
vt 0.730973 0.574897
vt 0.730973 0.574897
vt 0.764684 0.596398
vt 0.789191 0.621763
vt 0.789191 0.621763
vt 0.813698 0.647128
vt 0.829039 0.676396
vt 0.730973 0.574897
vt 0.789191 0.621763
vt 0.829039 0.676396
vt 0.822871 0.643234
vt 0.829039 0.676396
vt 0.813698 0.647128
vt 0.767776 0.559441
vt 0.807555 0.613995
vt 0.783067 0.588650
vt 0.767776 0.559441
vt 0.783067 0.588650
vt 0.773876 0.592523
vt 0.767776 0.559441
vt 0.865693 0.660783
vt 0.807555 0.613995
vt 0.832043 0.639341
vt 0.865693 0.660783
vt 0.822871 0.643234
vt 0.807555 0.613995
vt 0.865693 0.660783
vt 0.832043 0.639341
vt 0.822871 0.643234
vt 0.865693 0.660783
vt 0.829039 0.676396
vt 0.876884 0.945750
vt 0.923968 0.898678
vt 0.943654 0.918393
vt 0.872143 0.899270
vt 0.890897 0.891608
vt 0.923968 0.898678
vt 0.876884 0.945750
vt 0.856637 0.925466
vt 0.923968 0.898678
vt 0.856637 0.925466
vt 0.872143 0.899270
vt 0.923968 0.898678
vt 0.287448 0.772727
vt 0.385184 0.874117
vt 0.375730 0.878189
vt 0.277876 0.776710
vt 0.192655 0.868467
vt 0.145408 0.888153
vt 0.001770 0.820634
vt 0.097647 0.780680
vt 0.192655 0.868467
vt 0.001770 0.820634
vt 0.097647 0.780680
vt 0.107177 0.785242
vt 0.192655 0.868467
vt 0.107177 0.785242
vt 0.239903 0.848780
vt 0.192655 0.868467
vt 0.256471 0.841813
vt 0.239903 0.848780
vt 0.107177 0.785242
vt 0.144106 0.772727
vt 0.273040 0.834847
vt 0.256471 0.841813
vt 0.144106 0.772727
vt 0.256471 0.841813
vt 0.107177 0.785242
vt 0.493583 0.772727
vt 0.525832 0.805626
vt 0.389381 0.840586
vt 0.422103 0.873971
vt 0.349822 0.559441
vt 0.494350 0.627751
vt 0.001770 0.704184
vt 0.151312 0.770392
vt 0.564914 0.896744
vt 0.426549 0.957527
vt 0.525287 0.891608
vt 0.466759 0.962738
vt 0.875919 0.856765
vt 0.858407 0.838880
vt 0.882175 0.852511
vt 0.956321 0.772727
vt 0.882175 0.852511
vt 0.858407 0.838880
vt 0.973580 0.790352
vt 0.952999 0.920501
vt 0.948673 0.917471
vt 0.961993 0.891608
vt 0.967739 0.895666
vt 0.056011 0.998209
vt 0.041631 0.975524
vt 0.060474 0.995083
vt 0.037168 0.978628
vt 0.026664 0.214869
vt 0.351577 0.182628
vt 0.033657 0.219037
vt 0.033657 0.219037
vt 0.351577 0.182628
vt 0.130770 0.276931
vt 0.351577 0.182628
vt 0.474921 0.023421
vt 0.479628 0.026555
vt 0.351577 0.182628
vt 0.479628 0.026555
vt 0.572402 0.088317
vt 0.026664 0.214869
vt 0.474921 0.023421
vt 0.351577 0.182628
vt 0.001770 0.235172
vt 0.130770 0.276931
vt 0.096894 0.291407
vt 0.033657 0.219037
vt 0.479628 0.026555
vt 0.604430 0.074635
vt 0.572402 0.088317
vt 0.604430 0.074635
vt 0.548097 0.001166
vt 0.636459 0.060952
vt 0.479628 0.026555
vt 0.548097 0.001166
vt 0.604430 0.074635
vt 0.677975 0.609565
vt 0.726541 0.659688
vt 0.597540 0.714965
vt 0.499115 0.613376
vt 0.629408 0.559441
vt 0.677975 0.609565
vt 0.499115 0.613376
vt 0.677975 0.609565
vt 0.597540 0.714965
vt 0.708312 0.960483
vt 0.569911 0.899646
vt 0.725878 0.953215
vt 0.586195 0.891608
vt 0.852600 0.898694
vt 0.763771 0.959312
vt 0.821203 0.891608
vt 0.730973 0.952793
vt 0.090433 0.891608
vt 0.021083 0.972059
vt 0.001770 0.952386
vt 0.109472 0.911031
vt 0.065487 0.975524
vt 0.065487 0.975524
vt 0.065487 0.975524
vt 0.065487 0.975524
vt 0.065487 0.975524
vt 0.065487 0.975524
vt 0.065487 0.975524
vt 0.065487 0.975524
vt 0.065487 0.975524
vt 0.065487 0.975524
vt 0.065487 0.975524
vt 0.065487 0.975524
vt 0.065487 0.975524
vt 0.065487 0.975524
vt 0.065487 0.975524
vt 0.065487 0.975524
vt 0.065487 0.975524
vt 0.065487 0.975524
vn 0.0001714057 1 4.034935E-05
vn 0.0001714057 1 4.034935E-05
vn 0.0001714057 1 4.034935E-05
vn 0.000609506 0.9999998 0.0002056314
vn 0.000609506 0.9999998 0.0002056314
vn 0.000609506 0.9999998 0.0002056314
vn 0.0001688228 1 8.079516E-05
vn 0.0001688228 1 8.079516E-05
vn 0.0001688228 1 8.079516E-05
vn 0.0001714066 1 4.036706E-05
vn 0.0001714066 1 4.036706E-05
vn 0.0001714066 1 4.036706E-05
vn 0.0001714047 1 4.03703E-05
vn 0.0001714047 1 4.03703E-05
vn 0.0001714047 1 4.03703E-05
vn 0.0001714069 1 4.036629E-05
vn 0.0001714069 1 4.036629E-05
vn 0.0001714069 1 4.036629E-05
vn 0.0001615293 1 3.954688E-05
vn 0.0001615293 1 3.954688E-05
vn 0.0001615293 1 3.954688E-05
vn -0.1108095 0.9787319 0.1726418
vn -0.1108231 0.978728 0.1726551
vn -0.1108095 0.9787319 0.1726418
vn -0.1107959 0.9787357 0.1726284
vn -0.1108296 0.9787241 0.1726731
vn -0.1108432 0.9787202 0.1726864
vn -0.1108296 0.9787241 0.1726731
vn -0.110816 0.9787279 0.1726597
vn -0.1108024 0.9787319 0.1726463
vn -0.110816 0.978728 0.1726597
vn -0.1108024 0.9787319 0.1726463
vn -0.1107888 0.9787357 0.1726329
vn -0.1108225 0.9787241 0.1726777
vn -0.1108361 0.9787202 0.172691
vn -0.1108225 0.9787241 0.1726777
vn -0.1108089 0.9787279 0.1726643
vn -0.1108102 0.9787357 0.1726192
vn -0.1108102 0.9787357 0.1726192
vn -0.1108102 0.9787357 0.1726192
vn -0.1107759 0.9787436 0.1725971
vn -0.1107759 0.9787436 0.1725971
vn -0.1107759 0.9787436 0.1725971
vn -0.110783 0.9787436 0.1725925
vn -0.110783 0.9787436 0.1725925
vn -0.110783 0.9787436 0.1725925
vn -0.1108633 0.9787124 0.1727178
vn -0.1108633 0.9787124 0.1727178
vn -0.1108633 0.9787124 0.1727178
vn -0.1108302 0.978728 0.1726505
vn -0.1108302 0.978728 0.1726505
vn -0.1108302 0.978728 0.1726505
vn -0.1108503 0.9787202 0.1726819
vn -0.1108503 0.9787202 0.1726819
vn -0.1108503 0.9787202 0.1726819
vn -0.1107687 0.9787436 0.1726016
vn -0.1107687 0.9787436 0.1726016
vn -0.1107687 0.9787436 0.1726016
vn -0.1107817 0.9787357 0.1726375
vn -0.1107817 0.9787357 0.1726375
vn -0.1107817 0.9787357 0.1726375
vn -0.1108018 0.9787279 0.1726689
vn -0.1108018 0.9787279 0.1726689
vn -0.1108018 0.9787279 0.1726689
vn -0.1108219 0.9787202 0.1727002
vn -0.1108219 0.9787202 0.1727002
vn -0.1108219 0.9787202 0.1727002
vn -0.1108491 0.9787124 0.172727
vn -0.1108491 0.9787124 0.172727
vn -0.1108491 0.9787124 0.172727
vn -0.1108562 0.9787124 0.1727224
vn -0.1108562 0.9787124 0.1727224
vn -0.1108562 0.9787124 0.1727224
vn 0.08942414 0.9857521 -0.1424646
vn 0.08942414 0.9857521 -0.1424646
vn 0.08942414 0.9857521 -0.1424646
vn 0.09137287 0.9856847 -0.1416922
vn 0.09137287 0.9856847 -0.1416922
vn 0.09137287 0.9856847 -0.1416922
vn 0.08993839 0.9858211 -0.1416614
vn 0.08993839 0.9858211 -0.1416614
vn 0.08993839 0.9858211 -0.1416614
vn 0.08983907 0.9858212 -0.1417232
vn 0.08983907 0.9858212 -0.1417232
vn 0.08983907 0.9858212 -0.1417232
vn -0.5396239 0 0.8419062
vn -0.5396239 0 0.8419062
vn -0.5396239 0 0.8419062
vn -0.5396239 0 0.8419062
vn 0.841013 0 0.541015
vn 0.841013 0 0.541015
vn 0.841013 0 0.541015
vn 0.841013 5.693024E-10 0.541015
vn 0.841013 5.693024E-10 0.541015
vn 0.841013 5.693024E-10 0.541015
vn 0.841013 0 0.541015
vn 0.841013 0 0.541015
vn 0.841013 0 0.541015
vn 0.841013 0 0.541015
vn 0.841013 0 0.541015
vn 0.841013 0 0.541015
vn 0.8387918 0 0.5444522
vn 0.8387918 0 0.5444522
vn 0.8387918 0 0.5444522
vn 0.8387918 0 0.5444522
vn 0.8387918 0 0.5444522
vn 0.8387918 0 0.5444522
vn 0.8387918 6.154816E-10 0.5444522
vn 0.8387918 6.154816E-10 0.5444522
vn 0.8387918 6.154816E-10 0.5444522
vn 0.539712 0 -0.8418497
vn 0.539712 0 -0.8418497
vn 0.539712 0 -0.8418497
vn 0.539712 0 -0.8418497
vn 0.8418956 0 0.5396405
vn 0.8418956 0 0.5396405
vn 0.8418956 0 0.5396405
vn 0.8418956 0 0.5396405
vn 0.9806092 0 -0.1959734
vn 0.9806092 0 -0.1959734
vn 0.9806092 0 -0.1959734
vn 0.9806092 0 -0.1959734
vn 0.539427 0 -0.8420324
vn 0.539427 0 -0.8420324
vn 0.539427 0 -0.8420324
vn 0.539427 0 -0.8420324
vn 0.539427 0 -0.8420324
vn 0.539427 0 -0.8420324
vn 0.539427 0 -0.8420324
vn -0.3411034 0 -0.9400258
vn -0.3411034 0 -0.9400258
vn -0.3411034 0 -0.9400258
vn -0.3411034 0 -0.9400258
vn 0.5400876 0 -0.8416088
vn 0.5400876 0 -0.8416088
vn 0.5400876 0 -0.8416088
vn 0.5400876 0 -0.8416088
vn -0.8419152 0 -0.5396097
vn -0.8419152 0 -0.5396097
vn -0.8419152 0 -0.5396097
vn -0.8419152 0 -0.5396097
vn -0.8419152 0 -0.5396097
vn -0.8419152 0 -0.5396097
vn -0.8419152 0 -0.5396097
vn -0.8419152 0 -0.5396097
vn -0.8419152 0 -0.5396097
vn -0.8419152 0 -0.5396097
vn -0.8419152 0 -0.5396097
vn -0.8419152 0 -0.5396097
vn -0.8419152 3.544515E-10 -0.5396097
vn -0.8419152 3.544515E-10 -0.5396097
vn -0.8419152 3.544515E-10 -0.5396097
vn -0.8417725 0 -0.5398324
vn -0.8417725 0 -0.5398324
vn -0.8417725 0 -0.5398324
vn -0.8417725 0 -0.5398324
vn -0.8418462 0 -0.5397175
vn -0.8418462 0 -0.5397175
vn -0.8418462 0 -0.5397175
vn -0.8418462 0 -0.5397175
vn -0.8418462 0 -0.5397175
vn -0.8418462 0 -0.5397175
vn -0.8418462 3.565186E-10 -0.5397175
vn -0.8418462 3.565186E-10 -0.5397175
vn -0.8418462 3.565186E-10 -0.5397175
vn -0.5396252 0 0.8419054
vn -0.5396252 0 0.8419054
vn -0.5396252 0 0.8419054
vn -0.5396252 0 0.8419054
vn -0.5396252 0 0.8419054
vn -0.5396252 0 0.8419054
vn -0.5396252 -3.788133E-11 0.8419054
vn -0.5396252 -3.788133E-11 0.8419054
vn -0.5396252 -3.788133E-11 0.8419054
vn 0.8422975 0 0.539013
vn 0.8422975 0 0.539013
vn 0.8422975 0 0.539013
vn 0.8422975 0 0.539013
vn 0.9449217 0 -0.3272964
vn 0.9449217 0 -0.3272964
vn 0.9449217 0 -0.3272964
vn 0.9449217 0 -0.3272964
vn 0.5400686 0 -0.841621
vn 0.5400686 0 -0.841621
vn 0.5400686 0 -0.841621
vn 0.5400686 0 -0.841621
vn 0 -1 0
vn 0 -1 0
vn 0 -1 0
vn 0 -1 0
vn 0 -1 0
vn 0 -1 0
vn 0 -1 0
vn 0 -1 0
vn 0 -1 0
vn 0 -1 0
vn 0 -1 0
vn 0 -1 0
vn 0 -1 0
vn 0 -1 0
vn 0 -1 0
vn 0 -1 0
vn 0 -1 0
vn 0 -1 0

g CDNNDG02_0016290
f 1/1/1 2/2/2 3/3/3
f 4/4/4 5/5/5 6/6/6
f 7/7/7 8/8/8 9/9/9
f 10/10/10 11/11/11 12/12/12
f 13/13/13 14/14/14 15/15/15
f 16/16/16 17/17/17 18/18/18
f 19/19/19 20/20/20 21/21/21
f 22/22/22 23/23/23 24/24/24
f 25/25/25 22/22/22 24/24/24
f 26/26/26 27/27/27 28/28/28
f 29/29/29 26/26/26 28/28/28
f 30/30/30 31/31/31 32/32/32
f 33/33/33 30/30/30 32/32/32
f 34/34/34 35/35/35 36/36/36
f 37/37/37 34/34/34 36/36/36
f 38/38/38 39/39/39 40/40/40
f 41/41/41 42/42/42 43/43/43
f 44/44/44 45/45/45 46/46/46
f 47/47/47 48/48/48 49/49/49
f 50/50/50 51/51/51 52/52/52
f 53/53/53 54/54/54 55/55/55
f 56/56/56 57/57/57 58/58/58
f 59/59/59 60/60/60 61/61/61
f 62/62/62 63/63/63 64/64/64
f 65/65/65 66/66/66 67/67/67
f 68/68/68 69/69/69 70/70/70
f 71/71/71 72/72/72 73/73/73
f 74/74/74 75/75/75 76/76/76
f 77/77/77 78/78/78 79/79/79
f 80/80/80 81/81/81 82/82/82
f 83/83/83 84/84/84 85/85/85
f 86/86/86 87/87/87 88/88/88
f 89/89/89 86/86/86 88/88/88
f 90/90/90 91/91/91 92/92/92
f 93/93/93 94/94/94 95/95/95
f 96/96/96 97/97/97 98/98/98
f 99/99/99 100/100/100 101/101/101
f 102/102/102 103/103/103 104/104/104
f 105/105/105 106/106/106 107/107/107
f 108/108/108 109/109/109 110/110/110
f 111/111/111 112/112/112 113/113/113
f 114/114/114 113/113/113 112/112/112
f 115/115/115 116/116/116 117/117/117
f 118/118/118 117/117/117 116/116/116
f 119/119/119 120/120/120 121/121/121
f 119/119/119 122/122/122 120/120/120
f 123/123/123 124/124/124 125/125/125
f 126/126/126 127/127/127 128/128/128
f 127/127/127 126/126/126 129/129/129
f 130/130/130 131/131/131 132/132/132
f 132/132/132 133/133/133 130/130/130
f 134/134/134 135/135/135 136/136/136
f 134/134/134 137/137/137 135/135/135
f 138/138/138 139/139/139 140/140/140
f 141/141/141 142/142/142 143/143/143
f 144/144/144 145/145/145 146/146/146
f 147/147/147 148/148/148 149/149/149
f 150/150/150 151/151/151 152/152/152
f 153/153/153 154/154/154 155/155/155
f 154/154/154 153/153/153 156/156/156
f 157/157/157 158/158/158 159/159/159
f 160/160/160 161/161/161 162/162/162
f 163/163/163 164/164/164 165/165/165
f 166/166/166 167/167/167 168/168/168
f 169/169/169 170/170/170 171/171/171
f 172/172/172 173/173/173 174/174/174
f 175/175/175 176/176/176 177/177/177
f 177/177/177 176/176/176 178/178/178
f 179/179/179 180/180/180 181/181/181
f 181/181/181 180/180/180 182/182/182
f 183/183/183 184/184/184 185/185/185
f 184/184/184 183/183/183 186/186/186
f 187/187/187 188/188/188 189/189/189
f 187/187/187 190/190/190 188/188/188
f 189/189/189 191/191/191 192/192/192
f 193/193/193 187/187/187 189/189/189
f 190/190/190 194/194/194 195/195/195
f 194/194/194 196/196/196 195/195/195
f 189/189/189 192/192/192 197/197/197
f 189/189/189 198/198/198 191/191/191
f 199/199/199 200/200/200 201/201/201
f 188/188/188 202/202/202 198/198/198
f 189/189/189 188/188/188 198/198/198
f 196/196/196 201/201/201 203/203/203
f 196/196/196 204/204/204 195/195/195
f 190/190/190 195/195/195 188/188/188
f 194/194/194 199/199/199 196/196/196
f 199/199/199 201/201/201 196/196/196
