v 2.449798 6.256546 0.419375
v 3.884798 6.256546 1.332375
v 9.095798 6.256546 -6.852625
v 5.858798 6.256546 -8.761625
v -4.058202 6.256546 10.21937
v -3.867202 6.256546 10.34138
v 2.449798 6.256546 0.419375
v -8.480202 6.257554 7.404375
v -4.058202 6.256546 10.21937
v 2.449798 6.256546 0.419375
v 5.858798 6.256546 -8.761625
v 9.095798 6.256546 -6.852625
v 8.664798 6.256546 -8.031625
v -0.6657644 6.256864 -3.425866
v -0.1140295 6.25681 -3.067339
v 2.979798 6.256554 -10.59463
v -0.7740124 6.256874 -3.253781
v -0.6657644 6.256864 -3.425866
v 2.979798 6.256554 -10.59463
v -8.480202 6.257554 7.404375
v -0.7740124 6.256874 -3.253781
v 2.979798 6.256554 -10.59463
v -0.1140295 6.25681 -3.067339
v 0.196315 6.256779 -2.872187
v 2.979798 6.256554 -10.59463
v -8.480202 6.257554 7.404375
v 0.08909065 6.256788 -2.70178
v -0.2211699 6.256819 -2.896977
v -8.480202 6.257554 7.404375
v -0.2211699 6.256819 -2.896977
v -0.7740124 6.256874 -3.253781
v 0.08909065 6.256788 -2.70178
v 2.449798 6.256546 0.419375
v 0.196315 6.256779 -2.872187
v -8.480202 6.257554 7.404375
v 2.449798 6.256546 0.419375
v 0.08909065 6.256788 -2.70178
v 0.196315 6.256779 -2.872187
v 2.449798 6.256546 0.419375
v 2.979798 6.256554 -10.59463
v 5.858798 6.256546 -8.761625
v 8.664798 6.256546 -8.031625
v 6.887798 6.256546 -9.162625
v 2.449798 6.256546 0.419375
v 5.858798 6.256546 -8.761625
v 2.979798 6.256554 -10.59463
v -8.127702 5.274456 9.291625
v -6.771202 5.452456 9.600875
v -7.876702 5.452456 8.897125
v -7.022202 5.274456 9.995375
v -7.876702 5.452456 8.897125
v -6.520202 5.630455 9.206375
v -7.625702 5.630455 8.502625
v -6.771202 5.452456 9.600875
v -7.022202 5.274456 9.995375
v -5.665702 5.452456 10.30462
v -6.771202 5.452456 9.600875
v -5.916702 5.274456 10.69913
v -6.771202 5.452456 9.600875
v -5.414702 5.630455 9.910125
v -6.520202 5.630455 9.206375
v -5.665702 5.452456 10.30462
v -9.484201 5.096456 8.982375
v -7.022202 5.274456 9.995375
v -8.127702 5.274456 9.291625
v -9.484201 5.096456 8.982375
v -5.062202 5.096456 11.79737
v -7.022202 5.274456 9.995375
v -9.484201 5.096456 8.982375
v -8.127702 5.274456 9.291625
v -7.876702 5.452456 8.897125
v -8.480202 5.808456 7.404375
v -7.876702 5.452456 8.897125
v -7.625702 5.630455 8.502625
v -9.484201 5.096456 8.982375
v -7.876702 5.452456 8.897125
v -8.480202 5.808456 7.404375
v -8.480202 5.808456 7.404375
v -7.625702 5.630455 8.502625
v -6.520202 5.630455 9.206375
v -5.916702 5.274456 10.69913
v -5.062202 5.096456 11.79737
v -5.665702 5.452456 10.30462
v -7.022202 5.274456 9.995375
v -5.062202 5.096456 11.79737
v -5.916702 5.274456 10.69913
v -5.665702 5.452456 10.30462
v -5.062202 5.096456 11.79737
v -4.058202 5.808456 10.21937
v -6.520202 5.630455 9.206375
v -5.414702 5.630455 9.910125
v -4.058202 5.808456 10.21937
v -5.665702 5.452456 10.30462
v -4.058202 5.808456 10.21937
v -5.414702 5.630455 9.910125
v -8.480202 5.808456 7.404375
v -6.520202 5.630455 9.206375
v -4.058202 5.808456 10.21937
v -0.6362019 6.331456 -3.288625
v -0.2211699 6.256819 -2.896977
v 0.04779812 6.330456 -2.845625
v -0.7740124 6.256874 -3.253781
v -0.2211699 6.256819 -2.896977
v -0.6362019 6.331456 -3.288625
v -0.2211699 6.256819 -2.896977
v 0.08909065 6.256788 -2.70178
v 0.04779812 6.330456 -2.845625
v 0.04779812 6.330456 -2.845625
v 0.08909065 6.256788 -2.70178
v 0.196315 6.256779 -2.872187
v -0.7740124 6.256874 -3.253781
v -0.6362019 6.331456 -3.288625
v -0.6657644 6.256864 -3.425866
v -0.1140295 6.25681 -3.067339
v 0.04779812 6.330456 -2.845625
v 0.196315 6.256779 -2.872187
v -0.6657644 6.256864 -3.425866
v -0.6362019 6.331456 -3.288625
v 0.04779812 6.330456 -2.845625
v -0.6657644 6.256864 -3.425866
v 0.04779812 6.330456 -2.845625
v -0.1140295 6.25681 -3.067339
v -4.058202 5.808456 10.21937
v -4.058202 -6.206108 10.21937
v -3.867202 -6.206108 10.34138
v -3.867202 6.256546 10.34138
v -4.058202 6.256546 10.21937
v -4.058202 5.808456 10.21937
v -3.867202 6.256546 10.34138
v -8.480202 6.257554 7.404375
v -8.480202 5.808456 7.404375
v -4.058202 6.256546 10.21937
v -4.058202 5.808456 10.21937
v -3.867202 6.256546 10.34138
v -3.867202 -6.206108 10.34138
v 2.449798 6.256546 0.419375
v 2.449798 -6.206108 0.419375
v 3.167298 -6.206108 0.8758749
v 3.884798 -6.206108 1.332375
v 3.884798 6.256546 1.332375
v 2.449798 6.256546 0.419375
v 2.449798 -6.206108 0.419375
v 3.167298 -6.206108 0.8758749
v 2.449798 6.256546 0.419375
v 3.167298 -6.206108 0.8758749
v 3.884798 6.256546 1.332375
v 3.884798 6.256546 1.332375
v 3.884798 -6.206108 1.332375
v 9.095798 6.256546 -6.852625
v 9.095798 -6.206108 -6.852625
v 8.664798 -6.206108 -8.031625
v 8.664798 6.256546 -8.031625
v 9.095798 -6.206108 -6.852625
v 9.095798 6.256546 -6.852625
v 8.664798 -6.206108 -8.031625
v 6.887798 6.256546 -9.162625
v 8.664798 6.256546 -8.031625
v 6.887798 -6.206108 -9.162625
v 5.858798 6.256546 -8.761625
v 6.887798 -6.206108 -9.162625
v 5.858798 -6.206108 -8.761625
v 6.887798 6.256546 -9.162625
v 5.858798 -6.206108 -8.761625
v 2.979798 -6.206108 -10.59463
v 5.858798 6.256546 -8.761625
v 2.979798 6.256554 -10.59463
v -8.480202 6.257554 7.404375
v 2.979798 6.256554 -10.59463
v -8.480202 5.808456 7.404375
v -8.480202 5.808456 7.404375
v 2.979798 -6.206108 -10.59463
v -8.480202 -6.206108 7.404375
v 2.979798 6.256554 -10.59463
v -9.484201 5.096456 8.982375
v -8.480202 -6.206108 7.404375
v -9.484201 -6.206108 8.982375
v -8.480202 5.808456 7.404375
v -9.484201 -6.206108 8.982375
v -5.062202 5.096456 11.79737
v -9.484201 5.096456 8.982375
v -5.062202 -6.206108 11.79737
v -4.058202 -6.206108 10.21937
v -4.058202 5.808456 10.21937
v -5.062202 5.096456 11.79737
v -5.062202 -6.206108 11.79737
v -9.484201 -6.206108 8.982375
v -8.480202 -6.206108 7.404375
v -4.058202 -6.206108 10.21937
v -5.062202 -6.206108 11.79737
v 2.979798 -6.206108 -10.59463
v 2.449798 -6.206108 0.419375
v 5.858798 -6.206108 -8.761625
v -3.867202 -6.206108 10.34138
v 9.095798 -6.206108 -6.852625
v 3.167298 -6.206108 0.8758749
v 3.884798 -6.206108 1.332375
v 6.887798 -6.206108 -9.162625
v 8.664798 -6.206108 -8.031625
vt 0.291153 0.135238
vt 0.263886 0.106757
vt 0.502718 0.001133
vt 0.559802 0.065412
vt 0.005310 0.267055
vt 0.001667 0.263264
vt 0.291153 0.135238
vt 0.089371 0.354809
vt 0.005310 0.267055
vt 0.291153 0.135238
vt 0.559802 0.065412
vt 0.502718 0.001133
vt 0.537488 0.009515
vt 0.405076 0.196718
vt 0.394373 0.185769
vt 0.614541 0.122556
vt 0.400054 0.198912
vt 0.405076 0.196718
vt 0.614541 0.122556
vt 0.089371 0.354809
vt 0.400054 0.198912
vt 0.614541 0.122556
vt 0.394373 0.185769
vt 0.388544 0.179610
vt 0.614541 0.122556
vt 0.089371 0.354809
vt 0.383571 0.181783
vt 0.389402 0.187941
vt 0.089371 0.354809
vt 0.389402 0.187941
vt 0.400054 0.198912
vt 0.383571 0.181783
vt 0.291153 0.135238
vt 0.388544 0.179610
vt 0.089371 0.354809
vt 0.291153 0.135238
vt 0.383571 0.181783
vt 0.388544 0.179610
vt 0.291153 0.135238
vt 0.614541 0.122556
vt 0.559802 0.065412
vt 0.537488 0.009515
vt 0.571264 0.044787
vt 0.291153 0.135238
vt 0.559802 0.065412
vt 0.614541 0.122556
vt 0.917416 0.657470
vt 0.923732 0.684147
vt 0.903814 0.662547
vt 0.937329 0.679064
vt 0.903814 0.662547
vt 0.910129 0.689231
vt 0.890207 0.667627
vt 0.923732 0.684147
vt 0.937329 0.679064
vt 0.943650 0.705746
vt 0.923732 0.684147
vt 0.957243 0.700658
vt 0.923732 0.684147
vt 0.930052 0.710835
vt 0.910129 0.689231
vt 0.943650 0.705746
vt 0.911102 0.630804
vt 0.937329 0.679064
vt 0.917416 0.657470
vt 0.911102 0.630804
vt 0.990738 0.717163
vt 0.937329 0.679064
vt 0.911102 0.630804
vt 0.917416 0.657470
vt 0.903814 0.662547
vt 0.856667 0.651101
vt 0.903814 0.662547
vt 0.890207 0.667627
vt 0.911102 0.630804
vt 0.903814 0.662547
vt 0.856667 0.651101
vt 0.856667 0.651101
vt 0.890207 0.667627
vt 0.910129 0.689231
vt 0.957243 0.700658
vt 0.990738 0.717163
vt 0.943650 0.705746
vt 0.937329 0.679064
vt 0.990738 0.717163
vt 0.957243 0.700658
vt 0.943650 0.705746
vt 0.990738 0.717163
vt 0.936373 0.737535
vt 0.910129 0.689231
vt 0.930052 0.710835
vt 0.936373 0.737535
vt 0.943650 0.705746
vt 0.936373 0.737535
vt 0.930052 0.710835
vt 0.856667 0.651101
vt 0.910129 0.689231
vt 0.936373 0.737535
vt 0.188333 0.972073
vt 0.199494 0.979665
vt 0.199899 0.984746
vt 0.190188 0.969422
vt 0.199494 0.979665
vt 0.188333 0.972073
vt 0.199494 0.979665
vt 0.204583 0.985413
vt 0.199899 0.984746
vt 0.301667 0.969422
vt 0.305531 0.970163
vt 0.301820 0.971555
vt 0.310000 0.971353
vt 0.310356 0.969422
vt 0.313776 0.969885
vt 0.214673 0.975167
vt 0.208333 0.972437
vt 0.209481 0.969422
vt 0.224211 0.985378
vt 0.220114 0.985101
vt 0.208333 0.972437
vt 0.224211 0.985378
vt 0.208333 0.972437
vt 0.214673 0.975167
vt 0.452675 0.886958
vt 0.606037 0.868816
vt 0.609459 0.872488
vt 0.450342 0.891374
vt 0.446867 0.887645
vt 0.452675 0.886958
vt 0.450342 0.891374
vt 0.366667 0.801320
vt 0.372533 0.800680
vt 0.446867 0.887645
vt 0.452675 0.886958
vt 0.288710 0.630804
vt 0.448264 0.677910
vt 0.001667 0.752953
vt 0.165598 0.798191
vt 0.870948 0.918515
vt 0.883728 0.932159
vt 0.720957 0.953098
vt 0.695000 0.925386
vt 0.858168 0.904870
vt 0.870948 0.918515
vt 0.695000 0.925386
vt 0.870948 0.918515
vt 0.720957 0.953098
vt 0.688338 0.630804
vt 0.851801 0.675564
vt 0.451667 0.731451
vt 0.618738 0.774672
vt 0.502524 0.913036
vt 0.422212 0.955954
vt 0.469166 0.904870
vt 0.388333 0.947661
vt 0.693629 0.800680
vt 0.645954 0.878489
vt 0.613333 0.843904
vt 0.725748 0.834733
vt 0.888333 0.925031
vt 0.979269 0.927771
vt 0.968156 0.947619
vt 0.899621 0.904870
vt 0.310143 0.800680
vt 0.362310 0.856026
vt 0.230000 0.844885
vt 0.282982 0.901095
vt 0.039292 0.589895
vt 0.564528 0.357871
vt 0.042524 0.590576
vt 0.042524 0.590576
vt 0.644739 0.380069
vt 0.127664 0.608487
vt 0.564528 0.357871
vt 0.001667 0.611948
vt 0.127664 0.608487
vt 0.082336 0.628497
vt 0.042524 0.590576
vt 0.146215 0.800680
vt 0.081693 0.902599
vt 0.001667 0.816290
vt 0.225131 0.885793
vt 0.154738 0.966271
vt 0.001667 0.921339
vt 0.056242 0.904870
vt 0.199488 0.947368
vt 0.293333 0.969422
vt 0.293333 0.969422
vt 0.293333 0.969422
vt 0.293333 0.969422
vt 0.293333 0.969422
vt 0.293333 0.969422
vt 0.293333 0.969422
vt 0.293333 0.969422
vt 0.293333 0.969422
vt 0.293333 0.969422
vt 0.293333 0.969422
vt 0.293333 0.969422
vt 0.293333 0.969422
vn 0 1 0
vn 0 1 0
vn 0 1 0
vn 0 1 0
vn 0 1 0
vn 0 1 0
vn 0 1 0
vn 0.0001600489 1 0.0001062855
vn 0.0001600489 1 0.0001062855
vn 0.0001600489 1 0.0001062855
vn 0 1 0
vn 0 1 0
vn 0 1 0
vn 9.547315E-05 1 5.227313E-06
vn 9.547315E-05 1 5.227313E-06
vn 9.547315E-05 1 5.227313E-06
vn 9.522044E-05 1 5.098803E-06
vn 9.522044E-05 1 5.098803E-06
vn 9.522044E-05 1 5.098803E-06
vn 9.546292E-05 1 5.222797E-06
vn 9.546292E-05 1 5.222797E-06
vn 9.546292E-05 1 5.222797E-06
vn 9.544835E-05 1 5.217119E-06
vn 9.544835E-05 1 5.217119E-06
vn 9.544835E-05 1 5.217119E-06
vn 9.546753E-05 1 5.22644E-06
vn 9.546753E-05 1 5.22644E-06
vn 9.546753E-05 1 5.22644E-06
vn 9.546357E-05 1 5.223262E-06
vn 9.546357E-05 1 5.223262E-06
vn 9.546357E-05 1 5.223262E-06
vn 9.543748E-05 1 5.24166E-06
vn 9.543748E-05 1 5.24166E-06
vn 9.543748E-05 1 5.24166E-06
vn 9.546285E-05 1 5.22247E-06
vn 9.546285E-05 1 5.22247E-06
vn 9.546285E-05 1 5.22247E-06
vn 9.546471E-05 1 5.223016E-06
vn 9.546471E-05 1 5.223016E-06
vn 9.546471E-05 1 5.223016E-06
vn 0 1 0
vn 0 1 0
vn 0 1 0
vn 1.946841E-06 1 7.228823E-07
vn 1.946841E-06 1 7.228823E-07
vn 1.946841E-06 1 7.228823E-07
vn -0.1910556 0.9345713 0.3001236
vn -0.1910556 0.9345713 0.3001236
vn -0.1910556 0.9345713 0.3001236
vn -0.1910556 0.9345713 0.3001236
vn -0.1910556 0.9345713 0.3001236
vn -0.1910556 0.9345713 0.3001236
vn -0.1910556 0.9345713 0.3001236
vn -0.1910556 0.9345713 0.3001236
vn -0.1910556 0.9345713 0.3001236
vn -0.1910556 0.9345713 0.3001236
vn -0.1910556 0.9345713 0.3001236
vn -0.1910556 0.9345713 0.3001236
vn -0.1910556 0.9345713 0.3001236
vn -0.1910556 0.9345713 0.3001236
vn -0.1910556 0.9345713 0.3001236
vn -0.1910556 0.9345713 0.3001236
vn -0.1910556 0.9345713 0.3001236
vn -0.1910556 0.9345713 0.3001236
vn -0.1910556 0.9345713 0.3001236
vn -0.1910556 0.9345713 0.3001236
vn -0.1910556 0.9345713 0.3001236
vn -0.1910556 0.9345713 0.3001236
vn -0.1910556 0.9345713 0.3001236
vn -0.1910556 0.9345713 0.3001236
vn -0.1910556 0.9345713 0.3001236
vn -0.1910556 0.9345713 0.3001236
vn -0.1910556 0.9345713 0.3001236
vn -0.1910556 0.9345713 0.3001236
vn -0.1910556 0.9345713 0.3001236
vn -0.1910556 0.9345713 0.3001236
vn -0.1910556 0.9345713 0.3001236
vn -0.1910556 0.9345713 0.3001236
vn -0.1910556 0.9345713 0.3001236
vn -0.1910556 0.9345713 0.3001236
vn -0.1910556 0.9345713 0.3001236
vn -0.1910556 0.9345713 0.3001236
vn -0.1910556 0.9345713 0.3001236
vn -0.1910556 0.9345713 0.3001236
vn -0.1910556 0.9345713 0.3001236
vn -0.1910556 0.9345713 0.3001236
vn -0.1910556 0.9345713 0.3001236
vn -0.1910556 0.9345713 0.3001236
vn -0.1910556 0.9345713 0.3001236
vn -0.1910556 0.9345713 0.3001236
vn -0.1910556 0.9345713 0.3001236
vn -0.1910556 0.9345713 0.3001236
vn -0.1910556 0.9345713 0.3001236
vn -0.1910556 0.9345713 0.3001236
vn -0.1910556 0.9345713 0.3001236
vn -0.1910556 0.9345713 0.3001236
vn -0.1910556 0.9345713 0.3001236
vn -0.1910556 0.9345713 0.3001236
vn -0.3159707 0.8126239 0.4896988
vn -0.3159707 0.8126239 0.4896988
vn -0.3159707 0.8126239 0.4896988
vn -0.3159707 0.8126239 0.4896988
vn -0.3159707 0.8126239 0.4896988
vn -0.3159707 0.8126239 0.4896988
vn -0.3162413 0.804488 0.5027828
vn -0.3162413 0.804488 0.5027828
vn -0.3162413 0.804488 0.5027828
vn 0.4664439 0.8344558 0.2934511
vn 0.4664439 0.8344558 0.2934511
vn 0.4664439 0.8344558 0.2934511
vn -0.5122994 0.7960352 -0.3222999
vn -0.5122994 0.7960352 -0.3222999
vn -0.5122994 0.7960352 -0.3222999
vn 0.312645 0.8094315 -0.4970652
vn 0.312645 0.8094315 -0.4970652
vn 0.312645 0.8094315 -0.4970652
vn 0.3280305 0.7985559 -0.5046825
vn 0.3280305 0.7985559 -0.5046825
vn 0.3280305 0.7985559 -0.5046825
vn 0.3280306 0.7985559 -0.5046825
vn 0.3280306 0.7985559 -0.5046825
vn 0.3280306 0.7985559 -0.5046825
vn -0.5383022 0 0.8427519
vn -0.5383022 0 0.8427519
vn -0.5383022 0 0.8427519
vn -0.5383022 0 0.8427519
vn -0.5383022 0 0.8427519
vn -0.5383022 0 0.8427519
vn -0.5383022 0 0.8427519
vn -0.5370113 0 0.8435751
vn -0.5370113 0 0.8435751
vn -0.5370113 0 0.8435751
vn -0.5370113 0 0.8435751
vn 0.8435459 0 0.537057
vn 0.8435459 0 0.537057
vn 0.8435459 0 0.537057
vn 0.8435459 0 0.537057
vn -0.5367994 0 0.8437099
vn -0.5367994 0 0.8437099
vn -0.5367994 0 0.8437099
vn -0.5367994 0 0.8437099
vn -0.5367994 0 0.8437099
vn -0.5367994 0 0.8437099
vn -0.5367994 -2.471404E-10 0.8437099
vn -0.5367994 -2.471404E-10 0.8437099
vn -0.5367994 -2.471404E-10 0.8437099
vn 0.8435512 0 0.5370489
vn 0.8435512 0 0.5370489
vn 0.8435512 0 0.5370489
vn 0.8435512 0 0.5370489
vn 0.9392106 0 -0.3433416
vn 0.9392106 0 -0.3433416
vn 0.9392106 0 -0.3433416
vn 0.9392106 0 -0.3433416
vn 0.5369369 0 -0.8436224
vn 0.5369369 0 -0.8436224
vn 0.5369369 0 -0.8436224
vn 0.5369369 0 -0.8436224
vn -0.3631016 0 -0.9317495
vn -0.3631016 0 -0.9317495
vn -0.3631016 0 -0.9317495
vn -0.3631016 0 -0.9317495
vn 0.5370651 0 -0.8435408
vn 0.5370651 0 -0.8435408
vn 0.5370651 0 -0.8435408
vn 0.5370651 0 -0.8435408
vn -0.8435321 0 -0.5370787
vn -0.8435321 0 -0.5370787
vn -0.8435321 0 -0.5370787
vn -0.8435321 0 -0.5370787
vn -0.8435321 0 -0.5370787
vn -0.8435321 0 -0.5370787
vn -0.8435321 0 -0.5370787
vn -0.8437055 0 -0.5368063
vn -0.8437055 0 -0.5368063
vn -0.8437055 0 -0.5368063
vn -0.8437055 0 -0.5368063
vn -0.5370113 0 0.8435751
vn -0.5370113 0 0.8435751
vn -0.5370113 0 0.8435751
vn -0.5370113 0 0.8435751
vn 0.8437055 0 0.5368063
vn 0.8437055 0 0.5368063
vn 0.8437055 0 0.5368063
vn 0.8437055 0 0.5368063
vn 0 -1 0
vn 0 -1 0
vn 0 -1 0
vn 0 -1 0
vn 0 -1 0
vn 0 -1 0
vn 0 -1 0
vn 0 -1 0
vn 0 -1 0
vn 0 -1 0
vn 0 -1 0
vn 0 -1 0
vn 0 -1 0

g CDNNDG02_0017360
f 1/1/1 2/2/2 3/3/3
f 3/3/3 4/4/4 1/1/1
f 5/5/5 6/6/6 7/7/7
f 8/8/8 9/9/9 10/10/10
f 11/11/11 12/12/12 13/13/13
f 14/14/14 15/15/15 16/16/16
f 17/17/17 18/18/18 19/19/19
f 20/20/20 21/21/21 22/22/22
f 23/23/23 24/24/24 25/25/25
f 26/26/26 27/27/27 28/28/28
f 29/29/29 30/30/30 31/31/31
f 32/32/32 33/33/33 34/34/34
f 35/35/35 36/36/36 37/37/37
f 38/38/38 39/39/39 40/40/40
f 41/41/41 42/42/42 43/43/43
f 44/44/44 45/45/45 46/46/46
f 47/47/47 48/48/48 49/49/49
f 47/47/47 50/50/50 48/48/48
f 51/51/51 52/52/52 53/53/53
f 51/51/51 54/54/54 52/52/52
f 55/55/55 56/56/56 57/57/57
f 55/55/55 58/58/58 56/56/56
f 59/59/59 60/60/60 61/61/61
f 59/59/59 62/62/62 60/60/60
f 63/63/63 64/64/64 65/65/65
f 66/66/66 67/67/67 68/68/68
f 69/69/69 70/70/70 71/71/71
f 72/72/72 73/73/73 74/74/74
f 75/75/75 76/76/76 77/77/77
f 78/78/78 79/79/79 80/80/80
f 81/81/81 82/82/82 83/83/83
f 84/84/84 85/85/85 86/86/86
f 87/87/87 88/88/88 89/89/89
f 90/90/90 91/91/91 92/92/92
f 93/93/93 94/94/94 95/95/95
f 96/96/96 97/97/97 98/98/98
f 99/99/99 100/100/100 101/101/101
f 102/102/102 103/103/103 104/104/104
f 105/105/105 106/106/106 107/107/107
f 108/108/108 109/109/109 110/110/110
f 111/111/111 112/112/112 113/113/113
f 114/114/114 115/115/115 116/116/116
f 117/117/117 118/118/118 119/119/119
f 120/120/120 121/121/121 122/122/122
f 123/123/123 124/124/124 125/125/125
f 126/126/126 123/123/123 125/125/125
f 127/127/127 128/128/128 129/129/129
f 130/130/130 131/131/131 132/132/132
f 132/132/132 131/131/131 133/133/133
f 134/134/134 135/135/135 136/136/136
f 137/137/137 136/136/136 135/135/135
f 138/138/138 139/139/139 140/140/140
f 141/141/141 142/142/142 143/143/143
f 144/144/144 145/145/145 146/146/146
f 147/147/147 148/148/148 149/149/149
f 150/150/150 149/149/149 148/148/148
f 151/151/151 152/152/152 153/153/153
f 153/153/153 152/152/152 154/154/154
f 155/155/155 156/156/156 157/157/157
f 156/156/156 155/155/155 158/158/158
f 159/159/159 160/160/160 161/161/161
f 159/159/159 162/162/162 160/160/160
f 163/163/163 164/164/164 165/165/165
f 166/166/166 165/165/165 164/164/164
f 167/167/167 168/168/168 169/169/169
f 170/170/170 171/171/171 172/172/172
f 170/170/170 173/173/173 171/171/171
f 174/174/174 175/175/175 176/176/176
f 175/175/175 174/174/174 177/177/177
f 178/178/178 179/179/179 180/180/180
f 179/179/179 178/178/178 181/181/181
f 182/182/182 183/183/183 184/184/184
f 185/185/185 182/182/182 184/184/184
f 186/186/186 187/187/187 188/188/188
f 186/186/186 188/188/188 189/189/189
f 187/187/187 190/190/190 191/191/191
f 191/191/191 190/190/190 192/192/192
f 188/188/188 191/191/191 193/193/193
f 191/191/191 192/192/192 194/194/194
f 195/195/195 194/194/194 196/196/196
f 187/187/187 191/191/191 188/188/188
f 191/191/191 194/194/194 195/195/195
f 192/192/192 197/197/197 198/198/198
f 192/192/192 198/198/198 194/194/194
