v -5.323058 3.013587 2.086443
v 1.642943 3.013587 3.632443
v -0.3060575 3.013587 -5.709558
v -0.3060575 3.013587 -5.709558
v 1.642943 3.013587 3.632443
v 5.322943 3.013587 -2.086557
v -5.323058 3.013587 2.086443
v 0.3059425 3.013587 5.709443
v 1.642943 3.013587 3.632443
v -2.508558 -3.013587 3.897943
v 0.3059425 -3.013587 5.709443
v 0.3059425 3.013587 5.709443
v -5.323058 3.013587 2.086443
v -5.323058 -3.013587 2.086443
v -2.508558 -3.013587 3.897943
v -5.323058 3.013587 2.086443
v -2.508558 -3.013587 3.897943
v 0.3059425 3.013587 5.709443
v 0.3059425 -3.013587 5.709443
v 1.642943 3.013587 3.632443
v 0.3059425 3.013587 5.709443
v 1.642943 -3.013587 3.632443
v 1.642943 3.013587 3.632443
v 1.642943 -3.013587 3.632443
v 5.322943 3.013587 -2.086557
v 5.322943 -3.013587 -2.086557
v -0.3060575 3.013587 -5.709558
v 2.508443 -3.013587 -3.898057
v -0.3060575 -3.013587 -5.709558
v 2.508443 -3.013587 -3.898057
v 5.322943 3.013587 -2.086557
v 5.322943 -3.013587 -2.086557
v -0.3060575 3.013587 -5.709558
v 5.322943 3.013587 -2.086557
v 2.508443 -3.013587 -3.898057
v -5.323058 3.013587 2.086443
v -0.3060575 -3.013587 -5.709558
v -5.323058 -3.013587 2.086443
v -0.3060575 3.013587 -5.709558
v -2.508558 -3.013587 3.897943
v 1.642943 -3.013587 3.632443
v 0.3059425 -3.013587 5.709443
v 2.508443 -3.013587 -3.898057
v 5.322943 -3.013587 -2.086557
v -5.323058 -3.013587 2.086443
v -0.3060575 -3.013587 -5.709558
vt 0.672570 0.308575
vt 0.608073 0.108900
vt 0.983095 0.162376
vt 0.983095 0.162376
vt 0.608073 0.108900
vt 0.835873 0.001653
vt 0.672570 0.308575
vt 0.525346 0.147863
vt 0.608073 0.108900
vt 0.805004 0.476705
vt 0.732719 0.396347
vt 0.746579 0.358678
vt 0.892245 0.520614
vt 0.877287 0.557061
vt 0.805004 0.476705
vt 0.892245 0.520614
vt 0.805004 0.476705
vt 0.746579 0.358678
vt 0.002304 0.762643
vt 0.094576 0.781569
vt 0.012635 0.819465
vt 0.083638 0.725027
vt 0.094576 0.781569
vt 0.083638 0.725027
vt 0.320207 0.677259
vt 0.307599 0.621488
vt 0.726404 0.573450
vt 0.642133 0.437575
vt 0.712835 0.516469
vt 0.642133 0.437575
vt 0.583944 0.414484
vt 0.571429 0.358678
vt 0.726404 0.573450
vt 0.583944 0.414484
vt 0.642133 0.437575
vt 0.339951 0.767231
vt 0.635331 0.659008
vt 0.324885 0.803652
vt 0.652755 0.621488
vt 0.380184 0.823141
vt 0.380184 0.823141
vt 0.380184 0.823141
vt 0.380184 0.823141
vt 0.380184 0.823141
vt 0.380184 0.823141
vt 0.380184 0.823141
vn 0 1 0
vn 0 1 0
vn 0 1 0
vn 0 1 0
vn 0 1 0
vn 0 1 0
vn 0 1 0
vn 0 1 0
vn 0 1 0
vn -0.541218 0 0.8408823
vn -0.541218 0 0.8408823
vn -0.541218 0 0.8408823
vn -0.541218 0 0.8408823
vn -0.541218 0 0.8408823
vn -0.541218 0 0.8408823
vn -0.541218 -2.613407E-12 0.8408823
vn -0.541218 -2.613407E-12 0.8408823
vn -0.541218 -2.613407E-12 0.8408823
vn 0.8408495 0 0.541269
vn 0.8408495 0 0.541269
vn 0.8408495 0 0.541269
vn 0.8408495 0 0.541269
vn 0.8409443 0 0.5411217
vn 0.8409443 0 0.5411217
vn 0.8409443 0 0.5411217
vn 0.8409443 0 0.5411217
vn 0.541218 0 -0.8408823
vn 0.541218 0 -0.8408823
vn 0.541218 0 -0.8408823
vn 0.541218 0 -0.8408823
vn 0.541218 0 -0.8408823
vn 0.541218 0 -0.8408823
vn 0.541218 6.758021E-11 -0.8408823
vn 0.541218 6.758021E-11 -0.8408823
vn 0.541218 6.758021E-11 -0.8408823
vn -0.840919 0 -0.5411609
vn -0.840919 0 -0.5411609
vn -0.840919 0 -0.5411609
vn -0.840919 0 -0.5411609
vn 0 -1 0
vn 0 -1 0
vn 0 -1 0
vn 0 -1 0
vn 0 -1 0
vn 0 -1 0
vn 0 -1 0

g CDNNDG02_0015610
f 1/1/1 2/2/2 3/3/3
f 4/4/4 5/5/5 6/6/6
f 7/7/7 8/8/8 9/9/9
f 10/10/10 11/11/11 12/12/12
f 13/13/13 14/14/14 15/15/15
f 16/16/16 17/17/17 18/18/18
f 19/19/19 20/20/20 21/21/21
f 19/19/19 22/22/22 20/20/20
f 23/23/23 24/24/24 25/25/25
f 26/26/26 25/25/25 24/24/24
f 27/27/27 28/28/28 29/29/29
f 30/30/30 31/31/31 32/32/32
f 33/33/33 34/34/34 35/35/35
f 36/36/36 37/37/37 38/38/38
f 36/36/36 39/39/39 37/37/37
f 40/40/40 41/41/41 42/42/42
f 43/43/43 44/44/44 41/41/41
f 40/40/40 43/43/43 41/41/41
f 45/45/45 46/46/46 43/43/43
f 40/40/40 45/45/45 43/43/43
