v -6.400392 6.008604 3.107785
v 0.2336078 6.009604 6.696785
v -6.139392 6.009604 2.691785
v -6.400392 6.008604 3.107785
v -0.0273922 6.009604 7.111785
v 0.2336078 6.009604 6.696785
v 2.700608 4.720604 -5.302215
v 3.796608 4.720604 -4.613215
v 3.155608 4.360604 -6.025215
v 3.155608 4.360604 -6.025215
v 3.796608 4.720604 -4.613215
v 4.251608 4.360604 -5.337215
v 0.3926078 5.920604 0.382785
v 1.655608 5.920604 0.139785
v 0.8356078 5.920604 -0.353215
v 1.213608 5.920604 0.876785
v 1.655608 5.235671 0.139785
v 2.860608 5.235694 1.744285
v 3.207608 5.235699 1.962785
v 1.213608 5.235671 0.876785
v 2.189054 5.235689 2.042225
v 1.655608 5.235671 0.139785
v 1.655608 5.235671 0.139785
v 2.189054 5.235689 2.042225
v 2.513608 5.235689 1.525785
v 0.3926078 5.235659 0.382785
v 2.189054 5.235689 2.042225
v 1.213608 5.235671 0.876785
v 1.655608 5.235671 0.139785
v 2.513608 5.235689 1.525785
v 2.860608 5.235694 1.744285
v -0.9963922 5.235604 -5.493215
v 0.8356078 5.235658 -0.353215
v 1.655608 5.235671 0.139785
v -0.9963922 5.235604 -5.493215
v 1.655608 5.235671 0.139785
v 3.207608 5.235699 1.962785
v -0.9963922 5.235604 -5.493215
v 0.3926078 5.235659 0.382785
v 0.8356078 5.235658 -0.353215
v -6.139392 5.235604 2.691785
v 0.3926078 5.235659 0.382785
v -0.9963922 5.235604 -5.493215
v -6.139392 5.235604 2.691785
v 2.189054 5.235689 2.042225
v 0.3926078 5.235659 0.382785
v -0.9963922 5.235604 -5.493215
v 2.700608 5.235604 -5.302215
v -0.0363922 5.235604 -7.021215
v -0.9963922 5.235604 -5.493215
v 3.207608 5.235699 1.962785
v 2.700608 5.235604 -5.302215
v -6.139392 5.235604 2.691785
v 0.2336078 5.235699 6.696785
v 2.227608 5.235699 3.523785
v -6.139392 5.235604 2.691785
v 2.227608 5.235699 3.523785
v 1.880108 5.235694 3.305285
v -6.139392 5.235604 2.691785
v 1.532608 5.235689 3.086785
v 2.189054 5.235689 2.042225
v -6.139392 5.235604 2.691785
v 1.880108 5.235694 3.305285
v 1.532608 5.235689 3.086785
v 2.700608 5.235604 -5.302215
v 4.981608 5.235699 -0.8602149
v 3.796608 5.235604 -4.613215
v 2.700608 5.235604 -5.302215
v 3.207608 5.235699 1.962785
v 4.981608 5.235699 -0.8602149
v 3.796608 5.235604 -4.613215
v 4.981608 5.235699 -0.8602149
v 6.336608 5.235604 -3.017215
v 2.513608 5.236604 1.525785
v 2.592608 5.674604 2.145785
v 3.207608 5.235699 1.962785
v 2.129608 5.674604 2.916785
v 3.207608 5.235699 1.962785
v 2.592608 5.674604 2.145785
v 2.129608 5.674604 2.916785
v 2.227608 5.235699 3.523785
v 3.207608 5.235699 1.962785
v 1.532608 5.236604 3.086785
v 2.227608 5.235699 3.523785
v 2.129608 5.674604 2.916785
v 1.532608 5.236604 3.086785
v 2.129608 5.674604 2.916785
v 2.592608 5.674604 2.145785
v 1.532608 5.236604 3.086785
v 2.592608 5.674604 2.145785
v 2.513608 5.236604 1.525785
v -6.400392 6.008604 3.107785
v -6.400392 5.235604 3.107785
v -0.0273922 5.235699 7.111785
v -0.0273922 6.009604 7.111785
v -3.213892 -5.271039 5.109785
v -0.0273922 -5.271039 7.111785
v -0.0273922 5.235699 7.111785
v -6.400392 5.235604 3.107785
v -6.400392 -5.271039 3.107785
v -3.213892 -5.271039 5.109785
v -6.400392 5.235604 3.107785
v -3.213892 -5.271039 5.109785
v -0.0273922 5.235699 7.111785
v -0.0273922 5.235699 7.111785
v 0.2336078 6.009604 6.696785
v -0.0273922 6.009604 7.111785
v 0.2336078 5.235699 6.696785
v 2.227608 -5.271039 3.523785
v 2.227608 5.235699 3.523785
v 0.2336078 -5.271039 6.696785
v 0.2336078 5.235699 6.696785
v 3.207608 -5.271039 1.962785
v 3.207608 5.235699 1.962785
v 2.227608 5.235699 3.523785
v 2.227608 -5.271039 3.523785
v 4.981608 -5.271039 -0.8602149
v 4.981608 5.235699 -0.8602149
v 3.207608 -5.271039 1.962785
v 3.207608 5.235699 1.962785
v 5.659108 -5.271039 -1.938715
v 6.336608 -5.271039 -3.017215
v 6.336608 5.235604 -3.017215
v 4.981608 5.235699 -0.8602149
v 4.981608 -5.271039 -0.8602149
v 5.659108 -5.271039 -1.938715
v 4.981608 5.235699 -0.8602149
v 5.659108 -5.271039 -1.938715
v 6.336608 5.235604 -3.017215
v 0.1031078 -5.271039 6.904285
v 0.2336078 -5.271039 6.696785
v 0.2336078 5.235699 6.696785
v -0.0273922 5.235699 7.111785
v -0.0273922 -5.271039 7.111785
v 0.1031078 -5.271039 6.904285
v -0.0273922 5.235699 7.111785
v 0.1031078 -5.271039 6.904285
v 0.2336078 5.235699 6.696785
v -6.139392 6.009604 2.691785
v 0.2336078 5.235699 6.696785
v -6.139392 5.235604 2.691785
v 0.2336078 6.009604 6.696785
v -6.400392 5.235604 3.107785
v -6.400392 6.008604 3.107785
v -6.139392 5.235604 2.691785
v -6.139392 6.009604 2.691785
v -0.9963922 5.235604 -5.493215
v -0.0363922 -5.271039 -7.021215
v -0.9963922 -5.271039 -5.493215
v -0.0363922 5.235604 -7.021215
v -6.139392 -5.271039 2.691785
v -6.139392 5.235604 2.691785
v -0.9963922 -5.271039 -5.493215
v -0.9963922 5.235604 -5.493215
v -6.400392 5.235604 3.107785
v -6.139392 -5.271039 2.691785
v -6.400392 -5.271039 3.107785
v -6.139392 5.235604 2.691785
v 4.251608 -5.271039 -5.337215
v 4.251608 4.360604 -5.337215
v 3.796608 -5.271039 -4.613215
v 3.796608 4.720604 -4.613215
v 3.155608 4.360604 -6.025215
v 3.703608 -5.271039 -5.681215
v 3.155608 -5.271039 -6.025215
v 3.703608 -5.271039 -5.681215
v 4.251608 4.360604 -5.337215
v 4.251608 -5.271039 -5.337215
v 3.155608 4.360604 -6.025215
v 4.251608 4.360604 -5.337215
v 3.703608 -5.271039 -5.681215
v 3.155608 4.360604 -6.025215
v 3.155608 -5.271039 -6.025215
v 2.700608 -5.271039 -5.302215
v 2.700608 4.720604 -5.302215
v 1.213608 5.235671 0.876785
v 1.213608 5.920604 0.876785
v 0.3926078 5.920604 0.382785
v 0.3926078 5.235659 0.382785
v 1.213608 5.920604 0.876785
v 1.213608 5.235671 0.876785
v 1.655608 5.920604 0.139785
v 1.655608 5.235671 0.139785
v 0.8356078 5.235658 -0.353215
v 0.8356078 5.920604 -0.353215
v 1.655608 5.235671 0.139785
v 1.655608 5.920604 0.139785
v 0.8356078 5.920604 -0.353215
v 0.8356078 5.235658 -0.353215
v 0.3926078 5.235659 0.382785
v 0.3926078 5.920604 0.382785
v 3.796608 5.235604 -4.613215
v 5.066608 -5.271039 -3.815215
v 3.796608 4.720604 -4.613215
v 3.796608 4.720604 -4.613215
v 5.066608 -5.271039 -3.815215
v 3.796608 -5.271039 -4.613215
v 5.066608 -5.271039 -3.815215
v 6.336608 5.235604 -3.017215
v 6.336608 -5.271039 -3.017215
v 3.796608 5.235604 -4.613215
v 6.336608 5.235604 -3.017215
v 5.066608 -5.271039 -3.815215
v 2.700608 -5.271039 -5.302215
v -0.0363922 -5.271039 -7.021215
v 2.700608 4.720604 -5.302215
v -0.0363922 5.235604 -7.021215
v -0.0363922 5.235604 -7.021215
v 2.700608 5.235604 -5.302215
v 2.700608 4.720604 -5.302215
v 2.700608 5.235604 -5.302215
v 3.796608 4.720604 -4.613215
v 2.700608 4.720604 -5.302215
v 3.796608 5.235604 -4.613215
v 2.513608 5.236604 1.525785
v 2.860608 5.235694 1.744285
v 2.513608 5.235689 1.525785
v 2.513608 5.236604 1.525785
v 3.207608 5.235699 1.962785
v 2.860608 5.235694 1.744285
v 1.532608 5.236604 3.086785
v 1.880108 5.235694 3.305285
v 2.227608 5.235699 3.523785
v 1.532608 5.236604 3.086785
v 1.532608 5.235689 3.086785
v 1.880108 5.235694 3.305285
v 1.532608 5.236604 3.086785
v 2.189054 5.235689 2.042225
v 1.532608 5.235689 3.086785
v 2.189054 5.235689 2.042225
v 2.513608 5.236604 1.525785
v 2.513608 5.235689 1.525785
v 1.532608 5.236604 3.086785
v 2.513608 5.236604 1.525785
v 2.189054 5.235689 2.042225
v 3.796608 -5.271039 -4.613215
v 5.066608 -5.271039 -3.815215
v 4.981608 -5.271039 -0.8602149
v -0.9963922 -5.271039 -5.493215
v 2.700608 -5.271039 -5.302215
v 3.207608 -5.271039 1.962785
v -6.139392 -5.271039 2.691785
v -0.0363922 -5.271039 -7.021215
v -6.400392 -5.271039 3.107785
v -3.213892 -5.271039 5.109785
v 0.1031078 -5.271039 6.904285
v -0.0273922 -5.271039 7.111785
v 3.703608 -5.271039 -5.681215
v 3.155608 -5.271039 -6.025215
v 0.2336078 -5.271039 6.696785
v 2.227608 -5.271039 3.523785
v 4.251608 -5.271039 -5.337215
v 5.659108 -5.271039 -1.938715
v 6.336608 -5.271039 -3.017215
vt 0.926044 0.570145
vt 0.785767 0.376054
vt 0.941939 0.562358
vt 0.926044 0.570145
vt 0.769912 0.383843
vt 0.785767 0.376054
vt 0.346269 0.910541
vt 0.320796 0.879662
vt 0.372330 0.894272
vt 0.372330 0.894272
vt 0.320796 0.879662
vt 0.346906 0.863406
vt 0.396952 0.899300
vt 0.405547 0.863406
vt 0.424142 0.886538
vt 0.378319 0.876141
vt 0.255618 0.140644
vt 0.193054 0.105541
vt 0.184468 0.095365
vt 0.227236 0.153885
vt 0.181756 0.125433
vt 0.255618 0.140644
vt 0.255618 0.140644
vt 0.181756 0.125433
vt 0.201639 0.115716
vt 0.246659 0.177967
vt 0.181756 0.125433
vt 0.227236 0.153885
vt 0.255618 0.140644
vt 0.201639 0.115716
vt 0.193054 0.105541
vt 0.474700 0.217319
vt 0.275002 0.164696
vt 0.255618 0.140644
vt 0.474700 0.217319
vt 0.255618 0.140644
vt 0.184468 0.095365
vt 0.474700 0.217319
vt 0.246659 0.177967
vt 0.275002 0.164696
vt 0.159580 0.371275
vt 0.246659 0.177967
vt 0.474700 0.217319
vt 0.159580 0.371275
vt 0.181756 0.125433
vt 0.246659 0.177967
vt 0.474700 0.217319
vt 0.465988 0.108317
vt 0.533530 0.188580
vt 0.474700 0.217319
vt 0.184468 0.095365
vt 0.465988 0.108317
vt 0.159580 0.371275
vt 0.002212 0.184398
vt 0.124370 0.124704
vt 0.159580 0.371275
vt 0.124370 0.124704
vt 0.132955 0.134895
vt 0.159580 0.371275
vt 0.141541 0.145085
vt 0.181756 0.125433
vt 0.159580 0.371275
vt 0.132955 0.134895
vt 0.141541 0.145085
vt 0.465988 0.108317
vt 0.293157 0.042254
vt 0.438917 0.076175
vt 0.465988 0.108317
vt 0.184468 0.095365
vt 0.293157 0.042254
vt 0.438917 0.076175
vt 0.293157 0.042254
vt 0.376205 0.001686
vt 0.691528 0.882231
vt 0.670354 0.884109
vt 0.676217 0.863406
vt 0.452198 0.897658
vt 0.486961 0.863406
vt 0.480742 0.884688
vt 0.452198 0.897658
vt 0.429204 0.890840
vt 0.486961 0.863406
vt 0.732596 0.882559
vt 0.716814 0.863468
vt 0.739306 0.863406
vt 0.493363 0.896445
vt 0.500421 0.876684
vt 0.529450 0.863406
vt 0.493363 0.896445
vt 0.529450 0.863406
vt 0.552096 0.868337
vt 0.347728 0.564716
vt 0.346392 0.569555
vt 0.190635 0.381083
vt 0.191820 0.376054
vt 0.251636 0.541393
vt 0.174779 0.448395
vt 0.190635 0.381083
vt 0.346392 0.569555
vt 0.328490 0.634388
vt 0.251636 0.541393
vt 0.346392 0.569555
vt 0.251636 0.541393
vt 0.190635 0.381083
vt 0.549944 0.286937
vt 0.566550 0.286944
vt 0.550699 0.294561
vt 0.565779 0.279327
vt 0.674966 0.119960
vt 0.686853 0.221186
vt 0.555454 0.177352
vt 0.565779 0.279327
vt 0.733763 0.091752
vt 0.746419 0.192610
vt 0.686853 0.221186
vt 0.674966 0.119960
vt 0.840097 0.040689
vt 0.854143 0.140881
vt 0.733763 0.091752
vt 0.746419 0.192610
vt 0.880722 0.021188
vt 0.921347 0.001686
vt 0.936455 0.101368
vt 0.854143 0.140881
vt 0.840097 0.040689
vt 0.880722 0.021188
vt 0.854143 0.140881
vt 0.880722 0.021188
vt 0.936455 0.101368
vt 0.547638 0.181109
vt 0.555454 0.177352
vt 0.565779 0.279327
vt 0.549944 0.286937
vt 0.539823 0.184865
vt 0.547638 0.181109
vt 0.549944 0.286937
vt 0.547638 0.181109
vt 0.565779 0.279327
vt 0.455616 0.852052
vt 0.298673 0.664418
vt 0.454498 0.850484
vt 0.299638 0.665805
vt 0.372014 0.566248
vt 0.373359 0.561410
vt 0.388158 0.558448
vt 0.389521 0.553596
vt 0.705814 0.404746
vt 0.741921 0.443383
vt 0.683396 0.471698
vt 0.765118 0.376054
vt 0.369914 0.623378
vt 0.388158 0.558448
vt 0.683396 0.471698
vt 0.705814 0.404746
vt 0.372014 0.566248
vt 0.369914 0.623378
vt 0.353982 0.631075
vt 0.388158 0.558448
vt 0.247291 0.863406
vt 0.261509 0.954506
vt 0.221239 0.876376
vt 0.235671 0.971084
vt 0.127763 0.986215
vt 0.100892 0.878988
vt 0.113288 0.894570
vt 0.100892 0.878988
vt 0.102674 0.954679
vt 0.088496 0.863406
vt 0.127763 0.986215
vt 0.102674 0.954679
vt 0.100892 0.878988
vt 0.314303 0.863406
vt 0.294330 0.925238
vt 0.267699 0.938453
vt 0.288091 0.874448
vt 0.646018 0.867668
vt 0.647164 0.863406
vt 0.664698 0.886510
vt 0.663537 0.890752
vt 0.766301 0.881482
vt 0.765487 0.875290
vt 0.792584 0.869588
vt 0.791748 0.863406
vt 0.574623 0.886090
vt 0.575448 0.892498
vt 0.557522 0.863406
vt 0.558333 0.869795
vt 0.826563 0.863406
vt 0.825342 0.867500
vt 0.798673 0.879619
vt 0.799871 0.875537
vt 0.077911 0.549450
vt 0.032173 0.412445
vt 0.077128 0.544457
vt 0.077128 0.544457
vt 0.032173 0.412445
vt 0.062134 0.448835
vt 0.032173 0.412445
vt 0.017207 0.475719
vt 0.002212 0.376054
vt 0.077911 0.549450
vt 0.017207 0.475719
vt 0.032173 0.412445
vt 0.088002 0.480239
vt 0.152538 0.558662
vt 0.103317 0.576251
vt 0.169497 0.660710
vt 0.169497 0.660710
vt 0.104117 0.581264
vt 0.103317 0.576251
vt 0.104117 0.581264
vt 0.077128 0.544457
vt 0.103317 0.576251
vt 0.077911 0.549450
vt 0.760312 0.882120
vt 0.752943 0.872759
vt 0.760311 0.882111
vt 0.760312 0.882120
vt 0.745575 0.863406
vt 0.752943 0.872759
vt 0.711967 0.882498
vt 0.704434 0.872955
vt 0.696903 0.863406
vt 0.711967 0.882498
vt 0.711966 0.882503
vt 0.704434 0.872955
vt 0.581860 0.891280
vt 0.621160 0.872634
vt 0.581858 0.891286
vt 0.621160 0.872634
vt 0.640593 0.863406
vt 0.640591 0.863412
vt 0.581860 0.891280
vt 0.640593 0.863406
vt 0.621160 0.872634
vt 0.831858 0.863406
vt 0.831858 0.863406
vt 0.831858 0.863406
vt 0.831858 0.863406
vt 0.831858 0.863406
vt 0.831858 0.863406
vt 0.831858 0.863406
vt 0.831858 0.863406
vt 0.831858 0.863406
vt 0.831858 0.863406
vt 0.831858 0.863406
vt 0.831858 0.863406
vt 0.831858 0.863406
vt 0.831858 0.863406
vt 0.831858 0.863406
vt 0.831858 0.863406
vt 0.831858 0.863406
vt 0.831858 0.863406
vt 0.831858 0.863406
vn -0.001083463 0.9999979 0.001724072
vn -0.001083463 0.9999979 0.001724072
vn -0.001083463 0.9999979 0.001724072
vn -0.000112471 1 -7.073479E-05
vn -0.000112471 1 -7.073479E-05
vn -0.000112471 1 -7.073479E-05
vn 0.206684 0.9215145 -0.3287746
vn 0.206684 0.9215145 -0.3287746
vn 0.206684 0.9215145 -0.3287746
vn 0.2062953 0.9216521 -0.3286332
vn 0.2062953 0.9216521 -0.3286332
vn 0.2062953 0.9216521 -0.3286332
vn 0 1 0
vn 0 1 0
vn 0 1 0
vn 0 1 0
vn -1.07225E-05 1 -6.724458E-06
vn -1.07225E-05 1 -6.724458E-06
vn -1.07225E-05 1 -6.724458E-06
vn -1.072155E-05 1 -6.728529E-06
vn -1.072155E-05 1 -6.728529E-06
vn -1.072155E-05 1 -6.728529E-06
vn -1.071125E-05 1 -6.731416E-06
vn -1.071125E-05 1 -6.731416E-06
vn -1.071125E-05 1 -6.731416E-06
vn -1.070612E-05 1 -6.741443E-06
vn -1.070612E-05 1 -6.741443E-06
vn -1.070612E-05 1 -6.741443E-06
vn -1.07225E-05 1 -6.724458E-06
vn -1.07225E-05 1 -6.724458E-06
vn -1.07225E-05 1 -6.724458E-06
vn -1.072284E-05 1 -6.728747E-06
vn -1.072284E-05 1 -6.728747E-06
vn -1.072284E-05 1 -6.728747E-06
vn -1.07108E-05 1 -6.734414E-06
vn -1.07108E-05 1 -6.734414E-06
vn -1.07108E-05 1 -6.734414E-06
vn -1.071169E-05 1 -6.732719E-06
vn -1.071169E-05 1 -6.732719E-06
vn -1.071169E-05 1 -6.732719E-06
vn -1.07141E-05 1 -6.732149E-06
vn -1.07141E-05 1 -6.732149E-06
vn -1.07141E-05 1 -6.732149E-06
vn -1.071427E-05 1 -6.732621E-06
vn -1.071427E-05 1 -6.732621E-06
vn -1.071427E-05 1 -6.732621E-06
vn 0 1 0
vn 0 1 0
vn 0 1 0
vn 6.797299E-07 1 -1.315686E-05
vn 6.797299E-07 1 -1.315686E-05
vn 6.797299E-07 1 -1.315686E-05
vn -1.071334E-05 1 -6.732556E-06
vn -1.071334E-05 1 -6.732556E-06
vn -1.071334E-05 1 -6.732556E-06
vn -1.071547E-05 1 -6.711087E-06
vn -1.071547E-05 1 -6.711087E-06
vn -1.071547E-05 1 -6.711087E-06
vn -1.071354E-05 1 -6.723281E-06
vn -1.071354E-05 1 -6.723281E-06
vn -1.071354E-05 1 -6.723281E-06
vn -1.071149E-05 1 -6.763194E-06
vn -1.071149E-05 1 -6.763194E-06
vn -1.071149E-05 1 -6.763194E-06
vn 1.990412E-05 1 -3.16617E-05
vn 1.990412E-05 1 -3.16617E-05
vn 1.990412E-05 1 -3.16617E-05
vn -1.877614E-05 1 -1.17991E-05
vn -1.877614E-05 1 -1.17991E-05
vn -1.877614E-05 1 -1.17991E-05
vn 1.989214E-05 1 -3.165792E-05
vn 1.989214E-05 1 -3.165792E-05
vn 1.989214E-05 1 -3.165792E-05
vn 0.3590097 0.7401306 -0.5686112
vn 0.3590097 0.7401306 -0.5686112
vn 0.3590097 0.7401306 -0.5686112
vn 0.6102743 0.7023224 0.3664812
vn 0.6102743 0.7023224 0.3664812
vn 0.6102743 0.7023224 0.3664812
vn 0.6219023 0.6788229 0.3904319
vn 0.6219023 0.6788229 0.3904319
vn 0.6219023 0.6788229 0.3904319
vn -0.3658746 0.7251198 0.5833842
vn -0.3658746 0.7251198 0.5833842
vn -0.3658746 0.7251198 0.5833842
vn -0.6157634 0.695773 -0.3697775
vn -0.6157634 0.695773 -0.3697775
vn -0.6157634 0.695773 -0.3697775
vn -0.6274906 0.6713789 -0.3943423
vn -0.6274906 0.6713789 -0.3943423
vn -0.6274906 0.6713789 -0.3943423
vn -0.531992 0 0.8467494
vn -0.531992 0 0.8467494
vn -0.531992 0 0.8467494
vn -0.531992 0 0.8467494
vn -0.531992 0 0.8467494
vn -0.531992 0 0.8467494
vn -0.531992 0 0.8467494
vn -0.531992 0 0.8467494
vn -0.531992 0 0.8467494
vn -0.531992 0 0.8467494
vn -0.531992 -1.473621E-12 0.8467494
vn -0.531992 -1.473621E-12 0.8467494
vn -0.531992 -1.473621E-12 0.8467494
vn 0.8465052 0 0.5323804
vn 0.8465052 0 0.5323804
vn 0.8465052 0 0.5323804
vn 0.8465052 0 0.5323804
vn 0.8466915 0 0.5320841
vn 0.8466915 0 0.5320841
vn 0.8466915 0 0.5320841
vn 0.8466915 0 0.5320841
vn 0.8469298 0 0.5317048
vn 0.8469298 0 0.5317048
vn 0.8469298 0 0.5317048
vn 0.8469298 0 0.5317048
vn 0.8466983 0 0.5320733
vn 0.8466983 0 0.5320733
vn 0.8466983 0 0.5320733
vn 0.8466983 0 0.5320733
vn 0.8467831 0 0.5319384
vn 0.8467831 0 0.5319384
vn 0.8467831 0 0.5319384
vn 0.8467831 0 0.5319384
vn 0.8467831 0 0.5319384
vn 0.8467831 0 0.5319384
vn 0.8467831 -2.357575E-11 0.5319384
vn 0.8467831 -2.357575E-11 0.5319384
vn 0.8467831 -2.357575E-11 0.5319384
vn 0.8465052 0 0.5323804
vn 0.8465052 0 0.5323804
vn 0.8465052 0 0.5323804
vn 0.8465052 0 0.5323804
vn 0.8465052 0 0.5323804
vn 0.8465052 0 0.5323804
vn 0.8465052 -2.12504E-11 0.5323804
vn 0.8465052 -2.12504E-11 0.5323804
vn 0.8465052 -2.12504E-11 0.5323804
vn 0.5320872 0 -0.8466896
vn 0.5320872 0 -0.8466896
vn 0.5320872 0 -0.8466896
vn 0.5320872 0 -0.8466896
vn -0.8470818 0 -0.5314624
vn -0.8470818 0 -0.5314624
vn -0.8470818 0 -0.5314624
vn -0.8470818 0 -0.5314624
vn -0.8467507 0 -0.5319899
vn -0.8467507 0 -0.5319899
vn -0.8467507 0 -0.5319899
vn -0.8467507 0 -0.5319899
vn -0.8467231 0 -0.5320338
vn -0.8467231 0 -0.5320338
vn -0.8467231 0 -0.5320338
vn -0.8467231 0 -0.5320338
vn -0.8470818 0 -0.5314624
vn -0.8470818 0 -0.5314624
vn -0.8470818 0 -0.5314624
vn -0.8470818 0 -0.5314624
vn 0.8466817 0 0.5320997
vn 0.8466817 0 0.5320997
vn 0.8466817 0 0.5320997
vn 0.8466817 0 0.5320997
vn 0.531665 0 -0.8469547
vn 0.531665 0 -0.8469547
vn 0.531665 0 -0.8469547
vn 0.531665 0 -0.8469547
vn 0.531665 0 -0.8469547
vn 0.531665 0 -0.8469547
vn 0.531665 4.094774E-11 -0.8469547
vn 0.531665 4.094774E-11 -0.8469547
vn 0.531665 4.094774E-11 -0.8469547
vn -0.8463501 0 -0.532627
vn -0.8463501 0 -0.532627
vn -0.8463501 0 -0.532627
vn -0.8463501 0 -0.532627
vn -0.5155697 0 0.8568476
vn -0.5155697 0 0.8568476
vn -0.5155697 0 0.8568476
vn -0.5155697 0 0.8568476
vn 0.8575956 0 0.5143246
vn 0.8575956 0 0.5143246
vn 0.8575956 0 0.5143246
vn 0.8575956 0 0.5143246
vn 0.515264 0 -0.8570315
vn 0.515264 0 -0.8570315
vn 0.515264 0 -0.8570315
vn 0.515264 0 -0.8570315
vn -0.8567731 0 -0.5156936
vn -0.8567731 0 -0.5156936
vn -0.8567731 0 -0.5156936
vn -0.8567731 0 -0.5156936
vn 0.532035 0 -0.8467224
vn 0.532035 0 -0.8467224
vn 0.532035 0 -0.8467224
vn 0.532035 0 -0.8467224
vn 0.532035 0 -0.8467224
vn 0.532035 0 -0.8467224
vn 0.532035 0 -0.8467224
vn 0.532035 0 -0.8467224
vn 0.532035 0 -0.8467224
vn 0.532035 -3.605353E-11 -0.8467224
vn 0.532035 -3.605353E-11 -0.8467224
vn 0.532035 -3.605353E-11 -0.8467224
vn 0.531861 0 -0.8468317
vn 0.531861 0 -0.8468317
vn 0.531861 0 -0.8468317
vn 0.531861 0 -0.8468317
vn 0.531861 0 -0.8468317
vn 0.531861 0 -0.8468317
vn 0.531861 0 -0.8468317
vn 0.532219 0 -0.8466067
vn 0.532219 0 -0.8466067
vn 0.532219 0 -0.8466067
vn 0.532219 0 -0.8466067
vn 0.5328456 0 -0.8462125
vn 0.5328456 0 -0.8462125
vn 0.5328456 0 -0.8462125
vn 0.5328456 8.611762E-07 -0.8462125
vn 0.5328456 8.611762E-07 -0.8462125
vn 0.5328456 8.611762E-07 -0.8462125
vn -0.5322962 8.276712E-07 0.8465582
vn -0.5322962 8.276712E-07 0.8465582
vn -0.5322962 8.276712E-07 0.8465582
vn -0.5322962 0 0.8465582
vn -0.5322962 0 0.8465582
vn -0.5322962 0 0.8465582
vn -0.8466854 0 -0.5320938
vn -0.8466854 0 -0.5320938
vn -0.8466854 0 -0.5320938
vn -0.8466854 0 -0.5320938
vn -0.8466854 0 -0.5320938
vn -0.8466854 0 -0.5320938
vn -0.8466854 4.396466E-06 -0.5320938
vn -0.8466854 4.396466E-06 -0.5320938
vn -0.8466854 4.396466E-06 -0.5320938
vn 0 -1 0
vn 0 -1 0
vn 0 -1 0
vn 0 -1 0
vn 0 -1 0
vn 0 -1 0
vn 0 -1 0
vn 0 -1 0
vn 0 -1 0
vn 0 -1 0
vn 0 -1 0
vn 0 -1 0
vn 0 -1 0
vn 0 -1 0
vn 0 -1 0
vn 0 -1 0
vn 0 -1 0
vn 0 -1 0
vn 0 -1 0

g CDNNDG02_0017600
f 1/1/1 2/2/2 3/3/3
f 4/4/4 5/5/5 6/6/6
f 7/7/7 8/8/8 9/9/9
f 10/10/10 11/11/11 12/12/12
f 13/13/13 14/14/14 15/15/15
f 13/13/13 16/16/16 14/14/14
f 17/17/17 18/18/18 19/19/19
f 20/20/20 21/21/21 22/22/22
f 23/23/23 24/24/24 25/25/25
f 26/26/26 27/27/27 28/28/28
f 29/29/29 30/30/30 31/31/31
f 32/32/32 33/33/33 34/34/34
f 35/35/35 36/36/36 37/37/37
f 38/38/38 39/39/39 40/40/40
f 41/41/41 42/42/42 43/43/43
f 44/44/44 45/45/45 46/46/46
f 47/47/47 48/48/48 49/49/49
f 50/50/50 51/51/51 52/52/52
f 53/53/53 54/54/54 55/55/55
f 56/56/56 57/57/57 58/58/58
f 59/59/59 60/60/60 61/61/61
f 62/62/62 63/63/63 64/64/64
f 65/65/65 66/66/66 67/67/67
f 68/68/68 69/69/69 70/70/70
f 71/71/71 72/72/72 73/73/73
f 74/74/74 75/75/75 76/76/76
f 77/77/77 78/78/78 79/79/79
f 80/80/80 81/81/81 82/82/82
f 83/83/83 84/84/84 85/85/85
f 86/86/86 87/87/87 88/88/88
f 89/89/89 90/90/90 91/91/91
f 92/92/92 93/93/93 94/94/94
f 95/95/95 92/92/92 94/94/94
f 96/96/96 97/97/97 98/98/98
f 99/99/99 100/100/100 101/101/101
f 102/102/102 103/103/103 104/104/104
f 105/105/105 106/106/106 107/107/107
f 105/105/105 108/108/108 106/106/106
f 109/109/109 110/110/110 111/111/111
f 111/111/111 110/110/110 112/112/112
f 113/113/113 114/114/114 115/115/115
f 116/116/116 113/113/113 115/115/115
f 117/117/117 118/118/118 119/119/119
f 119/119/119 118/118/118 120/120/120
f 121/121/121 122/122/122 123/123/123
f 124/124/124 125/125/125 126/126/126
f 127/127/127 128/128/128 129/129/129
f 130/130/130 131/131/131 132/132/132
f 133/133/133 134/134/134 135/135/135
f 136/136/136 137/137/137 138/138/138
f 139/139/139 140/140/140 141/141/141
f 139/139/139 142/142/142 140/140/140
f 143/143/143 144/144/144 145/145/145
f 145/145/145 144/144/144 146/146/146
f 147/147/147 148/148/148 149/149/149
f 147/147/147 150/150/150 148/148/148
f 151/151/151 152/152/152 153/153/153
f 153/153/153 152/152/152 154/154/154
f 155/155/155 156/156/156 157/157/157
f 155/155/155 158/158/158 156/156/156
f 159/159/159 160/160/160 161/161/161
f 161/161/161 160/160/160 162/162/162
f 163/163/163 164/164/164 165/165/165
f 166/166/166 167/167/167 168/168/168
f 169/169/169 170/170/170 171/171/171
f 172/172/172 173/173/173 174/174/174
f 175/175/175 172/172/172 174/174/174
f 176/176/176 177/177/177 178/178/178
f 179/179/179 176/176/176 178/178/178
f 180/180/180 181/181/181 182/182/182
f 183/183/183 182/182/182 181/181/181
f 184/184/184 185/185/185 186/186/186
f 187/187/187 186/186/186 185/185/185
f 188/188/188 189/189/189 190/190/190
f 191/191/191 188/188/188 190/190/190
f 192/192/192 193/193/193 194/194/194
f 195/195/195 196/196/196 197/197/197
f 198/198/198 199/199/199 200/200/200
f 201/201/201 202/202/202 203/203/203
f 204/204/204 205/205/205 206/206/206
f 207/207/207 206/206/206 205/205/205
f 208/208/208 209/209/209 210/210/210
f 211/211/211 212/212/212 213/213/213
f 211/211/211 214/214/214 212/212/212
f 215/215/215 216/216/216 217/217/217
f 218/218/218 219/219/219 220/220/220
f 221/221/221 222/222/222 223/223/223
f 224/224/224 225/225/225 226/226/226
f 227/227/227 228/228/228 229/229/229
f 230/230/230 231/231/231 232/232/232
f 233/233/233 234/234/234 235/235/235
f 236/236/236 237/237/237 238/238/238
f 239/239/239 240/240/240 241/241/241
f 242/242/242 239/239/239 241/241/241
f 239/239/239 243/243/243 240/240/240
f 244/244/244 242/242/242 245/245/245
f 245/245/245 246/246/246 247/247/247
f 240/240/240 248/248/248 236/236/236
f 240/240/240 249/249/249 248/248/248
f 245/245/245 250/250/250 246/246/246
f 245/245/245 251/251/251 250/250/250
f 248/248/248 252/252/252 236/236/236
f 242/242/242 251/251/251 245/245/245
f 242/242/242 241/241/241 251/251/251
f 238/238/238 237/237/237 253/253/253
f 240/240/240 238/238/238 241/241/241
f 237/237/237 254/254/254 253/253/253
f 240/240/240 236/236/236 238/238/238
