v 0.5221358 7.255285 0.9420414
v 0.8251358 7.255248 0.4900414
v 1.472136 7.254904 -5.265959
v -0.6828642 7.255721 7.977041
v 0.5221358 7.255285 0.9420414
v 1.472136 7.254904 -5.265959
v 0.8251358 7.255248 0.4900414
v 7.499136 7.254716 -4.609959
v 1.472136 7.254904 -5.265959
v -0.6828642 7.255721 7.977041
v 1.447136 7.255248 0.9070414
v 1.144136 7.255285 1.359041
v -0.6828642 7.255721 7.977041
v 1.144136 7.255285 1.359041
v 0.5221358 7.255285 0.9420414
v 0.8251358 7.255248 0.4900414
v 1.447136 7.255248 0.9070414
v 7.499136 7.254716 -4.609959
v -0.6828642 7.255721 7.977041
v 7.499136 7.254716 -4.609959
v 1.447136 7.255248 0.9070414
v 1.472136 7.254904 -5.265959
v 7.499136 7.254716 -4.609959
v 2.963136 7.254721 -7.558959
v -7.190864 7.255721 3.624041
v -6.715864 7.25572 3.933041
v -0.5538642 7.254906 -6.582959
v -7.026864 7.255758 4.410041
v -4.744864 7.255756 5.893042
v -4.490864 7.255725 5.501041
v -6.715864 7.25572 3.933041
v -4.490864 7.255725 5.501041
v 1.472136 7.254904 -5.265959
v -0.5538642 7.254906 -6.582959
v -6.715864 7.25572 3.933041
v -4.490864 7.255725 5.501041
v -0.6828642 7.255721 7.977041
v 1.472136 7.254904 -5.265959
v 0.5221358 7.647414 0.9420414
v 1.447136 7.646414 0.9070414
v 0.8251358 7.646414 0.4900414
v 0.5221358 7.647414 0.9420414
v 1.144136 7.646414 1.359041
v 1.447136 7.646414 0.9070414
v -7.026864 -7.256713 4.410041
v -4.744864 -7.256713 5.893042
v -4.744864 7.255756 5.893042
v -7.026864 7.255758 4.410041
v -4.617864 -7.256713 5.697042
v -4.490864 -7.256713 5.501041
v -4.490864 7.255725 5.501041
v -4.744864 7.255756 5.893042
v -4.744864 -7.256713 5.893042
v -4.617864 -7.256713 5.697042
v -4.744864 7.255756 5.893042
v -4.617864 -7.256713 5.697042
v -4.490864 7.255725 5.501041
v -2.586864 -7.256713 6.739041
v -0.6828642 -7.256713 7.977041
v -0.6828642 7.255721 7.977041
v -4.490864 7.255725 5.501041
v -4.490864 -7.256713 5.501041
v -2.586864 -7.256713 6.739041
v -4.490864 7.255725 5.501041
v -2.586864 -7.256713 6.739041
v -0.6828642 7.255721 7.977041
v -0.6828642 -7.256713 7.977041
v 7.499136 -7.256713 -4.609959
v 7.499136 7.254716 -4.609959
v -0.6828642 7.255721 7.977041
v 2.963136 7.254721 -7.558959
v 7.499136 7.254716 -4.609959
v 7.499136 -7.256713 -4.609959
v 2.963136 -7.256713 -7.558959
v 1.472136 7.254904 -5.265959
v 2.963136 7.254721 -7.558959
v 2.963136 -7.256713 -7.558959
v 1.472136 -7.256713 -5.265959
v -0.5538642 7.254906 -6.582959
v 0.4591358 -7.256713 -5.924459
v -0.5538642 -7.256713 -6.582959
v 0.4591358 -7.256713 -5.924459
v 1.472136 7.254904 -5.265959
v 1.472136 -7.256713 -5.265959
v -0.5538642 7.254906 -6.582959
v 1.472136 7.254904 -5.265959
v 0.4591358 -7.256713 -5.924459
v -7.190864 7.255721 3.624041
v -0.5538642 7.254906 -6.582959
v -0.5538642 -7.256713 -6.582959
v -7.190864 -7.256713 3.624041
v -7.190864 -7.256713 3.624041
v -6.715864 -7.256713 3.933041
v -6.715864 7.25572 3.933041
v -7.190864 7.255721 3.624041
v -7.026864 7.255758 4.410041
v -6.715864 7.25572 3.933041
v -6.715864 -7.256713 3.933041
v -7.026864 -7.256713 4.410041
v 0.5221358 7.255285 0.9420414
v 1.144136 7.255285 1.359041
v 1.144136 7.646414 1.359041
v 0.5221358 7.647414 0.9420414
v 1.144136 7.255285 1.359041
v 1.447136 7.255248 0.9070414
v 1.447136 7.646414 0.9070414
v 1.144136 7.646414 1.359041
v 0.8251358 7.646414 0.4900414
v 1.447136 7.646414 0.9070414
v 1.447136 7.255248 0.9070414
v 0.8251358 7.255248 0.4900414
v 0.5221358 7.647414 0.9420414
v 0.8251358 7.646414 0.4900414
v 0.8251358 7.255248 0.4900414
v 0.5221358 7.255285 0.9420414
v -7.026864 -7.256713 4.410041
v -6.715864 -7.256713 3.933041
v -7.190864 -7.256713 3.624041
v -0.5538642 -7.256713 -6.582959
v 0.4591358 -7.256713 -5.924459
v 1.472136 -7.256713 -5.265959
v 2.963136 -7.256713 -7.558959
v 7.499136 -7.256713 -4.609959
v -0.6828642 -7.256713 7.977041
v -2.586864 -7.256713 6.739041
v -4.490864 -7.256713 5.501041
v -4.617864 -7.256713 5.697042
v -4.744864 -7.256713 5.893042
vt 0.288510 0.197682
vt 0.306858 0.189138
vt 0.541097 0.170266
vt 0.002304 0.232345
vt 0.288510 0.197682
vt 0.541097 0.170266
vt 0.306858 0.189138
vt 0.513281 0.001585
vt 0.541097 0.170266
vt 0.002304 0.232345
vt 0.289764 0.171776
vt 0.271417 0.180320
vt 0.002304 0.232345
vt 0.271417 0.180320
vt 0.288510 0.197682
vt 0.306858 0.189138
vt 0.289764 0.171776
vt 0.513281 0.001585
vt 0.002304 0.232345
vt 0.513281 0.001585
vt 0.289764 0.171776
vt 0.541097 0.170266
vt 0.513281 0.001585
vt 0.634185 0.128216
vt 0.180743 0.413992
vt 0.168074 0.400734
vt 0.595090 0.226823
vt 0.148712 0.409504
vt 0.087909 0.345805
vt 0.103822 0.338642
vt 0.168074 0.400734
vt 0.103822 0.338642
vt 0.541097 0.170266
vt 0.595090 0.226823
vt 0.168074 0.400734
vt 0.103822 0.338642
vt 0.002304 0.232345
vt 0.541097 0.170266
vt 0.654341 0.786769
vt 0.655521 0.762282
vt 0.671612 0.778693
vt 0.654341 0.786769
vt 0.638249 0.770358
vt 0.655521 0.762282
vt 0.320232 0.932582
vt 0.262673 0.869963
vt 0.275272 0.762282
vt 0.333894 0.826058
vt 0.546402 0.765757
vt 0.553633 0.762282
vt 0.566542 0.878103
vt 0.551813 0.885180
vt 0.539171 0.769232
vt 0.546402 0.765757
vt 0.551813 0.885180
vt 0.546402 0.765757
vt 0.566542 0.878103
vt 0.196056 0.924578
vt 0.147465 0.872230
vt 0.158697 0.762282
vt 0.257670 0.868911
vt 0.244645 0.976924
vt 0.196056 0.924578
vt 0.257670 0.868911
vt 0.196056 0.924578
vt 0.158697 0.762282
vt 0.002304 0.644089
vt 0.503205 0.418384
vt 0.524523 0.529074
vt 0.014396 0.758937
vt 0.142614 0.998753
vt 0.023371 0.872751
vt 0.002304 0.762282
vt 0.119391 0.886008
vt 0.440228 0.803774
vt 0.532325 0.762282
vt 0.509782 0.873736
vt 0.419355 0.914476
vt 0.412513 0.931608
vt 0.364501 0.789838
vt 0.390292 0.817395
vt 0.364501 0.789838
vt 0.359980 0.875482
vt 0.338710 0.762282
vt 0.412513 0.931608
vt 0.359980 0.875482
vt 0.364501 0.789838
vt 0.544561 0.603965
vt 0.960469 0.418384
vt 0.938322 0.528594
vt 0.529954 0.710813
vt 0.582777 0.881536
vt 0.571429 0.868552
vt 0.584680 0.762282
vt 0.596238 0.775506
vt 0.614545 0.770907
vt 0.632782 0.762282
vt 0.619289 0.868495
vt 0.601382 0.876964
vt 0.692309 0.781423
vt 0.677419 0.765130
vt 0.677813 0.762282
vt 0.692711 0.778576
vt 0.741935 0.769763
vt 0.758289 0.762282
vt 0.758713 0.765029
vt 0.742351 0.772513
vt 0.713574 0.781240
vt 0.698574 0.765179
vt 0.698157 0.762282
vt 0.713150 0.778335
vt 0.719302 0.769734
vt 0.735769 0.762282
vt 0.735354 0.764962
vt 0.718894 0.772417
vt 0.764977 0.762282
vt 0.764977 0.762282
vt 0.764977 0.762282
vt 0.764977 0.762282
vt 0.764977 0.762282
vt 0.764977 0.762282
vt 0.764977 0.762282
vt 0.764977 0.762282
vt 0.764977 0.762282
vt 0.764977 0.762282
vt 0.764977 0.762282
vt 0.764977 0.762282
vt 0.764977 0.762282
vn 3.720344E-05 1 -5.563575E-05
vn 3.720344E-05 1 -5.563575E-05
vn 3.720344E-05 1 -5.563575E-05
vn 3.714398E-05 1 -5.564485E-05
vn 3.714398E-05 1 -5.564485E-05
vn 3.714398E-05 1 -5.564485E-05
vn 3.721195E-05 1 -5.563479E-05
vn 3.721195E-05 1 -5.563479E-05
vn 3.721195E-05 1 -5.563479E-05
vn 3.72027E-05 1 -5.563625E-05
vn 3.72027E-05 1 -5.563625E-05
vn 3.72027E-05 1 -5.563625E-05
vn 3.721659E-05 1 -5.563241E-05
vn 3.721659E-05 1 -5.563241E-05
vn 3.721659E-05 1 -5.563241E-05
vn 3.721527E-05 1 -5.563045E-05
vn 3.721527E-05 1 -5.563045E-05
vn 3.721527E-05 1 -5.563045E-05
vn 3.721274E-05 1 -5.563322E-05
vn 3.721274E-05 1 -5.563322E-05
vn 3.721274E-05 1 -5.563322E-05
vn 3.721179E-05 1 -5.563333E-05
vn 3.721179E-05 1 -5.563333E-05
vn 3.721179E-05 1 -5.563333E-05
vn 3.720481E-05 1 -5.563845E-05
vn 3.720481E-05 1 -5.563845E-05
vn 3.720481E-05 1 -5.563845E-05
vn 3.721389E-05 1 -5.563192E-05
vn 3.721386E-05 1 -5.563184E-05
vn 3.721389E-05 1 -5.563192E-05
vn 3.721393E-05 1 -5.563201E-05
vn 3.721409E-05 1 -5.563224E-05
vn 3.721283E-05 1 -5.563337E-05
vn 3.721156E-05 1 -5.56345E-05
vn 3.721283E-05 1 -5.563337E-05
vn 3.721104E-05 1 -5.563394E-05
vn 3.721104E-05 1 -5.563394E-05
vn 3.721104E-05 1 -5.563394E-05
vn 0.001023324 0.9999983 -0.001526396
vn 0.001023324 0.9999983 -0.001526396
vn 0.001023324 0.9999983 -0.001526396
vn 0.001109215 0.9999991 0.0007435667
vn 0.001109215 0.9999991 0.0007435667
vn 0.001109215 0.9999991 0.0007435667
vn -0.5449108 0 0.838494
vn -0.5449108 0 0.838494
vn -0.5449108 0 0.838494
vn -0.5449108 0 0.838494
vn 0.8392254 0 0.5437838
vn 0.8392254 0 0.5437838
vn 0.8392254 0 0.5437838
vn 0.8392254 0 0.5437838
vn 0.8392254 0 0.5437838
vn 0.8392254 0 0.5437838
vn 0.8392254 -1.913141E-11 0.5437838
vn 0.8392254 -1.913141E-11 0.5437838
vn 0.8392254 -1.913141E-11 0.5437838
vn -0.5451121 0 0.8383631
vn -0.5451121 0 0.8383631
vn -0.5451121 0 0.8383631
vn -0.5451121 0 0.8383631
vn -0.5451121 0 0.8383631
vn -0.5451121 0 0.8383631
vn -0.5451121 1.093196E-12 0.8383631
vn -0.5451121 1.093196E-12 0.8383631
vn -0.5451121 1.093196E-12 0.8383631
vn 0.8384299 0 0.5450094
vn 0.8384299 0 0.5450094
vn 0.8384299 0 0.5450094
vn 0.8384299 0 0.5450094
vn 0.5450663 0 -0.8383929
vn 0.5450663 0 -0.8383929
vn 0.5450663 0 -0.8383929
vn 0.5450663 0 -0.8383929
vn -0.8383517 0 -0.5451297
vn -0.8383517 0 -0.5451297
vn -0.8383517 0 -0.5451297
vn -0.8383517 0 -0.5451297
vn 0.5450174 0 -0.8384247
vn 0.5450174 0 -0.8384247
vn 0.5450174 0 -0.8384247
vn 0.5450174 0 -0.8384247
vn 0.5450174 0 -0.8384247
vn 0.5450174 0 -0.8384247
vn 0.5450174 2.581103E-11 -0.8384247
vn 0.5450174 2.581103E-11 -0.8384247
vn 0.5450174 2.581103E-11 -0.8384247
vn -0.8383517 0 -0.5451298
vn -0.8383517 0 -0.5451298
vn -0.8383517 0 -0.5451298
vn -0.8383517 0 -0.5451298
vn -0.5452985 0 0.8382419
vn -0.5452985 0 0.8382419
vn -0.5452985 0 0.8382419
vn -0.5452985 0 0.8382419
vn -0.8376805 0 -0.5461606
vn -0.8376805 0 -0.5461606
vn -0.8376805 0 -0.5461606
vn -0.8376805 0 -0.5461606
vn -0.5568555 0 0.8306094
vn -0.5568555 0 0.8306094
vn -0.5568555 0 0.8306094
vn -0.5568555 0 0.8306094
vn 0.830634 0 0.5568188
vn 0.830634 0 0.5568188
vn 0.830634 0 0.5568188
vn 0.830634 0 0.5568188
vn 0.5568555 0 -0.8306094
vn 0.5568555 0 -0.8306094
vn 0.5568555 0 -0.8306094
vn 0.5568555 0 -0.8306094
vn -0.830634 0 -0.5568188
vn -0.830634 0 -0.5568188
vn -0.830634 0 -0.5568188
vn -0.830634 0 -0.5568188
vn 0 -1 0
vn 0 -1 0
vn 0 -1 0
vn 0 -1 0
vn 0 -1 0
vn 0 -1 0
vn 0 -1 0
vn 0 -1 0
vn 0 -1 0
vn 0 -1 0
vn 0 -1 0
vn 0 -1 0
vn 0 -1 0

g CDNNDG02_0005800
f 1/1/1 2/2/2 3/3/3
f 4/4/4 5/5/5 6/6/6
f 7/7/7 8/8/8 9/9/9
f 10/10/10 11/11/11 12/12/12
f 13/13/13 14/14/14 15/15/15
f 16/16/16 17/17/17 18/18/18
f 19/19/19 20/20/20 21/21/21
f 22/22/22 23/23/23 24/24/24
f 25/25/25 26/26/26 27/27/27
f 31/31/31 28/28/28 30/30/30
f 30/30/30 28/28/28 29/29/29
f 35/35/35 32/32/32 33/33/33
f 34/34/34 35/35/35 33/33/33
f 36/36/36 37/37/37 38/38/38
f 39/39/39 40/40/40 41/41/41
f 42/42/42 43/43/43 44/44/44
f 48/48/48 45/45/45 47/47/47
f 47/47/47 45/45/45 46/46/46
f 49/49/49 50/50/50 51/51/51
f 52/52/52 53/53/53 54/54/54
f 55/55/55 56/56/56 57/57/57
f 58/58/58 59/59/59 60/60/60
f 61/61/61 62/62/62 63/63/63
f 64/64/64 65/65/65 66/66/66
f 70/70/70 67/67/67 69/69/69
f 68/68/68 69/69/69 67/67/67
f 73/73/73 74/74/74 72/72/72
f 71/71/71 72/72/72 74/74/74
f 76/76/76 77/77/77 78/78/78
f 75/75/75 76/76/76 78/78/78
f 79/79/79 80/80/80 81/81/81
f 82/82/82 83/83/83 84/84/84
f 85/85/85 86/86/86 87/87/87
f 91/91/91 89/89/89 90/90/90
f 91/91/91 88/88/88 89/89/89
f 92/92/92 94/94/94 95/95/95
f 94/94/94 92/92/92 93/93/93
f 97/97/97 98/98/98 99/99/99
f 96/96/96 97/97/97 99/99/99
f 103/103/103 100/100/100 102/102/102
f 102/102/102 100/100/100 101/101/101
f 104/104/104 106/106/106 107/107/107
f 104/104/104 105/105/105 106/106/106
f 108/108/108 110/110/110 111/111/111
f 108/108/108 109/109/109 110/110/110
f 113/113/113 114/114/114 115/115/115
f 112/112/112 113/113/113 115/115/115
f 128/128/128 116/116/116 127/127/127
f 127/127/127 116/116/116 117/117/117
f 121/121/121 117/117/117 120/120/120
f 117/117/117 119/119/119 120/120/120
f 118/118/118 119/119/119 117/117/117
f 126/126/126 117/117/117 121/121/121
f 121/121/121 122/122/122 123/123/123
f 124/124/124 121/121/121 123/123/123
f 125/125/125 121/121/121 124/124/124
f 125/125/125 126/126/126 121/121/121
f 126/126/126 127/127/127 117/117/117
