v 0.0938151 6.206117 8.217396
v 4.993815 6.205897 -2.572605
v 2.713653 6.205944 1.645757
v 0.0938151 6.206117 8.217396
v 2.511375 6.205944 1.956387
v 2.18169 6.205894 1.741805
v 0.0938151 6.206117 8.217396
v 2.713653 6.205944 1.645757
v 2.511375 6.205944 1.956387
v 2.383939 6.205894 1.430654
v 2.713653 6.205944 1.645757
v 4.993815 6.205897 -2.572605
v -1.966185 6.205117 -3.047605
v 2.18169 6.205894 1.741805
v 2.383939 6.205894 1.430654
v -1.966185 6.205117 -3.047605
v 2.383939 6.205894 1.430654
v 4.993815 6.205897 -2.572605
v -3.450185 6.205579 5.934395
v 0.0938151 6.206117 8.217396
v 2.18169 6.205894 1.741805
v -3.450185 6.205579 5.934395
v 2.18169 6.205894 1.741805
v -1.966185 6.205117 -3.047605
v -5.916185 6.205205 4.346395
v -3.450185 6.205579 5.934395
v -1.966185 6.205117 -3.047605
v -6.491185 6.205117 3.975395
v -5.916185 6.205205 4.346395
v -1.966185 6.205117 -3.047605
v -1.966185 6.205117 -3.047605
v 4.993815 6.205897 -2.572605
v 1.784815 6.205117 -8.870605
v 1.784815 6.205117 -8.870605
v 4.993815 6.205897 -2.572605
v 6.919815 6.205897 -5.562605
v 0.0938151 6.206117 8.217396
v 6.443815 6.206118 -1.638605
v 4.993815 6.205897 -2.572605
v 2.430815 6.419128 1.702395
v 2.511375 6.205944 1.956387
v 2.713653 6.205944 1.645757
v 2.383939 6.205894 1.430654
v 2.430815 6.419128 1.702395
v 2.713653 6.205944 1.645757
v 2.18169 6.205894 1.741805
v 2.511375 6.205944 1.956387
v 2.430815 6.419128 1.702395
v 2.18169 6.205894 1.741805
v 2.430815 6.419128 1.702395
v 2.383939 6.205894 1.430654
v -6.562185 5.084128 5.350395
v -3.450185 5.602129 5.934395
v -5.916185 5.603128 4.346395
v -6.562185 5.084128 5.350395
v -4.096185 5.084128 6.938396
v -3.450185 5.602129 5.934395
v -6.491185 1.526128 3.975395
v -3.821185 0.8871283 -4.242605
v -8.346185 0.8871283 2.780395
v -1.966185 1.526128 -3.047605
v -5.916185 6.205205 4.346395
v -5.916185 5.603128 4.346395
v -3.450185 6.205579 5.934395
v -3.450185 5.602129 5.934395
v 0.0938151 -5.763422 8.217396
v 0.0938151 6.206117 8.217396
v -3.450185 5.602129 5.934395
v -3.450185 -5.763422 5.934395
v -3.450185 6.205579 5.934395
v -3.450185 5.602129 5.934395
v 0.0938151 6.206117 8.217396
v -6.203685 -5.763422 4.160895
v -5.916185 5.603128 4.346395
v -5.916185 6.205205 4.346395
v -6.203685 -5.763422 4.160895
v -5.916185 -5.763422 4.346395
v -5.916185 5.603128 4.346395
v -6.491185 6.205117 3.975395
v -6.491185 1.526128 3.975395
v -6.203685 -5.763422 4.160895
v -6.491185 1.526128 3.975395
v -6.491185 -5.763422 3.975395
v -6.203685 -5.763422 4.160895
v -6.491185 6.205117 3.975395
v -6.203685 -5.763422 4.160895
v -5.916185 6.205205 4.346395
v -7.418685 -5.763422 3.377895
v -6.491185 -5.763422 3.975395
v -6.491185 1.526128 3.975395
v -8.346185 0.8871283 2.780395
v -8.346185 -5.763422 2.780395
v -7.418685 -5.763422 3.377895
v -8.346185 0.8871283 2.780395
v -7.418685 -5.763422 3.377895
v -6.491185 1.526128 3.975395
v 6.443815 -5.763422 -1.638605
v 6.443815 6.206118 -1.638605
v 0.0938151 6.206117 8.217396
v 0.0938151 -5.763422 8.217396
v 6.443815 -5.763422 -1.638605
v 4.993815 6.205897 -2.572605
v 6.443815 6.206118 -1.638605
v 4.993815 -5.763422 -2.572605
v 5.956815 -5.763422 -4.067605
v 6.919815 -5.763422 -5.562605
v 6.919815 6.205897 -5.562605
v 4.993815 6.205897 -2.572605
v 4.993815 -5.763422 -2.572605
v 5.956815 -5.763422 -4.067605
v 4.993815 6.205897 -2.572605
v 5.956815 -5.763422 -4.067605
v 6.919815 6.205897 -5.562605
v 1.784815 6.205117 -8.870605
v 4.352315 -5.763422 -7.216605
v 1.784815 -5.763422 -8.870605
v 4.352315 -5.763422 -7.216605
v 6.919815 6.205897 -5.562605
v 6.919815 -5.763422 -5.562605
v 1.784815 6.205117 -8.870605
v 6.919815 6.205897 -5.562605
v 4.352315 -5.763422 -7.216605
v -1.966185 6.205117 -3.047605
v 1.784815 6.205117 -8.870605
v -1.966185 1.526128 -3.047605
v -1.966185 1.526128 -3.047605
v 1.784815 -5.763422 -8.870605
v -1.966185 -5.763422 -3.047605
v -1.966185 1.526128 -3.047605
v 1.784815 6.205117 -8.870605
v 1.784815 -5.763422 -8.870605
v -6.491185 6.205117 3.975395
v -1.966185 1.526128 -3.047605
v -6.491185 1.526128 3.975395
v -1.966185 6.205117 -3.047605
v -6.562185 -5.763422 5.350395
v -4.096185 5.084128 6.938396
v -6.562185 5.084128 5.350395
v -4.096185 -5.763422 6.938396
v -3.773185 -5.763422 6.436395
v -3.450185 -5.763422 5.934395
v -3.450185 5.602129 5.934395
v -4.096185 5.084128 6.938396
v -4.096185 -5.763422 6.938396
v -3.773185 -5.763422 6.436395
v -4.096185 5.084128 6.938396
v -3.773185 -5.763422 6.436395
v -3.450185 5.602129 5.934395
v -6.562185 5.084128 5.350395
v -5.916185 -5.763422 4.346395
v -6.562185 -5.763422 5.350395
v -5.916185 5.603128 4.346395
v -3.821185 0.8871283 -4.242605
v -2.893685 -5.763422 -3.645105
v -3.821185 -5.763422 -4.242605
v -2.893685 -5.763422 -3.645105
v -1.966185 1.526128 -3.047605
v -1.966185 -5.763422 -3.047605
v -3.821185 0.8871283 -4.242605
v -1.966185 1.526128 -3.047605
v -2.893685 -5.763422 -3.645105
v -8.346185 0.8871283 2.780395
v -6.083685 -5.763422 -0.7311047
v -8.346185 -5.763422 2.780395
v -6.083685 -5.763422 -0.7311047
v -3.821185 0.8871283 -4.242605
v -3.821185 -5.763422 -4.242605
v -8.346185 0.8871283 2.780395
v -3.821185 0.8871283 -4.242605
v -6.083685 -5.763422 -0.7311047
v -6.083685 -5.763422 -0.7311047
v -1.966185 -5.763422 -3.047605
v -3.450185 -5.763422 5.934395
v -7.418685 -5.763422 3.377895
v -6.491185 -5.763422 3.975395
v 4.993815 -5.763422 -2.572605
v 0.0938151 -5.763422 8.217396
v -6.203685 -5.763422 4.160895
v -5.916185 -5.763422 4.346395
v -6.562185 -5.763422 5.350395
v -3.773185 -5.763422 6.436395
v -4.096185 -5.763422 6.938396
v -8.346185 -5.763422 2.780395
v 6.443815 -5.763422 -1.638605
v 4.352315 -5.763422 -7.216605
v 5.956815 -5.763422 -4.067605
v 6.919815 -5.763422 -5.562605
v 1.784815 -5.763422 -8.870605
v -3.821185 -5.763422 -4.242605
v -2.893685 -5.763422 -3.645105
vt 0.001919 0.171593
vt 0.364875 0.049206
vt 0.223107 0.105971
vt 0.001919 0.171593
vt 0.212680 0.110992
vt 0.220055 0.119007
vt 0.001919 0.171593
vt 0.223107 0.105971
vt 0.212680 0.110992
vt 0.230499 0.113987
vt 0.223107 0.105971
vt 0.364875 0.049206
vt 0.383482 0.219358
vt 0.220055 0.119007
vt 0.230499 0.113987
vt 0.383482 0.219358
vt 0.230499 0.113987
vt 0.364875 0.049206
vt 0.080399 0.257753
vt 0.001919 0.171593
vt 0.220055 0.119007
vt 0.080399 0.257753
vt 0.220055 0.119007
vt 0.383482 0.219358
vt 0.134986 0.317703
vt 0.080399 0.257753
vt 0.383482 0.219358
vt 0.147738 0.331681
vt 0.134986 0.317703
vt 0.383482 0.219358
vt 0.383482 0.219358
vt 0.364875 0.049206
vt 0.578960 0.126240
vt 0.578960 0.126240
vt 0.364875 0.049206
vt 0.465251 0.001389
vt 0.001919 0.171593
vt 0.332769 0.013950
vt 0.364875 0.049206
vt 0.477927 0.962500
vt 0.487426 0.964956
vt 0.478767 0.968982
vt 0.473800 0.969152
vt 0.464491 0.969020
vt 0.467756 0.962500
vt 0.454649 0.962500
vt 0.460554 0.969159
vt 0.451056 0.967885
vt 0.492048 0.967787
vt 0.491363 0.962500
vt 0.500780 0.963754
vt 0.041733 0.884722
vt 0.053268 0.959429
vt 0.001919 0.900790
vt 0.041733 0.884722
vt 0.093035 0.943326
vt 0.053268 0.959429
vt 0.717850 0.663933
vt 0.997985 0.598694
vt 0.764637 0.709757
vt 0.951386 0.552778
vt 0.595667 0.081449
vt 0.603871 0.080307
vt 0.647772 0.140855
vt 0.655955 0.139666
vt 0.881636 0.201721
vt 0.722680 0.226227
vt 0.655955 0.139666
vt 0.807823 0.117602
vt 0.647772 0.140855
vt 0.655955 0.139666
vt 0.722680 0.226227
vt 0.750482 0.052245
vt 0.603871 0.080307
vt 0.595667 0.081449
vt 0.750482 0.052245
vt 0.756480 0.059069
vt 0.603871 0.080307
vt 0.583493 0.067597
vt 0.646999 0.058849
vt 0.750482 0.052245
vt 0.646999 0.058849
vt 0.744484 0.045420
vt 0.750482 0.052245
vt 0.583493 0.067597
vt 0.750482 0.052245
vt 0.595667 0.081449
vt 0.725165 0.023405
vt 0.744484 0.045420
vt 0.646999 0.058849
vt 0.616658 0.013269
vt 0.705846 0.001389
vt 0.725165 0.023405
vt 0.616658 0.013269
vt 0.725165 0.023405
vt 0.646999 0.058849
vt 0.166015 0.754547
vt 0.001919 0.703360
vt 0.330292 0.552778
vt 0.489576 0.606178
vt 0.680487 0.758333
vt 0.601129 0.843929
vt 0.570058 0.809380
vt 0.711097 0.792374
vt 0.515714 0.831988
vt 0.466800 0.854323
vt 0.301344 0.803669
vt 0.400626 0.758333
vt 0.564628 0.809654
vt 0.515714 0.831988
vt 0.400626 0.758333
vt 0.515714 0.831988
vt 0.301344 0.803669
vt 0.605760 0.727411
vt 0.658684 0.613543
vt 0.713141 0.674307
vt 0.658684 0.613543
vt 0.495202 0.604066
vt 0.604224 0.552778
vt 0.605760 0.727411
vt 0.495202 0.604066
vt 0.658684 0.613543
vt 0.237611 0.427632
vt 0.433045 0.334722
vt 0.281570 0.437410
vt 0.281570 0.437410
vt 0.541551 0.360894
vt 0.349032 0.452415
vt 0.281570 0.437410
vt 0.433045 0.334722
vt 0.541551 0.360894
vt 0.001919 0.539704
vt 0.281570 0.437410
vt 0.047265 0.548821
vt 0.237611 0.427632
vt 0.860561 0.758333
vt 0.767798 0.836821
vt 0.715931 0.778162
vt 0.911737 0.816213
vt 0.699248 0.941102
vt 0.682873 0.948540
vt 0.531670 0.897438
vt 0.571845 0.884722
vt 0.715623 0.933664
vt 0.699248 0.941102
vt 0.571845 0.884722
vt 0.699248 0.941102
vt 0.531670 0.897438
vt 0.001919 0.979000
vt 0.138354 0.983975
vt 0.105502 0.999271
vt 0.030216 0.962500
vt 0.143038 0.958235
vt 0.183507 0.906436
vt 0.202997 0.928149
vt 0.183507 0.906436
vt 0.097889 0.917332
vt 0.164016 0.884722
vt 0.143038 0.958235
vt 0.097889 0.917332
vt 0.183507 0.906436
vt 0.001919 0.869126
vt 0.180580 0.826516
vt 0.064835 0.881452
vt 0.180580 0.826516
vt 0.235350 0.758333
vt 0.296331 0.771579
vt 0.001919 0.869126
vt 0.235350 0.758333
vt 0.180580 0.826516
vt 0.504798 0.962500
vt 0.504798 0.962500
vt 0.504798 0.962500
vt 0.504798 0.962500
vt 0.504798 0.962500
vt 0.504798 0.962500
vt 0.504798 0.962500
vt 0.504798 0.962500
vt 0.504798 0.962500
vt 0.504798 0.962500
vt 0.504798 0.962500
vt 0.504798 0.962500
vt 0.504798 0.962500
vt 0.504798 0.962500
vt 0.504798 0.962500
vt 0.504798 0.962500
vt 0.504798 0.962500
vt 0.504798 0.962500
vt 0.504798 0.962500
vt 0.504798 0.962500
vn -0.0001073296 1 -6.914504E-05
vn -0.0001073296 1 -6.914504E-05
vn -0.0001073296 1 -6.914504E-05
vn -0.0001073242 1 -6.914265E-05
vn -0.0001073242 1 -6.914265E-05
vn -0.0001073242 1 -6.914265E-05
vn -0.0001073047 1 -6.913509E-05
vn -0.0001073047 1 -6.913509E-05
vn -0.0001073047 1 -6.913509E-05
vn -0.0001073263 1 -6.914324E-05
vn -0.0001073263 1 -6.914324E-05
vn -0.0001073263 1 -6.914324E-05
vn -0.000107315 1 -6.91444E-05
vn -0.000107315 1 -6.91444E-05
vn -0.000107315 1 -6.91444E-05
vn -0.0001073202 1 -6.913931E-05
vn -0.0001073202 1 -6.913931E-05
vn -0.0001073202 1 -6.913931E-05
vn -0.0001073196 1 -6.914117E-05
vn -0.0001073196 1 -6.914117E-05
vn -0.0001073196 1 -6.914117E-05
vn -0.0001073193 1 -6.91407E-05
vn -0.0001073193 1 -6.91407E-05
vn -0.0001073193 1 -6.91407E-05
vn -0.0001073212 1 -6.914102E-05
vn -0.0001073212 1 -6.914102E-05
vn -0.0001073212 1 -6.914102E-05
vn -0.0001073199 1 -6.914033E-05
vn -0.0001073199 1 -6.914033E-05
vn -0.0001073199 1 -6.914033E-05
vn -0.0001073201 1 -6.914095E-05
vn -0.0001073201 1 -6.914095E-05
vn -0.0001073201 1 -6.914095E-05
vn -0.0001073181 1 -6.914201E-05
vn -0.0001073181 1 -6.914201E-05
vn -0.0001073181 1 -6.914201E-05
vn -0.0001073192 1 -6.914034E-05
vn -0.0001073192 1 -6.914034E-05
vn -0.0001073192 1 -6.914034E-05
vn 0.6024607 0.6950752 0.3923158
vn 0.6024607 0.6950752 0.3923158
vn 0.6024607 0.6950752 0.3923158
vn 0.3965949 0.6877248 -0.6080683
vn 0.3965949 0.6877248 -0.6080683
vn 0.3965949 0.6877248 -0.6080683
vn -0.4276312 0.6210104 0.6568696
vn -0.4276312 0.6210104 0.6568696
vn -0.4276312 0.6210104 0.6568696
vn -0.6297917 0.6601378 -0.4093659
vn -0.6297917 0.6601378 -0.4093659
vn -0.6297917 0.6601378 -0.4093659
vn -0.215586 0.9170911 0.3353603
vn -0.215586 0.9170911 0.3353603
vn -0.215586 0.9170911 0.3353603
vn -0.215499 0.9173719 0.3346477
vn -0.215499 0.9173719 0.3346477
vn -0.215499 0.9173719 0.3346477
vn -0.233826 0.9605352 -0.1506568
vn -0.233826 0.9605352 -0.1506568
vn -0.233826 0.9605352 -0.1506568
vn -0.233826 0.9605352 -0.1506568
vn -0.5414122 0 0.8407573
vn -0.5414122 0 0.8407573
vn -0.5414122 0 0.8407573
vn -0.5414122 0 0.8407573
vn -0.5415486 0 0.8406695
vn -0.5415486 0 0.8406695
vn -0.5415486 0 0.8406695
vn -0.5415486 0 0.8406695
vn -0.5415486 0 0.8406695
vn -0.5415486 0 0.8406695
vn -0.5415486 0 0.8406695
vn -0.5421602 0 0.8402752
vn -0.5421602 0 0.8402752
vn -0.5421602 0 0.8402752
vn -0.5421602 0 0.8402752
vn -0.5421602 0 0.8402752
vn -0.5421602 0 0.8402752
vn -0.5421602 0 0.8402752
vn -0.5421602 0 0.8402752
vn -0.5421602 0 0.8402752
vn -0.5421602 0 0.8402752
vn -0.5421602 0 0.8402752
vn -0.5421602 0 0.8402752
vn -0.5421602 1.014855E-10 0.8402752
vn -0.5421602 1.014855E-10 0.8402752
vn -0.5421602 1.014855E-10 0.8402752
vn -0.541559 0 0.8406627
vn -0.541559 0 0.8406627
vn -0.541559 0 0.8406627
vn -0.541559 0 0.8406627
vn -0.541559 0 0.8406627
vn -0.541559 0 0.8406627
vn -0.541559 2.261309E-12 0.8406627
vn -0.541559 2.261309E-12 0.8406627
vn -0.541559 2.261309E-12 0.8406627
vn 0.8406349 0 0.5416023
vn 0.8406349 0 0.5416023
vn 0.8406349 0 0.5416023
vn 0.8406349 0 0.5416023
vn 0.5415192 0 -0.8406883
vn 0.5415192 0 -0.8406883
vn 0.5415192 0 -0.8406883
vn 0.5415192 0 -0.8406883
vn 0.8406848 0 0.5415247
vn 0.8406848 0 0.5415247
vn 0.8406848 0 0.5415247
vn 0.8406848 0 0.5415247
vn 0.8406848 0 0.5415247
vn 0.8406848 0 0.5415247
vn 0.8406848 2.044159E-12 0.5415247
vn 0.8406848 2.044159E-12 0.5415247
vn 0.8406848 2.044159E-12 0.5415247
vn 0.5415599 0 -0.8406621
vn 0.5415599 0 -0.8406621
vn 0.5415599 0 -0.8406621
vn 0.5415599 0 -0.8406621
vn 0.5415599 0 -0.8406621
vn 0.5415599 0 -0.8406621
vn 0.5415599 3.9248E-10 -0.8406621
vn 0.5415599 3.9248E-10 -0.8406621
vn 0.5415599 3.9248E-10 -0.8406621
vn -0.8406762 0 -0.5415381
vn -0.8406762 0 -0.5415381
vn -0.8406762 0 -0.5415381
vn -0.8406762 0 -0.5415381
vn -0.8406762 0 -0.5415381
vn -0.8406762 0 -0.5415381
vn -0.8406762 0 -0.5415381
vn -0.8406762 0 -0.5415381
vn -0.8406762 0 -0.5415381
vn -0.8406219 0 -0.5416224
vn -0.8406219 0 -0.5416224
vn -0.8406219 0 -0.5416224
vn -0.8406219 0 -0.5416224
vn -0.5414122 0 0.8407573
vn -0.5414122 0 0.8407573
vn -0.5414122 0 0.8407573
vn -0.5414122 0 0.8407573
vn 0.8409607 0 0.5410962
vn 0.8409607 0 0.5410962
vn 0.8409607 0 0.5410962
vn 0.8409607 0 0.5410962
vn 0.8409607 0 0.5410962
vn 0.8409607 0 0.5410962
vn 0.8409607 1.294811E-10 0.5410962
vn 0.8409607 1.294811E-10 0.5410962
vn 0.8409607 1.294811E-10 0.5410962
vn -0.8409607 0 -0.5410962
vn -0.8409607 0 -0.5410962
vn -0.8409607 0 -0.5410962
vn -0.8409607 0 -0.5410962
vn 0.541559 0 -0.8406627
vn 0.541559 0 -0.8406627
vn 0.541559 0 -0.8406627
vn 0.541559 0 -0.8406627
vn 0.541559 0 -0.8406627
vn 0.541559 0 -0.8406627
vn 0.541559 0 -0.8406627
vn 0.541559 0 -0.8406627
vn 0.541559 0 -0.8406627
vn -0.8406219 0 -0.5416224
vn -0.8406219 0 -0.5416224
vn -0.8406219 0 -0.5416224
vn -0.8406219 0 -0.5416224
vn -0.8406219 0 -0.5416224
vn -0.8406219 0 -0.5416224
vn -0.8406219 0 -0.5416224
vn -0.8406219 0 -0.5416224
vn -0.8406219 0 -0.5416224
vn 0 -1 0
vn 0 -1 0
vn 0 -1 0
vn 0 -1 0
vn 0 -1 0
vn 0 -1 0
vn 0 -1 0
vn 0 -1 0
vn 0 -1 0
vn 0 -1 0
vn 0 -1 0
vn 0 -1 0
vn 0 -1 0
vn 0 -1 0
vn 0 -1 0
vn 0 -1 0
vn 0 -1 0
vn 0 -1 0
vn 0 -1 0
vn 0 -1 0

g CDNNDG02_0017250
f 1/1/1 2/2/2 3/3/3
f 4/4/4 5/5/5 6/6/6
f 7/7/7 8/8/8 9/9/9
f 10/10/10 11/11/11 12/12/12
f 13/13/13 14/14/14 15/15/15
f 16/16/16 17/17/17 18/18/18
f 19/19/19 20/20/20 21/21/21
f 22/22/22 23/23/23 24/24/24
f 25/25/25 26/26/26 27/27/27
f 28/28/28 29/29/29 30/30/30
f 31/31/31 32/32/32 33/33/33
f 34/34/34 35/35/35 36/36/36
f 37/37/37 38/38/38 39/39/39
f 40/40/40 41/41/41 42/42/42
f 43/43/43 44/44/44 45/45/45
f 46/46/46 47/47/47 48/48/48
f 49/49/49 50/50/50 51/51/51
f 52/52/52 53/53/53 54/54/54
f 55/55/55 56/56/56 57/57/57
f 58/58/58 59/59/59 60/60/60
f 58/58/58 61/61/61 59/59/59
f 62/62/62 63/63/63 64/64/64
f 64/64/64 63/63/63 65/65/65
f 66/66/66 67/67/67 68/68/68
f 68/68/68 69/69/69 66/66/66
f 70/70/70 71/71/71 72/72/72
f 73/73/73 74/74/74 75/75/75
f 76/76/76 77/77/77 78/78/78
f 79/79/79 80/80/80 81/81/81
f 82/82/82 83/83/83 84/84/84
f 85/85/85 86/86/86 87/87/87
f 88/88/88 89/89/89 90/90/90
f 91/91/91 92/92/92 93/93/93
f 94/94/94 95/95/95 96/96/96
f 97/97/97 98/98/98 99/99/99
f 100/100/100 97/97/97 99/99/99
f 101/101/101 102/102/102 103/103/103
f 102/102/102 101/101/101 104/104/104
f 105/105/105 106/106/106 107/107/107
f 108/108/108 109/109/109 110/110/110
f 111/111/111 112/112/112 113/113/113
f 114/114/114 115/115/115 116/116/116
f 117/117/117 118/118/118 119/119/119
f 120/120/120 121/121/121 122/122/122
f 123/123/123 124/124/124 125/125/125
f 126/126/126 127/127/127 128/128/128
f 129/129/129 130/130/130 131/131/131
f 132/132/132 133/133/133 134/134/134
f 132/132/132 135/135/135 133/133/133
f 136/136/136 137/137/137 138/138/138
f 137/137/137 136/136/136 139/139/139
f 140/140/140 141/141/141 142/142/142
f 143/143/143 144/144/144 145/145/145
f 146/146/146 147/147/147 148/148/148
f 149/149/149 150/150/150 151/151/151
f 150/150/150 149/149/149 152/152/152
f 153/153/153 154/154/154 155/155/155
f 156/156/156 157/157/157 158/158/158
f 159/159/159 160/160/160 161/161/161
f 162/162/162 163/163/163 164/164/164
f 165/165/165 166/166/166 167/167/167
f 168/168/168 169/169/169 170/170/170
f 171/171/171 172/172/172 173/173/173
f 174/174/174 171/171/171 175/175/175
f 173/173/173 176/176/176 177/177/177
f 178/178/178 171/171/171 179/179/179
f 175/175/175 171/171/171 178/178/178
f 180/180/180 181/181/181 182/182/182
f 183/183/183 171/171/171 174/174/174
f 180/180/180 179/179/179 181/181/181
f 179/179/179 173/173/173 181/181/181
f 177/177/177 176/176/176 184/184/184
f 173/173/173 172/172/172 176/176/176
f 185/185/185 186/186/186 176/176/176
f 185/185/185 187/187/187 186/186/186
f 172/172/172 188/188/188 185/185/185
f 171/171/171 189/189/189 190/190/190
f 172/172/172 185/185/185 176/176/176
f 171/171/171 190/190/190 172/172/172
f 171/171/171 173/173/173 179/179/179
