v 0.2492541 5.503782 -8.20428
v 4.252254 5.494782 -7.62128
v 1.299254 5.493782 -9.39728
v 1.600254 5.494782 -9.86928
v 4.252254 5.494782 -7.62128
v 4.504254 5.494782 -8.01528
v 0.2492541 5.503782 -8.20428
v 1.299254 5.493782 -9.39728
v 1.094254 5.504782 -9.52828
v 0.2492541 5.503782 -8.20428
v 0.8982541 5.501655 -7.78228
v 4.252254 5.494782 -7.62128
v 0.4462272 5.501117 -7.086726
v 4.252254 5.494782 -7.62128
v 0.8982541 5.501655 -7.78228
v 1.299254 5.493782 -9.39728
v 4.252254 5.494782 -7.62128
v 1.600254 5.494782 -9.86928
v -3.765746 5.499782 -1.91528
v -1.363746 5.494782 0.009719878
v -0.5537459 5.502782 -6.94628
v -3.942746 5.494782 -1.63628
v -1.363746 5.494782 0.009719878
v -3.765746 5.499782 -1.91528
v -1.363746 5.494782 0.009719878
v 4.252254 5.494782 -7.62128
v 0.4462272 5.501117 -7.086726
v -1.363746 5.494782 0.009719878
v 0.08525412 5.501029 -6.53128
v -0.5537459 5.502782 -6.94628
v -1.363746 5.494782 0.009719878
v 0.4462272 5.501117 -7.086726
v 0.08525412 5.501029 -6.53128
v -1.363746 5.494782 0.009719878
v 7.582254 5.494782 -5.49528
v 4.252254 5.494782 -7.62128
v -1.363746 5.494782 0.009719878
v -0.6657459 5.494782 1.09172
v 7.582254 5.494782 -5.49528
v -1.121746 5.494782 1.80572
v 0.1422542 5.494782 6.15872
v -0.6657459 5.494782 1.09172
v -3.105746 5.494782 2.70372
v -1.121746 5.494782 1.80572
v -2.485746 5.494782 1.73172
v -3.105746 5.494782 2.70372
v 0.1422542 5.494782 6.15872
v -1.121746 5.494782 1.80572
v -7.767746 5.494782 7.12872
v -3.105746 5.494782 2.70372
v -4.410746 5.494782 1.87072
v -0.6657459 5.494782 1.09172
v 0.1422542 5.494782 6.15872
v 7.582254 5.494782 -5.49528
v -7.767746 5.494782 7.12872
v -2.160746 5.494782 9.76772
v -0.5797459 5.494782 6.40272
v -2.160746 5.494782 9.76772
v -0.1837458 5.494782 6.66972
v -0.5797459 5.494782 6.40272
v -7.767746 5.494782 7.12872
v -0.5797459 5.494782 6.40272
v -3.105746 5.494782 2.70372
v -3.105746 5.494782 2.70372
v -0.5797459 5.494782 6.40272
v -0.4845878 5.494782 6.26139
v -7.767746 5.494782 7.12872
v -2.587746 5.494782 10.43572
v -2.160746 5.494782 9.76772
v -3.105746 5.494782 2.70372
v -0.4845878 5.494782 6.26139
v -0.2417459 5.494782 5.90072
v -3.105746 5.494782 2.70372
v -0.2417459 5.494782 5.90072
v 0.1422542 5.494782 6.15872
v -0.5797459 6.856782 6.40272
v -0.1837458 6.856782 6.66972
v 0.1422542 6.857782 6.15872
v -0.5797459 6.856782 6.40272
v 0.1422542 6.857782 6.15872
v -0.2417459 6.856782 5.90072
v -0.5537459 6.681782 -6.94628
v 0.08525412 6.681782 -6.53128
v 0.8982541 6.681782 -7.78228
v -0.5537459 6.681782 -6.94628
v 0.8982541 6.681782 -7.78228
v 0.2492541 6.683782 -8.20428
v -1.121746 5.494782 1.80572
v -0.8937459 -5.511081 1.44872
v -1.121746 -5.511081 1.80572
v -0.8937459 -5.511081 1.44872
v -0.6657459 5.494782 1.09172
v -0.6657459 -5.511081 1.09172
v -1.121746 5.494782 1.80572
v -0.6657459 5.494782 1.09172
v -0.8937459 -5.511081 1.44872
v -2.485746 5.494782 1.73172
v -1.121746 5.494782 1.80572
v -1.121746 -5.511081 1.80572
v -2.485746 -5.511081 1.73172
v -3.105746 5.494782 2.70372
v -2.485746 5.494782 1.73172
v -2.485746 -5.511081 1.73172
v -3.105746 -5.511081 2.70372
v -4.410746 5.494782 1.87072
v -3.105746 5.494782 2.70372
v -3.105746 -5.511081 2.70372
v -4.410746 -5.511081 1.87072
v -7.767746 5.494782 7.12872
v -4.410746 5.494782 1.87072
v -4.410746 -5.511081 1.87072
v -7.767746 -5.511081 7.12872
v -5.177746 -5.511081 8.78222
v -2.587746 -5.511081 10.43572
v -2.587746 5.494782 10.43572
v -7.767746 5.494782 7.12872
v -7.767746 -5.511081 7.12872
v -5.177746 -5.511081 8.78222
v -7.767746 5.494782 7.12872
v -5.177746 -5.511081 8.78222
v -2.587746 5.494782 10.43572
v -2.587746 -5.511081 10.43572
v -2.160746 -5.511081 9.76772
v -2.160746 5.494782 9.76772
v -2.587746 5.494782 10.43572
v -2.160746 -5.511081 9.76772
v -0.1837458 -5.511081 6.66972
v -0.1837458 5.494782 6.66972
v -2.160746 5.494782 9.76772
v -0.1837458 -5.511081 6.66972
v 0.1422542 -5.511081 6.15872
v 0.1422542 5.494782 6.15872
v -0.1837458 5.494782 6.66972
v 0.1422542 -5.511081 6.15872
v 7.582254 -5.511081 -5.49528
v 7.582254 5.494782 -5.49528
v 0.1422542 5.494782 6.15872
v -0.1837458 5.494782 6.66972
v 0.1422542 5.494782 6.15872
v 0.1422542 6.857782 6.15872
v -0.1837458 6.856782 6.66972
v 4.252254 5.494782 -7.62128
v 7.582254 5.494782 -5.49528
v 7.582254 -5.511081 -5.49528
v 4.252254 -5.511081 -7.62128
v 4.252254 -5.511081 -7.62128
v 4.504254 -5.511081 -8.01528
v 4.504254 5.494782 -8.01528
v 4.252254 5.494782 -7.62128
v 1.600254 5.494782 -9.86928
v 3.052254 -5.511081 -8.94228
v 1.600254 -5.511081 -9.86928
v 3.052254 -5.511081 -8.94228
v 4.504254 5.494782 -8.01528
v 4.504254 -5.511081 -8.01528
v 1.600254 5.494782 -9.86928
v 4.504254 5.494782 -8.01528
v 3.052254 -5.511081 -8.94228
v 1.299254 5.493782 -9.39728
v 1.600254 5.494782 -9.86928
v 1.600254 -5.511081 -9.86928
v 1.299254 -5.511081 -9.39728
v 1.094254 5.504782 -9.52828
v 1.299254 5.493782 -9.39728
v 1.299254 -5.511081 -9.39728
v 1.094254 -5.511081 -9.52828
v 0.2492541 5.503782 -8.20428
v 1.094254 5.504782 -9.52828
v 1.094254 -5.511081 -9.52828
v 0.2492541 -5.511081 -8.20428
v -0.5537459 5.502782 -6.94628
v -0.1522459 -5.511081 -7.57528
v -0.5537459 -5.511081 -6.94628
v -0.1522459 -5.511081 -7.57528
v 0.2492541 5.503782 -8.20428
v 0.2492541 -5.511081 -8.20428
v -0.5537459 5.502782 -6.94628
v 0.2492541 5.503782 -8.20428
v -0.1522459 -5.511081 -7.57528
v -3.765746 5.499782 -1.91528
v -0.5537459 5.502782 -6.94628
v -0.5537459 -5.511081 -6.94628
v -3.765746 -5.511081 -1.91528
v -3.942746 5.494782 -1.63628
v -3.854246 -5.511081 -1.77578
v -3.942746 -5.511081 -1.63628
v -3.854246 -5.511081 -1.77578
v -3.765746 5.499782 -1.91528
v -3.765746 -5.511081 -1.91528
v -3.942746 5.494782 -1.63628
v -3.765746 5.499782 -1.91528
v -3.854246 -5.511081 -1.77578
v -0.5537459 6.681782 -6.94628
v 0.2492541 6.683782 -8.20428
v 0.2492541 5.503782 -8.20428
v -0.5537459 5.502782 -6.94628
v -3.942746 -5.511081 -1.63628
v -1.363746 -5.511081 0.009719878
v -1.363746 5.494782 0.009719878
v -3.942746 5.494782 -1.63628
v -1.363746 -5.511081 0.009719878
v -0.6657459 -5.511081 1.09172
v -0.6657459 5.494782 1.09172
v -1.363746 5.494782 0.009719878
v -0.5797459 5.494782 6.40272
v -0.1837458 5.494782 6.66972
v -0.1837458 6.856782 6.66972
v -0.5797459 6.856782 6.40272
v -0.2417459 6.856782 5.90072
v 0.1422542 6.857782 6.15872
v 0.1422542 5.494782 6.15872
v -0.2417459 5.494782 5.90072
v -0.5797459 6.856782 6.40272
v -0.4845878 5.494782 6.26139
v -0.5797459 5.494782 6.40272
v -0.5797459 6.856782 6.40272
v -0.2417459 6.856782 5.90072
v -0.2417459 5.494782 5.90072
v -0.4845878 5.494782 6.26139
v 0.4462272 5.501117 -7.086726
v 0.8982541 5.501655 -7.78228
v 0.8982541 6.681782 -7.78228
v 0.08525412 6.681782 -6.53128
v 0.08525412 5.501029 -6.53128
v 0.4462272 5.501117 -7.086726
v 0.08525412 6.681782 -6.53128
v 0.4462272 5.501117 -7.086726
v 0.8982541 6.681782 -7.78228
v 0.2492541 6.683782 -8.20428
v 0.8982541 6.681782 -7.78228
v 0.8982541 5.501655 -7.78228
v 0.2492541 5.503782 -8.20428
v -0.5537459 5.502782 -6.94628
v 0.08525412 5.501029 -6.53128
v 0.08525412 6.681782 -6.53128
v -0.5537459 6.681782 -6.94628
v -1.363746 -5.511081 0.009719878
v -3.942746 -5.511081 -1.63628
v -3.854246 -5.511081 -1.77578
v -3.765746 -5.511081 -1.91528
v -0.5537459 -5.511081 -6.94628
v -0.1522459 -5.511081 -7.57528
v 0.2492541 -5.511081 -8.20428
v 1.094254 -5.511081 -9.52828
v 1.299254 -5.511081 -9.39728
v 1.600254 -5.511081 -9.86928
v 3.052254 -5.511081 -8.94228
v 4.504254 -5.511081 -8.01528
v 4.252254 -5.511081 -7.62128
v 7.582254 -5.511081 -5.49528
v 0.1422542 -5.511081 6.15872
v -0.1837458 -5.511081 6.66972
v -2.160746 -5.511081 9.76772
v -2.587746 -5.511081 10.43572
v -5.177746 -5.511081 8.78222
v -7.767746 -5.511081 7.12872
v -4.410746 -5.511081 1.87072
v -3.105746 -5.511081 2.70372
v -2.485746 -5.511081 1.73172
v -1.121746 -5.511081 1.80572
v -0.8937459 -5.511081 1.44872
v -0.6657459 -5.511081 1.09172
vt 0.058086 0.188038
vt 0.076887 0.282701
vt 0.017874 0.212654
vt 0.001946 0.219679
vt 0.076887 0.282701
vt 0.063598 0.288584
vt 0.058086 0.188038
vt 0.017874 0.212654
vt 0.013421 0.207762
vt 0.058086 0.188038
vt 0.072141 0.203444
vt 0.076887 0.282701
vt 0.095607 0.192891
vt 0.076887 0.282701
vt 0.072141 0.203444
vt 0.017874 0.212654
vt 0.076887 0.282701
vt 0.001946 0.219679
vt 0.270247 0.094312
vt 0.334435 0.151391
vt 0.100526 0.169293
vt 0.279700 0.090193
vt 0.334435 0.151391
vt 0.270247 0.094312
vt 0.334435 0.151391
vt 0.076887 0.282701
vt 0.095607 0.192891
vt 0.334435 0.151391
vt 0.114344 0.184462
vt 0.100526 0.169293
vt 0.334435 0.151391
vt 0.095607 0.192891
vt 0.114344 0.184462
vt 0.334435 0.151391
vt 0.147582 0.361714
vt 0.076887 0.282701
vt 0.334435 0.151391
vt 0.370630 0.168064
vt 0.147582 0.361714
vt 0.394714 0.157418
vt 0.540667 0.188028
vt 0.370630 0.168064
vt 0.425311 0.110715
vt 0.394714 0.157418
vt 0.392524 0.125190
vt 0.425311 0.110715
vt 0.540667 0.188028
vt 0.394714 0.157418
vt 0.574975 0.001368
vt 0.425311 0.110715
vt 0.397611 0.079747
vt 0.370630 0.168064
vt 0.540667 0.188028
vt 0.147582 0.361714
vt 0.574975 0.001368
vt 0.662406 0.134261
vt 0.549021 0.171018
vt 0.662406 0.134261
vt 0.557904 0.180417
vt 0.549021 0.171018
vt 0.574975 0.001368
vt 0.549021 0.171018
vt 0.425311 0.110715
vt 0.425311 0.110715
vt 0.549021 0.171018
vt 0.544253 0.173241
vt 0.574975 0.001368
vt 0.684940 0.124291
vt 0.662406 0.134261
vt 0.425311 0.110715
vt 0.544253 0.173241
vt 0.532084 0.178913
vt 0.425311 0.110715
vt 0.532084 0.178913
vt 0.540667 0.188028
vt 0.247316 0.968536
vt 0.255602 0.977260
vt 0.239516 0.984322
vt 0.247316 0.968536
vt 0.239516 0.984322
vt 0.231518 0.975865
vt 0.749382 0.906977
vt 0.762782 0.921634
vt 0.721815 0.939984
vt 0.749382 0.906977
vt 0.721815 0.939984
vt 0.708171 0.925093
vt 0.334630 0.917837
vt 0.511305 0.956195
vt 0.499364 0.961551
vt 0.511305 0.956195
vt 0.358845 0.906977
vt 0.523246 0.950840
vt 0.334630 0.917837
vt 0.358845 0.906977
vt 0.511305 0.956195
vt 0.623661 0.859625
vt 0.620623 0.827554
vt 0.785761 0.798906
vt 0.788757 0.830538
vt 0.132296 0.921768
vt 0.165276 0.906977
vt 0.330052 0.950320
vt 0.297525 0.964908
vt 0.822490 0.858682
vt 0.793774 0.828180
vt 0.959560 0.798906
vt 0.987882 0.828990
vt 0.636187 0.711698
vt 0.815328 0.630643
vt 0.980847 0.673876
vt 0.804166 0.753815
vt 0.577473 0.690849
vt 0.631747 0.751055
vt 0.545834 0.793868
vt 0.435798 0.671811
vt 0.523197 0.630643
vt 0.577473 0.690849
vt 0.435798 0.671811
vt 0.577473 0.690849
vt 0.545834 0.793868
vt 0.625461 0.393400
vt 0.603237 0.403221
vt 0.516629 0.375208
vt 0.539156 0.365253
vt 0.603237 0.403221
vt 0.500170 0.448690
vt 0.412155 0.421299
vt 0.516629 0.375208
vt 0.500170 0.448690
vt 0.483170 0.456188
vt 0.394923 0.428899
vt 0.412155 0.421299
vt 0.483170 0.456188
vt 0.095482 0.627290
vt 0.001946 0.602340
vt 0.394923 0.428899
vt 0.412155 0.421299
vt 0.394923 0.428899
vt 0.383827 0.425468
vt 0.401096 0.417857
vt 0.075361 0.903559
vt 0.001946 0.824969
vt 0.164284 0.798906
vt 0.236693 0.876421
vt 0.108126 0.993596
vt 0.095213 0.999179
vt 0.001946 0.974195
vt 0.015034 0.968536
vt 0.455049 0.894372
vt 0.583705 0.832661
vt 0.615265 0.866416
vt 0.583705 0.832661
vt 0.391051 0.825925
vt 0.552144 0.798906
vt 0.455049 0.894372
vt 0.391051 0.825925
vt 0.583705 0.832661
vt 0.527237 0.914141
vt 0.543221 0.906977
vt 0.702389 0.951538
vt 0.686610 0.958600
vt 0.772828 0.939024
vt 0.768483 0.934291
vt 0.928402 0.906977
vt 0.932848 0.911617
vt 0.225849 0.651108
vt 0.270999 0.630643
vt 0.431498 0.675876
vt 0.386954 0.696054
vt 0.182952 0.670555
vt 0.365793 0.705642
vt 0.344631 0.715229
vt 0.365793 0.705642
vt 0.225849 0.651108
vt 0.386954 0.696054
vt 0.182952 0.670555
vt 0.225849 0.651108
vt 0.365793 0.705642
vt 0.011387 0.748337
vt 0.182952 0.670555
vt 0.344631 0.715229
vt 0.175380 0.791927
vt 0.001946 0.752643
vt 0.170687 0.794040
vt 0.165994 0.796154
vt 0.170687 0.794040
vt 0.011387 0.748337
vt 0.175380 0.791927
vt 0.001946 0.752643
vt 0.011387 0.748337
vt 0.170687 0.794040
vt 0.165376 0.665699
vt 0.208323 0.646218
vt 0.225849 0.651108
vt 0.182952 0.670555
vt 0.332285 0.798906
vt 0.386134 0.858568
vt 0.295831 0.901552
vt 0.241245 0.841074
vt 0.092066 0.906977
vt 0.127469 0.923016
vt 0.037832 0.965794
vt 0.001946 0.949536
vt 0.270821 0.968536
vt 0.278979 0.977090
vt 0.268872 0.982109
vt 0.260700 0.973540
vt 0.333346 0.980076
vt 0.324903 0.971806
vt 0.344840 0.968536
vt 0.353254 0.976795
vt 0.284047 0.976048
vt 0.308780 0.979076
vt 0.304181 0.981187
vt 0.284047 0.976048
vt 0.300411 0.968536
vt 0.320517 0.973689
vt 0.308780 0.979076
vt 0.145489 0.979316
vt 0.122796 0.989286
vt 0.112840 0.986498
vt 0.153707 0.968536
vt 0.163608 0.971353
vt 0.145489 0.979316
vt 0.153707 0.968536
vt 0.145489 0.979316
vt 0.112840 0.986498
vt 0.210314 0.985859
vt 0.196498 0.971427
vt 0.213157 0.968536
vt 0.226951 0.982947
vt 0.178764 0.968536
vt 0.191653 0.982700
vt 0.182154 0.987173
vt 0.169261 0.972982
vt 0.357977 0.968536
vt 0.357977 0.968536
vt 0.357977 0.968536
vt 0.357977 0.968536
vt 0.357977 0.968536
vt 0.357977 0.968536
vt 0.357977 0.968536
vt 0.357977 0.968536
vt 0.357977 0.968536
vt 0.357977 0.968536
vt 0.357977 0.968536
vt 0.357977 0.968536
vt 0.357977 0.968536
vt 0.357977 0.968536
vt 0.357977 0.968536
vt 0.357977 0.968536
vt 0.357977 0.968536
vt 0.357977 0.968536
vt 0.357977 0.968536
vt 0.357977 0.968536
vt 0.357977 0.968536
vt 0.357977 0.968536
vt 0.357977 0.968536
vt 0.357977 0.968536
vt 0.357977 0.968536
vt 0.357977 0.968536
vn 0.003074887 0.9999791 -0.005675742
vn 0.003074887 0.9999791 -0.005675742
vn 0.003074887 0.9999791 -0.005675742
vn 0 1 0
vn 0 1 0
vn 0 1 0
vn 0.03773279 0.9989792 0.02483625
vn 0.03773279 0.9989792 0.02483625
vn 0.03773279 0.9989792 0.02483625
vn 0.001951147 0.999996 0.002040349
vn 0.001951147 0.999996 0.002040349
vn 0.001951147 0.999996 0.002040349
vn 0.001951147 0.999996 0.002040356
vn 0.001951147 0.999996 0.002040356
vn 0.001951147 0.999996 0.002040356
vn -0.001165736 0.9999984 0.001375237
vn -0.001165736 0.9999984 0.001375237
vn -0.001165736 0.9999984 0.001375237
vn 0.001060896 0.9999986 0.001273622
vn 0.001060896 0.9999986 0.001273622
vn 0.001060896 0.9999986 0.001273622
vn -0.008140465 0.9998855 0.01275471
vn -0.008140465 0.9998855 0.01275471
vn -0.008140465 0.9998855 0.01275471
vn 0.001856473 0.9999973 0.001366263
vn 0.001856473 0.9999973 0.001366263
vn 0.001856473 0.9999973 0.001366263
vn 0.001856473 0.9999973 0.001366263
vn 0.001856473 0.9999973 0.001366263
vn 0.001856473 0.9999973 0.001366263
vn 0.001856465 0.9999973 0.001366261
vn 0.001856465 0.9999973 0.001366261
vn 0.001856465 0.9999973 0.001366261
vn 0 1 0
vn 0 1 0
vn 0 1 0
vn 0 1 0
vn 0 1 0
vn 0 1 0
vn 0 1 0
vn 0 1 0
vn 0 1 0
vn 0 1 0
vn 0 1 0
vn 0 1 0
vn 0 1 0
vn 0 1 0
vn 0 1 0
vn 0 1 0
vn 0 1 0
vn 0 1 0
vn 0 1 0
vn 0 1 0
vn 0 1 0
vn 0 1 0
vn 0 1 0
vn 0 1 0
vn 0 1 0
vn 0 1 0
vn 0 1 0
vn 0 1 0
vn 0 1 0
vn 0 1 0
vn 0 1 0
vn 0 1 0
vn 0 1 0
vn 0 1 0
vn 0 1 0
vn 0 1 0
vn 0 1 0
vn 0 1 0
vn 0 1 0
vn 0 1 0
vn 0 1 0
vn 0 1 0
vn -0.0009226036 0.9999986 0.001368356
vn -0.0009226036 0.9999986 0.001368356
vn -0.0009226036 0.9999986 0.001368356
vn -0.001793032 0.9999977 -0.001207261
vn -0.001793032 0.9999977 -0.001207261
vn -0.001793032 0.9999977 -0.001207261
vn 0 1 0
vn 0 1 0
vn 0 1 0
vn 0.001447227 0.9999958 0.002513605
vn 0.001447227 0.9999958 0.002513605
vn 0.001447227 0.9999958 0.002513605
vn -0.8427855 0 -0.5382496
vn -0.8427855 0 -0.5382496
vn -0.8427855 0 -0.5382496
vn -0.8427855 0 -0.5382496
vn -0.8427855 0 -0.5382496
vn -0.8427855 0 -0.5382496
vn -0.8427855 2.228658E-12 -0.5382496
vn -0.8427855 2.228658E-12 -0.5382496
vn -0.8427855 2.228658E-12 -0.5382496
vn 0.05417253 0 -0.9985316
vn 0.05417253 0 -0.9985316
vn 0.05417253 0 -0.9985316
vn 0.05417253 0 -0.9985316
vn -0.8430896 0 -0.5377732
vn -0.8430896 0 -0.5377732
vn -0.8430896 0 -0.5377732
vn -0.8430896 0 -0.5377732
vn 0.5380452 0 -0.842916
vn 0.5380452 0 -0.842916
vn 0.5380452 0 -0.842916
vn 0.5380452 0 -0.842916
vn -0.8428619 0 -0.53813
vn -0.8428619 0 -0.53813
vn -0.8428619 0 -0.53813
vn -0.8428619 0 -0.53813
vn -0.5381068 0 0.8428767
vn -0.5381068 0 0.8428767
vn -0.5381068 0 0.8428767
vn -0.5381068 0 0.8428767
vn -0.5381068 0 0.8428767
vn -0.5381068 0 0.8428767
vn -0.5381068 1.422969E-12 0.8428767
vn -0.5381068 1.422969E-12 0.8428767
vn -0.5381068 1.422969E-12 0.8428767
vn 0.8425691 0 0.5385883
vn 0.8425691 0 0.5385883
vn 0.8425691 0 0.5385883
vn 0.8425691 0 0.5385883
vn 0.8429773 0 0.5379491
vn 0.8429773 0 0.5379491
vn 0.8429773 0 0.5379491
vn 0.8429773 0 0.5379491
vn 0.8430495 0 0.5378359
vn 0.8430495 0 0.5378359
vn 0.8430495 0 0.5378359
vn 0.8430495 0 0.5378359
vn 0.8428803 0 0.5381011
vn 0.8428803 0 0.5381011
vn 0.8428803 0 0.5381011
vn 0.8428803 0 0.5381011
vn 0.8430495 0 0.5378359
vn 0.8430495 0 0.5378359
vn 0.8430495 0 0.5378359
vn 0.8430495 0 0.5378359
vn 0.5381196 0 -0.8428684
vn 0.5381196 0 -0.8428684
vn 0.5381196 0 -0.8428684
vn 0.5381196 0 -0.8428684
vn 0.8424267 0 0.538811
vn 0.8424267 0 0.538811
vn 0.8424267 0 0.538811
vn 0.8424267 0 0.538811
vn 0.5381144 0 -0.8428718
vn 0.5381144 0 -0.8428718
vn 0.5381144 0 -0.8428718
vn 0.5381144 0 -0.8428718
vn 0.5381144 0 -0.8428718
vn 0.5381144 0 -0.8428718
vn 0.5381144 1.422989E-12 -0.8428718
vn 0.5381144 1.422989E-12 -0.8428718
vn 0.5381144 1.422989E-12 -0.8428718
vn -0.8431462 0 -0.5376843
vn -0.8431462 0 -0.5376843
vn -0.8431462 0 -0.5376843
vn -0.8431462 0 -0.5376843
vn 0.5384704 0 -0.8426445
vn 0.5384704 0 -0.8426445
vn 0.5384704 0 -0.8426445
vn 0.5384704 0 -0.8426445
vn -0.8429529 0 -0.5379874
vn -0.8429529 0 -0.5379874
vn -0.8429529 0 -0.5379874
vn -0.8429529 0 -0.5379874
vn -0.8429158 0 -0.5380456
vn -0.8429158 0 -0.5380456
vn -0.8429158 0 -0.5380456
vn -0.8429158 0 -0.5380456
vn -0.8429158 0 -0.5380456
vn -0.8429158 0 -0.5380456
vn -0.8429158 2.497458E-11 -0.5380456
vn -0.8429158 2.497458E-11 -0.5380456
vn -0.8429158 2.497458E-11 -0.5380456
vn -0.8428673 0 -0.5381216
vn -0.8428673 0 -0.5381216
vn -0.8428673 0 -0.5381216
vn -0.8428673 0 -0.5381216
vn -0.8444084 0 -0.5357
vn -0.8444084 0 -0.5357
vn -0.8444084 0 -0.5357
vn -0.8444084 0 -0.5357
vn -0.8444084 0 -0.5357
vn -0.8444084 0 -0.5357
vn -0.8444084 -2.266047E-11 -0.5357
vn -0.8444084 -2.266047E-11 -0.5357
vn -0.8444084 -2.266047E-11 -0.5357
vn -0.8429158 0 -0.5380456
vn -0.8429158 0 -0.5380456
vn -0.8429158 0 -0.5380456
vn -0.8429158 0 -0.5380456
vn -0.5379959 0 0.8429474
vn -0.5379959 0 0.8429474
vn -0.5379959 0 0.8429474
vn -0.5379959 0 0.8429474
vn -0.8403195 0 0.5420915
vn -0.8403195 0 0.5420915
vn -0.8403195 0 0.5420915
vn -0.8403195 0 0.5420915
vn -0.5590413 0 0.8291398
vn -0.5590413 0 0.8291398
vn -0.5590413 0 0.8291398
vn -0.5590413 0 0.8291398
vn 0.5576896 0 -0.8300496
vn 0.5576896 0 -0.8300496
vn 0.5576896 0 -0.8300496
vn 0.5576896 0 -0.8300496
vn -0.8294994 0 -0.5585076
vn -0.8294994 0 -0.5585076
vn -0.8294994 0 -0.5585076
vn -0.8294994 3.897473E-09 -0.5585076
vn -0.8294994 1.948737E-09 -0.5585076
vn -0.8294994 0 -0.5585076
vn -0.8294994 1.948737E-09 -0.5585076
vn 0.8384895 0 0.5449176
vn 0.8384895 0 0.5449176
vn 0.8384895 0 0.5449176
vn 0.8384895 0 0.5449176
vn 0.8384895 0 0.5449176
vn 0.8384895 0 0.5449176
vn 0.8384895 7.343971E-10 0.5449176
vn 0.8384895 7.343971E-10 0.5449176
vn 0.8384895 7.343971E-10 0.5449176
vn 0.5451245 0 -0.8383551
vn 0.5451245 0 -0.8383551
vn 0.5451245 0 -0.8383551
vn 0.5451245 0 -0.8383551
vn -0.5446654 0 0.8386534
vn -0.5446654 0 0.8386534
vn -0.5446654 0 0.8386534
vn -0.5446654 0 0.8386534
vn 0 -1 0
vn 0 -1 0
vn 0 -1 0
vn 0 -1 0
vn 0 -1 0
vn 0 -1 0
vn 0 -1 0
vn 0 -1 0
vn 0 -1 0
vn 0 -1 0
vn 0 -1 0
vn 0 -1 0
vn 0 -1 0
vn 0 -1 0
vn 0 -1 0
vn 0 -1 0
vn 0 -1 0
vn 0 -1 0
vn 0 -1 0
vn 0 -1 0
vn 0 -1 0
vn 0 -1 0
vn 0 -1 0
vn 0 -1 0
vn 0 -1 0
vn 0 -1 0

g CDNNDG02_0002580
f 1/1/1 2/2/2 3/3/3
f 4/4/4 5/5/5 6/6/6
f 7/7/7 8/8/8 9/9/9
f 10/10/10 11/11/11 12/12/12
f 13/13/13 14/14/14 15/15/15
f 16/16/16 17/17/17 18/18/18
f 19/19/19 20/20/20 21/21/21
f 22/22/22 23/23/23 24/24/24
f 25/25/25 26/26/26 27/27/27
f 28/28/28 29/29/29 30/30/30
f 31/31/31 32/32/32 33/33/33
f 34/34/34 35/35/35 36/36/36
f 37/37/37 38/38/38 39/39/39
f 40/40/40 41/41/41 42/42/42
f 43/43/43 44/44/44 45/45/45
f 46/46/46 47/47/47 48/48/48
f 49/49/49 50/50/50 51/51/51
f 52/52/52 53/53/53 54/54/54
f 55/55/55 56/56/56 57/57/57
f 58/58/58 59/59/59 60/60/60
f 61/61/61 62/62/62 63/63/63
f 64/64/64 65/65/65 66/66/66
f 67/67/67 68/68/68 69/69/69
f 70/70/70 71/71/71 72/72/72
f 73/73/73 74/74/74 75/75/75
f 76/76/76 77/77/77 78/78/78
f 79/79/79 80/80/80 81/81/81
f 82/82/82 83/83/83 84/84/84
f 85/85/85 86/86/86 87/87/87
f 88/88/88 89/89/89 90/90/90
f 91/91/91 92/92/92 93/93/93
f 94/94/94 95/95/95 96/96/96
f 98/98/98 99/99/99 97/97/97
f 97/97/97 99/99/99 100/100/100
f 101/101/101 103/103/103 104/104/104
f 101/101/101 102/102/102 103/103/103
f 107/107/107 105/105/105 106/106/106
f 105/105/105 107/107/107 108/108/108
f 112/112/112 109/109/109 111/111/111
f 111/111/111 109/109/109 110/110/110
f 113/113/113 114/114/114 115/115/115
f 116/116/116 117/117/117 118/118/118
f 119/119/119 120/120/120 121/121/121
f 123/123/123 124/124/124 122/122/122
f 122/122/122 124/124/124 125/125/125
f 127/127/127 128/128/128 129/129/129
f 126/126/126 127/127/127 129/129/129
f 131/131/131 132/132/132 130/130/130
f 130/130/130 132/132/132 133/133/133
f 137/137/137 134/134/134 136/136/136
f 135/135/135 136/136/136 134/134/134
f 139/139/139 140/140/140 141/141/141
f 138/138/138 139/139/139 141/141/141
f 142/142/142 144/144/144 145/145/145
f 142/142/142 143/143/143 144/144/144
f 147/147/147 148/148/148 146/146/146
f 146/146/146 148/148/148 149/149/149
f 150/150/150 151/151/151 152/152/152
f 153/153/153 154/154/154 155/155/155
f 156/156/156 157/157/157 158/158/158
f 159/159/159 161/161/161 162/162/162
f 161/161/161 159/159/159 160/160/160
f 164/164/164 165/165/165 166/166/166
f 163/163/163 164/164/164 166/166/166
f 167/167/167 169/169/169 170/170/170
f 169/169/169 167/167/167 168/168/168
f 171/171/171 172/172/172 173/173/173
f 174/174/174 175/175/175 176/176/176
f 177/177/177 178/178/178 179/179/179
f 180/180/180 182/182/182 183/183/183
f 182/182/182 180/180/180 181/181/181
f 184/184/184 185/185/185 186/186/186
f 187/187/187 188/188/188 189/189/189
f 190/190/190 191/191/191 192/192/192
f 193/193/193 195/195/195 196/196/196
f 195/195/195 193/193/193 194/194/194
f 200/200/200 197/197/197 199/199/199
f 199/199/199 197/197/197 198/198/198
f 201/201/201 203/203/203 204/204/204
f 201/201/201 202/202/202 203/203/203
f 205/205/205 207/207/207 208/208/208
f 207/207/207 205/205/205 206/206/206
f 211/211/211 209/209/209 210/210/210
f 209/209/209 211/211/211 212/212/212
f 213/213/213 214/214/214 215/215/215
f 219/219/219 217/217/217 218/218/218
f 219/219/219 216/216/216 217/217/217
f 220/220/220 221/221/221 222/222/222
f 223/223/223 224/224/224 225/225/225
f 226/226/226 227/227/227 228/228/228
f 232/232/232 229/229/229 230/230/230
f 230/230/230 231/231/231 232/232/232
f 236/236/236 233/233/233 235/235/235
f 235/235/235 233/233/233 234/234/234
f 262/262/262 250/250/250 251/251/251
f 258/258/258 256/256/256 257/257/257
f 252/252/252 255/255/255 258/258/258
f 238/238/238 239/239/239 237/237/237
f 239/239/239 240/240/240 237/237/237
f 261/261/261 262/262/262 251/251/251
f 240/240/240 241/241/241 237/237/237
f 248/248/248 249/249/249 247/247/247
f 247/247/247 243/243/243 245/245/245
f 243/243/243 244/244/244 245/245/245
f 245/245/245 246/246/246 247/247/247
f 243/243/243 247/247/247 249/249/249
f 260/260/260 251/251/251 258/258/258
f 262/262/262 237/237/237 250/250/250
f 242/242/242 243/243/243 249/249/249
f 242/242/242 249/249/249 241/241/241
f 249/249/249 237/237/237 241/241/241
f 249/249/249 250/250/250 237/237/237
f 258/258/258 251/251/251 252/252/252
f 258/258/258 259/259/259 260/260/260
f 251/251/251 260/260/260 261/261/261
f 252/252/252 253/253/253 255/255/255
f 253/253/253 254/254/254 255/255/255
f 258/258/258 255/255/255 256/256/256
