v -7.471591 5.044657 4.065219
v -0.8835907 5.044657 8.26722
v 4.04741 5.044657 0.5362196
v 4.872409 5.044657 1.06222
v 7.754409 5.044657 -3.455781
v 0.9754093 5.044657 -7.77978
v -0.2075907 5.044657 -7.32578
v -7.471591 -5.044657 4.065219
v -0.8835907 -5.044657 8.26722
v -0.8835907 5.044657 8.26722
v -7.471591 5.044657 4.065219
v 1.581909 -5.044657 4.40172
v 4.04741 -5.044657 0.5362196
v 4.04741 5.044657 0.5362196
v -0.8835907 5.044657 8.26722
v -0.8835907 -5.044657 8.26722
v 1.581909 -5.044657 4.40172
v -0.8835907 5.044657 8.26722
v 1.581909 -5.044657 4.40172
v 4.04741 5.044657 0.5362196
v 4.04741 -5.044657 0.5362196
v 4.872409 -5.044657 1.06222
v 4.872409 5.044657 1.06222
v 4.04741 5.044657 0.5362196
v 4.872409 -5.044657 1.06222
v 7.754409 -5.044657 -3.455781
v 7.754409 5.044657 -3.455781
v 4.872409 5.044657 1.06222
v 0.9754093 5.044657 -7.77978
v 7.754409 5.044657 -3.455781
v 7.754409 -5.044657 -3.455781
v 0.9754093 -5.044657 -7.77978
v -0.2075907 5.044657 -7.32578
v 0.9754093 5.044657 -7.77978
v 0.9754093 -5.044657 -7.77978
v -0.2075907 -5.044657 -7.32578
v -7.471591 5.044657 4.065219
v -0.2075907 5.044657 -7.32578
v -0.2075907 -5.044657 -7.32578
v -7.471591 -5.044657 4.065219
v -7.471591 -5.044657 4.065219
v -0.2075907 -5.044657 -7.32578
v 0.9754093 -5.044657 -7.77978
v 7.754409 -5.044657 -3.455781
v 4.872409 -5.044657 1.06222
v 4.04741 -5.044657 0.5362196
v 1.581909 -5.044657 4.40172
v -0.8835907 -5.044657 8.26722
vt 0.214373 0.556616
vt 0.002890 0.317282
vt 0.391144 0.137279
vt 0.364671 0.107304
vt 0.591580 0.002092
vt 0.809192 0.248394
vt 0.786431 0.291468
vt 0.210603 0.820927
vt 0.002890 0.585584
vt 0.108396 0.562761
vt 0.318724 0.801074
vt 0.519436 0.645744
vt 0.712289 0.562761
vt 0.819170 0.639085
vt 0.428658 0.807114
vt 0.326590 0.728724
vt 0.519436 0.645744
vt 0.428658 0.807114
vt 0.519436 0.645744
vt 0.819170 0.639085
vt 0.369622 0.879655
vt 0.343931 0.851043
vt 0.452610 0.826360
vt 0.478624 0.855333
vt 0.002890 0.923030
vt 0.227686 0.826360
vt 0.336774 0.900847
vt 0.109173 0.998721
vt 0.528902 0.826360
vt 0.528902 0.826360
vt 0.528902 0.826360
vt 0.528902 0.826360
vt 0.485549 0.826360
vt 0.485549 0.826360
vt 0.485549 0.826360
vt 0.485549 0.826360
vt 0.500000 0.826360
vt 0.500000 0.826360
vt 0.500000 0.826360
vt 0.500000 0.826360
vt 0.514451 0.826360
vt 0.514451 0.826360
vt 0.514451 0.826360
vt 0.514451 0.826360
vt 0.514451 0.826360
vt 0.514451 0.826360
vt 0.514451 0.826360
vt 0.514451 0.826360
vn 0 1 0
vn 0 1 0
vn 0 1 0
vn 0 1 0
vn 0 1 0
vn 0 1 0
vn 0 1 0
vn -0.537753 0 0.8431025
vn -0.537753 0 0.8431025
vn -0.537753 0 0.8431025
vn -0.537753 0 0.8431025
vn 0.8431042 0 0.5377502
vn 0.8431042 0 0.5377502
vn 0.8431042 0 0.5377502
vn 0.8431042 0 0.5377502
vn 0.8431042 0 0.5377502
vn 0.8431042 0 0.5377502
vn 0.8431042 0 0.5377502
vn 0.8431042 0 0.5377502
vn 0.8431042 0 0.5377502
vn -0.5376028 0 0.8431982
vn -0.5376028 0 0.8431982
vn -0.5376028 0 0.8431982
vn -0.5376028 0 0.8431982
vn 0.843077 0 0.5377928
vn 0.843077 0 0.5377928
vn 0.843077 0 0.5377928
vn 0.843077 0 0.5377928
vn 0.5377684 0 -0.8430926
vn 0.5377684 0 -0.8430926
vn 0.5377684 0 -0.8430926
vn 0.5377684 0 -0.8430926
vn -0.3582915 0 -0.9336098
vn -0.3582915 0 -0.9336098
vn -0.3582915 0 -0.9336098
vn -0.3582915 0 -0.9336098
vn -0.8431521 0 -0.5376751
vn -0.8431521 0 -0.5376751
vn -0.8431521 0 -0.5376751
vn -0.8431521 0 -0.5376751
vn 0 -1 0
vn 0 -1 0
vn 0 -1 0
vn 0 -1 0
vn 0 -1 0
vn 0 -1 0
vn 0 -1 0
vn 0 -1 0

g CDNNDG02_0011530
f 3/3/3 6/6/6 7/7/7
f 3/3/3 5/5/5 6/6/6
f 1/1/1 3/3/3 7/7/7
f 5/5/5 3/3/3 4/4/4
f 1/1/1 2/2/2 3/3/3
f 9/9/9 10/10/10 11/11/11
f 11/11/11 8/8/8 9/9/9
f 12/12/12 13/13/13 14/14/14
f 15/15/15 16/16/16 17/17/17
f 18/18/18 19/19/19 20/20/20
f 21/21/21 23/23/23 24/24/24
f 23/23/23 21/21/21 22/22/22
f 26/26/26 27/27/27 25/25/25
f 25/25/25 27/27/27 28/28/28
f 30/30/30 31/31/31 32/32/32
f 29/29/29 30/30/30 32/32/32
f 33/33/33 35/35/35 36/36/36
f 33/33/33 34/34/34 35/35/35
f 37/37/37 39/39/39 40/40/40
f 37/37/37 38/38/38 39/39/39
f 48/48/48 41/41/41 47/47/47
f 44/44/44 45/45/45 46/46/46
f 47/47/47 41/41/41 42/42/42
f 46/46/46 42/42/42 43/43/43
f 46/46/46 43/43/43 44/44/44
f 46/46/46 47/47/47 42/42/42
