v 2.991004 6.256465 -1.331142
v 5.492656 6.256465 -2.407979
v 3.099631 6.256465 -1.513571
v 2.696792 6.256465 -1.752426
v 3.099631 6.256465 -1.513571
v 5.492656 6.256465 -2.407979
v 1.159656 6.256465 -8.289979
v 2.262018 6.256465 -1.02112
v 2.696792 6.256465 -1.752426
v 1.159656 6.256465 -8.289979
v 2.696792 6.256465 -1.752426
v 5.492656 6.256465 -2.407979
v 1.159656 6.256465 -8.289979
v 2.259067 6.256465 -1.016079
v 2.262018 6.256465 -1.02112
v -5.607344 6.256465 2.370021
v 2.259067 6.256465 -1.016079
v 1.159656 6.256465 -8.289979
v 1.159656 6.256465 -8.289979
v 5.819656 6.256465 -2.952979
v 6.855656 6.256465 -4.675979
v 1.159656 6.256465 -8.289979
v 5.492656 6.256465 -2.407979
v 5.819656 6.256465 -2.952979
v -5.607344 6.256465 2.370021
v 0.3516561 6.256465 6.152021
v 2.466631 6.256465 -0.4448334
v 2.466631 6.256465 -0.4448334
v 5.492656 6.256465 -2.407979
v 2.664078 6.256465 -0.7820998
v 0.3516561 6.256465 6.152021
v 5.492656 6.256465 -2.407979
v 2.466631 6.256465 -0.4448334
v -5.607344 6.256465 2.370021
v 2.466631 6.256465 -0.4448334
v 2.064571 6.256465 -0.6838535
v 2.664078 6.256465 -0.7820998
v 5.492656 6.256465 -2.407979
v 2.991004 6.256465 -1.331142
v -5.607344 6.256465 2.370021
v 2.064571 6.256465 -0.6838535
v 2.259067 6.256465 -1.016079
v 2.064571 6.256465 -0.6838535
v 2.371656 6.466465 -0.7339792
v 2.259067 6.256465 -1.016079
v 2.262018 6.256465 -1.02112
v 2.371656 6.466465 -0.7339792
v 2.789656 6.466465 -1.447979
v 2.259067 6.256465 -1.016079
v 2.371656 6.466465 -0.7339792
v 2.262018 6.256465 -1.02112
v 2.262018 6.256465 -1.02112
v 2.789656 6.466465 -1.447979
v 2.696792 6.256465 -1.752426
v 2.696792 6.256465 -1.752426
v 2.789656 6.466465 -1.447979
v 3.099631 6.256465 -1.513571
v 2.064571 6.256465 -0.6838535
v 2.466631 6.256465 -0.4448334
v 2.371656 6.466465 -0.7339792
v 2.466631 6.256465 -0.4448334
v 2.664078 6.256465 -0.7820998
v 2.789656 6.466465 -1.447979
v 2.371656 6.466465 -0.7339792
v 2.466631 6.256465 -0.4448334
v 2.789656 6.466465 -1.447979
v 2.664078 6.256465 -0.7820998
v 2.991004 6.256465 -1.331142
v 2.789656 6.466465 -1.447979
v 2.789656 6.466465 -1.447979
v 2.991004 6.256465 -1.331142
v 3.099631 6.256465 -1.513571
v -3.515344 2.770965 5.659271
v -2.025594 2.770965 6.604896
v -1.581844 3.018215 5.905708
v -3.071594 3.018215 4.960146
v -3.959094 2.523715 6.358396
v -2.469344 2.523715 7.304083
v -2.025594 2.770965 6.604896
v -3.515344 2.770965 5.659271
v -5.005094 2.770965 4.713646
v -3.515344 2.770965 5.659271
v -3.071594 3.018215 4.960146
v -4.561344 3.018215 4.014583
v -5.448844 2.523715 5.412708
v -3.959094 2.523715 6.358396
v -3.515344 2.770965 5.659271
v -5.005094 2.770965 4.713646
v -3.071594 3.018215 4.960146
v -1.581844 3.018215 5.905708
v 0.3516561 3.265465 6.152021
v -5.607344 3.265465 2.370021
v -3.071594 3.018215 4.960146
v 0.3516561 3.265465 6.152021
v -2.025594 2.770965 6.604896
v 0.3516561 3.265465 6.152021
v -1.581844 3.018215 5.905708
v -2.469344 2.523715 7.304083
v -1.423344 2.276465 8.94902
v -2.025594 2.770965 6.604896
v -2.025594 2.770965 6.604896
v -1.423344 2.276465 8.94902
v 0.3516561 3.265465 6.152021
v -3.959094 2.523715 6.358396
v -1.423344 2.276465 8.94902
v -2.469344 2.523715 7.304083
v -5.607344 3.265465 2.370021
v -5.005094 2.770965 4.713646
v -4.561344 3.018215 4.014583
v -5.607344 3.265465 2.370021
v -4.561344 3.018215 4.014583
v -3.071594 3.018215 4.960146
v -7.382344 2.276465 5.166021
v -5.005094 2.770965 4.713646
v -5.607344 3.265465 2.370021
v -7.382344 2.276465 5.166021
v -3.959094 2.523715 6.358396
v -5.448844 2.523715 5.412708
v -7.382344 2.276465 5.166021
v -5.448844 2.523715 5.412708
v -5.005094 2.770965 4.713646
v -7.382344 2.276465 5.166021
v -1.423344 2.276465 8.94902
v -3.959094 2.523715 6.358396
v 0.3516561 -5.701854 6.152021
v 5.492656 -5.701854 -2.407979
v 5.492656 6.256465 -2.407979
v 0.3516561 3.265465 6.152021
v 0.3516561 6.256465 6.152021
v 0.3516561 3.265465 6.152021
v 5.492656 6.256465 -2.407979
v 5.492656 -5.701854 -2.407979
v 5.819656 -5.701854 -2.952979
v 5.819656 6.256465 -2.952979
v 5.492656 6.256465 -2.407979
v 5.819656 -5.701854 -2.952979
v 6.855656 -5.701854 -4.675979
v 6.855656 6.256465 -4.675979
v 5.819656 6.256465 -2.952979
v -1.423344 -5.701854 8.94902
v 0.3516561 -5.701854 6.152021
v 0.3516561 3.265465 6.152021
v -1.423344 2.276465 8.94902
v 1.159656 6.256465 -8.289979
v 6.855656 6.256465 -4.675979
v 6.855656 -5.701854 -4.675979
v 1.159656 -5.701854 -8.289979
v -5.607344 6.256465 2.370021
v 1.159656 6.256465 -8.289979
v -5.607344 3.265465 2.370021
v -5.607344 3.265465 2.370021
v 1.159656 6.256465 -8.289979
v 1.159656 -5.701854 -8.289979
v -5.607344 -5.701854 2.370021
v -7.382344 2.276465 5.166021
v -6.494844 -5.701854 3.768021
v -7.382344 -5.701854 5.166021
v -6.494844 -5.701854 3.768021
v -5.607344 3.265465 2.370021
v -5.607344 -5.701854 2.370021
v -7.382344 2.276465 5.166021
v -5.607344 3.265465 2.370021
v -6.494844 -5.701854 3.768021
v -5.607344 3.265465 2.370021
v 0.3516561 3.265465 6.152021
v 0.3516561 6.256465 6.152021
v -5.607344 6.256465 2.370021
v -4.402844 -5.701854 7.057521
v -1.423344 -5.701854 8.94902
v -1.423344 2.276465 8.94902
v -7.382344 2.276465 5.166021
v -7.382344 -5.701854 5.166021
v -4.402844 -5.701854 7.057521
v -7.382344 2.276465 5.166021
v -4.402844 -5.701854 7.057521
v -1.423344 2.276465 8.94902
v -7.382344 -5.701854 5.166021
v -6.494844 -5.701854 3.768021
v -5.607344 -5.701854 2.370021
v 1.159656 -5.701854 -8.289979
v 6.855656 -5.701854 -4.675979
v 5.819656 -5.701854 -2.952979
v 5.492656 -5.701854 -2.407979
v 0.3516561 -5.701854 6.152021
v -1.423344 -5.701854 8.94902
v -4.402844 -5.701854 7.057521
vt 0.288459 0.097476
vt 0.332225 0.034493
vt 0.295492 0.094847
vt 0.304039 0.105309
vt 0.295492 0.094847
vt 0.332225 0.034493
vt 0.549470 0.149604
vt 0.275848 0.115832
vt 0.304039 0.105309
vt 0.549470 0.149604
vt 0.304039 0.105309
vt 0.332225 0.034493
vt 0.549470 0.149604
vt 0.275654 0.115903
vt 0.275848 0.115832
vt 0.138041 0.313940
vt 0.275654 0.115903
vt 0.549470 0.149604
vt 0.549470 0.149604
vt 0.353238 0.026574
vt 0.419671 0.001484
vt 0.549470 0.149604
vt 0.332225 0.034493
vt 0.353238 0.026574
vt 0.138041 0.313940
vt 0.002198 0.158990
vt 0.254297 0.110164
vt 0.254297 0.110164
vt 0.332225 0.034493
vt 0.267294 0.105389
vt 0.002198 0.158990
vt 0.332225 0.034493
vt 0.254297 0.110164
vt 0.138041 0.313940
vt 0.254297 0.110164
vt 0.262851 0.120607
vt 0.267294 0.105389
vt 0.332225 0.034493
vt 0.288459 0.097476
vt 0.138041 0.313940
vt 0.262851 0.120607
vt 0.275654 0.115903
vt 0.777648 0.808605
vt 0.778538 0.816947
vt 0.765467 0.813072
vt 0.765282 0.813140
vt 0.778538 0.816947
vt 0.752351 0.826550
vt 0.765467 0.813072
vt 0.778538 0.816947
vt 0.765282 0.813140
vt 0.765282 0.813140
vt 0.752351 0.826550
vt 0.738462 0.823132
vt 0.846154 0.808605
vt 0.858749 0.810449
vt 0.853780 0.817749
vt 0.835985 0.817850
vt 0.828571 0.808605
vt 0.840445 0.810032
vt 0.784615 0.822812
vt 0.796978 0.818383
vt 0.823841 0.816308
vt 0.797663 0.825685
vt 0.784615 0.822812
vt 0.823841 0.816308
vt 0.796978 0.818383
vt 0.817109 0.811044
vt 0.823841 0.816308
vt 0.823841 0.816308
vt 0.817109 0.811044
vt 0.823798 0.808605
vt 0.818239 0.691969
vt 0.784337 0.653232
vt 0.814536 0.641253
vt 0.848445 0.680003
vt 0.788051 0.703928
vt 0.754157 0.665203
vt 0.784337 0.653232
vt 0.818239 0.691969
vt 0.852139 0.730706
vt 0.818239 0.691969
vt 0.848445 0.680003
vt 0.882354 0.718752
vt 0.821944 0.742653
vt 0.788051 0.703928
vt 0.818239 0.691969
vt 0.852139 0.730706
vt 0.848445 0.680003
vt 0.814536 0.641253
vt 0.810836 0.590504
vt 0.946502 0.745550
vt 0.848445 0.680003
vt 0.810836 0.590504
vt 0.784337 0.653232
vt 0.810836 0.590504
vt 0.814536 0.641253
vt 0.754157 0.665203
vt 0.690110 0.638452
vt 0.784337 0.653232
vt 0.784337 0.653232
vt 0.690110 0.638452
vt 0.810836 0.590504
vt 0.788051 0.703928
vt 0.690110 0.638452
vt 0.754157 0.665203
vt 0.946502 0.745550
vt 0.852139 0.730706
vt 0.882354 0.718752
vt 0.946502 0.745550
vt 0.882354 0.718752
vt 0.848445 0.680003
vt 0.825651 0.793305
vt 0.852139 0.730706
vt 0.946502 0.745550
vt 0.825651 0.793305
vt 0.788051 0.703928
vt 0.821944 0.742653
vt 0.825651 0.793305
vt 0.821944 0.742653
vt 0.852139 0.730706
vt 0.825651 0.793305
vt 0.690110 0.638452
vt 0.788051 0.703928
vt 0.108652 0.745380
vt 0.434113 0.622962
vt 0.597620 0.647061
vt 0.227206 0.764739
vt 0.267335 0.771291
vt 0.227206 0.764739
vt 0.597620 0.647061
vt 0.434113 0.622962
vt 0.454835 0.615176
vt 0.618649 0.639160
vt 0.597620 0.647061
vt 0.454835 0.615176
vt 0.520349 0.590504
vt 0.685135 0.614123
vt 0.618649 0.639160
vt 0.002198 0.787766
vt 0.108652 0.745380
vt 0.227206 0.764739
vt 0.106500 0.805385
vt 0.599065 0.808605
vt 0.732936 0.955126
vt 0.560487 0.974692
vt 0.428571 0.830318
vt 0.582695 0.420556
vt 0.172217 0.587521
vt 0.538178 0.405410
vt 0.538178 0.405410
vt 0.172217 0.587521
vt 0.002198 0.525192
vt 0.406663 0.360666
vt 0.630671 0.356843
vt 0.459710 0.339087
vt 0.512757 0.317507
vt 0.459710 0.339087
vt 0.538178 0.405410
vt 0.406663 0.360666
vt 0.630671 0.356843
vt 0.538178 0.405410
vt 0.459710 0.339087
vt 0.383489 0.977935
vt 0.248352 0.823104
vt 0.288280 0.808605
vt 0.423919 0.964014
vt 0.069272 0.922912
vt 0.002198 0.846278
vt 0.106311 0.808605
vt 0.241779 0.963388
vt 0.136343 0.999543
vt 0.069272 0.922912
vt 0.241779 0.963388
vt 0.069272 0.922912
vt 0.106311 0.808605
vt 0.863736 0.808605
vt 0.863736 0.808605
vt 0.863736 0.808605
vt 0.863736 0.808605
vt 0.863736 0.808605
vt 0.863736 0.808605
vt 0.863736 0.808605
vt 0.863736 0.808605
vt 0.863736 0.808605
vt 0.863736 0.808605
vn 0 1 0
vn 0 1 0
vn 0 1 0
vn 0 1 0
vn 0 1 0
vn 0 1 0
vn 0 1 0
vn 0 1 0
vn 0 1 0
vn 0 1 0
vn 0 1 0
vn 0 1 0
vn 0 1 0
vn 0 1 0
vn 0 1 0
vn 0 1 0
vn 0 1 0
vn 0 1 0
vn 0 1 0
vn 0 1 0
vn 0 1 0
vn 0 1 0
vn 0 1 0
vn 0 1 0
vn 0 1 0
vn 0 1 0
vn 0 1 0
vn 0 1 0
vn 0 1 0
vn 0 1 0
vn 0 1 0
vn 0 1 0
vn 0 1 0
vn 0 1 0
vn 0 1 0
vn 0 1 0
vn 0 1 0
vn 0 1 0
vn 0 1 0
vn 0 1 0
vn 0 1 0
vn 0 1 0
vn -0.5687025 0.7521501 -0.3329379
vn -0.5687025 0.7521501 -0.3329379
vn -0.5687025 0.7521501 -0.3329379
vn -0.5687025 0.7521501 -0.3329379
vn -0.5687025 0.7521501 -0.3329379
vn -0.5687025 0.7521501 -0.3329379
vn -0.5687025 0.7521502 -0.3329379
vn -0.5687025 0.7521502 -0.3329379
vn -0.5687025 0.7521502 -0.3329379
vn -0.5722087 0.7462236 -0.3401876
vn -0.5722087 0.7462236 -0.3401876
vn -0.5722087 0.7462236 -0.3401876
vn 0.356783 0.7145824 -0.601729
vn 0.356783 0.7145824 -0.601729
vn 0.356783 0.7145824 -0.601729
vn -0.3700315 0.689673 0.6224371
vn -0.3700315 0.689673 0.6224371
vn -0.3700315 0.689673 0.6224371
vn 0.584591 0.7356123 0.3422396
vn 0.584591 0.7356123 0.3422396
vn 0.584591 0.7356123 0.3422396
vn 0.584591 0.7356123 0.3422396
vn 0.584591 0.7356123 0.3422396
vn 0.584591 0.7356123 0.3422396
vn 0.5755419 0.7424991 0.3427049
vn 0.5755419 0.7424991 0.3427049
vn 0.5755419 0.7424991 0.3427049
vn 0.5755419 0.7424991 0.3427049
vn 0.5755419 0.7424991 0.3427049
vn 0.5755419 0.7424991 0.3427049
vn -0.1533186 0.9582003 0.2415482
vn -0.1533177 0.9582028 0.2415388
vn -0.1533186 0.9582003 0.2415482
vn -0.1533195 0.9581978 0.2415575
vn -0.1533259 0.9582003 0.2415436
vn -0.153325 0.9582028 0.2415342
vn -0.1533259 0.9582003 0.2415436
vn -0.1533267 0.9581978 0.2415529
vn -0.1533357 0.9581928 0.2415671
vn -0.1533276 0.9581953 0.2415623
vn -0.1533195 0.9581978 0.2415575
vn -0.1533276 0.9581953 0.2415623
vn -0.1533348 0.9581953 0.2415577
vn -0.1533339 0.9581978 0.2415483
vn -0.1533348 0.9581953 0.2415577
vn -0.1533357 0.9581928 0.2415671
vn -0.1533016 0.9582078 0.2415292
vn -0.1533016 0.9582078 0.2415292
vn -0.1533016 0.9582078 0.2415292
vn -0.1533123 0.9581978 0.2415621
vn -0.1533123 0.9581978 0.2415621
vn -0.1533123 0.9581978 0.2415621
vn -0.1533033 0.9582028 0.241548
vn -0.1533033 0.9582028 0.241548
vn -0.1533033 0.9582028 0.241548
vn -0.1533322 0.9582028 0.2415296
vn -0.1533322 0.9582028 0.2415296
vn -0.1533322 0.9582028 0.2415296
vn -0.1533088 0.9582078 0.2415247
vn -0.1533088 0.9582078 0.2415247
vn -0.1533088 0.9582078 0.2415247
vn -0.153316 0.9582078 0.2415201
vn -0.153316 0.9582078 0.2415201
vn -0.153316 0.9582078 0.2415201
vn -0.1533212 0.9581928 0.2415762
vn -0.1533212 0.9581928 0.2415762
vn -0.1533212 0.9581928 0.2415762
vn -0.1533374 0.9581878 0.2415858
vn -0.1533374 0.9581878 0.2415858
vn -0.1533374 0.9581878 0.2415858
vn -0.1533447 0.9581878 0.2415812
vn -0.1533447 0.9581878 0.2415812
vn -0.1533447 0.9581878 0.2415812
vn -0.1533519 0.9581878 0.2415766
vn -0.1533519 0.9581878 0.2415766
vn -0.1533519 0.9581878 0.2415766
vn -0.1533501 0.9581928 0.2415579
vn -0.1533501 0.9581928 0.2415579
vn -0.1533501 0.9581928 0.2415579
vn -0.1533412 0.9581978 0.2415438
vn -0.1533412 0.9581978 0.2415438
vn -0.1533412 0.9581978 0.2415438
vn 0.8572719 0 0.5148639
vn 0.8572719 0 0.5148639
vn 0.8572719 0 0.5148639
vn 0.8572719 0 0.5148639
vn 0.8572719 0 0.5148639
vn 0.8572719 0 0.5148639
vn 0.8572719 0 0.5148639
vn 0.8574929 0 0.5144957
vn 0.8574929 0 0.5144957
vn 0.8574929 0 0.5144957
vn 0.8574929 0 0.5144957
vn 0.8570098 0 0.5153002
vn 0.8570098 0 0.5153002
vn 0.8570098 0 0.5153002
vn 0.8570098 0 0.5153002
vn 0.844332 0 0.5358203
vn 0.844332 0 0.5358203
vn 0.844332 0 0.5358203
vn 0.844332 0 0.5358203
vn 0.5357431 0 -0.844381
vn 0.5357431 0 -0.844381
vn 0.5357431 0 -0.844381
vn 0.5357431 0 -0.844381
vn -0.8442578 0 -0.5359374
vn -0.8442578 0 -0.5359374
vn -0.8442578 0 -0.5359374
vn -0.8442578 0 -0.5359374
vn -0.8442578 0 -0.5359374
vn -0.8442578 0 -0.5359374
vn -0.8442578 0 -0.5359374
vn -0.8442453 0 -0.5359569
vn -0.8442453 0 -0.5359569
vn -0.8442453 0 -0.5359569
vn -0.8442453 0 -0.5359569
vn -0.8442453 0 -0.5359569
vn -0.8442453 0 -0.5359569
vn -0.8442453 2.899958E-12 -0.5359569
vn -0.8442453 2.899958E-12 -0.5359569
vn -0.8442453 2.899958E-12 -0.5359569
vn -0.5358574 0 0.8443084
vn -0.5358574 0 0.8443084
vn -0.5358574 0 0.8443084
vn -0.5358574 0 0.8443084
vn -0.5359585 0 0.8442444
vn -0.5359585 0 0.8442444
vn -0.5359585 0 0.8442444
vn -0.5359585 0 0.8442444
vn -0.5359585 0 0.8442444
vn -0.5359585 0 0.8442444
vn -0.5359585 1.955114E-12 0.8442444
vn -0.5359585 1.955114E-12 0.8442444
vn -0.5359585 1.955114E-12 0.8442444
vn 0 -1 0
vn 0 -1 0
vn 0 -1 0
vn 0 -1 0
vn 0 -1 0
vn 0 -1 0
vn 0 -1 0
vn 0 -1 0
vn 0 -1 0
vn 0 -1 0

g CDNNDG02_0014720
f 1/1/1 2/2/2 3/3/3
f 4/4/4 5/5/5 6/6/6
f 7/7/7 8/8/8 9/9/9
f 10/10/10 11/11/11 12/12/12
f 13/13/13 14/14/14 15/15/15
f 16/16/16 17/17/17 18/18/18
f 19/19/19 20/20/20 21/21/21
f 22/22/22 23/23/23 24/24/24
f 25/25/25 26/26/26 27/27/27
f 28/28/28 29/29/29 30/30/30
f 31/31/31 32/32/32 33/33/33
f 34/34/34 35/35/35 36/36/36
f 37/37/37 38/38/38 39/39/39
f 40/40/40 41/41/41 42/42/42
f 43/43/43 44/44/44 45/45/45
f 46/46/46 47/47/47 48/48/48
f 49/49/49 50/50/50 51/51/51
f 52/52/52 53/53/53 54/54/54
f 55/55/55 56/56/56 57/57/57
f 58/58/58 59/59/59 60/60/60
f 61/61/61 62/62/62 63/63/63
f 64/64/64 65/65/65 66/66/66
f 67/67/67 68/68/68 69/69/69
f 70/70/70 71/71/71 72/72/72
f 73/73/73 75/75/75 76/76/76
f 73/73/73 74/74/74 75/75/75
f 77/77/77 79/79/79 80/80/80
f 77/77/77 78/78/78 79/79/79
f 82/82/82 83/83/83 84/84/84
f 81/81/81 82/82/82 84/84/84
f 85/85/85 87/87/87 88/88/88
f 85/85/85 86/86/86 87/87/87
f 89/89/89 90/90/90 91/91/91
f 92/92/92 93/93/93 94/94/94
f 95/95/95 96/96/96 97/97/97
f 98/98/98 99/99/99 100/100/100
f 101/101/101 102/102/102 103/103/103
f 104/104/104 105/105/105 106/106/106
f 107/107/107 108/108/108 109/109/109
f 110/110/110 111/111/111 112/112/112
f 113/113/113 114/114/114 115/115/115
f 116/116/116 117/117/117 118/118/118
f 119/119/119 120/120/120 121/121/121
f 122/122/122 123/123/123 124/124/124
f 128/128/128 125/125/125 126/126/126
f 126/126/126 127/127/127 128/128/128
f 129/129/129 130/130/130 131/131/131
f 133/133/133 134/134/134 132/132/132
f 132/132/132 134/134/134 135/135/135
f 137/137/137 138/138/138 136/136/136
f 136/136/136 138/138/138 139/139/139
f 141/141/141 142/142/142 143/143/143
f 140/140/140 141/141/141 143/143/143
f 145/145/145 146/146/146 144/144/144
f 144/144/144 146/146/146 147/147/147
f 148/148/148 149/149/149 150/150/150
f 154/154/154 151/151/151 153/153/153
f 153/153/153 151/151/151 152/152/152
f 155/155/155 156/156/156 157/157/157
f 158/158/158 159/159/159 160/160/160
f 161/161/161 162/162/162 163/163/163
f 167/167/167 164/164/164 166/166/166
f 166/166/166 164/164/164 165/165/165
f 168/168/168 169/169/169 170/170/170
f 171/171/171 172/172/172 173/173/173
f 174/174/174 175/175/175 176/176/176
f 184/184/184 185/185/185 186/186/186
f 179/179/179 184/184/184 186/186/186
f 179/179/179 183/183/183 184/184/184
f 180/180/180 182/182/182 183/183/183
f 177/177/177 178/178/178 186/186/186
f 178/178/178 179/179/179 186/186/186
f 180/180/180 181/181/181 182/182/182
f 179/179/179 180/180/180 183/183/183
