v -0.5298366 5.404699 7.801171
v 0.1071634 5.404699 6.831172
v 0.05816343 5.404699 6.798172
v -6.599836 5.404699 3.815171
v -0.5298366 5.404699 7.801171
v 0.05816343 5.404699 6.798172
v -6.043837 5.404699 2.968171
v 0.05816343 5.404699 6.798172
v 6.55903 5.404699 -3.100287
v 5.903163 5.404699 -3.537829
v -6.043837 5.404699 2.968171
v 5.903163 5.404699 -3.537829
v 0.2611634 5.404699 -7.408829
v 0.2611634 5.404699 -7.408829
v 5.903163 5.404699 -3.537829
v 5.908275 5.404699 -3.545486
v -6.043837 5.404699 2.968171
v 0.05816343 5.404699 6.798172
v 5.903163 5.404699 -3.537829
v 0.2611634 5.404699 -7.408829
v 6.183415 5.404699 -3.957652
v 0.4631634 5.404699 -7.715828
v -6.399837 5.404699 2.734171
v -6.043837 5.404699 2.968171
v 0.2611634 5.404699 -7.408829
v 0.2611634 5.404699 -7.408829
v 5.908275 5.404699 -3.545486
v 6.183415 5.404699 -3.957652
v 6.55903 6.46259 -3.100287
v 7.144164 6.461699 -3.804829
v 7.059108 6.461699 -3.861648
v 6.55903 6.46259 -3.100287
v 6.639163 6.462699 -3.046829
v 7.144164 6.461699 -3.804829
v 6.183415 6.461699 -3.957652
v 6.55903 6.46259 -3.100287
v 7.059108 6.461699 -3.861648
v 5.903163 6.461699 -3.537829
v 6.55903 6.46259 -3.100287
v 6.183415 6.461699 -3.957652
v 6.183415 6.461699 -3.957652
v 7.059108 6.461699 -3.861648
v 6.409163 6.461699 -4.295828
v -6.599836 5.404699 3.815171
v -6.321836 -5.413757 3.391671
v -6.599836 -5.413757 3.815171
v -6.321836 -5.413757 3.391671
v -6.043837 5.404699 2.968171
v -6.043837 -5.413757 2.968171
v -6.599836 5.404699 3.815171
v -6.043837 5.404699 2.968171
v -6.321836 -5.413757 3.391671
v -3.564837 -5.413757 5.808171
v -0.5298366 -5.413757 7.801171
v -0.5298366 5.404699 7.801171
v -6.599836 5.404699 3.815171
v -6.599836 -5.413757 3.815171
v -3.564837 -5.413757 5.808171
v -6.599836 5.404699 3.815171
v -3.564837 -5.413757 5.808171
v -0.5298366 5.404699 7.801171
v -0.5298366 -5.413757 7.801171
v 0.1071634 -5.413757 6.831172
v 0.1071634 5.404699 6.831172
v -0.5298366 5.404699 7.801171
v 0.05816343 5.404699 6.798172
v 0.1071634 5.404699 6.831172
v 0.1071634 -5.413757 6.831172
v 0.05816343 -5.413757 6.798172
v 0.05816343 -5.413757 6.798172
v 6.55903 -5.413757 -3.100287
v 6.55903 5.404699 -3.100287
v 0.05816343 5.404699 6.798172
v 0.4631634 5.404699 -7.715828
v 6.183415 5.404699 -3.957652
v 6.183415 -5.413757 -3.957652
v 0.4631634 -5.413757 -7.715828
v 0.2611634 5.404699 -7.408829
v 0.4631634 5.404699 -7.715828
v 0.4631634 -5.413757 -7.715828
v 0.2611634 -5.413757 -7.408829
v -6.399837 5.404699 2.734171
v 0.2611634 5.404699 -7.408829
v 0.2611634 -5.413757 -7.408829
v -6.399837 -5.413757 2.734171
v -6.399837 -5.413757 2.734171
v -6.043837 -5.413757 2.968171
v -6.043837 5.404699 2.968171
v -6.399837 5.404699 2.734171
v 6.599097 -5.413757 -3.073558
v 6.639163 -5.413757 -3.046829
v 6.639163 6.462699 -3.046829
v 6.55903 6.46259 -3.100287
v 6.599097 -5.413757 -3.073558
v 6.639163 6.462699 -3.046829
v 6.55903 6.46259 -3.100287
v 6.55903 5.404699 -3.100287
v 6.599097 -5.413757 -3.073558
v 6.55903 5.404699 -3.100287
v 6.55903 -5.413757 -3.100287
v 6.599097 -5.413757 -3.073558
v 5.903163 5.404699 -3.537829
v 6.55903 5.404699 -3.100287
v 6.55903 6.46259 -3.100287
v 5.903163 6.461699 -3.537829
v 6.639163 -5.413757 -3.046829
v 7.144164 -5.413757 -3.804829
v 7.144164 6.461699 -3.804829
v 6.639163 6.462699 -3.046829
v 7.059108 6.461699 -3.861648
v 7.144164 6.461699 -3.804829
v 7.144164 -5.413757 -3.804829
v 7.059108 -5.413757 -3.861648
v 6.409163 6.461699 -4.295828
v 7.059108 6.461699 -3.861648
v 7.059108 -5.413757 -3.861648
v 6.409163 -5.413757 -4.295828
v 6.183415 6.461699 -3.957652
v 6.409163 6.461699 -4.295828
v 6.183415 5.404699 -3.957652
v 6.183415 5.404699 -3.957652
v 6.409163 6.461699 -4.295828
v 6.409163 -5.413757 -4.295828
v 6.183415 -5.413757 -3.957652
v 5.903163 6.461699 -3.537829
v 5.908275 5.404699 -3.545486
v 5.903163 5.404699 -3.537829
v 5.903163 6.461699 -3.537829
v 6.183415 6.461699 -3.957652
v 6.183415 5.404699 -3.957652
v 5.908275 5.404699 -3.545486
v -6.599836 -5.413757 3.815171
v -6.321836 -5.413757 3.391671
v -6.043837 -5.413757 2.968171
v -6.399837 -5.413757 2.734171
v 0.2611634 -5.413757 -7.408829
v 0.4631634 -5.413757 -7.715828
v 6.183415 -5.413757 -3.957652
v 6.409163 -5.413757 -4.295828
v 7.059108 -5.413757 -3.861648
v 7.144164 -5.413757 -3.804829
v 6.639163 -5.413757 -3.046829
v 6.599097 -5.413757 -3.073558
v 6.55903 -5.413757 -3.100287
v 0.05816343 -5.413757 6.798172
v 0.1071634 -5.413757 6.831172
v -0.5298366 -5.413757 7.801171
v -3.564837 -5.413757 5.808171
vt 0.002653 0.247975
vt 0.047612 0.225871
vt 0.049172 0.227536
vt 0.191143 0.454269
vt 0.002653 0.247975
vt 0.049172 0.227536
vt 0.230402 0.434978
vt 0.049172 0.227536
vt 0.507999 0.001946
vt 0.528685 0.024236
vt 0.230402 0.434978
vt 0.528685 0.024236
vt 0.711625 0.215949
vt 0.711625 0.215949
vt 0.528685 0.024236
vt 0.529040 0.024059
vt 0.230402 0.434978
vt 0.049172 0.227536
vt 0.528685 0.024236
vt 0.711625 0.215949
vt 0.548144 0.014513
vt 0.725856 0.208939
vt 0.241467 0.447076
vt 0.230402 0.434978
vt 0.711625 0.215949
vt 0.711625 0.215949
vt 0.529040 0.024059
vt 0.548144 0.014513
vt 0.819406 0.764567
vt 0.850749 0.745136
vt 0.853332 0.747911
vt 0.819406 0.764567
vt 0.816976 0.761952
vt 0.850749 0.745136
vt 0.857996 0.776634
vt 0.819406 0.764567
vt 0.853332 0.747911
vt 0.839289 0.785968
vt 0.819406 0.764567
vt 0.857996 0.776634
vt 0.857996 0.776634
vt 0.853332 0.747911
vt 0.873065 0.769115
vt 0.634798 0.763819
vt 0.633975 0.787875
vt 0.615385 0.797090
vt 0.633975 0.787875
vt 0.672487 0.745136
vt 0.652565 0.778660
vt 0.634798 0.763819
vt 0.672487 0.745136
vt 0.633975 0.787875
vt 0.296379 0.883513
vt 0.204244 0.782138
vt 0.221763 0.745136
vt 0.408550 0.950659
vt 0.388511 0.984886
vt 0.296379 0.883513
vt 0.408550 0.950659
vt 0.296379 0.883513
vt 0.221763 0.745136
vt 0.466844 0.766027
vt 0.509121 0.745136
vt 0.523952 0.807878
vt 0.481103 0.829051
vt 0.608766 0.809026
vt 0.607455 0.807417
vt 0.594164 0.745136
vt 0.595459 0.746724
vt 0.002653 0.675705
vt 0.451191 0.459144
vt 0.472691 0.519971
vt 0.018091 0.739456
vt 0.196469 0.998219
vt 0.024507 0.806086
vt 0.002653 0.745136
vt 0.172322 0.934710
vt 0.970396 0.466133
vt 0.984605 0.459144
vt 0.957211 0.496706
vt 0.943194 0.503601
vt 0.500974 0.696607
vt 0.970396 0.466133
vt 0.943194 0.503601
vt 0.480106 0.730963
vt 0.789954 0.790018
vt 0.779841 0.778511
vt 0.799066 0.745136
vt 0.809317 0.756801
vt 0.727976 0.789353
vt 0.726790 0.788058
vt 0.752361 0.745136
vt 0.754768 0.747766
vt 0.727976 0.789353
vt 0.752361 0.745136
vt 0.754768 0.747766
vt 0.752456 0.751638
vt 0.727976 0.789353
vt 0.752456 0.751638
vt 0.729161 0.790648
vt 0.727976 0.789353
vt 0.772125 0.773129
vt 0.752456 0.751638
vt 0.754768 0.747766
vt 0.774461 0.769289
vt 0.530504 0.761690
vt 0.563544 0.745136
vt 0.586732 0.810641
vt 0.553203 0.827446
vt 0.441833 0.813591
vt 0.439341 0.810768
vt 0.416446 0.745136
vt 0.418901 0.747917
vt 0.460874 0.835158
vt 0.441833 0.813591
vt 0.418901 0.747917
vt 0.437664 0.769170
vt 0.705045 0.752721
vt 0.719871 0.745136
vt 0.702699 0.756585
vt 0.702699 0.756585
vt 0.719871 0.745136
vt 0.693652 0.788080
vt 0.679045 0.795552
vt 0.686638 0.762137
vt 0.684652 0.765817
vt 0.684317 0.765989
vt 0.686638 0.762137
vt 0.705045 0.752721
vt 0.702699 0.756585
vt 0.684652 0.765817
vt 0.880637 0.745136
vt 0.880637 0.745136
vt 0.880637 0.745136
vt 0.880637 0.745136
vt 0.880637 0.745136
vt 0.880637 0.745136
vt 0.880637 0.745136
vt 0.880637 0.745136
vt 0.880637 0.745136
vt 0.880637 0.745136
vt 0.880637 0.745136
vt 0.880637 0.745136
vt 0.880637 0.745136
vt 0.880637 0.745136
vt 0.880637 0.745136
vt 0.880637 0.745136
vt 0.880637 0.745136
vn 0 1 0
vn 0 1 0
vn 0 1 0
vn 0 1 0
vn 0 1 0
vn 0 1 0
vn 0 1 0
vn 0 1 0
vn 0 1 0
vn 0 1 0
vn 0 1 0
vn 0 1 0
vn 0 1 0
vn 0 1 0
vn 0 1 0
vn 0 1 0
vn 0 1 0
vn 0 1 0
vn 0 1 0
vn 0 1 0
vn 0 1 0
vn 0 1 0
vn 0 1 0
vn 0 1 0
vn 0 1 0
vn 0 1 0
vn 0 1 0
vn 0 1 0
vn 0.0005434341 0.9999995 -0.000813491
vn 0.0005434341 0.9999995 -0.000813491
vn 0.0005434341 0.9999995 -0.000813491
vn -0.0003313562 0.9999987 -0.001540018
vn -0.0003313562 0.9999987 -0.001540018
vn -0.0003313562 0.9999987 -0.001540018
vn 0.0001196972 0.9999994 -0.00109181
vn 0.0001196972 0.9999994 -0.00109181
vn 0.0001196972 0.9999994 -0.00109181
vn -0.0009400533 0.9999993 -0.0006275289
vn -0.0009400533 0.9999993 -0.0006275289
vn -0.0009400533 0.9999993 -0.0006275289
vn 0 1 0
vn 0 1 0
vn 0 1 0
vn -0.8359771 0 -0.5487642
vn -0.8359771 0 -0.5487642
vn -0.8359771 0 -0.5487642
vn -0.8359771 0 -0.5487642
vn -0.8359771 0 -0.5487642
vn -0.8359771 0 -0.5487642
vn -0.8359771 2.362059E-11 -0.5487642
vn -0.8359771 2.362059E-11 -0.5487642
vn -0.8359771 2.362059E-11 -0.5487642
vn -0.548903 0 0.835886
vn -0.548903 0 0.835886
vn -0.548903 0 0.835886
vn -0.548903 0 0.835886
vn -0.548903 0 0.835886
vn -0.548903 0 0.835886
vn -0.548903 1.476669E-12 0.835886
vn -0.548903 1.476669E-12 0.835886
vn -0.548903 1.476669E-12 0.835886
vn 0.8358749 0 0.5489199
vn 0.8358749 0 0.5489199
vn 0.8358749 0 0.5489199
vn 0.8358749 0 0.5489199
vn 0.5586004 0 -0.829437
vn 0.5586004 0 -0.829437
vn 0.5586004 0 -0.829437
vn 0.5586004 0 -0.829437
vn 0.8358541 0 0.5489517
vn 0.8358541 0 0.5489517
vn 0.8358541 0 0.5489517
vn 0.8358541 0 0.5489517
vn 0.5490916 0 -0.8357622
vn 0.5490916 0 -0.8357622
vn 0.5490916 0 -0.8357622
vn 0.5490916 0 -0.8357622
vn -0.8353842 0 -0.5496665
vn -0.8353842 0 -0.5496665
vn -0.8353842 0 -0.5496665
vn -0.8353842 0 -0.5496665
vn -0.8358719 0 -0.5489246
vn -0.8358719 0 -0.5489246
vn -0.8358719 0 -0.5489246
vn -0.8358719 0 -0.5489246
vn -0.5492716 0 0.8356439
vn -0.5492716 0 0.8356439
vn -0.5492716 0 0.8356439
vn -0.5492716 0 0.8356439
vn -0.5549609 0 0.8318764
vn -0.5549609 0 0.8318764
vn -0.5549609 0 0.8318764
vn -0.554961 5.94061E-10 0.8318763
vn -0.554961 5.94061E-10 0.8318763
vn -0.554961 5.94061E-10 0.8318763
vn -0.5549611 0 0.8318763
vn -0.5549611 0 0.8318763
vn -0.5549611 0 0.8318763
vn -0.5549611 0 0.8318763
vn -0.5549611 0 0.8318763
vn -0.5549611 0 0.8318763
vn -0.554961 0 0.8318764
vn -0.554961 0 0.8318764
vn -0.554961 0 0.8318764
vn -0.554961 0 0.8318764
vn 0.8322192 0 0.5544468
vn 0.8322192 0 0.5544468
vn 0.8322192 0 0.5544468
vn 0.8322192 0 0.5544468
vn 0.5554832 0 -0.8315278
vn 0.5554832 0 -0.8315278
vn 0.5554832 0 -0.8315278
vn 0.5554832 0 -0.8315278
vn 0.5554832 0 -0.8315278
vn 0.5554832 0 -0.8315278
vn 0.5554832 0 -0.8315278
vn 0.5554832 0 -0.8315278
vn -0.8317125 0 -0.5552065
vn -0.8317125 0 -0.5552065
vn -0.8317125 0 -0.5552065
vn -0.8317125 0 -0.5552065
vn -0.8317125 0 -0.5552065
vn -0.8317125 0 -0.5552065
vn -0.8317125 0 -0.5552065
vn -0.8317124 0 -0.5552067
vn -0.8317124 0 -0.5552067
vn -0.8317124 0 -0.5552067
vn -0.8317125 -1.342835E-09 -0.5552065
vn -0.8317125 -6.714176E-10 -0.5552065
vn -0.8317125 0 -0.5552065
vn -0.8317125 -6.714176E-10 -0.5552065
vn 0 -1 0
vn 0 -1 0
vn 0 -1 0
vn 0 -1 0
vn 0 -1 0
vn 0 -1 0
vn 0 -1 0
vn 0 -1 0
vn 0 -1 0
vn 0 -1 0
vn 0 -1 0
vn 0 -1 0
vn 0 -1 0
vn 0 -1 0
vn 0 -1 0
vn 0 -1 0
vn 0 -1 0

g CDNNDG02_0008490
f 1/1/1 2/2/2 3/3/3
f 4/4/4 5/5/5 6/6/6
f 7/7/7 4/4/4 6/6/6
f 8/8/8 9/9/9 10/10/10
f 11/11/11 12/12/12 13/13/13
f 14/14/14 15/15/15 16/16/16
f 17/17/17 18/18/18 19/19/19
f 20/20/20 21/21/21 22/22/22
f 23/23/23 24/24/24 25/25/25
f 26/26/26 27/27/27 28/28/28
f 29/29/29 30/30/30 31/31/31
f 32/32/32 33/33/33 34/34/34
f 35/35/35 36/36/36 37/37/37
f 38/38/38 39/39/39 40/40/40
f 41/41/41 42/42/42 43/43/43
f 44/44/44 45/45/45 46/46/46
f 47/47/47 48/48/48 49/49/49
f 50/50/50 51/51/51 52/52/52
f 53/53/53 54/54/54 55/55/55
f 56/56/56 57/57/57 58/58/58
f 59/59/59 60/60/60 61/61/61
f 63/63/63 64/64/64 62/62/62
f 62/62/62 64/64/64 65/65/65
f 68/68/68 66/66/66 67/67/67
f 66/66/66 68/68/68 69/69/69
f 73/73/73 70/70/70 72/72/72
f 71/71/71 72/72/72 70/70/70
f 74/74/74 75/75/75 76/76/76
f 77/77/77 74/74/74 76/76/76
f 78/78/78 79/79/79 80/80/80
f 81/81/81 78/78/78 80/80/80
f 85/85/85 82/82/82 84/84/84
f 84/84/84 82/82/82 83/83/83
f 89/89/89 86/86/86 88/88/88
f 88/88/88 86/86/86 87/87/87
f 90/90/90 91/91/91 92/92/92
f 93/93/93 94/94/94 95/95/95
f 96/96/96 97/97/97 98/98/98
f 99/99/99 100/100/100 101/101/101
f 103/103/103 104/104/104 105/105/105
f 105/105/105 102/102/102 103/103/103
f 107/107/107 108/108/108 106/106/106
f 106/106/106 108/108/108 109/109/109
f 112/112/112 110/110/110 111/111/111
f 110/110/110 112/112/112 113/113/113
f 116/116/116 114/114/114 115/115/115
f 114/114/114 116/116/116 117/117/117
f 118/118/118 119/119/119 120/120/120
f 121/121/121 123/123/123 124/124/124
f 123/123/123 121/121/121 122/122/122
f 125/125/125 126/126/126 127/127/127
f 131/131/131 129/129/129 130/130/130
f 131/131/131 128/128/128 129/129/129
f 148/148/148 132/132/132 133/133/133
f 134/134/134 148/148/148 133/133/133
f 143/143/143 140/140/140 141/141/141
f 143/143/143 141/141/141 142/142/142
f 138/138/138 136/136/136 137/137/137
f 135/135/135 136/136/136 134/134/134
f 140/140/140 144/144/144 138/138/138
f 145/145/145 147/147/147 148/148/148
f 138/138/138 139/139/139 140/140/140
f 144/144/144 134/134/134 136/136/136
f 144/144/144 136/136/136 138/138/138
f 145/145/145 134/134/134 144/144/144
f 143/143/143 144/144/144 140/140/140
f 145/145/145 146/146/146 147/147/147
f 134/134/134 145/145/145 148/148/148
