v 0.222462 7.904717 -5.926415
v 3.028499 5.982831 -7.913473
v 1.964486 5.98279 -8.605453
v 3.028499 5.982831 -7.913473
v 5.411462 7.904717 -2.553415
v 7.153717 5.983494 -5.232807
v 0.222462 7.904717 -5.926415
v 5.411462 7.904717 -2.553415
v 3.028499 5.982831 -7.913473
v -6.023081 7.313099 3.680915
v -5.424554 5.99077 6.79661
v -5.465538 7.904717 2.823585
v -1.943095 7.321722 6.315798
v -1.942557 7.32172 6.316152
v -0.277538 7.904717 6.196585
v -2.420823 7.324718 5.999023
v -1.943095 7.321722 6.315798
v -0.277538 7.904717 6.196585
v -1.994971 7.26608 6.396798
v -0.277538 7.904717 6.196585
v -1.942557 7.32172 6.316152
v -5.465538 7.904717 2.823585
v -2.735471 6.990721 6.483124
v -2.420823 7.324718 5.999023
v -5.465538 7.904717 2.823585
v -2.420823 7.324718 5.999023
v -0.277538 7.904717 6.196585
v -5.465538 7.904717 2.823585
v -5.424554 5.99077 6.79661
v -2.735471 6.990721 6.483124
v -3.328538 6.361252 7.395585
v -2.080617 5.990968 8.970706
v -2.847538 6.361149 7.708585
v -2.847538 6.361149 7.708585
v -2.080617 5.990968 8.970706
v -0.277538 7.904717 6.196585
v -5.424554 5.99077 6.79661
v -2.080617 5.990968 8.970706
v -3.328538 6.361252 7.395585
v -2.847538 6.361149 7.708585
v -0.277538 7.904717 6.196585
v -1.994971 7.26608 6.396798
v -5.424554 5.99077 6.79661
v -3.328538 6.361252 7.395585
v -2.735471 6.990721 6.483124
v -0.277538 7.904717 6.196585
v 5.411462 7.904717 -2.553415
v 0.222462 7.904717 -5.926415
v -5.465538 7.904717 2.823585
v -3.328538 7.325717 7.395585
v -2.847538 7.323717 7.708585
v -1.943095 7.321722 6.315798
v -2.847538 7.323717 7.708585
v -1.942557 7.32172 6.316152
v -1.943095 7.321722 6.315798
v -3.328538 7.325717 7.395585
v -1.943095 7.321722 6.315798
v -2.420823 7.324718 5.999023
v -7.269478 7.311717 5.597492
v -5.424554 5.99077 6.79661
v -6.023081 7.313099 3.680915
v 2.755601 5.733467 -9.240437
v 3.021727 5.733217 -9.067439
v 3.284345 5.686717 -9.471427
v 3.018156 5.686967 -9.644426
v 3.021727 5.733217 -9.067439
v 3.287854 5.732967 -8.894442
v 3.550533 5.686467 -9.298429
v 3.284345 5.686717 -9.471427
v 2.493045 5.779967 -8.836447
v 2.75911 5.779717 -8.66345
v 3.021727 5.733217 -9.067439
v 2.755601 5.733467 -9.240437
v 2.75911 5.779717 -8.66345
v 3.025175 5.779467 -8.490455
v 3.287854 5.732967 -8.894442
v 3.021727 5.733217 -9.067439
v 2.755601 5.733467 -9.240437
v 3.018156 5.686967 -9.644426
v 3.014462 5.640717 -10.22142
v 1.964486 5.826717 -8.605453
v 2.755601 5.733467 -9.240437
v 3.014462 5.640717 -10.22142
v 3.014462 5.640717 -10.22142
v 3.018156 5.686967 -9.644426
v 3.284345 5.686717 -9.471427
v 3.284345 5.686717 -9.471427
v 3.550533 5.686467 -9.298429
v 4.079462 5.639717 -9.529415
v 3.014462 5.640717 -10.22142
v 3.284345 5.686717 -9.471427
v 4.079462 5.639717 -9.529415
v 3.287854 5.732967 -8.894442
v 4.079462 5.639717 -9.529415
v 3.550533 5.686467 -9.298429
v 1.964486 5.826717 -8.605453
v 2.75911 5.779717 -8.66345
v 2.493045 5.779967 -8.836447
v 1.964486 5.826717 -8.605453
v 2.493045 5.779967 -8.836447
v 2.755601 5.733467 -9.240437
v 1.964486 5.826717 -8.605453
v 3.028499 5.825717 -7.913473
v 2.75911 5.779717 -8.66345
v 3.025175 5.779467 -8.490455
v 3.028499 5.825717 -7.913473
v 3.287854 5.732967 -8.894442
v 2.75911 5.779717 -8.66345
v 3.028499 5.825717 -7.913473
v 3.025175 5.779467 -8.490455
v 3.028499 5.825717 -7.913473
v 4.079462 5.639717 -9.529415
v 3.287854 5.732967 -8.894442
v 0.222462 7.904717 -5.926415
v 1.964486 5.826717 -8.605453
v 1.964486 -7.535161 -8.605453
v 0.222462 -7.535161 -5.926415
v 0.222462 7.904717 -5.926415
v 1.964486 5.98279 -8.605453
v 1.964486 5.826717 -8.605453
v -6.023081 7.313099 3.680915
v -5.465538 7.904717 2.823585
v -5.465538 7.313717 2.823585
v -5.465538 7.904717 2.823585
v 0.222462 7.904717 -5.926415
v -5.465538 7.313717 2.823585
v -5.465538 7.313717 2.823585
v 0.222462 7.904717 -5.926415
v 0.222462 -7.535161 -5.926415
v -5.465538 -7.535161 2.823585
v -7.269478 5.990527 5.597492
v -6.023081 7.313099 3.680915
v -5.465538 -7.535161 2.823585
v -7.269478 -7.535161 5.597492
v -6.023081 7.313099 3.680915
v -5.465538 7.313717 2.823585
v -5.465538 -7.535161 2.823585
v -7.269478 7.311717 5.597492
v -6.023081 7.313099 3.680915
v -7.269478 5.990527 5.597492
v 1.964486 5.826717 -8.605453
v 2.489474 -7.535161 -9.413434
v 1.964486 -7.535161 -8.605453
v 2.489474 -7.535161 -9.413434
v 3.014462 5.640717 -10.22142
v 3.014462 -7.535161 -10.22142
v 1.964486 5.826717 -8.605453
v 3.014462 5.640717 -10.22142
v 2.489474 -7.535161 -9.413434
v 5.411462 -7.535161 -2.553415
v 7.153717 -7.535161 -5.232807
v 7.153717 5.983494 -5.232807
v 5.411462 7.904717 -2.553415
v -1.179078 -7.535161 7.583645
v -0.277538 -7.535161 6.196585
v -0.277538 7.904717 6.196585
v -2.080617 5.990968 8.970706
v -2.080617 -7.535161 8.970706
v -1.179078 -7.535161 7.583645
v -2.080617 5.990968 8.970706
v -1.179078 -7.535161 7.583645
v -0.277538 7.904717 6.196585
v -0.277538 -7.535161 6.196585
v 5.411462 -7.535161 -2.553415
v 5.411462 7.904717 -2.553415
v -0.277538 7.904717 6.196585
v 3.028499 5.982831 -7.913473
v 7.153717 5.983494 -5.232807
v 3.028499 5.825717 -7.913473
v 3.028499 5.825717 -7.913473
v 7.153717 5.983494 -5.232807
v 7.153717 -7.535161 -5.232807
v 3.028499 -7.535161 -7.913473
v 1.964486 5.98279 -8.605453
v 3.028499 5.982831 -7.913473
v 3.028499 5.825717 -7.913473
v 1.964486 5.826717 -8.605453
v -7.269478 -7.535161 5.597492
v -5.424554 -7.535161 6.79661
v -5.424554 5.99077 6.79661
v -7.269478 5.990527 5.597492
v -5.424554 -7.535161 6.79661
v -2.080617 -7.535161 8.970706
v -2.080617 5.990968 8.970706
v -5.424554 5.99077 6.79661
v -7.269478 7.311717 5.597492
v -7.269478 5.990527 5.597492
v -5.424554 5.99077 6.79661
v -2.847538 7.323717 7.708585
v -1.994971 7.26608 6.396798
v -1.942557 7.32172 6.316152
v -2.847538 7.323717 7.708585
v -2.847538 6.361149 7.708585
v -1.994971 7.26608 6.396798
v -3.328538 7.325717 7.395585
v -2.735471 6.990721 6.483124
v -3.328538 6.361252 7.395585
v -3.328538 7.325717 7.395585
v -2.420823 7.324718 5.999023
v -2.735471 6.990721 6.483124
v -3.328538 6.361252 7.395585
v -2.847538 6.361149 7.708585
v -2.847538 7.323717 7.708585
v -3.328538 7.325717 7.395585
v 3.553981 -7.535161 -8.721444
v 4.079462 -7.535161 -9.529415
v 4.079462 5.639717 -9.529415
v 3.028499 5.825717 -7.913473
v 3.028499 -7.535161 -7.913473
v 3.553981 -7.535161 -8.721444
v 3.028499 5.825717 -7.913473
v 3.553981 -7.535161 -8.721444
v 4.079462 5.639717 -9.529415
v 3.014462 5.640717 -10.22142
v 4.079462 5.639717 -9.529415
v 4.079462 -7.535161 -9.529415
v 3.014462 -7.535161 -10.22142
v 0.222462 -7.535161 -5.926415
v 1.964486 -7.535161 -8.605453
v 2.489474 -7.535161 -9.413434
v 3.014462 -7.535161 -10.22142
v 4.079462 -7.535161 -9.529415
v 3.553981 -7.535161 -8.721444
v 3.028499 -7.535161 -7.913473
v 7.153717 -7.535161 -5.232807
v 5.411462 -7.535161 -2.553415
v -0.277538 -7.535161 6.196585
v -1.179078 -7.535161 7.583645
v -2.080617 -7.535161 8.970706
v -5.424554 -7.535161 6.79661
v -7.269478 -7.535161 5.597492
v -5.465538 -7.535161 2.823585
vt 0.623171 0.738301
vt 0.700700 0.663970
vt 0.728201 0.689303
vt 0.700700 0.663970
vt 0.488789 0.614457
vt 0.594159 0.565753
vt 0.623171 0.738301
vt 0.488789 0.614457
vt 0.700700 0.663970
vt 0.358670 0.974546
vt 0.236531 0.964573
vt 0.392094 0.959150
vt 0.253886 0.876364
vt 0.253872 0.876352
vt 0.257870 0.834247
vt 0.266479 0.887847
vt 0.253886 0.876364
vt 0.257870 0.834247
vt 0.250738 0.877805
vt 0.257870 0.834247
vt 0.253872 0.876352
vt 0.392094 0.959150
vt 0.247667 0.896564
vt 0.266479 0.887847
vt 0.392094 0.959150
vt 0.266479 0.887847
vt 0.257870 0.834247
vt 0.392094 0.959150
vt 0.236531 0.964573
vt 0.247667 0.896564
vt 0.212251 0.912972
vt 0.150224 0.884263
vt 0.199820 0.901415
vt 0.199820 0.901415
vt 0.150224 0.884263
vt 0.257870 0.834247
vt 0.236531 0.964573
vt 0.150224 0.884263
vt 0.212251 0.912972
vt 0.199820 0.901415
vt 0.257870 0.834247
vt 0.250738 0.877805
vt 0.236531 0.964573
vt 0.212251 0.912972
vt 0.247667 0.896564
vt 0.002242 0.704768
vt 0.348536 0.565753
vt 0.483372 0.691257
vt 0.137082 0.830237
vt 0.731886 0.866772
vt 0.719731 0.855562
vt 0.773281 0.834259
vt 0.719731 0.855562
vt 0.773267 0.834247
vt 0.773281 0.834259
vt 0.731886 0.866772
vt 0.773281 0.834259
vt 0.785580 0.845390
vt 0.640159 0.882079
vt 0.594170 0.834247
vt 0.714215 0.852368
vt 0.551296 0.865728
vt 0.544528 0.859511
vt 0.560021 0.853098
vt 0.566789 0.859316
vt 0.544528 0.859511
vt 0.537760 0.853294
vt 0.553253 0.846880
vt 0.560021 0.853098
vt 0.535802 0.872141
vt 0.529034 0.865925
vt 0.544528 0.859511
vt 0.551296 0.865728
vt 0.529034 0.865925
vt 0.522265 0.859709
vt 0.537760 0.853294
vt 0.544528 0.859511
vt 0.551296 0.865728
vt 0.566789 0.859316
vt 0.589047 0.859124
vt 0.527075 0.884770
vt 0.551296 0.865728
vt 0.589047 0.859124
vt 0.589047 0.859124
vt 0.566789 0.859316
vt 0.560021 0.853098
vt 0.560021 0.853098
vt 0.553253 0.846880
vt 0.561977 0.834247
vt 0.589047 0.859124
vt 0.560021 0.853098
vt 0.561977 0.834247
vt 0.537760 0.853294
vt 0.561977 0.834247
vt 0.553253 0.846880
vt 0.527075 0.884770
vt 0.529034 0.865925
vt 0.535802 0.872141
vt 0.527075 0.884770
vt 0.535802 0.872141
vt 0.551296 0.865728
vt 0.527075 0.884770
vt 0.500000 0.859910
vt 0.529034 0.865925
vt 0.522265 0.859709
vt 0.500000 0.859910
vt 0.537760 0.853294
vt 0.529034 0.865925
vt 0.500000 0.859910
vt 0.522265 0.859709
vt 0.500000 0.859910
vt 0.561977 0.834247
vt 0.537760 0.853294
vt 0.458388 0.061943
vt 0.564477 0.026341
vt 0.564117 0.070380
vt 0.460019 0.112143
vt 0.458388 0.061943
vt 0.564481 0.025818
vt 0.564477 0.026341
vt 0.078111 0.216457
vt 0.111725 0.200984
vt 0.112049 0.202837
vt 0.111725 0.200984
vt 0.458388 0.061943
vt 0.112049 0.202837
vt 0.112049 0.202837
vt 0.458388 0.061943
vt 0.460019 0.112143
vt 0.120045 0.248498
vt 0.003150 0.250962
vt 0.078111 0.216457
vt 0.120045 0.248498
vt 0.012274 0.291740
vt 0.078111 0.216457
vt 0.112049 0.202837
vt 0.120045 0.248498
vt 0.002242 0.246904
vt 0.078111 0.216457
vt 0.003150 0.250962
vt 0.564477 0.026341
vt 0.595514 0.057793
vt 0.564117 0.070380
vt 0.595514 0.057793
vt 0.628316 0.001370
vt 0.626910 0.045207
vt 0.564477 0.026341
vt 0.628316 0.001370
vt 0.595514 0.057793
vt 0.460596 0.336255
vt 0.563706 0.294521
vt 0.558137 0.337943
vt 0.452204 0.386784
vt 0.070524 0.494113
vt 0.123896 0.472520
vt 0.108920 0.525712
vt 0.002242 0.562929
vt 0.017154 0.515706
vt 0.070524 0.494113
vt 0.002242 0.562929
vt 0.070524 0.494113
vt 0.108920 0.525712
vt 0.123896 0.472520
vt 0.460596 0.336255
vt 0.452204 0.386784
vt 0.108920 0.525712
vt 0.838957 0.707234
vt 0.733184 0.609043
vt 0.839001 0.706703
vt 0.839001 0.706703
vt 0.733184 0.609043
vt 0.738684 0.565753
vt 0.842680 0.662299
vt 0.866260 0.732560
vt 0.838957 0.707234
vt 0.839001 0.706703
vt 0.866298 0.732027
vt 0.144326 0.999678
vt 0.097823 0.956057
vt 0.088008 0.914672
vt 0.135310 0.959043
vt 0.097823 0.956057
vt 0.013507 0.876993
vt 0.002242 0.834247
vt 0.088008 0.914672
vt 0.134413 0.954999
vt 0.135310 0.959043
vt 0.088008 0.914672
vt 0.849776 0.855142
vt 0.899394 0.835269
vt 0.902388 0.834247
vt 0.849776 0.855142
vt 0.850760 0.851881
vt 0.899394 0.835269
vt 0.791480 0.855348
vt 0.826517 0.842584
vt 0.792204 0.858280
vt 0.791480 0.855348
vt 0.844744 0.834247
vt 0.826517 0.842584
vt 0.919167 0.847677
vt 0.908712 0.837068
vt 0.908072 0.834247
vt 0.918538 0.844862
vt 0.430653 0.846655
vt 0.460830 0.834247
vt 0.458270 0.877120
vt 0.396861 0.902969
vt 0.400477 0.859062
vt 0.430653 0.846655
vt 0.396861 0.902969
vt 0.430653 0.846655
vt 0.458270 0.877120
vt 0.492133 0.902152
vt 0.466368 0.877103
vt 0.468827 0.834247
vt 0.494171 0.858883
vt 0.923767 0.834247
vt 0.923767 0.834247
vt 0.923767 0.834247
vt 0.923767 0.834247
vt 0.923767 0.834247
vt 0.923767 0.834247
vt 0.923767 0.834247
vt 0.923767 0.834247
vt 0.923767 0.834247
vt 0.923767 0.834247
vt 0.923767 0.834247
vt 0.923767 0.834247
vt 0.923767 0.834247
vt 0.923767 0.834247
vt 0.923767 0.834247
vn 0.280967 0.8569524 -0.4320766
vn 0.280967 0.8569524 -0.4320766
vn 0.280967 0.8569524 -0.4320766
vn 0.2806315 0.8570659 -0.4320695
vn 0.2806315 0.8570659 -0.4320695
vn 0.2806315 0.8570659 -0.4320695
vn 0.2809073 0.856937 -0.4321459
vn 0.2809073 0.856937 -0.4321459
vn 0.2809073 0.856937 -0.4321459
vn -0.2729672 0.8655946 0.4198034
vn -0.2729672 0.8655946 0.4198034
vn -0.2729672 0.8655946 0.4198034
vn -0.2729371 0.8655981 0.4198158
vn -0.2729371 0.8655981 0.4198158
vn -0.2729371 0.8655981 0.4198158
vn -0.2729391 0.8656019 0.4198067
vn -0.2729391 0.8656019 0.4198067
vn -0.2729391 0.8656019 0.4198067
vn -0.2729391 0.8656019 0.4198067
vn -0.2729391 0.8656019 0.4198067
vn -0.2729391 0.8656019 0.4198067
vn -0.2729391 0.8656019 0.4198067
vn -0.2729391 0.8656019 0.4198067
vn -0.2729391 0.8656019 0.4198067
vn -0.2729391 0.8656019 0.4198067
vn -0.2729391 0.8656019 0.4198067
vn -0.2729391 0.8656019 0.4198067
vn -0.2729391 0.8656019 0.4198067
vn -0.2729391 0.8656019 0.4198067
vn -0.2729391 0.8656019 0.4198067
vn -0.2729547 0.8656255 0.4197479
vn -0.2729547 0.8656255 0.4197479
vn -0.2729547 0.8656255 0.4197479
vn -0.2729547 0.8656255 0.4197479
vn -0.2729547 0.8656255 0.4197479
vn -0.2729547 0.8656255 0.4197479
vn -0.2729547 0.8656255 0.4197478
vn -0.2729547 0.8656255 0.4197478
vn -0.2729547 0.8656255 0.4197478
vn -0.2729547 0.8656255 0.4197478
vn -0.2729547 0.8656255 0.4197478
vn -0.2729547 0.8656255 0.4197478
vn -0.2729547 0.8656255 0.4197479
vn -0.2729547 0.8656255 0.4197479
vn -0.2729547 0.8656255 0.4197479
vn 0 1 0
vn 0 1 0
vn 0 1 0
vn 0 1 0
vn 0.003578247 0.9999932 0.0008908936
vn 0.003578247 0.9999932 0.0008908936
vn 0.003578247 0.9999932 0.0008908936
vn 0.003577752 0.9999932 0.0008905726
vn 0.003577752 0.9999932 0.0008905726
vn 0.003577752 0.9999932 0.0008905726
vn 0.004713915 0.9999861 0.002348064
vn 0.004713915 0.9999861 0.002348064
vn 0.004713915 0.9999861 0.002348064
vn 0.4312035 0.8573679 0.2810404
vn 0.4312035 0.8573679 0.2810404
vn 0.4312035 0.8573679 0.2810404
vn 0.05301444 0.9953748 -0.08011516
vn 0.05300849 0.9953752 -0.08011515
vn 0.05300254 0.9953755 -0.08011514
vn 0.05300849 0.9953752 -0.08011515
vn 0.0530109 0.9953755 -0.0801097
vn 0.05300494 0.9953758 -0.08010969
vn 0.05299899 0.9953761 -0.08010968
vn 0.05300494 0.9953758 -0.08010969
vn 0.05301685 0.9953752 -0.08010972
vn 0.05301926 0.9953755 -0.08010427
vn 0.05301685 0.9953752 -0.08010972
vn 0.05301444 0.9953748 -0.08011515
vn 0.05301925 0.9953755 -0.08010427
vn 0.0530133 0.9953758 -0.08010426
vn 0.05300735 0.9953761 -0.08010425
vn 0.0530133 0.9953758 -0.08010426
vn 0.05299773 0.9953749 -0.08012602
vn 0.05299773 0.9953749 -0.08012602
vn 0.05299773 0.9953749 -0.08012602
vn 0.05301799 0.9953742 -0.08012062
vn 0.05301799 0.9953742 -0.08012062
vn 0.05301799 0.9953742 -0.08012062
vn 0.05300963 0.9953742 -0.08012605
vn 0.05300963 0.9953742 -0.08012605
vn 0.05300963 0.9953742 -0.08012605
vn 0.05299545 0.9953767 -0.08010423
vn 0.05299545 0.9953767 -0.08010423
vn 0.05299545 0.9953767 -0.08010423
vn 0.05299418 0.9953755 -0.08012056
vn 0.05299418 0.9953755 -0.08012056
vn 0.05299418 0.9953755 -0.08012056
vn 0.05299064 0.9953761 -0.08011511
vn 0.05299064 0.9953761 -0.08011511
vn 0.05299064 0.9953761 -0.08011511
vn 0.05302635 0.9953742 -0.08011518
vn 0.05302635 0.9953742 -0.08011518
vn 0.05302635 0.9953742 -0.08011518
vn 0.05303117 0.9953748 -0.08010428
vn 0.05303117 0.9953748 -0.08010428
vn 0.05303117 0.9953748 -0.08010428
vn 0.05302761 0.9953755 -0.08009883
vn 0.05302761 0.9953755 -0.08009883
vn 0.05302761 0.9953755 -0.08009883
vn 0.05302407 0.9953761 -0.08009338
vn 0.05302407 0.9953761 -0.08009338
vn 0.05302407 0.9953761 -0.08009338
vn 0.05301216 0.9953767 -0.08009335
vn 0.05301216 0.9953767 -0.08009335
vn 0.05301216 0.9953767 -0.08009335
vn 0.05300381 0.9953767 -0.08009879
vn 0.05300381 0.9953767 -0.08009879
vn 0.05300381 0.9953767 -0.08009879
vn -0.8383507 0 -0.5451313
vn -0.8383507 0 -0.5451313
vn -0.8383507 0 -0.5451313
vn -0.8383507 0 -0.5451313
vn -0.8383507 0 -0.5451313
vn -0.8383507 0 -0.5451313
vn -0.8383507 0 -0.5451313
vn -0.8383193 0 -0.5451795
vn -0.8383193 0 -0.5451795
vn -0.8383193 0 -0.5451795
vn -0.8384217 0 -0.545022
vn -0.8384217 0 -0.545022
vn -0.8384217 0 -0.545022
vn -0.8384217 0 -0.545022
vn -0.8384217 0 -0.545022
vn -0.8384217 0 -0.545022
vn -0.8384217 0 -0.545022
vn -0.8383193 1.399667E-10 -0.5451795
vn -0.8383193 2.799334E-10 -0.5451795
vn -0.8383193 1.399667E-10 -0.5451795
vn -0.8383193 0 -0.5451795
vn -0.8383193 0 -0.5451795
vn -0.8383193 0 -0.5451795
vn -0.8383193 0 -0.5451795
vn -0.8383193 0 -0.5451795
vn -0.8383193 0 -0.5451795
vn -0.8383193 0 -0.5451795
vn -0.8385385 0 -0.5448424
vn -0.8385385 0 -0.5448424
vn -0.8385385 0 -0.5448424
vn -0.8385385 0 -0.5448424
vn -0.8385385 0 -0.5448424
vn -0.8385385 0 -0.5448424
vn -0.8385385 -2.99068E-10 -0.5448424
vn -0.8385385 -2.99068E-10 -0.5448424
vn -0.8385385 -2.99068E-10 -0.5448424
vn 0.8383507 0 0.5451314
vn 0.8383507 0 0.5451314
vn 0.8383507 0 0.5451314
vn 0.8383507 0 0.5451314
vn 0.8384574 0 0.5449671
vn 0.8384574 0 0.5449671
vn 0.8384574 0 0.5449671
vn 0.8384574 0 0.5449671
vn 0.8384574 0 0.5449671
vn 0.8384574 0 0.5449671
vn 0.8384574 -2.705949E-10 0.5449671
vn 0.8384574 -2.705949E-10 0.5449671
vn 0.8384574 -2.705949E-10 0.5449671
vn 0.838378 0 0.5450894
vn 0.838378 0 0.5450894
vn 0.838378 0 0.5450894
vn 0.838378 0 0.5450894
vn 0.5448847 0 -0.8385109
vn 0.5448847 0 -0.8385109
vn 0.5448847 0 -0.8385109
vn 0.5448847 0 -0.8385109
vn 0.5448847 0 -0.8385109
vn 0.5448847 0 -0.8385109
vn 0.5448847 0 -0.8385109
vn 0.5451935 0 -0.8383102
vn 0.5451935 0 -0.8383102
vn 0.5451935 0 -0.8383102
vn 0.5451935 0 -0.8383102
vn -0.5449619 0 0.8384608
vn -0.5449619 0 0.8384608
vn -0.5449619 0 0.8384608
vn -0.5449619 0 0.8384608
vn -0.5450829 0 0.8383821
vn -0.5450829 0 0.8383821
vn -0.5450829 0 0.8383821
vn -0.5450829 0 0.8383821
vn -0.5449619 0 0.8384608
vn -0.5449619 0 0.8384608
vn -0.5449619 0 0.8384608
vn 0.8384711 -6.768935E-08 0.5449461
vn 0.8384711 -6.768935E-08 0.5449461
vn 0.8384711 -6.768935E-08 0.5449461
vn 0.8384711 0 0.5449461
vn 0.8384711 0 0.5449461
vn 0.8384711 0 0.5449461
vn -0.8384573 0 -0.5449672
vn -0.8384573 0 -0.5449672
vn -0.8384573 0 -0.5449672
vn -0.8384573 -3.007845E-09 -0.5449672
vn -0.8384573 -3.007845E-09 -0.5449672
vn -0.8384573 -3.007845E-09 -0.5449672
vn -0.545417 0 0.8381648
vn -0.545417 0 0.8381648
vn -0.545417 0 0.8381648
vn -0.545417 0 0.8381648
vn 0.8383014 0 0.5452071
vn 0.8383014 0 0.5452071
vn 0.8383014 0 0.5452071
vn 0.8383014 0 0.5452071
vn 0.8383014 0 0.5452071
vn 0.8383014 0 0.5452071
vn 0.8383014 3.162841E-10 0.5452071
vn 0.8383014 3.162841E-10 0.5452071
vn 0.8383014 3.162841E-10 0.5452071
vn 0.54485 0 -0.8385335
vn 0.54485 0 -0.8385335
vn 0.54485 0 -0.8385335
vn 0.54485 0 -0.8385335
vn 0 -1 0
vn 0 -1 0
vn 0 -1 0
vn 0 -1 0
vn 0 -1 0
vn 0 -1 0
vn 0 -1 0
vn 0 -1 0
vn 0 -1 0
vn 0 -1 0
vn 0 -1 0
vn 0 -1 0
vn 0 -1 0
vn 0 -1 0
vn 0 -1 0

g CDNNDG02_0006620
f 1/1/1 2/2/2 3/3/3
f 4/4/4 5/5/5 6/6/6
f 7/7/7 8/8/8 9/9/9
f 10/10/10 11/11/11 12/12/12
f 13/13/13 14/14/14 15/15/15
f 16/16/16 17/17/17 18/18/18
f 19/19/19 20/20/20 21/21/21
f 22/22/22 23/23/23 24/24/24
f 25/25/25 26/26/26 27/27/27
f 28/28/28 29/29/29 30/30/30
f 31/31/31 32/32/32 33/33/33
f 34/34/34 35/35/35 36/36/36
f 37/37/37 38/38/38 39/39/39
f 40/40/40 41/41/41 42/42/42
f 43/43/43 44/44/44 45/45/45
f 46/46/46 48/48/48 49/49/49
f 46/46/46 47/47/47 48/48/48
f 50/50/50 51/51/51 52/52/52
f 53/53/53 54/54/54 55/55/55
f 56/56/56 57/57/57 58/58/58
f 59/59/59 60/60/60 61/61/61
f 65/65/65 62/62/62 63/63/63
f 64/64/64 65/65/65 63/63/63
f 69/69/69 66/66/66 67/67/67
f 68/68/68 69/69/69 67/67/67
f 73/73/73 70/70/70 72/72/72
f 72/72/72 70/70/70 71/71/71
f 77/77/77 74/74/74 75/75/75
f 76/76/76 77/77/77 75/75/75
f 78/78/78 79/79/79 80/80/80
f 81/81/81 82/82/82 83/83/83
f 84/84/84 85/85/85 86/86/86
f 87/87/87 88/88/88 89/89/89
f 90/90/90 91/91/91 92/92/92
f 93/93/93 94/94/94 95/95/95
f 96/96/96 97/97/97 98/98/98
f 99/99/99 100/100/100 101/101/101
f 102/102/102 103/103/103 104/104/104
f 105/105/105 106/106/106 107/107/107
f 108/108/108 109/109/109 110/110/110
f 111/111/111 112/112/112 113/113/113
f 117/117/117 114/114/114 115/115/115
f 115/115/115 116/116/116 117/117/117
f 118/118/118 119/119/119 120/120/120
f 121/121/121 122/122/122 123/123/123
f 124/124/124 125/125/125 126/126/126
f 130/130/130 127/127/127 129/129/129
f 129/129/129 127/127/127 128/128/128
f 134/134/134 131/131/131 133/133/133
f 133/133/133 131/131/131 132/132/132
f 135/135/135 136/136/136 137/137/137
f 138/138/138 139/139/139 140/140/140
f 141/141/141 142/142/142 143/143/143
f 144/144/144 145/145/145 146/146/146
f 147/147/147 148/148/148 149/149/149
f 150/150/150 152/152/152 153/153/153
f 150/150/150 151/151/151 152/152/152
f 154/154/154 155/155/155 156/156/156
f 157/157/157 158/158/158 159/159/159
f 160/160/160 161/161/161 162/162/162
f 163/163/163 165/165/165 166/166/166
f 163/163/163 164/164/164 165/165/165
f 167/167/167 168/168/168 169/169/169
f 172/172/172 170/170/170 171/171/171
f 170/170/170 172/172/172 173/173/173
f 175/175/175 176/176/176 177/177/177
f 174/174/174 175/175/175 177/177/177
f 179/179/179 180/180/180 181/181/181
f 181/181/181 178/178/178 179/179/179
f 183/183/183 184/184/184 185/185/185
f 185/185/185 182/182/182 183/183/183
f 186/186/186 187/187/187 188/188/188
f 189/189/189 190/190/190 191/191/191
f 192/192/192 193/193/193 194/194/194
f 195/195/195 196/196/196 197/197/197
f 198/198/198 199/199/199 200/200/200
f 204/204/204 201/201/201 203/203/203
f 203/203/203 201/201/201 202/202/202
f 205/205/205 206/206/206 207/207/207
f 208/208/208 209/209/209 210/210/210
f 211/211/211 212/212/212 213/213/213
f 215/215/215 216/216/216 217/217/217
f 214/214/214 215/215/215 217/217/217
f 232/232/232 227/227/227 230/230/230
f 223/223/223 219/219/219 220/220/220
f 232/232/232 218/218/218 227/227/227
f 223/223/223 220/220/220 221/221/221
f 223/223/223 221/221/221 222/222/222
f 230/230/230 231/231/231 232/232/232
f 224/224/224 225/225/225 226/226/226
f 223/223/223 224/224/224 219/219/219
f 224/224/224 218/218/218 219/219/219
f 228/228/228 229/229/229 230/230/230
f 226/226/226 218/218/218 224/224/224
f 227/227/227 218/218/218 226/226/226
f 227/227/227 228/228/228 230/230/230
