v 6.374434 6.294437 -3.27518
v 6.990433 6.294437 -2.92118
v 7.346434 6.294437 -3.55518
v 6.665433 6.294437 -3.91118
v -1.105567 6.183437 -7.57218
v -0.4985666 6.183437 -7.97418
v -0.8285666 6.183437 -8.12318
v -1.278567 6.183437 -7.25418
v -0.9825666 6.183437 -7.07718
v -1.105567 6.183437 -7.57218
v -1.105567 6.183437 -7.57218
v -0.9825666 6.183437 -7.07718
v -0.4985666 6.183437 -7.97418
v 0.9494334 5.342437 7.54782
v 6.990433 5.342437 -2.92118
v 6.374434 5.342437 -3.27518
v -0.9728323 5.342437 -7.095221
v 6.374434 5.342437 -3.27518
v -0.8077804 5.342437 -7.401112
v -6.986567 5.342437 3.22682
v -0.9825666 5.342437 -7.07718
v -1.278567 5.342437 -7.25418
v -0.9825666 5.342437 -7.07718
v 0.9494334 5.342437 7.54782
v 6.374434 5.342437 -3.27518
v -6.986567 5.342437 3.22682
v 0.9494334 5.342437 7.54782
v -0.9825666 5.342437 -7.07718
v -0.9825666 5.342437 -7.07718
v 6.374434 5.342437 -3.27518
v -0.9728323 5.342437 -7.095221
v 6.374434 5.342437 -3.27518
v 6.990433 5.342437 -2.92118
v 6.990433 6.294437 -2.92118
v 6.374434 6.294437 -3.27518
v 7.168433 -5.350083 -3.23818
v 7.346434 -5.350083 -3.55518
v 7.346434 6.294437 -3.55518
v 6.990433 6.294437 -2.92118
v 7.168433 -5.350083 -3.23818
v 7.346434 6.294437 -3.55518
v 6.990433 6.294437 -2.92118
v 6.990433 5.342437 -2.92118
v 7.168433 -5.350083 -3.23818
v 6.990433 5.342437 -2.92118
v 6.990433 -5.350083 -2.92118
v 7.168433 -5.350083 -3.23818
v 3.969934 -5.350083 2.31332
v 6.990433 -5.350083 -2.92118
v 6.990433 5.342437 -2.92118
v 0.9494334 5.342437 7.54782
v 0.9494334 -5.350083 7.54782
v 3.969934 -5.350083 2.31332
v 0.9494334 5.342437 7.54782
v 3.969934 -5.350083 2.31332
v 6.990433 5.342437 -2.92118
v 6.665433 6.294437 -3.91118
v 7.346434 6.294437 -3.55518
v 7.346434 -5.350083 -3.55518
v 6.665433 -5.350083 -3.91118
v 6.374434 6.294437 -3.27518
v 6.665433 6.294437 -3.91118
v 6.374434 5.342437 -3.27518
v 6.374434 5.342437 -3.27518
v 6.665433 6.294437 -3.91118
v 6.665433 -5.350083 -3.91118
v 6.374434 -5.350083 -3.27518
v -1.278567 5.342437 -7.25418
v -0.9825666 5.342437 -7.07718
v -0.9825666 6.183437 -7.07718
v -1.278567 6.183437 -7.25418
v -0.8077804 5.342437 -7.401112
v -0.8077804 -5.350083 -7.401112
v -0.4985666 -5.350083 -7.97418
v -0.8077804 5.342437 -7.401112
v -0.4985666 -5.350083 -7.97418
v -0.4985666 6.183437 -7.97418
v -0.9825666 6.183437 -7.07718
v -0.9728323 5.342437 -7.095221
v -0.8077804 5.342437 -7.401112
v -0.9825666 6.183437 -7.07718
v -0.8077804 5.342437 -7.401112
v -0.4985666 6.183437 -7.97418
v -0.9825666 6.183437 -7.07718
v -0.9825666 5.342437 -7.07718
v -0.9728323 5.342437 -7.095221
v -0.8285666 6.183437 -8.12318
v -0.4985666 6.183437 -7.97418
v -0.4985666 -5.350083 -7.97418
v -0.8285666 -5.350083 -8.12318
v -1.105567 6.183437 -7.57218
v -0.8285666 6.183437 -8.12318
v -1.105567 5.342437 -7.57218
v -1.105567 5.342437 -7.57218
v -0.8285666 6.183437 -8.12318
v -0.8285666 -5.350083 -8.12318
v -1.105567 -5.350083 -7.57218
v -1.278567 6.183437 -7.25418
v -1.105567 6.183437 -7.57218
v -1.105567 5.342437 -7.57218
v -1.278567 5.342437 -7.25418
v -6.986567 5.342437 3.22682
v -1.278567 5.342437 -7.25418
v -1.278567 -5.350083 -7.25418
v -6.986567 -5.350083 3.22682
v -1.278567 5.342437 -7.25418
v -1.105567 5.342437 -7.57218
v -1.105567 -5.350083 -7.57218
v -1.278567 -5.350083 -7.25418
v -6.986567 -5.350083 3.22682
v 0.9494334 -5.350083 7.54782
v 0.9494334 5.342437 7.54782
v -6.986567 5.342437 3.22682
v -0.8077804 5.342437 -7.401112
v 6.374434 5.342437 -3.27518
v 6.374434 -5.350083 -3.27518
v -0.8077804 -5.350083 -7.401112
v -1.105567 -5.350083 -7.57218
v -0.8285666 -5.350083 -8.12318
v -0.4985666 -5.350083 -7.97418
v -0.8077804 -5.350083 -7.401112
v 6.374434 -5.350083 -3.27518
v 6.665433 -5.350083 -3.91118
v 7.346434 -5.350083 -3.55518
v 7.168433 -5.350083 -3.23818
v 6.990433 -5.350083 -2.92118
v 3.969934 -5.350083 2.31332
v 0.9494334 -5.350083 7.54782
v -6.986567 -5.350083 3.22682
v -1.278567 -5.350083 -7.25418
vt 0.122850 0.950185
vt 0.138295 0.968541
vt 0.111040 0.979332
vt 0.095491 0.959031
vt 0.169582 0.955360
vt 0.152409 0.973367
vt 0.145889 0.963657
vt 0.183253 0.950185
vt 0.190972 0.958885
vt 0.169582 0.955360
vt 0.169582 0.955360
vt 0.190972 0.958885
vt 0.152409 0.973367
vt 0.682671 0.251863
vt 0.208571 0.445335
vt 0.192300 0.425935
vt 0.016508 0.194441
vt 0.192300 0.425935
vt 0.002653 0.199732
vt 0.483950 0.001845
vt 0.017326 0.194129
vt 0.009193 0.184807
vt 0.017326 0.194129
vt 0.682671 0.251863
vt 0.192300 0.425935
vt 0.483950 0.001845
vt 0.682671 0.251863
vt 0.017326 0.194129
vt 0.017326 0.194129
vt 0.192300 0.425935
vt 0.016508 0.194441
vt 0.196286 0.950185
vt 0.196286 0.950185
vt 0.196286 0.950185
vt 0.196286 0.950185
vt 0.016813 0.939188
vt 0.002653 0.944796
vt 0.087721 0.907729
vt 0.116448 0.896351
vt 0.016813 0.939188
vt 0.087721 0.907729
vt 0.116448 0.896351
vt 0.109368 0.899434
vt 0.016813 0.939188
vt 0.109368 0.899434
vt 0.030973 0.933579
vt 0.016813 0.939188
vt 0.264776 0.838439
vt 0.030973 0.933579
vt 0.109368 0.899434
vt 0.583150 0.706642
vt 0.498589 0.743296
vt 0.264776 0.838439
vt 0.583150 0.706642
vt 0.264776 0.838439
vt 0.109368 0.899434
vt 0.788609 0.706642
vt 0.804651 0.727537
vt 0.721385 0.763722
vt 0.705570 0.743123
vt 0.699576 0.766775
vt 0.671347 0.775949
vt 0.692711 0.761794
vt 0.692711 0.761794
vt 0.671347 0.775949
vt 0.588859 0.715687
vt 0.616689 0.706642
vt 0.236074 0.950185
vt 0.236074 0.950185
vt 0.236074 0.950185
vt 0.236074 0.950185
vt 0.911293 0.714996
vt 0.836844 0.751400
vt 0.811671 0.760907
vt 0.911293 0.714996
vt 0.811671 0.760907
vt 0.891702 0.721735
vt 0.931664 0.706642
vt 0.924907 0.709855
vt 0.911293 0.714996
vt 0.931664 0.706642
vt 0.911293 0.714996
vt 0.891702 0.721735
vt 0.931664 0.706642
vt 0.925710 0.709552
vt 0.924907 0.709855
vt 0.081924 0.950185
vt 0.088625 0.960268
vt 0.009259 0.999300
vt 0.002653 0.989358
vt 0.108107 0.693249
vt 0.083194 0.702130
vt 0.102131 0.689008
vt 0.102131 0.689008
vt 0.083194 0.702130
vt 0.002653 0.644609
vt 0.027216 0.635852
vt 0.122480 0.687710
vt 0.108107 0.693249
vt 0.102131 0.689008
vt 0.116489 0.683475
vt 0.589740 0.500900
vt 0.116489 0.683475
vt 0.041388 0.630390
vt 0.508489 0.450184
vt 0.116489 0.683475
vt 0.102131 0.689008
vt 0.027216 0.635852
vt 0.041388 0.630390
vt 0.209549 0.950185
vt 0.209549 0.950185
vt 0.209549 0.950185
vt 0.209549 0.950185
vt 0.764970 0.001845
vt 0.953471 0.227388
vt 0.875707 0.261804
vt 0.689655 0.039197
vt 0.222812 0.950185
vt 0.222812 0.950185
vt 0.222812 0.950185
vt 0.222812 0.950185
vt 0.222812 0.950185
vt 0.222812 0.950185
vt 0.222812 0.950185
vt 0.222812 0.950185
vt 0.222812 0.950185
vt 0.222812 0.950185
vt 0.222812 0.950185
vt 0.222812 0.950185
vt 0.222812 0.950185
vn 0 1 0
vn 0 1 0
vn 0 1 0
vn 0 1 0
vn 0 1 0
vn 0 1 0
vn 0 1 0
vn 0 1 0
vn 0 1 0
vn 0 1 0
vn 0 1 0
vn 0 1 0
vn 0 1 0
vn 0 1 0
vn 0 1 0
vn 0 1 0
vn 0 1 0
vn 0 1 0
vn 0 1 0
vn 0 1 0
vn 0 1 0
vn 0 1 0
vn 0 1 0
vn 0 1 0
vn 0 1 0
vn 0 1 0
vn 0 1 0
vn 0 1 0
vn 0 1 0
vn 0 1 0
vn 0 1 0
vn -0.4982595 0 0.8670279
vn -0.4982595 0 0.8670279
vn -0.4982595 0 0.8670279
vn -0.4982595 0 0.8670279
vn 0.8719426 0 0.4896081
vn 0.8719426 0 0.4896081
vn 0.8719426 0 0.4896081
vn 0.8719426 -1.74E-11 0.4896081
vn 0.8719426 -1.74E-11 0.4896081
vn 0.8719426 -1.74E-11 0.4896081
vn 0.8719426 0 0.4896081
vn 0.8719426 0 0.4896081
vn 0.8719426 0 0.4896081
vn 0.8719426 0 0.4896081
vn 0.8719426 0 0.4896081
vn 0.8719426 0 0.4896081
vn 0.8661429 0 0.4997965
vn 0.8661429 0 0.4997965
vn 0.8661429 0 0.4997965
vn 0.8661429 0 0.4997965
vn 0.8661429 0 0.4997965
vn 0.8661429 0 0.4997965
vn 0.8661429 -1.940869E-11 0.4997965
vn 0.8661429 -1.940869E-11 0.4997965
vn 0.8661429 -1.940869E-11 0.4997965
vn 0.4632774 0 -0.8862133
vn 0.4632774 0 -0.8862133
vn 0.4632774 0 -0.8862133
vn 0.4632774 0 -0.8862133
vn -0.9093354 0 -0.4160638
vn -0.9093354 0 -0.4160638
vn -0.9093354 0 -0.4160638
vn -0.9093354 0 -0.4160638
vn -0.9093354 0 -0.4160638
vn -0.9093354 0 -0.4160638
vn -0.9093354 0 -0.4160638
vn -0.513216 0 0.8582595
vn -0.513216 0 0.8582595
vn -0.513216 0 0.8582595
vn -0.513216 0 0.8582595
vn 0.8800612 0 0.4748602
vn 0.8800612 0 0.4748602
vn 0.8800612 0 0.4748602
vn 0.8800612 0 0.4748602
vn 0.8800612 0 0.4748602
vn 0.8800612 0 0.4748602
vn 0.8800612 2.688697E-11 0.4748603
vn 0.8800612 2.688697E-11 0.4748603
vn 0.8800612 2.688697E-11 0.4748603
vn 0.8800612 9.658991E-10 0.4748603
vn 0.8800612 9.658991E-10 0.4748603
vn 0.8800612 9.658991E-10 0.4748603
vn 0.8800612 0 0.4748603
vn 0.8800612 0 0.4748603
vn 0.8800612 0 0.4748603
vn 0.4115127 0 -0.911404
vn 0.4115127 0 -0.911404
vn 0.4115127 0 -0.911404
vn 0.4115127 0 -0.911404
vn -0.8934522 0 -0.4491583
vn -0.8934522 0 -0.4491583
vn -0.8934522 0 -0.4491583
vn -0.8934522 0 -0.4491583
vn -0.8934522 0 -0.4491583
vn -0.8934522 0 -0.4491583
vn -0.8934522 0 -0.4491583
vn -0.8784229 0 -0.4778841
vn -0.8784229 0 -0.4778841
vn -0.8784229 0 -0.4778841
vn -0.8784229 0 -0.4778841
vn -0.8782092 0 -0.4782767
vn -0.8782092 0 -0.4782767
vn -0.8782092 0 -0.4782767
vn -0.8782092 0 -0.4782767
vn -0.8784229 0 -0.4778841
vn -0.8784229 0 -0.4778841
vn -0.8784229 0 -0.4778841
vn -0.8784229 0 -0.4778841
vn -0.4781929 0 0.8782548
vn -0.4781929 0 0.8782548
vn -0.4781929 0 0.8782548
vn -0.4781929 0 0.8782548
vn 0.4981226 0 -0.8671066
vn 0.4981226 0 -0.8671066
vn 0.4981226 0 -0.8671066
vn 0.4981226 0 -0.8671066
vn 0 -1 0
vn 0 -1 0
vn 0 -1 0
vn 0 -1 0
vn 0 -1 0
vn 0 -1 0
vn 0 -1 0
vn 0 -1 0
vn 0 -1 0
vn 0 -1 0
vn 0 -1 0
vn 0 -1 0
vn 0 -1 0

g CDNNDG01_0001570
f 1/1/1 3/3/3 4/4/4
f 1/1/1 2/2/2 3/3/3
f 5/5/5 6/6/6 7/7/7
f 8/8/8 9/9/9 10/10/10
f 11/11/11 12/12/12 13/13/13
f 14/14/14 15/15/15 16/16/16
f 17/17/17 18/18/18 19/19/19
f 20/20/20 21/21/21 22/22/22
f 23/23/23 24/24/24 25/25/25
f 26/26/26 27/27/27 28/28/28
f 29/29/29 30/30/30 31/31/31
f 32/32/32 34/34/34 35/35/35
f 34/34/34 32/32/32 33/33/33
f 36/36/36 37/37/37 38/38/38
f 39/39/39 40/40/40 41/41/41
f 42/42/42 43/43/43 44/44/44
f 45/45/45 46/46/46 47/47/47
f 48/48/48 49/49/49 50/50/50
f 51/51/51 52/52/52 53/53/53
f 54/54/54 55/55/55 56/56/56
f 59/59/59 57/57/57 58/58/58
f 57/57/57 59/59/59 60/60/60
f 61/61/61 62/62/62 63/63/63
f 64/64/64 66/66/66 67/67/67
f 66/66/66 64/64/64 65/65/65
f 71/71/71 68/68/68 70/70/70
f 70/70/70 68/68/68 69/69/69
f 72/72/72 73/73/73 74/74/74
f 75/75/75 76/76/76 77/77/77
f 78/78/78 79/79/79 80/80/80
f 81/81/81 82/82/82 83/83/83
f 84/84/84 85/85/85 86/86/86
f 87/87/87 89/89/89 90/90/90
f 87/87/87 88/88/88 89/89/89
f 91/91/91 92/92/92 93/93/93
f 94/94/94 96/96/96 97/97/97
f 96/96/96 94/94/94 95/95/95
f 99/99/99 100/100/100 101/101/101
f 98/98/98 99/99/99 101/101/101
f 102/102/102 104/104/104 105/105/105
f 102/102/102 103/103/103 104/104/104
f 106/106/106 107/107/107 108/108/108
f 109/109/109 106/106/106 108/108/108
f 113/113/113 110/110/110 112/112/112
f 112/112/112 110/110/110 111/111/111
f 117/117/117 114/114/114 116/116/116
f 115/115/115 116/116/116 114/114/114
f 127/127/127 129/129/129 130/130/130
f 127/127/127 128/128/128 129/129/129
f 118/118/118 119/119/119 121/121/121
f 121/121/121 127/127/127 130/130/130
f 119/119/119 120/120/120 121/121/121
f 122/122/122 126/126/126 127/127/127
f 118/118/118 121/121/121 130/130/130
f 125/125/125 122/122/122 123/123/123
f 121/121/121 122/122/122 127/127/127
f 122/122/122 125/125/125 126/126/126
f 123/123/123 124/124/124 125/125/125
