v -3.388379 6.850662 -2.178676
v 0.6946208 6.852869 6.413324
v -2.972379 6.850767 -1.913676
v -2.972379 6.850767 -1.913676
v 0.6946208 6.852869 6.413324
v 6.105621 6.851869 -2.082676
v -2.972379 6.850767 -1.913676
v 6.105621 6.851869 -2.082676
v -2.807556 6.850736 -2.172803
v -6.103379 6.850662 2.084324
v 0.6946208 6.852869 6.413324
v -3.388379 6.850662 -2.178676
v -2.985379 6.850662 -2.810676
v -2.577379 6.850736 -2.534676
v 6.105621 6.851869 -2.082676
v -2.807556 6.850736 -2.172803
v 6.105621 6.851869 -2.082676
v -2.577379 6.850736 -2.534676
v -2.985379 6.850662 -2.810676
v 6.105621 6.851869 -2.082676
v -0.6923791 6.850662 -6.411676
v -3.388379 8.064948 -2.178676
v -2.972379 8.064948 -1.913676
v -2.577379 8.064948 -2.534676
v -2.985379 8.064948 -2.810676
v -6.103379 6.850662 2.084324
v -3.388379 6.850662 -2.178676
v -3.388379 -6.857473 -2.178676
v -6.103379 -6.857473 2.084324
v -2.985379 6.850662 -2.810676
v -1.838879 -6.857473 -4.611176
v -2.985379 -6.857473 -2.810676
v -1.838879 -6.857473 -4.611176
v -0.6923791 6.850662 -6.411676
v -0.6923791 -6.857473 -6.411676
v -2.985379 6.850662 -2.810676
v -0.6923791 6.850662 -6.411676
v -1.838879 -6.857473 -4.611176
v -3.388379 6.850662 -2.178676
v -2.985379 6.850662 -2.810676
v -2.985379 -6.857473 -2.810676
v -3.388379 -6.857473 -2.178676
v -3.388379 8.064948 -2.178676
v -2.985379 8.064948 -2.810676
v -2.985379 6.850662 -2.810676
v -3.388379 6.850662 -2.178676
v -6.103379 -6.857473 2.084324
v 0.6946208 -6.857473 6.413324
v 0.6946208 6.852869 6.413324
v -6.103379 6.850662 2.084324
v 3.400121 -6.857473 2.165324
v 6.105621 -6.857473 -2.082676
v 6.105621 6.851869 -2.082676
v 0.6946208 6.852869 6.413324
v 0.6946208 -6.857473 6.413324
v 3.400121 -6.857473 2.165324
v 0.6946208 6.852869 6.413324
v 3.400121 -6.857473 2.165324
v 6.105621 6.851869 -2.082676
v -0.6923791 6.850662 -6.411676
v 2.706621 -6.857473 -4.247176
v -0.6923791 -6.857473 -6.411676
v 2.706621 -6.857473 -4.247176
v 6.105621 6.851869 -2.082676
v 6.105621 -6.857473 -2.082676
v -0.6923791 6.850662 -6.411676
v 6.105621 6.851869 -2.082676
v 2.706621 -6.857473 -4.247176
v -3.388379 6.850662 -2.178676
v -2.972379 6.850767 -1.913676
v -2.972379 8.064948 -1.913676
v -3.388379 8.064948 -2.178676
v -2.807556 6.850736 -2.172803
v -2.577379 6.850736 -2.534676
v -2.577379 8.064948 -2.534676
v -2.972379 8.064948 -1.913676
v -2.972379 6.850767 -1.913676
v -2.807556 6.850736 -2.172803
v -2.972379 8.064948 -1.913676
v -2.807556 6.850736 -2.172803
v -2.577379 8.064948 -2.534676
v -2.985379 8.064948 -2.810676
v -2.577379 8.064948 -2.534676
v -2.577379 6.850736 -2.534676
v -2.985379 6.850662 -2.810676
v -2.985379 -6.857473 -2.810676
v -1.838879 -6.857473 -4.611176
v -0.6923791 -6.857473 -6.411676
v 2.706621 -6.857473 -4.247176
v 6.105621 -6.857473 -2.082676
v 3.400121 -6.857473 2.165324
v 0.6946208 -6.857473 6.413324
v -6.103379 -6.857473 2.084324
v -3.388379 -6.857473 -2.178676
vt 0.387674 0.355735
vt 0.002551 0.203143
vt 0.375798 0.340226
vt 0.375798 0.340226
vt 0.002551 0.203143
vt 0.383446 0.002119
vt 0.375798 0.340226
vt 0.383446 0.002119
vt 0.387415 0.334103
vt 0.196568 0.456592
vt 0.002551 0.203143
vt 0.387674 0.355735
vt 0.416006 0.340764
vt 0.403638 0.325552
vt 0.383446 0.002119
vt 0.387415 0.334103
vt 0.383446 0.002119
vt 0.403638 0.325552
vt 0.416006 0.340764
vt 0.383446 0.002119
vt 0.577441 0.255581
vt 0.595382 0.784701
vt 0.584184 0.770136
vt 0.610439 0.756356
vt 0.622102 0.770642
vt 0.002551 0.956562
vt 0.193657 0.856109
vt 0.390438 0.900003
vt 0.202585 0.998743
vt 0.221989 0.841198
vt 0.497631 0.843649
vt 0.418288 0.885346
vt 0.497631 0.843649
vt 0.383424 0.756356
vt 0.576976 0.801951
vt 0.221989 0.841198
vt 0.383424 0.756356
vt 0.497631 0.843649
vt 0.193657 0.856109
vt 0.221989 0.841198
vt 0.418288 0.885346
vt 0.390438 0.900003
vt 0.175896 0.852147
vt 0.204272 0.837213
vt 0.221989 0.841198
vt 0.193657 0.856109
vt 0.215576 0.461864
vt 0.403477 0.706393
vt 0.193633 0.751177
vt 0.002551 0.502465
vt 0.810514 0.650223
vt 0.626789 0.747881
vt 0.410714 0.660525
vt 0.784414 0.461864
vt 0.994244 0.552561
vt 0.810514 0.650223
vt 0.784414 0.461864
vt 0.810514 0.650223
vt 0.410714 0.660525
vt 0.779466 0.344747
vt 0.873540 0.125701
vt 0.969505 0.249278
vt 0.873540 0.125701
vt 0.584184 0.093320
vt 0.777570 0.002119
vt 0.779466 0.344747
vt 0.584184 0.093320
vt 0.873540 0.125701
vt 0.729854 0.756356
vt 0.740720 0.770154
vt 0.722619 0.773632
vt 0.711735 0.759813
vt 0.694440 0.769576
vt 0.679294 0.777315
vt 0.660714 0.769658
vt 0.686745 0.756356
vt 0.705285 0.764033
vt 0.694440 0.769576
vt 0.686745 0.756356
vt 0.694440 0.769576
vt 0.660714 0.769658
vt 0.639049 0.778339
vt 0.627551 0.764403
vt 0.643620 0.756356
vt 0.655102 0.770270
vt 0.747449 0.756356
vt 0.747449 0.756356
vt 0.747449 0.756356
vt 0.747449 0.756356
vt 0.747449 0.756356
vt 0.747449 0.756356
vt 0.747449 0.756356
vt 0.747449 0.756356
vt 0.747449 0.756356
vn -0.0001251081 1 -0.0001973398
vn -0.0001251081 1 -0.0001973398
vn -0.0001251081 1 -0.0001973398
vn -0.000125085 1 -0.0001973499
vn -0.000125085 1 -0.0001973499
vn -0.000125085 1 -0.0001973499
vn -0.0001250856 1 -0.0001973821
vn -0.0001250856 1 -0.0001973821
vn -0.0001250856 1 -0.0001973821
vn -0.0002309086 0.9999999 -0.0001470624
vn -0.0002309086 0.9999999 -0.0001470624
vn -0.0002309086 0.9999999 -0.0001470624
vn -0.0001262696 1 -8.033332E-05
vn -0.0001262696 1 -8.033332E-05
vn -0.0001262696 1 -8.033332E-05
vn -0.0001262691 1 -8.034373E-05
vn -0.0001262691 1 -8.034373E-05
vn -0.0001262691 1 -8.034373E-05
vn -0.0001262621 1 -8.042739E-05
vn -0.0001262621 1 -8.042739E-05
vn -0.0001262621 1 -8.042739E-05
vn 0 1 0
vn 0 1 0
vn 0 1 0
vn 0 1 0
vn -0.8434659 0 -0.5371827
vn -0.8434659 0 -0.5371827
vn -0.8434659 0 -0.5371827
vn -0.8434659 0 -0.5371827
vn -0.8435071 0 -0.537118
vn -0.8435071 0 -0.537118
vn -0.8435071 0 -0.537118
vn -0.8435071 0 -0.537118
vn -0.8435071 0 -0.537118
vn -0.8435071 0 -0.537118
vn -0.8435071 1.790862E-12 -0.537118
vn -0.8435071 1.790862E-12 -0.537118
vn -0.8435071 1.790862E-12 -0.537118
vn -0.8431667 0 -0.5376522
vn -0.8431667 0 -0.5376522
vn -0.8431667 0 -0.5376522
vn -0.8431667 0 -0.5376522
vn -0.8431667 0 -0.5376522
vn -0.8431667 0 -0.5376522
vn -0.8431667 0 -0.5376522
vn -0.8431667 0 -0.5376522
vn -0.5371404 0 0.8434929
vn -0.5371404 0 0.8434929
vn -0.5371404 0 0.8434929
vn -0.5371404 0 0.8434929
vn 0.8434611 0 0.5371902
vn 0.8434611 0 0.5371902
vn 0.8434611 0 0.5371902
vn 0.8434611 0 0.5371902
vn 0.8434611 0 0.5371902
vn 0.8434611 0 0.5371902
vn 0.8434611 1.790529E-12 0.5371902
vn 0.8434611 1.790529E-12 0.5371902
vn 0.8434611 1.790529E-12 0.5371902
vn 0.5371404 0 -0.8434929
vn 0.5371404 0 -0.8434929
vn 0.5371404 0 -0.8434929
vn 0.5371404 0 -0.8434929
vn 0.5371404 0 -0.8434929
vn 0.5371404 0 -0.8434929
vn 0.5371404 -2.865194E-10 -0.8434929
vn 0.5371404 -2.865194E-10 -0.8434929
vn 0.5371404 -2.865194E-10 -0.8434929
vn -0.537269 0 0.843411
vn -0.537269 0 0.843411
vn -0.537269 0 0.843411
vn -0.537269 0 0.843411
vn 0.8437734 0 0.5366997
vn 0.8437734 0 0.5366997
vn 0.8437734 0 0.5366997
vn 0.8437734 0 0.5366997
vn 0.8437734 0 0.5366997
vn 0.8437734 0 0.5366997
vn 0.8437734 3.175282E-09 0.5366997
vn 0.8437734 3.175282E-09 0.5366997
vn 0.8437734 3.175282E-09 0.5366997
vn 0.5603094 0 -0.8282834
vn 0.5603094 0 -0.8282834
vn 0.5603094 0 -0.8282834
vn 0.5603094 0 -0.8282834
vn 0 -1 0
vn 0 -1 0
vn 0 -1 0
vn 0 -1 0
vn 0 -1 0
vn 0 -1 0
vn 0 -1 0
vn 0 -1 0
vn 0 -1 0

g CDNNDG02_0003050
f 1/1/1 2/2/2 3/3/3
f 4/4/4 5/5/5 6/6/6
f 7/7/7 8/8/8 9/9/9
f 10/10/10 11/11/11 12/12/12
f 13/13/13 14/14/14 15/15/15
f 16/16/16 17/17/17 18/18/18
f 19/19/19 20/20/20 21/21/21
f 22/22/22 24/24/24 25/25/25
f 22/22/22 23/23/23 24/24/24
f 29/29/29 27/27/27 28/28/28
f 29/29/29 26/26/26 27/27/27
f 30/30/30 31/31/31 32/32/32
f 33/33/33 34/34/34 35/35/35
f 36/36/36 37/37/37 38/38/38
f 39/39/39 41/41/41 42/42/42
f 39/39/39 40/40/40 41/41/41
f 46/46/46 43/43/43 45/45/45
f 45/45/45 43/43/43 44/44/44
f 50/50/50 47/47/47 48/48/48
f 49/49/49 50/50/50 48/48/48
f 51/51/51 52/52/52 53/53/53
f 54/54/54 55/55/55 56/56/56
f 57/57/57 58/58/58 59/59/59
f 60/60/60 61/61/61 62/62/62
f 63/63/63 64/64/64 65/65/65
f 66/66/66 67/67/67 68/68/68
f 70/70/70 71/71/71 72/72/72
f 69/69/69 70/70/70 72/72/72
f 73/73/73 74/74/74 75/75/75
f 76/76/76 77/77/77 78/78/78
f 79/79/79 80/80/80 81/81/81
f 82/82/82 84/84/84 85/85/85
f 82/82/82 83/83/83 84/84/84
f 93/93/93 94/94/94 91/91/91
f 86/86/86 87/87/87 89/89/89
f 94/94/94 86/86/86 91/91/91
f 87/87/87 88/88/88 89/89/89
f 92/92/92 93/93/93 91/91/91
f 91/91/91 86/86/86 89/89/89
f 89/89/89 90/90/90 91/91/91
