v -6.848946 5.226069 3.752687
v -0.1289463 5.226069 8.037686
v -6.569946 5.226069 3.315686
v -6.569946 5.226069 3.315686
v -0.1289463 5.226069 8.037686
v 6.645054 5.226069 -3.665313
v -0.1449463 5.226069 -7.811314
v -7.046947 5.226069 3.011687
v -6.569946 5.226069 3.315686
v -0.1449463 5.226069 -7.811314
v -0.1289463 5.226069 8.037686
v 7.135054 5.226069 -3.353313
v 6.645054 5.226069 -3.665313
v -0.1449463 5.226069 -7.811314
v 6.645054 5.226069 -3.665313
v -0.06194629 5.226069 -7.942314
v 6.645054 6.349069 -3.665313
v 7.135054 6.349069 -3.353313
v 7.140054 6.349069 -4.443314
v 7.135054 6.349069 -3.353313
v 7.646054 6.349069 -3.027313
v 8.141054 6.349069 -3.804313
v 7.135054 6.349069 -3.353313
v 8.141054 6.349069 -3.804313
v 7.140054 6.349069 -4.443314
v -6.848946 5.226069 3.752687
v -6.569946 5.226069 3.315686
v -6.569946 -5.237776 3.315686
v -6.848946 -5.237776 3.752687
v -3.488946 -5.237776 5.895186
v -0.1289463 -5.237776 8.037686
v -0.1289463 5.226069 8.037686
v -6.848946 5.226069 3.752687
v -6.848946 -5.237776 3.752687
v -3.488946 -5.237776 5.895186
v -6.848946 5.226069 3.752687
v -3.488946 -5.237776 5.895186
v -0.1289463 5.226069 8.037686
v 3.503054 -5.237776 2.342186
v 7.135054 -5.237776 -3.353313
v 7.135054 5.226069 -3.353313
v -0.1289463 5.226069 8.037686
v -0.1289463 -5.237776 8.037686
v 3.503054 -5.237776 2.342186
v -0.1289463 5.226069 8.037686
v 3.503054 -5.237776 2.342186
v 7.135054 5.226069 -3.353313
v -0.06194629 5.226069 -7.942314
v 6.645054 5.226069 -3.665313
v 6.645054 -5.237776 -3.665313
v -0.06194629 -5.237776 -7.942314
v -0.1449463 5.226069 -7.811314
v -0.06194629 5.226069 -7.942314
v -0.06194629 -5.237776 -7.942314
v -0.1449463 -5.237776 -7.811314
v -7.046947 5.226069 3.011687
v -0.1449463 5.226069 -7.811314
v -0.1449463 -5.237776 -7.811314
v -7.046947 -5.237776 3.011687
v -7.046947 -5.237776 3.011687
v -6.569946 -5.237776 3.315686
v -6.569946 5.226069 3.315686
v -7.046947 5.226069 3.011687
v 7.135054 -5.237776 -3.353313
v 7.646054 -5.237776 -3.027313
v 7.646054 6.349069 -3.027313
v 7.135054 5.226069 -3.353313
v 7.135054 6.349069 -3.353313
v 7.135054 5.226069 -3.353313
v 7.646054 6.349069 -3.027313
v 6.645054 5.226069 -3.665313
v 7.135054 5.226069 -3.353313
v 7.135054 6.349069 -3.353313
v 6.645054 6.349069 -3.665313
v 7.646054 -5.237776 -3.027313
v 8.141054 -5.237776 -3.804313
v 8.141054 6.349069 -3.804313
v 7.646054 6.349069 -3.027313
v 7.140054 6.349069 -4.443314
v 8.141054 6.349069 -3.804313
v 8.141054 -5.237776 -3.804313
v 7.140054 -5.237776 -4.443314
v 6.645054 6.349069 -3.665313
v 7.140054 6.349069 -4.443314
v 6.645054 5.226069 -3.665313
v 6.645054 5.226069 -3.665313
v 7.140054 6.349069 -4.443314
v 7.140054 -5.237776 -4.443314
v 6.645054 -5.237776 -3.665313
v -6.569946 -5.237776 3.315686
v -7.046947 -5.237776 3.011687
v -0.1449463 -5.237776 -7.811314
v -0.06194629 -5.237776 -7.942314
v 6.645054 -5.237776 -3.665313
v 7.140054 -5.237776 -4.443314
v 8.141054 -5.237776 -3.804313
v 7.646054 -5.237776 -3.027313
v 7.135054 -5.237776 -3.353313
v 3.503054 -5.237776 2.342186
v -0.1289463 -5.237776 8.037686
v -3.488946 -5.237776 5.895186
v -6.848946 -5.237776 3.752687
vt 0.159841 0.353082
vt 0.002114 0.184526
vt 0.175893 0.346051
vt 0.175893 0.346051
vt 0.002114 0.184526
vt 0.432045 0.013737
vt 0.584655 0.184075
vt 0.187082 0.358015
vt 0.175893 0.346051
vt 0.584655 0.184075
vt 0.002114 0.184526
vt 0.420561 0.001445
vt 0.432045 0.013737
vt 0.584655 0.184075
vt 0.432045 0.013737
vt 0.589468 0.181983
vt 0.853524 0.900555
vt 0.842444 0.888654
vt 0.881100 0.888475
vt 0.842444 0.888654
vt 0.830867 0.876242
vt 0.858407 0.864162
vt 0.842444 0.888654
vt 0.858407 0.864162
vt 0.881100 0.888475
vt 0.441695 0.871291
vt 0.457611 0.864162
vt 0.368773 0.947739
vt 0.353066 0.954774
vt 0.582496 0.531584
vt 0.503171 0.447822
vt 0.590717 0.361272
vt 0.751461 0.531014
vt 0.661818 0.615343
vt 0.582496 0.531584
vt 0.751461 0.531014
vt 0.582496 0.531584
vt 0.590717 0.361272
vt 0.210200 0.714637
vt 0.418294 0.630058
vt 0.505086 0.688574
vt 0.083520 0.859914
vt 0.002114 0.799213
vt 0.210200 0.714637
vt 0.083520 0.859914
vt 0.210200 0.714637
vt 0.505086 0.688574
vt 0.699965 0.630058
vt 0.849298 0.798649
vt 0.656946 0.853324
vt 0.509514 0.686888
vt 0.492885 0.363415
vt 0.497731 0.361272
vt 0.402051 0.447920
vt 0.397267 0.450035
vt 0.092494 0.541611
vt 0.492885 0.363415
vt 0.397267 0.450035
vt 0.002114 0.625898
vt 0.258476 0.959599
vt 0.247357 0.947817
vt 0.336123 0.864162
vt 0.347388 0.876100
vt 0.013800 0.999909
vt 0.002114 0.987839
vt 0.100440 0.972543
vt 0.102624 0.986273
vt 0.112295 0.984788
vt 0.102624 0.986273
vt 0.100440 0.972543
vt 0.113955 0.997998
vt 0.102624 0.986273
vt 0.112295 0.984788
vt 0.123641 0.996529
vt 0.701903 0.875546
vt 0.729936 0.864162
vt 0.825215 0.927902
vt 0.796779 0.939449
vt 0.675297 0.864162
vt 0.697577 0.889098
vt 0.484968 0.948579
vt 0.463002 0.923996
vt 0.242123 0.957162
vt 0.213759 0.969102
vt 0.221306 0.948032
vt 0.221306 0.948032
vt 0.213759 0.969102
vt 0.002114 0.875933
vt 0.030077 0.864162
vt 0.128964 0.972543
vt 0.128964 0.972543
vt 0.128964 0.972543
vt 0.128964 0.972543
vt 0.128964 0.972543
vt 0.128964 0.972543
vt 0.128964 0.972543
vt 0.128964 0.972543
vt 0.128964 0.972543
vt 0.128964 0.972543
vt 0.128964 0.972543
vt 0.128964 0.972543
vt 0.128964 0.972543
vn 0 1 0
vn 0 1 0
vn 0 1 0
vn 0 1 0
vn 0 1 0
vn 0 1 0
vn 0 1 0
vn 0 1 0
vn 0 1 0
vn 0 1 0
vn 0 1 0
vn 0 1 0
vn 0 1 0
vn 0 1 0
vn 0 1 0
vn 0 1 0
vn 0 1 0
vn 0 1 0
vn 0 1 0
vn 0 1 0
vn 0 1 0
vn 0 1 0
vn 0 1 0
vn 0 1 0
vn 0 1 0
vn -0.8428664 0 -0.538123
vn -0.8428664 0 -0.538123
vn -0.8428664 0 -0.538123
vn -0.8428664 0 -0.538123
vn -0.5376465 0 0.8431703
vn -0.5376465 0 0.8431703
vn -0.5376465 0 0.8431703
vn -0.5376465 0 0.8431703
vn -0.5376465 0 0.8431703
vn -0.5376465 0 0.8431703
vn -0.5376465 1.495406E-12 0.8431703
vn -0.5376465 1.495406E-12 0.8431703
vn -0.5376465 1.495406E-12 0.8431703
vn 0.8431521 0 0.5376751
vn 0.8431521 0 0.5376751
vn 0.8431521 0 0.5376751
vn 0.8431521 0 0.5376751
vn 0.8431521 0 0.5376751
vn 0.8431521 0 0.5376751
vn 0.8431521 0 0.5376751
vn 0.8431521 0 0.5376751
vn 0.8431521 0 0.5376751
vn 0.5376724 0 -0.8431538
vn 0.5376724 0 -0.8431538
vn 0.5376724 0 -0.8431538
vn 0.5376724 0 -0.8431538
vn -0.8447219 0 -0.5352055
vn -0.8447219 0 -0.5352055
vn -0.8447219 0 -0.5352055
vn -0.8447219 0 -0.5352055
vn -0.8431447 0 -0.5376868
vn -0.8431447 0 -0.5376868
vn -0.8431447 0 -0.5376868
vn -0.8431447 0 -0.5376868
vn -0.5374473 0 0.8432973
vn -0.5374473 0 0.8432973
vn -0.5374473 0 0.8432973
vn -0.5374473 0 0.8432973
vn -0.5378359 0 0.8430495
vn -0.5378359 0 0.8430495
vn -0.5378359 0 0.8430495
vn -0.5378359 0 0.8430495
vn -0.5378359 0 0.8430495
vn -0.5378359 0 0.8430495
vn -0.5378359 0 0.8430495
vn -0.5370982 0 0.8435197
vn -0.5370982 0 0.8435197
vn -0.5370982 0 0.8435197
vn -0.5370982 0 0.8435197
vn 0.8433932 0 0.5372968
vn 0.8433932 0 0.5372968
vn 0.8433932 0 0.5372968
vn 0.8433932 0 0.5372968
vn 0.5380737 0 -0.8428978
vn 0.5380737 0 -0.8428978
vn 0.5380737 0 -0.8428978
vn 0.5380737 0 -0.8428978
vn -0.8437061 0 -0.5368053
vn -0.8437061 0 -0.5368053
vn -0.8437061 0 -0.5368053
vn -0.8437061 0 -0.5368053
vn -0.8437061 0 -0.5368053
vn -0.8437061 0 -0.5368053
vn -0.8437061 0 -0.5368053
vn 0 -1 0
vn 0 -1 0
vn 0 -1 0
vn 0 -1 0
vn 0 -1 0
vn 0 -1 0
vn 0 -1 0
vn 0 -1 0
vn 0 -1 0
vn 0 -1 0
vn 0 -1 0
vn 0 -1 0
vn 0 -1 0

g CDNNDG02_0011710
f 1/1/1 2/2/2 3/3/3
f 4/4/4 6/6/6 7/7/7
f 4/4/4 5/5/5 6/6/6
f 8/8/8 9/9/9 10/10/10
f 11/11/11 12/12/12 13/13/13
f 14/14/14 15/15/15 16/16/16
f 17/17/17 18/18/18 19/19/19
f 20/20/20 21/21/21 22/22/22
f 23/23/23 24/24/24 25/25/25
f 26/26/26 28/28/28 29/29/29
f 26/26/26 27/27/27 28/28/28
f 30/30/30 31/31/31 32/32/32
f 33/33/33 34/34/34 35/35/35
f 36/36/36 37/37/37 38/38/38
f 39/39/39 40/40/40 41/41/41
f 42/42/42 43/43/43 44/44/44
f 45/45/45 46/46/46 47/47/47
f 51/51/51 48/48/48 50/50/50
f 49/49/49 50/50/50 48/48/48
f 52/52/52 53/53/53 54/54/54
f 55/55/55 52/52/52 54/54/54
f 56/56/56 58/58/58 59/59/59
f 56/56/56 57/57/57 58/58/58
f 60/60/60 62/62/62 63/63/63
f 62/62/62 60/60/60 61/61/61
f 67/67/67 64/64/64 65/65/65
f 66/66/66 67/67/67 65/65/65
f 68/68/68 69/69/69 70/70/70
f 71/71/71 73/73/73 74/74/74
f 73/73/73 71/71/71 72/72/72
f 76/76/76 77/77/77 75/75/75
f 75/75/75 77/77/77 78/78/78
f 81/81/81 79/79/79 80/80/80
f 79/79/79 81/81/81 82/82/82
f 83/83/83 84/84/84 85/85/85
f 86/86/86 88/88/88 89/89/89
f 88/88/88 86/86/86 87/87/87
f 90/90/90 101/101/101 102/102/102
f 99/99/99 100/100/100 101/101/101
f 90/90/90 99/99/99 101/101/101
f 90/90/90 91/91/91 92/92/92
f 90/90/90 92/92/92 99/99/99
f 92/92/92 93/93/93 94/94/94
f 92/92/92 94/94/94 99/99/99
f 94/94/94 98/98/98 99/99/99
f 94/94/94 95/95/95 98/98/98
f 96/96/96 97/97/97 98/98/98
f 95/95/95 96/96/96 98/98/98
