v -5.460177 4.934035 1.989694
v -3.467178 4.399035 6.696694
v -1.678178 5.013035 3.863694
v -7.017178 4.399035 4.454694
v -3.467178 4.399035 6.696694
v -5.460177 4.934035 1.989694
v -5.257713 5.003551 1.669922
v -1.678178 5.013035 3.863694
v -5.227178 5.014035 1.621694
v -5.460177 4.934035 1.989694
v -1.678178 5.013035 3.863694
v -5.257713 5.003551 1.669922
v -1.678178 5.060035 3.863694
v 1.520822 5.060035 5.883694
v 6.657823 5.060035 -1.812306
v -1.678178 5.060035 3.863694
v 6.657823 5.060035 -1.812306
v -0.1071776 5.060035 -6.483306
v -0.1071776 5.060035 -6.483306
v 6.657823 5.060035 -1.812306
v 6.844822 5.060035 -2.092306
v -5.227178 5.060035 1.621694
v -1.678178 5.060035 3.863694
v -0.1071776 5.060035 -6.483306
v -0.2801776 4.625035 -7.222306
v -0.1071776 5.060035 -6.483306
v 7.128865 4.625132 -2.543373
v -0.1071776 5.060035 -6.483306
v 6.953823 4.883802 -2.279306
v 7.128865 4.625132 -2.543373
v -0.1071776 5.060035 -6.483306
v 6.844822 5.060035 -2.092306
v 6.953823 4.883802 -2.279306
v -5.917178 4.630035 1.701694
v -5.227178 5.060035 1.621694
v -0.1071776 5.060035 -6.483306
v -5.917178 4.630035 1.701694
v -0.1071776 5.060035 -6.483306
v -0.2801776 4.625035 -7.222306
v -5.917178 4.630035 1.701694
v -5.460177 4.629035 1.989694
v -5.257713 5.003551 1.669922
v -5.917178 4.630035 1.701694
v -5.257713 5.003551 1.669922
v -5.227178 5.060035 1.621694
v -7.017178 4.399035 4.454694
v -5.460177 4.629035 1.989694
v -5.460177 -4.991647 1.989694
v -7.017178 -4.991647 4.454694
v -7.017178 4.399035 4.454694
v -5.460177 4.934035 1.989694
v -5.460177 4.629035 1.989694
v -5.460177 4.934035 1.989694
v -5.257713 5.003551 1.669922
v -5.460177 4.629035 1.989694
v -7.017178 -4.991647 4.454694
v -3.467178 -4.991647 6.696694
v -3.467178 4.399035 6.696694
v -7.017178 4.399035 4.454694
v -2.572678 -4.991647 5.280194
v -1.678178 -4.991647 3.863694
v -1.678178 5.013035 3.863694
v -3.467178 4.399035 6.696694
v -3.467178 -4.991647 6.696694
v -2.572678 -4.991647 5.280194
v -3.467178 4.399035 6.696694
v -2.572678 -4.991647 5.280194
v -1.678178 5.013035 3.863694
v -1.678178 -4.991647 3.863694
v 1.520822 -4.991647 5.883694
v 1.520822 5.060035 5.883694
v -1.678178 5.013035 3.863694
v -1.678178 5.060035 3.863694
v -1.678178 5.013035 3.863694
v 1.520822 5.060035 5.883694
v -5.227178 5.014035 1.621694
v -1.678178 5.013035 3.863694
v -1.678178 5.060035 3.863694
v -5.227178 5.060035 1.621694
v 1.520822 -4.991647 5.883694
v 6.657823 -4.991647 -1.812306
v 6.657823 5.060035 -1.812306
v 1.520822 5.060035 5.883694
v 6.657823 -4.991647 -1.812306
v 6.844822 -4.991647 -2.092306
v 6.844822 5.060035 -2.092306
v 6.657823 5.060035 -1.812306
v 6.844822 -4.991647 -2.092306
v 6.953823 -4.991647 -2.279306
v 6.953823 4.883802 -2.279306
v 6.844822 5.060035 -2.092306
v 6.953823 -4.991647 -2.279306
v 7.128865 -4.991647 -2.543373
v 7.128865 4.625132 -2.543373
v 6.953823 4.883802 -2.279306
v -0.2801776 4.625035 -7.222306
v 3.424344 -4.991647 -4.88284
v -0.2801776 -4.991647 -7.222306
v 3.424344 -4.991647 -4.88284
v 7.128865 4.625132 -2.543373
v 7.128865 -4.991647 -2.543373
v -0.2801776 4.625035 -7.222306
v 7.128865 4.625132 -2.543373
v 3.424344 -4.991647 -4.88284
v -5.917178 4.630035 1.701694
v -0.2801776 4.625035 -7.222306
v -0.2801776 -4.991647 -7.222306
v -5.917178 -4.991647 1.701694
v -5.688678 -4.991647 1.845694
v -5.460177 -4.991647 1.989694
v -5.460177 4.629035 1.989694
v -5.917178 4.630035 1.701694
v -5.917178 -4.991647 1.701694
v -5.688678 -4.991647 1.845694
v -5.917178 4.630035 1.701694
v -5.688678 -4.991647 1.845694
v -5.460177 4.629035 1.989694
v -5.257713 5.003551 1.669922
v -5.227178 5.014035 1.621694
v -5.227178 5.060035 1.621694
v -7.017178 -4.991647 4.454694
v -5.460177 -4.991647 1.989694
v -5.688678 -4.991647 1.845694
v -5.917178 -4.991647 1.701694
v -0.2801776 -4.991647 -7.222306
v 3.424344 -4.991647 -4.88284
v 7.128865 -4.991647 -2.543373
v 6.953823 -4.991647 -2.279306
v 6.844822 -4.991647 -2.092306
v 6.657823 -4.991647 -1.812306
v 1.520822 -4.991647 5.883694
v -1.678178 -4.991647 3.863694
v -2.572678 -4.991647 5.280194
v -3.467178 -4.991647 6.696694
vt 0.464249 0.827453
vt 0.686064 0.901669
vt 0.553365 0.973257
vt 0.579763 0.765237
vt 0.686064 0.901669
vt 0.464249 0.827453
vt 0.449253 0.835550
vt 0.553365 0.973257
vt 0.446991 0.836771
vt 0.464249 0.827453
vt 0.553365 0.973257
vt 0.449253 0.835550
vt 0.509795 0.139382
vt 0.608231 0.262980
vt 0.230589 0.460536
vt 0.509795 0.139382
vt 0.230589 0.460536
vt 0.002865 0.199141
vt 0.002865 0.199141
vt 0.230589 0.460536
vt 0.216850 0.467727
vt 0.400538 0.002257
vt 0.509795 0.139382
vt 0.002865 0.199141
vt 0.002865 0.474041
vt 0.042507 0.479537
vt 0.229292 0.759267
vt 0.042507 0.479537
vt 0.244441 0.751924
vt 0.229292 0.759267
vt 0.042507 0.479537
vt 0.255111 0.747313
vt 0.244441 0.751924
vt 0.440866 0.765237
vt 0.440399 0.794745
vt 0.042424 0.986524
vt 0.440866 0.765237
vt 0.042424 0.986524
vt 0.002865 0.976233
vt 0.902955 0.765237
vt 0.914005 0.781719
vt 0.904077 0.791446
vt 0.902955 0.765237
vt 0.904077 0.791446
vt 0.902579 0.792914
vt 0.896345 0.833194
vt 0.778353 0.892825
vt 0.693410 0.822510
vt 0.812090 0.765237
vt 0.896345 0.833194
vt 0.781079 0.895081
vt 0.778353 0.892825
vt 0.781079 0.895081
vt 0.766116 0.903134
vt 0.778353 0.892825
vt 0.948424 0.765237
vt 0.948424 0.765237
vt 0.948424 0.765237
vt 0.948424 0.765237
vt 0.962751 0.765237
vt 0.962751 0.765237
vt 0.962751 0.765237
vt 0.962751 0.765237
vt 0.962751 0.765237
vt 0.962751 0.765237
vt 0.962751 0.765237
vt 0.962751 0.765237
vt 0.962751 0.765237
vt 0.934097 0.765237
vt 0.934097 0.765237
vt 0.934097 0.765237
vt 0.934097 0.765237
vt 0.934097 0.765237
vt 0.934097 0.765237
vt 0.934097 0.765237
vt 0.934097 0.765237
vt 0.934097 0.765237
vt 0.934097 0.765237
vt 0.934097 0.765237
vt 0.919771 0.765237
vt 0.919771 0.765237
vt 0.919771 0.765237
vt 0.919771 0.765237
vt 0.919771 0.765237
vt 0.919771 0.765237
vt 0.919771 0.765237
vt 0.919771 0.765237
vt 0.919771 0.765237
vt 0.919771 0.765237
vt 0.919771 0.765237
vt 0.919771 0.765237
vt 0.919771 0.765237
vt 0.919771 0.765237
vt 0.919771 0.765237
vt 0.919771 0.765237
vt 0.697263 0.002257
vt 0.728158 0.169934
vt 0.616046 0.028904
vt 0.728158 0.169934
vt 0.924133 0.287647
vt 0.840267 0.310959
vt 0.697263 0.002257
vt 0.924133 0.287647
vt 0.728158 0.169934
vt 0.782430 0.544725
vt 0.343975 0.756160
vt 0.263610 0.683054
vt 0.696912 0.474041
vt 0.977077 0.765237
vt 0.977077 0.765237
vt 0.977077 0.765237
vt 0.977077 0.765237
vt 0.977077 0.765237
vt 0.977077 0.765237
vt 0.977077 0.765237
vt 0.977077 0.765237
vt 0.977077 0.765237
vt 0.002865 0.993228
vt 0.002865 0.993228
vt 0.002865 0.993228
vt 0.017192 0.993228
vt 0.017192 0.993228
vt 0.017192 0.993228
vt 0.017192 0.993228
vt 0.017192 0.993228
vt 0.017192 0.993228
vt 0.017192 0.993228
vt 0.017192 0.993228
vt 0.017192 0.993228
vt 0.017192 0.993228
vt 0.017192 0.993228
vt 0.017192 0.993228
vt 0.017192 0.993228
vt 0.017192 0.993228
vn -0.0961066 0.9836208 0.1524915
vn -0.0961066 0.9836208 0.1524915
vn -0.0961066 0.9836208 0.1524915
vn -0.09637444 0.9835777 0.1526
vn -0.09637444 0.9835777 0.1526
vn -0.09637444 0.9835777 0.1526
vn -0.09628385 0.9835474 0.1528523
vn -0.09628385 0.9835474 0.1528523
vn -0.09628385 0.9835474 0.1528523
vn -0.09628385 0.9835474 0.1528523
vn -0.09628385 0.9835474 0.1528523
vn -0.09628385 0.9835474 0.1528523
vn 0 1 0
vn 0 1 0
vn 0 1 0
vn 0 1 0
vn 0 1 0
vn 0 1 0
vn 0 1 0
vn 0 1 0
vn 0 1 0
vn 0 1 0
vn 0 1 0
vn 0 1 0
vn 0.3378087 0.7744238 -0.5349327
vn 0.3378087 0.7744238 -0.5349327
vn 0.3378087 0.7744238 -0.5349327
vn 0.3377511 0.7745302 -0.5348151
vn 0.3377511 0.7745302 -0.5348151
vn 0.3377511 0.7745302 -0.5348151
vn 0.3372995 0.7752715 -0.5340255
vn 0.3372995 0.7752715 -0.5340255
vn 0.3372995 0.7752715 -0.5340255
vn -0.5262725 0.7826325 -0.332451
vn -0.5262725 0.7826325 -0.332451
vn -0.5262725 0.7826325 -0.332451
vn -0.5294451 0.7794549 -0.33487
vn -0.5294451 0.7794549 -0.33487
vn -0.5294451 0.7794549 -0.33487
vn -0.3738972 0.7108155 0.5957702
vn -0.3738972 0.7108155 0.5957702
vn -0.3738972 0.7108155 0.5957702
vn -0.3738972 0.7108155 0.5957702
vn -0.3738972 0.7108155 0.5957702
vn -0.3738972 0.7108155 0.5957702
vn -0.8454645 0 -0.5340317
vn -0.8454645 0 -0.5340317
vn -0.8454645 0 -0.5340317
vn -0.8454645 0 -0.5340317
vn -0.8454645 0 -0.5340317
vn -0.8454645 0 -0.5340317
vn -0.8454645 0 -0.5340317
vn -0.8448883 0 -0.5349429
vn -0.8448883 0 -0.5349429
vn -0.8448883 0 -0.5349429
vn -0.5339751 0 0.8455002
vn -0.5339751 0 0.8455002
vn -0.5339751 0 0.8455002
vn -0.5339751 0 0.8455002
vn 0.8455244 0 0.5339369
vn 0.8455244 0 0.5339369
vn 0.8455244 0 0.5339369
vn 0.8455244 0 0.5339369
vn 0.8455244 0 0.5339369
vn 0.8455244 0 0.5339369
vn 0.8455244 0 0.5339369
vn 0.8455244 0 0.5339369
vn 0.8455244 0 0.5339369
vn -0.5339134 0 0.8455392
vn -0.5339134 0 0.8455392
vn -0.5339134 0 0.8455392
vn -0.5339134 0 0.8455392
vn -0.5339134 0 0.8455392
vn -0.5339134 0 0.8455392
vn -0.5339134 0 0.8455392
vn -0.5340826 0 0.8454323
vn -0.5340826 0 0.8454323
vn -0.5340826 0 0.8454323
vn -0.5340826 0 0.8454323
vn 0.8317342 0 0.555174
vn 0.8317342 0 0.555174
vn 0.8317342 0 0.555174
vn 0.8317342 0 0.555174
vn 0.8315931 0 0.5553854
vn 0.8315931 0 0.5553854
vn 0.8315931 0 0.5553854
vn 0.8315931 0 0.5553854
vn 0.8639464 0 0.5035837
vn 0.8639464 0 0.5035837
vn 0.8639464 0 0.5035837
vn 0.8639464 0 0.5035837
vn 0.8335077 0 0.5525079
vn 0.8335077 0 0.5525079
vn 0.8335077 0 0.5525079
vn 0.8335077 0 0.5525079
vn 0.5339553 0 -0.8455127
vn 0.5339553 0 -0.8455127
vn 0.5339553 0 -0.8455127
vn 0.5339553 0 -0.8455127
vn 0.5339553 0 -0.8455127
vn 0.5339553 0 -0.8455127
vn 0.5339553 -3.172687E-10 -0.8455127
vn 0.5339553 -3.172687E-10 -0.8455127
vn 0.5339553 -3.172687E-10 -0.8455127
vn -0.8454551 0 -0.5340465
vn -0.8454551 0 -0.5340465
vn -0.8454551 0 -0.5340465
vn -0.8454551 0 -0.5340465
vn -0.5331569 0 0.8460163
vn -0.5331569 0 0.8460163
vn -0.5331569 0 0.8460163
vn -0.5331569 0 0.8460163
vn -0.5331569 0 0.8460163
vn -0.5331569 0 0.8460163
vn -0.5331569 -4.255963E-11 0.8460163
vn -0.5331569 -4.255963E-11 0.8460163
vn -0.5331569 -4.255963E-11 0.8460163
vn 0.8448883 0 0.5349428
vn 0.8448883 0 0.5349428
vn 0.8448883 0 0.5349428
vn 0 -1 0
vn 0 -1 0
vn 0 -1 0
vn 0 -1 0
vn 0 -1 0
vn 0 -1 0
vn 0 -1 0
vn 0 -1 0
vn 0 -1 0
vn 0 -1 0
vn 0 -1 0
vn 0 -1 0
vn 0 -1 0
vn 0 -1 0

g CDNNDG02_0010160
f 1/1/1 2/2/2 3/3/3
f 4/4/4 5/5/5 6/6/6
f 7/7/7 8/8/8 9/9/9
f 10/10/10 11/11/11 12/12/12
f 13/13/13 14/14/14 15/15/15
f 16/16/16 17/17/17 18/18/18
f 19/19/19 20/20/20 21/21/21
f 22/22/22 23/23/23 24/24/24
f 25/25/25 26/26/26 27/27/27
f 28/28/28 29/29/29 30/30/30
f 31/31/31 32/32/32 33/33/33
f 34/34/34 35/35/35 36/36/36
f 37/37/37 38/38/38 39/39/39
f 40/40/40 41/41/41 42/42/42
f 43/43/43 44/44/44 45/45/45
f 49/49/49 46/46/46 48/48/48
f 48/48/48 46/46/46 47/47/47
f 50/50/50 51/51/51 52/52/52
f 53/53/53 54/54/54 55/55/55
f 59/59/59 56/56/56 58/58/58
f 58/58/58 56/56/56 57/57/57
f 60/60/60 61/61/61 62/62/62
f 63/63/63 64/64/64 65/65/65
f 66/66/66 67/67/67 68/68/68
f 72/72/72 69/69/69 70/70/70
f 71/71/71 72/72/72 70/70/70
f 73/73/73 74/74/74 75/75/75
f 79/79/79 76/76/76 78/78/78
f 78/78/78 76/76/76 77/77/77
f 83/83/83 80/80/80 82/82/82
f 81/81/81 82/82/82 80/80/80
f 85/85/85 86/86/86 84/84/84
f 84/84/84 86/86/86 87/87/87
f 88/88/88 90/90/90 91/91/91
f 88/88/88 89/89/89 90/90/90
f 93/93/93 94/94/94 92/92/92
f 92/92/92 94/94/94 95/95/95
f 96/96/96 97/97/97 98/98/98
f 99/99/99 100/100/100 101/101/101
f 102/102/102 103/103/103 104/104/104
f 106/106/106 107/107/107 108/108/108
f 105/105/105 106/106/106 108/108/108
f 109/109/109 110/110/110 111/111/111
f 112/112/112 113/113/113 114/114/114
f 115/115/115 116/116/116 117/117/117
f 118/118/118 119/119/119 120/120/120
f 134/134/134 121/121/121 133/133/133
f 127/127/127 128/128/128 126/126/126
f 133/133/133 121/121/121 122/122/122
f 128/128/128 129/129/129 126/126/126
f 123/123/123 125/125/125 122/122/122
f 124/124/124 125/125/125 123/123/123
f 132/132/132 122/122/122 125/125/125
f 132/132/132 126/126/126 130/130/130
f 132/132/132 133/133/133 122/122/122
f 126/126/126 132/132/132 125/125/125
f 132/132/132 130/130/130 131/131/131
f 126/126/126 129/129/129 130/130/130
