v -3.358111 3.451687 -3.220447
v -4.524111 3.451687 -1.087447
v 4.523889 3.451687 1.087554
v 3.358889 3.451687 3.220553
v -4.524111 -3.451687 -1.087447
v 3.358889 3.451687 3.220553
v -4.524111 3.451687 -1.087447
v 3.358889 -3.451687 3.220553
v 3.358889 -3.451687 3.220553
v 4.523889 3.451687 1.087554
v 3.358889 3.451687 3.220553
v 4.523889 -3.451687 1.087554
v -3.358111 -3.451687 -3.220447
v -3.358111 3.451687 -3.220447
v 4.523889 3.451687 1.087554
v 4.523889 -3.451687 1.087554
v -4.524111 3.451687 -1.087447
v -3.358111 -3.451687 -3.220447
v -4.524111 -3.451687 -1.087447
v -3.358111 3.451687 -3.220447
v -4.524111 -3.451687 -1.087447
v -3.358111 -3.451687 -3.220447
v 4.523889 -3.451687 1.087554
v 3.358889 -3.451687 3.220553
vt 0.858372 0.779973
vt 0.871201 0.774194
vt 0.885337 0.817450
vt 0.898166 0.811677
vt 0.605235 0.994624
vt 0.605235 0.994624
vt 0.605235 0.994624
vt 0.605235 0.994624
vt 0.594260 0.976300
vt 0.588370 0.975621
vt 0.601166 0.970006
vt 0.581570 0.981869
vt 0.675152 0.780866
vt 0.681778 0.774194
vt 0.708364 0.811956
vt 0.701515 0.818311
vt 0.215231 0.962859
vt 0.196128 0.957511
vt 0.208720 0.951896
vt 0.202533 0.968521
vt 0.669416 0.994624
vt 0.669416 0.994624
vt 0.669416 0.994624
vt 0.669416 0.994624
vn 0 1 0
vn 0 1 0
vn 0 1 0
vn 0 1 0
vn -0.4795539 0 0.8775124
vn -0.4795539 0 0.8775124
vn -0.4795539 0 0.8775124
vn -0.4795539 0 0.8775124
vn 0.8776281 0 0.4793421
vn 0.8776281 0 0.4793421
vn 0.8776281 0 0.4793421
vn 0.8776281 0 0.4793421
vn 0.4796008 0 -0.8774868
vn 0.4796008 0 -0.8774868
vn 0.4796008 0 -0.8774868
vn 0.4796008 0 -0.8774868
vn -0.877455 0 -0.479659
vn -0.877455 0 -0.479659
vn -0.877455 0 -0.479659
vn -0.877455 0 -0.479659
vn 0 -1 0
vn 0 -1 0
vn 0 -1 0
vn 0 -1 0

g CDNNDG01_0004570
f 1/1/1 2/2/2 3/3/3
f 3/3/3 2/2/2 4/4/4
f 5/5/5 6/6/6 7/7/7
f 6/6/6 5/5/5 8/8/8
f 9/9/9 10/10/10 11/11/11
f 9/9/9 12/12/12 10/10/10
f 13/13/13 14/14/14 15/15/15
f 15/15/15 16/16/16 13/13/13
f 17/17/17 18/18/18 19/19/19
f 17/17/17 20/20/20 18/18/18
f 21/21/21 22/22/22 23/23/23
f 21/21/21 23/23/23 24/24/24
