v 4.386465 7.33698 -9.314301
v 8.041465 7.33698 -6.249302
v 8.364465 7.33698 -6.750302
v 1.185465 7.33698 -2.622302
v 1.875465 7.33698 -5.835302
v 1.364663 7.33698 -6.144686
v 1.185465 7.33698 -2.622302
v 8.041465 7.33698 -6.249302
v 1.875465 7.33698 -5.835302
v 1.875465 7.33698 -5.835302
v 8.041465 7.33698 -6.249302
v 2.069617 7.33698 -6.155732
v -7.642535 7.33698 4.668698
v -1.315535 7.33698 -0.8583017
v -3.669535 7.33698 -2.816302
v -8.046535 7.33698 4.327698
v -0.06453515 7.33698 2.745698
v 1.094465 7.33698 3.512698
v 8.041465 7.33698 -6.249302
v -0.06453515 7.33698 2.745698
v 8.041465 7.33698 -6.249302
v 0.09246485 7.33698 -0.9263017
v -1.545535 7.33698 8.622698
v 8.041465 7.33698 -6.249302
v 1.094465 7.33698 3.512698
v -1.545535 7.33698 8.622698
v 1.094465 7.33698 3.512698
v 0.3514648 7.33698 4.636698
v -0.7028297 7.33698 3.710004
v -0.06453515 7.33698 2.745698
v 0.09246485 7.33698 -0.9263017
v -1.545535 7.33698 8.622698
v 0.3514648 7.33698 4.636698
v -0.7382006 7.33698 3.916204
v -0.2915351 7.33698 -3.575302
v 1.185465 7.33698 -2.622302
v 1.364663 7.33698 -6.144686
v 0.09246485 7.33698 -0.9263017
v 8.041465 7.33698 -6.249302
v 1.185465 7.33698 -2.622302
v -7.642535 7.33698 4.668698
v -7.254535 7.33698 5.855698
v -6.049535 7.33698 6.570698
v -7.642535 7.33698 4.668698
v -6.049535 7.33698 6.570698
v -4.766535 7.33698 6.508698
v -7.642535 7.33698 4.668698
v -4.766535 7.33698 6.508698
v -1.315535 7.33698 -0.8583017
v 1.622206 7.33698 -6.544233
v 2.121465 7.33698 -6.241302
v 8.041465 7.33698 -6.249302
v 2.069617 7.33698 -6.155732
v 8.041465 7.33698 -6.249302
v 2.121465 7.33698 -6.241302
v -4.766535 7.33698 6.508698
v -1.545535 7.33698 8.622698
v -1.315535 7.33698 -0.8583017
v -1.545535 7.33698 8.622698
v -0.7382006 7.33698 3.916204
v -0.8085352 7.33698 3.869698
v -1.545535 7.33698 8.622698
v -0.8085352 7.33698 3.869698
v -1.315535 7.33698 -0.8583017
v -1.315535 7.33698 -0.8583017
v -0.8085352 7.33698 3.869698
v 0.09246485 7.33698 -0.9263017
v -0.8085352 7.33698 3.869698
v -0.7028297 7.33698 3.710004
v 0.09246485 7.33698 -0.9263017
v 3.562465 7.33698 -8.037302
v 8.041465 7.33698 -6.249302
v 4.386465 7.33698 -9.314301
v 1.622206 7.33698 -6.544233
v 3.562465 7.33698 -8.037302
v 2.871465 7.33698 -8.482302
v 1.622206 7.33698 -6.544233
v 8.041465 7.33698 -6.249302
v 3.562465 7.33698 -8.037302
v -0.06453515 7.69598 2.745698
v 0.1664649 8.34498 3.702698
v 1.094465 7.69598 3.512698
v 0.1664649 8.34498 3.702698
v 0.3514648 7.69498 4.636698
v 1.094465 7.69598 3.512698
v -0.8085352 7.69598 3.869698
v 0.1664649 8.34498 3.702698
v -0.06453515 7.69598 2.745698
v -0.8085352 7.69598 3.869698
v 0.3514648 7.69498 4.636698
v 0.1664649 8.34498 3.702698
v 1.364663 8.069887 -6.144686
v 1.622206 8.069757 -6.544233
v 1.559465 8.06998 -6.582302
v 1.312465 8.06998 -6.176301
v 1.364663 8.069887 -6.144686
v 1.559465 8.06998 -6.582302
v 1.622206 8.069757 -6.544233
v 1.875465 8.06898 -5.835302
v 2.121465 8.06798 -6.241302
v 1.364663 8.069887 -6.144686
v 1.875465 8.06898 -5.835302
v 1.622206 8.069757 -6.544233
v -3.669535 7.33698 -2.816302
v -1.315535 7.33698 -0.8583017
v -1.315535 -7.348628 -0.8583017
v -3.669535 -7.348628 -2.816302
v -8.046535 7.33698 4.327698
v -3.669535 7.33698 -2.816302
v -3.669535 -7.348628 -2.816302
v -8.046535 -7.348628 4.327698
v -8.046535 -7.348628 4.327698
v -7.642535 -7.348628 4.668698
v -7.642535 7.33698 4.668698
v -8.046535 7.33698 4.327698
v -7.642535 -7.348628 4.668698
v -7.254535 -7.348628 5.855698
v -7.254535 7.33698 5.855698
v -7.642535 7.33698 4.668698
v -7.254535 -7.348628 5.855698
v -6.049535 -7.348628 6.570698
v -6.049535 7.33698 6.570698
v -7.254535 7.33698 5.855698
v -6.049535 -7.348628 6.570698
v -4.766535 -7.348628 6.508698
v -4.766535 7.33698 6.508698
v -6.049535 7.33698 6.570698
v -4.766535 -7.348628 6.508698
v -1.545535 -7.348628 8.622698
v -1.545535 7.33698 8.622698
v -4.766535 7.33698 6.508698
v -1.545535 -7.348628 8.622698
v 8.041465 -7.348628 -6.249302
v 8.041465 7.33698 -6.249302
v -1.545535 7.33698 8.622698
v 8.041465 -7.348628 -6.249302
v 8.364465 -7.348628 -6.750302
v 8.364465 7.33698 -6.750302
v 8.041465 7.33698 -6.249302
v 4.386465 7.33698 -9.314301
v 6.375465 -7.348628 -8.032302
v 4.386465 -7.348628 -9.314301
v 6.375465 -7.348628 -8.032302
v 8.364465 7.33698 -6.750302
v 8.364465 -7.348628 -6.750302
v 4.386465 7.33698 -9.314301
v 8.364465 7.33698 -6.750302
v 6.375465 -7.348628 -8.032302
v 3.562465 7.33698 -8.037302
v 4.386465 7.33698 -9.314301
v 4.386465 -7.348628 -9.314301
v 3.562465 -7.348628 -8.037302
v 2.871465 7.33698 -8.482302
v 3.562465 7.33698 -8.037302
v 3.562465 -7.348628 -8.037302
v 2.871465 -7.348628 -8.482302
v 1.622206 7.33698 -6.544233
v 2.871465 7.33698 -8.482302
v 2.871465 -7.348628 -8.482302
v 1.622206 -7.348628 -6.544233
v -0.2915351 7.33698 -3.575302
v 1.364663 7.33698 -6.144686
v 1.364663 -7.348628 -6.144686
v -0.2915351 -7.348628 -3.575302
v -0.2915351 -7.348628 -3.575302
v 1.185465 -7.348628 -2.622302
v 1.185465 7.33698 -2.622302
v -0.2915351 7.33698 -3.575302
v 0.09246485 7.33698 -0.9263017
v 1.185465 7.33698 -2.622302
v 1.185465 -7.348628 -2.622302
v 0.09246485 -7.348628 -0.9263017
v -1.315535 7.33698 -0.8583017
v 0.09246485 7.33698 -0.9263017
v 0.09246485 -7.348628 -0.9263017
v -1.315535 -7.348628 -0.8583017
v -0.06453515 7.69598 2.745698
v 1.094465 7.69598 3.512698
v 1.094465 7.33698 3.512698
v -0.06453515 7.33698 2.745698
v 0.3514648 7.33698 4.636698
v 1.094465 7.33698 3.512698
v 1.094465 7.69598 3.512698
v 0.3514648 7.69498 4.636698
v -0.8085352 7.69598 3.869698
v -0.7028297 7.33698 3.710004
v -0.8085352 7.33698 3.869698
v -0.8085352 7.69598 3.869698
v -0.06453515 7.69598 2.745698
v -0.06453515 7.33698 2.745698
v -0.7028297 7.33698 3.710004
v -0.7382006 7.33698 3.916204
v 0.3514648 7.33698 4.636698
v 0.3514648 7.69498 4.636698
v -0.8085352 7.69598 3.869698
v -0.8085352 7.33698 3.869698
v -0.7382006 7.33698 3.916204
v -0.8085352 7.69598 3.869698
v -0.7382006 7.33698 3.916204
v 0.3514648 7.69498 4.636698
v 1.312465 8.06998 -6.176301
v 1.364663 7.33698 -6.144686
v 1.364663 8.069887 -6.144686
v 1.312465 -7.348628 -6.176301
v 1.364663 -7.348628 -6.144686
v 1.364663 7.33698 -6.144686
v 1.312465 8.06998 -6.176301
v 1.364663 7.33698 -6.144686
v 1.875465 7.33698 -5.835302
v 1.875465 8.06898 -5.835302
v 1.364663 8.069887 -6.144686
v 1.559465 8.06998 -6.582302
v 1.622206 7.33698 -6.544233
v 1.622206 -7.348628 -6.544233
v 1.559465 -7.348628 -6.582302
v 1.559465 8.06998 -6.582302
v 1.622206 8.069757 -6.544233
v 1.622206 7.33698 -6.544233
v 1.622206 8.069757 -6.544233
v 2.121465 8.06798 -6.241302
v 2.121465 7.33698 -6.241302
v 1.622206 7.33698 -6.544233
v 1.312465 8.06998 -6.176301
v 1.559465 8.06998 -6.582302
v 1.559465 -7.348628 -6.582302
v 1.312465 -7.348628 -6.176301
v 2.069617 7.33698 -6.155732
v 2.121465 7.33698 -6.241302
v 2.121465 8.06798 -6.241302
v 1.875465 8.06898 -5.835302
v 1.875465 7.33698 -5.835302
v 2.069617 7.33698 -6.155732
v 1.875465 8.06898 -5.835302
v 2.069617 7.33698 -6.155732
v 2.121465 8.06798 -6.241302
v 1.185465 -7.348628 -2.622302
v -0.2915351 -7.348628 -3.575302
v 1.364663 -7.348628 -6.144686
v 1.312465 -7.348628 -6.176301
v 1.559465 -7.348628 -6.582302
v 1.622206 -7.348628 -6.544233
v 2.871465 -7.348628 -8.482302
v 3.562465 -7.348628 -8.037302
v 4.386465 -7.348628 -9.314301
v 6.375465 -7.348628 -8.032302
v 8.364465 -7.348628 -6.750302
v 8.041465 -7.348628 -6.249302
v -1.545535 -7.348628 8.622698
v -4.766535 -7.348628 6.508698
v -6.049535 -7.348628 6.570698
v -7.254535 -7.348628 5.855698
v -7.642535 -7.348628 4.668698
v -8.046535 -7.348628 4.327698
v -3.669535 -7.348628 -2.816302
v -1.315535 -7.348628 -0.8583017
v 0.09246485 -7.348628 -0.9263017
vt 0.538851 0.082235
vt 0.446213 0.007806
vt 0.461188 0.001156
vt 0.338620 0.148299
vt 0.434908 0.133892
vt 0.444285 0.144304
vt 0.338620 0.148299
vt 0.446213 0.007806
vt 0.434908 0.133892
vt 0.434908 0.133892
vt 0.446213 0.007806
vt 0.444489 0.129893
vt 0.121460 0.329426
vt 0.286144 0.199587
vt 0.345326 0.247519
vt 0.131766 0.337652
vt 0.177772 0.174355
vt 0.154544 0.150736
vt 0.446213 0.007806
vt 0.177772 0.174355
vt 0.446213 0.007806
vt 0.287928 0.170800
vt 0.001698 0.205179
vt 0.446213 0.007806
vt 0.154544 0.150736
vt 0.001698 0.205179
vt 0.154544 0.150736
vt 0.120953 0.166029
vt 0.148953 0.187492
vt 0.177772 0.174355
vt 0.287928 0.170800
vt 0.001698 0.205179
vt 0.120953 0.166029
vt 0.142772 0.188235
vt 0.367486 0.178400
vt 0.338620 0.148299
vt 0.444285 0.144304
vt 0.287928 0.170800
vt 0.446213 0.007806
vt 0.338620 0.148299
vt 0.121460 0.329426
vt 0.085773 0.321608
vt 0.064098 0.297046
vt 0.121460 0.329426
vt 0.064098 0.297046
vt 0.065723 0.270817
vt 0.121460 0.329426
vt 0.065723 0.270817
vt 0.286144 0.199587
vt 0.456228 0.139002
vt 0.447047 0.128825
vt 0.446213 0.007806
vt 0.444489 0.129893
vt 0.446213 0.007806
vt 0.447047 0.128825
vt 0.065723 0.270817
vt 0.001698 0.205179
vt 0.286144 0.199587
vt 0.001698 0.205179
vt 0.142772 0.188235
vt 0.144181 0.189668
vt 0.001698 0.205179
vt 0.144181 0.189668
vt 0.286144 0.199587
vt 0.286144 0.199587
vt 0.144181 0.189668
vt 0.287928 0.170800
vt 0.144181 0.189668
vt 0.148953 0.187492
vt 0.287928 0.170800
vt 0.500680 0.099200
vt 0.446213 0.007806
vt 0.538851 0.082235
vt 0.456228 0.139002
vt 0.500680 0.099200
vt 0.514159 0.113283
vt 0.456228 0.139002
vt 0.446213 0.007806
vt 0.500680 0.099200
vt 0.481355 0.986504
vt 0.448217 0.985155
vt 0.459133 0.964162
vt 0.522920 0.964162
vt 0.556115 0.970682
vt 0.524409 0.984681
vt 0.383094 0.987529
vt 0.382003 0.964162
vt 0.415244 0.972817
vt 0.497150 0.964162
vt 0.518899 0.986338
vt 0.485569 0.986912
vt 0.796511 0.978670
vt 0.807647 0.973700
vt 0.808721 0.974899
vt 0.797403 0.979668
vt 0.796511 0.978670
vt 0.808721 0.974899
vt 0.807647 0.973700
vt 0.787776 0.968911
vt 0.799102 0.964162
vt 0.796511 0.978670
vt 0.787776 0.968911
vt 0.807647 0.973700
vt 0.692089 0.719361
vt 0.633277 0.672276
vt 0.764455 0.603468
vt 0.822195 0.649697
vt 0.619694 0.431158
vt 0.833159 0.341040
vt 0.962008 0.436794
vt 0.752455 0.525257
vt 0.726377 0.763006
vt 0.736226 0.770874
vt 0.575395 0.861677
vt 0.565365 0.853665
vt 0.527747 0.763006
vt 0.561950 0.770519
vt 0.401554 0.861459
vt 0.366723 0.853809
vt 0.161991 0.763006
vt 0.182698 0.786526
vt 0.022785 0.878044
vt 0.001698 0.854093
vt 0.901658 0.831422
vt 0.899663 0.856437
vt 0.740238 0.788478
vt 0.742268 0.763006
vt 0.161911 0.603468
vt 0.223195 0.666492
vt 0.064106 0.759864
vt 0.001698 0.695686
vt 0.614884 0.408370
vt 0.183882 0.594701
vt 0.016481 0.530782
vt 0.455350 0.341040
vt 0.183882 0.594701
vt 0.169363 0.600978
vt 0.001698 0.537174
vt 0.016481 0.530782
vt 0.304862 0.748705
vt 0.393626 0.642677
vt 0.431598 0.681885
vt 0.393626 0.642677
vt 0.227504 0.668835
vt 0.355652 0.603468
vt 0.304862 0.748705
vt 0.227504 0.668835
vt 0.393626 0.642677
vt 0.185059 0.980576
vt 0.222960 0.964162
vt 0.348156 0.979147
vt 0.310948 0.995261
vt 0.015073 0.961418
vt 0.001698 0.947632
vt 0.128642 0.880925
vt 0.141774 0.894461
vt 0.638370 0.905995
vt 0.695951 0.880925
vt 0.821724 0.895466
vt 0.765197 0.920077
vt 0.295416 0.914323
vt 0.371821 0.880925
vt 0.498982 0.894981
vt 0.423975 0.927767
vt 0.601666 0.603468
vt 0.629266 0.632311
vt 0.464440 0.726485
vt 0.436333 0.697115
vt 0.001698 0.986035
vt 0.052075 0.964162
vt 0.181020 0.978039
vt 0.131565 0.999511
vt 0.502547 0.909029
vt 0.504313 0.880925
vt 0.633746 0.894460
vt 0.632010 0.922050
vt 0.441230 0.988187
vt 0.419355 0.965793
vt 0.422502 0.964162
vt 0.444367 0.986545
vt 0.784347 0.965714
vt 0.752594 0.979504
vt 0.748727 0.977954
vt 0.780504 0.964162
vt 0.709677 0.978612
vt 0.717421 0.978835
vt 0.712845 0.980887
vt 0.709677 0.978612
vt 0.741901 0.964162
vt 0.745053 0.966444
vt 0.717421 0.978835
vt 0.358240 0.965512
vt 0.378332 0.986431
vt 0.374550 0.988682
vt 0.353141 0.966409
vt 0.356943 0.964162
vt 0.358240 0.965512
vt 0.353141 0.966409
vt 0.358240 0.965512
vt 0.374550 0.988682
vt 0.186757 0.861917
vt 0.196163 0.858166
vt 0.187691 0.862954
vt 0.361791 0.763006
vt 0.362706 0.764024
vt 0.196163 0.858166
vt 0.186757 0.861917
vt 0.196163 0.858166
vt 0.205284 0.868313
vt 0.196831 0.873105
vt 0.187691 0.862954
vt 0.156266 0.952916
vt 0.161622 0.948239
vt 0.289410 0.880925
vt 0.290535 0.882152
vt 0.156266 0.952916
vt 0.155121 0.951664
vt 0.161622 0.948239
vt 0.155121 0.951664
vt 0.146010 0.941697
vt 0.152503 0.938291
vt 0.161622 0.948239
vt 0.560272 0.968987
vt 0.572319 0.964162
vt 0.705267 0.978526
vt 0.693450 0.983259
vt 0.823440 0.970490
vt 0.821103 0.971391
vt 0.813243 0.968446
vt 0.824329 0.964162
vt 0.832190 0.967115
vt 0.823440 0.970490
vt 0.824329 0.964162
vt 0.823440 0.970490
vt 0.813243 0.968446
vt 0.837012 0.964162
vt 0.837012 0.964162
vt 0.837012 0.964162
vt 0.837012 0.964162
vt 0.837012 0.964162
vt 0.837012 0.964162
vt 0.837012 0.964162
vt 0.837012 0.964162
vt 0.837012 0.964162
vt 0.837012 0.964162
vt 0.837012 0.964162
vt 0.837012 0.964162
vt 0.837012 0.964162
vt 0.837012 0.964162
vt 0.837012 0.964162
vt 0.837012 0.964162
vt 0.837012 0.964162
vt 0.837012 0.964162
vt 0.837012 0.964162
vt 0.837012 0.964162
vt 0.837012 0.964162
vn 0 1 0
vn 0 1 0
vn 0 1 0
vn 0 1 0
vn 0 1 0
vn 0 1 0
vn 0 1 0
vn 0 1 0
vn 0 1 0
vn 0 1 0
vn 0 1 0
vn 0 1 0
vn 0 1 0
vn 0 1 0
vn 0 1 0
vn 0 1 0
vn 0 1 0
vn 0 1 0
vn 0 1 0
vn 0 1 0
vn 0 1 0
vn 0 1 0
vn 0 1 0
vn 0 1 0
vn 0 1 0
vn 0 1 0
vn 0 1 0
vn 0 1 0
vn 0 1 0
vn 0 1 0
vn 0 1 0
vn 0 1 0
vn 0 1 0
vn 0 1 0
vn 0 1 0
vn 0 1 0
vn 0 1 0
vn 0 1 0
vn 0 1 0
vn 0 1 0
vn 0 1 0
vn 0 1 0
vn 0 1 0
vn 0 1 0
vn 0 1 0
vn 0 1 0
vn 0 1 0
vn 0 1 0
vn 0 1 0
vn 0 1 0
vn 0 1 0
vn 0 1 0
vn 0 1 0
vn 0 1 0
vn 0 1 0
vn 0 1 0
vn 0 1 0
vn 0 1 0
vn 0 1 0
vn 0 1 0
vn 0 1 0
vn 0 1 0
vn 0 1 0
vn 0 1 0
vn 0 1 0
vn 0 1 0
vn 0 1 0
vn 0 1 0
vn 0 1 0
vn 0 1 0
vn 0 1 0
vn 0 1 0
vn 0 1 0
vn 0 1 0
vn 0 1 0
vn 0 1 0
vn 0 1 0
vn 0 1 0
vn 0 1 0
vn 0.3837993 0.7185774 -0.5799523
vn 0.3837993 0.7185774 -0.5799523
vn 0.3837993 0.7185774 -0.5799523
vn 0.5806273 0.717683 0.3844517
vn 0.5806273 0.717683 0.3844517
vn 0.5806273 0.717683 0.3844517
vn -0.5579433 0.7431728 -0.3693148
vn -0.5579433 0.7431728 -0.3693148
vn -0.5579433 0.7431728 -0.3693148
vn -0.3813888 0.7216301 0.5777479
vn -0.3813888 0.7216301 0.5777479
vn -0.3813888 0.7216301 0.5777479
vn 0.002700723 0.9999954 0.001414064
vn 0.002700723 0.9999954 0.001414064
vn 0.002700723 0.9999954 0.001414064
vn 0.001297877 0.9999989 0.0007895948
vn 0.001297877 0.9999989 0.0007895948
vn 0.001297877 0.9999989 0.0007895948
vn 0.003694799 0.9999931 -0.0002243169
vn 0.003694799 0.9999931 -0.0002243169
vn 0.003694799 0.9999931 -0.0002243169
vn 0.001419818 0.9999988 0.0005884041
vn 0.001419818 0.9999988 0.0005884041
vn 0.001419818 0.9999988 0.0005884041
vn 0.6394774 0 -0.7688099
vn 0.6394774 0 -0.7688099
vn 0.6394774 0 -0.7688099
vn 0.6394774 0 -0.7688099
vn -0.8526853 0 -0.5224249
vn -0.8526853 0 -0.5224249
vn -0.8526853 0 -0.5224249
vn -0.8526853 0 -0.5224249
vn -0.645009 0 0.7641749
vn -0.645009 0 0.7641749
vn -0.645009 0 0.7641749
vn -0.645009 0 0.7641749
vn -0.950509 0 0.3106971
vn -0.950509 0 0.3106971
vn -0.950509 0 0.3106971
vn -0.950509 0 0.3106971
vn -0.5102914 0 0.8600016
vn -0.5102914 0 0.8600016
vn -0.5102914 0 0.8600016
vn -0.5102914 0 0.8600016
vn 0.04826792 0 0.9988344
vn 0.04826792 0 0.9988344
vn 0.04826792 0 0.9988344
vn 0.04826792 0 0.9988344
vn -0.5486961 0 0.8360218
vn -0.5486961 0 0.8360218
vn -0.5486961 0 0.8360218
vn -0.5486961 0 0.8360218
vn 0.8404984 0 0.541814
vn 0.8404984 0 0.541814
vn 0.8404984 0 0.541814
vn 0.8404984 0 0.541814
vn 0.8404692 0 0.5418594
vn 0.8404692 0 0.5418594
vn 0.8404692 0 0.5418594
vn 0.8404692 0 0.5418594
vn 0.541761 0 -0.8405325
vn 0.541761 0 -0.8405325
vn 0.541761 0 -0.8405325
vn 0.541761 0 -0.8405325
vn 0.541761 0 -0.8405325
vn 0.541761 0 -0.8405325
vn 0.541761 2.665217E-11 -0.8405325
vn 0.541761 2.665217E-11 -0.8405325
vn 0.541761 2.665217E-11 -0.8405325
vn -0.8402579 0 -0.5421868
vn -0.8402579 0 -0.5421868
vn -0.8402579 0 -0.5421868
vn -0.8402579 0 -0.5421868
vn 0.5414339 0 -0.8407434
vn 0.5414339 0 -0.8407434
vn 0.5414339 0 -0.8407434
vn 0.5414339 0 -0.8407434
vn -0.8405156 0 -0.5417874
vn -0.8405156 0 -0.5417874
vn -0.8405156 0 -0.5417874
vn -0.8405156 0 -0.5417874
vn -0.8405156 0 -0.5417874
vn -0.8405156 0 -0.5417874
vn -0.8405156 0 -0.5417874
vn -0.8405156 0 -0.5417874
vn -0.5421658 0 0.8402716
vn -0.5421658 0 0.8402716
vn -0.5421658 0 0.8402716
vn -0.5421658 0 0.8402716
vn -0.840566 0 -0.5417091
vn -0.840566 0 -0.5417091
vn -0.840566 0 -0.5417091
vn -0.840566 0 -0.5417091
vn -0.04823923 0 -0.9988358
vn -0.04823923 0 -0.9988358
vn -0.04823923 0 -0.9988358
vn -0.04823923 0 -0.9988358
vn 0.5518743 0 -0.8339273
vn 0.5518743 0 -0.8339273
vn 0.5518743 0 -0.8339273
vn 0.5518743 0 -0.8339273
vn 0.8342134 0 0.5514418
vn 0.8342134 0 0.5514418
vn 0.8342134 0 0.5514418
vn 0.8342134 0 0.5514418
vn -0.833872 0 -0.551958
vn -0.833872 0 -0.551958
vn -0.833872 0 -0.551958
vn -0.833872 -4.50231E-09 -0.551958
vn -0.833872 -2.251155E-09 -0.551958
vn -0.833872 0 -0.551958
vn -0.833872 -2.251155E-09 -0.551958
vn -0.5515433 0 0.8341463
vn -0.5515433 0 0.8341463
vn -0.5515433 0 0.8341463
vn -0.5515432 0 0.8341463
vn -0.5515432 0 0.8341463
vn -0.5515432 0 0.8341463
vn -0.5515433 -1.298416E-08 0.8341463
vn -0.5515433 -1.298416E-08 0.8341463
vn -0.5515433 -1.298416E-08 0.8341463
vn -0.5180659 0 0.8553407
vn -0.5180659 0 0.8553407
vn -0.5180659 0 0.8553407
vn -0.5180659 0 0.8553407
vn -0.5180659 0 0.8553407
vn -0.5180659 0 0.8553407
vn -0.5180659 0 0.8553407
vn -0.518066 0 0.8553407
vn -0.518066 0 0.8553407
vn -0.518066 0 0.8553407
vn -0.518066 0 0.8553407
vn 0.5187399 0 -0.8549321
vn 0.5187399 0 -0.8549321
vn 0.5187399 0 -0.8549321
vn 0.5187399 0 -0.8549321
vn 0.5187399 0 -0.8549321
vn 0.5187399 0 -0.8549321
vn 0.5187399 0 -0.8549321
vn 0.5187399 0 -0.8549321
vn 0.5187399 0 -0.8549321
vn 0.5187399 0 -0.8549321
vn 0.5187399 0 -0.8549321
vn -0.8543204 0 -0.5197467
vn -0.8543204 0 -0.5197467
vn -0.8543204 0 -0.5197467
vn -0.8543204 0 -0.5197467
vn 0.8552544 0 0.5182083
vn 0.8552544 0 0.5182083
vn 0.8552544 0 0.5182083
vn 0.8552544 0 0.5182083
vn 0.8552544 0 0.5182083
vn 0.8552544 0 0.5182083
vn 0.8552544 -3.523671E-10 0.5182083
vn 0.8552544 -3.523671E-10 0.5182083
vn 0.8552544 -3.523671E-10 0.5182083
vn 0 -1 0
vn 0 -1 0
vn 0 -1 0
vn 0 -1 0
vn 0 -1 0
vn 0 -1 0
vn 0 -1 0
vn 0 -1 0
vn 0 -1 0
vn 0 -1 0
vn 0 -1 0
vn 0 -1 0
vn 0 -1 0
vn 0 -1 0
vn 0 -1 0
vn 0 -1 0
vn 0 -1 0
vn 0 -1 0
vn 0 -1 0
vn 0 -1 0
vn 0 -1 0

g CDNNDG02_0003890
f 1/1/1 2/2/2 3/3/3
f 4/4/4 5/5/5 6/6/6
f 7/7/7 8/8/8 9/9/9
f 10/10/10 11/11/11 12/12/12
f 13/13/13 15/15/15 16/16/16
f 13/13/13 14/14/14 15/15/15
f 17/17/17 18/18/18 19/19/19
f 20/20/20 21/21/21 22/22/22
f 23/23/23 24/24/24 25/25/25
f 26/26/26 27/27/27 28/28/28
f 29/29/29 30/30/30 31/31/31
f 32/32/32 33/33/33 34/34/34
f 35/35/35 36/36/36 37/37/37
f 38/38/38 39/39/39 40/40/40
f 41/41/41 42/42/42 43/43/43
f 44/44/44 45/45/45 46/46/46
f 47/47/47 48/48/48 49/49/49
f 50/50/50 51/51/51 52/52/52
f 53/53/53 54/54/54 55/55/55
f 56/56/56 57/57/57 58/58/58
f 59/59/59 60/60/60 61/61/61
f 62/62/62 63/63/63 64/64/64
f 65/65/65 66/66/66 67/67/67
f 68/68/68 69/69/69 70/70/70
f 71/71/71 72/72/72 73/73/73
f 74/74/74 75/75/75 76/76/76
f 77/77/77 78/78/78 79/79/79
f 80/80/80 81/81/81 82/82/82
f 83/83/83 84/84/84 85/85/85
f 86/86/86 87/87/87 88/88/88
f 89/89/89 90/90/90 91/91/91
f 92/92/92 93/93/93 94/94/94
f 95/95/95 96/96/96 97/97/97
f 98/98/98 99/99/99 100/100/100
f 101/101/101 102/102/102 103/103/103
f 104/104/104 106/106/106 107/107/107
f 104/104/104 105/105/105 106/106/106
f 111/111/111 108/108/108 110/110/110
f 110/110/110 108/108/108 109/109/109
f 115/115/115 112/112/112 114/114/114
f 114/114/114 112/112/112 113/113/113
f 116/116/116 118/118/118 119/119/119
f 116/116/116 117/117/117 118/118/118
f 121/121/121 122/122/122 123/123/123
f 123/123/123 120/120/120 121/121/121
f 124/124/124 126/126/126 127/127/127
f 124/124/124 125/125/125 126/126/126
f 128/128/128 130/130/130 131/131/131
f 130/130/130 128/128/128 129/129/129
f 135/135/135 132/132/132 134/134/134
f 133/133/133 134/134/134 132/132/132
f 137/137/137 138/138/138 136/136/136
f 136/136/136 138/138/138 139/139/139
f 140/140/140 141/141/141 142/142/142
f 143/143/143 144/144/144 145/145/145
f 146/146/146 147/147/147 148/148/148
f 150/150/150 151/151/151 152/152/152
f 149/149/149 150/150/150 152/152/152
f 153/153/153 155/155/155 156/156/156
f 153/153/153 154/154/154 155/155/155
f 157/157/157 159/159/159 160/160/160
f 157/157/157 158/158/158 159/159/159
f 161/161/161 162/162/162 163/163/163
f 164/164/164 161/161/161 163/163/163
f 165/165/165 167/167/167 168/168/168
f 167/167/167 165/165/165 166/166/166
f 169/169/169 171/171/171 172/172/172
f 169/169/169 170/170/170 171/171/171
f 173/173/173 175/175/175 176/176/176
f 173/173/173 174/174/174 175/175/175
f 180/180/180 177/177/177 179/179/179
f 178/178/178 179/179/179 177/177/177
f 182/182/182 183/183/183 184/184/184
f 181/181/181 182/182/182 184/184/184
f 185/185/185 186/186/186 187/187/187
f 189/189/189 190/190/190 191/191/191
f 188/188/188 189/189/189 191/191/191
f 192/192/192 193/193/193 194/194/194
f 195/195/195 196/196/196 197/197/197
f 198/198/198 199/199/199 200/200/200
f 201/201/201 202/202/202 203/203/203
f 204/204/204 206/206/206 207/207/207
f 206/206/206 204/204/204 205/205/205
f 208/208/208 210/210/210 211/211/211
f 210/210/210 208/208/208 209/209/209
f 213/213/213 215/215/215 212/212/212
f 215/215/215 213/213/213 214/214/214
f 216/216/216 217/217/217 218/218/218
f 222/222/222 219/219/219 220/220/220
f 220/220/220 221/221/221 222/222/222
f 223/223/223 225/225/225 226/226/226
f 223/223/223 224/224/224 225/225/225
f 227/227/227 228/228/228 229/229/229
f 230/230/230 231/231/231 232/232/232
f 233/233/233 234/234/234 235/235/235
f 256/256/256 248/248/248 255/255/255
f 247/247/247 245/245/245 246/246/246
f 248/248/248 256/256/256 247/247/247
f 237/237/237 238/238/238 236/236/236
f 252/252/252 253/253/253 254/254/254
f 238/238/238 240/240/240 241/241/241
f 239/239/239 240/240/240 238/238/238
f 255/255/255 252/252/252 254/254/254
f 241/241/241 242/242/242 243/243/243
f 241/241/241 247/247/247 238/238/238
f 243/243/243 244/244/244 245/245/245
f 256/256/256 236/236/236 247/247/247
f 243/243/243 245/245/245 247/247/247
f 255/255/255 249/249/249 252/252/252
f 243/243/243 247/247/247 241/241/241
f 247/247/247 236/236/236 238/238/238
f 248/248/248 249/249/249 255/255/255
f 252/252/252 250/250/250 251/251/251
f 250/250/250 252/252/252 249/249/249
