v -2.696877 3.570326 4.799485
v 5.504123 3.570326 -0.1845152
v 2.698123 3.570326 -4.798515
v -5.503877 3.570326 0.1824848
v -2.696877 -3.570326 4.799485
v 5.504123 -3.570326 -0.1845152
v 5.504123 3.570326 -0.1845152
v -2.696877 3.570326 4.799485
v 2.698123 3.570326 -4.798515
v 4.101123 -3.570326 -2.491515
v 2.698123 -3.570326 -4.798515
v 4.101123 -3.570326 -2.491515
v 5.504123 3.570326 -0.1845152
v 5.504123 -3.570326 -0.1845152
v 2.698123 3.570326 -4.798515
v 5.504123 3.570326 -0.1845152
v 4.101123 -3.570326 -2.491515
v -5.503877 3.570326 0.1824848
v 2.698123 3.570326 -4.798515
v 2.698123 -3.570326 -4.798515
v -5.503877 -3.570326 0.1824848
v -5.503877 -3.570326 0.1824848
v -2.696877 -3.570326 4.799485
v -2.696877 3.570326 4.799485
v -5.503877 3.570326 0.1824848
v -5.503877 -3.570326 0.1824848
v 2.698123 -3.570326 -4.798515
v 4.101123 -3.570326 -2.491515
v 5.504123 -3.570326 -0.1845152
v -2.696877 -3.570326 4.799485
vt 0.003876 0.326633
vt 0.339203 0.002283
vt 0.648938 0.113691
vt 0.313801 0.438071
vt 0.410853 0.828767
vt 0.410853 0.828767
vt 0.410853 0.828767
vt 0.410853 0.828767
vt 0.731692 0.646789
vt 0.642455 0.497111
vt 0.795694 0.551299
vt 0.642455 0.497111
vt 0.422481 0.537448
vt 0.489214 0.442922
vt 0.731692 0.646789
vt 0.422481 0.537448
vt 0.642455 0.497111
vt 0.003876 0.765901
vt 0.345850 0.442922
vt 0.412952 0.503174
vt 0.074007 0.823286
vt 0.381100 0.999062
vt 0.076678 0.886742
vt 0.003876 0.828767
vt 0.311022 0.942094
vt 0.391473 0.828767
vt 0.391473 0.828767
vt 0.391473 0.828767
vt 0.391473 0.828767
vt 0.391473 0.828767
vn 0 1 0
vn 0 1 0
vn 0 1 0
vn 0 1 0
vn 0.5193452 0 0.8545645
vn 0.5193452 0 0.8545645
vn 0.5193452 0 0.8545645
vn 0.5193452 0 0.8545645
vn 0.8544059 0 -0.5196062
vn 0.8544059 0 -0.5196062
vn 0.8544059 0 -0.5196062
vn 0.8544059 0 -0.5196062
vn 0.8544059 0 -0.5196062
vn 0.8544059 0 -0.5196062
vn 0.8544059 0 -0.5196062
vn 0.8544059 0 -0.5196062
vn 0.8544059 0 -0.5196062
vn -0.5190706 0 -0.8547314
vn -0.5190706 0 -0.8547314
vn -0.5190706 0 -0.8547314
vn -0.5190706 0 -0.8547314
vn -0.8544736 0 0.5194948
vn -0.8544736 0 0.5194948
vn -0.8544736 0 0.5194948
vn -0.8544736 0 0.5194948
vn 0 -1 0
vn 0 -1 0
vn 0 -1 0
vn 0 -1 0
vn 0 -1 0

g CDNNDG02_0010350
f 1/1/1 3/3/3 4/4/4
f 1/1/1 2/2/2 3/3/3
f 5/5/5 7/7/7 8/8/8
f 5/5/5 6/6/6 7/7/7
f 9/9/9 10/10/10 11/11/11
f 12/12/12 13/13/13 14/14/14
f 15/15/15 16/16/16 17/17/17
f 18/18/18 20/20/20 21/21/21
f 18/18/18 19/19/19 20/20/20
f 22/22/22 23/23/23 24/24/24
f 25/25/25 22/22/22 24/24/24
f 30/30/30 26/26/26 28/28/28
f 28/28/28 29/29/29 30/30/30
f 26/26/26 27/27/27 28/28/28
