v -6.085337 5.215554 2.346906
v 0.3256629 5.221926 6.513906
v 6.084663 5.221926 -2.348094
v -0.3263368 5.214553 -6.514094
v -2.879837 -5.218574 4.430406
v 0.3256629 -5.218574 6.513906
v 0.3256629 5.221926 6.513906
v -6.085337 5.215554 2.346906
v -6.085337 -5.218574 2.346906
v -2.879837 -5.218574 4.430406
v -6.085337 5.215554 2.346906
v -2.879837 -5.218574 4.430406
v 0.3256629 5.221926 6.513906
v 3.205163 -5.218574 2.082906
v 6.084663 -5.218574 -2.348094
v 6.084663 5.221926 -2.348094
v 0.3256629 5.221926 6.513906
v 0.3256629 -5.218574 6.513906
v 3.205163 -5.218574 2.082906
v 0.3256629 5.221926 6.513906
v 3.205163 -5.218574 2.082906
v 6.084663 5.221926 -2.348094
v -0.3263368 5.214553 -6.514094
v 2.879163 -5.218574 -4.431094
v -0.3263368 -5.218574 -6.514094
v 2.879163 -5.218574 -4.431094
v 6.084663 5.221926 -2.348094
v 6.084663 -5.218574 -2.348094
v -0.3263368 5.214553 -6.514094
v 6.084663 5.221926 -2.348094
v 2.879163 -5.218574 -4.431094
v -6.085337 5.215554 2.346906
v -3.205837 -5.218574 -2.083594
v -6.085337 -5.218574 2.346906
v -3.205837 -5.218574 -2.083594
v -0.3263368 5.214553 -6.514094
v -0.3263368 -5.218574 -6.514094
v -6.085337 5.215554 2.346906
v -0.3263368 5.214553 -6.514094
v -3.205837 -5.218574 -2.083594
v -3.205837 -5.218574 -2.083594
v -0.3263368 -5.218574 -6.514094
v 2.879163 -5.218574 -4.431094
v 6.084663 -5.218574 -2.348094
v 3.205163 -5.218574 2.082906
v 0.3256629 -5.218574 6.513906
v -2.879837 -5.218574 4.430406
v -6.085337 -5.218574 2.346906
vt 0.254763 0.608111
vt 0.003413 0.290784
vt 0.533597 0.002825
vt 0.784867 0.320183
vt 0.734259 0.812634
vt 0.610922 0.656568
vt 0.690753 0.615819
vt 0.940625 0.932091
vt 0.857591 0.968696
vt 0.734259 0.812634
vt 0.940625 0.932091
vt 0.734259 0.812634
vt 0.690753 0.615819
vt 0.262308 0.757478
vt 0.521217 0.615819
vt 0.603154 0.712766
vt 0.078552 0.999790
vt 0.003413 0.899131
vt 0.262308 0.757478
vt 0.078552 0.999790
vt 0.262308 0.757478
vt 0.603154 0.712766
vt 0.982935 0.615819
vt 0.982935 0.615819
vt 0.982935 0.615819
vt 0.982935 0.615819
vt 0.982935 0.615819
vt 0.982935 0.615819
vt 0.982935 0.615819
vt 0.982935 0.615819
vt 0.982935 0.615819
vt 0.948805 0.615819
vt 0.948805 0.615819
vt 0.948805 0.615819
vt 0.948805 0.615819
vt 0.948805 0.615819
vt 0.948805 0.615819
vt 0.948805 0.615819
vt 0.948805 0.615819
vt 0.948805 0.615819
vt 0.965870 0.615819
vt 0.965870 0.615819
vt 0.965870 0.615819
vt 0.965870 0.615819
vt 0.965870 0.615819
vt 0.965870 0.615819
vt 0.965870 0.615819
vt 0.965870 0.615819
vn -0.0007278547 0.9999996 -0.0005294536
vn -0.0006987883 0.9999996 -0.0004541099
vn -0.0007278547 0.9999996 -0.0005294536
vn -0.0007569211 0.9999995 -0.0006047973
vn -0.5449746 0 0.8384526
vn -0.5449746 0 0.8384526
vn -0.5449746 0 0.8384526
vn -0.5449746 0 0.8384526
vn -0.5449746 0 0.8384526
vn -0.5449746 0 0.8384526
vn -0.5449746 4.114837E-10 0.8384526
vn -0.5449746 4.114837E-10 0.8384526
vn -0.5449746 4.114837E-10 0.8384526
vn 0.8384998 0 0.5449019
vn 0.8384998 0 0.5449019
vn 0.8384998 0 0.5449019
vn 0.8384998 0 0.5449019
vn 0.8384998 0 0.5449019
vn 0.8384998 0 0.5449019
vn 0.8384998 0 0.5449019
vn 0.8384998 0 0.5449019
vn 0.8384998 0 0.5449019
vn 0.5448826 0 -0.8385124
vn 0.5448826 0 -0.8385124
vn 0.5448826 0 -0.8385124
vn 0.5448826 0 -0.8385124
vn 0.5448826 0 -0.8385124
vn 0.5448826 0 -0.8385124
vn 0.5448826 -4.115327E-10 -0.8385124
vn 0.5448826 -4.115327E-10 -0.8385124
vn 0.5448826 -4.115327E-10 -0.8385124
vn -0.8384717 0 -0.5449451
vn -0.8384717 0 -0.5449451
vn -0.8384717 0 -0.5449451
vn -0.8384717 0 -0.5449451
vn -0.8384717 0 -0.5449451
vn -0.8384717 0 -0.5449451
vn -0.8384717 0 -0.5449451
vn -0.8384717 0 -0.5449451
vn -0.8384717 0 -0.5449451
vn 0 -1 0
vn 0 -1 0
vn 0 -1 0
vn 0 -1 0
vn 0 -1 0
vn 0 -1 0
vn 0 -1 0
vn 0 -1 0

g CDNNDG02_0010560
f 1/1/1 3/3/3 4/4/4
f 1/1/1 2/2/2 3/3/3
f 5/5/5 6/6/6 7/7/7
f 8/8/8 9/9/9 10/10/10
f 11/11/11 12/12/12 13/13/13
f 14/14/14 15/15/15 16/16/16
f 17/17/17 18/18/18 19/19/19
f 20/20/20 21/21/21 22/22/22
f 23/23/23 24/24/24 25/25/25
f 26/26/26 27/27/27 28/28/28
f 29/29/29 30/30/30 31/31/31
f 32/32/32 33/33/33 34/34/34
f 35/35/35 36/36/36 37/37/37
f 38/38/38 39/39/39 40/40/40
f 48/48/48 41/41/41 47/47/47
f 47/47/47 41/41/41 45/45/45
f 41/41/41 42/42/42 43/43/43
f 46/46/46 47/47/47 45/45/45
f 45/45/45 41/41/41 43/43/43
f 43/43/43 44/44/44 45/45/45
