v -6.11203 5.751565 2.529416
v 0.2869698 5.751565 6.682415
v 5.53597 5.751565 -1.403584
v -1.71203 5.751565 -4.248584
v 0.03396975 5.751565 -6.939584
v 2.49897 5.751565 -4.464584
v 2.89797 5.751565 -5.079585
v 2.49897 5.751565 -4.464584
v 5.53597 5.751565 -1.403584
v 6.03297 5.751565 -2.170584
v -1.71203 5.751565 -4.248584
v 5.53597 5.751565 -1.403584
v 2.49897 5.751565 -4.464584
v -0.4690303 5.751565 -4.736585
v 2.49897 5.751565 -4.464584
v -0.1220303 5.751565 -5.245584
v -0.1220303 5.751565 -5.245584
v 2.49897 5.751565 -4.464584
v 0.03396975 5.751565 -6.939584
v -1.71203 5.751565 -4.248584
v 2.49897 5.751565 -4.464584
v -0.4690303 5.751565 -4.736585
v -1.71203 5.751565 -4.248584
v -0.5670303 5.751565 -5.549584
v 0.03396975 5.751565 -6.939584
v -0.5670303 5.751565 -5.549584
v -0.1220303 5.751565 -5.245584
v 0.03396975 5.751565 -6.939584
v -1.71203 5.751565 -4.248584
v -0.4690303 5.751565 -4.736585
v -0.9140303 5.751565 -5.040585
v -1.71203 5.751565 -4.248584
v -0.9140303 5.751565 -5.040585
v -0.5670303 5.751565 -5.549584
v -0.9140303 6.869564 -5.040585
v -0.4690303 6.868564 -4.736585
v -0.1220303 6.868564 -5.245584
v -0.5670303 6.869564 -5.549584
v -6.11203 5.751565 2.529416
v -1.71203 5.751565 -4.248584
v -1.71203 -5.756465 -4.248584
v -6.11203 -5.756465 2.529416
v -1.71203 5.751565 -4.248584
v 0.03396975 5.751565 -6.939584
v 0.03396975 -5.756465 -6.939584
v -1.71203 -5.756465 -4.248584
v -6.11203 -5.756465 2.529416
v 0.2869698 -5.756465 6.682415
v 0.2869698 5.751565 6.682415
v -6.11203 5.751565 2.529416
v 0.2869698 -5.756465 6.682415
v 5.53597 -5.756465 -1.403584
v 5.53597 5.751565 -1.403584
v 0.2869698 5.751565 6.682415
v 5.53597 -5.756465 -1.403584
v 6.03297 -5.756465 -2.170584
v 6.03297 5.751565 -2.170584
v 5.53597 5.751565 -1.403584
v 2.49897 5.751565 -4.464584
v 6.03297 5.751565 -2.170584
v 6.03297 -5.756465 -2.170584
v 2.49897 -5.756465 -4.464584
v 2.49897 -5.756465 -4.464584
v 2.89797 -5.756465 -5.079585
v 2.89797 5.751565 -5.079585
v 2.49897 5.751565 -4.464584
v 0.03396975 5.751565 -6.939584
v 2.89797 5.751565 -5.079585
v 2.89797 -5.756465 -5.079585
v 0.03396975 -5.756465 -6.939584
v -0.9140303 5.751565 -5.040585
v -0.4690303 5.751565 -4.736585
v -0.4690303 6.868564 -4.736585
v -0.9140303 6.869564 -5.040585
v -0.4690303 5.751565 -4.736585
v -0.1220303 5.751565 -5.245584
v -0.1220303 6.868564 -5.245584
v -0.4690303 6.868564 -4.736585
v -0.5670303 6.869564 -5.549584
v -0.1220303 6.868564 -5.245584
v -0.1220303 5.751565 -5.245584
v -0.5670303 5.751565 -5.549584
v -0.9140303 6.869564 -5.040585
v -0.5670303 6.869564 -5.549584
v -0.5670303 5.751565 -5.549584
v -0.9140303 5.751565 -5.040585
v 0.03396975 -5.756465 -6.939584
v 2.89797 -5.756465 -5.079585
v 2.49897 -5.756465 -4.464584
v 6.03297 -5.756465 -2.170584
v 5.53597 -5.756465 -1.403584
v 0.2869698 -5.756465 6.682415
v -6.11203 -5.756465 2.529416
v -1.71203 -5.756465 -4.248584
vt 0.483831 0.002110
vt 0.696292 0.234444
vt 0.285650 0.426125
vt 0.139608 0.162799
vt 0.002950 0.226561
vt 0.129340 0.315971
vt 0.098109 0.330541
vt 0.129340 0.315971
vt 0.285650 0.426125
vt 0.246699 0.444273
vt 0.139608 0.162799
vt 0.285650 0.426125
vt 0.129340 0.315971
vt 0.114985 0.208054
vt 0.129340 0.315971
vt 0.089139 0.220723
vt 0.089139 0.220723
vt 0.129340 0.315971
vt 0.002950 0.226561
vt 0.139608 0.162799
vt 0.129340 0.315971
vt 0.114985 0.208054
vt 0.139608 0.162799
vt 0.073590 0.204568
vt 0.002950 0.226561
vt 0.073590 0.204568
vt 0.089139 0.220723
vt 0.002950 0.226561
vt 0.139608 0.162799
vt 0.114985 0.208054
vt 0.099436 0.191899
vt 0.139608 0.162799
vt 0.099436 0.191899
vt 0.073590 0.204568
vt 0.705675 0.732068
vt 0.720277 0.747157
vt 0.696018 0.758994
vt 0.681416 0.743905
vt 0.790189 0.496022
vt 0.446272 0.656235
vt 0.543658 0.607324
vt 0.882733 0.449367
vt 0.446272 0.656235
vt 0.309735 0.719808
vt 0.409042 0.670002
vt 0.543658 0.607324
vt 0.095065 0.449367
vt 0.303376 0.677790
vt 0.214240 0.727716
vt 0.002950 0.496031
vt 0.542756 0.795574
vt 0.137207 0.982268
vt 0.041965 0.921428
vt 0.453299 0.732068
vt 0.137207 0.982268
vt 0.098740 0.999944
vt 0.002950 0.939357
vt 0.041965 0.921428
vt 0.884956 0.732068
vt 0.884956 0.732068
vt 0.884956 0.732068
vt 0.884956 0.732068
vt 0.675143 0.793254
vt 0.644835 0.807171
vt 0.548673 0.746183
vt 0.579412 0.732068
vt 0.855457 0.732068
vt 0.855457 0.732068
vt 0.855457 0.732068
vt 0.855457 0.732068
vt 0.737249 0.732068
vt 0.751129 0.746824
vt 0.742520 0.751299
vt 0.728614 0.736526
vt 0.791110 0.737712
vt 0.767077 0.748930
vt 0.758112 0.743301
vt 0.782179 0.732068
vt 0.840708 0.732068
vt 0.840708 0.732068
vt 0.840708 0.732068
vt 0.840708 0.732068
vt 0.823402 0.736427
vt 0.799410 0.747758
vt 0.808411 0.743383
vt 0.832370 0.732068
vt 0.870206 0.732068
vt 0.870206 0.732068
vt 0.870206 0.732068
vt 0.870206 0.732068
vt 0.870206 0.732068
vt 0.870206 0.732068
vt 0.870206 0.732068
vt 0.870206 0.732068
vn 0 1 0
vn 0 1 0
vn 0 1 0
vn 0 1 0
vn 0 1 0
vn 0 1 0
vn 0 1 0
vn 0 1 0
vn 0 1 0
vn 0 1 0
vn 0 1 0
vn 0 1 0
vn 0 1 0
vn 0 1 0
vn 0 1 0
vn 0 1 0
vn 0 1 0
vn 0 1 0
vn 0 1 0
vn 0 1 0
vn 0 1 0
vn 0 1 0
vn 0 1 0
vn 0 1 0
vn 0 1 0
vn 0 1 0
vn 0 1 0
vn 0 1 0
vn 0 1 0
vn 0 1 0
vn 0 1 0
vn 0 1 0
vn 0 1 0
vn 0 1 0
vn 0.001533162 0.9999983 0.001045201
vn 0.001533162 0.9999983 0.001045201
vn 0.001533162 0.9999983 0.001045201
vn 0.001533162 0.9999983 0.001045201
vn -0.8387658 0 -0.5444924
vn -0.8387658 0 -0.5444924
vn -0.8387658 0 -0.5444924
vn -0.8387658 0 -0.5444924
vn -0.838892 0 -0.5442979
vn -0.838892 0 -0.5442979
vn -0.838892 0 -0.5442979
vn -0.838892 0 -0.5442979
vn -0.5444031 0 0.8388238
vn -0.5444031 0 0.8388238
vn -0.5444031 0 0.8388238
vn -0.5444031 0 0.8388238
vn 0.8387705 0 0.5444851
vn 0.8387705 0 0.5444851
vn 0.8387705 0 0.5444851
vn 0.8387705 0 0.5444851
vn 0.8392177 0 0.5437955
vn 0.8392177 0 0.5437955
vn 0.8392177 0 0.5437955
vn 0.8392177 0 0.5437955
vn 0.544471 0 -0.8387797
vn 0.544471 0 -0.8387797
vn 0.544471 0 -0.8387797
vn 0.544471 0 -0.8387797
vn 0.8389108 0 0.544269
vn 0.8389108 0 0.544269
vn 0.8389108 0 0.544269
vn 0.8389108 0 0.544269
vn 0.544659 0 -0.8386576
vn 0.544659 0 -0.8386576
vn 0.544659 0 -0.8386576
vn 0.544659 0 -0.8386576
vn -0.5640851 0 0.8257167
vn -0.5640851 0 0.8257167
vn -0.5640851 0 0.8257167
vn -0.5640851 0 0.8257167
vn 0.8262617 0 0.5632864
vn 0.8262617 0 0.5632864
vn 0.8262617 0 0.5632864
vn 0.8262617 0 0.5632864
vn 0.5640851 0 -0.8257167
vn 0.5640851 0 -0.8257167
vn 0.5640851 0 -0.8257167
vn 0.5640851 0 -0.8257167
vn -0.8262617 0 -0.5632864
vn -0.8262617 0 -0.5632864
vn -0.8262617 0 -0.5632864
vn -0.8262617 0 -0.5632864
vn 0 -1 0
vn 0 -1 0
vn 0 -1 0
vn 0 -1 0
vn 0 -1 0
vn 0 -1 0
vn 0 -1 0
vn 0 -1 0

g CDNNDG02_0003510
f 2/2/2 3/3/3 4/4/4
f 1/1/1 2/2/2 4/4/4
f 5/5/5 6/6/6 7/7/7
f 8/8/8 9/9/9 10/10/10
f 11/11/11 12/12/12 13/13/13
f 14/14/14 15/15/15 16/16/16
f 17/17/17 18/18/18 19/19/19
f 20/20/20 21/21/21 22/22/22
f 23/23/23 24/24/24 25/25/25
f 26/26/26 27/27/27 28/28/28
f 29/29/29 30/30/30 31/31/31
f 32/32/32 33/33/33 34/34/34
f 35/35/35 37/37/37 38/38/38
f 37/37/37 35/35/35 36/36/36
f 42/42/42 39/39/39 41/41/41
f 41/41/41 39/39/39 40/40/40
f 44/44/44 45/45/45 46/46/46
f 43/43/43 44/44/44 46/46/46
f 47/47/47 49/49/49 50/50/50
f 49/49/49 47/47/47 48/48/48
f 54/54/54 51/51/51 53/53/53
f 52/52/52 53/53/53 51/51/51
f 56/56/56 57/57/57 55/55/55
f 55/55/55 57/57/57 58/58/58
f 59/59/59 61/61/61 62/62/62
f 59/59/59 60/60/60 61/61/61
f 64/64/64 65/65/65 63/63/63
f 63/63/63 65/65/65 66/66/66
f 69/69/69 67/67/67 68/68/68
f 67/67/67 69/69/69 70/70/70
f 74/74/74 71/71/71 73/73/73
f 73/73/73 71/71/71 72/72/72
f 76/76/76 77/77/77 78/78/78
f 75/75/75 76/76/76 78/78/78
f 80/80/80 81/81/81 82/82/82
f 79/79/79 80/80/80 82/82/82
f 86/86/86 83/83/83 85/85/85
f 85/85/85 83/83/83 84/84/84
f 94/94/94 89/89/89 91/91/91
f 94/94/94 87/87/87 89/89/89
f 92/92/92 93/93/93 94/94/94
f 94/94/94 91/91/91 92/92/92
f 89/89/89 87/87/87 88/88/88
f 91/91/91 89/89/89 90/90/90
