v 1.420962 5.575425 5.258352
v 6.565962 5.575425 -2.757648
v 6.052962 5.575425 -3.086648
v -2.029902 5.575425 6.555665
v -1.386396 5.575425 6.968078
v 0.2099619 5.575425 4.481352
v 0.2099619 5.575425 4.481352
v 1.420962 5.575425 5.258352
v 6.052962 5.575425 -3.086648
v 0.6719619 5.575425 -6.641648
v 6.052962 5.575425 -3.086648
v 6.387962 5.575425 -3.607648
v 0.9609619 5.575425 -7.091649
v -6.825038 5.575425 3.641352
v -2.060038 5.575425 6.536352
v 0.2099619 5.575425 4.481352
v -6.825038 5.575425 3.641352
v -2.134208 5.575425 6.652263
v -2.060038 5.575425 6.536352
v -2.060038 5.575425 6.536352
v -2.029902 5.575425 6.555665
v 0.2099619 5.575425 4.481352
v -1.227794 5.575425 -2.372186
v 0.2099619 5.575425 4.481352
v 0.6719619 5.575425 -6.641648
v -1.227794 5.575425 -2.372186
v 0.6719619 5.575425 -6.641648
v 0.03796188 5.575425 -7.049648
v -6.825038 5.575425 3.641352
v 0.2099619 5.575425 4.481352
v -1.873442 5.575425 -1.367039
v -1.873442 5.575425 -1.367039
v 0.2099619 5.575425 4.481352
v -1.227794 5.575425 -2.372186
v -6.825038 5.575425 3.641352
v -1.873442 5.575425 -1.367039
v -1.936732 5.575425 -1.405202
v -2.999833 5.575425 -2.087072
v -2.35509 5.575425 -3.092218
v 0.03796188 5.575425 -7.049648
v -2.35509 5.575425 -3.092218
v -2.2918 5.575425 -3.054055
v 0.03796188 5.575425 -7.049648
v -6.825038 5.575425 3.641352
v -1.936732 5.575425 -1.405202
v -2.999833 5.575425 -2.087072
v -6.825038 5.575425 3.641352
v -2.999833 5.575425 -2.087072
v 0.03796188 5.575425 -7.049648
v -2.2918 5.575425 -3.054055
v -1.227794 5.575425 -2.372186
v 0.03796188 5.575425 -7.049648
v 0.2099619 5.575425 4.481352
v 6.052962 5.575425 -3.086648
v 0.6719619 5.575425 -6.641648
v -2.134208 6.512425 6.652263
v -1.386396 6.512425 6.968078
v -2.060038 6.512425 6.536352
v -2.506038 6.512425 7.233352
v -1.782038 6.512425 7.696352
v -1.386396 6.512425 6.968078
v -2.134208 6.512425 6.652263
v -1.782038 6.512425 7.696352
v -1.336038 6.512425 7.000351
v -1.386396 6.512425 6.968078
v -1.873442 5.575425 -1.367039
v -1.227794 5.575425 -2.372186
v -1.791038 6.131425 -2.022648
v -2.2918 5.575425 -3.054055
v -1.791038 6.131425 -2.022648
v -1.227794 5.575425 -2.372186
v -2.461038 6.131425 -2.426648
v -1.791038 6.131425 -2.022648
v -2.35509 5.575425 -3.092218
v -2.35509 5.575425 -3.092218
v -1.791038 6.131425 -2.022648
v -2.2918 5.575425 -3.054055
v -1.936732 5.575425 -1.405202
v -1.873442 5.575425 -1.367039
v -1.791038 6.131425 -2.022648
v -2.461038 6.131425 -2.426648
v -1.936732 5.575425 -1.405202
v -1.791038 6.131425 -2.022648
v -2.999833 5.575425 -2.087072
v -1.936732 5.575425 -1.405202
v -2.461038 6.131425 -2.426648
v -2.999833 5.575425 -2.087072
v -2.461038 6.131425 -2.426648
v -2.35509 5.575425 -3.092218
v -1.386396 -5.586747 6.968078
v 0.2099619 -5.586747 4.481352
v 0.2099619 5.575425 4.481352
v -1.386396 5.575425 6.968078
v 0.8154619 -5.586747 4.869852
v 1.420962 -5.586747 5.258352
v 1.420962 5.575425 5.258352
v 0.2099619 5.575425 4.481352
v 0.2099619 -5.586747 4.481352
v 0.8154619 -5.586747 4.869852
v 0.2099619 5.575425 4.481352
v 0.8154619 -5.586747 4.869852
v 1.420962 5.575425 5.258352
v 3.993462 -5.586747 1.250352
v 6.565962 -5.586747 -2.757648
v 6.565962 5.575425 -2.757648
v 1.420962 5.575425 5.258352
v 1.420962 -5.586747 5.258352
v 3.993462 -5.586747 1.250352
v 1.420962 5.575425 5.258352
v 3.993462 -5.586747 1.250352
v 6.565962 5.575425 -2.757648
v 6.052962 5.575425 -3.086648
v 6.565962 5.575425 -2.757648
v 6.565962 -5.586747 -2.757648
v 6.052962 -5.586747 -3.086648
v 6.052962 -5.586747 -3.086648
v 6.387962 -5.586747 -3.607648
v 6.387962 5.575425 -3.607648
v 6.052962 5.575425 -3.086648
v 0.9609619 5.575425 -7.091649
v 6.387962 5.575425 -3.607648
v 6.387962 -5.586747 -3.607648
v 0.9609619 -5.586747 -7.091649
v 0.6719619 5.575425 -6.641648
v 0.9609619 5.575425 -7.091649
v 0.9609619 -5.586747 -7.091649
v 0.6719619 -5.586747 -6.641648
v 0.03796188 5.575425 -7.049648
v 0.6719619 5.575425 -6.641648
v 0.6719619 -5.586747 -6.641648
v 0.03796188 -5.586747 -7.049648
v -6.825038 5.575425 3.641352
v -3.393538 -5.586747 -1.704148
v -6.825038 -5.586747 3.641352
v -3.393538 -5.586747 -1.704148
v 0.03796188 5.575425 -7.049648
v 0.03796188 -5.586747 -7.049648
v -6.825038 5.575425 3.641352
v 0.03796188 5.575425 -7.049648
v -3.393538 -5.586747 -1.704148
v -6.825038 -5.586747 3.641352
v -2.134208 -5.586747 6.652263
v -2.134208 5.575425 6.652263
v -6.825038 5.575425 3.641352
v -2.506038 -5.586747 7.233352
v -1.782038 -5.586747 7.696352
v -1.782038 6.512425 7.696352
v -2.506038 6.512425 7.233352
v -1.782038 -5.586747 7.696352
v -1.336038 -5.586747 7.000351
v -1.336038 6.512425 7.000351
v -1.782038 6.512425 7.696352
v -1.386396 6.512425 6.968078
v -1.336038 6.512425 7.000351
v -1.386396 5.575425 6.968078
v -1.386396 5.575425 6.968078
v -1.336038 6.512425 7.000351
v -1.336038 -5.586747 7.000351
v -1.386396 -5.586747 6.968078
v -2.060038 6.512425 6.536352
v -2.029902 5.575425 6.555665
v -2.060038 5.575425 6.536352
v -2.060038 6.512425 6.536352
v -1.386396 6.512425 6.968078
v -1.386396 5.575425 6.968078
v -2.029902 5.575425 6.555665
v -2.506038 6.512425 7.233352
v -2.134208 5.575425 6.652263
v -2.134208 -5.586747 6.652263
v -2.506038 -5.586747 7.233352
v -2.506038 6.512425 7.233352
v -2.134208 6.512425 6.652263
v -2.134208 5.575425 6.652263
v -2.134208 6.512425 6.652263
v -2.060038 6.512425 6.536352
v -2.060038 5.575425 6.536352
v -2.134208 5.575425 6.652263
v -2.506038 -5.586747 7.233352
v -2.134208 -5.586747 6.652263
v -6.825038 -5.586747 3.641352
v -3.393538 -5.586747 -1.704148
v 0.03796188 -5.586747 -7.049648
v 0.6719619 -5.586747 -6.641648
v 0.9609619 -5.586747 -7.091649
v 6.387962 -5.586747 -3.607648
v 6.052962 -5.586747 -3.086648
v 6.565962 -5.586747 -2.757648
v 3.993462 -5.586747 1.250352
v 1.420962 -5.586747 5.258352
v 0.8154619 -5.586747 4.869852
v 0.2099619 -5.586747 4.481352
v -1.386396 -5.586747 6.968078
v -1.336038 -5.586747 7.000351
v -1.782038 -5.586747 7.696352
vt 0.087075 0.176389
vt 0.483056 0.001934
vt 0.499397 0.019247
vt 0.023317 0.293096
vt 0.002833 0.271381
vt 0.125668 0.217255
vt 0.125668 0.217255
vt 0.087075 0.176389
vt 0.499397 0.019247
vt 0.675938 0.200834
vt 0.499397 0.019247
vt 0.525134 0.007888
vt 0.698168 0.191035
vt 0.168095 0.454913
vt 0.024276 0.294113
vt 0.125668 0.217255
vt 0.168095 0.454913
vt 0.018551 0.296627
vt 0.024276 0.294113
vt 0.024276 0.294113
vt 0.023317 0.293096
vt 0.125668 0.217255
vt 0.464930 0.265342
vt 0.125668 0.217255
vt 0.675938 0.200834
vt 0.464930 0.265342
vt 0.675938 0.200834
vt 0.696201 0.222229
vt 0.168095 0.454913
vt 0.125668 0.217255
vt 0.415277 0.287232
vt 0.415277 0.287232
vt 0.125668 0.217255
vt 0.464930 0.265342
vt 0.168095 0.454913
vt 0.415277 0.287232
vt 0.417173 0.289368
vt 0.451038 0.325242
vt 0.500690 0.303382
vt 0.696201 0.222229
vt 0.500690 0.303382
vt 0.498795 0.301247
vt 0.696201 0.222229
vt 0.168095 0.454913
vt 0.417173 0.289368
vt 0.451038 0.325242
vt 0.168095 0.454913
vt 0.451038 0.325242
vt 0.696201 0.222229
vt 0.498795 0.301247
vt 0.464930 0.265342
vt 0.696201 0.222229
vt 0.125668 0.217255
vt 0.499397 0.019247
vt 0.675938 0.200834
vt 0.182641 0.985184
vt 0.167593 0.961008
vt 0.188123 0.982776
vt 0.155161 0.997255
vt 0.133144 0.973861
vt 0.167593 0.961008
vt 0.182641 0.985184
vt 0.133144 0.973861
vt 0.166059 0.959381
vt 0.167593 0.961008
vt 0.254957 0.978292
vt 0.302445 0.959381
vt 0.283759 0.979918
vt 0.972531 0.754333
vt 0.923513 0.741007
vt 0.942256 0.719536
vt 0.941409 0.762910
vt 0.923513 0.741007
vt 0.974220 0.756401
vt 0.974220 0.756401
vt 0.923513 0.741007
vt 0.972531 0.754333
vt 0.081118 0.965364
vt 0.079320 0.963316
vt 0.108386 0.959381
vt 0.127431 0.981071
vt 0.081118 0.965364
vt 0.108386 0.959381
vt 0.113232 0.999753
vt 0.081118 0.965364
vt 0.127431 0.981071
vt 0.308782 0.979504
vt 0.322982 0.961564
vt 0.355866 0.959381
vt 0.483145 0.769084
vt 0.603754 0.719536
vt 0.564208 0.794269
vt 0.441926 0.844504
vt 0.390935 0.959381
vt 0.390935 0.959381
vt 0.390935 0.959381
vt 0.390935 0.959381
vt 0.390935 0.959381
vt 0.390935 0.959381
vt 0.390935 0.959381
vt 0.390935 0.959381
vt 0.390935 0.959381
vt 0.239761 0.799957
vt 0.436233 0.719536
vt 0.401218 0.792014
vt 0.002833 0.955082
vt 0.043295 0.880376
vt 0.239761 0.799957
vt 0.002833 0.955082
vt 0.239761 0.799957
vt 0.401218 0.792014
vt 0.819096 0.808190
vt 0.804533 0.791053
vt 0.837818 0.719536
vt 0.852182 0.736438
vt 0.891797 0.729855
vt 0.916336 0.719536
vt 0.883236 0.791038
vt 0.858357 0.801501
vt 0.866347 0.258393
vt 0.705382 0.074553
vt 0.739563 0.001934
vt 0.898324 0.183262
vt 0.195467 0.968704
vt 0.216672 0.959381
vt 0.246872 0.984567
vt 0.225960 0.993761
vt 0.681008 0.815085
vt 0.662890 0.793871
vt 0.693915 0.719536
vt 0.711785 0.740460
vt 0.002833 0.692266
vt 0.301924 0.600661
vt 0.041784 0.715012
vt 0.301924 0.600661
vt 0.530421 0.460348
vt 0.562078 0.486303
vt 0.002833 0.692266
vt 0.530421 0.460348
vt 0.301924 0.600661
vt 0.376771 0.959381
vt 0.376771 0.959381
vt 0.376771 0.959381
vt 0.376771 0.959381
vt 0.362606 0.959381
vt 0.362606 0.959381
vt 0.362606 0.959381
vt 0.362606 0.959381
vt 0.764000 0.733315
vt 0.797153 0.719536
vt 0.753199 0.800987
vt 0.719547 0.814973
vt 0.613323 0.802822
vt 0.611898 0.801132
vt 0.616686 0.796413
vt 0.616686 0.796413
vt 0.611898 0.801132
vt 0.654744 0.719536
vt 0.656149 0.721201
vt 0.632391 0.825427
vt 0.634879 0.817982
vt 0.635731 0.818992
vt 0.632391 0.825427
vt 0.613323 0.802822
vt 0.616686 0.796413
vt 0.634879 0.817982
vt 0.002833 0.973894
vt 0.033955 0.963838
vt 0.073595 0.987814
vt 0.046267 0.999732
vt 0.002833 0.973894
vt 0.030577 0.961795
vt 0.033955 0.963838
vt 0.030577 0.961795
vt 0.036111 0.959381
vt 0.039483 0.961427
vt 0.033955 0.963838
vt 0.405099 0.959381
vt 0.405099 0.959381
vt 0.405099 0.959381
vt 0.405099 0.959381
vt 0.405099 0.959381
vt 0.405099 0.959381
vt 0.405099 0.959381
vt 0.405099 0.959381
vt 0.405099 0.959381
vt 0.405099 0.959381
vt 0.405099 0.959381
vt 0.405099 0.959381
vt 0.405099 0.959381
vt 0.405099 0.959381
vt 0.405099 0.959381
vt 0.405099 0.959381
vt 0.405099 0.959381
vn 0 1 0
vn 0 1 0
vn 0 1 0
vn 0 1 0
vn 0 1 0
vn 0 1 0
vn 0 1 0
vn 0 1 0
vn 0 1 0
vn 0 1 0
vn 0 1 0
vn 0 1 0
vn 0 1 0
vn 0 1 0
vn 0 1 0
vn 0 1 0
vn 0 1 0
vn 0 1 0
vn 0 1 0
vn 0 1 0
vn 0 1 0
vn 0 1 0
vn 0 1 0
vn 0 1 0
vn 0 1 0
vn 0 1 0
vn 0 1 0
vn 0 1 0
vn 0 1 0
vn 0 1 0
vn 0 1 0
vn 0 1 0
vn 0 1 0
vn 0 1 0
vn 0 1 0
vn 0 1 0
vn 0 1 0
vn 0 1 0
vn 0 1 0
vn 0 1 0
vn 0 1 0
vn 0 1 0
vn 0 1 0
vn 0 1 0
vn 0 1 0
vn 0 1 0
vn 0 1 0
vn 0 1 0
vn 0 1 0
vn 0 1 0
vn 0 1 0
vn 0 1 0
vn 0 1 0
vn 0 1 0
vn 0 1 0
vn 0 1 0
vn 0 1 0
vn 0 1 0
vn 0 1 0
vn 0 1 0
vn 0 1 0
vn 0 1 0
vn 0 1 0
vn 0 1 0
vn 0 1 0
vn 0.748745 0.4561441 0.4809506
vn 0.748745 0.4561441 0.4809506
vn 0.748745 0.4561441 0.4809506
vn 0.367334 0.7324689 -0.5731972
vn 0.367334 0.7324689 -0.5731972
vn 0.367334 0.7324689 -0.5731972
vn 0.3433122 0.7469755 -0.5693544
vn 0.3433122 0.7469755 -0.5693544
vn 0.3433122 0.7469755 -0.5693544
vn 0.3433121 0.7469755 -0.5693543
vn 0.3433121 0.7469755 -0.5693543
vn 0.3433121 0.7469755 -0.5693543
vn -0.3497264 0.7357315 0.5799918
vn -0.3497264 0.7357315 0.5799918
vn -0.3497264 0.7357315 0.5799918
vn -0.3497264 0.7357315 0.5799918
vn -0.3497264 0.7357315 0.5799918
vn -0.3497264 0.7357315 0.5799918
vn -0.3747113 0.7199226 0.5842113
vn -0.3747113 0.7199226 0.5842113
vn -0.3747113 0.7199226 0.5842113
vn -0.7570725 0.4370546 -0.4856177
vn -0.7570725 0.4370546 -0.4856177
vn -0.7570725 0.4370546 -0.4856177
vn 0.841525 0 0.5402183
vn 0.841525 0 0.5402183
vn 0.841525 0 0.5402183
vn 0.841525 0 0.5402183
vn -0.5400198 0 0.8416523
vn -0.5400198 0 0.8416523
vn -0.5400198 0 0.8416523
vn -0.5400198 0 0.8416523
vn -0.5400198 0 0.8416523
vn -0.5400198 0 0.8416523
vn -0.5400198 -3.511189E-11 0.8416523
vn -0.5400198 -3.511189E-11 0.8416523
vn -0.5400198 -3.511189E-11 0.8416523
vn 0.8415671 0 0.5401525
vn 0.8415671 0 0.5401525
vn 0.8415671 0 0.5401525
vn 0.8415671 0 0.5401525
vn 0.8415671 0 0.5401525
vn 0.8415671 0 0.5401525
vn 0.8415671 -2.2534E-11 0.5401525
vn 0.8415671 -2.2534E-11 0.5401525
vn 0.8415671 -2.2534E-11 0.5401525
vn 0.539845 0 -0.8417645
vn 0.539845 0 -0.8417645
vn 0.539845 0 -0.8417645
vn 0.539845 0 -0.8417645
vn 0.841126 0 0.5408392
vn 0.841126 0 0.5408392
vn 0.841126 0 0.5408392
vn 0.841126 0 0.5408392
vn 0.5402324 0 -0.8415158
vn 0.5402324 0 -0.8415158
vn 0.5402324 0 -0.8415158
vn 0.5402324 0 -0.8415158
vn -0.8414214 0 -0.5403795
vn -0.8414214 0 -0.5403795
vn -0.8414214 0 -0.5403795
vn -0.8414214 0 -0.5403795
vn 0.5411597 0 -0.8409198
vn 0.5411597 0 -0.8409198
vn 0.5411597 0 -0.8409198
vn 0.5411597 0 -0.8409198
vn -0.8415287 0 -0.5402125
vn -0.8415287 0 -0.5402125
vn -0.8415287 0 -0.5402125
vn -0.8415287 0 -0.5402125
vn -0.8415287 0 -0.5402125
vn -0.8415287 0 -0.5402125
vn -0.8415287 0 -0.5402125
vn -0.8415287 0 -0.5402125
vn -0.8415287 0 -0.5402125
vn -0.5401707 0 0.8415555
vn -0.5401707 0 0.8415555
vn -0.5401707 0 0.8415555
vn -0.5401707 0 0.8415555
vn -0.5387565 0 0.8424615
vn -0.5387565 0 0.8424615
vn -0.5387565 0 0.8424615
vn -0.5387565 0 0.8424615
vn 0.8419637 0 0.5395342
vn 0.8419637 0 0.5395342
vn 0.8419637 0 0.5395342
vn 0.8419637 0 0.5395342
vn 0.5395815 0 -0.8419334
vn 0.5395815 0 -0.8419334
vn 0.5395815 0 -0.8419334
vn 0.5395815 0 -0.8419334
vn 0.5395815 0 -0.8419334
vn 0.5395815 0 -0.8419334
vn 0.5395815 0 -0.8419334
vn 0.5395817 0 -0.8419333
vn 0.5395817 0 -0.8419333
vn 0.5395817 0 -0.8419333
vn 0.5395816 -2.150505E-09 -0.8419333
vn 0.5395816 -1.075252E-09 -0.8419333
vn 0.5395816 0 -0.8419333
vn 0.5395816 -1.075252E-09 -0.8419333
vn -0.8423153 0 -0.5389851
vn -0.8423153 0 -0.5389851
vn -0.8423153 0 -0.5389851
vn -0.8423153 0 -0.5389851
vn -0.8423153 0 -0.5389851
vn -0.8423153 0 -0.5389851
vn -0.8423153 0 -0.5389851
vn -0.8423153 0 -0.5389851
vn -0.8423153 0 -0.5389851
vn -0.8423153 0 -0.5389851
vn -0.8423153 0 -0.5389851
vn 0 -1 0
vn 0 -1 0
vn 0 -1 0
vn 0 -1 0
vn 0 -1 0
vn 0 -1 0
vn 0 -1 0
vn 0 -1 0
vn 0 -1 0
vn 0 -1 0
vn 0 -1 0
vn 0 -1 0
vn 0 -1 0
vn 0 -1 0
vn 0 -1 0
vn 0 -1 0
vn 0 -1 0

g CDNNDG02_0010980
f 1/1/1 2/2/2 3/3/3
f 4/4/4 5/5/5 6/6/6
f 7/7/7 8/8/8 9/9/9
f 13/13/13 10/10/10 12/12/12
f 12/12/12 10/10/10 11/11/11
f 14/14/14 15/15/15 16/16/16
f 17/17/17 18/18/18 19/19/19
f 20/20/20 21/21/21 22/22/22
f 23/23/23 24/24/24 25/25/25
f 26/26/26 27/27/27 28/28/28
f 29/29/29 30/30/30 31/31/31
f 32/32/32 33/33/33 34/34/34
f 35/35/35 36/36/36 37/37/37
f 38/38/38 39/39/39 40/40/40
f 41/41/41 42/42/42 43/43/43
f 44/44/44 45/45/45 46/46/46
f 47/47/47 48/48/48 49/49/49
f 50/50/50 51/51/51 52/52/52
f 53/53/53 54/54/54 55/55/55
f 56/56/56 57/57/57 58/58/58
f 62/62/62 59/59/59 60/60/60
f 61/61/61 62/62/62 60/60/60
f 63/63/63 64/64/64 65/65/65
f 66/66/66 67/67/67 68/68/68
f 69/69/69 70/70/70 71/71/71
f 72/72/72 73/73/73 74/74/74
f 75/75/75 76/76/76 77/77/77
f 78/78/78 79/79/79 80/80/80
f 81/81/81 82/82/82 83/83/83
f 84/84/84 85/85/85 86/86/86
f 87/87/87 88/88/88 89/89/89
f 91/91/91 92/92/92 90/90/90
f 90/90/90 92/92/92 93/93/93
f 94/94/94 95/95/95 96/96/96
f 97/97/97 98/98/98 99/99/99
f 100/100/100 101/101/101 102/102/102
f 103/103/103 104/104/104 105/105/105
f 106/106/106 107/107/107 108/108/108
f 109/109/109 110/110/110 111/111/111
f 114/114/114 112/112/112 113/113/113
f 112/112/112 114/114/114 115/115/115
f 117/117/117 118/118/118 119/119/119
f 116/116/116 117/117/117 119/119/119
f 123/123/123 120/120/120 121/121/121
f 121/121/121 122/122/122 123/123/123
f 124/124/124 126/126/126 127/127/127
f 124/124/124 125/125/125 126/126/126
f 130/130/130 128/128/128 129/129/129
f 128/128/128 130/130/130 131/131/131
f 132/132/132 133/133/133 134/134/134
f 135/135/135 136/136/136 137/137/137
f 138/138/138 139/139/139 140/140/140
f 144/144/144 141/141/141 143/143/143
f 143/143/143 141/141/141 142/142/142
f 145/145/145 147/147/147 148/148/148
f 147/147/147 145/145/145 146/146/146
f 150/150/150 151/151/151 149/149/149
f 149/149/149 151/151/151 152/152/152
f 153/153/153 154/154/154 155/155/155
f 158/158/158 156/156/156 157/157/157
f 156/156/156 158/158/158 159/159/159
f 160/160/160 161/161/161 162/162/162
f 166/166/166 163/163/163 164/164/164
f 164/164/164 165/165/165 166/166/166
f 168/168/168 169/169/169 170/170/170
f 167/167/167 168/168/168 170/170/170
f 171/171/171 172/172/172 173/173/173
f 174/174/174 176/176/176 177/177/177
f 174/174/174 175/175/175 176/176/176
f 192/192/192 193/193/193 194/194/194
f 179/179/179 192/192/192 194/194/194
f 178/178/178 179/179/179 194/194/194
f 179/179/179 180/180/180 191/191/191
f 192/192/192 179/179/179 191/191/191
f 180/180/180 181/181/181 191/191/191
f 188/188/188 190/190/190 191/191/191
f 181/181/181 182/182/182 183/183/183
f 181/181/181 183/183/183 188/188/188
f 183/183/183 184/184/184 185/185/185
f 188/188/188 189/189/189 190/190/190
f 183/183/183 185/185/185 186/186/186
f 188/188/188 183/183/183 186/186/186
f 181/181/181 188/188/188 191/191/191
f 186/186/186 187/187/187 188/188/188
