v 5.891015 8.469545 -1.865972
v 6.727015 8.469545 -3.016972
v 6.381015 8.469545 -3.267972
v 5.545015 8.469545 -2.116972
v 0.4470146 7.732545 -6.268972
v 2.206015 7.732545 -8.791972
v 0.8150146 6.274546 -9.693972
v 0.4470146 7.732545 -6.268972
v 3.385015 6.274546 -8.026972
v 2.206015 7.732545 -8.791972
v 3.243015 7.732545 -4.479972
v 4.847014 7.732545 -7.078972
v 3.612015 6.274546 -7.879972
v 3.243015 7.732545 -4.479972
v 6.170015 6.274546 -6.219972
v 4.847014 7.732545 -7.078972
v -1.522985 8.374545 -5.918972
v 0.4470146 7.732545 -6.268972
v -0.6209854 6.274546 -10.62497
v 0.4470146 7.732545 -6.268972
v 3.612015 6.274546 -7.879972
v 3.385015 6.274546 -8.026972
v -0.6209854 6.274546 -10.62497
v 0.4470146 7.732545 -6.268972
v 0.8150146 6.274546 -9.693972
v 0.4470146 7.732545 -6.268972
v 3.243015 7.732545 -4.479972
v 3.612015 6.274546 -7.879972
v -1.522985 8.374545 -5.918972
v 3.243015 7.732545 -4.479972
v 0.4470146 7.732545 -6.268972
v 6.170015 6.274546 -6.219972
v 7.532015 8.374545 -0.1599718
v 9.896014 6.274546 -3.802972
v 5.70244 8.100685 -2.00277
v 7.532015 8.374545 -0.1599718
v 5.891015 8.10742 -1.865972
v 5.891015 8.10742 -1.865972
v 7.532015 8.374545 -0.1599718
v 6.727015 7.426469 -3.016972
v 6.170015 6.274546 -6.219972
v 6.381015 7.414112 -3.267972
v 6.727015 7.426469 -3.016972
v 6.170015 6.274546 -6.219972
v 6.727015 7.426469 -3.016972
v 7.532015 8.374545 -0.1599718
v 3.243015 7.732545 -4.479972
v 5.563622 8.079906 -2.142591
v 6.381015 7.414112 -3.267972
v 3.243015 7.732545 -4.479972
v 6.381015 7.414112 -3.267972
v 6.170015 6.274546 -6.219972
v -1.522985 8.374545 -5.918972
v 7.532015 8.374545 -0.1599718
v 5.545015 8.095008 -2.116972
v 5.545015 8.095008 -2.116972
v 7.532015 8.374545 -0.1599718
v 5.70244 8.100685 -2.00277
v -1.522985 8.374545 -5.918972
v 5.545015 8.095008 -2.116972
v 3.243015 7.732545 -4.479972
v 3.243015 7.732545 -4.479972
v 5.545015 8.095008 -2.116972
v 5.563622 8.079906 -2.142591
v -9.967985 6.274546 3.784028
v -6.003985 8.374545 1.155028
v -1.522985 8.374545 -5.918972
v -9.967985 6.274546 3.784028
v -1.522985 8.374545 -5.918972
v -0.6209854 6.274546 -10.62497
v -6.003985 8.374545 1.155028
v 2.969015 8.374545 6.874028
v 7.532015 8.374545 -0.1599718
v -1.522985 8.374545 -5.918972
v -6.003985 8.374545 1.155028
v 0.5480146 6.274546 10.60603
v 2.969015 8.374545 6.874028
v -9.967985 6.274546 3.784028
v 0.5480146 6.274546 10.60603
v -6.003985 8.374545 1.155028
v 5.891015 8.10742 -1.865972
v 6.727015 7.426469 -3.016972
v 6.727015 8.469545 -3.016972
v 5.891015 8.469545 -1.865972
v 5.891015 8.10742 -1.865972
v 6.727015 8.469545 -3.016972
v 6.381015 8.469545 -3.267972
v 6.727015 8.469545 -3.016972
v 6.727015 7.426469 -3.016972
v 6.381015 7.414112 -3.267972
v 5.545015 8.469545 -2.116972
v 5.563622 8.079906 -2.142591
v 5.545015 8.095008 -2.116972
v 5.563622 8.079906 -2.142591
v 6.381015 8.469545 -3.267972
v 6.381015 7.414112 -3.267972
v 5.545015 8.469545 -2.116972
v 6.381015 8.469545 -3.267972
v 5.563622 8.079906 -2.142591
v 5.70244 8.100685 -2.00277
v 5.891015 8.10742 -1.865972
v 5.891015 8.469545 -1.865972
v 5.545015 8.469545 -2.116972
v 5.545015 8.095008 -2.116972
v 5.70244 8.100685 -2.00277
v 5.545015 8.469545 -2.116972
v 5.70244 8.100685 -2.00277
v 5.891015 8.469545 -1.865972
v 0.8150146 6.274546 -9.693972
v 2.206015 7.732545 -8.791972
v 2.206015 -7.790456 -8.791972
v 0.8150146 -7.790456 -9.693972
v 2.206015 7.732545 -8.791972
v 3.385015 6.274546 -8.026972
v 3.385015 -7.790456 -8.026972
v 2.206015 -7.790456 -8.791972
v 3.612015 6.274546 -7.879972
v 4.847014 7.732545 -7.078972
v 4.847014 -7.790456 -7.078972
v 3.612015 -7.790456 -7.879972
v 4.847014 7.732545 -7.078972
v 5.508514 -7.790456 -6.649472
v 4.847014 -7.790456 -7.078972
v 5.508514 -7.790456 -6.649472
v 6.170015 6.274546 -6.219972
v 6.170015 -7.790456 -6.219972
v 4.847014 7.732545 -7.078972
v 6.170015 6.274546 -6.219972
v 5.508514 -7.790456 -6.649472
v -0.6209854 6.274546 -10.62497
v 0.8150146 6.274546 -9.693972
v 0.8150146 -7.790456 -9.693972
v -0.6209854 -7.790456 -10.62497
v 6.170015 6.274546 -6.219972
v 9.896014 6.274546 -3.802972
v 9.896014 -7.790456 -3.802972
v 6.170015 -7.790456 -6.219972
v 3.385015 6.274546 -8.026972
v 3.498515 -7.790456 -7.953472
v 3.385015 -7.790456 -8.026972
v 3.498515 -7.790456 -7.953472
v 3.612015 6.274546 -7.879972
v 3.612015 -7.790456 -7.879972
v 3.385015 6.274546 -8.026972
v 3.612015 6.274546 -7.879972
v 3.498515 -7.790456 -7.953472
v 7.532015 -7.790456 -0.1599718
v 9.896014 -7.790456 -3.802972
v 9.896014 6.274546 -3.802972
v 7.532015 8.374545 -0.1599718
v 2.969015 -7.790456 6.874028
v 7.532015 -7.790456 -0.1599718
v 7.532015 8.374545 -0.1599718
v 2.969015 8.374545 6.874028
v 0.5480146 -7.790456 10.60603
v 2.969015 -7.790456 6.874028
v 2.969015 8.374545 6.874028
v 0.5480146 6.274546 10.60603
v -9.967985 6.274546 3.784028
v -0.6209854 6.274546 -10.62497
v -0.6209854 -7.790456 -10.62497
v -9.967985 -7.790456 3.784028
v -4.709985 -7.790456 7.195028
v 0.5480146 -7.790456 10.60603
v 0.5480146 6.274546 10.60603
v -9.967985 6.274546 3.784028
v -9.967985 -7.790456 3.784028
v -4.709985 -7.790456 7.195028
v -9.967985 6.274546 3.784028
v -4.709985 -7.790456 7.195028
v 0.5480146 6.274546 10.60603
v 2.206015 -7.790456 -8.791972
v 3.385015 -7.790456 -8.026972
v 3.498515 -7.790456 -7.953472
v 3.612015 -7.790456 -7.879972
v 4.847014 -7.790456 -7.078972
v 5.508514 -7.790456 -6.649472
v 6.170015 -7.790456 -6.219972
v 9.896014 -7.790456 -3.802972
v 7.532015 -7.790456 -0.1599718
v 2.969015 -7.790456 6.874028
v 0.5480146 -7.790456 10.60603
v -4.709985 -7.790456 7.195028
v -9.967985 -7.790456 3.784028
v -0.6209854 -7.790456 -10.62497
v 0.8150146 -7.790456 -9.693972
vt 0.754224 0.828803
vt 0.784009 0.812128
vt 0.790513 0.818999
vt 0.760728 0.835673
vt 0.640277 0.815204
vt 0.573525 0.849698
vt 0.533026 0.812128
vt 0.390169 0.877198
vt 0.427235 0.812128
vt 0.457255 0.843147
vt 0.750303 0.815270
vt 0.681614 0.846560
vt 0.643625 0.812128
vt 0.460829 0.876885
vt 0.497517 0.812128
vt 0.529803 0.846012
vt 0.769698 0.285375
vt 0.751362 0.328568
vt 0.619048 0.311223
vt 0.751362 0.328568
vt 0.689050 0.399210
vt 0.685302 0.394492
vt 0.619048 0.311223
vt 0.751362 0.328568
vt 0.642790 0.341072
vt 0.751362 0.328568
vt 0.797043 0.386781
vt 0.689050 0.399210
vt 0.769698 0.285375
vt 0.797043 0.386781
vt 0.751362 0.328568
vt 0.731383 0.452380
vt 0.916829 0.474033
vt 0.793018 0.529823
vt 0.865709 0.436797
vt 0.916829 0.474033
vt 0.869302 0.440703
vt 0.869302 0.440703
vt 0.916829 0.474033
vt 0.829896 0.460287
vt 0.731383 0.452380
vt 0.823309 0.453126
vt 0.829896 0.460287
vt 0.731383 0.452380
vt 0.829896 0.460287
vt 0.916829 0.474033
vt 0.797043 0.386781
vt 0.861831 0.433972
vt 0.823309 0.453126
vt 0.797043 0.386781
vt 0.823309 0.453126
vt 0.731383 0.452380
vt 0.769698 0.285375
vt 0.916829 0.474033
vt 0.862709 0.433536
vt 0.862709 0.433536
vt 0.916829 0.474033
vt 0.865709 0.436797
vt 0.769698 0.285375
vt 0.862709 0.433536
vt 0.797043 0.386781
vt 0.797043 0.386781
vt 0.862709 0.433536
vt 0.861831 0.433972
vt 0.385751 0.812128
vt 0.340853 0.906248
vt 0.151772 0.996228
vt 0.385751 0.812128
vt 0.151772 0.996228
vt 0.001536 0.999416
vt 0.155205 0.282653
vt 0.001536 0.096371
vt 0.190279 0.001189
vt 0.345017 0.189186
vt 0.614573 0.471626
vt 0.345622 0.338267
vt 0.461091 0.285375
vt 0.528223 0.555956
vt 0.345622 0.338267
vt 0.614573 0.471626
vt 0.794163 0.830697
vt 0.819184 0.812128
vt 0.826784 0.816681
vt 0.796790 0.832286
vt 0.794163 0.830697
vt 0.826784 0.816681
vt 0.889131 0.812128
vt 0.895110 0.818660
vt 0.883223 0.822686
vt 0.877112 0.816210
vt 0.873423 0.814586
vt 0.868114 0.812384
vt 0.868958 0.812128
vt 0.868114 0.812384
vt 0.843562 0.830522
vt 0.831029 0.823582
vt 0.873423 0.814586
vt 0.843562 0.830522
vt 0.868114 0.812384
vt 0.901735 0.815905
vt 0.898618 0.812530
vt 0.901052 0.812128
vt 0.906858 0.818311
vt 0.904338 0.818724
vt 0.901735 0.815905
vt 0.906858 0.818311
vt 0.901735 0.815905
vt 0.901052 0.812128
vt 0.191108 0.315240
vt 0.231731 0.337787
vt 0.047512 0.404581
vt 0.024888 0.376148
vt 0.231731 0.337787
vt 0.233648 0.368690
vt 0.066700 0.428681
vt 0.047512 0.404581
vt 0.237399 0.373411
vt 0.275522 0.392812
vt 0.090477 0.458564
vt 0.070387 0.433321
vt 0.275522 0.392812
vt 0.101250 0.472086
vt 0.090477 0.458564
vt 0.101250 0.472086
vt 0.279759 0.426610
vt 0.112023 0.485607
vt 0.275522 0.392812
vt 0.279759 0.426610
vt 0.101250 0.472086
vt 0.167351 0.285375
vt 0.191108 0.315240
vt 0.024888 0.376148
vt 0.001536 0.346795
vt 0.279759 0.426610
vt 0.341433 0.504097
vt 0.172643 0.561764
vt 0.112023 0.485607
vt 0.233648 0.368690
vt 0.068543 0.431001
vt 0.066700 0.428681
vt 0.068543 0.431001
vt 0.237399 0.373411
vt 0.070387 0.433321
vt 0.233648 0.368690
vt 0.237399 0.373411
vt 0.068543 0.431001
vt 0.287436 0.610153
vt 0.384185 0.564804
vt 0.489127 0.627010
vt 0.406416 0.682744
vt 0.100640 0.697680
vt 0.287436 0.610153
vt 0.406416 0.682744
vt 0.215863 0.772028
vt 0.001536 0.744118
vt 0.100640 0.697680
vt 0.215863 0.772028
vt 0.099800 0.809447
vt 0.898939 0.091284
vt 0.514264 0.278955
vt 0.348694 0.185653
vt 0.726776 0.001189
vt 0.582836 0.687442
vt 0.493088 0.580563
vt 0.594564 0.564804
vt 0.777215 0.782327
vt 0.672580 0.794314
vt 0.582836 0.687442
vt 0.777215 0.782327
vt 0.582836 0.687442
vt 0.594564 0.564804
vt 0.910906 0.812128
vt 0.910906 0.812128
vt 0.910906 0.812128
vt 0.910906 0.812128
vt 0.910906 0.812128
vt 0.910906 0.812128
vt 0.910906 0.812128
vt 0.910906 0.812128
vt 0.910906 0.812128
vt 0.910906 0.812128
vt 0.910906 0.812128
vt 0.910906 0.812128
vt 0.910906 0.812128
vt 0.910906 0.812128
vt 0.910906 0.812128
vn 0 1 0
vn 0 1 0
vn 0 1 0
vn 0 1 0
vn -0.5419037 0.7507342 -0.3778076
vn -0.5419037 0.7507342 -0.3778076
vn -0.5419037 0.7507342 -0.3778076
vn 0.590755 0.6938118 0.411866
vn 0.590755 0.6938118 0.411866
vn 0.590755 0.6938118 0.411866
vn -0.598927 0.7103922 -0.3696341
vn -0.598927 0.7103922 -0.3696341
vn -0.598927 0.7103922 -0.3696341
vn 0.5777001 0.7342659 0.3565336
vn 0.5777001 0.7342659 0.3565336
vn 0.5777001 0.7342659 0.3565336
vn 0.2308522 0.9042352 -0.3592574
vn 0.2308522 0.9042352 -0.3592574
vn 0.2308522 0.9042352 -0.3592574
vn 0.2330243 0.903446 -0.3598402
vn 0.2330243 0.903446 -0.3598402
vn 0.2330243 0.903446 -0.3598402
vn 0.2331239 0.9035252 -0.3595767
vn 0.2331239 0.9035252 -0.3595767
vn 0.2331239 0.9035252 -0.3595767
vn 0.231655 0.9029152 -0.3620499
vn 0.231655 0.9029152 -0.3620499
vn 0.231655 0.9029152 -0.3620499
vn 0.2305499 0.9038883 -0.3603228
vn 0.2305499 0.9038883 -0.3603228
vn 0.2305499 0.9038883 -0.3603228
vn 0.2369137 0.9002695 -0.3652215
vn 0.2369137 0.9002695 -0.3652215
vn 0.2369137 0.9002695 -0.3652215
vn 0.2323517 0.9016755 -0.3646834
vn 0.2323517 0.9016755 -0.3646834
vn 0.2323517 0.9016755 -0.3646834
vn 0.2323518 0.9016755 -0.3646834
vn 0.2323518 0.9016755 -0.3646834
vn 0.2323518 0.9016755 -0.3646834
vn 0.2323518 0.9016755 -0.3646834
vn 0.2323518 0.9016755 -0.3646834
vn 0.2323518 0.9016755 -0.3646834
vn 0.2323518 0.9016755 -0.3646834
vn 0.2323518 0.9016755 -0.3646834
vn 0.2323518 0.9016755 -0.3646834
vn 0.2323518 0.9016755 -0.3646834
vn 0.2323518 0.9016755 -0.3646834
vn 0.2323518 0.9016755 -0.3646834
vn 0.2323518 0.9016755 -0.3646834
vn 0.2323518 0.9016755 -0.3646834
vn 0.2323518 0.9016755 -0.3646834
vn 0.2313867 0.9022745 -0.3638143
vn 0.2313867 0.9022745 -0.3638143
vn 0.2313867 0.9022745 -0.3638143
vn 0.2313868 0.9022745 -0.3638144
vn 0.2313868 0.9022745 -0.3638144
vn 0.2313868 0.9022745 -0.3638144
vn 0.2313867 0.9022745 -0.3638143
vn 0.2313867 0.9022745 -0.3638143
vn 0.2313867 0.9022745 -0.3638143
vn 0.2313868 0.9022745 -0.3638144
vn 0.2313868 0.9022745 -0.3638144
vn 0.2313868 0.9022745 -0.3638144
vn -0.6202437 0.6789215 -0.3928911
vn -0.6202437 0.6789215 -0.3928911
vn -0.6202437 0.6789215 -0.3928911
vn -0.6363218 0.6516977 -0.4127768
vn -0.6363218 0.6516977 -0.4127768
vn -0.6363218 0.6516977 -0.4127768
vn 0 1 0
vn 0 1 0
vn 0 1 0
vn 0 1 0
vn -0.2294493 0.9042964 0.3600015
vn -0.2294493 0.9042964 0.3600015
vn -0.2294493 0.9042964 0.3600015
vn -0.2360383 0.9010548 0.3638491
vn -0.2360383 0.9010548 0.3638491
vn -0.2360383 0.9010548 0.3638491
vn 0.8091007 0 0.58767
vn 0.8091007 0 0.58767
vn 0.8091007 0 0.58767
vn 0.8091007 0 0.58767
vn 0.8091007 0 0.58767
vn 0.8091007 0 0.58767
vn 0.5871975 0 -0.8094437
vn 0.5871975 0 -0.8094437
vn 0.5871975 0 -0.8094437
vn 0.5871975 0 -0.8094437
vn -0.8091007 0 -0.58767
vn -0.8091007 0 -0.58767
vn -0.8091007 0 -0.58767
vn -0.8091007 0 -0.58767
vn -0.8091007 0 -0.58767
vn -0.8091007 0 -0.58767
vn -0.8091007 6.565124E-09 -0.58767
vn -0.8091007 6.565124E-09 -0.58767
vn -0.8091007 6.565124E-09 -0.58767
vn -0.5871975 0 0.8094437
vn -0.5871975 0 0.8094437
vn -0.5871975 0 0.8094437
vn -0.5871976 0 0.8094437
vn -0.5871976 0 0.8094437
vn -0.5871976 0 0.8094437
vn -0.5871975 8.207754E-09 0.8094437
vn -0.5871975 8.207754E-09 0.8094437
vn -0.5871975 8.207754E-09 0.8094437
vn 0.5440764 0 -0.8390357
vn 0.5440764 0 -0.8390357
vn 0.5440764 0 -0.8390357
vn 0.5440764 0 -0.8390357
vn 0.5443129 0 -0.8388823
vn 0.5443129 0 -0.8388823
vn 0.5443129 0 -0.8388823
vn 0.5443129 0 -0.8388823
vn 0.5441523 0 -0.8389865
vn 0.5441523 0 -0.8389865
vn 0.5441523 0 -0.8389865
vn 0.5441523 0 -0.8389865
vn 0.5445649 0 -0.8387187
vn 0.5445649 0 -0.8387187
vn 0.5445649 0 -0.8387187
vn 0.5445649 0 -0.8387187
vn 0.5445649 0 -0.8387187
vn 0.5445649 0 -0.8387187
vn 0.5445649 2.639981E-11 -0.8387187
vn 0.5445649 2.639981E-11 -0.8387187
vn 0.5445649 2.639981E-11 -0.8387187
vn 0.5440021 0 -0.8390839
vn 0.5440021 0 -0.8390839
vn 0.5440021 0 -0.8390839
vn 0.5440021 0 -0.8390839
vn 0.5442125 0 -0.8389474
vn 0.5442125 0 -0.8389474
vn 0.5442125 0 -0.8389474
vn 0.5442125 0 -0.8389474
vn 0.5435579 0 -0.8393717
vn 0.5435579 0 -0.8393717
vn 0.5435579 0 -0.8393717
vn 0.5435579 0 -0.8393717
vn 0.5435579 0 -0.8393717
vn 0.5435579 0 -0.8393717
vn 0.5435579 -1.12475E-12 -0.8393717
vn 0.5435579 -1.12475E-12 -0.8393717
vn 0.5435579 -1.12475E-12 -0.8393717
vn 0.838859 0 0.5443488
vn 0.838859 0 0.5443488
vn 0.838859 0 0.5443488
vn 0.838859 0 0.5443488
vn 0.8389392 0 0.5442252
vn 0.8389392 0 0.5442252
vn 0.8389392 0 0.5442252
vn 0.8389392 0 0.5442252
vn 0.8389363 0 0.5442296
vn 0.8389363 0 0.5442296
vn 0.8389363 0 0.5442296
vn 0.8389363 0 0.5442296
vn -0.8389447 0 -0.5442166
vn -0.8389447 0 -0.5442166
vn -0.8389447 0 -0.5442166
vn -0.8389447 0 -0.5442166
vn -0.5442367 0 0.8389317
vn -0.5442367 0 0.8389317
vn -0.5442367 0 0.8389317
vn -0.5442367 0 0.8389317
vn -0.5442367 0 0.8389317
vn -0.5442367 0 0.8389317
vn -0.5442367 2.890136E-11 0.8389317
vn -0.5442367 2.890136E-11 0.8389317
vn -0.5442367 2.890136E-11 0.8389317
vn 0 -1 0
vn 0 -1 0
vn 0 -1 0
vn 0 -1 0
vn 0 -1 0
vn 0 -1 0
vn 0 -1 0
vn 0 -1 0
vn 0 -1 0
vn 0 -1 0
vn 0 -1 0
vn 0 -1 0
vn 0 -1 0
vn 0 -1 0
vn 0 -1 0

g CDNNDG02_0015270
f 1/1/1 3/3/3 4/4/4
f 1/1/1 2/2/2 3/3/3
f 5/5/5 6/6/6 7/7/7
f 8/8/8 9/9/9 10/10/10
f 11/11/11 12/12/12 13/13/13
f 14/14/14 15/15/15 16/16/16
f 17/17/17 18/18/18 19/19/19
f 20/20/20 21/21/21 22/22/22
f 23/23/23 24/24/24 25/25/25
f 26/26/26 27/27/27 28/28/28
f 29/29/29 30/30/30 31/31/31
f 32/32/32 33/33/33 34/34/34
f 35/35/35 36/36/36 37/37/37
f 38/38/38 39/39/39 40/40/40
f 41/41/41 42/42/42 43/43/43
f 44/44/44 45/45/45 46/46/46
f 47/47/47 48/48/48 49/49/49
f 50/50/50 51/51/51 52/52/52
f 53/53/53 54/54/54 55/55/55
f 56/56/56 57/57/57 58/58/58
f 59/59/59 60/60/60 61/61/61
f 62/62/62 63/63/63 64/64/64
f 65/65/65 66/66/66 67/67/67
f 68/68/68 69/69/69 70/70/70
f 71/71/71 72/72/72 74/74/74
f 73/73/73 74/74/74 72/72/72
f 75/75/75 76/76/76 77/77/77
f 78/78/78 79/79/79 80/80/80
f 81/81/81 82/82/82 83/83/83
f 84/84/84 85/85/85 86/86/86
f 89/89/89 87/87/87 88/88/88
f 87/87/87 89/89/89 90/90/90
f 91/91/91 92/92/92 93/93/93
f 94/94/94 95/95/95 96/96/96
f 97/97/97 98/98/98 99/99/99
f 100/100/100 101/101/101 102/102/102
f 103/103/103 104/104/104 105/105/105
f 106/106/106 107/107/107 108/108/108
f 109/109/109 111/111/111 112/112/112
f 109/109/109 110/110/110 111/111/111
f 114/114/114 115/115/115 116/116/116
f 113/113/113 114/114/114 116/116/116
f 119/119/119 117/117/117 118/118/118
f 117/117/117 119/119/119 120/120/120
f 121/121/121 122/122/122 123/123/123
f 124/124/124 125/125/125 126/126/126
f 127/127/127 128/128/128 129/129/129
f 132/132/132 133/133/133 131/131/131
f 130/130/130 131/131/131 133/133/133
f 135/135/135 136/136/136 137/137/137
f 134/134/134 135/135/135 137/137/137
f 138/138/138 139/139/139 140/140/140
f 141/141/141 142/142/142 143/143/143
f 144/144/144 145/145/145 146/146/146
f 148/148/148 149/149/149 147/147/147
f 147/147/147 149/149/149 150/150/150
f 151/151/151 153/153/153 154/154/154
f 151/151/151 152/152/152 153/153/153
f 156/156/156 157/157/157 158/158/158
f 155/155/155 156/156/156 158/158/158
f 159/159/159 161/161/161 162/162/162
f 159/159/159 160/160/160 161/161/161
f 163/163/163 164/164/164 165/165/165
f 166/166/166 167/167/167 168/168/168
f 169/169/169 170/170/170 171/171/171
f 186/186/186 172/172/172 184/184/184
f 183/183/183 181/181/181 182/182/182
f 185/185/185 186/186/186 184/184/184
f 184/184/184 172/172/172 183/183/183
f 183/183/183 174/174/174 181/181/181
f 181/181/181 175/175/175 180/180/180
f 175/175/175 176/176/176 180/180/180
f 176/176/176 177/177/177 180/180/180
f 183/183/183 172/172/172 173/173/173
f 177/177/177 178/178/178 180/180/180
f 174/174/174 175/175/175 181/181/181
f 174/174/174 183/183/183 173/173/173
f 180/180/180 178/178/178 179/179/179
