v -7.957026 6.551688 5.272825
v -7.904026 6.551688 5.957826
v -6.663026 6.551688 6.757825
v -7.957026 6.551688 5.272825
v -6.663026 6.551688 6.757825
v -5.725026 6.551688 6.461825
v -8.505026 6.551688 4.916825
v -7.957026 6.551688 5.272825
v -2.639026 6.551688 -4.124175
v -5.725026 6.551688 6.461825
v -1.959026 6.551688 8.904825
v 0.9899741 6.551688 -1.770175
v -5.725026 6.551688 6.461825
v 0.9899741 6.551688 -1.770175
v -2.639026 6.551688 -4.124175
v -7.957026 6.551688 5.272825
v -1.959026 6.551688 8.904825
v 4.706974 6.551688 -1.369175
v 0.9899741 6.551688 -1.770175
v 0.9899741 6.551688 -1.770175
v 4.706974 6.551688 -1.369175
v 5.124974 6.551688 -2.015175
v 5.124974 6.551688 -2.015175
v 7.387974 6.551688 -5.502174
v 5.184974 6.551688 -8.096174
v 5.184974 6.551688 -8.096174
v 7.387974 6.551688 -5.502174
v 7.919974 6.551688 -6.322175
v 5.120974 6.551688 -8.137175
v 5.124974 6.551688 -2.015175
v 5.184974 6.551688 -8.096174
v 0.9899741 6.551688 -1.770175
v 5.124974 6.551688 -2.015175
v 5.120974 6.551688 -8.137175
v 7.919974 1.182688 -6.322175
v 10.98797 1.182688 -11.05117
v 8.253974 1.182688 -12.82517
v 5.184974 1.182688 -8.096174
v -7.904026 -6.073223 5.957826
v -6.663026 -6.073223 6.757825
v -6.663026 6.551688 6.757825
v -7.904026 6.551688 5.957826
v -6.663026 -6.073223 6.757825
v -5.725026 -6.073223 6.461825
v -5.725026 6.551688 6.461825
v -6.663026 6.551688 6.757825
v -5.725026 -6.073223 6.461825
v -1.959026 -6.073223 8.904825
v -1.959026 6.551688 8.904825
v -5.725026 6.551688 6.461825
v 1.373974 -6.073223 3.767825
v 4.706974 -6.073223 -1.369175
v 4.706974 6.551688 -1.369175
v -1.959026 6.551688 8.904825
v -1.959026 -6.073223 8.904825
v 1.373974 -6.073223 3.767825
v -1.959026 6.551688 8.904825
v 1.373974 -6.073223 3.767825
v 4.706974 6.551688 -1.369175
v 4.706974 -6.073223 -1.369175
v 5.124974 -6.073223 -2.015175
v 5.124974 6.551688 -2.015175
v 4.706974 6.551688 -1.369175
v 5.124974 -6.073223 -2.015175
v 7.387974 -6.073223 -5.502174
v 7.387974 6.551688 -5.502174
v 5.124974 6.551688 -2.015175
v 7.387974 6.551688 -5.502174
v 7.919974 1.182688 -6.322175
v 7.919974 6.551688 -6.322175
v 7.387974 -6.073223 -5.502174
v 7.919974 -6.073223 -6.322175
v 7.919974 1.182688 -6.322175
v 7.387974 6.551688 -5.502174
v 7.387974 -6.073223 -5.502174
v 7.919974 1.182688 -6.322175
v 7.919974 -6.073223 -6.322175
v 10.98797 -6.073223 -11.05117
v 10.98797 1.182688 -11.05117
v 7.919974 1.182688 -6.322175
v 5.184974 6.551688 -8.096174
v 7.919974 6.551688 -6.322175
v 7.919974 1.182688 -6.322175
v 5.184974 1.182688 -8.096174
v 5.120974 6.551688 -8.137175
v 5.184974 1.182688 -8.096174
v 5.184974 -6.073223 -8.096174
v 5.120974 -6.073223 -8.137175
v 5.120974 6.551688 -8.137175
v 5.184974 6.551688 -8.096174
v 5.184974 1.182688 -8.096174
v 0.9899741 6.551688 -1.770175
v 3.055474 -6.073223 -4.953675
v 0.9899741 -6.073223 -1.770175
v 3.055474 -6.073223 -4.953675
v 5.120974 6.551688 -8.137175
v 5.120974 -6.073223 -8.137175
v 0.9899741 6.551688 -1.770175
v 5.120974 6.551688 -8.137175
v 3.055474 -6.073223 -4.953675
v -2.639026 6.551688 -4.124175
v 0.9899741 6.551688 -1.770175
v 0.9899741 -6.073223 -1.770175
v -2.639026 -6.073223 -4.124175
v -8.505026 6.551688 4.916825
v -2.639026 6.551688 -4.124175
v -2.639026 -6.073223 -4.124175
v -8.505026 -6.073223 4.916825
v -8.505026 -6.073223 4.916825
v -7.957026 -6.073223 5.272825
v -7.957026 6.551688 5.272825
v -8.505026 6.551688 4.916825
v -7.957026 -6.073223 5.272825
v -7.904026 -6.073223 5.957826
v -7.904026 6.551688 5.957826
v -7.957026 6.551688 5.272825
v 8.253974 1.182688 -12.82517
v 10.98797 1.182688 -11.05117
v 10.98797 -6.073223 -11.05117
v 8.253974 -6.073223 -12.82517
v 5.184974 1.182688 -8.096174
v 6.719474 -6.073223 -10.46067
v 5.184974 -6.073223 -8.096174
v 6.719474 -6.073223 -10.46067
v 8.253974 1.182688 -12.82517
v 8.253974 -6.073223 -12.82517
v 5.184974 1.182688 -8.096174
v 8.253974 1.182688 -12.82517
v 6.719474 -6.073223 -10.46067
v -7.904026 -6.073223 5.957826
v -7.957026 -6.073223 5.272825
v -8.505026 -6.073223 4.916825
v -2.639026 -6.073223 -4.124175
v 0.9899741 -6.073223 -1.770175
v 3.055474 -6.073223 -4.953675
v 5.120974 -6.073223 -8.137175
v 5.184974 -6.073223 -8.096174
v 6.719474 -6.073223 -10.46067
v 8.253974 -6.073223 -12.82517
v 10.98797 -6.073223 -11.05117
v 7.919974 -6.073223 -6.322175
v 7.387974 -6.073223 -5.502174
v 5.124974 -6.073223 -2.015175
v 4.706974 -6.073223 -1.369175
v 1.373974 -6.073223 3.767825
v -1.959026 -6.073223 8.904825
v -5.725026 -6.073223 6.461825
v -6.663026 -6.073223 6.757825
vt 0.445293 0.012689
vt 0.467870 0.013846
vt 0.494116 0.039846
vt 0.445293 0.012689
vt 0.494116 0.039846
vt 0.484262 0.059434
vt 0.433612 0.001208
vt 0.445293 0.012689
vt 0.134970 0.123194
vt 0.484262 0.059434
vt 0.564413 0.138334
vt 0.212205 0.199221
vt 0.484262 0.059434
vt 0.212205 0.199221
vt 0.134970 0.123194
vt 0.445293 0.012689
vt 0.564413 0.138334
vt 0.225048 0.276945
vt 0.212205 0.199221
vt 0.212205 0.199221
vt 0.225048 0.276945
vt 0.203711 0.285636
vt 0.203711 0.285636
vt 0.088538 0.332690
vt 0.003250 0.286458
vt 0.003250 0.286458
vt 0.088538 0.332690
vt 0.061454 0.343751
vt 0.001905 0.285118
vt 0.203711 0.285636
vt 0.003250 0.286458
vt 0.212205 0.199221
vt 0.203711 0.285636
vt 0.001905 0.285118
vt 0.213705 0.936977
vt 0.059406 0.999930
vt 0.001905 0.943410
vt 0.156205 0.880435
vt 0.628578 0.880435
vt 0.653906 0.905685
vt 0.625726 0.970619
vt 0.600000 0.944972
vt 0.517255 0.957950
vt 0.507874 0.977045
vt 0.480000 0.899830
vt 0.489528 0.880435
vt 0.722130 0.689614
vt 0.800758 0.766616
vt 0.773198 0.833383
vt 0.693333 0.755171
vt 0.506638 0.491152
vt 0.339216 0.559002
vt 0.306009 0.484454
vt 0.646114 0.346618
vt 0.674068 0.423299
vt 0.506638 0.491152
vt 0.646114 0.346618
vt 0.506638 0.491152
vt 0.306009 0.484454
vt 0.339216 0.559002
vt 0.318163 0.567511
vt 0.284625 0.493097
vt 0.306009 0.484454
vt 0.318163 0.567511
vt 0.204522 0.613576
vt 0.169202 0.539887
vt 0.284625 0.493097
vt 0.169202 0.539887
vt 0.157395 0.582432
vt 0.142060 0.550886
vt 0.204522 0.613576
vt 0.177799 0.624405
vt 0.157395 0.582432
vt 0.169202 0.539887
vt 0.204522 0.613576
vt 0.157395 0.582432
vt 0.177799 0.624405
vt 0.023689 0.686854
vt 0.001905 0.645441
vt 0.157395 0.582432
vt 0.523211 0.881766
vt 0.579733 0.938652
vt 0.594727 0.969893
vt 0.538580 0.913384
vt 0.521905 0.880435
vt 0.538580 0.913384
vt 0.559029 0.955455
vt 0.557744 0.954144
vt 0.521905 0.880435
vt 0.523211 0.881766
vt 0.538580 0.913384
vt 0.542101 0.757373
vt 0.472582 0.732107
vt 0.575351 0.689614
vt 0.472582 0.732107
vt 0.333333 0.843694
vt 0.369814 0.774599
vt 0.542101 0.757373
vt 0.333333 0.843694
vt 0.472582 0.732107
vt 0.580952 0.689614
vt 0.656552 0.765504
vt 0.689468 0.840924
vt 0.615037 0.766208
vt 0.298959 0.754402
vt 0.001905 0.877159
vt 0.036427 0.810473
vt 0.328884 0.689614
vt 0.687778 0.880435
vt 0.698907 0.891557
vt 0.670352 0.955916
vt 0.659048 0.944620
vt 0.731704 0.880435
vt 0.753242 0.881474
vt 0.724734 0.945703
vt 0.702857 0.944648
vt 0.398095 0.880435
vt 0.454312 0.936976
vt 0.475638 0.978029
vt 0.419921 0.921990
vt 0.372605 0.919745
vt 0.317261 0.911884
vt 0.393358 0.880435
vt 0.317261 0.911884
vt 0.219048 0.983205
vt 0.241166 0.943332
vt 0.372605 0.919745
vt 0.219048 0.983205
vt 0.317261 0.911884
vt 0.758095 0.880435
vt 0.758095 0.880435
vt 0.758095 0.880435
vt 0.758095 0.880435
vt 0.758095 0.880435
vt 0.758095 0.880435
vt 0.758095 0.880435
vt 0.758095 0.880435
vt 0.758095 0.880435
vt 0.758095 0.880435
vt 0.758095 0.880435
vt 0.758095 0.880435
vt 0.758095 0.880435
vt 0.758095 0.880435
vt 0.758095 0.880435
vt 0.758095 0.880435
vt 0.758095 0.880435
vt 0.758095 0.880435
vt 0.758095 0.880435
vn 0 1 0
vn 0 1 0
vn 0 1 0
vn 0 1 0
vn 0 1 0
vn 0 1 0
vn 0 1 0
vn 0 1 0
vn 0 1 0
vn 0 1 0
vn 0 1 0
vn 0 1 0
vn 0 1 0
vn 0 1 0
vn 0 1 0
vn 0 1 0
vn 0 1 0
vn 0 1 0
vn 0 1 0
vn 0 1 0
vn 0 1 0
vn 0 1 0
vn 0 1 0
vn 0 1 0
vn 0 1 0
vn 0 1 0
vn 0 1 0
vn 0 1 0
vn 0 1 0
vn 0 1 0
vn 0 1 0
vn 0 1 0
vn 0 1 0
vn 0 1 0
vn 0 1 0
vn 0 1 0
vn 0 1 0
vn 0 1 0
vn -0.5418183 0 0.8404956
vn -0.5418183 0 0.8404956
vn -0.5418183 0 0.8404956
vn -0.5418183 0 0.8404956
vn 0.3009367 0 0.9536441
vn 0.3009367 0 0.9536441
vn 0.3009367 0 0.9536441
vn 0.3009367 0 0.9536441
vn -0.5442207 0 0.8389421
vn -0.5442207 0 0.8389421
vn -0.5442207 0 0.8389421
vn -0.5442207 0 0.8389421
vn 0.8388948 0 0.5442936
vn 0.8388948 0 0.5442936
vn 0.8388948 0 0.5442936
vn 0.8388948 0 0.5442936
vn 0.8388948 0 0.5442936
vn 0.8388948 0 0.5442936
vn 0.8388948 -1.933911E-12 0.5442936
vn 0.8388948 -1.933911E-12 0.5442936
vn 0.8388948 -1.933911E-12 0.5442936
vn 0.8395702 0 0.5432513
vn 0.8395702 0 0.5432513
vn 0.8395702 0 0.5432513
vn 0.8395702 0 0.5432513
vn 0.8388336 0 0.5443879
vn 0.8388336 0 0.5443879
vn 0.8388336 0 0.5443879
vn 0.8388336 0 0.5443879
vn 0.8389108 0 0.544269
vn 0.8389108 0 0.544269
vn 0.8389108 0 0.544269
vn 0.8389108 0 0.544269
vn 0.8389108 0 0.544269
vn 0.8389108 0 0.544269
vn 0.8389108 0 0.544269
vn 0.8389108 0 0.544269
vn 0.8389108 0 0.544269
vn 0.8389175 0 0.5442586
vn 0.8389175 0 0.5442586
vn 0.8389175 0 0.5442586
vn 0.8389175 0 0.5442586
vn 0.5441794 0 -0.8389689
vn 0.5441794 0 -0.8389689
vn 0.5441794 0 -0.8389689
vn 0.5441794 0 -0.8389689
vn 0.539427 0 -0.8420324
vn 0.539427 0 -0.8420324
vn 0.539427 0 -0.8420324
vn 0.539427 0 -0.8420324
vn 0.539427 0 -0.8420324
vn 0.539427 0 -0.8420324
vn 0.539427 0 -0.8420324
vn -0.8388979 0 -0.5442889
vn -0.8388979 0 -0.5442889
vn -0.8388979 0 -0.5442889
vn -0.8388979 0 -0.5442889
vn -0.8388979 0 -0.5442889
vn -0.8388979 0 -0.5442889
vn -0.8388979 1.933888E-12 -0.5442889
vn -0.8388979 1.933888E-12 -0.5442889
vn -0.8388979 1.933888E-12 -0.5442889
vn 0.5441999 0 -0.8389556
vn 0.5441999 0 -0.8389556
vn 0.5441999 0 -0.8389556
vn 0.5441999 0 -0.8389556
vn -0.8388949 0 -0.5442935
vn -0.8388949 0 -0.5442935
vn -0.8388949 0 -0.5442935
vn -0.8388949 0 -0.5442935
vn -0.5447732 0 0.8385834
vn -0.5447732 0 0.8385834
vn -0.5447732 0 0.8385834
vn -0.5447732 0 0.8385834
vn -0.9970201 0 0.0771417
vn -0.9970201 0 0.0771417
vn -0.9970201 0 0.0771417
vn -0.9970201 0 0.0771417
vn 0.5443195 0 -0.838878
vn 0.5443195 0 -0.838878
vn 0.5443195 0 -0.838878
vn 0.5443195 0 -0.838878
vn -0.8388365 0 -0.5443834
vn -0.8388365 0 -0.5443834
vn -0.8388365 0 -0.5443834
vn -0.8388365 0 -0.5443834
vn -0.8388365 0 -0.5443834
vn -0.8388365 0 -0.5443834
vn -0.8388365 -3.364619E-12 -0.5443834
vn -0.8388365 -3.364619E-12 -0.5443834
vn -0.8388365 -3.364619E-12 -0.5443834
vn 0 -1 0
vn 0 -1 0
vn 0 -1 0
vn 0 -1 0
vn 0 -1 0
vn 0 -1 0
vn 0 -1 0
vn 0 -1 0
vn 0 -1 0
vn 0 -1 0
vn 0 -1 0
vn 0 -1 0
vn 0 -1 0
vn 0 -1 0
vn 0 -1 0
vn 0 -1 0
vn 0 -1 0
vn 0 -1 0
vn 0 -1 0

g CDNNDG02_0007410
f 1/1/1 2/2/2 3/3/3
f 4/4/4 5/5/5 6/6/6
f 7/7/7 8/8/8 9/9/9
f 10/10/10 11/11/11 12/12/12
f 13/13/13 14/14/14 15/15/15
f 16/16/16 13/13/13 15/15/15
f 17/17/17 18/18/18 19/19/19
f 20/20/20 21/21/21 22/22/22
f 23/23/23 24/24/24 25/25/25
f 26/26/26 27/27/27 28/28/28
f 29/29/29 30/30/30 31/31/31
f 32/32/32 33/33/33 34/34/34
f 35/35/35 37/37/37 38/38/38
f 35/35/35 36/36/36 37/37/37
f 39/39/39 41/41/41 42/42/42
f 41/41/41 39/39/39 40/40/40
f 43/43/43 45/45/45 46/46/46
f 43/43/43 44/44/44 45/45/45
f 50/50/50 47/47/47 49/49/49
f 49/49/49 47/47/47 48/48/48
f 51/51/51 52/52/52 53/53/53
f 54/54/54 55/55/55 56/56/56
f 57/57/57 58/58/58 59/59/59
f 61/61/61 62/62/62 60/60/60
f 60/60/60 62/62/62 63/63/63
f 65/65/65 66/66/66 67/67/67
f 64/64/64 65/65/65 67/67/67
f 68/68/68 69/69/69 70/70/70
f 71/71/71 72/72/72 73/73/73
f 74/74/74 75/75/75 76/76/76
f 80/80/80 77/77/77 79/79/79
f 78/78/78 79/79/79 77/77/77
f 84/84/84 81/81/81 83/83/83
f 82/82/82 83/83/83 81/81/81
f 86/86/86 88/88/88 85/85/85
f 88/88/88 86/86/86 87/87/87
f 89/89/89 90/90/90 91/91/91
f 92/92/92 93/93/93 94/94/94
f 95/95/95 96/96/96 97/97/97
f 98/98/98 99/99/99 100/100/100
f 103/103/103 101/101/101 102/102/102
f 101/101/101 103/103/103 104/104/104
f 106/106/106 107/107/107 108/108/108
f 105/105/105 106/106/106 108/108/108
f 109/109/109 111/111/111 112/112/112
f 111/111/111 109/109/109 110/110/110
f 113/113/113 115/115/115 116/116/116
f 113/113/113 114/114/114 115/115/115
f 119/119/119 117/117/117 118/118/118
f 117/117/117 119/119/119 120/120/120
f 121/121/121 122/122/122 123/123/123
f 124/124/124 125/125/125 126/126/126
f 127/127/127 128/128/128 129/129/129
f 130/130/130 131/131/131 148/148/148
f 145/145/145 146/146/146 147/147/147
f 131/131/131 147/147/147 148/148/148
f 133/133/133 145/145/145 147/147/147
f 131/131/131 132/132/132 133/133/133
f 134/134/134 144/144/144 145/145/145
f 131/131/131 133/133/133 147/147/147
f 135/135/135 143/143/143 144/144/144
f 133/133/133 134/134/134 145/145/145
f 134/134/134 135/135/135 144/144/144
f 135/135/135 136/136/136 137/137/137
f 142/142/142 135/135/135 137/137/137
f 137/137/137 138/138/138 141/141/141
f 138/138/138 139/139/139 140/140/140
f 135/135/135 142/142/142 143/143/143
f 138/138/138 140/140/140 141/141/141
f 137/137/137 141/141/141 142/142/142
