v 2.361709 5.423639 -5.046581
v 5.588709 5.423639 -3.011581
v 5.777709 5.423639 -3.307581
v 2.563709 5.423639 -5.362581
v -0.731291 5.423639 -6.069581
v 1.751229 5.423639 -5.248495
v 1.836709 5.423639 -5.382581
v 0.02470903 5.423639 -6.088581
v 1.836709 5.423639 -5.382581
v 0.229709 5.423639 -6.409581
v -0.09629097 5.423639 7.03442
v 6.112709 5.423639 -2.676581
v 5.588709 5.423639 -3.011581
v -0.731291 5.423639 -6.069581
v 1.836709 5.423639 -5.382581
v 0.02470903 5.423639 -6.088581
v -0.731291 5.423639 -6.069581
v 0.02470903 5.423639 -6.088581
v -0.502291 5.423639 -6.426581
v -0.481291 5.423639 6.95542
v -0.09629097 5.423639 7.03442
v 5.588709 5.423639 -3.011581
v -2.356127 5.423639 -0.7832252
v 1.581709 5.423639 -4.982581
v -0.731291 5.423639 -6.069581
v -2.853672 5.423639 0.007580452
v 2.015943 5.423639 -4.705385
v -2.356127 5.423639 -0.7832252
v -2.356127 5.423639 -0.7832252
v 2.015943 5.423639 -4.705385
v 1.581709 5.423639 -4.982581
v -0.731291 5.423639 -6.069581
v 1.581709 5.423639 -4.982581
v 1.751229 5.423639 -5.248495
v -6.187291 5.423639 3.389419
v -2.853672 5.423639 0.007580452
v -3.868397 5.423639 -0.6308177
v -6.187291 5.423639 3.389419
v 2.015943 5.423639 -4.705385
v -2.853672 5.423639 0.007580452
v -3.401232 5.423639 -1.440736
v -2.356127 5.423639 -0.7832252
v -0.731291 5.423639 -6.069581
v -0.481291 5.423639 6.95542
v -0.171291 5.423639 7.153419
v -0.09629097 5.423639 7.03442
v -3.509196 5.423639 -1.50866
v -3.401232 5.423639 -1.440736
v -0.731291 5.423639 -6.069581
v -6.608291 5.423639 3.120419
v -3.509196 5.423639 -1.50866
v -0.731291 5.423639 -6.069581
v -6.608291 5.423639 3.120419
v -3.868397 5.423639 -0.6308177
v -4.006741 5.423639 -0.7178543
v -6.608291 5.423639 3.120419
v -4.006741 5.423639 -0.7178543
v -3.509196 5.423639 -1.50866
v -6.608291 5.423639 3.120419
v -6.187291 5.423639 3.389419
v -3.868397 5.423639 -0.6308177
v 2.361709 5.423639 -5.046581
v 2.567709 5.423639 -4.915581
v 5.588709 5.423639 -3.011581
v 2.311709 5.423639 -4.516581
v 5.588709 5.423639 -3.011581
v 2.567709 5.423639 -4.915581
v -6.187291 5.423639 3.389419
v 2.311709 5.423639 -4.516581
v 2.015943 5.423639 -4.705385
v -0.481291 5.423639 6.95542
v 5.588709 5.423639 -3.011581
v 2.311709 5.423639 -4.516581
v -6.187291 5.423639 3.389419
v -0.481291 5.423639 6.95542
v 2.311709 5.423639 -4.516581
v -6.296291 5.423639 3.561419
v -0.628291 5.423639 7.185419
v -0.481291 5.423639 6.95542
v -6.187291 5.423639 3.389419
v -4.006741 5.423639 -0.7178543
v -3.868397 5.423639 -0.6308177
v -3.222291 5.778639 -0.7895807
v -3.868397 5.423639 -0.6308177
v -2.853672 5.423639 0.007580452
v -3.222291 5.778639 -0.7895807
v -3.222291 5.778639 -0.7895807
v -2.853672 5.423639 0.007580452
v -2.356127 5.423639 -0.7832252
v -4.006741 5.423639 -0.7178543
v -3.222291 5.778639 -0.7895807
v -3.509196 5.423639 -1.50866
v -3.509196 5.423639 -1.50866
v -3.222291 5.778639 -0.7895807
v -3.401232 5.423639 -1.440736
v -3.401232 5.423639 -1.440736
v -3.222291 5.778639 -0.7895807
v -2.356127 5.423639 -0.7832252
v 2.563709 4.604639 -5.362581
v 5.777709 4.604639 -3.307581
v 6.507709 4.239639 -4.449581
v 3.293709 4.239639 -6.50458
v 1.581709 6.567639 -4.982581
v 2.361709 6.567639 -5.046581
v 1.836709 6.567639 -5.382581
v 2.311709 6.567639 -4.516581
v 2.567709 6.567639 -4.915581
v 2.361709 6.567639 -5.046581
v 1.581709 6.567639 -4.982581
v 2.311709 6.567639 -4.516581
v 2.361709 6.567639 -5.046581
v -6.608291 5.423639 3.120419
v -0.731291 5.423639 -6.069581
v -0.731291 -5.38187 -6.069581
v -6.608291 -5.38187 3.120419
v -0.731291 5.423639 -6.069581
v -0.502291 5.423639 -6.426581
v -0.502291 -5.38187 -6.426581
v -0.731291 -5.38187 -6.069581
v -6.608291 -5.38187 3.120419
v -6.187291 -5.38187 3.389419
v -6.187291 5.423639 3.389419
v -6.608291 5.423639 3.120419
v -6.296291 5.423639 3.561419
v -6.187291 5.423639 3.389419
v -6.187291 -5.38187 3.389419
v -6.296291 -5.38187 3.561419
v -6.296291 -5.38187 3.561419
v -0.628291 -5.38187 7.185419
v -0.628291 5.423639 7.185419
v -6.296291 5.423639 3.561419
v -0.628291 -5.38187 7.185419
v -0.481291 -5.38187 6.95542
v -0.481291 5.423639 6.95542
v -0.628291 5.423639 7.185419
v -0.481291 -5.38187 6.95542
v -0.171291 -5.38187 7.153419
v -0.171291 5.423639 7.153419
v -0.481291 5.423639 6.95542
v -0.171291 -5.38187 7.153419
v -0.09629097 -5.38187 7.03442
v -0.09629097 5.423639 7.03442
v -0.171291 5.423639 7.153419
v -0.09629097 -5.38187 7.03442
v 6.112709 -5.38187 -2.676581
v 6.112709 5.423639 -2.676581
v -0.09629097 5.423639 7.03442
v 5.588709 5.423639 -3.011581
v 6.112709 5.423639 -2.676581
v 6.112709 -5.38187 -2.676581
v 5.588709 -5.38187 -3.011581
v 5.588709 5.423639 -3.011581
v 5.777709 4.604639 -3.307581
v 5.777709 5.423639 -3.307581
v 5.588709 -5.38187 -3.011581
v 5.777709 -5.38187 -3.307581
v 5.777709 4.604639 -3.307581
v 5.588709 5.423639 -3.011581
v 5.777709 -5.38187 -3.307581
v 6.507709 -5.38187 -4.449581
v 6.507709 4.239639 -4.449581
v 5.777709 4.604639 -3.307581
v 2.563709 5.423639 -5.362581
v 5.777709 5.423639 -3.307581
v 5.777709 4.604639 -3.307581
v 2.563709 4.604639 -5.362581
v 2.361709 5.423639 -5.046581
v 2.563709 4.604639 -5.362581
v 2.563709 -5.38187 -5.362581
v 2.361709 -5.38187 -5.046581
v 2.361709 5.423639 -5.046581
v 2.563709 5.423639 -5.362581
v 2.563709 4.604639 -5.362581
v 2.563709 4.604639 -5.362581
v 3.293709 4.239639 -6.50458
v 3.293709 -5.38187 -6.50458
v 2.563709 -5.38187 -5.362581
v 1.836709 5.423639 -5.382581
v 2.361709 5.423639 -5.046581
v 2.361709 -5.38187 -5.046581
v 1.836709 -5.38187 -5.382581
v 0.229709 5.423639 -6.409581
v 1.836709 5.423639 -5.382581
v 1.836709 -5.38187 -5.382581
v 0.229709 -5.38187 -6.409581
v 2.361709 6.567639 -5.046581
v 2.567709 6.567639 -4.915581
v 2.567709 5.423639 -4.915581
v 2.361709 5.423639 -5.046581
v 1.836709 6.567639 -5.382581
v 2.361709 6.567639 -5.046581
v 2.361709 5.423639 -5.046581
v 1.836709 5.423639 -5.382581
v 0.02470903 5.423639 -6.088581
v 0.127209 -5.38187 -6.249081
v 0.02470903 -5.38187 -6.088581
v 0.127209 -5.38187 -6.249081
v 0.229709 5.423639 -6.409581
v 0.229709 -5.38187 -6.409581
v 0.02470903 5.423639 -6.088581
v 0.229709 5.423639 -6.409581
v 0.127209 -5.38187 -6.249081
v -0.502291 5.423639 -6.426581
v 0.02470903 5.423639 -6.088581
v 0.02470903 -5.38187 -6.088581
v -0.502291 -5.38187 -6.426581
v 3.293709 4.239639 -6.50458
v 4.900709 -5.38187 -5.477081
v 3.293709 -5.38187 -6.50458
v 4.900709 -5.38187 -5.477081
v 6.507709 4.239639 -4.449581
v 6.507709 -5.38187 -4.449581
v 3.293709 4.239639 -6.50458
v 6.507709 4.239639 -4.449581
v 4.900709 -5.38187 -5.477081
v 2.015943 5.423639 -4.705385
v 2.311709 5.423639 -4.516581
v 2.311709 6.567639 -4.516581
v 1.581709 6.567639 -4.982581
v 1.581709 5.423639 -4.982581
v 2.015943 5.423639 -4.705385
v 1.581709 6.567639 -4.982581
v 2.015943 5.423639 -4.705385
v 2.311709 6.567639 -4.516581
v 2.311709 5.423639 -4.516581
v 2.567709 5.423639 -4.915581
v 2.567709 6.567639 -4.915581
v 2.311709 6.567639 -4.516581
v 1.581709 6.567639 -4.982581
v 1.751229 5.423639 -5.248495
v 1.581709 5.423639 -4.982581
v 1.751229 5.423639 -5.248495
v 1.836709 6.567639 -5.382581
v 1.836709 5.423639 -5.382581
v 1.581709 6.567639 -4.982581
v 1.836709 6.567639 -5.382581
v 1.751229 5.423639 -5.248495
v -0.731291 -5.38187 -6.069581
v -0.502291 -5.38187 -6.426581
v 0.02470903 -5.38187 -6.088581
v 0.127209 -5.38187 -6.249081
v 0.229709 -5.38187 -6.409581
v 1.836709 -5.38187 -5.382581
v 2.361709 -5.38187 -5.046581
v 2.563709 -5.38187 -5.362581
v 3.293709 -5.38187 -6.50458
v 4.900709 -5.38187 -5.477081
v 6.507709 -5.38187 -4.449581
v 5.777709 -5.38187 -3.307581
v 5.588709 -5.38187 -3.011581
v 6.112709 -5.38187 -2.676581
v -0.09629097 -5.38187 7.03442
v -0.171291 -5.38187 7.153419
v -0.481291 -5.38187 6.95542
v -0.628291 -5.38187 7.185419
v -6.296291 -5.38187 3.561419
v -6.187291 -5.38187 3.389419
v -6.608291 -5.38187 3.120419
vt 0.577461 0.118219
vt 0.480184 0.018047
vt 0.494042 0.012058
vt 0.592255 0.111818
vt 0.627011 0.214502
vt 0.587241 0.137223
vt 0.593519 0.134515
vt 0.627572 0.190889
vt 0.593519 0.134515
vt 0.642600 0.184393
vt 0.009562 0.198532
vt 0.464174 0.001783
vt 0.480184 0.018047
vt 0.627011 0.214502
vt 0.593519 0.134515
vt 0.627572 0.190889
vt 0.627011 0.214502
vt 0.627572 0.190889
vt 0.643724 0.207246
vt 0.013455 0.210530
vt 0.009562 0.198532
vt 0.480184 0.018047
vt 0.378755 0.266794
vt 0.574792 0.142595
vt 0.627011 0.214502
vt 0.341731 0.282563
vt 0.561544 0.129117
vt 0.378755 0.266794
vt 0.378755 0.266794
vt 0.561544 0.129117
vt 0.574792 0.142595
vt 0.627011 0.214502
vt 0.574792 0.142595
vt 0.587241 0.137223
vt 0.183941 0.387647
vt 0.341731 0.282563
vt 0.372248 0.314059
vt 0.183941 0.387647
vt 0.561544 0.129117
vt 0.341731 0.282563
vt 0.410185 0.299234
vt 0.378755 0.266794
vt 0.627011 0.214502
vt 0.013455 0.210530
vt 0.003991 0.200909
vt 0.009562 0.198532
vt 0.413432 0.302585
vt 0.410185 0.299234
vt 0.627011 0.214502
vt 0.196797 0.400713
vt 0.413432 0.302585
vt 0.627011 0.214502
vt 0.196797 0.400713
vt 0.372248 0.314059
vt 0.376408 0.318353
vt 0.196797 0.400713
vt 0.376408 0.318353
vt 0.413432 0.302585
vt 0.196797 0.400713
vt 0.183941 0.387647
vt 0.372248 0.314059
vt 0.577461 0.118219
vt 0.571200 0.111825
vt 0.480184 0.018047
vt 0.552521 0.119937
vt 0.480184 0.018047
vt 0.571200 0.111825
vt 0.183941 0.387647
vt 0.552521 0.119937
vt 0.561544 0.129117
vt 0.013455 0.210530
vt 0.480184 0.018047
vt 0.552521 0.119937
vt 0.183941 0.387647
vt 0.013455 0.210530
vt 0.552521 0.119937
vt 0.175889 0.391101
vt 0.002688 0.215188
vt 0.013455 0.210530
vt 0.183941 0.387647
vt 0.927612 0.729786
vt 0.923719 0.725635
vt 0.930758 0.703170
vt 0.923719 0.725635
vt 0.895161 0.695187
vt 0.930758 0.703170
vt 0.082920 0.997804
vt 0.048387 0.984234
vt 0.082654 0.969697
vt 0.088710 0.995897
vt 0.091839 0.969697
vt 0.123554 0.981043
vt 0.969570 0.729042
vt 0.938436 0.723558
vt 0.966630 0.725872
vt 0.966630 0.725872
vt 0.938436 0.723558
vt 0.938172 0.695187
vt 0.449373 0.818307
vt 0.354839 0.720467
vt 0.407151 0.695187
vt 0.501643 0.792983
vt 0.023685 0.998930
vt 0.026202 0.975772
vt 0.041340 0.991253
vt 0.002688 0.977403
vt 0.020299 0.969697
vt 0.026202 0.975772
vt 0.023685 0.998930
vt 0.002688 0.977403
vt 0.026202 0.975772
vt 0.003943 0.597865
vt 0.437425 0.411882
vt 0.430310 0.506768
vt 0.002688 0.690233
vt 0.437425 0.411882
vt 0.454265 0.404635
vt 0.446922 0.499619
vt 0.430310 0.506768
vt 0.669200 0.799621
vt 0.658602 0.786756
vt 0.659509 0.695187
vt 0.670252 0.708229
vt 0.860949 0.698595
vt 0.867069 0.695187
vt 0.866253 0.786615
vt 0.860215 0.789976
vt 0.172731 0.965054
vt 0.004037 0.790054
vt 0.002688 0.695187
vt 0.173694 0.872589
vt 0.880421 0.699606
vt 0.889498 0.695187
vt 0.882855 0.784275
vt 0.873656 0.788754
vt 0.784916 0.798753
vt 0.777895 0.789279
vt 0.776882 0.695187
vt 0.783999 0.704791
vt 0.467505 0.595915
vt 0.472952 0.593632
vt 0.465198 0.683674
vt 0.459677 0.685987
vt 0.472952 0.593632
vt 0.917504 0.404635
vt 0.915733 0.492137
vt 0.465198 0.683674
vt 0.825291 0.797672
vt 0.811828 0.781750
vt 0.813355 0.695187
vt 0.826640 0.710898
vt 0.508065 0.809846
vt 0.521449 0.797402
vt 0.521347 0.804067
vt 0.509577 0.722913
vt 0.522683 0.717211
vt 0.521449 0.797402
vt 0.508065 0.809846
vt 0.522683 0.717211
vt 0.573248 0.695187
vt 0.572665 0.772149
vt 0.521449 0.797402
vt 0.771095 0.799525
vt 0.677419 0.701842
vt 0.677523 0.695187
vt 0.771103 0.792770
vt 0.586904 0.713797
vt 0.600868 0.714785
vt 0.594909 0.802856
vt 0.580645 0.809104
vt 0.586904 0.713797
vt 0.601364 0.707463
vt 0.600868 0.714785
vt 0.600868 0.714785
vt 0.652826 0.695187
vt 0.646459 0.780276
vt 0.594909 0.802856
vt 0.300695 0.799804
vt 0.285525 0.783762
vt 0.285820 0.695187
vt 0.300788 0.711016
vt 0.347062 0.848907
vt 0.300695 0.799804
vt 0.300788 0.711016
vt 0.346540 0.759468
vt 0.285493 0.793280
vt 0.279570 0.786976
vt 0.279610 0.777468
vt 0.285525 0.783762
vt 0.300685 0.809344
vt 0.285493 0.793280
vt 0.285525 0.783762
vt 0.300695 0.799804
vt 0.839705 0.701603
vt 0.840012 0.792586
vt 0.833333 0.795750
vt 0.840012 0.792586
vt 0.853245 0.695187
vt 0.846690 0.789422
vt 0.839705 0.701603
vt 0.853245 0.695187
vt 0.840012 0.792586
vt 0.804200 0.800246
vt 0.790617 0.784229
vt 0.790323 0.695187
vt 0.803725 0.710991
vt 0.273644 0.870753
vt 0.226913 0.743708
vt 0.273128 0.792229
vt 0.226913 0.743708
vt 0.180108 0.772552
vt 0.180697 0.695187
vt 0.273644 0.870753
vt 0.180108 0.772552
vt 0.226913 0.743708
vt 0.983849 0.713869
vt 0.975806 0.705041
vt 0.976394 0.695187
vt 0.996274 0.717009
vt 0.995657 0.726831
vt 0.983849 0.713869
vt 0.996274 0.717009
vt 0.983849 0.713869
vt 0.976394 0.695187
vt 0.153284 0.976849
vt 0.169244 0.969697
vt 0.169209 0.978353
vt 0.153226 0.985515
vt 0.129639 0.977090
vt 0.140073 0.981608
vt 0.129032 0.986515
vt 0.140073 0.981608
vt 0.146272 0.969697
vt 0.145641 0.979133
vt 0.129639 0.977090
vt 0.146272 0.969697
vt 0.140073 0.981608
vt 0.174731 0.969697
vt 0.174731 0.969697
vt 0.174731 0.969697
vt 0.174731 0.969697
vt 0.174731 0.969697
vt 0.174731 0.969697
vt 0.174731 0.969697
vt 0.174731 0.969697
vt 0.174731 0.969697
vt 0.174731 0.969697
vt 0.174731 0.969697
vt 0.174731 0.969697
vt 0.174731 0.969697
vt 0.174731 0.969697
vt 0.174731 0.969697
vt 0.174731 0.969697
vt 0.174731 0.969697
vt 0.174731 0.969697
vt 0.174731 0.969697
vt 0.174731 0.969697
vt 0.174731 0.969697
vn 0 1 0
vn 0 1 0
vn 0 1 0
vn 0 1 0
vn 0 1 0
vn 0 1 0
vn 0 1 0
vn 0 1 0
vn 0 1 0
vn 0 1 0
vn 0 1 0
vn 0 1 0
vn 0 1 0
vn 0 1 0
vn 0 1 0
vn 0 1 0
vn 0 1 0
vn 0 1 0
vn 0 1 0
vn 0 1 0
vn 0 1 0
vn 0 1 0
vn 0 1 0
vn 0 1 0
vn 0 1 0
vn 0 1 0
vn 0 1 0
vn 0 1 0
vn 0 1 0
vn 0 1 0
vn 0 1 0
vn 0 1 0
vn 0 1 0
vn 0 1 0
vn 0 1 0
vn 0 1 0
vn 0 1 0
vn 0 1 0
vn 0 1 0
vn 0 1 0
vn 0 1 0
vn 0 1 0
vn 0 1 0
vn 0 1 0
vn 0 1 0
vn 0 1 0
vn 0 1 0
vn 0 1 0
vn 0 1 0
vn 0 1 0
vn 0 1 0
vn 0 1 0
vn 0 1 0
vn 0 1 0
vn 0 1 0
vn 0 1 0
vn 0 1 0
vn 0 1 0
vn 0 1 0
vn 0 1 0
vn 0 1 0
vn 0 1 0
vn 0 1 0
vn 0 1 0
vn 0 1 0
vn 0 1 0
vn 0 1 0
vn 0 1 0
vn 0 1 0
vn 0 1 0
vn 0 1 0
vn 0 1 0
vn 0 1 0
vn 0 1 0
vn 0 1 0
vn 0 1 0
vn 0 1 0
vn 0 1 0
vn 0 1 0
vn 0 1 0
vn -0.3173123 0.8030755 0.5043637
vn -0.3173123 0.8030755 0.5043637
vn -0.3173123 0.8030755 0.5043637
vn -0.3173122 0.8030755 0.5043637
vn -0.3173122 0.8030755 0.5043637
vn -0.3173122 0.8030755 0.5043637
vn 0.3675071 0.9008192 0.2312214
vn 0.3675071 0.9008192 0.2312214
vn 0.3675071 0.9008192 0.2312214
vn -0.4176444 0.8697857 -0.2627659
vn -0.4176444 0.8697857 -0.2627659
vn -0.4176444 0.8697857 -0.2627659
vn 0.3271834 0.7889836 -0.5200537
vn 0.3271834 0.7889836 -0.5200537
vn 0.3271834 0.7889836 -0.5200537
vn 0.3271834 0.7889836 -0.5200537
vn 0.3271834 0.7889836 -0.5200537
vn 0.3271834 0.7889836 -0.5200537
vn 0.1400768 0.9655998 -0.2190787
vn 0.1400768 0.9655998 -0.2190787
vn 0.1400768 0.9655998 -0.2190787
vn 0.1400768 0.9655998 -0.2190787
vn 0 1 0
vn 0 1 0
vn 0 1 0
vn 0 1 0
vn 0 1 0
vn 0 1 0
vn 0 1 0
vn 0 1 0
vn 0 1 0
vn -0.8424628 0 -0.5387545
vn -0.8424628 0 -0.5387545
vn -0.8424628 0 -0.5387545
vn -0.8424628 0 -0.5387545
vn -0.8417143 0 -0.5399232
vn -0.8417143 0 -0.5399232
vn -0.8417143 0 -0.5399232
vn -0.8417143 0 -0.5399232
vn -0.5384288 0 0.842671
vn -0.5384288 0 0.842671
vn -0.5384288 0 0.842671
vn -0.5384288 0 0.842671
vn -0.8446711 0 -0.5352857
vn -0.8446711 0 -0.5352857
vn -0.8446711 0 -0.5352857
vn -0.8446711 0 -0.5352857
vn -0.5386825 0 0.8425089
vn -0.5386825 0 0.8425089
vn -0.5386825 0 0.8425089
vn -0.5386825 0 0.8425089
vn 0.8426039 0 0.5385338
vn 0.8426039 0 0.5385338
vn 0.8426039 0 0.5385338
vn 0.8426039 0 0.5385338
vn -0.538282 0 0.8427648
vn -0.538282 0 0.8427648
vn -0.538282 0 0.8427648
vn -0.538282 0 0.8427648
vn 0.8459953 0 0.5331903
vn 0.8459953 0 0.5331903
vn 0.8459953 0 0.5331903
vn 0.8459953 0 0.5331903
vn 0.8425093 0 0.5386819
vn 0.8425093 0 0.5386819
vn 0.8425093 0 0.5386819
vn 0.8425093 0 0.5386819
vn 0.538643 0 -0.8425341
vn 0.538643 0 -0.8425341
vn 0.538643 0 -0.8425341
vn 0.538643 0 -0.8425341
vn 0.8428398 0 0.5381646
vn 0.8428398 0 0.5381646
vn 0.8428398 0 0.5381646
vn 0.8428398 0 0.5381646
vn 0.8428398 0 0.5381646
vn 0.8428398 0 0.5381646
vn 0.8428398 0 0.5381646
vn 0.8425661 0 0.538593
vn 0.8425661 0 0.538593
vn 0.8425661 0 0.538593
vn 0.8425661 0 0.538593
vn 0.5386891 0 -0.8425046
vn 0.5386891 0 -0.8425046
vn 0.5386891 0 -0.8425046
vn 0.5386891 0 -0.8425046
vn -0.8425618 0 -0.5385997
vn -0.8425618 0 -0.5385997
vn -0.8425618 0 -0.5385997
vn -0.8425618 0 -0.5385997
vn -0.8425618 0 -0.5385997
vn -0.8425618 0 -0.5385997
vn -0.8425618 0 -0.5385997
vn -0.8425661 0 -0.538593
vn -0.8425661 0 -0.538593
vn -0.8425661 0 -0.538593
vn -0.8425661 0 -0.538593
vn 0.5390537 0 -0.8422714
vn 0.5390537 0 -0.8422714
vn 0.5390537 0 -0.8422714
vn 0.5390537 0 -0.8422714
vn 0.5385031 0 -0.8426236
vn 0.5385031 0 -0.8426236
vn 0.5385031 0 -0.8426236
vn 0.5385031 0 -0.8426236
vn 0.5366104 0 -0.8438301
vn 0.5366104 0 -0.8438301
vn 0.5366104 0 -0.8438301
vn 0.5366104 0 -0.8438301
vn 0.5390537 0 -0.8422714
vn 0.5390537 0 -0.8422714
vn 0.5390537 0 -0.8422714
vn 0.5390537 0 -0.8422714
vn -0.8427955 0 -0.5382339
vn -0.8427955 0 -0.5382339
vn -0.8427955 0 -0.5382339
vn -0.8427955 0 -0.5382339
vn -0.8427955 0 -0.5382339
vn -0.8427955 0 -0.5382339
vn -0.8427955 0 -0.5382339
vn -0.8427955 0 -0.5382339
vn -0.8427955 0 -0.5382339
vn 0.5398693 0 -0.8417488
vn 0.5398693 0 -0.8417488
vn 0.5398693 0 -0.8417488
vn 0.5398693 0 -0.8417488
vn 0.5386891 0 -0.8425046
vn 0.5386891 0 -0.8425046
vn 0.5386891 0 -0.8425046
vn 0.5386891 0 -0.8425046
vn 0.5386891 0 -0.8425046
vn 0.5386891 0 -0.8425046
vn 0.5386891 1.62946E-12 -0.8425046
vn 0.5386891 1.62946E-12 -0.8425046
vn 0.5386891 1.62946E-12 -0.8425046
vn -0.5380704 0 0.8428999
vn -0.5380704 0 0.8428999
vn -0.5380704 0 0.8428999
vn -0.5380704 0 0.8428999
vn -0.5380704 0 0.8428999
vn -0.5380704 0 0.8428999
vn -0.5380704 1.356191E-09 0.8428999
vn -0.5380704 1.356191E-09 0.8428999
vn -0.5380704 1.356191E-09 0.8428999
vn 0.8416579 0 0.5400111
vn 0.8416579 0 0.5400111
vn 0.8416579 0 0.5400111
vn 0.8416579 0 0.5400111
vn -0.8432272 0 -0.5375574
vn -0.8432272 0 -0.5375574
vn -0.8432272 0 -0.5375574
vn -0.8432272 0 -0.5375574
vn -0.8432272 0 -0.5375574
vn -0.8432272 0 -0.5375574
vn -0.8432272 9.156101E-10 -0.5375574
vn -0.8432272 9.156101E-10 -0.5375574
vn -0.8432272 9.156101E-10 -0.5375574
vn 0 -1 0
vn 0 -1 0
vn 0 -1 0
vn 0 -1 0
vn 0 -1 0
vn 0 -1 0
vn 0 -1 0
vn 0 -1 0
vn 0 -1 0
vn 0 -1 0
vn 0 -1 0
vn 0 -1 0
vn 0 -1 0
vn 0 -1 0
vn 0 -1 0
vn 0 -1 0
vn 0 -1 0
vn 0 -1 0
vn 0 -1 0
vn 0 -1 0
vn 0 -1 0

g CDNNDG02_0008480
f 4/4/4 1/1/1 2/2/2
f 3/3/3 4/4/4 2/2/2
f 5/5/5 6/6/6 7/7/7
f 8/8/8 9/9/9 10/10/10
f 11/11/11 12/12/12 13/13/13
f 14/14/14 15/15/15 16/16/16
f 17/17/17 18/18/18 19/19/19
f 20/20/20 21/21/21 22/22/22
f 23/23/23 24/24/24 25/25/25
f 26/26/26 27/27/27 28/28/28
f 29/29/29 30/30/30 31/31/31
f 32/32/32 33/33/33 34/34/34
f 35/35/35 36/36/36 37/37/37
f 38/38/38 39/39/39 40/40/40
f 41/41/41 42/42/42 43/43/43
f 44/44/44 45/45/45 46/46/46
f 47/47/47 48/48/48 49/49/49
f 50/50/50 51/51/51 52/52/52
f 53/53/53 54/54/54 55/55/55
f 56/56/56 57/57/57 58/58/58
f 59/59/59 60/60/60 61/61/61
f 62/62/62 63/63/63 64/64/64
f 65/65/65 66/66/66 67/67/67
f 68/68/68 69/69/69 70/70/70
f 71/71/71 72/72/72 73/73/73
f 74/74/74 75/75/75 76/76/76
f 77/77/77 78/78/78 80/80/80
f 80/80/80 78/78/78 79/79/79
f 81/81/81 82/82/82 83/83/83
f 84/84/84 85/85/85 86/86/86
f 87/87/87 88/88/88 89/89/89
f 90/90/90 91/91/91 92/92/92
f 93/93/93 94/94/94 95/95/95
f 96/96/96 97/97/97 98/98/98
f 102/102/102 99/99/99 101/101/101
f 101/101/101 99/99/99 100/100/100
f 103/103/103 104/104/104 105/105/105
f 106/106/106 107/107/107 108/108/108
f 109/109/109 110/110/110 111/111/111
f 115/115/115 112/112/112 114/114/114
f 114/114/114 112/112/112 113/113/113
f 116/116/116 118/118/118 119/119/119
f 116/116/116 117/117/117 118/118/118
f 123/123/123 120/120/120 122/122/122
f 122/122/122 120/120/120 121/121/121
f 127/127/127 125/125/125 126/126/126
f 127/127/127 124/124/124 125/125/125
f 131/131/131 128/128/128 130/130/130
f 130/130/130 128/128/128 129/129/129
f 133/133/133 134/134/134 135/135/135
f 132/132/132 133/133/133 135/135/135
f 139/139/139 136/136/136 137/137/137
f 138/138/138 139/139/139 137/137/137
f 140/140/140 142/142/142 143/143/143
f 140/140/140 141/141/141 142/142/142
f 147/147/147 144/144/144 146/146/146
f 145/145/145 146/146/146 144/144/144
f 150/150/150 148/148/148 149/149/149
f 148/148/148 150/150/150 151/151/151
f 152/152/152 153/153/153 154/154/154
f 156/156/156 157/157/157 155/155/155
f 155/155/155 157/157/157 158/158/158
f 160/160/160 161/161/161 159/159/159
f 159/159/159 161/161/161 162/162/162
f 166/166/166 163/163/163 165/165/165
f 164/164/164 165/165/165 163/163/163
f 170/170/170 167/167/167 168/168/168
f 168/168/168 169/169/169 170/170/170
f 171/171/171 172/172/172 173/173/173
f 175/175/175 176/176/176 177/177/177
f 174/174/174 175/175/175 177/177/177
f 180/180/180 178/178/178 179/179/179
f 178/178/178 180/180/180 181/181/181
f 184/184/184 182/182/182 183/183/183
f 182/182/182 184/184/184 185/185/185
f 186/186/186 188/188/188 189/189/189
f 186/186/186 187/187/187 188/188/188
f 191/191/191 192/192/192 190/190/190
f 190/190/190 192/192/192 193/193/193
f 194/194/194 195/195/195 196/196/196
f 197/197/197 198/198/198 199/199/199
f 200/200/200 201/201/201 202/202/202
f 205/205/205 203/203/203 204/204/204
f 203/203/203 205/205/205 206/206/206
f 207/207/207 208/208/208 209/209/209
f 210/210/210 211/211/211 212/212/212
f 213/213/213 214/214/214 215/215/215
f 216/216/216 217/217/217 218/218/218
f 219/219/219 220/220/220 221/221/221
f 222/222/222 223/223/223 224/224/224
f 226/226/226 227/227/227 225/225/225
f 225/225/225 227/227/227 228/228/228
f 229/229/229 230/230/230 231/231/231
f 232/232/232 233/233/233 234/234/234
f 235/235/235 236/236/236 237/237/237
f 258/258/258 238/238/238 257/257/257
f 255/255/255 256/256/256 257/257/257
f 254/254/254 255/255/255 257/257/257
f 238/238/238 239/239/239 240/240/240
f 238/238/238 240/240/240 243/243/243
f 240/240/240 241/241/241 243/243/243
f 241/241/241 242/242/242 243/243/243
f 238/238/238 243/243/243 244/244/244
f 244/244/244 254/254/254 257/257/257
f 238/238/238 244/244/244 257/257/257
f 244/244/244 245/245/245 247/247/247
f 245/245/245 246/246/246 247/247/247
f 252/252/252 253/253/253 254/254/254
f 244/244/244 247/247/247 250/250/250
f 250/250/250 252/252/252 254/254/254
f 247/247/247 248/248/248 249/249/249
f 247/247/247 249/249/249 250/250/250
f 244/244/244 250/250/250 254/254/254
f 250/250/250 251/251/251 252/252/252
