v -4.50373 6.023923 6.438467
v -1.92373 6.023923 8.113467
v -0.8147298 6.023923 7.958467
v -4.81373 6.023923 5.552467
v -4.50373 6.023923 6.438467
v -0.8147298 6.023923 7.958467
v -4.81373 6.023923 5.552467
v -1.07373 6.023923 -2.955533
v -2.40873 6.023923 -3.822533
v -7.40273 6.023923 3.870467
v 3.780921 6.023923 0.1072287
v 6.67727 6.023923 -3.579533
v 3.984374 6.023923 -0.2058483
v -0.8147298 6.023923 7.958467
v 6.67727 6.023923 -3.579533
v 3.780921 6.023923 0.1072287
v -0.8147298 6.023923 7.958467
v 3.780921 6.023923 0.1072287
v 3.318918 6.023923 -0.1952562
v -0.8147298 6.023923 7.958467
v 3.318918 6.023923 -0.1952562
v 3.092877 6.023923 -0.3490071
v 3.296428 6.023923 -0.6612419
v 3.758333 6.023923 -0.3595991
v 6.67727 6.023923 -3.579533
v 3.758333 6.023923 -0.3595991
v 3.984374 6.023923 -0.2058483
v 6.67727 6.023923 -3.579533
v -1.07373 6.023923 -2.955533
v 3.092877 6.023923 -0.3490071
v 3.296428 6.023923 -0.6612419
v -1.07373 6.023923 -2.955533
v 3.296428 6.023923 -0.6612419
v 6.67727 6.023923 -3.579533
v -1.07373 6.023923 -2.955533
v -0.8147298 6.023923 7.958467
v 3.092877 6.023923 -0.3490071
v 4.50427 6.023923 -6.034533
v 6.67727 6.023923 -3.579533
v 7.15427 6.023923 -4.314533
v -1.07373 6.023923 -2.955533
v 4.50427 6.023923 -6.034533
v 2.01927 6.023923 -7.719533
v -4.81373 6.023923 5.552467
v -0.8147298 6.023923 7.958467
v -1.07373 6.023923 -2.955533
v 2.01927 6.023923 -7.719533
v 4.50427 6.023923 -6.034533
v 5.37827 6.023923 -7.380533
v 2.55427 6.023923 -9.214533
v 1.71227 6.023923 -7.918533
v 2.01927 6.023923 -7.719533
v 2.55427 6.023923 -9.214533
v -1.07373 6.023923 -2.955533
v 6.67727 6.023923 -3.579533
v 4.50427 6.023923 -6.034533
v 3.318918 6.023923 -0.1952562
v 3.780921 6.023923 0.1072287
v 3.75227 6.158856 -0.1395329
v 3.318918 6.023923 -0.1952562
v 3.75227 6.158856 -0.1395329
v 3.33327 6.158856 -0.4245329
v 3.092877 6.023923 -0.3490071
v 3.75227 6.158856 -0.1395329
v 3.780921 6.023923 0.1072287
v 3.984374 6.023923 -0.2058483
v 3.092877 6.023923 -0.3490071
v 3.33327 6.158856 -0.4245329
v 3.296428 6.023923 -0.6612419
v 3.296428 6.023923 -0.6612419
v 3.33327 6.158856 -0.4245329
v 3.758333 6.023923 -0.3595991
v 3.75227 6.158856 -0.1395329
v 3.984374 6.023923 -0.2058483
v 3.758333 6.023923 -0.3595991
v 3.33327 6.158856 -0.4245329
v -7.40273 6.023923 3.870467
v -2.40873 6.023923 -3.822533
v -2.40873 -6.024086 -3.822533
v -7.40273 -6.024086 3.870467
v -7.40273 -6.024086 3.870467
v -4.81373 -6.024086 5.552467
v -4.81373 6.023923 5.552467
v -7.40273 6.023923 3.870467
v -4.81373 -6.024086 5.552467
v -4.50373 -6.024086 6.438467
v -4.50373 6.023923 6.438467
v -4.81373 6.023923 5.552467
v -4.50373 -6.024086 6.438467
v -1.92373 -6.024086 8.113467
v -1.92373 6.023923 8.113467
v -4.50373 6.023923 6.438467
v -1.92373 -6.024086 8.113467
v -0.8147298 -6.024086 7.958467
v -0.8147298 6.023923 7.958467
v -1.92373 6.023923 8.113467
v -0.8147298 -6.024086 7.958467
v 6.67727 -6.024086 -3.579533
v 6.67727 6.023923 -3.579533
v -0.8147298 6.023923 7.958467
v 6.91577 -6.024086 -3.947033
v 7.15427 -6.024086 -4.314533
v 7.15427 6.023923 -4.314533
v 6.67727 6.023923 -3.579533
v 6.67727 -6.024086 -3.579533
v 6.91577 -6.024086 -3.947033
v 6.67727 6.023923 -3.579533
v 6.91577 -6.024086 -3.947033
v 7.15427 6.023923 -4.314533
v 4.50427 6.023923 -6.034533
v 5.82927 -6.024086 -5.174533
v 4.50427 -6.024086 -6.034533
v 5.82927 -6.024086 -5.174533
v 7.15427 6.023923 -4.314533
v 7.15427 -6.024086 -4.314533
v 4.50427 6.023923 -6.034533
v 7.15427 6.023923 -4.314533
v 5.82927 -6.024086 -5.174533
v 4.50427 -6.024086 -6.034533
v 5.37827 -6.024086 -7.380533
v 5.37827 6.023923 -7.380533
v 4.50427 6.023923 -6.034533
v 2.55427 6.023923 -9.214533
v 5.37827 6.023923 -7.380533
v 5.37827 -6.024086 -7.380533
v 2.55427 -6.024086 -9.214533
v 1.71227 6.023923 -7.918533
v 2.55427 6.023923 -9.214533
v 2.55427 -6.024086 -9.214533
v 1.71227 -6.024086 -7.918533
v 1.71227 -6.024086 -7.918533
v 2.01927 -6.024086 -7.719533
v 2.01927 6.023923 -7.719533
v 1.71227 6.023923 -7.918533
v -1.07373 6.023923 -2.955533
v 2.01927 6.023923 -7.719533
v 2.01927 -6.024086 -7.719533
v -1.07373 -6.024086 -2.955533
v -2.40873 6.023923 -3.822533
v -1.07373 6.023923 -2.955533
v -1.07373 -6.024086 -2.955533
v -2.40873 -6.024086 -3.822533
v -1.07373 -6.024086 -2.955533
v 2.01927 -6.024086 -7.719533
v 1.71227 -6.024086 -7.918533
v 2.55427 -6.024086 -9.214533
v 5.37827 -6.024086 -7.380533
v 4.50427 -6.024086 -6.034533
v 5.82927 -6.024086 -5.174533
v 7.15427 -6.024086 -4.314533
v 6.91577 -6.024086 -3.947033
v 6.67727 -6.024086 -3.579533
v -0.8147298 -6.024086 7.958467
v -1.92373 -6.024086 8.113467
v -4.50373 -6.024086 6.438467
v -4.81373 -6.024086 5.552467
v -7.40273 -6.024086 3.870467
v -2.40873 -6.024086 -3.822533
vt 0.590272 0.073464
vt 0.653629 0.137599
vt 0.647937 0.165225
vt 0.556893 0.065803
vt 0.590272 0.073464
vt 0.647937 0.165225
vt 0.556893 0.065803
vt 0.237224 0.159500
vt 0.204427 0.126315
vt 0.493270 0.001443
vt 0.353094 0.280180
vt 0.214743 0.352542
vt 0.341340 0.285267
vt 0.647937 0.165225
vt 0.214743 0.352542
vt 0.353094 0.280180
vt 0.647937 0.165225
vt 0.353094 0.280180
vt 0.341653 0.268696
vt 0.647937 0.165225
vt 0.341653 0.268696
vt 0.335839 0.263078
vt 0.324116 0.268167
vt 0.335526 0.279649
vt 0.214743 0.352542
vt 0.335526 0.279649
vt 0.341340 0.285267
vt 0.214743 0.352542
vt 0.237224 0.159500
vt 0.335839 0.263078
vt 0.324116 0.268167
vt 0.237224 0.159500
vt 0.324116 0.268167
vt 0.214743 0.352542
vt 0.237224 0.159500
vt 0.647937 0.165225
vt 0.335839 0.263078
vt 0.122087 0.298599
vt 0.214743 0.352542
vt 0.187149 0.364468
vt 0.237224 0.159500
vt 0.122087 0.298599
vt 0.058363 0.236834
vt 0.556893 0.065803
vt 0.647937 0.165225
vt 0.237224 0.159500
vt 0.058363 0.236834
vt 0.122087 0.298599
vt 0.071554 0.320450
vt 0.002179 0.250255
vt 0.050835 0.229203
vt 0.058363 0.236834
vt 0.002179 0.250255
vt 0.237224 0.159500
vt 0.214743 0.352542
vt 0.122087 0.298599
vt 0.010774 0.989297
vt 0.021106 0.999866
vt 0.011913 0.999568
vt 0.010774 0.989297
vt 0.011913 0.999568
vt 0.002179 0.989983
vt 0.005524 0.984127
vt 0.027502 0.984127
vt 0.036000 0.985161
vt 0.026144 0.989209
vt 0.041394 0.989333
vt 0.041547 0.984127
vt 0.051344 0.985157
vt 0.994573 0.910740
vt 0.983898 0.910442
vt 0.983943 0.899944
vt 0.973856 0.900648
vt 0.978527 0.894661
vt 0.983943 0.899944
vt 0.983898 0.910442
vt 0.002179 0.743058
vt 0.295122 0.616162
vt 0.525510 0.646927
vt 0.236952 0.771920
vt 0.933709 0.774892
vt 0.995620 0.837576
vt 0.921226 0.866954
vt 0.858388 0.803333
vt 0.936809 0.894661
vt 0.969146 0.901958
vt 0.895566 0.930799
vt 0.862745 0.923393
vt 0.790684 0.774892
vt 0.852335 0.837371
vt 0.779350 0.867803
vt 0.716776 0.804389
vt 0.347987 0.944669
vt 0.342274 0.971480
vt 0.270153 0.921873
vt 0.275951 0.894661
vt 0.537794 0.418196
vt 0.110046 0.600738
vt 0.029833 0.553237
vt 0.463970 0.367965
vt 0.096422 0.606548
vt 0.082799 0.612359
vt 0.002179 0.565033
vt 0.029833 0.553237
vt 0.110046 0.600738
vt 0.096422 0.606548
vt 0.029833 0.553237
vt 0.096422 0.606548
vt 0.002179 0.565033
vt 0.068374 0.890696
vt 0.264454 0.807539
vt 0.297055 0.840185
vt 0.264454 0.807539
vt 0.002179 0.824410
vt 0.231854 0.774892
vt 0.068374 0.890696
vt 0.002179 0.824410
vt 0.264454 0.807539
vt 0.483514 0.942253
vt 0.434234 0.963235
vt 0.352941 0.915957
vt 0.402956 0.894661
vt 0.602174 0.737031
vt 0.531590 0.666364
vt 0.759521 0.616162
vt 0.829044 0.685771
vt 0.488017 0.915687
vt 0.537189 0.894661
vt 0.763672 0.926749
vt 0.715236 0.947461
vt 0.850141 0.894661
vt 0.857405 0.901940
vt 0.776436 0.933151
vt 0.769063 0.925763
vt 0.302832 0.853187
vt 0.484041 0.774892
vt 0.711952 0.807215
vt 0.533456 0.884336
vt 0.035514 0.980294
vt 0.002179 0.947046
vt 0.232374 0.894661
vt 0.265209 0.927411
vt 0.056645 0.984127
vt 0.056645 0.984127
vt 0.056645 0.984127
vt 0.056645 0.984127
vt 0.056645 0.984127
vt 0.056645 0.984127
vt 0.056645 0.984127
vt 0.056645 0.984127
vt 0.056645 0.984127
vt 0.056645 0.984127
vt 0.056645 0.984127
vt 0.056645 0.984127
vt 0.056645 0.984127
vt 0.056645 0.984127
vt 0.056645 0.984127
vt 0.056645 0.984127
vn 0 1 0
vn 0 1 0
vn 0 1 0
vn 0 1 0
vn 0 1 0
vn 0 1 0
vn 0 1 0
vn 0 1 0
vn 0 1 0
vn 0 1 0
vn 0 1 0
vn 0 1 0
vn 0 1 0
vn 0 1 0
vn 0 1 0
vn 0 1 0
vn 0 1 0
vn 0 1 0
vn 0 1 0
vn 0 1 0
vn 0 1 0
vn 0 1 0
vn 0 1 0
vn 0 1 0
vn 0 1 0
vn 0 1 0
vn 0 1 0
vn 0 1 0
vn 0 1 0
vn 0 1 0
vn 0 1 0
vn 0 1 0
vn 0 1 0
vn 0 1 0
vn 0 1 0
vn 0 1 0
vn 0 1 0
vn 0 1 0
vn 0 1 0
vn 0 1 0
vn 0 1 0
vn 0 1 0
vn 0 1 0
vn 0 1 0
vn 0 1 0
vn 0 1 0
vn 0 1 0
vn 0 1 0
vn 0 1 0
vn 0 1 0
vn 0 1 0
vn 0 1 0
vn 0 1 0
vn 0 1 0
vn 0 1 0
vn 0 1 0
vn -0.3163287 0.8163977 0.483147
vn -0.3163287 0.8163977 0.483147
vn -0.3163287 0.8163977 0.483147
vn -0.3171064 0.825893 0.466202
vn -0.3171064 0.825893 0.466202
vn -0.3171064 0.825893 0.466202
vn -0.3171064 0.825893 0.466202
vn 0.5435727 0.7614126 0.3532415
vn 0.5435727 0.7614126 0.3532415
vn 0.5435727 0.7614126 0.3532415
vn -0.5397949 0.7647135 -0.3519017
vn -0.5397949 0.7647135 -0.3519017
vn -0.5397949 0.7647135 -0.3519017
vn 0.330252 0.796986 -0.5057142
vn 0.330252 0.796986 -0.5057142
vn 0.330252 0.796986 -0.5057142
vn 0.3309861 0.8084932 -0.4866076
vn 0.3309861 0.8084932 -0.4866076
vn 0.3309861 0.8084932 -0.4866076
vn 0.3309861 0.8084932 -0.4866076
vn -0.8387648 0 -0.5444939
vn -0.8387648 0 -0.5444939
vn -0.8387648 0 -0.5444939
vn -0.8387648 0 -0.5444939
vn -0.5447948 0 0.8385694
vn -0.5447948 0 0.8385694
vn -0.5447948 0 0.8385694
vn -0.5447948 0 0.8385694
vn -0.9438916 0 0.3302555
vn -0.9438916 0 0.3302555
vn -0.9438916 0 0.3302555
vn -0.9438916 0 0.3302555
vn -0.5445312 0 0.8387406
vn -0.5445312 0 0.8387406
vn -0.5445312 0 0.8387406
vn -0.5445312 0 0.8387406
vn 0.1384201 0 0.9903736
vn 0.1384201 0 0.9903736
vn 0.1384201 0 0.9903736
vn 0.1384201 0 0.9903736
vn 0.8386993 0 0.5445948
vn 0.8386993 0 0.5445948
vn 0.8386993 0 0.5445948
vn 0.8386993 0 0.5445948
vn 0.8388345 0 0.5443865
vn 0.8388345 0 0.5443865
vn 0.8388345 0 0.5443865
vn 0.8388345 0 0.5443865
vn 0.8388345 0 0.5443865
vn 0.8388345 0 0.5443865
vn 0.8388345 -2.10408E-11 0.5443865
vn 0.8388345 -2.10408E-11 0.5443865
vn 0.8388345 -2.10408E-11 0.5443865
vn 0.5444319 0 -0.838805
vn 0.5444319 0 -0.838805
vn 0.5444319 0 -0.838805
vn 0.5444319 0 -0.838805
vn 0.5444319 0 -0.838805
vn 0.5444319 0 -0.838805
vn 0.5444319 3.373538E-11 -0.838805
vn 0.5444319 3.373538E-11 -0.838805
vn 0.5444319 3.373538E-11 -0.838805
vn 0.8386998 0 0.544594
vn 0.8386998 0 0.544594
vn 0.8386998 0 0.544594
vn 0.8386998 0 0.544594
vn 0.5446543 0 -0.8386607
vn 0.5446543 0 -0.8386607
vn 0.5446543 0 -0.8386607
vn 0.5446543 0 -0.8386607
vn -0.8385618 0 -0.5448064
vn -0.8385618 0 -0.5448064
vn -0.8385618 0 -0.5448064
vn -0.8385618 0 -0.5448064
vn -0.5439311 0 0.8391299
vn -0.5439311 0 0.8391299
vn -0.5439311 0 0.8391299
vn -0.5439311 0 0.8391299
vn -0.8387331 0 -0.5445427
vn -0.8387331 0 -0.5445427
vn -0.8387331 0 -0.5445427
vn -0.8387331 0 -0.5445427
vn 0.5446571 0 -0.8386589
vn 0.5446571 0 -0.8386589
vn 0.5446571 0 -0.8386589
vn 0.5446571 0 -0.8386589
vn 0 -1 0
vn 0 -1 0
vn 0 -1 0
vn 0 -1 0
vn 0 -1 0
vn 0 -1 0
vn 0 -1 0
vn 0 -1 0
vn 0 -1 0
vn 0 -1 0
vn 0 -1 0
vn 0 -1 0
vn 0 -1 0
vn 0 -1 0
vn 0 -1 0
vn 0 -1 0

g CDNNDG02_0003490
f 1/1/1 2/2/2 3/3/3
f 4/4/4 5/5/5 6/6/6
f 10/10/10 7/7/7 8/8/8
f 8/8/8 9/9/9 10/10/10
f 11/11/11 12/12/12 13/13/13
f 14/14/14 15/15/15 16/16/16
f 17/17/17 18/18/18 19/19/19
f 20/20/20 21/21/21 22/22/22
f 23/23/23 24/24/24 25/25/25
f 26/26/26 27/27/27 28/28/28
f 29/29/29 30/30/30 31/31/31
f 32/32/32 33/33/33 34/34/34
f 35/35/35 36/36/36 37/37/37
f 38/38/38 39/39/39 40/40/40
f 41/41/41 42/42/42 43/43/43
f 44/44/44 45/45/45 46/46/46
f 50/50/50 47/47/47 49/49/49
f 49/49/49 47/47/47 48/48/48
f 51/51/51 52/52/52 53/53/53
f 54/54/54 55/55/55 56/56/56
f 57/57/57 58/58/58 59/59/59
f 60/60/60 61/61/61 62/62/62
f 63/63/63 60/60/60 62/62/62
f 64/64/64 65/65/65 66/66/66
f 67/67/67 68/68/68 69/69/69
f 70/70/70 71/71/71 72/72/72
f 73/73/73 74/74/74 75/75/75
f 76/76/76 73/73/73 75/75/75
f 80/80/80 77/77/77 79/79/79
f 79/79/79 77/77/77 78/78/78
f 81/81/81 83/83/83 84/84/84
f 83/83/83 81/81/81 82/82/82
f 85/85/85 87/87/87 88/88/88
f 85/85/85 86/86/86 87/87/87
f 92/92/92 89/89/89 91/91/91
f 91/91/91 89/89/89 90/90/90
f 93/93/93 95/95/95 96/96/96
f 93/93/93 94/94/94 95/95/95
f 100/100/100 97/97/97 99/99/99
f 98/98/98 99/99/99 97/97/97
f 101/101/101 102/102/102 103/103/103
f 104/104/104 105/105/105 106/106/106
f 107/107/107 108/108/108 109/109/109
f 110/110/110 111/111/111 112/112/112
f 113/113/113 114/114/114 115/115/115
f 116/116/116 117/117/117 118/118/118
f 120/120/120 121/121/121 119/119/119
f 119/119/119 121/121/121 122/122/122
f 125/125/125 123/123/123 124/124/124
f 123/123/123 125/125/125 126/126/126
f 127/127/127 129/129/129 130/130/130
f 127/127/127 128/128/128 129/129/129
f 134/134/134 131/131/131 133/133/133
f 133/133/133 131/131/131 132/132/132
f 135/135/135 136/136/136 137/137/137
f 138/138/138 135/135/135 137/137/137
f 141/141/141 139/139/139 140/140/140
f 139/139/139 141/141/141 142/142/142
f 155/155/155 153/153/153 154/154/154
f 148/148/148 144/144/144 147/147/147
f 158/158/158 143/143/143 157/157/157
f 157/157/157 143/143/143 156/156/156
f 145/145/145 146/146/146 144/144/144
f 147/147/147 144/144/144 146/146/146
f 148/148/148 149/149/149 152/152/152
f 148/148/148 143/143/143 144/144/144
f 156/156/156 143/143/143 153/153/153
f 149/149/149 150/150/150 151/151/151
f 155/155/155 156/156/156 153/153/153
f 153/153/153 143/143/143 152/152/152
f 151/151/151 152/152/152 149/149/149
f 152/152/152 143/143/143 148/148/148
