v -3.224855 6.066458 0.1836416
v 0.08614493 6.066458 5.689641
v -3.021258 6.066458 -0.124647
v -3.737855 6.066458 -0.1553584
v 0.08614493 6.066458 5.689641
v -3.224855 6.066458 0.1836416
v -3.350855 6.066458 -0.7413583
v 5.127145 6.066458 -1.941358
v -0.06085507 6.066458 -5.720358
v -5.608855 6.066458 2.676642
v -0.1768551 6.066458 6.088642
v 0.08614493 6.066458 5.689641
v -0.06085507 6.066458 -5.720358
v 5.127145 6.066458 -1.941358
v 5.613145 6.066458 -2.677358
v 0.1821449 6.066458 -6.088358
v -5.608855 6.066458 2.676642
v 0.08614493 6.066458 5.689641
v -3.737855 6.066458 -0.1553584
v -2.159855 6.066458 1.140642
v 0.08614493 6.066458 5.689641
v -1.529855 6.066458 1.531642
v -1.529855 6.066458 1.531642
v 5.127145 6.066458 -1.941358
v -1.105855 6.066458 0.8476416
v -1.529855 6.066458 1.531642
v 0.08614493 6.066458 5.689641
v 5.127145 6.066458 -1.941358
v -3.021258 6.066458 -0.124647
v 0.08614493 6.066458 5.689641
v -2.159855 6.066458 1.140642
v -2.837855 6.066458 -0.4023584
v -1.735855 6.066458 0.4566416
v 5.127145 6.066458 -1.941358
v -1.735855 6.066458 0.4566416
v -1.105855 6.066458 0.8476416
v 5.127145 6.066458 -1.941358
v -3.021258 6.066458 -0.124647
v -1.735855 6.066458 0.4566416
v -2.837855 6.066458 -0.4023584
v -3.350855 6.066458 -0.7413583
v -2.837855 6.066458 -0.4023584
v 5.127145 6.066458 -1.941358
v -3.021258 6.066458 -0.124647
v -2.159855 6.066458 1.140642
v -1.735855 6.066458 0.4566416
v -2.159855 6.351458 1.140642
v -1.529855 6.351458 1.531642
v -1.105855 6.351458 0.8476416
v -1.735855 6.351458 0.4566416
v -3.737855 7.167458 -0.1553584
v -3.224855 7.167458 0.1836416
v -2.837855 7.167458 -0.4023584
v -3.350855 7.167458 -0.7413583
v -5.608855 6.066458 2.676642
v -4.673355 -6.076731 1.260642
v -5.608855 -6.076731 2.676642
v -4.673355 -6.076731 1.260642
v -3.737855 6.066458 -0.1553584
v -3.737855 -6.076731 -0.1553584
v -5.608855 6.066458 2.676642
v -3.737855 6.066458 -0.1553584
v -4.673355 -6.076731 1.260642
v -0.06085507 6.066458 -5.720358
v 0.1821449 6.066458 -6.088358
v 0.1821449 -6.076731 -6.088358
v -0.06085507 -6.076731 -5.720358
v -3.350855 6.066458 -0.7413583
v -0.06085507 6.066458 -5.720358
v -0.06085507 -6.076731 -5.720358
v -3.350855 -6.076731 -0.7413583
v -3.737855 6.066458 -0.1553584
v -3.350855 6.066458 -0.7413583
v -3.350855 -6.076731 -0.7413583
v -3.737855 -6.076731 -0.1553584
v -3.737855 7.167458 -0.1553584
v -3.350855 7.167458 -0.7413583
v -3.350855 6.066458 -0.7413583
v -3.737855 6.066458 -0.1553584
v -2.892855 -6.076731 4.382642
v -0.1768551 -6.076731 6.088642
v -0.1768551 6.066458 6.088642
v -5.608855 6.066458 2.676642
v -5.608855 -6.076731 2.676642
v -2.892855 -6.076731 4.382642
v -5.608855 6.066458 2.676642
v -2.892855 -6.076731 4.382642
v -0.1768551 6.066458 6.088642
v -0.1768551 -6.076731 6.088642
v 0.08614493 -6.076731 5.689641
v 0.08614493 6.066458 5.689641
v -0.1768551 6.066458 6.088642
v 0.08614493 -6.076731 5.689641
v 5.127145 -6.076731 -1.941358
v 5.127145 6.066458 -1.941358
v 0.08614493 6.066458 5.689641
v 5.127145 -6.076731 -1.941358
v 5.613145 -6.076731 -2.677358
v 5.613145 6.066458 -2.677358
v 5.127145 6.066458 -1.941358
v 0.1821449 6.066458 -6.088358
v 2.897645 -6.076731 -4.382858
v 0.1821449 -6.076731 -6.088358
v 2.897645 -6.076731 -4.382858
v 5.613145 6.066458 -2.677358
v 5.613145 -6.076731 -2.677358
v 0.1821449 6.066458 -6.088358
v 5.613145 6.066458 -2.677358
v 2.897645 -6.076731 -4.382858
v -2.159855 6.066458 1.140642
v -1.529855 6.066458 1.531642
v -1.529855 6.351458 1.531642
v -2.159855 6.351458 1.140642
v -1.529855 6.066458 1.531642
v -1.105855 6.066458 0.8476416
v -1.105855 6.351458 0.8476416
v -1.529855 6.351458 1.531642
v -1.735855 6.351458 0.4566416
v -1.105855 6.351458 0.8476416
v -1.105855 6.066458 0.8476416
v -1.735855 6.066458 0.4566416
v -2.159855 6.351458 1.140642
v -1.735855 6.351458 0.4566416
v -1.735855 6.066458 0.4566416
v -2.159855 6.066458 1.140642
v -3.737855 6.066458 -0.1553584
v -3.224855 6.066458 0.1836416
v -3.224855 7.167458 0.1836416
v -3.737855 7.167458 -0.1553584
v -3.021258 6.066458 -0.124647
v -2.837855 6.066458 -0.4023584
v -2.837855 7.167458 -0.4023584
v -3.224855 7.167458 0.1836416
v -3.224855 6.066458 0.1836416
v -3.021258 6.066458 -0.124647
v -3.224855 7.167458 0.1836416
v -3.021258 6.066458 -0.124647
v -2.837855 7.167458 -0.4023584
v -3.350855 7.167458 -0.7413583
v -2.837855 7.167458 -0.4023584
v -2.837855 6.066458 -0.4023584
v -3.350855 6.066458 -0.7413583
v -3.737855 -6.076731 -0.1553584
v -3.350855 -6.076731 -0.7413583
v -0.06085507 -6.076731 -5.720358
v 0.1821449 -6.076731 -6.088358
v 2.897645 -6.076731 -4.382858
v 5.613145 -6.076731 -2.677358
v 5.127145 -6.076731 -1.941358
v 0.08614493 -6.076731 5.689641
v -0.1768551 -6.076731 6.088642
v -2.892855 -6.076731 4.382642
v -5.608855 -6.076731 2.676642
v -4.673355 -6.076731 1.260642
vt 0.310396 0.298694
vt 0.023702 0.187988
vt 0.326403 0.291841
vt 0.328083 0.315883
vt 0.023702 0.187988
vt 0.310396 0.298694
vt 0.358510 0.302856
vt 0.419936 0.018288
vt 0.617040 0.192108
vt 0.181040 0.378862
vt 0.002985 0.196841
vt 0.023702 0.187988
vt 0.617040 0.192108
vt 0.419936 0.018288
vt 0.458154 0.001927
vt 0.636149 0.183928
vt 0.181040 0.378862
vt 0.023702 0.187988
vt 0.328083 0.315883
vt 0.260510 0.263027
vt 0.023702 0.187988
vt 0.240105 0.241916
vt 0.240105 0.241916
vt 0.419936 0.018288
vt 0.275624 0.227640
vt 0.240105 0.241916
vt 0.023702 0.187988
vt 0.419936 0.018288
vt 0.326403 0.291841
vt 0.023702 0.187988
vt 0.260510 0.263027
vt 0.340823 0.285667
vt 0.296028 0.248752
vt 0.419936 0.018288
vt 0.296028 0.248752
vt 0.275624 0.227640
vt 0.419936 0.018288
vt 0.326403 0.291841
vt 0.296028 0.248752
vt 0.340823 0.285667
vt 0.358510 0.302856
vt 0.340823 0.285667
vt 0.419936 0.018288
vt 0.326403 0.291841
vt 0.260510 0.263027
vt 0.296028 0.248752
vt 0.682115 0.733130
vt 0.662687 0.713020
vt 0.696506 0.699422
vt 0.715934 0.719531
vt 0.739136 0.727933
vt 0.722388 0.711714
vt 0.751199 0.699422
vt 0.767947 0.715641
vt 0.002985 0.583068
vt 0.087738 0.662889
vt 0.014938 0.694648
vt 0.087738 0.662889
vt 0.150829 0.518570
vt 0.160538 0.631130
vt 0.002985 0.583068
vt 0.150829 0.518570
vt 0.087738 0.662889
vt 0.441363 0.391807
vt 0.460576 0.383430
vt 0.465584 0.498045
vt 0.446663 0.506295
vt 0.181422 0.505228
vt 0.441363 0.391807
vt 0.446663 0.506295
vt 0.190667 0.617991
vt 0.150829 0.518570
vt 0.181422 0.505228
vt 0.190667 0.617991
vt 0.160538 0.631130
vt 0.149934 0.508192
vt 0.180569 0.494832
vt 0.181422 0.505228
vt 0.150829 0.518570
vt 0.575043 0.588035
vt 0.486227 0.497759
vt 0.471642 0.383430
vt 0.652007 0.566764
vt 0.663855 0.678308
vt 0.575043 0.588035
vt 0.652007 0.566764
vt 0.575043 0.588035
vt 0.471642 0.383430
vt 0.022154 0.879615
vt 0.042715 0.871431
vt 0.023855 0.980897
vt 0.002985 0.989204
vt 0.042715 0.871431
vt 0.435975 0.714547
vt 0.423036 0.821655
vt 0.023855 0.980897
vt 0.435975 0.714547
vt 0.473906 0.699422
vt 0.461538 0.806303
vt 0.423036 0.821655
vt 0.645682 0.989221
vt 0.574156 0.789528
vt 0.655472 0.879631
vt 0.574156 0.789528
vt 0.480597 0.806303
vt 0.492836 0.699422
vt 0.645682 0.989221
vt 0.480597 0.806303
vt 0.574156 0.789528
vt 0.866360 0.721696
vt 0.847994 0.701939
vt 0.847761 0.699422
vt 0.866135 0.719186
vt 0.952587 0.711369
vt 0.985784 0.699422
vt 0.985448 0.701770
vt 0.952239 0.713722
vt 0.840372 0.721578
vt 0.823881 0.701860
vt 0.824193 0.699422
vt 0.840679 0.719133
vt 0.910448 0.712676
vt 0.943647 0.699422
vt 0.943874 0.701874
vt 0.910686 0.715124
vt 0.816379 0.725450
vt 0.800794 0.709190
vt 0.800000 0.699422
vt 0.815606 0.715704
vt 0.890623 0.704767
vt 0.903912 0.699422
vt 0.902708 0.708860
vt 0.874627 0.720155
vt 0.875870 0.710702
vt 0.890623 0.704767
vt 0.874627 0.720155
vt 0.890623 0.704767
vt 0.902708 0.708860
vt 0.790475 0.725301
vt 0.776119 0.709032
vt 0.777255 0.699422
vt 0.791592 0.715669
vt 0.002985 0.994220
vt 0.002985 0.994220
vt 0.002985 0.994220
vt 0.002985 0.994220
vt 0.002985 0.994220
vt 0.002985 0.994220
vt 0.002985 0.994220
vt 0.002985 0.994220
vt 0.002985 0.994220
vt 0.002985 0.994220
vt 0.002985 0.994220
vt 0.002985 0.994220
vn 0 1 0
vn 0 1 0
vn 0 1 0
vn 0 1 0
vn 0 1 0
vn 0 1 0
vn 0 1 0
vn 0 1 0
vn 0 1 0
vn 0 1 0
vn 0 1 0
vn 0 1 0
vn 0 1 0
vn 0 1 0
vn 0 1 0
vn 0 1 0
vn 0 1 0
vn 0 1 0
vn 0 1 0
vn 0 1 0
vn 0 1 0
vn 0 1 0
vn 0 1 0
vn 0 1 0
vn 0 1 0
vn 0 1 0
vn 0 1 0
vn 0 1 0
vn 0 1 0
vn 0 1 0
vn 0 1 0
vn 0 1 0
vn 0 1 0
vn 0 1 0
vn 0 1 0
vn 0 1 0
vn 0 1 0
vn 0 1 0
vn 0 1 0
vn 0 1 0
vn 0 1 0
vn 0 1 0
vn 0 1 0
vn 0 1 0
vn 0 1 0
vn 0 1 0
vn 0 1 0
vn 0 1 0
vn 0 1 0
vn 0 1 0
vn 0 1 0
vn 0 1 0
vn 0 1 0
vn 0 1 0
vn -0.8343547 0 -0.551228
vn -0.8343547 0 -0.551228
vn -0.8343547 0 -0.551228
vn -0.8343547 0 -0.551228
vn -0.8343547 0 -0.551228
vn -0.8343547 0 -0.551228
vn -0.8343547 0 -0.551228
vn -0.8343547 0 -0.551228
vn -0.8343547 0 -0.551228
vn -0.8344843 0 -0.5510318
vn -0.8344843 0 -0.5510318
vn -0.8344843 0 -0.5510318
vn -0.8344843 0 -0.5510318
vn -0.8343119 0 -0.5512927
vn -0.8343119 0 -0.5512927
vn -0.8343119 0 -0.5512927
vn -0.8343119 0 -0.5512927
vn -0.8344523 0 -0.5510802
vn -0.8344523 0 -0.5510802
vn -0.8344523 0 -0.5510802
vn -0.8344523 0 -0.5510802
vn -0.8344523 0 -0.5510802
vn -0.8344523 0 -0.5510802
vn -0.8344523 0 -0.5510802
vn -0.8344523 0 -0.5510802
vn -0.5319033 0 0.8468051
vn -0.5319033 0 0.8468051
vn -0.5319033 0 0.8468051
vn -0.5319033 0 0.8468051
vn -0.5319033 0 0.8468051
vn -0.5319033 0 0.8468051
vn -0.5319033 -3.247288E-11 0.8468051
vn -0.5319033 -3.247288E-11 0.8468051
vn -0.5319033 -3.247288E-11 0.8468051
vn 0.8349364 0 0.5503465
vn 0.8349364 0 0.5503465
vn 0.8349364 0 0.5503465
vn 0.8349364 0 0.5503465
vn 0.8343811 0 0.5511879
vn 0.8343811 0 0.5511879
vn 0.8343811 0 0.5511879
vn 0.8343811 0 0.5511879
vn 0.8344843 0 0.5510318
vn 0.8344843 0 0.5510318
vn 0.8344843 0 0.5510318
vn 0.8344843 0 0.5510318
vn 0.5318618 0 -0.8468312
vn 0.5318618 0 -0.8468312
vn 0.5318618 0 -0.8468312
vn 0.5318618 0 -0.8468312
vn 0.5318618 0 -0.8468312
vn 0.5318618 0 -0.8468312
vn 0.5318618 0 -0.8468312
vn 0.5318618 0 -0.8468312
vn 0.5318618 0 -0.8468312
vn -0.5273293 0 0.849661
vn -0.5273293 0 0.849661
vn -0.5273293 0 0.849661
vn -0.5273293 0 0.849661
vn 0.8499472 0 0.5268679
vn 0.8499472 0 0.5268679
vn 0.8499472 0 0.5268679
vn 0.8499472 0 0.5268679
vn 0.5273293 0 -0.849661
vn 0.5273293 0 -0.849661
vn 0.5273293 0 -0.849661
vn 0.5273293 0 -0.849661
vn -0.8499472 0 -0.5268679
vn -0.8499472 0 -0.5268679
vn -0.8499472 0 -0.5268679
vn -0.8499472 0 -0.5268679
vn -0.5513179 0 0.8342953
vn -0.5513179 0 0.8342953
vn -0.5513179 0 0.8342953
vn -0.5513179 0 0.8342953
vn 0.8344523 0 0.5510802
vn 0.8344523 0 0.5510802
vn 0.8344523 0 0.5510802
vn 0.8344523 0 0.5510802
vn 0.8344523 0 0.5510802
vn 0.8344523 0 0.5510802
vn 0.8344523 2.248939E-09 0.5510802
vn 0.8344523 2.248939E-09 0.5510802
vn 0.8344523 2.248939E-09 0.5510802
vn 0.5513179 0 -0.8342953
vn 0.5513179 0 -0.8342953
vn 0.5513179 0 -0.8342953
vn 0.5513179 0 -0.8342953
vn 0 -1 0
vn 0 -1 0
vn 0 -1 0
vn 0 -1 0
vn 0 -1 0
vn 0 -1 0
vn 0 -1 0
vn 0 -1 0
vn 0 -1 0
vn 0 -1 0
vn 0 -1 0
vn 0 -1 0

g CDNNDG02_0008740
f 1/1/1 2/2/2 3/3/3
f 4/4/4 5/5/5 6/6/6
f 7/7/7 8/8/8 9/9/9
f 10/10/10 11/11/11 12/12/12
f 16/16/16 13/13/13 15/15/15
f 15/15/15 13/13/13 14/14/14
f 17/17/17 18/18/18 19/19/19
f 20/20/20 21/21/21 22/22/22
f 23/23/23 24/24/24 25/25/25
f 26/26/26 27/27/27 28/28/28
f 29/29/29 30/30/30 31/31/31
f 32/32/32 33/33/33 34/34/34
f 35/35/35 36/36/36 37/37/37
f 38/38/38 39/39/39 40/40/40
f 41/41/41 42/42/42 43/43/43
f 44/44/44 45/45/45 46/46/46
f 47/47/47 49/49/49 50/50/50
f 47/47/47 48/48/48 49/49/49
f 51/51/51 53/53/53 54/54/54
f 51/51/51 52/52/52 53/53/53
f 55/55/55 56/56/56 57/57/57
f 58/58/58 59/59/59 60/60/60
f 61/61/61 62/62/62 63/63/63
f 64/64/64 66/66/66 67/67/67
f 64/64/64 65/65/65 66/66/66
f 71/71/71 69/69/69 70/70/70
f 71/71/71 68/68/68 69/69/69
f 72/72/72 74/74/74 75/75/75
f 72/72/72 73/73/73 74/74/74
f 79/79/79 76/76/76 78/78/78
f 78/78/78 76/76/76 77/77/77
f 80/80/80 81/81/81 82/82/82
f 83/83/83 84/84/84 85/85/85
f 86/86/86 87/87/87 88/88/88
f 90/90/90 91/91/91 89/89/89
f 89/89/89 91/91/91 92/92/92
f 96/96/96 93/93/93 94/94/94
f 94/94/94 95/95/95 96/96/96
f 98/98/98 99/99/99 97/97/97
f 97/97/97 99/99/99 100/100/100
f 101/101/101 102/102/102 103/103/103
f 104/104/104 105/105/105 106/106/106
f 107/107/107 108/108/108 109/109/109
f 113/113/113 110/110/110 112/112/112
f 112/112/112 110/110/110 111/111/111
f 114/114/114 116/116/116 117/117/117
f 114/114/114 115/115/115 116/116/116
f 118/118/118 120/120/120 121/121/121
f 118/118/118 119/119/119 120/120/120
f 125/125/125 122/122/122 124/124/124
f 124/124/124 122/122/122 123/123/123
f 126/126/126 128/128/128 129/129/129
f 128/128/128 126/126/126 127/127/127
f 130/130/130 131/131/131 132/132/132
f 133/133/133 134/134/134 135/135/135
f 136/136/136 137/137/137 138/138/138
f 140/140/140 141/141/141 139/139/139
f 139/139/139 141/141/141 142/142/142
f 147/147/147 144/144/144 145/145/145
f 154/154/154 143/143/143 152/152/152
f 148/148/148 149/149/149 147/147/147
f 153/153/153 154/154/154 152/152/152
f 145/145/145 146/146/146 147/147/147
f 152/152/152 143/143/143 144/144/144
f 151/151/151 152/152/152 150/150/150
f 144/144/144 147/147/147 149/149/149
f 150/150/150 152/152/152 144/144/144
f 149/149/149 150/150/150 144/144/144
