v -3.781956 8.308228 8.207718
v 0.6860435 8.320228 11.04472
v 10.12604 8.320228 -4.223282
v 5.867043 8.303227 -6.948282
v -0.5459565 8.285228 -11.04428
v -10.20796 8.285228 4.131718
v -0.5459565 8.285228 -11.04428
v 2.660543 -8.303003 -8.996282
v -0.5459565 -8.303003 -11.04428
v 2.660543 -8.303003 -8.996282
v 5.867043 8.303227 -6.948282
v 5.867043 -8.303003 -6.948282
v -0.5459565 8.285228 -11.04428
v 5.867043 8.303227 -6.948282
v 2.660543 -8.303003 -8.996282
v 5.867043 8.303227 -6.948282
v 10.12604 8.320228 -4.223282
v 10.12604 -8.303003 -4.223282
v 5.867043 -8.303003 -6.948282
v -10.20796 8.285228 4.131718
v -0.5459565 8.285228 -11.04428
v -0.5459565 -8.303003 -11.04428
v -10.20796 -8.303003 4.131718
v -6.994956 -8.303003 6.169718
v -3.781956 -8.303003 8.207718
v -3.781956 8.308228 8.207718
v -10.20796 8.285228 4.131718
v -10.20796 -8.303003 4.131718
v -6.994956 -8.303003 6.169718
v -10.20796 8.285228 4.131718
v -6.994956 -8.303003 6.169718
v -3.781956 8.308228 8.207718
v -3.781956 -8.303003 8.207718
v 0.6860435 -8.303003 11.04472
v 0.6860435 8.320228 11.04472
v -3.781956 8.308228 8.207718
v 0.6860435 -8.303003 11.04472
v 10.12604 -8.303003 -4.223282
v 10.12604 8.320228 -4.223282
v 0.6860435 8.320228 11.04472
v -10.20796 -8.303003 4.131718
v -0.5459565 -8.303003 -11.04428
v 2.660543 -8.303003 -8.996282
v 5.867043 -8.303003 -6.948282
v 10.12604 -8.303003 -4.223282
v 0.6860435 -8.303003 11.04472
v -3.781956 -8.303003 8.207718
v -6.994956 -8.303003 6.169718
vt 0.687728 0.146903
vt 0.784916 0.248152
vt 0.235824 0.452006
vt 0.142410 0.355503
vt 0.002058 0.210179
vt 0.548052 0.001297
vt 0.116714 0.455253
vt 0.070535 0.560873
vt 0.002058 0.489790
vt 0.070535 0.560873
vt 0.256607 0.600303
vt 0.139011 0.631953
vt 0.116714 0.455253
vt 0.256607 0.600303
vt 0.070535 0.560873
vt 0.256607 0.600303
vt 0.349716 0.696625
vt 0.230124 0.726364
vt 0.139011 0.631953
vt 0.661947 0.791537
vt 0.116498 0.999509
vt 0.002058 0.934012
vt 0.536525 0.730220
vt 0.687243 0.730220
vt 0.687243 0.730220
vt 0.687243 0.730220
vt 0.687243 0.730220
vt 0.687243 0.730220
vt 0.687243 0.730220
vt 0.687243 0.730220
vt 0.687243 0.730220
vt 0.687243 0.730220
vt 0.687243 0.730220
vt 0.687243 0.730220
vt 0.687243 0.730220
vt 0.687243 0.730220
vt 0.666667 0.730220
vt 0.666667 0.730220
vt 0.666667 0.730220
vt 0.666667 0.730220
vt 0.676955 0.730220
vt 0.676955 0.730220
vt 0.676955 0.730220
vt 0.676955 0.730220
vt 0.676955 0.730220
vt 0.676955 0.730220
vt 0.676955 0.730220
vt 0.676955 0.730220
vn -0.00225251 0.9999962 -0.00159016
vn -0.001928611 0.9999974 -0.001192434
vn -0.002307424 0.999996 -0.001616258
vn -0.002265922 0.9999959 -0.00177249
vn -0.002197596 0.9999964 -0.001564063
vn -0.002549584 0.9999954 -0.001623226
vn 0.5382778 0 -0.8427675
vn 0.5382778 0 -0.8427675
vn 0.5382778 0 -0.8427675
vn 0.5382778 0 -0.8427675
vn 0.5382778 0 -0.8427675
vn 0.5382778 0 -0.8427675
vn 0.5382778 -9.43891E-13 -0.8427675
vn 0.5382778 -9.43891E-13 -0.8427675
vn 0.5382778 -9.43891E-13 -0.8427675
vn 0.538947 0 -0.8423396
vn 0.538947 0 -0.8423396
vn 0.538947 0 -0.8423396
vn 0.538947 0 -0.8423396
vn -0.843547 0 -0.5370553
vn -0.843547 0 -0.5370553
vn -0.843547 0 -0.5370553
vn -0.843547 0 -0.5370553
vn -0.5356334 0 0.8444506
vn -0.5356334 0 0.8444506
vn -0.5356334 0 0.8444506
vn -0.5356334 0 0.8444506
vn -0.5356334 0 0.8444506
vn -0.5356334 0 0.8444506
vn -0.5356334 2.368882E-11 0.8444506
vn -0.5356334 2.368882E-11 0.8444506
vn -0.5356334 2.368882E-11 0.8444506
vn -0.5360317 0 0.8441979
vn -0.5360317 0 0.8441979
vn -0.5360317 0 0.8441979
vn -0.5360317 0 0.8441979
vn 0.8505547 0 0.5258866
vn 0.8505547 0 0.5258866
vn 0.8505547 0 0.5258866
vn 0.8505547 0 0.5258866
vn 0 -1 0
vn 0 -1 0
vn 0 -1 0
vn 0 -1 0
vn 0 -1 0
vn 0 -1 0
vn 0 -1 0
vn 0 -1 0

g CDNNDG02_0015570
f 1/1/1 5/5/5 6/6/6
f 1/1/1 4/4/4 5/5/5
f 1/1/1 3/3/3 4/4/4
f 3/3/3 1/1/1 2/2/2
f 7/7/7 8/8/8 9/9/9
f 10/10/10 11/11/11 12/12/12
f 13/13/13 14/14/14 15/15/15
f 18/18/18 16/16/16 17/17/17
f 16/16/16 18/18/18 19/19/19
f 20/20/20 22/22/22 23/23/23
f 20/20/20 21/21/21 22/22/22
f 24/24/24 25/25/25 26/26/26
f 27/27/27 28/28/28 29/29/29
f 30/30/30 31/31/31 32/32/32
f 34/34/34 35/35/35 36/36/36
f 36/36/36 33/33/33 34/34/34
f 40/40/40 37/37/37 38/38/38
f 38/38/38 39/39/39 40/40/40
f 43/43/43 47/47/47 48/48/48
f 45/45/45 46/46/46 47/47/47
f 44/44/44 45/45/45 47/47/47
f 41/41/41 42/42/42 48/48/48
f 43/43/43 44/44/44 47/47/47
f 42/42/42 43/43/43 48/48/48
