v -0.8450801 6.024996 -7.025516
v 4.37092 6.024996 1.891484
v 6.90192 6.024996 -2.045516
v -3.13008 6.024996 3.900484
v 3.72192 6.024996 2.901484
v 4.37092 6.024996 1.891484
v -3.13008 6.024996 3.900484
v 1.26392 6.024996 6.724484
v 3.72192 6.024996 2.901484
v -2.88208 6.024996 -3.272516
v -2.32908 6.024996 -2.916516
v -0.8450801 6.024996 -7.025516
v -3.55387 6.024996 -2.227359
v -2.88208 6.024996 -3.272516
v -0.8450801 6.024996 -7.025516
v -3.32408 6.024996 -1.368516
v 4.37092 6.024996 1.891484
v -2.32908 6.024996 -2.916516
v -2.32908 6.024996 -2.916516
v 4.37092 6.024996 1.891484
v -0.8450801 6.024996 -7.025516
v -5.97908 6.024996 2.068484
v -3.13008 6.024996 3.900484
v -3.32408 6.024996 -1.368516
v -5.97908 6.024996 2.068484
v -3.32408 6.024996 -1.368516
v -3.848233 6.024996 -1.705946
v -3.32408 6.024996 -1.368516
v -3.13008 6.024996 3.900484
v 4.37092 6.024996 1.891484
v -6.48208 6.024996 1.745484
v -3.87708 6.024996 -1.724516
v -3.55387 6.024996 -2.227359
v -6.48208 6.024996 1.745484
v -3.55387 6.024996 -2.227359
v -0.8450801 6.024996 -7.025516
v -5.97908 6.024996 2.068484
v -3.848233 6.024996 -1.705946
v -3.87708 6.024996 -1.724516
v -6.48208 6.024996 1.745484
v -5.97908 6.024996 2.068484
v -3.87708 6.024996 -1.724516
v -6.67708 5.182996 3.154484
v -3.13008 5.368996 3.900484
v -5.97908 5.369996 2.068484
v -6.67708 5.182996 3.154484
v -3.82808 5.182996 4.986484
v -3.13008 5.368996 3.900484
v -3.87708 6.049996 -1.724516
v -2.78208 6.244996 -2.797516
v -2.88208 6.049996 -3.272516
v -3.87708 6.049996 -1.724516
v -3.39908 6.244996 -1.826516
v -2.78208 6.244996 -2.797516
v -3.87708 6.049996 -1.724516
v -3.32408 6.051996 -1.368516
v -3.39908 6.244996 -1.826516
v -2.88208 6.049996 -3.272516
v -2.78208 6.244996 -2.797516
v -2.32908 6.051996 -2.916516
v -3.39908 6.244996 -1.826516
v -2.32908 6.051996 -2.916516
v -2.78208 6.244996 -2.797516
v -3.39908 6.244996 -1.826516
v -3.32408 6.051996 -1.368516
v -2.32908 6.051996 -2.916516
v -3.13008 -5.995699 3.900484
v 1.26392 -5.995699 6.724484
v 1.26392 6.024996 6.724484
v -3.13008 5.368996 3.900484
v -3.13008 6.024996 3.900484
v -3.13008 5.368996 3.900484
v 1.26392 6.024996 6.724484
v -6.48208 6.024996 1.745484
v -5.97908 5.369996 2.068484
v -5.97908 6.024996 2.068484
v -6.48208 -5.995699 1.745484
v -5.97908 -5.995699 2.068484
v -5.97908 5.369996 2.068484
v -6.48208 6.024996 1.745484
v -5.97908 5.369996 2.068484
v -3.13008 5.368996 3.900484
v -3.13008 6.024996 3.900484
v -5.97908 6.024996 2.068484
v 1.26392 -5.995699 6.724484
v 3.72192 -5.995699 2.901484
v 3.72192 6.024996 2.901484
v 1.26392 6.024996 6.724484
v 3.72192 -5.995699 2.901484
v 4.37092 -5.995699 1.891484
v 4.37092 6.024996 1.891484
v 3.72192 6.024996 2.901484
v 4.37092 -5.995699 1.891484
v 6.90192 -5.995699 -2.045516
v 6.90192 6.024996 -2.045516
v 4.37092 6.024996 1.891484
v -0.8450801 6.024996 -7.025516
v 6.90192 6.024996 -2.045516
v 6.90192 -5.995699 -2.045516
v -0.8450801 -5.995699 -7.025516
v -6.48208 6.024996 1.745484
v -0.8450801 6.024996 -7.025516
v -0.8450801 -5.995699 -7.025516
v -6.48208 -5.995699 1.745484
v -5.25258 -5.995699 4.070484
v -3.82808 -5.995699 4.986484
v -3.82808 5.182996 4.986484
v -6.67708 5.182996 3.154484
v -6.67708 -5.995699 3.154484
v -5.25258 -5.995699 4.070484
v -6.67708 5.182996 3.154484
v -5.25258 -5.995699 4.070484
v -3.82808 5.182996 4.986484
v -3.47908 -5.995699 4.443484
v -3.13008 -5.995699 3.900484
v -3.13008 5.368996 3.900484
v -3.82808 5.182996 4.986484
v -3.82808 -5.995699 4.986484
v -3.47908 -5.995699 4.443484
v -3.82808 5.182996 4.986484
v -3.47908 -5.995699 4.443484
v -3.13008 5.368996 3.900484
v -6.67708 5.182996 3.154484
v -6.32808 -5.995699 2.611484
v -6.67708 -5.995699 3.154484
v -6.32808 -5.995699 2.611484
v -5.97908 5.369996 2.068484
v -5.97908 -5.995699 2.068484
v -6.67708 5.182996 3.154484
v -5.97908 5.369996 2.068484
v -6.32808 -5.995699 2.611484
v -3.87708 6.049996 -1.724516
v -3.55387 6.024996 -2.227359
v -3.87708 6.024996 -1.724516
v -3.87708 6.049996 -1.724516
v -2.88208 6.049996 -3.272516
v -2.88208 6.024996 -3.272516
v -3.55387 6.024996 -2.227359
v -3.848233 6.024996 -1.705946
v -3.32408 6.024996 -1.368516
v -3.32408 6.051996 -1.368516
v -3.87708 6.049996 -1.724516
v -3.87708 6.024996 -1.724516
v -3.848233 6.024996 -1.705946
v -3.87708 6.049996 -1.724516
v -3.848233 6.024996 -1.705946
v -3.32408 6.051996 -1.368516
v -2.88208 6.049996 -3.272516
v -2.32908 6.051996 -2.916516
v -2.32908 6.024996 -2.916516
v -2.88208 6.024996 -3.272516
v -3.32408 6.024996 -1.368516
v -2.32908 6.024996 -2.916516
v -2.32908 6.051996 -2.916516
v -3.32408 6.051996 -1.368516
v -5.25258 -5.995699 4.070484
v -6.67708 -5.995699 3.154484
v -6.32808 -5.995699 2.611484
v -5.97908 -5.995699 2.068484
v -6.48208 -5.995699 1.745484
v -0.8450801 -5.995699 -7.025516
v 6.90192 -5.995699 -2.045516
v 4.37092 -5.995699 1.891484
v 3.72192 -5.995699 2.901484
v 1.26392 -5.995699 6.724484
v -3.13008 -5.995699 3.900484
v -3.47908 -5.995699 4.443484
v -3.82808 -5.995699 4.986484
vt 0.002710 0.209997
vt 0.419294 0.404442
vt 0.234741 0.497757
vt 0.514284 0.126665
vt 0.466640 0.380514
vt 0.419294 0.404442
vt 0.514284 0.126665
vt 0.645855 0.289887
vt 0.466640 0.380514
vt 0.178591 0.134962
vt 0.195179 0.155504
vt 0.002710 0.209997
vt 0.227586 0.110192
vt 0.178591 0.134962
vt 0.002710 0.209997
vt 0.267746 0.118816
vt 0.419294 0.404442
vt 0.195179 0.155504
vt 0.195179 0.155504
vt 0.419294 0.404442
vt 0.002710 0.209997
vt 0.428927 0.020831
vt 0.514284 0.126665
vt 0.267746 0.118816
vt 0.428927 0.020831
vt 0.267746 0.118816
vt 0.252024 0.099345
vt 0.267746 0.118816
vt 0.514284 0.126665
vt 0.419294 0.404442
vt 0.413878 0.002146
vt 0.251159 0.098274
vt 0.227586 0.110192
vt 0.413878 0.002146
vt 0.227586 0.110192
vt 0.002710 0.209997
vt 0.428927 0.020831
vt 0.252024 0.099345
vt 0.251159 0.098274
vt 0.413878 0.002146
vt 0.428927 0.020831
vt 0.251159 0.098274
vt 0.219226 0.809013
vt 0.252915 0.940194
vt 0.168022 0.836094
vt 0.219226 0.809013
vt 0.304093 0.913098
vt 0.252915 0.940194
vt 0.641792 0.809013
vt 0.592005 0.849308
vt 0.571816 0.844344
vt 0.641792 0.809013
vt 0.635910 0.827393
vt 0.592005 0.849308
vt 0.905158 0.809013
vt 0.920108 0.827523
vt 0.899729 0.826426
vt 0.875339 0.809013
vt 0.893635 0.812005
vt 0.889902 0.827577
vt 0.695833 0.809013
vt 0.647696 0.847055
vt 0.651805 0.830664
vt 0.695833 0.809013
vt 0.717872 0.812147
vt 0.647696 0.847055
vt 0.833491 0.124189
vt 0.963910 0.284165
vt 0.886503 0.379936
vt 0.758524 0.212402
vt 0.754132 0.217570
vt 0.758524 0.212402
vt 0.886503 0.379936
vt 0.653117 0.093703
vt 0.672713 0.107217
vt 0.668257 0.112291
vt 0.733965 0.002146
vt 0.748882 0.020460
vt 0.672713 0.107217
vt 0.653117 0.093703
vt 0.672713 0.107217
vt 0.758524 0.212402
vt 0.754132 0.217570
vt 0.668257 0.112291
vt 0.989859 0.527452
vt 0.813512 0.616301
vt 0.732948 0.592323
vt 0.911928 0.502146
vt 0.813512 0.616301
vt 0.766923 0.639760
vt 0.685664 0.616132
vt 0.732948 0.592323
vt 0.766923 0.639760
vt 0.585325 0.731245
vt 0.501355 0.708983
vt 0.685664 0.616132
vt 0.948510 0.809013
vt 0.948510 0.809013
vt 0.948510 0.809013
vt 0.948510 0.809013
vt 0.412182 0.593572
vt 0.002710 0.802778
vt 0.089844 0.708273
vt 0.493288 0.502146
vt 0.118277 0.860592
vt 0.160237 0.912170
vt 0.087798 0.998087
vt 0.002710 0.893498
vt 0.076316 0.809013
vt 0.118277 0.860592
vt 0.002710 0.893498
vt 0.118277 0.860592
vt 0.087798 0.998087
vt 0.540634 0.846508
vt 0.515983 0.858733
vt 0.441734 0.833381
vt 0.492952 0.809013
vt 0.565285 0.834283
vt 0.540634 0.846508
vt 0.492952 0.809013
vt 0.540634 0.846508
vt 0.441734 0.833381
vt 0.362751 0.892836
vt 0.411431 0.821623
vt 0.436011 0.809013
vt 0.411431 0.821623
vt 0.311653 0.919834
vt 0.386850 0.834233
vt 0.362751 0.892836
vt 0.311653 0.919834
vt 0.411431 0.821623
vt 0.869434 0.809199
vt 0.846875 0.820422
vt 0.869605 0.809013
vt 0.869434 0.809199
vt 0.799458 0.844324
vt 0.799631 0.844136
vt 0.846875 0.820422
vt 0.927734 0.809978
vt 0.941409 0.827508
vt 0.941246 0.827700
vt 0.926829 0.809191
vt 0.926981 0.809013
vt 0.927734 0.809978
vt 0.926829 0.809191
vt 0.927734 0.809978
vt 0.941246 0.827700
vt 0.975610 0.809013
vt 0.975610 0.809013
vt 0.975610 0.809013
vt 0.975610 0.809013
vt 0.793937 0.809073
vt 0.723764 0.843873
vt 0.723577 0.843814
vt 0.793753 0.809013
vt 0.962060 0.809013
vt 0.962060 0.809013
vt 0.962060 0.809013
vt 0.962060 0.809013
vt 0.962060 0.809013
vt 0.962060 0.809013
vt 0.962060 0.809013
vt 0.962060 0.809013
vt 0.962060 0.809013
vt 0.962060 0.809013
vt 0.962060 0.809013
vt 0.962060 0.809013
vt 0.962060 0.809013
vn 0 1 0
vn 0 1 0
vn 0 1 0
vn 0 1 0
vn 0 1 0
vn 0 1 0
vn 0 1 0
vn 0 1 0
vn 0 1 0
vn 0 1 0
vn 0 1 0
vn 0 1 0
vn 0 1 0
vn 0 1 0
vn 0 1 0
vn 0 1 0
vn 0 1 0
vn 0 1 0
vn 0 1 0
vn 0 1 0
vn 0 1 0
vn 0 1 0
vn 0 1 0
vn 0 1 0
vn 0 1 0
vn 0 1 0
vn 0 1 0
vn 0 1 0
vn 0 1 0
vn 0 1 0
vn 0 1 0
vn 0 1 0
vn 0 1 0
vn 0 1 0
vn 0 1 0
vn 0 1 0
vn 0 1 0
vn 0 1 0
vn 0 1 0
vn 0 1 0
vn 0 1 0
vn 0 1 0
vn -0.07729019 0.9896711 0.1207366
vn -0.07729019 0.9896711 0.1207366
vn -0.07729019 0.9896711 0.1207366
vn -0.07712981 0.9897797 0.119947
vn -0.07712981 0.9897797 0.119947
vn -0.07712981 0.9897797 0.119947
vn -0.4176309 0.8680583 -0.2684385
vn -0.4176309 0.8680583 -0.2684385
vn -0.4176309 0.8680583 -0.2684385
vn -0.4119196 0.8728183 -0.261745
vn -0.4119196 0.8728183 -0.261745
vn -0.4119196 0.8728183 -0.261745
vn -0.2677719 0.8713972 0.4110536
vn -0.2677719 0.8713972 0.4110536
vn -0.2677719 0.8713972 0.4110536
vn 0.2628867 0.8718417 -0.4132585
vn 0.2628867 0.8718417 -0.4132585
vn 0.2628867 0.8718417 -0.4132585
vn 0.4373868 0.8552479 0.2779276
vn 0.4373868 0.8552479 0.2779276
vn 0.4373868 0.8552479 0.2779276
vn 0.4438429 0.8494793 0.2852866
vn 0.4438429 0.8494793 0.2852866
vn 0.4438429 0.8494793 0.2852866
vn -0.5406608 0 0.8412407
vn -0.5406608 0 0.8412407
vn -0.5406608 0 0.8412407
vn -0.5406608 0 0.8412407
vn -0.5406608 0 0.8412407
vn -0.5406608 0 0.8412407
vn -0.5406608 0 0.8412407
vn -0.5403348 0 0.8414502
vn -0.5403348 0 0.8414502
vn -0.5403348 0 0.8414502
vn -0.5403348 0 0.8414502
vn -0.5403348 0 0.8414502
vn -0.5403348 0 0.8414502
vn -0.5403348 0 0.8414502
vn -0.540862 0 0.8411113
vn -0.540862 0 0.8411113
vn -0.540862 0 0.8411113
vn -0.540862 0 0.8411113
vn 0.8411427 0 0.5408132
vn 0.8411427 0 0.5408132
vn 0.8411427 0 0.5408132
vn 0.8411427 0 0.5408132
vn 0.8412867 0 0.5405892
vn 0.8412867 0 0.5405892
vn 0.8412867 0 0.5405892
vn 0.8412867 0 0.5405892
vn 0.8411716 0 0.5407684
vn 0.8411716 0 0.5407684
vn 0.8411716 0 0.5407684
vn 0.8411716 0 0.5407684
vn 0.5407411 0 -0.8411891
vn 0.5407411 0 -0.8411891
vn 0.5407411 0 -0.8411891
vn 0.5407411 0 -0.8411891
vn -0.8412439 0 -0.5406558
vn -0.8412439 0 -0.5406558
vn -0.8412439 0 -0.5406558
vn -0.8412439 0 -0.5406558
vn -0.540862 0 0.8411113
vn -0.540862 0 0.8411113
vn -0.540862 0 0.8411113
vn -0.540862 0 0.8411113
vn -0.540862 0 0.8411113
vn -0.540862 0 0.8411113
vn -0.540862 -3.644559E-11 0.8411113
vn -0.540862 -3.644559E-11 0.8411113
vn -0.540862 -3.644559E-11 0.8411113
vn 0.8412288 0 0.5406793
vn 0.8412288 0 0.5406793
vn 0.8412288 0 0.5406793
vn 0.8412288 0 0.5406793
vn 0.8412288 0 0.5406793
vn 0.8412288 0 0.5406793
vn 0.8412288 2.450886E-11 0.5406793
vn 0.8412288 2.450886E-11 0.5406793
vn 0.8412288 2.450886E-11 0.5406793
vn -0.8412288 0 -0.5406793
vn -0.8412288 0 -0.5406793
vn -0.8412288 0 -0.5406793
vn -0.8412288 0 -0.5406793
vn -0.8412288 0 -0.5406793
vn -0.8412288 0 -0.5406793
vn -0.8412288 2.450777E-11 -0.5406793
vn -0.8412288 2.450777E-11 -0.5406793
vn -0.8412288 2.450777E-11 -0.5406793
vn -0.8412138 0 -0.5407026
vn -0.8412138 0 -0.5407026
vn -0.8412138 0 -0.5407026
vn -0.8412138 2.018116E-08 -0.5407026
vn -0.8412138 1.009058E-08 -0.5407026
vn -0.8412138 0 -0.5407026
vn -0.8412138 1.009058E-08 -0.5407026
vn -0.5412954 0 0.8408325
vn -0.5412954 0 0.8408325
vn -0.5412954 0 0.8408325
vn -0.5412954 0 0.8408325
vn -0.5412954 0 0.8408325
vn -0.5412954 0 0.8408325
vn -0.5412954 2.052463E-08 0.8408325
vn -0.5412954 2.052463E-08 0.8408325
vn -0.5412954 2.052463E-08 0.8408325
vn 0.5412954 0 -0.8408325
vn 0.5412954 0 -0.8408325
vn 0.5412954 0 -0.8408325
vn 0.5412954 0 -0.8408325
vn 0.8412138 0 0.5407026
vn 0.8412138 0 0.5407026
vn 0.8412138 0 0.5407026
vn 0.8412138 0 0.5407026
vn 0 -1 0
vn 0 -1 0
vn 0 -1 0
vn 0 -1 0
vn 0 -1 0
vn 0 -1 0
vn 0 -1 0
vn 0 -1 0
vn 0 -1 0
vn 0 -1 0
vn 0 -1 0
vn 0 -1 0
vn 0 -1 0

g CDNNDG02_0004780
f 1/1/1 2/2/2 3/3/3
f 4/4/4 5/5/5 6/6/6
f 7/7/7 8/8/8 9/9/9
f 10/10/10 11/11/11 12/12/12
f 13/13/13 14/14/14 15/15/15
f 16/16/16 17/17/17 18/18/18
f 19/19/19 20/20/20 21/21/21
f 22/22/22 23/23/23 24/24/24
f 25/25/25 26/26/26 27/27/27
f 28/28/28 29/29/29 30/30/30
f 31/31/31 32/32/32 33/33/33
f 34/34/34 35/35/35 36/36/36
f 37/37/37 38/38/38 39/39/39
f 40/40/40 41/41/41 42/42/42
f 43/43/43 44/44/44 45/45/45
f 46/46/46 47/47/47 48/48/48
f 49/49/49 50/50/50 51/51/51
f 52/52/52 53/53/53 54/54/54
f 55/55/55 56/56/56 57/57/57
f 58/58/58 59/59/59 60/60/60
f 61/61/61 62/62/62 63/63/63
f 64/64/64 65/65/65 66/66/66
f 68/68/68 69/69/69 70/70/70
f 70/70/70 67/67/67 68/68/68
f 71/71/71 72/72/72 73/73/73
f 74/74/74 75/75/75 76/76/76
f 77/77/77 79/79/79 80/80/80
f 79/79/79 77/77/77 78/78/78
f 84/84/84 81/81/81 83/83/83
f 83/83/83 81/81/81 82/82/82
f 86/86/86 87/87/87 88/88/88
f 85/85/85 86/86/86 88/88/88
f 90/90/90 91/91/91 89/89/89
f 89/89/89 91/91/91 92/92/92
f 94/94/94 95/95/95 93/93/93
f 93/93/93 95/95/95 96/96/96
f 100/100/100 97/97/97 99/99/99
f 98/98/98 99/99/99 97/97/97
f 101/101/101 103/103/103 104/104/104
f 101/101/101 102/102/102 103/103/103
f 105/105/105 106/106/106 107/107/107
f 108/108/108 109/109/109 110/110/110
f 111/111/111 112/112/112 113/113/113
f 114/114/114 115/115/115 116/116/116
f 117/117/117 118/118/118 119/119/119
f 120/120/120 121/121/121 122/122/122
f 123/123/123 124/124/124 125/125/125
f 126/126/126 127/127/127 128/128/128
f 129/129/129 130/130/130 131/131/131
f 132/132/132 133/133/133 134/134/134
f 136/136/136 137/137/137 138/138/138
f 135/135/135 136/136/136 138/138/138
f 139/139/139 140/140/140 141/141/141
f 142/142/142 143/143/143 144/144/144
f 145/145/145 146/146/146 147/147/147
f 148/148/148 150/150/150 151/151/151
f 148/148/148 149/149/149 150/150/150
f 155/155/155 152/152/152 153/153/153
f 153/153/153 154/154/154 155/155/155
f 168/168/168 156/156/156 167/167/167
f 167/167/167 156/156/156 166/166/166
f 166/166/166 164/164/164 165/165/165
f 157/157/157 158/158/158 156/156/156
f 158/158/158 159/159/159 156/156/156
f 163/163/163 161/161/161 162/162/162
f 160/160/160 161/161/161 159/159/159
f 166/166/166 156/156/156 159/159/159
f 161/161/161 166/166/166 159/159/159
f 161/161/161 163/163/163 166/166/166
f 163/163/163 164/164/164 166/166/166
