v -5.913024 5.429929 1.958484
v 0.4889756 5.429929 6.211484
v -3.649024 5.429929 -1.449516
v -3.649024 5.429929 -1.449516
v 0.4889756 5.429929 6.211484
v -3.241024 5.429929 -1.178516
v -3.241024 5.429929 -1.178516
v 0.4889756 5.429929 6.211484
v -3.097774 5.429929 -1.394559
v -3.342024 5.429929 -1.912516
v -2.934024 5.429929 -1.641516
v 5.914976 5.429929 -1.957516
v -2.934024 5.429929 -1.641516
v 0.4889756 5.429929 6.211484
v 5.914976 5.429929 -1.957516
v -3.097774 5.429929 -1.394559
v 0.4889756 5.429929 6.211484
v -2.934024 5.429929 -1.641516
v -3.342024 5.429929 -1.912516
v 5.914976 5.429929 -1.957516
v -0.4870244 5.429929 -6.210516
v -3.649024 6.342929 -1.449516
v -3.241024 6.342929 -1.178516
v -2.934024 6.342929 -1.641516
v -3.342024 6.342929 -1.912516
v -5.913024 5.429929 1.958484
v -3.649024 5.429929 -1.449516
v -3.649024 -5.433501 -1.449516
v -5.913024 -5.433501 1.958484
v -3.342024 5.429929 -1.912516
v -0.4870244 5.429929 -6.210516
v -0.4870244 -5.433501 -6.210516
v -3.342024 -5.433501 -1.912516
v -3.649024 5.429929 -1.449516
v -3.342024 5.429929 -1.912516
v -3.342024 -5.433501 -1.912516
v -3.649024 -5.433501 -1.449516
v -3.649024 6.342929 -1.449516
v -3.342024 6.342929 -1.912516
v -3.342024 5.429929 -1.912516
v -3.649024 5.429929 -1.449516
v -5.913024 -5.433501 1.958484
v 0.4889756 -5.433501 6.211484
v 0.4889756 5.429929 6.211484
v -5.913024 5.429929 1.958484
v 3.201976 -5.433501 2.126984
v 5.914976 -5.433501 -1.957516
v 5.914976 5.429929 -1.957516
v 0.4889756 5.429929 6.211484
v 0.4889756 -5.433501 6.211484
v 3.201976 -5.433501 2.126984
v 0.4889756 5.429929 6.211484
v 3.201976 -5.433501 2.126984
v 5.914976 5.429929 -1.957516
v -0.4870244 5.429929 -6.210516
v 5.914976 5.429929 -1.957516
v 5.914976 -5.433501 -1.957516
v -0.4870244 -5.433501 -6.210516
v -3.649024 5.429929 -1.449516
v -3.241024 5.429929 -1.178516
v -3.241024 6.342929 -1.178516
v -3.649024 6.342929 -1.449516
v -3.097774 5.429929 -1.394559
v -2.934024 5.429929 -1.641516
v -2.934024 6.342929 -1.641516
v -3.241024 6.342929 -1.178516
v -3.241024 5.429929 -1.178516
v -3.097774 5.429929 -1.394559
v -3.241024 6.342929 -1.178516
v -3.097774 5.429929 -1.394559
v -2.934024 6.342929 -1.641516
v -3.342024 6.342929 -1.912516
v -2.934024 6.342929 -1.641516
v -2.934024 5.429929 -1.641516
v -3.342024 5.429929 -1.912516
v -3.649024 -5.433501 -1.449516
v -3.342024 -5.433501 -1.912516
v -0.4870244 -5.433501 -6.210516
v 5.914976 -5.433501 -1.957516
v 3.201976 -5.433501 2.126984
v 0.4889756 -5.433501 6.211484
v -5.913024 -5.433501 1.958484
vt 0.201806 0.408937
vt 0.002833 0.182152
vt 0.372198 0.333780
vt 0.372198 0.333780
vt 0.002833 0.182152
vt 0.359521 0.319327
vt 0.359521 0.319327
vt 0.002833 0.182152
vt 0.370322 0.314572
vt 0.395347 0.323589
vt 0.382669 0.309136
vt 0.411283 0.002008
vt 0.382669 0.309136
vt 0.002833 0.182152
vt 0.411283 0.002008
vt 0.370322 0.314572
vt 0.002833 0.182152
vt 0.382669 0.309136
vt 0.395347 0.323589
vt 0.411283 0.002008
vt 0.610245 0.228809
vt 0.516019 0.755818
vt 0.504249 0.742396
vt 0.525741 0.732932
vt 0.537511 0.746354
vt 0.345083 0.605032
vt 0.513731 0.525181
vt 0.443990 0.641149
vt 0.277620 0.719919
vt 0.536643 0.514353
vt 0.749343 0.413655
vt 0.676418 0.531131
vt 0.466592 0.630467
vt 0.513731 0.525181
vt 0.536643 0.514353
vt 0.466592 0.630467
vt 0.443990 0.641149
vt 0.519679 0.515290
vt 0.542618 0.504450
vt 0.536643 0.514353
vt 0.513731 0.525181
vt 0.824958 0.341812
vt 0.617564 0.120011
vt 0.681901 0.002008
vt 0.892132 0.226850
vt 0.202990 0.820814
vt 0.403153 0.732932
vt 0.474932 0.821874
vt 0.069224 0.999999
vt 0.002833 0.908695
vt 0.202990 0.820814
vt 0.069224 0.999999
vt 0.202990 0.820814
vt 0.474932 0.821874
vt 0.270681 0.727694
vt 0.074290 0.502698
vt 0.002833 0.413655
vt 0.196619 0.635667
vt 0.493186 0.755442
vt 0.481586 0.742137
vt 0.486702 0.732932
vt 0.498315 0.746252
vt 0.576384 0.737805
vt 0.587600 0.732932
vt 0.593168 0.740121
vt 0.572116 0.749268
vt 0.566572 0.742069
vt 0.576384 0.737805
vt 0.572116 0.749268
vt 0.576384 0.737805
vt 0.593168 0.740121
vt 0.560010 0.753496
vt 0.549159 0.740254
vt 0.543909 0.732932
vt 0.554748 0.746159
vt 0.600567 0.732932
vt 0.600567 0.732932
vt 0.600567 0.732932
vt 0.600567 0.732932
vt 0.600567 0.732932
vt 0.600567 0.732932
vt 0.600567 0.732932
vn 0 1 0
vn 0 1 0
vn 0 1 0
vn 0 1 0
vn 0 1 0
vn 0 1 0
vn 0 1 0
vn 0 1 0
vn 0 1 0
vn 0 1 0
vn 0 1 0
vn 0 1 0
vn 0 1 0
vn 0 1 0
vn 0 1 0
vn 0 1 0
vn 0 1 0
vn 0 1 0
vn 0 1 0
vn 0 1 0
vn 0 1 0
vn 0 1 0
vn 0 1 0
vn 0 1 0
vn 0 1 0
vn -0.8329516 0 -0.5533458
vn -0.8329516 0 -0.5533458
vn -0.8329516 0 -0.5533458
vn -0.8329516 0 -0.5533458
vn -0.8329734 0 -0.553313
vn -0.8329734 0 -0.553313
vn -0.8329734 0 -0.553313
vn -0.8329734 0 -0.553313
vn -0.8334324 0 -0.5526215
vn -0.8334324 0 -0.5526215
vn -0.8334324 0 -0.5526215
vn -0.8334324 0 -0.5526215
vn -0.8334324 0 -0.5526215
vn -0.8334324 0 -0.5526215
vn -0.8334324 0 -0.5526215
vn -0.8334324 0 -0.5526215
vn -0.5533484 0 0.8329499
vn -0.5533484 0 0.8329499
vn -0.5533484 0 0.8329499
vn -0.5533484 0 0.8329499
vn 0.8329903 0 0.5532875
vn 0.8329903 0 0.5532875
vn 0.8329903 0 0.5532875
vn 0.8329903 0 0.5532875
vn 0.8329903 0 0.5532875
vn 0.8329903 0 0.5532875
vn 0.8329903 -2.23162E-12 0.5532875
vn 0.8329903 -2.23162E-12 0.5532875
vn 0.8329903 -2.23162E-12 0.5532875
vn 0.5533484 0 -0.8329499
vn 0.5533484 0 -0.8329499
vn 0.5533484 0 -0.8329499
vn 0.5533484 0 -0.8329499
vn -0.553286 0 0.8329914
vn -0.553286 0 0.8329914
vn -0.553286 0 0.8329914
vn -0.553286 0 0.8329914
vn 0.8334324 0 0.5526214
vn 0.8334324 0 0.5526214
vn 0.8334324 0 0.5526214
vn 0.8334324 0 0.5526215
vn 0.8334324 0 0.5526215
vn 0.8334324 0 0.5526215
vn 0.8334324 4.451959E-09 0.5526215
vn 0.8334324 4.451959E-09 0.5526215
vn 0.8334324 4.451959E-09 0.5526215
vn 0.553286 0 -0.8329914
vn 0.553286 0 -0.8329914
vn 0.553286 0 -0.8329914
vn 0.553286 0 -0.8329914
vn 0 -1 0
vn 0 -1 0
vn 0 -1 0
vn 0 -1 0
vn 0 -1 0
vn 0 -1 0
vn 0 -1 0

g CDNNDG02_0014470
f 1/1/1 2/2/2 3/3/3
f 4/4/4 5/5/5 6/6/6
f 7/7/7 8/8/8 9/9/9
f 10/10/10 11/11/11 12/12/12
f 13/13/13 14/14/14 15/15/15
f 16/16/16 17/17/17 18/18/18
f 19/19/19 20/20/20 21/21/21
f 22/22/22 24/24/24 25/25/25
f 22/22/22 23/23/23 24/24/24
f 29/29/29 27/27/27 28/28/28
f 29/29/29 26/26/26 27/27/27
f 31/31/31 32/32/32 33/33/33
f 30/30/30 31/31/31 33/33/33
f 34/34/34 35/35/35 36/36/36
f 37/37/37 34/34/34 36/36/36
f 41/41/41 38/38/38 40/40/40
f 40/40/40 38/38/38 39/39/39
f 45/45/45 42/42/42 44/44/44
f 44/44/44 42/42/42 43/43/43
f 46/46/46 47/47/47 48/48/48
f 49/49/49 50/50/50 51/51/51
f 52/52/52 53/53/53 54/54/54
f 55/55/55 57/57/57 58/58/58
f 55/55/55 56/56/56 57/57/57
f 59/59/59 61/61/61 62/62/62
f 61/61/61 59/59/59 60/60/60
f 63/63/63 64/64/64 65/65/65
f 66/66/66 67/67/67 68/68/68
f 69/69/69 70/70/70 71/71/71
f 72/72/72 74/74/74 75/75/75
f 72/72/72 73/73/73 74/74/74
f 76/76/76 81/81/81 82/82/82
f 76/76/76 80/80/80 81/81/81
f 78/78/78 79/79/79 80/80/80
f 77/77/77 78/78/78 80/80/80
f 76/76/76 77/77/77 80/80/80
