v -7.086399 5.543184 4.858016
v 2.980601 5.543184 -4.208985
v 2.855601 5.543184 -10.95698
v 2.855601 5.543184 -10.95698
v 4.672601 5.543184 -7.649985
v 5.647601 5.543184 -9.201984
v 2.855601 5.543184 -10.95698
v 2.980601 5.543184 -4.208985
v 4.672601 5.543184 -7.649985
v -7.165399 5.543184 4.982015
v -6.941399 5.543184 6.284015
v -7.086399 5.543184 4.858016
v 4.672601 5.543184 -7.649985
v 4.916601 5.543184 -7.288985
v 5.010601 5.543184 -7.437984
v -7.086399 5.543184 4.858016
v -6.941399 5.543184 6.284015
v -5.104399 5.543184 7.223015
v -7.086399 5.543184 4.858016
v -5.104399 5.543184 7.223015
v -4.123399 5.543184 7.007015
v -4.123399 5.543184 7.007015
v -1.084399 5.543184 8.918015
v -0.3653993 5.543184 8.717015
v 2.980601 5.543184 -4.208985
v 4.916601 5.543184 -7.288985
v 4.672601 5.543184 -7.649985
v -4.123399 5.543184 7.007015
v -0.3653993 5.543184 8.717015
v 2.898601 5.543184 3.470015
v -7.086399 5.543184 4.858016
v -4.123399 5.543184 7.007015
v 2.898601 5.543184 3.470015
v 2.997158 5.543184 2.725474
v 3.259601 5.543184 2.889015
v 3.652601 5.543184 -2.225985
v -7.086399 5.543184 4.858016
v 3.652601 5.543184 -2.225985
v 2.980601 5.543184 -4.208985
v 3.259601 5.543184 2.889015
v 5.662601 5.543184 -0.9759847
v 3.652601 5.543184 -2.225985
v -7.086399 5.543184 4.858016
v 2.898601 5.543184 3.470015
v 2.491601 5.543184 3.217015
v -7.086399 5.543184 4.858016
v 2.853601 5.543184 2.636015
v 3.652601 5.543184 -2.225985
v 2.853601 5.543184 2.636015
v 2.997158 5.543184 2.725474
v 3.652601 5.543184 -2.225985
v -7.086399 5.543184 4.858016
v 2.491601 5.543184 3.217015
v 2.853601 5.543184 2.636015
v 2.491601 6.664185 3.217015
v 2.898601 6.664185 3.470015
v 3.259601 6.664185 2.889015
v 2.853601 6.664185 2.636015
v 5.010601 4.937852 -7.437984
v 6.031614 4.791329 -6.587976
v 7.100615 4.791329 -8.287976
v 5.010601 4.937852 -7.437984
v 7.100615 4.791329 -8.287976
v 5.647601 4.982329 -9.201984
v 4.916601 4.937881 -7.288985
v 6.031614 4.791329 -6.587976
v 5.010601 4.937852 -7.437984
v 4.672601 4.982242 -7.649985
v 5.010601 4.937852 -7.437984
v 5.647601 4.982329 -9.201984
v -7.165399 -5.52957 4.982015
v -6.941399 -5.52957 6.284015
v -6.941399 5.543184 6.284015
v -7.165399 5.543184 4.982015
v -6.941399 -5.52957 6.284015
v -5.104399 -5.52957 7.223015
v -5.104399 5.543184 7.223015
v -6.941399 5.543184 6.284015
v -5.104399 -5.52957 7.223015
v -4.123399 -5.52957 7.007015
v -4.123399 5.543184 7.007015
v -5.104399 5.543184 7.223015
v -2.603899 -5.52957 7.962515
v -1.084399 -5.52957 8.918015
v -1.084399 5.543184 8.918015
v -4.123399 5.543184 7.007015
v -4.123399 -5.52957 7.007015
v -2.603899 -5.52957 7.962515
v -4.123399 5.543184 7.007015
v -2.603899 -5.52957 7.962515
v -1.084399 5.543184 8.918015
v -1.084399 -5.52957 8.918015
v -0.3653993 -5.52957 8.717015
v -0.3653993 5.543184 8.717015
v -1.084399 5.543184 8.918015
v -0.3653993 -5.52957 8.717015
v 2.898601 -5.52957 3.470015
v 2.898601 5.543184 3.470015
v -0.3653993 5.543184 8.717015
v 2.898601 -5.52957 3.470015
v 3.259601 -5.52957 2.889015
v 3.259601 5.543184 2.889015
v 2.898601 5.543184 3.470015
v 3.259601 -5.52957 2.889015
v 5.662601 -5.52957 -0.9759847
v 5.662601 5.543184 -0.9759847
v 3.259601 5.543184 2.889015
v 2.898601 5.543184 3.470015
v 3.259601 5.543184 2.889015
v 3.259601 6.664185 2.889015
v 2.898601 6.664185 3.470015
v 3.652601 5.543184 -2.225985
v 4.657601 -5.52957 -1.600985
v 3.652601 -5.52957 -2.225985
v 4.657601 -5.52957 -1.600985
v 5.662601 5.543184 -0.9759847
v 5.662601 -5.52957 -0.9759847
v 3.652601 5.543184 -2.225985
v 5.662601 5.543184 -0.9759847
v 4.657601 -5.52957 -1.600985
v 2.980601 5.543184 -4.208985
v 3.652601 5.543184 -2.225985
v 3.652601 -5.52957 -2.225985
v 2.980601 -5.52957 -4.208985
v 2.980601 5.543184 -4.208985
v 4.916601 4.937881 -7.288985
v 4.916601 5.543184 -7.288985
v 2.980601 -5.52957 -4.208985
v 4.916601 -5.52957 -7.288985
v 4.916601 4.937881 -7.288985
v 2.980601 5.543184 -4.208985
v 4.916601 4.937881 -7.288985
v 5.010601 4.937852 -7.437984
v 5.010601 5.543184 -7.437984
v 4.916601 5.543184 -7.288985
v 4.672601 5.543184 -7.649985
v 5.010601 5.543184 -7.437984
v 5.010601 4.937852 -7.437984
v 4.672601 4.982242 -7.649985
v 4.672601 4.982242 -7.649985
v 5.647601 4.982329 -9.201984
v 5.647601 5.543184 -9.201984
v 4.672601 5.543184 -7.649985
v 2.855601 5.543184 -10.95698
v 4.251601 -5.52957 -10.07948
v 2.855601 -5.52957 -10.95698
v 2.855601 5.543184 -10.95698
v 5.647601 5.543184 -9.201984
v 4.251601 -5.52957 -10.07948
v 4.251601 -5.52957 -10.07948
v 5.647601 5.543184 -9.201984
v 5.647601 4.982329 -9.201984
v 4.251601 -5.52957 -10.07948
v 5.647601 4.982329 -9.201984
v 5.647601 -5.52957 -9.201984
v 5.647601 4.982329 -9.201984
v 7.100615 4.791329 -8.287976
v 7.100615 -5.52957 -8.287976
v 5.647601 -5.52957 -9.201984
v -7.086399 5.543184 4.858016
v 2.855601 5.543184 -10.95698
v 2.855601 -5.52957 -10.95698
v -7.086399 -5.52957 4.858016
v -7.165399 5.543184 4.982015
v -7.086399 5.543184 4.858016
v -7.086399 -5.52957 4.858016
v -7.165399 -5.52957 4.982015
v 2.491601 5.543184 3.217015
v 2.898601 5.543184 3.470015
v 2.898601 6.664185 3.470015
v 2.491601 6.664185 3.217015
v 2.853601 6.664185 2.636015
v 2.997158 5.543184 2.725474
v 2.853601 5.543184 2.636015
v 2.997158 5.543184 2.725474
v 3.259601 6.664185 2.889015
v 3.259601 5.543184 2.889015
v 2.853601 6.664185 2.636015
v 3.259601 6.664185 2.889015
v 2.997158 5.543184 2.725474
v 2.491601 6.664185 3.217015
v 2.853601 6.664185 2.636015
v 2.853601 5.543184 2.636015
v 2.491601 5.543184 3.217015
v 4.916601 -5.52957 -7.288985
v 6.031614 -5.52957 -6.587976
v 6.031614 4.791329 -6.587976
v 4.916601 4.937881 -7.288985
v 6.031614 -5.52957 -6.587976
v 7.100615 -5.52957 -8.287976
v 7.100615 4.791329 -8.287976
v 6.031614 4.791329 -6.587976
v -2.603899 -5.52957 7.962515
v -4.123399 -5.52957 7.007015
v -5.104399 -5.52957 7.223015
v -6.941399 -5.52957 6.284015
v -7.165399 -5.52957 4.982015
v -7.086399 -5.52957 4.858016
v 2.855601 -5.52957 -10.95698
v 4.251601 -5.52957 -10.07948
v 5.647601 -5.52957 -9.201984
v 7.100615 -5.52957 -8.287976
v 6.031614 -5.52957 -6.587976
v 4.916601 -5.52957 -7.288985
v 2.980601 -5.52957 -4.208985
v 3.652601 -5.52957 -2.225985
v 4.657601 -5.52957 -1.600985
v 5.662601 -5.52957 -0.9759847
v 3.259601 -5.52957 2.889015
v 2.898601 -5.52957 3.470015
v -0.3653993 -5.52957 8.717015
v -1.084399 -5.52957 8.918015
vt 0.548127 0.003404
vt 0.234671 0.253563
vt 0.001996 0.249868
vt 0.001996 0.249868
vt 0.115887 0.295440
vt 0.062296 0.319609
vt 0.001996 0.249868
vt 0.234671 0.253563
vt 0.115887 0.295440
vt 0.552409 0.001445
vt 0.597290 0.007140
vt 0.548127 0.003404
vt 0.115887 0.295440
vt 0.128316 0.301553
vt 0.123171 0.303883
vt 0.548127 0.003404
vt 0.597290 0.007140
vt 0.629524 0.053013
vt 0.548127 0.003404
vt 0.629524 0.053013
vt 0.621996 0.077448
vt 0.621996 0.077448
vt 0.687651 0.153365
vt 0.680662 0.171269
vt 0.234671 0.253563
vt 0.128316 0.301553
vt 0.115887 0.295440
vt 0.621996 0.077448
vt 0.680662 0.171269
vt 0.499468 0.252177
vt 0.548127 0.003404
vt 0.621996 0.077448
vt 0.499468 0.252177
vt 0.473787 0.254570
vt 0.479405 0.261126
vt 0.302997 0.270482
vt 0.548127 0.003404
vt 0.302997 0.270482
vt 0.234671 0.253563
vt 0.479405 0.261126
vt 0.345942 0.320688
vt 0.302997 0.270482
vt 0.548127 0.003404
vt 0.499468 0.252177
vt 0.490777 0.242011
vt 0.548127 0.003404
vt 0.470713 0.250984
vt 0.302997 0.270482
vt 0.470713 0.250984
vt 0.473787 0.254570
vt 0.302997 0.270482
vt 0.548127 0.003404
vt 0.490777 0.242011
vt 0.470713 0.250984
vt 0.519804 0.921965
vt 0.527951 0.931461
vt 0.509145 0.939820
vt 0.500998 0.930347
vt 0.403449 0.930500
vt 0.433292 0.956378
vt 0.375651 0.982198
vt 0.403449 0.930500
vt 0.375651 0.982198
vt 0.343313 0.945520
vt 0.408502 0.928229
vt 0.433292 0.956378
vt 0.403449 0.930500
vt 0.395950 0.921965
vt 0.403449 0.930500
vt 0.343313 0.945520
vt 0.651168 0.806358
vt 0.695047 0.811724
vt 0.599373 0.898327
vt 0.554890 0.892888
vt 0.943832 0.595376
vt 0.975639 0.640203
vt 0.880549 0.727830
vt 0.848303 0.682386
vt 0.802822 0.868388
vt 0.795390 0.892186
vt 0.700599 0.830484
vt 0.708133 0.806358
vt 0.810557 0.632520
vt 0.842983 0.669664
vt 0.748380 0.758825
vt 0.682635 0.683515
vt 0.778131 0.595376
vt 0.810557 0.632520
vt 0.682635 0.683515
vt 0.810557 0.632520
vt 0.748380 0.758825
vt 0.338378 0.982538
vt 0.331506 0.999940
vt 0.237525 0.939607
vt 0.244491 0.921965
vt 0.431960 0.656402
vt 0.253291 0.735543
vt 0.155458 0.675605
vt 0.336578 0.595376
vt 0.253291 0.735543
vt 0.233508 0.744296
vt 0.135404 0.684478
vt 0.155458 0.675605
vt 0.233508 0.744296
vt 0.101906 0.802557
vt 0.001996 0.743541
vt 0.135404 0.684478
vt 0.155458 0.675605
vt 0.135404 0.684478
vt 0.125321 0.678330
vt 0.145404 0.669445
vt 0.169918 0.917238
vt 0.309804 0.831020
vt 0.331585 0.855682
vt 0.309804 0.831020
vt 0.125749 0.867228
vt 0.288024 0.806358
vt 0.169918 0.917238
vt 0.125749 0.867228
vt 0.309804 0.831020
vt 0.071128 0.999460
vt 0.001996 0.983187
vt 0.163822 0.921965
vt 0.232004 0.938015
vt 0.448260 0.806358
vt 0.348113 0.856902
vt 0.342444 0.853640
vt 0.549195 0.865899
vt 0.444811 0.912539
vt 0.348113 0.856902
vt 0.448260 0.806358
vt 0.348113 0.856902
vt 0.342998 0.859196
vt 0.337325 0.855936
vt 0.342444 0.853640
vt 0.591447 0.932583
vt 0.584830 0.925011
vt 0.592620 0.921965
vt 0.598661 0.929755
vt 0.496279 0.924872
vt 0.444291 0.947718
vt 0.439122 0.944828
vt 0.491145 0.921965
vt 0.520603 0.762062
vt 0.647704 0.665588
vt 0.678317 0.699990
vt 0.520603 0.762062
vt 0.458521 0.692298
vt 0.647704 0.665588
vt 0.647704 0.665588
vt 0.458521 0.692298
vt 0.466659 0.689162
vt 0.647704 0.665588
vt 0.466659 0.689162
vt 0.617090 0.631184
vt 0.466659 0.689162
vt 0.437126 0.651822
vt 0.585203 0.595376
vt 0.617090 0.631184
vt 0.006336 0.578105
vt 0.559886 0.323699
vt 0.717886 0.339056
vt 0.171972 0.589945
vt 0.001996 0.580126
vt 0.006336 0.578105
vt 0.171972 0.589945
vt 0.167693 0.591938
vt 0.542040 0.921965
vt 0.549971 0.931413
vt 0.540876 0.940126
vt 0.532934 0.930665
vt 0.563283 0.937248
vt 0.576122 0.928028
vt 0.579086 0.931345
vt 0.576122 0.928028
vt 0.554890 0.927855
vt 0.570705 0.921965
vt 0.563283 0.937248
vt 0.554890 0.927855
vt 0.576122 0.928028
vt 0.602794 0.930127
vt 0.622142 0.921965
vt 0.638217 0.923352
vt 0.618897 0.931502
vt 0.098044 0.806358
vt 0.121734 0.833504
vt 0.027352 0.918433
vt 0.001996 0.892157
vt 0.961208 0.860625
vt 0.903802 0.886268
vt 0.808383 0.832329
vt 0.866523 0.806358
vt 0.642715 0.921965
vt 0.642715 0.921965
vt 0.642715 0.921965
vt 0.642715 0.921965
vt 0.642715 0.921965
vt 0.642715 0.921965
vt 0.642715 0.921965
vt 0.642715 0.921965
vt 0.642715 0.921965
vt 0.642715 0.921965
vt 0.642715 0.921965
vt 0.642715 0.921965
vt 0.642715 0.921965
vt 0.642715 0.921965
vt 0.642715 0.921965
vt 0.642715 0.921965
vt 0.642715 0.921965
vt 0.642715 0.921965
vt 0.642715 0.921965
vt 0.642715 0.921965
vn 0 1 0
vn 0 1 0
vn 0 1 0
vn 0 1 0
vn 0 1 0
vn 0 1 0
vn 0 1 0
vn 0 1 0
vn 0 1 0
vn 0 1 0
vn 0 1 0
vn 0 1 0
vn 0 1 0
vn 0 1 0
vn 0 1 0
vn 0 1 0
vn 0 1 0
vn 0 1 0
vn 0 1 0
vn 0 1 0
vn 0 1 0
vn 0 1 0
vn 0 1 0
vn 0 1 0
vn 0 1 0
vn 0 1 0
vn 0 1 0
vn 0 1 0
vn 0 1 0
vn 0 1 0
vn 0 1 0
vn 0 1 0
vn 0 1 0
vn 0 1 0
vn 0 1 0
vn 0 1 0
vn 0 1 0
vn 0 1 0
vn 0 1 0
vn 0 1 0
vn 0 1 0
vn 0 1 0
vn 0 1 0
vn 0 1 0
vn 0 1 0
vn 0 1 0
vn 0 1 0
vn 0 1 0
vn 0 1 0
vn 0 1 0
vn 0 1 0
vn 0 1 0
vn 0 1 0
vn 0 1 0
vn 0 1 0
vn 0 1 0
vn 0 1 0
vn 0 1 0
vn 0.09361818 0.9938662 0.05886931
vn 0.09361818 0.9938662 0.05886931
vn 0.09361818 0.9938662 0.05886931
vn 0.09361631 0.9938667 0.05886462
vn 0.09361631 0.9938667 0.05886462
vn 0.09361631 0.9938667 0.05886462
vn 0.09361692 0.9938663 0.05887083
vn 0.09361692 0.9938663 0.05887083
vn 0.09361692 0.9938663 0.05887083
vn 0.09360586 0.9938679 0.05886088
vn 0.09360586 0.9938679 0.05886088
vn 0.09360586 0.9938679 0.05886088
vn -0.9855213 0 0.169552
vn -0.9855213 0 0.169552
vn -0.9855213 0 0.169552
vn -0.9855213 0 0.169552
vn -0.4551452 0 0.8904172
vn -0.4551452 0 0.8904172
vn -0.4551452 0 0.8904172
vn -0.4551452 0 0.8904172
vn 0.2150327 0 0.9766068
vn 0.2150327 0 0.9766068
vn 0.2150327 0 0.9766068
vn 0.2150327 0 0.9766068
vn -0.5323256 0 0.8465397
vn -0.5323256 0 0.8465397
vn -0.5323256 0 0.8465397
vn -0.5323256 0 0.8465397
vn -0.5323256 0 0.8465397
vn -0.5323256 0 0.8465397
vn -0.5323256 0 0.8465397
vn -0.5323256 0 0.8465397
vn -0.5323256 0 0.8465397
vn 0.2692324 0 0.9630752
vn 0.2692324 0 0.9630752
vn 0.2692324 0 0.9630752
vn 0.2692324 0 0.9630752
vn 0.8491147 0 0.5282086
vn 0.8491147 0 0.5282086
vn 0.8491147 0 0.5282086
vn 0.8491147 0 0.5282086
vn 0.8493916 0 0.5277631
vn 0.8493916 0 0.5277631
vn 0.8493916 0 0.5277631
vn 0.8493916 0 0.5277631
vn 0.8492427 0 0.5280027
vn 0.8492427 0 0.5280027
vn 0.8492427 0 0.5280027
vn 0.8492427 0 0.5280027
vn 0.8493916 0 0.5277631
vn 0.8493916 0 0.5277631
vn 0.8493916 0 0.5277631
vn 0.8493916 0 0.5277631
vn 0.5280988 0 -0.8491829
vn 0.5280988 0 -0.8491829
vn 0.5280988 0 -0.8491829
vn 0.5280988 0 -0.8491829
vn 0.5280988 0 -0.8491829
vn 0.5280988 0 -0.8491829
vn 0.5280988 0 -0.8491829
vn 0.5280988 0 -0.8491829
vn 0.5280988 0 -0.8491829
vn 0.9470954 0 -0.3209521
vn 0.9470954 0 -0.3209521
vn 0.9470954 0 -0.3209521
vn 0.9470954 0 -0.3209521
vn 0.8466365 0 0.5321715
vn 0.8466365 0 0.5321715
vn 0.8466365 0 0.5321715
vn 0.8466365 0 0.5321715
vn 0.8466365 0 0.5321715
vn 0.8466365 0 0.5321715
vn 0.8466365 0 0.5321715
vn 0.8457586 0 0.5335658
vn 0.8457586 0 0.5335658
vn 0.8457586 0 0.5335658
vn 0.8457586 0 0.5335658
vn 0.53135 0 -0.8471524
vn 0.53135 0 -0.8471524
vn 0.53135 0 -0.8471524
vn 0.53135 0 -0.8471524
vn 0.84677 0 0.5319592
vn 0.84677 0 0.5319592
vn 0.84677 0 0.5319592
vn 0.84677 0 0.5319592
vn 0.5321777 0 -0.8466327
vn 0.5321777 0 -0.8466327
vn 0.5321777 0 -0.8466327
vn 0.5321777 -3.560487E-11 -0.8466327
vn 0.5321777 -3.560487E-11 -0.8466327
vn 0.5321777 -3.560487E-11 -0.8466327
vn 0.5321777 0 -0.8466327
vn 0.5321777 0 -0.8466327
vn 0.5321777 0 -0.8466327
vn 0.5321777 0 -0.8466327
vn 0.5321777 0 -0.8466327
vn 0.5321777 0 -0.8466327
vn 0.5324578 0 -0.8464565
vn 0.5324578 0 -0.8464565
vn 0.5324578 0 -0.8464565
vn 0.5324578 0 -0.8464565
vn -0.846609 0 -0.5322154
vn -0.846609 0 -0.5322154
vn -0.846609 0 -0.5322154
vn -0.846609 0 -0.5322154
vn -0.8433813 0 -0.5373155
vn -0.8433813 0 -0.5373155
vn -0.8433813 0 -0.5373155
vn -0.8433813 0 -0.5373155
vn -0.5279341 0 0.8492853
vn -0.5279341 0 0.8492853
vn -0.5279341 0 0.8492853
vn -0.5279341 0 0.8492853
vn 0.5288711 0 -0.8487022
vn 0.5288711 0 -0.8487022
vn 0.5288711 0 -0.8487022
vn 0.5288711 0 -0.8487022
vn 0.5288711 0 -0.8487022
vn 0.5288711 0 -0.8487022
vn 0.5288711 3.608026E-09 -0.8487022
vn 0.5288711 3.608026E-09 -0.8487022
vn 0.5288711 3.608026E-09 -0.8487022
vn -0.8487361 0 -0.5288166
vn -0.8487361 0 -0.5288166
vn -0.8487361 0 -0.5288166
vn -0.8487361 0 -0.5288166
vn -0.5322493 0 0.8465877
vn -0.5322493 0 0.8465877
vn -0.5322493 0 0.8465877
vn -0.5322493 0 0.8465877
vn 0.8465404 0 0.5323245
vn 0.8465404 0 0.5323245
vn 0.8465404 0 0.5323245
vn 0.8465404 0 0.5323245
vn 0 -1 0
vn 0 -1 0
vn 0 -1 0
vn 0 -1 0
vn 0 -1 0
vn 0 -1 0
vn 0 -1 0
vn 0 -1 0
vn 0 -1 0
vn 0 -1 0
vn 0 -1 0
vn 0 -1 0
vn 0 -1 0
vn 0 -1 0
vn 0 -1 0
vn 0 -1 0
vn 0 -1 0
vn 0 -1 0
vn 0 -1 0
vn 0 -1 0

g CDNNDG02_0002470
f 1/1/1 2/2/2 3/3/3
f 4/4/4 5/5/5 6/6/6
f 7/7/7 8/8/8 9/9/9
f 10/10/10 11/11/11 12/12/12
f 13/13/13 14/14/14 15/15/15
f 16/16/16 17/17/17 18/18/18
f 19/19/19 20/20/20 21/21/21
f 22/22/22 23/23/23 24/24/24
f 25/25/25 26/26/26 27/27/27
f 28/28/28 29/29/29 30/30/30
f 31/31/31 32/32/32 33/33/33
f 34/34/34 35/35/35 36/36/36
f 37/37/37 38/38/38 39/39/39
f 40/40/40 41/41/41 42/42/42
f 43/43/43 44/44/44 45/45/45
f 46/46/46 47/47/47 48/48/48
f 49/49/49 50/50/50 51/51/51
f 52/52/52 53/53/53 54/54/54
f 55/55/55 57/57/57 58/58/58
f 55/55/55 56/56/56 57/57/57
f 59/59/59 60/60/60 61/61/61
f 62/62/62 63/63/63 64/64/64
f 65/65/65 66/66/66 67/67/67
f 68/68/68 69/69/69 70/70/70
f 71/71/71 73/73/73 74/74/74
f 71/71/71 72/72/72 73/73/73
f 78/78/78 75/75/75 76/76/76
f 77/77/77 78/78/78 76/76/76
f 79/79/79 81/81/81 82/82/82
f 79/79/79 80/80/80 81/81/81
f 83/83/83 84/84/84 85/85/85
f 86/86/86 87/87/87 88/88/88
f 89/89/89 90/90/90 91/91/91
f 92/92/92 93/93/93 94/94/94
f 95/95/95 92/92/92 94/94/94
f 96/96/96 98/98/98 99/99/99
f 96/96/96 97/97/97 98/98/98
f 101/101/101 102/102/102 100/100/100
f 100/100/100 102/102/102 103/103/103
f 104/104/104 106/106/106 107/107/107
f 104/104/104 105/105/105 106/106/106
f 108/108/108 110/110/110 111/111/111
f 108/108/108 109/109/109 110/110/110
f 112/112/112 113/113/113 114/114/114
f 115/115/115 116/116/116 117/117/117
f 118/118/118 119/119/119 120/120/120
f 121/121/121 123/123/123 124/124/124
f 123/123/123 121/121/121 122/122/122
f 125/125/125 126/126/126 127/127/127
f 128/128/128 130/130/130 131/131/131
f 128/128/128 129/129/129 130/130/130
f 132/132/132 134/134/134 135/135/135
f 132/132/132 133/133/133 134/134/134
f 139/139/139 136/136/136 137/137/137
f 137/137/137 138/138/138 139/139/139
f 143/143/143 140/140/140 141/141/141
f 141/141/141 142/142/142 143/143/143
f 144/144/144 145/145/145 146/146/146
f 147/147/147 148/148/148 149/149/149
f 150/150/150 151/151/151 152/152/152
f 153/153/153 154/154/154 155/155/155
f 157/157/157 158/158/158 159/159/159
f 156/156/156 157/157/157 159/159/159
f 160/160/160 162/162/162 163/163/163
f 160/160/160 161/161/161 162/162/162
f 164/164/164 165/165/165 166/166/166
f 167/167/167 164/164/164 166/166/166
f 171/171/171 168/168/168 169/169/169
f 170/170/170 171/171/171 169/169/169
f 172/172/172 173/173/173 174/174/174
f 175/175/175 176/176/176 177/177/177
f 178/178/178 179/179/179 180/180/180
f 184/184/184 181/181/181 183/183/183
f 183/183/183 181/181/181 182/182/182
f 188/188/188 185/185/185 187/187/187
f 187/187/187 185/185/185 186/186/186
f 189/189/189 191/191/191 192/192/192
f 189/189/189 190/190/190 191/191/191
f 193/193/193 211/211/211 212/212/212
f 193/193/193 210/210/210 211/211/211
f 198/198/198 205/205/205 206/206/206
f 206/206/206 209/209/209 210/210/210
f 194/194/194 195/195/195 198/198/198
f 195/195/195 196/196/196 198/198/198
f 207/207/207 208/208/208 209/209/209
f 196/196/196 197/197/197 198/198/198
f 199/199/199 204/204/204 205/205/205
f 206/206/206 207/207/207 209/209/209
f 198/198/198 199/199/199 205/205/205
f 199/199/199 200/200/200 204/204/204
f 198/198/198 206/206/206 210/210/210
f 200/200/200 201/201/201 204/204/204
f 201/201/201 202/202/202 204/204/204
f 202/202/202 203/203/203 204/204/204
f 194/194/194 198/198/198 210/210/210
f 193/193/193 194/194/194 210/210/210
