v -3.750793 5.190361 1.875288
v 6.863207 5.188876 -3.802712
v 0.2442073 5.190876 -8.069713
v -3.750793 5.190361 1.875288
v 0.7202074 5.189306 2.602288
v 1.336207 5.189306 1.647288
v -3.750793 5.190361 1.875288
v -1.076793 5.188876 8.513288
v 0.7202074 5.189306 2.602288
v -3.750793 5.190361 1.875288
v 1.336207 5.189306 1.647288
v 6.863207 5.188876 -3.802712
v -1.076793 5.188876 8.513288
v 2.402207 5.188984 2.334288
v 1.786207 5.188984 3.290288
v -1.076793 5.188876 8.513288
v 1.786207 5.188984 3.290288
v 0.7202074 5.189306 2.602288
v 1.336207 5.189306 1.647288
v 2.402207 5.188984 2.334288
v 6.863207 5.188876 -3.802712
v -1.076793 5.188876 8.513288
v 6.863207 5.188876 -3.802712
v 2.402207 5.188984 2.334288
v -3.750793 5.190361 1.875288
v -1.181888 5.188908 8.445549
v -1.076793 5.188876 8.513288
v -3.750793 5.190361 1.875288
v -1.841396 5.189107 8.020467
v -1.181888 5.188908 8.445549
v -5.988792 5.190361 5.347288
v -1.841396 5.189107 8.020467
v -3.750793 5.190361 1.875288
v -5.458793 5.190876 0.7752878
v -3.750793 5.190361 1.875288
v 0.2442073 5.190876 -8.069713
v 1.336207 5.283586 1.647288
v 1.460207 5.730586 2.416288
v 2.402207 5.283586 2.334288
v 1.460207 5.730586 2.416288
v 1.760207 5.730586 2.577288
v 2.402207 5.283586 2.334288
v 1.760207 5.730586 2.577288
v 1.786207 5.283586 3.290288
v 2.402207 5.283586 2.334288
v 0.7202074 5.283586 2.602288
v 1.460207 5.730586 2.416288
v 1.336207 5.283586 1.647288
v 0.7202074 5.283586 2.602288
v 1.786207 5.283586 3.290288
v 1.460207 5.730586 2.416288
v 1.460207 5.730586 2.416288
v 1.786207 5.283586 3.290288
v 1.760207 5.730586 2.577288
v -1.511642 -5.193473 8.233008
v -1.181888 -5.193473 8.445549
v -1.181888 5.188908 8.445549
v -1.841396 5.189107 8.020467
v -1.841396 -5.193473 8.020467
v -1.511642 -5.193473 8.233008
v -1.841396 5.189107 8.020467
v -1.511642 -5.193473 8.233008
v -1.181888 5.188908 8.445549
v -1.181888 -5.193473 8.445549
v -1.076793 5.188876 8.513288
v -1.181888 5.188908 8.445549
v -1.076793 -5.193473 8.513288
v -3.915094 -5.193473 6.683877
v -1.841396 -5.193473 8.020467
v -1.841396 5.189107 8.020467
v -5.988792 5.190361 5.347288
v -5.988792 -5.193473 5.347288
v -3.915094 -5.193473 6.683877
v -5.988792 5.190361 5.347288
v -3.915094 -5.193473 6.683877
v -1.841396 5.189107 8.020467
v 2.893207 -5.193473 2.355288
v 6.863207 -5.193473 -3.802712
v 6.863207 5.188876 -3.802712
v -1.076793 5.188876 8.513288
v -1.076793 -5.193473 8.513288
v 2.893207 -5.193473 2.355288
v -1.076793 5.188876 8.513288
v 2.893207 -5.193473 2.355288
v 6.863207 5.188876 -3.802712
v 0.2442073 5.190876 -8.069713
v 3.553707 -5.193473 -5.936213
v 0.2442073 -5.193473 -8.069713
v 3.553707 -5.193473 -5.936213
v 6.863207 5.188876 -3.802712
v 6.863207 -5.193473 -3.802712
v 0.2442073 5.190876 -8.069713
v 6.863207 5.188876 -3.802712
v 3.553707 -5.193473 -5.936213
v 0.2442073 5.190876 -8.069713
v 0.2442073 -5.193473 -8.069713
v -5.458793 -5.193473 0.7752878
v -5.458793 5.190876 0.7752878
v -5.458793 5.190876 0.7752878
v -5.458793 -5.193473 0.7752878
v -3.750793 5.190361 1.875288
v -3.750793 -5.193473 1.875288
v -5.988792 5.190361 5.347288
v -4.869792 -5.193473 3.611288
v -5.988792 -5.193473 5.347288
v -4.869792 -5.193473 3.611288
v -3.750793 5.190361 1.875288
v -3.750793 -5.193473 1.875288
v -5.988792 5.190361 5.347288
v -3.750793 5.190361 1.875288
v -4.869792 -5.193473 3.611288
v 1.336207 5.189306 1.647288
v 1.336207 5.283586 1.647288
v 2.402207 5.283586 2.334288
v 2.402207 5.188984 2.334288
v 1.786207 5.283586 3.290288
v 1.786207 5.188984 3.290288
v 2.402207 5.188984 2.334288
v 2.402207 5.283586 2.334288
v 1.336207 5.283586 1.647288
v 1.336207 5.189306 1.647288
v 0.7202074 5.189306 2.602288
v 0.7202074 5.283586 2.602288
v 0.7202074 5.189306 2.602288
v 1.786207 5.283586 3.290288
v 0.7202074 5.283586 2.602288
v 1.786207 5.188984 3.290288
v -3.915094 -5.193473 6.683877
v -5.988792 -5.193473 5.347288
v -4.869792 -5.193473 3.611288
v -3.750793 -5.193473 1.875288
v -1.841396 -5.193473 8.020467
v 3.553707 -5.193473 -5.936213
v -5.458793 -5.193473 0.7752878
v 0.2442073 -5.193473 -8.069713
v 2.893207 -5.193473 2.355288
v 6.863207 -5.193473 -3.802712
v -1.511642 -5.193473 8.233008
v -1.181888 -5.193473 8.445549
v -1.076793 -5.193473 8.513288
vt 0.299499 0.347669
vt 0.550509 0.001848
vt 0.742545 0.216337
vt 0.299499 0.347669
vt 0.265997 0.202473
vt 0.308486 0.182308
vt 0.299499 0.347669
vt 0.002538 0.261764
vt 0.265997 0.202473
vt 0.299499 0.347669
vt 0.308486 0.182308
vt 0.550509 0.001848
vt 0.002538 0.261764
vt 0.277567 0.147766
vt 0.235032 0.167930
vt 0.002538 0.261764
vt 0.235032 0.167930
vt 0.265997 0.202473
vt 0.308486 0.182308
vt 0.277567 0.147766
vt 0.550509 0.001848
vt 0.002538 0.261764
vt 0.550509 0.001848
vt 0.277567 0.147766
vt 0.299499 0.347669
vt 0.005587 0.265170
vt 0.002538 0.261764
vt 0.299499 0.347669
vt 0.024719 0.286539
vt 0.005587 0.265170
vt 0.145029 0.420922
vt 0.024719 0.286539
vt 0.299499 0.347669
vt 0.349005 0.403011
vt 0.299499 0.347669
vt 0.742545 0.216337
vt 0.044653 0.999259
vt 0.009441 0.998608
vt 0.015308 0.966728
vt 0.009441 0.998608
vt 0.002538 0.989439
vt 0.015308 0.966728
vt 0.169206 0.988856
vt 0.142132 0.985415
vt 0.181932 0.966728
vt 0.096447 0.990083
vt 0.101404 0.966728
vt 0.136579 0.971275
vt 0.909715 0.790945
vt 0.880711 0.758072
vt 0.914631 0.767117
vt 0.914631 0.767117
vt 0.880711 0.758072
vt 0.907829 0.757856
vt 0.380711 0.966728
vt 0.380711 0.966728
vt 0.380711 0.966728
vt 0.380711 0.966728
vt 0.380711 0.966728
vt 0.380711 0.966728
vt 0.380711 0.966728
vt 0.380711 0.966728
vt 0.380711 0.966728
vt 0.380711 0.966728
vt 0.380711 0.966728
vt 0.380711 0.966728
vt 0.380711 0.966728
vt 0.380711 0.966728
vt 0.380711 0.966728
vt 0.380711 0.966728
vt 0.380711 0.966728
vt 0.380711 0.966728
vt 0.380711 0.966728
vt 0.380711 0.966728
vt 0.380711 0.966728
vt 0.380711 0.966728
vt 0.341898 0.553198
vt 0.609647 0.425139
vt 0.545002 0.493556
vt 0.002538 0.753003
vt 0.074167 0.681248
vt 0.341898 0.553198
vt 0.002538 0.753003
vt 0.341898 0.553198
vt 0.545002 0.493556
vt 0.807784 0.705304
vt 0.775315 0.529677
vt 0.869604 0.634212
vt 0.775315 0.529677
vt 0.616751 0.493491
vt 0.681023 0.425139
vt 0.807784 0.705304
vt 0.616751 0.493491
vt 0.775315 0.529677
vt 0.395232 0.757856
vt 0.455046 0.779247
vt 0.067439 0.962660
vt 0.002538 0.943678
vt 0.393401 0.966728
vt 0.393401 0.966728
vt 0.393401 0.966728
vt 0.393401 0.966728
vt 0.573604 0.829988
vt 0.716371 0.812937
vt 0.640745 0.848536
vt 0.716371 0.812937
vt 0.726841 0.757856
vt 0.791998 0.777339
vt 0.573604 0.829988
vt 0.726841 0.757856
vt 0.716371 0.812937
vt 0.950579 0.790385
vt 0.950001 0.791005
vt 0.921320 0.758474
vt 0.921903 0.757856
vt 0.335025 0.985883
vt 0.335624 0.985283
vt 0.375420 0.966728
vt 0.374826 0.967326
vt 0.327074 0.966728
vt 0.327645 0.966914
vt 0.287378 0.985479
vt 0.286802 0.985296
vt 0.406091 0.966728
vt 0.406091 0.966728
vt 0.406091 0.966728
vt 0.406091 0.966728
vt 0.431472 0.966728
vt 0.431472 0.966728
vt 0.431472 0.966728
vt 0.431472 0.966728
vt 0.431472 0.966728
vt 0.431472 0.966728
vt 0.431472 0.966728
vt 0.431472 0.966728
vt 0.431472 0.966728
vt 0.431472 0.966728
vt 0.431472 0.966728
vt 0.431472 0.966728
vt 0.431472 0.966728
vn 0.0002134496 0.9999999 0.0001376089
vn 0.0002134496 0.9999999 0.0001376089
vn 0.0002134496 0.9999999 0.0001376089
vn 0.0002134489 0.9999999 0.0001376068
vn 0.0002134489 0.9999999 0.0001376068
vn 0.0002134489 0.9999999 0.0001376068
vn 0.0002134485 0.9999999 0.000137609
vn 0.0002134485 0.9999999 0.000137609
vn 0.0002134485 0.9999999 0.000137609
vn 0.0002134489 0.9999999 0.0001376077
vn 0.0002134489 0.9999999 0.0001376077
vn 0.0002134489 0.9999999 0.0001376077
vn 0.0002134503 0.9999999 0.0001376102
vn 0.0002134503 0.9999999 0.0001376102
vn 0.0002134503 0.9999999 0.0001376102
vn 0.0002134476 0.9999999 0.0001376088
vn 0.0002134476 0.9999999 0.0001376088
vn 0.0002134476 0.9999999 0.0001376088
vn 0.0002134472 0.9999999 0.000137606
vn 0.0002134472 0.9999999 0.000137606
vn 0.0002134472 0.9999999 0.000137606
vn 0.0002134625 0.9999999 0.0001376171
vn 0.0002134625 0.9999999 0.0001376171
vn 0.0002134625 0.9999999 0.0001376171
vn 0.0002135274 0.9999999 0.0001375773
vn 0.0002135274 0.9999999 0.0001375773
vn 0.0002135274 0.9999999 0.0001375773
vn 0.000213437 0.9999999 0.0001376126
vn 0.000213437 0.9999999 0.0001376126
vn 0.000213437 0.9999999 0.0001376126
vn 0.0002134518 0.9999999 0.000137608
vn 0.0002134518 0.9999999 0.000137608
vn 0.0002134518 0.9999999 0.000137608
vn 0.0002134534 0.9999999 0.0001376105
vn 0.0002134534 0.9999999 0.0001376105
vn 0.0002134534 0.9999999 0.0001376105
vn 0.3309608 0.7916681 -0.5135432
vn 0.3309608 0.7916681 -0.5135432
vn 0.3309608 0.7916681 -0.5135432
vn 0.3090382 0.7568982 -0.5758476
vn 0.3090382 0.7568982 -0.5758476
vn 0.3090382 0.7568982 -0.5758476
vn 0.6208318 0.6741964 0.4000339
vn 0.6208318 0.6741964 0.4000339
vn 0.6208318 0.6741964 0.4000339
vn -0.5471714 0.758971 -0.3529399
vn -0.5471714 0.758971 -0.3529399
vn -0.5471714 0.758971 -0.3529399
vn -0.3391947 0.7802175 0.5255546
vn -0.3391947 0.7802175 0.5255546
vn -0.3391947 0.7802175 0.5255546
vn -0.2777386 0.8093385 0.5175253
vn -0.2777386 0.8093385 0.5175253
vn -0.2777386 0.8093385 0.5175253
vn -0.5417604 0 0.840533
vn -0.5417604 0 0.840533
vn -0.5417604 0 0.840533
vn -0.5417604 0 0.840533
vn -0.5417604 0 0.840533
vn -0.5417604 0 0.840533
vn -0.5417604 4.131645E-10 0.840533
vn -0.5417604 4.131645E-10 0.840533
vn -0.5417604 4.131645E-10 0.840533
vn -0.5417604 0 0.840533
vn -0.5417604 0 0.840533
vn -0.5417604 0 0.840533
vn -0.5417604 0 0.840533
vn -0.5417604 0 0.840533
vn -0.5417604 0 0.840533
vn -0.5417604 0 0.840533
vn -0.5417604 0 0.840533
vn -0.5417604 0 0.840533
vn -0.5417604 0 0.840533
vn -0.5417604 2.596701E-10 0.840533
vn -0.5417604 2.596701E-10 0.840533
vn -0.5417604 2.596701E-10 0.840533
vn 0.8404771 0 0.5418471
vn 0.8404771 0 0.5418471
vn 0.8404771 0 0.5418471
vn 0.8404771 0 0.5418471
vn 0.8404771 0 0.5418471
vn 0.8404771 0 0.5418471
vn 0.8404771 0 0.5418471
vn 0.8404771 0 0.5418471
vn 0.8404771 0 0.5418471
vn 0.5418289 0 -0.8404888
vn 0.5418289 0 -0.8404888
vn 0.5418289 0 -0.8404888
vn 0.5418289 0 -0.8404888
vn 0.5418289 0 -0.8404888
vn 0.5418289 0 -0.8404888
vn 0.5418289 3.769336E-11 -0.8404888
vn 0.5418289 3.769336E-11 -0.8404888
vn 0.5418289 3.769336E-11 -0.8404888
vn -0.8404461 0 -0.5418953
vn -0.8404461 0 -0.5418953
vn -0.8404461 0 -0.5418953
vn -0.8404461 0 -0.5418953
vn -0.541454 0 0.8407304
vn -0.541454 0 0.8407304
vn -0.541454 0 0.8407304
vn -0.541454 0 0.8407304
vn -0.8405172 0 -0.5417849
vn -0.8405172 0 -0.5417849
vn -0.8405172 0 -0.5417849
vn -0.8405172 0 -0.5417849
vn -0.8405172 0 -0.5417849
vn -0.8405172 0 -0.5417849
vn -0.8405172 2.429626E-11 -0.5417849
vn -0.8405172 2.429626E-11 -0.5417849
vn -0.8405172 2.429626E-11 -0.5417849
vn 0.5417137 0 -0.8405631
vn 0.5417137 0 -0.8405631
vn 0.5417137 0 -0.8405631
vn 0.5417137 0 -0.8405631
vn 0.8406066 0 0.5416461
vn 0.8406066 0 0.5416461
vn 0.8406066 0 0.5416461
vn 0.8406066 0 0.5416461
vn -0.8403484 0 -0.5420467
vn -0.8403484 0 -0.5420467
vn -0.8403484 0 -0.5420467
vn -0.8403484 0 -0.5420467
vn -0.5422705 0 0.840204
vn -0.5422705 0 0.840204
vn -0.5422705 0 0.840204
vn -0.5422705 0 0.840204
vn 0 -1 0
vn 0 -1 0
vn 0 -1 0
vn 0 -1 0
vn 0 -1 0
vn 0 -1 0
vn 0 -1 0
vn 0 -1 0
vn 0 -1 0
vn 0 -1 0
vn 0 -1 0
vn 0 -1 0
vn 0 -1 0

g CDNNDG02_0016400
f 1/1/1 2/2/2 3/3/3
f 4/4/4 5/5/5 6/6/6
f 7/7/7 8/8/8 9/9/9
f 10/10/10 11/11/11 12/12/12
f 13/13/13 14/14/14 15/15/15
f 16/16/16 17/17/17 18/18/18
f 19/19/19 20/20/20 21/21/21
f 22/22/22 23/23/23 24/24/24
f 25/25/25 26/26/26 27/27/27
f 28/28/28 29/29/29 30/30/30
f 31/31/31 32/32/32 33/33/33
f 34/34/34 35/35/35 36/36/36
f 37/37/37 38/38/38 39/39/39
f 40/40/40 41/41/41 42/42/42
f 43/43/43 44/44/44 45/45/45
f 46/46/46 47/47/47 48/48/48
f 49/49/49 50/50/50 51/51/51
f 52/52/52 53/53/53 54/54/54
f 55/55/55 56/56/56 57/57/57
f 58/58/58 59/59/59 60/60/60
f 61/61/61 62/62/62 63/63/63
f 64/64/64 65/65/65 66/66/66
f 65/65/65 64/64/64 67/67/67
f 68/68/68 69/69/69 70/70/70
f 71/71/71 72/72/72 73/73/73
f 74/74/74 75/75/75 76/76/76
f 77/77/77 78/78/78 79/79/79
f 80/80/80 81/81/81 82/82/82
f 83/83/83 84/84/84 85/85/85
f 86/86/86 87/87/87 88/88/88
f 89/89/89 90/90/90 91/91/91
f 92/92/92 93/93/93 94/94/94
f 95/95/95 96/96/96 97/97/97
f 98/98/98 95/95/95 97/97/97
f 99/99/99 100/100/100 101/101/101
f 101/101/101 100/100/100 102/102/102
f 103/103/103 104/104/104 105/105/105
f 106/106/106 107/107/107 108/108/108
f 109/109/109 110/110/110 111/111/111
f 112/112/112 113/113/113 114/114/114
f 114/114/114 115/115/115 112/112/112
f 116/116/116 117/117/117 118/118/118
f 118/118/118 119/119/119 116/116/116
f 120/120/120 121/121/121 122/122/122
f 123/123/123 120/120/120 122/122/122
f 124/124/124 125/125/125 126/126/126
f 124/124/124 127/127/127 125/125/125
f 128/128/128 129/129/129 130/130/130
f 128/128/128 130/130/130 131/131/131
f 128/128/128 131/131/131 132/132/132
f 133/133/133 134/134/134 135/135/135
f 134/134/134 133/133/133 136/136/136
f 131/131/131 134/134/134 136/136/136
f 133/133/133 137/137/137 136/136/136
f 136/136/136 138/138/138 132/132/132
f 131/131/131 136/136/136 132/132/132
f 136/136/136 139/139/139 138/138/138
f 136/136/136 140/140/140 139/139/139
