v 4.503131 6.479756 8.066198
v 5.868131 6.479756 8.935199
v 10.77213 6.479756 1.235199
v -3.320869 6.479756 3.544199
v 4.503131 6.479756 8.066198
v 10.77213 6.479756 1.235199
v -10.73487 6.479756 -1.178801
v -4.097869 6.479756 3.049199
v -5.621869 6.479756 -9.206801
v -3.320869 6.479756 3.544199
v 4.294131 6.479756 8.394198
v 4.503131 6.479756 8.066198
v -5.621869 6.479756 -9.206801
v -3.539572 6.479756 2.332257
v -2.834869 6.479756 2.781199
v -3.320869 6.479756 3.544199
v 10.77213 6.479756 1.235199
v -2.834869 6.479756 2.781199
v -5.621869 6.479756 -9.206801
v -2.834869 6.479756 2.781199
v 10.77213 6.479756 1.235199
v -5.621869 6.479756 -9.206801
v -3.611869 6.479756 2.286199
v -3.539572 6.479756 2.332257
v -5.621869 6.479756 -9.206801
v -4.097869 6.479756 3.049199
v -3.611869 6.479756 2.286199
v -4.097869 7.551756 3.049199
v -3.320869 7.551756 3.544199
v -2.834869 7.551756 2.781199
v -3.611869 7.551756 2.286199
v -3.320869 -6.485001 3.544199
v 4.294131 -6.485001 8.394198
v 4.294131 6.479756 8.394198
v -3.320869 6.479756 3.544199
v -7.416369 -6.485001 0.9351987
v -4.097869 -6.485001 3.049199
v -4.097869 6.479756 3.049199
v -10.73487 6.479756 -1.178801
v -10.73487 -6.485001 -1.178801
v -7.416369 -6.485001 0.9351987
v -10.73487 6.479756 -1.178801
v -7.416369 -6.485001 0.9351987
v -4.097869 6.479756 3.049199
v -4.097869 -6.485001 3.049199
v -3.320869 -6.485001 3.544199
v -3.320869 6.479756 3.544199
v -4.097869 6.479756 3.049199
v -4.097869 6.479756 3.049199
v -3.320869 6.479756 3.544199
v -3.320869 7.551756 3.544199
v -4.097869 7.551756 3.049199
v 4.294131 -6.485001 8.394198
v 4.503131 -6.485001 8.066198
v 4.503131 6.479756 8.066198
v 4.294131 6.479756 8.394198
v 4.503131 -6.485001 8.066198
v 5.868131 -6.485001 8.935199
v 5.868131 6.479756 8.935199
v 4.503131 6.479756 8.066198
v 5.868131 -6.485001 8.935199
v 10.77213 -6.485001 1.235199
v 10.77213 6.479756 1.235199
v 5.868131 6.479756 8.935199
v -5.621869 6.479756 -9.206801
v 10.77213 6.479756 1.235199
v 10.77213 -6.485001 1.235199
v -5.621869 -6.485001 -9.206801
v -10.73487 6.479756 -1.178801
v -5.621869 6.479756 -9.206801
v -5.621869 -6.485001 -9.206801
v -10.73487 -6.485001 -1.178801
v -3.320869 6.479756 3.544199
v -2.834869 6.479756 2.781199
v -2.834869 7.551756 2.781199
v -3.320869 7.551756 3.544199
v -3.611869 7.551756 2.286199
v -3.539572 6.479756 2.332257
v -3.611869 6.479756 2.286199
v -3.611869 7.551756 2.286199
v -2.834869 7.551756 2.781199
v -2.834869 6.479756 2.781199
v -3.539572 6.479756 2.332257
v -4.097869 7.551756 3.049199
v -3.611869 7.551756 2.286199
v -3.611869 6.479756 2.286199
v -4.097869 6.479756 3.049199
v -4.097869 -6.485001 3.049199
v -7.416369 -6.485001 0.9351987
v -10.73487 -6.485001 -1.178801
v -5.621869 -6.485001 -9.206801
v 10.77213 -6.485001 1.235199
v 5.868131 -6.485001 8.935199
v 4.503131 -6.485001 8.066198
v 4.294131 -6.485001 8.394198
v -3.320869 -6.485001 3.544199
vt 0.484948 0.315863
vt 0.508709 0.344066
vt 0.287205 0.440649
vt 0.361763 0.154397
vt 0.484948 0.315863
vt 0.287205 0.440649
vt 0.232603 0.001188
vt 0.348226 0.138341
vt 0.001653 0.101908
vt 0.361763 0.154397
vt 0.494384 0.311746
vt 0.484948 0.315863
vt 0.001653 0.101908
vt 0.327536 0.149408
vt 0.339812 0.163970
vt 0.361763 0.154397
vt 0.287205 0.440649
vt 0.339812 0.163970
vt 0.001653 0.101908
vt 0.339812 0.163970
vt 0.287205 0.440649
vt 0.001653 0.101908
vt 0.326276 0.147914
vt 0.327536 0.149408
vt 0.001653 0.101908
vt 0.348226 0.138341
vt 0.326276 0.147914
vt 0.807826 0.836105
vt 0.820806 0.851492
vt 0.799757 0.860667
vt 0.786777 0.845279
vt 0.141808 0.681108
vt 0.001653 0.525469
vt 0.182197 0.444181
vt 0.324640 0.602370
vt 0.217198 0.764808
vt 0.156112 0.696987
vt 0.339177 0.618511
vt 0.463342 0.756373
vt 0.278282 0.832626
vt 0.217198 0.764808
vt 0.463342 0.756373
vt 0.217198 0.764808
vt 0.339177 0.618511
vt 0.156112 0.696987
vt 0.141808 0.681108
vt 0.324640 0.602370
vt 0.339177 0.618511
vt 0.339177 0.618511
vt 0.324640 0.602370
vt 0.340026 0.595744
vt 0.354583 0.611907
vt 0.604959 0.840044
vt 0.614239 0.836105
vt 0.782802 0.905419
vt 0.773374 0.909422
vt 0.421696 0.944973
vt 0.396694 0.917289
vt 0.576178 0.836105
vt 0.601588 0.864242
vt 0.001653 0.929357
vt 0.220614 0.836105
vt 0.393163 0.904099
vt 0.170696 0.998841
vt 0.604088 0.001188
vt 0.889560 0.340406
vt 0.793381 0.404148
vt 0.512397 0.070276
vt 0.787730 0.515183
vt 0.558993 0.616937
vt 0.467769 0.544337
vt 0.692907 0.444181
vt 0.882645 0.844885
vt 0.903818 0.836105
vt 0.917688 0.841794
vt 0.896486 0.850586
vt 0.832388 0.836105
vt 0.825968 0.842990
vt 0.824793 0.841569
vt 0.832388 0.836105
vt 0.845025 0.851402
vt 0.837414 0.856846
vt 0.825968 0.842990
vt 0.878031 0.841856
vt 0.857302 0.850910
vt 0.849587 0.845147
vt 0.870289 0.836105
vt 0.922314 0.836105
vt 0.922314 0.836105
vt 0.922314 0.836105
vt 0.922314 0.836105
vt 0.922314 0.836105
vt 0.922314 0.836105
vt 0.922314 0.836105
vt 0.922314 0.836105
vt 0.922314 0.836105
vn 0 1 0
vn 0 1 0
vn 0 1 0
vn 0 1 0
vn 0 1 0
vn 0 1 0
vn 0 1 0
vn 0 1 0
vn 0 1 0
vn 0 1 0
vn 0 1 0
vn 0 1 0
vn 0 1 0
vn 0 1 0
vn 0 1 0
vn 0 1 0
vn 0 1 0
vn 0 1 0
vn 0 1 0
vn 0 1 0
vn 0 1 0
vn 0 1 0
vn 0 1 0
vn 0 1 0
vn 0 1 0
vn 0 1 0
vn 0 1 0
vn 0 1 0
vn 0 1 0
vn 0 1 0
vn 0 1 0
vn -0.5371979 0 0.8434562
vn -0.5371979 0 0.8434562
vn -0.5371979 0 0.8434562
vn -0.5371979 0 0.8434562
vn -0.5372784 0 0.843405
vn -0.5372784 0 0.843405
vn -0.5372784 0 0.843405
vn -0.5372784 0 0.843405
vn -0.5372784 0 0.843405
vn -0.5372784 0 0.843405
vn -0.5372784 1.206113E-12 0.843405
vn -0.5372784 1.206113E-12 0.843405
vn -0.5372784 1.206113E-12 0.843405
vn -0.5372968 0 0.8433932
vn -0.5372968 0 0.8433932
vn -0.5372968 0 0.8433932
vn -0.5372968 0 0.8433932
vn -0.5372968 0 0.8433932
vn -0.5372968 0 0.8433932
vn -0.5372968 0 0.8433932
vn -0.5372968 0 0.8433932
vn 0.8433437 0 0.5373745
vn 0.8433437 0 0.5373745
vn 0.8433437 0 0.5373745
vn 0.8433437 0 0.5373745
vn -0.5370354 0 0.8435597
vn -0.5370354 0 0.8435597
vn -0.5370354 0 0.8435597
vn -0.5370354 0 0.8435597
vn 0.8434629 0 0.5371873
vn 0.8434629 0 0.5371873
vn 0.8434629 0 0.5371873
vn 0.8434629 0 0.5371873
vn 0.5372217 0 -0.8434411
vn 0.5372217 0 -0.8434411
vn 0.5372217 0 -0.8434411
vn 0.5372217 0 -0.8434411
vn -0.8434581 0 -0.537195
vn -0.8434581 0 -0.537195
vn -0.8434581 0 -0.537195
vn -0.8434581 0 -0.537195
vn 0.8434339 0 0.5372331
vn 0.8434339 0 0.5372331
vn 0.8434339 0 0.5372331
vn 0.8434339 0 0.5372331
vn 0.5372968 0 -0.8433932
vn 0.5372968 0 -0.8433932
vn 0.5372968 0 -0.8433932
vn 0.5372968 -8.397269E-10 -0.8433932
vn 0.5372968 -4.198634E-10 -0.8433932
vn 0.5372968 0 -0.8433932
vn 0.5372968 -4.198634E-10 -0.8433932
vn -0.8434339 0 -0.5372331
vn -0.8434339 0 -0.5372331
vn -0.8434339 0 -0.5372331
vn -0.8434339 0 -0.5372331
vn 0 -1 0
vn 0 -1 0
vn 0 -1 0
vn 0 -1 0
vn 0 -1 0
vn 0 -1 0
vn 0 -1 0
vn 0 -1 0
vn 0 -1 0

g CDNNDG02_0014690
f 1/1/1 2/2/2 3/3/3
f 4/4/4 5/5/5 6/6/6
f 7/7/7 8/8/8 9/9/9
f 10/10/10 11/11/11 12/12/12
f 13/13/13 14/14/14 15/15/15
f 16/16/16 17/17/17 18/18/18
f 19/19/19 20/20/20 21/21/21
f 22/22/22 23/23/23 24/24/24
f 25/25/25 26/26/26 27/27/27
f 28/28/28 30/30/30 31/31/31
f 28/28/28 29/29/29 30/30/30
f 32/32/32 34/34/34 35/35/35
f 34/34/34 32/32/32 33/33/33
f 36/36/36 37/37/37 38/38/38
f 39/39/39 40/40/40 41/41/41
f 42/42/42 43/43/43 44/44/44
f 45/45/45 47/47/47 48/48/48
f 47/47/47 45/45/45 46/46/46
f 50/50/50 51/51/51 52/52/52
f 52/52/52 49/49/49 50/50/50
f 54/54/54 55/55/55 53/53/53
f 53/53/53 55/55/55 56/56/56
f 57/57/57 59/59/59 60/60/60
f 59/59/59 57/57/57 58/58/58
f 61/61/61 63/63/63 64/64/64
f 61/61/61 62/62/62 63/63/63
f 65/65/65 67/67/67 68/68/68
f 65/65/65 66/66/66 67/67/67
f 70/70/70 71/71/71 72/72/72
f 69/69/69 70/70/70 72/72/72
f 73/73/73 75/75/75 76/76/76
f 73/73/73 74/74/74 75/75/75
f 77/77/77 78/78/78 79/79/79
f 83/83/83 80/80/80 81/81/81
f 81/81/81 82/82/82 83/83/83
f 87/87/87 84/84/84 86/86/86
f 86/86/86 84/84/84 85/85/85
f 96/96/96 88/88/88 91/91/91
f 95/95/95 96/96/96 94/94/94
f 94/94/94 92/92/92 93/93/93
f 89/89/89 91/91/91 88/88/88
f 90/90/90 91/91/91 89/89/89
f 94/94/94 96/96/96 92/92/92
f 92/92/92 96/96/96 91/91/91
