v 21.64873 4.571076 5.356958
v 29.47173 4.571076 13.02396
v 29.25573 4.571076 10.18796
v 0.2507276 4.571076 3.862958
v 14.19273 4.571076 10.91696
v 4.335728 4.571076 -0.110042
v 14.19273 4.571076 10.91696
v 29.47173 4.571076 13.02396
v 21.64873 4.571076 5.356958
v 21.64873 4.571076 5.356958
v 22.28573 4.571076 4.634958
v 21.67073 4.571076 4.139958
v -2.486272 4.571076 5.390958
v 0.2507276 4.571076 3.862958
v -0.3612724 4.571076 3.451958
v 14.19273 4.571076 10.91696
v 21.64873 4.571076 5.356958
v 21.67073 4.571076 4.139958
v 14.19273 4.571076 10.91696
v 17.02473 4.571076 24.72496
v 29.47173 4.571076 13.02396
v 9.830728 4.571076 16.45796
v 17.02473 4.571076 24.72496
v 14.19273 4.571076 10.91696
v -2.486272 4.571076 5.390958
v 8.564728 4.571076 17.67596
v 0.2507276 4.571076 3.862958
v 0.2507276 4.571076 3.862958
v 9.830728 4.571076 16.45796
v 14.19273 4.571076 10.91696
v 0.2507276 4.571076 3.862958
v 8.564728 4.571076 17.67596
v 9.830728 4.571076 16.45796
v -13.02227 3.655076 -18.34604
v -12.64627 4.312076 -4.792042
v -4.514272 4.312076 -12.86504
v -13.02227 3.655076 -18.34604
v -4.514272 4.312076 -12.86504
v -12.94927 3.655076 -18.42004
v -21.06027 3.684076 -9.239042
v -12.73327 4.312076 -4.706042
v -12.64627 4.312076 -4.792042
v -21.06027 3.684076 -9.239042
v -12.64627 4.312076 -4.792042
v -13.02227 3.655076 -18.34604
v -21.56727 3.638076 -9.684042
v -21.06027 3.684076 -9.239042
v -13.02227 3.655076 -18.34604
v -21.06027 3.684076 -9.239042
v -14.10527 4.312076 -3.129042
v -12.73327 4.312076 -4.706042
v -35.95827 3.096076 -8.252042
v -21.56727 3.638076 -9.684042
v -21.85027 3.096076 -22.91204
v -35.95827 3.096076 -8.252042
v -27.61927 3.684076 -2.582042
v -21.56727 3.638076 -9.684042
v -21.85027 3.096076 -22.91204
v -21.56727 3.638076 -9.684042
v -20.12727 3.096076 -23.11204
v -21.56727 3.638076 -9.684042
v -13.02227 3.655076 -18.34604
v -20.12727 3.096076 -23.11204
v -27.61927 3.684076 -2.582042
v -21.06027 3.684076 -9.239042
v -21.56727 3.638076 -9.684042
v -12.64627 4.830076 -4.792042
v -0.3612724 4.830076 3.451958
v 4.335728 4.830076 -0.110042
v -4.514272 4.830076 -12.86504
v -4.514272 4.830076 -12.86504
v 4.335728 4.830076 -0.110042
v 8.338728 4.830076 -4.381042
v -0.3612724 4.830076 3.451958
v 0.2507276 4.830076 3.862958
v 4.335728 4.830076 -0.110042
v 4.335728 4.191076 -0.110042
v 14.19273 4.191076 10.91696
v 21.67073 4.191076 4.139958
v 8.338728 4.191076 -4.381042
v -2.486272 4.571076 5.390958
v -0.3612724 4.571076 3.451958
v -0.3612724 -4.271234 3.451958
v -2.486272 -4.271234 5.390958
v -2.486272 -4.271234 5.390958
v 8.564728 -4.271234 17.67596
v 8.564728 4.571076 17.67596
v -2.486272 4.571076 5.390958
v 8.564728 -4.271234 17.67596
v 9.830728 -4.271234 16.45796
v 9.830728 4.571076 16.45796
v 8.564728 4.571076 17.67596
v 13.42773 -4.271234 20.59146
v 17.02473 -4.271234 24.72496
v 17.02473 4.571076 24.72496
v 9.830728 4.571076 16.45796
v 9.830728 -4.271234 16.45796
v 13.42773 -4.271234 20.59146
v 9.830728 4.571076 16.45796
v 13.42773 -4.271234 20.59146
v 17.02473 4.571076 24.72496
v 17.02473 -4.271234 24.72496
v 29.47173 -4.271234 13.02396
v 29.47173 4.571076 13.02396
v 17.02473 4.571076 24.72496
v 29.25573 4.571076 10.18796
v 29.47173 4.571076 13.02396
v 29.47173 -4.271234 13.02396
v 29.25573 -4.271234 10.18796
v 21.64873 4.571076 5.356958
v 29.25573 4.571076 10.18796
v 29.25573 -4.271234 10.18796
v 21.64873 -4.271234 5.356958
v 21.64873 -4.271234 5.356958
v 22.28573 -4.271234 4.634958
v 22.28573 4.571076 4.634958
v 21.64873 4.571076 5.356958
v 21.67073 4.571076 4.139958
v 22.28573 4.571076 4.634958
v 21.67073 4.191076 4.139958
v 21.67073 4.191076 4.139958
v 22.28573 4.571076 4.634958
v 22.28573 -4.271234 4.634958
v 21.67073 -4.271234 4.139958
v -12.94927 3.655076 -18.42004
v -4.514272 4.312076 -12.86504
v -4.514272 -4.271234 -12.86504
v -12.94927 -4.271234 -18.42004
v -4.514272 4.830076 -12.86504
v 8.338728 4.830076 -4.381042
v 8.338728 4.191076 -4.381042
v -4.514272 4.312076 -12.86504
v -4.514272 4.312076 -12.86504
v 8.338728 4.191076 -4.381042
v 8.338728 -4.271234 -4.381042
v -4.514272 -4.271234 -12.86504
v 8.338728 4.191076 -4.381042
v 21.67073 4.191076 4.139958
v 21.67073 -4.271234 4.139958
v 8.338728 -4.271234 -4.381042
v 14.19273 4.571076 10.91696
v 21.67073 4.571076 4.139958
v 21.67073 4.191076 4.139958
v 14.19273 4.191076 10.91696
v 4.335728 4.571076 -0.110042
v 14.19273 4.571076 10.91696
v 14.19273 4.191076 10.91696
v 4.335728 4.191076 -0.110042
v -21.06027 -4.271234 -9.239042
v -14.10527 -4.271234 -3.129042
v -14.10527 4.312076 -3.129042
v -21.06027 3.684076 -9.239042
v -14.10527 -4.271234 -3.129042
v -12.73327 -4.271234 -4.706042
v -12.73327 4.312076 -4.706042
v -14.10527 4.312076 -3.129042
v -12.68977 -4.271234 -4.749042
v -12.64627 -4.271234 -4.792042
v -12.64627 4.312076 -4.792042
v -12.73327 4.312076 -4.706042
v -12.73327 -4.271234 -4.706042
v -12.68977 -4.271234 -4.749042
v -12.73327 4.312076 -4.706042
v -12.68977 -4.271234 -4.749042
v -12.64627 4.312076 -4.792042
v -13.02227 3.655076 -18.34604
v -12.94927 3.655076 -18.42004
v -12.94927 -4.271234 -18.42004
v -13.02227 -4.271234 -18.34604
v 4.335728 4.191076 -0.110042
v 8.338728 4.191076 -4.381042
v 8.338728 4.830076 -4.381042
v 4.335728 4.571076 -0.110042
v 4.335728 4.830076 -0.110042
v 4.335728 4.571076 -0.110042
v 8.338728 4.830076 -4.381042
v 0.2507276 4.571076 3.862958
v 4.335728 4.571076 -0.110042
v 4.335728 4.830076 -0.110042
v 0.2507276 4.830076 3.862958
v -12.64627 4.830076 -4.792042
v -0.3612724 4.571076 3.451958
v -0.3612724 4.830076 3.451958
v -12.64627 -4.271234 -4.792042
v -0.3612724 -4.271234 3.451958
v -0.3612724 4.571076 3.451958
v -12.64627 4.312076 -4.792042
v -12.64627 4.830076 -4.792042
v -12.64627 4.312076 -4.792042
v -0.3612724 4.571076 3.451958
v -0.3612724 4.571076 3.451958
v 0.2507276 4.571076 3.862958
v 0.2507276 4.830076 3.862958
v -0.3612724 4.830076 3.451958
v -12.64627 4.830076 -4.792042
v -4.514272 4.830076 -12.86504
v -4.514272 4.312076 -12.86504
v -12.64627 4.312076 -4.792042
v -27.61927 -4.271234 -2.582042
v -21.06027 -4.271234 -9.239042
v -21.06027 3.684076 -9.239042
v -27.61927 3.684076 -2.582042
v -20.12727 3.096076 -23.11204
v -13.02227 3.655076 -18.34604
v -13.02227 -4.271234 -18.34604
v -20.12727 -4.271234 -23.11204
v -21.85027 3.096076 -22.91204
v -20.12727 3.096076 -23.11204
v -20.12727 -4.271234 -23.11204
v -21.85027 -4.271234 -22.91204
v -35.95827 3.096076 -8.252042
v -21.85027 3.096076 -22.91204
v -21.85027 -4.271234 -22.91204
v -35.95827 -4.271234 -8.252042
v -35.95827 -4.271234 -8.252042
v -27.61927 -4.271234 -2.582042
v -27.61927 3.684076 -2.582042
v -35.95827 3.096076 -8.252042
v -27.61927 -4.271234 -2.582042
v -35.95827 -4.271234 -8.252042
v -21.85027 -4.271234 -22.91204
v -20.12727 -4.271234 -23.11204
v -13.02227 -4.271234 -18.34604
v -12.94927 -4.271234 -18.42004
v -4.514272 -4.271234 -12.86504
v 8.338728 -4.271234 -4.381042
v 21.67073 -4.271234 4.139958
v 22.28573 -4.271234 4.634958
v 21.64873 -4.271234 5.356958
v 29.25573 -4.271234 10.18796
v 29.47173 -4.271234 13.02396
v 17.02473 -4.271234 24.72496
v 13.42773 -4.271234 20.59146
v 9.830728 -4.271234 16.45796
v 8.564728 -4.271234 17.67596
v -2.486272 -4.271234 5.390958
v -0.3612724 -4.271234 3.451958
v -12.64627 -4.271234 -4.792042
v -12.68977 -4.271234 -4.749042
v -12.73327 -4.271234 -4.706042
v -14.10527 -4.271234 -3.129042
v -21.06027 -4.271234 -9.239042
vt 0.452835 0.263104
vt 0.569483 0.349954
vt 0.525400 0.346944
vt 0.437044 0.030049
vt 0.542020 0.183322
vt 0.373747 0.073553
vt 0.542020 0.183322
vt 0.569483 0.349954
vt 0.452835 0.263104
vt 0.452835 0.263104
vt 0.441370 0.269862
vt 0.433877 0.263060
vt 0.461796 0.000636
vt 0.437044 0.030049
vt 0.430857 0.023297
vt 0.542020 0.183322
vt 0.452835 0.263104
vt 0.433877 0.263060
vt 0.542020 0.183322
vt 0.756048 0.217338
vt 0.569483 0.349954
vt 0.629834 0.137177
vt 0.756048 0.217338
vt 0.542020 0.183322
vt 0.461796 0.000636
vt 0.649245 0.123692
vt 0.437044 0.030049
vt 0.437044 0.030049
vt 0.629834 0.137177
vt 0.542020 0.183322
vt 0.437044 0.030049
vt 0.649245 0.123692
vt 0.629834 0.137177
vt 0.074044 0.639402
vt 0.286649 0.646119
vt 0.158188 0.732662
vt 0.074044 0.639402
vt 0.158188 0.732662
vt 0.072868 0.640178
vt 0.218534 0.554156
vt 0.288018 0.645193
vt 0.286649 0.646119
vt 0.218534 0.554156
vt 0.286649 0.646119
vt 0.074044 0.639402
vt 0.211656 0.548585
vt 0.218534 0.554156
vt 0.074044 0.639402
vt 0.218534 0.554156
vt 0.313038 0.630641
vt 0.288018 0.645193
vt 0.237333 0.393130
vt 0.211656 0.548585
vt 0.004616 0.542932
vt 0.237333 0.393130
vt 0.324343 0.484427
vt 0.211656 0.548585
vt 0.004616 0.542932
vt 0.211656 0.548585
vt 0.000912 0.561595
vt 0.211656 0.548585
vt 0.074044 0.639402
vt 0.000912 0.561595
vt 0.324343 0.484427
vt 0.218534 0.554156
vt 0.211656 0.548585
vt 0.454797 0.393130
vt 0.578799 0.528591
vt 0.521736 0.578814
vt 0.326345 0.479649
vt 0.326345 0.479649
vt 0.521736 0.578814
vt 0.453885 0.621326
vt 0.578799 0.528591
vt 0.584981 0.535339
vt 0.521736 0.578814
vt 0.654830 0.393130
vt 0.822777 0.502679
vt 0.714844 0.582258
vt 0.587056 0.435585
vt 0.736479 0.919160
vt 0.706324 0.941691
vt 0.679125 0.921781
vt 0.708956 0.899491
vt 0.470374 0.734097
vt 0.657028 0.853863
vt 0.686891 0.875032
vt 0.498216 0.753969
vt 0.646984 0.929589
vt 0.628077 0.942791
vt 0.657521 0.912837
vt 0.676633 0.899491
vt 0.063631 0.938415
vt 0.126348 0.977338
vt 0.157316 0.999456
vt 0.030522 0.920767
vt 0.000912 0.899491
vt 0.063631 0.938415
vt 0.030522 0.920767
vt 0.063631 0.938415
vt 0.157316 0.999456
vt 0.436814 0.763504
vt 0.252507 0.894708
vt 0.281720 0.866727
vt 0.468030 0.734097
vt 0.831605 0.899491
vt 0.875274 0.902439
vt 0.846300 0.929958
vt 0.803099 0.927041
vt 0.716980 0.734097
vt 0.789121 0.817752
vt 0.760520 0.845717
vt 0.689152 0.762961
vt 0.749493 0.928010
vt 0.738377 0.934606
vt 0.765699 0.906158
vt 0.776936 0.899491
vt 0.364196 0.381755
vt 0.371688 0.388559
vt 0.362994 0.381883
vt 0.362994 0.381883
vt 0.371688 0.388559
vt 0.343923 0.391423
vt 0.336511 0.384692
vt 0.022445 0.000636
vt 0.107796 0.093143
vt 0.083589 0.099001
vt 0.000912 0.006936
vt 0.109273 0.092785
vt 0.236949 0.234627
vt 0.235027 0.234956
vt 0.107796 0.093143
vt 0.107796 0.093143
vt 0.235027 0.234956
vt 0.209856 0.239275
vt 0.083589 0.099001
vt 0.235027 0.234956
vt 0.362994 0.381883
vt 0.336511 0.384692
vt 0.209856 0.239275
vt 0.626047 0.900435
vt 0.519880 0.980265
vt 0.518687 0.979284
vt 0.624805 0.899491
vt 0.792425 0.734097
vt 0.960318 0.843601
vt 0.959063 0.844891
vt 0.791249 0.735438
vt 0.910665 0.899491
vt 0.910665 0.899491
vt 0.910665 0.899491
vt 0.910665 0.899491
vt 0.906108 0.899491
vt 0.906108 0.899491
vt 0.906108 0.899491
vt 0.906108 0.899491
vt 0.906108 0.899491
vt 0.906108 0.899491
vt 0.906108 0.899491
vt 0.906108 0.899491
vt 0.906108 0.899491
vt 0.906108 0.899491
vt 0.906108 0.899491
vt 0.906108 0.899491
vt 0.906108 0.899491
vt 0.899600 0.915641
vt 0.898480 0.916397
vt 0.877849 0.900240
vt 0.878957 0.899491
vt 0.227131 0.945127
vt 0.159526 0.987517
vt 0.161448 0.985297
vt 0.228306 0.943788
vt 0.229107 0.942874
vt 0.228306 0.943788
vt 0.161448 0.985297
vt 0.291352 0.900419
vt 0.228306 0.943788
vt 0.229107 0.942874
vt 0.292173 0.899491
vt 0.915223 0.899491
vt 0.915223 0.899491
vt 0.915223 0.899491
vt 0.915223 0.899491
vt 0.915223 0.899491
vt 0.915223 0.899491
vt 0.915223 0.899491
vt 0.915223 0.899491
vt 0.915223 0.899491
vt 0.915223 0.899491
vt 0.915223 0.899491
vt 0.915223 0.899491
vt 0.915223 0.899491
vt 0.915223 0.899491
vt 0.422451 0.900594
vt 0.295904 0.987436
vt 0.294439 0.986278
vt 0.420906 0.899491
vt 0.901550 0.899491
vt 0.901550 0.899491
vt 0.901550 0.899491
vt 0.901550 0.899491
vt 0.444024 0.899491
vt 0.516643 0.976858
vt 0.495257 0.983128
vt 0.424795 0.906011
vt 0.801242 0.913910
vt 0.797948 0.932235
vt 0.779398 0.917652
vt 0.782664 0.899491
vt 0.250190 0.747390
vt 0.020194 0.898187
vt 0.000912 0.883547
vt 0.228851 0.734097
vt 0.919781 0.899491
vt 0.919781 0.899491
vt 0.919781 0.899491
vt 0.919781 0.899491
vt 0.924339 0.899491
vt 0.924339 0.899491
vt 0.924339 0.899491
vt 0.924339 0.899491
vt 0.924339 0.899491
vt 0.924339 0.899491
vt 0.924339 0.899491
vt 0.924339 0.899491
vt 0.924339 0.899491
vt 0.924339 0.899491
vt 0.924339 0.899491
vt 0.924339 0.899491
vt 0.924339 0.899491
vt 0.924339 0.899491
vt 0.924339 0.899491
vt 0.924339 0.899491
vt 0.924339 0.899491
vt 0.924339 0.899491
vt 0.924339 0.899491
vt 0.924339 0.899491
vt 0.924339 0.899491
vt 0.924339 0.899491
vt 0.924339 0.899491
vt 0.924339 0.899491
vn 0 1 0
vn 0 1 0
vn 0 1 0
vn 0 1 0
vn 0 1 0
vn 0 1 0
vn 0 1 0
vn 0 1 0
vn 0 1 0
vn 0 1 0
vn 0 1 0
vn 0 1 0
vn 0 1 0
vn 0 1 0
vn 0 1 0
vn 0 1 0
vn 0 1 0
vn 0 1 0
vn 0 1 0
vn 0 1 0
vn 0 1 0
vn 0 1 0
vn 0 1 0
vn 0 1 0
vn 0 1 0
vn 0 1 0
vn 0 1 0
vn 0 1 0
vn 0 1 0
vn 0 1 0
vn 0 1 0
vn 0 1 0
vn 0 1 0
vn -0.04672825 0.997798 -0.04706976
vn -0.04672825 0.997798 -0.04706976
vn -0.04672825 0.997798 -0.04706976
vn -0.04711196 0.9978079 -0.04647531
vn -0.04711196 0.9978079 -0.04647531
vn -0.04711196 0.9978079 -0.04647531
vn -0.04851829 0.9976156 -0.04908246
vn -0.04851829 0.9976156 -0.04908246
vn -0.04851829 0.9976156 -0.04908246
vn -0.04963157 0.9976619 -0.04698262
vn -0.04963157 0.9976619 -0.04698262
vn -0.04963157 0.9976619 -0.04698262
vn -0.0494346 0.9976799 -0.04680884
vn -0.0494346 0.9976799 -0.04680884
vn -0.0494346 0.9976799 -0.04680884
vn -0.05106131 0.997707 -0.04442367
vn -0.05106131 0.997707 -0.04442367
vn -0.05106131 0.997707 -0.04442367
vn -0.0415815 0.9983335 -0.04001581
vn -0.0415815 0.9983335 -0.04001581
vn -0.0415815 0.9983335 -0.04001581
vn -0.04178249 0.9982406 -0.04207078
vn -0.04178249 0.9982406 -0.04207078
vn -0.04178249 0.9982406 -0.04207078
vn -0.004740295 0.9991546 -0.04083764
vn -0.004740295 0.9991546 -0.04083764
vn -0.004740295 0.9991546 -0.04083764
vn -0.04803323 0.9978123 -0.04542613
vn -0.04803323 0.9978123 -0.04542613
vn -0.04803323 0.9978123 -0.04542613
vn -0.04854104 0.9976755 -0.04782645
vn -0.04854104 0.9976755 -0.04782645
vn -0.04854104 0.9976755 -0.04782645
vn 0 1 0
vn 0 1 0
vn 0 1 0
vn 0 1 0
vn 0 1 0
vn 0 1 0
vn 0 1 0
vn 0 1 0
vn 0 1 0
vn 0 1 0
vn 0 1 0
vn 0 1 0
vn 0 1 0
vn 0 1 0
vn -0.6740385 0 -0.7386962
vn -0.6740385 0 -0.7386962
vn -0.6740385 0 -0.7386962
vn -0.6740385 0 -0.7386962
vn -0.7434596 0 0.6687808
vn -0.7434596 0 0.6687808
vn -0.7434596 0 0.6687808
vn -0.7434596 0 0.6687808
vn 0.6933135 0 0.7206361
vn 0.6933135 0 0.7206361
vn 0.6933135 0 0.7206361
vn 0.6933135 0 0.7206361
vn -0.7543658 0 0.6564543
vn -0.7543658 0 0.6564543
vn -0.7543658 0 0.6564543
vn -0.7543658 0 0.6564543
vn -0.7543658 0 0.6564543
vn -0.7543658 0 0.6564543
vn -0.7543658 -3.705369E-11 0.6564543
vn -0.7543658 -3.705369E-11 0.6564543
vn -0.7543658 -3.705369E-11 0.6564543
vn 0.6849355 0 0.7286037
vn 0.6849355 0 0.7286037
vn 0.6849355 0 0.7286037
vn 0.6849355 0 0.7286037
vn 0.9971121 0 -0.07594366
vn 0.9971121 0 -0.07594366
vn 0.9971121 0 -0.07594366
vn 0.9971121 0 -0.07594366
vn 0.5360998 0 -0.8441546
vn 0.5360998 0 -0.8441546
vn 0.5360998 0 -0.8441546
vn 0.5360998 0 -0.8441546
vn 0.7498682 0 0.6615873
vn 0.7498682 0 0.6615873
vn 0.7498682 0 0.6615873
vn 0.7498682 0 0.6615873
vn 0.6270094 0 -0.7790117
vn 0.6270094 0 -0.7790117
vn 0.6270094 0 -0.7790117
vn 0.6270094 0 -0.7790117
vn 0.6270094 0 -0.7790117
vn 0.6270094 0 -0.7790117
vn 0.6270094 0 -0.7790117
vn 0.5500074 0 -0.8351598
vn 0.5500074 0 -0.8351598
vn 0.5500074 0 -0.8351598
vn 0.5500074 0 -0.8351598
vn 0.5508884 0 -0.8345789
vn 0.5508884 0 -0.8345789
vn 0.5508884 0 -0.8345789
vn 0.5508884 0 -0.8345789
vn 0.5508884 0 -0.8345789
vn 0.5508884 0 -0.8345789
vn 0.5508884 0 -0.8345789
vn 0.5508884 0 -0.8345789
vn 0.5385389 0 -0.8426006
vn 0.5385389 0 -0.8426006
vn 0.5385389 0 -0.8426006
vn 0.5385389 0 -0.8426006
vn -0.6715228 0 -0.7409838
vn -0.6715228 0 -0.7409838
vn -0.6715228 0 -0.7409838
vn -0.6715228 0 -0.7409838
vn 0.7455525 0 -0.6664469
vn 0.7455525 0 -0.6664469
vn 0.7455525 0 -0.6664469
vn 0.7455525 0 -0.6664469
vn -0.6599945 0 0.7512704
vn -0.6599945 0 0.7512704
vn -0.6599945 0 0.7512704
vn -0.6599945 0 0.7512704
vn 0.7544407 0 0.6563682
vn 0.7544407 0 0.6563682
vn 0.7544407 0 0.6563682
vn 0.7544407 0 0.6563682
vn 0.7030077 0 0.7111822
vn 0.7030077 0 0.7111822
vn 0.7030077 0 0.7111822
vn 0.7030077 0 0.7111822
vn 0.7030077 0 0.7111822
vn 0.7030077 0 0.7111822
vn 0.7030077 -4.096674E-11 0.7111822
vn 0.7030077 -4.096674E-11 0.7111822
vn 0.7030077 -4.096674E-11 0.7111822
vn -0.7119005 0 -0.7022803
vn -0.7119005 0 -0.7022803
vn -0.7119005 0 -0.7022803
vn -0.7119005 0 -0.7022803
vn 0.7296278 0 0.6838445
vn 0.7296278 0 0.6838445
vn 0.7296278 0 0.6838445
vn 0.7296278 0 0.6838445
vn 0.7296278 0 0.6838445
vn 0.7296278 0 0.6838445
vn 0.7296278 0 0.6838445
vn 0.6972112 0 0.7168658
vn 0.6972112 0 0.7168658
vn 0.6972112 0 0.7168658
vn 0.6972112 0 0.7168658
vn -0.5572245 0 0.8303618
vn -0.5572245 0 0.8303618
vn -0.5572245 0 0.8303618
vn -0.5572245 0 0.8303618
vn -0.5572245 0 0.8303618
vn -0.5572245 0 0.8303618
vn -0.5572245 0 0.8303618
vn -0.5572245 0 0.8303618
vn -0.5572245 0 0.8303618
vn -0.5572245 0 0.8303618
vn -0.5575143 0 0.8301673
vn -0.5575143 0 0.8301673
vn -0.5575143 0 0.8301673
vn -0.5575143 0 0.8301673
vn -0.7045276 0 -0.7096766
vn -0.7045276 0 -0.7096766
vn -0.7045276 0 -0.7096766
vn -0.7045276 0 -0.7096766
vn 0.7123306 0 0.7018441
vn 0.7123306 0 0.7018441
vn 0.7123306 0 0.7018441
vn 0.7123306 0 0.7018441
vn 0.5570716 0 -0.8304645
vn 0.5570716 0 -0.8304645
vn 0.5570716 0 -0.8304645
vn 0.5570716 0 -0.8304645
vn -0.1153024 0 -0.9933304
vn -0.1153024 0 -0.9933304
vn -0.1153024 0 -0.9933304
vn -0.1153024 0 -0.9933304
vn -0.7205421 0 -0.6934112
vn -0.7205421 0 -0.6934112
vn -0.7205421 0 -0.6934112
vn -0.7205421 0 -0.6934112
vn -0.5622748 0 0.8269505
vn -0.5622748 0 0.8269505
vn -0.5622748 0 0.8269505
vn -0.5622748 0 0.8269505
vn 0 -1 0
vn 0 -1 0
vn 0 -1 0
vn 0 -1 0
vn 0 -1 0
vn 0 -1 0
vn 0 -1 0
vn 0 -1 0
vn 0 -1 0
vn 0 -1 0
vn 0 -1 0
vn 0 -1 0
vn 0 -1 0
vn 0 -1 0
vn 0 -1 0
vn 0 -1 0
vn 0 -1 0
vn 0 -1 0
vn 0 -1 0
vn 0 -1 0
vn 0 -1 0
vn 0 -1 0
vn 0 -1 0
vn 0 -1 0

g CDNNDG02_0015020
f 1/1/1 2/2/2 3/3/3
f 4/4/4 5/5/5 6/6/6
f 7/7/7 8/8/8 9/9/9
f 10/10/10 11/11/11 12/12/12
f 13/13/13 14/14/14 15/15/15
f 16/16/16 17/17/17 18/18/18
f 19/19/19 20/20/20 21/21/21
f 22/22/22 23/23/23 24/24/24
f 25/25/25 26/26/26 27/27/27
f 28/28/28 29/29/29 30/30/30
f 31/31/31 32/32/32 33/33/33
f 34/34/34 35/35/35 36/36/36
f 37/37/37 38/38/38 39/39/39
f 40/40/40 41/41/41 42/42/42
f 43/43/43 44/44/44 45/45/45
f 46/46/46 47/47/47 48/48/48
f 49/49/49 50/50/50 51/51/51
f 52/52/52 53/53/53 54/54/54
f 55/55/55 56/56/56 57/57/57
f 58/58/58 59/59/59 60/60/60
f 61/61/61 62/62/62 63/63/63
f 64/64/64 65/65/65 66/66/66
f 70/70/70 67/67/67 68/68/68
f 69/69/69 70/70/70 68/68/68
f 71/71/71 72/72/72 73/73/73
f 74/74/74 75/75/75 76/76/76
f 77/77/77 78/78/78 80/80/80
f 80/80/80 78/78/78 79/79/79
f 81/81/81 83/83/83 84/84/84
f 81/81/81 82/82/82 83/83/83
f 85/85/85 87/87/87 88/88/88
f 85/85/85 86/86/86 87/87/87
f 89/89/89 91/91/91 92/92/92
f 89/89/89 90/90/90 91/91/91
f 93/93/93 94/94/94 95/95/95
f 96/96/96 97/97/97 98/98/98
f 99/99/99 100/100/100 101/101/101
f 105/105/105 102/102/102 103/103/103
f 104/104/104 105/105/105 103/103/103
f 109/109/109 106/106/106 108/108/108
f 108/108/108 106/106/106 107/107/107
f 113/113/113 110/110/110 112/112/112
f 111/111/111 112/112/112 110/110/110
f 115/115/115 116/116/116 114/114/114
f 114/114/114 116/116/116 117/117/117
f 118/118/118 119/119/119 120/120/120
f 123/123/123 121/121/121 122/122/122
f 121/121/121 123/123/123 124/124/124
f 128/128/128 125/125/125 127/127/127
f 126/126/126 127/127/127 125/125/125
f 132/132/132 129/129/129 130/130/130
f 130/130/130 131/131/131 132/132/132
f 136/136/136 133/133/133 134/134/134
f 134/134/134 135/135/135 136/136/136
f 137/137/137 139/139/139 140/140/140
f 137/137/137 138/138/138 139/139/139
f 144/144/144 141/141/141 143/143/143
f 142/142/142 143/143/143 141/141/141
f 148/148/148 145/145/145 147/147/147
f 147/147/147 145/145/145 146/146/146
f 150/150/150 151/151/151 152/152/152
f 152/152/152 149/149/149 150/150/150
f 154/154/154 155/155/155 153/153/153
f 153/153/153 155/155/155 156/156/156
f 157/157/157 158/158/158 159/159/159
f 160/160/160 161/161/161 162/162/162
f 163/163/163 164/164/164 165/165/165
f 166/166/166 167/167/167 168/168/168
f 169/169/169 166/166/166 168/168/168
f 171/171/171 172/172/172 173/173/173
f 170/170/170 171/171/171 173/173/173
f 174/174/174 175/175/175 176/176/176
f 180/180/180 177/177/177 179/179/179
f 179/179/179 177/177/177 178/178/178
f 181/181/181 182/182/182 183/183/183
f 185/185/185 186/186/186 187/187/187
f 187/187/187 184/184/184 185/185/185
f 188/188/188 189/189/189 190/190/190
f 194/194/194 191/191/191 193/193/193
f 193/193/193 191/191/191 192/192/192
f 195/195/195 197/197/197 198/198/198
f 195/195/195 196/196/196 197/197/197
f 202/202/202 199/199/199 201/201/201
f 200/200/200 201/201/201 199/199/199
f 206/206/206 203/203/203 205/205/205
f 204/204/204 205/205/205 203/203/203
f 207/207/207 209/209/209 210/210/210
f 207/207/207 208/208/208 209/209/209
f 214/214/214 211/211/211 213/213/213
f 213/213/213 211/211/211 212/212/212
f 216/216/216 217/217/217 218/218/218
f 218/218/218 215/215/215 216/216/216
f 242/242/242 223/223/223 238/238/238
f 242/242/242 240/240/240 241/241/241
f 225/225/225 223/223/223 224/224/224
f 220/220/220 221/221/221 242/242/242
f 238/238/238 223/223/223 225/225/225
f 242/242/242 219/219/219 220/220/220
f 222/222/222 223/223/223 242/242/242
f 222/222/222 242/242/242 221/221/221
f 239/239/239 240/240/240 242/242/242
f 235/235/235 236/236/236 234/234/234
f 226/226/226 227/227/227 229/229/229
f 227/227/227 228/228/228 229/229/229
f 229/229/229 230/230/230 231/231/231
f 229/229/229 231/231/231 233/233/233
f 233/233/233 231/231/231 232/232/232
f 238/238/238 225/225/225 237/237/237
f 237/237/237 226/226/226 234/234/234
f 237/237/237 234/234/234 236/236/236
f 233/233/233 234/234/234 229/229/229
f 234/234/234 226/226/226 229/229/229
f 238/238/238 239/239/239 242/242/242
f 237/237/237 225/225/225 226/226/226
