v -2.866037 5.940594 4.849515
v 0.274963 5.940594 6.886516
v 6.812963 5.940594 -3.194484
v -2.866037 5.940594 4.849515
v 6.812963 5.940594 -3.194484
v 0.295963 5.940594 -7.420485
v -5.355037 5.940594 1.293515
v -5.355037 5.940594 1.293515
v -3.070037 5.940594 4.717515
v -2.866037 5.940594 4.849515
v -6.242037 5.940594 2.660515
v -5.965037 5.940594 2.839515
v -5.355037 5.940594 1.293515
v -5.965037 5.940594 2.839515
v -3.070037 5.940594 4.717515
v -5.355037 5.940594 1.293515
v -3.820037 4.036594 6.320516
v -2.866037 4.036594 4.849515
v -3.070037 4.036594 4.717515
v -6.935037 4.036594 4.300515
v -3.820037 4.036594 6.320516
v -3.070037 4.036594 4.717515
v -5.965037 4.036594 2.839515
v -3.070037 4.036594 4.717515
v -2.866037 4.036594 4.849515
v -2.866037 5.940594 4.849515
v -3.070037 5.940594 4.717515
v -2.866037 -5.835665 4.849515
v 0.274963 -5.835665 6.886516
v 0.274963 5.940594 6.886516
v -2.866037 4.036594 4.849515
v -2.866037 5.940594 4.849515
v -2.866037 4.036594 4.849515
v 0.274963 5.940594 6.886516
v -6.242037 5.940594 2.660515
v -5.965037 4.036594 2.839515
v -5.965037 5.940594 2.839515
v -6.242037 -5.835665 2.660515
v -5.965037 -5.835665 2.839515
v -5.965037 4.036594 2.839515
v -6.242037 5.940594 2.660515
v -5.965037 4.036594 2.839515
v -3.070037 4.036594 4.717515
v -3.070037 5.940594 4.717515
v -5.965037 5.940594 2.839515
v 0.274963 -5.835665 6.886516
v 6.812963 -5.835665 -3.194484
v 6.812963 5.940594 -3.194484
v 0.274963 5.940594 6.886516
v 0.295963 5.940594 -7.420485
v 3.554463 -5.835665 -5.307485
v 0.295963 -5.835665 -7.420485
v 3.554463 -5.835665 -5.307485
v 6.812963 5.940594 -3.194484
v 6.812963 -5.835665 -3.194484
v 0.295963 5.940594 -7.420485
v 6.812963 5.940594 -3.194484
v 3.554463 -5.835665 -5.307485
v -5.355037 5.940594 1.293515
v 0.295963 5.940594 -7.420485
v 0.295963 -5.835665 -7.420485
v -5.355037 -5.835665 1.293515
v -6.242037 5.940594 2.660515
v -5.355037 5.940594 1.293515
v -5.355037 -5.835665 1.293515
v -6.242037 -5.835665 2.660515
v -6.935037 -5.835665 4.300515
v -3.820037 -5.835665 6.320516
v -3.820037 4.036594 6.320516
v -6.935037 4.036594 4.300515
v -3.820037 -5.835665 6.320516
v -2.866037 -5.835665 4.849515
v -2.866037 4.036594 4.849515
v -3.820037 4.036594 6.320516
v -6.935037 4.036594 4.300515
v -5.965037 4.036594 2.839515
v -5.965037 -5.835665 2.839515
v -6.935037 -5.835665 4.300515
v -5.965037 -5.835665 2.839515
v -6.242037 -5.835665 2.660515
v -5.355037 -5.835665 1.293515
v 0.295963 -5.835665 -7.420485
v 3.554463 -5.835665 -5.307485
v 6.812963 -5.835665 -3.194484
v 0.274963 -5.835665 6.886516
v -2.866037 -5.835665 4.849515
v -3.820037 -5.835665 6.320516
v -6.935037 -5.835665 4.300515
vt 0.085347 0.290587
vt 0.002326 0.196618
vt 0.413640 0.001704
vt 0.085347 0.290587
vt 0.413640 0.001704
vt 0.585869 0.196683
vt 0.230333 0.365142
vt 0.230333 0.365142
vt 0.090727 0.296690
vt 0.085347 0.290587
vt 0.174561 0.391582
vt 0.167266 0.383296
vt 0.230333 0.365142
vt 0.167266 0.383296
vt 0.090727 0.296690
vt 0.230333 0.365142
vt 0.002326 0.907145
vt 0.061466 0.879046
vt 0.066767 0.885076
vt 0.083452 0.999217
vt 0.002326 0.907145
vt 0.066767 0.885076
vt 0.142190 0.970647
vt 0.654092 0.768856
vt 0.659381 0.774826
vt 0.627452 0.779336
vt 0.622150 0.773352
vt 0.822545 0.751779
vt 0.903172 0.842588
vt 0.709262 0.871474
vt 0.659381 0.774826
vt 0.627452 0.779336
vt 0.659381 0.774826
vt 0.709262 0.871474
vt 0.539535 0.680302
vt 0.578844 0.684132
vt 0.546724 0.688428
vt 0.735900 0.654174
vt 0.742985 0.662182
vt 0.578844 0.684132
vt 0.539535 0.680302
vt 0.578844 0.684132
vt 0.654092 0.768856
vt 0.622150 0.773352
vt 0.546724 0.688428
vt 0.599720 0.459665
vt 0.202119 0.649575
vt 0.002326 0.587919
vt 0.405732 0.395230
vt 0.763714 0.259211
vt 0.795125 0.096931
vt 0.880364 0.192154
vt 0.795125 0.096931
vt 0.590698 0.065937
vt 0.709882 0.001704
vt 0.763714 0.259211
vt 0.590698 0.065937
vt 0.795125 0.096931
vt 0.058076 0.822077
vt 0.413477 0.654174
vt 0.532912 0.684197
vt 0.182710 0.849641
vt 0.002326 0.848430
vt 0.058076 0.822077
vt 0.182710 0.849641
vt 0.127775 0.875608
vt 0.311762 0.879046
vt 0.391468 0.968455
vt 0.229521 0.991001
vt 0.148837 0.900497
vt 0.617477 0.933639
vt 0.559838 0.960979
vt 0.397674 0.906720
vt 0.456017 0.879046
vt 0.623256 0.907084
vt 0.682128 0.879046
vt 0.786125 0.901310
vt 0.727976 0.929004
vt 0.793023 0.879046
vt 0.793023 0.879046
vt 0.793023 0.879046
vt 0.793023 0.879046
vt 0.793023 0.879046
vt 0.793023 0.879046
vt 0.793023 0.879046
vt 0.793023 0.879046
vt 0.793023 0.879046
vt 0.793023 0.879046
vn 0 1 0
vn 0 1 0
vn 0 1 0
vn 0 1 0
vn 0 1 0
vn 0 1 0
vn 0 1 0
vn 0 1 0
vn 0 1 0
vn 0 1 0
vn 0 1 0
vn 0 1 0
vn 0 1 0
vn 0 1 0
vn 0 1 0
vn 0 1 0
vn 0 1 0
vn 0 1 0
vn 0 1 0
vn 0 1 0
vn 0 1 0
vn 0 1 0
vn 0 1 0
vn -0.5432513 0 0.8395702
vn -0.5432513 0 0.8395702
vn -0.5432513 0 0.8395702
vn -0.5432513 0 0.8395702
vn -0.5441149 0 0.8390107
vn -0.5441149 0 0.8390107
vn -0.5441149 0 0.8390107
vn -0.5441149 0 0.8390107
vn -0.5441149 0 0.8390107
vn -0.5441149 0 0.8390107
vn -0.5441149 0 0.8390107
vn -0.5427483 0 0.8398954
vn -0.5427483 0 0.8398954
vn -0.5427483 0 0.8398954
vn -0.5427483 0 0.8398954
vn -0.5427483 0 0.8398954
vn -0.5427483 0 0.8398954
vn -0.5427483 0 0.8398954
vn -0.5442242 0 0.8389398
vn -0.5442242 0 0.8389398
vn -0.5442242 0 0.8389398
vn -0.5442242 0 0.8389398
vn 0.8390003 0 0.5441309
vn 0.8390003 0 0.5441309
vn 0.8390003 0 0.5441309
vn 0.8390003 0 0.5441309
vn 0.5440785 0 -0.8390344
vn 0.5440785 0 -0.8390344
vn 0.5440785 0 -0.8390344
vn 0.5440785 0 -0.8390344
vn 0.5440785 0 -0.8390344
vn 0.5440785 0 -0.8390344
vn 0.5440785 2.657992E-10 -0.8390344
vn 0.5440785 2.657992E-10 -0.8390344
vn 0.5440785 2.657992E-10 -0.8390344
vn -0.8390195 0 -0.5441014
vn -0.8390195 0 -0.5441014
vn -0.8390195 0 -0.5441014
vn -0.8390195 0 -0.5441014
vn -0.838878 0 -0.5443195
vn -0.838878 0 -0.5443195
vn -0.838878 0 -0.5443195
vn -0.838878 0 -0.5443195
vn -0.5440886 0 0.8390278
vn -0.5440886 0 0.8390278
vn -0.5440886 0 0.8390278
vn -0.5440886 0 0.8390278
vn 0.8390035 0 0.544126
vn 0.8390035 0 0.544126
vn 0.8390035 0 0.544126
vn 0.8390035 0 0.544126
vn -0.8331015 0 -0.5531201
vn -0.8331015 0 -0.5531201
vn -0.8331015 0 -0.5531201
vn -0.8331015 0 -0.5531201
vn 0 -1 0
vn 0 -1 0
vn 0 -1 0
vn 0 -1 0
vn 0 -1 0
vn 0 -1 0
vn 0 -1 0
vn 0 -1 0
vn 0 -1 0
vn 0 -1 0

g CDNNDG02_0001340
f 1/1/1 2/2/2 3/3/3
f 7/7/7 4/4/4 5/5/5
f 5/5/5 6/6/6 7/7/7
f 8/8/8 9/9/9 10/10/10
f 11/11/11 12/12/12 13/13/13
f 14/14/14 15/15/15 16/16/16
f 17/17/17 18/18/18 19/19/19
f 20/20/20 21/21/21 22/22/22
f 23/23/23 20/20/20 22/22/22
f 24/24/24 26/26/26 27/27/27
f 26/26/26 24/24/24 25/25/25
f 29/29/29 30/30/30 31/31/31
f 31/31/31 28/28/28 29/29/29
f 32/32/32 33/33/33 34/34/34
f 35/35/35 36/36/36 37/37/37
f 40/40/40 41/41/41 38/38/38
f 40/40/40 38/38/38 39/39/39
f 42/42/42 44/44/44 45/45/45
f 42/42/42 43/43/43 44/44/44
f 46/46/46 48/48/48 49/49/49
f 46/46/46 47/47/47 48/48/48
f 50/50/50 51/51/51 52/52/52
f 53/53/53 54/54/54 55/55/55
f 56/56/56 57/57/57 58/58/58
f 59/59/59 61/61/61 62/62/62
f 59/59/59 60/60/60 61/61/61
f 63/63/63 65/65/65 66/66/66
f 63/63/63 64/64/64 65/65/65
f 70/70/70 67/67/67 69/69/69
f 69/69/69 67/67/67 68/68/68
f 72/72/72 73/73/73 71/71/71
f 71/71/71 73/73/73 74/74/74
f 76/76/76 77/77/77 78/78/78
f 75/75/75 76/76/76 78/78/78
f 87/87/87 79/79/79 86/86/86
f 88/88/88 79/79/79 87/87/87
f 84/84/84 85/85/85 86/86/86
f 79/79/79 80/80/80 81/81/81
f 79/79/79 81/81/81 86/86/86
f 83/83/83 84/84/84 86/86/86
f 81/81/81 82/82/82 83/83/83
f 81/81/81 83/83/83 86/86/86
