v 3.704745 5.651457 0.9476962
v 7.907007 5.651457 -4.918787
v 4.338451 5.651457 -0.0462753
v -0.7119927 5.651457 9.004213
v 7.907007 5.651457 -4.918787
v 3.704745 5.651457 0.9476962
v -3.436993 5.651457 7.317214
v -0.7119927 5.651457 9.004213
v 3.704745 5.651457 0.9476962
v 3.742259 5.651457 -0.4265566
v 4.338451 5.651457 -0.0462753
v 7.907007 5.651457 -4.918787
v -3.436993 5.651457 7.317214
v 3.704745 5.651457 0.9476962
v 2.927697 5.651457 0.4520561
v -6.366992 5.651457 2.516213
v 7.907007 5.651457 -4.918787
v 0.9150073 5.651457 -9.247787
v -3.436993 5.651457 7.317214
v 2.927697 5.651457 0.4520561
v 2.850488 5.651457 0.4028082
v -5.903484 5.651457 3.275704
v -3.436993 5.651457 7.317214
v 2.850488 5.651457 0.4028082
v -5.903484 5.651457 3.275704
v 3.484195 5.651457 -0.5911633
v 7.907007 5.651457 -4.918787
v 3.484195 5.651457 -0.5911633
v 3.742259 5.651457 -0.4265566
v 7.907007 5.651457 -4.918787
v -5.903484 5.651457 3.275704
v 7.907007 5.651457 -4.918787
v -5.691993 5.651457 2.934213
v -6.366992 5.651457 2.516213
v -5.691993 5.651457 2.934213
v 7.907007 5.651457 -4.918787
v -5.903484 5.651457 3.275704
v 2.850488 5.651457 0.4028082
v 3.484195 5.651457 -0.5911633
v -6.192223 5.651457 3.741924
v -5.840827 5.651457 6.206351
v -5.543993 5.651457 6.390213
v -6.192223 5.651457 3.741924
v -5.543993 5.651457 6.390213
v -4.445886 5.651457 7.069217
v -6.192223 5.651457 3.741924
v -3.436993 5.651457 7.317214
v -5.903484 5.651457 3.275704
v -6.192223 5.651457 3.741924
v -4.445886 5.651457 7.069217
v -3.436993 5.651457 7.317214
v -4.445886 5.651457 7.069217
v -4.400581 5.651457 7.097231
v -3.436993 5.651457 7.317214
v -4.618993 5.651457 7.453214
v -3.436993 5.651457 7.317214
v -4.400581 5.651457 7.097231
v -6.911993 5.651457 3.396214
v -6.337939 5.651457 5.898436
v -5.977789 5.651457 6.121516
v -7.082993 5.651457 4.799213
v -6.337939 5.651457 5.898436
v -6.911993 5.651457 3.396214
v -7.586993 5.651457 4.487214
v -7.082993 5.651457 4.799213
v -6.911993 5.651457 3.396214
v -6.911993 5.651457 3.396214
v -5.977789 5.651457 6.121516
v -6.236993 5.651457 3.814214
v -6.236993 5.651457 3.814214
v -5.840827 5.651457 6.206351
v -6.192223 5.651457 3.741924
v -6.236993 5.651457 3.814214
v -5.977789 5.651457 6.121516
v -5.840827 5.651457 6.206351
v -7.082993 5.651457 4.799213
v -6.727349 5.651457 5.657231
v -6.337939 5.651457 5.898436
v -7.082993 5.651457 4.799213
v -6.948993 5.651457 6.011213
v -6.727349 5.651457 5.657231
v -6.911993 6.662457 3.396214
v -6.236993 6.662457 3.814214
v -5.691993 6.662457 2.934213
v -6.366992 6.662457 2.516213
v -5.763993 6.371457 6.745214
v -4.618993 5.651457 7.453214
v -5.543993 6.371457 6.390213
v -5.543993 6.371457 6.390213
v -4.618993 5.651457 7.453214
v -4.400581 5.651457 7.097231
v -6.948993 5.651457 6.011213
v -5.763993 6.371457 6.745214
v -5.543993 6.371457 6.390213
v -6.948993 5.651457 6.011213
v -5.543993 6.371457 6.390213
v -6.727349 5.651457 5.657231
v 3.576007 6.141457 0.2042135
v 3.704745 5.651457 0.9476962
v 4.338451 5.651457 -0.0462753
v 3.484195 5.651457 -0.5911633
v 3.576007 6.141457 0.2042135
v 3.742259 5.651457 -0.4265566
v 3.576007 6.141457 0.2042135
v 4.338451 5.651457 -0.0462753
v 3.742259 5.651457 -0.4265566
v 2.850488 5.651457 0.4028082
v 2.927697 5.651457 0.4520561
v 3.576007 6.141457 0.2042135
v 2.927697 5.651457 0.4520561
v 3.704745 5.651457 0.9476962
v 3.576007 6.141457 0.2042135
v 2.850488 5.651457 0.4028082
v 3.576007 6.141457 0.2042135
v 3.484195 5.651457 -0.5911633
v -6.948993 -5.662634 6.011213
v -5.763993 -5.662634 6.745214
v -5.763993 5.651457 6.745214
v -6.948993 5.651457 6.011213
v -5.763993 -5.662634 6.745214
v -4.618993 -5.662634 7.453214
v -4.618993 5.651457 7.453214
v -5.763993 5.651457 6.745214
v -5.763993 6.371457 6.745214
v -5.763993 5.651457 6.745214
v -4.618993 5.651457 7.453214
v -6.948993 5.651457 6.011213
v -5.763993 5.651457 6.745214
v -5.763993 6.371457 6.745214
v -4.027993 -5.662634 7.385213
v -3.436993 -5.662634 7.317214
v -3.436993 5.651457 7.317214
v -4.618993 5.651457 7.453214
v -4.618993 -5.662634 7.453214
v -4.027993 -5.662634 7.385213
v -4.618993 5.651457 7.453214
v -4.027993 -5.662634 7.385213
v -3.436993 5.651457 7.317214
v -3.436993 -5.662634 7.317214
v -0.7119927 -5.662634 9.004213
v -0.7119927 5.651457 9.004213
v -3.436993 5.651457 7.317214
v -0.7119927 -5.662634 9.004213
v 7.907007 -5.662634 -4.918787
v 7.907007 5.651457 -4.918787
v -0.7119927 5.651457 9.004213
v 0.9150073 5.651457 -9.247787
v 7.907007 5.651457 -4.918787
v 7.907007 -5.662634 -4.918787
v 0.9150073 -5.662634 -9.247787
v -6.366992 5.651457 2.516213
v 0.9150073 5.651457 -9.247787
v 0.9150073 -5.662634 -9.247787
v -6.366992 -5.662634 2.516213
v -6.911993 5.651457 3.396214
v -6.366992 5.651457 2.516213
v -6.366992 -5.662634 2.516213
v -6.911993 -5.662634 3.396214
v -7.586993 5.651457 4.487214
v -6.911993 5.651457 3.396214
v -6.911993 -5.662634 3.396214
v -7.586993 -5.662634 4.487214
v -6.911993 6.662457 3.396214
v -6.366992 6.662457 2.516213
v -6.366992 5.651457 2.516213
v -6.911993 5.651457 3.396214
v -7.586993 -5.662634 4.487214
v -7.082993 -5.662634 4.799213
v -7.082993 5.651457 4.799213
v -7.586993 5.651457 4.487214
v -7.082993 -5.662634 4.799213
v -6.948993 -5.662634 6.011213
v -6.948993 5.651457 6.011213
v -7.082993 5.651457 4.799213
v -6.911993 5.651457 3.396214
v -6.236993 5.651457 3.814214
v -6.236993 6.662457 3.814214
v -6.911993 6.662457 3.396214
v -5.903484 5.651457 3.275704
v -5.691993 5.651457 2.934213
v -5.691993 6.662457 2.934213
v -6.192223 5.651457 3.741924
v -5.903484 5.651457 3.275704
v -5.691993 6.662457 2.934213
v -6.236993 6.662457 3.814214
v -6.236993 6.662457 3.814214
v -6.236993 5.651457 3.814214
v -6.192223 5.651457 3.741924
v -6.366992 6.662457 2.516213
v -5.691993 6.662457 2.934213
v -5.691993 5.651457 2.934213
v -6.366992 5.651457 2.516213
v -5.543993 6.371457 6.390213
v -4.445886 5.651457 7.069217
v -5.543993 5.651457 6.390213
v -5.543993 6.371457 6.390213
v -4.400581 5.651457 7.097231
v -4.445886 5.651457 7.069217
v -6.337939 5.651457 5.898436
v -5.543993 6.371457 6.390213
v -5.977789 5.651457 6.121516
v -6.727349 5.651457 5.657231
v -5.543993 6.371457 6.390213
v -6.337939 5.651457 5.898436
v -5.840827 5.651457 6.206351
v -5.543993 6.371457 6.390213
v -5.543993 5.651457 6.390213
v -5.977789 5.651457 6.121516
v -5.543993 6.371457 6.390213
v -5.840827 5.651457 6.206351
v -6.948993 -5.662634 6.011213
v -7.082993 -5.662634 4.799213
v -7.586993 -5.662634 4.487214
v -6.911993 -5.662634 3.396214
v -6.366992 -5.662634 2.516213
v 0.9150073 -5.662634 -9.247787
v 7.907007 -5.662634 -4.918787
v -0.7119927 -5.662634 9.004213
v -3.436993 -5.662634 7.317214
v -4.027993 -5.662634 7.385213
v -4.618993 -5.662634 7.453214
v -5.763993 -5.662634 6.745214
vt 0.373557 0.141482
vt 0.645041 0.001996
vt 0.419446 0.120559
vt 0.002611 0.286145
vt 0.645041 0.001996
vt 0.373557 0.141482
vt 0.075265 0.382202
vt 0.002611 0.286145
vt 0.373557 0.141482
vt 0.435848 0.141588
vt 0.419446 0.120559
vt 0.645041 0.001996
vt 0.075265 0.382202
vt 0.373557 0.141482
vt 0.394934 0.168890
vt 0.288656 0.488535
vt 0.645041 0.001996
vt 0.831452 0.248486
vt 0.075265 0.382202
vt 0.394934 0.168890
vt 0.397058 0.171613
vt 0.254899 0.471714
vt 0.075265 0.382202
vt 0.397058 0.171613
vt 0.254899 0.471714
vt 0.442947 0.150691
vt 0.645041 0.001996
vt 0.442947 0.150691
vt 0.435848 0.141588
vt 0.645041 0.001996
vt 0.254899 0.471714
vt 0.645041 0.001996
vt 0.270655 0.464743
vt 0.288656 0.488535
vt 0.270655 0.464743
vt 0.645041 0.001996
vt 0.254899 0.471714
vt 0.397058 0.171613
vt 0.442947 0.150691
vt 0.233388 0.481232
vt 0.122267 0.466549
vt 0.114348 0.456086
vt 0.233388 0.481232
vt 0.114348 0.456086
vt 0.085109 0.417380
vt 0.233388 0.481232
vt 0.075265 0.382202
vt 0.254899 0.471714
vt 0.233388 0.481232
vt 0.085109 0.417380
vt 0.075265 0.382202
vt 0.085109 0.417380
vt 0.083902 0.415783
vt 0.075265 0.382202
vt 0.067480 0.422979
vt 0.075265 0.382202
vt 0.083902 0.415783
vt 0.248054 0.506501
vt 0.135527 0.484071
vt 0.125920 0.471377
vt 0.184282 0.510985
vt 0.135527 0.484071
vt 0.248054 0.506501
vt 0.197718 0.528750
vt 0.184282 0.510985
vt 0.248054 0.506501
vt 0.248054 0.506501
vt 0.125920 0.471377
vt 0.230053 0.482708
vt 0.230053 0.482708
vt 0.122267 0.466549
vt 0.233388 0.481232
vt 0.230053 0.482708
vt 0.125920 0.471377
vt 0.122267 0.466549
vt 0.184282 0.510985
vt 0.145915 0.497797
vt 0.135527 0.484071
vt 0.184282 0.510985
vt 0.129579 0.505108
vt 0.145915 0.497797
vt 0.361942 0.932277
vt 0.344648 0.909451
vt 0.383656 0.892216
vt 0.400950 0.915042
vt 0.179917 0.942867
vt 0.146214 0.899110
vt 0.195455 0.935913
vt 0.195455 0.935913
vt 0.146214 0.899110
vt 0.161778 0.892216
vt 0.226101 0.941150
vt 0.201044 0.899222
vt 0.216523 0.892216
vt 0.226101 0.941150
vt 0.216523 0.892216
vt 0.241523 0.934094
vt 0.659025 0.919642
vt 0.624021 0.911645
vt 0.667259 0.892216
vt 0.436963 0.920382
vt 0.407311 0.919764
vt 0.430437 0.911873
vt 0.407311 0.919764
vt 0.415359 0.892216
vt 0.430437 0.911873
vt 0.465867 0.920571
vt 0.463879 0.918008
vt 0.478632 0.895873
vt 0.463879 0.918008
vt 0.443864 0.892216
vt 0.478632 0.895873
vt 0.702350 0.916678
vt 0.715266 0.892216
vt 0.745826 0.897177
vt 0.062902 0.998078
vt 0.032212 0.957485
vt 0.109518 0.931991
vt 0.140640 0.973156
vt 0.032212 0.957485
vt 0.002611 0.918264
vt 0.079500 0.892216
vt 0.109518 0.931991
vt 0.114511 0.930344
vt 0.109518 0.931991
vt 0.079500 0.892216
vt 0.140640 0.973156
vt 0.109518 0.931991
vt 0.114511 0.930344
vt 0.883630 0.552641
vt 0.887365 0.532934
vt 0.963920 0.610996
vt 0.956346 0.650961
vt 0.879896 0.572347
vt 0.883630 0.552641
vt 0.956346 0.650961
vt 0.883630 0.552641
vt 0.963920 0.610996
vt 0.796479 0.654463
vt 0.725849 0.560918
vt 0.801949 0.532934
vt 0.873575 0.627800
vt 0.002611 0.810170
vt 0.632365 0.532934
vt 0.718796 0.606652
vt 0.080205 0.887773
vt 0.804178 0.892216
vt 0.804178 0.892216
vt 0.804178 0.892216
vt 0.804178 0.892216
vt 0.817232 0.892216
vt 0.817232 0.892216
vt 0.817232 0.892216
vt 0.817232 0.892216
vt 0.817232 0.892216
vt 0.817232 0.892216
vt 0.817232 0.892216
vt 0.817232 0.892216
vt 0.817232 0.892216
vt 0.817232 0.892216
vt 0.817232 0.892216
vt 0.817232 0.892216
vt 0.817232 0.892216
vt 0.817232 0.892216
vt 0.817232 0.892216
vt 0.817232 0.892216
vt 0.260963 0.933151
vt 0.248042 0.916367
vt 0.325789 0.892216
vt 0.338892 0.909237
vt 0.538710 0.921466
vt 0.485640 0.916012
vt 0.563321 0.892216
vt 0.617141 0.897747
vt 0.689881 0.916557
vt 0.673629 0.894381
vt 0.680212 0.892216
vt 0.696484 0.914420
vt 0.775441 0.898618
vt 0.790333 0.892216
vt 0.797344 0.898957
vt 0.755111 0.907360
vt 0.775441 0.898618
vt 0.797344 0.898957
vt 0.758921 0.915477
vt 0.758921 0.915477
vt 0.751958 0.908715
vt 0.755111 0.907360
vt 0.830287 0.892216
vt 0.830287 0.892216
vt 0.830287 0.892216
vt 0.830287 0.892216
vt 0.843342 0.892216
vt 0.843342 0.892216
vt 0.843342 0.892216
vt 0.843342 0.892216
vt 0.843342 0.892216
vt 0.843342 0.892216
vt 0.843342 0.892216
vt 0.843342 0.892216
vt 0.843342 0.892216
vt 0.843342 0.892216
vt 0.843342 0.892216
vt 0.843342 0.892216
vt 0.843342 0.892216
vt 0.843342 0.892216
vt 0.843342 0.892216
vt 0.843342 0.892216
vt 0.843342 0.892216
vt 0.843342 0.892216
vt 0.856397 0.892216
vt 0.856397 0.892216
vt 0.856397 0.892216
vt 0.856397 0.892216
vt 0.856397 0.892216
vt 0.856397 0.892216
vt 0.856397 0.892216
vt 0.856397 0.892216
vt 0.856397 0.892216
vt 0.856397 0.892216
vt 0.856397 0.892216
vt 0.856397 0.892216
vn 0 1 0
vn 0 1 0
vn 0 1 0
vn 0 1 0
vn 0 1 0
vn 0 1 0
vn 0 1 0
vn 0 1 0
vn 0 1 0
vn 0 1 0
vn 0 1 0
vn 0 1 0
vn 0 1 0
vn 0 1 0
vn 0 1 0
vn 0 1 0
vn 0 1 0
vn 0 1 0
vn 0 1 0
vn 0 1 0
vn 0 1 0
vn 0 1 0
vn 0 1 0
vn 0 1 0
vn 0 1 0
vn 0 1 0
vn 0 1 0
vn 0 1 0
vn 0 1 0
vn 0 1 0
vn 0 1 0
vn 0 1 0
vn 0 1 0
vn 0 1 0
vn 0 1 0
vn 0 1 0
vn 0 1 0
vn 0 1 0
vn 0 1 0
vn 0 1 0
vn 0 1 0
vn 0 1 0
vn 0 1 0
vn 0 1 0
vn 0 1 0
vn 0 1 0
vn 0 1 0
vn 0 1 0
vn 0 1 0
vn 0 1 0
vn 0 1 0
vn 0 1 0
vn 0 1 0
vn 0 1 0
vn 0 1 0
vn 0 1 0
vn 0 1 0
vn 0 1 0
vn 0 1 0
vn 0 1 0
vn 0 1 0
vn 0 1 0
vn 0 1 0
vn 0 1 0
vn 0 1 0
vn 0 1 0
vn 0 1 0
vn 0 1 0
vn 0 1 0
vn 0 1 0
vn 0 1 0
vn 0 1 0
vn 0 1 0
vn 0 1 0
vn 0 1 0
vn 0 1 0
vn 0 1 0
vn 0 1 0
vn 0 1 0
vn 0 1 0
vn 0 1 0
vn 0 1 0
vn 0 1 0
vn 0 1 0
vn 0 1 0
vn 0.4008801 0.8818029 0.2484327
vn 0.4008801 0.8818029 0.2484327
vn 0.4008801 0.8818029 0.2484327
vn 0.4024224 0.8815293 0.2469054
vn 0.4024224 0.8815293 0.2469054
vn 0.4024224 0.8815293 0.2469054
vn -0.390092 0.8884743 -0.2417472
vn -0.390092 0.8884743 -0.2417472
vn -0.390092 0.8884743 -0.2417472
vn -0.3893987 0.8882121 -0.2438195
vn -0.3893987 0.8882121 -0.2438195
vn -0.3893987 0.8882121 -0.2438195
vn 0.5852463 0.7199064 0.3731239
vn 0.5852463 0.7199064 0.3731239
vn 0.5852463 0.7199064 0.3731239
vn 0.3330472 0.785143 -0.52214
vn 0.3330472 0.785143 -0.52214
vn 0.3330472 0.785143 -0.52214
vn 0.3330472 0.785143 -0.5221399
vn 0.3330472 0.785143 -0.5221399
vn 0.3330472 0.785143 -0.5221399
vn -0.3549852 0.7511698 0.5565335
vn -0.3549852 0.7511698 0.5565335
vn -0.3549852 0.7511698 0.5565335
vn -0.3549851 0.7511698 0.5565335
vn -0.3549851 0.7511698 0.5565335
vn -0.3549851 0.7511698 0.5565335
vn -0.5871819 0.7176863 -0.3743579
vn -0.5871819 0.7176863 -0.3743579
vn -0.5871819 0.7176863 -0.3743579
vn -0.5265769 0 0.8501275
vn -0.5265769 0 0.8501275
vn -0.5265769 0 0.8501275
vn -0.5265769 0 0.8501275
vn -0.5259198 0 0.8505341
vn -0.5259198 0 0.8505341
vn -0.5259198 0 0.8505341
vn -0.5259198 0 0.8505341
vn -0.5259198 0 0.8505341
vn -0.5259198 0 0.8505341
vn -0.5259198 0 0.8505341
vn -0.5265769 0 0.8501275
vn -0.5265769 0 0.8501275
vn -0.5265769 0 0.8501275
vn 0.1143051 0 0.9934457
vn 0.1143051 0 0.9934457
vn 0.1143051 0 0.9934457
vn 0.1143051 0 0.9934457
vn 0.1143051 0 0.9934457
vn 0.1143051 0 0.9934457
vn 0.1143051 -2.940323E-13 0.9934457
vn 0.1143051 -2.940323E-13 0.9934457
vn 0.1143051 -2.940323E-13 0.9934457
vn -0.5263761 0 0.8502519
vn -0.5263761 0 0.8502519
vn -0.5263761 0 0.8502519
vn -0.5263761 0 0.8502519
vn 0.8502651 0 0.5263546
vn 0.8502651 0 0.5263546
vn 0.8502651 0 0.5263546
vn 0.8502651 0 0.5263546
vn 0.526409 0 -0.8502315
vn 0.526409 0 -0.8502315
vn 0.526409 0 -0.8502315
vn 0.526409 0 -0.8502315
vn -0.8502805 0 -0.5263298
vn -0.8502805 0 -0.5263298
vn -0.8502805 0 -0.5263298
vn -0.8502805 0 -0.5263298
vn -0.8501622 0 -0.5265209
vn -0.8501622 0 -0.5265209
vn -0.8501622 0 -0.5265209
vn -0.8501622 0 -0.5265209
vn -0.850398 0 -0.5261399
vn -0.850398 0 -0.5261399
vn -0.850398 0 -0.5261399
vn -0.850398 0 -0.5261399
vn -0.8501622 0 -0.5265209
vn -0.8501622 0 -0.5265209
vn -0.8501622 0 -0.5265209
vn -0.8501622 0 -0.5265209
vn -0.5263546 0 0.8502651
vn -0.5263546 0 0.8502651
vn -0.5263546 0 0.8502651
vn -0.5263546 0 0.8502651
vn -0.9939436 0 0.1098915
vn -0.9939436 0 0.1098915
vn -0.9939436 0 0.1098915
vn -0.9939436 0 0.1098915
vn -0.5264847 0 0.8501846
vn -0.5264847 0 0.8501846
vn -0.5264847 0 0.8501846
vn -0.5264847 0 0.8501846
vn 0.8501622 0 0.5265209
vn 0.8501622 0 0.5265209
vn 0.8501622 0 0.5265209
vn 0.8501622 -9.197327E-10 0.5265209
vn 0.8501622 -6.069746E-10 0.5265209
vn 0.8501622 -2.942166E-10 0.5265209
vn 0.8501622 -6.069746E-10 0.5265209
vn 0.8501622 0 0.5265209
vn 0.8501622 0 0.5265209
vn 0.8501622 0 0.5265209
vn 0.5264847 0 -0.8501846
vn 0.5264847 0 -0.8501846
vn 0.5264847 0 -0.8501846
vn 0.5264847 0 -0.8501846
vn 0.5259198 0 -0.8505341
vn 0.5259198 0 -0.8505341
vn 0.5259198 0 -0.8505341
vn 0.5259197 -1.772103E-07 -0.8505342
vn 0.5259197 -1.772103E-07 -0.8505342
vn 0.5259197 -1.772103E-07 -0.8505342
vn 0.5265769 1.752768E-09 -0.8501275
vn 0.5265769 1.752768E-09 -0.8501275
vn 0.5265769 1.752768E-09 -0.8501275
vn 0.5265769 6.908747E-10 -0.8501275
vn 0.5265769 6.908747E-10 -0.8501275
vn 0.5265769 6.908747E-10 -0.8501275
vn 0.5265769 0 -0.8501275
vn 0.5265769 0 -0.8501275
vn 0.5265769 0 -0.8501275
vn 0.5265769 1.14663E-08 -0.8501275
vn 0.5265769 1.14663E-08 -0.8501275
vn 0.5265769 1.14663E-08 -0.8501275
vn 0 -1 0
vn 0 -1 0
vn 0 -1 0
vn 0 -1 0
vn 0 -1 0
vn 0 -1 0
vn 0 -1 0
vn 0 -1 0
vn 0 -1 0
vn 0 -1 0
vn 0 -1 0
vn 0 -1 0

g CDNNDG02_0013830
f 1/1/1 2/2/2 3/3/3
f 4/4/4 5/5/5 6/6/6
f 7/7/7 8/8/8 9/9/9
f 10/10/10 11/11/11 12/12/12
f 13/13/13 14/14/14 15/15/15
f 16/16/16 17/17/17 18/18/18
f 19/19/19 20/20/20 21/21/21
f 22/22/22 23/23/23 24/24/24
f 25/25/25 26/26/26 27/27/27
f 28/28/28 29/29/29 30/30/30
f 31/31/31 32/32/32 33/33/33
f 34/34/34 35/35/35 36/36/36
f 37/37/37 38/38/38 39/39/39
f 40/40/40 41/41/41 42/42/42
f 43/43/43 44/44/44 45/45/45
f 46/46/46 47/47/47 48/48/48
f 49/49/49 50/50/50 51/51/51
f 52/52/52 53/53/53 54/54/54
f 55/55/55 56/56/56 57/57/57
f 58/58/58 59/59/59 60/60/60
f 61/61/61 62/62/62 63/63/63
f 64/64/64 65/65/65 66/66/66
f 67/67/67 68/68/68 69/69/69
f 70/70/70 71/71/71 72/72/72
f 73/73/73 74/74/74 75/75/75
f 76/76/76 77/77/77 78/78/78
f 79/79/79 80/80/80 81/81/81
f 82/82/82 83/83/83 85/85/85
f 84/84/84 85/85/85 83/83/83
f 86/86/86 87/87/87 88/88/88
f 89/89/89 90/90/90 91/91/91
f 92/92/92 93/93/93 94/94/94
f 95/95/95 96/96/96 97/97/97
f 98/98/98 99/99/99 100/100/100
f 101/101/101 102/102/102 103/103/103
f 104/104/104 105/105/105 106/106/106
f 107/107/107 108/108/108 109/109/109
f 110/110/110 111/111/111 112/112/112
f 113/113/113 114/114/114 115/115/115
f 116/116/116 118/118/118 119/119/119
f 118/118/118 116/116/116 117/117/117
f 121/121/121 122/122/122 123/123/123
f 123/123/123 120/120/120 121/121/121
f 124/124/124 125/125/125 126/126/126
f 127/127/127 128/128/128 129/129/129
f 130/130/130 131/131/131 132/132/132
f 133/133/133 134/134/134 135/135/135
f 136/136/136 137/137/137 138/138/138
f 139/139/139 141/141/141 142/142/142
f 141/141/141 139/139/139 140/140/140
f 146/146/146 143/143/143 145/145/145
f 144/144/144 145/145/145 143/143/143
f 150/150/150 147/147/147 149/149/149
f 148/148/148 149/149/149 147/147/147
f 151/151/151 153/153/153 154/154/154
f 151/151/151 152/152/152 153/153/153
f 155/155/155 157/157/157 158/158/158
f 155/155/155 156/156/156 157/157/157
f 159/159/159 161/161/161 162/162/162
f 159/159/159 160/160/160 161/161/161
f 164/164/164 165/165/165 166/166/166
f 163/163/163 164/164/164 166/166/166
f 168/168/168 169/169/169 170/170/170
f 170/170/170 167/167/167 168/168/168
f 173/173/173 174/174/174 172/172/172
f 171/171/171 172/172/172 174/174/174
f 175/175/175 177/177/177 178/178/178
f 177/177/177 175/175/175 176/176/176
f 179/179/179 180/180/180 181/181/181
f 182/182/182 183/183/183 185/185/185
f 185/185/185 183/183/183 184/184/184
f 186/186/186 187/187/187 188/188/188
f 192/192/192 189/189/189 191/191/191
f 190/190/190 191/191/191 189/189/189
f 193/193/193 194/194/194 195/195/195
f 196/196/196 197/197/197 198/198/198
f 199/199/199 200/200/200 201/201/201
f 202/202/202 203/203/203 204/204/204
f 205/205/205 206/206/206 207/207/207
f 208/208/208 209/209/209 210/210/210
f 220/220/220 221/221/221 222/222/222
f 215/215/215 219/219/219 222/222/222
f 211/211/211 212/212/212 222/222/222
f 222/222/222 219/219/219 220/220/220
f 212/212/212 213/213/213 214/214/214
f 217/217/217 218/218/218 219/219/219
f 212/212/212 214/214/214 222/222/222
f 214/214/214 215/215/215 222/222/222
f 215/215/215 217/217/217 219/219/219
f 215/215/215 216/216/216 217/217/217
