v -14.22001 5.231316 -13.06444
v -7.923013 5.231316 -2.355439
v 4.503986 5.231316 18.77756
v 14.21999 5.231316 13.06456
v 1.792987 5.231316 -8.06944
v -4.504014 5.231316 -18.77744
v -7.923013 -5.231316 -2.355439
v 4.503986 -5.231316 18.77756
v 4.503986 5.231316 18.77756
v -7.923013 5.231316 -2.355439
v -14.22001 -5.231316 -13.06444
v -7.923013 -5.231316 -2.355439
v -7.923013 5.231316 -2.355439
v -14.22001 5.231316 -13.06444
v 4.503986 -5.231316 18.77756
v 14.21999 -5.231316 13.06456
v 14.21999 5.231316 13.06456
v 4.503986 5.231316 18.77756
v 1.792987 5.231316 -8.06944
v 14.21999 5.231316 13.06456
v 14.21999 -5.231316 13.06456
v 1.792987 -5.231316 -8.06944
v -4.504014 5.231316 -18.77744
v 1.792987 5.231316 -8.06944
v 1.792987 -5.231316 -8.06944
v -4.504014 -5.231316 -18.77744
v -14.22001 5.231316 -13.06444
v -4.504014 5.231316 -18.77744
v -4.504014 -5.231316 -18.77744
v -14.22001 -5.231316 -13.06444
v -4.504014 -5.231316 -18.77744
v 1.792987 -5.231316 -8.06944
v 14.21999 -5.231316 13.06456
v 4.503986 -5.231316 18.77756
v -7.923013 -5.231316 -2.355439
v -14.22001 -5.231316 -13.06444
vt 0.109337 0.000682
vt 0.306514 0.075663
vt 0.695576 0.223620
vt 0.587299 0.336412
vt 0.198233 0.188472
vt 0.001082 0.113500
vt 0.399758 0.522210
vt 0.001082 0.375868
vt 0.081773 0.338336
vt 0.485722 0.486616
vt 0.601770 0.596359
vt 0.399758 0.522210
vt 0.485722 0.486616
vt 0.690404 0.561747
vt 0.001082 0.968278
vt 0.106269 0.855389
vt 0.182573 0.885056
vt 0.076014 0.999410
vt 0.258703 0.674609
vt 0.645819 0.825335
vt 0.576943 0.854023
vt 0.194747 0.705216
vt 0.062545 0.598226
vt 0.258703 0.674609
vt 0.194747 0.705216
vt 0.001082 0.629806
vt 0.816140 0.630756
vt 0.708481 0.742931
vt 0.648268 0.708980
vt 0.754558 0.598226
vt 0.185065 0.855389
vt 0.185065 0.855389
vt 0.185065 0.855389
vt 0.185065 0.855389
vt 0.185065 0.855389
vt 0.185065 0.855389
vn 0 1 0
vn 0 1 0
vn 0 1 0
vn 0 1 0
vn 0 1 0
vn 0 1 0
vn -0.8620086 0 0.5068936
vn -0.8620086 0 0.5068936
vn -0.8620086 0 0.5068936
vn -0.8620086 0 0.5068936
vn -0.8620191 0 0.5068759
vn -0.8620191 0 0.5068759
vn -0.8620191 0 0.5068759
vn -0.8620191 0 0.5068759
vn 0.5068689 0 0.8620232
vn 0.5068689 0 0.8620232
vn 0.5068689 0 0.8620232
vn 0.5068689 0 0.8620232
vn 0.8620191 0 -0.5068758
vn 0.8620191 0 -0.5068758
vn 0.8620191 0 -0.5068758
vn 0.8620191 0 -0.5068758
vn 0.8619984 0 -0.506911
vn 0.8619984 0 -0.506911
vn 0.8619984 0 -0.506911
vn 0.8619984 0 -0.506911
vn -0.5068689 0 -0.8620232
vn -0.5068689 0 -0.8620232
vn -0.5068689 0 -0.8620232
vn -0.5068689 0 -0.8620232
vn 0 -1 0
vn 0 -1 0
vn 0 -1 0
vn 0 -1 0
vn 0 -1 0
vn 0 -1 0

g CDNNDG02_0015070
f 2/2/2 4/4/4 5/5/5
f 2/2/2 3/3/3 4/4/4
f 1/1/1 2/2/2 5/5/5
f 6/6/6 1/1/1 5/5/5
f 7/7/7 9/9/9 10/10/10
f 7/7/7 8/8/8 9/9/9
f 14/14/14 11/11/11 13/13/13
f 12/12/12 13/13/13 11/11/11
f 18/18/18 15/15/15 17/17/17
f 17/17/17 15/15/15 16/16/16
f 22/22/22 19/19/19 21/21/21
f 21/21/21 19/19/19 20/20/20
f 26/26/26 23/23/23 25/25/25
f 25/25/25 23/23/23 24/24/24
f 27/27/27 29/29/29 30/30/30
f 27/27/27 28/28/28 29/29/29
f 32/32/32 35/35/35 36/36/36
f 33/33/33 34/34/34 35/35/35
f 32/32/32 33/33/33 35/35/35
f 31/31/31 32/32/32 36/36/36
