v 1.349217 5.411782 1.7112
v 2.433218 5.412096 3.0862
v 1.954217 5.411746 0.7412003
v 0.6332174 5.410496 -8.0798
v 1.954217 5.411746 0.7412003
v 2.433218 5.412096 3.0862
v -4.200783 5.411249 3.5152
v 2.433218 5.412096 3.0862
v 1.349217 5.411782 1.7112
v 0.1912175 5.411537 0.9892004
v 0.7962174 5.411501 0.01920033
v 0.6332174 5.410496 -8.0798
v 0.6332174 5.410496 -8.0798
v 0.7962174 5.411501 0.01920033
v 1.954217 5.411746 0.7412003
v -4.200783 5.411249 3.5152
v 1.349217 5.411782 1.7112
v 0.1912175 5.411537 0.9892004
v -4.200783 5.411249 3.5152
v 0.1912175 5.411537 0.9892004
v 0.6332174 5.410496 -8.0798
v -4.200783 5.411249 3.5152
v -0.7417825 5.411793 5.7362
v 2.148217 5.412096 3.5302
v -0.7417825 5.411793 5.7362
v 0.3272175 5.412096 6.365201
v 2.148217 5.412096 3.5302
v -6.026783 5.410496 2.2892
v -4.200783 5.411249 3.5152
v 0.6332174 5.410496 -8.0798
v 0.6332174 5.410496 -8.0798
v 2.433218 5.412096 3.0862
v 6.985218 5.411096 -3.9998
v -6.050783 5.410957 2.3272
v -4.200783 5.411249 3.5152
v -6.026783 5.410496 2.2892
v -0.7417825 5.411793 5.7362
v 0.3002175 5.411957 6.4062
v 0.3272175 5.412096 6.365201
v -4.200783 5.411249 3.5152
v 2.148217 5.412096 3.5302
v 2.433218 5.412096 3.0862
v -4.226158 4.994846 5.455575
v -3.361532 4.994596 6.010951
v -2.916408 5.117096 5.318326
v -3.781095 5.117346 4.763013
v -3.361532 4.994596 6.010951
v -2.496907 4.994346 6.566325
v -2.05172 5.116846 5.873638
v -2.916408 5.117096 5.318326
v -4.67122 4.872346 6.148138
v -3.806658 4.872096 6.703575
v -3.361532 4.994596 6.010951
v -4.226158 4.994846 5.455575
v -3.806658 4.872096 6.703575
v -2.942095 4.871846 7.259013
v -2.496907 4.994346 6.566325
v -3.361532 4.994596 6.010951
v -4.226158 4.994846 5.455575
v -3.781095 5.117346 4.763013
v -4.200783 5.240096 3.5152
v -5.980783 4.750096 6.2852
v -4.226158 4.994846 5.455575
v -4.200783 5.240096 3.5152
v -4.200783 5.240096 3.5152
v -3.781095 5.117346 4.763013
v -2.916408 5.117096 5.318326
v -2.916408 5.117096 5.318326
v -2.05172 5.116846 5.873638
v -0.7417825 5.239096 5.7362
v -4.200783 5.240096 3.5152
v -2.916408 5.117096 5.318326
v -0.7417825 5.239096 5.7362
v -2.496907 4.994346 6.566325
v -0.7417825 5.239096 5.7362
v -2.05172 5.116846 5.873638
v -5.980783 4.750096 6.2852
v -3.806658 4.872096 6.703575
v -4.67122 4.872346 6.148138
v -5.980783 4.750096 6.2852
v -4.67122 4.872346 6.148138
v -4.226158 4.994846 5.455575
v -5.980783 4.750096 6.2852
v -2.522783 4.749096 8.5072
v -3.806658 4.872096 6.703575
v -2.942095 4.871846 7.259013
v -2.522783 4.749096 8.5072
v -2.496907 4.994346 6.566325
v -3.806658 4.872096 6.703575
v -2.522783 4.749096 8.5072
v -2.942095 4.871846 7.259013
v -2.522783 4.749096 8.5072
v -0.7417825 5.239096 5.7362
v -2.496907 4.994346 6.566325
v 0.8822175 5.884096 0.7172003
v 1.349217 5.557096 1.7112
v 1.315217 5.884096 0.9992003
v 0.1912175 5.557096 0.9892004
v 1.349217 5.557096 1.7112
v 0.8822175 5.884096 0.7172003
v 1.315217 5.884096 0.9992003
v 1.349217 5.557096 1.7112
v 1.954217 5.557096 0.7412003
v 0.1912175 5.557096 0.9892004
v 0.8822175 5.884096 0.7172003
v 0.7962174 5.557096 0.01920033
v 0.7962174 5.557096 0.01920033
v 0.8822175 5.884096 0.7172003
v 1.954217 5.557096 0.7412003
v 0.8822175 5.884096 0.7172003
v 1.315217 5.884096 0.9992003
v 1.954217 5.557096 0.7412003
v -0.7417825 -5.364676 5.7362
v 0.3002175 -5.364676 6.4062
v 0.3002175 5.411957 6.4062
v -0.7417825 5.239096 5.7362
v -0.7417825 5.411793 5.7362
v -0.7417825 5.239096 5.7362
v 0.3002175 5.411957 6.4062
v -6.050783 5.410957 2.3272
v -4.200783 5.240096 3.5152
v -4.200783 5.411249 3.5152
v -6.050783 -5.364676 2.3272
v -4.200783 -5.364676 3.5152
v -4.200783 5.240096 3.5152
v -6.050783 5.410957 2.3272
v -4.200783 5.240096 3.5152
v -0.7417825 5.239096 5.7362
v -0.7417825 5.411793 5.7362
v -4.200783 5.411249 3.5152
v 0.3002175 -5.364676 6.4062
v 0.3272175 -5.364676 6.365201
v 0.3272175 5.412096 6.365201
v 0.3002175 5.411957 6.4062
v 0.3272175 -5.364676 6.365201
v 2.148217 -5.364676 3.5302
v 2.148217 5.412096 3.5302
v 0.3272175 5.412096 6.365201
v 2.148217 -5.364676 3.5302
v 2.433218 -5.364676 3.0862
v 2.433218 5.412096 3.0862
v 2.148217 5.412096 3.5302
v 4.709218 -5.364676 -0.4567997
v 6.985218 -5.364676 -3.9998
v 6.985218 5.411096 -3.9998
v 2.433218 5.412096 3.0862
v 2.433218 -5.364676 3.0862
v 4.709218 -5.364676 -0.4567997
v 2.433218 5.412096 3.0862
v 4.709218 -5.364676 -0.4567997
v 6.985218 5.411096 -3.9998
v 0.6332174 5.410496 -8.0798
v 3.809217 -5.364676 -6.0398
v 0.6332174 -5.364676 -8.0798
v 3.809217 -5.364676 -6.0398
v 6.985218 5.411096 -3.9998
v 6.985218 -5.364676 -3.9998
v 0.6332174 5.410496 -8.0798
v 6.985218 5.411096 -3.9998
v 3.809217 -5.364676 -6.0398
v -6.026783 5.410496 2.2892
v -2.696783 -5.364676 -2.8953
v -6.026783 -5.364676 2.2892
v -2.696783 -5.364676 -2.8953
v 0.6332174 5.410496 -8.0798
v 0.6332174 -5.364676 -8.0798
v -6.026783 5.410496 2.2892
v 0.6332174 5.410496 -8.0798
v -2.696783 -5.364676 -2.8953
v -6.050783 5.410957 2.3272
v -6.038783 -5.364676 2.3082
v -6.050783 -5.364676 2.3272
v -6.038783 -5.364676 2.3082
v -6.026783 5.410496 2.2892
v -6.026783 -5.364676 2.2892
v -6.050783 5.410957 2.3272
v -6.026783 5.410496 2.2892
v -6.038783 -5.364676 2.3082
v -5.980783 -5.364676 6.2852
v -2.522783 -5.364676 8.5072
v -2.522783 4.749096 8.5072
v -5.980783 4.750096 6.2852
v -1.632282 -5.364676 7.1217
v -0.7417825 -5.364676 5.7362
v -0.7417825 5.239096 5.7362
v -2.522783 4.749096 8.5072
v -2.522783 -5.364676 8.5072
v -1.632282 -5.364676 7.1217
v -2.522783 4.749096 8.5072
v -1.632282 -5.364676 7.1217
v -0.7417825 5.239096 5.7362
v -5.980783 4.750096 6.2852
v -5.090783 -5.364676 4.9002
v -5.980783 -5.364676 6.2852
v -5.090783 -5.364676 4.9002
v -4.200783 5.240096 3.5152
v -4.200783 -5.364676 3.5152
v -5.980783 4.750096 6.2852
v -4.200783 5.240096 3.5152
v -5.090783 -5.364676 4.9002
v 0.1912175 5.411537 0.9892004
v 1.349217 5.411782 1.7112
v 1.349217 5.557096 1.7112
v 0.1912175 5.557096 0.9892004
v 1.349217 5.411782 1.7112
v 1.954217 5.411746 0.7412003
v 1.954217 5.557096 0.7412003
v 1.349217 5.557096 1.7112
v 0.1912175 5.557096 0.9892004
v 0.7962174 5.557096 0.01920033
v 0.7962174 5.411501 0.01920033
v 0.1912175 5.411537 0.9892004
v 0.7962174 5.557096 0.01920033
v 1.954217 5.557096 0.7412003
v 1.954217 5.411746 0.7412003
v 0.7962174 5.411501 0.01920033
v -5.090783 -5.364676 4.9002
v -4.200783 -5.364676 3.5152
v -6.050783 -5.364676 2.3272
v -6.038783 -5.364676 2.3082
v -6.026783 -5.364676 2.2892
v -2.696783 -5.364676 -2.8953
v 0.6332174 -5.364676 -8.0798
v 3.809217 -5.364676 -6.0398
v 6.985218 -5.364676 -3.9998
v 4.709218 -5.364676 -0.4567997
v 2.433218 -5.364676 3.0862
v 2.148217 -5.364676 3.5302
v 0.3272175 -5.364676 6.365201
v 0.3002175 -5.364676 6.4062
v -0.7417825 -5.364676 5.7362
v -1.632282 -5.364676 7.1217
v -2.522783 -5.364676 8.5072
v -5.980783 -5.364676 6.2852
vt 0.214541 0.185586
vt 0.152169 0.150624
vt 0.258254 0.165808
vt 0.657202 0.207321
vt 0.258254 0.165808
vt 0.152169 0.150624
vt 0.134181 0.365930
vt 0.152169 0.150624
vt 0.214541 0.185586
vt 0.247417 0.223048
vt 0.291129 0.203270
vt 0.657202 0.207321
vt 0.657202 0.207321
vt 0.291129 0.203270
vt 0.258254 0.165808
vt 0.134181 0.365930
vt 0.214541 0.185586
vt 0.247417 0.223048
vt 0.134181 0.365930
vt 0.247417 0.223048
vt 0.657202 0.207321
vt 0.134181 0.365930
vt 0.033072 0.254045
vt 0.132162 0.159939
vt 0.033072 0.254045
vt 0.004418 0.219457
vt 0.132162 0.159939
vt 0.189974 0.424986
vt 0.134181 0.365930
vt 0.657202 0.207321
vt 0.657202 0.207321
vt 0.152169 0.150624
vt 0.471474 0.001845
vt 0.188262 0.425769
vt 0.134181 0.365930
vt 0.189974 0.424986
vt 0.033072 0.254045
vt 0.002571 0.220339
vt 0.004418 0.219457
vt 0.134181 0.365930
vt 0.132162 0.159939
vt 0.152169 0.150624
vt 0.525316 0.816139
vt 0.500232 0.788365
vt 0.531193 0.773448
vt 0.556278 0.801228
vt 0.500232 0.788365
vt 0.475148 0.760592
vt 0.506109 0.745668
vt 0.531193 0.773448
vt 0.494363 0.831045
vt 0.469280 0.803278
vt 0.500232 0.788365
vt 0.525316 0.816139
vt 0.469280 0.803278
vt 0.444198 0.775511
vt 0.475148 0.760592
vt 0.500232 0.788365
vt 0.525316 0.816139
vt 0.556278 0.801228
vt 0.612336 0.814098
vt 0.488501 0.873707
vt 0.525316 0.816139
vt 0.612336 0.814098
vt 0.612336 0.814098
vt 0.556278 0.801228
vt 0.531193 0.773448
vt 0.531193 0.773448
vt 0.506109 0.745668
vt 0.511993 0.702952
vt 0.612336 0.814098
vt 0.531193 0.773448
vt 0.511993 0.702952
vt 0.475148 0.760592
vt 0.511993 0.702952
vt 0.506109 0.745668
vt 0.488501 0.873707
vt 0.469280 0.803278
vt 0.494363 0.831045
vt 0.488501 0.873707
vt 0.494363 0.831045
vt 0.525316 0.816139
vt 0.488501 0.873707
vt 0.388175 0.762665
vt 0.469280 0.803278
vt 0.444198 0.775511
vt 0.388175 0.762665
vt 0.475148 0.760592
vt 0.469280 0.803278
vt 0.388175 0.762665
vt 0.444198 0.775511
vt 0.388175 0.762665
vt 0.511993 0.702952
vt 0.475148 0.760592
vt 0.166168 0.976504
vt 0.123393 0.963413
vt 0.153990 0.963100
vt 0.154570 0.999251
vt 0.123393 0.963413
vt 0.166168 0.976504
vt 0.202777 0.983857
vt 0.172237 0.981387
vt 0.213654 0.963100
vt 0.221080 0.985147
vt 0.232678 0.963100
vt 0.262533 0.966807
vt 0.116567 0.998863
vt 0.086714 0.997892
vt 0.085427 0.963100
vt 0.086714 0.997892
vt 0.074550 0.984515
vt 0.085427 0.963100
vt 0.228495 0.778438
vt 0.198699 0.745291
vt 0.197943 0.702952
vt 0.228151 0.737232
vt 0.228145 0.736551
vt 0.228151 0.737232
vt 0.197943 0.702952
vt 0.381809 0.907735
vt 0.328244 0.848735
vt 0.328260 0.848085
vt 0.380093 0.947316
vt 0.327264 0.888469
vt 0.328244 0.848735
vt 0.381809 0.907735
vt 0.328244 0.848735
vt 0.228151 0.737232
vt 0.228145 0.736551
vt 0.328260 0.848085
vt 0.004249 0.644312
vt 0.006067 0.643446
vt 0.004413 0.697815
vt 0.002571 0.698692
vt 0.006067 0.643446
vt 0.131788 0.585040
vt 0.131845 0.638614
vt 0.004413 0.697815
vt 0.131788 0.585040
vt 0.151478 0.575898
vt 0.151803 0.629349
vt 0.131845 0.638614
vt 0.308601 0.502895
vt 0.465730 0.429889
vt 0.470334 0.481349
vt 0.151803 0.629349
vt 0.151478 0.575898
vt 0.308601 0.502895
vt 0.151803 0.629349
vt 0.308601 0.502895
vt 0.470334 0.481349
vt 0.190897 0.958857
vt 0.093218 0.803815
vt 0.183862 0.904674
vt 0.093218 0.803815
vt 0.007138 0.754394
vt 0.002571 0.702952
vt 0.190897 0.958857
vt 0.007138 0.754394
vt 0.093218 0.803815
vt 0.479018 0.646950
vt 0.707380 0.579486
vt 0.477265 0.686554
vt 0.707380 0.579486
vt 0.945529 0.429889
vt 0.937505 0.472413
vt 0.479018 0.646950
vt 0.945529 0.429889
vt 0.707380 0.579486
vt 0.477309 0.647731
vt 0.476422 0.686940
vt 0.475578 0.687326
vt 0.476422 0.686940
vt 0.479018 0.646950
vt 0.477265 0.686554
vt 0.477309 0.647731
vt 0.479018 0.646950
vt 0.476422 0.686940
vt 0.719084 0.850786
vt 0.621402 0.741314
vt 0.619537 0.702952
vt 0.718467 0.813820
vt 0.788196 0.731229
vt 0.848737 0.702952
vt 0.847506 0.756356
vt 0.724936 0.811131
vt 0.727655 0.759506
vt 0.788196 0.731229
vt 0.724936 0.811131
vt 0.788196 0.731229
vt 0.847506 0.756356
vt 0.856041 0.762065
vt 0.917207 0.770506
vt 0.856661 0.798782
vt 0.917207 0.770506
vt 0.978727 0.702952
vt 0.977753 0.742229
vt 0.856041 0.762065
vt 0.978727 0.702952
vt 0.917207 0.770506
vt 0.033036 0.999494
vt 0.002571 0.963661
vt 0.002597 0.963100
vt 0.033068 0.998938
vt 0.269923 0.981257
vt 0.311332 0.963100
vt 0.311355 0.963777
vt 0.269938 0.981937
vt 0.318799 0.981312
vt 0.360252 0.963100
vt 0.360212 0.963638
vt 0.318766 0.981847
vt 0.069018 0.999567
vt 0.038583 0.963803
vt 0.038560 0.963100
vt 0.068990 0.998856
vt 0.367609 0.963100
vt 0.367609 0.963100
vt 0.367609 0.963100
vt 0.367609 0.963100
vt 0.367609 0.963100
vt 0.367609 0.963100
vt 0.367609 0.963100
vt 0.367609 0.963100
vt 0.367609 0.963100
vt 0.367609 0.963100
vt 0.367609 0.963100
vt 0.367609 0.963100
vt 0.367609 0.963100
vt 0.367609 0.963100
vt 0.367609 0.963100
vt 0.367609 0.963100
vt 0.367609 0.963100
vt 0.367609 0.963100
vn -0.0001355564 1 -0.000121445
vn -0.0001355564 1 -0.000121445
vn -0.0001355564 1 -0.000121445
vn -0.0001355693 1 -0.0001214423
vn -0.0001355693 1 -0.0001214423
vn -0.0001355693 1 -0.0001214423
vn -0.0001355591 1 -0.0001214429
vn -0.0001355591 1 -0.0001214429
vn -0.0001355591 1 -0.0001214429
vn -0.0001355548 1 -0.0001214439
vn -0.0001355548 1 -0.0001214439
vn -0.0001355548 1 -0.0001214439
vn -0.0001355592 1 -0.0001214439
vn -0.0001355592 1 -0.0001214439
vn -0.0001355592 1 -0.0001214439
vn -0.0001355593 1 -0.0001214436
vn -0.0001355593 1 -0.0001214436
vn -0.0001355593 1 -0.0001214436
vn -0.0001355597 1 -0.0001214442
vn -0.0001355597 1 -0.0001214442
vn -0.0001355597 1 -0.0001214442
vn -0.0001333498 1 -3.74574E-05
vn -0.0001333498 1 -3.74574E-05
vn -0.0001333498 1 -3.74574E-05
vn -0.0002055295 0.9999999 -0.0001320174
vn -0.0002055295 0.9999999 -0.0001320174
vn -0.0002055295 0.9999999 -0.0001320174
vn -0.0002880665 0.9999999 -0.0001850249
vn -0.0002880665 0.9999999 -0.0001850249
vn -0.0002880665 0.9999999 -0.0001850249
vn -2.70443E-06 1 -0.0001428606
vn -2.70443E-06 1 -0.0001428606
vn -2.70443E-06 1 -0.0001428606
vn 0.005438075 0.9999472 -0.008713488
vn 0.005438075 0.9999472 -0.008713488
vn 0.005438075 0.9999472 -0.008713488
vn -0.001637802 0.999996 0.002302165
vn -0.001637802 0.999996 0.002302165
vn -0.001637802 0.999996 0.002302165
vn -0.0001332363 1 -8.552329E-05
vn -0.0001332363 1 -8.552329E-05
vn -0.0001332363 1 -8.552329E-05
vn -0.07934111 0.9891094 0.1239659
vn -0.07933182 0.9891105 0.1239629
vn -0.07932254 0.9891117 0.1239599
vn -0.07933182 0.9891105 0.1239629
vn -0.07933294 0.9891117 0.1239532
vn -0.07932366 0.9891128 0.1239502
vn -0.07931438 0.9891139 0.1239472
vn -0.07932366 0.9891128 0.1239502
vn -0.07935151 0.9891094 0.1239592
vn -0.07934222 0.9891105 0.1239562
vn -0.07933294 0.9891117 0.1239532
vn -0.07934222 0.9891105 0.1239562
vn -0.07934335 0.9891117 0.1239465
vn -0.07933407 0.9891128 0.1239435
vn -0.07932478 0.9891139 0.1239405
vn -0.07933407 0.9891128 0.1239435
vn -0.0793203 0.9891094 0.1239793
vn -0.0793203 0.9891094 0.1239793
vn -0.0793203 0.9891094 0.1239793
vn -0.07934926 0.9891072 0.1239786
vn -0.07934926 0.9891072 0.1239786
vn -0.07934926 0.9891072 0.1239786
vn -0.07933886 0.9891072 0.1239853
vn -0.07933886 0.9891072 0.1239853
vn -0.07933886 0.9891072 0.1239853
vn -0.07930623 0.9891161 0.1239345
vn -0.07930623 0.9891161 0.1239345
vn -0.07930623 0.9891161 0.1239345
vn -0.07931214 0.9891117 0.1239666
vn -0.07931214 0.9891117 0.1239666
vn -0.07931214 0.9891117 0.1239666
vn -0.07930399 0.9891139 0.1239539
vn -0.07930399 0.9891139 0.1239539
vn -0.07930399 0.9891139 0.1239539
vn -0.07935967 0.9891072 0.123972
vn -0.07935967 0.9891072 0.123972
vn -0.07935967 0.9891072 0.123972
vn -0.07936191 0.9891094 0.1239526
vn -0.07936191 0.9891094 0.1239526
vn -0.07936191 0.9891094 0.1239526
vn -0.07935374 0.9891117 0.1239399
vn -0.07935374 0.9891117 0.1239399
vn -0.07935374 0.9891117 0.1239399
vn -0.07934558 0.9891139 0.1239272
vn -0.07934558 0.9891139 0.1239272
vn -0.07934558 0.9891139 0.1239272
vn -0.07932702 0.9891161 0.1239211
vn -0.07932702 0.9891161 0.1239211
vn -0.07932702 0.9891161 0.1239211
vn -0.07931662 0.9891161 0.1239278
vn -0.07931662 0.9891161 0.1239278
vn -0.07931662 0.9891161 0.1239278
vn -0.2686983 0.8703921 0.4125758
vn -0.2686983 0.8703921 0.4125758
vn -0.2686983 0.8703921 0.4125758
vn -0.2543612 0.8768498 0.4079643
vn -0.2543612 0.8768498 0.4079643
vn -0.2543612 0.8768498 0.4079643
vn 0.5325077 0.77854 0.3321311
vn 0.5325077 0.77854 0.3321311
vn 0.5325077 0.77854 0.3321311
vn -0.5043724 0.8041431 -0.3145828
vn -0.5043724 0.8041431 -0.3145828
vn -0.5043724 0.8041431 -0.3145828
vn 0.2715463 0.8582416 -0.4355272
vn 0.2715463 0.8582416 -0.4355272
vn 0.2715463 0.8582416 -0.4355272
vn 0.2733974 0.8654649 -0.419791
vn 0.2733974 0.8654649 -0.419791
vn 0.2733974 0.8654649 -0.419791
vn -0.5408392 0 0.841126
vn -0.5408392 0 0.841126
vn -0.5408392 0 0.841126
vn -0.5408392 0 0.841126
vn -0.5408392 0 0.841126
vn -0.5408392 0 0.841126
vn -0.5408392 0 0.841126
vn -0.5403438 0 0.8414444
vn -0.5403438 0 0.8414444
vn -0.5403438 0 0.8414444
vn -0.5403438 0 0.8414444
vn -0.5403438 0 0.8414444
vn -0.5403438 0 0.8414444
vn -0.5403438 0 0.8414444
vn -0.5403026 0 0.8414708
vn -0.5403026 0 0.8414708
vn -0.5403026 0 0.8414708
vn -0.5403026 0 0.8414708
vn 0.8351711 0 0.5499902
vn 0.8351711 0 0.5499902
vn 0.8351711 0 0.5499902
vn 0.8351711 0 0.5499902
vn 0.8413809 0 0.5404425
vn 0.8413809 0 0.5404425
vn 0.8413809 0 0.5404425
vn 0.8413809 0 0.5404425
vn 0.8415478 0 0.5401827
vn 0.8415478 0 0.5401827
vn 0.8415478 0 0.5401827
vn 0.8415478 0 0.5401827
vn 0.8413559 0 0.5404815
vn 0.8413559 0 0.5404815
vn 0.8413559 0 0.5404815
vn 0.8413559 0 0.5404815
vn 0.8413559 0 0.5404815
vn 0.8413559 0 0.5404815
vn 0.8413559 2.562741E-11 0.5404815
vn 0.8413559 2.562741E-11 0.5404815
vn 0.8413559 2.562741E-11 0.5404815
vn 0.5404362 0 -0.841385
vn 0.5404362 0 -0.841385
vn 0.5404362 0 -0.841385
vn 0.5404362 0 -0.841385
vn 0.5404362 0 -0.841385
vn 0.5404362 0 -0.841385
vn 0.5404362 2.510653E-10 -0.841385
vn 0.5404362 2.510653E-10 -0.841385
vn 0.5404362 2.510653E-10 -0.841385
vn -0.841392 0 -0.5404254
vn -0.841392 0 -0.5404254
vn -0.841392 0 -0.5404254
vn -0.841392 0 -0.5404254
vn -0.841392 0 -0.5404254
vn -0.841392 0 -0.5404254
vn -0.841392 -2.335506E-11 -0.5404254
vn -0.841392 -2.335506E-11 -0.5404254
vn -0.841392 -2.335506E-11 -0.5404254
vn -0.8454887 0 -0.5339933
vn -0.8454887 0 -0.5339933
vn -0.8454887 0 -0.5339933
vn -0.8454889 0 -0.5339929
vn -0.8454889 0 -0.5339929
vn -0.8454889 0 -0.5339929
vn -0.8454888 -4.135763E-10 -0.5339931
vn -0.8454888 -4.135763E-10 -0.5339931
vn -0.8454888 -4.135763E-10 -0.5339931
vn -0.5405855 0 0.8412891
vn -0.5405855 0 0.8412891
vn -0.5405855 0 0.8412891
vn -0.5405855 0 0.8412891
vn 0.8412278 0 0.5406809
vn 0.8412278 0 0.5406809
vn 0.8412278 0 0.5406809
vn 0.8412278 0 0.5406809
vn 0.8412278 0 0.5406809
vn 0.8412278 0 0.5406809
vn 0.8412278 -2.430541E-11 0.5406809
vn 0.8412278 -2.430541E-11 0.5406809
vn 0.8412278 -2.430541E-11 0.5406809
vn -0.8412771 0 -0.5406041
vn -0.8412771 0 -0.5406041
vn -0.8412771 0 -0.5406041
vn -0.8412771 0 -0.5406041
vn -0.8412771 0 -0.5406041
vn -0.8412771 0 -0.5406041
vn -0.8412771 4.041431E-10 -0.5406041
vn -0.8412771 4.041431E-10 -0.5406041
vn -0.8412771 4.041431E-10 -0.5406041
vn -0.5290765 0 0.8485742
vn -0.5290765 0 0.8485742
vn -0.5290765 0 0.8485742
vn -0.5290765 0 0.8485742
vn 0.8484893 0 0.5292124
vn 0.8484893 0 0.5292124
vn 0.8484893 0 0.5292124
vn 0.8484893 0 0.5292124
vn -0.8484893 0 -0.5292124
vn -0.8484893 0 -0.5292124
vn -0.8484893 0 -0.5292124
vn -0.8484893 0 -0.5292124
vn 0.5290765 0 -0.8485742
vn 0.5290765 0 -0.8485742
vn 0.5290765 0 -0.8485742
vn 0.5290765 0 -0.8485742
vn 0 -1 0
vn 0 -1 0
vn 0 -1 0
vn 0 -1 0
vn 0 -1 0
vn 0 -1 0
vn 0 -1 0
vn 0 -1 0
vn 0 -1 0
vn 0 -1 0
vn 0 -1 0
vn 0 -1 0
vn 0 -1 0
vn 0 -1 0
vn 0 -1 0
vn 0 -1 0
vn 0 -1 0
vn 0 -1 0

g CDNNDG02_0005890
f 1/1/1 2/2/2 3/3/3
f 4/4/4 5/5/5 6/6/6
f 7/7/7 8/8/8 9/9/9
f 10/10/10 11/11/11 12/12/12
f 13/13/13 14/14/14 15/15/15
f 16/16/16 17/17/17 18/18/18
f 19/19/19 20/20/20 21/21/21
f 22/22/22 23/23/23 24/24/24
f 25/25/25 26/26/26 27/27/27
f 28/28/28 29/29/29 30/30/30
f 31/31/31 32/32/32 33/33/33
f 34/34/34 35/35/35 36/36/36
f 37/37/37 38/38/38 39/39/39
f 40/40/40 41/41/41 42/42/42
f 44/44/44 45/45/45 46/46/46
f 46/46/46 43/43/43 44/44/44
f 48/48/48 49/49/49 50/50/50
f 50/50/50 47/47/47 48/48/48
f 52/52/52 53/53/53 54/54/54
f 54/54/54 51/51/51 52/52/52
f 56/56/56 57/57/57 58/58/58
f 58/58/58 55/55/55 56/56/56
f 59/59/59 60/60/60 61/61/61
f 62/62/62 63/63/63 64/64/64
f 65/65/65 66/66/66 67/67/67
f 68/68/68 69/69/69 70/70/70
f 71/71/71 72/72/72 73/73/73
f 74/74/74 75/75/75 76/76/76
f 77/77/77 78/78/78 79/79/79
f 80/80/80 81/81/81 82/82/82
f 83/83/83 84/84/84 85/85/85
f 86/86/86 87/87/87 88/88/88
f 89/89/89 90/90/90 91/91/91
f 92/92/92 93/93/93 94/94/94
f 95/95/95 96/96/96 97/97/97
f 98/98/98 99/99/99 100/100/100
f 101/101/101 102/102/102 103/103/103
f 104/104/104 105/105/105 106/106/106
f 107/107/107 108/108/108 109/109/109
f 110/110/110 111/111/111 112/112/112
f 114/114/114 115/115/115 116/116/116
f 116/116/116 113/113/113 114/114/114
f 117/117/117 118/118/118 119/119/119
f 120/120/120 121/121/121 122/122/122
f 126/126/126 123/123/123 125/125/125
f 125/125/125 123/123/123 124/124/124
f 127/127/127 129/129/129 130/130/130
f 127/127/127 128/128/128 129/129/129
f 132/132/132 133/133/133 134/134/134
f 131/131/131 132/132/132 134/134/134
f 135/135/135 137/137/137 138/138/138
f 135/135/135 136/136/136 137/137/137
f 140/140/140 141/141/141 139/139/139
f 139/139/139 141/141/141 142/142/142
f 143/143/143 144/144/144 145/145/145
f 146/146/146 147/147/147 148/148/148
f 149/149/149 150/150/150 151/151/151
f 152/152/152 153/153/153 154/154/154
f 155/155/155 156/156/156 157/157/157
f 158/158/158 159/159/159 160/160/160
f 161/161/161 162/162/162 163/163/163
f 164/164/164 165/165/165 166/166/166
f 167/167/167 168/168/168 169/169/169
f 170/170/170 171/171/171 172/172/172
f 173/173/173 174/174/174 175/175/175
f 176/176/176 177/177/177 178/178/178
f 182/182/182 179/179/179 181/181/181
f 181/181/181 179/179/179 180/180/180
f 183/183/183 184/184/184 185/185/185
f 186/186/186 187/187/187 188/188/188
f 189/189/189 190/190/190 191/191/191
f 192/192/192 193/193/193 194/194/194
f 195/195/195 196/196/196 197/197/197
f 198/198/198 199/199/199 200/200/200
f 204/204/204 202/202/202 203/203/203
f 204/204/204 201/201/201 202/202/202
f 208/208/208 205/205/205 207/207/207
f 206/206/206 207/207/207 205/205/205
f 210/210/210 211/211/211 212/212/212
f 209/209/209 210/210/210 212/212/212
f 213/213/213 215/215/215 216/216/216
f 213/213/213 214/214/214 215/215/215
f 217/217/217 232/232/232 233/233/233
f 234/234/234 217/217/217 233/233/233
f 218/218/218 231/231/231 232/232/232
f 218/218/218 219/219/219 220/220/220
f 218/218/218 220/220/220 221/221/221
f 217/217/217 218/218/218 232/232/232
f 218/218/218 221/221/221 222/222/222
f 229/229/229 230/230/230 231/231/231
f 218/218/218 222/222/222 227/227/227
f 228/228/228 229/229/229 231/231/231
f 222/222/222 223/223/223 224/224/224
f 218/218/218 228/228/228 231/231/231
f 222/222/222 224/224/224 226/226/226
f 224/224/224 225/225/225 226/226/226
f 222/222/222 226/226/226 227/227/227
f 218/218/218 227/227/227 228/228/228
