v -3.131026 5.42027 -1.978964
v -1.395026 5.420273 8.691035
v 6.542974 5.420273 -3.623964
v -3.376026 5.42027 -2.136964
v -3.131026 5.42027 -1.978964
v 0.2129744 5.42027 -7.703964
v -7.480026 5.42027 4.769036
v -1.395026 5.420273 8.691035
v -7.341025 5.42027 4.553036
v -3.131026 5.42027 -1.978964
v 3.643975 5.42027 -5.492964
v 0.2129744 5.42027 -7.703964
v -3.131026 5.42027 -1.978964
v 6.542974 5.420273 -3.623964
v 3.643975 5.42027 -5.492964
v -7.341025 5.42027 4.553036
v -1.395026 5.420273 8.691035
v -3.131026 5.42027 -1.978964
v 5.521975 2.085677 -8.405964
v 6.683974 2.084753 -3.842964
v 8.576974 2.085677 -6.435964
v 3.643975 2.084677 -5.492964
v 6.683974 2.084753 -3.842964
v 5.521975 2.085677 -8.405964
v 6.683974 2.084753 -3.842964
v 6.839974 2.084753 -3.741964
v 8.576974 2.085677 -6.435964
v 3.643975 2.084677 -5.492964
v 6.542974 2.084678 -3.623964
v 6.683974 2.084753 -3.842964
v -7.480026 5.42027 4.769036
v -7.341025 5.42027 4.553036
v -7.341025 -5.174326 4.553036
v -7.480026 -5.174326 4.769036
v -7.341025 5.42027 4.553036
v -3.131026 5.42027 -1.978964
v -3.131026 -5.174326 -1.978964
v -7.341025 -5.174326 4.553036
v -4.437526 -5.174326 6.730036
v -1.395026 -5.174326 8.691035
v -1.395026 5.420273 8.691035
v -7.480026 5.42027 4.769036
v -7.480026 -5.174326 4.769036
v -4.437526 -5.174326 6.730036
v -7.480026 5.42027 4.769036
v -4.437526 -5.174326 6.730036
v -1.395026 5.420273 8.691035
v -1.395026 5.420273 8.691035
v 6.542974 2.084678 -3.623964
v 6.542974 5.420273 -3.623964
v -1.395026 -5.174326 8.691035
v 6.542974 -5.174326 -3.623964
v 6.542974 2.084678 -3.623964
v -1.395026 5.420273 8.691035
v 6.613474 -5.174326 -3.733464
v 6.683974 -5.174326 -3.842964
v 6.683974 2.084753 -3.842964
v 6.542974 2.084678 -3.623964
v 6.542974 -5.174326 -3.623964
v 6.613474 -5.174326 -3.733464
v 6.542974 2.084678 -3.623964
v 6.613474 -5.174326 -3.733464
v 6.683974 2.084753 -3.842964
v 3.643975 5.42027 -5.492964
v 6.542974 5.420273 -3.623964
v 6.542974 2.084678 -3.623964
v 3.643975 2.084677 -5.492964
v 0.2129744 5.42027 -7.703964
v 3.643975 2.084677 -5.492964
v 3.643975 -5.174326 -5.492964
v 0.2129744 -5.174326 -7.703964
v 0.2129744 5.42027 -7.703964
v 3.643975 5.42027 -5.492964
v 3.643975 2.084677 -5.492964
v -3.376026 5.42027 -2.136964
v 0.2129744 5.42027 -7.703964
v 0.2129744 -5.174326 -7.703964
v -3.376026 -5.174326 -2.136964
v -3.376026 -5.174326 -2.136964
v -3.131026 -5.174326 -1.978964
v -3.131026 5.42027 -1.978964
v -3.376026 5.42027 -2.136964
v 6.761974 -5.174326 -3.792464
v 6.839974 -5.174326 -3.741964
v 6.839974 2.084753 -3.741964
v 6.683974 2.084753 -3.842964
v 6.683974 -5.174326 -3.842964
v 6.761974 -5.174326 -3.792464
v 6.683974 2.084753 -3.842964
v 6.761974 -5.174326 -3.792464
v 6.839974 2.084753 -3.741964
v 6.839974 -5.174326 -3.741964
v 8.576974 -5.174326 -6.435964
v 8.576974 2.085677 -6.435964
v 6.839974 2.084753 -3.741964
v 5.521975 2.085677 -8.405964
v 8.576974 2.085677 -6.435964
v 8.576974 -5.174326 -6.435964
v 5.521975 -5.174326 -8.405964
v 3.643975 2.084677 -5.492964
v 5.521975 2.085677 -8.405964
v 5.521975 -5.174326 -8.405964
v 3.643975 -5.174326 -5.492964
v -7.480026 -5.174326 4.769036
v -7.341025 -5.174326 4.553036
v -3.131026 -5.174326 -1.978964
v -3.376026 -5.174326 -2.136964
v 0.2129744 -5.174326 -7.703964
v 3.643975 -5.174326 -5.492964
v 5.521975 -5.174326 -8.405964
v 8.576974 -5.174326 -6.435964
v 6.839974 -5.174326 -3.741964
v 6.761974 -5.174326 -3.792464
v 6.683974 -5.174326 -3.842964
v 6.613474 -5.174326 -3.733464
v 6.542974 -5.174326 -3.623964
v -1.395026 -5.174326 8.691035
v -4.437526 -5.174326 6.730036
vt 0.390269 0.263179
vt 0.002066 0.217590
vt 0.448154 0.001536
vt 0.396061 0.269780
vt 0.390269 0.263179
vt 0.597720 0.172101
vt 0.145846 0.381535
vt 0.002066 0.217590
vt 0.153669 0.377752
vt 0.390269 0.263179
vt 0.516670 0.079652
vt 0.597720 0.172101
vt 0.390269 0.263179
vt 0.448154 0.001536
vt 0.516670 0.079652
vt 0.153669 0.377752
vt 0.002066 0.217590
vt 0.390269 0.263179
vt 0.979709 0.746491
vt 0.815685 0.716015
vt 0.908396 0.665131
vt 0.875509 0.797012
vt 0.815685 0.716015
vt 0.979709 0.746491
vt 0.815685 0.716015
vt 0.812029 0.711861
vt 0.908396 0.665131
vt 0.875509 0.797012
vt 0.807851 0.719808
vt 0.815685 0.716015
vt 0.002066 0.783391
vt 0.009874 0.779611
vt 0.079575 0.867366
vt 0.071870 0.871096
vt 0.009874 0.779611
vt 0.245993 0.665131
vt 0.312570 0.754404
vt 0.079575 0.867366
vt 0.885264 0.464810
vt 0.954638 0.544056
vt 0.770746 0.631139
vt 0.630165 0.470560
vt 0.815889 0.385561
vt 0.885264 0.464810
vt 0.630165 0.470560
vt 0.885264 0.464810
vt 0.770746 0.631139
vt 0.441904 0.385561
vt 0.062289 0.613504
vt 0.002066 0.593160
vt 0.625800 0.452296
vt 0.191651 0.657202
vt 0.062289 0.613504
vt 0.441904 0.385561
vt 0.187791 0.659022
vt 0.183931 0.660842
vt 0.054499 0.617175
vt 0.062289 0.613504
vt 0.191651 0.657202
vt 0.187791 0.659022
vt 0.062289 0.613504
vt 0.187791 0.659022
vt 0.054499 0.617175
vt 0.386366 0.762814
vt 0.318182 0.685826
vt 0.339740 0.665131
vt 0.407639 0.741797
vt 0.467024 0.853928
vt 0.407639 0.741797
vt 0.453325 0.696661
vt 0.532922 0.786578
vt 0.467024 0.853928
vt 0.386366 0.762814
vt 0.407639 0.741797
vt 0.537190 0.762652
vt 0.738210 0.665131
vt 0.801976 0.755540
vt 0.603616 0.851768
vt 0.462889 0.875576
vt 0.468456 0.881892
vt 0.280433 0.967502
vt 0.274793 0.961103
vt 0.832477 0.877573
vt 0.834247 0.879569
vt 0.706052 0.939871
vt 0.702479 0.935842
vt 0.830707 0.875576
vt 0.832477 0.877573
vt 0.702479 0.935842
vt 0.832477 0.877573
vt 0.706052 0.939871
vt 0.697064 0.918691
vt 0.602649 0.962998
vt 0.473141 0.920274
vt 0.568416 0.875576
vt 0.073054 0.999811
vt 0.002066 0.919353
vt 0.047105 0.875576
vt 0.117453 0.955310
vt 0.121901 0.926137
vt 0.226010 0.875576
vt 0.269040 0.938235
vt 0.165870 0.988328
vt 0.838843 0.875576
vt 0.838843 0.875576
vt 0.838843 0.875576
vt 0.838843 0.875576
vt 0.838843 0.875576
vt 0.838843 0.875576
vt 0.838843 0.875576
vt 0.838843 0.875576
vt 0.838843 0.875576
vt 0.838843 0.875576
vt 0.838843 0.875576
vt 0.838843 0.875576
vt 0.838843 0.875576
vt 0.838843 0.875576
vt 0.838843 0.875576
vn -3.156891E-07 1 -1.726302E-07
vn -3.156891E-07 1 -1.726302E-07
vn -3.156891E-07 1 -1.726302E-07
vn 0 1 0
vn 0 1 0
vn 0 1 0
vn -2.776203E-07 1 -1.786538E-07
vn -2.776203E-07 1 -1.786538E-07
vn -2.776203E-07 1 -1.786538E-07
vn 0 1 0
vn 0 1 0
vn 0 1 0
vn -4.259942E-07 1 -8.213178E-07
vn -4.259942E-07 1 -8.213178E-07
vn -4.259942E-07 1 -8.213178E-07
vn -2.774869E-07 1 -1.788456E-07
vn -2.774869E-07 1 -1.788456E-07
vn -2.774869E-07 1 -1.788456E-07
vn -0.000156363 0.9999999 0.0002424816
vn -0.000156363 0.9999999 0.0002424816
vn -0.000156363 0.9999999 0.0002424816
vn -0.0001563635 0.9999999 0.0002424818
vn -0.0001563635 0.9999999 0.0002424818
vn -0.0001563635 0.9999999 0.0002424818
vn -0.0001563544 0.9999999 0.0002424879
vn -0.0001563544 0.9999999 0.0002424879
vn -0.0001563544 0.9999999 0.0002424879
vn -0.0001563621 0.9999999 0.0002424792
vn -0.0001563621 0.9999999 0.0002424792
vn -0.0001563621 0.9999999 0.0002424792
vn -0.8409254 0 -0.541151
vn -0.8409254 0 -0.541151
vn -0.8409254 0 -0.541151
vn -0.8409254 0 -0.541151
vn -0.8405424 0 -0.5417458
vn -0.8405424 0 -0.5417458
vn -0.8405424 0 -0.5417458
vn -0.8405424 0 -0.5417458
vn -0.5417556 0 0.8405361
vn -0.5417556 0 0.8405361
vn -0.5417556 0 0.8405361
vn -0.5417556 0 0.8405361
vn -0.5417556 0 0.8405361
vn -0.5417556 0 0.8405361
vn -0.5417556 0 0.8405361
vn -0.5417556 0 0.8405361
vn -0.5417556 0 0.8405361
vn 0.8405192 0 0.5417817
vn 0.8405192 0 0.5417817
vn 0.8405192 0 0.5417817
vn 0.8405192 0 0.5417817
vn 0.8405192 0 0.5417817
vn 0.8405192 0 0.5417817
vn 0.8405192 0 0.5417817
vn 0.840804 0 0.5413396
vn 0.840804 0 0.5413396
vn 0.840804 0 0.5413396
vn 0.840804 0 0.5413396
vn 0.840804 0 0.5413396
vn 0.840804 0 0.5413396
vn 0.840804 3.135542E-11 0.5413396
vn 0.840804 3.135542E-11 0.5413396
vn 0.840804 3.135542E-11 0.5413396
vn 0.5418561 0 -0.8404713
vn 0.5418561 0 -0.8404713
vn 0.5418561 0 -0.8404713
vn 0.5418561 0 -0.8404713
vn 0.5416859 0 -0.8405809
vn 0.5416859 0 -0.8405809
vn 0.5416859 0 -0.8405809
vn 0.5416859 0 -0.8405809
vn 0.5416859 0 -0.8405809
vn 0.5416859 0 -0.8405809
vn 0.5416859 0 -0.8405809
vn -0.8404763 0 -0.5418483
vn -0.8404763 0 -0.5418483
vn -0.8404763 0 -0.5418483
vn -0.8404763 0 -0.5418483
vn -0.5419706 0 0.8403975
vn -0.5419706 0 0.8403975
vn -0.5419706 0 0.8403975
vn -0.5419706 0 0.8403975
vn -0.5434744 0 0.8394257
vn -0.5434744 0 0.8394257
vn -0.5434744 0 0.8394257
vn -0.5434744 0 0.8394257
vn -0.5434744 0 0.8394257
vn -0.5434744 0 0.8394257
vn -0.5434744 2.178953E-12 0.8394257
vn -0.5434744 2.178953E-12 0.8394257
vn -0.5434744 2.178953E-12 0.8394257
vn 0.8404479 0 0.5418923
vn 0.8404479 0 0.5418923
vn 0.8404479 0 0.5418923
vn 0.8404479 0 0.5418923
vn 0.5419389 0 -0.8404179
vn 0.5419389 0 -0.8404179
vn 0.5419389 0 -0.8404179
vn 0.5419389 0 -0.8404179
vn -0.8404747 0 -0.5418508
vn -0.8404747 0 -0.5418508
vn -0.8404747 0 -0.5418508
vn -0.8404747 0 -0.5418508
vn 0 -1 0
vn 0 -1 0
vn 0 -1 0
vn 0 -1 0
vn 0 -1 0
vn 0 -1 0
vn 0 -1 0
vn 0 -1 0
vn 0 -1 0
vn 0 -1 0
vn 0 -1 0
vn 0 -1 0
vn 0 -1 0
vn 0 -1 0
vn 0 -1 0

g CDNNDG02_0000190
f 1/1/1 2/2/2 3/3/3
f 4/4/4 5/5/5 6/6/6
f 7/7/7 8/8/8 9/9/9
f 10/10/10 11/11/11 12/12/12
f 13/13/13 14/14/14 15/15/15
f 16/16/16 17/17/17 18/18/18
f 19/19/19 20/20/20 21/21/21
f 22/22/22 23/23/23 24/24/24
f 25/25/25 26/26/26 27/27/27
f 28/28/28 29/29/29 30/30/30
f 31/31/31 33/33/33 34/34/34
f 31/31/31 32/32/32 33/33/33
f 38/38/38 35/35/35 37/37/37
f 37/37/37 35/35/35 36/36/36
f 39/39/39 40/40/40 41/41/41
f 42/42/42 43/43/43 44/44/44
f 45/45/45 46/46/46 47/47/47
f 48/48/48 49/49/49 50/50/50
f 51/51/51 53/53/53 54/54/54
f 51/51/51 52/52/52 53/53/53
f 55/55/55 56/56/56 57/57/57
f 58/58/58 59/59/59 60/60/60
f 61/61/61 62/62/62 63/63/63
f 67/67/67 64/64/64 66/66/66
f 65/65/65 66/66/66 64/64/64
f 70/70/70 71/71/71 69/69/69
f 68/68/68 69/69/69 71/71/71
f 72/72/72 73/73/73 74/74/74
f 78/78/78 75/75/75 77/77/77
f 77/77/77 75/75/75 76/76/76
f 82/82/82 79/79/79 81/81/81
f 81/81/81 79/79/79 80/80/80
f 83/83/83 84/84/84 85/85/85
f 86/86/86 87/87/87 88/88/88
f 89/89/89 90/90/90 91/91/91
f 93/93/93 94/94/94 95/95/95
f 92/92/92 93/93/93 95/95/95
f 96/96/96 98/98/98 99/99/99
f 96/96/96 97/97/97 98/98/98
f 100/100/100 102/102/102 103/103/103
f 102/102/102 100/100/100 101/101/101
f 118/118/118 104/104/104 105/105/105
f 106/106/106 118/118/118 105/105/105
f 109/109/109 114/114/114 115/115/115
f 116/116/116 117/117/117 106/106/106
f 106/106/106 108/108/108 109/109/109
f 107/107/107 108/108/108 106/106/106
f 112/112/112 113/113/113 111/111/111
f 115/115/115 116/116/116 109/109/109
f 116/116/116 106/106/106 109/109/109
f 114/114/114 110/110/110 111/111/111
f 114/114/114 109/109/109 110/110/110
f 106/106/106 117/117/117 118/118/118
f 113/113/113 114/114/114 111/111/111
