v -0.4331453 6.452251 -6.120712
v 5.436855 6.452251 -6.024712
v 1.616855 6.452251 -9.253712
v 1.616855 6.452251 -9.253712
v 5.924855 6.452251 -6.770712
v 1.770855 6.452251 -9.488712
v -0.4331453 6.452251 -6.120712
v 5.893855 6.452251 -1.979712
v 5.436855 6.452251 -6.024712
v 5.436855 6.452251 -6.024712
v 7.565855 6.452251 -4.533712
v 7.609855 6.452251 -4.601712
v 1.616855 6.452251 -9.253712
v 5.436855 6.452251 -6.024712
v 5.924855 6.452251 -6.770712
v 5.436855 6.452251 -6.024712
v 5.893855 6.452251 -1.979712
v 7.565855 6.452251 -4.533712
v -4.441145 5.111252 5.719288
v -1.063145 5.111252 7.930288
v 0.2548547 5.111252 5.916288
v -5.742145 5.111252 1.991288
v -4.441145 5.111252 5.719288
v 0.2548547 5.111252 5.916288
v -7.934145 5.111252 5.341288
v -4.441145 5.111252 5.719288
v -5.742145 5.111252 1.991288
v -7.934145 5.111252 5.341288
v -5.316145 5.111252 7.055288
v -4.441145 5.111252 5.719288
v -4.411145 7.374252 -0.04271188
v 2.102855 7.374252 3.813288
v 3.135855 7.374252 2.235288
v -3.191145 7.374252 -1.905712
v 0.2548547 7.374252 5.916288
v 0.5848547 7.374252 6.132288
v 2.102855 7.374252 3.813288
v -5.742145 7.374252 1.991288
v 0.2548547 7.374252 5.916288
v -4.411145 7.374252 -0.04271188
v -4.411145 7.374252 -0.04271188
v 0.2548547 7.374252 5.916288
v 2.102855 7.374252 3.813288
v -3.191145 7.374252 -1.905712
v 5.893855 6.911252 -1.979712
v -0.4331453 6.911252 -6.120712
v -3.191145 7.374252 -1.905712
v 3.135855 7.374252 2.235288
v 5.893855 6.911252 -1.979712
v -5.316145 1.575252 7.055288
v -2.630145 1.575252 10.32429
v -1.063145 1.575252 7.930288
v -4.441145 1.575252 5.719288
v -6.008145 1.575252 8.113288
v -2.630145 1.575252 10.32429
v -5.316145 1.575252 7.055288
v -0.4331453 6.452251 -6.120712
v 1.616855 6.452251 -9.253712
v 1.616855 -6.457966 -9.253712
v -0.4331453 -6.457966 -6.120712
v 1.616855 6.452251 -9.253712
v 1.770855 6.452251 -9.488712
v 1.770855 -6.457966 -9.488712
v 1.616855 -6.457966 -9.253712
v -7.934145 5.111252 5.341288
v -5.742145 5.111252 1.991288
v -5.742145 -6.457966 1.991288
v -7.934145 -6.457966 5.341288
v -4.411145 7.374252 -0.04271188
v -3.191145 7.374252 -1.905712
v -3.191145 -6.457966 -1.905712
v -4.411145 -6.457966 -0.04271188
v -5.742145 7.374252 1.991288
v -4.411145 7.374252 -0.04271188
v -5.742145 5.111252 1.991288
v -5.742145 5.111252 1.991288
v -4.411145 7.374252 -0.04271188
v -4.411145 -6.457966 -0.04271188
v -5.742145 -6.457966 1.991288
v -3.191145 7.374252 -1.905712
v -0.4331453 6.452251 -6.120712
v -0.4331453 -6.457966 -6.120712
v -3.191145 -6.457966 -1.905712
v -3.191145 7.374252 -1.905712
v -0.4331453 6.911252 -6.120712
v -0.4331453 6.452251 -6.120712
v 6.729855 -6.457966 -3.256712
v 7.565855 -6.457966 -4.533712
v 7.565855 6.452251 -4.533712
v 5.893855 6.452251 -1.979712
v 5.893855 -6.457966 -1.979712
v 6.729855 -6.457966 -3.256712
v 5.893855 6.452251 -1.979712
v 6.729855 -6.457966 -3.256712
v 7.565855 6.452251 -4.533712
v 7.565855 -6.457966 -4.533712
v 7.609855 -6.457966 -4.601712
v 7.609855 6.452251 -4.601712
v 7.565855 6.452251 -4.533712
v 0.5848547 -6.457966 6.132288
v 2.102855 -6.457966 3.813288
v 2.102855 7.374252 3.813288
v 0.5848547 7.374252 6.132288
v 2.102855 -6.457966 3.813288
v 3.135855 -6.457966 2.235288
v 3.135855 7.374252 2.235288
v 2.102855 7.374252 3.813288
v 4.514855 -6.457966 0.1277882
v 5.893855 6.452251 -1.979712
v 5.893855 6.911252 -1.979712
v 4.514855 -6.457966 0.1277882
v 5.893855 -6.457966 -1.979712
v 5.893855 6.452251 -1.979712
v 3.135855 7.374252 2.235288
v 3.135855 -6.457966 2.235288
v 4.514855 -6.457966 0.1277882
v 3.135855 7.374252 2.235288
v 4.514855 -6.457966 0.1277882
v 5.893855 6.911252 -1.979712
v 5.436855 6.452251 -6.024712
v 6.523355 -6.457966 -5.313212
v 5.436855 -6.457966 -6.024712
v 6.523355 -6.457966 -5.313212
v 7.609855 6.452251 -4.601712
v 7.609855 -6.457966 -4.601712
v 5.436855 6.452251 -6.024712
v 7.609855 6.452251 -4.601712
v 6.523355 -6.457966 -5.313212
v 5.436855 -6.457966 -6.024712
v 5.924855 -6.457966 -6.770712
v 5.924855 6.452251 -6.770712
v 5.436855 6.452251 -6.024712
v 1.770855 6.452251 -9.488712
v 5.924855 6.452251 -6.770712
v 5.924855 -6.457966 -6.770712
v 1.770855 -6.457966 -9.488712
v -5.316145 1.575252 7.055288
v -4.441145 1.575252 5.719288
v -4.441145 5.111252 5.719288
v -5.316145 5.111252 7.055288
v -4.441145 1.575252 5.719288
v -1.063145 1.575252 7.930288
v -1.063145 5.111252 7.930288
v -4.441145 5.111252 5.719288
v -1.063145 -6.457966 7.930288
v 0.2548547 -6.457966 5.916288
v 0.2548547 5.111252 5.916288
v -1.063145 1.575252 7.930288
v -1.063145 5.111252 7.930288
v -1.063145 1.575252 7.930288
v 0.2548547 5.111252 5.916288
v -2.630145 -6.457966 10.32429
v -1.063145 -6.457966 7.930288
v -1.063145 1.575252 7.930288
v -2.630145 1.575252 10.32429
v -7.934145 5.111252 5.341288
v -5.316145 1.575252 7.055288
v -5.316145 5.111252 7.055288
v -7.934145 -6.457966 5.341288
v -5.316145 -6.457966 7.055288
v -5.316145 1.575252 7.055288
v -7.934145 5.111252 5.341288
v 0.2548547 -6.457966 5.916288
v 0.5848547 -6.457966 6.132288
v 0.5848547 7.374252 6.132288
v 0.2548547 5.111252 5.916288
v 0.2548547 7.374252 5.916288
v 0.2548547 5.111252 5.916288
v 0.5848547 7.374252 6.132288
v -5.742145 5.111252 1.991288
v 0.2548547 5.111252 5.916288
v 0.2548547 7.374252 5.916288
v -5.742145 7.374252 1.991288
v -6.008145 1.575252 8.113288
v -5.662145 -6.457966 7.584288
v -6.008145 -6.457966 8.113288
v -5.662145 -6.457966 7.584288
v -5.316145 1.575252 7.055288
v -5.316145 -6.457966 7.055288
v -6.008145 1.575252 8.113288
v -5.316145 1.575252 7.055288
v -5.662145 -6.457966 7.584288
v -6.008145 -6.457966 8.113288
v -2.630145 -6.457966 10.32429
v -2.630145 1.575252 10.32429
v -6.008145 1.575252 8.113288
v -0.4331453 6.911252 -6.120712
v 5.893855 6.911252 -1.979712
v 5.893855 6.452251 -1.979712
v -0.4331453 6.452251 -6.120712
v -5.316145 -6.457966 7.055288
v -7.934145 -6.457966 5.341288
v -5.742145 -6.457966 1.991288
v -4.411145 -6.457966 -0.04271188
v -3.191145 -6.457966 -1.905712
v -0.4331453 -6.457966 -6.120712
v 1.616855 -6.457966 -9.253712
v 1.770855 -6.457966 -9.488712
v 5.924855 -6.457966 -6.770712
v 5.436855 -6.457966 -6.024712
v 6.523355 -6.457966 -5.313212
v 7.609855 -6.457966 -4.601712
v 7.565855 -6.457966 -4.533712
v 6.729855 -6.457966 -3.256712
v 5.893855 -6.457966 -1.979712
v 4.514855 -6.457966 0.1277882
v 3.135855 -6.457966 2.235288
v 2.102855 -6.457966 3.813288
v 0.5848547 -6.457966 6.132288
v 0.2548547 -6.457966 5.916288
v -1.063145 -6.457966 7.930288
v -2.630145 -6.457966 10.32429
v -6.008145 -6.457966 8.113288
v -5.662145 -6.457966 7.584288
vt 0.812259 0.733089
vt 0.806554 0.597857
vt 0.930400 0.685187
vt 0.930400 0.685187
vt 0.834685 0.586453
vt 0.939262 0.681589
vt 0.812259 0.733089
vt 0.652928 0.588190
vt 0.806554 0.597857
vt 0.806554 0.597857
vt 0.749237 0.549118
vt 0.751801 0.548090
vt 0.930400 0.685187
vt 0.806554 0.597857
vt 0.834685 0.586453
vt 0.806554 0.597857
vt 0.652928 0.588190
vt 0.749237 0.549118
vt 0.505590 0.656069
vt 0.420824 0.578837
vt 0.496486 0.548090
vt 0.646962 0.685202
vt 0.505590 0.656069
vt 0.496486 0.548090
vt 0.521110 0.736334
vt 0.505590 0.656069
vt 0.646962 0.685202
vt 0.521110 0.736334
vt 0.455401 0.676481
vt 0.505590 0.656069
vt 0.239162 0.241284
vt 0.089967 0.091517
vt 0.149711 0.067297
vt 0.309696 0.212682
vt 0.010515 0.134691
vt 0.002169 0.127108
vt 0.089967 0.091517
vt 0.162155 0.272488
vt 0.010515 0.134691
vt 0.239162 0.241284
vt 0.239162 0.241284
vt 0.010515 0.134691
vt 0.089967 0.091517
vt 0.309696 0.212682
vt 0.308834 0.001318
vt 0.468724 0.146623
vt 0.309696 0.212682
vt 0.149711 0.067297
vt 0.308834 0.001318
vt 0.589973 0.850388
vt 0.466377 0.789850
vt 0.555651 0.753623
vt 0.639793 0.830161
vt 0.550520 0.866386
vt 0.466377 0.789850
vt 0.589973 0.850388
vt 0.452013 0.327012
vt 0.571723 0.278971
vt 0.550800 0.324139
vt 0.433022 0.371403
vt 0.571723 0.278971
vt 0.580702 0.275362
vt 0.559634 0.320588
vt 0.550800 0.324139
vt 0.012837 0.507157
vt 0.140604 0.455883
vt 0.128089 0.493799
vt 0.002169 0.544331
vt 0.220897 0.417112
vt 0.292159 0.388491
vt 0.274575 0.434989
vt 0.204545 0.463114
vt 0.143096 0.448336
vt 0.220897 0.417112
vt 0.140604 0.455883
vt 0.140604 0.455883
vt 0.220897 0.417112
vt 0.204545 0.463114
vt 0.128089 0.493799
vt 0.292159 0.388491
vt 0.452013 0.327012
vt 0.433022 0.371403
vt 0.274575 0.434989
vt 0.292159 0.388491
vt 0.452700 0.325406
vt 0.452013 0.327012
vt 0.351332 0.568337
vt 0.398825 0.549102
vt 0.413139 0.584352
vt 0.316606 0.623448
vt 0.303840 0.587571
vt 0.351332 0.568337
vt 0.316606 0.623448
vt 0.351332 0.568337
vt 0.413139 0.584352
vt 0.398825 0.549102
vt 0.401354 0.548090
vt 0.415709 0.583323
vt 0.413139 0.584352
vt 0.002169 0.709713
vt 0.088406 0.674791
vt 0.098332 0.714798
vt 0.010588 0.750331
vt 0.088406 0.674791
vt 0.147088 0.651025
vt 0.158041 0.690618
vt 0.098332 0.714798
vt 0.225463 0.619299
vt 0.316606 0.623448
vt 0.317068 0.624745
vt 0.225463 0.619299
vt 0.303840 0.587571
vt 0.316606 0.623448
vt 0.158041 0.690618
vt 0.147088 0.651025
vt 0.225463 0.619299
vt 0.158041 0.690618
vt 0.225463 0.619299
vt 0.317068 0.624745
vt 0.160764 0.994675
vt 0.119594 0.934688
vt 0.145913 0.958967
vt 0.119594 0.934688
vt 0.107269 0.945325
vt 0.093275 0.910408
vt 0.160764 0.994675
vt 0.107269 0.945325
vt 0.119594 0.934688
vt 0.167028 0.921404
vt 0.193590 0.910408
vt 0.208609 0.945515
vt 0.181614 0.956690
vt 0.461709 0.884210
vt 0.358222 0.789348
vt 0.342733 0.753623
vt 0.444561 0.846964
vt 0.264642 0.930019
vt 0.313067 0.910408
vt 0.315234 0.920990
vt 0.266593 0.940688
vt 0.085176 0.999590
vt 0.002169 0.922479
vt 0.004957 0.910408
vt 0.088336 0.987865
vt 0.906156 0.783705
vt 0.980500 0.753623
vt 0.987588 0.787339
vt 0.910307 0.807315
vt 0.912161 0.817859
vt 0.910307 0.807315
vt 0.987588 0.787339
vt 0.817787 0.819469
vt 0.906156 0.783705
vt 0.910307 0.807315
vt 0.821047 0.843439
vt 0.811417 0.813721
vt 0.744080 0.765271
vt 0.747007 0.753623
vt 0.801006 0.850578
vt 0.737527 0.791349
vt 0.744080 0.765271
vt 0.811417 0.813721
vt 0.010295 0.808956
vt 0.002169 0.801452
vt 0.014304 0.753623
vt 0.020535 0.769176
vt 0.022573 0.761258
vt 0.020535 0.769176
vt 0.014304 0.753623
vt 0.170351 0.907527
vt 0.020535 0.769176
vt 0.022573 0.761258
vt 0.172820 0.900007
vt 0.220798 0.926111
vt 0.233801 0.943811
vt 0.214751 0.951584
vt 0.233801 0.943811
vt 0.259286 0.910408
vt 0.252852 0.936039
vt 0.220798 0.926111
vt 0.259286 0.910408
vt 0.233801 0.943811
vt 0.726475 0.856828
vt 0.644252 0.780339
vt 0.649602 0.753623
vt 0.732659 0.830888
vt 0.336821 0.899625
vt 0.178332 0.754917
vt 0.177874 0.753623
vt 0.336271 0.898247
vt 0.321041 0.910408
vt 0.321041 0.910408
vt 0.321041 0.910408
vt 0.321041 0.910408
vt 0.321041 0.910408
vt 0.321041 0.910408
vt 0.321041 0.910408
vt 0.321041 0.910408
vt 0.321041 0.910408
vt 0.321041 0.910408
vt 0.321041 0.910408
vt 0.321041 0.910408
vt 0.321041 0.910408
vt 0.321041 0.910408
vt 0.321041 0.910408
vt 0.321041 0.910408
vt 0.321041 0.910408
vt 0.321041 0.910408
vt 0.321041 0.910408
vt 0.321041 0.910408
vt 0.321041 0.910408
vt 0.321041 0.910408
vt 0.321041 0.910408
vt 0.321041 0.910408
vn 0 1 0
vn 0 1 0
vn 0 1 0
vn 0 1 0
vn 0 1 0
vn 0 1 0
vn 0 1 0
vn 0 1 0
vn 0 1 0
vn 0 1 0
vn 0 1 0
vn 0 1 0
vn 0 1 0
vn 0 1 0
vn 0 1 0
vn 0 1 0
vn 0 1 0
vn 0 1 0
vn 0 1 0
vn 0 1 0
vn 0 1 0
vn 0 1 0
vn 0 1 0
vn 0 1 0
vn 0 1 0
vn 0 1 0
vn 0 1 0
vn 0 1 0
vn 0 1 0
vn 0 1 0
vn 0 1 0
vn 0 1 0
vn 0 1 0
vn 0 1 0
vn 0 1 0
vn 0 1 0
vn 0 1 0
vn 0 1 0
vn 0 1 0
vn 0 1 0
vn 0 1 0
vn 0 1 0
vn 0 1 0
vn 0.05012538 0.9958022 -0.07658615
vn 0.05012538 0.9958022 -0.07658615
vn 0.05012538 0.9958022 -0.07658615
vn 0.05012538 0.9958022 -0.07658615
vn 0.05012538 0.9958022 -0.07658615
vn 0.05012538 0.9958022 -0.07658615
vn 0 1 0
vn 0 1 0
vn 0 1 0
vn 0 1 0
vn 0 1 0
vn 0 1 0
vn 0 1 0
vn -0.8367861 0 -0.54753
vn -0.8367861 0 -0.54753
vn -0.8367861 0 -0.54753
vn -0.8367861 0 -0.54753
vn -0.8364049 0 -0.5481121
vn -0.8364049 0 -0.5481121
vn -0.8364049 0 -0.5481121
vn -0.8364049 0 -0.5481121
vn -0.8367848 0 -0.547532
vn -0.8367848 0 -0.547532
vn -0.8367848 0 -0.547532
vn -0.8367848 0 -0.547532
vn -0.8365818 0 -0.5478421
vn -0.8365818 0 -0.5478421
vn -0.8365818 0 -0.5478421
vn -0.8365818 0 -0.5478421
vn -0.8367667 0 -0.5475597
vn -0.8367667 0 -0.5475597
vn -0.8367667 0 -0.5475597
vn -0.8367667 0 -0.5475597
vn -0.8367667 0 -0.5475597
vn -0.8367667 0 -0.5475597
vn -0.8367667 0 -0.5475597
vn -0.8367842 0 -0.5475328
vn -0.8367842 0 -0.5475328
vn -0.8367842 0 -0.5475328
vn -0.8367842 0 -0.5475328
vn -0.8367842 0 -0.5475328
vn -0.8367842 0 -0.5475328
vn -0.8367842 0 -0.5475328
vn 0.8366578 0 0.5477259
vn 0.8366578 0 0.5477259
vn 0.8366578 0 0.5477259
vn 0.8366578 0 0.5477259
vn 0.8366578 0 0.5477259
vn 0.8366578 0 0.5477259
vn 0.8366578 -1.975604E-11 0.5477259
vn 0.8366578 -1.975604E-11 0.5477259
vn 0.8366578 -1.975604E-11 0.5477259
vn 0.8395711 0 0.5432499
vn 0.8395711 0 0.5432499
vn 0.8395711 0 0.5432499
vn 0.8395711 0 0.5432499
vn 0.8366835 0 0.5476868
vn 0.8366835 0 0.5476868
vn 0.8366835 0 0.5476868
vn 0.8366835 0 0.5476868
vn 0.8366706 0 0.5477064
vn 0.8366706 0 0.5477064
vn 0.8366706 0 0.5477064
vn 0.8366706 0 0.5477064
vn 0.8367842 0 0.5475328
vn 0.8367842 0 0.5475328
vn 0.8367842 0 0.5475328
vn 0.8367842 0 0.5475328
vn 0.8367842 0 0.5475328
vn 0.8367842 0 0.5475328
vn 0.8367842 0 0.5475328
vn 0.8367842 0 0.5475328
vn 0.8367842 0 0.5475328
vn 0.8367842 -1.790612E-12 0.5475328
vn 0.8367842 -1.790612E-12 0.5475328
vn 0.8367842 -1.790612E-12 0.5475328
vn 0.5478405 0 -0.8365828
vn 0.5478405 0 -0.8365828
vn 0.5478405 0 -0.8365828
vn 0.5478405 0 -0.8365828
vn 0.5478405 0 -0.8365828
vn 0.5478405 0 -0.8365828
vn 0.5478405 1.235008E-12 -0.8365828
vn 0.5478405 1.235008E-12 -0.8365828
vn 0.5478405 1.235008E-12 -0.8365828
vn 0.836851 0 0.5474307
vn 0.836851 0 0.5474307
vn 0.836851 0 0.5474307
vn 0.836851 0 0.5474307
vn 0.5475207 0 -0.8367921
vn 0.5475207 0 -0.8367921
vn 0.5475207 0 -0.8367921
vn 0.5475207 0 -0.8367921
vn 0.8365502 0 0.5478903
vn 0.8365502 0 0.5478903
vn 0.8365502 0 0.5478903
vn 0.8365502 0 0.5478903
vn -0.5476497 0 0.8367077
vn -0.5476497 0 0.8367077
vn -0.5476497 0 0.8367077
vn -0.5476497 0 0.8367077
vn 0.83675 0 0.5475851
vn 0.83675 0 0.5475851
vn 0.83675 0 0.5475851
vn 0.83675 0 0.5475851
vn 0.83675 0 0.5475851
vn 0.83675 0 0.5475851
vn 0.83675 0 0.5475851
vn 0.8366986 0 0.5476636
vn 0.8366986 0 0.5476636
vn 0.8366986 0 0.5476636
vn 0.8366986 0 0.5476636
vn -0.5477487 0 0.8366429
vn -0.5477487 0 0.8366429
vn -0.5477487 0 0.8366429
vn -0.5477487 0 0.8366429
vn -0.5477487 0 0.8366429
vn -0.5477487 0 0.8366429
vn -0.5477487 0 0.8366429
vn -0.5476592 0 0.8367015
vn -0.5476592 0 0.8367015
vn -0.5476592 0 0.8367015
vn -0.5476592 0 0.8367015
vn -0.5476592 0 0.8367015
vn -0.5476592 0 0.8367015
vn -0.5476592 0 0.8367015
vn -0.547629 0 0.8367213
vn -0.547629 0 0.8367213
vn -0.547629 0 0.8367213
vn -0.547629 0 0.8367213
vn -0.836886 0 -0.5473772
vn -0.836886 0 -0.5473772
vn -0.836886 0 -0.5473772
vn -0.836886 0 -0.5473772
vn -0.836886 0 -0.5473772
vn -0.836886 0 -0.5473772
vn -0.836886 0 -0.5473772
vn -0.836886 0 -0.5473772
vn -0.836886 0 -0.5473772
vn -0.5476497 0 0.8367077
vn -0.5476497 0 0.8367077
vn -0.5476497 0 0.8367077
vn -0.5476497 0 0.8367077
vn 0.5476305 0 -0.8367202
vn 0.5476305 0 -0.8367202
vn 0.5476305 0 -0.8367202
vn 0.5476305 0 -0.8367202
vn 0 -1 0
vn 0 -1 0
vn 0 -1 0
vn 0 -1 0
vn 0 -1 0
vn 0 -1 0
vn 0 -1 0
vn 0 -1 0
vn 0 -1 0
vn 0 -1 0
vn 0 -1 0
vn 0 -1 0
vn 0 -1 0
vn 0 -1 0
vn 0 -1 0
vn 0 -1 0
vn 0 -1 0
vn 0 -1 0
vn 0 -1 0
vn 0 -1 0
vn 0 -1 0
vn 0 -1 0
vn 0 -1 0
vn 0 -1 0

g CDNNDG02_0001750
f 1/1/1 2/2/2 3/3/3
f 4/4/4 5/5/5 6/6/6
f 7/7/7 8/8/8 9/9/9
f 10/10/10 11/11/11 12/12/12
f 13/13/13 14/14/14 15/15/15
f 16/16/16 17/17/17 18/18/18
f 19/19/19 20/20/20 21/21/21
f 22/22/22 23/23/23 24/24/24
f 25/25/25 26/26/26 27/27/27
f 28/28/28 29/29/29 30/30/30
f 31/31/31 32/32/32 34/34/34
f 34/34/34 32/32/32 33/33/33
f 35/35/35 36/36/36 37/37/37
f 38/38/38 39/39/39 40/40/40
f 41/41/41 42/42/42 43/43/43
f 44/44/44 45/45/45 46/46/46
f 47/47/47 48/48/48 49/49/49
f 53/53/53 50/50/50 52/52/52
f 52/52/52 50/50/50 51/51/51
f 54/54/54 55/55/55 56/56/56
f 57/57/57 59/59/59 60/60/60
f 57/57/57 58/58/58 59/59/59
f 61/61/61 63/63/63 64/64/64
f 61/61/61 62/62/62 63/63/63
f 65/65/65 67/67/67 68/68/68
f 65/65/65 66/66/66 67/67/67
f 72/72/72 70/70/70 71/71/71
f 72/72/72 69/69/69 70/70/70
f 73/73/73 74/74/74 75/75/75
f 79/79/79 76/76/76 78/78/78
f 78/78/78 76/76/76 77/77/77
f 81/81/81 82/82/82 83/83/83
f 80/80/80 81/81/81 83/83/83
f 84/84/84 85/85/85 86/86/86
f 87/87/87 88/88/88 89/89/89
f 90/90/90 91/91/91 92/92/92
f 93/93/93 94/94/94 95/95/95
f 96/96/96 98/98/98 99/99/99
f 96/96/96 97/97/97 98/98/98
f 100/100/100 102/102/102 103/103/103
f 100/100/100 101/101/101 102/102/102
f 105/105/105 106/106/106 104/104/104
f 104/104/104 106/106/106 107/107/107
f 108/108/108 109/109/109 110/110/110
f 111/111/111 112/112/112 113/113/113
f 114/114/114 115/115/115 116/116/116
f 117/117/117 118/118/118 119/119/119
f 120/120/120 121/121/121 122/122/122
f 123/123/123 124/124/124 125/125/125
f 126/126/126 127/127/127 128/128/128
f 130/130/130 131/131/131 129/129/129
f 129/129/129 131/131/131 132/132/132
f 135/135/135 133/133/133 134/134/134
f 133/133/133 135/135/135 136/136/136
f 137/137/137 139/139/139 140/140/140
f 137/137/137 138/138/138 139/139/139
f 141/141/141 143/143/143 144/144/144
f 143/143/143 141/141/141 142/142/142
f 148/148/148 145/145/145 146/146/146
f 146/146/146 147/147/147 148/148/148
f 149/149/149 150/150/150 151/151/151
f 152/152/152 154/154/154 155/155/155
f 152/152/152 153/153/153 154/154/154
f 156/156/156 157/157/157 158/158/158
f 161/161/161 162/162/162 159/159/159
f 161/161/161 159/159/159 160/160/160
f 166/166/166 163/163/163 164/164/164
f 165/165/165 166/166/166 164/164/164
f 167/167/167 168/168/168 169/169/169
f 173/173/173 170/170/170 172/172/172
f 172/172/172 170/170/170 171/171/171
f 174/174/174 175/175/175 176/176/176
f 177/177/177 178/178/178 179/179/179
f 180/180/180 181/181/181 182/182/182
f 183/183/183 185/185/185 186/186/186
f 185/185/185 183/183/183 184/184/184
f 190/190/190 187/187/187 189/189/189
f 188/188/188 189/189/189 187/187/187
f 212/212/212 213/213/213 214/214/214
f 191/191/191 212/212/212 214/214/214
f 191/191/191 211/211/211 212/212/212
f 191/191/191 192/192/192 193/193/193
f 191/191/191 210/210/210 211/211/211
f 193/193/193 194/194/194 210/210/210
f 194/194/194 195/195/195 208/208/208
f 195/195/195 196/196/196 206/206/206
f 191/191/191 193/193/193 210/210/210
f 196/196/196 197/197/197 200/200/200
f 208/208/208 209/209/209 210/210/210
f 197/197/197 198/198/198 199/199/199
f 194/194/194 208/208/208 210/210/210
f 197/197/197 199/199/199 200/200/200
f 205/205/205 196/196/196 200/200/200
f 200/200/200 201/201/201 204/204/204
f 201/201/201 202/202/202 203/203/203
f 195/195/195 207/207/207 208/208/208
f 201/201/201 203/203/203 204/204/204
f 200/200/200 204/204/204 205/205/205
f 196/196/196 205/205/205 206/206/206
f 195/195/195 206/206/206 207/207/207
