v -31.58557 7.56376 15.69303
v -13.90357 7.563757 8.998034
v -16.16557 7.562755 2.990034
v -35.80157 7.56176 3.594034
v -16.16557 7.562755 2.990034
v -13.90357 7.563757 8.998034
v -13.31657 7.56376 8.794034
v -15.42857 7.562758 2.733034
v -35.80157 7.56176 3.594034
v -16.16557 7.562755 2.990034
v -18.10457 7.561836 -2.572966
v -31.58557 7.56376 15.69303
v -13.73857 7.563836 9.473034
v -13.90357 7.563757 8.998034
v -18.10457 3.493728 -2.572966
v -15.42857 3.493728 2.733034
v -12.66157 3.493578 -4.470966
v -18.10457 3.493728 -2.572966
v -16.16557 3.493728 2.990034
v -15.42857 3.493728 2.733034
v -15.42857 3.493728 2.733034
v -8.608569 3.493578 7.152034
v -12.66157 3.493578 -4.470966
v -15.42857 3.493728 2.733034
v -13.31657 3.493728 8.794034
v -8.608569 3.493578 7.152034
v -8.608569 3.493578 7.152034
v 23.86343 3.492579 -4.175966
v 15.65043 3.492757 -9.059966
v -12.66157 3.493578 -4.470966
v 15.65043 3.492757 -9.059966
v 19.61843 3.492584 -15.73297
v -12.66157 3.493578 -4.470966
v -8.608569 3.493578 7.152034
v 15.65043 3.492757 -9.059966
v 35.58443 3.491469 -6.238966
v 44.75843 3.490431 -1.139966
v 35.91943 3.491485 -6.396966
v 35.58443 3.491469 -6.238966
v 40.80743 3.489431 5.900034
v 44.75843 3.490431 -1.139966
v 23.86343 3.492579 -4.175966
v 40.80743 3.489431 5.900034
v 35.58443 3.491469 -6.238966
v 15.65043 3.492757 -9.059966
v 23.86343 3.492579 -4.175966
v 19.61843 3.492584 -15.73297
v 19.61843 3.492584 -15.73297
v 23.86343 3.492579 -4.175966
v 35.58443 3.491469 -6.238966
v 40.80743 3.489431 5.900034
v 50.04043 3.489443 2.757034
v 44.75843 3.490431 -1.139966
v 44.75843 3.490431 -1.139966
v 50.04043 3.489443 2.757034
v 49.76943 3.489443 1.839034
v -33.69357 -4.874753 9.643534
v -31.58557 -4.874753 15.69303
v -31.58557 7.56376 15.69303
v -35.80157 7.56176 3.594034
v -35.80157 -4.874753 3.594034
v -33.69357 -4.874753 9.643534
v -35.80157 7.56176 3.594034
v -33.69357 -4.874753 9.643534
v -31.58557 7.56376 15.69303
v -31.58557 -4.874753 15.69303
v -13.73857 -4.874753 9.473034
v -13.73857 7.563836 9.473034
v -31.58557 7.56376 15.69303
v -13.90357 7.563757 8.998034
v -13.73857 7.563836 9.473034
v -13.73857 -4.874753 9.473034
v -13.90357 -4.874753 8.998034
v -13.90357 7.563757 8.998034
v -13.31657 3.493728 8.794034
v -13.31657 7.56376 8.794034
v -13.90357 -4.874753 8.998034
v -13.31657 -4.874753 8.794034
v -13.31657 3.493728 8.794034
v -13.90357 7.563757 8.998034
v -13.31657 -4.874753 8.794034
v -8.608569 -4.874753 7.152034
v -8.608569 3.493578 7.152034
v -13.31657 3.493728 8.794034
v 7.627431 -4.874753 1.488034
v 23.86343 -4.874753 -4.175966
v 23.86343 3.492579 -4.175966
v -8.608569 3.493578 7.152034
v -8.608569 -4.874753 7.152034
v 7.627431 -4.874753 1.488034
v -8.608569 3.493578 7.152034
v 7.627431 -4.874753 1.488034
v 23.86343 3.492579 -4.175966
v -15.42857 7.562758 2.733034
v -13.31657 7.56376 8.794034
v -13.31657 3.493728 8.794034
v -15.42857 3.493728 2.733034
v -16.16557 7.562755 2.990034
v -15.42857 7.562758 2.733034
v -15.42857 3.493728 2.733034
v -16.16557 3.493728 2.990034
v -18.10457 7.561836 -2.572966
v -16.16557 7.562755 2.990034
v -16.16557 3.493728 2.990034
v -18.10457 3.493728 -2.572966
v -35.80157 7.56176 3.594034
v -18.10457 3.493728 -2.572966
v -18.10457 -4.874753 -2.572966
v -35.80157 -4.874753 3.594034
v -35.80157 7.56176 3.594034
v -18.10457 7.561836 -2.572966
v -18.10457 3.493728 -2.572966
v -18.10457 3.493728 -2.572966
v -12.66157 3.493578 -4.470966
v -12.66157 -4.874753 -4.470966
v -18.10457 -4.874753 -2.572966
v -12.66157 3.493578 -4.470966
v 19.61843 3.492584 -15.73297
v 19.61843 -4.874753 -15.73297
v -12.66157 -4.874753 -4.470966
v 23.86343 -4.874753 -4.175966
v 40.80743 -4.874753 5.900034
v 40.80743 3.489431 5.900034
v 23.86343 3.492579 -4.175966
v 35.91943 3.491485 -6.396966
v 44.75843 3.490431 -1.139966
v 44.75843 -4.874753 -1.139966
v 35.91943 -4.874753 -6.396966
v 44.75843 3.490431 -1.139966
v 47.26393 -4.874753 0.3495338
v 44.75843 -4.874753 -1.139966
v 47.26393 -4.874753 0.3495338
v 49.76943 3.489443 1.839034
v 49.76943 -4.874753 1.839034
v 44.75843 3.490431 -1.139966
v 49.76943 3.489443 1.839034
v 47.26393 -4.874753 0.3495338
v 35.58443 3.491469 -6.238966
v 35.91943 3.491485 -6.396966
v 35.91943 -4.874753 -6.396966
v 35.58443 -4.874753 -6.238966
v 19.61843 3.492584 -15.73297
v 35.58443 3.491469 -6.238966
v 35.58443 -4.874753 -6.238966
v 19.61843 -4.874753 -15.73297
v 40.80743 -4.874753 5.900034
v 50.04043 -4.874753 2.757034
v 50.04043 3.489443 2.757034
v 40.80743 3.489431 5.900034
v 49.76943 3.489443 1.839034
v 50.04043 3.489443 2.757034
v 50.04043 -4.874753 2.757034
v 49.76943 -4.874753 1.839034
v -33.69357 -4.874753 9.643534
v -35.80157 -4.874753 3.594034
v -18.10457 -4.874753 -2.572966
v -12.66157 -4.874753 -4.470966
v 19.61843 -4.874753 -15.73297
v 35.58443 -4.874753 -6.238966
v 35.91943 -4.874753 -6.396966
v 44.75843 -4.874753 -1.139966
v 47.26393 -4.874753 0.3495338
v 49.76943 -4.874753 1.839034
v 50.04043 -4.874753 2.757034
v 40.80743 -4.874753 5.900034
v 23.86343 -4.874753 -4.175966
v 7.627431 -4.874753 1.488034
v -8.608569 -4.874753 7.152034
v -13.31657 -4.874753 8.794034
v -13.90357 -4.874753 8.998034
v -13.73857 -4.874753 9.473034
v -31.58557 -4.874753 15.69303
vt 0.269874 0.740289
vt 0.169075 0.920044
vt 0.081745 0.896214
vt 0.093929 0.695756
vt 0.081745 0.896214
vt 0.169075 0.920044
vt 0.165995 0.926013
vt 0.077866 0.903708
vt 0.093929 0.695756
vt 0.081745 0.896214
vt 0.000855 0.875736
vt 0.269874 0.740289
vt 0.175981 0.921787
vt 0.169075 0.920044
vt 0.198560 0.000598
vt 0.275251 0.028479
vt 0.170039 0.055765
vt 0.198560 0.000598
vt 0.279114 0.021010
vt 0.275251 0.028479
vt 0.275251 0.028479
vt 0.338336 0.098427
vt 0.170039 0.055765
vt 0.275251 0.028479
vt 0.363015 0.050712
vt 0.338336 0.098427
vt 0.338336 0.098427
vt 0.168125 0.427445
vt 0.098524 0.343297
vt 0.170039 0.055765
vt 0.098524 0.343297
vt 0.000855 0.382851
vt 0.170039 0.055765
vt 0.338336 0.098427
vt 0.098524 0.343297
vt 0.136151 0.546417
vt 0.208703 0.640344
vt 0.133798 0.549805
vt 0.136151 0.546417
vt 0.311696 0.601021
vt 0.208703 0.640344
vt 0.168125 0.427445
vt 0.311696 0.601021
vt 0.136151 0.546417
vt 0.098524 0.343297
vt 0.168125 0.427445
vt 0.000855 0.382851
vt 0.000855 0.382851
vt 0.168125 0.427445
vt 0.136151 0.546417
vt 0.311696 0.601021
vt 0.264442 0.694535
vt 0.208703 0.640344
vt 0.208703 0.640344
vt 0.264442 0.694535
vt 0.251146 0.691667
vt 0.095552 0.949996
vt 0.181640 0.972317
vt 0.175656 0.999663
vt 0.000855 0.954337
vt 0.009462 0.927675
vt 0.095552 0.949996
vt 0.000855 0.954337
vt 0.095552 0.949996
vt 0.175656 0.999663
vt 0.369172 0.736469
vt 0.279389 0.916657
vt 0.272027 0.878707
vt 0.363184 0.695756
vt 0.183918 0.927675
vt 0.190483 0.929355
vt 0.197473 0.966839
vt 0.191006 0.965184
vt 0.861074 0.000598
vt 0.860565 0.019161
vt 0.858072 0.006622
vt 0.868573 0.038621
vt 0.865616 0.044555
vt 0.860565 0.019161
vt 0.861074 0.000598
vt 0.865616 0.044555
vt 0.841813 0.092142
vt 0.836519 0.067238
vt 0.860565 0.019161
vt 0.759715 0.256231
vt 0.677633 0.420289
vt 0.670659 0.398754
vt 0.836519 0.067238
vt 0.841813 0.092142
vt 0.759715 0.256231
vt 0.836519 0.067238
vt 0.759715 0.256231
vt 0.670659 0.398754
vt 0.199316 0.927675
vt 0.287493 0.949134
vt 0.289974 0.961474
vt 0.202236 0.940119
vt 0.412439 0.937223
vt 0.408897 0.944440
vt 0.411520 0.934856
vt 0.415045 0.927675
vt 0.291702 0.927675
vt 0.372573 0.947357
vt 0.375472 0.959827
vt 0.295004 0.940240
vt 0.659717 0.027453
vt 0.567677 0.196802
vt 0.574408 0.177023
vt 0.668341 0.000598
vt 0.659717 0.027453
vt 0.564355 0.206563
vt 0.567677 0.196802
vt 0.567677 0.196802
vt 0.538478 0.251609
vt 0.545504 0.231278
vt 0.574408 0.177023
vt 0.538478 0.251609
vt 0.365269 0.576568
vt 0.374041 0.552964
vt 0.545504 0.231278
vt 0.378329 0.695756
vt 0.517451 0.867674
vt 0.511800 0.893432
vt 0.371257 0.719772
vt 0.666382 0.695756
vt 0.742456 0.785922
vt 0.748970 0.805240
vt 0.673668 0.715992
vt 0.742456 0.785922
vt 0.770305 0.830537
vt 0.748970 0.805240
vt 0.770305 0.830537
vt 0.785563 0.837037
vt 0.791639 0.855834
vt 0.742456 0.785922
vt 0.785563 0.837037
vt 0.770305 0.830537
vt 0.379446 0.952428
vt 0.377246 0.955724
vt 0.384097 0.930937
vt 0.386275 0.927675
vt 0.519247 0.695756
vt 0.656777 0.858720
vt 0.664047 0.878999
vt 0.527913 0.717693
vt 0.844722 0.715448
vt 0.799724 0.808355
vt 0.793841 0.789615
vt 0.839299 0.695756
vt 0.388366 0.927675
vt 0.401194 0.930389
vt 0.406915 0.948719
vt 0.394218 0.946032
vt 0.417451 0.927675
vt 0.417451 0.927675
vt 0.417451 0.927675
vt 0.417451 0.927675
vt 0.417451 0.927675
vt 0.417451 0.927675
vt 0.417451 0.927675
vt 0.417451 0.927675
vt 0.417451 0.927675
vt 0.417451 0.927675
vt 0.417451 0.927675
vt 0.417451 0.927675
vt 0.417451 0.927675
vt 0.417451 0.927675
vt 0.417451 0.927675
vt 0.417451 0.927675
vt 0.417451 0.927675
vt 0.417451 0.927675
vt 0.417451 0.927675
vn -5.516499E-05 1 -0.0001460808
vn -5.516535E-05 1 -0.0001460812
vn -5.516499E-05 1 -0.0001460808
vn -5.516462E-05 1 -0.0001460803
vn -5.517256E-05 1 -0.0001460785
vn -5.516763E-05 1 -0.0001460797
vn -5.51627E-05 1 -0.0001460809
vn -5.516763E-05 1 -0.0001460797
vn -5.516457E-05 1 -0.0001460787
vn -5.516457E-05 1 -0.0001460787
vn -5.516457E-05 1 -0.0001460787
vn -5.516475E-05 1 -0.0001460796
vn -5.516475E-05 1 -0.0001460796
vn -5.516475E-05 1 -0.0001460796
vn 2.340854E-05 1 -1.180574E-05
vn 2.340854E-05 1 -1.180574E-05
vn 2.340854E-05 1 -1.180574E-05
vn 0 1 0
vn 0 1 0
vn 0 1 0
vn 2.837999E-05 1 -9.896248E-06
vn 2.837999E-05 1 -9.896248E-06
vn 2.837999E-05 1 -9.896248E-06
vn 2.83741E-05 1 -9.887164E-06
vn 2.83741E-05 1 -9.887164E-06
vn 2.83741E-05 1 -9.887164E-06
vn 2.745604E-05 1 -9.573396E-06
vn 2.745604E-05 1 -9.573396E-06
vn 2.745604E-05 1 -9.573396E-06
vn 2.745571E-05 1 -9.573768E-06
vn 2.745571E-05 1 -9.573768E-06
vn 2.745571E-05 1 -9.573768E-06
vn 2.745568E-05 1 -9.573937E-06
vn 2.745568E-05 1 -9.573937E-06
vn 2.745568E-05 1 -9.573937E-06
vn 2.607734E-05 1 0.000156683
vn 2.607734E-05 1 0.000156683
vn 2.607734E-05 1 0.000156683
vn 2.607834E-05 1 0.0001566812
vn 2.607834E-05 1 0.0001566812
vn 2.607834E-05 1 0.0001566812
vn 0.0001154567 1 0.0001182247
vn 0.0001154567 1 0.0001182247
vn 0.0001154567 1 0.0001182247
vn 2.745612E-05 1 -9.573524E-06
vn 2.745612E-05 1 -9.573524E-06
vn 2.745612E-05 1 -9.573524E-06
vn 8.89852E-05 1 -3.217376E-05
vn 8.89852E-05 1 -3.217376E-05
vn 8.89852E-05 1 -3.217376E-05
vn 5.821451E-05 1 0.0001747167
vn 5.821451E-05 1 0.0001747167
vn 5.821451E-05 1 0.0001747167
vn 0.0002392209 0.9999999 -7.061968E-05
vn 0.0002392209 0.9999999 -7.061968E-05
vn 0.0002392209 0.9999999 -7.061968E-05
vn -0.9443113 0 0.3290533
vn -0.9443113 0 0.3290533
vn -0.9443113 0 0.3290533
vn -0.9443113 0 0.3290533
vn -0.9443113 0 0.3290533
vn -0.9443113 0 0.3290533
vn -0.9443113 2.209692E-12 0.3290533
vn -0.9443113 2.209692E-12 0.3290533
vn -0.9443113 2.209692E-12 0.3290533
vn 0.3291034 0 0.9442939
vn 0.3291034 0 0.9442939
vn 0.3291034 0 0.9442939
vn 0.3291034 0 0.9442939
vn 0.9446309 0 -0.3281349
vn 0.9446309 0 -0.3281349
vn 0.9446309 0 -0.3281349
vn 0.9446309 0 -0.3281349
vn 0.328271 0 0.9445836
vn 0.328271 0 0.9445836
vn 0.328271 0 0.9445836
vn 0.328271 0 0.9445836
vn 0.328271 0 0.9445836
vn 0.328271 0 0.9445836
vn 0.328271 0 0.9445836
vn 0.3293139 0 0.9442205
vn 0.3293139 0 0.9442205
vn 0.3293139 0 0.9442205
vn 0.3293139 0 0.9442205
vn 0.3293866 0 0.9441952
vn 0.3293866 0 0.9441952
vn 0.3293866 0 0.9441952
vn 0.3293866 0 0.9441952
vn 0.3293866 0 0.9441952
vn 0.3293866 0 0.9441952
vn 0.3293866 -1.145639E-12 0.9441952
vn 0.3293866 -1.145639E-12 0.9441952
vn 0.3293866 -1.145639E-12 0.9441952
vn 0.9443117 0 -0.3290524
vn 0.9443117 0 -0.3290524
vn 0.9443117 0 -0.3290524
vn 0.9443117 0 -0.3290524
vn -0.3292659 0 -0.9442372
vn -0.3292659 0 -0.9442372
vn -0.3292659 0 -0.9442372
vn -0.3292659 0 -0.9442372
vn 0.9442836 0 -0.3291328
vn 0.9442836 0 -0.3291328
vn 0.9442836 0 -0.3291328
vn 0.9442836 0 -0.3291328
vn -0.329069 0 -0.9443059
vn -0.329069 0 -0.9443059
vn -0.329069 0 -0.9443059
vn -0.329069 0 -0.9443059
vn -0.329069 0 -0.9443059
vn -0.329069 0 -0.9443059
vn -0.329069 0 -0.9443059
vn -0.3292607 0 -0.9442391
vn -0.3292607 0 -0.9442391
vn -0.3292607 0 -0.9442391
vn -0.3292607 0 -0.9442391
vn -0.3294122 0 -0.9441862
vn -0.3294122 0 -0.9441862
vn -0.3294122 0 -0.9441862
vn -0.3294122 0 -0.9441862
vn -0.51112 0 0.8595094
vn -0.51112 0 0.8595094
vn -0.51112 0 0.8595094
vn -0.51112 0 0.8595094
vn 0.5111744 0 -0.859477
vn 0.5111744 0 -0.859477
vn 0.5111744 0 -0.859477
vn 0.5111744 0 -0.859477
vn 0.5110103 0 -0.8595746
vn 0.5110103 0 -0.8595746
vn 0.5110103 0 -0.8595746
vn 0.5110103 0 -0.8595746
vn 0.5110103 0 -0.8595746
vn 0.5110103 0 -0.8595746
vn 0.5110103 1.777995E-12 -0.8595746
vn 0.5110103 1.777995E-12 -0.8595746
vn 0.5110103 1.777995E-12 -0.8595746
vn -0.426577 0 -0.9044513
vn -0.426577 0 -0.9044513
vn -0.426577 0 -0.9044513
vn -0.426577 0 -0.9044513
vn 0.5111033 0 -0.8595192
vn 0.5111033 0 -0.8595192
vn 0.5111033 0 -0.8595192
vn 0.5111033 0 -0.8595192
vn 0.3222501 0 0.9466546
vn 0.3222501 0 0.9466546
vn 0.3222501 0 0.9466546
vn 0.3222501 0 0.9466546
vn 0.9590822 0 -0.2831278
vn 0.9590822 0 -0.2831278
vn 0.9590822 0 -0.2831278
vn 0.9590822 0 -0.2831278
vn 0 -1 0
vn 0 -1 0
vn 0 -1 0
vn 0 -1 0
vn 0 -1 0
vn 0 -1 0
vn 0 -1 0
vn 0 -1 0
vn 0 -1 0
vn 0 -1 0
vn 0 -1 0
vn 0 -1 0
vn 0 -1 0
vn 0 -1 0
vn 0 -1 0
vn 0 -1 0
vn 0 -1 0
vn 0 -1 0
vn 0 -1 0

g CDNNDG02_0005550
f 1/1/1 3/3/3 4/4/4
f 1/1/1 2/2/2 3/3/3
f 5/5/5 6/6/6 8/8/8
f 8/8/8 6/6/6 7/7/7
f 9/9/9 10/10/10 11/11/11
f 12/12/12 13/13/13 14/14/14
f 15/15/15 16/16/16 17/17/17
f 18/18/18 19/19/19 20/20/20
f 21/21/21 22/22/22 23/23/23
f 24/24/24 25/25/25 26/26/26
f 27/27/27 28/28/28 29/29/29
f 30/30/30 31/31/31 32/32/32
f 33/33/33 34/34/34 35/35/35
f 36/36/36 37/37/37 38/38/38
f 39/39/39 40/40/40 41/41/41
f 42/42/42 43/43/43 44/44/44
f 45/45/45 46/46/46 47/47/47
f 48/48/48 49/49/49 50/50/50
f 51/51/51 52/52/52 53/53/53
f 54/54/54 55/55/55 56/56/56
f 57/57/57 58/58/58 59/59/59
f 60/60/60 61/61/61 62/62/62
f 63/63/63 64/64/64 65/65/65
f 67/67/67 68/68/68 69/69/69
f 66/66/66 67/67/67 69/69/69
f 73/73/73 70/70/70 72/72/72
f 72/72/72 70/70/70 71/71/71
f 74/74/74 75/75/75 76/76/76
f 77/77/77 79/79/79 80/80/80
f 77/77/77 78/78/78 79/79/79
f 84/84/84 81/81/81 83/83/83
f 83/83/83 81/81/81 82/82/82
f 85/85/85 86/86/86 87/87/87
f 88/88/88 89/89/89 90/90/90
f 91/91/91 92/92/92 93/93/93
f 97/97/97 94/94/94 96/96/96
f 96/96/96 94/94/94 95/95/95
f 99/99/99 100/100/100 98/98/98
f 98/98/98 100/100/100 101/101/101
f 105/105/105 102/102/102 104/104/104
f 104/104/104 102/102/102 103/103/103
f 107/107/107 108/108/108 109/109/109
f 106/106/106 107/107/107 109/109/109
f 110/110/110 111/111/111 112/112/112
f 114/114/114 115/115/115 116/116/116
f 113/113/113 114/114/114 116/116/116
f 120/120/120 117/117/117 118/118/118
f 118/118/118 119/119/119 120/120/120
f 124/124/124 121/121/121 123/123/123
f 123/123/123 121/121/121 122/122/122
f 128/128/128 125/125/125 126/126/126
f 126/126/126 127/127/127 128/128/128
f 129/129/129 130/130/130 131/131/131
f 132/132/132 133/133/133 134/134/134
f 135/135/135 136/136/136 137/137/137
f 139/139/139 140/140/140 138/138/138
f 138/138/138 140/140/140 141/141/141
f 143/143/143 144/144/144 145/145/145
f 142/142/142 143/143/143 145/145/145
f 147/147/147 148/148/148 149/149/149
f 146/146/146 147/147/147 149/149/149
f 153/153/153 150/150/150 151/151/151
f 152/152/152 153/153/153 151/151/151
f 170/170/170 171/171/171 172/172/172
f 154/154/154 170/170/170 172/172/172
f 154/154/154 155/155/155 156/156/156
f 154/154/154 156/156/156 170/170/170
f 156/156/156 169/169/169 170/170/170
f 158/158/158 166/166/166 167/167/167
f 157/157/157 158/158/158 167/167/167
f 158/158/158 159/159/159 166/166/166
f 159/159/159 160/160/160 161/161/161
f 159/159/159 161/161/161 165/165/165
f 161/161/161 162/162/162 165/165/165
f 162/162/162 163/163/163 164/164/164
f 157/157/157 167/167/167 168/168/168
f 162/162/162 164/164/164 165/165/165
f 169/169/169 157/157/157 168/168/168
f 159/159/159 165/165/165 166/166/166
f 156/156/156 157/157/157 169/169/169
