v -22.6435 1.038792 7.103373
v -17.6915 2.245792 9.792374
v -13.8855 2.245792 2.782373
v -18.8375 1.038792 0.09337322
v -4.291496 3.749792 15.44937
v -3.293496 3.749792 13.73037
v -4.114496 3.749792 13.25337
v -5.111496 3.749792 14.97237
v -8.864496 2.397792 6.283373
v -1.736496 2.397792 -6.691627
v -7.132496 2.397792 -9.655627
v -13.8855 2.397792 2.782373
v -8.864496 2.397792 6.283373
v 4.041504 2.397792 22.06637
v 7.672504 2.397792 15.36737
v -5.111496 2.397792 14.97237
v 4.041504 2.397792 22.06637
v -4.291496 2.397792 15.44937
v -17.7715 2.397792 9.938374
v 4.041504 2.397792 22.06637
v -5.111496 2.397792 14.97237
v -17.7715 2.397792 9.938374
v -5.111496 2.397792 14.97237
v -8.864496 2.397792 6.283373
v -8.864496 2.397792 6.283373
v -3.293496 2.397792 13.73037
v 4.041504 2.397792 22.06637
v -8.864496 2.397792 6.283373
v -5.111496 2.397792 14.97237
v -4.114496 2.397792 13.25337
v -8.864496 2.397792 6.283373
v -4.114496 2.397792 13.25337
v -3.293496 2.397792 13.73037
v -4.291496 2.397792 15.44937
v 4.041504 2.397792 22.06637
v -3.293496 2.397792 13.73037
v -17.6915 2.397792 9.792374
v -8.864496 2.397792 6.283373
v -13.8855 2.397792 2.782373
v -17.7715 2.397792 9.938374
v -8.864496 2.397792 6.283373
v -17.6915 2.397792 9.792374
v -8.864496 6.214792 6.283373
v 7.672504 6.214792 15.36737
v -1.736496 6.214792 -6.691627
v -1.736496 6.214792 -6.691627
v 7.672504 6.214792 15.36737
v 18.9465 6.197792 -5.155627
v -1.736496 6.214792 -6.691627
v 18.9465 6.197792 -5.155627
v 2.913504 6.214792 -13.96363
v -7.132496 6.214792 -9.655627
v -1.736496 6.214792 -6.691627
v 2.913504 6.214792 -13.96363
v -7.513496 6.214792 -21.61863
v 2.913504 6.214792 -13.96363
v 3.726504 6.214792 -15.44363
v -12.4425 6.214792 -12.57263
v -7.132496 6.214792 -9.655627
v -10.7385 6.214792 -15.67463
v -9.150496 6.214792 -18.63663
v -7.132496 6.214792 -9.655627
v 2.913504 6.214792 -13.96363
v -7.513496 6.214792 -21.61863
v -10.7385 6.214792 -15.67463
v -9.150496 6.214792 -18.63663
v -10.2935 6.214792 -19.26463
v -11.9125 6.214792 -16.31963
v -10.7385 6.214792 -15.67463
v -7.132496 6.214792 -9.655627
v -9.150496 6.214792 -18.63663
v -20.1675 -5.157265 8.447873
v -17.6915 -5.157265 9.792374
v -17.6915 2.245792 9.792374
v -22.6435 1.038792 7.103373
v -22.6435 -5.157265 7.103373
v -20.1675 -5.157265 8.447873
v -22.6435 1.038792 7.103373
v -20.1675 -5.157265 8.447873
v -17.6915 2.245792 9.792374
v -18.8375 1.038792 0.09337322
v -16.3615 -5.157265 1.437873
v -18.8375 -5.157265 0.09337322
v -16.3615 -5.157265 1.437873
v -13.8855 2.245792 2.782373
v -13.8855 -5.157265 2.782373
v -18.8375 1.038792 0.09337322
v -13.8855 2.245792 2.782373
v -16.3615 -5.157265 1.437873
v -22.6435 1.038792 7.103373
v -18.8375 1.038792 0.09337322
v -18.8375 -5.157265 0.09337322
v -22.6435 -5.157265 7.103373
v -4.291496 2.397792 15.44937
v -3.293496 2.397792 13.73037
v -3.293496 3.749792 13.73037
v -4.291496 3.749792 15.44937
v -4.114496 3.749792 13.25337
v -3.293496 3.749792 13.73037
v -3.293496 2.397792 13.73037
v -4.114496 2.397792 13.25337
v -5.111496 3.749792 14.97237
v -4.114496 3.749792 13.25337
v -4.114496 2.397792 13.25337
v -5.111496 2.397792 14.97237
v -5.111496 2.397792 14.97237
v -4.291496 2.397792 15.44937
v -4.291496 3.749792 15.44937
v -5.111496 3.749792 14.97237
v -17.7715 2.397792 9.938374
v -17.7315 -5.157265 9.865374
v -17.7715 -5.157265 9.938374
v -17.7715 2.397792 9.938374
v -17.6915 2.397792 9.792374
v -17.7315 -5.157265 9.865374
v -17.7315 -5.157265 9.865374
v -17.6915 2.397792 9.792374
v -17.6915 2.245792 9.792374
v -17.7315 -5.157265 9.865374
v -17.6915 2.245792 9.792374
v -17.6915 -5.157265 9.792374
v -13.8855 2.397792 2.782373
v -10.509 -5.157265 -3.436627
v -13.8855 2.245792 2.782373
v -13.8855 2.245792 2.782373
v -10.509 -5.157265 -3.436627
v -13.8855 -5.157265 2.782373
v -10.509 -5.157265 -3.436627
v -7.132496 2.397792 -9.655627
v -7.132496 -5.157265 -9.655627
v -13.8855 2.397792 2.782373
v -7.132496 2.397792 -9.655627
v -10.509 -5.157265 -3.436627
v -17.6915 2.397792 9.792374
v -13.8855 2.397792 2.782373
v -13.8855 2.245792 2.782373
v -17.6915 2.245792 9.792374
v -6.864996 -5.157265 16.00237
v 4.041504 -5.157265 22.06637
v 4.041504 2.397792 22.06637
v -17.7715 2.397792 9.938374
v -17.7715 -5.157265 9.938374
v -6.864996 -5.157265 16.00237
v -17.7715 2.397792 9.938374
v -6.864996 -5.157265 16.00237
v 4.041504 2.397792 22.06637
v 4.041504 -5.157265 22.06637
v 7.672504 -5.157265 15.36737
v 7.672504 2.397792 15.36737
v 4.041504 2.397792 22.06637
v 7.672504 -5.157265 15.36737
v 18.9465 -5.157265 -5.155627
v 18.9465 6.197792 -5.155627
v 7.672504 2.397792 15.36737
v 7.672504 6.214792 15.36737
v 7.672504 2.397792 15.36737
v 18.9465 6.197792 -5.155627
v -11.3255 -5.157265 -15.99713
v -10.7385 -5.157265 -15.67463
v -10.7385 6.214792 -15.67463
v -11.9125 6.214792 -16.31963
v -11.9125 -5.157265 -16.31963
v -11.3255 -5.157265 -15.99713
v -11.9125 6.214792 -16.31963
v -11.3255 -5.157265 -15.99713
v -10.7385 6.214792 -15.67463
v -12.4425 6.214792 -12.57263
v -10.7385 6.214792 -15.67463
v -10.7385 -5.157265 -15.67463
v -12.4425 -5.157265 -12.57263
v -12.4425 6.214792 -12.57263
v -7.132496 2.397792 -9.655627
v -7.132496 6.214792 -9.655627
v -12.4425 -5.157265 -12.57263
v -7.132496 -5.157265 -9.655627
v -7.132496 2.397792 -9.655627
v -12.4425 6.214792 -12.57263
v -12.4425 -5.157265 -12.57263
v -7.132496 2.397792 -9.655627
v -7.132496 2.397792 -9.655627
v -1.736496 2.397792 -6.691627
v -1.736496 6.214792 -6.691627
v -7.132496 6.214792 -9.655627
v 2.913504 6.214792 -13.96363
v 18.9465 6.197792 -5.155627
v 18.9465 -5.157265 -5.155627
v 2.913504 -5.157265 -13.96363
v 2.913504 -5.157265 -13.96363
v 3.726504 -5.157265 -15.44363
v 3.726504 6.214792 -15.44363
v 2.913504 6.214792 -13.96363
v -7.513496 6.214792 -21.61863
v -1.893496 -5.157265 -18.53113
v -7.513496 -5.157265 -21.61863
v -1.893496 -5.157265 -18.53113
v 3.726504 6.214792 -15.44363
v 3.726504 -5.157265 -15.44363
v -7.513496 6.214792 -21.61863
v 3.726504 6.214792 -15.44363
v -1.893496 -5.157265 -18.53113
v -9.150496 6.214792 -18.63663
v -7.513496 6.214792 -21.61863
v -7.513496 -5.157265 -21.61863
v -9.150496 -5.157265 -18.63663
v -10.2935 6.214792 -19.26463
v -9.150496 6.214792 -18.63663
v -9.150496 -5.157265 -18.63663
v -10.2935 -5.157265 -19.26463
v -11.9125 6.214792 -16.31963
v -10.2935 6.214792 -19.26463
v -10.2935 -5.157265 -19.26463
v -11.9125 -5.157265 -16.31963
v -8.864496 6.214792 6.283373
v -1.736496 6.214792 -6.691627
v -1.736496 2.397792 -6.691627
v -8.864496 2.397792 6.283373
v -8.864496 2.397792 6.283373
v 7.672504 2.397792 15.36737
v 7.672504 6.214792 15.36737
v -8.864496 6.214792 6.283373
v -7.132496 -5.157265 -9.655627
v -12.4425 -5.157265 -12.57263
v -10.7385 -5.157265 -15.67463
v -11.3255 -5.157265 -15.99713
v -11.9125 -5.157265 -16.31963
v -10.2935 -5.157265 -19.26463
v -9.150496 -5.157265 -18.63663
v -7.513496 -5.157265 -21.61863
v -1.893496 -5.157265 -18.53113
v 3.726504 -5.157265 -15.44363
v 2.913504 -5.157265 -13.96363
v 18.9465 -5.157265 -5.155627
v 7.672504 -5.157265 15.36737
v 4.041504 -5.157265 22.06637
v -6.864996 -5.157265 16.00237
v -17.7715 -5.157265 9.938374
v -17.7315 -5.157265 9.865374
v -17.6915 -5.157265 9.792374
v -20.1675 -5.157265 8.447873
v -22.6435 -5.157265 7.103373
v -18.8375 -5.157265 0.09337322
v -16.3615 -5.157265 1.437873
v -13.8855 -5.157265 2.782373
v -10.509 -5.157265 -3.436627
vt 0.402786 0.911850
vt 0.354204 0.855318
vt 0.460650 0.815099
vt 0.509075 0.871694
vt 0.778634 0.954916
vt 0.753160 0.965598
vt 0.745975 0.956929
vt 0.771448 0.946257
vt 0.243443 0.442771
vt 0.046633 0.521262
vt 0.000894 0.462669
vt 0.189571 0.388293
vt 0.243443 0.442771
vt 0.485212 0.582351
vt 0.383591 0.622334
vt 0.376182 0.483098
vt 0.485212 0.582351
vt 0.383536 0.492000
vt 0.298132 0.345489
vt 0.485212 0.582351
vt 0.376182 0.483098
vt 0.298132 0.345489
vt 0.376182 0.483098
vt 0.243443 0.442771
vt 0.243443 0.442771
vt 0.357466 0.502983
vt 0.485212 0.582351
vt 0.243443 0.442771
vt 0.376182 0.483098
vt 0.350112 0.494070
vt 0.243443 0.442771
vt 0.350112 0.494070
vt 0.357466 0.502983
vt 0.383536 0.492000
vt 0.485212 0.582351
vt 0.357466 0.502983
vt 0.295917 0.346371
vt 0.243443 0.442771
vt 0.189571 0.388293
vt 0.298132 0.345489
vt 0.243443 0.442771
vt 0.295917 0.346371
vt 0.427774 0.038599
vt 0.568618 0.219084
vt 0.229989 0.117493
vt 0.229989 0.117493
vt 0.568618 0.219084
vt 0.255874 0.343839
vt 0.229989 0.117493
vt 0.255874 0.343839
vt 0.119222 0.168878
vt 0.184024 0.058599
vt 0.229989 0.117493
vt 0.119222 0.168878
vt 0.000894 0.055203
vt 0.119222 0.168878
vt 0.096664 0.177875
vt 0.138784 0.000640
vt 0.184024 0.058599
vt 0.091500 0.019502
vt 0.046347 0.037083
vt 0.184024 0.058599
vt 0.119222 0.168878
vt 0.000894 0.055203
vt 0.091500 0.019502
vt 0.046347 0.037083
vt 0.036607 0.024608
vt 0.081496 0.006687
vt 0.091500 0.019502
vt 0.184024 0.058599
vt 0.046347 0.037083
vt 0.875239 0.841593
vt 0.895199 0.868087
vt 0.867518 0.884124
vt 0.831843 0.828102
vt 0.855278 0.815099
vt 0.875239 0.841593
vt 0.831843 0.828102
vt 0.875239 0.841593
vt 0.867518 0.884124
vt 0.786827 0.890023
vt 0.810276 0.841579
vt 0.829873 0.868058
vt 0.810276 0.841579
vt 0.738819 0.840907
vt 0.790678 0.815099
vt 0.786827 0.890023
vt 0.738819 0.840907
vt 0.810276 0.841579
vt 0.000894 0.986202
vt 0.107162 0.946257
vt 0.150849 0.959917
vt 0.045374 0.999563
vt 0.811114 0.950807
vt 0.785811 0.961493
vt 0.780859 0.956961
vt 0.806204 0.946257
vt 0.857378 0.959211
vt 0.850626 0.950663
vt 0.860068 0.946257
vt 0.866808 0.954792
vt 0.813059 0.956415
vt 0.838729 0.946257
vt 0.848520 0.949427
vt 0.822892 0.959569
vt 0.874102 0.946257
vt 0.880832 0.954747
vt 0.876151 0.957815
vt 0.869410 0.949311
vt 0.000894 0.927735
vt 0.056892 0.944232
vt 0.055790 0.944651
vt 0.000894 0.927735
vt 0.003119 0.926888
vt 0.056892 0.944232
vt 0.056892 0.944232
vt 0.003119 0.926888
vt 0.004233 0.927232
vt 0.056892 0.944232
vt 0.004233 0.927232
vt 0.057995 0.943812
vt 0.109925 0.886596
vt 0.257727 0.868467
vt 0.111020 0.886947
vt 0.111020 0.886947
vt 0.257727 0.868467
vt 0.163829 0.903888
vt 0.257727 0.868467
vt 0.299452 0.815099
vt 0.351631 0.833044
vt 0.109925 0.886596
vt 0.299452 0.815099
vt 0.257727 0.868467
vt 0.003119 0.926888
vt 0.109925 0.886596
vt 0.111020 0.886947
vt 0.004233 0.927232
vt 0.606894 0.462972
vt 0.697791 0.580442
vt 0.670958 0.599077
vt 0.487478 0.361961
vt 0.515989 0.345489
vt 0.606894 0.462972
vt 0.487478 0.361961
vt 0.606894 0.462972
vt 0.670958 0.599077
vt 0.455306 0.649086
vt 0.354880 0.689129
vt 0.327005 0.664214
vt 0.428358 0.623800
vt 0.354880 0.689129
vt 0.047273 0.813413
vt 0.000894 0.777528
vt 0.327005 0.664214
vt 0.312725 0.651451
vt 0.327005 0.664214
vt 0.000894 0.777528
vt 0.738907 0.952492
vt 0.743689 0.958726
vt 0.695745 0.984318
vt 0.686047 0.971675
vt 0.734124 0.946257
vt 0.738907 0.952492
vt 0.686047 0.971675
vt 0.738907 0.952492
vt 0.695745 0.984318
vt 0.312165 0.964216
vt 0.359441 0.946257
vt 0.436745 0.972593
vt 0.390116 0.990306
vt 0.780859 0.649449
vt 0.840945 0.698368
vt 0.825018 0.707325
vt 0.828485 0.623800
vt 0.872036 0.680882
vt 0.840945 0.698368
vt 0.780859 0.649449
vt 0.828485 0.623800
vt 0.840945 0.698368
vt 0.840945 0.698368
vt 0.885604 0.756905
vt 0.869886 0.766136
vt 0.825018 0.707325
vt 0.831160 0.555553
vt 0.700358 0.380652
vt 0.779033 0.345489
vt 0.908159 0.517950
vt 0.309809 0.984218
vt 0.287861 0.993092
vt 0.239714 0.955255
vt 0.261968 0.946257
vt 0.703482 0.783694
vt 0.733629 0.684189
vt 0.778837 0.744574
vt 0.733629 0.684189
vt 0.611807 0.661250
vt 0.688419 0.623800
vt 0.703482 0.783694
vt 0.611807 0.661250
vt 0.733629 0.684189
vt 0.439177 0.963511
vt 0.484618 0.946257
vt 0.560665 0.973060
vt 0.515846 0.990077
vt 0.162227 0.997637
vt 0.152952 0.985289
vt 0.228536 0.946257
vt 0.237684 0.958436
vt 0.562612 0.963318
vt 0.607488 0.946257
vt 0.684029 0.972647
vt 0.639767 0.989473
vt 0.511628 0.890750
vt 0.709992 0.815099
vt 0.736889 0.824542
vt 0.539446 0.899841
vt 0.472801 0.623800
vt 0.610002 0.803394
vt 0.595804 0.813115
vt 0.457961 0.632682
vt 0.882826 0.946257
vt 0.882826 0.946257
vt 0.882826 0.946257
vt 0.882826 0.946257
vt 0.882826 0.946257
vt 0.882826 0.946257
vt 0.882826 0.946257
vt 0.882826 0.946257
vt 0.882826 0.946257
vt 0.882826 0.946257
vt 0.882826 0.946257
vt 0.882826 0.946257
vt 0.882826 0.946257
vt 0.882826 0.946257
vt 0.882826 0.946257
vt 0.882826 0.946257
vt 0.882826 0.946257
vt 0.882826 0.946257
vt 0.882826 0.946257
vt 0.882826 0.946257
vt 0.882826 0.946257
vt 0.882826 0.946257
vt 0.882826 0.946257
vt 0.882826 0.946257
vn -0.1840667 0.97782 -0.09993694
vn -0.1840667 0.97782 -0.09993694
vn -0.1840667 0.97782 -0.09993694
vn -0.1840667 0.97782 -0.09993694
vn 0 1 0
vn 0 1 0
vn 0 1 0
vn 0 1 0
vn 0 1 0
vn 0 1 0
vn 0 1 0
vn 0 1 0
vn 0 1 0
vn 0 1 0
vn 0 1 0
vn 0 1 0
vn 0 1 0
vn 0 1 0
vn 0 1 0
vn 0 1 0
vn 0 1 0
vn 0 1 0
vn 0 1 0
vn 0 1 0
vn 0 1 0
vn 0 1 0
vn 0 1 0
vn 0 1 0
vn 0 1 0
vn 0 1 0
vn 0 1 0
vn 0 1 0
vn 0 1 0
vn 0 1 0
vn 0 1 0
vn 0 1 0
vn 0 1 0
vn 0 1 0
vn 0 1 0
vn 0 1 0
vn 0 1 0
vn 0 1 0
vn 0 1 0
vn 0 1 0
vn 0 1 0
vn 0.0008488182 0.9999996 -0.0003620531
vn 0.0008488182 0.9999996 -0.0003620531
vn 0.0008488182 0.9999996 -0.0003620531
vn 0.000784669 0.9999996 0.0005017479
vn 0.000784669 0.9999996 0.0005017479
vn 0.000784669 0.9999996 0.0005017479
vn 0 1 0
vn 0 1 0
vn 0 1 0
vn 0 1 0
vn 0 1 0
vn 0 1 0
vn 0 1 0
vn 0 1 0
vn 0 1 0
vn 0 1 0
vn 0 1 0
vn 0 1 0
vn 0 1 0
vn 0 1 0
vn 0 1 0
vn 0 1 0
vn 0 1 0
vn 0 1 0
vn 0 1 0
vn 0 1 0
vn -0.4771976 0 0.878796
vn -0.4771976 0 0.878796
vn -0.4771976 0 0.878796
vn -0.4771976 0 0.878796
vn -0.4771976 0 0.878796
vn -0.4771976 0 0.878796
vn -0.4771976 5.814099E-11 0.878796
vn -0.4771976 5.814099E-11 0.878796
vn -0.4771976 5.814099E-11 0.878796
vn 0.4771976 0 -0.878796
vn 0.4771976 0 -0.878796
vn 0.4771976 0 -0.878796
vn 0.4771976 0 -0.878796
vn 0.4771976 0 -0.878796
vn 0.4771976 0 -0.878796
vn 0.4771976 6.018352E-11 -0.878796
vn 0.4771976 6.018352E-11 -0.878796
vn 0.4771976 6.018352E-11 -0.878796
vn -0.8788234 0 -0.4771472
vn -0.8788234 0 -0.4771472
vn -0.8788234 0 -0.4771472
vn -0.8788234 0 -0.4771472
vn 0.8648171 0 0.502087
vn 0.8648171 0 0.502087
vn 0.8648171 0 0.502087
vn 0.8648171 0 0.502087
vn 0.5023642 0 -0.8646562
vn 0.5023642 0 -0.8646562
vn 0.5023642 0 -0.8646562
vn 0.5023642 0 -0.8646562
vn -0.8650355 0 -0.5017105
vn -0.8650355 0 -0.5017105
vn -0.8650355 0 -0.5017105
vn -0.8650355 0 -0.5017105
vn -0.502822 0 0.86439
vn -0.502822 0 0.86439
vn -0.502822 0 0.86439
vn -0.502822 0 0.86439
vn -0.8769757 0 -0.4805346
vn -0.8769757 0 -0.4805346
vn -0.8769757 0 -0.4805346
vn -0.8769757 0 -0.4805346
vn -0.8769757 0 -0.4805346
vn -0.8769757 0 -0.4805346
vn -0.8769757 0 -0.4805346
vn -0.8769757 0 -0.4805346
vn -0.8769757 0 -0.4805346
vn -0.8769757 0 -0.4805346
vn -0.8769757 0 -0.4805346
vn -0.8769757 0 -0.4805346
vn -0.8788255 0 -0.4771433
vn -0.8788255 0 -0.4771433
vn -0.8788255 0 -0.4771433
vn -0.8788255 0 -0.4771433
vn -0.8788255 0 -0.4771433
vn -0.8788255 0 -0.4771433
vn -0.8788255 0 -0.4771433
vn -0.8788255 0 -0.4771433
vn -0.8788255 0 -0.4771433
vn -0.8788255 3.279453E-11 -0.4771433
vn -0.8788255 3.279453E-11 -0.4771433
vn -0.8788255 3.279453E-11 -0.4771433
vn -0.8788234 0 -0.4771472
vn -0.8788234 0 -0.4771472
vn -0.8788234 0 -0.4771472
vn -0.8788234 0 -0.4771472
vn -0.4859389 0 0.8739928
vn -0.4859389 0 0.8739928
vn -0.4859389 0 0.8739928
vn -0.4859389 0 0.8739928
vn -0.4859389 0 0.8739928
vn -0.4859389 0 0.8739928
vn -0.4859389 0 0.8739928
vn -0.4859389 0 0.8739928
vn -0.4859389 0 0.8739928
vn 0.8791614 0 0.4765241
vn 0.8791614 0 0.4765241
vn 0.8791614 0 0.4765241
vn 0.8791614 0 0.4765241
vn 0.8764619 0 0.4814711
vn 0.8764619 0 0.4814711
vn 0.8764619 0 0.4814711
vn 0.8764619 0 0.4814711
vn 0.8764619 0 0.4814711
vn 0.8764619 0 0.4814711
vn 0.8764619 0 0.4814711
vn -0.4815175 0 0.8764365
vn -0.4815175 0 0.8764365
vn -0.4815175 0 0.8764365
vn -0.4815175 0 0.8764365
vn -0.4815175 0 0.8764365
vn -0.4815175 0 0.8764365
vn -0.4815175 0 0.8764365
vn -0.4815175 0 0.8764365
vn -0.4815175 0 0.8764365
vn -0.8764663 0 -0.4814631
vn -0.8764663 0 -0.4814631
vn -0.8764663 0 -0.4814631
vn -0.8764663 0 -0.4814631
vn -0.4814751 0 0.8764597
vn -0.4814751 0 0.8764597
vn -0.4814751 0 0.8764597
vn -0.4814751 0 0.8764597
vn -0.4814751 0 0.8764597
vn -0.4814751 0 0.8764597
vn -0.4814751 0 0.8764597
vn -0.4814751 0 0.8764597
vn -0.4814751 0 0.8764597
vn -0.4814448 0 0.8764764
vn -0.4814448 0 0.8764764
vn -0.4814448 0 0.8764764
vn -0.4814448 0 0.8764764
vn 0.4814927 0 -0.8764501
vn 0.4814927 0 -0.8764501
vn 0.4814927 0 -0.8764501
vn 0.4814927 0 -0.8764501
vn 0.8764659 0 0.481464
vn 0.8764659 0 0.481464
vn 0.8764659 0 0.481464
vn 0.8764659 0 0.481464
vn 0.4814996 0 -0.8764463
vn 0.4814996 0 -0.8764463
vn 0.4814996 0 -0.8764463
vn 0.4814996 0 -0.8764463
vn 0.4814996 0 -0.8764463
vn 0.4814996 0 -0.8764463
vn 0.4814996 0 -0.8764463
vn 0.4814996 0 -0.8764463
vn 0.4814996 0 -0.8764463
vn -0.8766004 0 -0.481219
vn -0.8766004 0 -0.481219
vn -0.8766004 0 -0.481219
vn -0.8766004 0 -0.481219
vn 0.4815361 0 -0.8764263
vn 0.4815361 0 -0.8764263
vn 0.4815361 0 -0.8764263
vn 0.4815361 0 -0.8764263
vn -0.8763101 0 -0.4817474
vn -0.8763101 0 -0.4817474
vn -0.8763101 0 -0.4817474
vn -0.8763101 0 -0.4817474
vn -0.8764511 0 -0.4814909
vn -0.8764511 0 -0.4814909
vn -0.8764511 0 -0.4814909
vn -0.8764511 0 -0.4814909
vn -0.4814568 0 0.8764698
vn -0.4814568 0 0.8764698
vn -0.4814568 0 0.8764698
vn -0.4814568 0 0.8764698
vn 0 -1 0
vn 0 -1 0
vn 0 -1 0
vn 0 -1 0
vn 0 -1 0
vn 0 -1 0
vn 0 -1 0
vn 0 -1 0
vn 0 -1 0
vn 0 -1 0
vn 0 -1 0
vn 0 -1 0
vn 0 -1 0
vn 0 -1 0
vn 0 -1 0
vn 0 -1 0
vn 0 -1 0
vn 0 -1 0
vn 0 -1 0
vn 0 -1 0
vn 0 -1 0
vn 0 -1 0
vn 0 -1 0
vn 0 -1 0

g CDNNDG01_0002680
f 1/1/1 3/3/3 4/4/4
f 1/1/1 2/2/2 3/3/3
f 6/6/6 7/7/7 8/8/8
f 5/5/5 6/6/6 8/8/8
f 10/10/10 11/11/11 12/12/12
f 9/9/9 10/10/10 12/12/12
f 13/13/13 14/14/14 15/15/15
f 16/16/16 17/17/17 18/18/18
f 19/19/19 20/20/20 21/21/21
f 22/22/22 23/23/23 24/24/24
f 25/25/25 26/26/26 27/27/27
f 28/28/28 29/29/29 30/30/30
f 31/31/31 32/32/32 33/33/33
f 34/34/34 35/35/35 36/36/36
f 37/37/37 38/38/38 39/39/39
f 40/40/40 41/41/41 42/42/42
f 43/43/43 44/44/44 45/45/45
f 46/46/46 47/47/47 48/48/48
f 49/49/49 50/50/50 51/51/51
f 52/52/52 53/53/53 54/54/54
f 55/55/55 56/56/56 57/57/57
f 58/58/58 59/59/59 60/60/60
f 64/64/64 61/61/61 63/63/63
f 62/62/62 63/63/63 61/61/61
f 68/68/68 65/65/65 66/66/66
f 67/67/67 68/68/68 66/66/66
f 69/69/69 70/70/70 71/71/71
f 72/72/72 73/73/73 74/74/74
f 75/75/75 76/76/76 77/77/77
f 78/78/78 79/79/79 80/80/80
f 81/81/81 82/82/82 83/83/83
f 84/84/84 85/85/85 86/86/86
f 87/87/87 88/88/88 89/89/89
f 90/90/90 92/92/92 93/93/93
f 90/90/90 91/91/91 92/92/92
f 97/97/97 94/94/94 96/96/96
f 95/95/95 96/96/96 94/94/94
f 101/101/101 98/98/98 99/99/99
f 99/99/99 100/100/100 101/101/101
f 102/102/102 104/104/104 105/105/105
f 102/102/102 103/103/103 104/104/104
f 106/106/106 108/108/108 109/109/109
f 108/108/108 106/106/106 107/107/107
f 110/110/110 111/111/111 112/112/112
f 113/113/113 114/114/114 115/115/115
f 116/116/116 117/117/117 118/118/118
f 119/119/119 120/120/120 121/121/121
f 122/122/122 123/123/123 124/124/124
f 125/125/125 126/126/126 127/127/127
f 128/128/128 129/129/129 130/130/130
f 131/131/131 132/132/132 133/133/133
f 134/134/134 136/136/136 137/137/137
f 134/134/134 135/135/135 136/136/136
f 138/138/138 139/139/139 140/140/140
f 141/141/141 142/142/142 143/143/143
f 144/144/144 145/145/145 146/146/146
f 150/150/150 147/147/147 149/149/149
f 148/148/148 149/149/149 147/147/147
f 152/152/152 153/153/153 154/154/154
f 151/151/151 152/152/152 154/154/154
f 155/155/155 156/156/156 157/157/157
f 158/158/158 159/159/159 160/160/160
f 161/161/161 162/162/162 163/163/163
f 164/164/164 165/165/165 166/166/166
f 167/167/167 169/169/169 170/170/170
f 167/167/167 168/168/168 169/169/169
f 171/171/171 172/172/172 173/173/173
f 174/174/174 175/175/175 176/176/176
f 177/177/177 178/178/178 179/179/179
f 180/180/180 182/182/182 183/183/183
f 182/182/182 180/180/180 181/181/181
f 185/185/185 186/186/186 187/187/187
f 184/184/184 185/185/185 187/187/187
f 189/189/189 190/190/190 188/188/188
f 188/188/188 190/190/190 191/191/191
f 192/192/192 193/193/193 194/194/194
f 195/195/195 196/196/196 197/197/197
f 198/198/198 199/199/199 200/200/200
f 201/201/201 202/202/202 203/203/203
f 204/204/204 201/201/201 203/203/203
f 205/205/205 207/207/207 208/208/208
f 205/205/205 206/206/206 207/207/207
f 209/209/209 211/211/211 212/212/212
f 209/209/209 210/210/210 211/211/211
f 213/213/213 215/215/215 216/216/216
f 213/213/213 214/214/214 215/215/215
f 220/220/220 217/217/217 219/219/219
f 219/219/219 217/217/217 218/218/218
f 235/235/235 243/243/243 244/244/244
f 221/221/221 222/222/222 223/223/223
f 221/221/221 223/223/223 229/229/229
f 223/223/223 224/224/224 227/227/227
f 224/224/224 225/225/225 226/226/226
f 239/239/239 242/242/242 243/243/243
f 224/224/224 226/226/226 227/227/227
f 229/229/229 223/223/223 227/227/227
f 227/227/227 228/228/228 229/229/229
f 240/240/240 241/241/241 242/242/242
f 221/221/221 229/229/229 231/231/231
f 229/229/229 230/230/230 231/231/231
f 221/221/221 231/231/231 244/244/244
f 239/239/239 240/240/240 242/242/242
f 231/231/231 232/232/232 233/233/233
f 238/238/238 239/239/239 243/243/243
f 231/231/231 233/233/233 244/244/244
f 233/233/233 234/234/234 235/235/235
f 233/233/233 235/235/235 244/244/244
f 235/235/235 236/236/236 237/237/237
f 235/235/235 238/238/238 243/243/243
f 235/235/235 237/237/237 238/238/238
