v -5.779813 4.359552 13.00215
v 12.13019 4.359552 -11.94885
v 5.831187 4.359552 -15.96785
v -5.779813 4.359552 13.00215
v -4.365813 4.359552 13.90515
v 12.13019 4.359552 -11.94885
v -12.38081 4.359552 12.57315
v -5.779813 4.359552 13.00215
v 5.831187 4.359552 -15.96785
v -12.38081 4.359552 12.57315
v -7.495813 4.359552 15.69115
v -5.779813 4.359552 13.00215
v -5.072813 -4.359552 13.45365
v -4.365813 -4.359552 13.90515
v -4.365813 4.359552 13.90515
v -5.779813 4.359552 13.00215
v -5.779813 -4.359552 13.00215
v -5.072813 -4.359552 13.45365
v -5.779813 4.359552 13.00215
v -5.072813 -4.359552 13.45365
v -4.365813 4.359552 13.90515
v 3.882187 -4.359552 0.9781469
v 12.13019 -4.359552 -11.94885
v 12.13019 4.359552 -11.94885
v -4.365813 4.359552 13.90515
v -4.365813 -4.359552 13.90515
v 3.882187 -4.359552 0.9781469
v -4.365813 4.359552 13.90515
v 3.882187 -4.359552 0.9781469
v 12.13019 4.359552 -11.94885
v 5.831187 -4.359552 -15.96785
v 5.831187 4.359552 -15.96785
v 12.13019 4.359552 -11.94885
v 12.13019 -4.359552 -11.94885
v -12.38081 -4.359552 12.57315
v -12.38081 4.359552 12.57315
v 5.831187 -4.359552 -15.96785
v 5.831187 4.359552 -15.96785
v -12.38081 4.359552 12.57315
v -12.38081 -4.359552 12.57315
v -7.495813 4.359552 15.69115
v -7.495813 -4.359552 15.69115
v -5.779813 -4.359552 13.00215
v -5.779813 4.359552 13.00215
v -7.495813 4.359552 15.69115
v -7.495813 -4.359552 15.69115
v -12.38081 -4.359552 12.57315
v 3.882187 -4.359552 0.9781469
v -5.779813 -4.359552 13.00215
v -7.495813 -4.359552 15.69115
v -5.072813 -4.359552 13.45365
v -4.365813 -4.359552 13.90515
v 5.831187 -4.359552 -15.96785
v 12.13019 -4.359552 -11.94885
vt 0.289331 0.590057
vt 0.039641 0.724471
vt 0.000582 0.676038
vt 0.289331 0.590057
vt 0.298106 0.600932
vt 0.039641 0.724471
vt 0.285918 0.539633
vt 0.289331 0.590057
vt 0.000582 0.676038
vt 0.285918 0.539633
vt 0.316218 0.577204
vt 0.289331 0.590057
vt 0.948807 0.969548
vt 0.948807 0.969548
vt 0.948807 0.969548
vt 0.948807 0.969548
vt 0.948807 0.969548
vt 0.948807 0.969548
vt 0.948807 0.969548
vt 0.948807 0.969548
vt 0.948807 0.969548
vt 0.940081 0.969548
vt 0.940081 0.969548
vt 0.940081 0.969548
vt 0.940081 0.969548
vt 0.940081 0.969548
vt 0.940081 0.969548
vt 0.940081 0.969548
vt 0.940081 0.969548
vt 0.940081 0.969548
vt 0.624200 0.876737
vt 0.635180 0.872817
vt 0.673861 0.920953
vt 0.662473 0.924365
vt 0.284026 0.725481
vt 0.297988 0.738020
vt 0.000582 0.857891
vt 0.011523 0.871839
vt 0.945899 0.969548
vt 0.945899 0.969548
vt 0.945899 0.969548
vt 0.945899 0.969548
vt 0.942990 0.969548
vt 0.942990 0.969548
vt 0.942990 0.969548
vt 0.942990 0.969548
vt 0.966259 0.969548
vt 0.966259 0.969548
vt 0.966259 0.969548
vt 0.966259 0.969548
vt 0.966259 0.969548
vt 0.966259 0.969548
vt 0.966259 0.969548
vt 0.966259 0.969548
vn 0 1 0
vn 0 1 0
vn 0 1 0
vn 0 1 0
vn 0 1 0
vn 0 1 0
vn 0 1 0
vn 0 1 0
vn 0 1 0
vn 0 1 0
vn 0 1 0
vn 0 1 0
vn -0.5382246 0 0.8428014
vn -0.5382246 0 0.8428014
vn -0.5382246 0 0.8428014
vn -0.5382246 0 0.8428014
vn -0.5382246 0 0.8428014
vn -0.5382246 0 0.8428014
vn -0.5382246 -4.50115E-11 0.8428014
vn -0.5382246 -4.50115E-11 0.8428014
vn -0.5382246 -4.50115E-11 0.8428014
vn 0.8430191 0 0.5378836
vn 0.8430191 0 0.5378836
vn 0.8430191 0 0.5378836
vn 0.8430191 0 0.5378836
vn 0.8430191 0 0.5378836
vn 0.8430191 0 0.5378836
vn 0.8430191 2.813999E-12 0.5378836
vn 0.8430191 2.813999E-12 0.5378836
vn 0.8430191 2.813999E-12 0.5378836
vn 0.5378796 0 -0.8430216
vn 0.5378796 0 -0.8430216
vn 0.5378796 0 -0.8430216
vn 0.5378796 0 -0.8430216
vn -0.842998 0 -0.5379167
vn -0.842998 0 -0.5379167
vn -0.842998 0 -0.5379167
vn -0.842998 0 -0.5379167
vn -0.538025 0 0.8429289
vn -0.538025 0 0.8429289
vn -0.538025 0 0.8429289
vn -0.538025 0 0.8429289
vn 0.8429766 0 0.5379502
vn 0.8429766 0 0.5379502
vn 0.8429766 0 0.5379502
vn 0.8429766 0 0.5379502
vn 0 -1 0
vn 0 -1 0
vn 0 -1 0
vn 0 -1 0
vn 0 -1 0
vn 0 -1 0
vn 0 -1 0
vn 0 -1 0

g CDNNDG02_0018030
f 1/1/1 2/2/2 3/3/3
f 4/4/4 5/5/5 6/6/6
f 7/7/7 8/8/8 9/9/9
f 10/10/10 11/11/11 12/12/12
f 13/13/13 14/14/14 15/15/15
f 16/16/16 17/17/17 18/18/18
f 19/19/19 20/20/20 21/21/21
f 22/22/22 23/23/23 24/24/24
f 25/25/25 26/26/26 27/27/27
f 28/28/28 29/29/29 30/30/30
f 31/31/31 32/32/32 33/33/33
f 33/33/33 34/34/34 31/31/31
f 35/35/35 36/36/36 37/37/37
f 37/37/37 36/36/36 38/38/38
f 39/39/39 40/40/40 41/41/41
f 41/41/41 40/40/40 42/42/42
f 43/43/43 44/44/44 45/45/45
f 46/46/46 43/43/43 45/45/45
f 47/47/47 48/48/48 49/49/49
f 47/47/47 49/49/49 50/50/50
f 49/49/49 48/48/48 51/51/51
f 51/51/51 48/48/48 52/52/52
f 48/48/48 53/53/53 54/54/54
f 47/47/47 53/53/53 48/48/48
