v 1.023924 7.150254 1.807522
v 6.809925 7.150254 1.313522
v 7.173924 7.150254 0.739522
v 1.023924 7.150254 1.807522
v 6.915925 7.150254 5.447522
v 7.131291 7.150254 1.517489
v 1.023924 7.150254 1.807522
v 7.131291 7.150254 1.517489
v 6.809925 7.150254 1.313522
v -4.026075 7.150254 -6.370478
v 1.023924 7.150254 1.807522
v 7.173924 7.150254 0.739522
v 6.915925 7.150254 5.447522
v 7.351924 7.150254 1.657522
v 7.131291 7.150254 1.517489
v 6.915925 7.150254 5.447522
v 7.715924 7.150254 1.083522
v 7.351924 7.150254 1.657522
v -11.08108 7.150254 -1.901478
v -3.064075 7.150254 3.119522
v -4.026075 7.150254 -6.370478
v -3.064075 7.150254 3.119522
v -2.041075 7.150254 3.759522
v -0.7270756 7.150254 1.660522
v 6.915925 7.150254 5.447522
v 9.120924 7.150254 1.976522
v 7.715924 7.150254 1.083522
v -4.026075 7.150254 -6.370478
v -0.7270756 7.150254 1.660522
v 1.023924 7.150254 1.807522
v -4.026075 7.150254 -6.370478
v -3.064075 7.150254 3.119522
v -0.7270756 7.150254 1.660522
v 1.023924 7.150254 1.807522
v 6.870924 7.150254 5.520522
v 6.915925 7.150254 5.447522
v 6.809925 8.549254 1.313522
v 7.351924 8.549254 1.657522
v 7.715924 8.549254 1.083522
v 6.809925 8.549254 1.313522
v 7.715924 8.549254 1.083522
v 7.173924 8.548254 0.739522
v 6.915925 5.926254 5.447522
v 9.528924 5.926254 7.106522
v 11.44292 5.926254 3.450522
v 9.120924 5.926254 1.976522
v 9.528924 5.926254 7.106522
v 11.73292 5.926254 3.634522
v 11.44292 5.926254 3.450522
v -1.384076 -7.031913 2.710022
v -0.7270756 -7.031913 1.660522
v -0.7270756 7.150254 1.660522
v -2.041075 7.150254 3.759522
v -2.041075 -7.031913 3.759522
v -1.384076 -7.031913 2.710022
v -2.041075 7.150254 3.759522
v -1.384076 -7.031913 2.710022
v -0.7270756 7.150254 1.660522
v -0.7270756 -7.031913 1.660522
v 1.023924 -7.031913 1.807522
v 1.023924 7.150254 1.807522
v -0.7270756 7.150254 1.660522
v 1.023924 -7.031913 1.807522
v 6.870924 -7.031913 5.520522
v 6.870924 7.150254 5.520522
v 1.023924 7.150254 1.807522
v 6.870924 7.150254 5.520522
v 6.915925 5.926254 5.447522
v 6.915925 7.150254 5.447522
v 6.870924 -7.031913 5.520522
v 6.915925 -7.031913 5.447522
v 6.915925 5.926254 5.447522
v 6.870924 7.150254 5.520522
v 6.915925 5.926254 5.447522
v 9.120924 5.926254 1.976522
v 9.120924 7.150254 1.976522
v 6.915925 7.150254 5.447522
v 7.715924 7.150254 1.083522
v 9.120924 5.926254 1.976522
v 9.120924 -7.031913 1.976522
v 7.715924 -7.031913 1.083522
v 7.715924 7.150254 1.083522
v 9.120924 7.150254 1.976522
v 9.120924 5.926254 1.976522
v 7.173924 7.150254 0.739522
v 7.715924 7.150254 1.083522
v 7.715924 -7.031913 1.083522
v 7.173924 -7.031913 0.739522
v -4.026075 7.150254 -6.370478
v 1.573924 -7.031913 -2.815478
v -4.026075 -7.031913 -6.370478
v 1.573924 -7.031913 -2.815478
v 7.173924 7.150254 0.739522
v 7.173924 -7.031913 0.739522
v -4.026075 7.150254 -6.370478
v 7.173924 7.150254 0.739522
v 1.573924 -7.031913 -2.815478
v 7.173924 8.548254 0.739522
v 7.715924 8.549254 1.083522
v 7.715924 7.150254 1.083522
v 7.173924 7.150254 0.739522
v 11.44292 5.926254 3.450522
v 11.73292 5.926254 3.634522
v 11.73292 -7.031913 3.634522
v 11.44292 -7.031913 3.450522
v 9.120924 5.926254 1.976522
v 11.44292 5.926254 3.450522
v 11.44292 -7.031913 3.450522
v 9.120924 -7.031913 1.976522
v -11.08108 7.150254 -1.901478
v -7.553576 -7.031913 -4.135978
v -11.08108 -7.031913 -1.901478
v -7.553576 -7.031913 -4.135978
v -4.026075 7.150254 -6.370478
v -4.026075 -7.031913 -6.370478
v -11.08108 7.150254 -1.901478
v -4.026075 7.150254 -6.370478
v -7.553576 -7.031913 -4.135978
v -11.08108 -7.031913 -1.901478
v -3.064075 -7.031913 3.119522
v -3.064075 7.150254 3.119522
v -11.08108 7.150254 -1.901478
v -3.064075 -7.031913 3.119522
v -2.041075 -7.031913 3.759522
v -2.041075 7.150254 3.759522
v -3.064075 7.150254 3.119522
v 7.131291 7.150254 1.517489
v 7.351924 7.150254 1.657522
v 7.351924 8.549254 1.657522
v 6.809925 8.549254 1.313522
v 6.809925 7.150254 1.313522
v 7.131291 7.150254 1.517489
v 6.809925 8.549254 1.313522
v 7.131291 7.150254 1.517489
v 7.351924 8.549254 1.657522
v 7.351924 7.150254 1.657522
v 7.715924 7.150254 1.083522
v 7.715924 8.549254 1.083522
v 7.351924 8.549254 1.657522
v 6.809925 8.549254 1.313522
v 7.173924 8.548254 0.739522
v 7.173924 7.150254 0.739522
v 6.809925 7.150254 1.313522
v 6.915925 -7.031913 5.447522
v 9.528924 -7.031913 7.106522
v 9.528924 5.926254 7.106522
v 6.915925 5.926254 5.447522
v 10.63092 -7.031913 5.370522
v 11.73292 -7.031913 3.634522
v 11.73292 5.926254 3.634522
v 9.528924 5.926254 7.106522
v 9.528924 -7.031913 7.106522
v 10.63092 -7.031913 5.370522
v 9.528924 5.926254 7.106522
v 10.63092 -7.031913 5.370522
v 11.73292 5.926254 3.634522
v -3.064075 -7.031913 3.119522
v -11.08108 -7.031913 -1.901478
v -7.553576 -7.031913 -4.135978
v -4.026075 -7.031913 -6.370478
v 1.573924 -7.031913 -2.815478
v 7.173924 -7.031913 0.739522
v 7.715924 -7.031913 1.083522
v 9.120924 -7.031913 1.976522
v 11.44292 -7.031913 3.450522
v 11.73292 -7.031913 3.634522
v 10.63092 -7.031913 5.370522
v 9.528924 -7.031913 7.106522
v 6.915925 -7.031913 5.447522
v 6.870924 -7.031913 5.520522
v 1.023924 -7.031913 1.807522
v -0.7270756 -7.031913 1.660522
v -1.384076 -7.031913 2.710022
v -2.041075 -7.031913 3.759522
vt 0.115139 0.188107
vt 0.130382 0.054653
vt 0.147942 0.046278
vt 0.115139 0.188107
vt 0.003978 0.052046
vt 0.124152 0.047232
vt 0.115139 0.188107
vt 0.124152 0.047232
vt 0.130382 0.054653
vt 0.365064 0.304916
vt 0.115139 0.188107
vt 0.147942 0.046278
vt 0.003978 0.052046
vt 0.119876 0.042136
vt 0.124152 0.047232
vt 0.003978 0.052046
vt 0.137436 0.033762
vt 0.119876 0.042136
vt 0.228250 0.467467
vt 0.074926 0.282354
vt 0.365064 0.304916
vt 0.074926 0.282354
vt 0.055382 0.258731
vt 0.119592 0.228504
vt 0.003978 0.052046
vt 0.110164 0.001314
vt 0.137436 0.033762
vt 0.365064 0.304916
vt 0.119592 0.228504
vt 0.115139 0.188107
vt 0.365064 0.304916
vt 0.074926 0.282354
vt 0.119592 0.228504
vt 0.115139 0.188107
vt 0.001745 0.053082
vt 0.003978 0.052046
vt 0.570162 0.909295
vt 0.560209 0.897506
vt 0.576845 0.889619
vt 0.570162 0.909295
vt 0.576845 0.889619
vt 0.586803 0.901406
vt 0.853065 0.856275
vt 0.802792 0.796564
vt 0.913758 0.753013
vt 0.958423 0.806076
vt 0.802792 0.796564
vt 0.908182 0.746386
vt 0.913758 0.753013
vt 0.528019 0.864391
vt 0.497106 0.879045
vt 0.293194 0.776211
vt 0.356108 0.746386
vt 0.558932 0.849737
vt 0.528019 0.864391
vt 0.356108 0.746386
vt 0.528019 0.864391
vt 0.293194 0.776211
vt 0.206849 0.889619
vt 0.211023 0.928483
vt 0.005995 0.998954
vt 0.001745 0.959403
vt 0.811185 0.470434
vt 0.920770 0.601305
vt 0.717113 0.674472
vt 0.605585 0.541289
vt 0.320970 0.889619
vt 0.336502 0.899366
vt 0.318780 0.890637
vt 0.523026 0.989176
vt 0.520874 0.990177
vt 0.336502 0.899366
vt 0.320970 0.889619
vt 0.336502 0.899366
vt 0.232540 0.949178
vt 0.214660 0.940525
vt 0.318780 0.890637
vt 0.441230 0.195514
vt 0.420993 0.154237
vt 0.496705 0.060193
vt 0.523738 0.091863
vt 0.441230 0.195514
vt 0.413714 0.163279
vt 0.420993 0.154237
vt 0.451830 0.207950
vt 0.441230 0.195514
vt 0.523738 0.091863
vt 0.534151 0.104080
vt 0.670896 0.464895
vt 0.641762 0.230304
vt 0.749367 0.356521
vt 0.641762 0.230304
vt 0.451830 0.207950
vt 0.534151 0.104080
vt 0.670896 0.464895
vt 0.451830 0.207950
vt 0.641762 0.230304
vt 0.443555 0.218390
vt 0.432931 0.205940
vt 0.441230 0.195514
vt 0.451830 0.207950
vt 0.375644 0.101044
vt 0.369983 0.094400
vt 0.446514 0.001314
vt 0.452084 0.007851
vt 0.420993 0.154237
vt 0.375644 0.101044
vt 0.452084 0.007851
vt 0.496705 0.060193
vt 0.380454 0.631905
vt 0.532526 0.622552
vt 0.463983 0.701862
vt 0.532526 0.622552
vt 0.520000 0.470434
vt 0.601073 0.543239
vt 0.380454 0.631905
vt 0.520000 0.470434
vt 0.532526 0.622552
vt 0.209464 0.470434
vt 0.357782 0.650173
vt 0.152694 0.719531
vt 0.001745 0.536617
vt 0.357782 0.650173
vt 0.376686 0.673107
vt 0.171934 0.742870
vt 0.152694 0.719531
vt 0.552529 0.896525
vt 0.556524 0.901267
vt 0.536880 0.908226
vt 0.527051 0.896558
vt 0.546711 0.889619
vt 0.552529 0.896525
vt 0.527051 0.896558
vt 0.552529 0.896525
vt 0.536880 0.908226
vt 0.627879 0.899066
vt 0.611350 0.906852
vt 0.591623 0.897419
vt 0.608180 0.889619
vt 0.631763 0.897256
vt 0.648523 0.889619
vt 0.656580 0.896843
vt 0.639855 0.904471
vt 0.749185 0.746386
vt 0.798054 0.804638
vt 0.613360 0.872078
vt 0.563700 0.812888
vt 0.238041 0.861181
vt 0.186887 0.885769
vt 0.001745 0.796355
vt 0.105695 0.746386
vt 0.289195 0.836592
vt 0.238041 0.861181
vt 0.105695 0.746386
vt 0.238041 0.861181
vt 0.001745 0.796355
vt 0.661431 0.889619
vt 0.661431 0.889619
vt 0.661431 0.889619
vt 0.661431 0.889619
vt 0.661431 0.889619
vt 0.661431 0.889619
vt 0.661431 0.889619
vt 0.661431 0.889619
vt 0.661431 0.889619
vt 0.661431 0.889619
vt 0.661431 0.889619
vt 0.661431 0.889619
vt 0.661431 0.889619
vt 0.661431 0.889619
vt 0.661431 0.889619
vt 0.661431 0.889619
vt 0.661431 0.889619
vt 0.661431 0.889619
vn 0 1 0
vn 0 1 0
vn 0 1 0
vn 0 1 0
vn 0 1 0
vn 0 1 0
vn 0 1 0
vn 0 1 0
vn 0 1 0
vn 0 1 0
vn 0 1 0
vn 0 1 0
vn 0 1 0
vn 0 1 0
vn 0 1 0
vn 0 1 0
vn 0 1 0
vn 0 1 0
vn 0 1 0
vn 0 1 0
vn 0 1 0
vn 0 1 0
vn 0 1 0
vn 0 1 0
vn 0 1 0
vn 0 1 0
vn 0 1 0
vn 0 1 0
vn 0 1 0
vn 0 1 0
vn 0 1 0
vn 0 1 0
vn 0 1 0
vn 0 1 0
vn 0 1 0
vn 0 1 0
vn 0 1 0
vn 0 1 0
vn 0 1 0
vn -0.00052713 0.9999977 -0.002076434
vn -0.00052713 0.9999977 -0.002076434
vn -0.00052713 0.9999977 -0.002076434
vn 0 1 0
vn 0 1 0
vn 0 1 0
vn 0 1 0
vn 0 1 0
vn 0 1 0
vn 0 1 0
vn 0.8476124 0 0.5306159
vn 0.8476124 0 0.5306159
vn 0.8476124 0 0.5306159
vn 0.8476124 0 0.5306159
vn 0.8476124 0 0.5306159
vn 0.8476124 0 0.5306159
vn 0.8476124 0 0.5306159
vn 0.8476124 0 0.5306159
vn 0.8476124 0 0.5306159
vn -0.08365773 0 0.9964945
vn -0.08365773 0 0.9964945
vn -0.08365773 0 0.9964945
vn -0.08365773 0 0.9964945
vn -0.5360718 0 0.8441724
vn -0.5360718 0 0.8441724
vn -0.5360718 0 0.8441724
vn -0.5360718 0 0.8441724
vn 0.8512577 0 0.5247479
vn 0.8512577 0 0.5247479
vn 0.8512577 0 0.5247479
vn 0.8512577 0 0.5247479
vn 0.8512577 0 0.5247479
vn 0.8512577 0 0.5247479
vn 0.8512577 0 0.5247479
vn 0.8440818 0 0.5362145
vn 0.8440818 0 0.5362145
vn 0.8440818 0 0.5362145
vn 0.8440818 0 0.5362145
vn 0.536409 0 -0.8439581
vn 0.536409 0 -0.8439581
vn 0.536409 0 -0.8439581
vn 0.536409 0 -0.8439581
vn 0.536409 0 -0.8439581
vn 0.536409 0 -0.8439581
vn 0.536409 0 -0.8439581
vn 0.5358672 0 -0.8443023
vn 0.5358672 0 -0.8443023
vn 0.5358672 0 -0.8443023
vn 0.5358672 0 -0.8443023
vn 0.5359485 0 -0.8442507
vn 0.5359485 0 -0.8442507
vn 0.5359485 0 -0.8442507
vn 0.5359485 0 -0.8442507
vn 0.5359485 0 -0.8442507
vn 0.5359485 0 -0.8442507
vn 0.5359485 2.772036E-11 -0.8442507
vn 0.5359485 2.772036E-11 -0.8442507
vn 0.5359485 2.772036E-11 -0.8442507
vn 0.5358672 0 -0.8443023
vn 0.5358672 0 -0.8443023
vn 0.5358672 0 -0.8443023
vn 0.5358672 0 -0.8443023
vn 0.5357446 0 -0.8443801
vn 0.5357446 0 -0.8443801
vn 0.5357446 0 -0.8443801
vn 0.5357446 0 -0.8443801
vn 0.5359341 0 -0.8442598
vn 0.5359341 0 -0.8442598
vn 0.5359341 0 -0.8442598
vn 0.5359341 0 -0.8442598
vn -0.5351233 0 -0.8447739
vn -0.5351233 0 -0.8447739
vn -0.5351233 0 -0.8447739
vn -0.5351233 0 -0.8447739
vn -0.5351233 0 -0.8447739
vn -0.5351233 0 -0.8447739
vn -0.5351233 1.098148E-12 -0.8447739
vn -0.5351233 1.098148E-12 -0.8447739
vn -0.5351233 1.098148E-12 -0.8447739
vn -0.5307874 0 0.847505
vn -0.5307874 0 0.847505
vn -0.5307874 0 0.847505
vn -0.5307874 0 0.847505
vn -0.5303714 0 0.8477654
vn -0.5303714 0 0.8477654
vn -0.5303714 0 0.8477654
vn -0.5303714 0 0.8477654
vn -0.5358672 0 0.8443023
vn -0.5358672 0 0.8443023
vn -0.5358672 0 0.8443023
vn -0.5358672 0 0.8443023
vn -0.5358672 0 0.8443023
vn -0.5358672 0 0.8443023
vn -0.5358672 3.26668E-10 0.8443023
vn -0.5358672 3.26668E-10 0.8443023
vn -0.5358672 3.26668E-10 0.8443023
vn 0.8445086 0 0.535542
vn 0.8445086 0 0.535542
vn 0.8445086 0 0.535542
vn 0.8445086 0 0.535542
vn -0.8445086 0 -0.535542
vn -0.8445086 0 -0.535542
vn -0.8445086 0 -0.535542
vn -0.8445086 0 -0.535542
vn -0.5359972 0 0.8442198
vn -0.5359972 0 0.8442198
vn -0.5359972 0 0.8442198
vn -0.5359972 0 0.8442198
vn 0.8442617 0 0.5359311
vn 0.8442617 0 0.5359311
vn 0.8442617 0 0.5359311
vn 0.8442617 0 0.5359311
vn 0.8442617 0 0.5359311
vn 0.8442617 0 0.5359311
vn 0.8442617 2.115528E-11 0.5359311
vn 0.8442617 2.115528E-11 0.5359311
vn 0.8442617 2.115528E-11 0.5359311
vn 0 -1 0
vn 0 -1 0
vn 0 -1 0
vn 0 -1 0
vn 0 -1 0
vn 0 -1 0
vn 0 -1 0
vn 0 -1 0
vn 0 -1 0
vn 0 -1 0
vn 0 -1 0
vn 0 -1 0
vn 0 -1 0
vn 0 -1 0
vn 0 -1 0
vn 0 -1 0
vn 0 -1 0
vn 0 -1 0

g CDNNDG02_0002830
f 1/1/1 2/2/2 3/3/3
f 4/4/4 5/5/5 6/6/6
f 7/7/7 8/8/8 9/9/9
f 10/10/10 11/11/11 12/12/12
f 13/13/13 14/14/14 15/15/15
f 16/16/16 17/17/17 18/18/18
f 19/19/19 20/20/20 21/21/21
f 22/22/22 23/23/23 24/24/24
f 25/25/25 26/26/26 27/27/27
f 28/28/28 29/29/29 30/30/30
f 31/31/31 32/32/32 33/33/33
f 34/34/34 35/35/35 36/36/36
f 37/37/37 38/38/38 39/39/39
f 40/40/40 41/41/41 42/42/42
f 43/43/43 45/45/45 46/46/46
f 43/43/43 44/44/44 45/45/45
f 47/47/47 48/48/48 49/49/49
f 50/50/50 51/51/51 52/52/52
f 53/53/53 54/54/54 55/55/55
f 56/56/56 57/57/57 58/58/58
f 59/59/59 61/61/61 62/62/62
f 61/61/61 59/59/59 60/60/60
f 66/66/66 63/63/63 65/65/65
f 65/65/65 63/63/63 64/64/64
f 67/67/67 68/68/68 69/69/69
f 71/71/71 72/72/72 70/70/70
f 70/70/70 72/72/72 73/73/73
f 74/74/74 76/76/76 77/77/77
f 74/74/74 75/75/75 76/76/76
f 80/80/80 81/81/81 79/79/79
f 78/78/78 79/79/79 81/81/81
f 82/82/82 83/83/83 84/84/84
f 87/87/87 88/88/88 86/86/86
f 85/85/85 86/86/86 88/88/88
f 89/89/89 90/90/90 91/91/91
f 92/92/92 93/93/93 94/94/94
f 95/95/95 96/96/96 97/97/97
f 100/100/100 98/98/98 99/99/99
f 98/98/98 100/100/100 101/101/101
f 104/104/104 102/102/102 103/103/103
f 102/102/102 104/104/104 105/105/105
f 106/106/106 108/108/108 109/109/109
f 106/106/106 107/107/107 108/108/108
f 110/110/110 111/111/111 112/112/112
f 113/113/113 114/114/114 115/115/115
f 116/116/116 117/117/117 118/118/118
f 119/119/119 121/121/121 122/122/122
f 121/121/121 119/119/119 120/120/120
f 123/123/123 125/125/125 126/126/126
f 125/125/125 123/123/123 124/124/124
f 127/127/127 128/128/128 129/129/129
f 130/130/130 131/131/131 132/132/132
f 133/133/133 134/134/134 135/135/135
f 136/136/136 138/138/138 139/139/139
f 136/136/136 137/137/137 138/138/138
f 141/141/141 142/142/142 143/143/143
f 140/140/140 141/141/141 143/143/143
f 147/147/147 144/144/144 146/146/146
f 146/146/146 144/144/144 145/145/145
f 148/148/148 149/149/149 150/150/150
f 151/151/151 152/152/152 153/153/153
f 154/154/154 155/155/155 156/156/156
f 173/173/173 157/157/157 172/172/172
f 161/161/161 171/171/171 172/172/172
f 157/157/157 158/158/158 159/159/159
f 174/174/174 157/157/157 173/173/173
f 157/157/157 159/159/159 172/172/172
f 161/161/161 162/162/162 171/171/171
f 159/159/159 160/160/160 172/172/172
f 160/160/160 161/161/161 172/172/172
f 171/171/171 169/169/169 170/170/170
f 162/162/162 169/169/169 171/171/171
f 162/162/162 163/163/163 169/169/169
f 163/163/163 164/164/164 169/169/169
f 164/164/164 165/165/165 167/167/167
f 165/165/165 166/166/166 167/167/167
f 167/167/167 168/168/168 169/169/169
f 164/164/164 167/167/167 169/169/169
