v -5.232884 5.037986 1.902727
v 0.8331156 5.037986 5.796727
v 6.679116 5.037986 -3.643273
v -5.232884 5.037986 1.902727
v 6.679116 5.037986 -3.643273
v 0.4331156 5.037986 -7.733273
v -5.294395 5.037986 2.002035
v 0.8331156 5.037986 5.796727
v -5.232884 5.037986 1.902727
v -5.235146 5.037986 1.901326
v -5.232884 5.037986 1.902727
v 0.4331156 5.037986 -7.733273
v -5.450884 5.037986 1.767727
v -5.235146 5.037986 1.901326
v 0.4331156 5.037986 -7.733273
v 0.4331156 5.037986 -7.733273
v 6.679116 5.037986 -3.643273
v 6.778116 5.037986 -3.803273
v -5.450884 6.028986 1.767727
v -5.294395 6.028986 2.002035
v -5.232884 6.028986 1.902727
v -6.223929 6.028986 3.015607
v -6.005885 6.028986 3.150727
v -5.294395 6.028986 2.002035
v -6.223929 6.028986 3.015607
v -5.294395 6.028986 2.002035
v -5.450884 6.028986 1.767727
v -6.223929 6.028986 3.015607
v -5.450884 6.028986 1.767727
v -5.814885 6.028986 1.542727
v -6.586867 6.028986 2.790698
v -6.730885 4.387987 3.834727
v -0.3848844 4.387987 7.764727
v -6.223929 4.615242 3.015607
v -6.223929 4.615242 3.015607
v -0.3848844 4.387987 7.764727
v -6.005885 4.615225 3.150727
v -6.005885 4.615225 3.150727
v 0.8331156 4.933987 5.796727
v -5.294395 4.933987 2.002035
v -6.005885 4.615225 3.150727
v -0.3848844 4.387987 7.764727
v 0.8331156 4.933987 5.796727
v 0.8331156 -4.988367 5.796727
v 6.679116 -4.988367 -3.643273
v 6.679116 5.037986 -3.643273
v 0.8331156 4.933987 5.796727
v 0.8331156 5.037986 5.796727
v 0.8331156 4.933987 5.796727
v 6.679116 5.037986 -3.643273
v 6.679116 -4.988367 -3.643273
v 6.778116 -4.988367 -3.803273
v 6.778116 5.037986 -3.803273
v 6.679116 5.037986 -3.643273
v 0.2241156 -4.988367 6.780727
v 0.8331156 -4.988367 5.796727
v 0.8331156 4.933987 5.796727
v -0.3848844 4.387987 7.764727
v -0.3848844 -4.988367 7.764727
v 0.2241156 -4.988367 6.780727
v -0.3848844 4.387987 7.764727
v 0.2241156 -4.988367 6.780727
v 0.8331156 4.933987 5.796727
v 0.4331156 5.037986 -7.733273
v 6.778116 5.037986 -3.803273
v 6.778116 -4.988367 -3.803273
v 0.4331156 -4.988367 -7.733273
v -5.450884 5.037986 1.767727
v 0.4331156 5.037986 -7.733273
v 0.4331156 -4.988367 -7.733273
v -5.450884 -4.988367 1.767727
v -6.405398 -4.988367 2.903152
v -6.223929 4.615242 3.015607
v -6.223929 6.028986 3.015607
v -6.405398 -4.988367 2.903152
v -6.223929 -4.988367 3.015607
v -6.223929 4.615242 3.015607
v -6.586867 6.028986 2.790698
v -6.586867 -4.988367 2.790698
v -6.405398 -4.988367 2.903152
v -6.586867 6.028986 2.790698
v -6.405398 -4.988367 2.903152
v -6.223929 6.028986 3.015607
v -6.223929 4.615242 3.015607
v -6.005885 4.615225 3.150727
v -6.005885 6.028986 3.150727
v -6.223929 6.028986 3.015607
v -6.005885 4.615225 3.150727
v -5.294395 5.037986 2.002035
v -5.294395 6.028986 2.002035
v -6.005885 6.028986 3.150727
v -6.005885 4.615225 3.150727
v -5.294395 4.933987 2.002035
v -5.294395 5.037986 2.002035
v -5.294395 5.037986 2.002035
v -5.232884 5.037986 1.902727
v -5.232884 6.028986 1.902727
v -5.294395 6.028986 2.002035
v -5.814885 6.028986 1.542727
v -5.450884 5.037986 1.767727
v -5.450884 -4.988367 1.767727
v -5.814885 -4.988367 1.542727
v -5.814885 6.028986 1.542727
v -5.450884 6.028986 1.767727
v -5.450884 5.037986 1.767727
v -5.450884 6.028986 1.767727
v -5.232884 6.028986 1.902727
v -5.235146 5.037986 1.901326
v -5.450884 5.037986 1.767727
v -5.235146 5.037986 1.901326
v -5.232884 6.028986 1.902727
v -5.232884 5.037986 1.902727
v -6.586867 6.028986 2.790698
v -6.200876 -4.988367 2.166713
v -6.586867 -4.988367 2.790698
v -6.200876 -4.988367 2.166713
v -5.814885 6.028986 1.542727
v -5.814885 -4.988367 1.542727
v -6.586867 6.028986 2.790698
v -5.814885 6.028986 1.542727
v -6.200876 -4.988367 2.166713
v -6.730885 4.387987 3.834727
v -6.477407 -4.988367 3.425167
v -6.730885 -4.988367 3.834727
v -6.477407 -4.988367 3.425167
v -6.223929 4.615242 3.015607
v -6.223929 -4.988367 3.015607
v -6.730885 4.387987 3.834727
v -6.223929 4.615242 3.015607
v -6.477407 -4.988367 3.425167
v -3.557884 -4.988367 5.799727
v -0.3848844 -4.988367 7.764727
v -0.3848844 4.387987 7.764727
v -6.730885 4.387987 3.834727
v -6.730885 -4.988367 3.834727
v -3.557884 -4.988367 5.799727
v -6.730885 4.387987 3.834727
v -3.557884 -4.988367 5.799727
v -0.3848844 4.387987 7.764727
v -5.294395 4.933987 2.002035
v 0.8331156 4.933987 5.796727
v 0.8331156 5.037986 5.796727
v -5.294395 5.037986 2.002035
v -6.223929 -4.988367 3.015607
v -6.405398 -4.988367 2.903152
v -6.586867 -4.988367 2.790698
v -6.200876 -4.988367 2.166713
v -5.814885 -4.988367 1.542727
v -5.450884 -4.988367 1.767727
v 0.4331156 -4.988367 -7.733273
v 6.778116 -4.988367 -3.803273
v 6.679116 -4.988367 -3.643273
v 0.8331156 -4.988367 5.796727
v 0.2241156 -4.988367 6.780727
v -0.3848844 -4.988367 7.764727
v -3.557884 -4.988367 5.799727
v -6.730885 -4.988367 3.834727
v -6.477407 -4.988367 3.425167
vt 0.398664 0.007482
vt 0.554275 0.171887
vt 0.165904 0.326028
vt 0.398664 0.007482
vt 0.165904 0.326028
vt 0.002387 0.156731
vt 0.402750 0.005860
vt 0.554275 0.171887
vt 0.398664 0.007482
vt 0.398608 0.007421
vt 0.398664 0.007482
vt 0.002387 0.156731
vt 0.393273 0.001575
vt 0.398608 0.007421
vt 0.002387 0.156731
vt 0.002387 0.156731
vt 0.165904 0.326028
vt 0.159322 0.328638
vt 0.378640 0.988191
vt 0.387829 0.992322
vt 0.383867 0.993886
vt 0.428423 0.968537
vt 0.433655 0.974233
vt 0.387829 0.992322
vt 0.428423 0.968537
vt 0.387829 0.992322
vt 0.378640 0.988191
vt 0.428423 0.968537
vt 0.378640 0.988191
vt 0.369928 0.978682
vt 0.419715 0.959055
vt 0.152953 0.767674
vt 0.002387 0.594641
vt 0.191371 0.754228
vt 0.191371 0.754228
vt 0.002387 0.594641
vt 0.186193 0.748281
vt 0.186193 0.748281
vt 0.094628 0.562205
vt 0.240105 0.729394
vt 0.186193 0.748281
vt 0.002387 0.594641
vt 0.094628 0.562205
vt 0.082064 0.486016
vt 0.464275 0.334844
vt 0.671218 0.376458
vt 0.282185 0.529027
vt 0.284308 0.529483
vt 0.282185 0.529027
vt 0.671218 0.376458
vt 0.464275 0.334844
vt 0.470754 0.332283
vt 0.677776 0.373867
vt 0.671218 0.376458
vt 0.042225 0.501763
vt 0.082064 0.486016
vt 0.282185 0.529027
vt 0.190454 0.558488
vt 0.002387 0.517510
vt 0.042225 0.501763
vt 0.190454 0.558488
vt 0.042225 0.501763
vt 0.282185 0.529027
vt 0.777829 0.332283
vt 0.937112 0.503524
vt 0.839917 0.544465
vt 0.682578 0.375319
vt 0.487885 0.800167
vt 0.097229 0.954748
vt 0.002387 0.924353
vt 0.388279 0.771654
vt 0.006645 0.995068
vt 0.195465 0.968144
vt 0.224273 0.964835
vt 0.006645 0.995068
vt 0.002387 0.990322
vt 0.195465 0.968144
vt 0.232904 0.974457
vt 0.010903 0.999815
vt 0.006645 0.995068
vt 0.232904 0.974457
vt 0.006645 0.995068
vt 0.224273 0.964835
vt 0.195465 0.968144
vt 0.190288 0.962374
vt 0.219087 0.959055
vt 0.224273 0.964835
vt 0.439141 0.976314
vt 0.493451 0.960575
vt 0.513361 0.964874
vt 0.467451 0.982474
vt 0.439141 0.976314
vt 0.491364 0.960124
vt 0.493451 0.960575
vt 0.493451 0.960575
vt 0.497415 0.959055
vt 0.517330 0.963352
vt 0.513361 0.964874
vt 0.755607 0.771654
vt 0.754727 0.785722
vt 0.655699 0.829832
vt 0.646778 0.820313
vt 0.755607 0.771654
vt 0.764648 0.781302
vt 0.754727 0.785722
vt 0.764648 0.781302
vt 0.770074 0.787081
vt 0.760090 0.791433
vt 0.754727 0.785722
vt 0.760090 0.791433
vt 0.770074 0.787081
vt 0.760146 0.791493
vt 0.934910 0.801938
vt 0.800751 0.781451
vt 0.825846 0.771654
vt 0.800751 0.781451
vt 0.884040 0.821798
vt 0.775656 0.791247
vt 0.934910 0.801938
vt 0.884040 0.821798
vt 0.800751 0.781451
vt 0.364232 0.984522
vt 0.255071 0.965435
vt 0.271479 0.959055
vt 0.255071 0.965435
vt 0.333304 0.998056
vt 0.238663 0.971814
vt 0.364232 0.984522
vt 0.333304 0.998056
vt 0.255071 0.965435
vt 0.320473 0.671822
vt 0.245823 0.586325
vt 0.432794 0.562205
vt 0.583803 0.735163
vt 0.395121 0.757316
vt 0.320473 0.671822
vt 0.583803 0.735163
vt 0.320473 0.671822
vt 0.432794 0.562205
vt 0.638634 0.938834
vt 0.494033 0.771928
vt 0.496126 0.771654
vt 0.640744 0.938581
vt 0.522673 0.959055
vt 0.522673 0.959055
vt 0.522673 0.959055
vt 0.522673 0.959055
vt 0.522673 0.959055
vt 0.522673 0.959055
vt 0.522673 0.959055
vt 0.522673 0.959055
vt 0.522673 0.959055
vt 0.522673 0.959055
vt 0.522673 0.959055
vt 0.522673 0.959055
vt 0.522673 0.959055
vt 0.522673 0.959055
vt 0.522673 0.959055
vn 0 1 0
vn 0 1 0
vn 0 1 0
vn 0 1 0
vn 0 1 0
vn 0 1 0
vn 0 1 0
vn 0 1 0
vn 0 1 0
vn 0 1 0
vn 0 1 0
vn 0 1 0
vn 0 1 0
vn 0 1 0
vn 0 1 0
vn 0 1 0
vn 0 1 0
vn 0 1 0
vn 0 1 0
vn 0 1 0
vn 0 1 0
vn 0 1 0
vn 0 1 0
vn 0 1 0
vn 0 1 0
vn 0 1 0
vn 0 1 0
vn 0 1 0
vn 0 1 0
vn 0 1 0
vn 0 1 0
vn -0.1208897 0.9732829 0.1952077
vn -0.1208897 0.9732829 0.1952077
vn -0.1208897 0.9732829 0.1952077
vn -0.1208898 0.9732829 0.1952077
vn -0.1208898 0.9732829 0.1952077
vn -0.1208898 0.9732829 0.1952077
vn -0.1208897 0.9732829 0.1952077
vn -0.1208897 0.9732829 0.1952077
vn -0.1208897 0.9732829 0.1952077
vn -0.1208897 0.9732829 0.1952077
vn -0.1208897 0.9732829 0.1952077
vn -0.1208897 0.9732829 0.1952077
vn 0.8501769 0 0.5264972
vn 0.8501769 0 0.5264972
vn 0.8501769 0 0.5264972
vn 0.8501769 0 0.5264972
vn 0.8501769 0 0.5264972
vn 0.8501769 0 0.5264972
vn 0.8501769 0 0.5264972
vn 0.8503784 0 0.5261716
vn 0.8503784 0 0.5261716
vn 0.8503784 0 0.5261716
vn 0.8503784 0 0.5261716
vn 0.8503204 0 0.5262654
vn 0.8503204 0 0.5262654
vn 0.8503204 0 0.5262654
vn 0.8503204 0 0.5262654
vn 0.8503204 0 0.5262654
vn 0.8503204 0 0.5262654
vn 0.8503204 2.539667E-11 0.5262654
vn 0.8503204 2.539667E-11 0.5262654
vn 0.8503204 2.539667E-11 0.5262654
vn 0.5265622 0 -0.8501366
vn 0.5265622 0 -0.8501366
vn 0.5265622 0 -0.8501366
vn 0.5265622 0 -0.8501366
vn -0.8501679 0 -0.5265117
vn -0.8501679 0 -0.5265117
vn -0.8501679 0 -0.5265117
vn -0.8501679 0 -0.5265117
vn -0.5267492 0 0.8500208
vn -0.5267492 0 0.8500208
vn -0.5267492 0 0.8500208
vn -0.5267492 0 0.8500208
vn -0.5267492 0 0.8500208
vn -0.5267492 0 0.8500208
vn -0.5267492 0 0.8500208
vn -0.5267492 0 0.8500208
vn -0.5267492 0 0.8500208
vn -0.5267492 3.951983E-10 0.8500208
vn -0.5267492 3.951983E-10 0.8500208
vn -0.5267492 3.951983E-10 0.8500208
vn -0.5267492 0 0.8500208
vn -0.5267492 0 0.8500208
vn -0.5267492 0 0.8500208
vn -0.5267492 0 0.8500208
vn 0.8501345 0 0.5265657
vn 0.8501345 0 0.5265657
vn 0.8501345 0 0.5265657
vn 0.8501345 0 0.5265657
vn 0.8501345 0 0.5265657
vn 0.8501345 0 0.5265657
vn 0.8501345 0 0.5265657
vn 0.8501344 0 0.5265657
vn 0.8501344 0 0.5265657
vn 0.8501344 0 0.5265657
vn 0.8501344 0 0.5265657
vn 0.5257913 0 -0.8506136
vn 0.5257913 0 -0.8506136
vn 0.5257913 0 -0.8506136
vn 0.5257913 0 -0.8506136
vn 0.5257913 0 -0.8506136
vn 0.5257913 0 -0.8506136
vn 0.5257913 0 -0.8506136
vn 0.5264888 1.025381E-11 -0.8501821
vn 0.5264888 2.050761E-11 -0.8501821
vn 0.5264888 1.025381E-11 -0.8501821
vn 0.5264888 0 -0.8501821
vn 0.5264889 0 -0.850182
vn 0.5264889 0 -0.850182
vn 0.5264889 0 -0.850182
vn -0.8504394 0 -0.526073
vn -0.8504394 0 -0.526073
vn -0.8504394 0 -0.526073
vn -0.8504394 0 -0.526073
vn -0.8504394 0 -0.526073
vn -0.8504394 0 -0.526073
vn -0.8504394 -2.668211E-10 -0.526073
vn -0.8504394 -2.668211E-10 -0.526073
vn -0.8504394 -2.668211E-10 -0.526073
vn -0.8503204 0 -0.5262654
vn -0.8503204 0 -0.5262654
vn -0.8503204 0 -0.5262654
vn -0.8503204 0 -0.5262654
vn -0.8503204 0 -0.5262654
vn -0.8503204 0 -0.5262654
vn -0.8503204 -2.60776E-12 -0.5262654
vn -0.8503204 -2.60776E-12 -0.5262654
vn -0.8503204 -2.60776E-12 -0.5262654
vn -0.5265022 0 0.8501738
vn -0.5265022 0 0.8501738
vn -0.5265022 0 0.8501738
vn -0.5265022 0 0.8501738
vn -0.5265022 0 0.8501738
vn -0.5265022 0 0.8501738
vn -0.5265022 0 0.8501738
vn -0.5265022 0 0.8501738
vn -0.5265022 0 0.8501738
vn -0.5265022 0 0.8501738
vn -0.5265022 0 0.8501738
vn -0.5265022 0 0.8501738
vn -0.5265022 0 0.8501738
vn 0 -1 0
vn 0 -1 0
vn 0 -1 0
vn 0 -1 0
vn 0 -1 0
vn 0 -1 0
vn 0 -1 0
vn 0 -1 0
vn 0 -1 0
vn 0 -1 0
vn 0 -1 0
vn 0 -1 0
vn 0 -1 0
vn 0 -1 0
vn 0 -1 0

g CDNNDG02_0001610
f 1/1/1 2/2/2 3/3/3
f 4/4/4 5/5/5 6/6/6
f 7/7/7 8/8/8 9/9/9
f 10/10/10 11/11/11 12/12/12
f 13/13/13 14/14/14 15/15/15
f 16/16/16 17/17/17 18/18/18
f 19/19/19 20/20/20 21/21/21
f 22/22/22 23/23/23 24/24/24
f 25/25/25 26/26/26 27/27/27
f 28/28/28 30/30/30 31/31/31
f 28/28/28 29/29/29 30/30/30
f 32/32/32 33/33/33 34/34/34
f 35/35/35 36/36/36 37/37/37
f 38/38/38 39/39/39 40/40/40
f 41/41/41 42/42/42 43/43/43
f 47/47/47 44/44/44 45/45/45
f 45/45/45 46/46/46 47/47/47
f 48/48/48 49/49/49 50/50/50
f 51/51/51 53/53/53 54/54/54
f 51/51/51 52/52/52 53/53/53
f 55/55/55 56/56/56 57/57/57
f 58/58/58 59/59/59 60/60/60
f 61/61/61 62/62/62 63/63/63
f 67/67/67 64/64/64 66/66/66
f 65/65/65 66/66/66 64/64/64
f 69/69/69 70/70/70 71/71/71
f 68/68/68 69/69/69 71/71/71
f 72/72/72 73/73/73 74/74/74
f 75/75/75 76/76/76 77/77/77
f 78/78/78 79/79/79 80/80/80
f 81/81/81 82/82/82 83/83/83
f 87/87/87 84/84/84 86/86/86
f 86/86/86 84/84/84 85/85/85
f 89/89/89 90/90/90 91/91/91
f 88/88/88 89/89/89 91/91/91
f 92/92/92 93/93/93 94/94/94
f 96/96/96 97/97/97 95/95/95
f 95/95/95 97/97/97 98/98/98
f 100/100/100 102/102/102 99/99/99
f 102/102/102 100/100/100 101/101/101
f 103/103/103 104/104/104 105/105/105
f 108/108/108 106/106/106 107/107/107
f 106/106/106 108/108/108 109/109/109
f 110/110/110 111/111/111 112/112/112
f 113/113/113 114/114/114 115/115/115
f 116/116/116 117/117/117 118/118/118
f 119/119/119 120/120/120 121/121/121
f 122/122/122 123/123/123 124/124/124
f 125/125/125 126/126/126 127/127/127
f 128/128/128 129/129/129 130/130/130
f 131/131/131 132/132/132 133/133/133
f 134/134/134 135/135/135 136/136/136
f 137/137/137 138/138/138 139/139/139
f 140/140/140 142/142/142 143/143/143
f 140/140/140 141/141/141 142/142/142
f 156/156/156 157/157/157 158/158/158
f 144/144/144 156/156/156 158/158/158
f 144/144/144 145/145/145 147/147/147
f 154/154/154 155/155/155 156/156/156
f 145/145/145 146/146/146 147/147/147
f 153/153/153 154/154/154 156/156/156
f 144/144/144 147/147/147 149/149/149
f 147/147/147 148/148/148 149/149/149
f 156/156/156 144/144/144 149/149/149
f 149/149/149 153/153/153 156/156/156
f 149/149/149 150/150/150 152/152/152
f 150/150/150 151/151/151 152/152/152
f 149/149/149 152/152/152 153/153/153
