v 3.183178 6.769399 3.58697
v 6.551178 6.769399 5.77097
v 9.128178 6.769399 1.79597
v -4.370822 6.769399 -6.95503
v 3.183178 6.769399 3.58697
v 9.128178 6.769399 1.79597
v -4.370822 6.769399 -6.95503
v -2.47284 6.769399 1.460279
v 3.183178 6.769399 3.58697
v -8.385822 6.769399 -0.7630302
v -2.585284 6.769399 1.418
v -4.370822 6.769399 -6.95503
v -4.370822 6.769399 -6.95503
v -2.571822 6.769399 1.39697
v -2.47284 6.769399 1.460279
v -4.370822 6.769399 -6.95503
v -2.585284 6.769399 1.418
v -2.571822 6.769399 1.39697
v -8.385822 6.769399 -0.7630302
v -3.206822 6.769399 2.38897
v -2.585284 6.769399 1.418
v -8.385822 6.769399 -0.7630302
v 1.745178 6.769399 5.80497
v -3.206822 6.769399 2.38897
v -2.282822 6.769399 2.97997
v 1.745178 6.769399 5.80497
v -1.647822 6.769399 1.98797
v -3.206822 6.769399 2.38897
v 1.745178 6.769399 5.80497
v -2.282822 6.769399 2.97997
v -2.47284 6.769399 1.460279
v -1.647822 6.769399 1.98797
v 3.183178 6.769399 3.58697
v -1.647822 6.769399 1.98797
v 1.745178 6.769399 5.80497
v 3.183178 6.769399 3.58697
v -3.206822 7.073399 2.38897
v -2.282822 7.073399 2.97997
v -1.647822 7.073399 1.98797
v -2.571822 7.073399 1.39697
v 1.745178 -6.773112 5.80497
v 3.183178 -6.773112 3.58697
v 3.183178 6.769399 3.58697
v 1.745178 6.769399 5.80497
v 3.183178 -6.773112 3.58697
v 6.551178 -6.773112 5.77097
v 6.551178 6.769399 5.77097
v 3.183178 6.769399 3.58697
v 7.839678 -6.773112 3.78347
v 9.128178 -6.773112 1.79597
v 9.128178 6.769399 1.79597
v 6.551178 6.769399 5.77097
v 6.551178 -6.773112 5.77097
v 7.839678 -6.773112 3.78347
v 6.551178 6.769399 5.77097
v 7.839678 -6.773112 3.78347
v 9.128178 6.769399 1.79597
v -4.370822 6.769399 -6.95503
v 9.128178 6.769399 1.79597
v 9.128178 -6.773112 1.79597
v -4.370822 -6.773112 -6.95503
v -8.385822 6.769399 -0.7630302
v -6.378322 -6.773112 -3.85903
v -8.385822 -6.773112 -0.7630302
v -6.378322 -6.773112 -3.85903
v -4.370822 6.769399 -6.95503
v -4.370822 -6.773112 -6.95503
v -8.385822 6.769399 -0.7630302
v -4.370822 6.769399 -6.95503
v -6.378322 -6.773112 -3.85903
v -3.320322 -6.773112 2.52097
v 1.745178 -6.773112 5.80497
v 1.745178 6.769399 5.80497
v -8.385822 6.769399 -0.7630302
v -8.385822 -6.773112 -0.7630302
v -3.320322 -6.773112 2.52097
v -8.385822 6.769399 -0.7630302
v -3.320322 -6.773112 2.52097
v 1.745178 6.769399 5.80497
v -3.206822 6.769399 2.38897
v -2.282822 6.769399 2.97997
v -2.282822 7.073399 2.97997
v -3.206822 7.073399 2.38897
v -2.282822 6.769399 2.97997
v -1.647822 6.769399 1.98797
v -1.647822 7.073399 1.98797
v -2.282822 7.073399 2.97997
v -2.571822 7.073399 1.39697
v -2.47284 6.769399 1.460279
v -2.571822 6.769399 1.39697
v -2.571822 7.073399 1.39697
v -1.647822 7.073399 1.98797
v -1.647822 6.769399 1.98797
v -2.47284 6.769399 1.460279
v -3.206822 7.073399 2.38897
v -2.571822 7.073399 1.39697
v -2.585284 6.769399 1.418
v -3.206822 6.769399 2.38897
v -2.585284 6.769399 1.418
v -2.571822 7.073399 1.39697
v -2.571822 6.769399 1.39697
v -3.320322 -6.773112 2.52097
v -8.385822 -6.773112 -0.7630302
v -6.378322 -6.773112 -3.85903
v -4.370822 -6.773112 -6.95503
v 9.128178 -6.773112 1.79597
v 7.839678 -6.773112 3.78347
v 6.551178 -6.773112 5.77097
v 3.183178 -6.773112 3.58697
v 1.745178 -6.773112 5.80497
vt 0.082769 0.157088
vt 0.002228 0.069327
vt 0.146841 0.001486
vt 0.469535 0.353225
vt 0.082769 0.157088
vt 0.146841 0.001486
vt 0.469535 0.353225
vt 0.161731 0.304649
vt 0.082769 0.157088
vt 0.244276 0.458904
vt 0.163301 0.307582
vt 0.469535 0.353225
vt 0.469535 0.353225
vt 0.164066 0.307228
vt 0.161731 0.304649
vt 0.469535 0.353225
vt 0.163301 0.307582
vt 0.164066 0.307228
vt 0.244276 0.458904
vt 0.127977 0.323944
vt 0.163301 0.307582
vt 0.244276 0.458904
vt 0.002079 0.194941
vt 0.127977 0.323944
vt 0.106180 0.299868
vt 0.002079 0.194941
vt 0.142270 0.283152
vt 0.127977 0.323944
vt 0.002079 0.194941
vt 0.106180 0.299868
vt 0.161731 0.304649
vt 0.142270 0.283152
vt 0.082769 0.157088
vt 0.142270 0.283152
vt 0.002079 0.194941
vt 0.082769 0.157088
vt 0.908853 0.835912
vt 0.887734 0.812612
vt 0.922703 0.796434
vt 0.943822 0.819734
vt 0.883570 0.816261
vt 0.805698 0.851981
vt 0.640333 0.832755
vt 0.719516 0.796434
vt 0.558821 0.796434
vt 0.635918 0.881224
vt 0.471332 0.956947
vt 0.392931 0.870728
vt 0.645629 0.606951
vt 0.575527 0.639234
vt 0.409563 0.527765
vt 0.552125 0.462110
vt 0.715732 0.574668
vt 0.645629 0.606951
vt 0.552125 0.462110
vt 0.645629 0.606951
vt 0.409563 0.527765
vt 0.796749 0.371391
vt 0.474012 0.019921
vt 0.637662 0.001486
vt 0.954954 0.347040
vt 0.002079 0.900834
vt 0.277277 0.921457
vt 0.166061 0.972776
vt 0.277277 0.921457
vt 0.228323 0.796434
vt 0.388497 0.870137
vt 0.002079 0.900834
vt 0.228323 0.796434
vt 0.277277 0.921457
vt 0.287468 0.590242
vt 0.403790 0.718368
vt 0.238662 0.792397
vt 0.002079 0.531816
vt 0.171140 0.462110
vt 0.287468 0.590242
vt 0.002079 0.531816
vt 0.287468 0.590242
vt 0.238662 0.792397
vt 0.951567 0.796434
vt 0.971319 0.818980
vt 0.967785 0.820547
vt 0.948025 0.797992
vt 0.112416 0.976688
vt 0.078483 0.991779
vt 0.074844 0.991322
vt 0.108790 0.976226
vt 0.022296 0.999468
vt 0.023590 0.996524
vt 0.025755 0.998959
vt 0.022296 0.999468
vt 0.002079 0.976726
vt 0.005546 0.976226
vt 0.023590 0.996524
vt 0.031185 0.991601
vt 0.065817 0.976226
vt 0.068689 0.978136
vt 0.034805 0.993180
vt 0.068689 0.978136
vt 0.065817 0.976226
vt 0.069423 0.977810
vt 0.118503 0.976226
vt 0.118503 0.976226
vt 0.118503 0.976226
vt 0.118503 0.976226
vt 0.118503 0.976226
vt 0.118503 0.976226
vt 0.118503 0.976226
vt 0.118503 0.976226
vt 0.118503 0.976226
vn 0 1 0
vn 0 1 0
vn 0 1 0
vn 0 1 0
vn 0 1 0
vn 0 1 0
vn 0 1 0
vn 0 1 0
vn 0 1 0
vn 0 1 0
vn 0 1 0
vn 0 1 0
vn 0 1 0
vn 0 1 0
vn 0 1 0
vn 0 1 0
vn 0 1 0
vn 0 1 0
vn 0 1 0
vn 0 1 0
vn 0 1 0
vn 0 1 0
vn 0 1 0
vn 0 1 0
vn 0 1 0
vn 0 1 0
vn 0 1 0
vn 0 1 0
vn 0 1 0
vn 0 1 0
vn 0 1 0
vn 0 1 0
vn 0 1 0
vn 0 1 0
vn 0 1 0
vn 0 1 0
vn 0 1 0
vn 0 1 0
vn 0 1 0
vn 0 1 0
vn 0.8390827 0 0.544004
vn 0.8390827 0 0.544004
vn 0.8390827 0 0.544004
vn 0.8390827 0 0.544004
vn -0.5440773 0 0.839035
vn -0.5440773 0 0.839035
vn -0.5440773 0 0.839035
vn -0.5440773 0 0.839035
vn 0.8390941 0 0.5439863
vn 0.8390941 0 0.5439863
vn 0.8390941 0 0.5439863
vn 0.8390941 0 0.5439863
vn 0.8390941 0 0.5439863
vn 0.8390941 0 0.5439863
vn 0.8390941 -1.803276E-12 0.5439863
vn 0.8390941 -1.803276E-12 0.5439863
vn 0.8390941 -1.803276E-12 0.5439863
vn 0.5439676 0 -0.8391062
vn 0.5439676 0 -0.8391062
vn 0.5439676 0 -0.8391062
vn 0.5439676 0 -0.8391062
vn -0.8390499 0 -0.5440544
vn -0.8390499 0 -0.5440544
vn -0.8390499 0 -0.5440544
vn -0.8390499 0 -0.5440544
vn -0.8390499 0 -0.5440544
vn -0.8390499 0 -0.5440544
vn -0.8390499 0 -0.5440544
vn -0.8390499 0 -0.5440544
vn -0.8390499 0 -0.5440544
vn -0.5439894 0 0.8390921
vn -0.5439894 0 0.8390921
vn -0.5439894 0 0.8390921
vn -0.5439894 0 0.8390921
vn -0.5439894 0 0.8390921
vn -0.5439894 0 0.8390921
vn -0.5439894 -1.16905E-12 0.8390921
vn -0.5439894 -1.16905E-12 0.8390921
vn -0.5439894 -1.16905E-12 0.8390921
vn -0.5388208 0 0.8424204
vn -0.5388208 0 0.8424204
vn -0.5388208 0 0.8424204
vn -0.5388208 0 0.8424204
vn 0.8422251 0 0.539126
vn 0.8422251 0 0.539126
vn 0.8422251 0 0.539126
vn 0.8422251 0 0.539126
vn 0.5388209 0 -0.8424203
vn 0.5388209 0 -0.8424203
vn 0.5388209 0 -0.8424203
vn 0.5388208 -2.220458E-08 -0.8424204
vn 0.5388208 -1.110229E-08 -0.8424204
vn 0.5388208 0 -0.8424204
vn 0.5388208 -1.110229E-08 -0.8424204
vn -0.8422251 -1.268909E-09 -0.539126
vn -0.8422251 -2.537819E-09 -0.539126
vn -0.8422251 -1.268909E-09 -0.539126
vn -0.8422251 0 -0.539126
vn -0.8422251 0 -0.5391259
vn -0.8422251 0 -0.5391259
vn -0.8422251 0 -0.5391259
vn 0 -1 0
vn 0 -1 0
vn 0 -1 0
vn 0 -1 0
vn 0 -1 0
vn 0 -1 0
vn 0 -1 0
vn 0 -1 0
vn 0 -1 0

g CDNNDG02_0002860
f 1/1/1 2/2/2 3/3/3
f 4/4/4 5/5/5 6/6/6
f 7/7/7 8/8/8 9/9/9
f 10/10/10 11/11/11 12/12/12
f 13/13/13 14/14/14 15/15/15
f 16/16/16 17/17/17 18/18/18
f 19/19/19 20/20/20 21/21/21
f 22/22/22 23/23/23 24/24/24
f 25/25/25 26/26/26 27/27/27
f 28/28/28 29/29/29 30/30/30
f 31/31/31 32/32/32 33/33/33
f 34/34/34 35/35/35 36/36/36
f 38/38/38 39/39/39 40/40/40
f 37/37/37 38/38/38 40/40/40
f 42/42/42 43/43/43 44/44/44
f 41/41/41 42/42/42 44/44/44
f 45/45/45 47/47/47 48/48/48
f 47/47/47 45/45/45 46/46/46
f 49/49/49 50/50/50 51/51/51
f 52/52/52 53/53/53 54/54/54
f 55/55/55 56/56/56 57/57/57
f 58/58/58 60/60/60 61/61/61
f 58/58/58 59/59/59 60/60/60
f 62/62/62 63/63/63 64/64/64
f 65/65/65 66/66/66 67/67/67
f 68/68/68 69/69/69 70/70/70
f 71/71/71 72/72/72 73/73/73
f 74/74/74 75/75/75 76/76/76
f 77/77/77 78/78/78 79/79/79
f 83/83/83 80/80/80 82/82/82
f 82/82/82 80/80/80 81/81/81
f 84/84/84 86/86/86 87/87/87
f 84/84/84 85/85/85 86/86/86
f 88/88/88 89/89/89 90/90/90
f 94/94/94 91/91/91 92/92/92
f 92/92/92 93/93/93 94/94/94
f 95/95/95 97/97/97 98/98/98
f 95/95/95 96/96/96 97/97/97
f 99/99/99 100/100/100 101/101/101
f 110/110/110 102/102/102 109/109/109
f 109/109/109 107/107/107 108/108/108
f 109/109/109 102/102/102 105/105/105
f 103/103/103 104/104/104 102/102/102
f 107/107/107 109/109/109 106/106/106
f 104/104/104 105/105/105 102/102/102
f 106/106/106 109/109/109 105/105/105
