v 2.715438 0.2139832 15.95469
v 4.308438 0.2139832 13.68269
v 3.201438 0.2139832 12.98069
v 2.715438 0.2139832 15.95469
v 4.634439 0.2129832 14.27669
v 4.308438 0.2139832 13.68269
v 3.471438 0.2129832 16.12769
v 4.793438 0.2139832 14.86269
v 4.634439 0.2129832 14.27669
v 3.471438 0.2129832 16.12769
v 4.606438 0.2129832 15.54769
v 4.793438 0.2139832 14.86269
v 3.471438 0.2129832 16.12769
v 4.172438 0.2129832 15.98169
v 4.606438 0.2129832 15.54769
v 1.717438 0.2129832 15.32169
v 2.715438 0.2139832 15.95469
v 3.201438 0.2139832 12.98069
v 2.947438 0.2129832 16.03869
v 3.471438 0.2129832 16.12769
v 4.634439 0.2129832 14.27669
v 2.715438 0.2139832 15.95469
v 2.947438 0.2129832 16.03869
v 4.634439 0.2129832 14.27669
v 4.998438 8.347983 13.26869
v 22.25844 8.347983 0.3666922
v 10.91744 8.346983 -6.822308
v -2.224562 8.346983 13.91269
v 3.586438 8.347983 12.37369
v 10.91744 8.346983 -6.822308
v 3.586438 8.347983 12.37369
v 4.998438 8.347983 13.26869
v 10.91744 8.346983 -6.822308
v -2.224562 8.346983 13.91269
v 1.225438 8.347983 16.09869
v 1.717438 8.347983 15.32169
v -2.224562 8.346983 13.91269
v 1.717438 8.347983 15.32169
v 3.201438 8.347983 12.98069
v -2.224562 8.346983 13.91269
v 3.201438 8.347983 12.98069
v 3.586438 8.347983 12.37369
v -11.69131 8.347359 0.6461923
v -7.440562 8.347233 3.340442
v -4.155062 8.346983 -1.843308
v -8.405811 8.346983 -4.537558
v -8.405811 8.346983 -4.537558
v -4.155062 8.346983 -1.843308
v -0.8695617 8.346733 -7.027058
v -5.120312 8.346608 -9.721308
v -7.440562 8.347233 3.340442
v -3.189812 8.347108 6.034692
v 0.09568829 8.346983 0.8509423
v -4.155062 8.346983 -1.843308
v -4.155062 8.346983 -1.843308
v 0.09568829 8.346983 0.8509423
v 3.381188 8.346858 -4.332808
v -0.8695617 8.346733 -7.027058
v -19.22756 8.347983 3.135692
v -7.440562 8.347233 3.340442
v -11.69131 8.347359 0.6461923
v -19.22756 8.347983 3.135692
v -2.224562 8.346983 13.91269
v -7.440562 8.347233 3.340442
v -19.22756 8.347983 3.135692
v -11.69131 8.347359 0.6461923
v -8.405811 8.346983 -4.537558
v -8.405811 8.346983 -4.537558
v -5.120312 8.346608 -9.721308
v -6.085562 8.345984 -17.59931
v -19.22756 8.347983 3.135692
v -8.405811 8.346983 -4.537558
v -6.085562 8.345984 -17.59931
v -6.085562 8.345984 -17.59931
v -5.120312 8.346608 -9.721308
v -0.8695617 8.346733 -7.027058
v -3.189812 8.347108 6.034692
v -2.224562 8.346983 13.91269
v 0.09568829 8.346983 0.8509423
v -7.440562 8.347233 3.340442
v -2.224562 8.346983 13.91269
v -3.189812 8.347108 6.034692
v -2.224562 8.346983 13.91269
v 10.91744 8.346983 -6.822308
v 0.09568829 8.346983 0.8509423
v -0.8695617 8.346733 -7.027058
v 3.381188 8.346858 -4.332808
v 10.91744 8.346983 -6.822308
v 0.09568829 8.346983 0.8509423
v 10.91744 8.346983 -6.822308
v 3.381188 8.346858 -4.332808
v -6.085562 8.345984 -17.59931
v -0.8695617 8.346733 -7.027058
v 10.91744 8.346983 -6.822308
v 2.947438 -8.311599 16.03869
v 3.471438 -8.311599 16.12769
v 3.471438 0.2129832 16.12769
v 2.947438 0.2129832 16.03869
v 3.471438 -8.311599 16.12769
v 4.172438 -8.311599 15.98169
v 4.172438 0.2129832 15.98169
v 3.471438 0.2129832 16.12769
v 4.389438 -8.311599 15.76469
v 4.606438 -8.311599 15.54769
v 4.606438 0.2129832 15.54769
v 4.172438 0.2129832 15.98169
v 4.172438 -8.311599 15.98169
v 4.389438 -8.311599 15.76469
v 4.172438 0.2129832 15.98169
v 4.389438 -8.311599 15.76469
v 4.606438 0.2129832 15.54769
v 4.699938 -8.311599 15.20519
v 4.793438 -8.311599 14.86269
v 4.793438 0.2139832 14.86269
v 4.606438 0.2129832 15.54769
v 4.606438 -8.311599 15.54769
v 4.699938 -8.311599 15.20519
v 4.606438 0.2129832 15.54769
v 4.699938 -8.311599 15.20519
v 4.793438 0.2139832 14.86269
v 4.634439 0.2129832 14.27669
v 4.713938 -8.311599 14.56969
v 4.634439 -8.311599 14.27669
v 4.713938 -8.311599 14.56969
v 4.793438 0.2139832 14.86269
v 4.793438 -8.311599 14.86269
v 4.634439 0.2129832 14.27669
v 4.793438 0.2139832 14.86269
v 4.713938 -8.311599 14.56969
v 4.308438 0.2139832 13.68269
v 4.634439 0.2129832 14.27669
v 4.634439 -8.311599 14.27669
v 4.308438 -8.311599 13.68269
v 3.201438 0.2139832 12.98069
v 4.308438 0.2139832 13.68269
v 4.308438 -8.311599 13.68269
v 3.201438 -8.311599 12.98069
v 1.717438 -8.311599 15.32169
v 2.715438 -8.311599 15.95469
v 2.715438 0.2139832 15.95469
v 1.717438 0.2129832 15.32169
v 2.831438 -8.311599 15.99669
v 2.947438 -8.311599 16.03869
v 2.947438 0.2129832 16.03869
v 2.715438 0.2139832 15.95469
v 2.715438 -8.311599 15.95469
v 2.831438 -8.311599 15.99669
v 2.715438 0.2139832 15.95469
v 2.831438 -8.311599 15.99669
v 2.947438 0.2129832 16.03869
v 3.201438 -8.311599 12.98069
v 3.586438 -8.311599 12.37369
v 3.586438 8.347983 12.37369
v 3.201438 0.2139832 12.98069
v 3.201438 8.347983 12.98069
v 3.201438 0.2139832 12.98069
v 3.586438 8.347983 12.37369
v 1.225438 8.347983 16.09869
v 1.717438 0.2129832 15.32169
v 1.717438 8.347983 15.32169
v 1.225438 -8.311599 16.09869
v 1.717438 -8.311599 15.32169
v 1.717438 0.2129832 15.32169
v 1.225438 8.347983 16.09869
v 1.225438 -8.311599 16.09869
v 1.717438 0.2129832 15.32169
v 1.717438 0.2129832 15.32169
v 3.201438 0.2139832 12.98069
v 3.201438 8.347983 12.98069
v 1.717438 8.347983 15.32169
v 3.586438 -8.311599 12.37369
v 4.998438 -8.311599 13.26869
v 4.998438 8.347983 13.26869
v 3.586438 8.347983 12.37369
v 13.62844 -8.311599 6.817692
v 22.25844 -8.311599 0.3666922
v 22.25844 8.347983 0.3666922
v 4.998438 8.347983 13.26869
v 4.998438 -8.311599 13.26869
v 13.62844 -8.311599 6.817692
v 4.998438 8.347983 13.26869
v 13.62844 -8.311599 6.817692
v 22.25844 8.347983 0.3666922
v 10.91744 8.346983 -6.822308
v 22.25844 8.347983 0.3666922
v 22.25844 -8.311599 0.3666922
v 10.91744 -8.311599 -6.822308
v -6.085562 8.345984 -17.59931
v 2.415938 -8.311599 -12.21081
v -6.085562 -8.311599 -17.59931
v 2.415938 -8.311599 -12.21081
v 10.91744 8.346983 -6.822308
v 10.91744 -8.311599 -6.822308
v -6.085562 8.345984 -17.59931
v 10.91744 8.346983 -6.822308
v 2.415938 -8.311599 -12.21081
v -0.4995617 -8.311599 15.00569
v 1.225438 -8.311599 16.09869
v 1.225438 8.347983 16.09869
v -2.224562 8.346983 13.91269
v -2.224562 -8.311599 13.91269
v -0.4995617 -8.311599 15.00569
v -2.224562 8.346983 13.91269
v -0.4995617 -8.311599 15.00569
v 1.225438 8.347983 16.09869
v -10.72606 -8.311599 8.524192
v -2.224562 -8.311599 13.91269
v -2.224562 8.346983 13.91269
v -19.22756 8.347983 3.135692
v -19.22756 -8.311599 3.135692
v -10.72606 -8.311599 8.524192
v -19.22756 8.347983 3.135692
v -10.72606 -8.311599 8.524192
v -2.224562 8.346983 13.91269
v -19.22756 8.347983 3.135692
v -6.085562 8.345984 -17.59931
v -6.085562 -8.311599 -17.59931
v -19.22756 -8.311599 3.135692
v 2.947438 -8.311599 16.03869
v 2.831438 -8.311599 15.99669
v 2.715438 -8.311599 15.95469
v 1.717438 -8.311599 15.32169
v 1.225438 -8.311599 16.09869
v -0.4995617 -8.311599 15.00569
v -2.224562 -8.311599 13.91269
v -10.72606 -8.311599 8.524192
v -19.22756 -8.311599 3.135692
v -6.085562 -8.311599 -17.59931
v 2.415938 -8.311599 -12.21081
v 10.91744 -8.311599 -6.822308
v 22.25844 -8.311599 0.3666922
v 13.62844 -8.311599 6.817692
v 4.998438 -8.311599 13.26869
v 3.586438 -8.311599 12.37369
v 3.201438 -8.311599 12.98069
v 4.308438 -8.311599 13.68269
v 4.634439 -8.311599 14.27669
v 4.713938 -8.311599 14.56969
v 4.793438 -8.311599 14.86269
v 4.699938 -8.311599 15.20519
v 4.606438 -8.311599 15.54769
v 4.389438 -8.311599 15.76469
v 4.172438 -8.311599 15.98169
v 3.471438 -8.311599 16.12769
vt 0.719613 0.788915
vt 0.756366 0.771661
vt 0.767375 0.783946
vt 0.719613 0.788915
vt 0.746912 0.767994
vt 0.756366 0.771661
vt 0.716999 0.780566
vt 0.737562 0.766166
vt 0.746912 0.767994
vt 0.716999 0.780566
vt 0.726539 0.768138
vt 0.737562 0.766166
vt 0.716999 0.780566
vt 0.719491 0.772863
vt 0.726539 0.768138
vt 0.729534 0.799990
vt 0.719613 0.788915
vt 0.767375 0.783946
vt 0.718312 0.786349
vt 0.716999 0.780566
vt 0.746912 0.767994
vt 0.719613 0.788915
vt 0.718312 0.786349
vt 0.746912 0.767994
vt 0.048367 0.194436
vt 0.264588 0.000653
vt 0.380361 0.130069
vt 0.036151 0.276150
vt 0.062782 0.210546
vt 0.380361 0.130069
vt 0.062782 0.210546
vt 0.048367 0.194436
vt 0.380361 0.130069
vt 0.036151 0.276150
vt 0.000950 0.236789
vt 0.013847 0.231320
vt 0.036151 0.276150
vt 0.013847 0.231320
vt 0.052706 0.214825
vt 0.036151 0.276150
vt 0.052706 0.214825
vt 0.062782 0.210546
vt 0.252363 0.385112
vt 0.208977 0.336621
vt 0.295023 0.300106
vt 0.338409 0.348599
vt 0.338409 0.348599
vt 0.295023 0.300106
vt 0.381075 0.263589
vt 0.424458 0.312085
vt 0.208977 0.336621
vt 0.165588 0.288128
vt 0.251636 0.251611
vt 0.295023 0.300106
vt 0.295023 0.300106
vt 0.251636 0.251611
vt 0.337689 0.215092
vt 0.381075 0.263589
vt 0.209709 0.470110
vt 0.208977 0.336621
vt 0.252363 0.385112
vt 0.209709 0.470110
vt 0.036151 0.276150
vt 0.208977 0.336621
vt 0.209709 0.470110
vt 0.252363 0.385112
vt 0.338409 0.348599
vt 0.338409 0.348599
vt 0.424458 0.312085
vt 0.553891 0.324063
vt 0.209709 0.470110
vt 0.338409 0.348599
vt 0.553891 0.324063
vt 0.553891 0.324063
vt 0.424458 0.312085
vt 0.381075 0.263589
vt 0.165588 0.288128
vt 0.036151 0.276150
vt 0.251636 0.251611
vt 0.208977 0.336621
vt 0.036151 0.276150
vt 0.165588 0.288128
vt 0.036151 0.276150
vt 0.380361 0.130069
vt 0.251636 0.251611
vt 0.381075 0.263589
vt 0.337689 0.215092
vt 0.380361 0.130069
vt 0.251636 0.251611
vt 0.380361 0.130069
vt 0.337689 0.215092
vt 0.553891 0.324063
vt 0.381075 0.263589
vt 0.380361 0.130069
vt 0.666865 0.802676
vt 0.665717 0.796903
vt 0.713926 0.766166
vt 0.715086 0.772000
vt 0.113960 0.980094
vt 0.116526 0.972567
vt 0.163387 0.992275
vt 0.160794 0.999881
vt 0.169702 0.974850
vt 0.173212 0.972567
vt 0.220208 0.992179
vt 0.213114 0.996793
vt 0.166192 0.977133
vt 0.169702 0.974850
vt 0.213114 0.996793
vt 0.169702 0.974850
vt 0.220208 0.992179
vt 0.295103 0.973487
vt 0.300558 0.972567
vt 0.347739 0.992086
vt 0.336710 0.993944
vt 0.289649 0.974408
vt 0.295103 0.973487
vt 0.336710 0.993944
vt 0.295103 0.973487
vt 0.347739 0.992086
vt 0.406100 0.972567
vt 0.355139 0.993204
vt 0.350427 0.992357
vt 0.355139 0.993204
vt 0.415629 0.974276
vt 0.359851 0.994050
vt 0.406100 0.972567
vt 0.415629 0.974276
vt 0.355139 0.993204
vt 0.277800 0.972567
vt 0.287457 0.976126
vt 0.231784 0.995965
vt 0.222222 0.992446
vt 0.877892 0.766166
vt 0.889362 0.778425
vt 0.833762 0.798455
vt 0.822412 0.786325
vt 0.614519 0.808070
vt 0.604938 0.796893
vt 0.653325 0.766166
vt 0.663000 0.777464
vt 0.770789 0.798072
vt 0.770180 0.796789
vt 0.818419 0.766166
vt 0.819654 0.768756
vt 0.771398 0.799356
vt 0.770789 0.798072
vt 0.819654 0.768756
vt 0.770789 0.798072
vt 0.818419 0.766166
vt 0.497872 0.770228
vt 0.507719 0.766166
vt 0.602580 0.805752
vt 0.545831 0.790327
vt 0.592530 0.809897
vt 0.545831 0.790327
vt 0.602580 0.805752
vt 0.540907 0.831174
vt 0.507453 0.806145
vt 0.553771 0.825877
vt 0.447293 0.791076
vt 0.459897 0.785885
vt 0.507453 0.806145
vt 0.540907 0.831174
vt 0.447293 0.791076
vt 0.507453 0.806145
vt 0.507453 0.806145
vt 0.545831 0.790327
vt 0.592530 0.809897
vt 0.553771 0.825877
vt 0.014977 0.999481
vt 0.000950 0.984044
vt 0.097517 0.972567
vt 0.111835 0.988324
vt 0.409638 0.565064
vt 0.516345 0.471587
vt 0.615625 0.507278
vt 0.397811 0.698071
vt 0.302944 0.658530
vt 0.409638 0.565064
vt 0.397811 0.698071
vt 0.409638 0.565064
vt 0.615625 0.507278
vt 0.836880 0.194314
vt 0.956929 0.323463
vt 0.850407 0.359495
vt 0.732815 0.232991
vt 0.656889 0.000653
vt 0.644665 0.138149
vt 0.556505 0.043297
vt 0.644665 0.138149
vt 0.836880 0.194314
vt 0.732815 0.232991
vt 0.656889 0.000653
vt 0.836880 0.194314
vt 0.644665 0.138149
vt 0.017705 0.552263
vt 0.000950 0.532692
vt 0.097629 0.471587
vt 0.131829 0.511549
vt 0.034461 0.571835
vt 0.017705 0.552263
vt 0.131829 0.511549
vt 0.017705 0.552263
vt 0.097629 0.471587
vt 0.117062 0.668285
vt 0.034461 0.571835
vt 0.131829 0.511549
vt 0.300455 0.708453
vt 0.199656 0.764728
vt 0.117062 0.668285
vt 0.300455 0.708453
vt 0.117062 0.668285
vt 0.131829 0.511549
vt 0.444920 0.824981
vt 0.099561 0.970864
vt 0.000950 0.909092
vt 0.339253 0.766166
vt 0.417854 0.972567
vt 0.417854 0.972567
vt 0.417854 0.972567
vt 0.417854 0.972567
vt 0.417854 0.972567
vt 0.417854 0.972567
vt 0.417854 0.972567
vt 0.417854 0.972567
vt 0.417854 0.972567
vt 0.417854 0.972567
vt 0.417854 0.972567
vt 0.417854 0.972567
vt 0.417854 0.972567
vt 0.417854 0.972567
vt 0.417854 0.972567
vt 0.417854 0.972567
vt 0.417854 0.972567
vt 0.417854 0.972567
vt 0.417854 0.972567
vt 0.417854 0.972567
vt 0.417854 0.972567
vt 0.417854 0.972567
vt 0.417854 0.972567
vt 0.417854 0.972567
vt 0.417854 0.972567
vt 0.417854 0.972567
vn 0 1 0
vn 0 1 0
vn 0 1 0
vn 0.001346836 0.9999986 0.0009443266
vn 0.001346836 0.9999986 0.0009443266
vn 0.001346836 0.9999986 0.0009443266
vn -0.001896848 0.9999975 -0.001191807
vn -0.001896848 0.9999975 -0.001191807
vn -0.001896848 0.9999975 -0.001191807
vn 0.0008669446 0.9999982 0.001696521
vn 0.0008669446 0.9999982 0.001696521
vn 0.0008669446 0.9999982 0.001696521
vn 0 1 0
vn 0 1 0
vn 0 1 0
vn -0.0009078999 0.9999996 -0.0001483656
vn -0.0009078999 0.9999996 -0.0001483656
vn -0.0009078999 0.9999996 -0.0001483656
vn 0 1 0
vn 0 1 0
vn 0 1 0
vn 0.003200742 0.9999902 0.003064501
vn 0.003200742 0.9999902 0.003064501
vn 0.003200742 0.9999902 0.003064501
vn -4.771384E-05 1 -6.383048E-05
vn -4.771384E-05 1 -6.383048E-05
vn -4.771384E-05 1 -6.383048E-05
vn -0.0002068008 0.9999999 -0.0001310719
vn -0.0002068008 0.9999999 -0.0001310719
vn -0.0002068008 0.9999999 -0.0001310719
vn 2.658469E-05 1 -4.194143E-05
vn 2.658469E-05 1 -4.194143E-05
vn 2.658469E-05 1 -4.194143E-05
vn -0.0002068601 0.9999999 -0.0001309848
vn -0.0002068601 0.9999999 -0.0001309848
vn -0.0002068601 0.9999999 -0.0001309848
vn -0.0002068171 0.9999999 -0.0001311049
vn -0.0002068171 0.9999999 -0.0001311049
vn -0.0002068171 0.9999999 -0.0001311049
vn -0.0002068311 0.9999999 -0.0001311861
vn -0.0002068311 0.9999999 -0.0001311861
vn -0.0002068311 0.9999999 -0.0001311861
vn 3.774875E-05 1 -3.63591E-05
vn 4.27863E-05 1 -2.110935E-05
vn 3.774875E-05 1 -3.63591E-05
vn 3.27112E-05 1 -5.160884E-05
vn 1.676991E-05 1 -4.965565E-05
vn 2.180747E-05 1 -3.44059E-05
vn 1.676991E-05 1 -4.965565E-05
vn 1.173236E-05 1 -6.490539E-05
vn 2.684502E-05 1 -1.915615E-05
vn 3.188257E-05 1 -3.906404E-06
vn 2.684502E-05 1 -1.915615E-05
vn 2.180747E-05 1 -3.44059E-05
vn 5.866182E-06 1 -3.24527E-05
vn 1.090373E-05 1 -1.720295E-05
vn 5.866182E-06 1 -3.24527E-05
vn 8.286311E-07 1 -4.770244E-05
vn 6.459377E-05 1 -5.551525E-05
vn 6.459377E-05 1 -5.551525E-05
vn 6.459377E-05 1 -5.551525E-05
vn 6.376514E-05 1 -7.812808E-06
vn 6.376514E-05 1 -7.812808E-06
vn 6.376514E-05 1 -7.812808E-06
vn 7.466887E-05 1 -2.501576E-05
vn 7.466887E-05 1 -2.501576E-05
vn 7.466887E-05 1 -2.501576E-05
vn -9.246471E-06 1 -7.820193E-05
vn -9.246471E-06 1 -7.820193E-05
vn -9.246471E-06 1 -7.820193E-05
vn 4.361493E-05 1 -6.881179E-05
vn 4.361493E-05 1 -6.881179E-05
vn 4.361493E-05 1 -6.881179E-05
vn 2.26361E-05 1 -8.210834E-05
vn 2.26361E-05 1 -8.210834E-05
vn 2.26361E-05 1 -8.210834E-05
vn 5.28614E-05 1 9.390141E-06
vn 5.28614E-05 1 9.390141E-06
vn 5.28614E-05 1 9.390141E-06
vn 2.097884E-05 1 1.329655E-05
vn 2.097884E-05 1 1.329655E-05
vn 2.097884E-05 1 1.329655E-05
vn 0 1 0
vn 0 1 0
vn 0 1 0
vn -2.097884E-05 1 -1.329655E-05
vn -2.097884E-05 1 -1.329655E-05
vn -2.097884E-05 1 -1.329655E-05
vn -3.105394E-05 1 -4.379604E-05
vn -3.105394E-05 1 -4.379604E-05
vn -3.105394E-05 1 -4.379604E-05
vn -2.01502E-05 1 -6.099899E-05
vn -2.01502E-05 1 -6.099899E-05
vn -2.01502E-05 1 -6.099899E-05
vn -0.1674492 0 0.9858807
vn -0.1674492 0 0.9858807
vn -0.1674492 0 0.9858807
vn -0.1674492 0 0.9858807
vn 0.2038985 0 0.978992
vn 0.2038985 0 0.978992
vn 0.2038985 0 0.978992
vn 0.2038985 0 0.978992
vn 0.7071068 0 0.7071068
vn 0.7071068 0 0.7071068
vn 0.7071068 0 0.7071068
vn 0.7071068 0 0.7071068
vn 0.7071068 0 0.7071068
vn 0.7071068 0 0.7071068
vn 0.7071068 0 0.7071068
vn 0.7071068 0 0.7071068
vn 0.7071068 0 0.7071068
vn 0.9646988 0 0.2633557
vn 0.9646988 0 0.2633557
vn 0.9646988 0 0.2633557
vn 0.9646988 0 0.2633557
vn 0.9646988 0 0.2633557
vn 0.9646988 0 0.2633557
vn 0.9646988 -1.109176E-11 0.2633557
vn 0.9646988 -1.109176E-11 0.2633557
vn 0.9646988 -1.109176E-11 0.2633557
vn 0.9651051 0 -0.261863
vn 0.9651051 0 -0.261863
vn 0.9651051 0 -0.261863
vn 0.9651051 0 -0.261863
vn 0.9651051 0 -0.261863
vn 0.9651051 0 -0.261863
vn 0.9651051 1.430361E-11 -0.261863
vn 0.9651051 1.430361E-11 -0.261863
vn 0.9651051 1.430361E-11 -0.261863
vn 0.8766518 0 -0.4811254
vn 0.8766518 0 -0.4811254
vn 0.8766518 0 -0.4811254
vn 0.8766518 0 -0.4811254
vn 0.535542 0 -0.8445086
vn 0.535542 0 -0.8445086
vn 0.535542 0 -0.8445086
vn 0.535542 0 -0.8445086
vn -0.5356156 0 0.8444619
vn -0.5356156 0 0.8444619
vn -0.5356156 0 0.8444619
vn -0.5356156 0 0.8444619
vn -0.3404411 0 0.9402658
vn -0.3404411 0 0.9402658
vn -0.3404411 0 0.9402658
vn -0.3404411 0 0.9402658
vn -0.3404411 0 0.9402658
vn -0.3404411 0 0.9402658
vn -0.3404411 -5.019744E-11 0.9402658
vn -0.3404411 -5.019744E-11 0.9402658
vn -0.3404411 -5.019744E-11 0.9402658
vn 0.8444625 0 0.5356146
vn 0.8444625 0 0.5356146
vn 0.8444625 0 0.5356146
vn 0.8444625 0 0.5356146
vn 0.8444625 0 0.5356146
vn 0.8444625 0 0.5356146
vn 0.8444625 0 0.5356146
vn 0.8448682 0 0.5349745
vn 0.8448682 0 0.5349745
vn 0.8448682 0 0.5349745
vn 0.8448682 0 0.5349745
vn 0.8448682 0 0.5349745
vn 0.8448682 0 0.5349745
vn 0.8448682 0 0.5349745
vn 0.8448682 0 0.5349745
vn 0.8448682 0 0.5349745
vn 0.8445961 0 0.535404
vn 0.8445961 0 0.535404
vn 0.8445961 0 0.535404
vn 0.8445961 0 0.535404
vn -0.5353651 0 0.8446207
vn -0.5353651 0 0.8446207
vn -0.5353651 0 0.8446207
vn -0.5353651 0 0.8446207
vn 0.5987222 0 0.8009568
vn 0.5987222 0 0.8009568
vn 0.5987222 0 0.8009568
vn 0.5987222 0 0.8009568
vn 0.5987222 0 0.8009568
vn 0.5987222 0 0.8009568
vn 0.5987222 2.2388E-11 0.8009568
vn 0.5987222 2.2388E-11 0.8009568
vn 0.5987222 2.2388E-11 0.8009568
vn 0.5353904 0 -0.8446047
vn 0.5353904 0 -0.8446047
vn 0.5353904 0 -0.8446047
vn 0.5353904 0 -0.8446047
vn 0.535351 0 -0.8446296
vn 0.535351 0 -0.8446296
vn 0.535351 0 -0.8446296
vn 0.535351 0 -0.8446296
vn 0.535351 0 -0.8446296
vn 0.535351 0 -0.8446296
vn 0.535351 -2.454619E-11 -0.8446296
vn 0.535351 -2.454619E-11 -0.8446296
vn 0.535351 -2.454619E-11 -0.8446296
vn -0.5352268 0 0.8447084
vn -0.5352268 0 0.8447084
vn -0.5352268 0 0.8447084
vn -0.5352268 0 0.8447084
vn -0.5352268 0 0.8447084
vn -0.5352268 0 0.8447084
vn -0.5352268 2.454668E-11 0.8447084
vn -0.5352268 2.454668E-11 0.8447084
vn -0.5352268 2.454668E-11 0.8447084
vn -0.535351 0 0.8446296
vn -0.535351 0 0.8446296
vn -0.535351 0 0.8446296
vn -0.535351 0 0.8446296
vn -0.535351 0 0.8446296
vn -0.535351 0 0.8446296
vn -0.535351 -2.267415E-11 0.8446296
vn -0.535351 -2.267415E-11 0.8446296
vn -0.535351 -2.267415E-11 0.8446296
vn -0.844638 0 -0.5353379
vn -0.844638 0 -0.5353379
vn -0.844638 0 -0.5353379
vn -0.844638 0 -0.5353379
vn 0 -1 0
vn 0 -1 0
vn 0 -1 0
vn 0 -1 0
vn 0 -1 0
vn 0 -1 0
vn 0 -1 0
vn 0 -1 0
vn 0 -1 0
vn 0 -1 0
vn 0 -1 0
vn 0 -1 0
vn 0 -1 0
vn 0 -1 0
vn 0 -1 0
vn 0 -1 0
vn 0 -1 0
vn 0 -1 0
vn 0 -1 0
vn 0 -1 0
vn 0 -1 0
vn 0 -1 0
vn 0 -1 0
vn 0 -1 0
vn 0 -1 0
vn 0 -1 0

g CDNNDG02_0001700
f 1/1/1 2/2/2 3/3/3
f 4/4/4 5/5/5 6/6/6
f 7/7/7 8/8/8 9/9/9
f 10/10/10 11/11/11 12/12/12
f 13/13/13 14/14/14 15/15/15
f 16/16/16 17/17/17 18/18/18
f 19/19/19 20/20/20 21/21/21
f 22/22/22 23/23/23 24/24/24
f 25/25/25 26/26/26 27/27/27
f 28/28/28 29/29/29 30/30/30
f 31/31/31 32/32/32 33/33/33
f 34/34/34 35/35/35 36/36/36
f 37/37/37 38/38/38 39/39/39
f 40/40/40 41/41/41 42/42/42
f 43/43/43 45/45/45 46/46/46
f 45/45/45 43/43/43 44/44/44
f 50/50/50 47/47/47 49/49/49
f 49/49/49 47/47/47 48/48/48
f 51/51/51 53/53/53 54/54/54
f 53/53/53 51/51/51 52/52/52
f 58/58/58 55/55/55 57/57/57
f 57/57/57 55/55/55 56/56/56
f 59/59/59 60/60/60 61/61/61
f 62/62/62 63/63/63 64/64/64
f 65/65/65 66/66/66 67/67/67
f 68/68/68 69/69/69 70/70/70
f 71/71/71 72/72/72 73/73/73
f 74/74/74 75/75/75 76/76/76
f 77/77/77 78/78/78 79/79/79
f 80/80/80 81/81/81 82/82/82
f 83/83/83 84/84/84 85/85/85
f 86/86/86 87/87/87 88/88/88
f 89/89/89 90/90/90 91/91/91
f 92/92/92 93/93/93 94/94/94
f 98/98/98 95/95/95 96/96/96
f 97/97/97 98/98/98 96/96/96
f 99/99/99 101/101/101 102/102/102
f 99/99/99 100/100/100 101/101/101
f 103/103/103 104/104/104 105/105/105
f 106/106/106 107/107/107 108/108/108
f 109/109/109 110/110/110 111/111/111
f 112/112/112 113/113/113 114/114/114
f 115/115/115 116/116/116 117/117/117
f 118/118/118 119/119/119 120/120/120
f 121/121/121 122/122/122 123/123/123
f 124/124/124 125/125/125 126/126/126
f 127/127/127 128/128/128 129/129/129
f 133/133/133 131/131/131 132/132/132
f 133/133/133 130/130/130 131/131/131
f 136/136/136 134/134/134 135/135/135
f 134/134/134 136/136/136 137/137/137
f 139/139/139 140/140/140 141/141/141
f 141/141/141 138/138/138 139/139/139
f 142/142/142 143/143/143 144/144/144
f 145/145/145 146/146/146 147/147/147
f 148/148/148 149/149/149 150/150/150
f 154/154/154 151/151/151 152/152/152
f 152/152/152 153/153/153 154/154/154
f 155/155/155 156/156/156 157/157/157
f 158/158/158 159/159/159 160/160/160
f 161/161/161 162/162/162 163/163/163
f 164/164/164 165/165/165 166/166/166
f 168/168/168 169/169/169 170/170/170
f 167/167/167 168/168/168 170/170/170
f 171/171/171 173/173/173 174/174/174
f 173/173/173 171/171/171 172/172/172
f 175/175/175 176/176/176 177/177/177
f 178/178/178 179/179/179 180/180/180
f 181/181/181 182/182/182 183/183/183
f 184/184/184 186/186/186 187/187/187
f 184/184/184 185/185/185 186/186/186
f 188/188/188 189/189/189 190/190/190
f 191/191/191 192/192/192 193/193/193
f 194/194/194 195/195/195 196/196/196
f 197/197/197 198/198/198 199/199/199
f 200/200/200 201/201/201 202/202/202
f 203/203/203 204/204/204 205/205/205
f 206/206/206 207/207/207 208/208/208
f 209/209/209 210/210/210 211/211/211
f 212/212/212 213/213/213 214/214/214
f 216/216/216 217/217/217 218/218/218
f 215/215/215 216/216/216 218/218/218
f 242/242/242 243/243/243 244/244/244
f 240/240/240 242/242/242 244/244/244
f 221/221/221 235/235/235 236/236/236
f 220/220/220 237/237/237 219/219/219
f 240/240/240 241/241/241 242/242/242
f 222/222/222 223/223/223 224/224/224
f 236/236/236 220/220/220 221/221/221
f 238/238/238 240/240/240 244/244/244
f 225/225/225 234/234/234 235/235/235
f 225/225/225 226/226/226 234/234/234
f 238/238/238 239/239/239 240/240/240
f 226/226/226 227/227/227 229/229/229
f 227/227/227 228/228/228 229/229/229
f 226/226/226 229/229/229 234/234/234
f 229/229/229 230/230/230 234/234/234
f 230/230/230 231/231/231 232/232/232
f 244/244/244 219/219/219 238/238/238
f 230/230/230 232/232/232 234/234/234
f 238/238/238 219/219/219 237/237/237
f 232/232/232 233/233/233 234/234/234
f 224/224/224 225/225/225 235/235/235
f 221/221/221 222/222/222 235/235/235
f 222/222/222 224/224/224 235/235/235
f 237/237/237 220/220/220 236/236/236
