v 3.149887 5.854648 -0.9608176
v 7.031887 5.85502 -7.007818
v 6.898887 5.854991 -7.092818
v -4.863113 5.853741 9.014182
v -3.062113 5.854132 10.17118
v -2.713113 5.854166 9.627182
v -4.530113 5.853773 8.496182
v 2.948887 5.852818 -9.629818
v 3.149887 5.854648 -0.9608176
v 6.898887 5.854991 -7.092818
v 0.6568868 5.854234 -0.2448176
v 3.149887 5.854648 -0.9608176
v 2.948887 5.852818 -9.629818
v -2.713113 5.854166 9.627182
v 2.667887 5.85473 2.105182
v 0.8418868 5.854332 0.9321824
v -4.530113 5.853773 8.496182
v -7.475113 5.853533 6.605183
v 0.8418868 5.854332 0.9321824
v 0.6568868 5.854234 -0.2448176
v -2.713113 5.854166 9.627182
v -2.322113 5.854251 9.878182
v 2.667887 5.85473 2.105182
v -7.475113 5.853533 6.605183
v -4.530113 5.853773 8.496182
v 0.8418868 5.854332 0.9321824
v -7.475113 5.853533 6.605183
v 0.6568868 5.854234 -0.2448176
v 2.948887 5.852818 -9.629818
v 5.11301 5.14466 -8.655815
v 6.106947 5.141217 -8.031564
v 6.302507 5.03641 -8.336061
v 5.302134 5.043298 -8.950313
v 4.119073 5.148104 -9.280066
v 5.11301 5.14466 -8.655815
v 5.302134 5.043298 -8.950313
v 4.30176 5.050185 -9.564566
v 5.302134 5.043298 -8.950313
v 6.302507 5.03641 -8.336061
v 6.498067 4.931604 -8.640557
v 5.491257 4.941935 -9.24481
v 4.30176 5.050185 -9.564566
v 5.302134 5.043298 -8.950313
v 5.491257 4.941935 -9.24481
v 4.484447 4.952266 -9.849064
v 6.106947 5.141217 -8.031564
v 6.898887 5.246023 -7.092818
v 6.302507 5.03641 -8.336061
v 6.302507 5.03641 -8.336061
v 6.898887 5.246023 -7.092818
v 7.706874 4.813023 -8.350799
v 5.11301 5.14466 -8.655815
v 6.898887 5.246023 -7.092818
v 6.106947 5.141217 -8.031564
v 2.948887 5.246023 -9.629818
v 5.11301 5.14466 -8.655815
v 4.119073 5.148104 -9.280066
v 2.948887 5.246023 -9.629818
v 6.898887 5.246023 -7.092818
v 5.11301 5.14466 -8.655815
v 2.948887 5.246023 -9.629818
v 4.119073 5.148104 -9.280066
v 4.30176 5.050185 -9.564566
v 5.491257 4.941935 -9.24481
v 6.498067 4.931604 -8.640557
v 7.706874 4.813023 -8.350799
v 6.302507 5.03641 -8.336061
v 7.706874 4.813023 -8.350799
v 6.498067 4.931604 -8.640557
v 3.653887 4.868123 -10.72782
v 5.491257 4.941935 -9.24481
v 7.706874 4.813023 -8.350799
v 3.653887 4.868123 -10.72782
v 4.30176 5.050185 -9.564566
v 4.484447 4.952266 -9.849064
v 3.653887 4.868123 -10.72782
v 4.484447 4.952266 -9.849064
v 5.491257 4.941935 -9.24481
v 2.948887 5.246023 -9.629818
v 4.30176 5.050185 -9.564566
v 3.653887 4.868123 -10.72782
v 3.653887 4.868123 -10.72782
v 7.706874 4.813023 -8.350799
v 3.755932 4.813392 -10.88689
v -2.713113 -5.805237 9.627182
v -2.322113 -5.805237 9.878182
v -2.322113 5.854251 9.878182
v -2.713113 5.854166 9.627182
v -2.322113 -5.805237 9.878182
v 2.667887 -5.805237 2.105182
v 2.667887 5.85473 2.105182
v -2.322113 5.854251 9.878182
v 0.8418868 5.854332 0.9321824
v 2.667887 5.85473 2.105182
v 2.667887 -5.805237 2.105182
v 0.8418868 -5.805237 0.9321824
v 0.6568868 5.854234 -0.2448176
v 0.8418868 5.854332 0.9321824
v 0.8418868 -5.805237 0.9321824
v 0.6568868 -5.805237 -0.2448176
v 1.903387 -5.805237 -0.6028176
v 3.149887 -5.805237 -0.9608176
v 3.149887 5.854648 -0.9608176
v 0.6568868 5.854234 -0.2448176
v 0.6568868 -5.805237 -0.2448176
v 1.903387 -5.805237 -0.6028176
v 0.6568868 5.854234 -0.2448176
v 1.903387 -5.805237 -0.6028176
v 3.149887 5.854648 -0.9608176
v 3.149887 -5.805237 -0.9608176
v 7.031887 -5.805237 -7.007818
v 7.031887 5.85502 -7.007818
v 3.149887 5.854648 -0.9608176
v 6.898887 5.854991 -7.092818
v 6.965387 -5.805237 -7.050318
v 6.898887 5.246023 -7.092818
v 6.898887 5.246023 -7.092818
v 6.965387 -5.805237 -7.050318
v 6.898887 -5.805237 -7.092818
v 6.965387 -5.805237 -7.050318
v 7.031887 5.85502 -7.007818
v 7.031887 -5.805237 -7.007818
v 6.898887 5.854991 -7.092818
v 7.031887 5.85502 -7.007818
v 6.965387 -5.805237 -7.050318
v 2.948887 5.852818 -9.629818
v 6.898887 5.854991 -7.092818
v 6.898887 5.246023 -7.092818
v 2.948887 5.246023 -9.629818
v -7.475113 5.853533 6.605183
v -2.263113 -5.805237 -1.512318
v -7.475113 -5.805237 6.605183
v -7.475113 5.853533 6.605183
v 2.948887 5.852818 -9.629818
v -2.263113 -5.805237 -1.512318
v -2.263113 -5.805237 -1.512318
v 2.948887 5.852818 -9.629818
v 2.948887 5.246023 -9.629818
v -2.263113 -5.805237 -1.512318
v 2.948887 5.246023 -9.629818
v 2.948887 -5.805237 -9.629818
v 2.948887 5.246023 -9.629818
v 3.301387 -5.805237 -10.17882
v 2.948887 -5.805237 -9.629818
v 3.301387 -5.805237 -10.17882
v 3.653887 4.868123 -10.72782
v 3.653887 -5.805237 -10.72782
v 2.948887 5.246023 -9.629818
v 3.653887 4.868123 -10.72782
v 3.301387 -5.805237 -10.17882
v 3.653887 4.868123 -10.72782
v 3.70491 -5.805237 -10.80735
v 3.653887 -5.805237 -10.72782
v 3.70491 -5.805237 -10.80735
v 3.755932 4.813392 -10.88689
v 3.755932 -5.805237 -10.88689
v 3.653887 4.868123 -10.72782
v 3.755932 4.813392 -10.88689
v 3.70491 -5.805237 -10.80735
v -6.002613 -5.805237 7.550683
v -4.530113 -5.805237 8.496182
v -4.530113 5.853773 8.496182
v -7.475113 5.853533 6.605183
v -7.475113 -5.805237 6.605183
v -6.002613 -5.805237 7.550683
v -7.475113 5.853533 6.605183
v -6.002613 -5.805237 7.550683
v -4.530113 5.853773 8.496182
v -4.863113 5.853741 9.014182
v -4.530113 5.853773 8.496182
v -4.530113 -5.805237 8.496182
v -4.863113 -5.805237 9.014182
v -4.863113 -5.805237 9.014182
v -3.062113 -5.805237 10.17118
v -3.062113 5.854132 10.17118
v -4.863113 5.853741 9.014182
v -3.062113 -5.805237 10.17118
v -2.713113 -5.805237 9.627182
v -2.713113 5.854166 9.627182
v -3.062113 5.854132 10.17118
v 6.898887 -5.805237 -7.092818
v 7.706874 -5.805237 -8.350799
v 7.706874 4.813023 -8.350799
v 6.898887 5.246023 -7.092818
v 3.755932 4.813392 -10.88689
v 7.706874 4.813023 -8.350799
v 7.706874 -5.805237 -8.350799
v 3.755932 -5.805237 -10.88689
v -4.863113 -5.805237 9.014182
v -4.530113 -5.805237 8.496182
v -6.002613 -5.805237 7.550683
v -7.475113 -5.805237 6.605183
v -2.263113 -5.805237 -1.512318
v 2.948887 -5.805237 -9.629818
v 3.301387 -5.805237 -10.17882
v 3.653887 -5.805237 -10.72782
v 3.70491 -5.805237 -10.80735
v 3.755932 -5.805237 -10.88689
v 7.706874 -5.805237 -8.350799
v 6.898887 -5.805237 -7.092818
v 6.965387 -5.805237 -7.050318
v 7.031887 -5.805237 -7.007818
v 3.149887 -5.805237 -0.9608176
v 1.903387 -5.805237 -0.6028176
v 0.6568868 -5.805237 -0.2448176
v 0.8418868 -5.805237 0.9321824
v 2.667887 -5.805237 2.105182
v -2.322113 -5.805237 9.878182
v -2.713113 -5.805237 9.627182
v -3.062113 -5.805237 10.17118
vt 0.372536 0.088410
vt 0.573811 0.001284
vt 0.576665 0.004255
vt 0.040754 0.268119
vt 0.001912 0.227887
vt 0.020017 0.220056
vt 0.057994 0.260647
vt 0.661841 0.092501
vt 0.372536 0.088410
vt 0.576665 0.004255
vt 0.348969 0.144213
vt 0.372536 0.088410
vt 0.661841 0.092501
vt 0.020017 0.220056
vt 0.270294 0.099335
vt 0.309672 0.140129
vt 0.057994 0.260647
vt 0.121471 0.326434
vt 0.309672 0.140129
vt 0.348969 0.144213
vt 0.020017 0.220056
vt 0.011590 0.211321
vt 0.270294 0.099335
vt 0.121471 0.326434
vt 0.057994 0.260647
vt 0.309672 0.140129
vt 0.121471 0.326434
vt 0.348969 0.144213
vt 0.661841 0.092501
vt 0.402702 0.827221
vt 0.382045 0.805203
vt 0.393158 0.800600
vt 0.413447 0.822767
vt 0.423358 0.849239
vt 0.402702 0.827221
vt 0.413447 0.822767
vt 0.433736 0.844934
vt 0.413447 0.822767
vt 0.393158 0.800600
vt 0.404268 0.795999
vt 0.424190 0.818314
vt 0.433736 0.844934
vt 0.413447 0.822767
vt 0.424190 0.818314
vt 0.444112 0.840630
vt 0.382045 0.805203
vt 0.349904 0.787937
vt 0.393158 0.800600
vt 0.393158 0.800600
vt 0.349904 0.787937
vt 0.395821 0.768935
vt 0.402702 0.827221
vt 0.349904 0.787937
vt 0.382045 0.805203
vt 0.434001 0.875414
vt 0.402702 0.827221
vt 0.423358 0.849239
vt 0.434001 0.875414
vt 0.349904 0.787937
vt 0.402702 0.827221
vt 0.434001 0.875414
vt 0.423358 0.849239
vt 0.433736 0.844934
vt 0.424190 0.818314
vt 0.404268 0.795999
vt 0.395821 0.768935
vt 0.393158 0.800600
vt 0.395821 0.768935
vt 0.404268 0.795999
vt 0.474041 0.858792
vt 0.424190 0.818314
vt 0.395821 0.768935
vt 0.474041 0.858792
vt 0.433736 0.844934
vt 0.444112 0.840630
vt 0.474041 0.858792
vt 0.444112 0.840630
vt 0.424190 0.818314
vt 0.434001 0.875414
vt 0.433736 0.844934
vt 0.474041 0.858792
vt 0.474041 0.858792
vt 0.395821 0.768935
vt 0.479838 0.856387
vt 0.488288 0.884467
vt 0.496329 0.892889
vt 0.359974 0.932084
vt 0.351816 0.923539
vt 0.397467 0.658040
vt 0.143021 0.765676
vt 0.001912 0.736928
vt 0.260056 0.627728
vt 0.220687 0.953416
vt 0.181644 0.913206
vt 0.308305 0.884467
vt 0.346779 0.924099
vt 0.040875 0.999326
vt 0.001912 0.995378
vt 0.128004 0.966624
vt 0.166404 0.970515
vt 0.841792 0.825125
vt 0.829958 0.852102
vt 0.688336 0.823673
vt 0.712351 0.768935
vt 0.853626 0.798147
vt 0.841792 0.825125
vt 0.712351 0.768935
vt 0.841792 0.825125
vt 0.688336 0.823673
vt 0.345030 0.797477
vt 0.147244 0.881032
vt 0.001912 0.853704
vt 0.202572 0.768935
vt 0.404349 0.658237
vt 0.524808 0.629182
vt 0.410800 0.656776
vt 0.410800 0.656776
vt 0.524808 0.629182
vt 0.526197 0.630637
vt 0.524808 0.629182
vt 0.401530 0.655286
vt 0.523419 0.627728
vt 0.404349 0.658237
vt 0.401530 0.655286
vt 0.524808 0.629182
vt 0.488496 0.745888
vt 0.404349 0.658237
vt 0.410800 0.656776
vt 0.494861 0.744365
vt 0.001912 0.584262
vt 0.401226 0.505884
vt 0.133109 0.623991
vt 0.001912 0.584262
vt 0.546099 0.344542
vt 0.401226 0.505884
vt 0.401226 0.505884
vt 0.546099 0.344542
vt 0.552605 0.346823
vt 0.401226 0.505884
vt 0.552605 0.346823
vt 0.669367 0.387767
vt 0.552605 0.346823
vt 0.687503 0.379778
vt 0.669367 0.387767
vt 0.687503 0.379778
vt 0.593413 0.332048
vt 0.705638 0.371789
vt 0.552605 0.346823
vt 0.593413 0.332048
vt 0.687503 0.379778
vt 0.593413 0.332048
vt 0.708266 0.370632
vt 0.705638 0.371789
vt 0.708266 0.370632
vt 0.599322 0.329910
vt 0.710893 0.369476
vt 0.593413 0.332048
vt 0.599322 0.329910
vt 0.708266 0.370632
vt 0.652520 0.801089
vt 0.682923 0.833243
vt 0.545436 0.872276
vt 0.483748 0.807034
vt 0.622117 0.768935
vt 0.652520 0.801089
vt 0.483748 0.807034
vt 0.652520 0.801089
vt 0.545436 0.872276
vt 0.500956 0.891956
vt 0.518143 0.884467
vt 0.648971 0.924266
vt 0.632033 0.931645
vt 0.138971 0.884467
vt 0.176125 0.923648
vt 0.039602 0.963003
vt 0.001912 0.923252
vt 0.985923 0.914268
vt 0.968247 0.921613
vt 0.831740 0.891919
vt 0.849673 0.884467
vt 0.826882 0.909934
vt 0.785959 0.927020
vt 0.653920 0.902790
vt 0.689947 0.884467
vt 0.615974 0.740090
vt 0.531549 0.652578
vt 0.642407 0.627728
vt 0.725725 0.714091
vt 0.172084 0.966624
vt 0.172084 0.966624
vt 0.172084 0.966624
vt 0.172084 0.966624
vt 0.172084 0.966624
vt 0.172084 0.966624
vt 0.172084 0.966624
vt 0.172084 0.966624
vt 0.172084 0.966624
vt 0.172084 0.966624
vt 0.172084 0.966624
vt 0.172084 0.966624
vt 0.172084 0.966624
vt 0.172084 0.966624
vt 0.172084 0.966624
vt 0.172084 0.966624
vt 0.172084 0.966624
vt 0.172084 0.966624
vt 0.172084 0.966624
vt 0.172084 0.966624
vt 0.172084 0.966624
vt 0.172084 0.966624
vn -0.000181983 1 -5.525019E-05
vn -0.000181983 1 -5.525019E-05
vn -0.000181983 1 -5.525019E-05
vn -0.0001819683 1 -5.524214E-05
vn -0.0001819651 1 -5.524491E-05
vn -0.000181962 1 -5.524766E-05
vn -0.0001819651 1 -5.524491E-05
vn -0.0004209938 0.9999999 -0.0002013773
vn -0.0004209938 0.9999999 -0.0002013773
vn -0.0004209938 0.9999999 -0.0002013773
vn -0.000225241 0.9999999 -0.0002059161
vn -0.000225241 0.9999999 -0.0002059161
vn -0.000225241 0.9999999 -0.0002059161
vn -0.0001819672 1 -5.524019E-05
vn -0.0001819677 1 -5.524039E-05
vn -0.0001819672 1 -5.524019E-05
vn -0.0001819667 1 -5.524E-05
vn -0.0001384396 1 -6.208043E-05
vn -0.0001384396 1 -6.208043E-05
vn -0.0001384396 1 -6.208043E-05
vn -0.0001819769 1 -5.524698E-05
vn -0.0001819769 1 -5.524698E-05
vn -0.0001819769 1 -5.524698E-05
vn -8.849172E-05 1 1.114655E-05
vn -8.849172E-05 1 1.114655E-05
vn -8.849172E-05 1 1.114655E-05
vn -0.0002684986 0.9999999 -0.0002164804
vn -0.0002684986 0.9999999 -0.0002164804
vn -0.0002684986 0.9999999 -0.0002164804
vn 0.150332 0.960529 -0.2340607
vn 0.1503318 0.960529 -0.2340606
vn 0.1503317 0.9605291 -0.2340605
vn 0.1503318 0.960529 -0.2340606
vn 0.1503322 0.9605288 -0.2340611
vn 0.1503321 0.9605289 -0.234061
vn 0.1503319 0.960529 -0.2340608
vn 0.1503321 0.9605289 -0.234061
vn 0.1503319 0.960529 -0.2340608
vn 0.1503317 0.960529 -0.2340607
vn 0.1503316 0.9605291 -0.2340605
vn 0.1503317 0.960529 -0.2340607
vn 0.1503321 0.9605288 -0.2340612
vn 0.1503319 0.9605289 -0.2340611
vn 0.1503318 0.960529 -0.2340609
vn 0.1503319 0.9605289 -0.2340611
vn 0.1503319 0.9605291 -0.2340603
vn 0.1503319 0.9605291 -0.2340603
vn 0.1503319 0.9605291 -0.2340603
vn 0.1503315 0.9605292 -0.2340601
vn 0.1503315 0.9605292 -0.2340601
vn 0.1503315 0.9605292 -0.2340601
vn 0.1503316 0.9605292 -0.2340601
vn 0.1503316 0.9605292 -0.2340601
vn 0.1503316 0.9605292 -0.2340601
vn 0.1503325 0.9605287 -0.2340616
vn 0.1503325 0.9605287 -0.2340616
vn 0.1503325 0.9605287 -0.2340616
vn 0.1503321 0.960529 -0.2340607
vn 0.1503321 0.960529 -0.2340607
vn 0.1503321 0.960529 -0.2340607
vn 0.1503324 0.9605288 -0.234061
vn 0.1503324 0.9605288 -0.234061
vn 0.1503324 0.9605288 -0.234061
vn 0.1503313 0.9605292 -0.2340602
vn 0.1503313 0.9605292 -0.2340602
vn 0.1503313 0.9605292 -0.2340602
vn 0.1503314 0.9605291 -0.2340606
vn 0.1503314 0.9605291 -0.2340606
vn 0.1503314 0.9605291 -0.2340606
vn 0.1503316 0.960529 -0.234061
vn 0.1503316 0.960529 -0.234061
vn 0.1503316 0.960529 -0.234061
vn 0.1503319 0.9605288 -0.2340614
vn 0.1503319 0.9605288 -0.2340614
vn 0.1503319 0.9605288 -0.2340614
vn 0.1503323 0.9605287 -0.2340617
vn 0.1503323 0.9605287 -0.2340617
vn 0.1503323 0.9605287 -0.2340617
vn 0.1503324 0.9605287 -0.2340616
vn 0.1503324 0.9605287 -0.2340616
vn 0.1503324 0.9605287 -0.2340616
vn 0.150325 0.9605328 -0.2340495
vn 0.150325 0.9605328 -0.2340495
vn 0.150325 0.9605328 -0.2340495
vn -0.5402135 0 0.841528
vn -0.5402135 0 0.841528
vn -0.5402135 0 0.841528
vn -0.5402135 0 0.841528
vn 0.8415195 0 0.5402267
vn 0.8415195 0 0.5402267
vn 0.8415195 0 0.5402267
vn 0.8415195 0 0.5402267
vn 0.5404781 0 -0.8413581
vn 0.5404781 0 -0.8413581
vn 0.5404781 0 -0.8413581
vn 0.5404781 0 -0.8413581
vn 0.9878716 0 -0.1552729
vn 0.9878716 0 -0.1552729
vn 0.9878716 0 -0.1552729
vn 0.9878716 0 -0.1552729
vn 0.2760448 0 0.9611447
vn 0.2760448 0 0.9611447
vn 0.2760448 0 0.9611447
vn 0.2760448 0 0.9611447
vn 0.2760448 0 0.9611447
vn 0.2760448 0 0.9611447
vn 0.2760448 0 0.9611447
vn 0.2760448 0 0.9611447
vn 0.2760448 0 0.9611447
vn 0.8415174 0 0.54023
vn 0.8415174 0 0.54023
vn 0.8415174 0 0.54023
vn 0.8415174 0 0.54023
vn 0.5385143 0 -0.8426164
vn 0.5385143 0 -0.8426164
vn 0.5385143 0 -0.8426164
vn 0.5385143 0 -0.8426164
vn 0.5385143 0 -0.8426164
vn 0.5385143 0 -0.8426164
vn 0.5385143 0 -0.8426164
vn 0.5385143 0 -0.8426164
vn 0.5385143 0 -0.8426164
vn 0.5385143 2.648401E-10 -0.8426164
vn 0.5385143 2.648401E-10 -0.8426164
vn 0.5385143 2.648401E-10 -0.8426164
vn 0.540413 0 -0.8413999
vn 0.540413 0 -0.8413999
vn 0.540413 0 -0.8413999
vn 0.540413 0 -0.8413999
vn -0.8414798 0 -0.5402886
vn -0.8414798 0 -0.5402886
vn -0.8414798 0 -0.5402886
vn -0.8414798 3.592117E-10 -0.5402886
vn -0.8414798 3.592117E-10 -0.5402886
vn -0.8414798 3.592117E-10 -0.5402886
vn -0.8414798 0 -0.5402886
vn -0.8414798 0 -0.5402886
vn -0.8414798 0 -0.5402886
vn -0.8414798 0 -0.5402886
vn -0.8414798 0 -0.5402886
vn -0.8414798 0 -0.5402886
vn -0.8414771 0 -0.5402928
vn -0.8414771 0 -0.5402928
vn -0.8414771 0 -0.5402928
vn -0.8414771 0 -0.5402928
vn -0.8414771 0 -0.5402928
vn -0.8414771 0 -0.5402928
vn -0.8414771 -2.547826E-10 -0.5402928
vn -0.8414771 -2.547826E-10 -0.5402928
vn -0.8414771 -2.547826E-10 -0.5402928
vn -0.8416938 0 -0.5399551
vn -0.8416938 0 -0.5399551
vn -0.8416938 0 -0.5399551
vn -0.8416938 0 -0.5399551
vn -0.8416938 0 -0.5399551
vn -0.8416938 0 -0.5399551
vn -0.8416938 2.574961E-10 -0.5399551
vn -0.8416938 2.574961E-10 -0.5399551
vn -0.8416938 2.574961E-10 -0.5399551
vn -0.5403098 0 0.8414661
vn -0.5403098 0 0.8414661
vn -0.5403098 0 0.8414661
vn -0.5403098 0 0.8414661
vn -0.5403098 0 0.8414661
vn -0.5403098 0 0.8414661
vn -0.5403098 -1.348768E-12 0.8414661
vn -0.5403098 -1.348768E-12 0.8414661
vn -0.5403098 -1.348768E-12 0.8414661
vn -0.8411785 0 -0.5407576
vn -0.8411785 0 -0.5407576
vn -0.8411785 0 -0.5407576
vn -0.8411785 0 -0.5407576
vn -0.5404978 0 0.8413454
vn -0.5404978 0 0.8413454
vn -0.5404978 0 0.8413454
vn -0.5404978 0 0.8413454
vn 0.8416808 0 0.5399753
vn 0.8416808 0 0.5399753
vn 0.8416808 0 0.5399753
vn 0.8416808 0 0.5399753
vn 0.8413957 0 0.5404195
vn 0.8413957 0 0.5404195
vn 0.8413957 0 0.5404195
vn 0.8413957 0 0.5404195
vn 0.5401846 0 -0.8415466
vn 0.5401846 0 -0.8415466
vn 0.5401846 0 -0.8415466
vn 0.5401846 0 -0.8415466
vn 0 -1 0
vn 0 -1 0
vn 0 -1 0
vn 0 -1 0
vn 0 -1 0
vn 0 -1 0
vn 0 -1 0
vn 0 -1 0
vn 0 -1 0
vn 0 -1 0
vn 0 -1 0
vn 0 -1 0
vn 0 -1 0
vn 0 -1 0
vn 0 -1 0
vn 0 -1 0
vn 0 -1 0
vn 0 -1 0
vn 0 -1 0
vn 0 -1 0
vn 0 -1 0
vn 0 -1 0

g CDNNDG02_0001140
f 1/1/1 2/2/2 3/3/3
f 4/4/4 5/5/5 7/7/7
f 7/7/7 5/5/5 6/6/6
f 8/8/8 9/9/9 10/10/10
f 11/11/11 12/12/12 13/13/13
f 14/14/14 16/16/16 17/17/17
f 14/14/14 15/15/15 16/16/16
f 18/18/18 19/19/19 20/20/20
f 21/21/21 22/22/22 23/23/23
f 24/24/24 25/25/25 26/26/26
f 27/27/27 28/28/28 29/29/29
f 33/33/33 30/30/30 31/31/31
f 32/32/32 33/33/33 31/31/31
f 37/37/37 34/34/34 35/35/35
f 36/36/36 37/37/37 35/35/35
f 41/41/41 38/38/38 39/39/39
f 40/40/40 41/41/41 39/39/39
f 45/45/45 42/42/42 43/43/43
f 44/44/44 45/45/45 43/43/43
f 46/46/46 47/47/47 48/48/48
f 49/49/49 50/50/50 51/51/51
f 52/52/52 53/53/53 54/54/54
f 55/55/55 56/56/56 57/57/57
f 58/58/58 59/59/59 60/60/60
f 61/61/61 62/62/62 63/63/63
f 64/64/64 65/65/65 66/66/66
f 67/67/67 68/68/68 69/69/69
f 70/70/70 71/71/71 72/72/72
f 73/73/73 74/74/74 75/75/75
f 76/76/76 77/77/77 78/78/78
f 79/79/79 80/80/80 81/81/81
f 82/82/82 83/83/83 84/84/84
f 88/88/88 85/85/85 86/86/86
f 87/87/87 88/88/88 86/86/86
f 92/92/92 89/89/89 90/90/90
f 90/90/90 91/91/91 92/92/92
f 95/95/95 93/93/93 94/94/94
f 93/93/93 95/95/95 96/96/96
f 100/100/100 97/97/97 99/99/99
f 99/99/99 97/97/97 98/98/98
f 101/101/101 102/102/102 103/103/103
f 104/104/104 105/105/105 106/106/106
f 107/107/107 108/108/108 109/109/109
f 111/111/111 112/112/112 113/113/113
f 110/110/110 111/111/111 113/113/113
f 114/114/114 115/115/115 116/116/116
f 117/117/117 118/118/118 119/119/119
f 120/120/120 121/121/121 122/122/122
f 123/123/123 124/124/124 125/125/125
f 126/126/126 128/128/128 129/129/129
f 126/126/126 127/127/127 128/128/128
f 130/130/130 131/131/131 132/132/132
f 133/133/133 134/134/134 135/135/135
f 136/136/136 137/137/137 138/138/138
f 139/139/139 140/140/140 141/141/141
f 142/142/142 143/143/143 144/144/144
f 145/145/145 146/146/146 147/147/147
f 148/148/148 149/149/149 150/150/150
f 151/151/151 152/152/152 153/153/153
f 154/154/154 155/155/155 156/156/156
f 157/157/157 158/158/158 159/159/159
f 160/160/160 161/161/161 162/162/162
f 163/163/163 164/164/164 165/165/165
f 166/166/166 167/167/167 168/168/168
f 172/172/172 169/169/169 171/171/171
f 171/171/171 169/169/169 170/170/170
f 174/174/174 175/175/175 176/176/176
f 176/176/176 173/173/173 174/174/174
f 178/178/178 179/179/179 180/180/180
f 177/177/177 178/178/178 180/180/180
f 182/182/182 183/183/183 181/181/181
f 181/181/181 183/183/183 184/184/184
f 186/186/186 187/187/187 188/188/188
f 185/185/185 186/186/186 188/188/188
f 207/207/207 208/208/208 209/209/209
f 190/190/190 209/209/209 210/210/210
f 190/190/190 206/206/206 209/209/209
f 190/190/190 191/191/191 206/206/206
f 206/206/206 207/207/207 209/209/209
f 191/191/191 192/192/192 193/193/193
f 191/191/191 193/193/193 206/206/206
f 193/193/193 194/194/194 204/204/204
f 194/194/194 195/195/195 200/200/200
f 195/195/195 196/196/196 199/199/199
f 196/196/196 197/197/197 199/199/199
f 197/197/197 198/198/198 199/199/199
f 195/195/195 199/199/199 200/200/200
f 206/206/206 193/193/193 205/205/205
f 194/194/194 200/200/200 203/203/203
f 200/200/200 201/201/201 203/203/203
f 201/201/201 202/202/202 203/203/203
f 194/194/194 203/203/203 204/204/204
f 189/189/189 190/190/190 210/210/210
f 193/193/193 204/204/204 205/205/205
