v 2.165438 8.096111 -10.53322
v 5.084438 8.095584 -8.600216
v 4.718438 8.095806 -10.13922
v -0.6525615 8.094956 1.390784
v 5.084438 8.095584 -8.600216
v 2.165438 8.096111 -10.53322
v -4.294562 8.095603 -0.9292163
v 2.165438 8.096111 -10.53322
v 4.718438 8.095806 -10.13922
v 3.413438 8.096038 -10.97122
v 4.718438 8.095806 -10.13922
v 5.084438 8.095584 -8.600216
v 5.118438 8.095587 -8.653216
v -4.294562 8.095603 -0.9292163
v 2.165438 8.096111 -10.53322
v 1.923438 8.096154 -10.68722
v -3.124562 8.095255 11.06578
v 8.158439 8.095255 -6.641216
v -0.6525615 8.094956 1.390784
v -3.124562 8.095255 11.06578
v -0.6525615 8.094956 1.390784
v -2.015562 8.094835 3.529784
v -3.062562 8.094864 4.167784
v -2.015562 8.094835 3.529784
v -2.471561 8.094916 3.239784
v -3.124562 8.095255 11.06578
v -2.015562 8.094835 3.529784
v -3.062562 8.094864 4.167784
v -6.392561 8.094619 8.981784
v -3.062562 8.094864 4.167784
v -4.685562 8.095152 3.133784
v -7.828561 8.094873 8.066784
v -6.392561 8.094619 8.981784
v -3.124562 8.095255 11.06578
v -3.062562 8.094864 4.167784
v -0.6525615 8.094956 1.390784
v 8.158439 8.095255 -6.641216
v 5.084438 8.095584 -8.600216
v -8.582561 7.035255 9.249784
v -6.392561 7.691255 8.981784
v -7.828561 7.035255 8.066784
v -6.392561 7.691255 8.981784
v -3.879562 7.035255 12.24978
v -3.124562 7.691255 11.06578
v -8.582561 7.035255 9.249784
v -3.879562 7.035255 12.24978
v -6.392561 7.691255 8.981784
v -2.471561 8.094916 3.239784
v -2.015562 8.094835 3.529784
v -2.015562 -8.054739 3.529784
v -2.471561 -8.054739 3.239784
v -3.062562 8.094864 4.167784
v -2.767061 -8.054739 3.703784
v -3.062562 -8.054739 4.167784
v -2.767061 -8.054739 3.703784
v -2.471561 8.094916 3.239784
v -2.471561 -8.054739 3.239784
v -3.062562 8.094864 4.167784
v -2.471561 8.094916 3.239784
v -2.767061 -8.054739 3.703784
v -4.685562 8.095152 3.133784
v -3.062562 8.094864 4.167784
v -3.062562 -8.054739 4.167784
v -4.685562 -8.054739 3.133784
v -7.828561 8.094873 8.066784
v -4.685562 8.095152 3.133784
v -7.828561 7.035255 8.066784
v -7.828561 7.035255 8.066784
v -4.685562 8.095152 3.133784
v -4.685562 -8.054739 3.133784
v -7.828561 -8.054739 8.066784
v -8.582561 7.035255 9.249784
v -7.828561 7.035255 8.066784
v -7.828561 -8.054739 8.066784
v -8.582561 -8.054739 9.249784
v -7.828561 8.094873 8.066784
v -6.392561 7.691255 8.981784
v -6.392561 8.094619 8.981784
v -7.828561 8.094873 8.066784
v -7.828561 7.035255 8.066784
v -6.392561 7.691255 8.981784
v -6.392561 7.691255 8.981784
v -3.124562 7.691255 11.06578
v -3.124562 8.095255 11.06578
v -6.392561 8.094619 8.981784
v -3.124562 -8.054739 11.06578
v 8.158439 -8.054739 -6.641216
v 8.158439 8.095255 -6.641216
v -3.124562 7.691255 11.06578
v -3.124562 8.095255 11.06578
v -3.124562 7.691255 11.06578
v 8.158439 8.095255 -6.641216
v -3.502062 -8.054739 11.65778
v -3.124562 -8.054739 11.06578
v -3.124562 7.691255 11.06578
v -3.879562 7.035255 12.24978
v -3.879562 -8.054739 12.24978
v -3.502062 -8.054739 11.65778
v -3.879562 7.035255 12.24978
v -3.502062 -8.054739 11.65778
v -3.124562 7.691255 11.06578
v 5.084438 8.095584 -8.600216
v 6.621439 -8.054739 -7.620716
v 5.084438 -8.054739 -8.600216
v 6.621439 -8.054739 -7.620716
v 8.158439 8.095255 -6.641216
v 8.158439 -8.054739 -6.641216
v 5.084438 8.095584 -8.600216
v 8.158439 8.095255 -6.641216
v 6.621439 -8.054739 -7.620716
v 5.084438 -8.054739 -8.600216
v 5.118438 -8.054739 -8.653216
v 5.118438 8.095587 -8.653216
v 5.084438 8.095584 -8.600216
v 4.718438 8.095806 -10.13922
v 5.118438 8.095587 -8.653216
v 5.118438 -8.054739 -8.653216
v 4.718438 -8.054739 -10.13922
v 3.413438 8.096038 -10.97122
v 4.065938 -8.054739 -10.55522
v 3.413438 -8.054739 -10.97122
v 4.065938 -8.054739 -10.55522
v 4.718438 8.095806 -10.13922
v 4.718438 -8.054739 -10.13922
v 3.413438 8.096038 -10.97122
v 4.718438 8.095806 -10.13922
v 4.065938 -8.054739 -10.55522
v 2.165438 8.096111 -10.53322
v 2.789438 -8.054739 -10.75222
v 2.165438 -8.054739 -10.53322
v 2.789438 -8.054739 -10.75222
v 3.413438 8.096038 -10.97122
v 3.413438 -8.054739 -10.97122
v 2.165438 8.096111 -10.53322
v 3.413438 8.096038 -10.97122
v 2.789438 -8.054739 -10.75222
v 1.923438 8.096154 -10.68722
v 2.165438 8.096111 -10.53322
v 2.165438 -8.054739 -10.53322
v 1.923438 -8.054739 -10.68722
v -4.294562 8.095603 -0.9292163
v -1.185562 -8.054739 -5.808216
v -4.294562 -8.054739 -0.9292163
v -1.185562 -8.054739 -5.808216
v 1.923438 8.096154 -10.68722
v 1.923438 -8.054739 -10.68722
v -4.294562 8.095603 -0.9292163
v 1.923438 8.096154 -10.68722
v -1.185562 -8.054739 -5.808216
v -4.294562 -8.054739 -0.9292163
v -0.6525615 -8.054739 1.390784
v -0.6525615 8.094956 1.390784
v -4.294562 8.095603 -0.9292163
v -2.015562 8.094835 3.529784
v -0.6525615 8.094956 1.390784
v -0.6525615 -8.054739 1.390784
v -2.015562 -8.054739 3.529784
v -8.582561 -8.054739 9.249784
v -3.879562 -8.054739 12.24978
v -3.879562 7.035255 12.24978
v -8.582561 7.035255 9.249784
v -0.6525615 -8.054739 1.390784
v -4.294562 -8.054739 -0.9292163
v -1.185562 -8.054739 -5.808216
v 1.923438 -8.054739 -10.68722
v 2.165438 -8.054739 -10.53322
v 2.789438 -8.054739 -10.75222
v 3.413438 -8.054739 -10.97122
v 4.065938 -8.054739 -10.55522
v 4.718438 -8.054739 -10.13922
v 5.118438 -8.054739 -8.653216
v 5.084438 -8.054739 -8.600216
v 6.621439 -8.054739 -7.620716
v 8.158439 -8.054739 -6.641216
v -3.124562 -8.054739 11.06578
v -3.502062 -8.054739 11.65778
v -3.879562 -8.054739 12.24978
v -8.582561 -8.054739 9.249784
v -7.828561 -8.054739 8.066784
v -4.685562 -8.054739 3.133784
v -3.062562 -8.054739 4.167784
v -2.767061 -8.054739 3.703784
v -2.471561 -8.054739 3.239784
v -2.015562 -8.054739 3.529784
vt 0.012797 0.161343
vt 0.061456 0.209092
vt 0.022402 0.202946
vt 0.316299 0.116936
vt 0.061456 0.209092
vt 0.012797 0.161343
vt 0.257922 0.057367
vt 0.012797 0.161343
vt 0.022402 0.202946
vt 0.001466 0.181603
vt 0.022402 0.202946
vt 0.061456 0.209092
vt 0.060104 0.209639
vt 0.257922 0.057367
vt 0.012797 0.161343
vt 0.008922 0.157385
vt 0.562594 0.077884
vt 0.110748 0.259366
vt 0.316299 0.116936
vt 0.562594 0.077884
vt 0.316299 0.116936
vt 0.370884 0.095011
vt 0.387269 0.078046
vt 0.370884 0.095011
vt 0.363587 0.087553
vt 0.562594 0.077884
vt 0.370884 0.095011
vt 0.387269 0.078046
vt 0.510165 0.024429
vt 0.387269 0.078046
vt 0.361251 0.051500
vt 0.487141 0.000940
vt 0.510165 0.024429
vt 0.562594 0.077884
vt 0.387269 0.078046
vt 0.316299 0.116936
vt 0.110748 0.259366
vt 0.061456 0.209092
vt 0.295622 0.975292
vt 0.294721 0.936090
vt 0.324893 0.962881
vt 0.835777 0.741690
vt 0.921718 0.779135
vt 0.887844 0.794631
vt 0.846827 0.703008
vt 0.921718 0.779135
vt 0.835777 0.741690
vt 0.491290 0.914009
vt 0.483871 0.906640
vt 0.660744 0.845865
vt 0.668016 0.853088
vt 0.630499 0.712884
vt 0.820473 0.792634
vt 0.808755 0.797472
vt 0.820473 0.792634
vt 0.654414 0.703008
vt 0.832190 0.787795
vt 0.630499 0.712884
vt 0.654414 0.703008
vt 0.820473 0.792634
vt 0.027939 0.933468
vt 0.001466 0.907161
vt 0.178787 0.845865
vt 0.204737 0.871650
vt 0.619613 0.563986
vt 0.747083 0.511278
vt 0.631701 0.569555
vt 0.631701 0.569555
vt 0.747083 0.511278
vt 0.925282 0.595624
vt 0.800374 0.647265
vt 0.601173 0.582182
vt 0.631701 0.569555
vt 0.800374 0.647265
vt 0.770420 0.659654
vt 0.208211 0.851208
vt 0.233627 0.872405
vt 0.231042 0.874452
vt 0.208211 0.851208
vt 0.215027 0.845865
vt 0.233627 0.872405
vt 0.233627 0.872405
vt 0.285596 0.925278
vt 0.283033 0.927356
vt 0.231042 0.874452
vt 0.555459 0.330315
vt 0.112445 0.508505
vt 0.001466 0.451131
vt 0.455986 0.270906
vt 0.453383 0.269351
vt 0.455986 0.270906
vt 0.001466 0.451131
vt 0.570272 0.324352
vt 0.555459 0.330315
vt 0.455986 0.270906
vt 0.490390 0.261278
vt 0.585085 0.318390
vt 0.570272 0.324352
vt 0.490390 0.261278
vt 0.570272 0.324352
vt 0.455986 0.270906
vt 0.220272 0.810733
vt 0.366698 0.727477
vt 0.391292 0.751946
vt 0.366698 0.727477
vt 0.170088 0.760805
vt 0.342103 0.703008
vt 0.220272 0.810733
vt 0.170088 0.760805
vt 0.366698 0.727477
vt 0.291021 0.993750
vt 0.289708 0.994280
vt 0.178886 0.936631
vt 0.180224 0.936090
vt 0.709392 0.910738
vt 0.671554 0.904317
vt 0.842477 0.845865
vt 0.879567 0.852158
vt 0.310146 0.925722
vt 0.469366 0.856221
vt 0.479801 0.866577
vt 0.469366 0.856221
vt 0.288856 0.904591
vt 0.458932 0.845865
vt 0.310146 0.925722
vt 0.288856 0.904591
vt 0.469366 0.856221
vt 0.328446 0.956306
vt 0.505404 0.957824
vt 0.500069 0.967729
vt 0.505404 0.957824
vt 0.339334 0.936090
vt 0.510740 0.947918
vt 0.328446 0.956306
vt 0.339334 0.936090
vt 0.505404 0.957824
vt 0.005404 0.999371
vt 0.001466 0.995464
vt 0.171208 0.936090
vt 0.175068 0.939920
vt 0.001466 0.615706
vt 0.301408 0.649153
vt 0.177729 0.700309
vt 0.301408 0.649153
vt 0.253908 0.511278
vt 0.425094 0.597995
vt 0.001466 0.615706
vt 0.253908 0.511278
vt 0.301408 0.649153
vt 0.108944 0.703008
vt 0.166249 0.761075
vt 0.059932 0.843675
vt 0.001466 0.784443
vt 0.394428 0.725813
vt 0.449606 0.703008
vt 0.626594 0.788510
vt 0.572526 0.810854
vt 0.523720 0.511278
vt 0.597835 0.586300
vt 0.503662 0.662461
vt 0.428153 0.586032
vt 0.514663 0.936090
vt 0.514663 0.936090
vt 0.514663 0.936090
vt 0.514663 0.936090
vt 0.514663 0.936090
vt 0.514663 0.936090
vt 0.514663 0.936090
vt 0.514663 0.936090
vt 0.514663 0.936090
vt 0.514663 0.936090
vt 0.514663 0.936090
vt 0.514663 0.936090
vt 0.514663 0.936090
vt 0.514663 0.936090
vt 0.514663 0.936090
vt 0.514663 0.936090
vt 0.514663 0.936090
vt 0.514663 0.936090
vt 0.514663 0.936090
vt 0.514663 0.936090
vt 0.514663 0.936090
vt 0.514663 0.936090
vt 0.514663 0.936090
vn 0.000100671 1 0.0001206266
vn 0.000100671 1 0.0001206266
vn 0.000100671 1 0.0001206266
vn 0.0001006749 1 0.0001206258
vn 0.000100674 1 0.0001206246
vn 0.0001006731 1 0.0001206235
vn 0.000100674 1 0.0001206246
vn 0.0001006703 1 0.0001206314
vn 0.0001006703 1 0.0001206314
vn 0.0001006703 1 0.0001206314
vn 0.0001006795 1 0.0001206246
vn 0.0001006795 1 0.0001206246
vn 0.0001006795 1 0.0001206246
vn 0.0001006763 1 0.0001206257
vn 0.0001006763 1 0.0001206257
vn 0.0001006763 1 0.0001206257
vn -8.079147E-05 1 -5.148078E-05
vn -8.079147E-05 1 -5.148078E-05
vn -8.079147E-05 1 -5.148078E-05
vn -0.0002287302 0.9999999 -8.92797E-05
vn -0.0002287302 0.9999999 -8.92797E-05
vn -0.0002287302 0.9999999 -8.92797E-05
vn 0.0001006721 1 0.0001206328
vn 0.0001006721 1 0.0001206328
vn 0.0001006721 1 0.0001206328
vn -7.39196E-06 1 -5.67075E-05
vn -7.39196E-06 1 -5.67075E-05
vn -7.39196E-06 1 -5.67075E-05
vn 0.0001006744 1 0.0001206244
vn 0.0001006743 1 0.0001206243
vn 0.0001006744 1 0.0001206244
vn 0.0001006746 1 0.0001206244
vn -0.0001576369 1 -5.805791E-05
vn -0.0001576369 1 -5.805791E-05
vn -0.0001576369 1 -5.805791E-05
vn 4.910402E-05 1 9.101288E-05
vn 4.910402E-05 1 9.101288E-05
vn 4.910402E-05 1 9.101288E-05
vn -0.3031627 0.9331434 -0.1932246
vn -0.3031627 0.9331434 -0.1932246
vn -0.3031627 0.9331434 -0.1932246
vn -0.227572 0.9060126 0.3568644
vn -0.227572 0.9060126 0.3568644
vn -0.227572 0.9060126 0.3568644
vn -0.227691 0.9059515 0.3569436
vn -0.227691 0.9059515 0.3569436
vn -0.227691 0.9059515 0.3569436
vn 0.536636 0 -0.8438138
vn 0.536636 0 -0.8438138
vn 0.536636 0 -0.8438138
vn 0.536636 0 -0.8438138
vn -0.8434743 0 -0.5371695
vn -0.8434743 0 -0.5371695
vn -0.8434743 0 -0.5371695
vn -0.8434743 0 -0.5371695
vn -0.8434743 0 -0.5371695
vn -0.8434743 0 -0.5371695
vn -0.8434743 1.050411E-10 -0.5371695
vn -0.8434743 1.050411E-10 -0.5371695
vn -0.8434743 1.050411E-10 -0.5371695
vn 0.5373125 0 -0.8433832
vn 0.5373125 0 -0.8433832
vn 0.5373125 0 -0.8433832
vn 0.5373125 0 -0.8433832
vn -0.8433657 0 -0.53734
vn -0.8433657 0 -0.53734
vn -0.8433657 0 -0.53734
vn -0.8433657 0 -0.53734
vn -0.8433657 0 -0.53734
vn -0.8433657 0 -0.53734
vn -0.8433657 0 -0.53734
vn -0.8432796 0 -0.5374751
vn -0.8432796 0 -0.5374751
vn -0.8432796 0 -0.5374751
vn -0.8432796 0 -0.5374751
vn -0.5373694 0 0.843347
vn -0.5373694 0 0.843347
vn -0.5373694 0 0.843347
vn -0.5373694 0 0.843347
vn -0.5373694 0 0.843347
vn -0.5373694 0 0.843347
vn -0.5376766 0 0.8431512
vn -0.5376766 0 0.8431512
vn -0.5376766 0 0.8431512
vn -0.5376766 0 0.8431512
vn 0.8433397 0 0.5373808
vn 0.8433397 0 0.5373808
vn 0.8433397 0 0.5373808
vn 0.8433397 0 0.5373808
vn 0.8433397 0 0.5373808
vn 0.8433397 0 0.5373808
vn 0.8433397 0 0.5373808
vn 0.8431627 0 0.5376586
vn 0.8431627 0 0.5376586
vn 0.8431627 0 0.5376586
vn 0.8431627 0 0.5376586
vn 0.8431627 0 0.5376586
vn 0.8431627 0 0.5376586
vn 0.8431627 0 0.5376586
vn 0.8431627 0 0.5376586
vn 0.8431627 0 0.5376586
vn 0.5374257 0 -0.8433111
vn 0.5374257 0 -0.8433111
vn 0.5374257 0 -0.8433111
vn 0.5374257 0 -0.8433111
vn 0.5374257 0 -0.8433111
vn 0.5374257 0 -0.8433111
vn 0.5374257 1.899259E-10 -0.8433111
vn 0.5374257 1.899259E-10 -0.8433111
vn 0.5374257 1.899259E-10 -0.8433111
vn 0.8416941 0 0.5399547
vn 0.8416941 0 0.5399547
vn 0.8416941 0 0.5399547
vn 0.8416941 0 0.5399547
vn 0.9656283 0 -0.2599269
vn 0.9656283 0 -0.2599269
vn 0.9656283 0 -0.2599269
vn 0.9656283 0 -0.2599269
vn 0.537586 0 -0.8432089
vn 0.537586 0 -0.8432089
vn 0.537586 0 -0.8432089
vn 0.537586 0 -0.8432089
vn 0.537586 0 -0.8432089
vn 0.537586 0 -0.8432089
vn 0.537586 4.34052E-10 -0.8432089
vn 0.537586 4.34052E-10 -0.8432089
vn 0.537586 4.34052E-10 -0.8432089
vn -0.3311585 0 -0.9435751
vn -0.3311585 0 -0.9435751
vn -0.3311585 0 -0.9435751
vn -0.3311585 0 -0.9435751
vn -0.3311585 0 -0.9435751
vn -0.3311585 0 -0.9435751
vn -0.3311585 0 -0.9435751
vn -0.3311585 0 -0.9435751
vn -0.3311585 0 -0.9435751
vn 0.5368754 0 -0.8436616
vn 0.5368754 0 -0.8436616
vn 0.5368754 0 -0.8436616
vn 0.5368754 0 -0.8436616
vn -0.8433339 0 -0.5373899
vn -0.8433339 0 -0.5373899
vn -0.8433339 0 -0.5373899
vn -0.8433339 0 -0.5373899
vn -0.8433339 0 -0.5373899
vn -0.8433339 0 -0.5373899
vn -0.8433339 0 -0.5373899
vn -0.8433339 0 -0.5373899
vn -0.8433339 0 -0.5373899
vn -0.537265 0 0.8434135
vn -0.537265 0 0.8434135
vn -0.537265 0 0.8434135
vn -0.537265 0 0.8434135
vn -0.8433366 0 -0.5373856
vn -0.8433366 0 -0.5373856
vn -0.8433366 0 -0.5373856
vn -0.8433366 0 -0.5373856
vn -0.5377916 0 0.8430778
vn -0.5377916 0 0.8430778
vn -0.5377916 0 0.8430778
vn -0.5377916 0 0.8430778
vn 0 -1 0
vn 0 -1 0
vn 0 -1 0
vn 0 -1 0
vn 0 -1 0
vn 0 -1 0
vn 0 -1 0
vn 0 -1 0
vn 0 -1 0
vn 0 -1 0
vn 0 -1 0
vn 0 -1 0
vn 0 -1 0
vn 0 -1 0
vn 0 -1 0
vn 0 -1 0
vn 0 -1 0
vn 0 -1 0
vn 0 -1 0
vn 0 -1 0
vn 0 -1 0
vn 0 -1 0
vn 0 -1 0

g CDNNDG02_0001530
f 1/1/1 2/2/2 3/3/3
f 7/7/7 4/4/4 5/5/5
f 6/6/6 7/7/7 5/5/5
f 8/8/8 9/9/9 10/10/10
f 11/11/11 12/12/12 13/13/13
f 14/14/14 15/15/15 16/16/16
f 17/17/17 18/18/18 19/19/19
f 20/20/20 21/21/21 22/22/22
f 23/23/23 24/24/24 25/25/25
f 26/26/26 27/27/27 28/28/28
f 29/29/29 30/30/30 31/31/31
f 32/32/32 29/29/29 31/31/31
f 33/33/33 34/34/34 35/35/35
f 36/36/36 37/37/37 38/38/38
f 39/39/39 40/40/40 41/41/41
f 42/42/42 43/43/43 44/44/44
f 45/45/45 46/46/46 47/47/47
f 50/50/50 51/51/51 49/49/49
f 48/48/48 49/49/49 51/51/51
f 52/52/52 53/53/53 54/54/54
f 55/55/55 56/56/56 57/57/57
f 58/58/58 59/59/59 60/60/60
f 62/62/62 63/63/63 64/64/64
f 61/61/61 62/62/62 64/64/64
f 65/65/65 66/66/66 67/67/67
f 68/68/68 70/70/70 71/71/71
f 70/70/70 68/68/68 69/69/69
f 72/72/72 74/74/74 75/75/75
f 72/72/72 73/73/73 74/74/74
f 76/76/76 77/77/77 78/78/78
f 79/79/79 80/80/80 81/81/81
f 83/83/83 84/84/84 85/85/85
f 82/82/82 83/83/83 85/85/85
f 89/89/89 86/86/86 87/87/87
f 87/87/87 88/88/88 89/89/89
f 90/90/90 91/91/91 92/92/92
f 93/93/93 94/94/94 95/95/95
f 96/96/96 97/97/97 98/98/98
f 99/99/99 100/100/100 101/101/101
f 102/102/102 103/103/103 104/104/104
f 105/105/105 106/106/106 107/107/107
f 108/108/108 109/109/109 110/110/110
f 112/112/112 113/113/113 114/114/114
f 111/111/111 112/112/112 114/114/114
f 118/118/118 116/116/116 117/117/117
f 118/118/118 115/115/115 116/116/116
f 119/119/119 120/120/120 121/121/121
f 122/122/122 123/123/123 124/124/124
f 125/125/125 126/126/126 127/127/127
f 128/128/128 129/129/129 130/130/130
f 131/131/131 132/132/132 133/133/133
f 134/134/134 135/135/135 136/136/136
f 138/138/138 139/139/139 140/140/140
f 137/137/137 138/138/138 140/140/140
f 141/141/141 142/142/142 143/143/143
f 144/144/144 145/145/145 146/146/146
f 147/147/147 148/148/148 149/149/149
f 150/150/150 152/152/152 153/153/153
f 152/152/152 150/150/150 151/151/151
f 154/154/154 156/156/156 157/157/157
f 156/156/156 154/154/154 155/155/155
f 158/158/158 160/160/160 161/161/161
f 160/160/160 158/158/158 159/159/159
f 184/184/184 175/175/175 181/181/181
f 178/178/178 179/179/179 176/176/176
f 162/162/162 173/173/173 174/174/174
f 175/175/175 162/162/162 174/174/174
f 163/163/163 164/164/164 162/162/162
f 184/184/184 182/182/182 183/183/183
f 164/164/164 165/165/165 166/166/166
f 184/184/184 162/162/162 175/175/175
f 170/170/170 172/172/172 169/169/169
f 167/167/167 168/168/168 169/169/169
f 171/171/171 172/172/172 170/170/170
f 172/172/172 167/167/167 169/169/169
f 181/181/181 175/175/175 179/179/179
f 166/166/166 167/167/167 172/172/172
f 172/172/172 173/173/173 164/164/164
f 172/172/172 164/164/164 166/166/166
f 173/173/173 162/162/162 164/164/164
f 181/181/181 182/182/182 184/184/184
f 175/175/175 176/176/176 179/179/179
f 179/179/179 180/180/180 181/181/181
f 176/176/176 177/177/177 178/178/178
