v -5.612307 5.463435 6.341322
v -3.393307 5.463435 7.803322
v -2.715307 5.463435 6.773323
v -5.016307 5.463435 5.436322
v 0.177693 5.463435 3.750322
v 1.469693 5.463435 4.601322
v 3.829693 5.463435 1.020322
v -5.016307 5.463435 5.436322
v -2.715307 5.463435 6.773323
v 0.177693 5.463435 3.750322
v -3.547307 5.463435 1.743322
v -3.547307 5.463435 1.743322
v 2.256693 5.463435 -5.738678
v 0.08369298 5.463435 -7.010678
v -5.038307 5.463435 0.7613223
v -3.547307 5.463435 1.743322
v 0.177693 5.463435 3.750322
v 3.829693 5.463435 1.020322
v 2.256693 5.463435 -5.738678
v 3.57777 5.463435 -0.06216066
v 4.250693 5.463435 0.3803223
v 4.250693 5.463435 0.3803223
v 6.512693 5.463435 -3.053678
v 4.475693 5.463435 -4.395678
v 2.256693 5.463435 -5.738678
v 4.250693 5.463435 0.3803223
v 4.475693 5.463435 -4.395678
v 2.256693 5.463435 -5.738678
v 4.475693 5.463435 -4.395678
v 4.837693 5.463435 -4.945678
v 2.673693 5.463435 -6.371678
v -5.688307 5.463435 4.993322
v -5.016307 5.463435 5.436322
v -3.547307 5.463435 1.743322
v -3.547307 5.463435 1.743322
v 3.829693 5.463435 1.020322
v 3.134693 5.463435 0.5623223
v -3.547307 5.463435 1.743322
v 3.134693 5.463435 0.5623223
v 2.256693 5.463435 -5.738678
v 2.256693 5.463435 -5.738678
v 3.555693 5.463435 -0.07667766
v 3.57777 5.463435 -0.06216066
v 2.256693 5.463435 -5.738678
v 3.134693 5.463435 0.5623223
v 3.555693 5.463435 -0.07667766
v 0.08369298 5.463435 -7.010678
v 2.256693 5.463435 -5.738678
v 0.156693 5.463435 -7.122678
v -2.715307 5.463435 6.773323
v -2.086307 5.463435 7.187322
v 0.177693 5.463435 3.750322
v 3.134693 6.559434 0.5623223
v 3.829693 6.559434 1.020322
v 4.250693 6.559434 0.3803223
v 3.555693 6.559434 -0.07667766
v -5.612307 5.463435 6.341322
v -5.016307 5.463435 5.436322
v -5.016307 -5.471774 5.436322
v -5.612307 -5.471774 6.341322
v -4.502807 -5.471774 7.072322
v -3.393307 -5.471774 7.803322
v -3.393307 5.463435 7.803322
v -5.612307 5.463435 6.341322
v -5.612307 -5.471774 6.341322
v -4.502807 -5.471774 7.072322
v -5.612307 5.463435 6.341322
v -4.502807 -5.471774 7.072322
v -3.393307 5.463435 7.803322
v -3.393307 -5.471774 7.803322
v -2.715307 -5.471774 6.773323
v -2.715307 5.463435 6.773323
v -3.393307 5.463435 7.803322
v -2.715307 -5.471774 6.773323
v -2.086307 -5.471774 7.187322
v -2.086307 5.463435 7.187322
v -2.715307 5.463435 6.773323
v -2.086307 -5.471774 7.187322
v 0.177693 -5.471774 3.750322
v 0.177693 5.463435 3.750322
v -2.086307 5.463435 7.187322
v 0.177693 -5.471774 3.750322
v 1.469693 -5.471774 4.601322
v 1.469693 5.463435 4.601322
v 0.177693 5.463435 3.750322
v 1.469693 -5.471774 4.601322
v 3.829693 -5.471774 1.020322
v 3.829693 5.463435 1.020322
v 1.469693 5.463435 4.601322
v 4.040193 -5.471774 0.7003223
v 4.250693 -5.471774 0.3803223
v 4.250693 5.463435 0.3803223
v 3.829693 5.463435 1.020322
v 3.829693 -5.471774 1.020322
v 4.040193 -5.471774 0.7003223
v 3.829693 5.463435 1.020322
v 4.040193 -5.471774 0.7003223
v 4.250693 5.463435 0.3803223
v 4.250693 -5.471774 0.3803223
v 6.512693 -5.471774 -3.053678
v 6.512693 5.463435 -3.053678
v 4.250693 5.463435 0.3803223
v 3.829693 5.463435 1.020322
v 4.250693 5.463435 0.3803223
v 4.250693 6.559434 0.3803223
v 3.829693 6.559434 1.020322
v 4.475693 5.463435 -4.395678
v 6.512693 5.463435 -3.053678
v 6.512693 -5.471774 -3.053678
v 4.475693 -5.471774 -4.395678
v 4.475693 -5.471774 -4.395678
v 4.837693 -5.471774 -4.945678
v 4.837693 5.463435 -4.945678
v 4.475693 5.463435 -4.395678
v 2.673693 5.463435 -6.371678
v 4.837693 5.463435 -4.945678
v 4.837693 -5.471774 -4.945678
v 2.673693 -5.471774 -6.371678
v 2.256693 5.463435 -5.738678
v 2.673693 5.463435 -6.371678
v 2.673693 -5.471774 -6.371678
v 2.256693 -5.471774 -5.738678
v 0.156693 5.463435 -7.122678
v 2.256693 5.463435 -5.738678
v 2.256693 -5.471774 -5.738678
v 0.156693 -5.471774 -7.122678
v 0.08369298 5.463435 -7.010678
v 0.156693 5.463435 -7.122678
v 0.156693 -5.471774 -7.122678
v 0.08369298 -5.471774 -7.010678
v -5.038307 5.463435 0.7613223
v 0.08369298 5.463435 -7.010678
v 0.08369298 -5.471774 -7.010678
v -5.038307 -5.471774 0.7613223
v -5.038307 -5.471774 0.7613223
v -3.547307 -5.471774 1.743322
v -3.547307 5.463435 1.743322
v -5.038307 5.463435 0.7613223
v -5.688307 5.463435 4.993322
v -3.547307 5.463435 1.743322
v -3.547307 -5.471774 1.743322
v -5.688307 -5.471774 4.993322
v -5.688307 -5.471774 4.993322
v -5.016307 -5.471774 5.436322
v -5.016307 5.463435 5.436322
v -5.688307 5.463435 4.993322
v 3.134693 5.463435 0.5623223
v 3.829693 5.463435 1.020322
v 3.829693 6.559434 1.020322
v 3.134693 6.559434 0.5623223
v 3.555693 6.559434 -0.07667766
v 3.57777 5.463435 -0.06216066
v 3.555693 5.463435 -0.07667766
v 3.555693 6.559434 -0.07667766
v 4.250693 6.559434 0.3803223
v 4.250693 5.463435 0.3803223
v 3.57777 5.463435 -0.06216066
v 3.134693 6.559434 0.5623223
v 3.555693 6.559434 -0.07667766
v 3.555693 5.463435 -0.07667766
v 3.134693 5.463435 0.5623223
v -5.612307 -5.471774 6.341322
v -5.016307 -5.471774 5.436322
v -5.688307 -5.471774 4.993322
v -3.547307 -5.471774 1.743322
v -5.038307 -5.471774 0.7613223
v 0.08369298 -5.471774 -7.010678
v 0.156693 -5.471774 -7.122678
v 2.256693 -5.471774 -5.738678
v 2.673693 -5.471774 -6.371678
v 4.837693 -5.471774 -4.945678
v 4.475693 -5.471774 -4.395678
v 6.512693 -5.471774 -3.053678
v 4.250693 -5.471774 0.3803223
v 4.040193 -5.471774 0.7003223
v 3.829693 -5.471774 1.020322
v 1.469693 -5.471774 4.601322
v 0.177693 -5.471774 3.750322
v -2.086307 -5.471774 7.187322
v -2.715307 -5.471774 6.773323
v -3.393307 -5.471774 7.803322
v -4.502807 -5.471774 7.072322
vt 0.069278 0.409711
vt 0.002618 0.335312
vt 0.049429 0.312476
vt 0.110408 0.389637
vt 0.186759 0.215129
vt 0.147957 0.171807
vt 0.310714 0.092313
vt 0.110408 0.389637
vt 0.049429 0.312476
vt 0.186759 0.215129
vt 0.278312 0.340057
vt 0.278312 0.340057
vt 0.618315 0.144655
vt 0.676323 0.217529
vt 0.323085 0.390048
vt 0.278312 0.340057
vt 0.186759 0.215129
vt 0.310714 0.092313
vt 0.618315 0.144655
vt 0.359978 0.100696
vt 0.339803 0.078131
vt 0.339803 0.078131
vt 0.495885 0.001934
vt 0.557072 0.070240
vt 0.618315 0.144655
vt 0.339803 0.078131
vt 0.557072 0.070240
vt 0.618315 0.144655
vt 0.557072 0.070240
vt 0.582071 0.058046
vt 0.647087 0.130609
vt 0.130606 0.412168
vt 0.110408 0.389637
vt 0.278312 0.340057
vt 0.278312 0.340057
vt 0.310714 0.092313
vt 0.331596 0.115617
vt 0.278312 0.340057
vt 0.331596 0.115617
vt 0.618315 0.144655
vt 0.618315 0.144655
vt 0.360640 0.101436
vt 0.359978 0.100696
vt 0.618315 0.144655
vt 0.331596 0.115617
vt 0.360640 0.101436
vt 0.676323 0.217529
vt 0.618315 0.144655
vt 0.681414 0.215070
vt 0.049429 0.312476
vt 0.030552 0.291386
vt 0.186759 0.215129
vt 0.650832 0.935248
vt 0.630890 0.912974
vt 0.658669 0.899420
vt 0.678567 0.921694
vt 0.372682 0.919692
vt 0.413237 0.899420
vt 0.351520 0.976086
vt 0.311518 0.996081
vt 0.284411 0.816801
vt 0.251309 0.780087
vt 0.311871 0.702128
vt 0.378991 0.776571
vt 0.317513 0.853514
vt 0.284411 0.816801
vt 0.378991 0.776571
vt 0.284411 0.816801
vt 0.311871 0.702128
vt 0.520942 0.921148
vt 0.566169 0.899420
vt 0.623675 0.922789
vt 0.577830 0.944815
vt 0.934763 0.800866
vt 0.916230 0.780186
vt 0.976467 0.702128
vt 0.995256 0.723094
vt 0.091623 0.973549
vt 0.244452 0.899420
vt 0.304523 0.922002
vt 0.149605 0.997144
vt 0.847241 0.824741
vt 0.808901 0.782110
vt 0.871099 0.702128
vt 0.909969 0.745348
vt 0.002618 0.574943
vt 0.164206 0.501401
vt 0.221697 0.622114
vt 0.057925 0.696647
vt 0.178645 0.494842
vt 0.193084 0.488283
vt 0.250966 0.608819
vt 0.221697 0.622114
vt 0.164206 0.501401
vt 0.178645 0.494842
vt 0.221697 0.622114
vt 0.178645 0.494842
vt 0.250966 0.608819
vt 0.193084 0.488283
vt 0.348043 0.417795
vt 0.408019 0.537379
vt 0.250966 0.608819
vt 0.221697 0.622114
vt 0.250966 0.608819
vt 0.256854 0.621079
vt 0.227545 0.634392
vt 0.243858 0.889738
vt 0.187323 0.821308
vt 0.128272 0.702128
vt 0.184054 0.769646
vt 0.602094 0.713321
vt 0.626338 0.702128
vt 0.686001 0.821548
vt 0.661429 0.832892
vt 0.965813 0.610488
vt 0.905712 0.537771
vt 0.845550 0.417795
vt 0.904850 0.489544
vt 0.487311 0.913600
vt 0.515643 0.899420
vt 0.446793 0.979629
vt 0.418848 0.993615
vt 0.121530 0.893810
vt 0.063201 0.823247
vt 0.002618 0.702128
vt 0.060170 0.771752
vt 0.834519 0.420309
vt 0.839636 0.417795
vt 0.768873 0.497867
vt 0.763825 0.500347
vt 0.479458 0.596698
vt 0.834519 0.420309
vt 0.763825 0.500347
vt 0.413613 0.674325
vt 0.738037 0.829069
vt 0.693717 0.779853
vt 0.757813 0.702128
vt 0.802746 0.752026
vt 0.447624 0.775470
vt 0.595179 0.702128
vt 0.530357 0.780031
vt 0.384817 0.852371
vt 0.022467 0.998237
vt 0.002618 0.976144
vt 0.064000 0.899420
vt 0.084123 0.921819
vt 0.734165 0.929531
vt 0.714660 0.907306
vt 0.720769 0.899420
vt 0.740301 0.921675
vt 0.708932 0.933491
vt 0.703012 0.921055
vt 0.703575 0.921765
vt 0.708932 0.933491
vt 0.691197 0.911115
vt 0.685864 0.899420
vt 0.703012 0.921055
vt 0.752341 0.912829
vt 0.779653 0.899420
vt 0.773347 0.907090
vt 0.746073 0.920481
vt 0.785340 0.899420
vt 0.785340 0.899420
vt 0.785340 0.899420
vt 0.785340 0.899420
vt 0.785340 0.899420
vt 0.785340 0.899420
vt 0.785340 0.899420
vt 0.785340 0.899420
vt 0.785340 0.899420
vt 0.785340 0.899420
vt 0.785340 0.899420
vt 0.785340 0.899420
vt 0.785340 0.899420
vt 0.785340 0.899420
vt 0.785340 0.899420
vt 0.785340 0.899420
vt 0.785340 0.899420
vt 0.785340 0.899420
vt 0.785340 0.899420
vt 0.785340 0.899420
vt 0.785340 0.899420
vn 0 1 0
vn 0 1 0
vn 0 1 0
vn 0 1 0
vn 0 1 0
vn 0 1 0
vn 0 1 0
vn 0 1 0
vn 0 1 0
vn 0 1 0
vn 0 1 0
vn 0 1 0
vn 0 1 0
vn 0 1 0
vn 0 1 0
vn 0 1 0
vn 0 1 0
vn 0 1 0
vn 0 1 0
vn 0 1 0
vn 0 1 0
vn 0 1 0
vn 0 1 0
vn 0 1 0
vn 0 1 0
vn 0 1 0
vn 0 1 0
vn 0 1 0
vn 0 1 0
vn 0 1 0
vn 0 1 0
vn 0 1 0
vn 0 1 0
vn 0 1 0
vn 0 1 0
vn 0 1 0
vn 0 1 0
vn 0 1 0
vn 0 1 0
vn 0 1 0
vn 0 1 0
vn 0 1 0
vn 0 1 0
vn 0 1 0
vn 0 1 0
vn 0 1 0
vn 0 1 0
vn 0 1 0
vn 0 1 0
vn 0 1 0
vn 0 1 0
vn 0 1 0
vn 0 1 0
vn 0 1 0
vn 0 1 0
vn 0 1 0
vn -0.8351606 0 -0.5500063
vn -0.8351606 0 -0.5500063
vn -0.8351606 0 -0.5500063
vn -0.8351606 0 -0.5500063
vn -0.5501762 0 0.8350486
vn -0.5501762 0 0.8350486
vn -0.5501762 0 0.8350486
vn -0.5501762 0 0.8350486
vn -0.5501762 0 0.8350486
vn -0.5501762 0 0.8350486
vn -0.5501762 -3.555943E-11 0.8350486
vn -0.5501762 -3.555943E-11 0.8350486
vn -0.5501762 -3.555943E-11 0.8350486
vn 0.8352799 0 0.549825
vn 0.8352799 0 0.549825
vn 0.8352799 0 0.549825
vn 0.8352799 0 0.549825
vn -0.5497872 0 0.8353047
vn -0.5497872 0 0.8353047
vn -0.5497872 0 0.8353047
vn -0.5497872 0 0.8353047
vn 0.8351028 0 0.5500939
vn 0.8351028 0 0.5500939
vn 0.8351028 0 0.5500939
vn 0.8351028 0 0.5500939
vn -0.5500675 0 0.8351201
vn -0.5500675 0 0.8351201
vn -0.5500675 0 0.8351201
vn -0.5500675 0 0.8351201
vn 0.8349801 0 0.5502801
vn 0.8349801 0 0.5502801
vn 0.8349801 0 0.5502801
vn 0.8349801 0 0.5502801
vn 0.8354486 0 0.5495685
vn 0.8354486 0 0.5495685
vn 0.8354486 0 0.5495685
vn 0.8354486 0 0.5495685
vn 0.8354486 0 0.5495685
vn 0.8354486 0 0.5495685
vn 0.8354486 2.340264E-11 0.5495685
vn 0.8354486 2.340264E-11 0.5495685
vn 0.8354486 2.340264E-11 0.5495685
vn 0.8351055 0 0.5500898
vn 0.8351055 0 0.5500898
vn 0.8351055 0 0.5500898
vn 0.8351055 0 0.5500898
vn 0.8354486 0 0.5495685
vn 0.8354486 0 0.5495685
vn 0.8354486 0 0.5495685
vn 0.8354486 0 0.5495685
vn 0.550151 0 -0.8350652
vn 0.550151 0 -0.8350652
vn 0.550151 0 -0.8350652
vn 0.550151 0 -0.8350652
vn 0.8353069 0 0.5497838
vn 0.8353069 0 0.5497838
vn 0.8353069 0 0.5497838
vn 0.8353069 0 0.5497838
vn 0.55024 0 -0.8350065
vn 0.55024 0 -0.8350065
vn 0.55024 0 -0.8350065
vn 0.55024 0 -0.8350065
vn -0.8350822 0 -0.5501252
vn -0.8350822 0 -0.5501252
vn -0.8350822 0 -0.5501252
vn -0.8350822 0 -0.5501252
vn 0.5502881 0 -0.8349748
vn 0.5502881 0 -0.8349748
vn 0.5502881 0 -0.8349748
vn 0.5502881 0 -0.8349748
vn -0.8377594 0 -0.5460396
vn -0.8377594 0 -0.5460396
vn -0.8377594 0 -0.5460396
vn -0.8377594 0 -0.5460396
vn -0.8349807 0 -0.5502793
vn -0.8349807 0 -0.5502793
vn -0.8349807 0 -0.5502793
vn -0.8349807 0 -0.5502793
vn -0.5500382 0 0.8351395
vn -0.5500382 0 0.8351395
vn -0.5500382 0 0.8351395
vn -0.5500382 0 0.8351395
vn -0.8350816 0 -0.5501261
vn -0.8350816 0 -0.5501261
vn -0.8350816 0 -0.5501261
vn -0.8350816 0 -0.5501261
vn -0.5503921 0 0.8349063
vn -0.5503921 0 0.8349063
vn -0.5503921 0 0.8349063
vn -0.5503921 0 0.8349063
vn -0.5502563 0 0.8349959
vn -0.5502563 0 0.8349959
vn -0.5502563 0 0.8349959
vn -0.5502563 0 0.8349959
vn 0.5494178 0 -0.8355478
vn 0.5494178 0 -0.8355478
vn 0.5494178 0 -0.8355478
vn 0.5494177 -7.167814E-10 -0.8355478
vn 0.5494177 -3.583907E-10 -0.8355478
vn 0.5494177 0 -0.8355478
vn 0.5494177 -3.583907E-10 -0.8355478
vn -0.8350537 0 -0.5501684
vn -0.8350537 0 -0.5501684
vn -0.8350537 0 -0.5501684
vn -0.8350537 0 -0.5501684
vn 0 -1 0
vn 0 -1 0
vn 0 -1 0
vn 0 -1 0
vn 0 -1 0
vn 0 -1 0
vn 0 -1 0
vn 0 -1 0
vn 0 -1 0
vn 0 -1 0
vn 0 -1 0
vn 0 -1 0
vn 0 -1 0
vn 0 -1 0
vn 0 -1 0
vn 0 -1 0
vn 0 -1 0
vn 0 -1 0
vn 0 -1 0
vn 0 -1 0
vn 0 -1 0

g CDNNDG02_0007710
f 4/4/4 1/1/1 2/2/2
f 3/3/3 4/4/4 2/2/2
f 5/5/5 6/6/6 7/7/7
f 9/9/9 10/10/10 11/11/11
f 8/8/8 9/9/9 11/11/11
f 12/12/12 14/14/14 15/15/15
f 12/12/12 13/13/13 14/14/14
f 16/16/16 17/17/17 18/18/18
f 19/19/19 20/20/20 21/21/21
f 22/22/22 23/23/23 24/24/24
f 25/25/25 26/26/26 27/27/27
f 28/28/28 29/29/29 31/31/31
f 31/31/31 29/29/29 30/30/30
f 32/32/32 33/33/33 34/34/34
f 35/35/35 36/36/36 37/37/37
f 38/38/38 39/39/39 40/40/40
f 41/41/41 42/42/42 43/43/43
f 44/44/44 45/45/45 46/46/46
f 47/47/47 48/48/48 49/49/49
f 50/50/50 51/51/51 52/52/52
f 54/54/54 55/55/55 56/56/56
f 53/53/53 54/54/54 56/56/56
f 57/57/57 59/59/59 60/60/60
f 57/57/57 58/58/58 59/59/59
f 61/61/61 62/62/62 63/63/63
f 64/64/64 65/65/65 66/66/66
f 67/67/67 68/68/68 69/69/69
f 71/71/71 72/72/72 70/70/70
f 70/70/70 72/72/72 73/73/73
f 74/74/74 76/76/76 77/77/77
f 76/76/76 74/74/74 75/75/75
f 79/79/79 80/80/80 81/81/81
f 78/78/78 79/79/79 81/81/81
f 82/82/82 84/84/84 85/85/85
f 84/84/84 82/82/82 83/83/83
f 87/87/87 88/88/88 89/89/89
f 86/86/86 87/87/87 89/89/89
f 90/90/90 91/91/91 92/92/92
f 93/93/93 94/94/94 95/95/95
f 96/96/96 97/97/97 98/98/98
f 100/100/100 101/101/101 99/99/99
f 99/99/99 101/101/101 102/102/102
f 106/106/106 103/103/103 104/104/104
f 104/104/104 105/105/105 106/106/106
f 109/109/109 107/107/107 108/108/108
f 107/107/107 109/109/109 110/110/110
f 112/112/112 113/113/113 111/111/111
f 111/111/111 113/113/113 114/114/114
f 117/117/117 115/115/115 116/116/116
f 115/115/115 117/117/117 118/118/118
f 119/119/119 121/121/121 122/122/122
f 119/119/119 120/120/120 121/121/121
f 125/125/125 123/123/123 124/124/124
f 123/123/123 125/125/125 126/126/126
f 127/127/127 128/128/128 129/129/129
f 130/130/130 127/127/127 129/129/129
f 134/134/134 131/131/131 133/133/133
f 133/133/133 131/131/131 132/132/132
f 135/135/135 137/137/137 138/138/138
f 137/137/137 135/135/135 136/136/136
f 139/139/139 141/141/141 142/142/142
f 139/139/139 140/140/140 141/141/141
f 146/146/146 143/143/143 145/145/145
f 145/145/145 143/143/143 144/144/144
f 150/150/150 147/147/147 149/149/149
f 149/149/149 147/147/147 148/148/148
f 151/151/151 152/152/152 153/153/153
f 155/155/155 156/156/156 157/157/157
f 154/154/154 155/155/155 157/157/157
f 161/161/161 158/158/158 160/160/160
f 160/160/160 158/158/158 159/159/159
f 180/180/180 181/181/181 182/182/182
f 162/162/162 163/163/163 182/182/182
f 178/178/178 179/179/179 180/180/180
f 163/163/163 180/180/180 182/182/182
f 163/163/163 164/164/164 165/165/165
f 165/165/165 178/178/178 180/180/180
f 163/163/163 165/165/165 180/180/180
f 165/165/165 166/166/166 167/167/167
f 165/165/165 167/167/167 169/169/169
f 176/176/176 177/177/177 178/178/178
f 167/167/167 168/168/168 169/169/169
f 165/165/165 176/176/176 178/178/178
f 165/165/165 169/169/169 176/176/176
f 169/169/169 170/170/170 172/172/172
f 169/169/169 175/175/175 176/176/176
f 170/170/170 171/171/171 172/172/172
f 174/174/174 169/169/169 172/172/172
f 172/172/172 173/173/173 174/174/174
f 169/169/169 174/174/174 175/175/175
