v -11.58164 5.907295 -2.051927
v 6.518357 5.907295 9.443073
v 2.045357 5.907147 5.058074
v -11.58164 5.907295 -2.051927
v 2.700357 5.906276 -3.624927
v -6.472643 5.90625 -9.728927
v -11.58164 5.907295 -2.051927
v 2.045357 5.907147 5.058074
v 2.700357 5.906276 -3.624927
v 2.045357 5.907147 5.058074
v 6.518357 5.907295 9.443073
v 7.167356 5.907162 8.467073
v 2.045357 5.907147 5.058074
v 5.997356 5.906339 -0.8809265
v 4.603357 5.906282 -2.357927
v 5.997356 5.906339 -0.8809265
v 9.001356 5.906347 1.118074
v 8.455357 5.906293 0.2050734
v 2.045357 5.907147 5.058074
v 4.603357 5.906282 -2.357927
v 2.700357 5.906276 -3.624927
v 8.455357 5.906293 0.2050734
v 9.001356 5.906347 1.118074
v 9.255357 5.906295 0.7370734
v 4.603357 5.906282 -2.357927
v 5.997356 5.906339 -0.8809265
v 5.871356 5.906286 -1.513927
v 5.997356 5.906339 -0.8809265
v 8.455357 5.906293 0.2050734
v 6.792356 5.906288 -0.9019266
v 5.871356 5.906286 -1.513927
v 5.997356 5.906339 -0.8809265
v 6.792356 5.906288 -0.9019266
v 9.105356 5.298051 5.556073
v 9.613357 5.298051 5.895073
v 9.977357 3.958051 4.246073
v 9.613357 5.298051 5.895073
v 10.48636 3.958051 4.584074
v 9.977357 3.958051 4.246073
v 8.741357 3.958051 7.205073
v 9.613357 5.298051 5.895073
v 9.105356 5.298051 5.556073
v 8.232357 3.958051 6.867074
v 8.741357 3.958051 7.205073
v 9.105356 5.298051 5.556073
v 2.045357 5.711051 5.058074
v 7.167356 5.712051 8.467073
v 6.722357 7.907051 4.059073
v 6.722357 7.907051 4.059073
v 7.167356 5.712051 8.467073
v 8.232357 6.918051 6.867074
v 6.722357 7.907051 4.059073
v 8.232357 6.918051 6.867074
v 9.105356 7.906051 5.556073
v 9.001356 5.712051 1.118074
v 9.977357 6.957051 4.246073
v 11.12036 5.712051 2.528073
v 6.722357 7.907051 4.059073
v 9.977357 6.957051 4.246073
v 9.001356 5.712051 1.118074
v 6.722357 7.907051 4.059073
v 9.105356 7.906051 5.556073
v 9.977357 6.957051 4.246073
v 5.997356 5.711051 -0.8809265
v 6.722357 7.907051 4.059073
v 9.001356 5.712051 1.118074
v 2.045357 5.711051 5.058074
v 6.722357 7.907051 4.059073
v 5.997356 5.711051 -0.8809265
v -11.58164 5.907295 -2.051927
v -6.472643 5.90625 -9.728927
v -6.472643 -6.06967 -9.728927
v -11.58164 -6.06967 -2.051927
v -11.58164 -6.06967 -2.051927
v 6.518357 -6.06967 9.443073
v 6.518357 5.907295 9.443073
v -11.58164 5.907295 -2.051927
v 6.842857 -6.06967 8.955073
v 7.167356 5.712051 8.467073
v 7.167356 5.907162 8.467073
v 6.842857 -6.06967 8.955073
v 7.167356 -6.06967 8.467073
v 7.167356 5.712051 8.467073
v 6.518357 5.907295 9.443073
v 6.518357 -6.06967 9.443073
v 6.842857 -6.06967 8.955073
v 6.518357 5.907295 9.443073
v 6.842857 -6.06967 8.955073
v 7.167356 5.907162 8.467073
v 7.167356 5.712051 8.467073
v 8.232357 3.958051 6.867074
v 8.232357 6.918051 6.867074
v 7.167356 -6.06967 8.467073
v 8.232357 -6.06967 6.867074
v 8.232357 3.958051 6.867074
v 7.167356 5.712051 8.467073
v 10.54886 -6.06967 3.387073
v 11.12036 -6.06967 2.528073
v 11.12036 5.712051 2.528073
v 9.977357 6.957051 4.246073
v 10.54886 -6.06967 3.387073
v 11.12036 5.712051 2.528073
v 9.977357 6.957051 4.246073
v 9.977357 3.958051 4.246073
v 10.54886 -6.06967 3.387073
v 9.977357 3.958051 4.246073
v 9.977357 -6.06967 4.246073
v 10.54886 -6.06967 3.387073
v 8.232357 3.958051 6.867074
v 9.105356 5.298051 5.556073
v 9.105356 7.906051 5.556073
v 8.232357 6.918051 6.867074
v 9.105356 5.298051 5.556073
v 9.977357 3.958051 4.246073
v 9.977357 6.957051 4.246073
v 9.105356 7.906051 5.556073
v 2.045357 5.907147 5.058074
v 7.167356 5.907162 8.467073
v 7.167356 5.712051 8.467073
v 2.045357 5.711051 5.058074
v 2.045357 5.711051 5.058074
v 5.997356 5.711051 -0.8809265
v 5.997356 5.906339 -0.8809265
v 2.045357 5.907147 5.058074
v 5.997356 5.711051 -0.8809265
v 9.001356 5.712051 1.118074
v 9.001356 5.906347 1.118074
v 5.997356 5.906339 -0.8809265
v 9.128357 -6.06967 0.9275734
v 9.255357 -6.06967 0.7370734
v 9.255357 5.906295 0.7370734
v 9.001356 5.906347 1.118074
v 9.128357 -6.06967 0.9275734
v 9.255357 5.906295 0.7370734
v 9.001356 5.906347 1.118074
v 9.001356 5.712051 1.118074
v 9.128357 -6.06967 0.9275734
v 9.001356 5.712051 1.118074
v 9.001356 -6.06967 1.118074
v 9.128357 -6.06967 0.9275734
v 8.455357 5.906293 0.2050734
v 9.255357 5.906295 0.7370734
v 9.255357 -6.06967 0.7370734
v 8.455357 -6.06967 0.2050734
v 6.792356 5.906288 -0.9019266
v 7.623857 -6.06967 -0.3484266
v 6.792356 -6.06967 -0.9019266
v 7.623857 -6.06967 -0.3484266
v 8.455357 5.906293 0.2050734
v 8.455357 -6.06967 0.2050734
v 6.792356 5.906288 -0.9019266
v 8.455357 5.906293 0.2050734
v 7.623857 -6.06967 -0.3484266
v 5.871356 5.906286 -1.513927
v 6.792356 5.906288 -0.9019266
v 6.792356 -6.06967 -0.9019266
v 5.871356 -6.06967 -1.513927
v 4.603357 5.906282 -2.357927
v 5.237357 -6.06967 -1.935927
v 4.603357 -6.06967 -2.357927
v 5.237357 -6.06967 -1.935927
v 5.871356 5.906286 -1.513927
v 5.871356 -6.06967 -1.513927
v 4.603357 5.906282 -2.357927
v 5.871356 5.906286 -1.513927
v 5.237357 -6.06967 -1.935927
v 2.700357 5.906276 -3.624927
v 4.603357 5.906282 -2.357927
v 4.603357 -6.06967 -2.357927
v 2.700357 -6.06967 -3.624927
v -6.472643 5.90625 -9.728927
v -1.886143 -6.06967 -6.676927
v -6.472643 -6.06967 -9.728927
v -1.886143 -6.06967 -6.676927
v 2.700357 5.906276 -3.624927
v 2.700357 -6.06967 -3.624927
v -6.472643 5.90625 -9.728927
v 2.700357 5.906276 -3.624927
v -1.886143 -6.06967 -6.676927
v 9.613357 -6.06967 5.895073
v 10.48636 -6.06967 4.584074
v 10.48636 3.958051 4.584074
v 9.613357 5.298051 5.895073
v 8.741357 -6.06967 7.205073
v 9.613357 -6.06967 5.895073
v 9.613357 5.298051 5.895073
v 8.741357 3.958051 7.205073
v 9.977357 3.958051 4.246073
v 10.48636 3.958051 4.584074
v 10.48636 -6.06967 4.584074
v 9.977357 -6.06967 4.246073
v 8.232357 -6.06967 6.867074
v 8.741357 -6.06967 7.205073
v 8.741357 3.958051 7.205073
v 8.232357 3.958051 6.867074
v 9.001356 5.712051 1.118074
v 11.12036 5.712051 2.528073
v 11.12036 -6.06967 2.528073
v 9.001356 -6.06967 1.118074
v -1.886143 -6.06967 -6.676927
v 2.700357 -6.06967 -3.624927
v 4.603357 -6.06967 -2.357927
v 5.237357 -6.06967 -1.935927
v 5.871356 -6.06967 -1.513927
v 6.792356 -6.06967 -0.9019266
v 7.623857 -6.06967 -0.3484266
v 8.455357 -6.06967 0.2050734
v 9.255357 -6.06967 0.7370734
v 9.128357 -6.06967 0.9275734
v 9.001356 -6.06967 1.118074
v 11.12036 -6.06967 2.528073
v 10.54886 -6.06967 3.387073
v 9.977357 -6.06967 4.246073
v 10.48636 -6.06967 4.584074
v 9.613357 -6.06967 5.895073
v 8.741357 -6.06967 7.205073
v 8.232357 -6.06967 6.867074
v 7.167356 -6.06967 8.467073
v 6.842857 -6.06967 8.955073
v 6.518357 -6.06967 9.443073
v -11.58164 -6.06967 -2.051927
v -6.472643 -6.06967 -9.728927
vt 0.570541 0.001112
vt 0.869086 0.351703
vt 0.754783 0.264844
vt 0.570541 0.001112
vt 0.526796 0.276209
vt 0.368182 0.098495
vt 0.570541 0.001112
vt 0.754783 0.264844
vt 0.526796 0.276209
vt 0.754783 0.264844
vt 0.869086 0.351703
vt 0.843359 0.364072
vt 0.754783 0.264844
vt 0.598239 0.340160
vt 0.559718 0.313075
vt 0.598239 0.340160
vt 0.650179 0.398354
vt 0.626314 0.387697
vt 0.754783 0.264844
vt 0.559718 0.313075
vt 0.526796 0.276209
vt 0.626314 0.387697
vt 0.650179 0.398354
vt 0.640137 0.403195
vt 0.559718 0.313075
vt 0.598239 0.340160
vt 0.581649 0.337640
vt 0.598239 0.340160
vt 0.626314 0.387697
vt 0.597550 0.355482
vt 0.581649 0.337640
vt 0.598239 0.340160
vt 0.597550 0.355482
vt 0.686077 0.955043
vt 0.677273 0.945535
vt 0.736784 0.932759
vt 0.677273 0.945535
vt 0.728021 0.923248
vt 0.736784 0.932759
vt 0.673411 0.932777
vt 0.632874 0.957017
vt 0.624242 0.947491
vt 0.664819 0.923248
vt 0.673411 0.932777
vt 0.624242 0.947491
vt 0.827679 0.420467
vt 0.916098 0.518942
vt 0.789394 0.523523
vt 0.789394 0.523523
vt 0.916098 0.518942
vt 0.867914 0.546664
vt 0.789394 0.523523
vt 0.867914 0.546664
vt 0.828327 0.569447
vt 0.652684 0.821463
vt 0.554301 0.808484
vt 0.615416 0.780868
vt 0.547256 0.875392
vt 0.554301 0.808484
vt 0.652684 0.821463
vt 0.547256 0.875392
vt 0.507576 0.829607
vt 0.554301 0.808484
vt 0.705531 0.879006
vt 0.547256 0.875392
vt 0.652684 0.821463
vt 0.251459 0.886496
vt 0.248485 0.780868
vt 0.409087 0.808469
vt 0.431818 0.521741
vt 0.636679 0.420467
vt 0.785871 0.491185
vt 0.584095 0.590941
vt 0.068509 0.001112
vt 0.364580 0.345677
vt 0.302011 0.417954
vt 0.001515 0.068252
vt 0.231943 0.840552
vt 0.157538 0.794078
vt 0.156500 0.793195
vt 0.231943 0.840552
vt 0.219308 0.846625
vt 0.157538 0.794078
vt 0.182146 0.780868
vt 0.244579 0.834480
vt 0.231943 0.840552
vt 0.182146 0.780868
vt 0.231943 0.840552
vt 0.156500 0.793195
vt 0.157538 0.794078
vt 0.124906 0.822177
vt 0.109015 0.808865
vt 0.219308 0.846625
vt 0.177881 0.866555
vt 0.124906 0.822177
vt 0.157538 0.794078
vt 0.087779 0.909904
vt 0.065538 0.920598
vt 0.001515 0.869138
vt 0.039842 0.841875
vt 0.087779 0.909904
vt 0.001515 0.869138
vt 0.039842 0.841875
vt 0.056199 0.855239
vt 0.087779 0.909904
vt 0.056199 0.855239
vt 0.110019 0.899209
vt 0.087779 0.909904
vt 0.124906 0.822177
vt 0.083303 0.832731
vt 0.069149 0.821022
vt 0.109015 0.808865
vt 0.083303 0.832731
vt 0.056199 0.855239
vt 0.039842 0.841875
vt 0.069149 0.821022
vt 0.501471 0.879916
vt 0.412121 0.781761
vt 0.414656 0.780868
vt 0.503997 0.878994
vt 0.282350 0.924154
vt 0.126852 0.998698
vt 0.125758 0.997814
vt 0.281288 0.923248
vt 0.351075 0.923248
vt 0.402082 0.980357
vt 0.401025 0.981539
vt 0.350000 0.924422
vt 0.475816 0.977935
vt 0.470950 0.980285
vt 0.406061 0.928019
vt 0.415936 0.923248
vt 0.475816 0.977935
vt 0.406061 0.928019
vt 0.415936 0.923248
vt 0.417002 0.924110
vt 0.475816 0.977935
vt 0.417002 0.924110
vt 0.480681 0.975585
vt 0.475816 0.977935
vt 0.015637 0.489792
vt 0.001515 0.474338
vt 0.153802 0.420467
vt 0.167714 0.435693
vt 0.045022 0.521916
vt 0.182189 0.451519
vt 0.196663 0.467344
vt 0.182189 0.451519
vt 0.015637 0.489792
vt 0.167714 0.435693
vt 0.045022 0.521916
vt 0.015637 0.489792
vt 0.182189 0.451519
vt 0.061267 0.539707
vt 0.045022 0.521916
vt 0.196663 0.467344
vt 0.212668 0.484873
vt 0.083670 0.564201
vt 0.223703 0.496939
vt 0.234739 0.509005
vt 0.223703 0.496939
vt 0.061267 0.539707
vt 0.212668 0.484873
vt 0.083670 0.564201
vt 0.061267 0.539707
vt 0.223703 0.496939
vt 0.117300 0.600959
vt 0.083670 0.564201
vt 0.234739 0.509005
vt 0.267871 0.545222
vt 0.279308 0.778135
vt 0.347677 0.632506
vt 0.427479 0.719785
vt 0.347677 0.632506
vt 0.117300 0.600959
vt 0.267871 0.545222
vt 0.279308 0.778135
vt 0.117300 0.600959
vt 0.347677 0.632506
vt 0.088626 0.983432
vt 0.054893 0.999663
vt 0.001515 0.956096
vt 0.028491 0.933731
vt 0.122334 0.967219
vt 0.088626 0.983432
vt 0.028491 0.933731
vt 0.069795 0.923248
vt 0.493732 0.976839
vt 0.484848 0.967196
vt 0.612343 0.923248
vt 0.621117 0.932772
vt 0.338375 0.923248
vt 0.346904 0.932812
vt 0.295000 0.992911
vt 0.286364 0.983228
vt 0.746343 0.873442
vt 0.709091 0.832873
vt 0.858887 0.780868
vt 0.895596 0.820848
vt 0.740909 0.923248
vt 0.740909 0.923248
vt 0.740909 0.923248
vt 0.740909 0.923248
vt 0.740909 0.923248
vt 0.740909 0.923248
vt 0.740909 0.923248
vt 0.740909 0.923248
vt 0.740909 0.923248
vt 0.740909 0.923248
vt 0.740909 0.923248
vt 0.740909 0.923248
vt 0.740909 0.923248
vt 0.740909 0.923248
vt 0.740909 0.923248
vt 0.740909 0.923248
vt 0.740909 0.923248
vt 0.740909 0.923248
vt 0.740909 0.923248
vt 0.740909 0.923248
vt 0.740909 0.923248
vt 0.740909 0.923248
vt 0.740909 0.923248
vn 6.080743E-05 1 -9.574724E-05
vn 6.080743E-05 1 -9.574724E-05
vn 6.080743E-05 1 -9.574724E-05
vn 6.080737E-05 1 -9.57464E-05
vn 6.080737E-05 1 -9.57464E-05
vn 6.080737E-05 1 -9.57464E-05
vn 6.080731E-05 1 -9.5747E-05
vn 6.080731E-05 1 -9.5747E-05
vn 6.080731E-05 1 -9.5747E-05
vn 6.080541E-05 1 -9.574518E-05
vn 6.080541E-05 1 -9.574518E-05
vn 6.080541E-05 1 -9.574518E-05
vn 6.080835E-05 1 -9.574599E-05
vn 6.080835E-05 1 -9.574599E-05
vn 6.080835E-05 1 -9.574599E-05
vn 6.080147E-05 1 -9.573666E-05
vn 6.080147E-05 1 -9.573666E-05
vn 6.080147E-05 1 -9.573666E-05
vn 6.080488E-05 1 -9.574719E-05
vn 6.080488E-05 1 -9.574719E-05
vn 6.080488E-05 1 -9.574719E-05
vn 6.080299E-05 1 -9.573757E-05
vn 6.080299E-05 1 -9.573757E-05
vn 6.080299E-05 1 -9.573757E-05
vn 6.079696E-05 1 -9.573524E-05
vn 6.079696E-05 1 -9.573524E-05
vn 6.079696E-05 1 -9.573524E-05
vn 6.080426E-05 1 -9.574298E-05
vn 6.080426E-05 1 -9.574298E-05
vn 6.080426E-05 1 -9.574298E-05
vn 6.080442E-05 1 -9.573672E-05
vn 6.080442E-05 1 -9.573672E-05
vn 6.080442E-05 1 -9.573672E-05
vn 0.3598646 0.7613735 -0.5392661
vn 0.3598646 0.7613735 -0.5392661
vn 0.3598646 0.7613735 -0.5392661
vn 0.3584565 0.7616552 -0.5398058
vn 0.3584565 0.7616552 -0.5398058
vn 0.3584565 0.7616552 -0.5398058
vn -0.3598646 0.7613735 0.5392661
vn -0.3598646 0.7613735 0.5392661
vn -0.3598646 0.7613735 0.5392661
vn -0.3584565 0.7616552 0.5398058
vn -0.3584565 0.7616552 0.5398058
vn -0.3584565 0.7616552 0.5398058
vn -0.2992415 0.8417416 0.4493614
vn -0.2992415 0.8417416 0.4493614
vn -0.2992415 0.8417416 0.4493614
vn -0.2826186 0.8469748 0.4502892
vn -0.2826186 0.8469748 0.4502892
vn -0.2826186 0.8469748 0.4502892
vn -0.2824868 0.8470436 0.4502426
vn -0.2824868 0.8470436 0.4502426
vn -0.2824868 0.8470436 0.4502426
vn 0.2861844 0.8562256 -0.4300885
vn 0.2861844 0.8562256 -0.4300885
vn 0.2861844 0.8562256 -0.4300885
vn 0.2757431 0.8604349 -0.428506
vn 0.2757431 0.8604349 -0.428506
vn 0.2757431 0.8604349 -0.428506
vn 0.2750273 0.8562649 -0.4372303
vn 0.2750273 0.8562649 -0.4372303
vn 0.2750273 0.8562649 -0.4372303
vn 0.2818464 0.8607016 -0.4239756
vn 0.2818464 0.8607016 -0.4239756
vn 0.2818464 0.8607016 -0.4239756
vn -0.4573432 0.8355955 -0.3043308
vn -0.4573432 0.8355955 -0.3043308
vn -0.4573432 0.8355955 -0.3043308
vn -0.8325005 0 -0.5540243
vn -0.8325005 0 -0.5540243
vn -0.8325005 0 -0.5540243
vn -0.8325005 0 -0.5540243
vn -0.5361058 0 0.8441508
vn -0.5361058 0 0.8441508
vn -0.5361058 0 0.8441508
vn -0.5361058 0 0.8441508
vn 0.832706 0 0.5537153
vn 0.832706 0 0.5537153
vn 0.832706 0 0.5537153
vn 0.832706 0 0.5537153
vn 0.832706 0 0.5537153
vn 0.832706 0 0.5537153
vn 0.832706 0 0.5537153
vn 0.832706 0 0.5537153
vn 0.832706 0 0.5537153
vn 0.832706 -2.368127E-10 0.5537153
vn 0.832706 -2.368127E-10 0.5537153
vn 0.832706 -2.368127E-10 0.5537153
vn 0.8324503 0 0.5540997
vn 0.8324503 0 0.5540997
vn 0.8324503 0 0.5540997
vn 0.8324503 0 0.5540997
vn 0.8324503 0 0.5540997
vn 0.8324503 0 0.5540997
vn 0.8324503 0 0.5540997
vn 0.8325718 0 0.5539171
vn 0.8325718 0 0.5539171
vn 0.8325718 0 0.5539171
vn 0.8325718 0 0.5539171
vn 0.8325718 0 0.5539171
vn 0.8325718 0 0.5539171
vn 0.8325718 0 0.5539171
vn 0.8325718 0 0.5539171
vn 0.8325718 0 0.5539171
vn 0.8325718 0 0.5539171
vn 0.8325718 0 0.5539171
vn 0.8325718 0 0.5539171
vn 0.8323432 0 0.5542606
vn 0.8323432 0 0.5542606
vn 0.8323432 0 0.5542606
vn 0.8323432 0 0.5542606
vn 0.8324412 0 0.5541135
vn 0.8324412 0 0.5541135
vn 0.8324412 0 0.5541135
vn 0.8324412 0 0.5541135
vn 0.5540624 0 -0.8324751
vn 0.5540624 0 -0.8324751
vn 0.5540624 0 -0.8324751
vn 0.5540624 0 -0.8324751
vn 0.8325244 0 0.5539883
vn 0.8325244 0 0.5539883
vn 0.8325244 0 0.5539883
vn 0.8325244 0 0.5539883
vn -0.5539965 0 0.832519
vn -0.5539965 0 0.832519
vn -0.5539965 0 0.832519
vn -0.5539965 0 0.832519
vn 0.8320503 0 0.5547002
vn 0.8320503 0 0.5547002
vn 0.8320503 0 0.5547002
vn 0.8320503 3.477897E-10 0.5547002
vn 0.8320503 3.477897E-10 0.5547002
vn 0.8320503 3.477897E-10 0.5547002
vn 0.8320503 0 0.5547002
vn 0.8320503 0 0.5547002
vn 0.8320503 0 0.5547002
vn 0.8320503 0 0.5547002
vn 0.8320503 0 0.5547002
vn 0.8320503 0 0.5547002
vn 0.553739 0 -0.8326903
vn 0.553739 0 -0.8326903
vn 0.553739 0 -0.8326903
vn 0.553739 0 -0.8326903
vn 0.5541225 0 -0.8324351
vn 0.5541225 0 -0.8324351
vn 0.5541225 0 -0.8324351
vn 0.5541225 0 -0.8324351
vn 0.5541225 0 -0.8324351
vn 0.5541225 0 -0.8324351
vn 0.5541225 -3.102095E-11 -0.8324351
vn 0.5541225 -3.102095E-11 -0.8324351
vn 0.5541225 -3.102095E-11 -0.8324351
vn 0.5534474 0 -0.8328841
vn 0.5534474 0 -0.8328841
vn 0.5534474 0 -0.8328841
vn 0.5534474 0 -0.8328841
vn 0.554094 0 -0.8324541
vn 0.554094 0 -0.8324541
vn 0.554094 0 -0.8324541
vn 0.554094 0 -0.8324541
vn 0.554094 0 -0.8324541
vn 0.554094 0 -0.8324541
vn 0.554094 0 -0.8324541
vn 0.554094 0 -0.8324541
vn 0.554094 0 -0.8324541
vn 0.5541954 0 -0.8323866
vn 0.5541954 0 -0.8323866
vn 0.5541954 0 -0.8323866
vn 0.5541954 0 -0.8323866
vn 0.5539879 0 -0.8325247
vn 0.5539879 0 -0.8325247
vn 0.5539879 0 -0.8325247
vn 0.5539879 0 -0.8325247
vn 0.5539879 0 -0.8325247
vn 0.5539879 0 -0.8325247
vn 0.5539879 -3.102485E-11 -0.8325247
vn 0.5539879 -3.102485E-11 -0.8325247
vn 0.5539879 -3.102485E-11 -0.8325247
vn 0.8323432 0 0.5542606
vn 0.8323432 0 0.5542606
vn 0.8323432 0 0.5542606
vn 0.8323432 0 0.5542606
vn 0.8324412 0 0.5541135
vn 0.8324412 0 0.5541135
vn 0.8324412 0 0.5541135
vn 0.8324412 0 0.5541135
vn 0.5531885 0 -0.8330561
vn 0.5531885 0 -0.8330561
vn 0.5531885 0 -0.8330561
vn 0.5531885 0 -0.8330561
vn -0.5531885 0 0.8330561
vn -0.5531885 0 0.8330561
vn -0.5531885 0 0.8330561
vn -0.5531885 0 0.8330561
vn 0.5539746 0 -0.8325336
vn 0.5539746 0 -0.8325336
vn 0.5539746 0 -0.8325336
vn 0.5539746 0 -0.8325336
vn 0 -1 0
vn 0 -1 0
vn 0 -1 0
vn 0 -1 0
vn 0 -1 0
vn 0 -1 0
vn 0 -1 0
vn 0 -1 0
vn 0 -1 0
vn 0 -1 0
vn 0 -1 0
vn 0 -1 0
vn 0 -1 0
vn 0 -1 0
vn 0 -1 0
vn 0 -1 0
vn 0 -1 0
vn 0 -1 0
vn 0 -1 0
vn 0 -1 0
vn 0 -1 0
vn 0 -1 0
vn 0 -1 0

g CDNNDG02_0007340
f 1/1/1 2/2/2 3/3/3
f 4/4/4 5/5/5 6/6/6
f 7/7/7 8/8/8 9/9/9
f 10/10/10 11/11/11 12/12/12
f 13/13/13 14/14/14 15/15/15
f 16/16/16 17/17/17 18/18/18
f 19/19/19 20/20/20 21/21/21
f 22/22/22 23/23/23 24/24/24
f 25/25/25 26/26/26 27/27/27
f 28/28/28 29/29/29 30/30/30
f 31/31/31 32/32/32 33/33/33
f 34/34/34 35/35/35 36/36/36
f 37/37/37 38/38/38 39/39/39
f 40/40/40 41/41/41 42/42/42
f 43/43/43 44/44/44 45/45/45
f 46/46/46 47/47/47 48/48/48
f 49/49/49 50/50/50 51/51/51
f 52/52/52 53/53/53 54/54/54
f 55/55/55 56/56/56 57/57/57
f 58/58/58 59/59/59 60/60/60
f 61/61/61 62/62/62 63/63/63
f 64/64/64 65/65/65 66/66/66
f 67/67/67 68/68/68 69/69/69
f 71/71/71 72/72/72 73/73/73
f 70/70/70 71/71/71 73/73/73
f 74/74/74 76/76/76 77/77/77
f 74/74/74 75/75/75 76/76/76
f 78/78/78 79/79/79 80/80/80
f 81/81/81 82/82/82 83/83/83
f 84/84/84 85/85/85 86/86/86
f 87/87/87 88/88/88 89/89/89
f 90/90/90 91/91/91 92/92/92
f 94/94/94 95/95/95 93/93/93
f 93/93/93 95/95/95 96/96/96
f 97/97/97 98/98/98 99/99/99
f 100/100/100 101/101/101 102/102/102
f 103/103/103 104/104/104 105/105/105
f 106/106/106 107/107/107 108/108/108
f 112/112/112 109/109/109 110/110/110
f 110/110/110 111/111/111 112/112/112
f 113/113/113 115/115/115 116/116/116
f 113/113/113 114/114/114 115/115/115
f 120/120/120 117/117/117 119/119/119
f 118/118/118 119/119/119 117/117/117
f 124/124/124 121/121/121 123/123/123
f 122/122/122 123/123/123 121/121/121
f 126/126/126 127/127/127 128/128/128
f 125/125/125 126/126/126 128/128/128
f 129/129/129 130/130/130 131/131/131
f 132/132/132 133/133/133 134/134/134
f 135/135/135 136/136/136 137/137/137
f 138/138/138 139/139/139 140/140/140
f 143/143/143 141/141/141 142/142/142
f 141/141/141 143/143/143 144/144/144
f 145/145/145 146/146/146 147/147/147
f 148/148/148 149/149/149 150/150/150
f 151/151/151 152/152/152 153/153/153
f 156/156/156 154/154/154 155/155/155
f 154/154/154 156/156/156 157/157/157
f 158/158/158 159/159/159 160/160/160
f 161/161/161 162/162/162 163/163/163
f 164/164/164 165/165/165 166/166/166
f 167/167/167 169/169/169 170/170/170
f 167/167/167 168/168/168 169/169/169
f 171/171/171 172/172/172 173/173/173
f 174/174/174 175/175/175 176/176/176
f 177/177/177 178/178/178 179/179/179
f 181/181/181 182/182/182 180/180/180
f 180/180/180 182/182/182 183/183/183
f 187/187/187 184/184/184 185/185/185
f 185/185/185 186/186/186 187/187/187
f 188/188/188 190/190/190 191/191/191
f 188/188/188 189/189/189 190/190/190
f 192/192/192 194/194/194 195/195/195
f 194/194/194 192/192/192 193/193/193
f 198/198/198 196/196/196 197/197/197
f 196/196/196 198/198/198 199/199/199
f 201/201/201 220/220/220 221/221/221
f 202/202/202 219/219/219 220/220/220
f 222/222/222 200/200/200 221/221/221
f 202/202/202 218/218/218 219/219/219
f 200/200/200 201/201/201 221/221/221
f 201/201/201 202/202/202 220/220/220
f 202/202/202 203/203/203 218/218/218
f 203/203/203 204/204/204 218/218/218
f 204/204/204 205/205/205 217/217/217
f 205/205/205 206/206/206 217/217/217
f 206/206/206 207/207/207 210/210/210
f 204/204/204 217/217/217 218/218/218
f 207/207/207 208/208/208 209/209/209
f 207/207/207 209/209/209 210/210/210
f 206/206/206 210/210/210 217/217/217
f 210/210/210 211/211/211 212/212/212
f 210/210/210 212/212/212 213/213/213
f 215/215/215 216/216/216 217/217/217
f 215/215/215 213/213/213 214/214/214
f 210/210/210 213/213/213 217/217/217
f 213/213/213 215/215/215 217/217/217
