v -8.500637 5.841552 7.222597
v -7.147637 5.841552 7.958597
v -5.976637 5.841552 7.733597
v -6.071637 5.841552 7.885597
v -5.570637 5.841552 8.200597
v -5.399637 5.841552 7.927597
v -2.015637 5.841552 10.0476
v 4.282363 5.841552 -0.002403348
v 4.058363 5.841552 -0.1424033
v 9.242363 5.841552 -8.414403
v 4.463363 5.841552 -11.4094
v -0.2596368 5.841552 -3.872403
v 0.1203632 5.841552 -0.7954034
v -1.138637 5.841552 -0.7034034
v -3.887637 5.841552 -2.420403
v -6.241637 5.841552 1.348597
v -6.583637 5.841552 1.896597
v -9.066637 5.841552 5.871597
v -9.164637 5.841552 6.028597
v -8.657637 5.841552 6.352597
v -8.500637 -5.841552 7.222597
v -7.147637 -5.841552 7.958597
v -7.147637 5.841552 7.958597
v -8.500637 5.841552 7.222597
v -7.147637 -5.841552 7.958597
v -5.976637 -5.841552 7.733597
v -5.976637 5.841552 7.733597
v -7.147637 5.841552 7.958597
v -6.071637 5.841552 7.885597
v -5.976637 5.841552 7.733597
v -5.976637 -5.841552 7.733597
v -6.071637 -5.841552 7.885597
v -6.071637 -5.841552 7.885597
v -5.570637 -5.841552 8.200597
v -5.570637 5.841552 8.200597
v -6.071637 5.841552 7.885597
v -5.570637 -5.841552 8.200597
v -5.399637 -5.841552 7.927597
v -5.399637 5.841552 7.927597
v -5.570637 5.841552 8.200597
v -5.399637 -5.841552 7.927597
v -2.015637 -5.841552 10.0476
v -2.015637 5.841552 10.0476
v -5.399637 5.841552 7.927597
v -2.015637 -5.841552 10.0476
v 4.282363 -5.841552 -0.002403348
v 4.282363 5.841552 -0.002403348
v -2.015637 5.841552 10.0476
v 4.058363 5.841552 -0.1424033
v 4.282363 5.841552 -0.002403348
v 4.282363 -5.841552 -0.002403348
v 4.058363 -5.841552 -0.1424033
v 4.058363 -5.841552 -0.1424033
v 9.242363 -5.841552 -8.414403
v 9.242363 5.841552 -8.414403
v 4.058363 5.841552 -0.1424033
v 4.463363 5.841552 -11.4094
v 9.242363 5.841552 -8.414403
v 9.242363 -5.841552 -8.414403
v 4.463363 -5.841552 -11.4094
v -0.2596368 5.841552 -3.872403
v 4.463363 5.841552 -11.4094
v 4.463363 -5.841552 -11.4094
v -0.2596368 -5.841552 -3.872403
v -0.2596368 -5.841552 -3.872403
v 0.1203632 -5.841552 -0.7954034
v 0.1203632 5.841552 -0.7954034
v -0.2596368 5.841552 -3.872403
v -1.138637 5.841552 -0.7034034
v 0.1203632 5.841552 -0.7954034
v 0.1203632 -5.841552 -0.7954034
v -1.138637 -5.841552 -0.7034034
v -3.887637 5.841552 -2.420403
v -1.138637 5.841552 -0.7034034
v -1.138637 -5.841552 -0.7034034
v -3.887637 -5.841552 -2.420403
v -6.241637 5.841552 1.348597
v -3.887637 5.841552 -2.420403
v -3.887637 -5.841552 -2.420403
v -6.241637 -5.841552 1.348597
v -6.583637 5.841552 1.896597
v -6.241637 5.841552 1.348597
v -6.241637 -5.841552 1.348597
v -6.583637 -5.841552 1.896597
v -9.066637 5.841552 5.871597
v -6.583637 5.841552 1.896597
v -6.583637 -5.841552 1.896597
v -9.066637 -5.841552 5.871597
v -9.164637 5.841552 6.028597
v -9.066637 5.841552 5.871597
v -9.066637 -5.841552 5.871597
v -9.164637 -5.841552 6.028597
v -8.911137 -5.841552 6.190597
v -8.657637 -5.841552 6.352597
v -8.657637 5.841552 6.352597
v -9.164637 5.841552 6.028597
v -9.164637 -5.841552 6.028597
v -8.911137 -5.841552 6.190597
v -9.164637 5.841552 6.028597
v -8.911137 -5.841552 6.190597
v -8.657637 5.841552 6.352597
v -8.657637 -5.841552 6.352597
v -8.500637 -5.841552 7.222597
v -8.500637 5.841552 7.222597
v -8.657637 5.841552 6.352597
v -8.657637 -5.841552 6.352597
v -8.911137 -5.841552 6.190597
v -9.164637 -5.841552 6.028597
v -9.066637 -5.841552 5.871597
v -6.583637 -5.841552 1.896597
v -6.241637 -5.841552 1.348597
v -3.887637 -5.841552 -2.420403
v -1.138637 -5.841552 -0.7034034
v 0.1203632 -5.841552 -0.7954034
v -0.2596368 -5.841552 -3.872403
v 4.463363 -5.841552 -11.4094
v 9.242363 -5.841552 -8.414403
v 4.058363 -5.841552 -0.1424033
v 4.282363 -5.841552 -0.002403348
v -2.015637 -5.841552 10.0476
v -5.399637 -5.841552 7.927597
v -5.570637 -5.841552 8.200597
v -6.071637 -5.841552 7.885597
v -5.976637 -5.841552 7.733597
v -7.147637 -5.841552 7.958597
v -8.500637 -5.841552 7.222597
vt 0.555790 0.015603
vt 0.577559 0.044738
vt 0.570803 0.069891
vt 0.575323 0.067861
vt 0.584645 0.078652
vt 0.576527 0.082307
vt 0.639264 0.155195
vt 0.340439 0.289818
vt 0.336296 0.284994
vt 0.090356 0.395796
vt 0.001718 0.292873
vt 0.225808 0.191919
vt 0.317152 0.200311
vt 0.319963 0.173259
vt 0.269149 0.114050
vt 0.381216 0.063729
vt 0.397510 0.056419
vt 0.515707 0.003339
vt 0.520375 0.001244
vt 0.529964 0.012165
vt 0.705837 0.786070
vt 0.727319 0.814401
vt 0.626605 0.877729
vt 0.604811 0.848987
vt 0.462640 0.858653
vt 0.455936 0.883197
vt 0.355670 0.810970
vt 0.362471 0.786070
vt 0.429553 0.927443
vt 0.434096 0.925373
vt 0.568691 0.990613
vt 0.564215 0.992653
vt 0.102288 0.925373
vt 0.111457 0.935829
vt 0.011021 0.999439
vt 0.001718 0.988831
vt 0.840053 0.857907
vt 0.832144 0.861442
vt 0.731959 0.789656
vt 0.739981 0.786070
vt 0.102776 0.786070
vt 0.164799 0.857221
vt 0.064643 0.922393
vt 0.001718 0.850210
vt 0.400897 0.470733
vt 0.106432 0.602256
vt 0.001718 0.532686
vt 0.300445 0.399254
vt 0.847886 0.861916
vt 0.843643 0.857138
vt 0.975767 0.786070
vt 0.979949 0.790778
vt 0.352134 0.675298
vt 0.109933 0.783452
vt 0.001718 0.715445
vt 0.247425 0.605721
vt 0.446862 0.778738
vt 0.355670 0.675867
vt 0.484796 0.605721
vt 0.574664 0.707105
vt 0.579038 0.709772
vt 0.805982 0.605721
vt 0.933183 0.675036
vt 0.709544 0.777567
vt 0.336454 0.925373
vt 0.426117 0.933146
vt 0.321205 0.998471
vt 0.230241 0.990585
vt 0.467354 0.813443
vt 0.469872 0.786070
vt 0.600696 0.853581
vt 0.598214 0.880555
vt 0.220587 0.918364
vt 0.168385 0.859325
vt 0.300588 0.786070
vt 0.352033 0.844255
vt 0.546457 0.451128
vt 0.659981 0.399254
vt 0.791166 0.465911
vt 0.679295 0.517028
vt 0.529952 0.458665
vt 0.546457 0.451128
vt 0.679295 0.517028
vt 0.663030 0.524454
vt 0.410227 0.513380
vt 0.529952 0.458665
vt 0.663030 0.524454
vt 0.545049 0.578370
vt 0.405498 0.515539
vt 0.410227 0.513380
vt 0.545049 0.578370
vt 0.540389 0.580498
vt 0.221217 0.930662
vt 0.225934 0.935951
vt 0.124690 0.998609
vt 0.115120 0.987877
vt 0.216501 0.925373
vt 0.221217 0.930662
vt 0.115120 0.987877
vt 0.221217 0.930662
vt 0.124690 0.998609
vt 0.673595 0.925373
vt 0.698835 0.928601
vt 0.597771 0.991187
vt 0.572165 0.987913
vt 0.702749 0.925373
vt 0.702749 0.925373
vt 0.702749 0.925373
vt 0.702749 0.925373
vt 0.702749 0.925373
vt 0.702749 0.925373
vt 0.702749 0.925373
vt 0.702749 0.925373
vt 0.702749 0.925373
vt 0.702749 0.925373
vt 0.702749 0.925373
vt 0.702749 0.925373
vt 0.702749 0.925373
vt 0.702749 0.925373
vt 0.702749 0.925373
vt 0.702749 0.925373
vt 0.702749 0.925373
vt 0.702749 0.925373
vt 0.702749 0.925373
vt 0.702749 0.925373
vt 0.702749 0.925373
vn 0 1 0
vn 0 1 0
vn 0 1 0
vn 0 1 0
vn 0 1 0
vn 0 1 0
vn 0 1 0
vn 0 1 0
vn 0 1 0
vn 0 1 0
vn 0 1 0
vn 0 1 0
vn 0 1 0
vn 0 1 0
vn 0 1 0
vn 0 1 0
vn 0 1 0
vn 0 1 0
vn 0 1 0
vn 0 1 0
vn -0.4778511 0 0.8784409
vn -0.4778511 0 0.8784409
vn -0.4778511 0 0.8784409
vn -0.4778511 0 0.8784409
vn 0.1886919 0 0.9820364
vn 0.1886919 0 0.9820364
vn 0.1886919 0 0.9820364
vn 0.1886919 0 0.9820364
vn -0.8479983 0 -0.529999
vn -0.8479983 0 -0.529999
vn -0.8479983 0 -0.529999
vn -0.8479983 0 -0.529999
vn -0.5322754 0 0.8465713
vn -0.5322754 0 0.8465713
vn -0.5322754 0 0.8465713
vn -0.5322754 0 0.8465713
vn 0.8474747 0 0.5308358
vn 0.8474747 0 0.5308358
vn 0.8474747 0 0.5308358
vn 0.8474747 0 0.5308358
vn -0.530899 0 0.8474351
vn -0.530899 0 0.8474351
vn -0.530899 0 0.8474351
vn -0.530899 0 0.8474351
vn 0.847363 0 0.5310141
vn 0.847363 0 0.5310141
vn 0.847363 0 0.5310141
vn 0.847363 0 0.5310141
vn 0.529999 0 -0.8479983
vn 0.529999 0 -0.8479983
vn 0.529999 0 -0.8479983
vn 0.529999 0 -0.8479983
vn 0.8473532 0 0.5310298
vn 0.8473532 0 0.5310298
vn 0.8473532 0 0.5310298
vn 0.8473532 0 0.5310298
vn 0.5310345 0 -0.8473502
vn 0.5310345 0 -0.8473502
vn 0.5310345 0 -0.8473502
vn 0.5310345 0 -0.8473502
vn -0.8473724 0 -0.5309991
vn -0.8473724 0 -0.5309991
vn -0.8473724 0 -0.5309991
vn -0.8473724 0 -0.5309991
vn -0.9924604 0 0.1225658
vn -0.9924604 0 0.1225658
vn -0.9924604 0 0.1225658
vn -0.9924604 0 0.1225658
vn -0.07287955 0 -0.9973407
vn -0.07287955 0 -0.9973407
vn -0.07287955 0 -0.9973407
vn -0.07287955 0 -0.9973407
vn 0.5297493 0 -0.8481542
vn 0.5297493 0 -0.8481542
vn 0.5297493 0 -0.8481542
vn 0.5297493 0 -0.8481542
vn -0.8481627 0 -0.5297359
vn -0.8481627 0 -0.5297359
vn -0.8481627 0 -0.5297359
vn -0.8481627 0 -0.5297359
vn -0.848346 0 -0.5294422
vn -0.848346 0 -0.5294422
vn -0.848346 0 -0.5294422
vn -0.848346 0 -0.5294422
vn -0.8481301 0 -0.529788
vn -0.8481301 0 -0.529788
vn -0.8481301 0 -0.529788
vn -0.8481301 0 -0.529788
vn -0.8483017 0 -0.5295132
vn -0.8483017 0 -0.5295132
vn -0.8483017 0 -0.5295132
vn -0.8483017 0 -0.5295132
vn -0.5384876 0 0.8426334
vn -0.5384876 0 0.8426334
vn -0.5384876 0 0.8426334
vn -0.5384876 0 0.8426334
vn -0.5384876 0 0.8426334
vn -0.5384876 0 0.8426334
vn -0.5384876 3.492683E-11 0.8426334
vn -0.5384876 3.492683E-11 0.8426334
vn -0.5384876 3.492683E-11 0.8426334
vn -0.9841043 0 0.1775912
vn -0.9841043 0 0.1775912
vn -0.9841043 0 0.1775912
vn -0.9841043 0 0.1775912
vn 0 -1 0
vn 0 -1 0
vn 0 -1 0
vn 0 -1 0
vn 0 -1 0
vn 0 -1 0
vn 0 -1 0
vn 0 -1 0
vn 0 -1 0
vn 0 -1 0
vn 0 -1 0
vn 0 -1 0
vn 0 -1 0
vn 0 -1 0
vn 0 -1 0
vn 0 -1 0
vn 0 -1 0
vn 0 -1 0
vn 0 -1 0
vn 0 -1 0
vn 0 -1 0

g CDNNDG02_0001300
f 17/17/17 18/18/18 20/20/20
f 20/20/20 18/18/18 19/19/19
f 3/3/3 17/17/17 20/20/20
f 1/1/1 2/2/2 20/20/20
f 5/5/5 3/3/3 4/4/4
f 2/2/2 3/3/3 20/20/20
f 3/3/3 5/5/5 6/6/6
f 14/14/14 6/6/6 7/7/7
f 6/6/6 16/16/16 17/17/17
f 7/7/7 13/13/13 14/14/14
f 14/14/14 15/15/15 16/16/16
f 7/7/7 8/8/8 13/13/13
f 8/8/8 9/9/9 13/13/13
f 9/9/9 10/10/10 12/12/12
f 16/16/16 6/6/6 14/14/14
f 10/10/10 11/11/11 12/12/12
f 9/9/9 12/12/12 13/13/13
f 3/3/3 6/6/6 17/17/17
f 21/21/21 23/23/23 24/24/24
f 23/23/23 21/21/21 22/22/22
f 28/28/28 25/25/25 27/27/27
f 27/27/27 25/25/25 26/26/26
f 29/29/29 30/30/30 31/31/31
f 32/32/32 29/29/29 31/31/31
f 33/33/33 35/35/35 36/36/36
f 35/35/35 33/33/33 34/34/34
f 38/38/38 39/39/39 37/37/37
f 37/37/37 39/39/39 40/40/40
f 41/41/41 43/43/43 44/44/44
f 43/43/43 41/41/41 42/42/42
f 48/48/48 45/45/45 47/47/47
f 46/46/46 47/47/47 45/45/45
f 51/51/51 49/49/49 50/50/50
f 49/49/49 51/51/51 52/52/52
f 53/53/53 55/55/55 56/56/56
f 53/53/53 54/54/54 55/55/55
f 58/58/58 59/59/59 57/57/57
f 57/57/57 59/59/59 60/60/60
f 64/64/64 61/61/61 63/63/63
f 63/63/63 61/61/61 62/62/62
f 67/67/67 65/65/65 66/66/66
f 65/65/65 67/67/67 68/68/68
f 70/70/70 71/71/71 72/72/72
f 69/69/69 70/70/70 72/72/72
f 75/75/75 73/73/73 74/74/74
f 73/73/73 75/75/75 76/76/76
f 78/78/78 79/79/79 80/80/80
f 77/77/77 78/78/78 80/80/80
f 81/81/81 83/83/83 84/84/84
f 81/81/81 82/82/82 83/83/83
f 85/85/85 86/86/86 87/87/87
f 88/88/88 85/85/85 87/87/87
f 89/89/89 91/91/91 92/92/92
f 89/89/89 90/90/90 91/91/91
f 93/93/93 94/94/94 95/95/95
f 96/96/96 97/97/97 98/98/98
f 99/99/99 100/100/100 101/101/101
f 102/102/102 104/104/104 105/105/105
f 102/102/102 103/103/103 104/104/104
f 106/106/106 125/125/125 126/126/126
f 106/106/106 107/107/107 109/109/109
f 106/106/106 110/110/110 124/124/124
f 107/107/107 108/108/108 109/109/109
f 122/122/122 123/123/123 124/124/124
f 106/106/106 109/109/109 110/110/110
f 106/106/106 124/124/124 125/125/125
f 121/121/121 122/122/122 124/124/124
f 110/110/110 111/111/111 121/121/121
f 110/110/110 121/121/121 124/124/124
f 111/111/111 112/112/112 113/113/113
f 111/111/111 113/113/113 121/121/121
f 113/113/113 114/114/114 120/120/120
f 114/114/114 115/115/115 118/118/118
f 115/115/115 116/116/116 117/117/117
f 115/115/115 117/117/117 118/118/118
f 113/113/113 120/120/120 121/121/121
f 114/114/114 118/118/118 119/119/119
f 114/114/114 119/119/119 120/120/120
