v -5.305777 8.249287 2.316812
v 0.1362231 8.250287 5.787812
v 4.409223 8.250287 -0.9111878
v -1.032777 8.249287 -4.382188
v 2.708098 5.421162 -4.245438
v 4.068535 5.421099 -3.377688
v 5.088348 5.420912 -4.976438
v 3.727973 5.421037 -5.844188
v 1.347661 5.421224 -5.113188
v 2.708098 5.421162 -4.245438
v 3.727973 5.421037 -5.844188
v 2.367598 5.421162 -6.711938
v 3.727973 5.421037 -5.844188
v 5.088348 5.420912 -4.976438
v 6.10816 5.420724 -6.575188
v 4.747848 5.420912 -7.442938
v 2.367598 5.421162 -6.711938
v 3.727973 5.421037 -5.844188
v 4.747848 5.420912 -7.442938
v 3.387536 5.421099 -8.310688
v 4.068535 5.421099 -3.377688
v 4.409223 5.421287 -0.9111878
v 5.088348 5.420912 -4.976438
v 4.409223 5.421287 -0.9111878
v 8.488223 5.420287 -7.306188
v 5.088348 5.420912 -4.976438
v 2.708098 5.421162 -4.245438
v 4.409223 5.421287 -0.9111878
v 4.068535 5.421099 -3.377688
v -1.032777 5.421287 -4.382188
v 2.708098 5.421162 -4.245438
v 1.347661 5.421224 -5.113188
v -1.032777 5.421287 -4.382188
v 4.409223 5.421287 -0.9111878
v 2.708098 5.421162 -4.245438
v -1.032777 5.421287 -4.382188
v 1.347661 5.421224 -5.113188
v 2.367598 5.421162 -6.711938
v 4.747848 5.420912 -7.442938
v 6.10816 5.420724 -6.575188
v 8.488223 5.420287 -7.306188
v 5.088348 5.420912 -4.976438
v 8.488223 5.420287 -7.306188
v 6.10816 5.420724 -6.575188
v 3.047223 5.421287 -10.77719
v 4.747848 5.420912 -7.442938
v 8.488223 5.420287 -7.306188
v 2.367598 5.421162 -6.711938
v 3.387536 5.421099 -8.310688
v 3.047223 5.421287 -10.77719
v 3.047223 5.421287 -10.77719
v 3.387536 5.421099 -8.310688
v 4.747848 5.420912 -7.442938
v -1.032777 5.421287 -4.382188
v 2.367598 5.421162 -6.711938
v 3.047223 5.421287 -10.77719
v -4.913152 5.421162 7.701812
v -3.55284 5.421099 8.569562
v -2.776652 5.420912 7.353062
v -4.137027 5.421037 6.485312
v -6.273464 5.421224 6.834062
v -4.913152 5.421162 7.701812
v -4.137027 5.421037 6.485312
v -5.497402 5.421162 5.617562
v -4.137027 5.421037 6.485312
v -2.776652 5.420912 7.353062
v -2.000464 5.420724 6.136562
v -3.360902 5.420912 5.268812
v -5.497402 5.421162 5.617562
v -4.137027 5.421037 6.485312
v -3.360902 5.420912 5.268812
v -4.721339 5.421099 4.401062
v -3.55284 5.421099 8.569562
v -2.968777 5.421287 10.65381
v -2.776652 5.420912 7.353062
v -2.968777 5.421287 10.65381
v 0.1362231 5.420287 5.787812
v -2.776652 5.420912 7.353062
v -4.913152 5.421162 7.701812
v -2.968777 5.421287 10.65381
v -3.55284 5.421099 8.569562
v -8.409777 5.421287 7.182812
v -4.913152 5.421162 7.701812
v -6.273464 5.421224 6.834062
v -8.409777 5.421287 7.182812
v -2.968777 5.421287 10.65381
v -4.913152 5.421162 7.701812
v -8.409777 5.421287 7.182812
v -6.273464 5.421224 6.834062
v -5.497402 5.421162 5.617562
v -3.360902 5.420912 5.268812
v -2.000464 5.420724 6.136562
v 0.1362231 5.420287 5.787812
v -2.776652 5.420912 7.353062
v 0.1362231 5.420287 5.787812
v -2.000464 5.420724 6.136562
v -5.305777 5.421287 2.316812
v -3.360902 5.420912 5.268812
v 0.1362231 5.420287 5.787812
v -5.497402 5.421162 5.617562
v -4.721339 5.421099 4.401062
v -5.305777 5.421287 2.316812
v -5.305777 5.421287 2.316812
v -4.721339 5.421099 4.401062
v -3.360902 5.420912 5.268812
v -8.409777 5.421287 7.182812
v -5.497402 5.421162 5.617562
v -5.305777 5.421287 2.316812
v -5.305777 5.421287 2.316812
v 0.1362231 5.420287 5.787812
v 0.1362231 8.250287 5.787812
v -5.305777 8.249287 2.316812
v 2.272723 -6.619069 2.438312
v 4.409223 5.421287 -0.9111878
v 4.409223 8.250287 -0.9111878
v 2.272723 -6.619069 2.438312
v 4.409223 -6.619069 -0.9111878
v 4.409223 5.421287 -0.9111878
v 0.1362231 8.250287 5.787812
v 0.1362231 5.420287 5.787812
v 2.272723 -6.619069 2.438312
v 0.1362231 5.420287 5.787812
v 0.1362231 -6.619069 5.787812
v 2.272723 -6.619069 2.438312
v 0.1362231 8.250287 5.787812
v 2.272723 -6.619069 2.438312
v 4.409223 8.250287 -0.9111878
v 6.448723 -6.619069 -4.108688
v 8.488223 -6.619069 -7.306188
v 8.488223 5.420287 -7.306188
v 4.409223 5.421287 -0.9111878
v 4.409223 -6.619069 -0.9111878
v 6.448723 -6.619069 -4.108688
v 4.409223 5.421287 -0.9111878
v 6.448723 -6.619069 -4.108688
v 8.488223 5.420287 -7.306188
v -2.968777 -6.619069 10.65381
v 0.1362231 -6.619069 5.787812
v 0.1362231 5.420287 5.787812
v -2.968777 5.421287 10.65381
v -1.032777 8.249287 -4.382188
v 4.409223 8.250287 -0.9111878
v 4.409223 5.421287 -0.9111878
v -1.032777 5.421287 -4.382188
v -5.305777 8.249287 2.316812
v -3.169277 -6.619069 -1.032688
v -5.305777 5.421287 2.316812
v -5.305777 5.421287 2.316812
v -3.169277 -6.619069 -1.032688
v -5.305777 -6.619069 2.316812
v -3.169277 -6.619069 -1.032688
v -1.032777 8.249287 -4.382188
v -1.032777 5.421287 -4.382188
v -3.169277 -6.619069 -1.032688
v -1.032777 5.421287 -4.382188
v -1.032777 -6.619069 -4.382188
v -5.305777 8.249287 2.316812
v -1.032777 8.249287 -4.382188
v -3.169277 -6.619069 -1.032688
v -1.032777 5.421287 -4.382188
v 3.047223 5.421287 -10.77719
v 3.047223 -6.619069 -10.77719
v -1.032777 -6.619069 -4.382188
v -8.409777 5.421287 7.182812
v -5.305777 5.421287 2.316812
v -5.305777 -6.619069 2.316812
v -8.409777 -6.619069 7.182812
v 3.047223 5.421287 -10.77719
v 8.488223 5.420287 -7.306188
v 8.488223 -6.619069 -7.306188
v 3.047223 -6.619069 -10.77719
v -8.409777 -6.619069 7.182812
v -2.968777 -6.619069 10.65381
v -2.968777 5.421287 10.65381
v -8.409777 5.421287 7.182812
v -8.409777 -6.619069 7.182812
v -5.305777 -6.619069 2.316812
v -3.169277 -6.619069 -1.032688
v -1.032777 -6.619069 -4.382188
v 3.047223 -6.619069 -10.77719
v 8.488223 -6.619069 -7.306188
v 6.448723 -6.619069 -4.108688
v 4.409223 -6.619069 -0.9111878
v 2.272723 -6.619069 2.438312
v 0.1362231 -6.619069 5.787812
v -2.968777 -6.619069 10.65381
vt 0.126942 0.607176
vt 0.002188 0.458729
vt 0.260596 0.349845
vt 0.385345 0.498298
vt 0.515275 0.501468
vt 0.484201 0.464493
vt 0.545642 0.438601
vt 0.576717 0.475575
vt 0.546350 0.538443
vt 0.515275 0.501468
vt 0.576717 0.475575
vt 0.607792 0.512549
vt 0.576717 0.475575
vt 0.545642 0.438601
vt 0.607085 0.412709
vt 0.638160 0.449682
vt 0.607792 0.512549
vt 0.576717 0.475575
vt 0.638160 0.449682
vt 0.669235 0.486654
vt 0.484201 0.464493
vt 0.391685 0.453407
vt 0.545642 0.438601
vt 0.391685 0.453407
vt 0.637452 0.349845
vt 0.545642 0.438601
vt 0.515275 0.501468
vt 0.391685 0.453407
vt 0.484201 0.464493
vt 0.515981 0.601314
vt 0.515275 0.501468
vt 0.546350 0.538443
vt 0.515981 0.601314
vt 0.391685 0.453407
vt 0.515275 0.501468
vt 0.515981 0.601314
vt 0.546350 0.538443
vt 0.607792 0.512549
vt 0.638160 0.449682
vt 0.607085 0.412709
vt 0.637452 0.349845
vt 0.545642 0.438601
vt 0.637452 0.349845
vt 0.607085 0.412709
vt 0.761754 0.497728
vt 0.638160 0.449682
vt 0.637452 0.349845
vt 0.607792 0.512549
vt 0.669235 0.486654
vt 0.761754 0.497728
vt 0.761754 0.497728
vt 0.669235 0.486654
vt 0.638160 0.449682
vt 0.515981 0.601314
vt 0.607792 0.512549
vt 0.761754 0.497728
vt 0.110969 0.744426
vt 0.079926 0.707482
vt 0.126622 0.687790
vt 0.157665 0.724736
vt 0.142011 0.781371
vt 0.110969 0.744426
vt 0.157665 0.724736
vt 0.188708 0.761682
vt 0.157665 0.724736
vt 0.126622 0.687790
vt 0.173319 0.668098
vt 0.204362 0.705046
vt 0.188708 0.761682
vt 0.157665 0.724736
vt 0.204362 0.705046
vt 0.235404 0.741994
vt 0.079926 0.707482
vt 0.002188 0.690230
vt 0.126622 0.687790
vt 0.002188 0.690230
vt 0.188972 0.611455
vt 0.126622 0.687790
vt 0.110969 0.744426
vt 0.002188 0.690230
vt 0.079926 0.707482
vt 0.126356 0.838001
vt 0.110969 0.744426
vt 0.142011 0.781371
vt 0.126356 0.838001
vt 0.002188 0.690230
vt 0.110969 0.744426
vt 0.126356 0.838001
vt 0.142011 0.781371
vt 0.188708 0.761682
vt 0.204362 0.705046
vt 0.173319 0.668098
vt 0.188972 0.611455
vt 0.126622 0.687790
vt 0.188972 0.611455
vt 0.173319 0.668098
vt 0.313144 0.759254
vt 0.204362 0.705046
vt 0.188972 0.611455
vt 0.188708 0.761682
vt 0.235404 0.741994
vt 0.313144 0.759254
vt 0.313144 0.759254
vt 0.235404 0.741994
vt 0.204362 0.705046
vt 0.126356 0.838001
vt 0.188708 0.761682
vt 0.313144 0.759254
vt 0.315815 0.998278
vt 0.192560 0.850933
vt 0.218106 0.842105
vt 0.341776 0.989976
vt 0.309667 0.161332
vt 0.547885 0.153348
vt 0.574890 0.164581
vt 0.309667 0.161332
vt 0.435034 0.106410
vt 0.547885 0.153348
vt 0.319528 0.276448
vt 0.293409 0.264821
vt 0.309667 0.161332
vt 0.293409 0.264821
vt 0.184304 0.216252
vt 0.309667 0.161332
vt 0.319528 0.276448
vt 0.309667 0.161332
vt 0.574890 0.164581
vt 0.554716 0.053980
vt 0.674401 0.001548
vt 0.790810 0.046923
vt 0.547885 0.153348
vt 0.435034 0.106410
vt 0.554716 0.053980
vt 0.547885 0.153348
vt 0.554716 0.053980
vt 0.790810 0.046923
vt 0.002188 0.296066
vt 0.184304 0.216252
vt 0.293409 0.264821
vt 0.108588 0.345826
vt 0.056683 0.842105
vt 0.187098 0.988278
vt 0.132125 0.999467
vt 0.002188 0.853807
vt 0.358862 0.842105
vt 0.358862 0.842105
vt 0.358862 0.842105
vt 0.358862 0.842105
vt 0.358862 0.842105
vt 0.358862 0.842105
vt 0.358862 0.842105
vt 0.358862 0.842105
vt 0.358862 0.842105
vt 0.358862 0.842105
vt 0.358862 0.842105
vt 0.358862 0.842105
vt 0.358862 0.842105
vt 0.358862 0.842105
vt 0.358862 0.842105
vt 0.358862 0.842105
vt 0.358862 0.842105
vt 0.358862 0.842105
vt 0.358862 0.842105
vt 0.358862 0.842105
vt 0.358862 0.842105
vt 0.358862 0.842105
vt 0.358862 0.842105
vt 0.544913 0.611455
vt 0.675560 0.757336
vt 0.448213 0.802550
vt 0.319475 0.658834
vt 0.802561 0.792562
vt 0.680525 0.647220
vt 0.785013 0.611455
vt 0.908870 0.758970
vt 0.347921 0.842105
vt 0.347921 0.842105
vt 0.347921 0.842105
vt 0.347921 0.842105
vt 0.347921 0.842105
vt 0.347921 0.842105
vt 0.347921 0.842105
vt 0.347921 0.842105
vt 0.347921 0.842105
vt 0.347921 0.842105
vt 0.347921 0.842105
vn -0.0001306165 1 -8.331458E-05
vn -0.0001306165 1 -8.331458E-05
vn -0.0001306165 1 -8.331458E-05
vn -0.0001306165 1 -8.331458E-05
vn 6.81016E-05 1 -3.474269E-05
vn 9.329355E-05 1 -3.822108E-05
vn 0.0001184855 1 -4.169946E-05
vn 9.329355E-05 1 -3.822108E-05
vn 5.037703E-05 1 -6.954543E-06
vn 7.556809E-05 1 -1.043216E-05
vn 0.0001007591 1 -1.390979E-05
vn 7.556809E-05 1 -1.043216E-05
vn 0.0001007591 1 -1.390979E-05
vn 0.0001259527 1 -1.738776E-05
vn 0.0001511463 1 -2.086573E-05
vn 0.0001259527 1 -1.738776E-05
vn 8.303342E-05 1 1.38789E-05
vn 0.0001082261 1 1.040169E-05
vn 0.0001334188 1 6.924481E-06
vn 0.0001082261 1 1.040169E-05
vn 5.317023E-05 1 -8.336284E-05
vn 5.317023E-05 1 -8.336284E-05
vn 5.317023E-05 1 -8.336284E-05
vn 0.0001362125 1 -6.949012E-05
vn 0.0001362125 1 -6.949012E-05
vn 0.0001362125 1 -6.949012E-05
vn 0.0001035526 1 -9.032195E-05
vn 0.0001035526 1 -9.032195E-05
vn 0.0001035526 1 -9.032195E-05
vn 3.265309E-05 1 2.083262E-05
vn 3.265309E-05 1 2.083262E-05
vn 3.265309E-05 1 2.083262E-05
vn 3.544619E-05 1 -5.557424E-05
vn 3.544619E-05 1 -5.557424E-05
vn 3.544619E-05 1 -5.557424E-05
vn 1.772278E-05 1 -2.778663E-05
vn 1.772278E-05 1 -2.778663E-05
vn 1.772278E-05 1 -2.778663E-05
vn 0.0001688745 1 -4.865693E-05
vn 0.0001688745 1 -4.865693E-05
vn 0.0001688745 1 -4.865693E-05
vn 0.0001838093 1 -3.064084E-08
vn 0.0001838093 1 -3.064084E-08
vn 0.0001838093 1 -3.064084E-08
vn 0.0001660806 1 2.776011E-05
vn 0.0001660806 1 2.776011E-05
vn 0.0001660806 1 2.776011E-05
vn 0.0001483526 1 5.554987E-05
vn 0.0001483526 1 5.554987E-05
vn 0.0001483526 1 5.554987E-05
vn 9.796568E-05 1 6.250195E-05
vn 9.796568E-05 1 6.250195E-05
vn 9.796568E-05 1 6.250195E-05
vn 6.530832E-05 1 4.16666E-05
vn 6.530832E-05 1 4.16666E-05
vn 6.530832E-05 1 4.16666E-05
vn 7.924227E-05 1 -5.219736E-05
vn 0.0001072129 1 -6.003714E-05
vn 0.0001351835 1 -6.787693E-05
vn 0.0001072129 1 -6.003714E-05
vn 5.595005E-05 1 -1.568373E-05
vn 8.392195E-05 1 -2.352472E-05
vn 0.0001118938 1 -3.136571E-05
vn 8.392195E-05 1 -2.352472E-05
vn 0.0001118938 1 -3.136571E-05
vn 0.0001398626 1 -3.920582E-05
vn 0.0001678314 1 -4.704593E-05
vn 0.0001398626 1 -3.920582E-05
vn 8.860315E-05 1 5.14721E-06
vn 0.0001165732 1 -2.694105E-06
vn 0.0001445433 1 -1.053542E-05
vn 0.0001165732 1 -2.694105E-06
vn 6.988123E-05 1 -0.000109543
vn 6.988123E-05 1 -0.000109543
vn 6.988123E-05 1 -0.000109543
vn 0.000158472 1 -0.0001043864
vn 0.000158472 1 -0.0001043864
vn 0.000158472 1 -0.0001043864
vn 0.0001258235 1 -0.0001252195
vn 0.0001258235 1 -0.0001252195
vn 0.0001258235 1 -0.0001252195
vn 3.265675E-05 1 2.08316E-05
vn 3.265675E-05 1 2.08316E-05
vn 3.265675E-05 1 2.08316E-05
vn 4.658857E-05 1 -7.303037E-05
vn 4.658857E-05 1 -7.303037E-05
vn 4.658857E-05 1 -7.303037E-05
vn 2.329483E-05 1 -3.651603E-05
vn 2.329483E-05 1 -3.651603E-05
vn 2.329483E-05 1 -3.651603E-05
vn 0.0001911184 1 -8.355474E-05
vn 0.0001911184 1 -8.355474E-05
vn 0.0001911184 1 -8.355474E-05
vn 0.0002004772 1 -2.62163E-05
vn 0.0002004772 1 -2.62163E-05
vn 0.0002004772 1 -2.62163E-05
vn 0.0001771906 1 1.029351E-05
vn 0.0001771906 1 1.029351E-05
vn 0.0001771906 1 1.029351E-05
vn 0.0001539029 1 4.680501E-05
vn 0.0001539029 1 4.680501E-05
vn 0.0001539029 1 4.680501E-05
vn 9.796384E-05 1 6.24907E-05
vn 9.796384E-05 1 6.24907E-05
vn 9.796384E-05 1 6.24907E-05
vn 6.531136E-05 1 4.166183E-05
vn 6.531136E-05 1 4.166183E-05
vn 6.531136E-05 1 4.166183E-05
vn -0.5377473 0 0.843106
vn -0.5377473 0 0.843106
vn -0.5377473 0 0.843106
vn -0.5377473 0 0.843106
vn 0.843091 0 0.537771
vn 0.843091 0 0.537771
vn 0.843091 0 0.537771
vn 0.843091 0 0.537771
vn 0.843091 0 0.537771
vn 0.843091 0 0.537771
vn 0.843091 0 0.537771
vn 0.843091 0 0.537771
vn 0.843091 0 0.537771
vn 0.843091 0 0.537771
vn 0.843091 0 0.537771
vn 0.843091 0 0.537771
vn 0.843091 1.849146E-11 0.537771
vn 0.843091 1.849146E-11 0.537771
vn 0.843091 1.849146E-11 0.537771
vn 0.8430964 0 0.5377624
vn 0.8430964 0 0.5377624
vn 0.8430964 0 0.5377624
vn 0.8430964 0 0.5377624
vn 0.8430964 0 0.5377624
vn 0.8430964 0 0.5377624
vn 0.8430964 0 0.5377624
vn 0.8430964 0 0.5377624
vn 0.8430964 0 0.5377624
vn 0.8429974 0 0.5379176
vn 0.8429974 0 0.5379176
vn 0.8429974 0 0.5379176
vn 0.8429974 0 0.5379176
vn 0.5377473 0 -0.843106
vn 0.5377473 0 -0.843106
vn 0.5377473 0 -0.843106
vn 0.5377473 0 -0.843106
vn -0.843091 0 -0.537771
vn -0.843091 0 -0.537771
vn -0.843091 0 -0.537771
vn -0.843091 0 -0.537771
vn -0.843091 0 -0.537771
vn -0.843091 0 -0.537771
vn -0.843091 0 -0.537771
vn -0.843091 0 -0.537771
vn -0.843091 0 -0.537771
vn -0.843091 0 -0.537771
vn -0.843091 0 -0.537771
vn -0.843091 0 -0.537771
vn -0.843091 -1.519213E-11 -0.537771
vn -0.843091 -1.519213E-11 -0.537771
vn -0.843091 -1.519213E-11 -0.537771
vn -0.8430367 0 -0.5378561
vn -0.8430367 0 -0.5378561
vn -0.8430367 0 -0.5378561
vn -0.8430367 0 -0.5378561
vn -0.843076 0 -0.5377945
vn -0.843076 0 -0.5377945
vn -0.843076 0 -0.5377945
vn -0.843076 0 -0.5377945
vn 0.5378176 0 -0.8430612
vn 0.5378176 0 -0.8430612
vn 0.5378176 0 -0.8430612
vn 0.5378176 0 -0.8430612
vn -0.5378176 0 0.8430612
vn -0.5378176 0 0.8430612
vn -0.5378176 0 0.8430612
vn -0.5378176 0 0.8430612
vn 0 -1 0
vn 0 -1 0
vn 0 -1 0
vn 0 -1 0
vn 0 -1 0
vn 0 -1 0
vn 0 -1 0
vn 0 -1 0
vn 0 -1 0
vn 0 -1 0
vn 0 -1 0

g CDNNDG02_0011970
f 2/2/2 3/3/3 4/4/4
f 1/1/1 2/2/2 4/4/4
f 5/5/5 6/6/6 8/8/8
f 7/7/7 8/8/8 6/6/6
f 9/9/9 10/10/10 12/12/12
f 11/11/11 12/12/12 10/10/10
f 13/13/13 14/14/14 16/16/16
f 15/15/15 16/16/16 14/14/14
f 17/17/17 18/18/18 20/20/20
f 19/19/19 20/20/20 18/18/18
f 21/21/21 22/22/22 23/23/23
f 24/24/24 25/25/25 26/26/26
f 27/27/27 28/28/28 29/29/29
f 30/30/30 31/31/31 32/32/32
f 33/33/33 34/34/34 35/35/35
f 36/36/36 37/37/37 38/38/38
f 39/39/39 40/40/40 41/41/41
f 42/42/42 43/43/43 44/44/44
f 45/45/45 46/46/46 47/47/47
f 48/48/48 49/49/49 50/50/50
f 51/51/51 52/52/52 53/53/53
f 54/54/54 55/55/55 56/56/56
f 57/57/57 58/58/58 60/60/60
f 59/59/59 60/60/60 58/58/58
f 61/61/61 62/62/62 64/64/64
f 63/63/63 64/64/64 62/62/62
f 65/65/65 66/66/66 68/68/68
f 67/67/67 68/68/68 66/66/66
f 69/69/69 70/70/70 72/72/72
f 71/71/71 72/72/72 70/70/70
f 73/73/73 74/74/74 75/75/75
f 76/76/76 77/77/77 78/78/78
f 79/79/79 80/80/80 81/81/81
f 82/82/82 83/83/83 84/84/84
f 85/85/85 86/86/86 87/87/87
f 88/88/88 89/89/89 90/90/90
f 91/91/91 92/92/92 93/93/93
f 94/94/94 95/95/95 96/96/96
f 97/97/97 98/98/98 99/99/99
f 100/100/100 101/101/101 102/102/102
f 103/103/103 104/104/104 105/105/105
f 106/106/106 107/107/107 108/108/108
f 109/109/109 111/111/111 112/112/112
f 109/109/109 110/110/110 111/111/111
f 113/113/113 114/114/114 115/115/115
f 116/116/116 117/117/117 118/118/118
f 119/119/119 120/120/120 121/121/121
f 122/122/122 123/123/123 124/124/124
f 125/125/125 126/126/126 127/127/127
f 128/128/128 129/129/129 130/130/130
f 131/131/131 132/132/132 133/133/133
f 134/134/134 135/135/135 136/136/136
f 138/138/138 139/139/139 137/137/137
f 137/137/137 139/139/139 140/140/140
f 141/141/141 143/143/143 144/144/144
f 141/141/141 142/142/142 143/143/143
f 145/145/145 146/146/146 147/147/147
f 148/148/148 149/149/149 150/150/150
f 151/151/151 152/152/152 153/153/153
f 154/154/154 155/155/155 156/156/156
f 157/157/157 158/158/158 159/159/159
f 163/163/163 160/160/160 162/162/162
f 162/162/162 160/160/160 161/161/161
f 164/164/164 166/166/166 167/167/167
f 164/164/164 165/165/165 166/166/166
f 169/169/169 170/170/170 171/171/171
f 168/168/168 169/169/169 171/171/171
f 175/175/175 172/172/172 174/174/174
f 174/174/174 172/172/172 173/173/173
f 186/186/186 176/176/176 177/177/177
f 185/185/185 186/186/186 177/177/177
f 179/179/179 183/183/183 184/184/184
f 178/178/178 185/185/185 177/177/177
f 180/180/180 182/182/182 179/179/179
f 181/181/181 182/182/182 180/180/180
f 178/178/178 184/184/184 185/185/185
f 182/182/182 183/183/183 179/179/179
f 178/178/178 179/179/179 184/184/184
