v 2.141333 5.834658 -4.579772
v 5.155333 5.834658 -2.030771
v 5.419333 5.834658 -2.459771
v 2.141333 5.834658 -4.579772
v 5.419333 5.834658 -2.459771
v 6.150333 5.834658 -3.643771
v 2.826333 5.834658 -5.692771
v 1.521882 5.834658 0.7375435
v 1.74586 5.834658 0.8763919
v 5.155333 5.834658 -2.030771
v 1.521882 5.834658 0.7375435
v 5.155333 5.834658 -2.030771
v 2.141333 5.834658 -4.579772
v -2.833667 5.834658 4.781229
v 1.088395 5.834658 1.436995
v 2.141333 5.834658 -4.579772
v 1.088395 5.834658 1.436995
v 1.521882 5.834658 0.7375435
v 2.141333 5.834658 -4.579772
v -5.796667 5.834658 2.802229
v -5.157667 5.834658 3.197229
v -0.3126669 5.834658 -6.092772
v -2.833667 5.834658 4.781229
v 2.141333 5.834658 -4.579772
v -0.3126669 5.834658 -6.092772
v -5.157667 5.834658 3.197229
v -5.252667 5.834658 3.351228
v -5.028667 5.834658 4.373229
v -5.157667 5.834658 3.197229
v -2.833667 5.834658 4.781229
v 0.9909077 5.834658 1.597626
v 1.073965 5.834658 1.460278
v -2.833667 5.834658 4.781229
v -0.08766691 5.834658 6.474228
v 0.9909077 5.834658 1.597626
v -2.833667 5.834658 4.781229
v 1.073965 5.834658 1.460278
v 1.088395 5.834658 1.436995
v -0.08766691 5.834658 6.474228
v 5.155333 5.834658 -2.030771
v 1.576234 5.834658 1.960481
v -0.08766691 5.834658 6.474228
v 1.576234 5.834658 1.960481
v 0.9909077 5.834658 1.597626
v 1.659291 5.834658 1.823133
v 5.155333 5.834658 -2.030771
v 2.107208 5.834658 1.100398
v 1.576234 5.834658 1.960481
v 5.155333 5.834658 -2.030771
v 1.659291 5.834658 1.823133
v 1.74586 5.834658 0.8763919
v 2.107208 5.834658 1.100398
v 5.155333 5.834658 -2.030771
v -5.028667 5.834658 4.373229
v -3.780667 5.834658 5.142229
v -2.833667 5.834658 4.781229
v -5.157667 5.834658 3.197229
v -5.028667 5.834658 4.373229
v -2.833667 5.834658 4.781229
v 1.521882 5.834658 0.7375435
v 1.631333 6.157658 1.212229
v 1.74586 5.834658 0.8763919
v 1.631333 6.157658 1.212229
v 2.107208 5.834658 1.100398
v 1.74586 5.834658 0.8763919
v 0.9909077 5.834658 1.597626
v 1.426333 6.157658 1.551229
v 1.631333 6.157658 1.212229
v 0.9909077 5.834658 1.597626
v 1.631333 6.157658 1.212229
v 1.073965 5.834658 1.460278
v 1.073965 5.834658 1.460278
v 1.631333 6.157658 1.212229
v 1.088395 5.834658 1.436995
v 1.088395 5.834658 1.436995
v 1.631333 6.157658 1.212229
v 1.521882 5.834658 0.7375435
v 1.631333 6.157658 1.212229
v 1.659291 5.834658 1.823133
v 2.107208 5.834658 1.100398
v 1.426333 6.157658 1.551229
v 1.659291 5.834658 1.823133
v 1.631333 6.157658 1.212229
v 1.426333 6.157658 1.551229
v 1.576234 5.834658 1.960481
v 1.659291 5.834658 1.823133
v 0.9909077 5.834658 1.597626
v 1.576234 5.834658 1.960481
v 1.426333 6.157658 1.551229
v -5.252667 -5.835817 3.351228
v -5.028667 -5.835817 4.373229
v -5.028667 5.834658 4.373229
v -5.252667 5.834658 3.351228
v -5.028667 -5.835817 4.373229
v -3.780667 -5.835817 5.142229
v -3.780667 5.834658 5.142229
v -5.028667 5.834658 4.373229
v -3.780667 -5.835817 5.142229
v -2.833667 -5.835817 4.781229
v -2.833667 5.834658 4.781229
v -3.780667 5.834658 5.142229
v -1.460667 -5.835817 5.627728
v -0.08766691 -5.835817 6.474228
v -0.08766691 5.834658 6.474228
v -2.833667 5.834658 4.781229
v -2.833667 -5.835817 4.781229
v -1.460667 -5.835817 5.627728
v -2.833667 5.834658 4.781229
v -1.460667 -5.835817 5.627728
v -0.08766691 5.834658 6.474228
v -0.08766691 -5.835817 6.474228
v 5.155333 -5.835817 -2.030771
v 5.155333 5.834658 -2.030771
v -0.08766691 5.834658 6.474228
v 5.155333 -5.835817 -2.030771
v 5.419333 -5.835817 -2.459771
v 5.419333 5.834658 -2.459771
v 5.155333 5.834658 -2.030771
v 5.419333 -5.835817 -2.459771
v 6.150333 -5.835817 -3.643771
v 6.150333 5.834658 -3.643771
v 5.419333 5.834658 -2.459771
v 2.826333 5.834658 -5.692771
v 6.150333 5.834658 -3.643771
v 6.150333 -5.835817 -3.643771
v 2.826333 -5.835817 -5.692771
v 2.141333 5.834658 -4.579772
v 2.826333 5.834658 -5.692771
v 2.826333 -5.835817 -5.692771
v 2.141333 -5.835817 -4.579772
v -0.3126669 5.834658 -6.092772
v 2.141333 5.834658 -4.579772
v 2.141333 -5.835817 -4.579772
v -0.3126669 -5.835817 -6.092772
v -5.796667 5.834658 2.802229
v -0.3126669 5.834658 -6.092772
v -0.3126669 -5.835817 -6.092772
v -5.796667 -5.835817 2.802229
v -5.796667 -5.835817 2.802229
v -5.157667 -5.835817 3.197229
v -5.157667 5.834658 3.197229
v -5.796667 5.834658 2.802229
v -5.252667 5.834658 3.351228
v -5.157667 5.834658 3.197229
v -5.157667 -5.835817 3.197229
v -5.252667 -5.835817 3.351228
v -5.252667 -5.835817 3.351228
v -5.157667 -5.835817 3.197229
v -5.796667 -5.835817 2.802229
v -0.3126669 -5.835817 -6.092772
v 2.141333 -5.835817 -4.579772
v 2.826333 -5.835817 -5.692771
v 6.150333 -5.835817 -3.643771
v 5.419333 -5.835817 -2.459771
v 5.155333 -5.835817 -2.030771
v -0.08766691 -5.835817 6.474228
v -1.460667 -5.835817 5.627728
v -2.833667 -5.835817 4.781229
v -3.780667 -5.835817 5.142229
v -5.028667 -5.835817 4.373229
vt 0.581931 0.135142
vt 0.453771 0.033175
vt 0.476508 0.024879
vt 0.581931 0.135142
vt 0.476508 0.024879
vt 0.539265 0.001905
vt 0.640921 0.113618
vt 0.304132 0.150405
vt 0.297241 0.142877
vt 0.453771 0.033175
vt 0.304132 0.150405
vt 0.453771 0.033175
vt 0.581931 0.135142
vt 0.087004 0.290219
vt 0.267058 0.164031
vt 0.581931 0.135142
vt 0.267058 0.164031
vt 0.304132 0.150405
vt 0.581931 0.135142
vt 0.185565 0.389937
vt 0.165965 0.368463
vt 0.656993 0.217613
vt 0.087004 0.290219
vt 0.581931 0.135142
vt 0.656993 0.217613
vt 0.165965 0.368463
vt 0.157804 0.371448
vt 0.104931 0.363059
vt 0.165965 0.368463
vt 0.087004 0.290219
vt 0.258546 0.167092
vt 0.265823 0.164484
vt 0.087004 0.290219
vt 0.003003 0.197938
vt 0.258546 0.167092
vt 0.087004 0.290219
vt 0.265823 0.164484
vt 0.267058 0.164031
vt 0.003003 0.197938
vt 0.453771 0.033175
vt 0.240538 0.147419
vt 0.003003 0.197938
vt 0.240538 0.147419
vt 0.258546 0.167092
vt 0.247815 0.144812
vt 0.453771 0.033175
vt 0.286124 0.130732
vt 0.240538 0.147419
vt 0.453771 0.033175
vt 0.247815 0.144812
vt 0.297241 0.142877
vt 0.286124 0.130732
vt 0.453771 0.033175
vt 0.104931 0.363059
vt 0.066778 0.321121
vt 0.087004 0.290219
vt 0.165965 0.368463
vt 0.104931 0.363059
vt 0.087004 0.290219
vt 0.753034 0.899877
vt 0.729730 0.896856
vt 0.746881 0.893000
vt 0.729730 0.896856
vt 0.736954 0.881905
vt 0.746881 0.893000
vt 0.627628 0.903861
vt 0.628348 0.888290
vt 0.645146 0.881905
vt 0.627628 0.903861
vt 0.645146 0.881905
vt 0.634431 0.901275
vt 0.634431 0.901275
vt 0.645146 0.881905
vt 0.635584 0.900826
vt 0.635584 0.900826
vt 0.645146 0.881905
vt 0.670228 0.887330
vt 0.713992 0.897086
vt 0.685532 0.894965
vt 0.721611 0.881905
vt 0.697070 0.903058
vt 0.685532 0.894965
vt 0.713992 0.897086
vt 0.697070 0.903058
vt 0.678679 0.897384
vt 0.685532 0.894965
vt 0.776288 0.899763
vt 0.759760 0.881905
vt 0.776946 0.884428
vt 0.548842 0.963619
vt 0.496920 0.956443
vt 0.438438 0.881905
vt 0.491126 0.889187
vt 0.100963 0.998181
vt 0.061875 0.957565
vt 0.003003 0.881905
vt 0.042668 0.923121
vt 0.798799 0.881905
vt 0.798799 0.881905
vt 0.798799 0.881905
vt 0.798799 0.881905
vt 0.701540 0.779839
vt 0.658076 0.734941
vt 0.597598 0.657143
vt 0.685806 0.748261
vt 0.745003 0.824735
vt 0.701540 0.779839
vt 0.685806 0.748261
vt 0.701540 0.779839
vt 0.597598 0.657143
vt 0.062038 0.849649
vt 0.506107 0.687851
vt 0.453540 0.713475
vt 0.003003 0.877629
vt 0.506107 0.687851
vt 0.528506 0.679704
vt 0.476266 0.705209
vt 0.453540 0.713475
vt 0.528506 0.679704
vt 0.590330 0.657143
vt 0.538990 0.682319
vt 0.476266 0.705209
vt 0.853873 0.792912
vt 0.753754 0.682189
vt 0.804344 0.657143
vt 0.903024 0.766276
vt 0.237237 0.904589
vt 0.294496 0.881905
vt 0.345465 0.960568
vt 0.289037 0.982922
vt 0.181719 0.990195
vt 0.108108 0.908749
vt 0.157879 0.881905
vt 0.230432 0.962182
vt 0.003003 0.577885
vt 0.470247 0.394286
vt 0.521980 0.472299
vt 0.061518 0.653229
vt 0.431241 0.977374
vt 0.411322 0.956649
vt 0.354354 0.881905
vt 0.374567 0.902936
vt 0.555556 0.885032
vt 0.563338 0.881905
vt 0.619924 0.956300
vt 0.612255 0.959382
vt 0.783784 0.881905
vt 0.783784 0.881905
vt 0.783784 0.881905
vt 0.783784 0.881905
vt 0.783784 0.881905
vt 0.783784 0.881905
vt 0.783784 0.881905
vt 0.783784 0.881905
vt 0.783784 0.881905
vt 0.783784 0.881905
vt 0.783784 0.881905
vt 0.783784 0.881905
vt 0.783784 0.881905
vt 0.783784 0.881905
vn 0 1 0
vn 0 1 0
vn 0 1 0
vn 0 1 0
vn 0 1 0
vn 0 1 0
vn 0 1 0
vn 0 1 0
vn 0 1 0
vn 0 1 0
vn 0 1 0
vn 0 1 0
vn 0 1 0
vn 0 1 0
vn 0 1 0
vn 0 1 0
vn 0 1 0
vn 0 1 0
vn 0 1 0
vn 0 1 0
vn 0 1 0
vn 0 1 0
vn 0 1 0
vn 0 1 0
vn 0 1 0
vn 0 1 0
vn 0 1 0
vn 0 1 0
vn 0 1 0
vn 0 1 0
vn 0 1 0
vn 0 1 0
vn 0 1 0
vn 0 1 0
vn 0 1 0
vn 0 1 0
vn 0 1 0
vn 0 1 0
vn 0 1 0
vn 0 1 0
vn 0 1 0
vn 0 1 0
vn 0 1 0
vn 0 1 0
vn 0 1 0
vn 0 1 0
vn 0 1 0
vn 0 1 0
vn 0 1 0
vn 0 1 0
vn 0 1 0
vn 0 1 0
vn 0 1 0
vn 0 1 0
vn 0 1 0
vn 0 1 0
vn 0 1 0
vn 0 1 0
vn 0 1 0
vn 0.3596672 0.7307705 -0.5801844
vn 0.3596672 0.7307705 -0.5801844
vn 0.3596672 0.7307705 -0.5801844
vn 0.3596672 0.7307705 -0.5801844
vn 0.3596672 0.7307705 -0.5801844
vn 0.3596672 0.7307705 -0.5801844
vn -0.5816005 0.7335149 -0.3517054
vn -0.5816005 0.7335149 -0.3517054
vn -0.5816005 0.7335149 -0.3517054
vn -0.5816005 0.7335149 -0.3517053
vn -0.5816005 0.7335149 -0.3517053
vn -0.5816005 0.7335149 -0.3517053
vn -0.582644 0.7281045 -0.3610953
vn -0.582644 0.7281045 -0.3610953
vn -0.582644 0.7281045 -0.3610953
vn -0.582644 0.7281044 -0.3610955
vn -0.582644 0.7281044 -0.3610955
vn -0.582644 0.7281044 -0.3610955
vn 0.5804077 0.7305723 0.3597095
vn 0.5804077 0.7305723 0.3597095
vn 0.5804077 0.7305723 0.3597095
vn 0.5893275 0.7250434 0.356378
vn 0.5893275 0.7250434 0.356378
vn 0.5893275 0.7250434 0.356378
vn 0.5893275 0.7250434 0.356378
vn 0.5893275 0.7250434 0.356378
vn 0.5893275 0.7250434 0.356378
vn -0.4049593 0.6397483 0.6532457
vn -0.4049593 0.6397483 0.6532457
vn -0.4049593 0.6397483 0.6532457
vn -0.9768127 0 0.2140959
vn -0.9768127 0 0.2140959
vn -0.9768127 0 0.2140959
vn -0.9768127 0 0.2140959
vn -0.5245922 0 0.8513537
vn -0.5245922 0 0.8513537
vn -0.5245922 0 0.8513537
vn -0.5245922 0 0.8513537
vn 0.3562005 0 0.9344096
vn 0.3562005 0 0.9344096
vn 0.3562005 0 0.9344096
vn 0.3562005 0 0.9344096
vn -0.5248064 0 0.8512216
vn -0.5248064 0 0.8512216
vn -0.5248064 0 0.8512216
vn -0.5248064 0 0.8512216
vn -0.5248064 0 0.8512216
vn -0.5248064 0 0.8512216
vn -0.5248064 1.308769E-12 0.8512216
vn -0.5248064 1.308769E-12 0.8512216
vn -0.5248064 1.308769E-12 0.8512216
vn 0.8512491 0 0.5247618
vn 0.8512491 0 0.5247618
vn 0.8512491 0 0.5247618
vn 0.8512491 0 0.5247618
vn 0.8516583 0 0.5240974
vn 0.8516583 0 0.5240974
vn 0.8516583 0 0.5240974
vn 0.8516583 0 0.5240974
vn 0.8508925 0 0.5253398
vn 0.8508925 0 0.5253398
vn 0.8508925 0 0.5253398
vn 0.8508925 0 0.5253398
vn 0.5247403 0 -0.8512624
vn 0.5247403 0 -0.8512624
vn 0.5247403 0 -0.8512624
vn 0.5247403 0 -0.8512624
vn -0.8516321 0 -0.5241401
vn -0.8516321 0 -0.5241401
vn -0.8516321 0 -0.5241401
vn -0.8516321 0 -0.5241401
vn 0.5248133 0 -0.8512173
vn 0.5248133 0 -0.8512173
vn 0.5248133 0 -0.8512173
vn 0.5248133 0 -0.8512173
vn -0.8512243 0 -0.524802
vn -0.8512243 0 -0.524802
vn -0.8512243 0 -0.524802
vn -0.8512243 0 -0.524802
vn -0.5258046 0 0.8506054
vn -0.5258046 0 0.8506054
vn -0.5258046 0 0.8506054
vn -0.5258046 0 0.8506054
vn -0.8510886 0 -0.5250221
vn -0.8510886 0 -0.5250221
vn -0.8510886 0 -0.5250221
vn -0.8510886 0 -0.5250221
vn 0 -1 0
vn 0 -1 0
vn 0 -1 0
vn 0 -1 0
vn 0 -1 0
vn 0 -1 0
vn 0 -1 0
vn 0 -1 0
vn 0 -1 0
vn 0 -1 0
vn 0 -1 0
vn 0 -1 0
vn 0 -1 0
vn 0 -1 0

g CDNNDG02_0007880
f 1/1/1 2/2/2 3/3/3
f 7/7/7 4/4/4 6/6/6
f 6/6/6 4/4/4 5/5/5
f 8/8/8 9/9/9 10/10/10
f 11/11/11 12/12/12 13/13/13
f 14/14/14 15/15/15 16/16/16
f 17/17/17 18/18/18 19/19/19
f 20/20/20 21/21/21 22/22/22
f 26/26/26 23/23/23 24/24/24
f 24/24/24 25/25/25 26/26/26
f 27/27/27 28/28/28 29/29/29
f 30/30/30 31/31/31 32/32/32
f 33/33/33 34/34/34 35/35/35
f 36/36/36 37/37/37 38/38/38
f 39/39/39 40/40/40 41/41/41
f 42/42/42 43/43/43 44/44/44
f 45/45/45 46/46/46 47/47/47
f 48/48/48 49/49/49 50/50/50
f 51/51/51 52/52/52 53/53/53
f 54/54/54 55/55/55 56/56/56
f 57/57/57 58/58/58 59/59/59
f 60/60/60 61/61/61 62/62/62
f 63/63/63 64/64/64 65/65/65
f 66/66/66 67/67/67 68/68/68
f 69/69/69 70/70/70 71/71/71
f 72/72/72 73/73/73 74/74/74
f 75/75/75 76/76/76 77/77/77
f 78/78/78 79/79/79 80/80/80
f 81/81/81 82/82/82 83/83/83
f 84/84/84 85/85/85 86/86/86
f 87/87/87 88/88/88 89/89/89
f 90/90/90 92/92/92 93/93/93
f 90/90/90 91/91/91 92/92/92
f 94/94/94 96/96/96 97/97/97
f 96/96/96 94/94/94 95/95/95
f 98/98/98 99/99/99 100/100/100
f 101/101/101 98/98/98 100/100/100
f 102/102/102 103/103/103 104/104/104
f 105/105/105 106/106/106 107/107/107
f 108/108/108 109/109/109 110/110/110
f 114/114/114 111/111/111 113/113/113
f 112/112/112 113/113/113 111/111/111
f 116/116/116 117/117/117 115/115/115
f 115/115/115 117/117/117 118/118/118
f 120/120/120 121/121/121 119/119/119
f 119/119/119 121/121/121 122/122/122
f 125/125/125 123/123/123 124/124/124
f 123/123/123 125/125/125 126/126/126
f 128/128/128 129/129/129 130/130/130
f 127/127/127 128/128/128 130/130/130
f 131/131/131 133/133/133 134/134/134
f 131/131/131 132/132/132 133/133/133
f 138/138/138 135/135/135 137/137/137
f 137/137/137 135/135/135 136/136/136
f 139/139/139 141/141/141 142/142/142
f 141/141/141 139/139/139 140/140/140
f 143/143/143 144/144/144 145/145/145
f 146/146/146 143/143/143 145/145/145
f 158/158/158 159/159/159 160/160/160
f 160/160/160 148/148/148 158/158/158
f 147/147/147 148/148/148 160/160/160
f 155/155/155 157/157/157 158/158/158
f 148/148/148 149/149/149 150/150/150
f 148/148/148 150/150/150 151/151/151
f 155/155/155 156/156/156 157/157/157
f 148/148/148 151/151/151 158/158/158
f 151/151/151 152/152/152 153/153/153
f 151/151/151 155/155/155 158/158/158
f 151/151/151 153/153/153 154/154/154
f 151/151/151 154/154/154 155/155/155
