v -6.962193 5.741075 8.552981
v -3.155192 5.741075 10.99298
v -2.322192 5.741075 -2.051019
v -8.492192 5.741075 7.571981
v -8.448193 5.741075 7.599981
v -2.322192 5.741075 -2.051019
v -8.448193 5.741075 7.599981
v -6.962193 5.741075 8.552981
v -2.322192 5.741075 -2.051019
v -2.322192 5.741075 -2.051019
v -1.885193 5.740416 -2.228019
v -2.125903 5.741075 -2.384979
v -2.322192 5.741075 -2.051019
v 5.845808 5.726075 -3.047019
v -1.885193 5.740416 -2.228019
v -1.588192 5.740359 -2.684019
v 5.845808 5.726075 -3.047019
v 3.470808 5.741075 -11.90702
v -1.885193 5.740416 -2.228019
v 5.845808 5.726075 -3.047019
v -1.588192 5.740359 -2.684019
v -1.849853 5.741075 -2.85464
v -1.588192 5.740359 -2.684019
v 3.470808 5.741075 -11.90702
v -2.296192 5.741075 -2.496019
v -1.999192 5.741075 -2.952019
v 3.470808 5.741075 -11.90702
v -1.999192 5.741075 -2.952019
v -1.849853 5.741075 -2.85464
v 3.470808 5.741075 -11.90702
v -2.695193 5.741075 -2.290019
v -2.322192 5.741075 -2.051019
v -2.296192 5.741075 -2.496019
v -2.695193 5.741075 -2.290019
v -2.296192 5.741075 -2.496019
v 3.470808 5.741075 -11.90702
v -2.322192 5.741075 -2.051019
v -2.125903 5.741075 -2.384979
v -2.296192 5.741075 -2.496019
v 3.470808 5.741075 -11.90702
v 5.845808 5.726075 -3.047019
v 9.179808 5.721075 -8.247019
v -2.322192 5.741075 -2.051019
v 5.352808 5.727075 -2.278019
v 5.845808 5.726075 -3.047019
v -3.155192 5.741075 10.99298
v 5.352808 5.727075 -2.278019
v -2.322192 5.741075 -2.051019
v -2.296192 6.797075 -2.496019
v -1.885193 6.797075 -2.228019
v -1.588192 6.797075 -2.684019
v -1.999192 6.797075 -2.952019
v -6.962193 5.522075 8.552981
v -3.923193 4.877075 12.18998
v -3.155192 5.521075 10.99298
v -9.215193 4.877075 8.796981
v -3.923193 4.877075 12.18998
v -6.962193 5.522075 8.552981
v -9.215193 4.877075 8.796981
v -6.962193 5.522075 8.552981
v -8.448193 4.877075 7.599981
v -8.448193 5.741075 7.599981
v -6.962193 5.522075 8.552981
v -6.962193 5.741075 8.552981
v -8.448193 5.741075 7.599981
v -8.448193 4.877075 7.599981
v -6.962193 5.522075 8.552981
v -6.962193 5.522075 8.552981
v -3.155192 5.521075 10.99298
v -3.155192 5.741075 10.99298
v -6.962193 5.741075 8.552981
v -8.492192 5.741075 7.571981
v -8.448193 4.877075 7.599981
v -8.448193 5.741075 7.599981
v -8.492192 -5.708163 7.571981
v -8.448193 -5.708163 7.599981
v -8.448193 4.877075 7.599981
v -8.492192 5.741075 7.571981
v -3.155192 -5.708163 10.99298
v 5.352808 -5.708163 -2.278019
v 5.352808 5.727075 -2.278019
v -3.155192 5.521075 10.99298
v -3.155192 5.741075 10.99298
v -3.155192 5.521075 10.99298
v 5.352808 5.727075 -2.278019
v 5.599308 -5.708163 -2.662519
v 5.845808 -5.708163 -3.047019
v 5.845808 5.726075 -3.047019
v 5.352808 5.727075 -2.278019
v 5.352808 -5.708163 -2.278019
v 5.599308 -5.708163 -2.662519
v 5.352808 5.727075 -2.278019
v 5.599308 -5.708163 -2.662519
v 5.845808 5.726075 -3.047019
v 5.845808 -5.708163 -3.047019
v 9.179808 -5.708163 -8.247019
v 9.179808 5.721075 -8.247019
v 5.845808 5.726075 -3.047019
v -3.923193 -5.708163 12.18998
v -3.155192 -5.708163 10.99298
v -3.155192 5.521075 10.99298
v -3.923193 4.877075 12.18998
v 3.470808 5.741075 -11.90702
v 6.325307 -5.708163 -10.07702
v 3.470808 -5.708163 -11.90702
v 6.325307 -5.708163 -10.07702
v 9.179808 5.721075 -8.247019
v 9.179808 -5.708163 -8.247019
v 3.470808 5.741075 -11.90702
v 9.179808 5.721075 -8.247019
v 6.325307 -5.708163 -10.07702
v -2.695193 5.741075 -2.290019
v 3.470808 5.741075 -11.90702
v 3.470808 -5.708163 -11.90702
v -2.695193 -5.708163 -2.290019
v -2.695193 -5.708163 -2.290019
v -2.322192 -5.708163 -2.051019
v -2.322192 5.741075 -2.051019
v -2.695193 5.741075 -2.290019
v -8.492192 5.741075 7.571981
v -2.322192 5.741075 -2.051019
v -2.322192 -5.708163 -2.051019
v -8.492192 -5.708163 7.571981
v -2.125903 5.741075 -2.384979
v -1.885193 5.740416 -2.228019
v -1.885193 6.797075 -2.228019
v -2.296192 6.797075 -2.496019
v -2.296192 5.741075 -2.496019
v -2.125903 5.741075 -2.384979
v -2.296192 6.797075 -2.496019
v -2.125903 5.741075 -2.384979
v -1.885193 6.797075 -2.228019
v -1.885193 5.740416 -2.228019
v -1.588192 5.740359 -2.684019
v -1.588192 6.797075 -2.684019
v -1.885193 6.797075 -2.228019
v -1.999192 6.797075 -2.952019
v -1.849853 5.741075 -2.85464
v -1.999192 5.741075 -2.952019
v -1.849853 5.741075 -2.85464
v -1.588192 6.797075 -2.684019
v -1.588192 5.740359 -2.684019
v -1.999192 6.797075 -2.952019
v -1.588192 6.797075 -2.684019
v -1.849853 5.741075 -2.85464
v -2.296192 6.797075 -2.496019
v -1.999192 6.797075 -2.952019
v -1.999192 5.741075 -2.952019
v -2.296192 5.741075 -2.496019
v -9.215193 -5.708163 8.796981
v -3.923193 -5.708163 12.18998
v -3.923193 4.877075 12.18998
v -9.215193 4.877075 8.796981
v -9.215193 4.877075 8.796981
v -8.448193 4.877075 7.599981
v -8.448193 -5.708163 7.599981
v -9.215193 -5.708163 8.796981
v -9.215193 -5.708163 8.796981
v -8.448193 -5.708163 7.599981
v -8.492192 -5.708163 7.571981
v -2.322192 -5.708163 -2.051019
v -2.695193 -5.708163 -2.290019
v 3.470808 -5.708163 -11.90702
v 6.325307 -5.708163 -10.07702
v 9.179808 -5.708163 -8.247019
v 5.845808 -5.708163 -3.047019
v 5.599308 -5.708163 -2.662519
v 5.352808 -5.708163 -2.278019
v -3.155192 -5.708163 10.99298
v -3.923193 -5.708163 12.18998
vt 0.070038 0.333427
vt 0.001709 0.250947
vt 0.386715 0.241692
vt 0.097509 0.366574
vt 0.096725 0.365621
vt 0.386715 0.241692
vt 0.096725 0.365621
vt 0.070038 0.333427
vt 0.386715 0.241692
vt 0.386715 0.241692
vt 0.392332 0.232519
vt 0.396736 0.237737
vt 0.386715 0.241692
vt 0.423551 0.068730
vt 0.392332 0.232519
vt 0.406040 0.226502
vt 0.423551 0.068730
vt 0.682452 0.124964
vt 0.392332 0.232519
vt 0.423551 0.068730
vt 0.406040 0.226502
vt 0.410828 0.232174
vt 0.406040 0.226502
vt 0.682452 0.124964
vt 0.399848 0.241427
vt 0.413557 0.235411
vt 0.682452 0.124964
vt 0.413557 0.235411
vt 0.410828 0.232174
vt 0.682452 0.124964
vt 0.393408 0.249773
vt 0.386715 0.241692
vt 0.399848 0.241427
vt 0.393408 0.249773
vt 0.399848 0.241427
vt 0.682452 0.124964
vt 0.386715 0.241692
vt 0.396736 0.237737
vt 0.399848 0.241427
vt 0.682452 0.124964
vt 0.423551 0.068730
vt 0.579800 0.001235
vt 0.386715 0.241692
vt 0.400447 0.078711
vt 0.423551 0.068730
vt 0.001709 0.250947
vt 0.400447 0.078711
vt 0.386715 0.241692
vt 0.894139 0.845939
vt 0.887179 0.837678
vt 0.899883 0.832099
vt 0.906842 0.840360
vt 0.552961 0.914641
vt 0.444444 0.850415
vt 0.485044 0.832099
vt 0.538804 0.965066
vt 0.444444 0.850415
vt 0.552961 0.914641
vt 0.882175 0.832099
vt 0.882663 0.881752
vt 0.847863 0.847539
vt 0.995109 0.765606
vt 0.966935 0.734235
vt 0.968628 0.733324
vt 0.995109 0.765606
vt 0.988407 0.769163
vt 0.966935 0.734235
vt 0.966935 0.734235
vt 0.899145 0.651555
vt 0.900827 0.650617
vt 0.968628 0.733324
vt 0.995886 0.766562
vt 0.988407 0.769163
vt 0.995109 0.765606
vt 0.908223 0.813065
vt 0.907457 0.812123
vt 0.988407 0.769163
vt 0.995886 0.766562
vt 0.037183 0.615076
vt 0.430485 0.445444
vt 0.523460 0.461310
vt 0.122989 0.633010
vt 0.124693 0.633367
vt 0.122989 0.633010
vt 0.523460 0.461310
vt 0.441881 0.440529
vt 0.453276 0.435614
vt 0.546566 0.451340
vt 0.523460 0.461310
vt 0.430485 0.445444
vt 0.441881 0.440529
vt 0.523460 0.461310
vt 0.441881 0.440529
vt 0.546566 0.451340
vt 0.453276 0.435614
vt 0.607395 0.369136
vt 0.702827 0.383914
vt 0.546566 0.451340
vt 0.001709 0.630388
vt 0.037183 0.615076
vt 0.122989 0.633010
vt 0.082065 0.647481
vt 0.335629 0.832099
vt 0.233179 0.905899
vt 0.181197 0.845690
vt 0.233179 0.905899
vt 0.440791 0.954251
vt 0.285160 0.966106
vt 0.335629 0.832099
vt 0.440791 0.954251
vt 0.233179 0.905899
vt 0.443553 0.702318
vt 0.155597 0.828725
vt 0.001709 0.775256
vt 0.285625 0.650617
vt 0.751848 0.887551
vt 0.745299 0.879676
vt 0.837022 0.832099
vt 0.843664 0.840086
vt 0.894067 0.700656
vt 0.605893 0.827144
vt 0.447863 0.775335
vt 0.731993 0.650617
vt 0.915113 0.841043
vt 0.911111 0.836254
vt 0.918989 0.832099
vt 0.925823 0.840291
vt 0.917941 0.844433
vt 0.915113 0.841043
vt 0.925823 0.840291
vt 0.915113 0.841043
vt 0.918989 0.832099
vt 0.001709 0.997767
vt 0.014471 0.992593
vt 0.022599 0.994041
vt 0.009820 0.999222
vt 0.974532 0.832099
vt 0.963307 0.836242
vt 0.960684 0.833375
vt 0.963307 0.836242
vt 0.981761 0.839998
vt 0.967893 0.841265
vt 0.974532 0.832099
vt 0.981761 0.839998
vt 0.963307 0.836242
vt 0.956787 0.836443
vt 0.943866 0.841903
vt 0.929915 0.837551
vt 0.942818 0.832099
vt 0.095391 0.989662
vt 0.001709 0.876340
vt 0.081590 0.832099
vt 0.176503 0.946915
vt 0.741767 0.877534
vt 0.706151 0.893041
vt 0.557265 0.847405
vt 0.592419 0.832099
vt 0.027350 0.992593
vt 0.027350 0.992593
vt 0.027350 0.992593
vt 0.027350 0.992593
vt 0.027350 0.992593
vt 0.027350 0.992593
vt 0.027350 0.992593
vt 0.027350 0.992593
vt 0.027350 0.992593
vt 0.027350 0.992593
vt 0.027350 0.992593
vt 0.027350 0.992593
vt 0.027350 0.992593
vn 0 1 0
vn 0 1 0
vn 0 1 0
vn 0 1 0
vn 0 1 0
vn 0 1 0
vn 0 1 0
vn 0 1 0
vn 0 1 0
vn 0.001978216 0.9999974 0.001162724
vn 0.001978216 0.9999974 0.001162724
vn 0.001978216 0.9999974 0.001162724
vn 0.00197821 0.9999974 0.001162709
vn 0.00197821 0.9999974 0.001162709
vn 0.00197821 0.9999974 0.001162709
vn 0.001978211 0.9999974 0.001162721
vn 0.001978211 0.9999974 0.001162721
vn 0.001978211 0.9999974 0.001162721
vn 0.001978211 0.9999974 0.001162717
vn 0.001978211 0.9999974 0.001162717
vn 0.001978211 0.9999974 0.001162717
vn 0.001978221 0.9999974 0.001162727
vn 0.001978221 0.9999974 0.001162727
vn 0.001978221 0.9999974 0.001162727
vn 0 1 0
vn 0 1 0
vn 0 1 0
vn 0 1 0
vn 0 1 0
vn 0 1 0
vn 0 1 0
vn 0 1 0
vn 0 1 0
vn 0 1 0
vn 0 1 0
vn 0 1 0
vn 0 1 0
vn 0 1 0
vn 0 1 0
vn 0.002919591 0.9999954 0.0009103727
vn 0.002919591 0.9999954 0.0009103727
vn 0.002919591 0.9999954 0.0009103727
vn 0.001820153 0.9999983 -0.000133502
vn 0.001820153 0.9999983 -0.000133502
vn 0.001820153 0.9999983 -0.000133502
vn 0.001827553 0.9999983 0.000116709
vn 0.001827553 0.9999983 0.000116709
vn 0.001827553 0.9999983 0.000116709
vn 0 1 0
vn 0 1 0
vn 0 1 0
vn 0 1 0
vn -0.2224185 0.910957 0.3474009
vn -0.2224185 0.910957 0.3474009
vn -0.2224185 0.910957 0.3474009
vn -0.2230286 0.9106351 0.3478535
vn -0.2230286 0.9106351 0.3478535
vn -0.2230286 0.9106351 0.3478535
vn -0.2889505 0.9392694 -0.1851504
vn -0.2889505 0.9392694 -0.1851504
vn -0.2889505 0.9392694 -0.1851504
vn -0.5398411 0 0.841767
vn -0.5398411 0 0.841767
vn -0.5398411 0 0.841767
vn -0.5398411 0 0.841767
vn -0.5398411 0 0.841767
vn -0.5398411 0 0.841767
vn -0.5396059 0 0.8419178
vn -0.5396059 0 0.8419178
vn -0.5396059 0 0.8419178
vn -0.5396059 0 0.8419178
vn -0.5368755 0 0.8436615
vn -0.5368755 0 0.8436615
vn -0.5368755 0 0.8436615
vn -0.5368755 0 0.8436615
vn -0.5368755 0 0.8436615
vn -0.5368755 0 0.8436615
vn -0.5368755 0 0.8436615
vn 0.8418518 0 0.5397088
vn 0.8418518 0 0.5397088
vn 0.8418518 0 0.5397088
vn 0.8418518 0 0.5397088
vn 0.8418518 0 0.5397088
vn 0.8418518 0 0.5397088
vn 0.8418518 0 0.5397088
vn 0.8418536 0 0.5397059
vn 0.8418536 0 0.5397059
vn 0.8418536 0 0.5397059
vn 0.8418536 0 0.5397059
vn 0.8418536 0 0.5397059
vn 0.8418536 0 0.5397059
vn 0.8418536 0 0.5397059
vn 0.8418536 0 0.5397059
vn 0.8418536 0 0.5397059
vn 0.8418301 0 0.5397426
vn 0.8418301 0 0.5397426
vn 0.8418301 0 0.5397426
vn 0.8418301 0 0.5397426
vn 0.8416579 0 0.5400111
vn 0.8416579 0 0.5400111
vn 0.8416579 0 0.5400111
vn 0.8416579 0 0.5400111
vn 0.5397063 0 -0.8418534
vn 0.5397063 0 -0.8418534
vn 0.5397063 0 -0.8418534
vn 0.5397063 0 -0.8418534
vn 0.5397063 0 -0.8418534
vn 0.5397063 0 -0.8418534
vn 0.5397063 1.373116E-12 -0.8418534
vn 0.5397063 1.373116E-12 -0.8418534
vn 0.5397063 1.373116E-12 -0.8418534
vn -0.8418292 0 -0.5397441
vn -0.8418292 0 -0.5397441
vn -0.8418292 0 -0.5397441
vn -0.8418292 0 -0.5397441
vn -0.539502 0 0.8419843
vn -0.539502 0 0.8419843
vn -0.539502 0 0.8419843
vn -0.539502 0 0.8419843
vn -0.8418231 0 -0.5397536
vn -0.8418231 0 -0.5397536
vn -0.8418231 0 -0.5397536
vn -0.8418231 0 -0.5397536
vn -0.5462056 0 0.8376511
vn -0.5462056 0 0.8376511
vn -0.5462056 0 0.8376511
vn -0.5462056 0 0.8376511
vn -0.5462056 0 0.8376511
vn -0.5462056 0 0.8376511
vn -0.5462056 -2.68214E-09 0.8376511
vn -0.5462056 -2.68214E-09 0.8376511
vn -0.5462056 -2.68214E-09 0.8376511
vn 0.8379394 0 0.5457632
vn 0.8379394 0 0.5457632
vn 0.8379394 0 0.5457632
vn 0.8379394 0 0.5457632
vn 0.5462056 0 -0.8376511
vn 0.5462056 0 -0.8376511
vn 0.5462056 0 -0.8376511
vn 0.5462056 0 -0.8376511
vn 0.5462056 0 -0.8376511
vn 0.5462056 0 -0.8376511
vn 0.5462056 -4.40275E-12 -0.8376511
vn 0.5462056 -4.40275E-12 -0.8376511
vn 0.5462056 -4.40275E-12 -0.8376511
vn -0.8379394 0 -0.5457632
vn -0.8379394 0 -0.5457632
vn -0.8379394 0 -0.5457632
vn -0.8379394 0 -0.5457632
vn -0.5397441 0 0.8418291
vn -0.5397441 0 0.8418291
vn -0.5397441 0 0.8418291
vn -0.5397441 0 0.8418291
vn -0.8419775 0 -0.5395127
vn -0.8419775 0 -0.5395127
vn -0.8419775 0 -0.5395127
vn -0.8419775 0 -0.5395127
vn 0 -1 0
vn 0 -1 0
vn 0 -1 0
vn 0 -1 0
vn 0 -1 0
vn 0 -1 0
vn 0 -1 0
vn 0 -1 0
vn 0 -1 0
vn 0 -1 0
vn 0 -1 0
vn 0 -1 0
vn 0 -1 0

g CDNNDG02_0013200
f 1/1/1 2/2/2 3/3/3
f 4/4/4 5/5/5 6/6/6
f 7/7/7 8/8/8 9/9/9
f 10/10/10 11/11/11 12/12/12
f 13/13/13 14/14/14 15/15/15
f 16/16/16 17/17/17 18/18/18
f 19/19/19 20/20/20 21/21/21
f 22/22/22 23/23/23 24/24/24
f 25/25/25 26/26/26 27/27/27
f 28/28/28 29/29/29 30/30/30
f 31/31/31 32/32/32 33/33/33
f 34/34/34 35/35/35 36/36/36
f 37/37/37 38/38/38 39/39/39
f 40/40/40 41/41/41 42/42/42
f 43/43/43 44/44/44 45/45/45
f 46/46/46 47/47/47 48/48/48
f 49/49/49 51/51/51 52/52/52
f 51/51/51 49/49/49 50/50/50
f 53/53/53 54/54/54 55/55/55
f 56/56/56 57/57/57 58/58/58
f 59/59/59 60/60/60 61/61/61
f 62/62/62 63/63/63 64/64/64
f 65/65/65 66/66/66 67/67/67
f 71/71/71 68/68/68 70/70/70
f 70/70/70 68/68/68 69/69/69
f 72/72/72 73/73/73 74/74/74
f 75/75/75 77/77/77 78/78/78
f 77/77/77 75/75/75 76/76/76
f 82/82/82 79/79/79 80/80/80
f 80/80/80 81/81/81 82/82/82
f 83/83/83 84/84/84 85/85/85
f 86/86/86 87/87/87 88/88/88
f 89/89/89 90/90/90 91/91/91
f 92/92/92 93/93/93 94/94/94
f 96/96/96 97/97/97 95/95/95
f 95/95/95 97/97/97 98/98/98
f 100/100/100 101/101/101 102/102/102
f 99/99/99 100/100/100 102/102/102
f 103/103/103 104/104/104 105/105/105
f 106/106/106 107/107/107 108/108/108
f 109/109/109 110/110/110 111/111/111
f 112/112/112 114/114/114 115/115/115
f 112/112/112 113/113/113 114/114/114
f 116/116/116 118/118/118 119/119/119
f 118/118/118 116/116/116 117/117/117
f 120/120/120 122/122/122 123/123/123
f 120/120/120 121/121/121 122/122/122
f 124/124/124 125/125/125 126/126/126
f 127/127/127 128/128/128 129/129/129
f 130/130/130 131/131/131 132/132/132
f 133/133/133 135/135/135 136/136/136
f 133/133/133 134/134/134 135/135/135
f 137/137/137 138/138/138 139/139/139
f 140/140/140 141/141/141 142/142/142
f 143/143/143 144/144/144 145/145/145
f 146/146/146 147/147/147 148/148/148
f 149/149/149 146/146/146 148/148/148
f 153/153/153 150/150/150 151/151/151
f 152/152/152 153/153/153 151/151/151
f 154/154/154 155/155/155 156/156/156
f 157/157/157 154/154/154 156/156/156
f 170/170/170 158/158/158 159/159/159
f 169/169/169 170/170/170 159/159/159
f 163/163/163 166/166/166 161/161/161
f 165/165/165 166/166/166 164/164/164
f 160/160/160 161/161/161 159/159/159
f 166/166/166 163/163/163 164/164/164
f 162/162/162 163/163/163 161/161/161
f 161/161/161 169/169/169 159/159/159
f 161/161/161 168/168/168 169/169/169
f 167/167/167 161/161/161 166/166/166
f 161/161/161 167/167/167 168/168/168
