v -3.761929 6.0043 6.655741
v -1.619929 6.0043 7.980741
v -1.397929 6.0043 7.62074
v -0.7419294 6.0043 8.026741
v 7.26507 6.0043 -4.921259
v 1.762071 6.0043 -8.325259
v -1.825929 6.0043 -2.524259
v -2.888929 6.0043 -3.181259
v -7.297929 6.0043 3.947741
v -3.528929 6.0043 6.27874
v -3.761929 -6.0043 6.655741
v -1.619929 -6.0043 7.980741
v -1.619929 6.0043 7.980741
v -3.761929 6.0043 6.655741
v -1.619929 -6.0043 7.980741
v -1.397929 -6.0043 7.62074
v -1.397929 6.0043 7.62074
v -1.619929 6.0043 7.980741
v -1.397929 -6.0043 7.62074
v -0.7419294 -6.0043 8.026741
v -0.7419294 6.0043 8.026741
v -1.397929 6.0043 7.62074
v -0.7419294 -6.0043 8.026741
v 7.26507 -6.0043 -4.921259
v 7.26507 6.0043 -4.921259
v -0.7419294 6.0043 8.026741
v 1.762071 6.0043 -8.325259
v 7.26507 6.0043 -4.921259
v 7.26507 -6.0043 -4.921259
v 1.762071 -6.0043 -8.325259
v -1.825929 6.0043 -2.524259
v 1.762071 6.0043 -8.325259
v 1.762071 -6.0043 -8.325259
v -1.825929 -6.0043 -2.524259
v -2.888929 6.0043 -3.181259
v -1.825929 6.0043 -2.524259
v -1.825929 -6.0043 -2.524259
v -2.888929 -6.0043 -3.181259
v -7.297929 6.0043 3.947741
v -2.888929 6.0043 -3.181259
v -2.888929 -6.0043 -3.181259
v -7.297929 -6.0043 3.947741
v -7.297929 -6.0043 3.947741
v -3.528929 -6.0043 6.27874
v -3.528929 6.0043 6.27874
v -7.297929 6.0043 3.947741
v -3.761929 6.0043 6.655741
v -3.528929 6.0043 6.27874
v -3.528929 -6.0043 6.27874
v -3.761929 -6.0043 6.655741
v -3.528929 -6.0043 6.27874
v -7.297929 -6.0043 3.947741
v -2.888929 -6.0043 -3.181259
v -1.825929 -6.0043 -2.524259
v 1.762071 -6.0043 -8.325259
v 7.26507 -6.0043 -4.921259
v -0.7419294 -6.0043 8.026741
v -1.397929 -6.0043 7.62074
v -1.619929 -6.0043 7.980741
v -3.761929 -6.0043 6.655741
vt 0.058505 0.314878
vt 0.003380 0.250953
vt 0.019423 0.244758
vt 0.002532 0.225180
vt 0.579619 0.001698
vt 0.721221 0.165942
vt 0.462671 0.266083
vt 0.490001 0.297806
vt 0.172280 0.420852
vt 0.075307 0.308376
vt 0.059574 0.999663
vt 0.002532 0.937696
vt 0.076974 0.879457
vt 0.134877 0.942360
vt 0.336709 0.885366
vt 0.352131 0.879457
vt 0.424662 0.918429
vt 0.409010 0.924427
vt 0.159112 0.956477
vt 0.141772 0.937641
vt 0.215593 0.879457
vt 0.233195 0.898577
vt 0.002532 0.644102
vt 0.570927 0.424448
vt 0.653482 0.461037
vt 0.076599 0.683968
vt 0.455696 0.879457
vt 0.455696 0.879457
vt 0.455696 0.879457
vt 0.455696 0.879457
vt 0.669517 0.793893
vt 0.925134 0.687606
vt 0.839155 0.747565
vt 0.587342 0.852270
vt 0.430380 0.879457
vt 0.430380 0.879457
vt 0.430380 0.879457
vt 0.430380 0.879457
vt 0.080546 0.818372
vt 0.394989 0.687606
vt 0.312296 0.745591
vt 0.002532 0.874410
vt 0.503353 0.854700
vt 0.402532 0.745238
vt 0.478435 0.687606
vt 0.580777 0.798722
vt 0.315156 0.886251
vt 0.331439 0.879457
vt 0.256547 0.936178
vt 0.240506 0.942871
vt 0.443038 0.879457
vt 0.443038 0.879457
vt 0.443038 0.879457
vt 0.443038 0.879457
vt 0.443038 0.879457
vt 0.443038 0.879457
vt 0.443038 0.879457
vt 0.443038 0.879457
vt 0.443038 0.879457
vt 0.443038 0.879457
vn 0 1 0
vn 0 1 0
vn 0 1 0
vn 0 1 0
vn 0 1 0
vn 0 1 0
vn 0 1 0
vn 0 1 0
vn 0 1 0
vn 0 1 0
vn -0.5260676 0 0.8504428
vn -0.5260676 0 0.8504428
vn -0.5260676 0 0.8504428
vn -0.5260676 0 0.8504428
vn 0.8511709 0 0.5248887
vn 0.8511709 0 0.5248887
vn 0.8511709 0 0.5248887
vn 0.8511709 0 0.5248887
vn -0.5262654 0 0.8503204
vn -0.5262654 0 0.8503204
vn -0.5262654 0 0.8503204
vn -0.5262654 0 0.8503204
vn 0.8505128 0 0.5259543
vn 0.8505128 0 0.5259543
vn 0.8505128 0 0.5259543
vn 0.8505128 0 0.5259543
vn 0.526062 0 -0.8504462
vn 0.526062 0 -0.8504462
vn 0.526062 0 -0.8504462
vn 0.526062 0 -0.8504462
vn -0.8504682 0 -0.5260265
vn -0.8504682 0 -0.5260265
vn -0.8504682 0 -0.5260265
vn -0.8504682 0 -0.5260265
vn 0.5257484 0 -0.8506401
vn 0.5257484 0 -0.8506401
vn 0.5257484 0 -0.8506401
vn 0.5257484 0 -0.8506401
vn -0.8504888 0 -0.5259932
vn -0.8504888 0 -0.5259932
vn -0.8504888 0 -0.5259932
vn -0.8504888 0 -0.5259932
vn -0.5259972 0 0.8504863
vn -0.5259972 0 0.8504863
vn -0.5259972 0 0.8504863
vn -0.5259972 0 0.8504863
vn -0.8506496 0 -0.5257331
vn -0.8506496 0 -0.5257331
vn -0.8506496 0 -0.5257331
vn -0.8506496 0 -0.5257331
vn 0 -1 0
vn 0 -1 0
vn 0 -1 0
vn 0 -1 0
vn 0 -1 0
vn 0 -1 0
vn 0 -1 0
vn 0 -1 0
vn 0 -1 0
vn 0 -1 0

g CDNNDG02_0011760
f 3/3/3 7/7/7 10/10/10
f 1/1/1 3/3/3 10/10/10
f 7/7/7 8/8/8 9/9/9
f 1/1/1 2/2/2 3/3/3
f 7/7/7 3/3/3 4/4/4
f 10/10/10 7/7/7 9/9/9
f 5/5/5 6/6/6 7/7/7
f 4/4/4 5/5/5 7/7/7
f 14/14/14 11/11/11 13/13/13
f 13/13/13 11/11/11 12/12/12
f 16/16/16 17/17/17 15/15/15
f 15/15/15 17/17/17 18/18/18
f 19/19/19 21/21/21 22/22/22
f 21/21/21 19/19/19 20/20/20
f 26/26/26 23/23/23 25/25/25
f 24/24/24 25/25/25 23/23/23
f 27/27/27 29/29/29 30/30/30
f 27/27/27 28/28/28 29/29/29
f 34/34/34 31/31/31 33/33/33
f 33/33/33 31/31/31 32/32/32
f 37/37/37 35/35/35 36/36/36
f 35/35/35 37/37/37 38/38/38
f 42/42/42 39/39/39 41/41/41
f 41/41/41 39/39/39 40/40/40
f 43/43/43 45/45/45 46/46/46
f 45/45/45 43/43/43 44/44/44
f 47/47/47 49/49/49 50/50/50
f 47/47/47 48/48/48 49/49/49
f 58/58/58 60/60/60 51/51/51
f 58/58/58 51/51/51 54/54/54
f 52/52/52 53/53/53 54/54/54
f 58/58/58 59/59/59 60/60/60
f 54/54/54 55/55/55 56/56/56
f 54/54/54 51/51/51 52/52/52
f 57/57/57 58/58/58 54/54/54
f 56/56/56 57/57/57 54/54/54
