v -2.771163 6.528968 -2.24851
v -2.546162 6.222968 -1.48851
v -2.002162 6.222968 -2.49851
v -4.450162 6.222968 -2.51251
v -2.546162 6.222968 -1.48851
v -2.771163 6.528968 -2.24851
v -4.450162 6.222968 -2.51251
v -2.771163 6.528968 -2.24851
v -3.762162 6.528968 -2.76851
v -3.906163 6.222968 -3.52251
v -2.771163 6.528968 -2.24851
v -2.002162 6.222968 -2.49851
v -3.906163 6.222968 -3.52251
v -3.762162 6.528968 -2.76851
v -2.771163 6.528968 -2.24851
v -4.450162 6.222968 -2.51251
v -3.762162 6.528968 -2.76851
v -3.906163 6.222968 -3.52251
v 0.09783757 0.433968 -9.78951
v 9.385838 0.433968 -7.52151
v 0.9958376 0.433968 -12.13251
v -0.8071625 0.433968 -8.97051
v -0.4541624 0.433968 -8.77751
v 0.09783757 0.433968 -9.78951
v -0.8071625 0.433968 -8.97051
v 0.09783757 0.433968 -9.78951
v 0.9958376 0.433968 -12.13251
v 0.09783757 0.433968 -9.78951
v 8.223838 0.433968 -5.35851
v 9.385838 0.433968 -7.52151
v 0.8008376 2.584968 -12.45051
v 0.9958376 2.584968 -12.13251
v 1.091838 2.584968 -12.30151
v -1.068162 2.584968 -9.11251
v -0.8071625 2.584968 -8.97051
v 0.9958376 2.584968 -12.13251
v -1.068162 2.584968 -9.11251
v 0.9958376 2.584968 -12.13251
v 0.8008376 2.584968 -12.45051
v -9.474162 5.971968 6.09649
v -1.068162 5.971968 -9.11251
v -1.154162 5.971968 -9.15951
v -9.474162 5.971968 6.09649
v -0.8071625 5.971968 -8.97051
v -1.068162 5.971968 -9.11251
v 0.03383756 5.971968 11.28149
v 8.905838 5.971968 -4.98651
v 8.223838 5.971968 -5.35851
v -0.4541624 5.971968 -8.77751
v 8.223838 5.971968 -5.35851
v 0.09783757 5.971968 -9.78951
v -9.474162 5.971968 6.09649
v 0.03383756 5.971968 11.28149
v -2.546162 5.971968 -1.48851
v -2.546162 5.971968 -1.48851
v 0.03383756 5.971968 11.28149
v 8.223838 5.971968 -5.35851
v -9.474162 5.971968 6.09649
v -2.546162 5.971968 -1.48851
v -4.301813 5.971968 -2.432726
v -2.002162 5.971968 -2.49851
v 8.223838 5.971968 -5.35851
v -0.4541624 5.971968 -8.77751
v -2.546162 5.971968 -1.48851
v 8.223838 5.971968 -5.35851
v -2.002162 5.971968 -2.49851
v -3.706166 5.971968 -3.414949
v -2.002162 5.971968 -2.49851
v -0.4541624 5.971968 -8.77751
v -3.706166 5.971968 -3.414949
v -0.4541624 5.971968 -8.77751
v -0.8071625 5.971968 -8.97051
v -9.474162 5.971968 6.09649
v -3.906163 5.971968 -3.52251
v -0.8071625 5.971968 -8.97051
v -9.474162 5.971968 6.09649
v -4.301813 5.971968 -2.432726
v -4.450162 5.971968 -2.51251
v -9.474162 5.971968 6.09649
v -4.450162 5.971968 -2.51251
v -3.906163 5.971968 -3.52251
v -3.906163 5.971968 -3.52251
v -3.706166 5.971968 -3.414949
v -0.8071625 5.971968 -8.97051
v -2.546162 5.971968 -1.48851
v -2.002162 5.971968 -2.49851
v -2.002162 6.222968 -2.49851
v -2.546162 6.222968 -1.48851
v -4.301813 5.971968 -2.432726
v -2.546162 5.971968 -1.48851
v -2.546162 6.222968 -1.48851
v -4.450162 6.222968 -2.51251
v -4.450162 6.222968 -2.51251
v -4.450162 5.971968 -2.51251
v -4.301813 5.971968 -2.432726
v -3.906163 6.222968 -3.52251
v -3.706166 5.971968 -3.414949
v -3.906163 5.971968 -3.52251
v -3.906163 6.222968 -3.52251
v -2.002162 6.222968 -2.49851
v -2.002162 5.971968 -2.49851
v -3.706166 5.971968 -3.414949
v -4.450162 6.222968 -2.51251
v -3.906163 6.222968 -3.52251
v -3.906163 5.971968 -3.52251
v -4.450162 5.971968 -2.51251
v 8.223838 -5.634805 -5.35851
v 9.385838 -5.634805 -7.52151
v 9.385838 0.433968 -7.52151
v 8.223838 0.433968 -5.35851
v 0.9958376 0.433968 -12.13251
v 9.385838 0.433968 -7.52151
v 9.385838 -5.634805 -7.52151
v 0.9958376 -5.634805 -12.13251
v 0.9958376 -5.634805 -12.13251
v 1.091838 -5.634805 -12.30151
v 1.091838 2.584968 -12.30151
v 0.9958376 0.433968 -12.13251
v 0.9958376 2.584968 -12.13251
v 0.9958376 0.433968 -12.13251
v 1.091838 2.584968 -12.30151
v -0.8071625 0.433968 -8.97051
v 0.9958376 0.433968 -12.13251
v 0.9958376 2.584968 -12.13251
v -0.8071625 2.584968 -8.97051
v 0.8008376 2.584968 -12.45051
v 1.091838 2.584968 -12.30151
v 1.091838 -5.634805 -12.30151
v 0.8008376 -5.634805 -12.45051
v -1.068162 2.584968 -9.11251
v 0.8008376 2.584968 -12.45051
v 0.8008376 -5.634805 -12.45051
v -1.068162 -5.634805 -9.11251
v -1.154162 5.971968 -9.15951
v -1.068162 2.584968 -9.11251
v -1.068162 -5.634805 -9.11251
v -1.154162 -5.634805 -9.15951
v -1.154162 5.971968 -9.15951
v -1.068162 5.971968 -9.11251
v -1.068162 2.584968 -9.11251
v -1.068162 5.971968 -9.11251
v -0.8071625 5.971968 -8.97051
v -0.8071625 2.584968 -8.97051
v -1.068162 2.584968 -9.11251
v -0.8071625 5.971968 -8.97051
v -0.4541624 5.971968 -8.77751
v -0.8071625 2.584968 -8.97051
v -0.8071625 2.584968 -8.97051
v -0.4541624 0.433968 -8.77751
v -0.8071625 0.433968 -8.97051
v -0.8071625 2.584968 -8.97051
v -0.4541624 5.971968 -8.77751
v -0.4541624 0.433968 -8.77751
v -9.474162 5.971968 6.09649
v -1.154162 5.971968 -9.15951
v -1.154162 -5.634805 -9.15951
v -9.474162 -5.634805 6.09649
v -9.474162 -5.634805 6.09649
v 0.03383756 -5.634805 11.28149
v 0.03383756 5.971968 11.28149
v -9.474162 5.971968 6.09649
v 0.03383756 -5.634805 11.28149
v 8.905838 -5.634805 -4.98651
v 8.905838 5.971968 -4.98651
v 0.03383756 5.971968 11.28149
v 8.223838 5.971968 -5.35851
v 8.905838 5.971968 -4.98651
v 8.223838 0.433968 -5.35851
v 8.223838 0.433968 -5.35851
v 8.905838 -5.634805 -4.98651
v 8.223838 -5.634805 -5.35851
v 8.223838 0.433968 -5.35851
v 8.905838 5.971968 -4.98651
v 8.905838 -5.634805 -4.98651
v 0.09783757 5.971968 -9.78951
v 8.223838 5.971968 -5.35851
v 8.223838 0.433968 -5.35851
v 0.09783757 0.433968 -9.78951
v -0.4541624 5.971968 -8.77751
v 0.09783757 5.971968 -9.78951
v 0.09783757 0.433968 -9.78951
v -0.4541624 0.433968 -8.77751
v -1.068162 -5.634805 -9.11251
v 0.8008376 -5.634805 -12.45051
v 1.091838 -5.634805 -12.30151
v 0.9958376 -5.634805 -12.13251
v 9.385838 -5.634805 -7.52151
v 8.223838 -5.634805 -5.35851
v 8.905838 -5.634805 -4.98651
v 0.03383756 -5.634805 11.28149
v -9.474162 -5.634805 6.09649
v -1.154162 -5.634805 -9.15951
vt 0.962091 0.912162
vt 0.986947 0.917754
vt 0.959114 0.929729
vt 0.666645 0.912162
vt 0.696298 0.954948
vt 0.670951 0.951059
vt 0.666645 0.912162
vt 0.670951 0.951059
vt 0.655877 0.928778
vt 0.651619 0.955197
vt 0.613288 0.930452
vt 0.622827 0.912162
vt 0.651619 0.955197
vt 0.627914 0.952859
vt 0.613288 0.930452
vt 0.001704 0.999494
vt 0.006390 0.983784
vt 0.029745 0.987846
vt 0.129670 0.887957
vt 0.064237 0.674324
vt 0.197401 0.867408
vt 0.105988 0.908728
vt 0.100414 0.900605
vt 0.129670 0.887957
vt 0.105988 0.908728
vt 0.129670 0.887957
vt 0.197401 0.867408
vt 0.129670 0.887957
vt 0.001704 0.700952
vt 0.064237 0.674324
vt 0.394768 0.918732
vt 0.385630 0.914321
vt 0.390489 0.912162
vt 0.298797 0.960755
vt 0.294719 0.954862
vt 0.385630 0.914321
vt 0.298797 0.960755
vt 0.385630 0.914321
vt 0.394768 0.918732
vt 0.153376 0.427416
vt 0.598657 0.232993
vt 0.600032 0.234990
vt 0.153376 0.427416
vt 0.594504 0.226930
vt 0.598657 0.232993
vt 0.001704 0.206569
vt 0.478001 0.001351
vt 0.488883 0.017195
vt 0.588859 0.218730
vt 0.488883 0.017195
vt 0.618490 0.205962
vt 0.153376 0.427416
vt 0.001704 0.206569
vt 0.375470 0.266973
vt 0.375470 0.266973
vt 0.001704 0.206569
vt 0.488883 0.017195
vt 0.153376 0.427416
vt 0.375470 0.266973
vt 0.403088 0.307752
vt 0.405041 0.254391
vt 0.488883 0.017195
vt 0.588859 0.218730
vt 0.375470 0.266973
vt 0.488883 0.017195
vt 0.405041 0.254391
vt 0.431846 0.293971
vt 0.405041 0.254391
vt 0.588859 0.218730
vt 0.431846 0.293971
vt 0.588859 0.218730
vt 0.594504 0.226930
vt 0.153376 0.427416
vt 0.434992 0.298617
vt 0.594504 0.226930
vt 0.153376 0.427416
vt 0.403088 0.307752
vt 0.405422 0.311198
vt 0.153376 0.427416
vt 0.405422 0.311198
vt 0.434992 0.298617
vt 0.434992 0.298617
vt 0.431846 0.293971
vt 0.594504 0.226930
vt 0.065132 0.984487
vt 0.037144 0.996206
vt 0.034072 0.995507
vt 0.062068 0.983784
vt 0.404025 0.915498
vt 0.431142 0.954975
vt 0.428055 0.955792
vt 0.398637 0.912966
vt 0.398637 0.912966
vt 0.401733 0.912162
vt 0.404025 0.915498
vt 0.464578 0.955999
vt 0.463601 0.950700
vt 0.466590 0.955223
vt 0.464578 0.955999
vt 0.436116 0.912925
vt 0.438136 0.912162
vt 0.463601 0.950700
vt 0.069847 0.995141
vt 0.097975 0.983784
vt 0.099981 0.984514
vt 0.071861 0.995868
vt 0.608297 0.928125
vt 0.546846 0.954448
vt 0.470187 0.938681
vt 0.532095 0.912162
vt 0.879246 0.883825
vt 0.746167 0.690868
vt 0.795107 0.674324
vt 0.927201 0.865856
vt 0.277099 0.977382
vt 0.272306 0.979579
vt 0.166951 0.956054
vt 0.199554 0.960043
vt 0.171792 0.953835
vt 0.199554 0.960043
vt 0.166951 0.956054
vt 0.289890 0.918480
vt 0.199554 0.960043
vt 0.171792 0.953835
vt 0.262366 0.912162
vt 0.890108 0.942147
vt 0.885860 0.935675
vt 0.949979 0.912162
vt 0.954185 0.918569
vt 0.001704 0.954506
vt 0.098384 0.912162
vt 0.163148 0.938805
vt 0.067434 0.980724
vt 0.711196 0.948325
vt 0.737240 0.936303
vt 0.802798 0.912162
vt 0.804135 0.914067
vt 0.711196 0.948325
vt 0.709840 0.946393
vt 0.737240 0.936303
vt 0.709840 0.946393
vt 0.705741 0.940528
vt 0.733159 0.930463
vt 0.737240 0.936303
vt 0.705741 0.940528
vt 0.700170 0.932596
vt 0.733159 0.930463
vt 0.733159 0.930463
vt 0.744920 0.916236
vt 0.750453 0.924114
vt 0.733159 0.930463
vt 0.700170 0.932596
vt 0.744920 0.916236
vt 0.201022 0.866135
vt 0.647954 0.674324
vt 0.741823 0.711977
vt 0.301202 0.901074
vt 0.767298 0.001351
vt 0.920494 0.217349
vt 0.778912 0.256326
vt 0.623509 0.037229
vt 0.616164 0.465334
vt 0.149660 0.671391
vt 0.001704 0.640091
vt 0.474883 0.431081
vt 0.630914 0.478918
vt 0.620102 0.463115
vt 0.676649 0.463413
vt 0.676649 0.463413
vt 0.715400 0.431081
vt 0.726059 0.446661
vt 0.676649 0.463413
vt 0.620102 0.463115
vt 0.715400 0.431081
vt 0.759697 0.667207
vt 0.630914 0.478918
vt 0.676649 0.463413
vt 0.804555 0.650423
vt 0.809199 0.924431
vt 0.838266 0.912162
vt 0.882378 0.929800
vt 0.853509 0.941986
vt 0.103918 0.983784
vt 0.103918 0.983784
vt 0.103918 0.983784
vt 0.103918 0.983784
vt 0.103918 0.983784
vt 0.103918 0.983784
vt 0.103918 0.983784
vt 0.103918 0.983784
vt 0.103918 0.983784
vt 0.103918 0.983784
vn 0.4230477 0.8769896 0.2278593
vn 0.4230477 0.8769896 0.2278593
vn 0.4230477 0.8769896 0.2278593
vn -0.2262634 0.8785267 0.4207085
vn -0.2262634 0.8785267 0.4207085
vn -0.2262634 0.8785267 0.4207085
vn -0.2270467 0.8724802 0.4326986
vn -0.2270467 0.8724802 0.4326986
vn -0.2270467 0.8724802 0.4326986
vn 0.2197104 0.8859094 -0.408524
vn 0.2197104 0.8859094 -0.408524
vn 0.2197104 0.8859094 -0.408524
vn 0.2108872 0.8910674 -0.4019023
vn 0.2108872 0.8910674 -0.4019023
vn 0.2108872 0.8910674 -0.4019023
vn -0.4702539 0.845404 -0.2532852
vn -0.4702539 0.845404 -0.2532852
vn -0.4702539 0.845404 -0.2532852
vn 0 1 0
vn 0 1 0
vn 0 1 0
vn 0 1 0
vn 0 1 0
vn 0 1 0
vn 0 1 0
vn 0 1 0
vn 0 1 0
vn 0 1 0
vn 0 1 0
vn 0 1 0
vn 0 1 0
vn 0 1 0
vn 0 1 0
vn 0 1 0
vn 0 1 0
vn 0 1 0
vn 0 1 0
vn 0 1 0
vn 0 1 0
vn 0 1 0
vn 0 1 0
vn 0 1 0
vn 0 1 0
vn 0 1 0
vn 0 1 0
vn 0 1 0
vn 0 1 0
vn 0 1 0
vn 0 1 0
vn 0 1 0
vn 0 1 0
vn 0 1 0
vn 0 1 0
vn 0 1 0
vn 0 1 0
vn 0 1 0
vn 0 1 0
vn 0 1 0
vn 0 1 0
vn 0 1 0
vn 0 1 0
vn 0 1 0
vn 0 1 0
vn 0 1 0
vn 0 1 0
vn 0 1 0
vn 0 1 0
vn 0 1 0
vn 0 1 0
vn 0 1 0
vn 0 1 0
vn 0 1 0
vn 0 1 0
vn 0 1 0
vn 0 1 0
vn 0 1 0
vn 0 1 0
vn 0 1 0
vn 0 1 0
vn 0 1 0
vn 0 1 0
vn 0 1 0
vn 0 1 0
vn 0 1 0
vn 0.8804151 0 0.4742038
vn 0.8804151 0 0.4742038
vn 0.8804151 0 0.4742038
vn 0.8804151 0 0.4742038
vn -0.4736584 2.541901E-09 0.8807086
vn -0.4736584 0 0.8807086
vn -0.4736584 2.541901E-09 0.8807086
vn -0.4736584 5.083802E-09 0.8807086
vn -0.4736584 0 0.8807086
vn -0.4736584 0 0.8807086
vn -0.4736584 0 0.8807086
vn 0.4736584 0 -0.8807086
vn 0.4736584 0 -0.8807086
vn 0.4736584 0 -0.8807086
vn 0.4736584 2.034897E-08 -0.8807086
vn 0.4736584 1.017448E-08 -0.8807086
vn 0.4736584 0 -0.8807086
vn 0.4736584 1.017448E-08 -0.8807086
vn -0.8804151 0 -0.4742038
vn -0.8804151 0 -0.4742038
vn -0.8804151 0 -0.4742038
vn -0.8804151 0 -0.4742038
vn 0.8809284 0 0.4732496
vn 0.8809284 0 0.4732496
vn 0.8809284 0 0.4732496
vn 0.8809284 0 0.4732496
vn 0.481638 0 -0.8763703
vn 0.481638 0 -0.8763703
vn 0.481638 0 -0.8763703
vn 0.481638 0 -0.8763703
vn 0.8695068 0 0.493921
vn 0.8695068 0 0.493921
vn 0.8695068 0 0.493921
vn 0.8695068 0 0.493921
vn 0.8695068 0 0.493921
vn 0.8695068 0 0.493921
vn 0.8695068 0 0.493921
vn 0.8686993 0 0.4953399
vn 0.8686993 0 0.4953399
vn 0.8686993 0 0.4953399
vn 0.8686993 0 0.4953399
vn 0.4557577 0 -0.8901039
vn 0.4557577 0 -0.8901039
vn 0.4557577 0 -0.8901039
vn 0.4557577 0 -0.8901039
vn -0.8725372 0 -0.4885477
vn -0.8725372 0 -0.4885477
vn -0.8725372 0 -0.4885477
vn -0.8725372 0 -0.4885477
vn 0.4795669 0 -0.8775054
vn 0.4795669 0 -0.8775054
vn 0.4795669 0 -0.8775054
vn 0.4795669 0 -0.8775054
vn 0.4795669 0 -0.8775054
vn 0.4795669 0 -0.8775054
vn 0.4795669 0 -0.8775054
vn 0.4779086 0 -0.8784096
vn 0.4779086 0 -0.8784096
vn 0.4779086 0 -0.8784096
vn 0.4779086 0 -0.8784096
vn 0.4797226 0 -0.8774202
vn 0.4797226 0 -0.8774202
vn 0.4797226 0 -0.8774202
vn 0.4797226 0 -0.8774202
vn 0.4797226 0 -0.8774202
vn 0.4797226 0 -0.8774202
vn 0.4797226 0 -0.8774202
vn 0.4797226 0 -0.8774202
vn 0.4797226 0 -0.8774202
vn -0.8779308 0 -0.4787876
vn -0.8779308 0 -0.4787876
vn -0.8779308 0 -0.4787876
vn -0.8779308 0 -0.4787876
vn -0.478768 0 0.8779414
vn -0.478768 0 0.8779414
vn -0.478768 0 0.8779414
vn -0.478768 0 0.8779414
vn 0.8779286 0 0.4787916
vn 0.8779286 0 0.4787916
vn 0.8779286 0 0.4787916
vn 0.8779286 0 0.4787916
vn 0.4788521 0 -0.8778956
vn 0.4788521 0 -0.8778956
vn 0.4788521 0 -0.8778956
vn 0.4788521 0 -0.8778956
vn 0.4788521 0 -0.8778956
vn 0.4788521 0 -0.8778956
vn 0.4788521 0 -0.8778956
vn 0.4788521 0 -0.8778956
vn 0.4788521 0 -0.8778956
vn 0.4787386 0 -0.8779575
vn 0.4787386 0 -0.8779575
vn 0.4787386 0 -0.8779575
vn 0.4787386 0 -0.8779575
vn -0.8778956 0 -0.4788521
vn -0.8778956 0 -0.4788521
vn -0.8778956 0 -0.4788521
vn -0.8778956 0 -0.4788521
vn 0 -1 0
vn 0 -1 0
vn 0 -1 0
vn 0 -1 0
vn 0 -1 0
vn 0 -1 0
vn 0 -1 0
vn 0 -1 0
vn 0 -1 0
vn 0 -1 0

g CDNNDG01_0002240
f 1/1/1 2/2/2 3/3/3
f 4/4/4 5/5/5 6/6/6
f 7/7/7 8/8/8 9/9/9
f 10/10/10 11/11/11 12/12/12
f 13/13/13 14/14/14 15/15/15
f 16/16/16 17/17/17 18/18/18
f 19/19/19 20/20/20 21/21/21
f 22/22/22 23/23/23 24/24/24
f 25/25/25 26/26/26 27/27/27
f 28/28/28 29/29/29 30/30/30
f 31/31/31 32/32/32 33/33/33
f 34/34/34 35/35/35 36/36/36
f 37/37/37 38/38/38 39/39/39
f 40/40/40 41/41/41 42/42/42
f 43/43/43 44/44/44 45/45/45
f 46/46/46 47/47/47 48/48/48
f 49/49/49 50/50/50 51/51/51
f 52/52/52 53/53/53 54/54/54
f 55/55/55 56/56/56 57/57/57
f 58/58/58 59/59/59 60/60/60
f 61/61/61 62/62/62 63/63/63
f 64/64/64 65/65/65 66/66/66
f 67/67/67 68/68/68 69/69/69
f 70/70/70 71/71/71 72/72/72
f 73/73/73 74/74/74 75/75/75
f 76/76/76 77/77/77 78/78/78
f 79/79/79 80/80/80 81/81/81
f 82/82/82 83/83/83 84/84/84
f 86/86/86 87/87/87 88/88/88
f 85/85/85 86/86/86 88/88/88
f 89/89/89 91/91/91 92/92/92
f 89/89/89 90/90/90 91/91/91
f 93/93/93 94/94/94 95/95/95
f 96/96/96 97/97/97 98/98/98
f 102/102/102 99/99/99 100/100/100
f 100/100/100 101/101/101 102/102/102
f 103/103/103 105/105/105 106/106/106
f 103/103/103 104/104/104 105/105/105
f 107/107/107 109/109/109 110/110/110
f 107/107/107 108/108/108 109/109/109
f 114/114/114 111/111/111 112/112/112
f 112/112/112 113/113/113 114/114/114
f 116/116/116 117/117/117 118/118/118
f 115/115/115 116/116/116 118/118/118
f 119/119/119 120/120/120 121/121/121
f 125/125/125 122/122/122 124/124/124
f 123/123/123 124/124/124 122/122/122
f 128/128/128 126/126/126 127/127/127
f 126/126/126 128/128/128 129/129/129
f 130/130/130 132/132/132 133/133/133
f 130/130/130 131/131/131 132/132/132
f 135/135/135 137/137/137 134/134/134
f 137/137/137 135/135/135 136/136/136
f 138/138/138 139/139/139 140/140/140
f 143/143/143 141/141/141 142/142/142
f 141/141/141 143/143/143 144/144/144
f 145/145/145 146/146/146 147/147/147
f 148/148/148 149/149/149 150/150/150
f 151/151/151 152/152/152 153/153/153
f 154/154/154 156/156/156 157/157/157
f 154/154/154 155/155/155 156/156/156
f 158/158/158 160/160/160 161/161/161
f 160/160/160 158/158/158 159/159/159
f 165/165/165 162/162/162 164/164/164
f 163/163/163 164/164/164 162/162/162
f 166/166/166 167/167/167 168/168/168
f 169/169/169 170/170/170 171/171/171
f 172/172/172 173/173/173 174/174/174
f 175/175/175 177/177/177 178/178/178
f 175/175/175 176/176/176 177/177/177
f 179/179/179 180/180/180 181/181/181
f 182/182/182 179/179/179 181/181/181
f 192/192/192 183/183/183 191/191/191
f 183/183/183 190/190/190 191/191/191
f 190/190/190 183/183/183 188/188/188
f 184/184/184 186/186/186 183/183/183
f 188/188/188 183/183/183 186/186/186
f 185/185/185 186/186/186 184/184/184
f 186/186/186 187/187/187 188/188/188
f 188/188/188 189/189/189 190/190/190
