v 6.86788 5.75711 -6.612314
v 7.129635 5.756609 -6.444072
v 7.379884 5.70611 -6.83307
v 7.118131 5.70661 -7.001316
v 7.129635 5.756609 -6.444072
v 7.391391 5.75611 -6.275831
v 7.641636 5.70561 -6.664824
v 7.379884 5.70611 -6.83307
v 6.617629 5.80761 -6.223312
v 6.879387 5.80711 -6.055075
v 7.129635 5.756609 -6.444072
v 6.86788 5.75711 -6.612314
v 6.879387 5.80711 -6.055075
v 7.141145 5.80661 -5.886837
v 7.391391 5.75611 -6.275831
v 7.129635 5.756609 -6.444072
v 6.86788 5.75711 -6.612314
v 7.118131 5.70661 -7.001316
v 7.106632 5.65661 -7.558567
v 6.105617 5.85861 -6.002544
v 6.86788 5.75711 -6.612314
v 7.106632 5.65661 -7.558567
v 7.106632 5.65661 -7.558567
v 7.118131 5.70661 -7.001316
v 7.379884 5.70611 -6.83307
v 7.379884 5.70611 -6.83307
v 7.641636 5.70561 -6.664824
v 8.153632 5.65461 -6.885567
v 7.106632 5.65661 -7.558567
v 7.379884 5.70611 -6.83307
v 8.153632 5.65461 -6.885567
v 7.391391 5.75611 -6.275831
v 8.153632 5.65461 -6.885567
v 7.641636 5.70561 -6.664824
v 6.105617 5.85861 -6.002544
v 6.879387 5.80711 -6.055075
v 6.617629 5.80761 -6.223312
v 6.105617 5.85861 -6.002544
v 6.617629 5.80761 -6.223312
v 6.86788 5.75711 -6.612314
v 6.105617 5.85861 -6.002544
v 7.15266 5.85661 -5.329611
v 6.879387 5.80711 -6.055075
v 7.141145 5.80661 -5.886837
v 7.15266 5.85661 -5.329611
v 7.391391 5.75611 -6.275831
v 6.879387 5.80711 -6.055075
v 7.15266 5.85661 -5.329611
v 7.141145 5.80661 -5.886837
v 7.15266 5.85661 -5.329611
v 8.153632 5.65461 -6.885567
v 7.391391 5.75611 -6.275831
v -0.005367921 7.795609 -5.972567
v 6.105617 6.155554 -6.002544
v 1.794535 6.155242 -8.772415
v 5.352632 7.795609 -2.528567
v 7.15266 6.155715 -5.329611
v 6.105617 6.155554 -6.002544
v -0.005367921 7.795609 -5.972567
v 5.352632 7.795609 -2.528567
v 6.105617 6.155554 -6.002544
v -0.2703679 7.795609 6.219433
v 5.352632 7.795609 -2.528567
v -0.005367921 7.795609 -5.972567
v -5.627368 7.795609 2.775433
v -4.202457 6.476643 6.834128
v -3.856252 6.156179 7.820253
v -0.2703679 7.795609 6.219433
v -4.302551 7.53861 4.239493
v -4.202457 6.476643 6.834128
v -0.2703679 7.795609 6.219433
v -5.627368 7.795609 2.775433
v -4.302551 7.53861 4.239493
v -0.2703679 7.795609 6.219433
v -5.627368 7.795609 2.775433
v -5.011246 7.225297 4.530387
v -4.302551 7.53861 4.239493
v -5.605368 6.336946 6.266433
v -3.856252 6.156179 7.820253
v -4.189368 6.33656 7.176433
v -7.404448 6.156907 5.540557
v -3.856252 6.156179 7.820253
v -5.605368 6.336946 6.266433
v -7.404448 6.156907 5.540557
v -5.605368 6.336946 6.266433
v -7.020023 6.337751 5.356298
v -7.020023 6.337751 5.356298
v -7.018805 6.33829 5.355796
v -5.627368 7.795609 2.775433
v -7.404448 6.156907 5.540557
v -7.020023 6.337751 5.356298
v -5.627368 7.795609 2.775433
v -4.202457 6.476643 6.834128
v -4.190565 6.349936 7.143782
v -3.856252 6.156179 7.820253
v -4.190565 6.349936 7.143782
v -4.189368 6.33656 7.176433
v -3.856252 6.156179 7.820253
v -7.018805 6.33829 5.355796
v -5.011246 7.225297 4.530387
v -5.627368 7.795609 2.775433
v -3.856252 6.156179 7.820253
v -2.046165 7.77961 8.983116
v -0.2703679 7.795609 6.219433
v -5.605368 7.53861 6.266433
v -4.189368 6.33661 7.176433
v -5.187368 7.53861 5.615433
v -5.187368 7.53861 5.615433
v -4.202457 6.476643 6.834128
v -4.302551 7.53861 4.239493
v -5.187368 7.53861 5.615433
v -4.189368 6.33661 7.176433
v -4.190565 6.349936 7.143782
v -5.187368 7.53861 5.615433
v -4.190565 6.349936 7.143782
v -4.202457 6.476643 6.834128
v -7.018805 6.33829 5.355796
v -5.187368 7.53861 5.615433
v -5.011246 7.225297 4.530387
v -5.187368 7.53861 5.615433
v -4.302551 7.53861 4.239493
v -5.011246 7.225297 4.530387
v -7.020023 6.337751 5.356298
v -5.605368 7.53861 6.266433
v -7.018805 6.33829 5.355796
v -7.018805 6.33829 5.355796
v -5.605368 7.53861 6.266433
v -5.187368 7.53861 5.615433
v 7.15266 -7.491066 -5.329611
v 8.153632 -7.491066 -6.885567
v 8.153632 5.65461 -6.885567
v 7.15266 5.85661 -5.329611
v 5.352632 7.795609 -2.528567
v 7.15266 5.85661 -5.329611
v 7.15266 6.155715 -5.329611
v 5.352632 -7.491066 -2.528567
v 7.15266 -7.491066 -5.329611
v 7.15266 5.85661 -5.329611
v 5.352632 7.795609 -2.528567
v -0.2703679 -7.491066 6.219433
v 5.352632 -7.491066 -2.528567
v 5.352632 7.795609 -2.528567
v -0.2703679 7.795609 6.219433
v -2.046165 -7.491066 8.983116
v -0.2703679 -7.491066 6.219433
v -0.2703679 7.795609 6.219433
v -2.046165 6.155853 8.983116
v -2.046165 7.77961 8.983116
v -2.046165 6.155853 8.983116
v -0.2703679 7.795609 6.219433
v 7.106632 5.65661 -7.558567
v 8.153632 5.65461 -6.885567
v 8.153632 -7.491066 -6.885567
v 7.106632 -7.491066 -7.558567
v 6.105617 5.85861 -6.002544
v 6.606125 -7.491066 -6.780556
v 6.105617 -7.491066 -6.002544
v 6.606125 -7.491066 -6.780556
v 7.106632 5.65661 -7.558567
v 7.106632 -7.491066 -7.558567
v 6.105617 5.85861 -6.002544
v 7.106632 5.65661 -7.558567
v 6.606125 -7.491066 -6.780556
v 1.794535 6.155242 -8.772415
v 6.105617 5.85861 -6.002544
v 6.105617 -7.491066 -6.002544
v 1.794535 -7.491066 -8.772415
v 1.794535 6.155242 -8.772415
v 6.105617 6.155554 -6.002544
v 6.105617 5.85861 -6.002544
v 6.105617 6.155554 -6.002544
v 7.15266 6.155715 -5.329611
v 7.15266 5.85661 -5.329611
v 6.105617 5.85861 -6.002544
v -0.005367921 7.795609 -5.972567
v 0.8945833 -7.491066 -7.372491
v -0.005367921 -7.491066 -5.972567
v 0.8945833 -7.491066 -7.372491
v 1.794535 6.155242 -8.772415
v 1.794535 -7.491066 -8.772415
v -0.005367921 7.795609 -5.972567
v 1.794535 6.155242 -8.772415
v 0.8945833 -7.491066 -7.372491
v -5.627368 7.795609 2.775433
v -2.816368 -7.491066 -1.598567
v -5.627368 -7.491066 2.775433
v -2.816368 -7.491066 -1.598567
v -0.005367921 7.795609 -5.972567
v -0.005367921 -7.491066 -5.972567
v -5.627368 7.795609 2.775433
v -0.005367921 7.795609 -5.972567
v -2.816368 -7.491066 -1.598567
v -7.404448 6.156907 5.540557
v -6.515908 -7.491066 4.157995
v -7.404448 -7.491066 5.540557
v -6.515908 -7.491066 4.157995
v -5.627368 7.795609 2.775433
v -5.627368 -7.491066 2.775433
v -7.404448 6.156907 5.540557
v -5.627368 7.795609 2.775433
v -6.515908 -7.491066 4.157995
v -5.63035 -7.491066 6.680405
v -3.856252 -7.491066 7.820253
v -3.856252 6.156179 7.820253
v -7.404448 6.156907 5.540557
v -7.404448 -7.491066 5.540557
v -5.63035 -7.491066 6.680405
v -7.404448 6.156907 5.540557
v -5.63035 -7.491066 6.680405
v -3.856252 6.156179 7.820253
v -2.951209 -7.491066 8.401685
v -2.046165 -7.491066 8.983116
v -2.046165 6.155853 8.983116
v -3.856252 6.156179 7.820253
v -3.856252 -7.491066 7.820253
v -2.951209 -7.491066 8.401685
v -3.856252 6.156179 7.820253
v -2.951209 -7.491066 8.401685
v -2.046165 6.155853 8.983116
v -3.856252 6.156179 7.820253
v -2.046165 6.155853 8.983116
v -2.046165 7.77961 8.983116
v -5.605368 7.53861 6.266433
v -4.189368 6.33656 7.176433
v -4.189368 6.33661 7.176433
v -5.605368 7.53861 6.266433
v -5.605368 6.336946 6.266433
v -4.189368 6.33656 7.176433
v -7.020023 6.337751 5.356298
v -5.605368 6.336946 6.266433
v -5.605368 7.53861 6.266433
v -4.190565 6.349936 7.143782
v -4.189368 6.33661 7.176433
v -4.189368 6.33656 7.176433
v -5.627368 -7.491066 2.775433
v -2.816368 -7.491066 -1.598567
v -0.005367921 -7.491066 -5.972567
v 0.8945833 -7.491066 -7.372491
v 1.794535 -7.491066 -8.772415
v 6.105617 -7.491066 -6.002544
v 6.606125 -7.491066 -6.780556
v 7.106632 -7.491066 -7.558567
v 8.153632 -7.491066 -6.885567
v 7.15266 -7.491066 -5.329611
v 5.352632 -7.491066 -2.528567
v -0.2703679 -7.491066 6.219433
v -2.046165 -7.491066 8.983116
v -2.951209 -7.491066 8.401685
v -3.856252 -7.491066 7.820253
v -5.63035 -7.491066 6.680405
v -7.404448 -7.491066 5.540557
v -6.515908 -7.491066 4.157995
vt 0.681179 0.857425
vt 0.674775 0.851370
vt 0.689562 0.845602
vt 0.695966 0.851656
vt 0.674775 0.851370
vt 0.668370 0.845315
vt 0.683158 0.839547
vt 0.689562 0.845602
vt 0.666390 0.863195
vt 0.659985 0.857140
vt 0.674775 0.851370
vt 0.681179 0.857425
vt 0.659985 0.857140
vt 0.653581 0.851084
vt 0.668370 0.845315
vt 0.674775 0.851370
vt 0.681179 0.857425
vt 0.695966 0.851656
vt 0.717155 0.851942
vt 0.658004 0.875022
vt 0.681179 0.857425
vt 0.717155 0.851942
vt 0.717155 0.851942
vt 0.695966 0.851656
vt 0.689562 0.845602
vt 0.689562 0.845602
vt 0.683158 0.839547
vt 0.691540 0.827725
vt 0.717155 0.851942
vt 0.689562 0.845602
vt 0.691540 0.827725
vt 0.668370 0.845315
vt 0.691540 0.827725
vt 0.683158 0.839547
vt 0.658004 0.875022
vt 0.659985 0.857140
vt 0.666390 0.863195
vt 0.658004 0.875022
vt 0.666390 0.863195
vt 0.681179 0.857425
vt 0.658004 0.875022
vt 0.632385 0.850798
vt 0.659985 0.857140
vt 0.653581 0.851084
vt 0.632385 0.850798
vt 0.668370 0.845315
vt 0.659985 0.857140
vt 0.632385 0.850798
vt 0.653581 0.851084
vt 0.632385 0.850798
vt 0.691540 0.827725
vt 0.668370 0.845315
vt 0.729003 0.766164
vt 0.732780 0.613965
vt 0.840182 0.714688
vt 0.595186 0.640722
vt 0.706686 0.589502
vt 0.732780 0.613965
vt 0.729003 0.766164
vt 0.595186 0.640722
vt 0.732780 0.613965
vt 0.002188 0.459076
vt 0.339416 0.324361
vt 0.473627 0.451434
vt 0.136403 0.586115
vt 0.038964 0.922740
vt 0.002188 0.915057
vt 0.057335 0.827725
vt 0.134996 0.923486
vt 0.038964 0.922740
vt 0.057335 0.827725
vt 0.190639 0.954426
vt 0.134996 0.923486
vt 0.057335 0.827725
vt 0.190639 0.954426
vt 0.124993 0.940712
vt 0.134996 0.923486
vt 0.061470 0.956072
vt 0.002188 0.915057
vt 0.026314 0.922645
vt 0.090240 0.998799
vt 0.002188 0.915057
vt 0.061470 0.956072
vt 0.090240 0.998799
vt 0.061470 0.956072
vt 0.096629 0.989466
vt 0.096629 0.989466
vt 0.096646 0.989437
vt 0.190639 0.954426
vt 0.090240 0.998799
vt 0.096629 0.989466
vt 0.190639 0.954426
vt 0.038964 0.922740
vt 0.027520 0.922652
vt 0.002188 0.915057
vt 0.027520 0.922652
vt 0.026314 0.922645
vt 0.002188 0.915057
vt 0.096646 0.989437
vt 0.124993 0.940712
vt 0.190639 0.954426
vt 0.492155 0.914406
vt 0.442013 0.869859
vt 0.546798 0.827725
vt 0.851201 0.866269
vt 0.820569 0.827725
vt 0.875669 0.856549
vt 0.875669 0.856549
vt 0.833002 0.828683
vt 0.927383 0.835974
vt 0.875669 0.856549
vt 0.820569 0.827725
vt 0.821755 0.827815
vt 0.875669 0.856549
vt 0.821755 0.827815
vt 0.833002 0.828683
vt 0.589996 0.892862
vt 0.575924 0.848597
vt 0.617873 0.844740
vt 0.575924 0.848597
vt 0.627710 0.827725
vt 0.617873 0.844740
vt 0.589980 0.892892
vt 0.551422 0.858457
vt 0.589996 0.892862
vt 0.589996 0.892862
vt 0.551422 0.858457
vt 0.575924 0.848597
vt 0.595290 0.024882
vt 0.653665 0.001346
vt 0.615297 0.065804
vt 0.555341 0.090743
vt 0.442310 0.143637
vt 0.555341 0.090743
vt 0.554430 0.092244
vt 0.490206 0.067207
vt 0.595290 0.024882
vt 0.555341 0.090743
vt 0.442310 0.143637
vt 0.162036 0.199413
vt 0.490206 0.067207
vt 0.442310 0.143637
vt 0.107800 0.278394
vt 0.058367 0.241162
vt 0.162036 0.199413
vt 0.107800 0.278394
vt 0.008265 0.312243
vt 0.002188 0.320864
vt 0.008265 0.312243
vt 0.107800 0.278394
vt 0.399609 0.915763
vt 0.374179 0.891488
vt 0.411393 0.827725
vt 0.436413 0.851595
vt 0.722101 0.850749
vt 0.786890 0.859484
vt 0.758004 0.870959
vt 0.786890 0.859484
vt 0.781390 0.827725
vt 0.815777 0.848008
vt 0.722101 0.850749
vt 0.781390 0.827725
vt 0.786890 0.859484
vt 0.329940 0.995927
vt 0.223820 0.893752
vt 0.262978 0.827725
vt 0.368171 0.926705
vt 0.329940 0.995927
vt 0.222934 0.895246
vt 0.223820 0.893752
vt 0.222934 0.895246
vt 0.196937 0.870794
vt 0.197839 0.869298
vt 0.223820 0.893752
vt 0.440896 0.630216
vt 0.535897 0.630075
vt 0.482910 0.651211
vt 0.535897 0.630075
vt 0.553293 0.589502
vt 0.588885 0.608938
vt 0.440896 0.630216
vt 0.553293 0.589502
vt 0.535897 0.630075
vt 0.103365 0.764819
vt 0.317359 0.717230
vt 0.151816 0.783245
vt 0.317359 0.717230
vt 0.440896 0.630216
vt 0.482910 0.651211
vt 0.103365 0.764819
vt 0.440896 0.630216
vt 0.317359 0.717230
vt 0.002188 0.809284
vt 0.099491 0.804111
vt 0.047168 0.824977
vt 0.099491 0.804111
vt 0.103365 0.764819
vt 0.151816 0.783245
vt 0.002188 0.809284
vt 0.103365 0.764819
vt 0.099491 0.804111
vt 0.954048 0.827725
vt 0.954048 0.827725
vt 0.954048 0.827725
vt 0.954048 0.827725
vt 0.954048 0.827725
vt 0.954048 0.827725
vt 0.954048 0.827725
vt 0.954048 0.827725
vt 0.954048 0.827725
vt 0.954048 0.827725
vt 0.954048 0.827725
vt 0.954048 0.827725
vt 0.954048 0.827725
vt 0.954048 0.827725
vt 0.954048 0.827725
vt 0.954048 0.827725
vt 0.954048 0.827725
vt 0.954048 0.827725
vt 0.954048 0.827725
vt 0.954048 0.827725
vt 0.954048 0.827725
vt 0.932166 0.827725
vt 0.932166 0.827725
vt 0.932166 0.827725
vt 0.932166 0.827725
vt 0.932166 0.827725
vt 0.932166 0.827725
vt 0.932166 0.827725
vt 0.932166 0.827725
vt 0.932166 0.827725
vt 0.964989 0.827725
vt 0.964989 0.827725
vt 0.964989 0.827725
vt 0.943107 0.827725
vt 0.943107 0.827725
vt 0.943107 0.827725
vt 0.943107 0.827725
vt 0.943107 0.827725
vt 0.943107 0.827725
vt 0.943107 0.827725
vt 0.943107 0.827725
vt 0.943107 0.827725
vt 0.943107 0.827725
vt 0.943107 0.827725
vt 0.943107 0.827725
vt 0.943107 0.827725
vt 0.943107 0.827725
vt 0.943107 0.827725
vt 0.943107 0.827725
vt 0.943107 0.827725
vt 0.943107 0.827725
vn 0.06002642 0.9940916 -0.09043653
vn 0.06002746 0.9940915 -0.09043654
vn 0.06002849 0.9940915 -0.09043656
vn 0.06002746 0.9940915 -0.09043654
vn 0.06002704 0.9940915 -0.09043749
vn 0.06002808 0.9940914 -0.09043751
vn 0.06002912 0.9940913 -0.09043752
vn 0.06002808 0.9940914 -0.09043751
vn 0.06002497 0.9940916 -0.09043746
vn 0.060026 0.9940915 -0.09043748
vn 0.06002704 0.9940915 -0.09043749
vn 0.060026 0.9940915 -0.09043748
vn 0.06002558 0.9940915 -0.09043843
vn 0.06002662 0.9940914 -0.09043845
vn 0.06002766 0.9940913 -0.09043846
vn 0.06002662 0.9940914 -0.09043845
vn 0.06002932 0.9940916 -0.09043466
vn 0.06002932 0.9940916 -0.09043466
vn 0.06002932 0.9940916 -0.09043466
vn 0.0600258 0.9940917 -0.09043556
vn 0.0600258 0.9940917 -0.09043556
vn 0.0600258 0.9940917 -0.09043556
vn 0.06002725 0.9940917 -0.09043463
vn 0.06002725 0.9940917 -0.09043463
vn 0.06002725 0.9940917 -0.09043463
vn 0.06002974 0.9940912 -0.09043849
vn 0.06002974 0.9940912 -0.09043849
vn 0.06002974 0.9940912 -0.09043849
vn 0.06002995 0.9940915 -0.09043562
vn 0.06002995 0.9940915 -0.09043562
vn 0.06002995 0.9940915 -0.09043562
vn 0.06003057 0.9940913 -0.09043659
vn 0.06003057 0.9940913 -0.09043659
vn 0.06003057 0.9940913 -0.09043659
vn 0.06002434 0.9940917 -0.0904365
vn 0.06002434 0.9940917 -0.0904365
vn 0.06002434 0.9940917 -0.0904365
vn 0.06002351 0.9940916 -0.0904384
vn 0.06002351 0.9940916 -0.0904384
vn 0.06002351 0.9940916 -0.0904384
vn 0.06002413 0.9940915 -0.09043936
vn 0.06002413 0.9940915 -0.09043936
vn 0.06002413 0.9940915 -0.09043936
vn 0.06002476 0.9940913 -0.09044033
vn 0.06002476 0.9940913 -0.09044033
vn 0.06002476 0.9940913 -0.09044033
vn 0.06002682 0.9940912 -0.09044036
vn 0.06002682 0.9940912 -0.09044036
vn 0.06002682 0.9940912 -0.09044036
vn 0.06002828 0.9940912 -0.09043942
vn 0.06002828 0.9940912 -0.09043942
vn 0.06002828 0.9940912 -0.09043942
vn 0.238907 0.8969859 -0.3719404
vn 0.238907 0.8969859 -0.3719404
vn 0.238907 0.8969859 -0.3719404
vn 0.2387898 0.8970929 -0.3717576
vn 0.2387898 0.8970929 -0.3717576
vn 0.2387898 0.8970929 -0.3717576
vn 0.2389312 0.8970721 -0.3717171
vn 0.2389312 0.8970721 -0.3717171
vn 0.2389312 0.8970721 -0.3717171
vn 0 1 0
vn 0 1 0
vn 0 1 0
vn 0 1 0
vn -0.2414401 0.894801 0.3755501
vn -0.2414401 0.894801 0.3755501
vn -0.2414401 0.894801 0.3755501
vn -0.2414401 0.894801 0.3755501
vn -0.2414401 0.894801 0.3755501
vn -0.2414401 0.894801 0.3755501
vn -0.2414401 0.894801 0.37555
vn -0.2414401 0.894801 0.37555
vn -0.2414401 0.894801 0.37555
vn -0.2414401 0.894801 0.37555
vn -0.2414401 0.894801 0.37555
vn -0.2414401 0.894801 0.37555
vn -0.2410468 0.8949453 0.3754589
vn -0.2410468 0.8949453 0.3754589
vn -0.2410468 0.8949453 0.3754589
vn -0.2410468 0.8949453 0.3754589
vn -0.2410468 0.8949453 0.3754589
vn -0.2410468 0.8949453 0.3754589
vn -0.2410468 0.8949453 0.3754589
vn -0.2410468 0.8949453 0.3754589
vn -0.2410468 0.8949453 0.3754589
vn -0.2410472 0.8949453 0.3754586
vn -0.2410472 0.8949453 0.3754586
vn -0.2410472 0.8949453 0.3754586
vn -0.2410468 0.8949453 0.3754589
vn -0.2410468 0.8949453 0.3754589
vn -0.2410468 0.8949453 0.3754589
vn -0.2410467 0.8949453 0.3754589
vn -0.2410467 0.8949453 0.3754589
vn -0.2410467 0.8949453 0.3754589
vn -0.2410468 0.8949453 0.3754589
vn -0.2410468 0.8949453 0.3754589
vn -0.2410468 0.8949453 0.3754589
vn -0.2410468 0.8949453 0.3754589
vn -0.2410468 0.8949453 0.3754589
vn -0.2410468 0.8949453 0.3754589
vn -0.5088425 0.7982356 -0.322334
vn -0.5088425 0.7982356 -0.322334
vn -0.5088425 0.7982356 -0.322334
vn 0.4890193 0.8137985 0.3139939
vn 0.4890193 0.8137985 0.3139939
vn 0.4890193 0.8137985 0.3139939
vn 0.4887 0.8138856 0.3142652
vn 0.4887 0.8138856 0.3142652
vn 0.4887 0.8138856 0.3142652
vn 0.4886998 0.8138856 0.3142653
vn 0.4886998 0.8138856 0.3142653
vn 0.4886998 0.8138856 0.3142653
vn 0.4887 0.8138856 0.3142651
vn 0.4887 0.8138856 0.3142651
vn 0.4887 0.8138856 0.3142651
vn -0.4888012 0.8137997 -0.3143303
vn -0.4888012 0.8137997 -0.3143303
vn -0.4888012 0.8137997 -0.3143303
vn -0.4888012 0.8137997 -0.3143303
vn -0.4888012 0.8137997 -0.3143303
vn -0.4888012 0.8137997 -0.3143303
vn -0.4889147 0.8138867 -0.3139282
vn -0.4889147 0.8138867 -0.3139282
vn -0.4889147 0.8138867 -0.3139282
vn -0.4889153 0.8138867 -0.3139272
vn -0.4889153 0.8138867 -0.3139272
vn -0.4889153 0.8138867 -0.3139272
vn 0.8410028 0 0.5410308
vn 0.8410028 0 0.5410308
vn 0.8410028 0 0.5410308
vn 0.8410028 0 0.5410308
vn 0.8412663 0 0.540621
vn 0.8412663 0 0.540621
vn 0.8412663 0 0.540621
vn 0.8412663 0 0.540621
vn 0.8412663 0 0.540621
vn 0.8412663 0 0.540621
vn 0.8412663 0 0.540621
vn 0.8412097 0 0.540709
vn 0.8412097 0 0.540709
vn 0.8412097 0 0.540709
vn 0.8412097 0 0.540709
vn 0.8412971 0 0.540573
vn 0.8412971 0 0.540573
vn 0.8412971 0 0.540573
vn 0.8412971 0 0.540573
vn 0.8412971 0 0.540573
vn 0.8412971 0 0.540573
vn 0.8412971 0 0.540573
vn 0.540717 0 -0.8412046
vn 0.540717 0 -0.8412046
vn 0.540717 0 -0.8412046
vn 0.540717 0 -0.8412046
vn -0.8410028 0 -0.5410307
vn -0.8410028 0 -0.5410307
vn -0.8410028 0 -0.5410307
vn -0.8410028 0 -0.5410307
vn -0.8410028 0 -0.5410307
vn -0.8410028 0 -0.5410307
vn -0.8410028 3.349317E-10 -0.5410307
vn -0.8410028 3.349317E-10 -0.5410307
vn -0.8410028 3.349317E-10 -0.5410307
vn 0.5405451 0 -0.841315
vn 0.5405451 0 -0.841315
vn 0.5405451 0 -0.841315
vn 0.5405451 0 -0.841315
vn 0.5405451 0 -0.841315
vn 0.5405451 0 -0.841315
vn 0.5405451 0 -0.841315
vn 0.5406634 0 -0.841239
vn 0.5406634 0 -0.841239
vn 0.5406634 0 -0.841239
vn 0.5406634 0 -0.841239
vn -0.8411785 0 -0.5407576
vn -0.8411785 0 -0.5407576
vn -0.8411785 0 -0.5407576
vn -0.8411785 0 -0.5407576
vn -0.8411785 0 -0.5407576
vn -0.8411785 0 -0.5407576
vn -0.8411785 -1.914707E-10 -0.5407576
vn -0.8411785 -1.914707E-10 -0.5407576
vn -0.8411785 -1.914707E-10 -0.5407576
vn -0.8412535 0 -0.540641
vn -0.8412535 0 -0.540641
vn -0.8412535 0 -0.540641
vn -0.8412535 0 -0.540641
vn -0.8412535 0 -0.540641
vn -0.8412535 0 -0.540641
vn -0.8412535 1.601645E-12 -0.540641
vn -0.8412535 1.601645E-12 -0.540641
vn -0.8412535 1.601645E-12 -0.540641
vn -0.8412477 0 -0.54065
vn -0.8412477 0 -0.54065
vn -0.8412477 0 -0.54065
vn -0.8412477 0 -0.54065
vn -0.8412477 0 -0.54065
vn -0.8412477 0 -0.54065
vn -0.8412477 -4.999048E-10 -0.54065
vn -0.8412477 -4.999048E-10 -0.54065
vn -0.8412477 -4.999048E-10 -0.54065
vn -0.5405417 0 0.8413172
vn -0.5405417 0 0.8413172
vn -0.5405417 0 0.8413172
vn -0.5405417 0 0.8413172
vn -0.5405417 0 0.8413172
vn -0.5405417 0 0.8413172
vn -0.5405417 3.157665E-10 0.8413172
vn -0.5405417 3.157665E-10 0.8413172
vn -0.5405417 3.157665E-10 0.8413172
vn -0.5405063 0 0.84134
vn -0.5405063 0 0.84134
vn -0.5405063 0 0.84134
vn -0.5405063 0 0.8413399
vn -0.5405063 0 0.8413399
vn -0.5405063 0 0.8413399
vn -0.5405063 5.416045E-10 0.8413399
vn -0.5405063 5.416045E-10 0.8413399
vn -0.5405063 5.416045E-10 0.8413399
vn -0.5405063 0 0.8413399
vn -0.5405063 0 0.8413399
vn -0.5405063 0 0.8413399
vn -0.5406375 0 0.8412557
vn -0.5406375 0 0.8412557
vn -0.5406375 0 0.8412557
vn -0.5406375 0 0.8412557
vn -0.5406375 0 0.8412557
vn -0.5406375 0 0.8412557
vn -0.5410577 0 0.8409855
vn -0.5410577 0 0.8409855
vn -0.5410577 0 0.8409855
vn 0.9993283 0 -0.03664758
vn 0.9993283 0 -0.03664758
vn 0.9993283 0 -0.03664758
vn 0 -1 0
vn 0 -1 0
vn 0 -1 0
vn 0 -1 0
vn 0 -1 0
vn 0 -1 0
vn 0 -1 0
vn 0 -1 0
vn 0 -1 0
vn 0 -1 0
vn 0 -1 0
vn 0 -1 0
vn 0 -1 0
vn 0 -1 0
vn 0 -1 0
vn 0 -1 0
vn 0 -1 0
vn 0 -1 0

g CDNNDG02_0006450
f 4/4/4 1/1/1 2/2/2
f 3/3/3 4/4/4 2/2/2
f 8/8/8 5/5/5 6/6/6
f 7/7/7 8/8/8 6/6/6
f 12/12/12 9/9/9 10/10/10
f 11/11/11 12/12/12 10/10/10
f 16/16/16 13/13/13 14/14/14
f 15/15/15 16/16/16 14/14/14
f 17/17/17 18/18/18 19/19/19
f 20/20/20 21/21/21 22/22/22
f 23/23/23 24/24/24 25/25/25
f 26/26/26 27/27/27 28/28/28
f 29/29/29 30/30/30 31/31/31
f 32/32/32 33/33/33 34/34/34
f 35/35/35 36/36/36 37/37/37
f 38/38/38 39/39/39 40/40/40
f 41/41/41 42/42/42 43/43/43
f 44/44/44 45/45/45 46/46/46
f 47/47/47 48/48/48 49/49/49
f 50/50/50 51/51/51 52/52/52
f 53/53/53 54/54/54 55/55/55
f 56/56/56 57/57/57 58/58/58
f 59/59/59 60/60/60 61/61/61
f 63/63/63 64/64/64 65/65/65
f 62/62/62 63/63/63 65/65/65
f 66/66/66 67/67/67 68/68/68
f 69/69/69 70/70/70 71/71/71
f 72/72/72 73/73/73 74/74/74
f 75/75/75 76/76/76 77/77/77
f 78/78/78 79/79/79 80/80/80
f 81/81/81 82/82/82 83/83/83
f 84/84/84 85/85/85 86/86/86
f 87/87/87 88/88/88 89/89/89
f 90/90/90 91/91/91 92/92/92
f 93/93/93 94/94/94 95/95/95
f 96/96/96 97/97/97 98/98/98
f 99/99/99 100/100/100 101/101/101
f 102/102/102 103/103/103 104/104/104
f 105/105/105 106/106/106 107/107/107
f 108/108/108 109/109/109 110/110/110
f 111/111/111 112/112/112 113/113/113
f 114/114/114 115/115/115 116/116/116
f 117/117/117 118/118/118 119/119/119
f 120/120/120 121/121/121 122/122/122
f 123/123/123 124/124/124 125/125/125
f 126/126/126 127/127/127 128/128/128
f 130/130/130 131/131/131 129/129/129
f 129/129/129 131/131/131 132/132/132
f 133/133/133 134/134/134 135/135/135
f 136/136/136 138/138/138 139/139/139
f 136/136/136 137/137/137 138/138/138
f 140/140/140 142/142/142 143/143/143
f 140/140/140 141/141/141 142/142/142
f 145/145/145 146/146/146 147/147/147
f 144/144/144 145/145/145 147/147/147
f 148/148/148 149/149/149 150/150/150
f 153/153/153 154/154/154 152/152/152
f 151/151/151 152/152/152 154/154/154
f 155/155/155 156/156/156 157/157/157
f 158/158/158 159/159/159 160/160/160
f 161/161/161 162/162/162 163/163/163
f 166/166/166 167/167/167 165/165/165
f 164/164/164 165/165/165 167/167/167
f 168/168/168 169/169/169 170/170/170
f 172/172/172 173/173/173 174/174/174
f 171/171/171 172/172/172 174/174/174
f 175/175/175 176/176/176 177/177/177
f 178/178/178 179/179/179 180/180/180
f 181/181/181 182/182/182 183/183/183
f 184/184/184 185/185/185 186/186/186
f 187/187/187 188/188/188 189/189/189
f 190/190/190 191/191/191 192/192/192
f 193/193/193 194/194/194 195/195/195
f 196/196/196 197/197/197 198/198/198
f 199/199/199 200/200/200 201/201/201
f 202/202/202 203/203/203 204/204/204
f 205/205/205 206/206/206 207/207/207
f 208/208/208 209/209/209 210/210/210
f 211/211/211 212/212/212 213/213/213
f 214/214/214 215/215/215 216/216/216
f 217/217/217 218/218/218 219/219/219
f 220/220/220 221/221/221 222/222/222
f 223/223/223 224/224/224 225/225/225
f 226/226/226 227/227/227 228/228/228
f 229/229/229 230/230/230 231/231/231
f 232/232/232 233/233/233 234/234/234
f 252/252/252 250/250/250 251/251/251
f 252/252/252 235/235/235 250/250/250
f 239/239/239 240/240/240 238/238/238
f 250/250/250 235/235/235 249/249/249
f 240/240/240 237/237/237 238/238/238
f 249/249/249 235/235/235 246/246/246
f 240/240/240 245/245/245 237/237/237
f 248/248/248 249/249/249 246/246/246
f 244/244/244 245/245/245 240/240/240
f 247/247/247 248/248/248 246/246/246
f 244/244/244 241/241/241 243/243/243
f 240/240/240 241/241/241 244/244/244
f 241/241/241 242/242/242 243/243/243
f 246/246/246 235/235/235 236/236/236
f 245/245/245 246/246/246 236/236/236
f 237/237/237 245/245/245 236/236/236
