v -8.413894 7.299481 4.850281
v -1.290894 7.299481 -0.2637189
v -1.156506 7.299481 -0.4820992
v -8.413894 7.299481 4.850281
v -1.850894 7.299481 8.483281
v -1.290894 7.299481 -0.2637189
v -1.850894 7.299481 8.483281
v -0.8495157 7.299481 0.004041676
v -0.8508937 7.299481 0.006281107
v -1.850894 7.299481 8.483281
v -0.8508937 7.299481 0.006281107
v -1.290894 7.299481 -0.2637189
v 1.293106 7.299481 -0.9197189
v 8.804107 7.299481 -8.038719
v 6.721106 7.299481 -8.536719
v -8.413894 7.299481 4.850281
v -2.124894 7.299481 8.906281
v -1.850894 7.299481 8.483281
v -1.850894 7.299481 8.483281
v -0.6532557 7.299481 -0.3148807
v -0.8495157 7.299481 0.004041676
v -8.413894 7.299481 4.850281
v -1.156506 7.299481 -0.4820992
v -3.853894 7.299481 -2.221719
v -1.850894 7.299481 8.483281
v 0.5771062 7.299481 4.191281
v 0.002106243 7.299481 5.075281
v -1.850894 7.299481 8.483281
v 5.050106 7.299481 -2.462719
v 0.5771062 7.299481 4.191281
v -1.850894 7.299481 8.483281
v 0.002106243 7.299481 5.075281
v -0.5838441 7.299481 4.69382
v -0.2383181 7.299481 3.660429
v 0.5771062 7.299481 4.191281
v 4.614106 7.299481 -2.698719
v 5.050106 7.299481 -2.462719
v 8.804107 7.299481 -8.038719
v 5.246106 7.299481 -2.825719
v -1.850894 7.299481 8.483281
v 8.804107 7.299481 -8.038719
v 5.050106 7.299481 -2.462719
v 4.810106 7.299481 -3.061719
v 5.246106 7.299481 -2.825719
v 8.804107 7.299481 -8.038719
v 0.5771062 7.299481 4.191281
v 5.050106 7.299481 -2.462719
v 4.614106 7.299481 -2.698719
v -0.2383181 7.299481 3.660429
v 4.810106 7.299481 -3.061719
v 1.293106 7.299481 -0.9197189
v 1.293106 7.299481 -0.9197189
v 4.810106 7.299481 -3.061719
v 8.804107 7.299481 -8.038719
v -0.2383181 7.299481 3.660429
v 4.614106 7.299481 -2.698719
v 4.810106 7.299481 -3.061719
v -1.850894 7.299481 8.483281
v -0.5838441 7.299481 4.69382
v -0.9348937 7.299481 4.465281
v -1.850894 7.299481 8.483281
v -0.9348937 7.299481 4.465281
v -0.6532557 7.299481 -0.3148807
v -0.3598938 7.299481 3.581281
v -0.2383181 7.299481 3.660429
v 1.293106 7.299481 -0.9197189
v -0.9348937 7.299481 4.465281
v -0.3598938 7.299481 3.581281
v 1.293106 7.299481 -0.9197189
v -0.9348937 7.299481 4.465281
v 1.293106 7.299481 -0.9197189
v -0.6532557 7.299481 -0.3148807
v 6.721106 7.299481 -8.536719
v 8.804107 7.299481 -8.038719
v 7.106106 7.299481 -9.133718
v 0.4151062 7.299481 -3.501719
v 1.293106 7.299481 -0.9197189
v 6.721106 7.299481 -8.536719
v 0.4151062 7.299481 -3.501719
v 6.721106 7.299481 -8.536719
v 4.560106 7.299481 -9.929719
v -0.2268938 7.924481 4.352281
v 0.002106243 7.318481 5.075281
v 0.5771062 7.318481 4.191281
v -0.3598938 7.319481 3.581281
v -0.2268938 7.924481 4.352281
v 0.5771062 7.318481 4.191281
v -0.9348937 7.318481 4.465281
v 0.002106243 7.318481 5.075281
v -0.2268938 7.924481 4.352281
v -0.9348937 7.318481 4.465281
v -0.2268938 7.924481 4.352281
v -0.3598938 7.319481 3.581281
v 4.614106 8.004481 -2.698719
v 5.050106 8.003481 -2.462719
v 5.246106 8.003481 -2.825719
v 4.810106 8.004481 -3.061719
v -1.050894 8.106482 -0.6537189
v -0.6532557 8.106482 -0.3148807
v -0.6108938 8.106482 -0.3837189
v -1.290894 8.106482 -0.2637189
v -0.8508937 8.106482 0.006281107
v -0.6532557 8.106482 -0.3148807
v -1.156506 8.106482 -0.4820992
v -1.156506 8.106482 -0.4820992
v -0.6532557 8.106482 -0.3148807
v -1.050894 8.106482 -0.6537189
v -3.853894 7.299481 -2.221719
v -2.5052 -7.305055 -1.351909
v -3.853894 -7.305055 -2.221719
v -2.5052 -7.305055 -1.351909
v -1.156506 7.299481 -0.4820992
v -1.156506 -7.305055 -0.4820992
v -3.853894 7.299481 -2.221719
v -1.156506 7.299481 -0.4820992
v -2.5052 -7.305055 -1.351909
v -8.413894 7.299481 4.850281
v -3.853894 7.299481 -2.221719
v -3.853894 -7.305055 -2.221719
v -8.413894 -7.305055 4.850281
v -5.269394 -7.305055 6.878281
v -2.124894 -7.305055 8.906281
v -2.124894 7.299481 8.906281
v -8.413894 7.299481 4.850281
v -8.413894 -7.305055 4.850281
v -5.269394 -7.305055 6.878281
v -8.413894 7.299481 4.850281
v -5.269394 -7.305055 6.878281
v -2.124894 7.299481 8.906281
v -2.124894 -7.305055 8.906281
v -1.850894 -7.305055 8.483281
v -1.850894 7.299481 8.483281
v -2.124894 7.299481 8.906281
v -1.850894 -7.305055 8.483281
v 8.804107 -7.305055 -8.038719
v 8.804107 7.299481 -8.038719
v -1.850894 7.299481 8.483281
v 7.106106 7.299481 -9.133718
v 8.804107 7.299481 -8.038719
v 8.804107 -7.305055 -8.038719
v 7.106106 -7.305055 -9.133718
v 6.721106 7.299481 -8.536719
v 6.913606 -7.305055 -8.835218
v 6.721106 -7.305055 -8.536719
v 6.913606 -7.305055 -8.835218
v 7.106106 7.299481 -9.133718
v 7.106106 -7.305055 -9.133718
v 6.721106 7.299481 -8.536719
v 7.106106 7.299481 -9.133718
v 6.913606 -7.305055 -8.835218
v 4.560106 7.299481 -9.929719
v 5.640606 -7.305055 -9.233219
v 4.560106 -7.305055 -9.929719
v 5.640606 -7.305055 -9.233219
v 6.721106 7.299481 -8.536719
v 6.721106 -7.305055 -8.536719
v 4.560106 7.299481 -9.929719
v 6.721106 7.299481 -8.536719
v 5.640606 -7.305055 -9.233219
v 0.4151062 7.299481 -3.501719
v 4.560106 7.299481 -9.929719
v 4.560106 -7.305055 -9.929719
v 0.4151062 -7.305055 -3.501719
v 0.8541062 -7.305055 -2.210719
v 1.293106 -7.305055 -0.9197189
v 1.293106 7.299481 -0.9197189
v 0.4151062 7.299481 -3.501719
v 0.4151062 -7.305055 -3.501719
v 0.8541062 -7.305055 -2.210719
v 0.4151062 7.299481 -3.501719
v 0.8541062 -7.305055 -2.210719
v 1.293106 7.299481 -0.9197189
v -0.6532557 7.299481 -0.3148807
v 1.293106 7.299481 -0.9197189
v 1.293106 -7.305055 -0.9197189
v -0.6532557 -7.305055 -0.3148807
v 0.002106243 7.299481 5.075281
v 0.5771062 7.299481 4.191281
v 0.5771062 7.318481 4.191281
v 0.002106243 7.318481 5.075281
v -0.3598938 7.319481 3.581281
v -0.2383181 7.299481 3.660429
v -0.3598938 7.299481 3.581281
v -0.2383181 7.299481 3.660429
v 0.5771062 7.318481 4.191281
v 0.5771062 7.299481 4.191281
v -0.3598938 7.319481 3.581281
v 0.5771062 7.318481 4.191281
v -0.2383181 7.299481 3.660429
v -0.5838441 7.299481 4.69382
v 0.002106243 7.299481 5.075281
v 0.002106243 7.318481 5.075281
v -0.9348937 7.318481 4.465281
v -0.9348937 7.299481 4.465281
v -0.5838441 7.299481 4.69382
v -0.9348937 7.318481 4.465281
v -0.5838441 7.299481 4.69382
v 0.002106243 7.318481 5.075281
v -0.9348937 7.318481 4.465281
v -0.3598938 7.319481 3.581281
v -0.3598938 7.299481 3.581281
v -0.9348937 7.299481 4.465281
v 4.614106 7.299481 -2.698719
v 5.050106 7.299481 -2.462719
v 5.050106 8.003481 -2.462719
v 4.614106 8.004481 -2.698719
v 5.050106 7.299481 -2.462719
v 5.246106 7.299481 -2.825719
v 5.246106 8.003481 -2.825719
v 5.050106 8.003481 -2.462719
v 4.810106 8.004481 -3.061719
v 5.246106 8.003481 -2.825719
v 5.246106 7.299481 -2.825719
v 4.810106 7.299481 -3.061719
v 4.614106 8.004481 -2.698719
v 4.810106 8.004481 -3.061719
v 4.810106 7.299481 -3.061719
v 4.614106 7.299481 -2.698719
v -0.6532557 -7.305055 -0.3148807
v -0.6108938 -7.305055 -0.3837189
v -0.6108938 8.106482 -0.3837189
v -0.6532557 7.299481 -0.3148807
v -0.6532557 8.106482 -0.3148807
v -0.6532557 7.299481 -0.3148807
v -0.6108938 8.106482 -0.3837189
v -0.8495157 7.299481 0.004041676
v -0.6532557 7.299481 -0.3148807
v -0.6532557 8.106482 -0.3148807
v -0.8508937 8.106482 0.006281107
v -0.8508937 8.106482 0.006281107
v -0.8508937 7.299481 0.006281107
v -0.8495157 7.299481 0.004041676
v -1.050894 8.106482 -0.6537189
v -0.6108938 8.106482 -0.3837189
v -0.6108938 -7.305055 -0.3837189
v -1.050894 -7.305055 -0.6537189
v -1.156506 8.106482 -0.4820992
v -1.050894 8.106482 -0.6537189
v -1.156506 7.299481 -0.4820992
v -1.156506 7.299481 -0.4820992
v -1.050894 8.106482 -0.6537189
v -1.050894 -7.305055 -0.6537189
v -1.156506 -7.305055 -0.4820992
v -1.290894 8.106482 -0.2637189
v -1.156506 8.106482 -0.4820992
v -1.156506 7.299481 -0.4820992
v -1.290894 7.299481 -0.2637189
v -1.290894 7.299481 -0.2637189
v -0.8508937 7.299481 0.006281107
v -0.8508937 8.106482 0.006281107
v -1.290894 8.106482 -0.2637189
v -0.6108938 -7.305055 -0.3837189
v -0.6532557 -7.305055 -0.3148807
v 1.293106 -7.305055 -0.9197189
v 0.8541062 -7.305055 -2.210719
v 0.4151062 -7.305055 -3.501719
v 4.560106 -7.305055 -9.929719
v 5.640606 -7.305055 -9.233219
v 6.721106 -7.305055 -8.536719
v 6.913606 -7.305055 -8.835218
v 7.106106 -7.305055 -9.133718
v 8.804107 -7.305055 -8.038719
v -1.850894 -7.305055 8.483281
v -2.124894 -7.305055 8.906281
v -5.269394 -7.305055 6.878281
v -8.413894 -7.305055 4.850281
v -3.853894 -7.305055 -2.221719
v -2.5052 -7.305055 -1.351909
v -1.156506 -7.305055 -0.4820992
v -1.050894 -7.305055 -0.6537189
vt 0.141542 0.387052
vt 0.316284 0.227480
vt 0.323760 0.224464
vt 0.141542 0.387052
vt 0.016436 0.240420
vt 0.316284 0.227480
vt 0.016436 0.240420
vt 0.307067 0.217620
vt 0.306990 0.217651
vt 0.016436 0.240420
vt 0.306990 0.217651
vt 0.316284 0.227480
vt 0.338563 0.169646
vt 0.582042 0.001277
vt 0.599285 0.047855
vt 0.141542 0.387052
vt 0.001957 0.246569
vt 0.016436 0.240420
vt 0.016436 0.240420
vt 0.317985 0.213214
vt 0.307067 0.217620
vt 0.141542 0.387052
vt 0.323760 0.224464
vt 0.383624 0.284720
vt 0.016436 0.240420
vt 0.163386 0.185904
vt 0.133126 0.198808
vt 0.016436 0.240420
vt 0.391159 0.085525
vt 0.163386 0.185904
vt 0.016436 0.240420
vt 0.133126 0.198808
vt 0.146253 0.211898
vt 0.181655 0.204120
vt 0.163386 0.185904
vt 0.399287 0.095268
vt 0.391159 0.085525
vt 0.582042 0.001277
vt 0.403589 0.081123
vt 0.016436 0.240420
vt 0.582042 0.001277
vt 0.391159 0.085525
vt 0.411717 0.090866
vt 0.403589 0.081123
vt 0.582042 0.001277
vt 0.163386 0.185904
vt 0.391159 0.085525
vt 0.399287 0.095268
vt 0.181655 0.204120
vt 0.411717 0.090866
vt 0.338563 0.169646
vt 0.338563 0.169646
vt 0.411717 0.090866
vt 0.582042 0.001277
vt 0.181655 0.204120
vt 0.399287 0.095268
vt 0.411717 0.090866
vt 0.016436 0.240420
vt 0.146253 0.211898
vt 0.154118 0.219740
vt 0.016436 0.240420
vt 0.154118 0.219740
vt 0.317985 0.213214
vt 0.184378 0.206836
vt 0.181655 0.204120
vt 0.338563 0.169646
vt 0.154118 0.219740
vt 0.184378 0.206836
vt 0.338563 0.169646
vt 0.154118 0.219740
vt 0.338563 0.169646
vt 0.317985 0.213214
vt 0.599285 0.047855
vt 0.582042 0.001277
vt 0.619724 0.039214
vt 0.427161 0.189165
vt 0.338563 0.169646
vt 0.599285 0.047855
vt 0.427161 0.189165
vt 0.599285 0.047855
vt 0.647221 0.096134
vt 0.109644 0.924736
vt 0.088063 0.915697
vt 0.116768 0.904215
vt 0.146906 0.924199
vt 0.121331 0.924736
vt 0.128423 0.904215
vt 0.172532 0.924148
vt 0.152642 0.904215
vt 0.174841 0.905597
vt 0.228963 0.922693
vt 0.231308 0.904215
vt 0.257624 0.910241
vt 0.318570 0.917235
vt 0.311155 0.908267
vt 0.322499 0.904215
vt 0.329915 0.913183
vt 0.294815 0.913264
vt 0.284092 0.905090
vt 0.286261 0.904215
vt 0.282526 0.918224
vt 0.273973 0.909174
vt 0.284092 0.905090
vt 0.289407 0.915447
vt 0.289407 0.915447
vt 0.284092 0.905090
vt 0.294815 0.913264
vt 0.573728 0.870436
vt 0.573508 0.744853
vt 0.600584 0.774508
vt 0.573508 0.744853
vt 0.518591 0.810050
vt 0.546432 0.715198
vt 0.573728 0.870436
vt 0.518591 0.810050
vt 0.573508 0.744853
vt 0.001957 0.819771
vt 0.244779 0.715198
vt 0.268599 0.797785
vt 0.030213 0.900444
vt 0.716702 0.543528
vt 0.647166 0.474151
vt 0.616438 0.390805
vt 0.758097 0.532141
vt 0.786236 0.612902
vt 0.716702 0.543528
vt 0.758097 0.532141
vt 0.716702 0.543528
vt 0.616438 0.390805
vt 0.036067 0.616792
vt 0.050409 0.611125
vt 0.016560 0.706545
vt 0.001957 0.712315
vt 0.050409 0.611125
vt 0.610584 0.390805
vt 0.586918 0.482225
vt 0.016560 0.706545
vt 0.709494 0.844036
vt 0.675147 0.806082
vt 0.698097 0.715198
vt 0.731831 0.752475
vt 0.001957 0.912989
vt 0.030702 0.995110
vt 0.021047 0.999417
vt 0.030702 0.995110
vt 0.021625 0.904215
vt 0.040356 0.990803
vt 0.001957 0.912989
vt 0.021625 0.904215
vt 0.030702 0.995110
vt 0.648605 0.855316
vt 0.649064 0.738937
vt 0.670626 0.762676
vt 0.649064 0.738937
vt 0.604697 0.806976
vt 0.627502 0.715198
vt 0.648605 0.855316
vt 0.604697 0.806976
vt 0.649064 0.738937
vt 0.273973 0.810245
vt 0.494525 0.715198
vt 0.513516 0.801274
vt 0.296993 0.894581
vt 0.940719 0.808853
vt 0.897225 0.799447
vt 0.872798 0.715198
vt 0.961407 0.734361
vt 0.984214 0.818259
vt 0.940719 0.808853
vt 0.961407 0.734361
vt 0.940719 0.808853
vt 0.872798 0.715198
vt 0.735812 0.759168
vt 0.755359 0.715198
vt 0.779178 0.799643
vt 0.759988 0.842808
vt 0.381644 0.915157
vt 0.410349 0.904215
vt 0.410310 0.904328
vt 0.381605 0.915270
vt 0.198042 0.924248
vt 0.195745 0.921540
vt 0.198081 0.924123
vt 0.195745 0.921540
vt 0.180039 0.904333
vt 0.180077 0.904215
vt 0.198042 0.924248
vt 0.180039 0.904333
vt 0.195745 0.921540
vt 0.215909 0.916785
vt 0.203557 0.904320
vt 0.203523 0.904215
vt 0.223274 0.924148
vt 0.223309 0.924253
vt 0.215909 0.916785
vt 0.223274 0.924148
vt 0.215909 0.916785
vt 0.203523 0.904215
vt 0.348337 0.916289
vt 0.376998 0.904215
vt 0.377034 0.904322
vt 0.348372 0.916391
vt 0.269859 0.917172
vt 0.263170 0.908128
vt 0.262231 0.904215
vt 0.268924 0.913261
vt 0.416042 0.907732
vt 0.427009 0.904215
vt 0.425849 0.908136
vt 0.414873 0.911657
vt 0.305488 0.917416
vt 0.299413 0.908408
vt 0.300473 0.904215
vt 0.306544 0.913209
vt 0.432485 0.908109
vt 0.443493 0.904215
vt 0.444506 0.907875
vt 0.433508 0.911766
vt 0.865366 0.716065
vt 0.867603 0.715198
vt 0.838753 0.814770
vt 0.838012 0.810344
vt 0.836472 0.815653
vt 0.838012 0.810344
vt 0.838753 0.814770
vt 0.827457 0.814432
vt 0.838012 0.810344
vt 0.836472 0.815653
vt 0.825832 0.819775
vt 0.825832 0.819775
vt 0.827383 0.814461
vt 0.827457 0.814432
vt 0.793047 0.824644
vt 0.784736 0.814826
vt 0.813390 0.715198
vt 0.821545 0.724831
vt 0.052213 0.906624
vt 0.057874 0.904215
vt 0.053561 0.911306
vt 0.053561 0.911306
vt 0.057874 0.904215
vt 0.083034 0.992041
vt 0.077482 0.994403
vt 0.045010 0.909689
vt 0.052213 0.906624
vt 0.053561 0.911306
vt 0.046365 0.914368
vt 0.343786 0.917693
vt 0.335832 0.908573
vt 0.334638 0.904215
vt 0.342601 0.913344
vt 0.450098 0.904215
vt 0.450098 0.904215
vt 0.450098 0.904215
vt 0.450098 0.904215
vt 0.450098 0.904215
vt 0.450098 0.904215
vt 0.450098 0.904215
vt 0.450098 0.904215
vt 0.450098 0.904215
vt 0.450098 0.904215
vt 0.450098 0.904215
vt 0.450098 0.904215
vt 0.450098 0.904215
vt 0.450098 0.904215
vt 0.450098 0.904215
vt 0.450098 0.904215
vt 0.450098 0.904215
vt 0.450098 0.904215
vt 0.450098 0.904215
vn 0 1 0
vn 0 1 0
vn 0 1 0
vn 0 1 0
vn 0 1 0
vn 0 1 0
vn 0 1 0
vn 0 1 0
vn 0 1 0
vn 0 1 0
vn 0 1 0
vn 0 1 0
vn 0 1 0
vn 0 1 0
vn 0 1 0
vn 0 1 0
vn 0 1 0
vn 0 1 0
vn 0 1 0
vn 0 1 0
vn 0 1 0
vn 0 1 0
vn 0 1 0
vn 0 1 0
vn 0 1 0
vn 0 1 0
vn 0 1 0
vn 0 1 0
vn 0 1 0
vn 0 1 0
vn 0 1 0
vn 0 1 0
vn 0 1 0
vn 0 1 0
vn 0 1 0
vn 0 1 0
vn 0 1 0
vn 0 1 0
vn 0 1 0
vn 0 1 0
vn 0 1 0
vn 0 1 0
vn 0 1 0
vn 0 1 0
vn 0 1 0
vn 0 1 0
vn 0 1 0
vn 0 1 0
vn 0 1 0
vn 0 1 0
vn 0 1 0
vn 0 1 0
vn 0 1 0
vn 0 1 0
vn 0 1 0
vn 0 1 0
vn 0 1 0
vn 0 1 0
vn 0 1 0
vn 0 1 0
vn 0 1 0
vn 0 1 0
vn 0 1 0
vn 0 1 0
vn 0 1 0
vn 0 1 0
vn 0 1 0
vn 0 1 0
vn 0 1 0
vn 0 1 0
vn 0 1 0
vn 0 1 0
vn 0 1 0
vn 0 1 0
vn 0 1 0
vn 0 1 0
vn 0 1 0
vn 0 1 0
vn 0 1 0
vn 0 1 0
vn 0 1 0
vn 0.6025161 0.695257 0.3919081
vn 0.6025161 0.695257 0.3919081
vn 0.6025161 0.695257 0.3919081
vn 0.3965949 0.6877248 -0.6080683
vn 0.3965949 0.6877248 -0.6080683
vn 0.3965949 0.6877248 -0.6080683
vn -0.4273434 0.6216756 0.6564275
vn -0.4273434 0.6216756 0.6564275
vn -0.4273434 0.6216756 0.6564275
vn -0.630156 0.6599301 -0.4091401
vn -0.630156 0.6599301 -0.4091401
vn -0.630156 0.6599301 -0.4091401
vn 0.001774849 0.999998 0.0009583208
vn 0.001774849 0.999998 0.0009583208
vn 0.001774849 0.999998 0.0009583208
vn 0.001774849 0.999998 0.0009583208
vn 0 1 0
vn 0 1 0
vn 0 1 0
vn 0 1 0
vn 0 1 0
vn 0 1 0
vn 0 1 0
vn 0 1 0
vn 0 1 0
vn 0 1 0
vn 0.5419881 0 -0.8403862
vn 0.5419881 0 -0.8403862
vn 0.5419881 0 -0.8403862
vn 0.5419881 0 -0.8403862
vn 0.5419881 0 -0.8403862
vn 0.5419881 0 -0.8403862
vn 0.5419881 -4.548068E-10 -0.8403862
vn 0.5419881 -4.548068E-10 -0.8403862
vn 0.5419881 -4.548068E-10 -0.8403862
vn -0.8404363 0 -0.5419103
vn -0.8404363 0 -0.5419103
vn -0.8404363 0 -0.5419103
vn -0.8404363 0 -0.5419103
vn -0.541993 0 0.8403831
vn -0.541993 0 0.8403831
vn -0.541993 0 0.8403831
vn -0.541993 0 0.8403831
vn -0.541993 0 0.8403831
vn -0.541993 0 0.8403831
vn -0.541993 0 0.8403831
vn -0.541993 0 0.8403831
vn -0.541993 0 0.8403831
vn 0.8393039 0 0.5436625
vn 0.8393039 0 0.5436625
vn 0.8393039 0 0.5436625
vn 0.8393039 0 0.5436625
vn 0.8403975 0 0.5419704
vn 0.8403975 0 0.5419704
vn 0.8403975 0 0.5419704
vn 0.8403975 0 0.5419704
vn 0.5419577 0 -0.8404057
vn 0.5419577 0 -0.8404057
vn 0.5419577 0 -0.8404057
vn 0.5419577 0 -0.8404057
vn -0.8404 0 -0.5419666
vn -0.8404 0 -0.5419666
vn -0.8404 0 -0.5419666
vn -0.8404 0 -0.5419666
vn -0.8404 0 -0.5419666
vn -0.8404 0 -0.5419666
vn -0.8404 -1.728044E-11 -0.5419666
vn -0.8404 -1.728044E-11 -0.5419666
vn -0.8404 -1.728044E-11 -0.5419666
vn 0.5417991 0 -0.840508
vn 0.5417991 0 -0.840508
vn 0.5417991 0 -0.840508
vn 0.5417991 0 -0.840508
vn 0.5417991 0 -0.840508
vn 0.5417991 0 -0.840508
vn 0.5417991 -2.679935E-11 -0.840508
vn 0.5417991 -2.679935E-11 -0.840508
vn 0.5417991 -2.679935E-11 -0.840508
vn -0.8404215 0 -0.5419333
vn -0.8404215 0 -0.5419333
vn -0.8404215 0 -0.5419333
vn -0.8404215 0 -0.5419333
vn -0.9467593 0 0.3219422
vn -0.9467593 0 0.3219422
vn -0.9467593 0 0.3219422
vn -0.9467593 0 0.3219422
vn -0.9467593 0 0.3219422
vn -0.9467593 0 0.3219422
vn -0.9467593 0 0.3219422
vn -0.9467593 0 0.3219422
vn -0.9467593 0 0.3219422
vn -0.2967549 0 -0.9549537
vn -0.2967549 0 -0.9549537
vn -0.2967549 0 -0.9549537
vn -0.2967549 0 -0.9549537
vn 0.8382702 0 0.5452549
vn 0.8382702 0 0.5452549
vn 0.8382702 0 0.5452549
vn 0.8382702 0 0.5452549
vn 0.5455855 0 -0.8380551
vn 0.5455855 0 -0.8380551
vn 0.5455855 0 -0.8380551
vn 0.5455855 0 -0.8380551
vn 0.5455855 0 -0.8380551
vn 0.5455855 0 -0.8380551
vn 0.5455855 2.030083E-07 -0.8380551
vn 0.5455855 2.030083E-07 -0.8380551
vn 0.5455855 2.030083E-07 -0.8380551
vn -0.5455855 0 0.8380551
vn -0.5455855 0 0.8380551
vn -0.5455855 0 0.8380551
vn -0.5455855 0 0.8380551
vn -0.5455855 0 0.8380551
vn -0.5455855 0 0.8380551
vn -0.5455855 5.849886E-08 0.8380551
vn -0.5455855 5.849886E-08 0.8380551
vn -0.5455855 5.849886E-08 0.8380551
vn -0.8382702 0 -0.5452549
vn -0.8382702 0 -0.5452549
vn -0.8382702 0 -0.5452549
vn -0.8382702 0 -0.5452549
vn -0.4760232 0 0.8794327
vn -0.4760232 0 0.8794327
vn -0.4760232 0 0.8794327
vn -0.4760232 0 0.8794327
vn 0.8799257 0 0.4751114
vn 0.8799257 0 0.4751114
vn 0.8799257 0 0.4751114
vn 0.8799257 0 0.4751114
vn 0.4760232 0 -0.8794327
vn 0.4760232 0 -0.8794327
vn 0.4760232 0 -0.8794327
vn 0.4760232 0 -0.8794327
vn -0.8799257 0 -0.4751114
vn -0.8799257 0 -0.4751114
vn -0.8799257 0 -0.4751114
vn -0.8799257 0 -0.4751114
vn 0.8516583 0 0.5240974
vn 0.8516583 0 0.5240974
vn 0.8516583 0 0.5240974
vn 0.8516583 0 0.5240974
vn 0.8516583 0 0.5240974
vn 0.8516583 0 0.5240974
vn 0.8516583 0 0.5240974
vn 0.8516583 -5.142282E-10 0.5240974
vn 0.8516583 0 0.5240974
vn 0.8516583 -5.142282E-10 0.5240974
vn 0.8516583 -1.028456E-09 0.5240974
vn 0.8516585 0 0.5240971
vn 0.8516585 0 0.5240971
vn 0.8516585 0 0.5240971
vn 0.5230162 0 -0.8523228
vn 0.5230162 0 -0.8523228
vn 0.5230162 0 -0.8523228
vn 0.5230162 0 -0.8523228
vn -0.8516583 0 -0.5240974
vn -0.8516583 0 -0.5240974
vn -0.8516583 0 -0.5240974
vn -0.8516583 0 -0.5240974
vn -0.8516583 0 -0.5240974
vn -0.8516583 0 -0.5240974
vn -0.8516583 0 -0.5240974
vn -0.8516583 0 -0.5240974
vn -0.8516583 0 -0.5240974
vn -0.8516583 0 -0.5240974
vn -0.8516583 0 -0.5240974
vn -0.5230162 0 0.8523228
vn -0.5230162 0 0.8523228
vn -0.5230162 0 0.8523228
vn -0.5230162 0 0.8523228
vn 0 -1 0
vn 0 -1 0
vn 0 -1 0
vn 0 -1 0
vn 0 -1 0
vn 0 -1 0
vn 0 -1 0
vn 0 -1 0
vn 0 -1 0
vn 0 -1 0
vn 0 -1 0
vn 0 -1 0
vn 0 -1 0
vn 0 -1 0
vn 0 -1 0
vn 0 -1 0
vn 0 -1 0
vn 0 -1 0
vn 0 -1 0

g CDNNDG02_0009310
f 1/1/1 2/2/2 3/3/3
f 4/4/4 5/5/5 6/6/6
f 7/7/7 8/8/8 9/9/9
f 10/10/10 11/11/11 12/12/12
f 13/13/13 14/14/14 15/15/15
f 16/16/16 17/17/17 18/18/18
f 19/19/19 20/20/20 21/21/21
f 22/22/22 23/23/23 24/24/24
f 25/25/25 26/26/26 27/27/27
f 28/28/28 29/29/29 30/30/30
f 31/31/31 32/32/32 33/33/33
f 34/34/34 35/35/35 36/36/36
f 37/37/37 38/38/38 39/39/39
f 40/40/40 41/41/41 42/42/42
f 43/43/43 44/44/44 45/45/45
f 46/46/46 47/47/47 48/48/48
f 49/49/49 50/50/50 51/51/51
f 52/52/52 53/53/53 54/54/54
f 55/55/55 56/56/56 57/57/57
f 58/58/58 59/59/59 60/60/60
f 61/61/61 62/62/62 63/63/63
f 64/64/64 65/65/65 66/66/66
f 67/67/67 68/68/68 69/69/69
f 70/70/70 71/71/71 72/72/72
f 73/73/73 74/74/74 75/75/75
f 76/76/76 77/77/77 78/78/78
f 79/79/79 80/80/80 81/81/81
f 82/82/82 83/83/83 84/84/84
f 85/85/85 86/86/86 87/87/87
f 88/88/88 89/89/89 90/90/90
f 91/91/91 92/92/92 93/93/93
f 97/97/97 94/94/94 96/96/96
f 96/96/96 94/94/94 95/95/95
f 98/98/98 99/99/99 100/100/100
f 102/102/102 103/103/103 104/104/104
f 101/101/101 102/102/102 104/104/104
f 105/105/105 106/106/106 107/107/107
f 108/108/108 109/109/109 110/110/110
f 111/111/111 112/112/112 113/113/113
f 114/114/114 115/115/115 116/116/116
f 120/120/120 117/117/117 119/119/119
f 119/119/119 117/117/117 118/118/118
f 121/121/121 122/122/122 123/123/123
f 124/124/124 125/125/125 126/126/126
f 127/127/127 128/128/128 129/129/129
f 131/131/131 132/132/132 133/133/133
f 130/130/130 131/131/131 133/133/133
f 137/137/137 134/134/134 135/135/135
f 135/135/135 136/136/136 137/137/137
f 140/140/140 141/141/141 139/139/139
f 138/138/138 139/139/139 141/141/141
f 142/142/142 143/143/143 144/144/144
f 145/145/145 146/146/146 147/147/147
f 148/148/148 149/149/149 150/150/150
f 151/151/151 152/152/152 153/153/153
f 154/154/154 155/155/155 156/156/156
f 157/157/157 158/158/158 159/159/159
f 160/160/160 162/162/162 163/163/163
f 160/160/160 161/161/161 162/162/162
f 164/164/164 165/165/165 166/166/166
f 167/167/167 168/168/168 169/169/169
f 170/170/170 171/171/171 172/172/172
f 174/174/174 175/175/175 176/176/176
f 173/173/173 174/174/174 176/176/176
f 180/180/180 177/177/177 179/179/179
f 178/178/178 179/179/179 177/177/177
f 181/181/181 182/182/182 183/183/183
f 184/184/184 185/185/185 186/186/186
f 187/187/187 188/188/188 189/189/189
f 190/190/190 191/191/191 192/192/192
f 193/193/193 194/194/194 195/195/195
f 196/196/196 197/197/197 198/198/198
f 199/199/199 201/201/201 202/202/202
f 199/199/199 200/200/200 201/201/201
f 206/206/206 203/203/203 205/205/205
f 205/205/205 203/203/203 204/204/204
f 207/207/207 209/209/209 210/210/210
f 207/207/207 208/208/208 209/209/209
f 214/214/214 211/211/211 212/212/212
f 212/212/212 213/213/213 214/214/214
f 215/215/215 216/216/216 217/217/217
f 218/218/218 215/215/215 217/217/217
f 220/220/220 221/221/221 222/222/222
f 219/219/219 220/220/220 222/222/222
f 223/223/223 224/224/224 225/225/225
f 226/226/226 228/228/228 229/229/229
f 226/226/226 227/227/227 228/228/228
f 230/230/230 231/231/231 232/232/232
f 235/235/235 236/236/236 234/234/234
f 233/233/233 234/234/234 236/236/236
f 237/237/237 238/238/238 239/239/239
f 243/243/243 240/240/240 242/242/242
f 242/242/242 240/240/240 241/241/241
f 244/244/244 246/246/246 247/247/247
f 244/244/244 245/245/245 246/246/246
f 251/251/251 248/248/248 250/250/250
f 250/250/250 248/248/248 249/249/249
f 254/254/254 259/259/259 262/262/262
f 267/267/267 268/268/268 266/266/266
f 269/269/269 270/270/270 253/253/253
f 254/254/254 262/262/262 263/263/263
f 259/259/259 256/256/256 258/258/258
f 253/253/253 270/270/270 252/252/252
f 256/256/256 257/257/257 258/258/258
f 259/259/259 260/260/260 262/262/262
f 269/269/269 265/265/265 268/268/268
f 256/256/256 259/259/259 255/255/255
f 259/259/259 254/254/254 255/255/255
f 260/260/260 261/261/261 262/262/262
f 269/269/269 253/253/253 265/265/265
f 268/268/268 265/265/265 266/266/266
f 263/263/263 253/253/253 254/254/254
f 263/263/263 264/264/264 265/265/265
f 265/265/265 253/253/253 263/263/263
