v -3.007591 5.68048 -1.548132
v 2.423409 5.68048 0.3138677
v -2.46959 5.68048 -2.367132
v -2.46959 5.68048 -2.367132
v 2.423409 5.68048 0.3138677
v 4.818409 5.68048 -5.710132
v 0.3974095 5.68048 -6.731133
v 0.3974095 5.68048 -6.731133
v 4.818409 5.68048 -5.710132
v 0.9084095 5.68048 -7.510132
v -6.753591 5.68048 4.154868
v -0.4075905 5.68048 8.315867
v 2.423409 5.68048 0.3138677
v -3.007591 5.68048 -1.548132
v 0.9084095 5.68048 -7.510132
v 4.818409 5.68048 -5.710132
v 1.26141 5.68048 -8.046132
v -0.4075905 5.68048 8.315867
v 4.11741 5.68048 1.426868
v 2.423409 5.68048 0.3138677
v 2.423409 5.68048 0.3138677
v 5.90941 5.68048 -4.993132
v 4.818409 5.68048 -5.710132
v 1.26141 5.060481 -8.046132
v 5.53241 4.59948 -6.798132
v 1.97541 4.59948 -9.134132
v 1.26141 5.060481 -8.046132
v 4.818409 5.06248 -5.710132
v 5.53241 4.59948 -6.798132
v -6.753591 5.68048 4.154868
v -3.007591 5.68048 -1.548132
v -3.007591 -5.63829 -1.548132
v -6.753591 -5.63829 4.154868
v 0.9084095 5.68048 -7.510132
v 1.26141 5.060481 -8.046132
v 1.26141 -5.63829 -8.046132
v 0.9084095 -5.63829 -7.510132
v 0.9084095 5.68048 -7.510132
v 1.26141 5.68048 -8.046132
v 1.26141 5.060481 -8.046132
v 0.3974095 5.68048 -6.731133
v 0.9084095 5.68048 -7.510132
v 0.9084095 -5.63829 -7.510132
v 0.3974095 -5.63829 -6.731133
v -2.46959 5.68048 -2.367132
v 0.3974095 5.68048 -6.731133
v 0.3974095 -5.63829 -6.731133
v -2.46959 -5.63829 -2.367132
v -3.007591 5.68048 -1.548132
v -2.73859 -5.63829 -1.957632
v -3.007591 -5.63829 -1.548132
v -2.73859 -5.63829 -1.957632
v -2.46959 5.68048 -2.367132
v -2.46959 -5.63829 -2.367132
v -3.007591 5.68048 -1.548132
v -2.46959 5.68048 -2.367132
v -2.73859 -5.63829 -1.957632
v 1.26141 5.060481 -8.046132
v 1.97541 4.59948 -9.134132
v 1.97541 -5.63829 -9.134132
v 1.26141 -5.63829 -8.046132
v -6.753591 -5.63829 4.154868
v -0.4075905 -5.63829 8.315867
v -0.4075905 5.68048 8.315867
v -6.753591 5.68048 4.154868
v -0.4075905 -5.63829 8.315867
v 4.11741 -5.63829 1.426868
v 4.11741 5.68048 1.426868
v -0.4075905 5.68048 8.315867
v 2.423409 5.68048 0.3138677
v 4.11741 5.68048 1.426868
v 4.11741 -5.63829 1.426868
v 2.423409 -5.63829 0.3138677
v 4.166409 -5.63829 -2.339632
v 5.90941 -5.63829 -4.993132
v 5.90941 5.68048 -4.993132
v 2.423409 5.68048 0.3138677
v 2.423409 -5.63829 0.3138677
v 4.166409 -5.63829 -2.339632
v 2.423409 5.68048 0.3138677
v 4.166409 -5.63829 -2.339632
v 5.90941 5.68048 -4.993132
v 4.818409 5.68048 -5.710132
v 5.90941 5.68048 -4.993132
v 4.818409 5.06248 -5.710132
v 4.818409 5.06248 -5.710132
v 5.90941 5.68048 -4.993132
v 5.90941 -5.63829 -4.993132
v 4.818409 -5.63829 -5.710132
v 1.26141 5.68048 -8.046132
v 4.818409 5.68048 -5.710132
v 4.818409 5.06248 -5.710132
v 1.26141 5.060481 -8.046132
v 4.818409 -5.63829 -5.710132
v 5.53241 -5.63829 -6.798132
v 5.53241 4.59948 -6.798132
v 4.818409 5.06248 -5.710132
v 1.97541 4.59948 -9.134132
v 5.53241 4.59948 -6.798132
v 5.53241 -5.63829 -6.798132
v 1.97541 -5.63829 -9.134132
v -2.73859 -5.63829 -1.957632
v -2.46959 -5.63829 -2.367132
v 0.3974095 -5.63829 -6.731133
v 0.9084095 -5.63829 -7.510132
v 1.26141 -5.63829 -8.046132
v 1.97541 -5.63829 -9.134132
v 5.53241 -5.63829 -6.798132
v 4.818409 -5.63829 -5.710132
v 5.90941 -5.63829 -4.993132
v 4.166409 -5.63829 -2.339632
v 2.423409 -5.63829 0.3138677
v 4.11741 -5.63829 1.426868
v -0.4075905 -5.63829 8.315867
v -6.753591 -5.63829 4.154868
v -3.007591 -5.63829 -1.548132
vt 0.405383 0.277423
vt 0.327484 0.110685
vt 0.438573 0.260613
vt 0.438573 0.260613
vt 0.327484 0.110685
vt 0.572189 0.035151
vt 0.615428 0.171031
vt 0.615428 0.171031
vt 0.572189 0.035151
vt 0.646999 0.155064
vt 0.174279 0.394462
vt 0.002320 0.200223
vt 0.327484 0.110685
vt 0.405383 0.277423
vt 0.646999 0.155064
vt 0.572189 0.035151
vt 0.668721 0.144034
vt 0.002320 0.200223
vt 0.281489 0.058831
vt 0.327484 0.110685
vt 0.327484 0.110685
vt 0.542559 0.001754
vt 0.572189 0.035151
vt 0.791338 0.907072
vt 0.739936 0.775439
vt 0.832851 0.882317
vt 0.791338 0.907072
vt 0.698376 0.800148
vt 0.739936 0.775439
vt 0.042291 0.660052
vt 0.275454 0.542959
vt 0.232176 0.655044
vt 0.002320 0.770473
vt 0.519222 0.420544
vt 0.538527 0.415837
vt 0.494092 0.523490
vt 0.472486 0.534368
vt 0.519222 0.420544
vt 0.541139 0.409509
vt 0.538527 0.415837
vt 0.487371 0.436518
vt 0.519222 0.420544
vt 0.472486 0.534368
vt 0.441086 0.550116
vt 0.308940 0.526141
vt 0.487371 0.436518
vt 0.441086 0.550116
vt 0.265187 0.638465
vt 0.275454 0.542959
vt 0.248681 0.646754
vt 0.232176 0.655044
vt 0.248681 0.646754
vt 0.308940 0.526141
vt 0.265187 0.638465
vt 0.275454 0.542959
vt 0.308940 0.526141
vt 0.248681 0.646754
vt 0.538527 0.415837
vt 0.581013 0.398246
vt 0.537948 0.501486
vt 0.494092 0.523490
vt 0.755031 0.704623
vt 0.587007 0.511339
vt 0.624281 0.398246
vt 0.794721 0.594314
vt 0.002320 0.910950
vt 0.274466 0.775439
vt 0.308513 0.852466
vt 0.032523 0.989889
vt 0.914721 0.902984
vt 0.870912 0.852043
vt 0.837587 0.775439
vt 0.880786 0.825671
vt 0.417870 0.827563
vt 0.522518 0.775439
vt 0.560085 0.851594
vt 0.347835 0.957311
vt 0.313225 0.879685
vt 0.417870 0.827563
vt 0.347835 0.957311
vt 0.417870 0.827563
vt 0.560085 0.851594
vt 0.866476 0.507510
vt 0.837840 0.474518
vt 0.864386 0.503265
vt 0.864386 0.503265
vt 0.837840 0.474518
vt 0.800464 0.398246
vt 0.828701 0.430779
vt 0.959769 0.615072
vt 0.866476 0.507510
vt 0.864386 0.503265
vt 0.957600 0.610730
vt 0.921114 0.796597
vt 0.963150 0.775439
vt 0.997284 0.843744
vt 0.956251 0.868315
vt 0.693495 0.951573
vt 0.600666 0.844351
vt 0.566125 0.775439
vt 0.657786 0.881312
vt 0.002320 0.994737
vt 0.002320 0.994737
vt 0.002320 0.994737
vt 0.002320 0.994737
vt 0.002320 0.994737
vt 0.002320 0.994737
vt 0.002320 0.994737
vt 0.002320 0.994737
vt 0.002320 0.994737
vt 0.002320 0.994737
vt 0.002320 0.994737
vt 0.002320 0.994737
vt 0.002320 0.994737
vt 0.002320 0.994737
vt 0.002320 0.994737
vn 0 1 0
vn 0 1 0
vn 0 1 0
vn 0 1 0
vn 0 1 0
vn 0 1 0
vn 0 1 0
vn 0 1 0
vn 0 1 0
vn 0 1 0
vn 0 1 0
vn 0 1 0
vn 0 1 0
vn 0 1 0
vn 0 1 0
vn 0 1 0
vn 0 1 0
vn 0 1 0
vn 0 1 0
vn 0 1 0
vn 0 1 0
vn 0 1 0
vn 0 1 0
vn 0.1832974 0.9426041 -0.2791049
vn 0.1832974 0.9426041 -0.2791049
vn 0.1832974 0.9426041 -0.2791049
vn 0.1836333 0.9421474 -0.2804229
vn 0.1836333 0.9421474 -0.2804229
vn 0.1836333 0.9421474 -0.2804229
vn -0.8358188 0 -0.5490053
vn -0.8358188 0 -0.5490053
vn -0.8358188 0 -0.5490053
vn -0.8358188 0 -0.5490053
vn -0.8351534 0 -0.5500171
vn -0.8351534 0 -0.5500171
vn -0.8351534 0 -0.5500171
vn -0.8351534 0 -0.5500171
vn -0.8351534 0 -0.5500171
vn -0.8351534 0 -0.5500171
vn -0.8351534 0 -0.5500171
vn -0.8361556 0 -0.5484923
vn -0.8361556 0 -0.5484923
vn -0.8361556 0 -0.5484923
vn -0.8361556 0 -0.5484923
vn -0.8357733 0 -0.5490747
vn -0.8357733 0 -0.5490747
vn -0.8357733 0 -0.5490747
vn -0.8357733 0 -0.5490747
vn -0.8357992 0 -0.5490353
vn -0.8357992 0 -0.5490353
vn -0.8357992 0 -0.5490353
vn -0.8357992 0 -0.5490353
vn -0.8357992 0 -0.5490353
vn -0.8357992 0 -0.5490353
vn -0.8357992 -2.149079E-12 -0.5490353
vn -0.8357992 -2.149079E-12 -0.5490353
vn -0.8357992 -2.149079E-12 -0.5490353
vn -0.8360479 0 -0.5486565
vn -0.8360479 0 -0.5486565
vn -0.8360479 0 -0.5486565
vn -0.8360479 0 -0.5486565
vn -0.5483283 0 0.8362632
vn -0.5483283 0 0.8362632
vn -0.5483283 0 0.8362632
vn -0.5483283 0 0.8362632
vn 0.83582 0 0.5490035
vn 0.83582 0 0.5490035
vn 0.83582 0 0.5490035
vn 0.83582 0 0.5490035
vn 0.549109 0 -0.8357508
vn 0.549109 0 -0.8357508
vn 0.549109 0 -0.8357508
vn 0.549109 0 -0.8357508
vn 0.8358108 0 0.5490176
vn 0.8358108 0 0.5490176
vn 0.8358108 0 0.5490176
vn 0.8358108 0 0.5490176
vn 0.8358108 0 0.5490176
vn 0.8358108 0 0.5490176
vn 0.8358108 -2.149089E-12 0.5490176
vn 0.8358108 -2.149089E-12 0.5490176
vn 0.8358108 -2.149089E-12 0.5490176
vn 0.5492085 0 -0.8356854
vn 0.5492085 0 -0.8356854
vn 0.5492085 0 -0.8356854
vn 0.5492085 0 -0.8356854
vn 0.5492085 0 -0.8356854
vn 0.5492085 0 -0.8356854
vn 0.5492085 0 -0.8356854
vn 0.5489387 0 -0.8358626
vn 0.5489387 0 -0.8358626
vn 0.5489387 0 -0.8358626
vn 0.5489387 0 -0.8358626
vn 0.8360479 0 0.5486565
vn 0.8360479 0 0.5486565
vn 0.8360479 0 0.5486565
vn 0.8360479 0 0.5486565
vn 0.5489387 0 -0.8358626
vn 0.5489387 0 -0.8358626
vn 0.5489387 0 -0.8358626
vn 0.5489387 0 -0.8358626
vn 0 -1 0
vn 0 -1 0
vn 0 -1 0
vn 0 -1 0
vn 0 -1 0
vn 0 -1 0
vn 0 -1 0
vn 0 -1 0
vn 0 -1 0
vn 0 -1 0
vn 0 -1 0
vn 0 -1 0
vn 0 -1 0
vn 0 -1 0
vn 0 -1 0

g CDNNDG02_0010520
f 1/1/1 2/2/2 3/3/3
f 7/7/7 4/4/4 5/5/5
f 6/6/6 7/7/7 5/5/5
f 8/8/8 9/9/9 10/10/10
f 14/14/14 11/11/11 12/12/12
f 13/13/13 14/14/14 12/12/12
f 15/15/15 16/16/16 17/17/17
f 18/18/18 19/19/19 20/20/20
f 21/21/21 22/22/22 23/23/23
f 24/24/24 25/25/25 26/26/26
f 27/27/27 28/28/28 29/29/29
f 33/33/33 30/30/30 32/32/32
f 32/32/32 30/30/30 31/31/31
f 35/35/35 36/36/36 37/37/37
f 34/34/34 35/35/35 37/37/37
f 38/38/38 39/39/39 40/40/40
f 41/41/41 43/43/43 44/44/44
f 41/41/41 42/42/42 43/43/43
f 45/45/45 47/47/47 48/48/48
f 45/45/45 46/46/46 47/47/47
f 49/49/49 50/50/50 51/51/51
f 52/52/52 53/53/53 54/54/54
f 55/55/55 56/56/56 57/57/57
f 59/59/59 60/60/60 61/61/61
f 58/58/58 59/59/59 61/61/61
f 65/65/65 62/62/62 64/64/64
f 64/64/64 62/62/62 63/63/63
f 66/66/66 68/68/68 69/69/69
f 66/66/66 67/67/67 68/68/68
f 72/72/72 73/73/73 71/71/71
f 70/70/70 71/71/71 73/73/73
f 74/74/74 75/75/75 76/76/76
f 77/77/77 78/78/78 79/79/79
f 80/80/80 81/81/81 82/82/82
f 83/83/83 84/84/84 85/85/85
f 88/88/88 86/86/86 87/87/87
f 86/86/86 88/88/88 89/89/89
f 90/90/90 92/92/92 93/93/93
f 90/90/90 91/91/91 92/92/92
f 95/95/95 96/96/96 94/94/94
f 94/94/94 96/96/96 97/97/97
f 100/100/100 101/101/101 99/99/99
f 98/98/98 99/99/99 101/101/101
f 116/116/116 102/102/102 112/112/112
f 114/114/114 116/116/116 112/112/112
f 105/105/105 109/109/109 104/104/104
f 106/106/106 109/109/109 105/105/105
f 108/108/108 109/109/109 106/106/106
f 109/109/109 111/111/111 104/104/104
f 114/114/114 115/115/115 116/116/116
f 106/106/106 107/107/107 108/108/108
f 112/112/112 102/102/102 103/103/103
f 103/103/103 104/104/104 111/111/111
f 109/109/109 110/110/110 111/111/111
f 112/112/112 113/113/113 114/114/114
f 111/111/111 112/112/112 103/103/103
