v 7.997839 7.571325 0.7828208
v 8.192839 7.571325 0.08082074
v 7.808909 7.571325 0.6667884
v 8.361838 7.571325 0.1898207
v 7.121839 7.571325 0.2448207
v 7.808909 7.571325 0.6667884
v 7.499839 7.571325 -0.3711793
v 8.192839 7.571325 0.08082074
v -7.483161 6.686325 0.08282074
v 3.580839 6.686325 7.119821
v -7.319161 6.686325 -0.1691793
v -3.044161 6.686325 -6.730179
v -3.695161 6.686325 -7.155179
v -7.972161 6.686325 -0.5951793
v -7.319161 6.686325 -0.1691793
v -7.483161 6.686325 0.08282074
v -7.633161 6.686325 0.3118207
v 3.351839 6.686325 7.472821
v 3.580839 6.686325 7.119821
v -3.044161 6.686325 -6.730179
v 7.499839 6.686325 -0.3711793
v -2.807161 6.686325 -7.092179
v -7.319161 6.686325 -0.1691793
v 7.121839 6.686325 0.2448207
v -3.044161 6.686325 -6.730179
v -7.319161 6.686325 -0.1691793
v 3.580839 6.686325 7.119821
v 7.121839 6.686325 0.2448207
v -3.044161 6.686325 -6.730179
v 7.121839 6.686325 0.2448207
v 7.499839 6.686325 -0.3711793
v 3.580839 6.686325 7.119821
v 7.164019 6.686325 0.2707259
v 7.121839 6.686325 0.2448207
v 3.580839 6.686325 7.119821
v 7.808909 6.686325 0.6667884
v 7.164019 6.686325 0.2707259
v 7.808909 6.686325 0.6667884
v 7.808909 -6.691949 0.6667884
v 7.997839 -6.691949 0.7828208
v 7.997839 7.571325 0.7828208
v 7.808909 7.571325 0.6667884
v 7.808909 6.686325 0.6667884
v 7.997839 7.571325 0.7828208
v 7.164019 6.686325 0.2707259
v 7.808909 7.571325 0.6667884
v 7.121839 7.571325 0.2448207
v 7.808909 6.686325 0.6667884
v 7.121839 7.571325 0.2448207
v 7.121839 6.686325 0.2448207
v 7.164019 6.686325 0.2707259
v 8.361838 -6.691949 0.1898207
v 8.361838 7.571325 0.1898207
v 7.997839 -6.691949 0.7828208
v 7.997839 7.571325 0.7828208
v 8.192839 7.571325 0.08082074
v 8.361838 7.571325 0.1898207
v 8.192839 6.686325 0.08082074
v 8.192839 6.686325 0.08082074
v 8.361838 -6.691949 0.1898207
v 8.192839 -6.691949 0.08082074
v 8.361838 7.571325 0.1898207
v 8.192839 7.571325 0.08082074
v 8.192839 6.686325 0.08082074
v 7.499839 6.686325 -0.3711793
v 7.499839 7.571325 -0.3711793
v -2.807161 -6.691949 -7.092179
v -2.807161 6.686325 -7.092179
v 7.499839 6.686325 -0.3711793
v 7.499839 -6.691949 -0.3711793
v 8.192839 -6.691949 0.08082074
v 7.499839 6.686325 -0.3711793
v 8.192839 6.686325 0.08082074
v 7.499839 -6.691949 -0.3711793
v 7.121839 7.571325 0.2448207
v 7.499839 6.686325 -0.3711793
v 7.121839 6.686325 0.2448207
v 7.499839 7.571325 -0.3711793
v -7.483161 6.686325 0.08282074
v -7.319161 -6.691949 -0.1691793
v -7.483161 -6.691949 0.08282074
v -7.319161 6.686325 -0.1691793
v -7.633161 6.686325 0.3118207
v -7.558161 -6.691949 0.1973207
v -7.633161 -6.691949 0.3118207
v -7.558161 -6.691949 0.1973207
v -7.483161 6.686325 0.08282074
v -7.483161 -6.691949 0.08282074
v -7.633161 6.686325 0.3118207
v -7.483161 6.686325 0.08282074
v -7.558161 -6.691949 0.1973207
v -7.633161 -6.691949 0.3118207
v 3.351839 6.686325 7.472821
v -7.633161 6.686325 0.3118207
v 3.351839 -6.691949 7.472821
v 3.580839 -6.691949 7.119821
v 3.580839 6.686325 7.119821
v 3.351839 -6.691949 7.472821
v 3.351839 6.686325 7.472821
v 5.694874 -6.691949 3.893305
v 7.808909 -6.691949 0.6667884
v 7.808909 6.686325 0.6667884
v 3.580839 6.686325 7.119821
v 3.580839 -6.691949 7.119821
v 5.694874 -6.691949 3.893305
v 3.580839 6.686325 7.119821
v 5.694874 -6.691949 3.893305
v 7.808909 6.686325 0.6667884
v -3.044161 6.686325 -6.730179
v -2.925661 -6.691949 -6.911179
v -3.044161 -6.691949 -6.730179
v -2.925661 -6.691949 -6.911179
v -2.807161 6.686325 -7.092179
v -2.807161 -6.691949 -7.092179
v -3.044161 6.686325 -6.730179
v -2.807161 6.686325 -7.092179
v -2.925661 -6.691949 -6.911179
v -3.044161 -6.691949 -6.730179
v -3.695161 6.686325 -7.155179
v -3.044161 6.686325 -6.730179
v -3.695161 -6.691949 -7.155179
v -7.972161 -6.691949 -0.5951793
v -7.972161 6.686325 -0.5951793
v -3.695161 -6.691949 -7.155179
v -3.695161 6.686325 -7.155179
v -7.972161 -6.691949 -0.5951793
v -7.319161 6.686325 -0.1691793
v -7.972161 6.686325 -0.5951793
v -7.319161 -6.691949 -0.1691793
v -7.972161 -6.691949 -0.5951793
v -3.044161 -6.691949 -6.730179
v -7.319161 -6.691949 -0.1691793
v -7.558161 -6.691949 0.1973207
v -7.483161 -6.691949 0.08282074
v 3.351839 -6.691949 7.472821
v -7.633161 -6.691949 0.3118207
v -3.695161 -6.691949 -7.155179
v 3.580839 -6.691949 7.119821
v 5.694874 -6.691949 3.893305
v 7.808909 -6.691949 0.6667884
v 8.192839 -6.691949 0.08082074
v 7.997839 -6.691949 0.7828208
v 7.499839 -6.691949 -0.3711793
v -2.925661 -6.691949 -6.911179
v 8.361838 -6.691949 0.1898207
v -2.807161 -6.691949 -7.092179
vt 0.797980 0.966863
vt 0.821808 0.962114
vt 0.801979 0.971286
vt 0.818054 0.958159
vt 0.816521 0.987368
vt 0.801979 0.971286
vt 0.837374 0.978329
vt 0.821808 0.962114
vt 0.267759 0.376659
vt 0.014501 0.106710
vt 0.276668 0.372574
vt 0.508634 0.266097
vt 0.523923 0.281978
vt 0.291994 0.388503
vt 0.276668 0.372574
vt 0.267759 0.376659
vt 0.259663 0.380394
vt 0.002020 0.112415
vt 0.014501 0.106710
vt 0.508634 0.266097
vt 0.279626 0.008739
vt 0.521432 0.260194
vt 0.276668 0.372574
vt 0.257839 0.018164
vt 0.508634 0.266097
vt 0.276668 0.372574
vt 0.014501 0.106710
vt 0.257839 0.018164
vt 0.508634 0.266097
vt 0.257839 0.018164
vt 0.279626 0.008739
vt 0.014501 0.106710
vt 0.256906 0.017134
vt 0.257839 0.018164
vt 0.014501 0.106710
vt 0.242645 0.001395
vt 0.256906 0.017134
vt 0.136979 0.964964
vt 0.006093 0.999440
vt 0.002020 0.995036
vt 0.141647 0.958159
vt 0.145794 0.962642
vt 0.136979 0.964964
vt 0.141647 0.958159
vt 0.151116 0.980251
vt 0.145794 0.962642
vt 0.160872 0.978947
vt 0.136979 0.964964
vt 0.160872 0.978947
vt 0.152041 0.981251
vt 0.151116 0.980251
vt 0.398057 0.884240
vt 0.532264 0.941528
vt 0.377778 0.892792
vt 0.511623 0.950233
vt 0.473511 0.656251
vt 0.477165 0.660369
vt 0.458681 0.659706
vt 0.458681 0.659706
vt 0.241973 0.715074
vt 0.238383 0.711027
vt 0.477165 0.660369
vt 0.473511 0.656251
vt 0.458681 0.659706
vt 0.443541 0.642836
vt 0.458355 0.639362
vt 0.002020 0.447598
vt 0.218416 0.391911
vt 0.443541 0.642836
vt 0.223490 0.694432
vt 0.238383 0.711027
vt 0.443541 0.642836
vt 0.458681 0.659706
vt 0.223490 0.694432
vt 0.876974 0.960168
vt 0.842424 0.966095
vt 0.862933 0.958159
vt 0.856442 0.968113
vt 0.784544 0.988294
vt 0.557576 0.965183
vt 0.566219 0.961515
vt 0.775758 0.992023
vt 0.792529 0.984883
vt 0.570146 0.959837
vt 0.574074 0.958159
vt 0.570146 0.959837
vt 0.784544 0.988294
vt 0.566219 0.961515
vt 0.792529 0.984883
vt 0.784544 0.988294
vt 0.570146 0.959837
vt 0.735845 0.688753
vt 0.610677 0.391911
vt 0.867967 0.659597
vt 0.482828 0.425522
vt 0.014180 0.818793
vt 0.136852 0.875019
vt 0.002020 0.824238
vt 0.124489 0.880555
vt 0.125321 0.768533
vt 0.236465 0.718271
vt 0.362857 0.772818
vt 0.136852 0.875019
vt 0.014180 0.818793
vt 0.125321 0.768533
vt 0.136852 0.875019
vt 0.125321 0.768533
vt 0.362857 0.772818
vt 0.552055 0.986580
vt 0.331459 0.960810
vt 0.337665 0.958159
vt 0.331459 0.960810
vt 0.539437 0.991969
vt 0.325253 0.963461
vt 0.552055 0.986580
vt 0.539437 0.991969
vt 0.331459 0.960810
vt 0.015963 0.954792
vt 0.217421 0.884240
vt 0.231594 0.899852
vt 0.002020 0.939434
vt 0.593571 0.718271
vt 0.812391 0.745629
vt 0.367677 0.816705
vt 0.582756 0.845691
vt 0.768460 0.928015
vt 0.884835 0.884240
vt 0.900012 0.899742
vt 0.753535 0.912771
vt 0.882828 0.958159
vt 0.882828 0.958159
vt 0.882828 0.958159
vt 0.882828 0.958159
vt 0.882828 0.958159
vt 0.882828 0.958159
vt 0.882828 0.958159
vt 0.882828 0.958159
vt 0.882828 0.958159
vt 0.882828 0.958159
vt 0.882828 0.958159
vt 0.882828 0.958159
vt 0.882828 0.958159
vt 0.882828 0.958159
vt 0.882828 0.958159
vt 0.882828 0.958159
vt 0.882828 0.958159
vn 0 1 0
vn 0 1 0
vn 0 1 0
vn 0 1 0
vn 0 1 0
vn 0 1 0
vn 0 1 0
vn 0 1 0
vn 0 1 0
vn 0 1 0
vn 0 1 0
vn 0 1 0
vn 0 1 0
vn 0 1 0
vn 0 1 0
vn 0 1 0
vn 0 1 0
vn 0 1 0
vn 0 1 0
vn 0 1 0
vn 0 1 0
vn 0 1 0
vn 0 1 0
vn 0 1 0
vn 0 1 0
vn 0 1 0
vn 0 1 0
vn 0 1 0
vn 0 1 0
vn 0 1 0
vn 0 1 0
vn 0 1 0
vn 0 1 0
vn 0 1 0
vn 0 1 0
vn 0 1 0
vn 0 1 0
vn -0.5233374 0 0.8521256
vn -0.5233374 0 0.8521256
vn -0.5233374 0 0.8521256
vn -0.5233374 0 0.8521256
vn -0.5233374 0 0.8521256
vn -0.5233374 0 0.8521256
vn -0.5233374 0 0.8521256
vn -0.5233374 -1.185759E-09 0.8521256
vn -0.5233374 -1.185759E-09 0.8521256
vn -0.5233374 -2.371518E-09 0.8521256
vn -0.5233374 0 0.8521256
vn -0.5233374 0 0.8521256
vn -0.5233374 0 0.8521256
vn -0.5233374 0 0.8521256
vn 0.8522499 0 0.5231348
vn 0.8522499 0 0.5231348
vn 0.8522499 0 0.5231348
vn 0.8522499 0 0.5231348
vn 0.5420136 0 -0.8403697
vn 0.5420136 0 -0.8403697
vn 0.5420136 0 -0.8403697
vn 0.5420136 0 -0.8403697
vn 0.5420136 0 -0.8403697
vn 0.5420136 0 -0.8403697
vn 0.5420136 0 -0.8403697
vn 0.5463046 0 -0.8375865
vn 0.5463046 0 -0.8375865
vn 0.5463046 0 -0.8375865
vn 0.5463046 0 -0.8375865
vn 0.5462133 0 -0.8376462
vn 0.5462133 0 -0.8376462
vn 0.5462133 0 -0.8376462
vn 0.5462133 0 -0.8376462
vn 0.5463046 0 -0.8375865
vn 0.5463046 0 -0.8375865
vn 0.5463046 0 -0.8375865
vn 0.5463046 0 -0.8375865
vn -0.8523228 0 -0.5230162
vn -0.8523228 0 -0.5230162
vn -0.8523228 0 -0.5230162
vn -0.8523228 0 -0.5230162
vn -0.8381395 0 -0.5454559
vn -0.8381395 0 -0.5454559
vn -0.8381395 0 -0.5454559
vn -0.8381395 0 -0.5454559
vn -0.8365189 0 -0.5479381
vn -0.8365189 0 -0.5479381
vn -0.8365189 0 -0.5479381
vn -0.8365189 0 -0.5479381
vn -0.8365189 0 -0.5479381
vn -0.8365189 0 -0.5479381
vn -0.8365189 1.907223E-11 -0.5479381
vn -0.8365189 1.907223E-11 -0.5479381
vn -0.8365189 1.907223E-11 -0.5479381
vn -0.5461003 0 0.8377198
vn -0.5461003 0 0.8377198
vn -0.5461003 0 0.8377198
vn -0.5461003 0 0.8377198
vn 0.838932 0 0.5442363
vn 0.838932 0 0.5442363
vn 0.838932 0 0.5442363
vn 0.838932 0 0.5442363
vn 0.836448 0 0.5480464
vn 0.836448 0 0.5480464
vn 0.836448 0 0.5480464
vn 0.836448 0 0.5480464
vn 0.836448 0 0.5480464
vn 0.836448 0 0.5480464
vn 0.836448 -3.129806E-10 0.5480464
vn 0.836448 -3.129806E-10 0.5480464
vn 0.836448 -3.129806E-10 0.5480464
vn -0.8366438 0 -0.5477474
vn -0.8366438 0 -0.5477474
vn -0.8366438 0 -0.5477474
vn -0.8366438 0 -0.5477474
vn -0.8366438 0 -0.5477474
vn -0.8366438 0 -0.5477474
vn -0.8366438 -2.088568E-11 -0.5477474
vn -0.8366438 -2.088568E-11 -0.5477474
vn -0.8366438 -2.088568E-11 -0.5477474
vn 0.5466601 0 -0.8373546
vn 0.5466601 0 -0.8373546
vn 0.5466601 0 -0.8373546
vn 0.5466601 0 -0.8373546
vn -0.8376843 0 -0.5461548
vn -0.8376843 0 -0.5461548
vn -0.8376843 0 -0.5461548
vn -0.8376843 0 -0.5461548
vn -0.5463852 0 0.837534
vn -0.5463852 0 0.837534
vn -0.5463852 0 0.837534
vn -0.5463852 0 0.837534
vn 0 -1 0
vn 0 -1 0
vn 0 -1 0
vn 0 -1 0
vn 0 -1 0
vn 0 -1 0
vn 0 -1 0
vn 0 -1 0
vn 0 -1 0
vn 0 -1 0
vn 0 -1 0
vn 0 -1 0
vn 0 -1 0
vn 0 -1 0
vn 0 -1 0
vn 0 -1 0
vn 0 -1 0

g CDNNDG02_0018270
f 1/1/1 2/2/2 3/3/3
f 1/1/1 4/4/4 2/2/2
f 5/5/5 6/6/6 7/7/7
f 8/8/8 7/7/7 6/6/6
f 9/9/9 10/10/10 11/11/11
f 12/12/12 13/13/13 14/14/14
f 15/15/15 12/12/12 14/14/14
f 16/16/16 17/17/17 18/18/18
f 19/19/19 16/16/16 18/18/18
f 20/20/20 21/21/21 22/22/22
f 23/23/23 24/24/24 25/25/25
f 26/26/26 27/27/27 28/28/28
f 29/29/29 30/30/30 31/31/31
f 32/32/32 33/33/33 34/34/34
f 35/35/35 36/36/36 37/37/37
f 38/38/38 39/39/39 40/40/40
f 41/41/41 38/38/38 40/40/40
f 42/42/42 43/43/43 44/44/44
f 45/45/45 46/46/46 47/47/47
f 46/46/46 45/45/45 48/48/48
f 49/49/49 50/50/50 51/51/51
f 52/52/52 53/53/53 54/54/54
f 54/54/54 53/53/53 55/55/55
f 56/56/56 57/57/57 58/58/58
f 59/59/59 60/60/60 61/61/61
f 60/60/60 59/59/59 62/62/62
f 63/63/63 64/64/64 65/65/65
f 66/66/66 63/63/63 65/65/65
f 67/67/67 68/68/68 69/69/69
f 69/69/69 70/70/70 67/67/67
f 71/71/71 72/72/72 73/73/73
f 72/72/72 71/71/71 74/74/74
f 75/75/75 76/76/76 77/77/77
f 75/75/75 78/78/78 76/76/76
f 79/79/79 80/80/80 81/81/81
f 79/79/79 82/82/82 80/80/80
f 83/83/83 84/84/84 85/85/85
f 86/86/86 87/87/87 88/88/88
f 89/89/89 90/90/90 91/91/91
f 92/92/92 93/93/93 94/94/94
f 93/93/93 92/92/92 95/95/95
f 96/96/96 97/97/97 98/98/98
f 98/98/98 97/97/97 99/99/99
f 100/100/100 101/101/101 102/102/102
f 103/103/103 104/104/104 105/105/105
f 106/106/106 107/107/107 108/108/108
f 109/109/109 110/110/110 111/111/111
f 112/112/112 113/113/113 114/114/114
f 115/115/115 116/116/116 117/117/117
f 118/118/118 119/119/119 120/120/120
f 119/119/119 118/118/118 121/121/121
f 122/122/122 123/123/123 124/124/124
f 124/124/124 123/123/123 125/125/125
f 126/126/126 127/127/127 128/128/128
f 127/127/127 126/126/126 129/129/129
f 130/130/130 131/131/131 132/132/132
f 133/133/133 134/134/134 135/135/135
f 136/136/136 133/133/133 135/135/135
f 130/130/130 137/137/137 131/131/131
f 134/134/134 138/138/138 135/135/135
f 134/134/134 132/132/132 138/138/138
f 132/132/132 139/139/139 138/138/138
f 140/140/140 141/141/141 142/142/142
f 132/132/132 131/131/131 139/139/139
f 139/139/139 143/143/143 140/140/140
f 131/131/131 144/144/144 143/143/143
f 142/142/142 141/141/141 145/145/145
f 143/143/143 141/141/141 140/140/140
f 131/131/131 143/143/143 139/139/139
f 144/144/144 146/146/146 143/143/143
