v -7.09874 5.140221 6.20182
v -1.94674 5.140221 9.44982
v -2.34774 5.140221 -1.32618
v -3.46674 5.140221 -2.03218
v -2.34774 5.140221 -1.32618
v 0.6842601 5.140221 -8.60818
v 1.686517 5.140221 0.02163363
v 6.82026 5.140221 -4.44118
v 2.081272 5.140221 -0.5835196
v -1.94674 5.140221 9.44982
v 6.82026 5.140221 -4.44118
v 1.686517 5.140221 0.02163363
v -1.94674 5.140221 9.44982
v 1.686517 5.140221 0.02163363
v 1.045041 5.140221 -0.3957371
v -2.34774 5.140221 -1.32618
v 1.438809 5.140221 -1.003322
v 6.82026 5.140221 -4.44118
v -2.34774 5.140221 -1.32618
v -1.94674 5.140221 9.44982
v 1.045041 5.140221 -0.3957371
v -2.34774 5.140221 -1.32618
v 1.045041 5.140221 -0.3957371
v 1.438809 5.140221 -1.003322
v 1.438809 5.140221 -1.003322
v 2.081272 5.140221 -0.5835196
v 6.82026 5.140221 -4.44118
v 0.6842601 5.140221 -8.60818
v 6.82026 5.140221 -4.44118
v 6.97426 5.140221 -4.68518
v -2.34774 5.140221 -1.32618
v 6.82026 5.140221 -4.44118
v 0.6842601 5.140221 -8.60818
v 0.6842601 5.140221 -8.60818
v 6.97426 5.140221 -4.68518
v 0.7052601 5.140221 -8.64218
v 1.53026 5.556221 -0.4731802
v 1.686517 5.140221 0.02163363
v 2.081272 5.140221 -0.5835196
v 1.438809 5.140221 -1.003322
v 1.53026 5.556221 -0.4731802
v 2.081272 5.140221 -0.5835196
v 1.045041 5.140221 -0.3957371
v 1.686517 5.140221 0.02163363
v 1.53026 5.556221 -0.4731802
v 1.045041 5.140221 -0.3957371
v 1.53026 5.556221 -0.4731802
v 1.438809 5.140221 -1.003322
v 0.7052601 6.702554 -8.64218
v 6.97426 6.703992 -4.68518
v 7.09026 6.703496 -4.86918
v 0.7052601 6.702554 -8.64218
v 7.09026 6.703496 -4.86918
v 0.9172601 6.702554 -8.97718
v 0.9172601 6.702554 -8.97718
v 7.09026 6.703496 -4.86918
v 7.20826 6.702992 -5.05518
v 0.9172601 6.702554 -8.97718
v 7.20826 6.702992 -5.05518
v 0.9392601 6.701992 -9.01218
v -7.09874 5.140221 6.20182
v -2.34774 5.140221 -1.32618
v -2.34774 -5.191279 -1.32618
v -7.09874 -5.191279 6.20182
v -7.09874 -5.191279 6.20182
v -1.94674 -5.191279 9.44982
v -1.94674 5.140221 9.44982
v -7.09874 5.140221 6.20182
v 2.43676 -5.191279 2.50432
v 6.82026 -5.191279 -4.44118
v 6.82026 5.140221 -4.44118
v -1.94674 5.140221 9.44982
v -1.94674 -5.191279 9.44982
v 2.43676 -5.191279 2.50432
v -1.94674 5.140221 9.44982
v 2.43676 -5.191279 2.50432
v 6.82026 5.140221 -4.44118
v 6.89726 -5.191279 -4.56318
v 6.97426 -5.191279 -4.68518
v 6.97426 5.140221 -4.68518
v 6.82026 5.140221 -4.44118
v 6.82026 -5.191279 -4.44118
v 6.89726 -5.191279 -4.56318
v 6.82026 5.140221 -4.44118
v 6.89726 -5.191279 -4.56318
v 6.97426 5.140221 -4.68518
v 6.97426 -5.191279 -4.68518
v 7.09026 -5.191279 -4.86918
v 7.09026 5.140221 -4.86918
v 6.97426 5.140221 -4.68518
v 7.09026 -5.191279 -4.86918
v 7.20826 -5.191279 -5.05518
v 7.20826 5.140221 -5.05518
v 7.09026 5.140221 -4.86918
v 6.97426 5.140221 -4.68518
v 7.09026 5.140221 -4.86918
v 7.09026 6.703496 -4.86918
v 6.97426 6.703992 -4.68518
v 7.09026 5.140221 -4.86918
v 7.20826 5.140221 -5.05518
v 7.20826 6.702992 -5.05518
v 7.09026 6.703496 -4.86918
v 0.9392601 5.140221 -9.01218
v 7.20826 5.140221 -5.05518
v 7.20826 -5.191279 -5.05518
v 0.9392601 -5.191279 -9.01218
v 0.9392601 6.701992 -9.01218
v 7.20826 6.702992 -5.05518
v 7.20826 5.140221 -5.05518
v 0.9392601 5.140221 -9.01218
v 0.9172601 5.140221 -8.97718
v 0.9392601 5.140221 -9.01218
v 0.9392601 -5.191279 -9.01218
v 0.9172601 -5.191279 -8.97718
v 0.7052601 5.140221 -8.64218
v 0.8112601 -5.191279 -8.80968
v 0.7052601 -5.191279 -8.64218
v 0.8112601 -5.191279 -8.80968
v 0.9172601 5.140221 -8.97718
v 0.9172601 -5.191279 -8.97718
v 0.7052601 5.140221 -8.64218
v 0.9172601 5.140221 -8.97718
v 0.8112601 -5.191279 -8.80968
v 0.6842601 5.140221 -8.60818
v 0.7052601 5.140221 -8.64218
v 0.7052601 -5.191279 -8.64218
v 0.6842601 -5.191279 -8.60818
v -3.46674 5.140221 -2.03218
v 0.6842601 5.140221 -8.60818
v 0.6842601 -5.191279 -8.60818
v -3.46674 -5.191279 -2.03218
v 0.9172601 6.702554 -8.97718
v 0.9392601 6.701992 -9.01218
v 0.9392601 5.140221 -9.01218
v 0.9172601 5.140221 -8.97718
v 0.7052601 6.702554 -8.64218
v 0.9172601 6.702554 -8.97718
v 0.9172601 5.140221 -8.97718
v 0.7052601 5.140221 -8.64218
v -3.46674 -5.191279 -2.03218
v -2.34774 -5.191279 -1.32618
v -2.34774 5.140221 -1.32618
v -3.46674 5.140221 -2.03218
v 0.7052601 5.140221 -8.64218
v 6.97426 5.140221 -4.68518
v 6.97426 6.703992 -4.68518
v 0.7052601 6.702554 -8.64218
v -2.34774 -5.191279 -1.32618
v -3.46674 -5.191279 -2.03218
v 0.6842601 -5.191279 -8.60818
v 0.7052601 -5.191279 -8.64218
v 0.8112601 -5.191279 -8.80968
v 0.9172601 -5.191279 -8.97718
v 0.9392601 -5.191279 -9.01218
v 7.20826 -5.191279 -5.05518
v 7.09026 -5.191279 -4.86918
v 6.97426 -5.191279 -4.68518
v 6.89726 -5.191279 -4.56318
v 6.82026 -5.191279 -4.44118
v 2.43676 -5.191279 2.50432
v -1.94674 -5.191279 9.44982
v -7.09874 -5.191279 6.20182
vt 0.114470 0.342194
vt 0.002105 0.212160
vt 0.393391 0.229982
vt 0.417814 0.258226
vt 0.393391 0.229982
vt 0.661476 0.160180
vt 0.348871 0.129028
vt 0.516808 0.005075
vt 0.371308 0.119689
vt 0.002105 0.212160
vt 0.516808 0.005075
vt 0.348871 0.129028
vt 0.002105 0.212160
vt 0.348871 0.129028
vt 0.363332 0.145230
vt 0.393391 0.229982
vt 0.385856 0.135917
vt 0.516808 0.005075
vt 0.393391 0.229982
vt 0.002105 0.212160
vt 0.363332 0.145230
vt 0.393391 0.229982
vt 0.363332 0.145230
vt 0.385856 0.135917
vt 0.385856 0.135917
vt 0.371308 0.119689
vt 0.516808 0.005075
vt 0.661476 0.160180
vt 0.516808 0.005075
vt 0.525850 0.001437
vt 0.393391 0.229982
vt 0.516808 0.005075
vt 0.661476 0.160180
vt 0.661476 0.160180
vt 0.525850 0.001437
vt 0.662735 0.159684
vt 0.477637 0.848910
vt 0.458947 0.841857
vt 0.479301 0.833333
vt 0.429020 0.848177
vt 0.414737 0.848910
vt 0.416339 0.833333
vt 0.447713 0.848140
vt 0.433684 0.833333
vt 0.452855 0.834772
vt 0.484211 0.846591
vt 0.489353 0.833333
vt 0.504581 0.837533
vt 0.297773 0.996683
vt 0.162105 0.838849
vt 0.168860 0.836115
vt 0.297773 0.996683
vt 0.168860 0.836115
vt 0.310077 0.991688
vt 0.310077 0.991688
vt 0.168860 0.836115
vt 0.175688 0.833333
vt 0.310077 0.991688
vt 0.175688 0.833333
vt 0.311358 0.991169
vt 0.596054 0.765787
vt 0.871975 0.646552
vt 0.802911 0.702262
vt 0.530526 0.819969
vt 0.119320 0.829481
vt 0.002105 0.702408
vt 0.065767 0.646552
vt 0.184500 0.775275
vt 0.254791 0.456538
vt 0.507489 0.355232
vt 0.577634 0.438026
vt 0.065801 0.643214
vt 0.002105 0.557840
vt 0.254791 0.456538
vt 0.065801 0.643214
vt 0.254791 0.456538
vt 0.577634 0.438026
vt 0.511928 0.353453
vt 0.516367 0.351673
vt 0.586625 0.434422
vt 0.577634 0.438026
vt 0.507489 0.355232
vt 0.511928 0.353453
vt 0.577634 0.438026
vt 0.511928 0.353453
vt 0.586625 0.434422
vt 0.516367 0.351673
vt 0.523061 0.348992
vt 0.593405 0.431707
vt 0.586625 0.434422
vt 0.523061 0.348992
vt 0.529829 0.346264
vt 0.600259 0.428945
vt 0.593405 0.431707
vt 0.586625 0.434422
vt 0.593405 0.431707
vt 0.604205 0.444407
vt 0.597416 0.447131
vt 0.593405 0.431707
vt 0.600259 0.428945
vt 0.611069 0.441635
vt 0.604205 0.444407
vt 0.821886 0.585888
vt 0.686835 0.428875
vt 0.616842 0.346264
vt 0.750194 0.501304
vt 0.832882 0.598863
vt 0.697579 0.441554
vt 0.686835 0.428875
vt 0.821886 0.585888
vt 0.513402 0.655815
vt 0.514684 0.655263
vt 0.442017 0.712037
vt 0.440751 0.712582
vt 0.501123 0.661136
vt 0.434691 0.715208
vt 0.428630 0.717835
vt 0.434691 0.715208
vt 0.513402 0.655815
vt 0.440751 0.712582
vt 0.501123 0.661136
vt 0.513402 0.655815
vt 0.434691 0.715208
vt 0.499877 0.661663
vt 0.501123 0.661136
vt 0.428630 0.717835
vt 0.427400 0.718355
vt 0.258861 0.765853
vt 0.499877 0.661663
vt 0.427400 0.718355
vt 0.189474 0.821209
vt 0.524552 0.647102
vt 0.525833 0.646552
vt 0.514684 0.655263
vt 0.513402 0.655815
vt 0.512250 0.652434
vt 0.524552 0.647102
vt 0.513402 0.655815
vt 0.501123 0.661136
vt 0.340999 0.915897
vt 0.315789 0.888552
vt 0.383766 0.833333
vt 0.409302 0.861033
vt 0.146457 0.998872
vt 0.002105 0.842348
vt 0.012879 0.833333
vt 0.157504 0.990173
vt 0.509474 0.833333
vt 0.509474 0.833333
vt 0.509474 0.833333
vt 0.509474 0.833333
vt 0.509474 0.833333
vt 0.509474 0.833333
vt 0.509474 0.833333
vt 0.509474 0.833333
vt 0.509474 0.833333
vt 0.509474 0.833333
vt 0.509474 0.833333
vt 0.509474 0.833333
vt 0.509474 0.833333
vt 0.509474 0.833333
vt 0.509474 0.833333
vn 0 1 0
vn 0 1 0
vn 0 1 0
vn 0 1 0
vn 0 1 0
vn 0 1 0
vn 0 1 0
vn 0 1 0
vn 0 1 0
vn 0 1 0
vn 0 1 0
vn 0 1 0
vn 0 1 0
vn 0 1 0
vn 0 1 0
vn 0 1 0
vn 0 1 0
vn 0 1 0
vn 0 1 0
vn 0 1 0
vn 0 1 0
vn 0 1 0
vn 0 1 0
vn 0 1 0
vn 0 1 0
vn 0 1 0
vn 0 1 0
vn 0 1 0
vn 0 1 0
vn 0 1 0
vn 0 1 0
vn 0 1 0
vn 0 1 0
vn 0 1 0
vn 0 1 0
vn 0 1 0
vn 0.6028544 0.6942025 0.393255
vn 0.6028544 0.6942025 0.393255
vn 0.6028544 0.6942025 0.393255
vn 0.3972569 0.6874396 -0.6079587
vn 0.3972569 0.6874396 -0.6079587
vn 0.3972569 0.6874396 -0.6079587
vn -0.4274912 0.6209362 0.6570308
vn -0.4274912 0.6209362 0.6570308
vn -0.4274912 0.6209362 0.6570308
vn -0.6307428 0.6595951 -0.408776
vn -0.6307428 0.6595951 -0.408776
vn -0.6307428 0.6595951 -0.408776
vn 0.001055181 0.9999974 -0.002035205
vn 0.001055181 0.9999974 -0.002035205
vn 0.001055181 0.9999974 -0.002035205
vn -0.0001072318 1 -6.80691E-05
vn -0.0001072318 1 -6.80691E-05
vn -0.0001072318 1 -6.80691E-05
vn 0.001158438 0.9999974 -0.001969962
vn 0.001158438 0.9999974 -0.001969962
vn 0.001158438 0.9999974 -0.001969962
vn 0.007135508 0.9999077 -0.01155734
vn 0.007135508 0.9999077 -0.01155734
vn 0.007135508 0.9999077 -0.01155734
vn -0.8456677 0 -0.5337098
vn -0.8456677 0 -0.5337098
vn -0.8456677 0 -0.5337098
vn -0.8456677 0 -0.5337098
vn -0.5333009 0 0.8459256
vn -0.5333009 0 0.8459256
vn -0.5333009 0 0.8459256
vn -0.5333009 0 0.8459256
vn 0.845661 0 0.5337204
vn 0.845661 0 0.5337204
vn 0.845661 0 0.5337204
vn 0.845661 0 0.5337204
vn 0.845661 0 0.5337204
vn 0.845661 0 0.5337204
vn 0.845661 -2.405584E-11 0.5337204
vn 0.845661 -2.405584E-11 0.5337204
vn 0.845661 -2.405584E-11 0.5337204
vn 0.8456536 0 0.5337322
vn 0.8456536 0 0.5337322
vn 0.8456536 0 0.5337322
vn 0.8456536 0 0.5337322
vn 0.8456536 0 0.5337322
vn 0.8456536 0 0.5337322
vn 0.8456536 -2.167417E-11 0.5337322
vn 0.8456536 -2.167417E-11 0.5337322
vn 0.8456536 -2.167417E-11 0.5337322
vn 0.8459256 0 0.5333009
vn 0.8459256 0 0.5333009
vn 0.8459256 0 0.5333009
vn 0.8459256 0 0.5333009
vn 0.8444084 0 0.5357
vn 0.8444084 0 0.5357
vn 0.8444084 0 0.5357
vn 0.8444084 0 0.5357
vn 0.8459256 0 0.5333009
vn 0.8459256 0 0.5333009
vn 0.8459256 0 0.5333009
vn 0.8459256 0 0.5333009
vn 0.8444084 0 0.5357
vn 0.8444084 0 0.5357
vn 0.8444084 0 0.5357
vn 0.8444084 0 0.5357
vn 0.5337646 0 -0.8456331
vn 0.5337646 0 -0.8456331
vn 0.5337646 0 -0.8456331
vn 0.5337646 0 -0.8456331
vn 0.5337646 0 -0.8456331
vn 0.5337646 0 -0.8456331
vn 0.5337646 0 -0.8456331
vn 0.5337646 0 -0.8456331
vn -0.8466365 0 -0.5321715
vn -0.8466365 0 -0.5321715
vn -0.8466365 0 -0.5321715
vn -0.8466365 0 -0.5321715
vn -0.845009 0 -0.534752
vn -0.845009 0 -0.534752
vn -0.845009 0 -0.534752
vn -0.845009 0 -0.534752
vn -0.845009 0 -0.534752
vn -0.845009 0 -0.534752
vn -0.845009 -2.648273E-11 -0.534752
vn -0.845009 -2.648273E-11 -0.534752
vn -0.845009 -2.648273E-11 -0.534752
vn -0.850798 0 -0.5254929
vn -0.850798 0 -0.5254929
vn -0.850798 0 -0.5254929
vn -0.850798 0 -0.5254929
vn -0.8456203 0 -0.5337849
vn -0.8456203 0 -0.5337849
vn -0.8456203 0 -0.5337849
vn -0.8456203 0 -0.5337849
vn -0.8466365 0 -0.5321715
vn -0.8466365 0 -0.5321715
vn -0.8466365 0 -0.5321715
vn -0.8466365 0 -0.5321715
vn -0.845009 0 -0.534752
vn -0.845009 0 -0.534752
vn -0.845009 0 -0.534752
vn -0.845009 0 -0.534752
vn -0.5335948 0 0.8457403
vn -0.5335948 0 0.8457403
vn -0.5335948 0 0.8457403
vn -0.5335948 0 0.8457403
vn -0.5337646 0 0.8456331
vn -0.5337646 0 0.8456331
vn -0.5337646 0 0.8456331
vn -0.5337646 0 0.8456331
vn 0 -1 0
vn 0 -1 0
vn 0 -1 0
vn 0 -1 0
vn 0 -1 0
vn 0 -1 0
vn 0 -1 0
vn 0 -1 0
vn 0 -1 0
vn 0 -1 0
vn 0 -1 0
vn 0 -1 0
vn 0 -1 0
vn 0 -1 0
vn 0 -1 0

g CDNNDG02_0014440
f 1/1/1 2/2/2 3/3/3
f 4/4/4 5/5/5 6/6/6
f 7/7/7 8/8/8 9/9/9
f 10/10/10 11/11/11 12/12/12
f 13/13/13 14/14/14 15/15/15
f 16/16/16 17/17/17 18/18/18
f 19/19/19 20/20/20 21/21/21
f 22/22/22 23/23/23 24/24/24
f 25/25/25 26/26/26 27/27/27
f 28/28/28 29/29/29 30/30/30
f 31/31/31 32/32/32 33/33/33
f 34/34/34 35/35/35 36/36/36
f 37/37/37 38/38/38 39/39/39
f 40/40/40 41/41/41 42/42/42
f 43/43/43 44/44/44 45/45/45
f 46/46/46 47/47/47 48/48/48
f 49/49/49 50/50/50 51/51/51
f 52/52/52 53/53/53 54/54/54
f 55/55/55 56/56/56 57/57/57
f 58/58/58 59/59/59 60/60/60
f 61/61/61 63/63/63 64/64/64
f 61/61/61 62/62/62 63/63/63
f 65/65/65 67/67/67 68/68/68
f 67/67/67 65/65/65 66/66/66
f 69/69/69 70/70/70 71/71/71
f 72/72/72 73/73/73 74/74/74
f 75/75/75 76/76/76 77/77/77
f 78/78/78 79/79/79 80/80/80
f 81/81/81 82/82/82 83/83/83
f 84/84/84 85/85/85 86/86/86
f 88/88/88 89/89/89 90/90/90
f 87/87/87 88/88/88 90/90/90
f 92/92/92 93/93/93 94/94/94
f 91/91/91 92/92/92 94/94/94
f 95/95/95 97/97/97 98/98/98
f 95/95/95 96/96/96 97/97/97
f 100/100/100 101/101/101 99/99/99
f 99/99/99 101/101/101 102/102/102
f 106/106/106 103/103/103 105/105/105
f 104/104/104 105/105/105 103/103/103
f 107/107/107 109/109/109 110/110/110
f 107/107/107 108/108/108 109/109/109
f 111/111/111 113/113/113 114/114/114
f 111/111/111 112/112/112 113/113/113
f 115/115/115 116/116/116 117/117/117
f 118/118/118 119/119/119 120/120/120
f 121/121/121 122/122/122 123/123/123
f 124/124/124 125/125/125 126/126/126
f 127/127/127 124/124/124 126/126/126
f 128/128/128 130/130/130 131/131/131
f 128/128/128 129/129/129 130/130/130
f 133/133/133 134/134/134 135/135/135
f 132/132/132 133/133/133 135/135/135
f 137/137/137 138/138/138 139/139/139
f 136/136/136 137/137/137 139/139/139
f 140/140/140 142/142/142 143/143/143
f 142/142/142 140/140/140 141/141/141
f 147/147/147 144/144/144 145/145/145
f 146/146/146 147/147/147 145/145/145
f 160/160/160 162/162/162 148/148/148
f 161/161/161 162/162/162 160/160/160
f 149/149/149 150/150/150 148/148/148
f 160/160/160 148/148/148 159/159/159
f 153/153/153 156/156/156 152/152/152
f 156/156/156 157/157/157 152/152/152
f 156/156/156 153/153/153 155/155/155
f 153/153/153 154/154/154 155/155/155
f 159/159/159 148/148/148 150/150/150
f 151/151/151 152/152/152 157/157/157
f 158/158/158 159/159/159 150/150/150
f 151/151/151 157/157/157 150/150/150
f 157/157/157 158/158/158 150/150/150
