v -2.336838 7.109598 9.957734
v -1.601838 7.109598 10.43773
v 4.517162 7.109598 1.044734
v -4.708838 7.109598 9.256734
v -2.722838 7.109598 10.54973
v -2.336838 7.109598 9.957734
v -4.453838 7.109598 8.865734
v -8.268838 7.109598 6.380734
v -4.453838 7.109598 8.865734
v 2.261162 7.109598 -0.4252659
v -2.336838 7.109598 9.957734
v 4.517162 7.109598 1.044734
v 2.261162 7.109598 -0.4252659
v 2.261162 7.109598 -0.4252659
v 5.613162 7.109598 -5.570266
v 3.609162 7.109598 -11.85027
v 5.613162 7.109598 -5.570266
v 6.094162 7.109598 -5.257266
v 8.369163 7.109598 -8.748266
v 3.609162 7.109598 -11.85027
v 5.613162 7.109598 -5.570266
v 8.369163 7.109598 -8.748266
v -4.453838 7.109598 8.865734
v -2.336838 7.109598 9.957734
v 2.261162 7.109598 -0.4252659
v -8.268838 7.109598 6.380734
v -5.808838 7.109598 2.707734
v -5.233838 7.109598 1.824734
v -8.268838 7.109598 6.380734
v -4.872838 7.109598 3.317734
v -5.808838 7.109598 2.707734
v -8.268838 7.109598 6.380734
v -5.233838 7.109598 1.824734
v 3.609162 7.109598 -11.85027
v -4.872838 7.109598 3.317734
v 2.261162 7.109598 -0.4252659
v -4.296838 7.109598 2.434734
v -8.268838 7.109598 6.380734
v 2.261162 7.109598 -0.4252659
v -4.872838 7.109598 3.317734
v -5.233838 7.109598 1.824734
v -4.296838 7.109598 2.434734
v 3.609162 7.109598 -11.85027
v -4.296838 7.109598 2.434734
v 2.261162 7.109598 -0.4252659
v 3.609162 7.109598 -11.85027
v -5.100838 7.944598 2.595734
v -4.872838 7.337598 3.317734
v -4.296838 7.337598 2.434734
v -5.233838 7.339598 1.824734
v -5.100838 7.944598 2.595734
v -4.296838 7.337598 2.434734
v -5.808838 7.337598 2.707734
v -4.872838 7.337598 3.317734
v -5.100838 7.944598 2.595734
v -5.808838 7.337598 2.707734
v -5.100838 7.944598 2.595734
v -5.233838 7.339598 1.824734
v -1.969338 -7.113207 10.19773
v -1.601838 -7.113207 10.43773
v -1.601838 7.109598 10.43773
v -2.336838 7.109598 9.957734
v -2.336838 -7.113207 9.957734
v -1.969338 -7.113207 10.19773
v -2.336838 7.109598 9.957734
v -1.969338 -7.113207 10.19773
v -1.601838 7.109598 10.43773
v -1.601838 -7.113207 10.43773
v 4.517162 -7.113207 1.044734
v 4.517162 7.109598 1.044734
v -1.601838 7.109598 10.43773
v 2.261162 7.109598 -0.4252659
v 4.517162 7.109598 1.044734
v 4.517162 -7.113207 1.044734
v 2.261162 -7.113207 -0.4252659
v 2.261162 -7.113207 -0.4252659
v 5.613162 -7.113207 -5.570266
v 5.613162 7.109598 -5.570266
v 2.261162 7.109598 -0.4252659
v 5.613162 -7.113207 -5.570266
v 6.094162 -7.113207 -5.257266
v 6.094162 7.109598 -5.257266
v 5.613162 7.109598 -5.570266
v 6.094162 -7.113207 -5.257266
v 8.369163 -7.113207 -8.748266
v 8.369163 7.109598 -8.748266
v 6.094162 7.109598 -5.257266
v 3.609162 7.109598 -11.85027
v 8.369163 7.109598 -8.748266
v 8.369163 -7.113207 -8.748266
v 3.609162 -7.113207 -11.85027
v -8.268838 7.109598 6.380734
v 3.609162 7.109598 -11.85027
v 3.609162 -7.113207 -11.85027
v -8.268838 -7.113207 6.380734
v -8.268838 -7.113207 6.380734
v -4.453838 -7.113207 8.865734
v -4.453838 7.109598 8.865734
v -8.268838 7.109598 6.380734
v -4.708838 7.109598 9.256734
v -4.453838 7.109598 8.865734
v -4.453838 -7.113207 8.865734
v -4.708838 -7.113207 9.256734
v -4.708838 -7.113207 9.256734
v -2.722838 -7.113207 10.54973
v -2.722838 7.109598 10.54973
v -4.708838 7.109598 9.256734
v -2.722838 -7.113207 10.54973
v -2.336838 -7.113207 9.957734
v -2.336838 7.109598 9.957734
v -2.722838 7.109598 10.54973
v -4.872838 7.109598 3.317734
v -4.296838 7.109598 2.434734
v -4.296838 7.337598 2.434734
v -4.872838 7.337598 3.317734
v -5.233838 7.339598 1.824734
v -4.296838 7.337598 2.434734
v -4.296838 7.109598 2.434734
v -5.233838 7.109598 1.824734
v -5.808838 7.109598 2.707734
v -4.872838 7.109598 3.317734
v -4.872838 7.337598 3.317734
v -5.808838 7.337598 2.707734
v -5.808838 7.337598 2.707734
v -5.233838 7.339598 1.824734
v -5.233838 7.109598 1.824734
v -5.808838 7.109598 2.707734
v -2.336838 -7.113207 9.957734
v -2.722838 -7.113207 10.54973
v -4.708838 -7.113207 9.256734
v -4.453838 -7.113207 8.865734
v -8.268838 -7.113207 6.380734
v 3.609162 -7.113207 -11.85027
v 8.369163 -7.113207 -8.748266
v 6.094162 -7.113207 -5.257266
v 5.613162 -7.113207 -5.570266
v 2.261162 -7.113207 -0.4252659
v 4.517162 -7.113207 1.044734
v -1.601838 -7.113207 10.43773
v -1.969338 -7.113207 10.19773
vt 0.021934 0.249375
vt 0.006716 0.231080
vt 0.324521 0.088417
vt 0.042892 0.307806
vt 0.001905 0.258374
vt 0.021934 0.249375
vt 0.056121 0.301861
vt 0.134893 0.396813
vt 0.056121 0.301861
vt 0.371118 0.144575
vt 0.021934 0.249375
vt 0.324521 0.088417
vt 0.371118 0.144575
vt 0.371118 0.144575
vt 0.545204 0.066421
vt 0.751731 0.119895
vt 0.545204 0.066421
vt 0.535284 0.054448
vt 0.653410 0.001403
vt 0.751731 0.119895
vt 0.545204 0.066421
vt 0.653410 0.001403
vt 0.056121 0.301861
vt 0.021934 0.249375
vt 0.371118 0.144575
vt 0.134893 0.396813
vt 0.259225 0.339391
vt 0.289100 0.325986
vt 0.134893 0.396813
vt 0.239889 0.316094
vt 0.259225 0.339391
vt 0.134893 0.396813
vt 0.289100 0.325986
vt 0.751731 0.119895
vt 0.239889 0.316094
vt 0.371118 0.144575
vt 0.269765 0.302665
vt 0.134893 0.396813
vt 0.371118 0.144575
vt 0.239889 0.316094
vt 0.289100 0.325986
vt 0.269765 0.302665
vt 0.751731 0.119895
vt 0.269765 0.302665
vt 0.371118 0.144575
vt 0.751731 0.119895
vt 0.818027 0.810595
vt 0.796191 0.800796
vt 0.824128 0.788219
vt 0.879150 0.810122
vt 0.855238 0.810595
vt 0.861281 0.788219
vt 0.847604 0.810069
vt 0.828571 0.788219
vt 0.850564 0.789737
vt 0.883810 0.808471
vt 0.886816 0.788219
vt 0.911651 0.795022
vt 0.647823 0.889583
vt 0.640299 0.880744
vt 0.624762 0.788219
vt 0.640082 0.806217
vt 0.655347 0.898423
vt 0.647823 0.889583
vt 0.640082 0.806217
vt 0.647823 0.889583
vt 0.624762 0.788219
vt 0.633871 0.538359
vt 0.943445 0.399720
vt 0.936008 0.494576
vt 0.620952 0.635667
vt 0.429472 0.938223
vt 0.384762 0.882753
vt 0.391976 0.788219
vt 0.435908 0.842725
vt 0.210413 0.864001
vt 0.379172 0.788219
vt 0.375557 0.882492
vt 0.203810 0.959615
vt 0.676700 0.895641
vt 0.667350 0.884073
vt 0.660952 0.788219
vt 0.670471 0.799995
vt 0.443765 0.839579
vt 0.557670 0.788219
vt 0.555922 0.881240
vt 0.440000 0.933508
vt 0.097857 0.998874
vt 0.001905 0.881516
vt 0.003647 0.788219
vt 0.097930 0.903537
vt 0.001905 0.694638
vt 0.613060 0.399720
vt 0.616226 0.495384
vt 0.015885 0.785076
vt 0.198969 0.972188
vt 0.118069 0.879966
vt 0.102857 0.788219
vt 0.185215 0.882104
vt 0.718095 0.794483
vt 0.730421 0.788219
vt 0.744961 0.879359
vt 0.732854 0.885513
vt 0.619485 0.928393
vt 0.577905 0.880499
vt 0.561905 0.788219
vt 0.604234 0.836978
vt 0.694257 0.796902
vt 0.712792 0.788219
vt 0.700768 0.885144
vt 0.681905 0.893981
vt 0.948708 0.800364
vt 0.976638 0.788219
vt 0.976509 0.789689
vt 0.948571 0.801838
vt 0.790827 0.811726
vt 0.773333 0.789747
vt 0.773458 0.788219
vt 0.790948 0.810179
vt 0.769396 0.811561
vt 0.750657 0.789641
vt 0.750476 0.788219
vt 0.769220 0.810145
vt 0.916191 0.801369
vt 0.944032 0.788219
vt 0.944207 0.789609
vt 0.916372 0.802743
vt 0.980952 0.788219
vt 0.980952 0.788219
vt 0.980952 0.788219
vt 0.980952 0.788219
vt 0.980952 0.788219
vt 0.980952 0.788219
vt 0.980952 0.788219
vt 0.980952 0.788219
vt 0.980952 0.788219
vt 0.980952 0.788219
vt 0.980952 0.788219
vt 0.980952 0.788219
vt 0.980952 0.788219
vn 0 1 0
vn 0 1 0
vn 0 1 0
vn 0 1 0
vn 0 1 0
vn 0 1 0
vn 0 1 0
vn 0 1 0
vn 0 1 0
vn 0 1 0
vn 0 1 0
vn 0 1 0
vn 0 1 0
vn 0 1 0
vn 0 1 0
vn 0 1 0
vn 0 1 0
vn 0 1 0
vn 0 1 0
vn 0 1 0
vn 0 1 0
vn 0 1 0
vn 0 1 0
vn 0 1 0
vn 0 1 0
vn 0 1 0
vn 0 1 0
vn 0 1 0
vn 0 1 0
vn 0 1 0
vn 0 1 0
vn 0 1 0
vn 0 1 0
vn 0 1 0
vn 0 1 0
vn 0 1 0
vn 0 1 0
vn 0 1 0
vn 0 1 0
vn 0 1 0
vn 0 1 0
vn 0 1 0
vn 0 1 0
vn 0 1 0
vn 0 1 0
vn 0 1 0
vn 0.6028544 0.6942025 0.393255
vn 0.6028544 0.6942025 0.393255
vn 0.6028544 0.6942025 0.393255
vn 0.3972569 0.6874396 -0.6079587
vn 0.3972569 0.6874396 -0.6079587
vn 0.3972569 0.6874396 -0.6079587
vn -0.4281347 0.6205877 0.6569411
vn -0.4281347 0.6205877 0.6569411
vn -0.4281347 0.6205877 0.6569411
vn -0.6303792 0.6598028 -0.4090016
vn -0.6303792 0.6598028 -0.4090016
vn -0.6303792 0.6598028 -0.4090016
vn -0.5467889 0 0.8372705
vn -0.5467889 0 0.8372705
vn -0.5467889 0 0.8372705
vn -0.5467889 0 0.8372705
vn -0.5467889 0 0.8372705
vn -0.5467889 0 0.8372705
vn -0.5467889 2.741263E-11 0.8372705
vn -0.5467889 2.741263E-11 0.8372705
vn -0.5467889 2.741263E-11 0.8372705
vn 0.8378909 0 0.5458378
vn 0.8378909 0 0.5458378
vn 0.8378909 0 0.5458378
vn 0.8378909 0 0.5458378
vn 0.5459279 0 -0.8378322
vn 0.5459279 0 -0.8378322
vn 0.5459279 0 -0.8378322
vn 0.5459279 0 -0.8378322
vn 0.8378664 0 0.5458753
vn 0.8378664 0 0.5458753
vn 0.8378664 0 0.5458753
vn 0.8378664 0 0.5458753
vn -0.545417 0 0.8381648
vn -0.545417 0 0.8381648
vn -0.545417 0 0.8381648
vn -0.545417 0 0.8381648
vn 0.8378015 0 0.5459749
vn 0.8378015 0 0.5459749
vn 0.8378015 0 0.5459749
vn 0.8378015 0 0.5459749
vn 0.5459778 0 -0.8377996
vn 0.5459778 0 -0.8377996
vn 0.5459778 0 -0.8377996
vn 0.5459778 0 -0.8377996
vn -0.8378583 0 -0.5458878
vn -0.8378583 0 -0.5458878
vn -0.8378583 0 -0.5458878
vn -0.8378583 0 -0.5458878
vn -0.5457987 0 0.8379163
vn -0.5457987 0 0.8379163
vn -0.5457987 0 0.8379163
vn -0.5457987 0 0.8379163
vn -0.8376106 0 -0.5462678
vn -0.8376106 0 -0.5462678
vn -0.8376106 0 -0.5462678
vn -0.8376106 0 -0.5462678
vn -0.5456111 0 0.8380384
vn -0.5456111 0 0.8380384
vn -0.5456111 0 0.8380384
vn -0.5456111 0 0.8380384
vn 0.8376669 0 0.5461814
vn 0.8376669 0 0.5461814
vn 0.8376669 0 0.5461814
vn 0.8376669 0 0.5461814
vn 0.837554 0 0.5463546
vn 0.837554 0 0.5463546
vn 0.837554 0 0.5463546
vn 0.837554 0 0.5463546
vn 0.5455855 0 -0.8380551
vn 0.5455855 0 -0.8380551
vn 0.5455855 0 -0.8380551
vn 0.5455855 0 -0.8380551
vn -0.5459947 0 0.8377886
vn -0.5459947 0 0.8377886
vn -0.5459947 0 0.8377886
vn -0.5459947 0 0.8377886
vn -0.837988 0 -0.5456887
vn -0.837988 0 -0.5456887
vn -0.837988 0 -0.5456887
vn -0.837988 0 -0.5456887
vn 0 -1 0
vn 0 -1 0
vn 0 -1 0
vn 0 -1 0
vn 0 -1 0
vn 0 -1 0
vn 0 -1 0
vn 0 -1 0
vn 0 -1 0
vn 0 -1 0
vn 0 -1 0
vn 0 -1 0
vn 0 -1 0

g CDNNDG02_0013450
f 1/1/1 2/2/2 3/3/3
f 7/7/7 4/4/4 5/5/5
f 6/6/6 7/7/7 5/5/5
f 8/8/8 9/9/9 10/10/10
f 11/11/11 12/12/12 13/13/13
f 14/14/14 15/15/15 16/16/16
f 17/17/17 18/18/18 19/19/19
f 20/20/20 21/21/21 22/22/22
f 23/23/23 24/24/24 25/25/25
f 26/26/26 27/27/27 28/28/28
f 29/29/29 30/30/30 31/31/31
f 32/32/32 33/33/33 34/34/34
f 35/35/35 36/36/36 37/37/37
f 38/38/38 39/39/39 40/40/40
f 41/41/41 42/42/42 43/43/43
f 44/44/44 45/45/45 46/46/46
f 47/47/47 48/48/48 49/49/49
f 50/50/50 51/51/51 52/52/52
f 53/53/53 54/54/54 55/55/55
f 56/56/56 57/57/57 58/58/58
f 59/59/59 60/60/60 61/61/61
f 62/62/62 63/63/63 64/64/64
f 65/65/65 66/66/66 67/67/67
f 71/71/71 68/68/68 70/70/70
f 69/69/69 70/70/70 68/68/68
f 72/72/72 74/74/74 75/75/75
f 72/72/72 73/73/73 74/74/74
f 76/76/76 78/78/78 79/79/79
f 76/76/76 77/77/77 78/78/78
f 83/83/83 80/80/80 82/82/82
f 82/82/82 80/80/80 81/81/81
f 84/84/84 86/86/86 87/87/87
f 84/84/84 85/85/85 86/86/86
f 90/90/90 88/88/88 89/89/89
f 88/88/88 90/90/90 91/91/91
f 93/93/93 94/94/94 95/95/95
f 92/92/92 93/93/93 95/95/95
f 99/99/99 96/96/96 97/97/97
f 98/98/98 99/99/99 97/97/97
f 101/101/101 102/102/102 103/103/103
f 100/100/100 101/101/101 103/103/103
f 104/104/104 106/106/106 107/107/107
f 106/106/106 104/104/104 105/105/105
f 109/109/109 110/110/110 111/111/111
f 108/108/108 109/109/109 111/111/111
f 113/113/113 114/114/114 115/115/115
f 112/112/112 113/113/113 115/115/115
f 117/117/117 118/118/118 119/119/119
f 116/116/116 117/117/117 119/119/119
f 121/121/121 122/122/122 123/123/123
f 120/120/120 121/121/121 123/123/123
f 124/124/124 126/126/126 127/127/127
f 124/124/124 125/125/125 126/126/126
f 138/138/138 139/139/139 140/140/140
f 128/128/128 138/138/138 140/140/140
f 128/128/128 129/129/129 131/131/131
f 128/128/128 131/131/131 137/137/137
f 129/129/129 130/130/130 131/131/131
f 138/138/138 128/128/128 137/137/137
f 133/133/133 136/136/136 137/137/137
f 131/131/131 132/132/132 137/137/137
f 132/132/132 133/133/133 137/137/137
f 134/134/134 135/135/135 136/136/136
f 133/133/133 134/134/134 136/136/136
