v -1.771214 6.383315 7.160052
v -0.7589063 6.383315 6.871771
v -1.355013 6.383315 6.497097
v -1.771214 6.383315 7.160052
v -0.6909566 6.383315 7.167255
v -0.7589063 6.383315 6.871771
v -0.7589063 6.383315 6.871771
v -0.6909566 6.383315 7.167255
v -0.5770132 6.383315 6.986097
v -1.771214 6.383315 7.160052
v -0.9941452 6.383315 7.649291
v -0.6909566 6.383315 7.167255
v -1.888013 6.383315 7.346097
v -1.111013 6.383315 7.835097
v -0.9941452 6.383315 7.649291
v -1.771214 6.383315 7.160052
v -6.903013 4.398314 3.929097
v -1.771214 4.398314 7.160052
v -6.237013 6.059314 2.871098
v -1.355013 5.39268 6.497097
v -1.265823 5.391515 6.553156
v -0.9260132 6.059314 6.145098
v -6.237013 6.059314 2.871098
v -1.771214 4.398314 7.160052
v -1.355013 5.39268 6.497097
v -6.237013 6.059314 2.871098
v -1.355013 5.39268 6.497097
v -0.9260132 6.059314 6.145098
v -1.265823 5.391515 6.553156
v -0.7589063 5.392092 6.871771
v -0.9260132 6.059314 6.145098
v -0.9941452 4.398314 7.649291
v -0.5100132 4.398314 7.954098
v -0.6909566 5.120783 7.167255
v -0.9260132 6.059314 6.145098
v -0.7589063 5.392092 6.871771
v 5.005987 6.059314 -3.478903
v -0.6909566 5.120783 7.167255
v -0.5100132 4.398314 7.954098
v 6.977987 4.398314 -3.937902
v -0.7589063 5.392092 6.871771
v -0.5897368 5.137458 6.9781
v 5.005987 6.059314 -3.478903
v -0.6909566 5.120783 7.167255
v 6.977987 4.398314 -3.937902
v -0.5770132 5.119996 6.986097
v -0.5770132 5.119996 6.986097
v 6.977987 4.398314 -3.937902
v 5.005987 6.059314 -3.478903
v -0.5897368 5.137458 6.9781
v -0.5770132 5.119996 6.986097
v 5.005987 6.059314 -3.478903
v -0.9260132 6.059314 6.145098
v 5.005987 6.059314 -3.478903
v -0.2130132 6.059314 -6.695902
v -6.237013 6.059314 2.871098
v -0.2130132 6.059314 -6.695902
v 4.014987 5.646315 -4.385902
v 3.410987 4.398314 -6.183902
v -0.2130132 6.059314 -6.695902
v 3.410987 4.398314 -6.183902
v 0.5849868 4.398314 -7.963902
v -0.2130132 6.059314 -6.695902
v 5.005987 6.059314 -3.478903
v 4.014987 5.646315 -4.385902
v 5.005987 6.059314 -3.478903
v 6.977987 4.398314 -3.937902
v 5.820987 4.398314 -4.665903
v 4.014987 5.646315 -4.385902
v 5.005987 6.059314 -3.478903
v 5.820987 4.398314 -4.665903
v 3.410987 4.398314 -6.183902
v 4.014987 5.646315 -4.385902
v 4.615987 5.646315 -5.424902
v 4.014987 5.646315 -4.385902
v 5.820987 4.398314 -4.665903
v 4.615987 5.646315 -5.424902
v -1.888013 -5.801417 7.346097
v -1.111013 -5.801417 7.835097
v -1.111013 6.383315 7.835097
v -1.888013 6.383315 7.346097
v -1.111013 6.383315 7.835097
v -0.9941452 4.398314 7.649291
v -0.9941452 6.383315 7.649291
v -1.111013 -5.801417 7.835097
v -0.9941452 -5.801417 7.649291
v -0.9941452 4.398314 7.649291
v -1.111013 6.383315 7.835097
v -0.9941452 6.383315 7.649291
v -0.6909566 5.120783 7.167255
v -0.6909566 6.383315 7.167255
v -0.9941452 6.383315 7.649291
v -0.9941452 4.398314 7.649291
v -0.6909566 5.120783 7.167255
v -0.6909566 5.120783 7.167255
v -0.5770132 5.119996 6.986097
v -0.5770132 6.383315 6.986097
v -0.6909566 6.383315 7.167255
v -0.7589063 6.383315 6.871771
v -0.5770132 6.383315 6.986097
v -0.7589063 5.392092 6.871771
v -0.5897368 5.137458 6.9781
v -0.5770132 6.383315 6.986097
v -0.5770132 5.119996 6.986097
v -0.7589063 5.392092 6.871771
v -0.5770132 6.383315 6.986097
v -0.5897368 5.137458 6.9781
v -1.355013 6.383315 6.497097
v -1.265823 5.391515 6.553156
v -1.355013 5.39268 6.497097
v -1.265823 5.391515 6.553156
v -0.7589063 6.383315 6.871771
v -0.7589063 5.392092 6.871771
v -1.355013 6.383315 6.497097
v -0.7589063 6.383315 6.871771
v -1.265823 5.391515 6.553156
v -1.771214 6.383315 7.160052
v -1.355013 5.39268 6.497097
v -1.771214 4.398314 7.160052
v -1.771214 6.383315 7.160052
v -1.355013 6.383315 6.497097
v -1.355013 5.39268 6.497097
v -1.888013 6.383315 7.346097
v -1.771214 4.398314 7.160052
v -1.771214 -5.801417 7.160052
v -1.888013 -5.801417 7.346097
v -1.888013 6.383315 7.346097
v -1.771214 6.383315 7.160052
v -1.771214 4.398314 7.160052
v -6.903013 -5.801417 3.929097
v -1.771214 -5.801417 7.160052
v -1.771214 4.398314 7.160052
v -6.903013 4.398314 3.929097
v -0.9941452 -5.801417 7.649291
v -0.5100132 -5.801417 7.954098
v -0.5100132 4.398314 7.954098
v -0.9941452 4.398314 7.649291
v -6.903013 4.398314 3.929097
v -6.570013 -5.801417 3.400098
v -6.903013 -5.801417 3.929097
v -6.570013 -5.801417 3.400098
v -6.237013 6.059314 2.871098
v -6.237013 -5.801417 2.871098
v -6.903013 4.398314 3.929097
v -6.237013 6.059314 2.871098
v -6.570013 -5.801417 3.400098
v -6.237013 6.059314 2.871098
v -0.2130132 6.059314 -6.695902
v -0.2130132 -5.801417 -6.695902
v -6.237013 -5.801417 2.871098
v -0.2130132 6.059314 -6.695902
v 0.1859868 -5.801417 -7.329903
v -0.2130132 -5.801417 -6.695902
v 0.1859868 -5.801417 -7.329903
v 0.5849868 4.398314 -7.963902
v 0.5849868 -5.801417 -7.963902
v -0.2130132 6.059314 -6.695902
v 0.5849868 4.398314 -7.963902
v 0.1859868 -5.801417 -7.329903
v 3.233987 -5.801417 2.008097
v 6.977987 -5.801417 -3.937902
v 6.977987 4.398314 -3.937902
v -0.5100132 4.398314 7.954098
v -0.5100132 -5.801417 7.954098
v 3.233987 -5.801417 2.008097
v -0.5100132 4.398314 7.954098
v 3.233987 -5.801417 2.008097
v 6.977987 4.398314 -3.937902
v 5.820987 4.398314 -4.665903
v 6.977987 4.398314 -3.937902
v 6.977987 -5.801417 -3.937902
v 5.820987 -5.801417 -4.665903
v 0.5849868 4.398314 -7.963902
v 3.410987 4.398314 -6.183902
v 3.410987 -5.801417 -6.183902
v 0.5849868 -5.801417 -7.963902
v 3.410987 4.398314 -6.183902
v 4.013487 -5.801417 -5.804402
v 3.410987 -5.801417 -6.183902
v 4.013487 -5.801417 -5.804402
v 4.615987 5.646315 -5.424902
v 4.615987 -5.801417 -5.424902
v 3.410987 4.398314 -6.183902
v 4.615987 5.646315 -5.424902
v 4.013487 -5.801417 -5.804402
v 4.615987 5.646315 -5.424902
v 5.820987 4.398314 -4.665903
v 5.820987 -5.801417 -4.665903
v 4.615987 -5.801417 -5.424902
v -6.570013 -5.801417 3.400098
v -6.237013 -5.801417 2.871098
v -0.2130132 -5.801417 -6.695902
v 0.1859868 -5.801417 -7.329903
v 0.5849868 -5.801417 -7.963902
v 3.410987 -5.801417 -6.183902
v 4.013487 -5.801417 -5.804402
v 4.615987 -5.801417 -5.424902
v 5.820987 -5.801417 -4.665903
v 6.977987 -5.801417 -3.937902
v 3.233987 -5.801417 2.008097
v -0.5100132 -5.801417 7.954098
v -0.9941452 -5.801417 7.649291
v -1.111013 -5.801417 7.835097
v -1.888013 -5.801417 7.346097
v -1.771214 -5.801417 7.160052
v -6.903013 -5.801417 3.929097
vt 0.024085 0.966929
vt 0.013849 0.994167
vt 0.001992 0.977811
vt 0.024085 0.966929
vt 0.023504 0.996179
vt 0.013849 0.994167
vt 0.013849 0.994167
vt 0.023504 0.996179
vt 0.017467 0.999158
vt 0.024085 0.966929
vt 0.039568 0.988251
vt 0.023504 0.996179
vt 0.030285 0.963875
vt 0.045761 0.985195
vt 0.039568 0.988251
vt 0.024085 0.966929
vt 0.918214 0.781663
vt 0.804781 0.635235
vt 0.979673 0.747940
vt 0.842424 0.614367
vt 0.840436 0.611829
vt 0.864460 0.596059
vt 0.979673 0.747940
vt 0.804781 0.635235
vt 0.842424 0.614367
vt 0.979673 0.747940
vt 0.842424 0.614367
vt 0.864460 0.596059
vt 0.840436 0.611829
vt 0.829244 0.597341
vt 0.864460 0.596059
vt 0.089963 0.977675
vt 0.079681 0.965133
vt 0.116229 0.963875
vt 0.355352 0.821361
vt 0.321393 0.811078
vt 0.690415 0.662977
vt 0.307600 0.806902
vt 0.270916 0.795795
vt 0.684265 0.596059
vt 0.321393 0.811078
vt 0.314394 0.804348
vt 0.690415 0.662977
vt 0.307600 0.806902
vt 0.684265 0.596059
vt 0.313891 0.803854
vt 0.313891 0.803854
vt 0.684265 0.596059
vt 0.690415 0.662977
vt 0.314394 0.804348
vt 0.313891 0.803854
vt 0.690415 0.662977
vt 0.441384 0.153101
vt 0.107831 0.314229
vt 0.001992 0.165404
vt 0.333675 0.001642
vt 0.264462 0.832512
vt 0.334896 0.954955
vt 0.261128 0.945523
vt 0.264462 0.832512
vt 0.261128 0.945523
vt 0.203187 0.865589
vt 0.695219 0.596059
vt 0.799656 0.744787
vt 0.765380 0.719201
vt 0.799656 0.744787
vt 0.764720 0.811182
vt 0.741117 0.778271
vt 0.765380 0.719201
vt 0.799656 0.744787
vt 0.741117 0.778271
vt 0.898406 0.832512
vt 0.971349 0.859696
vt 0.936430 0.875730
vt 0.858839 0.890773
vt 0.852590 0.832512
vt 0.893474 0.875106
vt 0.018964 0.959749
vt 0.001992 0.937947
vt 0.180059 0.832512
vt 0.197292 0.854650
vt 0.818091 0.924790
vt 0.797017 0.906985
vt 0.824530 0.921697
vt 0.651394 0.835560
vt 0.657738 0.832512
vt 0.797017 0.906985
vt 0.818091 0.924790
vt 0.824530 0.921697
vt 0.823695 0.904320
vt 0.841236 0.913672
vt 0.824530 0.921697
vt 0.797017 0.906985
vt 0.823695 0.904320
vt 0.823695 0.904320
vt 0.829953 0.901303
vt 0.847514 0.910657
vt 0.841236 0.913672
vt 0.071876 0.980147
vt 0.075391 0.985112
vt 0.061300 0.986801
vt 0.061852 0.993118
vt 0.075391 0.985112
vt 0.061912 0.993581
vt 0.061300 0.986801
vt 0.075391 0.985112
vt 0.061852 0.993118
vt 0.060356 0.963875
vt 0.051510 0.972984
vt 0.049801 0.970545
vt 0.051510 0.972984
vt 0.071876 0.980147
vt 0.061300 0.986801
vt 0.060356 0.963875
vt 0.071876 0.980147
vt 0.051510 0.972984
vt 0.476480 0.934351
vt 0.442705 0.937581
vt 0.454072 0.918071
vt 0.476480 0.934351
vt 0.453874 0.945730
vt 0.442705 0.937581
vt 0.482823 0.931158
vt 0.454072 0.918071
vt 0.340637 0.835658
vt 0.346887 0.832512
vt 0.482823 0.931158
vt 0.476480 0.934351
vt 0.454072 0.918071
vt 0.114415 0.829176
vt 0.001992 0.684362
vt 0.151359 0.596059
vt 0.265225 0.742739
vt 0.498602 0.934021
vt 0.488048 0.920481
vt 0.636327 0.832512
vt 0.647017 0.846227
vt 0.962967 0.082986
vt 0.831783 0.010691
vt 0.849732 0.001642
vt 0.831783 0.010691
vt 0.945253 0.114788
vt 0.813834 0.019740
vt 0.962967 0.082986
vt 0.945253 0.114788
vt 0.831783 0.010691
vt 0.945253 0.114788
vt 0.615902 0.280870
vt 0.489235 0.183431
vt 0.813834 0.019740
vt 0.615902 0.280870
vt 0.467725 0.194273
vt 0.489235 0.183431
vt 0.467725 0.194273
vt 0.554380 0.289008
vt 0.446215 0.205114
vt 0.615902 0.280870
vt 0.554380 0.289008
vt 0.467725 0.194273
vt 0.206329 0.417311
vt 0.410674 0.318555
vt 0.555878 0.391234
vt 0.142053 0.591219
vt 0.001992 0.516062
vt 0.206329 0.417311
vt 0.142053 0.591219
vt 0.206329 0.417311
vt 0.555878 0.391234
vt 0.777906 0.467655
vt 0.801758 0.500601
vt 0.692031 0.568429
vt 0.668475 0.535894
vt 0.669845 0.318555
vt 0.728169 0.399029
vt 0.619354 0.468121
vt 0.561753 0.388647
vt 0.728169 0.399029
vt 0.631634 0.485064
vt 0.619354 0.468121
vt 0.631634 0.485064
vt 0.766578 0.424822
vt 0.643914 0.502007
vt 0.728169 0.399029
vt 0.766578 0.424822
vt 0.631634 0.485064
vt 0.766578 0.424822
vt 0.777906 0.467655
vt 0.668475 0.535894
vt 0.643914 0.502007
vt 0.121514 0.963875
vt 0.121514 0.963875
vt 0.121514 0.963875
vt 0.121514 0.963875
vt 0.121514 0.963875
vt 0.121514 0.963875
vt 0.121514 0.963875
vt 0.121514 0.963875
vt 0.121514 0.963875
vt 0.121514 0.963875
vt 0.121514 0.963875
vt 0.121514 0.963875
vt 0.121514 0.963875
vt 0.121514 0.963875
vt 0.121514 0.963875
vt 0.121514 0.963875
vt 0.121514 0.963875
vn 0 1 0
vn 0 1 0
vn 0 1 0
vn 0 1 0
vn 0 1 0
vn 0 1 0
vn 0 1 0
vn 0 1 0
vn 0 1 0
vn 0 1 0
vn 0 1 0
vn 0 1 0
vn 0 1 0
vn 0 1 0
vn 0 1 0
vn 0 1 0
vn -0.4256897 0.6013592 0.6761327
vn -0.4256897 0.6013592 0.6761327
vn -0.4256897 0.6013592 0.6761327
vn -0.4123337 0.6185338 0.6688773
vn -0.4123337 0.6185338 0.6688773
vn -0.4123337 0.6185338 0.6688773
vn -0.4123337 0.6185338 0.6688773
vn -0.4123337 0.6185338 0.6688773
vn -0.4123337 0.6185338 0.6688773
vn -0.4123337 0.6185338 0.6688773
vn -0.4123337 0.6185338 0.6688773
vn -0.4123337 0.6185338 0.6688773
vn -0.4184364 0.6190329 0.6646121
vn -0.4184364 0.6190329 0.6646121
vn -0.4184364 0.6190329 0.6646121
vn -0.4184364 0.6190329 0.6646121
vn -0.4184364 0.6190329 0.6646121
vn -0.4184364 0.6190329 0.6646121
vn 0.6697188 0.6173121 0.4127984
vn 0.6697188 0.6173121 0.4127984
vn 0.6697188 0.6173121 0.4127984
vn 0.6632859 0.620984 0.4176492
vn 0.6632859 0.620984 0.4176492
vn 0.6632859 0.620984 0.4176492
vn 0.6697188 0.6173121 0.4127984
vn 0.6697188 0.6173121 0.4127984
vn 0.6697188 0.6173121 0.4127984
vn 0.6428794 0.6522941 0.4015201
vn 0.6428794 0.6522941 0.4015201
vn 0.6428794 0.6522941 0.4015201
vn 0.6428794 0.6522941 0.4015201
vn 0.6428794 0.6522941 0.4015201
vn 0.6428794 0.6522941 0.4015201
vn 0.6428794 0.6522942 0.4015201
vn 0.6428794 0.6522942 0.4015201
vn 0.6428794 0.6522942 0.4015201
vn 0 1 0
vn 0 1 0
vn 0 1 0
vn 0 1 0
vn 0.399868 0.684566 -0.6094875
vn 0.399868 0.684566 -0.6094875
vn 0.399868 0.684566 -0.6094875
vn 0.3957511 0.6697814 -0.6283104
vn 0.3957511 0.6697814 -0.6283104
vn 0.3957511 0.6697814 -0.6283104
vn 0.4478775 0.5210163 -0.7266002
vn 0.4478775 0.5210163 -0.7266002
vn 0.4478775 0.5210163 -0.7266002
vn 0.40255 0.654715 -0.6397669
vn 0.40255 0.654715 -0.6397669
vn 0.40255 0.654715 -0.6397669
vn 0.3458917 0.6519392 -0.6747845
vn 0.3458917 0.6519392 -0.6747845
vn 0.3458917 0.6519392 -0.6747845
vn -0.5707329 0.7518476 -0.3301352
vn -0.5707329 0.7518476 -0.3301352
vn -0.5707329 0.7518476 -0.3301352
vn 0.5707329 0.7518476 0.3301352
vn 0.5707329 0.7518476 0.3301352
vn 0.5707329 0.7518476 0.3301352
vn -0.5326399 0 0.846342
vn -0.5326399 0 0.846342
vn -0.5326399 0 0.846342
vn -0.5326399 0 0.846342
vn 0.8464825 0 0.5324166
vn 0.8464825 0 0.5324166
vn 0.8464825 0 0.5324166
vn 0.8464825 0 0.5324166
vn 0.8464825 0 0.5324166
vn 0.8464825 0 0.5324166
vn 0.8464825 0 0.5324166
vn 0.8464825 0 0.5324165
vn 0.8464825 0 0.5324165
vn 0.8464825 0 0.5324165
vn 0.8464825 0 0.5324165
vn 0.8464825 0 0.5324165
vn 0.8464825 0 0.5324165
vn 0.8464825 0 0.5324166
vn 0.8464825 0 0.5324166
vn 0.8464825 0 0.5324166
vn 0.8464825 0 0.5324166
vn 0.5321493 0 -0.8466505
vn 0.5321493 0 -0.8466505
vn 0.5321493 0 -0.8466505
vn 0.5321493 0 -0.8466505
vn 0.5321493 0 -0.8466505
vn 0.5321493 0 -0.8466505
vn 0.5321493 8.495381E-10 -0.8466505
vn 0.5321493 8.495381E-10 -0.8466505
vn 0.5321493 8.495381E-10 -0.8466505
vn 0.5321493 0 -0.8466506
vn 0.5321493 0 -0.8466506
vn 0.5321493 0 -0.8466506
vn 0.5321493 0 -0.8466505
vn 0.5321493 0 -0.8466505
vn 0.5321493 0 -0.8466505
vn 0.5321493 1.87457E-09 -0.8466505
vn 0.5321493 1.87457E-09 -0.8466505
vn 0.5321493 1.87457E-09 -0.8466505
vn -0.8469318 0 -0.5317016
vn -0.8469318 0 -0.5317016
vn -0.8469318 0 -0.5317016
vn -0.8469318 0 -0.5317016
vn -0.8469318 0 -0.5317016
vn -0.8469318 0 -0.5317016
vn -0.8469318 0 -0.5317016
vn -0.8469318 0 -0.5317016
vn -0.8469318 0 -0.5317016
vn -0.8469318 0 -0.5317016
vn -0.8469318 0 -0.5317016
vn -0.8469318 0 -0.5317016
vn -0.8469318 0 -0.5317016
vn -0.5327922 0 0.8462461
vn -0.5327922 0 0.8462461
vn -0.5327922 0 0.8462461
vn -0.5327922 0 0.8462461
vn -0.5327922 0 0.8462461
vn -0.5327922 0 0.8462461
vn -0.5327922 0 0.8462461
vn -0.5327922 0 0.8462461
vn -0.8462862 0 -0.5327284
vn -0.8462862 0 -0.5327284
vn -0.8462862 0 -0.5327284
vn -0.8462862 0 -0.5327284
vn -0.8462862 0 -0.5327284
vn -0.8462862 0 -0.5327284
vn -0.8462862 2.232967E-12 -0.5327284
vn -0.8462862 2.232967E-12 -0.5327284
vn -0.8462862 2.232967E-12 -0.5327284
vn -0.8462195 0 -0.5328344
vn -0.8462195 0 -0.5328344
vn -0.8462195 0 -0.5328344
vn -0.8462195 0 -0.5328344
vn -0.8463443 0 -0.5326362
vn -0.8463443 0 -0.5326362
vn -0.8463443 0 -0.5326362
vn -0.8463443 0 -0.5326362
vn -0.8463443 0 -0.5326362
vn -0.8463443 0 -0.5326362
vn -0.8463443 -2.025309E-11 -0.5326362
vn -0.8463443 -2.025309E-11 -0.5326362
vn -0.8463443 -2.025309E-11 -0.5326362
vn 0.8462186 0 0.5328359
vn 0.8462186 0 0.5328359
vn 0.8462186 0 0.5328359
vn 0.8462186 0 0.5328359
vn 0.8462186 0 0.5328359
vn 0.8462186 0 0.5328359
vn 0.8462186 -2.432621E-11 0.5328359
vn 0.8462186 -2.432621E-11 0.5328359
vn 0.8462186 -2.432621E-11 0.5328359
vn 0.532561 0 -0.8463916
vn 0.532561 0 -0.8463916
vn 0.532561 0 -0.8463916
vn 0.532561 0 -0.8463916
vn 0.5329562 0 -0.8461428
vn 0.5329562 0 -0.8461428
vn 0.5329562 0 -0.8461428
vn 0.5329562 0 -0.8461428
vn 0.5329623 0 -0.846139
vn 0.5329623 0 -0.846139
vn 0.5329623 0 -0.846139
vn 0.5329623 0 -0.846139
vn 0.5329623 0 -0.846139
vn 0.5329623 0 -0.846139
vn 0.5329623 3.640281E-11 -0.846139
vn 0.5329623 3.640281E-11 -0.846139
vn 0.5329623 3.640281E-11 -0.846139
vn 0.5329623 0 -0.846139
vn 0.5329623 0 -0.846139
vn 0.5329623 0 -0.846139
vn 0.5329623 0 -0.846139
vn 0 -1 0
vn 0 -1 0
vn 0 -1 0
vn 0 -1 0
vn 0 -1 0
vn 0 -1 0
vn 0 -1 0
vn 0 -1 0
vn 0 -1 0
vn 0 -1 0
vn 0 -1 0
vn 0 -1 0
vn 0 -1 0
vn 0 -1 0
vn 0 -1 0
vn 0 -1 0
vn 0 -1 0

g CDNNDG02_0015360
f 1/1/1 2/2/2 3/3/3
f 4/4/4 5/5/5 6/6/6
f 7/7/7 8/8/8 9/9/9
f 10/10/10 11/11/11 12/12/12
f 16/16/16 13/13/13 15/15/15
f 15/15/15 13/13/13 14/14/14
f 17/17/17 18/18/18 19/19/19
f 20/20/20 21/21/21 22/22/22
f 23/23/23 24/24/24 25/25/25
f 26/26/26 27/27/27 28/28/28
f 29/29/29 30/30/30 31/31/31
f 32/32/32 33/33/33 34/34/34
f 35/35/35 36/36/36 37/37/37
f 38/38/38 39/39/39 40/40/40
f 41/41/41 42/42/42 43/43/43
f 44/44/44 45/45/45 46/46/46
f 47/47/47 48/48/48 49/49/49
f 50/50/50 51/51/51 52/52/52
f 56/56/56 53/53/53 55/55/55
f 54/54/54 55/55/55 53/53/53
f 57/57/57 58/58/58 59/59/59
f 60/60/60 61/61/61 62/62/62
f 63/63/63 64/64/64 65/65/65
f 66/66/66 67/67/67 68/68/68
f 69/69/69 70/70/70 71/71/71
f 72/72/72 73/73/73 74/74/74
f 75/75/75 76/76/76 77/77/77
f 81/81/81 78/78/78 80/80/80
f 80/80/80 78/78/78 79/79/79
f 82/82/82 83/83/83 84/84/84
f 86/86/86 87/87/87 85/85/85
f 85/85/85 87/87/87 88/88/88
f 89/89/89 90/90/90 91/91/91
f 92/92/92 93/93/93 94/94/94
f 96/96/96 97/97/97 95/95/95
f 95/95/95 97/97/97 98/98/98
f 99/99/99 100/100/100 101/101/101
f 102/102/102 103/103/103 104/104/104
f 105/105/105 106/106/106 107/107/107
f 108/108/108 109/109/109 110/110/110
f 111/111/111 112/112/112 113/113/113
f 114/114/114 115/115/115 116/116/116
f 117/117/117 118/118/118 119/119/119
f 120/120/120 121/121/121 122/122/122
f 124/124/124 125/125/125 126/126/126
f 123/123/123 124/124/124 126/126/126
f 127/127/127 128/128/128 129/129/129
f 130/130/130 132/132/132 133/133/133
f 132/132/132 130/130/130 131/131/131
f 134/134/134 136/136/136 137/137/137
f 136/136/136 134/134/134 135/135/135
f 138/138/138 139/139/139 140/140/140
f 141/141/141 142/142/142 143/143/143
f 144/144/144 145/145/145 146/146/146
f 147/147/147 149/149/149 150/150/150
f 147/147/147 148/148/148 149/149/149
f 151/151/151 152/152/152 153/153/153
f 154/154/154 155/155/155 156/156/156
f 157/157/157 158/158/158 159/159/159
f 160/160/160 161/161/161 162/162/162
f 163/163/163 164/164/164 165/165/165
f 166/166/166 167/167/167 168/168/168
f 171/171/171 172/172/172 170/170/170
f 169/169/169 170/170/170 172/172/172
f 175/175/175 173/173/173 174/174/174
f 173/173/173 175/175/175 176/176/176
f 177/177/177 178/178/178 179/179/179
f 180/180/180 181/181/181 182/182/182
f 183/183/183 184/184/184 185/185/185
f 188/188/188 189/189/189 187/187/187
f 186/186/186 187/187/187 189/189/189
f 206/206/206 190/190/190 205/205/205
f 205/205/205 191/191/191 200/200/200
f 195/195/195 196/196/196 200/200/200
f 205/205/205 200/200/200 202/202/202
f 195/195/195 200/200/200 192/192/192
f 205/205/205 190/190/190 191/191/191
f 192/192/192 193/193/193 195/195/195
f 193/193/193 194/194/194 195/195/195
f 203/203/203 204/204/204 202/202/202
f 200/200/200 196/196/196 197/197/197
f 200/200/200 197/197/197 198/198/198
f 200/200/200 198/198/198 199/199/199
f 191/191/191 192/192/192 200/200/200
f 205/205/205 202/202/202 204/204/204
f 200/200/200 201/201/201 202/202/202
