v 3.546631 5.388905 3.647465
v 7.702631 5.388905 -3.003535
v 6.954631 5.388905 -3.471535
v -7.592369 5.388905 3.719465
v -6.895369 5.388905 4.155465
v -7.564369 5.388905 3.674465
v -7.564369 5.388905 3.674465
v 0.4246309 5.388905 -7.617535
v -0.2463692 5.388905 -8.037536
v -7.564369 5.388905 3.674465
v -6.895369 5.388905 4.155465
v 0.4246309 5.388905 -7.617535
v -4.311369 5.388905 5.769464
v 3.546631 5.388905 3.647465
v 0.4246309 5.388905 -7.617535
v 0.4246309 5.388905 -7.617535
v 6.954631 5.388905 -3.471535
v 7.194631 5.388905 -3.856535
v 0.6356308 5.388905 -7.955535
v -6.895369 5.388905 4.155465
v -4.311369 5.388905 5.769464
v 0.4246309 5.388905 -7.617535
v -4.640369 5.388905 6.295465
v -2.488369 5.388905 7.639465
v -2.272369 5.388905 7.126465
v -2.272369 5.388905 7.126465
v -1.462369 5.388905 7.621465
v 3.546631 5.388905 3.647465
v -4.640369 5.388905 6.295465
v -2.272369 5.388905 7.126465
v -4.311369 5.388905 5.769464
v -4.311369 5.388905 5.769464
v -2.272369 5.388905 7.126465
v 3.546631 5.388905 3.647465
v 0.4246309 5.388905 -7.617535
v 3.546631 5.388905 3.647465
v 6.954631 5.388905 -3.471535
v -7.592369 6.947905 3.719465
v -7.295369 6.947905 4.793465
v -6.895369 6.947905 4.155465
v -8.542369 6.947905 4.011465
v -7.295369 6.947905 4.793465
v -7.592369 6.947905 3.719465
v -8.542369 6.947905 4.011465
v -7.592369 6.947905 3.719465
v -8.143369 6.947905 3.375465
v -6.895369 -5.404096 4.155465
v -4.311369 -5.404096 5.769464
v -4.311369 5.388905 5.769464
v -6.895369 5.388905 4.155465
v -4.640369 5.388905 6.295465
v -4.311369 5.388905 5.769464
v -4.311369 -5.404096 5.769464
v -4.640369 -5.404096 6.295465
v -3.564369 -5.404096 6.967464
v -2.488369 -5.404096 7.639465
v -2.488369 5.388905 7.639465
v -4.640369 5.388905 6.295465
v -4.640369 -5.404096 6.295465
v -3.564369 -5.404096 6.967464
v -4.640369 5.388905 6.295465
v -3.564369 -5.404096 6.967464
v -2.488369 5.388905 7.639465
v -2.380369 -5.404096 7.382965
v -2.272369 -5.404096 7.126465
v -2.272369 5.388905 7.126465
v -2.488369 5.388905 7.639465
v -2.488369 -5.404096 7.639465
v -2.380369 -5.404096 7.382965
v -2.488369 5.388905 7.639465
v -2.380369 -5.404096 7.382965
v -2.272369 5.388905 7.126465
v -2.272369 -5.404096 7.126465
v -1.462369 -5.404096 7.621465
v -1.462369 5.388905 7.621465
v -2.272369 5.388905 7.126465
v -1.462369 -5.404096 7.621465
v 3.546631 -5.404096 3.647465
v 3.546631 5.388905 3.647465
v -1.462369 5.388905 7.621465
v 3.546631 -5.404096 3.647465
v 7.702631 -5.404096 -3.003535
v 7.702631 5.388905 -3.003535
v 3.546631 5.388905 3.647465
v 6.954631 5.388905 -3.471535
v 7.702631 5.388905 -3.003535
v 7.702631 -5.404096 -3.003535
v 6.954631 -5.404096 -3.471535
v 6.954631 -5.404096 -3.471535
v 7.194631 -5.404096 -3.856535
v 7.194631 5.388905 -3.856535
v 6.954631 5.388905 -3.471535
v 0.6356308 5.388905 -7.955535
v 7.194631 5.388905 -3.856535
v 7.194631 -5.404096 -3.856535
v 0.6356308 -5.404096 -7.955535
v 0.4246309 5.388905 -7.617535
v 0.6356308 5.388905 -7.955535
v 0.6356308 -5.404096 -7.955535
v 0.4246309 -5.404096 -7.617535
v -0.2463692 5.388905 -8.037536
v 0.08913083 -5.404096 -7.827535
v -0.2463692 -5.404096 -8.037536
v 0.08913083 -5.404096 -7.827535
v 0.4246309 5.388905 -7.617535
v 0.4246309 -5.404096 -7.617535
v -0.2463692 5.388905 -8.037536
v 0.4246309 5.388905 -7.617535
v 0.08913083 -5.404096 -7.827535
v -7.564369 5.388905 3.674465
v -0.2463692 5.388905 -8.037536
v -0.2463692 -5.404096 -8.037536
v -7.564369 -5.404096 3.674465
v -7.592369 5.388905 3.719465
v -7.564369 5.388905 3.674465
v -7.564369 -5.404096 3.674465
v -7.592369 -5.404096 3.719465
v -8.542369 6.947905 4.011465
v -8.143369 6.947905 3.375465
v -8.143369 -5.404096 3.375465
v -8.542369 -5.404096 4.011465
v -8.542369 -5.404096 4.011465
v -7.295369 -5.404096 4.793465
v -7.295369 6.947905 4.793465
v -8.542369 6.947905 4.011465
v -7.295369 6.947905 4.793465
v -6.895369 5.388905 4.155465
v -6.895369 6.947905 4.155465
v -7.295369 -5.404096 4.793465
v -6.895369 -5.404096 4.155465
v -6.895369 5.388905 4.155465
v -7.295369 6.947905 4.793465
v -8.143369 6.947905 3.375465
v -7.867869 -5.404096 3.547465
v -8.143369 -5.404096 3.375465
v -8.143369 6.947905 3.375465
v -7.592369 6.947905 3.719465
v -7.867869 -5.404096 3.547465
v -7.867869 -5.404096 3.547465
v -7.592369 6.947905 3.719465
v -7.592369 5.388905 3.719465
v -7.867869 -5.404096 3.547465
v -7.592369 5.388905 3.719465
v -7.592369 -5.404096 3.719465
v -7.592369 6.947905 3.719465
v -6.895369 6.947905 4.155465
v -6.895369 5.388905 4.155465
v -7.592369 5.388905 3.719465
v -8.542369 -5.404096 4.011465
v -8.143369 -5.404096 3.375465
v -7.867869 -5.404096 3.547465
v -7.592369 -5.404096 3.719465
v -7.564369 -5.404096 3.674465
v -0.2463692 -5.404096 -8.037536
v 0.08913083 -5.404096 -7.827535
v 0.4246309 -5.404096 -7.617535
v 0.6356308 -5.404096 -7.955535
v 7.194631 -5.404096 -3.856535
v 6.954631 -5.404096 -3.471535
v 7.702631 -5.404096 -3.003535
v 3.546631 -5.404096 3.647465
v -1.462369 -5.404096 7.621465
v -2.272369 -5.404096 7.126465
v -2.380369 -5.404096 7.382965
v -2.488369 -5.404096 7.639465
v -3.564369 -5.404096 6.967464
v -4.640369 -5.404096 6.295465
v -4.311369 -5.404096 5.769464
v -6.895369 -5.404096 4.155465
v -7.295369 -5.404096 4.793465
vt 0.184046 0.142865
vt 0.488890 0.001901
vt 0.510790 0.026743
vt 0.185554 0.514990
vt 0.165152 0.491847
vt 0.187616 0.514041
vt 0.187616 0.514041
vt 0.704753 0.243580
vt 0.724406 0.265863
vt 0.187616 0.514041
vt 0.165152 0.491847
vt 0.704753 0.243580
vt 0.089625 0.406044
vt 0.184046 0.142865
vt 0.704753 0.243580
vt 0.704753 0.243580
vt 0.510790 0.026743
vt 0.528437 0.018602
vt 0.720246 0.236424
vt 0.165152 0.491847
vt 0.089625 0.406044
vt 0.704753 0.243580
vt 0.065519 0.417201
vt 0.002625 0.345741
vt 0.026181 0.338363
vt 0.026181 0.338363
vt 0.003009 0.311462
vt 0.184046 0.142865
vt 0.065519 0.417201
vt 0.026181 0.338363
vt 0.089625 0.406044
vt 0.089625 0.406044
vt 0.026181 0.338363
vt 0.184046 0.142865
vt 0.704753 0.243580
vt 0.184046 0.142865
vt 0.510790 0.026743
vt 0.735663 0.815275
vt 0.687664 0.805962
vt 0.715936 0.792776
vt 0.723045 0.846214
vt 0.687664 0.805962
vt 0.735663 0.815275
vt 0.723045 0.846214
vt 0.735663 0.815275
vt 0.751228 0.833062
vt 0.382001 0.898781
vt 0.309711 0.815310
vt 0.310357 0.792776
vt 0.383632 0.877386
vt 0.819206 0.803352
vt 0.840981 0.792776
vt 0.840379 0.814438
vt 0.818898 0.824872
vt 0.552687 0.850724
vt 0.522796 0.816051
vt 0.522310 0.792776
vt 0.582908 0.863066
vt 0.582578 0.885396
vt 0.552687 0.850724
vt 0.582908 0.863066
vt 0.552687 0.850724
vt 0.522310 0.792776
vt 0.603652 0.796237
vt 0.614056 0.792776
vt 0.611639 0.865870
vt 0.590551 0.872886
vt 0.593248 0.799699
vt 0.603652 0.796237
vt 0.590551 0.872886
vt 0.603652 0.796237
vt 0.611639 0.865870
vt 0.779370 0.841743
vt 0.758975 0.816092
vt 0.758530 0.792776
vt 0.779202 0.818776
vt 0.551501 0.681482
vt 0.727727 0.519011
vt 0.727156 0.590674
vt 0.548556 0.755330
vt 0.003199 0.927650
vt 0.300251 0.792776
vt 0.303678 0.862540
vt 0.002625 0.999229
vt 0.486999 0.886031
vt 0.467678 0.861800
vt 0.464567 0.792776
vt 0.483631 0.816685
vt 0.619423 0.800449
vt 0.634841 0.792776
vt 0.638374 0.861721
vt 0.622749 0.869497
vt 0.919056 0.287356
vt 0.733581 0.072063
vt 0.729659 0.001901
vt 0.912670 0.214336
vt 0.855843 0.799536
vt 0.869837 0.792776
vt 0.861575 0.816519
vt 0.847769 0.823188
vt 0.516418 0.886665
vt 0.501992 0.803499
vt 0.510546 0.814222
vt 0.501992 0.803499
vt 0.499080 0.864930
vt 0.493438 0.792776
vt 0.516418 0.886665
vt 0.499080 0.864930
vt 0.501992 0.803499
vt 0.006638 0.766367
vt 0.542777 0.519011
vt 0.533585 0.543667
vt 0.004657 0.787695
vt 0.004578 0.767313
vt 0.006638 0.766367
vt 0.004657 0.787695
vt 0.002625 0.788629
vt 0.786655 0.805702
vt 0.813523 0.792776
vt 0.811231 0.815890
vt 0.784777 0.828618
vt 0.679484 0.856659
vt 0.645669 0.816831
vt 0.647053 0.792776
vt 0.681396 0.833227
vt 0.430446 0.892287
vt 0.457315 0.868174
vt 0.457198 0.879234
vt 0.431772 0.805631
vt 0.458117 0.792776
vt 0.457315 0.868174
vt 0.430446 0.892287
vt 0.424363 0.897582
vt 0.417559 0.801599
vt 0.424788 0.810422
vt 0.424363 0.897582
vt 0.409683 0.879664
vt 0.417559 0.801599
vt 0.417559 0.801599
vt 0.409683 0.879664
vt 0.409766 0.868550
vt 0.417559 0.801599
vt 0.409766 0.868550
vt 0.410331 0.792776
vt 0.409683 0.879664
vt 0.391076 0.856997
vt 0.391195 0.845927
vt 0.409766 0.868550
vt 0.876640 0.792776
vt 0.876640 0.792776
vt 0.876640 0.792776
vt 0.876640 0.792776
vt 0.876640 0.792776
vt 0.876640 0.792776
vt 0.876640 0.792776
vt 0.876640 0.792776
vt 0.876640 0.792776
vt 0.876640 0.792776
vt 0.876640 0.792776
vt 0.876640 0.792776
vt 0.876640 0.792776
vt 0.876640 0.792776
vt 0.876640 0.792776
vt 0.876640 0.792776
vt 0.876640 0.792776
vt 0.876640 0.792776
vt 0.876640 0.792776
vt 0.876640 0.792776
vt 0.876640 0.792776
vt 0.876640 0.792776
vn 0 1 0
vn 0 1 0
vn 0 1 0
vn 0 1 0
vn 0 1 0
vn 0 1 0
vn 0 1 0
vn 0 1 0
vn 0 1 0
vn 0 1 0
vn 0 1 0
vn 0 1 0
vn 0 1 0
vn 0 1 0
vn 0 1 0
vn 0 1 0
vn 0 1 0
vn 0 1 0
vn 0 1 0
vn 0 1 0
vn 0 1 0
vn 0 1 0
vn 0 1 0
vn 0 1 0
vn 0 1 0
vn 0 1 0
vn 0 1 0
vn 0 1 0
vn 0 1 0
vn 0 1 0
vn 0 1 0
vn 0 1 0
vn 0 1 0
vn 0 1 0
vn 0 1 0
vn 0 1 0
vn 0 1 0
vn 0 1 0
vn 0 1 0
vn 0 1 0
vn 0 1 0
vn 0 1 0
vn 0 1 0
vn 0 1 0
vn 0 1 0
vn 0 1 0
vn -0.5297629 0 0.8481458
vn -0.5297629 0 0.8481458
vn -0.5297629 0 0.8481458
vn -0.5297629 0 0.8481458
vn -0.8478171 0 -0.5302887
vn -0.8478171 0 -0.5302887
vn -0.8478171 0 -0.5302887
vn -0.8478171 0 -0.5302887
vn -0.5297155 0 0.8481754
vn -0.5297155 0 0.8481754
vn -0.5297155 0 0.8481754
vn -0.5297155 0 0.8481754
vn -0.5297155 0 0.8481754
vn -0.5297155 0 0.8481754
vn -0.5297155 0 0.8481754
vn -0.5297155 0 0.8481754
vn -0.5297155 0 0.8481754
vn 0.9216354 0 0.388057
vn 0.9216354 0 0.388057
vn 0.9216354 0 0.388057
vn 0.9216354 0 0.388057
vn 0.9216354 0 0.388057
vn 0.9216354 0 0.388057
vn 0.9216354 0 0.388057
vn 0.9216354 0 0.388057
vn 0.9216354 0 0.388057
vn -0.52145 0 0.8532819
vn -0.52145 0 0.8532819
vn -0.52145 0 0.8532819
vn -0.52145 0 0.8532819
vn 0.6215238 0 0.7833953
vn 0.6215238 0 0.7833953
vn 0.6215238 0 0.7833953
vn 0.6215238 0 0.7833953
vn 0.8480484 0 0.5299187
vn 0.8480484 0 0.5299187
vn 0.8480484 0 0.5299187
vn 0.8480484 0 0.5299187
vn 0.5304064 0 -0.8477435
vn 0.5304064 0 -0.8477435
vn 0.5304064 0 -0.8477435
vn 0.5304064 0 -0.8477435
vn 0.8486169 0 0.5290079
vn 0.8486169 0 0.5290079
vn 0.8486169 0 0.5290079
vn 0.8486169 0 0.5290079
vn 0.5299641 0 -0.8480201
vn 0.5299641 0 -0.8480201
vn 0.5299641 0 -0.8480201
vn 0.5299641 0 -0.8480201
vn -0.8482802 0 -0.5295477
vn -0.8482802 0 -0.5295477
vn -0.8482802 0 -0.5295477
vn -0.8482802 0 -0.5295477
vn 0.5305666 0 -0.8476433
vn 0.5305666 0 -0.8476433
vn 0.5305666 0 -0.8476433
vn 0.5305666 0 -0.8476433
vn 0.5305666 0 -0.8476433
vn 0.5305666 0 -0.8476433
vn 0.5305666 0 -0.8476433
vn 0.5305666 0 -0.8476433
vn 0.5305666 0 -0.8476433
vn -0.8480634 0 -0.5298948
vn -0.8480634 0 -0.5298948
vn -0.8480634 0 -0.5298948
vn -0.8480634 0 -0.5298948
vn -0.8490566 0 -0.5283019
vn -0.8490566 0 -0.5283019
vn -0.8490566 0 -0.5283019
vn -0.8490566 0 -0.5283019
vn -0.8470992 0 -0.5314348
vn -0.8470992 0 -0.5314348
vn -0.8470992 0 -0.5314348
vn -0.8470992 0 -0.5314348
vn -0.5312808 0 0.8471958
vn -0.5312808 0 0.8471958
vn -0.5312808 0 0.8471958
vn -0.5312808 0 0.8471958
vn 0.8472514 0 0.5311921
vn 0.8472514 0 0.5311921
vn 0.8472514 0 0.5311921
vn 0.8472514 0 0.5311921
vn 0.8472514 0 0.5311921
vn 0.8472514 0 0.5311921
vn 0.8472514 0 0.5311921
vn 0.5295838 0 -0.8482577
vn 0.5295838 0 -0.8482577
vn 0.5295838 0 -0.8482577
vn 0.5295838 0 -0.8482577
vn 0.5295838 0 -0.8482577
vn 0.5295838 0 -0.8482577
vn 0.5295838 0 -0.8482577
vn 0.5295838 0 -0.8482577
vn 0.5295838 0 -0.8482577
vn 0.5295838 0 -0.8482577
vn 0.5295838 0 -0.8482577
vn 0.5295838 0 -0.8482577
vn 0.5303269 0 -0.8477932
vn 0.5303269 0 -0.8477932
vn 0.5303269 0 -0.8477932
vn 0.5303269 0 -0.8477932
vn 0 -1 0
vn 0 -1 0
vn 0 -1 0
vn 0 -1 0
vn 0 -1 0
vn 0 -1 0
vn 0 -1 0
vn 0 -1 0
vn 0 -1 0
vn 0 -1 0
vn 0 -1 0
vn 0 -1 0
vn 0 -1 0
vn 0 -1 0
vn 0 -1 0
vn 0 -1 0
vn 0 -1 0
vn 0 -1 0
vn 0 -1 0
vn 0 -1 0
vn 0 -1 0
vn 0 -1 0

g CDNNDG02_0000150
f 1/1/1 2/2/2 3/3/3
f 4/4/4 5/5/5 6/6/6
f 7/7/7 8/8/8 9/9/9
f 10/10/10 11/11/11 12/12/12
f 13/13/13 14/14/14 15/15/15
f 19/19/19 16/16/16 18/18/18
f 18/18/18 16/16/16 17/17/17
f 20/20/20 21/21/21 22/22/22
f 23/23/23 24/24/24 25/25/25
f 26/26/26 27/27/27 28/28/28
f 29/29/29 30/30/30 31/31/31
f 32/32/32 33/33/33 34/34/34
f 35/35/35 36/36/36 37/37/37
f 38/38/38 39/39/39 40/40/40
f 41/41/41 42/42/42 43/43/43
f 44/44/44 45/45/45 46/46/46
f 50/50/50 47/47/47 48/48/48
f 49/49/49 50/50/50 48/48/48
f 51/51/51 53/53/53 54/54/54
f 51/51/51 52/52/52 53/53/53
f 55/55/55 56/56/56 57/57/57
f 58/58/58 59/59/59 60/60/60
f 61/61/61 62/62/62 63/63/63
f 64/64/64 65/65/65 66/66/66
f 67/67/67 68/68/68 69/69/69
f 70/70/70 71/71/71 72/72/72
f 76/76/76 73/73/73 75/75/75
f 75/75/75 73/73/73 74/74/74
f 77/77/77 79/79/79 80/80/80
f 77/77/77 78/78/78 79/79/79
f 81/81/81 83/83/83 84/84/84
f 81/81/81 82/82/82 83/83/83
f 87/87/87 85/85/85 86/86/86
f 85/85/85 87/87/87 88/88/88
f 90/90/90 91/91/91 89/89/89
f 89/89/89 91/91/91 92/92/92
f 96/96/96 93/93/93 95/95/95
f 94/94/94 95/95/95 93/93/93
f 98/98/98 99/99/99 100/100/100
f 97/97/97 98/98/98 100/100/100
f 101/101/101 102/102/102 103/103/103
f 104/104/104 105/105/105 106/106/106
f 107/107/107 108/108/108 109/109/109
f 113/113/113 110/110/110 112/112/112
f 112/112/112 110/110/110 111/111/111
f 117/117/117 115/115/115 116/116/116
f 117/117/117 114/114/114 115/115/115
f 118/118/118 120/120/120 121/121/121
f 118/118/118 119/119/119 120/120/120
f 125/125/125 122/122/122 124/124/124
f 124/124/124 122/122/122 123/123/123
f 126/126/126 127/127/127 128/128/128
f 130/130/130 131/131/131 129/129/129
f 129/129/129 131/131/131 132/132/132
f 133/133/133 134/134/134 135/135/135
f 136/136/136 137/137/137 138/138/138
f 139/139/139 140/140/140 141/141/141
f 142/142/142 143/143/143 144/144/144
f 145/145/145 147/147/147 148/148/148
f 145/145/145 146/146/146 147/147/147
f 170/170/170 149/149/149 152/152/152
f 169/169/169 152/152/152 153/153/153
f 149/149/149 150/150/150 151/151/151
f 155/155/155 153/153/153 154/154/154
f 151/151/151 152/152/152 149/149/149
f 163/163/163 166/166/166 168/168/168
f 156/156/156 153/153/153 155/155/155
f 168/168/168 169/169/169 156/156/156
f 156/156/156 157/157/157 158/158/158
f 168/168/168 161/161/161 163/163/163
f 159/159/159 156/156/156 158/158/158
f 161/161/161 156/156/156 159/159/159
f 156/156/156 169/169/169 153/153/153
f 168/168/168 156/156/156 161/161/161
f 159/159/159 160/160/160 161/161/161
f 169/169/169 170/170/170 152/152/152
f 161/161/161 162/162/162 163/163/163
f 163/163/163 164/164/164 166/166/166
f 168/168/168 166/166/166 167/167/167
f 164/164/164 165/165/165 166/166/166
