v -1.843302 5.571448 2.383461
v 6.612699 5.590448 -4.04254
v 0.08269846 5.591448 -8.21054
v -0.4433015 5.577448 3.234461
v 1.196698 5.578366 3.783461
v 6.612699 5.590448 -4.04254
v 1.196698 5.578366 3.783461
v 1.495698 5.578448 3.974461
v 6.612699 5.590448 -4.04254
v -0.4433015 5.577448 3.234461
v 1.157261 5.578274 3.845299
v 1.196698 5.578366 3.783461
v -5.280302 5.591448 0.1904605
v -1.843302 5.571448 2.383461
v 0.08269846 5.591448 -8.21054
v -1.843302 5.571448 2.383461
v -1.76585 5.571744 2.704797
v -0.4433015 5.577448 3.234461
v -1.76585 5.571744 2.704797
v -1.581302 5.572448 3.47046
v -0.4433015 5.577448 3.234461
v -0.4433015 5.577448 3.234461
v 0.9710956 5.577448 4.13721
v 1.157261 5.578274 3.845299
v -1.843302 5.571448 2.383461
v -0.4433015 5.577448 3.234461
v 6.612699 5.590448 -4.04254
v 0.947403 8.658448 4.548299
v 1.076698 8.658448 4.630461
v 1.269699 8.658448 4.32746
v 0.947403 8.658448 4.548299
v 1.269699 8.658448 4.32746
v 0.9710956 8.658448 4.13721
v 0.7776985 8.658448 4.440461
v 0.947403 8.658448 4.548299
v 0.9710956 8.658448 4.13721
v 0.9710956 8.658448 4.13721
v 1.269699 8.658448 4.32746
v 1.196698 8.658448 3.783461
v 1.196698 8.658448 3.783461
v 1.269699 8.658448 4.32746
v 1.495698 8.657449 3.974461
v -0.4433015 4.529634 3.234461
v 0.7985862 4.636594 4.407708
v 0.9710956 4.636586 4.13721
v -3.186963 4.556064 8.303691
v -2.559963 4.52612 6.448191
v -3.792131 4.50939 7.890826
v -2.040625 4.567217 6.832921
v -2.040625 4.567217 6.832921
v -1.327794 4.542849 5.005556
v -2.559963 4.52612 6.448191
v -0.8942871 4.57837 5.36215
v -2.581794 4.602738 8.716556
v -2.040625 4.567217 6.832921
v -3.186963 4.556064 8.303691
v -1.521287 4.608314 7.21765
v -0.4607801 4.613891 5.718745
v -0.8942871 4.57837 5.36215
v -2.040625 4.567217 6.832921
v -1.521287 4.608314 7.21765
v -5.7153 4.440411 8.892462
v -3.186963 4.556064 8.303691
v -3.792131 4.50939 7.890826
v -5.7153 4.440411 8.892462
v -2.951302 4.649411 10.65646
v -3.186963 4.556064 8.303691
v -5.7153 4.440411 8.892462
v -3.792131 4.50939 7.890826
v -2.559963 4.52612 6.448191
v -2.559963 4.52612 6.448191
v -1.327794 4.542849 5.005556
v -0.4433015 4.529634 3.234461
v -5.7153 4.440411 8.892462
v -2.559963 4.52612 6.448191
v -0.4433015 4.529634 3.234461
v -1.327794 4.542849 5.005556
v -0.8942871 4.57837 5.36215
v -0.4433015 4.529634 3.234461
v -0.8942871 4.57837 5.36215
v 0.7985862 4.636594 4.407708
v -0.4433015 4.529634 3.234461
v -2.951302 4.649411 10.65646
v -1.521287 4.608314 7.21765
v -2.581794 4.602738 8.716556
v -3.186963 4.556064 8.303691
v -2.951302 4.649411 10.65646
v -2.581794 4.602738 8.716556
v -2.951302 4.649411 10.65646
v 0.947403 4.649411 4.548299
v -1.521287 4.608314 7.21765
v -0.8942871 4.57837 5.36215
v -0.4607801 4.613891 5.718745
v 0.7985862 4.636594 4.407708
v -0.4607801 4.613891 5.718745
v 0.7776985 4.636595 4.440461
v 0.7985862 4.636594 4.407708
v -0.4607801 4.613891 5.718745
v 0.947403 4.649411 4.548299
v 0.7776985 4.636595 4.440461
v -1.521287 4.608314 7.21765
v 0.947403 4.649411 4.548299
v -0.4607801 4.613891 5.718745
v -5.7153 4.440411 8.892462
v -1.581302 4.476584 3.47046
v -1.76585 4.440411 2.704797
v -5.7153 4.440411 8.892462
v -0.4433015 4.529634 3.234461
v -1.581302 4.476584 3.47046
v -1.581302 5.572448 3.47046
v -0.4433015 4.529634 3.234461
v -0.4433015 5.577448 3.234461
v -1.581302 4.476584 3.47046
v 1.495698 -5.366898 3.974461
v 1.495698 5.578448 3.974461
v 1.269699 5.577448 4.32746
v 1.269699 -5.366898 4.32746
v 6.612699 -5.366898 -4.04254
v 6.612699 5.590448 -4.04254
v 1.495698 5.578448 3.974461
v 1.495698 -5.366898 3.974461
v 1.076698 8.658448 4.630461
v 1.269699 5.577448 4.32746
v 1.269699 8.658448 4.32746
v 1.269699 -5.366898 4.32746
v 1.269699 5.577448 4.32746
v 1.076698 -5.366898 4.630461
v 1.076698 8.658448 4.630461
v 1.495698 5.578448 3.974461
v 1.495698 8.657449 3.974461
v 1.269699 5.577448 4.32746
v 1.269699 8.658448 4.32746
v 0.08269846 5.591448 -8.21054
v 3.347698 -5.366898 -6.12654
v 0.08269846 -5.366898 -8.21054
v 3.347698 -5.366898 -6.12654
v 6.612699 5.590448 -4.04254
v 6.612699 -5.366898 -4.04254
v 0.08269846 5.591448 -8.21054
v 6.612699 5.590448 -4.04254
v 3.347698 -5.366898 -6.12654
v -5.280302 5.591448 0.1904605
v 0.08269846 -5.366898 -8.21054
v -5.280302 -5.366898 0.1904605
v 0.08269846 5.591448 -8.21054
v -5.280302 5.591448 0.1904605
v -5.280302 -5.366898 0.1904605
v -1.843302 5.571448 2.383461
v -1.843302 -5.366898 2.383461
v -1.804576 -5.366898 2.544129
v -1.76585 4.440411 2.704797
v -1.76585 5.571744 2.704797
v -1.804576 -5.366898 2.544129
v -1.76585 -5.366898 2.704797
v -1.76585 4.440411 2.704797
v -1.843302 5.571448 2.383461
v -1.843302 -5.366898 2.383461
v -1.804576 -5.366898 2.544129
v -1.843302 5.571448 2.383461
v -1.804576 -5.366898 2.544129
v -1.76585 5.571744 2.704797
v -1.76585 4.440411 2.704797
v -1.581302 4.476584 3.47046
v -1.76585 5.571744 2.704797
v -1.581302 5.572448 3.47046
v 0.7776985 8.658448 4.440461
v 0.947403 4.649411 4.548299
v 0.947403 8.658448 4.548299
v 0.7776985 4.636595 4.440461
v 1.076698 -5.366898 4.630461
v 1.076698 8.658448 4.630461
v 0.947403 4.649411 4.548299
v 0.947403 -5.366898 4.548299
v 0.947403 8.658448 4.548299
v 0.947403 4.649411 4.548299
v 1.076698 8.658448 4.630461
v 0.7776985 8.658448 4.440461
v 0.7985862 4.636594 4.407708
v 0.7776985 4.636595 4.440461
v 0.7776985 8.658448 4.440461
v 0.9710956 5.577448 4.13721
v 0.7985862 4.636594 4.407708
v 0.7776985 8.658448 4.440461
v 0.9710956 8.658448 4.13721
v 0.9710956 5.577448 4.13721
v 0.7985862 4.636594 4.407708
v 0.9710956 5.577448 4.13721
v 0.9710956 4.636586 4.13721
v 0.9710956 8.658448 4.13721
v 1.157261 5.578274 3.845299
v 0.9710956 5.577448 4.13721
v 1.157261 5.578274 3.845299
v 1.196698 8.658448 3.783461
v 1.196698 5.578366 3.783461
v 0.9710956 8.658448 4.13721
v 1.196698 8.658448 3.783461
v 1.157261 5.578274 3.845299
v -5.7153 4.440411 8.892462
v -5.7153 -5.366898 8.892462
v -2.951302 -5.366898 10.65646
v -2.951302 4.649411 10.65646
v 0.947403 -5.366898 4.548299
v 0.947403 4.649411 4.548299
v -2.951302 4.649411 10.65646
v -2.951302 -5.366898 10.65646
v -5.7153 4.440411 8.892462
v -3.740575 -5.366898 5.798629
v -5.7153 -5.366898 8.892462
v -3.740575 -5.366898 5.798629
v -1.76585 4.440411 2.704797
v -1.76585 -5.366898 2.704797
v -5.7153 4.440411 8.892462
v -1.76585 4.440411 2.704797
v -3.740575 -5.366898 5.798629
v -0.4433015 5.577448 3.234461
v 0.9710956 4.636586 4.13721
v 0.9710956 5.577448 4.13721
v -0.4433015 4.529634 3.234461
v 1.495698 5.578448 3.974461
v 1.196698 5.578366 3.783461
v 1.495698 8.657449 3.974461
v 1.196698 8.658448 3.783461
v -3.740575 -5.366898 5.798629
v -1.76585 -5.366898 2.704797
v 0.947403 -5.366898 4.548299
v 1.495698 -5.366898 3.974461
v -1.804576 -5.366898 2.544129
v 1.269699 -5.366898 4.32746
v -2.951302 -5.366898 10.65646
v 1.076698 -5.366898 4.630461
v -5.280302 -5.366898 0.1904605
v 0.08269846 -5.366898 -8.21054
v 3.347698 -5.366898 -6.12654
v 6.612699 -5.366898 -4.04254
v -1.843302 -5.366898 2.383461
v -5.7153 -5.366898 8.892462
vt 0.399036 0.095425
vt 0.156470 0.323805
vt 0.002169 0.145579
vt 0.430471 0.133617
vt 0.450594 0.178277
vt 0.156470 0.323805
vt 0.450594 0.178277
vt 0.457663 0.186438
vt 0.156470 0.323805
vt 0.430471 0.133617
vt 0.452917 0.177218
vt 0.450594 0.178277
vt 0.317688 0.001575
vt 0.399036 0.095425
vt 0.002169 0.145579
vt 0.399036 0.095425
vt 0.411033 0.097593
vt 0.430471 0.133617
vt 0.411033 0.097593
vt 0.439618 0.102759
vt 0.430471 0.133617
vt 0.430471 0.133617
vt 0.463887 0.172221
vt 0.452917 0.177218
vt 0.399036 0.095425
vt 0.430471 0.133617
vt 0.156470 0.323805
vt 0.139783 0.969667
vt 0.142646 0.972953
vt 0.131934 0.977778
vt 0.139783 0.969667
vt 0.131934 0.977778
vt 0.125305 0.970189
vt 0.136026 0.965354
vt 0.139783 0.969667
vt 0.125305 0.970189
vt 0.125305 0.970189
vt 0.131934 0.977778
vt 0.112798 0.975830
vt 0.112798 0.975830
vt 0.131934 0.977778
vt 0.119461 0.983430
vt 0.534937 0.468735
vt 0.577462 0.502346
vt 0.567342 0.506954
vt 0.724250 0.395549
vt 0.655210 0.412180
vt 0.709392 0.379199
vt 0.669082 0.426217
vt 0.669082 0.426217
vt 0.601026 0.445162
vt 0.655210 0.412180
vt 0.613915 0.456885
vt 0.739108 0.411901
vt 0.669082 0.426217
vt 0.724250 0.395549
vt 0.682956 0.440255
vt 0.626804 0.468609
vt 0.613915 0.456885
vt 0.669082 0.426217
vt 0.682956 0.440255
vt 0.747733 0.327559
vt 0.724250 0.395549
vt 0.709392 0.379199
vt 0.747733 0.327559
vt 0.811107 0.402214
vt 0.724250 0.395549
vt 0.747733 0.327559
vt 0.709392 0.379199
vt 0.655210 0.412180
vt 0.655210 0.412180
vt 0.601026 0.445162
vt 0.534937 0.468735
vt 0.747733 0.327559
vt 0.655210 0.412180
vt 0.534937 0.468735
vt 0.601026 0.445162
vt 0.613915 0.456885
vt 0.534937 0.468735
vt 0.613915 0.456885
vt 0.577462 0.502346
vt 0.534937 0.468735
vt 0.811107 0.402214
vt 0.682956 0.440255
vt 0.739108 0.411901
vt 0.724250 0.395549
vt 0.811107 0.402214
vt 0.739108 0.411901
vt 0.811107 0.402214
vt 0.582559 0.506374
vt 0.682956 0.440255
vt 0.613915 0.456885
vt 0.626804 0.468609
vt 0.577462 0.502346
vt 0.626804 0.468609
vt 0.578688 0.501788
vt 0.577462 0.502346
vt 0.626804 0.468609
vt 0.582559 0.506374
vt 0.578688 0.501788
vt 0.682956 0.440255
vt 0.582559 0.506374
vt 0.626804 0.468609
vt 0.747733 0.327559
vt 0.544446 0.438124
vt 0.516269 0.433050
vt 0.747733 0.327559
vt 0.534937 0.468735
vt 0.544446 0.438124
vt 0.099276 0.965354
vt 0.098881 0.996691
vt 0.091106 0.994886
vt 0.107395 0.967282
vt 0.392633 0.578566
vt 0.303208 0.559897
vt 0.316468 0.553857
vt 0.405707 0.572604
vt 0.095729 0.713532
vt 0.002169 0.696679
vt 0.303208 0.559897
vt 0.392633 0.578566
vt 0.302324 0.543307
vt 0.316468 0.553857
vt 0.290906 0.548487
vt 0.405707 0.572604
vt 0.316468 0.553857
vt 0.416929 0.567514
vt 0.302324 0.543307
vt 0.303208 0.559897
vt 0.277613 0.554554
vt 0.316468 0.553857
vt 0.290906 0.548487
vt 0.625908 0.277539
vt 0.735794 0.089067
vt 0.813418 0.176556
vt 0.735794 0.089067
vt 0.468547 0.100163
vt 0.658167 0.001575
vt 0.625908 0.277539
vt 0.468547 0.100163
vt 0.735794 0.089067
vt 0.002169 0.477321
vt 0.511043 0.391570
vt 0.195623 0.539275
vt 0.321966 0.327559
vt 0.002169 0.778135
vt 0.093045 0.718110
vt 0.083496 0.871099
vt 0.173114 0.809938
vt 0.569751 0.876625
vt 0.496168 0.931745
vt 0.486882 0.938069
vt 0.569751 0.876625
vt 0.575587 0.877659
vt 0.496168 0.931745
vt 0.475054 0.935971
vt 0.563916 0.875591
vt 0.569751 0.876625
vt 0.475054 0.935971
vt 0.569751 0.876625
vt 0.486882 0.938069
vt 0.496168 0.931745
vt 0.524022 0.936935
vt 0.486882 0.938069
vt 0.515065 0.943068
vt 0.242950 0.950364
vt 0.279749 0.931975
vt 0.246936 0.954938
vt 0.275887 0.927351
vt 0.363304 0.879015
vt 0.249972 0.958422
vt 0.279749 0.931975
vt 0.360320 0.875591
vt 0.246936 0.954938
vt 0.279749 0.931975
vt 0.249972 0.958422
vt 0.002169 0.976674
vt 0.074889 0.999213
vt 0.073670 0.999774
vt 0.002169 0.976674
vt 0.068311 0.989187
vt 0.074889 0.999213
vt 0.002169 0.976674
vt 0.013516 0.971449
vt 0.068311 0.989187
vt 0.074889 0.999213
vt 0.068311 0.989187
vt 0.084959 0.994576
vt 0.013516 0.971449
vt 0.079176 0.984173
vt 0.068311 0.989187
vt 0.079176 0.984173
vt 0.026752 0.965354
vt 0.081480 0.983111
vt 0.013516 0.971449
vt 0.026752 0.965354
vt 0.079176 0.984173
vt 0.177874 0.771525
vt 0.255017 0.718110
vt 0.319261 0.791824
vt 0.241254 0.847307
vt 0.406707 0.839016
vt 0.325380 0.821836
vt 0.553999 0.718110
vt 0.632524 0.736563
vt 0.422993 0.653200
vt 0.715796 0.654017
vt 0.599766 0.708287
vt 0.715796 0.654017
vt 0.657934 0.543307
vt 0.831829 0.599745
vt 0.422993 0.653200
vt 0.657934 0.543307
vt 0.715796 0.654017
vt 0.661605 0.881423
vt 0.701180 0.913500
vt 0.693745 0.918781
vt 0.669926 0.875591
vt 0.908524 0.875591
vt 0.915542 0.883417
vt 0.854664 0.903275
vt 0.861689 0.911142
vt 0.147505 0.965354
vt 0.147505 0.965354
vt 0.147505 0.965354
vt 0.147505 0.965354
vt 0.147505 0.965354
vt 0.147505 0.965354
vt 0.147505 0.965354
vt 0.147505 0.965354
vt 0.147505 0.965354
vt 0.147505 0.965354
vt 0.147505 0.965354
vt 0.147505 0.965354
vt 0.147505 0.965354
vt 0.147505 0.965354
vn -0.000942485 0.9999981 0.001716513
vn -0.000942485 0.9999981 0.001716513
vn -0.000942485 0.9999981 0.001716513
vn -0.0008740625 0.9999992 0.0009389314
vn -0.0008740625 0.9999992 0.0009389314
vn -0.0008740625 0.9999992 0.0009389314
vn -0.0008740652 0.9999992 0.0009389296
vn -0.0008740652 0.9999992 0.0009389296
vn -0.0008740652 0.9999992 0.0009389296
vn -0.0008740482 0.9999992 0.0009388886
vn -0.0008740482 0.9999992 0.0009388886
vn -0.0008740482 0.9999992 0.0009388886
vn 0.004134779 0.999988 0.002639545
vn 0.004134779 0.999988 0.002639545
vn 0.004134779 0.999988 0.002639545
vn -0.004366164 0.9999905 0.0001324173
vn -0.004366164 0.9999905 0.0001324173
vn -0.004366164 0.9999905 0.0001324173
vn -0.004366168 0.9999905 0.0001324274
vn -0.004366168 0.9999905 0.0001324274
vn -0.004366168 0.9999905 0.0001324274
vn -0.00128272 0.9999971 0.002009721
vn -0.00128272 0.9999971 0.002009721
vn -0.00128272 0.9999971 0.002009721
vn -0.003379637 0.9999932 -0.00149056
vn -0.003379637 0.9999932 -0.00149056
vn -0.003379637 0.9999932 -0.00149056
vn 0 1 0
vn 0 1 0
vn 0 1 0
vn 0 1 0
vn 0 1 0
vn 0 1 0
vn 0 1 0
vn 0 1 0
vn 0 1 0
vn 0 1 0
vn 0 1 0
vn 0 1 0
vn 0.003658028 0.9999932 -0.000490875
vn 0.003658028 0.9999932 -0.000490875
vn 0.003658028 0.9999932 -0.000490875
vn -0.05362016 0.9979748 -0.03422459
vn -0.05362016 0.9979748 -0.03422459
vn -0.05362016 0.9979748 -0.03422459
vn -0.05361985 0.9979748 -0.03422447
vn -0.05361985 0.9979748 -0.03422447
vn -0.05361981 0.9979748 -0.03422445
vn -0.05361989 0.9979748 -0.03422448
vn -0.05361993 0.9979748 -0.03422453
vn -0.05361993 0.9979748 -0.03422453
vn -0.05361987 0.9979748 -0.0342245
vn -0.05361998 0.9979748 -0.03422455
vn -0.05361987 0.9979748 -0.03422444
vn -0.05361987 0.9979748 -0.03422444
vn -0.05361982 0.9979748 -0.03422442
vn -0.05361992 0.9979748 -0.03422445
vn -0.05361995 0.9979748 -0.0342245
vn -0.05361998 0.9979748 -0.03422455
vn -0.05361995 0.9979748 -0.0342245
vn -0.05361992 0.9979748 -0.03422445
vn -0.05361979 0.9979748 -0.03422447
vn -0.05361979 0.9979748 -0.03422447
vn -0.05361979 0.9979748 -0.03422447
vn -0.05361977 0.9979748 -0.03422439
vn -0.05361977 0.9979748 -0.03422439
vn -0.05361977 0.9979748 -0.03422439
vn -0.05361976 0.9979748 -0.03422441
vn -0.05361976 0.9979748 -0.03422441
vn -0.05361976 0.9979748 -0.03422441
vn -0.05362009 0.9979748 -0.03422469
vn -0.05362009 0.9979748 -0.03422469
vn -0.05362009 0.9979748 -0.03422469
vn -0.05361986 0.9979748 -0.03422454
vn -0.05361986 0.9979748 -0.03422454
vn -0.05361986 0.9979748 -0.03422454
vn -0.05361993 0.9979748 -0.03422461
vn -0.05361993 0.9979748 -0.03422461
vn -0.05361993 0.9979748 -0.03422461
vn -0.0536201 0.9979748 -0.03422464
vn -0.0536201 0.9979748 -0.03422464
vn -0.0536201 0.9979748 -0.03422464
vn -0.0536198 0.9979748 -0.03422437
vn -0.0536198 0.9979748 -0.03422437
vn -0.0536198 0.9979748 -0.03422437
vn -0.05361986 0.9979748 -0.03422438
vn -0.05361986 0.9979748 -0.03422438
vn -0.05361986 0.9979748 -0.03422438
vn -0.05361994 0.9979748 -0.03422443
vn -0.05361994 0.9979748 -0.03422443
vn -0.05361994 0.9979748 -0.03422443
vn -0.05362003 0.9979748 -0.0342245
vn -0.05362003 0.9979748 -0.0342245
vn -0.05362003 0.9979748 -0.0342245
vn -0.05361962 0.9979748 -0.03422411
vn -0.05361962 0.9979748 -0.03422411
vn -0.05361962 0.9979748 -0.03422411
vn -0.05362016 0.9979748 -0.03422463
vn -0.05362016 0.9979748 -0.03422463
vn -0.05362016 0.9979748 -0.03422463
vn -0.05362013 0.9979748 -0.0342246
vn -0.05362013 0.9979748 -0.0342246
vn -0.05362013 0.9979748 -0.0342246
vn -0.05361931 0.9979748 -0.03422403
vn -0.05361931 0.9979748 -0.03422403
vn -0.05361931 0.9979748 -0.03422403
vn -0.05361931 0.9979748 -0.03422402
vn -0.05361931 0.9979748 -0.03422402
vn -0.05361931 0.9979748 -0.03422402
vn 0.2030608 0 0.9791662
vn 0.2030608 0 0.9791662
vn 0.2030608 0 0.9791662
vn 0.2030608 0 0.9791662
vn 0.8421847 0 0.5391891
vn 0.8421847 0 0.5391891
vn 0.8421847 0 0.5391891
vn 0.8421847 0 0.5391891
vn 0.8429334 0 0.538018
vn 0.8429334 0 0.538018
vn 0.8429334 0 0.538018
vn 0.8429334 0 0.538018
vn 0.8434322 0 0.5372357
vn 0.8434322 0 0.5372357
vn 0.8434322 0 0.5372357
vn 0.8434322 0 0.5372357
vn 0.8434322 0 0.5372357
vn 0.8434322 0 0.5372357
vn 0.8434322 0 0.5372357
vn 0.8421847 0 0.5391891
vn 0.8421847 0 0.5391891
vn 0.8421847 0 0.5391891
vn 0.8421847 0 0.5391891
vn 0.5380276 0 -0.8429272
vn 0.5380276 0 -0.8429272
vn 0.5380276 0 -0.8429272
vn 0.5380276 0 -0.8429272
vn 0.5380276 0 -0.8429272
vn 0.5380276 0 -0.8429272
vn 0.5380276 -3.582077E-11 -0.8429272
vn 0.5380276 -3.582077E-11 -0.8429272
vn 0.5380276 -3.582077E-11 -0.8429272
vn -0.8428922 0 -0.5380825
vn -0.8428922 0 -0.5380825
vn -0.8428922 0 -0.5380825
vn -0.8428922 0 -0.5380825
vn -0.5378909 0 0.8430145
vn -0.5378909 0 0.8430145
vn -0.5378909 0 0.8430145
vn -0.5378909 0 0.8430145
vn -0.9721595 0 0.23432
vn -0.9721595 0 0.23432
vn -0.9721595 0 0.23432
vn -0.9721595 0 0.23432
vn -0.9721595 0 0.23432
vn -0.9721595 0 0.23432
vn -0.9721595 0 0.23432
vn -0.9721595 0 0.23432
vn -0.9721595 0 0.23432
vn -0.9721595 0 0.23432
vn -0.9721595 0 0.23432
vn -0.9721595 0 0.23432
vn -0.9721595 0 0.23432
vn -0.9721595 0 0.23432
vn -0.9721595 0 0.23432
vn -0.9721595 0 0.23432
vn -0.5363274 0 0.84401
vn -0.5363274 0 0.84401
vn -0.5363274 0 0.84401
vn -0.5363274 0 0.84401
vn -0.5363275 0 0.84401
vn -0.5363275 0 0.84401
vn -0.5363275 0 0.84401
vn -0.5363275 0 0.84401
vn -0.5363275 0 0.84401
vn -0.5363275 0 0.84401
vn -0.5363275 0 0.84401
vn -0.8431326 0 -0.5377057
vn -0.8431326 0 -0.5377057
vn -0.8431326 0 -0.5377057
vn -0.8431327 -5.820171E-10 -0.5377056
vn -0.8431327 -5.820171E-10 -0.5377056
vn -0.8431327 -5.820171E-10 -0.5377056
vn -0.8431327 0 -0.5377056
vn -0.8431327 0 -0.5377056
vn -0.8431327 0 -0.5377056
vn -0.8431327 0 -0.5377056
vn -0.8431327 0 -0.5377056
vn -0.8431327 0 -0.5377056
vn -0.8431327 0 -0.5377056
vn -0.8431327 0 -0.5377056
vn -0.8431327 0 -0.5377056
vn -0.8431326 0 -0.5377057
vn -0.8431326 0 -0.5377057
vn -0.8431326 0 -0.5377057
vn -0.8431327 2.092948E-09 -0.5377056
vn -0.8431327 2.092948E-09 -0.5377056
vn -0.8431327 2.092948E-09 -0.5377056
vn -0.5379801 0 0.8429575
vn -0.5379801 0 0.8429575
vn -0.5379801 0 0.8429575
vn -0.5379801 0 0.8429575
vn 0.8429298 0 0.5380235
vn 0.8429298 0 0.5380235
vn 0.8429298 0 0.5380235
vn 0.8429298 0 0.5380235
vn -0.8429298 0 -0.5380235
vn -0.8429298 0 -0.5380235
vn -0.8429298 0 -0.5380235
vn -0.8429298 0 -0.5380235
vn -0.8429298 0 -0.5380235
vn -0.8429298 0 -0.5380235
vn -0.8429298 1.747901E-10 -0.5380235
vn -0.8429298 1.747901E-10 -0.5380235
vn -0.8429298 1.747901E-10 -0.5380235
vn -0.5380113 0 0.8429376
vn -0.5380113 0 0.8429376
vn -0.5380113 0 0.8429376
vn -0.5380113 0 0.8429376
vn 0.5383337 0 -0.8427318
vn 0.5383337 0 -0.8427318
vn 0.5383337 0 -0.8427318
vn 0.5383337 0 -0.8427318
vn 0 -1 0
vn 0 -1 0
vn 0 -1 0
vn 0 -1 0
vn 0 -1 0
vn 0 -1 0
vn 0 -1 0
vn 0 -1 0
vn 0 -1 0
vn 0 -1 0
vn 0 -1 0
vn 0 -1 0
vn 0 -1 0
vn 0 -1 0

g CDNNDG02_0015800
f 1/1/1 2/2/2 3/3/3
f 4/4/4 5/5/5 6/6/6
f 7/7/7 8/8/8 9/9/9
f 10/10/10 11/11/11 12/12/12
f 13/13/13 14/14/14 15/15/15
f 16/16/16 17/17/17 18/18/18
f 19/19/19 20/20/20 21/21/21
f 22/22/22 23/23/23 24/24/24
f 25/25/25 26/26/26 27/27/27
f 28/28/28 29/29/29 30/30/30
f 31/31/31 32/32/32 33/33/33
f 34/34/34 35/35/35 36/36/36
f 37/37/37 38/38/38 39/39/39
f 40/40/40 41/41/41 42/42/42
f 43/43/43 44/44/44 45/45/45
f 46/46/46 47/47/47 48/48/48
f 46/46/46 49/49/49 47/47/47
f 50/50/50 51/51/51 52/52/52
f 50/50/50 53/53/53 51/51/51
f 54/54/54 55/55/55 56/56/56
f 54/54/54 57/57/57 55/55/55
f 58/58/58 59/59/59 60/60/60
f 61/61/61 58/58/58 60/60/60
f 62/62/62 63/63/63 64/64/64
f 65/65/65 66/66/66 67/67/67
f 68/68/68 69/69/69 70/70/70
f 71/71/71 72/72/72 73/73/73
f 74/74/74 75/75/75 76/76/76
f 77/77/77 78/78/78 79/79/79
f 80/80/80 81/81/81 82/82/82
f 83/83/83 84/84/84 85/85/85
f 86/86/86 87/87/87 88/88/88
f 89/89/89 90/90/90 91/91/91
f 92/92/92 93/93/93 94/94/94
f 95/95/95 96/96/96 97/97/97
f 98/98/98 99/99/99 100/100/100
f 101/101/101 102/102/102 103/103/103
f 104/104/104 105/105/105 106/106/106
f 107/107/107 108/108/108 109/109/109
f 110/110/110 111/111/111 112/112/112
f 110/110/110 113/113/113 111/111/111
f 114/114/114 115/115/115 116/116/116
f 117/117/117 114/114/114 116/116/116
f 118/118/118 119/119/119 120/120/120
f 121/121/121 118/118/118 120/120/120
f 122/122/122 123/123/123 124/124/124
f 125/125/125 126/126/126 127/127/127
f 127/127/127 126/126/126 128/128/128
f 129/129/129 130/130/130 131/131/131
f 131/131/131 130/130/130 132/132/132
f 133/133/133 134/134/134 135/135/135
f 136/136/136 137/137/137 138/138/138
f 139/139/139 140/140/140 141/141/141
f 142/142/142 143/143/143 144/144/144
f 142/142/142 145/145/145 143/143/143
f 146/146/146 147/147/147 148/148/148
f 148/148/148 147/147/147 149/149/149
f 150/150/150 151/151/151 152/152/152
f 153/153/153 154/154/154 155/155/155
f 156/156/156 157/157/157 158/158/158
f 159/159/159 160/160/160 161/161/161
f 162/162/162 163/163/163 164/164/164
f 164/164/164 163/163/163 165/165/165
f 166/166/166 167/167/167 168/168/168
f 166/166/166 169/169/169 167/167/167
f 170/170/170 171/171/171 172/172/172
f 172/172/172 173/173/173 170/170/170
f 174/174/174 175/175/175 176/176/176
f 177/177/177 178/178/178 179/179/179
f 180/180/180 181/181/181 182/182/182
f 183/183/183 184/184/184 185/185/185
f 186/186/186 187/187/187 188/188/188
f 189/189/189 190/190/190 191/191/191
f 192/192/192 193/193/193 194/194/194
f 195/195/195 196/196/196 197/197/197
f 198/198/198 199/199/199 200/200/200
f 201/201/201 198/198/198 200/200/200
f 202/202/202 203/203/203 204/204/204
f 205/205/205 202/202/202 204/204/204
f 206/206/206 207/207/207 208/208/208
f 209/209/209 210/210/210 211/211/211
f 212/212/212 213/213/213 214/214/214
f 215/215/215 216/216/216 217/217/217
f 215/215/215 218/218/218 216/216/216
f 219/219/219 220/220/220 221/221/221
f 222/222/222 221/221/221 220/220/220
f 223/223/223 224/224/224 225/225/225
f 224/224/224 226/226/226 225/225/225
f 227/227/227 226/226/226 224/224/224
f 225/225/225 226/226/226 228/228/228
f 223/223/223 225/225/225 229/229/229
f 225/225/225 228/228/228 230/230/230
f 231/231/231 232/232/232 233/233/233
f 226/226/226 233/233/233 234/234/234
f 231/231/231 233/233/233 235/235/235
f 235/235/235 226/226/226 227/227/227
f 235/235/235 233/233/233 226/226/226
f 236/236/236 223/223/223 229/229/229
