v 0.132112 5.395878 -7.757932
v 6.997112 5.393878 -3.350932
v 7.197112 5.39382 -3.662932
v -3.880888 5.397041 -1.506932
v -0.1008879 5.395936 6.428068
v 0.487112 5.395764 6.788068
v -3.880888 5.397041 -1.506932
v -0.2800742 5.395988 6.72068
v -0.1008879 5.395936 6.428068
v 0.132112 5.395878 -7.757932
v 7.197112 5.39382 -3.662932
v 0.332112 5.39582 -8.069932
v -3.880888 5.397041 -1.506932
v 0.487112 5.395764 6.788068
v 6.997112 5.393878 -3.350932
v -3.880888 5.397041 -1.506932
v 6.997112 5.393878 -3.350932
v 0.132112 5.395878 -7.757932
v -4.735888 5.397288 0.2430682
v -0.2800742 5.395988 6.72068
v -3.880888 5.397041 -1.506932
v -4.928888 5.397345 0.1250682
v -4.735888 5.397288 0.2430682
v -3.880888 5.397041 -1.506932
v -4.78694 5.397303 0.3264597
v -0.2800742 5.395988 6.72068
v -4.735888 5.397288 0.2430682
v -5.016888 5.39737 0.7020683
v -0.2800742 5.395988 6.72068
v -4.78694 5.397303 0.3264597
v -5.219888 5.397429 0.5780683
v -0.2800742 5.395988 6.72068
v -5.016888 5.39737 0.7020683
v -6.569888 5.39782 2.682068
v -6.285888 5.397737 2.864068
v -5.219888 5.397429 0.5780683
v -6.285888 5.397737 2.864068
v -0.2800742 5.395988 6.72068
v -5.219888 5.397429 0.5780683
v -5.016888 6.548065 0.7020683
v -4.735888 6.548065 0.2430682
v -4.928888 6.548065 0.1250682
v -5.219888 6.548065 0.5780683
v -0.5068879 6.615065 7.091068
v -0.3878515 6.615065 7.163859
v -0.2800742 6.615065 6.72068
v -0.3878515 6.615065 7.163859
v 0.294112 6.615065 7.089068
v -0.2800742 6.615065 6.72068
v -0.2800742 6.615065 6.72068
v 0.294112 6.615065 7.089068
v 0.421112 6.615065 6.892068
v -0.1008879 6.615065 6.428068
v -0.1008879 6.615065 6.428068
v 0.421112 6.615065 6.892068
v 0.487112 6.615065 6.788068
v -0.3878515 6.615065 7.163859
v 0.0671121 6.615065 7.442068
v 0.294112 6.615065 7.089068
v -6.992888 4.785065 3.965068
v -0.2800742 5.068024 6.72068
v -6.285888 5.066065 2.864068
v -0.8618879 4.785065 7.902068
v -0.3878515 4.974813 7.163859
v -0.4727613 4.974312 7.111937
v -6.992888 4.785065 3.965068
v -0.5068879 4.974122 7.091068
v -0.2800742 5.068024 6.72068
v -6.992888 4.785065 3.965068
v -0.8618879 4.785065 7.902068
v -0.5068879 4.974122 7.091068
v -0.8618879 4.785065 7.902068
v -0.4727613 4.974312 7.111937
v -0.5068879 4.974122 7.091068
v -6.285888 5.066065 2.864068
v -0.2800742 5.068024 6.72068
v -0.2800742 5.395988 6.72068
v -6.285888 5.397737 2.864068
v -6.569888 5.39782 2.682068
v -6.285888 5.066065 2.864068
v -6.285888 5.397737 2.864068
v -6.569888 -5.366121 2.682068
v -6.285888 -5.366121 2.864068
v -6.285888 5.066065 2.864068
v -6.569888 5.39782 2.682068
v 0.357612 -5.366121 6.990568
v 0.421112 -5.366121 6.892068
v 0.421112 5.395783 6.892068
v 0.294112 5.39582 7.089068
v 0.294112 -5.366121 7.089068
v 0.357612 -5.366121 6.990568
v 0.294112 5.39582 7.089068
v 0.357612 -5.366121 6.990568
v 0.421112 5.395783 6.892068
v 0.454112 -5.366121 6.840068
v 0.487112 -5.366121 6.788068
v 0.487112 5.395764 6.788068
v 0.421112 5.395783 6.892068
v 0.421112 -5.366121 6.892068
v 0.454112 -5.366121 6.840068
v 0.421112 5.395783 6.892068
v 0.454112 -5.366121 6.840068
v 0.487112 5.395764 6.788068
v 0.487112 -5.366121 6.788068
v 6.997112 -5.366121 -3.350932
v 6.997112 5.393878 -3.350932
v 0.487112 5.395764 6.788068
v 6.997112 -5.366121 -3.350932
v 7.197112 -5.366121 -3.662932
v 7.197112 5.39382 -3.662932
v 6.997112 5.393878 -3.350932
v 0.0671121 6.615065 7.442068
v 0.294112 5.39582 7.089068
v 0.294112 6.615065 7.089068
v 0.0671121 -5.366121 7.442068
v 0.294112 -5.366121 7.089068
v 0.294112 5.39582 7.089068
v 0.0671121 6.615065 7.442068
v 0.294112 5.39582 7.089068
v 0.421112 5.395783 6.892068
v 0.421112 6.615065 6.892068
v 0.294112 6.615065 7.089068
v 0.421112 5.395783 6.892068
v 0.487112 5.395764 6.788068
v 0.487112 6.615065 6.788068
v 0.421112 6.615065 6.892068
v 0.332112 5.39582 -8.069932
v 3.764612 -5.366121 -5.866432
v 0.332112 -5.366121 -8.069932
v 3.764612 -5.366121 -5.866432
v 7.197112 5.39382 -3.662932
v 7.197112 -5.366121 -3.662932
v 0.332112 5.39582 -8.069932
v 7.197112 5.39382 -3.662932
v 3.764612 -5.366121 -5.866432
v 0.132112 5.395878 -7.757932
v 0.332112 5.39582 -8.069932
v 0.332112 -5.366121 -8.069932
v 0.132112 -5.366121 -7.757932
v -3.880888 5.397041 -1.506932
v -1.874388 -5.366121 -4.632432
v -3.880888 -5.366121 -1.506932
v -1.874388 -5.366121 -4.632432
v 0.132112 5.395878 -7.757932
v 0.132112 -5.366121 -7.757932
v -3.880888 5.397041 -1.506932
v 0.132112 5.395878 -7.757932
v -1.874388 -5.366121 -4.632432
v -4.928888 5.397345 0.1250682
v -4.404888 -5.366121 -0.6909317
v -4.928888 -5.366121 0.1250682
v -4.404888 -5.366121 -0.6909317
v -3.880888 5.397041 -1.506932
v -3.880888 -5.366121 -1.506932
v -4.928888 5.397345 0.1250682
v -3.880888 5.397041 -1.506932
v -4.404888 -5.366121 -0.6909317
v -5.219888 5.397429 0.5780683
v -4.928888 5.397345 0.1250682
v -4.928888 -5.366121 0.1250682
v -5.219888 -5.366121 0.5780683
v -6.569888 5.39782 2.682068
v -5.219888 5.397429 0.5780683
v -5.219888 -5.366121 0.5780683
v -6.569888 -5.366121 2.682068
v -5.219888 6.548065 0.5780683
v -4.928888 6.548065 0.1250682
v -4.928888 5.397345 0.1250682
v -5.219888 5.397429 0.5780683
v -4.78694 5.397303 0.3264597
v -4.735888 5.397288 0.2430682
v -4.735888 6.548065 0.2430682
v -5.016888 6.548065 0.7020683
v -5.016888 5.39737 0.7020683
v -4.78694 5.397303 0.3264597
v -5.016888 6.548065 0.7020683
v -4.78694 5.397303 0.3264597
v -4.735888 6.548065 0.2430682
v -4.928888 6.548065 0.1250682
v -4.735888 6.548065 0.2430682
v -4.735888 5.397288 0.2430682
v -4.928888 5.397345 0.1250682
v -5.219888 5.397429 0.5780683
v -5.016888 5.39737 0.7020683
v -5.016888 6.548065 0.7020683
v -5.219888 6.548065 0.5780683
v -0.3878515 -5.366121 7.163859
v 0.0671121 -5.366121 7.442068
v 0.0671121 6.615065 7.442068
v -0.3878515 4.974813 7.163859
v -0.3878515 6.615065 7.163859
v -0.3878515 4.974813 7.163859
v 0.0671121 6.615065 7.442068
v -0.4727613 4.974312 7.111937
v -0.3878515 4.974813 7.163859
v -0.3878515 6.615065 7.163859
v -0.5068879 6.615065 7.091068
v -0.5068879 4.974122 7.091068
v -0.4727613 4.974312 7.111937
v -0.5068879 6.615065 7.091068
v -0.4727613 4.974312 7.111937
v -0.3878515 6.615065 7.163859
v -0.5068879 6.615065 7.091068
v -0.2800742 6.615065 6.72068
v -0.2800742 5.395988 6.72068
v -0.5068879 4.974122 7.091068
v -0.5068879 4.974122 7.091068
v -0.2800742 5.395988 6.72068
v -0.2800742 5.068024 6.72068
v -0.2800742 6.615065 6.72068
v -0.1008879 6.615065 6.428068
v -0.1008879 5.395936 6.428068
v -0.2800742 5.395988 6.72068
v -0.6248697 -5.366121 7.532964
v -0.3878515 -5.366121 7.163859
v -0.3878515 4.974813 7.163859
v -0.8618879 4.785065 7.902068
v -0.8618879 -5.366121 7.902068
v -0.6248697 -5.366121 7.532964
v -0.8618879 4.785065 7.902068
v -0.6248697 -5.366121 7.532964
v -0.3878515 4.974813 7.163859
v -6.992888 4.785065 3.965068
v -6.285888 5.066065 2.864068
v -6.285888 -5.366121 2.864068
v -6.992888 -5.366121 3.965068
v -6.992888 -5.366121 3.965068
v -0.8618879 -5.366121 7.902068
v -0.8618879 4.785065 7.902068
v -6.992888 4.785065 3.965068
v -0.1008879 6.615065 6.428068
v 0.487112 6.615065 6.788068
v 0.487112 5.395764 6.788068
v -0.1008879 5.395936 6.428068
v -6.285888 -5.366121 2.864068
v -6.569888 -5.366121 2.682068
v -5.219888 -5.366121 0.5780683
v -4.928888 -5.366121 0.1250682
v -4.404888 -5.366121 -0.6909317
v -3.880888 -5.366121 -1.506932
v -1.874388 -5.366121 -4.632432
v 0.132112 -5.366121 -7.757932
v 0.332112 -5.366121 -8.069932
v 3.764612 -5.366121 -5.866432
v 7.197112 -5.366121 -3.662932
v 6.997112 -5.366121 -3.350932
v 0.487112 -5.366121 6.788068
v 0.454112 -5.366121 6.840068
v 0.421112 -5.366121 6.892068
v 0.357612 -5.366121 6.990568
v 0.294112 -5.366121 7.089068
v 0.0671121 -5.366121 7.442068
v -0.3878515 -5.366121 7.163859
v -0.6248697 -5.366121 7.532964
v -0.8618879 -5.366121 7.902068
v -6.992888 -5.366121 3.965068
vt 0.626288 0.186427
vt 0.435962 0.006781
vt 0.449303 0.001493
vt 0.359008 0.292526
vt 0.017993 0.194297
vt 0.002439 0.178908
vt 0.359008 0.292526
vt 0.005480 0.199036
vt 0.017993 0.194297
vt 0.626288 0.186427
vt 0.449303 0.001493
vt 0.639628 0.181139
vt 0.359008 0.292526
vt 0.002439 0.178908
vt 0.435962 0.006781
vt 0.359008 0.292526
vt 0.435962 0.006781
vt 0.626288 0.186427
vt 0.284131 0.315182
vt 0.005480 0.199036
vt 0.359008 0.292526
vt 0.289229 0.320233
vt 0.284131 0.315182
vt 0.359008 0.292526
vt 0.280565 0.316532
vt 0.005480 0.199036
vt 0.284131 0.315182
vt 0.264504 0.322614
vt 0.005480 0.199036
vt 0.280565 0.316532
vt 0.269861 0.327926
vt 0.005480 0.199036
vt 0.264504 0.322614
vt 0.179902 0.363617
vt 0.172042 0.356186
vt 0.269861 0.327926
vt 0.172042 0.356186
vt 0.005480 0.199036
vt 0.269861 0.327926
vt 0.456098 0.830524
vt 0.474035 0.823881
vt 0.478694 0.828395
vt 0.460993 0.835272
vt 0.370497 0.848696
vt 0.367511 0.845737
vt 0.385536 0.842998
vt 0.367511 0.845737
vt 0.370428 0.828727
vt 0.385536 0.842998
vt 0.385536 0.842998
vt 0.370428 0.828727
vt 0.378426 0.825538
vt 0.397417 0.838497
vt 0.397417 0.838497
vt 0.378426 0.825538
vt 0.382648 0.823881
vt 0.367511 0.845737
vt 0.356098 0.834428
vt 0.370428 0.828727
vt 0.171094 0.999495
vt 0.052815 0.823881
vt 0.218083 0.980294
vt 0.002439 0.839884
vt 0.033902 0.826969
vt 0.036127 0.829182
vt 0.171094 0.999495
vt 0.037022 0.830071
vt 0.052815 0.823881
vt 0.171094 0.999495
vt 0.002439 0.839884
vt 0.037022 0.830071
vt 0.002439 0.839884
vt 0.036127 0.829182
vt 0.037022 0.830071
vt 0.642852 0.772194
vt 0.478049 0.615696
vt 0.478326 0.614925
vt 0.643201 0.771480
vt 0.650982 0.778883
vt 0.642852 0.772194
vt 0.643201 0.771480
vt 0.639696 0.801658
vt 0.632020 0.794354
vt 0.642852 0.772194
vt 0.650982 0.778883
vt 0.021445 0.544721
vt 0.025591 0.543073
vt 0.033648 0.596000
vt 0.025243 0.599342
vt 0.017298 0.546369
vt 0.021445 0.544721
vt 0.025243 0.599342
vt 0.021445 0.544721
vt 0.033648 0.596000
vt 0.027780 0.542216
vt 0.029969 0.541359
vt 0.038085 0.594263
vt 0.033648 0.596000
vt 0.025591 0.543073
vt 0.027780 0.542216
vt 0.033648 0.596000
vt 0.027780 0.542216
vt 0.038085 0.594263
vt 0.029969 0.541359
vt 0.456792 0.372357
vt 0.470710 0.422957
vt 0.038085 0.594263
vt 0.456792 0.372357
vt 0.469927 0.367164
vt 0.484023 0.417694
vt 0.470710 0.422957
vt 0.011072 0.611416
vt 0.025243 0.599342
vt 0.026156 0.605434
vt 0.002439 0.552262
vt 0.017298 0.546369
vt 0.025243 0.599342
vt 0.011072 0.611416
vt 0.025243 0.599342
vt 0.033648 0.596000
vt 0.034575 0.602088
vt 0.026156 0.605434
vt 0.033648 0.596000
vt 0.038085 0.594263
vt 0.039019 0.600348
vt 0.034575 0.602088
vt 0.692830 0.596536
vt 0.583273 0.455393
vt 0.676298 0.543619
vt 0.583273 0.455393
vt 0.504244 0.417674
vt 0.490244 0.367164
vt 0.692830 0.596536
vt 0.504244 0.417674
vt 0.583273 0.455393
vt 0.459604 0.620197
vt 0.472927 0.614925
vt 0.455379 0.640155
vt 0.442235 0.645356
vt 0.192687 0.725966
vt 0.310566 0.697533
vt 0.178901 0.749708
vt 0.310566 0.697533
vt 0.459604 0.620197
vt 0.442235 0.645356
vt 0.192687 0.725966
vt 0.459604 0.620197
vt 0.310566 0.697533
vt 0.123003 0.753587
vt 0.144526 0.763333
vt 0.110152 0.776958
vt 0.144526 0.763333
vt 0.192687 0.725966
vt 0.178901 0.749708
vt 0.123003 0.753587
vt 0.192687 0.725966
vt 0.144526 0.763333
vt 0.103661 0.761257
vt 0.123003 0.753587
vt 0.110152 0.776958
vt 0.091069 0.784525
vt 0.013825 0.796837
vt 0.103661 0.761257
vt 0.091069 0.784525
vt 0.002439 0.819628
vt 0.105028 0.758732
vt 0.124398 0.751051
vt 0.123003 0.753587
vt 0.103661 0.761257
vt 0.499685 0.825082
vt 0.502864 0.823881
vt 0.504017 0.829193
vt 0.486493 0.835816
vt 0.485366 0.830495
vt 0.499685 0.825082
vt 0.486493 0.835816
vt 0.499685 0.825082
vt 0.504017 0.829193
vt 0.514033 0.833544
vt 0.510621 0.829110
vt 0.509756 0.823881
vt 0.513164 0.828309
vt 0.523097 0.830452
vt 0.519512 0.826007
vt 0.520423 0.823881
vt 0.524013 0.828332
vt 0.337651 0.862397
vt 0.326829 0.851038
vt 0.335622 0.823881
vt 0.345366 0.839154
vt 0.346608 0.835412
vt 0.345366 0.839154
vt 0.335622 0.823881
vt 0.347412 0.841303
vt 0.345366 0.839154
vt 0.346608 0.835412
vt 0.349483 0.838429
vt 0.348234 0.842167
vt 0.347412 0.841303
vt 0.349483 0.838429
vt 0.347412 0.841303
vt 0.346608 0.835412
vt 0.423219 0.833600
vt 0.437918 0.828170
vt 0.436953 0.830775
vt 0.421951 0.837093
vt 0.421951 0.837093
vt 0.436953 0.830775
vt 0.436694 0.831475
vt 0.437918 0.828170
vt 0.449530 0.823881
vt 0.448547 0.826492
vt 0.436953 0.830775
vt 0.239030 0.829927
vt 0.253670 0.823881
vt 0.260821 0.874099
vt 0.231034 0.885413
vt 0.224390 0.835973
vt 0.239030 0.829927
vt 0.231034 0.885413
vt 0.239030 0.829927
vt 0.260821 0.874099
vt 0.275521 0.842552
vt 0.321057 0.823881
vt 0.310530 0.845419
vt 0.265854 0.863274
vt 0.822213 0.795896
vt 0.656098 0.638263
vt 0.663918 0.614925
vt 0.832163 0.774581
vt 0.416631 0.844008
vt 0.403243 0.829594
vt 0.402439 0.823881
vt 0.415806 0.838273
vt 0.529268 0.823881
vt 0.529268 0.823881
vt 0.529268 0.823881
vt 0.529268 0.823881
vt 0.529268 0.823881
vt 0.529268 0.823881
vt 0.529268 0.823881
vt 0.529268 0.823881
vt 0.529268 0.823881
vt 0.529268 0.823881
vt 0.529268 0.823881
vt 0.529268 0.823881
vt 0.529268 0.823881
vt 0.529268 0.823881
vt 0.529268 0.823881
vt 0.529268 0.823881
vt 0.529268 0.823881
vt 0.529268 0.823881
vt 0.529268 0.823881
vt 0.529268 0.823881
vt 0.529268 0.823881
vt 0.529268 0.823881
vn 0.0002908568 0.9999999 7.415323E-07
vn 0.0002908568 0.9999999 7.415323E-07
vn 0.0002908568 0.9999999 7.415323E-07
vn 0.0002908619 0.9999999 7.311933E-07
vn 0.0002908619 0.9999999 7.311933E-07
vn 0.0002908619 0.9999999 7.311933E-07
vn 0.0002908791 0.9999999 7.22982E-07
vn 0.0002908791 0.9999999 7.22982E-07
vn 0.0002908791 0.9999999 7.22982E-07
vn 0.0002908568 0.9999999 7.415323E-07
vn 0.0002908568 0.9999999 7.415323E-07
vn 0.0002908568 0.9999999 7.415323E-07
vn 0.0002908655 0.9999999 7.293003E-07
vn 0.0002908655 0.9999999 7.293003E-07
vn 0.0002908655 0.9999999 7.293003E-07
vn 0.0002908653 0.9999999 7.282876E-07
vn 0.0002908653 0.9999999 7.282876E-07
vn 0.0002908653 0.9999999 7.282876E-07
vn 0.0002908628 0.9999999 7.30121E-07
vn 0.0002908628 0.9999999 7.30121E-07
vn 0.0002908628 0.9999999 7.30121E-07
vn 0.0002908522 0.9999999 7.249437E-07
vn 0.0002908522 0.9999999 7.249437E-07
vn 0.0002908522 0.9999999 7.249437E-07
vn 0.0002908782 0.9999999 7.19527E-07
vn 0.0002908782 0.9999999 7.19527E-07
vn 0.0002908782 0.9999999 7.19527E-07
vn 0.000290865 0.9999999 7.288144E-07
vn 0.000290865 0.9999999 7.288144E-07
vn 0.000290865 0.9999999 7.288144E-07
vn 0.0002908086 0.9999999 7.732084E-07
vn 0.0002908086 0.9999999 7.732084E-07
vn 0.0002908086 0.9999999 7.732084E-07
vn 0.0002908705 0.9999999 7.296163E-07
vn 0.0002908705 0.9999999 7.296163E-07
vn 0.0002908705 0.9999999 7.296163E-07
vn 0.0002908656 0.9999999 7.273642E-07
vn 0.0002908656 0.9999999 7.273642E-07
vn 0.0002908656 0.9999999 7.273642E-07
vn 0 1 0
vn 0 1 0
vn 0 1 0
vn 0 1 0
vn 0 1 0
vn 0 1 0
vn 0 1 0
vn 0 1 0
vn 0 1 0
vn 0 1 0
vn 0 1 0
vn 0 1 0
vn 0 1 0
vn 0 1 0
vn 0 1 0
vn 0 1 0
vn 0 1 0
vn 0 1 0
vn 0 1 0
vn 0 1 0
vn -0.1136798 0.9777078 0.1765343
vn -0.1136798 0.9777078 0.1765343
vn -0.1136798 0.9777078 0.1765343
vn -0.1144513 0.9774001 0.1777359
vn -0.1144513 0.9774001 0.1777359
vn -0.1144513 0.9774001 0.1777359
vn -0.1142098 0.9774064 0.1778563
vn -0.1142098 0.9774064 0.1778563
vn -0.1142098 0.9774064 0.1778563
vn -0.1142098 0.9774064 0.1778563
vn -0.1142098 0.9774064 0.1778563
vn -0.1142098 0.9774064 0.1778563
vn -0.1142097 0.9774064 0.1778563
vn -0.1142097 0.9774064 0.1778563
vn -0.1142097 0.9774064 0.1778563
vn -0.5403344 0 0.8414504
vn -0.5403344 0 0.8414504
vn -0.5403344 0 0.8414504
vn -0.5403344 0 0.8414504
vn -0.5395584 0 0.8419482
vn -0.5395584 0 0.8419482
vn -0.5395584 0 0.8419482
vn -0.5395584 0 0.8419482
vn -0.5395584 0 0.8419482
vn -0.5395584 0 0.8419482
vn -0.5395584 0 0.8419482
vn 0.8404847 0 0.5418353
vn 0.8404847 0 0.5418353
vn 0.8404847 0 0.5418353
vn 0.8404847 0 0.5418352
vn 0.8404847 0 0.5418352
vn 0.8404847 0 0.5418352
vn 0.8404847 -3.909476E-10 0.5418352
vn 0.8404847 -3.909476E-10 0.5418352
vn 0.8404847 -3.909476E-10 0.5418352
vn 0.8443295 0 0.5358244
vn 0.8443295 0 0.5358244
vn 0.8443295 0 0.5358244
vn 0.8443294 0 0.5358244
vn 0.8443294 0 0.5358244
vn 0.8443294 0 0.5358244
vn 0.8443295 3.672688E-10 0.5358244
vn 0.8443295 3.672688E-10 0.5358244
vn 0.8443295 3.672688E-10 0.5358244
vn 0.8414777 0 0.5402919
vn 0.8414777 0 0.5402919
vn 0.8414777 0 0.5402919
vn 0.8414777 0 0.5402919
vn 0.8418792 0 0.5396661
vn 0.8418792 0 0.5396661
vn 0.8418792 0 0.5396661
vn 0.8418792 0 0.5396661
vn 0.8411011 0 0.5408779
vn 0.8411011 0 0.5408779
vn 0.8411011 0 0.5408779
vn 0.8411011 0 0.5408779
vn 0.8411011 0 0.5408779
vn 0.8411011 0 0.5408779
vn 0.8411011 0 0.5408779
vn 0.8404847 0 0.5418352
vn 0.8404847 0 0.5418352
vn 0.8404847 0 0.5418352
vn 0.8404847 0 0.5418352
vn 0.8443295 0 0.5358244
vn 0.8443295 0 0.5358244
vn 0.8443295 0 0.5358244
vn 0.8443295 0 0.5358244
vn 0.5402185 0 -0.8415248
vn 0.5402185 0 -0.8415248
vn 0.5402185 0 -0.8415248
vn 0.5402185 0 -0.8415248
vn 0.5402185 0 -0.8415248
vn 0.5402185 0 -0.8415248
vn 0.5402185 0 -0.8415248
vn 0.5402185 0 -0.8415248
vn 0.5402185 0 -0.8415248
vn -0.8418792 0 -0.5396661
vn -0.8418792 0 -0.5396661
vn -0.8418792 0 -0.5396661
vn -0.8418792 0 -0.5396661
vn -0.8415151 0 -0.5402336
vn -0.8415151 0 -0.5402336
vn -0.8415151 0 -0.5402336
vn -0.8415151 0 -0.5402336
vn -0.8415151 0 -0.5402336
vn -0.8415151 0 -0.5402336
vn -0.8415151 -2.109853E-11 -0.5402336
vn -0.8415151 -2.109853E-11 -0.5402336
vn -0.8415151 -2.109853E-11 -0.5402336
vn -0.8414464 0 -0.5403405
vn -0.8414464 0 -0.5403405
vn -0.8414464 0 -0.5403405
vn -0.8414464 0 -0.5403405
vn -0.8414464 0 -0.5403405
vn -0.8414464 0 -0.5403405
vn -0.8414464 -4.147215E-10 -0.5403405
vn -0.8414464 -4.147215E-10 -0.5403405
vn -0.8414464 -4.147215E-10 -0.5403405
vn -0.8413595 0 -0.5404759
vn -0.8413595 0 -0.5404759
vn -0.8413595 0 -0.5404759
vn -0.8413595 0 -0.5404759
vn -0.8416461 0 -0.5400295
vn -0.8416461 0 -0.5400295
vn -0.8416461 0 -0.5400295
vn -0.8416461 0 -0.5400295
vn -0.8413595 0 -0.5404759
vn -0.8413595 0 -0.5404759
vn -0.8413595 0 -0.5404759
vn -0.8413595 0 -0.5404759
vn 0.8528682 0 0.5221263
vn 0.8528682 0 0.5221263
vn 0.8528682 0 0.5221263
vn 0.8528682 0 0.5221263
vn 0.8528682 0 0.5221263
vn 0.8528682 0 0.5221263
vn 0.8528682 2.801055E-10 0.5221263
vn 0.8528682 2.801055E-10 0.5221263
vn 0.8528682 2.801055E-10 0.5221263
vn 0.521629 0 -0.8531724
vn 0.521629 0 -0.8531724
vn 0.521629 0 -0.8531724
vn 0.521629 0 -0.8531724
vn -0.5212802 0 0.8533856
vn -0.5212802 0 0.8533856
vn -0.5212802 0 0.8533856
vn -0.5212802 0 0.8533856
vn -0.5216905 0 0.8531348
vn -0.5216905 0 0.8531348
vn -0.5216905 0 0.8531348
vn -0.5216905 0 0.8531348
vn -0.5216905 0 0.8531348
vn -0.5216905 0 0.8531348
vn -0.5216905 0 0.8531348
vn -0.5216904 0 0.8531349
vn -0.5216904 0 0.8531349
vn -0.5216904 0 0.8531349
vn -0.5216904 0 0.8531349
vn -0.5216904 0 0.8531349
vn -0.5216904 0 0.8531349
vn -0.5216904 -1.141227E-09 0.8531349
vn -0.5216904 -1.141227E-09 0.8531349
vn -0.5216904 -1.141227E-09 0.8531349
vn -0.8528045 0 -0.5222302
vn -0.8528045 0 -0.5222302
vn -0.8528045 0 -0.5222302
vn -0.8528045 0 -0.5222302
vn -0.8528045 0 -0.5222302
vn -0.8528045 0 -0.5222302
vn -0.8528045 0 -0.5222302
vn -0.8528045 0 -0.5222302
vn -0.8528045 0 -0.5222302
vn -0.8528045 0 -0.5222302
vn -0.8528045 0 -0.5222302
vn 0.8414515 0 0.5403326
vn 0.8414515 0 0.5403326
vn 0.8414515 0 0.5403326
vn 0.8414515 0 0.5403326
vn 0.8414515 0 0.5403326
vn 0.8414515 0 0.5403326
vn 0.8414515 -4.111032E-10 0.5403326
vn 0.8414515 -4.111032E-10 0.5403326
vn 0.8414515 -4.111032E-10 0.5403326
vn -0.8414515 0 -0.5403327
vn -0.8414515 0 -0.5403327
vn -0.8414515 0 -0.5403327
vn -0.8414515 0 -0.5403327
vn -0.5403344 0 0.8414504
vn -0.5403344 0 0.8414504
vn -0.5403344 0 0.8414504
vn -0.5403344 0 0.8414504
vn 0.5221539 0 -0.8528513
vn 0.5221539 0 -0.8528513
vn 0.5221539 0 -0.8528513
vn 0.5221539 0 -0.8528513
vn 0 -1 0
vn 0 -1 0
vn 0 -1 0
vn 0 -1 0
vn 0 -1 0
vn 0 -1 0
vn 0 -1 0
vn 0 -1 0
vn 0 -1 0
vn 0 -1 0
vn 0 -1 0
vn 0 -1 0
vn 0 -1 0
vn 0 -1 0
vn 0 -1 0
vn 0 -1 0
vn 0 -1 0
vn 0 -1 0
vn 0 -1 0
vn 0 -1 0
vn 0 -1 0
vn 0 -1 0

g CDNNDG02_0006000
f 1/1/1 2/2/2 3/3/3
f 4/4/4 5/5/5 6/6/6
f 7/7/7 8/8/8 9/9/9
f 10/10/10 11/11/11 12/12/12
f 13/13/13 14/14/14 15/15/15
f 16/16/16 17/17/17 18/18/18
f 19/19/19 20/20/20 21/21/21
f 22/22/22 23/23/23 24/24/24
f 25/25/25 26/26/26 27/27/27
f 28/28/28 29/29/29 30/30/30
f 31/31/31 32/32/32 33/33/33
f 34/34/34 35/35/35 36/36/36
f 37/37/37 38/38/38 39/39/39
f 43/43/43 40/40/40 42/42/42
f 41/41/41 42/42/42 40/40/40
f 44/44/44 45/45/45 46/46/46
f 47/47/47 48/48/48 49/49/49
f 53/53/53 50/50/50 52/52/52
f 52/52/52 50/50/50 51/51/51
f 54/54/54 55/55/55 56/56/56
f 57/57/57 58/58/58 59/59/59
f 60/60/60 61/61/61 62/62/62
f 63/63/63 64/64/64 65/65/65
f 66/66/66 67/67/67 68/68/68
f 69/69/69 70/70/70 71/71/71
f 72/72/72 73/73/73 74/74/74
f 76/76/76 77/77/77 78/78/78
f 75/75/75 76/76/76 78/78/78
f 79/79/79 80/80/80 81/81/81
f 82/82/82 84/84/84 85/85/85
f 84/84/84 82/82/82 83/83/83
f 86/86/86 87/87/87 88/88/88
f 89/89/89 90/90/90 91/91/91
f 92/92/92 93/93/93 94/94/94
f 95/95/95 96/96/96 97/97/97
f 98/98/98 99/99/99 100/100/100
f 101/101/101 102/102/102 103/103/103
f 107/107/107 104/104/104 106/106/106
f 105/105/105 106/106/106 104/104/104
f 109/109/109 110/110/110 108/108/108
f 108/108/108 110/110/110 111/111/111
f 112/112/112 113/113/113 114/114/114
f 116/116/116 117/117/117 115/115/115
f 115/115/115 117/117/117 118/118/118
f 119/119/119 121/121/121 122/122/122
f 119/119/119 120/120/120 121/121/121
f 124/124/124 125/125/125 123/123/123
f 123/123/123 125/125/125 126/126/126
f 127/127/127 128/128/128 129/129/129
f 130/130/130 131/131/131 132/132/132
f 133/133/133 134/134/134 135/135/135
f 137/137/137 138/138/138 139/139/139
f 136/136/136 137/137/137 139/139/139
f 140/140/140 141/141/141 142/142/142
f 143/143/143 144/144/144 145/145/145
f 146/146/146 147/147/147 148/148/148
f 149/149/149 150/150/150 151/151/151
f 152/152/152 153/153/153 154/154/154
f 155/155/155 156/156/156 157/157/157
f 161/161/161 159/159/159 160/160/160
f 161/161/161 158/158/158 159/159/159
f 163/163/163 164/164/164 165/165/165
f 162/162/162 163/163/163 165/165/165
f 167/167/167 168/168/168 169/169/169
f 166/166/166 167/167/167 169/169/169
f 170/170/170 171/171/171 172/172/172
f 173/173/173 174/174/174 175/175/175
f 176/176/176 177/177/177 178/178/178
f 180/180/180 181/181/181 182/182/182
f 179/179/179 180/180/180 182/182/182
f 186/186/186 183/183/183 185/185/185
f 185/185/185 183/183/183 184/184/184
f 190/190/190 187/187/187 188/188/188
f 189/189/189 190/190/190 188/188/188
f 191/191/191 192/192/192 193/193/193
f 194/194/194 195/195/195 196/196/196
f 197/197/197 198/198/198 199/199/199
f 200/200/200 201/201/201 202/202/202
f 203/203/203 205/205/205 206/206/206
f 203/203/203 204/204/204 205/205/205
f 207/207/207 208/208/208 209/209/209
f 211/211/211 212/212/212 213/213/213
f 210/210/210 211/211/211 213/213/213
f 214/214/214 215/215/215 216/216/216
f 217/217/217 218/218/218 219/219/219
f 220/220/220 221/221/221 222/222/222
f 226/226/226 223/223/223 225/225/225
f 225/225/225 223/223/223 224/224/224
f 230/230/230 227/227/227 229/229/229
f 229/229/229 227/227/227 228/228/228
f 232/232/232 233/233/233 234/234/234
f 231/231/231 232/232/232 234/234/234
f 254/254/254 256/256/256 235/235/235
f 244/244/244 241/241/241 242/242/242
f 252/252/252 253/253/253 251/251/251
f 236/236/236 237/237/237 235/235/235
f 240/240/240 247/247/247 239/239/239
f 254/254/254 255/255/255 256/256/256
f 241/241/241 246/246/246 240/240/240
f 245/245/245 246/246/246 244/244/244
f 246/246/246 241/241/241 244/244/244
f 244/244/244 242/242/242 243/243/243
f 240/240/240 246/246/246 247/247/247
f 253/253/253 254/254/254 235/235/235
f 247/247/247 238/238/238 239/239/239
f 237/237/237 253/253/253 235/235/235
f 251/251/251 253/253/253 250/250/250
f 238/238/238 247/247/247 237/237/237
f 247/247/247 253/253/253 237/237/237
f 248/248/248 253/253/253 247/247/247
f 249/249/249 253/253/253 248/248/248
f 250/250/250 253/253/253 249/249/249
