v -6.508753 6.384121 3.412493
v 1.993247 5.230121 -5.510507
v 1.462247 5.230121 -8.951507
v -1.450003 6.095621 3.072743
v 0.01662232 6.095621 4.018243
v 0.4327473 5.807121 0.6854931
v 1.777997 5.807121 1.552743
v -2.916628 6.095621 2.127243
v -1.450003 6.095621 3.072743
v -0.9125027 5.807121 -0.181757
v 0.4327473 5.807121 0.6854931
v 0.4327473 5.807121 0.6854931
v 1.777997 5.807121 1.552743
v 2.315497 5.518621 -1.701757
v 3.539372 5.518621 -0.912757
v -0.9125027 5.807121 -0.181757
v 0.4327473 5.807121 0.6854931
v 1.091622 5.518621 -2.490757
v 2.315497 5.518621 -1.701757
v -0.1567527 6.384121 7.507493
v 1.777997 5.807121 1.552743
v 0.01662232 6.095621 4.018243
v -0.1567527 6.384121 7.507493
v 6.403247 5.230121 -2.667507
v 1.777997 5.807121 1.552743
v -1.450003 6.095621 3.072743
v -0.1567527 6.384121 7.507493
v 0.01662232 6.095621 4.018243
v -6.508753 6.384121 3.412493
v -1.450003 6.095621 3.072743
v -2.916628 6.095621 2.127243
v -6.508753 6.384121 3.412493
v -0.1567527 6.384121 7.507493
v -1.450003 6.095621 3.072743
v -6.508753 6.384121 3.412493
v -2.916628 6.095621 2.127243
v -0.9125027 5.807121 -0.181757
v 2.315497 5.518621 -1.701757
v 3.539372 5.518621 -0.912757
v 6.403247 5.230121 -2.667507
v 1.777997 5.807121 1.552743
v 6.403247 5.230121 -2.667507
v 3.539372 5.518621 -0.912757
v 1.993247 5.230121 -5.510507
v 2.315497 5.518621 -1.701757
v 6.403247 5.230121 -2.667507
v -0.9125027 5.807121 -0.181757
v 1.091622 5.518621 -2.490757
v 1.993247 5.230121 -5.510507
v 1.091622 5.518621 -2.490757
v 2.315497 5.518621 -1.701757
v 1.993247 5.230121 -5.510507
v -6.508753 6.384121 3.412493
v -0.9125027 5.807121 -0.181757
v 1.993247 5.230121 -5.510507
v 1.462247 5.230121 -8.951507
v 1.993247 5.230121 -5.510507
v 3.404247 5.230121 -7.699507
v -0.1567527 -5.793509 7.507493
v -0.1567527 6.384121 7.507493
v -6.508753 6.384121 3.412493
v -6.508753 -5.793509 3.412493
v -0.1567527 6.384121 7.507493
v -0.1567527 -5.793509 7.507493
v 6.403247 5.230121 -2.667507
v 6.403247 -5.793509 -2.667507
v 6.403247 5.230121 -2.667507
v 6.403247 -5.793509 -2.667507
v 1.993247 5.230121 -5.510507
v 1.993247 -5.793509 -5.510507
v 2.698747 -5.793509 -6.605007
v 3.404247 -5.793509 -7.699507
v 3.404247 5.230121 -7.699507
v 1.993247 5.230121 -5.510507
v 1.993247 -5.793509 -5.510507
v 2.698747 -5.793509 -6.605007
v 1.993247 5.230121 -5.510507
v 2.698747 -5.793509 -6.605007
v 3.404247 5.230121 -7.699507
v 1.462247 5.230121 -8.951507
v 3.404247 -5.793509 -7.699507
v 1.462247 -5.793509 -8.951507
v 3.404247 5.230121 -7.699507
v -6.508753 6.384121 3.412493
v -2.523253 -5.793509 -2.769507
v -6.508753 -5.793509 3.412493
v -2.523253 -5.793509 -2.769507
v 1.462247 5.230121 -8.951507
v 1.462247 -5.793509 -8.951507
v -6.508753 6.384121 3.412493
v 1.462247 5.230121 -8.951507
v -2.523253 -5.793509 -2.769507
v -2.523253 -5.793509 -2.769507
v 1.462247 -5.793509 -8.951507
v 1.993247 -5.793509 -5.510507
v 3.404247 -5.793509 -7.699507
v 2.698747 -5.793509 -6.605007
v -6.508753 -5.793509 3.412493
v -0.1567527 -5.793509 7.507493
v 6.403247 -5.793509 -2.667507
vt 0.164227 0.340134
vt 0.522258 0.114983
vt 0.657100 0.128279
vt 0.179054 0.208214
vt 0.141665 0.170427
vt 0.274807 0.158185
vt 0.240525 0.123536
vt 0.216442 0.246001
vt 0.179054 0.208214
vt 0.309088 0.192833
vt 0.274807 0.158185
vt 0.274807 0.158185
vt 0.240525 0.123536
vt 0.370492 0.108190
vt 0.339316 0.076679
vt 0.309088 0.192833
vt 0.274807 0.158185
vt 0.401668 0.139701
vt 0.370492 0.108190
vt 0.002237 0.176421
vt 0.240525 0.123536
vt 0.141665 0.170427
vt 0.002237 0.176421
vt 0.409962 0.001477
vt 0.240525 0.123536
vt 0.179054 0.208214
vt 0.002237 0.176421
vt 0.141665 0.170427
vt 0.164227 0.340134
vt 0.179054 0.208214
vt 0.216442 0.246001
vt 0.164227 0.340134
vt 0.002237 0.176421
vt 0.179054 0.208214
vt 0.164227 0.340134
vt 0.216442 0.246001
vt 0.309088 0.192833
vt 0.370492 0.108190
vt 0.339316 0.076679
vt 0.409962 0.001477
vt 0.240525 0.123536
vt 0.409962 0.001477
vt 0.339316 0.076679
vt 0.522258 0.114983
vt 0.370492 0.108190
vt 0.409962 0.001477
vt 0.309088 0.192833
vt 0.401668 0.139701
vt 0.522258 0.114983
vt 0.401668 0.139701
vt 0.370492 0.108190
vt 0.522258 0.114983
vt 0.164227 0.340134
vt 0.309088 0.192833
vt 0.522258 0.114983
vt 0.657100 0.128279
vt 0.522258 0.114983
vt 0.607650 0.078296
vt 0.946841 0.747003
vt 0.742085 0.787086
vt 0.583893 0.625564
vt 0.791011 0.587888
vt 0.373488 0.587888
vt 0.578207 0.631356
vt 0.002237 0.759283
vt 0.192551 0.796321
vt 0.002237 0.839232
vt 0.097892 0.800591
vt 0.113705 0.952136
vt 0.207832 0.911951
vt 0.591371 0.856162
vt 0.550063 0.873678
vt 0.357942 0.836102
vt 0.441684 0.800591
vt 0.632679 0.838646
vt 0.591371 0.856162
vt 0.441684 0.800591
vt 0.591371 0.856162
vt 0.357942 0.836102
vt 0.261372 0.889407
vt 0.305039 0.800591
vt 0.353214 0.849306
vt 0.212528 0.840016
vt 0.002237 0.545813
vt 0.353587 0.483630
vt 0.114572 0.584922
vt 0.353587 0.483630
vt 0.497706 0.344165
vt 0.592615 0.382332
vt 0.002237 0.545813
vt 0.497706 0.344165
vt 0.353587 0.483630
vt 0.420582 0.955687
vt 0.420582 0.955687
vt 0.420582 0.955687
vt 0.420582 0.955687
vt 0.420582 0.955687
vt 0.420582 0.955687
vt 0.420582 0.955687
vt 0.420582 0.955687
vn 0.1160064 0.9930871 -0.0179016
vn 0.1160064 0.9930871 -0.0179016
vn 0.1160064 0.9930871 -0.0179016
vn 0.05141609 0.9954876 -0.07975475
vn 0.05141602 0.9954876 -0.07975476
vn 0.05141602 0.9954876 -0.07975476
vn 0.05141596 0.9954876 -0.07975477
vn 0.05141612 0.9954876 -0.0797548
vn 0.05141606 0.9954876 -0.07975481
vn 0.05141606 0.9954876 -0.07975481
vn 0.051416 0.9954876 -0.07975482
vn 0.051416 0.9954876 -0.07975482
vn 0.05141593 0.9954876 -0.07975484
vn 0.05141593 0.9954876 -0.07975484
vn 0.05141585 0.9954876 -0.07975485
vn 0.05141603 0.9954876 -0.07975488
vn 0.05141596 0.9954876 -0.0797549
vn 0.05141596 0.9954876 -0.0797549
vn 0.05141589 0.9954876 -0.07975491
vn 0.05141613 0.9954876 -0.07975465
vn 0.05141613 0.9954876 -0.07975465
vn 0.05141613 0.9954876 -0.07975465
vn 0.05141593 0.9954876 -0.07975472
vn 0.05141593 0.9954876 -0.07975472
vn 0.05141593 0.9954876 -0.07975472
vn 0.05141602 0.9954876 -0.07975465
vn 0.05141602 0.9954876 -0.07975465
vn 0.05141602 0.9954876 -0.07975465
vn 0.05141615 0.9954876 -0.07975485
vn 0.05141615 0.9954876 -0.07975485
vn 0.05141615 0.9954876 -0.07975485
vn 0.05141616 0.9954876 -0.0797547
vn 0.05141616 0.9954876 -0.0797547
vn 0.05141616 0.9954876 -0.0797547
vn 0.05141619 0.9954876 -0.07975474
vn 0.05141619 0.9954876 -0.07975474
vn 0.05141619 0.9954876 -0.07975474
vn 0.05141581 0.9954876 -0.07975479
vn 0.05141581 0.9954876 -0.07975479
vn 0.05141581 0.9954876 -0.07975479
vn 0.05141572 0.9954876 -0.07975495
vn 0.05141572 0.9954876 -0.07975495
vn 0.05141572 0.9954876 -0.07975495
vn 0.05141576 0.9954876 -0.07975501
vn 0.05141576 0.9954876 -0.07975501
vn 0.05141576 0.9954876 -0.07975501
vn 0.0514158 0.9954876 -0.07975508
vn 0.0514158 0.9954876 -0.07975508
vn 0.0514158 0.9954876 -0.07975508
vn 0.05141597 0.9954876 -0.07975503
vn 0.05141597 0.9954876 -0.07975503
vn 0.05141597 0.9954876 -0.07975503
vn 0.05141607 0.9954876 -0.07975493
vn 0.05141607 0.9954876 -0.07975493
vn 0.05141607 0.9954876 -0.07975493
vn 0 1 0
vn 0 1 0
vn 0 1 0
vn -0.5418405 0 0.8404813
vn -0.5418405 0 0.8404813
vn -0.5418405 0 0.8404813
vn -0.5418405 0 0.8404813
vn 0.8404666 0 0.5418634
vn 0.8404666 0 0.5418634
vn 0.8404666 0 0.5418634
vn 0.8404666 0 0.5418634
vn 0.541836 0 -0.8404843
vn 0.541836 0 -0.8404843
vn 0.541836 0 -0.8404843
vn 0.541836 0 -0.8404843
vn 0.8405166 0 0.5417857
vn 0.8405166 0 0.5417857
vn 0.8405166 0 0.5417857
vn 0.8405166 0 0.5417857
vn 0.8405166 0 0.5417857
vn 0.8405166 0 0.5417857
vn 0.8405166 -2.510524E-11 0.5417857
vn 0.8405166 -2.510524E-11 0.5417857
vn 0.8405166 -2.510524E-11 0.5417857
vn 0.5418508 0 -0.8404747
vn 0.5418508 0 -0.8404747
vn 0.5418508 0 -0.8404747
vn 0.5418508 0 -0.8404747
vn -0.8404754 0 -0.5418497
vn -0.8404754 0 -0.5418497
vn -0.8404754 0 -0.5418497
vn -0.8404754 0 -0.5418497
vn -0.8404754 0 -0.5418497
vn -0.8404754 0 -0.5418497
vn -0.8404754 2.108599E-12 -0.5418497
vn -0.8404754 2.108599E-12 -0.5418497
vn -0.8404754 2.108599E-12 -0.5418497
vn 0 -1 0
vn 0 -1 0
vn 0 -1 0
vn 0 -1 0
vn 0 -1 0
vn 0 -1 0
vn 0 -1 0
vn 0 -1 0

g CDNNDG02_0016420
f 1/1/1 2/2/2 3/3/3
f 4/4/4 5/5/5 6/6/6
f 6/6/6 5/5/5 7/7/7
f 8/8/8 9/9/9 10/10/10
f 10/10/10 9/9/9 11/11/11
f 12/12/12 13/13/13 14/14/14
f 14/14/14 13/13/13 15/15/15
f 16/16/16 17/17/17 18/18/18
f 18/18/18 17/17/17 19/19/19
f 20/20/20 21/21/21 22/22/22
f 23/23/23 24/24/24 25/25/25
f 26/26/26 27/27/27 28/28/28
f 29/29/29 30/30/30 31/31/31
f 32/32/32 33/33/33 34/34/34
f 35/35/35 36/36/36 37/37/37
f 38/38/38 39/39/39 40/40/40
f 41/41/41 42/42/42 43/43/43
f 44/44/44 45/45/45 46/46/46
f 47/47/47 48/48/48 49/49/49
f 50/50/50 51/51/51 52/52/52
f 53/53/53 54/54/54 55/55/55
f 56/56/56 57/57/57 58/58/58
f 59/59/59 60/60/60 61/61/61
f 61/61/61 62/62/62 59/59/59
f 63/63/63 64/64/64 65/65/65
f 66/66/66 65/65/65 64/64/64
f 67/67/67 68/68/68 69/69/69
f 69/69/69 68/68/68 70/70/70
f 71/71/71 72/72/72 73/73/73
f 74/74/74 75/75/75 76/76/76
f 77/77/77 78/78/78 79/79/79
f 80/80/80 81/81/81 82/82/82
f 80/80/80 83/83/83 81/81/81
f 84/84/84 85/85/85 86/86/86
f 87/87/87 88/88/88 89/89/89
f 90/90/90 91/91/91 92/92/92
f 93/93/93 94/94/94 95/95/95
f 94/94/94 96/96/96 97/97/97
f 94/94/94 97/97/97 95/95/95
f 98/98/98 93/93/93 99/99/99
f 93/93/93 95/95/95 100/100/100
f 93/93/93 100/100/100 99/99/99
