v -4.332922 6.384141 0.02787584
v -3.389922 6.384141 -0.9451241
v -3.629922 6.383141 -1.095124
v -4.332922 6.384141 0.02787584
v -4.092922 6.384141 0.1788758
v -3.389922 6.384141 -0.9451241
v -5.975922 5.735141 2.655876
v 0.2440777 5.735141 6.542876
v -5.910923 5.735141 2.552876
v -3.629922 5.735141 -1.095124
v 2.782078 5.735141 2.481876
v 5.439078 5.735141 -1.770124
v -0.6419224 5.735141 -5.873124
v -5.910923 5.735141 2.552876
v 0.2440777 5.735141 6.542876
v -4.092922 5.735141 0.1788758
v -4.092922 5.735141 0.1788758
v 0.2440777 5.735141 6.542876
v 1.952078 5.735141 3.808876
v -5.910923 5.735141 2.552876
v -4.092922 5.735141 0.1788758
v -4.332922 5.735141 0.02787584
v -4.092922 5.735141 0.1788758
v 1.952078 5.735141 3.808876
v -4.089915 5.735141 0.1740671
v -4.089915 5.735141 0.1740671
v 1.952078 5.735141 3.808876
v -3.389922 5.735141 -0.9451241
v -3.629922 5.735141 -1.095124
v -3.389922 5.735141 -0.9451241
v 2.782078 5.735141 2.481876
v -3.389922 5.735141 -0.9451241
v 1.952078 5.735141 3.808876
v 2.782078 5.735141 2.481876
v -0.6419224 5.735141 -5.873124
v 5.974078 4.884141 -2.627124
v -0.1829223 4.884141 -6.614124
v -0.6419224 5.735141 -5.873124
v 5.439078 5.735141 -1.770124
v 5.974078 4.884141 -2.627124
v -4.089915 5.735141 0.1740671
v -3.389922 5.735141 -0.9451241
v -3.389922 6.384141 -0.9451241
v -4.092922 6.384141 0.1788758
v -4.092922 6.384141 0.1788758
v -4.092922 5.735141 0.1788758
v -4.089915 5.735141 0.1740671
v -3.629922 6.383141 -1.095124
v -3.389922 6.384141 -0.9451241
v -3.389922 5.735141 -0.9451241
v -3.629922 5.735141 -1.095124
v -4.332922 6.384141 0.02787584
v -3.629922 6.383141 -1.095124
v -3.629922 5.735141 -1.095124
v -4.332922 5.735141 0.02787584
v -5.975922 5.735141 2.655876
v -5.943422 -5.704119 2.604376
v -5.975922 -5.704119 2.655876
v -5.943422 -5.704119 2.604376
v -5.910923 5.735141 2.552876
v -5.910923 -5.704119 2.552876
v -5.975922 5.735141 2.655876
v -5.910923 5.735141 2.552876
v -5.943422 -5.704119 2.604376
v -3.629922 5.735141 -1.095124
v -0.6419224 5.735141 -5.873124
v -0.6419224 -5.704119 -5.873124
v -3.629922 -5.704119 -1.095124
v -5.910923 5.735141 2.552876
v -4.332922 5.735141 0.02787584
v -4.332922 -5.704119 0.02787584
v -5.910923 -5.704119 2.552876
v -0.6419224 5.735141 -5.873124
v -0.4124223 -5.704119 -6.243624
v -0.6419224 -5.704119 -5.873124
v -0.4124223 -5.704119 -6.243624
v -0.1829223 4.884141 -6.614124
v -0.1829223 -5.704119 -6.614124
v -0.6419224 5.735141 -5.873124
v -0.1829223 4.884141 -6.614124
v -0.4124223 -5.704119 -6.243624
v -4.332922 5.735141 0.02787584
v -3.629922 5.735141 -1.095124
v -3.629922 -5.704119 -1.095124
v -4.332922 -5.704119 0.02787584
v -4.332922 5.735141 0.02787584
v -4.092922 5.735141 0.1788758
v -4.092922 6.384141 0.1788758
v -4.332922 6.384141 0.02787584
v -5.975922 -5.704119 2.655876
v 0.2440777 -5.704119 6.542876
v 0.2440777 5.735141 6.542876
v -5.975922 5.735141 2.655876
v 1.098078 -5.704119 5.175876
v 1.952078 -5.704119 3.808876
v 1.952078 5.735141 3.808876
v 0.2440777 5.735141 6.542876
v 0.2440777 -5.704119 6.542876
v 1.098078 -5.704119 5.175876
v 0.2440777 5.735141 6.542876
v 1.098078 -5.704119 5.175876
v 1.952078 5.735141 3.808876
v 1.952078 -5.704119 3.808876
v 2.782078 -5.704119 2.481876
v 2.782078 5.735141 2.481876
v 1.952078 5.735141 3.808876
v 2.782078 -5.704119 2.481876
v 5.439078 -5.704119 -1.770124
v 5.439078 5.735141 -1.770124
v 2.782078 5.735141 2.481876
v 5.439078 -5.704119 -1.770124
v 5.974078 -5.704119 -2.627124
v 5.974078 4.884141 -2.627124
v 5.439078 5.735141 -1.770124
v -0.1829223 4.884141 -6.614124
v 5.974078 4.884141 -2.627124
v 5.974078 -5.704119 -2.627124
v -0.1829223 -5.704119 -6.614124
v -5.910923 -5.704119 2.552876
v -4.332922 -5.704119 0.02787584
v -3.629922 -5.704119 -1.095124
v -0.6419224 -5.704119 -5.873124
v -0.4124223 -5.704119 -6.243624
v -0.1829223 -5.704119 -6.614124
v 5.974078 -5.704119 -2.627124
v 5.439078 -5.704119 -1.770124
v 2.782078 -5.704119 2.481876
v 1.952078 -5.704119 3.808876
v 1.098078 -5.704119 5.175876
v 0.2440777 -5.704119 6.542876
v -5.975922 -5.704119 2.655876
v -5.943422 -5.704119 2.604376
vt 0.702152 0.737892
vt 0.746829 0.707031
vt 0.753878 0.714764
vt 0.702152 0.737892
vt 0.695055 0.730160
vt 0.746829 0.707031
vt 0.192753 0.394223
vt 0.002747 0.182520
vt 0.197686 0.391965
vt 0.372411 0.312691
vt 0.197256 0.094307
vt 0.400923 0.001953
vt 0.601270 0.208843
vt 0.197686 0.391965
vt 0.002747 0.182520
vt 0.311243 0.328955
vt 0.311243 0.328955
vt 0.002747 0.182520
vt 0.133696 0.123155
vt 0.197686 0.391965
vt 0.311243 0.328955
vt 0.318624 0.337123
vt 0.311243 0.328955
vt 0.133696 0.123155
vt 0.311474 0.328851
vt 0.311474 0.328851
vt 0.133696 0.123155
vt 0.365079 0.304523
vt 0.372411 0.312691
vt 0.365079 0.304523
vt 0.197256 0.094307
vt 0.365079 0.304523
vt 0.133696 0.123155
vt 0.197256 0.094307
vt 0.655918 0.936942
vt 0.500147 0.707031
vt 0.688852 0.913810
vt 0.655918 0.936942
vt 0.461538 0.732512
vt 0.500147 0.707031
vt 0.761208 0.729379
vt 0.812109 0.707031
vt 0.813397 0.712627
vt 0.762236 0.735089
vt 0.762236 0.735089
vt 0.760989 0.729475
vt 0.761208 0.729379
vt 0.827841 0.719371
vt 0.822443 0.712254
vt 0.821429 0.707031
vt 0.826824 0.714151
vt 0.160475 0.527498
vt 0.214740 0.503083
vt 0.212920 0.509530
vt 0.158697 0.533936
vt 0.031808 0.590975
vt 0.005198 0.700799
vt 0.002747 0.701911
vt 0.005198 0.700799
vt 0.036781 0.588718
vt 0.007649 0.699687
vt 0.031808 0.590975
vt 0.036781 0.588718
vt 0.005198 0.700799
vt 0.212920 0.509530
vt 0.443629 0.405793
vt 0.408671 0.519386
vt 0.181265 0.621635
vt 0.036781 0.588718
vt 0.158697 0.533936
vt 0.127819 0.645691
vt 0.007649 0.699687
vt 0.443629 0.405793
vt 0.426305 0.511532
vt 0.408671 0.519386
vt 0.426305 0.511532
vt 0.476737 0.398438
vt 0.443940 0.503677
vt 0.443629 0.405793
vt 0.476737 0.398438
vt 0.426305 0.511532
vt 0.158697 0.533936
vt 0.212920 0.509530
vt 0.181265 0.621635
vt 0.127819 0.645691
vt 0.840717 0.719965
vt 0.835165 0.712706
vt 0.836502 0.707031
vt 0.842058 0.714296
vt 0.792634 0.326650
vt 0.607143 0.115999
vt 0.633313 0.001953
vt 0.821498 0.215667
vt 0.066721 0.869680
vt 0.130696 0.841194
vt 0.150862 0.941618
vt 0.021087 0.999401
vt 0.002747 0.898166
vt 0.066721 0.869680
vt 0.021087 0.999401
vt 0.066721 0.869680
vt 0.150862 0.941618
vt 0.130696 0.841194
vt 0.192800 0.813508
vt 0.213851 0.913538
vt 0.150862 0.941618
vt 0.192800 0.813508
vt 0.391799 0.724878
vt 0.415689 0.823646
vt 0.213851 0.913538
vt 0.391799 0.724878
vt 0.431908 0.707031
vt 0.454527 0.798120
vt 0.415689 0.823646
vt 0.694511 0.696714
vt 0.505980 0.489538
vt 0.483516 0.398438
vt 0.669594 0.602921
vt 0.848901 0.707031
vt 0.848901 0.707031
vt 0.848901 0.707031
vt 0.848901 0.707031
vt 0.848901 0.707031
vt 0.848901 0.707031
vt 0.848901 0.707031
vt 0.848901 0.707031
vt 0.848901 0.707031
vt 0.848901 0.707031
vt 0.848901 0.707031
vt 0.848901 0.707031
vt 0.848901 0.707031
vt 0.848901 0.707031
vn -0.002594857 0.9999934 -0.002514852
vn -0.002594857 0.9999934 -0.002514852
vn -0.002594857 0.9999934 -0.002514852
vn 0 1 0
vn 0 1 0
vn 0 1 0
vn 0 1 0
vn 0 1 0
vn 0 1 0
vn 0 1 0
vn 0 1 0
vn 0 1 0
vn 0 1 0
vn 0 1 0
vn 0 1 0
vn 0 1 0
vn 0 1 0
vn 0 1 0
vn 0 1 0
vn 0 1 0
vn 0 1 0
vn 0 1 0
vn 0 1 0
vn 0 1 0
vn 0 1 0
vn 0 1 0
vn 0 1 0
vn 0 1 0
vn 0 1 0
vn 0 1 0
vn 0 1 0
vn 0 1 0
vn 0 1 0
vn 0 1 0
vn 0.3797506 0.7154587 -0.586437
vn 0.3797506 0.7154587 -0.586437
vn 0.3797506 0.7154587 -0.586437
vn 0.3604662 0.7646238 -0.534242
vn 0.3604662 0.7646238 -0.534242
vn 0.3604662 0.7646238 -0.534242
vn 0.8478287 2.277461E-09 0.5302701
vn 0.8478287 0 0.5302701
vn 0.8478287 2.277461E-09 0.5302701
vn 0.8478287 4.554921E-09 0.5302701
vn 0.8478285 0 0.5302706
vn 0.8478285 0 0.5302706
vn 0.8478285 0 0.5302706
vn 0.529999 0 -0.8479983
vn 0.529999 0 -0.8479983
vn 0.529999 0 -0.8479983
vn 0.529999 0 -0.8479983
vn -0.8476164 0 -0.5306094
vn -0.8476164 0 -0.5306094
vn -0.8476164 0 -0.5306094
vn -0.8476164 0 -0.5306094
vn -0.8456839 0 -0.533684
vn -0.8456839 0 -0.533684
vn -0.8456839 0 -0.533684
vn -0.8456839 0 -0.533684
vn -0.8456839 0 -0.533684
vn -0.8456839 0 -0.533684
vn -0.8456839 -2.151594E-12 -0.533684
vn -0.8456839 -2.151594E-12 -0.533684
vn -0.8456839 -2.151594E-12 -0.533684
vn -0.8478587 0 -0.5302222
vn -0.8478587 0 -0.5302222
vn -0.8478587 0 -0.5302222
vn -0.8478587 0 -0.5302222
vn -0.8480172 0 -0.5299687
vn -0.8480172 0 -0.5299687
vn -0.8480172 0 -0.5299687
vn -0.8480172 0 -0.5299687
vn -0.8501184 0 -0.5265915
vn -0.8501184 0 -0.5265915
vn -0.8501184 0 -0.5265915
vn -0.8501184 0 -0.5265916
vn -0.8501184 0 -0.5265916
vn -0.8501184 0 -0.5265916
vn -0.8501184 2.001783E-11 -0.5265915
vn -0.8501184 2.001783E-11 -0.5265915
vn -0.8501184 2.001783E-11 -0.5265915
vn -0.8476164 0 -0.5306094
vn -0.8476164 0 -0.5306094
vn -0.8476164 0 -0.5306094
vn -0.8476164 0 -0.5306094
vn -0.5325326 0 0.8464095
vn -0.5325326 0 0.8464095
vn -0.5325326 0 0.8464095
vn -0.5325326 0 0.8464095
vn -0.5299499 0 0.848029
vn -0.5299499 0 0.848029
vn -0.5299499 0 0.848029
vn -0.5299499 0 0.848029
vn 0.8481029 0 0.5298316
vn 0.8481029 0 0.5298316
vn 0.8481029 0 0.5298316
vn 0.8481029 0 0.5298316
vn 0.8481029 0 0.5298316
vn 0.8481029 0 0.5298316
vn 0.8481029 -2.156801E-11 0.5298316
vn 0.8481029 -2.156801E-11 0.5298316
vn 0.8481029 -2.156801E-11 0.5298316
vn 0.8478188 0 0.5302861
vn 0.8478188 0 0.5302861
vn 0.8478188 0 0.5302861
vn 0.8478188 0 0.5302861
vn 0.8480431 0 0.5299273
vn 0.8480431 0 0.5299273
vn 0.8480431 0 0.5299273
vn 0.8480431 0 0.5299273
vn 0.8482762 0 0.529554
vn 0.8482762 0 0.529554
vn 0.8482762 0 0.529554
vn 0.8482762 0 0.529554
vn 0.5435452 0 -0.8393799
vn 0.5435452 0 -0.8393799
vn 0.5435452 0 -0.8393799
vn 0.5435452 0 -0.8393799
vn 0 -1 0
vn 0 -1 0
vn 0 -1 0
vn 0 -1 0
vn 0 -1 0
vn 0 -1 0
vn 0 -1 0
vn 0 -1 0
vn 0 -1 0
vn 0 -1 0
vn 0 -1 0
vn 0 -1 0
vn 0 -1 0
vn 0 -1 0

g CDNNDG02_0010910
f 1/1/1 2/2/2 3/3/3
f 4/4/4 5/5/5 6/6/6
f 7/7/7 8/8/8 9/9/9
f 10/10/10 11/11/11 13/13/13
f 12/12/12 13/13/13 11/11/11
f 14/14/14 15/15/15 16/16/16
f 17/17/17 18/18/18 19/19/19
f 20/20/20 21/21/21 22/22/22
f 23/23/23 24/24/24 25/25/25
f 26/26/26 27/27/27 28/28/28
f 29/29/29 30/30/30 31/31/31
f 32/32/32 33/33/33 34/34/34
f 35/35/35 36/36/36 37/37/37
f 38/38/38 39/39/39 40/40/40
f 44/44/44 41/41/41 43/43/43
f 42/42/42 43/43/43 41/41/41
f 45/45/45 46/46/46 47/47/47
f 48/48/48 50/50/50 51/51/51
f 48/48/48 49/49/49 50/50/50
f 55/55/55 53/53/53 54/54/54
f 55/55/55 52/52/52 53/53/53
f 56/56/56 57/57/57 58/58/58
f 59/59/59 60/60/60 61/61/61
f 62/62/62 63/63/63 64/64/64
f 65/65/65 67/67/67 68/68/68
f 65/65/65 66/66/66 67/67/67
f 72/72/72 70/70/70 71/71/71
f 72/72/72 69/69/69 70/70/70
f 73/73/73 74/74/74 75/75/75
f 76/76/76 77/77/77 78/78/78
f 79/79/79 80/80/80 81/81/81
f 82/82/82 84/84/84 85/85/85
f 82/82/82 83/83/83 84/84/84
f 86/86/86 88/88/88 89/89/89
f 88/88/88 86/86/86 87/87/87
f 93/93/93 90/90/90 92/92/92
f 92/92/92 90/90/90 91/91/91
f 94/94/94 95/95/95 96/96/96
f 97/97/97 98/98/98 99/99/99
f 100/100/100 101/101/101 102/102/102
f 104/104/104 105/105/105 103/103/103
f 103/103/103 105/105/105 106/106/106
f 108/108/108 109/109/109 110/110/110
f 107/107/107 108/108/108 110/110/110
f 112/112/112 113/113/113 111/111/111
f 111/111/111 113/113/113 114/114/114
f 118/118/118 115/115/115 117/117/117
f 116/116/116 117/117/117 115/115/115
f 132/132/132 130/130/130 131/131/131
f 122/122/122 126/126/126 127/127/127
f 123/123/123 126/126/126 122/122/122
f 122/122/122 127/127/127 121/121/121
f 126/126/126 123/123/123 125/125/125
f 123/123/123 124/124/124 125/125/125
f 132/132/132 119/119/119 130/130/130
f 130/130/130 119/119/119 129/129/129
f 129/129/129 119/119/119 120/120/120
f 121/121/121 127/127/127 128/128/128
f 121/121/121 128/128/128 120/120/120
f 128/128/128 129/129/129 120/120/120
