v -6.914231 5.842287 6.417243
v -2.344231 5.843287 9.327244
v 0.5587686 5.843443 2.173243
v -6.914231 5.842287 6.417243
v 0.5587686 5.843443 2.173243
v -0.7462317 5.842912 -3.269757
v -0.7462317 5.842912 -3.269757
v 2.106769 5.8436 -0.2577565
v 4.638769 5.843847 -4.422757
v -0.7462317 5.842912 -3.269757
v 4.638769 5.843847 -4.422757
v 3.128769 5.843328 -8.942757
v 3.128769 5.843328 -8.942757
v 4.638769 5.843847 -4.422757
v 6.250769 5.84401 -6.954757
v -2.344231 5.843287 9.327244
v 1.733769 5.8437 2.921243
v 0.5587686 5.843443 2.173243
v -0.7462317 5.842912 -3.269757
v 3.128769 5.843328 -8.942757
v 2.941769 5.843287 -9.061756
v -0.7462317 5.842912 -3.269757
v 0.5587686 5.843443 2.173243
v 2.106769 5.8436 -0.2577565
v 5.161768 5.843961 -4.089756
v 4.638769 5.843847 -4.422757
v 2.106769 5.8436 -0.2577565
v 2.544769 5.843696 0.02024337
v 3.128769 5.251357 -8.942757
v 6.250769 5.250357 -6.954757
v 3.848769 4.763357 -10.07376
v 3.848769 4.763357 -10.07376
v 6.250769 5.250357 -6.954757
v 6.971769 4.763357 -8.086757
v 0.5587686 5.843443 2.173243
v 1.146269 -5.801063 2.547243
v 0.5587686 -5.801063 2.173243
v 1.146269 -5.801063 2.547243
v 1.733769 5.8437 2.921243
v 1.733769 -5.801063 2.921243
v 0.5587686 5.843443 2.173243
v 1.733769 5.8437 2.921243
v 1.146269 -5.801063 2.547243
v 1.332769 -5.801063 0.9577434
v 2.106769 -5.801063 -0.2577565
v 2.106769 5.8436 -0.2577565
v 0.5587686 5.843443 2.173243
v 0.5587686 -5.801063 2.173243
v 1.332769 -5.801063 0.9577434
v 0.5587686 5.843443 2.173243
v 1.332769 -5.801063 0.9577434
v 2.106769 5.8436 -0.2577565
v 2.106769 5.8436 -0.2577565
v 2.106769 -5.801063 -0.2577565
v 2.544769 -5.801063 0.02024337
v 2.544769 5.843696 0.02024337
v 3.853269 -5.801063 -2.034757
v 5.161768 -5.801063 -4.089756
v 5.161768 5.843961 -4.089756
v 2.544769 5.843696 0.02024337
v 2.544769 -5.801063 0.02024337
v 3.853269 -5.801063 -2.034757
v 2.544769 5.843696 0.02024337
v 3.853269 -5.801063 -2.034757
v 5.161768 5.843961 -4.089756
v 4.638769 5.843847 -4.422757
v 5.161768 -5.801063 -4.089756
v 4.638769 -5.801063 -4.422757
v 5.161768 5.843961 -4.089756
v 5.444768 -5.801063 -5.688756
v 6.250769 5.250357 -6.954757
v 6.250769 5.84401 -6.954757
v 5.444768 -5.801063 -5.688756
v 6.250769 -5.801063 -6.954757
v 6.250769 5.250357 -6.954757
v 4.638769 5.843847 -4.422757
v 4.638769 -5.801063 -4.422757
v 5.444768 -5.801063 -5.688756
v 4.638769 5.843847 -4.422757
v 5.444768 -5.801063 -5.688756
v 6.250769 5.84401 -6.954757
v 6.611269 -5.801063 -7.520757
v 6.971769 -5.801063 -8.086757
v 6.971769 4.763357 -8.086757
v 6.250769 5.250357 -6.954757
v 6.250769 -5.801063 -6.954757
v 6.611269 -5.801063 -7.520757
v 6.250769 5.250357 -6.954757
v 6.611269 -5.801063 -7.520757
v 6.971769 4.763357 -8.086757
v 6.250769 5.84401 -6.954757
v 6.250769 5.250357 -6.954757
v 3.128769 5.251357 -8.942757
v 3.128769 5.843328 -8.942757
v 2.941769 5.843287 -9.061756
v 3.035269 -5.801063 -9.002256
v 2.941769 -5.801063 -9.061756
v 2.941769 5.843287 -9.061756
v 3.128769 5.843328 -8.942757
v 3.035269 -5.801063 -9.002256
v 3.035269 -5.801063 -9.002256
v 3.128769 5.843328 -8.942757
v 3.128769 5.251357 -8.942757
v 3.035269 -5.801063 -9.002256
v 3.128769 5.251357 -8.942757
v 3.128769 -5.801063 -8.942757
v -0.7462317 -5.801063 -3.269757
v -0.7462317 5.842912 -3.269757
v 2.941769 -5.801063 -9.061756
v 2.941769 5.843287 -9.061756
v -6.914231 5.842287 6.417243
v -0.7462317 -5.801063 -3.269757
v -6.914231 -5.801063 6.417243
v -0.7462317 5.842912 -3.269757
v -6.914231 5.842287 6.417243
v -6.914231 -5.801063 6.417243
v -2.344231 -5.801063 9.327244
v -2.344231 5.843287 9.327244
v 1.733769 -5.801063 2.921243
v 1.733769 5.8437 2.921243
v -2.344231 5.843287 9.327244
v -2.344231 -5.801063 9.327244
v 6.971769 -5.801063 -8.086757
v 3.848769 4.763357 -10.07376
v 6.971769 4.763357 -8.086757
v 3.848769 -5.801063 -10.07376
v 3.848769 4.763357 -10.07376
v 3.848769 -5.801063 -10.07376
v 3.128769 -5.801063 -8.942757
v 3.128769 5.251357 -8.942757
v -2.344231 -5.801063 9.327244
v 0.5587686 -5.801063 2.173243
v 1.146269 -5.801063 2.547243
v 1.733769 -5.801063 2.921243
v -0.7462317 -5.801063 -3.269757
v 3.035269 -5.801063 -9.002256
v 3.128769 -5.801063 -8.942757
v 5.444768 -5.801063 -5.688756
v 4.638769 -5.801063 -4.422757
v 2.106769 -5.801063 -0.2577565
v 3.853269 -5.801063 -2.034757
v 2.544769 -5.801063 0.02024337
v 5.161768 -5.801063 -4.089756
v -6.914231 -5.801063 6.417243
v 2.941769 -5.801063 -9.061756
v 6.250769 -5.801063 -6.954757
v 6.611269 -5.801063 -7.520757
v 3.848769 -5.801063 -10.07376
v 6.971769 -5.801063 -8.086757
v 1.332769 -5.801063 0.9577434
vt 0.545211 0.001466
vt 0.648217 0.116955
vt 0.396941 0.190945
vt 0.545211 0.001466
vt 0.396941 0.190945
vt 0.205277 0.158290
vt 0.205277 0.158290
vt 0.311635 0.230301
vt 0.165469 0.294686
vt 0.205277 0.158290
vt 0.165469 0.294686
vt 0.006249 0.256779
vt 0.006249 0.256779
vt 0.165469 0.294686
vt 0.076623 0.335668
vt 0.648217 0.116955
vt 0.423418 0.220637
vt 0.396941 0.190945
vt 0.205277 0.158290
vt 0.006249 0.256779
vt 0.002037 0.252054
vt 0.205277 0.158290
vt 0.396941 0.190945
vt 0.311635 0.230301
vt 0.177256 0.307902
vt 0.165469 0.294686
vt 0.311635 0.230301
vt 0.321476 0.241369
vt 0.913849 0.736850
vt 0.843177 0.657771
vt 0.959414 0.716884
vt 0.959414 0.716884
vt 0.843177 0.657771
vt 0.888808 0.637830
vt 0.203954 0.941829
vt 0.336830 0.889941
vt 0.350016 0.904516
vt 0.336830 0.889941
vt 0.177189 0.912253
vt 0.323643 0.875367
vt 0.203954 0.941829
vt 0.177189 0.912253
vt 0.336830 0.889941
vt 0.808766 0.834798
vt 0.766984 0.853906
vt 0.635438 0.818828
vt 0.720212 0.780059
vt 0.850549 0.815689
vt 0.808766 0.834798
vt 0.720212 0.780059
vt 0.808766 0.834798
vt 0.635438 0.818828
vt 0.533605 0.918596
vt 0.664857 0.875367
vt 0.674418 0.886063
vt 0.543303 0.929448
vt 0.766629 0.705395
vt 0.695845 0.737861
vt 0.562118 0.703700
vt 0.705735 0.637830
vt 0.837414 0.672929
vt 0.766629 0.705395
vt 0.705735 0.637830
vt 0.766629 0.705395
vt 0.562118 0.703700
vt 0.013935 0.999996
vt 0.144717 0.951613
vt 0.156441 0.964480
vt 0.002037 0.986940
vt 0.207433 0.834329
vt 0.035789 0.822320
vt 0.028810 0.820577
vt 0.207433 0.834329
vt 0.163861 0.854300
vt 0.035789 0.822320
vt 0.117216 0.780059
vt 0.251006 0.814359
vt 0.207433 0.834329
vt 0.117216 0.780059
vt 0.207433 0.834329
vt 0.028810 0.820577
vt 0.144380 0.863232
vt 0.124900 0.872164
vt 0.002037 0.841846
vt 0.035789 0.822320
vt 0.163861 0.854300
vt 0.144380 0.863232
vt 0.035789 0.822320
vt 0.144380 0.863232
vt 0.002037 0.841846
vt 0.256619 0.781888
vt 0.263946 0.780059
vt 0.335171 0.858964
vt 0.327918 0.860846
vt 0.332186 0.865576
vt 0.470730 0.826650
vt 0.472833 0.828981
vt 0.332186 0.865576
vt 0.327918 0.860846
vt 0.470730 0.826650
vt 0.470730 0.826650
vt 0.327918 0.860846
vt 0.335171 0.858964
vt 0.470730 0.826650
vt 0.335171 0.858964
vt 0.468627 0.824319
vt 0.495135 0.478115
vt 0.348628 0.433379
vt 0.699387 0.384820
vt 0.555874 0.338710
vt 0.002037 0.591697
vt 0.495135 0.478115
vt 0.153551 0.634135
vt 0.348628 0.433379
vt 0.704684 0.379450
vt 0.833302 0.338710
vt 0.933920 0.452280
vt 0.806751 0.494668
vt 0.132473 0.776412
vt 0.002037 0.740881
vt 0.226246 0.637830
vt 0.353485 0.674829
vt 0.486241 0.637830
vt 0.429549 0.748942
vt 0.358452 0.669767
vt 0.556403 0.715966
vt 0.400487 0.875367
vt 0.528922 0.916651
vt 0.489381 0.934520
vt 0.354379 0.891551
vt 0.454175 0.951613
vt 0.454175 0.951613
vt 0.454175 0.951613
vt 0.454175 0.951613
vt 0.454175 0.951613
vt 0.454175 0.951613
vt 0.454175 0.951613
vt 0.454175 0.951613
vt 0.454175 0.951613
vt 0.454175 0.951613
vt 0.454175 0.951613
vt 0.454175 0.951613
vt 0.454175 0.951613
vt 0.454175 0.951613
vt 0.454175 0.951613
vt 0.454175 0.951613
vt 0.454175 0.951613
vt 0.454175 0.951613
vt 0.454175 0.951613
vt 0.454175 0.951613
vn -0.0001849628 1 -5.316842E-05
vn -0.0001849628 1 -5.316842E-05
vn -0.0001849628 1 -5.316842E-05
vn -0.0001849626 1 -5.316806E-05
vn -0.0001849626 1 -5.316806E-05
vn -0.0001849626 1 -5.316806E-05
vn -0.0001849624 1 -5.316801E-05
vn -0.0001849624 1 -5.316801E-05
vn -0.0001849624 1 -5.316801E-05
vn -0.0001849627 1 -5.316953E-05
vn -0.0001849627 1 -5.316953E-05
vn -0.0001849627 1 -5.316953E-05
vn -0.0001849649 1 -5.316881E-05
vn -0.0001849649 1 -5.316881E-05
vn -0.0001849649 1 -5.316881E-05
vn -0.0001849619 1 -5.316808E-05
vn -0.0001849619 1 -5.316808E-05
vn -0.0001849619 1 -5.316808E-05
vn -0.0001849433 1 -5.315627E-05
vn -0.0001849433 1 -5.315627E-05
vn -0.0001849433 1 -5.315627E-05
vn -0.0001849623 1 -5.316813E-05
vn -0.0001849623 1 -5.316813E-05
vn -0.0001849623 1 -5.316813E-05
vn -0.000184959 1 -5.316539E-05
vn -0.000184962 1 -5.316777E-05
vn -0.000184959 1 -5.316539E-05
vn -0.0001849561 1 -5.316302E-05
vn 0.1839246 0.9396895 -0.2883667
vn 0.1839246 0.9396895 -0.2883667
vn 0.1839246 0.9396895 -0.2883667
vn 0.1831039 0.9400273 -0.2877874
vn 0.1831039 0.9400273 -0.2877874
vn 0.1831039 0.9400273 -0.2877874
vn 0.5370148 0 -0.8435728
vn 0.5370148 0 -0.8435728
vn 0.5370148 0 -0.8435728
vn 0.5370148 0 -0.8435728
vn 0.5370148 0 -0.8435728
vn 0.5370148 0 -0.8435728
vn 0.5370148 7.084124E-10 -0.8435728
vn 0.5370148 7.084124E-10 -0.8435728
vn 0.5370148 7.084124E-10 -0.8435728
vn 0.8435043 0 0.5371225
vn 0.8435043 0 0.5371225
vn 0.8435043 0 0.5371225
vn 0.8435043 0 0.5371225
vn 0.8435043 0 0.5371225
vn 0.8435043 0 0.5371225
vn 0.8435043 -5.988837E-10 0.5371225
vn 0.8435043 -5.988837E-10 0.5371225
vn 0.8435043 -5.988837E-10 0.5371225
vn -0.5358775 0 0.8442957
vn -0.5358775 0 0.8442957
vn -0.5358775 0 0.8442957
vn -0.5358775 0 0.8442957
vn 0.8435178 0 0.5371012
vn 0.8435178 0 0.5371012
vn 0.8435178 0 0.5371012
vn 0.8435178 0 0.5371012
vn 0.8435178 0 0.5371012
vn 0.8435178 0 0.5371012
vn 0.8435178 -5.773865E-10 0.5371012
vn 0.8435178 -5.773865E-10 0.5371012
vn 0.8435178 -5.773865E-10 0.5371012
vn 0.5370842 0 -0.8435286
vn 0.5370842 0 -0.8435286
vn 0.5370842 0 -0.8435286
vn 0.5370842 0 -0.8435286
vn 0.8435518 0 0.5370479
vn 0.8435518 0 0.5370479
vn 0.8435518 0 0.5370479
vn 0.8435518 0 0.5370479
vn 0.8435518 0 0.5370479
vn 0.8435518 0 0.5370479
vn 0.8435518 0 0.5370479
vn 0.8435518 0 0.5370479
vn 0.8435518 0 0.5370479
vn 0.8435518 -1.242803E-10 0.5370479
vn 0.8435518 -1.242803E-10 0.5370479
vn 0.8435518 -1.242803E-10 0.5370479
vn 0.8434466 0 0.537213
vn 0.8434466 0 0.537213
vn 0.8434466 0 0.537213
vn 0.8434466 0 0.537213
vn 0.8434466 0 0.537213
vn 0.8434466 0 0.537213
vn 0.8434466 2.271254E-12 0.537213
vn 0.8434466 2.271254E-12 0.537213
vn 0.8434466 2.271254E-12 0.537213
vn 0.5371202 0 -0.8435057
vn 0.5371202 0 -0.8435057
vn 0.5371202 0 -0.8435057
vn 0.5371202 0 -0.8435057
vn 0.5368755 0 -0.8436615
vn 0.5368755 0 -0.8436615
vn 0.5368755 0 -0.8436615
vn 0.5368755 -1.341861E-12 -0.8436615
vn 0.5368755 -1.341861E-12 -0.8436615
vn 0.5368755 -1.341861E-12 -0.8436615
vn 0.5368755 0 -0.8436615
vn 0.5368755 0 -0.8436615
vn 0.5368755 0 -0.8436615
vn 0.5368755 0 -0.8436615
vn 0.5368755 0 -0.8436615
vn 0.5368755 0 -0.8436615
vn -0.8435175 0 -0.5371017
vn -0.8435175 0 -0.5371017
vn -0.8435175 0 -0.5371017
vn -0.8435175 0 -0.5371017
vn -0.8435217 0 -0.5370952
vn -0.8435217 0 -0.5370952
vn -0.8435217 0 -0.5370952
vn -0.8435217 0 -0.5370952
vn -0.5371143 0 0.8435094
vn -0.5371143 0 0.8435094
vn -0.5371143 0 0.8435094
vn -0.5371143 0 0.8435094
vn 0.8435747 0 0.5370118
vn 0.8435747 0 0.5370118
vn 0.8435747 0 0.5370118
vn 0.8435747 0 0.5370118
vn 0.5368056 0 -0.843706
vn 0.5368056 0 -0.843706
vn 0.5368056 0 -0.843706
vn 0.5368056 0 -0.843706
vn -0.8435693 0 -0.5370203
vn -0.8435693 0 -0.5370203
vn -0.8435693 0 -0.5370203
vn -0.8435693 0 -0.5370203
vn 0 -1 0
vn 0 -1 0
vn 0 -1 0
vn 0 -1 0
vn 0 -1 0
vn 0 -1 0
vn 0 -1 0
vn 0 -1 0
vn 0 -1 0
vn 0 -1 0
vn 0 -1 0
vn 0 -1 0
vn 0 -1 0
vn 0 -1 0
vn 0 -1 0
vn 0 -1 0
vn 0 -1 0
vn 0 -1 0
vn 0 -1 0
vn 0 -1 0

g CDNNDG02_0015840
f 1/1/1 2/2/2 3/3/3
f 4/4/4 5/5/5 6/6/6
f 7/7/7 8/8/8 9/9/9
f 10/10/10 11/11/11 12/12/12
f 13/13/13 14/14/14 15/15/15
f 16/16/16 17/17/17 18/18/18
f 19/19/19 20/20/20 21/21/21
f 22/22/22 23/23/23 24/24/24
f 25/25/25 26/26/26 27/27/27
f 28/28/28 25/25/25 27/27/27
f 29/29/29 30/30/30 31/31/31
f 32/32/32 33/33/33 34/34/34
f 35/35/35 36/36/36 37/37/37
f 38/38/38 39/39/39 40/40/40
f 41/41/41 42/42/42 43/43/43
f 44/44/44 45/45/45 46/46/46
f 47/47/47 48/48/48 49/49/49
f 50/50/50 51/51/51 52/52/52
f 53/53/53 54/54/54 55/55/55
f 56/56/56 53/53/53 55/55/55
f 57/57/57 58/58/58 59/59/59
f 60/60/60 61/61/61 62/62/62
f 63/63/63 64/64/64 65/65/65
f 66/66/66 67/67/67 68/68/68
f 66/66/66 69/69/69 67/67/67
f 70/70/70 71/71/71 72/72/72
f 73/73/73 74/74/74 75/75/75
f 76/76/76 77/77/77 78/78/78
f 79/79/79 80/80/80 81/81/81
f 82/82/82 83/83/83 84/84/84
f 85/85/85 86/86/86 87/87/87
f 88/88/88 89/89/89 90/90/90
f 91/91/91 92/92/92 93/93/93
f 94/94/94 91/91/91 93/93/93
f 95/95/95 96/96/96 97/97/97
f 98/98/98 99/99/99 100/100/100
f 101/101/101 102/102/102 103/103/103
f 104/104/104 105/105/105 106/106/106
f 107/107/107 108/108/108 109/109/109
f 109/109/109 108/108/108 110/110/110
f 111/111/111 112/112/112 113/113/113
f 112/112/112 111/111/111 114/114/114
f 115/115/115 116/116/116 117/117/117
f 118/118/118 115/115/115 117/117/117
f 119/119/119 120/120/120 121/121/121
f 122/122/122 119/119/119 121/121/121
f 123/123/123 124/124/124 125/125/125
f 124/124/124 123/123/123 126/126/126
f 127/127/127 128/128/128 129/129/129
f 130/130/130 127/127/127 129/129/129
f 131/131/131 132/132/132 133/133/133
f 131/131/131 133/133/133 134/134/134
f 135/135/135 136/136/136 137/137/137
f 137/137/137 138/138/138 139/139/139
f 140/140/140 141/141/141 142/142/142
f 141/141/141 139/139/139 143/143/143
f 135/135/135 139/139/139 141/141/141
f 144/144/144 132/132/132 131/131/131
f 135/135/135 145/145/145 136/136/136
f 137/137/137 146/146/146 138/138/138
f 137/137/137 147/147/147 146/146/146
f 137/137/137 148/148/148 147/147/147
f 148/148/148 149/149/149 147/147/147
f 144/144/144 135/135/135 132/132/132
f 135/135/135 141/141/141 140/140/140
f 135/135/135 150/150/150 132/132/132
f 135/135/135 137/137/137 139/139/139
f 135/135/135 140/140/140 150/150/150
