v 6.250817 6.099887 -7.14675
v 7.423817 6.099887 -4.70075
v 7.581817 6.099887 -6.222751
v 7.423817 6.099887 -4.70075
v 7.697817 6.099887 -5.12175
v 7.581817 6.099887 -6.222751
v 4.867817 6.099887 -6.513751
v 7.423817 6.099887 -4.70075
v 6.250817 6.099887 -7.14675
v -5.760183 6.099887 3.03125
v -2.244183 6.099887 4.91125
v -1.365183 6.099887 2.858249
v -4.735183 6.099887 1.042249
v -2.244183 6.099887 4.91125
v -1.046183 6.099887 3.065249
v -1.365183 6.099887 2.858249
v 3.043817 6.099887 3.275249
v 7.984817 6.099887 -4.336751
v 7.423817 6.099887 -4.70075
v -5.947183 6.099887 2.910249
v -5.760183 6.099887 3.03125
v -4.735183 6.099887 1.042249
v -4.735183 6.099887 1.042249
v -1.365183 6.099887 2.858249
v -4.713183 6.099887 1.009249
v -6.258183 6.099887 3.79725
v -2.244183 6.099887 4.91125
v -5.760183 6.099887 3.03125
v -6.258183 6.099887 3.79725
v -5.872183 6.099887 4.04825
v -2.244183 6.099887 4.91125
v -6.131538 6.099887 4.447101
v -2.244183 6.099887 4.91125
v -5.872183 6.099887 4.04825
v 3.043817 6.099887 3.275249
v 7.423817 6.099887 -4.70075
v 4.867817 6.099887 -6.513751
v 0.4668172 6.099887 1.491249
v -8.467183 6.099887 7.20125
v -4.299183 6.099887 9.907249
v -3.365183 6.099887 8.468249
v -6.641183 6.099887 4.38625
v -6.641183 6.099887 4.38625
v -3.365183 6.099887 8.468249
v -6.255183 6.099887 4.637249
v -6.131538 6.099887 4.447101
v -3.365183 6.099887 8.468249
v -2.244183 6.099887 4.91125
v -6.255183 6.099887 4.637249
v -3.365183 6.099887 8.468249
v -6.131538 6.099887 4.447101
v -3.365183 6.099887 8.468249
v -3.033183 6.099887 8.683249
v -1.076183 6.099887 5.66925
v -3.365183 6.099887 8.468249
v -1.076183 6.099887 5.66925
v -2.244183 6.099887 4.91125
v 0.4668172 6.099887 1.491249
v 4.867817 6.099887 -6.513751
v 1.562817 6.099887 -8.658751
v -4.713183 6.099887 1.009249
v 0.4668172 6.099887 1.491249
v 1.562817 6.099887 -8.658751
v -4.713183 6.099887 1.009249
v -1.365183 6.099887 2.858249
v -0.7751828 6.099887 1.94925
v 4.867817 6.099887 -6.513751
v 6.250817 6.099887 -7.14675
v 5.058817 6.099887 -6.808751
v -4.713183 6.099887 1.009249
v -0.7751828 6.099887 1.94925
v 0.4668172 6.099887 1.491249
v -6.641183 7.336887 4.38625
v -5.872183 7.336887 4.04825
v -6.258183 7.335887 3.79725
v -6.641183 7.336887 4.38625
v -6.255183 7.335887 4.637249
v -5.872183 7.336887 4.04825
v -8.467183 6.099887 7.20125
v -6.641183 6.099887 4.38625
v -6.641183 -6.103571 4.38625
v -8.467183 -6.103571 7.20125
v -6.258183 6.099887 3.79725
v -6.009183 -6.103571 3.414249
v -6.258183 -6.103571 3.79725
v -6.009183 -6.103571 3.414249
v -5.760183 6.099887 3.03125
v -5.760183 -6.103571 3.03125
v -6.258183 6.099887 3.79725
v -5.760183 6.099887 3.03125
v -6.009183 -6.103571 3.414249
v -6.641183 6.099887 4.38625
v -6.449683 -6.103571 4.09175
v -6.641183 -6.103571 4.38625
v -6.449683 -6.103571 4.09175
v -6.258183 6.099887 3.79725
v -6.258183 -6.103571 3.79725
v -6.641183 6.099887 4.38625
v -6.258183 6.099887 3.79725
v -6.449683 -6.103571 4.09175
v -6.641183 7.336887 4.38625
v -6.258183 7.335887 3.79725
v -6.258183 6.099887 3.79725
v -6.641183 6.099887 4.38625
v -8.467183 -6.103571 7.20125
v -4.299183 -6.103571 9.907249
v -4.299183 6.099887 9.907249
v -8.467183 6.099887 7.20125
v -3.832183 -6.103571 9.18775
v -3.365183 -6.103571 8.468249
v -3.365183 6.099887 8.468249
v -4.299183 6.099887 9.907249
v -4.299183 -6.103571 9.907249
v -3.832183 -6.103571 9.18775
v -4.299183 6.099887 9.907249
v -3.832183 -6.103571 9.18775
v -3.365183 6.099887 8.468249
v -3.365183 -6.103571 8.468249
v -3.033183 -6.103571 8.683249
v -3.033183 6.099887 8.683249
v -3.365183 6.099887 8.468249
v -2.054683 -6.103571 7.17625
v -1.076183 -6.103571 5.66925
v -1.076183 6.099887 5.66925
v -3.033183 6.099887 8.683249
v -3.033183 -6.103571 8.683249
v -2.054683 -6.103571 7.17625
v -3.033183 6.099887 8.683249
v -2.054683 -6.103571 7.17625
v -1.076183 6.099887 5.66925
v -2.244183 6.099887 4.91125
v -1.660183 -6.103571 5.290249
v -2.244183 -6.103571 4.91125
v -1.660183 -6.103571 5.290249
v -1.076183 6.099887 5.66925
v -1.076183 -6.103571 5.66925
v -2.244183 6.099887 4.91125
v -1.076183 6.099887 5.66925
v -1.660183 -6.103571 5.290249
v -2.244183 -6.103571 4.91125
v -1.046183 -6.103571 3.065249
v -1.046183 6.099887 3.065249
v -2.244183 6.099887 4.91125
v -1.365183 6.099887 2.858249
v -1.046183 6.099887 3.065249
v -1.046183 -6.103571 3.065249
v -1.365183 -6.103571 2.858249
v -1.365183 -6.103571 2.858249
v -0.7751828 -6.103571 1.94925
v -0.7751828 6.099887 1.94925
v -1.365183 6.099887 2.858249
v -0.7751828 -6.103571 1.94925
v 0.4668172 -6.103571 1.491249
v 0.4668172 6.099887 1.491249
v -0.7751828 6.099887 1.94925
v 1.755317 -6.103571 2.38325
v 3.043817 -6.103571 3.275249
v 3.043817 6.099887 3.275249
v 0.4668172 6.099887 1.491249
v 0.4668172 -6.103571 1.491249
v 1.755317 -6.103571 2.38325
v 0.4668172 6.099887 1.491249
v 1.755317 -6.103571 2.38325
v 3.043817 6.099887 3.275249
v 3.043817 -6.103571 3.275249
v 7.984817 -6.103571 -4.336751
v 7.984817 6.099887 -4.336751
v 3.043817 6.099887 3.275249
v 7.423817 6.099887 -4.70075
v 7.984817 6.099887 -4.336751
v 7.984817 -6.103571 -4.336751
v 7.423817 -6.103571 -4.70075
v 7.423817 -6.103571 -4.70075
v 7.697817 -6.103571 -5.12175
v 7.697817 6.099887 -5.12175
v 7.423817 6.099887 -4.70075
v 7.581817 6.099887 -6.222751
v 7.697817 6.099887 -5.12175
v 7.697817 -6.103571 -5.12175
v 7.581817 -6.103571 -6.222751
v 6.250817 6.099887 -7.14675
v 7.581817 6.099887 -6.222751
v 7.581817 -6.103571 -6.222751
v 6.250817 -6.103571 -7.14675
v 5.058817 6.099887 -6.808751
v 6.250817 6.099887 -7.14675
v 6.250817 -6.103571 -7.14675
v 5.058817 -6.103571 -6.808751
v 4.867817 6.099887 -6.513751
v 4.963317 -6.103571 -6.661251
v 4.867817 -6.103571 -6.513751
v 4.963317 -6.103571 -6.661251
v 5.058817 6.099887 -6.808751
v 5.058817 -6.103571 -6.808751
v 4.867817 6.099887 -6.513751
v 5.058817 6.099887 -6.808751
v 4.963317 -6.103571 -6.661251
v 1.562817 6.099887 -8.658751
v 4.867817 6.099887 -6.513751
v 4.867817 -6.103571 -6.513751
v 1.562817 -6.103571 -8.658751
v -4.713183 6.099887 1.009249
v 1.562817 6.099887 -8.658751
v 1.562817 -6.103571 -8.658751
v -4.713183 -6.103571 1.009249
v -4.735183 6.099887 1.042249
v -4.713183 6.099887 1.009249
v -4.713183 -6.103571 1.009249
v -4.735183 -6.103571 1.042249
v -5.947183 6.099887 2.910249
v -5.341183 -6.103571 1.976249
v -5.947183 -6.103571 2.910249
v -5.341183 -6.103571 1.976249
v -4.735183 6.099887 1.042249
v -4.735183 -6.103571 1.042249
v -5.947183 6.099887 2.910249
v -4.735183 6.099887 1.042249
v -5.341183 -6.103571 1.976249
v -5.947183 -6.103571 2.910249
v -5.760183 -6.103571 3.03125
v -5.760183 6.099887 3.03125
v -5.947183 6.099887 2.910249
v -6.641183 6.099887 4.38625
v -6.255183 6.099887 4.637249
v -6.255183 7.335887 4.637249
v -6.641183 7.336887 4.38625
v -6.131538 6.099887 4.447101
v -5.872183 6.099887 4.04825
v -5.872183 7.336887 4.04825
v -6.255183 7.335887 4.637249
v -6.255183 6.099887 4.637249
v -6.131538 6.099887 4.447101
v -6.255183 7.335887 4.637249
v -6.131538 6.099887 4.447101
v -5.872183 7.336887 4.04825
v -6.258183 7.335887 3.79725
v -5.872183 7.336887 4.04825
v -5.872183 6.099887 4.04825
v -6.258183 6.099887 3.79725
v -6.641183 -6.103571 4.38625
v -6.449683 -6.103571 4.09175
v -6.258183 -6.103571 3.79725
v -6.009183 -6.103571 3.414249
v -5.760183 -6.103571 3.03125
v -5.947183 -6.103571 2.910249
v -5.341183 -6.103571 1.976249
v -4.735183 -6.103571 1.042249
v -4.713183 -6.103571 1.009249
v 1.562817 -6.103571 -8.658751
v 4.867817 -6.103571 -6.513751
v 4.963317 -6.103571 -6.661251
v 5.058817 -6.103571 -6.808751
v 6.250817 -6.103571 -7.14675
v 7.581817 -6.103571 -6.222751
v 7.697817 -6.103571 -5.12175
v 7.423817 -6.103571 -4.70075
v 7.984817 -6.103571 -4.336751
v 3.043817 -6.103571 3.275249
v 1.755317 -6.103571 2.38325
v 0.4668172 -6.103571 1.491249
v -0.7751828 -6.103571 1.94925
v -1.365183 -6.103571 2.858249
v -1.046183 -6.103571 3.065249
v -2.244183 -6.103571 4.91125
v -1.660183 -6.103571 5.290249
v -1.076183 -6.103571 5.66925
v -2.054683 -6.103571 7.17625
v -3.033183 -6.103571 8.683249
v -3.365183 -6.103571 8.468249
v -3.832183 -6.103571 9.18775
v -4.299183 -6.103571 9.907249
v -8.467183 -6.103571 7.20125
vt 0.057844 0.380109
vt 0.148661 0.410601
vt 0.092052 0.414543
vt 0.148661 0.410601
vt 0.132977 0.417635
vt 0.092052 0.414543
vt 0.081535 0.344471
vt 0.148661 0.410601
vt 0.057844 0.380109
vt 0.437652 0.070997
vt 0.507160 0.161920
vt 0.430721 0.184426
vt 0.363575 0.097278
vt 0.507160 0.161920
vt 0.438382 0.192678
vt 0.430721 0.184426
vt 0.445726 0.298263
vt 0.162133 0.425112
vt 0.148661 0.410601
vt 0.433174 0.066159
vt 0.437652 0.070997
vt 0.363575 0.097278
vt 0.363575 0.097278
vt 0.430721 0.184426
vt 0.362345 0.097843
vt 0.466193 0.058210
vt 0.507160 0.161920
vt 0.437652 0.070997
vt 0.466193 0.058210
vt 0.475482 0.068196
vt 0.507160 0.161920
vt 0.490343 0.061537
vt 0.507160 0.161920
vt 0.475482 0.068196
vt 0.445726 0.298263
vt 0.148661 0.410601
vt 0.081535 0.344471
vt 0.379682 0.231591
vt 0.593024 0.001490
vt 0.693172 0.109319
vt 0.639555 0.133300
vt 0.488138 0.048376
vt 0.488138 0.048376
vt 0.639555 0.133300
vt 0.497428 0.058362
vt 0.490343 0.061537
vt 0.639555 0.133300
vt 0.507160 0.161920
vt 0.497428 0.058362
vt 0.639555 0.133300
vt 0.490343 0.061537
vt 0.639555 0.133300
vt 0.647512 0.141889
vt 0.535213 0.192135
vt 0.639555 0.133300
vt 0.535213 0.192135
vt 0.507160 0.161920
vt 0.379682 0.231591
vt 0.081535 0.344471
vt 0.002146 0.258978
vt 0.362345 0.097843
vt 0.379682 0.231591
vt 0.002146 0.258978
vt 0.362345 0.097843
vt 0.430721 0.184426
vt 0.396853 0.199574
vt 0.081535 0.344471
vt 0.057844 0.380109
vt 0.070545 0.349374
vt 0.362345 0.097843
vt 0.396853 0.199574
vt 0.379682 0.231591
vt 0.507699 0.901639
vt 0.495832 0.920137
vt 0.487124 0.910816
vt 0.507699 0.901639
vt 0.516413 0.910958
vt 0.495832 0.920137
vt 0.155803 0.828202
vt 0.052075 0.875275
vt 0.088338 0.775132
vt 0.190512 0.728763
vt 0.030371 0.885149
vt 0.053058 0.791181
vt 0.066959 0.784858
vt 0.053058 0.791181
vt 0.002146 0.897987
vt 0.039157 0.797503
vt 0.030371 0.885149
vt 0.002146 0.897987
vt 0.053058 0.791181
vt 0.052075 0.875275
vt 0.077648 0.779995
vt 0.088338 0.775132
vt 0.077648 0.779995
vt 0.030371 0.885149
vt 0.066959 0.784858
vt 0.052075 0.875275
vt 0.030371 0.885149
vt 0.077648 0.779995
vt 0.048337 0.885597
vt 0.026603 0.895477
vt 0.030371 0.885149
vt 0.052075 0.875275
vt 0.508795 0.429210
vt 0.607198 0.534618
vt 0.574150 0.635815
vt 0.474249 0.528805
vt 0.128386 0.982824
vt 0.102500 0.994426
vt 0.068670 0.925195
vt 0.121226 0.901639
vt 0.154271 0.971223
vt 0.128386 0.982824
vt 0.121226 0.901639
vt 0.128386 0.982824
vt 0.068670 0.925195
vt 0.609919 0.728763
vt 0.617466 0.737107
vt 0.584915 0.838157
vt 0.577253 0.829687
vt 0.517524 0.822486
vt 0.462758 0.846874
vt 0.427039 0.778283
vt 0.538234 0.728763
vt 0.572291 0.798096
vt 0.517524 0.822486
vt 0.538234 0.728763
vt 0.517524 0.822486
vt 0.427039 0.778283
vt 0.002146 0.901639
vt 0.050886 0.985250
vt 0.037587 0.970500
vt 0.050886 0.985250
vt 0.029148 0.931587
vt 0.064185 1.000000
vt 0.002146 0.901639
vt 0.029148 0.931587
vt 0.050886 0.985250
vt 0.908373 0.797639
vt 0.841663 0.827427
vt 0.804721 0.759004
vt 0.872443 0.728763
vt 0.291846 0.901639
vt 0.299127 0.909786
vt 0.335110 0.977920
vt 0.327937 0.969895
vt 0.228523 0.969988
vt 0.195990 0.984616
vt 0.158798 0.916490
vt 0.191825 0.901639
vt 0.967735 0.797086
vt 0.951258 0.828231
vt 0.914163 0.760382
vt 0.930890 0.728763
vt 0.265058 0.761292
vt 0.297336 0.793821
vt 0.260819 0.897687
vt 0.195279 0.831640
vt 0.232779 0.728763
vt 0.265058 0.761292
vt 0.195279 0.831640
vt 0.265058 0.761292
vt 0.260819 0.897687
vt 0.931980 0.496546
vt 0.653165 0.620266
vt 0.611588 0.554811
vt 0.894634 0.429210
vt 0.233906 0.901639
vt 0.246804 0.915974
vt 0.287048 0.980737
vt 0.274343 0.966617
vt 0.396874 0.966496
vt 0.381926 0.973272
vt 0.341202 0.908518
vt 0.356377 0.901639
vt 0.401288 0.901639
vt 0.441228 0.904782
vt 0.482434 0.969452
vt 0.443091 0.966356
vt 0.725322 0.728763
vt 0.758451 0.762905
vt 0.800163 0.828057
vt 0.767530 0.794425
vt 0.596566 0.901639
vt 0.596566 0.901639
vt 0.596566 0.901639
vt 0.596566 0.901639
vt 0.632887 0.832850
vt 0.668789 0.731176
vt 0.673995 0.728763
vt 0.668789 0.731176
vt 0.622318 0.837750
vt 0.663584 0.733590
vt 0.632887 0.832850
vt 0.622318 0.837750
vt 0.668789 0.731176
vt 0.302575 0.728763
vt 0.380237 0.813947
vt 0.422538 0.880471
vt 0.346038 0.796562
vt 0.360775 0.561926
vt 0.002146 0.724309
vt 0.045904 0.620616
vt 0.399160 0.460662
vt 0.361999 0.561356
vt 0.360775 0.561926
vt 0.399160 0.460662
vt 0.400365 0.460101
vt 0.431294 0.529996
vt 0.434494 0.444656
vt 0.468623 0.429210
vt 0.434494 0.444656
vt 0.361999 0.561356
vt 0.400365 0.460101
vt 0.431294 0.529996
vt 0.361999 0.561356
vt 0.434494 0.444656
vt 0.715882 0.728763
vt 0.720130 0.733460
vt 0.684570 0.833417
vt 0.680257 0.828648
vt 0.524699 0.901639
vt 0.532770 0.910908
vt 0.529545 0.920582
vt 0.521459 0.911308
vt 0.555942 0.911289
vt 0.542159 0.917380
vt 0.538627 0.910643
vt 0.559014 0.901639
vt 0.562513 0.908385
vt 0.555942 0.911289
vt 0.559014 0.901639
vt 0.555942 0.911289
vt 0.538627 0.910643
vt 0.568670 0.901639
vt 0.576608 0.910858
vt 0.579888 0.917596
vt 0.571959 0.908385
vt 0.585837 0.901639
vt 0.585837 0.901639
vt 0.585837 0.901639
vt 0.585837 0.901639
vt 0.585837 0.901639
vt 0.585837 0.901639
vt 0.585837 0.901639
vt 0.585837 0.901639
vt 0.585837 0.901639
vt 0.585837 0.901639
vt 0.585837 0.901639
vt 0.585837 0.901639
vt 0.585837 0.901639
vt 0.585837 0.901639
vt 0.585837 0.901639
vt 0.585837 0.901639
vt 0.585837 0.901639
vt 0.585837 0.901639
vt 0.585837 0.901639
vt 0.585837 0.901639
vt 0.585837 0.901639
vt 0.585837 0.901639
vt 0.585837 0.901639
vt 0.585837 0.901639
vt 0.585837 0.901639
vt 0.585837 0.901639
vt 0.585837 0.901639
vt 0.585837 0.901639
vt 0.585837 0.901639
vt 0.585837 0.901639
vt 0.585837 0.901639
vt 0.585837 0.901639
vt 0.585837 0.901639
vn 0 1 0
vn 0 1 0
vn 0 1 0
vn 0 1 0
vn 0 1 0
vn 0 1 0
vn 0 1 0
vn 0 1 0
vn 0 1 0
vn 0 1 0
vn 0 1 0
vn 0 1 0
vn 0 1 0
vn 0 1 0
vn 0 1 0
vn 0 1 0
vn 0 1 0
vn 0 1 0
vn 0 1 0
vn 0 1 0
vn 0 1 0
vn 0 1 0
vn 0 1 0
vn 0 1 0
vn 0 1 0
vn 0 1 0
vn 0 1 0
vn 0 1 0
vn 0 1 0
vn 0 1 0
vn 0 1 0
vn 0 1 0
vn 0 1 0
vn 0 1 0
vn 0 1 0
vn 0 1 0
vn 0 1 0
vn 0 1 0
vn 0 1 0
vn 0 1 0
vn 0 1 0
vn 0 1 0
vn 0 1 0
vn 0 1 0
vn 0 1 0
vn 0 1 0
vn 0 1 0
vn 0 1 0
vn 0 1 0
vn 0 1 0
vn 0 1 0
vn 0 1 0
vn 0 1 0
vn 0 1 0
vn 0 1 0
vn 0 1 0
vn 0 1 0
vn 0 1 0
vn 0 1 0
vn 0 1 0
vn 0 1 0
vn 0 1 0
vn 0 1 0
vn 0 1 0
vn 0 1 0
vn 0 1 0
vn 0 1 0
vn 0 1 0
vn 0 1 0
vn 0 1 0
vn 0 1 0
vn 0 1 0
vn -0.001044861 0.9999966 -0.002377213
vn -0.001044861 0.9999966 -0.002377213
vn -0.001044861 0.9999966 -0.002377213
vn 0.001044861 0.9999966 0.002377213
vn 0.001044861 0.9999966 0.002377213
vn 0.001044861 0.9999966 0.002377213
vn -0.8389539 0 -0.5442024
vn -0.8389539 0 -0.5442024
vn -0.8389539 0 -0.5442024
vn -0.8389539 0 -0.5442024
vn -0.8383936 0 -0.5450653
vn -0.8383936 0 -0.5450653
vn -0.8383936 0 -0.5450653
vn -0.8383936 0 -0.5450653
vn -0.8383936 0 -0.5450653
vn -0.8383936 0 -0.5450653
vn -0.8383936 2.079868E-11 -0.5450653
vn -0.8383936 2.079868E-11 -0.5450653
vn -0.8383936 2.079868E-11 -0.5450653
vn -0.8383461 0 -0.5451384
vn -0.8383461 0 -0.5451384
vn -0.8383461 0 -0.5451384
vn -0.8383461 0 -0.5451384
vn -0.8383461 0 -0.5451384
vn -0.8383461 0 -0.5451384
vn -0.8383461 -1.999357E-12 -0.5451384
vn -0.8383461 -1.999357E-12 -0.5451384
vn -0.8383461 -1.999357E-12 -0.5451384
vn -0.8383461 0 -0.5451384
vn -0.8383461 0 -0.5451384
vn -0.8383461 0 -0.5451384
vn -0.8383461 0 -0.5451384
vn -0.5445356 0 0.8387377
vn -0.5445356 0 0.8387377
vn -0.5445356 0 0.8387377
vn -0.5445356 0 0.8387377
vn 0.838803 0 0.544435
vn 0.838803 0 0.544435
vn 0.838803 0 0.544435
vn 0.838803 0 0.544435
vn 0.838803 0 0.544435
vn 0.838803 0 0.544435
vn 0.838803 -2.077463E-11 0.544435
vn 0.838803 -2.077463E-11 0.544435
vn 0.838803 -2.077463E-11 0.544435
vn -0.5435658 0 0.8393666
vn -0.5435658 0 0.8393666
vn -0.5435658 0 0.8393666
vn -0.5435658 0 0.8393666
vn 0.8387105 0 0.5445775
vn 0.8387105 0 0.5445775
vn 0.8387105 0 0.5445775
vn 0.8387105 0 0.5445775
vn 0.8387105 0 0.5445775
vn 0.8387105 0 0.5445775
vn 0.8387105 -2.000232E-12 0.5445775
vn 0.8387105 -2.000232E-12 0.5445775
vn 0.8387105 -2.000232E-12 0.5445775
vn 0.5443823 0 -0.8388372
vn 0.5443823 0 -0.8388372
vn 0.5443823 0 -0.8388372
vn 0.5443823 0 -0.8388372
vn 0.5443823 0 -0.8388372
vn 0.5443823 0 -0.8388372
vn 0.5443823 -1.298291E-12 -0.8388372
vn 0.5443823 -1.298291E-12 -0.8388372
vn 0.5443823 -1.298291E-12 -0.8388372
vn 0.8388379 0 0.5443813
vn 0.8388379 0 0.5443813
vn 0.8388379 0 0.5443813
vn 0.8388379 0 0.5443813
vn 0.5443411 0 -0.8388639
vn 0.5443411 0 -0.8388639
vn 0.5443411 0 -0.8388639
vn 0.5443411 0 -0.8388639
vn 0.8388019 0 0.5444368
vn 0.8388019 0 0.5444368
vn 0.8388019 0 0.5444368
vn 0.8388019 0 0.5444368
vn 0.3459854 0 0.9382399
vn 0.3459854 0 0.9382399
vn 0.3459854 0 0.9382399
vn 0.3459854 0 0.9382399
vn -0.5691934 0 0.8222037
vn -0.5691934 0 0.8222037
vn -0.5691934 0 0.8222037
vn -0.5691934 0 0.8222037
vn -0.5691934 0 0.8222037
vn -0.5691934 0 0.8222037
vn -0.5691934 1.357457E-12 0.8222037
vn -0.5691934 1.357457E-12 0.8222037
vn -0.5691934 1.357457E-12 0.8222037
vn 0.8387858 0 0.5444615
vn 0.8387858 0 0.5444615
vn 0.8387858 0 0.5444615
vn 0.8387858 0 0.5444615
vn 0.5443049 0 -0.8388875
vn 0.5443049 0 -0.8388875
vn 0.5443049 0 -0.8388875
vn 0.5443049 0 -0.8388875
vn 0.8381251 0 0.5454781
vn 0.8381251 0 0.5454781
vn 0.8381251 0 0.5454781
vn 0.8381251 0 0.5454781
vn 0.9944956 0 -0.1047788
vn 0.9944956 0 -0.1047788
vn 0.9944956 0 -0.1047788
vn 0.9944956 0 -0.1047788
vn 0.5702686 0 -0.8214583
vn 0.5702686 0 -0.8214583
vn 0.5702686 0 -0.8214583
vn 0.5702686 0 -0.8214583
vn -0.2728018 0 -0.9620703
vn -0.2728018 0 -0.9620703
vn -0.2728018 0 -0.9620703
vn -0.2728018 0 -0.9620703
vn -0.8394175 0 -0.5434873
vn -0.8394175 0 -0.5434873
vn -0.8394175 0 -0.5434873
vn -0.8394175 0 -0.5434873
vn -0.8394175 0 -0.5434873
vn -0.8394175 0 -0.5434873
vn -0.8394175 0 -0.5434873
vn -0.8394175 0 -0.5434873
vn -0.8394175 0 -0.5434873
vn 0.5444084 0 -0.8388203
vn 0.5444084 0 -0.8388203
vn 0.5444084 0 -0.8388203
vn 0.5444084 0 -0.8388203
vn -0.8387685 0 -0.5444881
vn -0.8387685 0 -0.5444881
vn -0.8387685 0 -0.5444881
vn -0.8387685 0 -0.5444881
vn -0.8320503 0 -0.5547002
vn -0.8320503 0 -0.5547002
vn -0.8320503 0 -0.5547002
vn -0.8320503 0 -0.5547002
vn -0.8388948 0 -0.5442936
vn -0.8388948 0 -0.5442936
vn -0.8388948 0 -0.5442936
vn -0.8388948 0 -0.5442936
vn -0.8388948 0 -0.5442936
vn -0.8388948 0 -0.5442936
vn -0.8388948 2.276989E-11 -0.5442936
vn -0.8388948 2.276989E-11 -0.5442936
vn -0.8388948 2.276989E-11 -0.5442936
vn -0.5432513 0 0.8395702
vn -0.5432513 0 0.8395702
vn -0.5432513 0 0.8395702
vn -0.5432513 0 0.8395702
vn -0.545141 0 0.8383443
vn -0.545141 0 0.8383443
vn -0.545141 0 0.8383443
vn -0.545141 0 0.8383443
vn 0.8383461 0 0.5451384
vn 0.8383461 0 0.5451384
vn 0.8383461 0 0.5451384
vn 0.8383461 0 0.5451384
vn 0.8383461 0 0.5451384
vn 0.8383461 0 0.5451384
vn 0.8383461 9.600244E-10 0.5451384
vn 0.8383461 9.600244E-10 0.5451384
vn 0.8383461 9.600244E-10 0.5451384
vn 0.545141 0 -0.8383443
vn 0.545141 0 -0.8383443
vn 0.545141 0 -0.8383443
vn 0.545141 0 -0.8383443
vn 0 -1 0
vn 0 -1 0
vn 0 -1 0
vn 0 -1 0
vn 0 -1 0
vn 0 -1 0
vn 0 -1 0
vn 0 -1 0
vn 0 -1 0
vn 0 -1 0
vn 0 -1 0
vn 0 -1 0
vn 0 -1 0
vn 0 -1 0
vn 0 -1 0
vn 0 -1 0
vn 0 -1 0
vn 0 -1 0
vn 0 -1 0
vn 0 -1 0
vn 0 -1 0
vn 0 -1 0
vn 0 -1 0
vn 0 -1 0
vn 0 -1 0
vn 0 -1 0
vn 0 -1 0
vn 0 -1 0
vn 0 -1 0
vn 0 -1 0
vn 0 -1 0
vn 0 -1 0
vn 0 -1 0

g CDNNDG02_0003360
f 1/1/1 2/2/2 3/3/3
f 4/4/4 5/5/5 6/6/6
f 7/7/7 8/8/8 9/9/9
f 10/10/10 12/12/12 13/13/13
f 10/10/10 11/11/11 12/12/12
f 14/14/14 15/15/15 16/16/16
f 17/17/17 18/18/18 19/19/19
f 20/20/20 21/21/21 22/22/22
f 23/23/23 24/24/24 25/25/25
f 26/26/26 27/27/27 28/28/28
f 29/29/29 30/30/30 31/31/31
f 32/32/32 33/33/33 34/34/34
f 38/38/38 35/35/35 36/36/36
f 36/36/36 37/37/37 38/38/38
f 39/39/39 40/40/40 41/41/41
f 42/42/42 39/39/39 41/41/41
f 43/43/43 44/44/44 45/45/45
f 46/46/46 47/47/47 48/48/48
f 49/49/49 50/50/50 51/51/51
f 52/52/52 53/53/53 54/54/54
f 55/55/55 56/56/56 57/57/57
f 58/58/58 59/59/59 60/60/60
f 61/61/61 62/62/62 63/63/63
f 64/64/64 65/65/65 66/66/66
f 67/67/67 68/68/68 69/69/69
f 70/70/70 71/71/71 72/72/72
f 73/73/73 74/74/74 75/75/75
f 76/76/76 77/77/77 78/78/78
f 79/79/79 80/80/80 81/81/81
f 82/82/82 79/79/79 81/81/81
f 83/83/83 84/84/84 85/85/85
f 86/86/86 87/87/87 88/88/88
f 89/89/89 90/90/90 91/91/91
f 92/92/92 93/93/93 94/94/94
f 95/95/95 96/96/96 97/97/97
f 98/98/98 99/99/99 100/100/100
f 102/102/102 103/103/103 104/104/104
f 101/101/101 102/102/102 104/104/104
f 108/108/108 105/105/105 107/107/107
f 107/107/107 105/105/105 106/106/106
f 109/109/109 110/110/110 111/111/111
f 112/112/112 113/113/113 114/114/114
f 115/115/115 116/116/116 117/117/117
f 118/118/118 120/120/120 121/121/121
f 120/120/120 118/118/118 119/119/119
f 122/122/122 123/123/123 124/124/124
f 125/125/125 126/126/126 127/127/127
f 128/128/128 129/129/129 130/130/130
f 131/131/131 132/132/132 133/133/133
f 134/134/134 135/135/135 136/136/136
f 137/137/137 138/138/138 139/139/139
f 140/140/140 142/142/142 143/143/143
f 140/140/140 141/141/141 142/142/142
f 145/145/145 146/146/146 147/147/147
f 144/144/144 145/145/145 147/147/147
f 149/149/149 150/150/150 148/148/148
f 148/148/148 150/150/150 151/151/151
f 152/152/152 153/153/153 154/154/154
f 155/155/155 152/152/152 154/154/154
f 156/156/156 157/157/157 158/158/158
f 159/159/159 160/160/160 161/161/161
f 162/162/162 163/163/163 164/164/164
f 168/168/168 165/165/165 167/167/167
f 166/166/166 167/167/167 165/165/165
f 171/171/171 169/169/169 170/170/170
f 169/169/169 171/171/171 172/172/172
f 173/173/173 175/175/175 176/176/176
f 173/173/173 174/174/174 175/175/175
f 180/180/180 177/177/177 178/178/178
f 179/179/179 180/180/180 178/178/178
f 181/181/181 183/183/183 184/184/184
f 181/181/181 182/182/182 183/183/183
f 185/185/185 187/187/187 188/188/188
f 185/185/185 186/186/186 187/187/187
f 189/189/189 190/190/190 191/191/191
f 192/192/192 193/193/193 194/194/194
f 195/195/195 196/196/196 197/197/197
f 200/200/200 198/198/198 199/199/199
f 198/198/198 200/200/200 201/201/201
f 202/202/202 204/204/204 205/205/205
f 202/202/202 203/203/203 204/204/204
f 206/206/206 207/207/207 208/208/208
f 209/209/209 206/206/206 208/208/208
f 210/210/210 211/211/211 212/212/212
f 213/213/213 214/214/214 215/215/215
f 216/216/216 217/217/217 218/218/218
f 222/222/222 219/219/219 220/220/220
f 221/221/221 222/222/222 220/220/220
f 226/226/226 223/223/223 225/225/225
f 225/225/225 223/223/223 224/224/224
f 227/227/227 228/228/228 229/229/229
f 230/230/230 231/231/231 232/232/232
f 233/233/233 234/234/234 235/235/235
f 236/236/236 238/238/238 239/239/239
f 236/236/236 237/237/237 238/238/238
f 270/270/270 271/271/271 272/272/272
f 269/269/269 270/270/270 272/272/272
f 264/264/264 240/240/240 241/241/241
f 264/264/264 241/241/241 242/242/242
f 240/240/240 269/269/269 272/272/272
f 244/244/244 245/245/245 246/246/246
f 267/267/267 268/268/268 269/269/269
f 264/264/264 243/243/243 244/244/244
f 264/264/264 244/244/244 246/246/246
f 248/248/248 249/249/249 260/260/260
f 249/249/249 250/250/250 260/260/260
f 250/250/250 251/251/251 253/253/253
f 251/251/251 252/252/252 253/253/253
f 264/264/264 267/267/267 269/269/269
f 250/250/250 253/253/253 256/256/256
f 253/253/253 254/254/254 256/256/256
f 254/254/254 255/255/255 256/256/256
f 260/260/260 250/250/250 256/256/256
f 265/265/265 266/266/266 267/267/267
f 256/256/256 257/257/257 258/258/258
f 256/256/256 258/258/258 259/259/259
f 247/247/247 262/262/262 246/246/246
f 256/256/256 259/259/259 260/260/260
f 247/247/247 248/248/248 262/262/262
f 242/242/242 243/243/243 264/264/264
f 248/248/248 260/260/260 261/261/261
f 264/264/264 262/262/262 263/263/263
f 248/248/248 261/261/261 262/262/262
f 246/246/246 262/262/262 264/264/264
f 240/240/240 264/264/264 269/269/269
f 264/264/264 265/265/265 267/267/267
