v -2.074452 5.193882 7.159721
v -1.676452 5.088881 7.413721
v 0.1325478 5.088881 4.575721
v -2.074452 5.193882 7.159721
v 0.1325478 5.088881 4.575721
v -0.9434522 5.370882 3.889721
v -2.752452 5.371881 6.728721
v -2.074452 5.193882 7.159721
v -0.9434522 5.370882 3.889721
v 4.165974 6.473786 -1.60399
v 4.753548 6.692882 -1.776279
v 4.170253 6.473786 -1.610703
v 4.170253 6.473786 -1.610703
v 4.753548 6.692882 -1.776279
v 4.659935 6.473786 -2.378791
v 1.878548 6.473826 -8.599279
v 4.328548 6.473826 -8.100279
v 3.129548 6.473826 -8.927279
v 1.878548 6.473826 -8.599279
v 4.631548 6.473826 -6.993279
v 4.328548 6.473826 -8.100279
v -0.4084522 6.473826 -5.673279
v 1.878548 6.473826 -8.599279
v 1.578548 6.473826 -8.790279
v -0.4084522 6.473826 -5.673279
v 4.631548 6.473826 -6.993279
v 1.878548 6.473826 -8.599279
v 4.631548 6.473826 -6.993279
v 5.924548 6.473776 -1.574279
v 8.007547 6.473776 -4.841279
v -0.4084522 6.473826 -5.673279
v 5.924548 6.473776 -1.574279
v 4.631548 6.473826 -6.993279
v -8.228452 6.473826 6.594721
v -0.9434522 6.473826 3.889721
v -0.9044522 6.473826 -4.895279
v -8.228452 6.473826 6.594721
v -3.596452 6.473826 9.546721
v -2.752452 6.473826 6.728721
v -3.596452 6.473826 9.546721
v -2.074452 6.473826 7.159721
v -2.752452 6.473826 6.728721
v -8.228452 6.473826 6.594721
v -2.752452 6.473826 6.728721
v -0.9434522 6.473826 3.889721
v -0.9434522 6.473826 3.889721
v -0.0294522 6.473826 2.457721
v -0.9044522 6.473826 -4.895279
v -0.0294522 6.473826 2.457721
v 2.376548 6.473776 3.991721
v 5.428548 6.473776 -0.7962791
v -0.9044522 6.473826 -4.895279
v 4.170253 6.473786 -1.610703
v 4.659935 6.473786 -2.378791
v -0.4084522 6.473826 -5.673279
v 4.659935 6.473786 -2.378791
v 5.290776 6.473781 -1.977465
v -0.9044522 6.473826 -4.895279
v 4.659935 6.473786 -2.378791
v -0.4084522 6.473826 -5.673279
v -0.4084522 6.473826 -5.673279
v 5.290776 6.473781 -1.977465
v 5.607662 6.473779 -1.775872
v -0.4084522 6.473826 -5.673279
v 5.766105 6.473777 -1.675076
v 5.924548 6.473776 -1.574279
v -0.4084522 6.473826 -5.673279
v 5.607662 6.473779 -1.775872
v 5.766105 6.473777 -1.675076
v 4.659935 6.473786 -2.378791
v 4.662216 6.473786 -2.377336
v 5.290776 6.473781 -1.977465
v -0.9044522 6.473826 -4.895279
v 4.165974 6.473786 -1.60399
v 4.170253 6.473786 -1.610703
v -0.9044522 6.473826 -4.895279
v -0.0294522 6.473826 2.457721
v 4.165974 6.473786 -1.60399
v -0.0294522 6.473826 2.457721
v 4.168256 6.473786 -1.602535
v 4.165974 6.473786 -1.60399
v -0.0294522 6.473826 2.457721
v 5.112174 6.473779 -0.9986752
v 4.7958 6.473781 -1.201071
v -0.0294522 6.473826 2.457721
v 4.7958 6.473781 -1.201071
v 4.168256 6.473786 -1.602535
v -0.0294522 6.473826 2.457721
v 5.270361 6.473777 -0.8974771
v 5.112174 6.473779 -0.9986752
v -0.0294522 6.473826 2.457721
v 5.428548 6.473776 -0.7962791
v 5.270361 6.473777 -0.8974771
v 5.308548 6.692882 -1.422279
v 5.428548 6.473776 -0.7962791
v 5.924548 6.473776 -1.574279
v 4.165974 6.473786 -1.60399
v 4.168256 6.473786 -1.602535
v 5.308548 6.692882 -1.422279
v 4.165974 6.473786 -1.60399
v 5.308548 6.692882 -1.422279
v 4.753548 6.692882 -1.776279
v 4.7958 6.473781 -1.201071
v 5.112174 6.473779 -0.9986752
v 5.308548 6.692882 -1.422279
v 4.168256 6.473786 -1.602535
v 4.7958 6.473781 -1.201071
v 5.308548 6.692882 -1.422279
v 5.270361 6.473777 -0.8974771
v 5.428548 6.473776 -0.7962791
v 5.308548 6.692882 -1.422279
v 5.112174 6.473779 -0.9986752
v 5.270361 6.473777 -0.8974771
v 5.308548 6.692882 -1.422279
v 4.662216 6.473786 -2.377336
v 5.308548 6.692882 -1.422279
v 5.290776 6.473781 -1.977465
v 5.290776 6.473781 -1.977465
v 5.308548 6.692882 -1.422279
v 5.607662 6.473779 -1.775872
v 5.308548 6.692882 -1.422279
v 5.766105 6.473777 -1.675076
v 5.607662 6.473779 -1.775872
v 5.308548 6.692882 -1.422279
v 5.924548 6.473776 -1.574279
v 5.766105 6.473777 -1.675076
v 4.659935 6.473786 -2.378791
v 4.753548 6.692882 -1.776279
v 5.308548 6.692882 -1.422279
v 4.659935 6.473786 -2.378791
v 5.308548 6.692882 -1.422279
v 4.662216 6.473786 -2.377336
v -2.074452 -6.435905 7.159721
v -1.676452 -6.435905 7.413721
v -1.676452 5.088881 7.413721
v -2.074452 5.193882 7.159721
v -0.7719522 -6.435905 5.994721
v 0.1325478 -6.435905 4.575721
v 0.1325478 5.088881 4.575721
v -1.676452 5.088881 7.413721
v -1.676452 -6.435905 7.413721
v -0.7719522 -6.435905 5.994721
v -1.676452 5.088881 7.413721
v -0.7719522 -6.435905 5.994721
v 0.1325478 5.088881 4.575721
v -0.9434522 5.370882 3.889721
v -0.4054522 -6.435905 4.232721
v -0.9434522 -6.435905 3.889721
v -0.4054522 -6.435905 4.232721
v 0.1325478 5.088881 4.575721
v 0.1325478 -6.435905 4.575721
v -0.9434522 5.370882 3.889721
v 0.1325478 5.088881 4.575721
v -0.4054522 -6.435905 4.232721
v -8.228452 -6.435905 6.594721
v -3.596452 -6.435905 9.546721
v -3.596452 6.473826 9.546721
v -8.228452 6.473826 6.594721
v -3.596452 6.473826 9.546721
v -2.074452 5.193882 7.159721
v -2.074452 6.473826 7.159721
v -3.596452 -6.435905 9.546721
v -2.074452 -6.435905 7.159721
v -2.074452 5.193882 7.159721
v -3.596452 6.473826 9.546721
v -0.9434522 -6.435905 3.889721
v -0.0294522 -6.435905 2.457721
v -0.0294522 6.473826 2.457721
v -0.9434522 5.370882 3.889721
v -0.9434522 6.473826 3.889721
v -0.9434522 5.370882 3.889721
v -0.0294522 6.473826 2.457721
v -2.752452 5.371881 6.728721
v -0.9434522 5.370882 3.889721
v -0.9434522 6.473826 3.889721
v -2.752452 6.473826 6.728721
v 1.173548 -6.435905 3.224721
v 2.376548 -6.435905 3.991721
v 2.376548 6.473776 3.991721
v -0.0294522 6.473826 2.457721
v -0.0294522 -6.435905 2.457721
v 1.173548 -6.435905 3.224721
v -0.0294522 6.473826 2.457721
v 1.173548 -6.435905 3.224721
v 2.376548 6.473776 3.991721
v 3.902548 -6.435905 1.597721
v 5.428548 -6.435905 -0.7962791
v 5.428548 6.473776 -0.7962791
v 2.376548 6.473776 3.991721
v 2.376548 -6.435905 3.991721
v 3.902548 -6.435905 1.597721
v 2.376548 6.473776 3.991721
v 3.902548 -6.435905 1.597721
v 5.428548 6.473776 -0.7962791
v 5.428548 -6.435905 -0.7962791
v 5.924548 -6.435905 -1.574279
v 5.924548 6.473776 -1.574279
v 5.428548 6.473776 -0.7962791
v 5.924548 -6.435905 -1.574279
v 8.007547 -6.435905 -4.841279
v 8.007547 6.473776 -4.841279
v 5.924548 6.473776 -1.574279
v 4.631548 6.473826 -6.993279
v 8.007547 6.473776 -4.841279
v 8.007547 -6.435905 -4.841279
v 4.631548 -6.435905 -6.993279
v 4.328548 6.473826 -8.100279
v 4.631548 6.473826 -6.993279
v 4.631548 -6.435905 -6.993279
v 4.328548 -6.435905 -8.100279
v 3.129548 6.473826 -8.927279
v 4.328548 6.473826 -8.100279
v 4.328548 -6.435905 -8.100279
v 3.129548 -6.435905 -8.927279
v 1.878548 6.473826 -8.599279
v 3.129548 6.473826 -8.927279
v 3.129548 -6.435905 -8.927279
v 1.878548 -6.435905 -8.599279
v 1.578548 6.473826 -8.790279
v 1.878548 6.473826 -8.599279
v 1.878548 -6.435905 -8.599279
v 1.578548 -6.435905 -8.790279
v -0.4084522 6.473826 -5.673279
v 1.578548 6.473826 -8.790279
v 1.578548 -6.435905 -8.790279
v -0.4084522 -6.435905 -5.673279
v -0.9044522 6.473826 -4.895279
v -0.4084522 6.473826 -5.673279
v -0.4084522 -6.435905 -5.673279
v -0.9044522 -6.435905 -4.895279
v -8.228452 6.473826 6.594721
v -0.9044522 6.473826 -4.895279
v -0.9044522 -6.435905 -4.895279
v -8.228452 -6.435905 6.594721
v -2.752452 6.473826 6.728721
v -2.074452 6.473826 7.159721
v -2.074452 5.193882 7.159721
v -2.752452 5.371881 6.728721
v -2.074452 -6.435905 7.159721
v -3.596452 -6.435905 9.546721
v -8.228452 -6.435905 6.594721
v -0.9044522 -6.435905 -4.895279
v -0.4084522 -6.435905 -5.673279
v 1.578548 -6.435905 -8.790279
v 1.878548 -6.435905 -8.599279
v 3.129548 -6.435905 -8.927279
v 4.328548 -6.435905 -8.100279
v 4.631548 -6.435905 -6.993279
v 8.007547 -6.435905 -4.841279
v 5.924548 -6.435905 -1.574279
v 5.428548 -6.435905 -0.7962791
v 3.902548 -6.435905 1.597721
v 2.376548 -6.435905 3.991721
v 1.173548 -6.435905 3.224721
v -0.0294522 -6.435905 2.457721
v -0.9434522 -6.435905 3.889721
v -0.4054522 -6.435905 4.232721
v 0.1325478 -6.435905 4.575721
v -0.7719522 -6.435905 5.994721
v -1.676452 -6.435905 7.413721
vt 0.464823 0.863702
vt 0.474256 0.873141
vt 0.380709 0.914398
vt 0.464823 0.863702
vt 0.380709 0.914398
vt 0.355212 0.888893
vt 0.448813 0.847619
vt 0.464823 0.863702
vt 0.355212 0.888893
vt 0.928571 0.954117
vt 0.931560 0.940136
vt 0.928784 0.954022
vt 0.928784 0.954022
vt 0.931560 0.940136
vt 0.953054 0.943116
vt 0.614003 0.146691
vt 0.596194 0.088375
vt 0.624635 0.116785
vt 0.614003 0.146691
vt 0.558613 0.081395
vt 0.596194 0.088375
vt 0.515830 0.201879
vt 0.614003 0.146691
vt 0.620580 0.153802
vt 0.515830 0.201879
vt 0.558613 0.081395
vt 0.614003 0.146691
vt 0.558613 0.081395
vt 0.374716 0.051764
vt 0.484508 0.001361
vt 0.515830 0.201879
vt 0.374716 0.051764
vt 0.558613 0.081395
vt 0.103586 0.391070
vt 0.192378 0.216760
vt 0.489685 0.213879
vt 0.103586 0.391070
vt 0.001931 0.281278
vt 0.096980 0.260527
vt 0.001931 0.281278
vt 0.082137 0.244455
vt 0.096980 0.260527
vt 0.103586 0.391070
vt 0.096980 0.260527
vt 0.192378 0.216760
vt 0.192378 0.216760
vt 0.240497 0.194646
vt 0.489685 0.213879
vt 0.240497 0.194646
vt 0.187672 0.137612
vt 0.348571 0.063765
vt 0.489685 0.213879
vt 0.376609 0.093592
vt 0.402421 0.081744
vt 0.515830 0.201879
vt 0.402421 0.081744
vt 0.388600 0.066788
vt 0.489685 0.213879
vt 0.402421 0.081744
vt 0.515830 0.201879
vt 0.515830 0.201879
vt 0.388600 0.066788
vt 0.381658 0.059276
vt 0.515830 0.201879
vt 0.378187 0.055520
vt 0.374716 0.051764
vt 0.515830 0.201879
vt 0.381658 0.059276
vt 0.378187 0.055520
vt 0.402421 0.081744
vt 0.402371 0.081689
vt 0.388600 0.066788
vt 0.489685 0.213879
vt 0.376384 0.093696
vt 0.376609 0.093592
vt 0.489685 0.213879
vt 0.240497 0.194646
vt 0.376384 0.093696
vt 0.240497 0.194646
vt 0.376333 0.093641
vt 0.376384 0.093696
vt 0.240497 0.194646
vt 0.355540 0.071265
vt 0.362509 0.078765
vt 0.240497 0.194646
vt 0.362509 0.078765
vt 0.376333 0.093641
vt 0.240497 0.194646
vt 0.352055 0.067515
vt 0.355540 0.071265
vt 0.240497 0.194646
vt 0.348571 0.063765
vt 0.352055 0.067515
vt 0.959973 0.940136
vt 0.981766 0.943177
vt 0.957529 0.953683
vt 0.867016 0.940136
vt 0.867062 0.940188
vt 0.870266 0.966844
vt 0.867016 0.940136
vt 0.870266 0.966844
vt 0.859073 0.954324
vt 0.879752 0.954340
vt 0.886149 0.961475
vt 0.870266 0.966844
vt 0.867062 0.940188
vt 0.879752 0.954340
vt 0.870266 0.966844
vt 0.889348 0.965042
vt 0.892547 0.968610
vt 0.870266 0.966844
vt 0.886149 0.961475
vt 0.889348 0.965042
vt 0.870266 0.966844
vt 0.853846 0.968860
vt 0.820463 0.954673
vt 0.840760 0.954558
vt 0.840760 0.954558
vt 0.820463 0.954673
vt 0.834163 0.947347
vt 0.820463 0.954673
vt 0.830864 0.943741
vt 0.834163 0.947347
vt 0.820463 0.954673
vt 0.827565 0.940136
vt 0.830864 0.943741
vt 0.853894 0.968912
vt 0.832051 0.967305
vt 0.820463 0.954673
vt 0.853894 0.968912
vt 0.820463 0.954673
vt 0.853846 0.968860
vt 0.130427 0.940136
vt 0.138652 0.949186
vt 0.011450 0.998997
vt 0.001931 0.990277
vt 0.654171 0.890750
vt 0.607715 0.911063
vt 0.478764 0.888824
vt 0.573000 0.847619
vt 0.700627 0.870438
vt 0.654171 0.890750
vt 0.573000 0.847619
vt 0.654171 0.890750
vt 0.478764 0.888824
vt 0.338585 0.988527
vt 0.463982 0.952388
vt 0.475500 0.964641
vt 0.463982 0.952388
vt 0.318533 0.963088
vt 0.452465 0.940136
vt 0.338585 0.988527
vt 0.318533 0.963088
vt 0.463982 0.952388
vt 0.815837 0.394558
vt 0.912001 0.501388
vt 0.769524 0.557374
vt 0.671815 0.448831
vt 0.784032 0.847619
vt 0.719050 0.884903
vt 0.704633 0.882316
vt 0.926122 0.873893
vt 0.847974 0.908042
vt 0.719050 0.884903
vt 0.784032 0.847619
vt 0.350734 0.914629
vt 0.303914 0.935275
vt 0.158301 0.910111
vt 0.218428 0.891345
vt 0.205870 0.889135
vt 0.218428 0.891345
vt 0.158301 0.910111
vt 0.312597 0.849884
vt 0.218428 0.891345
vt 0.205870 0.889135
vt 0.300179 0.847619
vt 0.618749 0.718802
vt 0.643690 0.746448
vt 0.498561 0.804423
vt 0.447876 0.748246
vt 0.593807 0.691156
vt 0.618749 0.718802
vt 0.447876 0.748246
vt 0.618749 0.718802
vt 0.498561 0.804423
vt 0.363899 0.750282
vt 0.285191 0.784971
vt 0.137043 0.761647
vt 0.296980 0.691156
vt 0.442610 0.715592
vt 0.363899 0.750282
vt 0.296980 0.691156
vt 0.363899 0.750282
vt 0.137043 0.761647
vt 0.285191 0.784971
vt 0.259613 0.796246
vt 0.111055 0.773103
vt 0.137043 0.761647
vt 0.259613 0.796246
vt 0.152206 0.843595
vt 0.001931 0.821211
vt 0.111055 0.773103
vt 0.722337 0.793543
vt 0.648649 0.714273
vt 0.794428 0.691156
vt 0.866935 0.769158
vt 0.672436 0.970526
vt 0.635135 0.963813
vt 0.779466 0.940136
vt 0.816170 0.946741
vt 0.171069 0.992130
vt 0.142857 0.964334
vt 0.286506 0.940136
vt 0.314265 0.967487
vt 0.001931 0.877373
vt 0.012734 0.847619
vt 0.154360 0.907678
vt 0.143729 0.936953
vt 0.487209 0.971712
vt 0.480695 0.964861
vt 0.623834 0.940136
vt 0.630244 0.946877
vt 0.418166 0.442608
vt 0.523930 0.394558
vt 0.667003 0.454645
vt 0.562940 0.501920
vt 0.391768 0.454602
vt 0.418166 0.442608
vt 0.562940 0.501920
vt 0.536967 0.513721
vt 0.001931 0.631695
vt 0.391768 0.454602
vt 0.536967 0.513721
vt 0.153400 0.687958
vt 0.911580 0.957664
vt 0.897683 0.942689
vt 0.912097 0.940136
vt 0.923972 0.955445
vt 0.986486 0.940136
vt 0.986486 0.940136
vt 0.986486 0.940136
vt 0.986486 0.940136
vt 0.986486 0.940136
vt 0.986486 0.940136
vt 0.986486 0.940136
vt 0.986486 0.940136
vt 0.986486 0.940136
vt 0.986486 0.940136
vt 0.986486 0.940136
vt 0.986486 0.940136
vt 0.986486 0.940136
vt 0.986486 0.940136
vt 0.986486 0.940136
vt 0.986486 0.940136
vt 0.986486 0.940136
vt 0.986486 0.940136
vt 0.986486 0.940136
vt 0.986486 0.940136
vt 0.986486 0.940136
vt 0.986486 0.940136
vn 0.1830597 0.9761524 0.116686
vn 0.1830597 0.9761524 0.116686
vn 0.1830597 0.9761524 0.116686
vn 0.1820642 0.9764412 0.1158241
vn 0.1820642 0.9764412 0.1158241
vn 0.1820642 0.9764412 0.1158241
vn 0.1825825 0.9763239 0.115997
vn 0.1825825 0.9763239 0.115997
vn 0.1825825 0.9763239 0.115997
vn -0.40288 0.8784735 -0.25685
vn -0.40288 0.8784735 -0.25685
vn -0.40288 0.8784735 -0.25685
vn -0.4028799 0.8784739 -0.2568489
vn -0.4028799 0.8784739 -0.2568489
vn -0.4028799 0.8784739 -0.2568489
vn 0 1 0
vn 0 1 0
vn 0 1 0
vn 0 1 0
vn 0 1 0
vn 0 1 0
vn 0 1 0
vn 0 1 0
vn 0 1 0
vn 0 1 0
vn 0 1 0
vn 0 1 0
vn 1.046737E-05 1 6.673868E-06
vn 1.046737E-05 1 6.673868E-06
vn 1.046737E-05 1 6.673868E-06
vn 2.260763E-06 1 8.632004E-06
vn 2.260763E-06 1 8.632004E-06
vn 2.260763E-06 1 8.632004E-06
vn 0 1 0
vn 0 1 0
vn 0 1 0
vn 0 1 0
vn 0 1 0
vn 0 1 0
vn 0 1 0
vn 0 1 0
vn 0 1 0
vn 0 1 0
vn 0 1 0
vn 0 1 0
vn 0 1 0
vn 0 1 0
vn 0 1 0
vn 1.468757E-05 1 9.362255E-06
vn 1.468757E-05 1 9.362255E-06
vn 1.468757E-05 1 9.362255E-06
vn 5.556076E-06 1 3.542177E-06
vn 5.556076E-06 1 3.542177E-06
vn 5.556076E-06 1 3.542177E-06
vn 5.066407E-06 1 4.295507E-06
vn 5.066407E-06 1 4.295507E-06
vn 5.066407E-06 1 4.295507E-06
vn 5.556076E-06 1 3.542177E-06
vn 5.556076E-06 1 3.542177E-06
vn 5.556076E-06 1 3.542177E-06
vn 6.493636E-06 1 2.09461E-06
vn 6.493636E-06 1 2.09461E-06
vn 6.493636E-06 1 2.09461E-06
vn 2.895845E-06 1 7.650797E-06
vn 2.895845E-06 1 7.650797E-06
vn 2.895845E-06 1 7.650797E-06
vn 6.493641E-06 1 2.094602E-06
vn 6.493641E-06 1 2.094602E-06
vn 6.493641E-06 1 2.094602E-06
vn 0.001333705 0.999997 -0.002084183
vn 0.001333705 0.999997 -0.002084183
vn 0.001333705 0.999997 -0.002084183
vn 8.968869E-06 1 -1.730626E-06
vn 8.968869E-06 1 -1.730626E-06
vn 8.968869E-06 1 -1.730626E-06
vn 8.502242E-06 1 -1.011759E-06
vn 8.502242E-06 1 -1.011759E-06
vn 8.502242E-06 1 -1.011759E-06
vn 9.048966E-06 1 -4.470365E-07
vn 9.048966E-06 1 -4.470365E-07
vn 9.048966E-06 1 -4.470365E-07
vn 8.510881E-06 1 -1.001109E-06
vn 8.510881E-06 1 -1.001109E-06
vn 8.510881E-06 1 -1.001109E-06
vn 8.503064E-06 1 -1.011418E-06
vn 8.503064E-06 1 -1.011418E-06
vn 8.503064E-06 1 -1.011418E-06
vn 8.494686E-06 1 -1.025201E-06
vn 8.494686E-06 1 -1.025201E-06
vn 8.494686E-06 1 -1.025201E-06
vn 8.494686E-06 1 -1.025201E-06
vn 8.494686E-06 1 -1.025201E-06
vn 8.494686E-06 1 -1.025201E-06
vn 0.3774429 0.8942221 0.240632
vn 0.3774429 0.8942221 0.240632
vn 0.3774429 0.8942221 0.240632
vn -0.2307393 0.9032683 0.3617537
vn -0.2307393 0.9032683 0.3617537
vn -0.2307393 0.9032683 0.3617537
vn -0.2307391 0.9032691 0.361752
vn -0.2307391 0.9032691 0.361752
vn -0.2307391 0.9032691 0.361752
vn -0.2306454 0.9037764 0.3605425
vn -0.2306454 0.9037764 0.3605425
vn -0.2306454 0.9037764 0.3605425
vn -0.2306454 0.9037764 0.3605425
vn -0.2306454 0.9037764 0.3605425
vn -0.2306454 0.9037764 0.3605425
vn -0.2306454 0.9037764 0.3605425
vn -0.2306454 0.9037764 0.3605425
vn -0.2306454 0.9037764 0.3605425
vn -0.2306454 0.9037764 0.3605425
vn -0.2306454 0.9037764 0.3605425
vn -0.2306454 0.9037764 0.3605425
vn 0.231277 0.9024152 -0.363535
vn 0.231277 0.9024152 -0.363535
vn 0.231277 0.9024152 -0.363535
vn 0.231277 0.9024152 -0.363535
vn 0.231277 0.9024152 -0.363535
vn 0.231277 0.9024152 -0.363535
vn 0.231277 0.9024152 -0.363535
vn 0.231277 0.9024152 -0.363535
vn 0.231277 0.9024152 -0.363535
vn 0.2312769 0.9024152 -0.3635351
vn 0.2312769 0.9024152 -0.3635351
vn 0.2312769 0.9024152 -0.3635351
vn 0.2322146 0.9019606 -0.3640653
vn 0.2322146 0.9019606 -0.3640653
vn 0.2322146 0.9019606 -0.3640653
vn 0.2322078 0.9019639 -0.3640614
vn 0.2322078 0.9019639 -0.3640614
vn 0.2322078 0.9019639 -0.3640614
vn -0.5379714 0 0.8429631
vn -0.5379714 0 0.8429631
vn -0.5379714 0 0.8429631
vn -0.5379714 0 0.8429631
vn 0.8432575 0 0.5375098
vn 0.8432575 0 0.5375098
vn 0.8432575 0 0.5375098
vn 0.8432575 0 0.5375098
vn 0.8432575 0 0.5375098
vn 0.8432575 0 0.5375098
vn 0.8432575 2.171819E-11 0.5375098
vn 0.8432575 2.171819E-11 0.5375098
vn 0.8432575 2.171819E-11 0.5375098
vn 0.5375852 0 -0.8432094
vn 0.5375852 0 -0.8432094
vn 0.5375852 0 -0.8432094
vn 0.5375852 0 -0.8432094
vn 0.5375852 0 -0.8432094
vn 0.5375852 0 -0.8432094
vn 0.5375852 -3.365825E-11 -0.8432094
vn 0.5375852 -3.365825E-11 -0.8432094
vn 0.5375852 -3.365825E-11 -0.8432094
vn -0.5374408 0 0.8433015
vn -0.5374408 0 0.8433015
vn -0.5374408 0 0.8433015
vn -0.5374408 0 0.8433015
vn 0.8431811 0 0.5376295
vn 0.8431811 0 0.5376295
vn 0.8431811 0 0.5376295
vn 0.8431811 0 0.5376295
vn 0.8431811 0 0.5376295
vn 0.8431811 0 0.5376295
vn 0.8431811 0 0.5376295
vn 0.8429336 0 0.5380176
vn 0.8429336 0 0.5380176
vn 0.8429336 0 0.5380176
vn 0.8429336 0 0.5380176
vn 0.8429336 0 0.5380176
vn 0.8429336 0 0.5380176
vn 0.8429336 0 0.5380176
vn 0.8433433 0 0.5373752
vn 0.8433433 0 0.5373752
vn 0.8433433 0 0.5373752
vn 0.8433433 0 0.5373752
vn -0.5376009 0 0.8431994
vn -0.5376009 0 0.8431994
vn -0.5376009 0 0.8431994
vn -0.5376009 0 0.8431994
vn -0.5376009 0 0.8431994
vn -0.5376009 0 0.8431994
vn -0.5376009 1.211973E-12 0.8431994
vn -0.5376009 1.211973E-12 0.8431994
vn -0.5376009 1.211973E-12 0.8431994
vn 0.8432552 0 0.5375135
vn 0.8432552 0 0.5375135
vn 0.8432552 0 0.5375135
vn 0.8432552 0 0.5375135
vn 0.8432552 0 0.5375135
vn 0.8432552 0 0.5375135
vn 0.8432552 -1.748744E-11 0.5375135
vn 0.8432552 -1.748744E-11 0.5375135
vn 0.8432552 -1.748744E-11 0.5375135
vn 0.8432149 0 0.5375766
vn 0.8432149 0 0.5375766
vn 0.8432149 0 0.5375766
vn 0.8432149 0 0.5375766
vn 0.8431936 0 0.5376101
vn 0.8431936 0 0.5376101
vn 0.8431936 0 0.5376101
vn 0.8431936 0 0.5376101
vn 0.5375218 0 -0.8432499
vn 0.5375218 0 -0.8432499
vn 0.5375218 0 -0.8432499
vn 0.5375218 0 -0.8432499
vn 0.9645221 0 -0.264002
vn 0.9645221 0 -0.264002
vn 0.9645221 0 -0.264002
vn 0.9645221 0 -0.264002
vn 0.5677811 0 -0.8231796
vn 0.5677811 0 -0.8231796
vn 0.5677811 0 -0.8231796
vn 0.5677811 0 -0.8231796
vn -0.2536178 0 -0.9673045
vn -0.2536178 0 -0.9673045
vn -0.2536178 0 -0.9673045
vn -0.2536178 0 -0.9673045
vn 0.5370574 0 -0.8435457
vn 0.5370574 0 -0.8435457
vn 0.5370574 0 -0.8435457
vn 0.5370574 0 -0.8435457
vn -0.8432379 0 -0.5375405
vn -0.8432379 0 -0.5375405
vn -0.8432379 0 -0.5375405
vn -0.8432379 0 -0.5375405
vn -0.8432149 0 -0.5375766
vn -0.8432149 0 -0.5375766
vn -0.8432149 0 -0.5375766
vn -0.8432149 0 -0.5375766
vn -0.8432563 0 -0.5375117
vn -0.8432563 0 -0.5375117
vn -0.8432563 0 -0.5375117
vn -0.8432563 0 -0.5375117
vn 0.5364727 0 -0.8439177
vn 0.5364727 0 -0.8439177
vn 0.5364727 0 -0.8439177
vn 0.5364727 0 -0.8439177
vn 0 -1 0
vn 0 -1 0
vn 0 -1 0
vn 0 -1 0
vn 0 -1 0
vn 0 -1 0
vn 0 -1 0
vn 0 -1 0
vn 0 -1 0
vn 0 -1 0
vn 0 -1 0
vn 0 -1 0
vn 0 -1 0
vn 0 -1 0
vn 0 -1 0
vn 0 -1 0
vn 0 -1 0
vn 0 -1 0
vn 0 -1 0
vn 0 -1 0
vn 0 -1 0
vn 0 -1 0

g CDNNDG02_0001930
f 1/1/1 2/2/2 3/3/3
f 4/4/4 5/5/5 6/6/6
f 7/7/7 8/8/8 9/9/9
f 10/10/10 11/11/11 12/12/12
f 13/13/13 14/14/14 15/15/15
f 16/16/16 17/17/17 18/18/18
f 19/19/19 20/20/20 21/21/21
f 22/22/22 23/23/23 24/24/24
f 25/25/25 26/26/26 27/27/27
f 28/28/28 29/29/29 30/30/30
f 31/31/31 32/32/32 33/33/33
f 34/34/34 35/35/35 36/36/36
f 37/37/37 38/38/38 39/39/39
f 40/40/40 41/41/41 42/42/42
f 43/43/43 44/44/44 45/45/45
f 46/46/46 47/47/47 48/48/48
f 49/49/49 50/50/50 51/51/51
f 52/52/52 53/53/53 54/54/54
f 55/55/55 56/56/56 57/57/57
f 58/58/58 59/59/59 60/60/60
f 61/61/61 62/62/62 63/63/63
f 64/64/64 65/65/65 66/66/66
f 67/67/67 68/68/68 69/69/69
f 70/70/70 71/71/71 72/72/72
f 73/73/73 74/74/74 75/75/75
f 76/76/76 77/77/77 78/78/78
f 79/79/79 80/80/80 81/81/81
f 82/82/82 83/83/83 84/84/84
f 85/85/85 86/86/86 87/87/87
f 88/88/88 89/89/89 90/90/90
f 91/91/91 92/92/92 93/93/93
f 94/94/94 95/95/95 96/96/96
f 97/97/97 98/98/98 99/99/99
f 100/100/100 101/101/101 102/102/102
f 103/103/103 104/104/104 105/105/105
f 106/106/106 107/107/107 108/108/108
f 109/109/109 110/110/110 111/111/111
f 112/112/112 113/113/113 114/114/114
f 115/115/115 116/116/116 117/117/117
f 118/118/118 119/119/119 120/120/120
f 121/121/121 122/122/122 123/123/123
f 124/124/124 125/125/125 126/126/126
f 127/127/127 128/128/128 129/129/129
f 130/130/130 131/131/131 132/132/132
f 136/136/136 133/133/133 135/135/135
f 135/135/135 133/133/133 134/134/134
f 137/137/137 138/138/138 139/139/139
f 140/140/140 141/141/141 142/142/142
f 143/143/143 144/144/144 145/145/145
f 146/146/146 147/147/147 148/148/148
f 149/149/149 150/150/150 151/151/151
f 152/152/152 153/153/153 154/154/154
f 155/155/155 157/157/157 158/158/158
f 157/157/157 155/155/155 156/156/156
f 159/159/159 160/160/160 161/161/161
f 163/163/163 164/164/164 162/162/162
f 162/162/162 164/164/164 165/165/165
f 169/169/169 166/166/166 167/167/167
f 167/167/167 168/168/168 169/169/169
f 170/170/170 171/171/171 172/172/172
f 173/173/173 175/175/175 176/176/176
f 173/173/173 174/174/174 175/175/175
f 177/177/177 178/178/178 179/179/179
f 180/180/180 181/181/181 182/182/182
f 183/183/183 184/184/184 185/185/185
f 186/186/186 187/187/187 188/188/188
f 189/189/189 190/190/190 191/191/191
f 192/192/192 193/193/193 194/194/194
f 196/196/196 197/197/197 195/195/195
f 195/195/195 197/197/197 198/198/198
f 200/200/200 201/201/201 199/199/199
f 199/199/199 201/201/201 202/202/202
f 205/205/205 206/206/206 204/204/204
f 203/203/203 204/204/204 206/206/206
f 210/210/210 207/207/207 209/209/209
f 209/209/209 207/207/207 208/208/208
f 213/213/213 211/211/211 212/212/212
f 211/211/211 213/213/213 214/214/214
f 215/215/215 217/217/217 218/218/218
f 215/215/215 216/216/216 217/217/217
f 221/221/221 219/219/219 220/220/220
f 219/219/219 221/221/221 222/222/222
f 223/223/223 225/225/225 226/226/226
f 223/223/223 224/224/224 225/225/225
f 227/227/227 229/229/229 230/230/230
f 227/227/227 228/228/228 229/229/229
f 231/231/231 233/233/233 234/234/234
f 231/231/231 232/232/232 233/233/233
f 238/238/238 235/235/235 236/236/236
f 236/236/236 237/237/237 238/238/238
f 255/255/255 256/256/256 242/242/242
f 250/250/250 251/251/251 242/242/242
f 259/259/259 239/239/239 256/256/256
f 241/241/241 239/239/239 240/240/240
f 258/258/258 259/259/259 257/257/257
f 247/247/247 248/248/248 245/245/245
f 243/243/243 244/244/244 245/245/245
f 257/257/257 259/259/259 256/256/256
f 245/245/245 246/246/246 247/247/247
f 243/243/243 245/245/245 248/248/248
f 256/256/256 241/241/241 242/242/242
f 243/243/243 248/248/248 250/250/250
f 248/248/248 249/249/249 250/250/250
f 243/243/243 250/250/250 242/242/242
f 242/242/242 251/251/251 252/252/252
f 255/255/255 242/242/242 252/252/252
f 254/254/254 252/252/252 253/253/253
f 259/259/259 260/260/260 239/239/239
f 254/254/254 255/255/255 252/252/252
f 256/256/256 239/239/239 241/241/241
