v 3.994223 5.965417 -4.257629
v 5.989223 5.965417 -2.195629
v 5.965223 5.965417 -3.006629
v 5.965223 5.965417 -3.006629
v 5.989223 5.965417 -2.195629
v 6.347223 5.965417 -2.759629
v -3.278777 5.965417 4.237371
v -0.1597769 5.965417 -6.828629
v -6.023777 5.965417 2.409371
v 3.994223 5.965417 -4.257629
v -0.1597769 5.965417 -6.828629
v 3.994223 5.965417 -4.257629
v -0.1307769 5.965417 -6.875629
v -3.278777 5.965417 4.237371
v 1.490393 5.965417 1.673362
v 1.867843 5.965417 1.092445
v -3.278777 5.965417 4.237371
v 0.4092231 5.965417 6.595371
v 1.490393 5.965417 1.673362
v 1.867843 5.965417 1.092445
v 5.989223 5.965417 -2.195629
v 3.994223 5.965417 -4.257629
v -3.278777 5.965417 4.237371
v 1.867843 5.965417 1.092445
v 3.994223 5.965417 -4.257629
v 0.4092231 5.965417 6.595371
v 5.989223 5.965417 -2.195629
v 2.105592 5.965417 2.073749
v 0.4092231 5.965417 6.595371
v 2.105592 5.965417 2.073749
v 1.490393 5.965417 1.673362
v 1.867843 5.965417 1.092445
v 2.482708 5.965417 1.493755
v 5.989223 5.965417 -2.195629
v 2.105592 5.965417 2.073749
v 5.989223 5.965417 -2.195629
v 2.482708 5.965417 1.493755
v -6.062777 5.965417 2.471371
v -3.278777 5.965417 4.237371
v -6.023777 5.965417 2.409371
v 1.955223 6.363417 1.599371
v 2.105592 5.965417 2.073749
v 2.482708 5.965417 1.493755
v 1.867843 5.965417 1.092445
v 1.955223 6.363417 1.599371
v 2.482708 5.965417 1.493755
v 1.490393 5.965417 1.673362
v 2.105592 5.965417 2.073749
v 1.955223 6.363417 1.599371
v 1.490393 5.965417 1.673362
v 1.955223 6.363417 1.599371
v 1.867843 5.965417 1.092445
v -7.567777 1.992417 4.842371
v -4.787777 1.992417 6.615371
v -3.278777 2.521417 4.237371
v -7.567777 1.992417 4.842371
v -3.278777 2.521417 4.237371
v -6.062777 2.521417 2.471371
v 3.994223 5.415417 -4.257629
v 5.965223 5.416417 -3.006629
v 4.804223 5.091417 -5.534629
v 4.804223 5.091417 -5.534629
v 5.965223 5.416417 -3.006629
v 7.159223 5.091417 -4.039629
v 5.965223 5.416417 -3.006629
v 6.347223 5.416417 -2.759629
v 7.159223 5.091417 -4.039629
v -6.062777 5.965417 2.471371
v -6.023777 5.965417 2.409371
v -6.062777 2.521417 2.471371
v -6.062777 -5.690681 2.471371
v -6.062777 2.521417 2.471371
v -6.023777 -5.690681 2.409371
v -6.023777 5.965417 2.409371
v -0.1597769 5.965417 -6.828629
v -0.1307769 5.965417 -6.875629
v -0.1307769 -5.690681 -6.875629
v -0.1597769 -5.690681 -6.828629
v -6.023777 5.965417 2.409371
v -3.091777 -5.690681 -2.209629
v -6.023777 -5.690681 2.409371
v -3.091777 -5.690681 -2.209629
v -0.1597769 5.965417 -6.828629
v -0.1597769 -5.690681 -6.828629
v -6.023777 5.965417 2.409371
v -0.1597769 5.965417 -6.828629
v -3.091777 -5.690681 -2.209629
v -7.567777 1.992417 4.842371
v -6.815277 -5.690681 3.656871
v -7.567777 -5.690681 4.842371
v -6.815277 -5.690681 3.656871
v -6.062777 2.521417 2.471371
v -6.062777 -5.690681 2.471371
v -7.567777 1.992417 4.842371
v -6.062777 2.521417 2.471371
v -6.815277 -5.690681 3.656871
v -6.062777 2.521417 2.471371
v -3.278777 5.965417 4.237371
v -6.062777 5.965417 2.471371
v -3.278777 2.521417 4.237371
v -1.434777 -5.690681 5.416371
v 0.4092231 -5.690681 6.595371
v 0.4092231 5.965417 6.595371
v -3.278777 5.965417 4.237371
v -1.434777 -5.690681 5.416371
v 0.4092231 5.965417 6.595371
v -3.278777 5.965417 4.237371
v -3.278777 2.521417 4.237371
v -1.434777 -5.690681 5.416371
v -3.278777 2.521417 4.237371
v -3.278777 -5.690681 4.237371
v -1.434777 -5.690681 5.416371
v 0.4092231 5.965417 6.595371
v 0.4092231 -5.690681 6.595371
v 5.989223 5.965417 -2.195629
v 5.989223 -5.690681 -2.195629
v 5.989223 5.965417 -2.195629
v 6.347223 5.416417 -2.759629
v 6.347223 5.965417 -2.759629
v 6.347223 -5.690681 -2.759629
v 6.347223 5.416417 -2.759629
v 5.989223 -5.690681 -2.195629
v 5.989223 5.965417 -2.195629
v 6.753223 -5.690681 -3.399629
v 7.159223 -5.690681 -4.039629
v 7.159223 5.091417 -4.039629
v 6.347223 5.416417 -2.759629
v 6.347223 -5.690681 -2.759629
v 6.753223 -5.690681 -3.399629
v 6.347223 5.416417 -2.759629
v 6.753223 -5.690681 -3.399629
v 7.159223 5.091417 -4.039629
v 5.965223 5.416417 -3.006629
v 5.965223 5.965417 -3.006629
v 6.347223 5.965417 -2.759629
v 6.347223 5.416417 -2.759629
v 3.994223 5.965417 -4.257629
v 5.965223 5.416417 -3.006629
v 3.994223 5.415417 -4.257629
v 5.965223 5.965417 -3.006629
v -0.1307769 5.965417 -6.875629
v 1.931723 -5.690681 -5.566629
v -0.1307769 -5.690681 -6.875629
v -0.1307769 5.965417 -6.875629
v 3.994223 5.965417 -4.257629
v 1.931723 -5.690681 -5.566629
v 1.931723 -5.690681 -5.566629
v 3.994223 5.965417 -4.257629
v 3.994223 5.415417 -4.257629
v 1.931723 -5.690681 -5.566629
v 3.994223 5.415417 -4.257629
v 3.994223 -5.690681 -4.257629
v -7.567777 -5.690681 4.842371
v -4.787777 1.992417 6.615371
v -7.567777 1.992417 4.842371
v -4.787777 -5.690681 6.615371
v -3.278777 -5.690681 4.237371
v -3.278777 2.521417 4.237371
v -4.787777 1.992417 6.615371
v -4.787777 -5.690681 6.615371
v 7.159223 -5.690681 -4.039629
v 4.804223 5.091417 -5.534629
v 7.159223 5.091417 -4.039629
v 4.804223 -5.690681 -5.534629
v 4.804223 5.091417 -5.534629
v 4.804223 -5.690681 -5.534629
v 3.994223 -5.690681 -4.257629
v 3.994223 5.415417 -4.257629
v 3.994223 -5.690681 -4.257629
v 6.753223 -5.690681 -3.399629
v 6.347223 -5.690681 -2.759629
v -6.062777 -5.690681 2.471371
v -6.023777 -5.690681 2.409371
v -3.278777 -5.690681 4.237371
v -6.815277 -5.690681 3.656871
v -7.567777 -5.690681 4.842371
v -4.787777 -5.690681 6.615371
v -3.091777 -5.690681 -2.209629
v -1.434777 -5.690681 5.416371
v 5.989223 -5.690681 -2.195629
v 0.4092231 -5.690681 6.595371
v -0.1597769 -5.690681 -6.828629
v 1.931723 -5.690681 -5.566629
v 4.804223 -5.690681 -5.534629
v 7.159223 -5.690681 -4.039629
v -0.1307769 -5.690681 -6.875629
vt 0.490621 0.067993
vt 0.401377 0.011054
vt 0.437468 0.012382
vt 0.437468 0.012382
vt 0.401377 0.011054
vt 0.426964 0.001600
vt 0.102800 0.262463
vt 0.599720 0.185138
vt 0.180647 0.339973
vt 0.490621 0.067993
vt 0.599720 0.185138
vt 0.490621 0.067993
vt 0.601851 0.184373
vt 0.102800 0.262463
vt 0.223198 0.132485
vt 0.249563 0.122507
vt 0.102800 0.262463
vt 0.002571 0.158402
vt 0.223198 0.132485
vt 0.249563 0.122507
vt 0.401377 0.011054
vt 0.490621 0.067993
vt 0.102800 0.262463
vt 0.249563 0.122507
vt 0.490621 0.067993
vt 0.002571 0.158402
vt 0.401377 0.011054
vt 0.206165 0.115120
vt 0.002571 0.158402
vt 0.206165 0.115120
vt 0.223198 0.132485
vt 0.249563 0.122507
vt 0.232489 0.105151
vt 0.401377 0.011054
vt 0.206165 0.115120
vt 0.401377 0.011054
vt 0.232489 0.105151
vt 0.177835 0.341002
vt 0.102800 0.262463
vt 0.180647 0.339973
vt 0.303445 0.961543
vt 0.285347 0.956215
vt 0.309379 0.947200
vt 0.255241 0.963053
vt 0.233933 0.961688
vt 0.239808 0.947200
vt 0.278125 0.962945
vt 0.262211 0.947200
vt 0.280009 0.949430
vt 0.316195 0.960580
vt 0.318153 0.947200
vt 0.340057 0.950970
vt 0.081614 0.943366
vt 0.002571 0.866509
vt 0.106451 0.822400
vt 0.081614 0.943366
vt 0.106451 0.822400
vt 0.185235 0.899422
vt 0.455873 0.910031
vt 0.403638 0.855198
vt 0.513562 0.887895
vt 0.513562 0.887895
vt 0.403638 0.855198
vt 0.451167 0.822400
vt 0.403638 0.855198
vt 0.393316 0.844566
vt 0.451167 0.822400
vt 0.097173 0.512367
vt 0.099961 0.511271
vt 0.107135 0.526432
vt 0.130547 0.559482
vt 0.107135 0.526432
vt 0.133295 0.558402
vt 0.099961 0.511271
vt 0.515397 0.346415
vt 0.517511 0.345600
vt 0.544797 0.395133
vt 0.542714 0.395937
vt 0.099961 0.511271
vt 0.338000 0.477171
vt 0.133295 0.558402
vt 0.338000 0.477171
vt 0.515397 0.346415
vt 0.542714 0.395937
vt 0.099961 0.511271
vt 0.515397 0.346415
vt 0.338000 0.477171
vt 0.002571 0.570678
vt 0.078010 0.580329
vt 0.025473 0.601177
vt 0.078010 0.580329
vt 0.107135 0.526432
vt 0.130547 0.559482
vt 0.002571 0.570678
vt 0.107135 0.526432
vt 0.078010 0.580329
vt 0.714073 0.799557
vt 0.625009 0.707782
vt 0.704193 0.785519
vt 0.635232 0.722156
vt 0.607157 0.705189
vt 0.555058 0.654444
vt 0.519280 0.604800
vt 0.625009 0.707782
vt 0.607157 0.705189
vt 0.519280 0.604800
vt 0.625009 0.707782
vt 0.635232 0.722156
vt 0.607157 0.705189
vt 0.635232 0.722156
vt 0.659254 0.755933
vt 0.607157 0.705189
vt 0.002571 0.819131
vt 0.037791 0.780009
vt 0.401078 0.672187
vt 0.430589 0.635170
vt 0.401078 0.672187
vt 0.428038 0.660998
vt 0.426646 0.662760
vt 0.455791 0.625877
vt 0.428038 0.660998
vt 0.430589 0.635170
vt 0.401078 0.672187
vt 0.484388 0.615339
vt 0.512986 0.604800
vt 0.486824 0.638597
vt 0.428038 0.660998
vt 0.455791 0.625877
vt 0.484388 0.615339
vt 0.428038 0.660998
vt 0.484388 0.615339
vt 0.486824 0.638597
vt 0.731584 0.615532
vt 0.730210 0.617298
vt 0.719794 0.606559
vt 0.721175 0.604800
vt 0.782915 0.672689
vt 0.731584 0.615532
vt 0.784255 0.670881
vt 0.730210 0.617298
vt 0.893206 0.788607
vt 0.865286 0.692035
vt 0.919641 0.749163
vt 0.893206 0.788607
vt 0.782915 0.672689
vt 0.865286 0.692035
vt 0.865286 0.692035
vt 0.782915 0.672689
vt 0.784255 0.670881
vt 0.865286 0.692035
vt 0.784255 0.670881
vt 0.810930 0.634904
vt 0.293438 0.929362
vt 0.192802 0.822400
vt 0.270989 0.899124
vt 0.215998 0.853371
vt 0.788187 0.822400
vt 0.764835 0.850416
vt 0.660668 0.887479
vt 0.683500 0.860918
vt 0.326313 0.822400
vt 0.362673 0.921536
vt 0.300771 0.855908
vt 0.387394 0.887158
vt 0.575969 0.822400
vt 0.601328 0.869253
vt 0.546184 0.891335
vt 0.519280 0.843364
vt 0.347044 0.947200
vt 0.347044 0.947200
vt 0.347044 0.947200
vt 0.347044 0.947200
vt 0.347044 0.947200
vt 0.347044 0.947200
vt 0.347044 0.947200
vt 0.347044 0.947200
vt 0.347044 0.947200
vt 0.347044 0.947200
vt 0.347044 0.947200
vt 0.347044 0.947200
vt 0.347044 0.947200
vt 0.347044 0.947200
vt 0.347044 0.947200
vt 0.347044 0.947200
vt 0.347044 0.947200
vt 0.347044 0.947200
vn 0 1 0
vn 0 1 0
vn 0 1 0
vn 0 1 0
vn 0 1 0
vn 0 1 0
vn 0 1 0
vn 0 1 0
vn 0 1 0
vn 0 1 0
vn 0 1 0
vn 0 1 0
vn 0 1 0
vn 0 1 0
vn 0 1 0
vn 0 1 0
vn 0 1 0
vn 0 1 0
vn 0 1 0
vn 0 1 0
vn 0 1 0
vn 0 1 0
vn 0 1 0
vn 0 1 0
vn 0 1 0
vn 0 1 0
vn 0 1 0
vn 0 1 0
vn 0 1 0
vn 0 1 0
vn 0 1 0
vn 0 1 0
vn 0 1 0
vn 0 1 0
vn 0 1 0
vn 0 1 0
vn 0 1 0
vn 0 1 0
vn 0 1 0
vn 0 1 0
vn 0.6028363 0.694946 0.3919676
vn 0.6028363 0.694946 0.3919676
vn 0.6028363 0.694946 0.3919676
vn 0.3969315 0.6874529 -0.6081561
vn 0.3969315 0.6874529 -0.6081561
vn 0.3969315 0.6874529 -0.6081561
vn -0.4274238 0.6212881 0.656742
vn -0.4274238 0.6212881 0.656742
vn -0.4274238 0.6212881 0.656742
vn -0.6301108 0.6598037 -0.4094135
vn -0.6301108 0.6598037 -0.4094135
vn -0.6301108 0.6598037 -0.4094135
vn -0.09926425 0.9828133 0.1556428
vn -0.09926425 0.9828133 0.1556428
vn -0.09926425 0.9828133 0.1556428
vn -0.09915742 0.9827172 0.1563161
vn -0.09915742 0.9827172 0.1563161
vn -0.09915742 0.9827172 0.1563161
vn 0.1119121 0.9778088 -0.1771036
vn 0.1119121 0.9778088 -0.1771036
vn 0.1119121 0.9778088 -0.1771036
vn 0.1126255 0.9776707 -0.1774134
vn 0.1126255 0.9776707 -0.1774134
vn 0.1126255 0.9776707 -0.1774134
vn 0.1138337 0.9777771 -0.1760505
vn 0.1138337 0.9777771 -0.1760505
vn 0.1138337 0.9777771 -0.1760505
vn -0.8464608 0 -0.5324511
vn -0.8464608 0 -0.5324511
vn -0.8464608 0 -0.5324511
vn -0.8464608 0 -0.5324511
vn -0.8464608 0 -0.5324511
vn -0.8464608 0 -0.5324511
vn -0.8464608 0 -0.5324511
vn -0.851036 0 -0.5251073
vn -0.851036 0 -0.5251073
vn -0.851036 0 -0.5251073
vn -0.851036 0 -0.5251073
vn -0.8442706 0 -0.5359172
vn -0.8442706 0 -0.5359172
vn -0.8442706 0 -0.5359172
vn -0.8442706 0 -0.5359172
vn -0.8442706 0 -0.5359172
vn -0.8442706 0 -0.5359172
vn -0.8442706 -2.108047E-12 -0.5359172
vn -0.8442706 -2.108047E-12 -0.5359172
vn -0.8442706 -2.108047E-12 -0.5359172
vn -0.8442767 0 -0.5359074
vn -0.8442767 0 -0.5359074
vn -0.8442767 0 -0.5359074
vn -0.8442767 0 -0.5359074
vn -0.8442767 0 -0.5359074
vn -0.8442767 0 -0.5359074
vn -0.8442767 0 -0.5359074
vn -0.8442767 0 -0.5359074
vn -0.8442767 0 -0.5359074
vn -0.5356581 0 0.844435
vn -0.5356581 0 0.844435
vn -0.5356581 0 0.844435
vn -0.5356581 0 0.844435
vn -0.5386776 0 0.842512
vn -0.5386776 0 0.842512
vn -0.5386776 0 0.842512
vn -0.5386776 -3.231335E-11 0.842512
vn -0.5386776 -3.231335E-11 0.842512
vn -0.5386776 -3.231335E-11 0.842512
vn -0.5386776 0 0.842512
vn -0.5386776 0 0.842512
vn -0.5386776 0 0.842512
vn -0.5386776 0 0.842512
vn -0.5386776 0 0.842512
vn -0.5386776 0 0.842512
vn 0.8442818 0 0.5358995
vn 0.8442818 0 0.5358995
vn 0.8442818 0 0.5358995
vn 0.8442818 0 0.5358995
vn 0.8442773 0 0.5359066
vn 0.8442773 0 0.5359066
vn 0.8442773 0 0.5359066
vn 0.8442773 0 0.5359066
vn 0.8442773 0 0.5359066
vn 0.8442773 0 0.5359066
vn 0.8442773 0 0.5359066
vn 0.8444213 0 0.5356797
vn 0.8444213 0 0.5356797
vn 0.8444213 0 0.5356797
vn 0.8444213 0 0.5356797
vn 0.8444213 0 0.5356797
vn 0.8444213 0 0.5356797
vn 0.8444213 0 0.5356797
vn 0.8444213 0 0.5356797
vn 0.8444213 0 0.5356797
vn 0.5429778 0 -0.8397471
vn 0.5429778 0 -0.8397471
vn 0.5429778 0 -0.8397471
vn 0.5429778 0 -0.8397471
vn 0.5358773 0 -0.8442959
vn 0.5358773 0 -0.8442959
vn 0.5358773 0 -0.8442959
vn 0.5358773 0 -0.8442959
vn 0.5358553 0 -0.8443098
vn 0.5358553 0 -0.8443098
vn 0.5358553 0 -0.8443098
vn 0.5358553 3.373019E-11 -0.8443098
vn 0.5358553 3.373019E-11 -0.8443098
vn 0.5358553 3.373019E-11 -0.8443098
vn 0.5358553 0 -0.8443098
vn 0.5358553 0 -0.8443098
vn 0.5358553 0 -0.8443098
vn 0.5358553 0 -0.8443098
vn 0.5358553 0 -0.8443098
vn 0.5358553 0 -0.8443098
vn -0.5377191 0 0.8431241
vn -0.5377191 0 0.8431241
vn -0.5377191 0 0.8431241
vn -0.5377191 0 0.8431241
vn 0.844348 0 0.5357952
vn 0.844348 0 0.5357952
vn 0.844348 0 0.5357952
vn 0.844348 0 0.5357952
vn 0.5359473 0 -0.8442515
vn 0.5359473 0 -0.8442515
vn 0.5359473 0 -0.8442515
vn 0.5359473 0 -0.8442515
vn -0.8444502 0 -0.535634
vn -0.8444502 0 -0.535634
vn -0.8444502 0 -0.535634
vn -0.8444502 0 -0.535634
vn 0 -1 0
vn 0 -1 0
vn 0 -1 0
vn 0 -1 0
vn 0 -1 0
vn 0 -1 0
vn 0 -1 0
vn 0 -1 0
vn 0 -1 0
vn 0 -1 0
vn 0 -1 0
vn 0 -1 0
vn 0 -1 0
vn 0 -1 0
vn 0 -1 0
vn 0 -1 0
vn 0 -1 0
vn 0 -1 0

g CDNNDG02_0017760
f 1/1/1 2/2/2 3/3/3
f 4/4/4 5/5/5 6/6/6
f 7/7/7 8/8/8 9/9/9
f 7/7/7 10/10/10 8/8/8
f 11/11/11 12/12/12 13/13/13
f 14/14/14 15/15/15 16/16/16
f 17/17/17 18/18/18 19/19/19
f 20/20/20 21/21/21 22/22/22
f 23/23/23 24/24/24 25/25/25
f 26/26/26 27/27/27 28/28/28
f 29/29/29 30/30/30 31/31/31
f 32/32/32 33/33/33 34/34/34
f 35/35/35 36/36/36 37/37/37
f 38/38/38 39/39/39 40/40/40
f 41/41/41 42/42/42 43/43/43
f 44/44/44 45/45/45 46/46/46
f 47/47/47 48/48/48 49/49/49
f 50/50/50 51/51/51 52/52/52
f 53/53/53 54/54/54 55/55/55
f 56/56/56 57/57/57 58/58/58
f 59/59/59 60/60/60 61/61/61
f 62/62/62 63/63/63 64/64/64
f 65/65/65 66/66/66 67/67/67
f 68/68/68 69/69/69 70/70/70
f 71/71/71 72/72/72 73/73/73
f 73/73/73 72/72/72 74/74/74
f 75/75/75 76/76/76 77/77/77
f 78/78/78 75/75/75 77/77/77
f 79/79/79 80/80/80 81/81/81
f 82/82/82 83/83/83 84/84/84
f 85/85/85 86/86/86 87/87/87
f 88/88/88 89/89/89 90/90/90
f 91/91/91 92/92/92 93/93/93
f 94/94/94 95/95/95 96/96/96
f 97/97/97 98/98/98 99/99/99
f 98/98/98 97/97/97 100/100/100
f 101/101/101 102/102/102 103/103/103
f 104/104/104 105/105/105 106/106/106
f 107/107/107 108/108/108 109/109/109
f 110/110/110 111/111/111 112/112/112
f 113/113/113 114/114/114 115/115/115
f 116/116/116 115/115/115 114/114/114
f 117/117/117 118/118/118 119/119/119
f 120/120/120 121/121/121 122/122/122
f 122/122/122 121/121/121 123/123/123
f 124/124/124 125/125/125 126/126/126
f 127/127/127 128/128/128 129/129/129
f 130/130/130 131/131/131 132/132/132
f 133/133/133 134/134/134 135/135/135
f 135/135/135 136/136/136 133/133/133
f 137/137/137 138/138/138 139/139/139
f 137/137/137 140/140/140 138/138/138
f 141/141/141 142/142/142 143/143/143
f 144/144/144 145/145/145 146/146/146
f 147/147/147 148/148/148 149/149/149
f 150/150/150 151/151/151 152/152/152
f 153/153/153 154/154/154 155/155/155
f 154/154/154 153/153/153 156/156/156
f 157/157/157 158/158/158 159/159/159
f 160/160/160 157/157/157 159/159/159
f 161/161/161 162/162/162 163/163/163
f 162/162/162 161/161/161 164/164/164
f 165/165/165 166/166/166 167/167/167
f 168/168/168 165/165/165 167/167/167
f 169/169/169 170/170/170 171/171/171
f 172/172/172 173/173/173 174/174/174
f 175/175/175 172/172/172 174/174/174
f 176/176/176 175/175/175 177/177/177
f 173/173/173 178/178/178 174/174/174
f 175/175/175 174/174/174 177/177/177
f 179/179/179 180/180/180 181/181/181
f 174/174/174 178/178/178 179/179/179
f 178/178/178 169/169/169 180/180/180
f 178/178/178 182/182/182 183/183/183
f 169/169/169 184/184/184 170/170/170
f 184/184/184 185/185/185 170/170/170
f 182/182/182 186/186/186 183/183/183
f 178/178/178 183/183/183 169/169/169
f 178/178/178 180/180/180 179/179/179
f 169/169/169 171/171/171 180/180/180
