v -15.88282 6.068493 6.498718
v -16.39082 6.068493 7.438717
v -14.67482 6.068493 7.150718
v -15.18282 6.068493 8.091718
v -0.2738202 4.808493 -1.606282
v 0.5921798 4.808493 -1.112282
v -0.0518202 4.808493 -1.995282
v 0.8141798 4.808493 -1.501282
v -16.51582 3.875493 7.669718
v -2.18782 3.875493 15.41072
v -16.39082 3.875493 7.438717
v 2.55018 3.875493 6.639718
v 9.50018 3.875493 10.39472
v 10.44818 3.875493 -7.782282
v 17.31618 3.875493 -4.072282
v -3.63182 3.875493 -16.17728
v 10.44818 3.875493 -7.782282
v 10.77718 3.875493 -8.392282
v -0.2738202 3.875493 -1.606282
v 2.55018 3.875493 6.639718
v 0.4238498 3.875493 -1.208304
v -3.63182 3.875493 -16.17728
v -0.2738202 3.875493 -1.606282
v -0.0518202 3.875493 -1.995282
v -3.63182 3.875493 -16.17728
v -0.0518202 3.875493 -1.995282
v 0.2586046 3.875493 -1.818204
v -15.88282 3.875493 6.498718
v 2.55018 3.875493 6.639718
v -0.2738202 3.875493 -1.606282
v -15.88282 3.875493 6.498718
v -0.2738202 3.875493 -1.606282
v -3.63182 3.875493 -16.17728
v 0.4238498 3.875493 -1.208304
v 2.55018 3.875493 6.639718
v 0.5921798 3.875493 -1.112282
v 0.5921798 3.875493 -1.112282
v 2.55018 3.875493 6.639718
v 0.8141798 3.875493 -1.501282
v 0.2586046 3.875493 -1.818204
v 0.8141798 3.875493 -1.501282
v 10.44818 3.875493 -7.782282
v 0.8141798 3.875493 -1.501282
v 2.55018 3.875493 6.639718
v 10.44818 3.875493 -7.782282
v -3.63182 3.875493 -16.17728
v 0.2586046 3.875493 -1.818204
v 10.44818 3.875493 -7.782282
v -16.39082 3.875493 7.438717
v -2.18782 3.875493 15.41072
v -15.18282 3.875493 8.091718
v -15.18282 3.875493 8.091718
v -2.18782 3.875493 15.41072
v -14.7284 3.875493 7.249958
v -14.7284 3.875493 7.249958
v -2.18782 3.875493 15.41072
v 2.55018 3.875493 6.639718
v -15.88282 3.875493 6.498718
v -14.67482 3.875493 7.150718
v 2.55018 3.875493 6.639718
v -14.7284 3.875493 7.249958
v 2.55018 3.875493 6.639718
v -14.67482 3.875493 7.150718
v -16.39082 6.068493 7.438717
v -16.39082 3.875493 7.438717
v -15.18282 6.068493 8.091718
v -15.18282 3.875493 8.091718
v -14.7284 3.875493 7.249958
v -14.67482 3.875493 7.150718
v -14.67482 6.068493 7.150718
v -14.7284 3.875493 7.249958
v -14.67482 6.068493 7.150718
v -15.18282 6.068493 8.091718
v -15.18282 3.875493 8.091718
v -15.88282 3.875493 6.498718
v -15.88282 6.068493 6.498718
v -14.67482 6.068493 7.150718
v -14.67482 3.875493 7.150718
v -16.39082 6.068493 7.438717
v -15.88282 3.875493 6.498718
v -16.39082 3.875493 7.438717
v -15.88282 6.068493 6.498718
v -15.88282 -3.883528 6.498718
v -15.88282 3.875493 6.498718
v -3.63182 -3.883528 -16.17728
v -3.63182 3.875493 -16.17728
v -16.51582 3.875493 7.669718
v -16.39082 -3.883528 7.438717
v -16.51582 -3.883528 7.669718
v -16.39082 3.875493 7.438717
v -16.39082 3.875493 7.438717
v -15.88282 -3.883528 6.498718
v -16.39082 -3.883528 7.438717
v -15.88282 3.875493 6.498718
v 0.4238498 3.875493 -1.208304
v 0.5921798 3.875493 -1.112282
v 0.5921798 4.808493 -1.112282
v 0.4238498 3.875493 -1.208304
v 0.5921798 4.808493 -1.112282
v -0.2738202 4.808493 -1.606282
v -0.2738202 3.875493 -1.606282
v 0.5921798 3.875493 -1.112282
v 0.8141798 4.808493 -1.501282
v 0.5921798 4.808493 -1.112282
v 0.8141798 3.875493 -1.501282
v -0.0518202 4.808493 -1.995282
v 0.2586046 3.875493 -1.818204
v -0.0518202 3.875493 -1.995282
v 0.2586046 3.875493 -1.818204
v 0.8141798 4.808493 -1.501282
v 0.8141798 3.875493 -1.501282
v -0.0518202 4.808493 -1.995282
v 0.8141798 4.808493 -1.501282
v 0.2586046 3.875493 -1.818204
v -0.2738202 4.808493 -1.606282
v -0.0518202 4.808493 -1.995282
v -0.0518202 3.875493 -1.995282
v -0.2738202 3.875493 -1.606282
v -16.51582 3.875493 7.669718
v -16.51582 -3.883528 7.669718
v -2.18782 3.875493 15.41072
v -2.18782 -3.883528 15.41072
v -2.18782 3.875493 15.41072
v -2.18782 -3.883528 15.41072
v 2.55018 3.875493 6.639718
v 2.55018 -3.883528 6.639718
v 6.02518 -3.883528 8.517218
v 9.50018 -3.883528 10.39472
v 9.50018 3.875493 10.39472
v 2.55018 3.875493 6.639718
v 2.55018 -3.883528 6.639718
v 6.02518 -3.883528 8.517218
v 2.55018 3.875493 6.639718
v 6.02518 -3.883528 8.517218
v 9.50018 3.875493 10.39472
v 9.50018 3.875493 10.39472
v 9.50018 -3.883528 10.39472
v 17.31618 3.875493 -4.072282
v 17.31618 -3.883528 -4.072282
v 10.44818 -3.883528 -7.782282
v 10.44818 3.875493 -7.782282
v 17.31618 -3.883528 -4.072282
v 17.31618 3.875493 -4.072282
v 10.61268 -3.883528 -8.087282
v 10.77718 -3.883528 -8.392282
v 10.77718 3.875493 -8.392282
v 10.44818 3.875493 -7.782282
v 10.44818 -3.883528 -7.782282
v 10.61268 -3.883528 -8.087282
v 10.44818 3.875493 -7.782282
v 10.61268 -3.883528 -8.087282
v 10.77718 3.875493 -8.392282
v -3.63182 -3.883528 -16.17728
v -3.63182 3.875493 -16.17728
v 10.77718 -3.883528 -8.392282
v 10.77718 3.875493 -8.392282
v -16.39082 -3.883528 7.438717
v -15.88282 -3.883528 6.498718
v -2.18782 -3.883528 15.41072
v -16.51582 -3.883528 7.669718
v -3.63182 -3.883528 -16.17728
v 2.55018 -3.883528 6.639718
v 10.44818 -3.883528 -7.782282
v 6.02518 -3.883528 8.517218
v 17.31618 -3.883528 -4.072282
v 9.50018 -3.883528 10.39472
v 10.77718 -3.883528 -8.392282
v 10.61268 -3.883528 -8.087282
vt 0.270492 0.943898
vt 0.288542 0.936602
vt 0.283407 0.960669
vt 0.301476 0.953373
vt 0.330432 0.936602
vt 0.339918 0.948359
vt 0.323185 0.939717
vt 0.332671 0.951475
vt 0.473852 0.000845
vt 0.632131 0.205706
vt 0.469273 0.002694
vt 0.458273 0.275781
vt 0.535046 0.375138
vt 0.172454 0.392543
vt 0.248312 0.490718
vt 0.001171 0.191420
vt 0.172454 0.392543
vt 0.160364 0.397408
vt 0.292923 0.236795
vt 0.458273 0.275781
vt 0.301051 0.246765
vt 0.001171 0.191420
vt 0.292923 0.236795
vt 0.285216 0.240074
vt 0.001171 0.191420
vt 0.285216 0.240074
vt 0.288832 0.244510
vt 0.450639 0.010209
vt 0.458273 0.275781
vt 0.292923 0.236795
vt 0.450639 0.010209
vt 0.292923 0.236795
vt 0.001171 0.191420
vt 0.301051 0.246765
vt 0.458273 0.275781
vt 0.303012 0.249170
vt 0.303012 0.249170
vt 0.458273 0.275781
vt 0.295305 0.252449
vt 0.288832 0.244510
vt 0.295305 0.252449
vt 0.172454 0.392543
vt 0.295305 0.252449
vt 0.458273 0.275781
vt 0.172454 0.392543
vt 0.001171 0.191420
vt 0.288832 0.244510
vt 0.172454 0.392543
vt 0.469273 0.002694
vt 0.632131 0.205706
vt 0.482625 0.019967
vt 0.482625 0.019967
vt 0.632131 0.205706
vt 0.465939 0.026689
vt 0.465939 0.026689
vt 0.632131 0.205706
vt 0.458273 0.275781
vt 0.450639 0.010209
vt 0.463971 0.027482
vt 0.458273 0.275781
vt 0.465939 0.026689
vt 0.458273 0.275781
vt 0.463971 0.027482
vt 0.238028 0.953535
vt 0.221740 0.962211
vt 0.225858 0.936602
vt 0.209602 0.945324
vt 0.376831 0.937322
vt 0.378738 0.936602
vt 0.395000 0.943972
vt 0.376831 0.937322
vt 0.395000 0.943972
vt 0.376869 0.950821
vt 0.360656 0.943433
vt 0.241218 0.944481
vt 0.254710 0.936602
vt 0.267654 0.953425
vt 0.254127 0.961260
vt 0.732868 0.535516
vt 0.700461 0.533885
vt 0.719037 0.526422
vt 0.714242 0.542999
vt 0.652289 0.502027
vt 0.700461 0.533885
vt 0.208431 0.680291
vt 0.252397 0.713832
vt 0.723602 0.524586
vt 0.670690 0.494634
vt 0.675212 0.492815
vt 0.719037 0.526422
vt 0.719037 0.526422
vt 0.652289 0.502027
vt 0.670690 0.494634
vt 0.700461 0.533885
vt 0.306185 0.942786
vt 0.304450 0.940478
vt 0.311351 0.936602
vt 0.306185 0.942786
vt 0.311351 0.936602
vt 0.320287 0.948494
vt 0.313375 0.952356
vt 0.413349 0.939369
vt 0.427251 0.939284
vt 0.420111 0.942054
vt 0.420481 0.936602
vt 0.348469 0.936602
vt 0.346483 0.943845
vt 0.343091 0.939627
vt 0.346483 0.943845
vt 0.357941 0.948382
vt 0.352553 0.951393
vt 0.348469 0.936602
vt 0.357941 0.948382
vt 0.346483 0.943845
vt 0.410398 0.940285
vt 0.403332 0.943194
vt 0.398126 0.939507
vt 0.405185 0.936602
vt 0.840927 0.206889
vt 0.782086 0.238072
vt 0.692117 0.000845
vt 0.634660 0.033953
vt 0.730241 0.816896
vt 0.673302 0.791512
vt 0.903535 0.750036
vt 0.844979 0.725275
vt 0.771006 0.576759
vt 0.735363 0.527380
vt 0.793588 0.492815
vt 0.865543 0.592502
vt 0.806648 0.626136
vt 0.771006 0.576759
vt 0.865543 0.592502
vt 0.771006 0.576759
vt 0.793588 0.492815
vt 0.059140 0.858783
vt 0.001171 0.834872
vt 0.345485 0.748156
vt 0.284844 0.725275
vt 0.348946 0.749927
vt 0.395092 0.725275
vt 0.424152 0.846863
vt 0.471012 0.823134
vt 0.140566 0.938855
vt 0.146472 0.936602
vt 0.207133 0.959797
vt 0.195210 0.964345
vt 0.134660 0.941108
vt 0.140566 0.938855
vt 0.195210 0.964345
vt 0.140566 0.938855
vt 0.207133 0.959797
vt 0.001171 0.519445
vt 0.045873 0.492815
vt 0.159595 0.723501
vt 0.205802 0.698815
vt 0.429742 0.936602
vt 0.429742 0.936602
vt 0.429742 0.936602
vt 0.429742 0.936602
vt 0.429742 0.936602
vt 0.429742 0.936602
vt 0.429742 0.936602
vt 0.429742 0.936602
vt 0.429742 0.936602
vt 0.429742 0.936602
vt 0.429742 0.936602
vt 0.429742 0.936602
vn 0 1 0
vn 0 1 0
vn 0 1 0
vn 0 1 0
vn 0 1 0
vn 0 1 0
vn 0 1 0
vn 0 1 0
vn 0 1 0
vn 0 1 0
vn 0 1 0
vn 0 1 0
vn 0 1 0
vn 0 1 0
vn 0 1 0
vn 0 1 0
vn 0 1 0
vn 0 1 0
vn 0 1 0
vn 0 1 0
vn 0 1 0
vn 0 1 0
vn 0 1 0
vn 0 1 0
vn 0 1 0
vn 0 1 0
vn 0 1 0
vn 0 1 0
vn 0 1 0
vn 0 1 0
vn 0 1 0
vn 0 1 0
vn 0 1 0
vn 0 1 0
vn 0 1 0
vn 0 1 0
vn 0 1 0
vn 0 1 0
vn 0 1 0
vn 0 1 0
vn 0 1 0
vn 0 1 0
vn 0 1 0
vn 0 1 0
vn 0 1 0
vn 0 1 0
vn 0 1 0
vn 0 1 0
vn 0 1 0
vn 0 1 0
vn 0 1 0
vn 0 1 0
vn 0 1 0
vn 0 1 0
vn 0 1 0
vn 0 1 0
vn 0 1 0
vn 0 1 0
vn 0 1 0
vn 0 1 0
vn 0 1 0
vn 0 1 0
vn 0 1 0
vn -0.4755323 0 0.8796983
vn -0.4755323 0 0.8796983
vn -0.4755323 0 0.8796983
vn -0.4755323 0 0.8796983
vn 0.8799601 0 0.4750476
vn 0.8799601 0 0.4750476
vn 0.8799601 0 0.4750476
vn 0.8799601 -6.499918E-10 0.4750476
vn 0.8799601 -1.299984E-09 0.4750476
vn 0.8799601 -6.499918E-10 0.4750476
vn 0.8799601 0 0.4750476
vn 0.4749684 0 -0.8800029
vn 0.4749684 0 -0.8800029
vn 0.4749684 0 -0.8800029
vn 0.4749684 0 -0.8800029
vn -0.8797488 0 -0.4754387
vn -0.8797488 0 -0.4754387
vn -0.8797488 0 -0.4754387
vn -0.8797488 0 -0.4754387
vn -0.8798087 0 -0.4753279
vn -0.8798087 0 -0.4753279
vn -0.8798087 0 -0.4753279
vn -0.8798087 0 -0.4753279
vn -0.8794912 0 -0.4759152
vn -0.8794912 0 -0.4759152
vn -0.8794912 0 -0.4759152
vn -0.8794912 0 -0.4759152
vn -0.8797488 0 -0.4754387
vn -0.8797488 0 -0.4754387
vn -0.8797488 0 -0.4754387
vn -0.8797488 0 -0.4754387
vn -0.4954907 0 0.8686132
vn -0.4954907 0 0.8686132
vn -0.4954907 0 0.8686132
vn -0.4954907 -9.342516E-10 0.8686132
vn -0.4954907 -1.868503E-09 0.8686132
vn -0.4954907 -9.342516E-10 0.8686132
vn -0.4954907 0 0.8686132
vn 0.8685178 0 0.495658
vn 0.8685178 0 0.495658
vn 0.8685178 0 0.495658
vn 0.8685178 0 0.495658
vn 0.4954907 0 -0.8686132
vn 0.4954907 0 -0.8686132
vn 0.4954907 0 -0.8686132
vn 0.4954907 0 -0.8686132
vn 0.4954907 0 -0.8686132
vn 0.4954907 0 -0.8686132
vn 0.4954907 -1.402277E-09 -0.8686132
vn 0.4954907 -1.402277E-09 -0.8686132
vn 0.4954907 -1.402277E-09 -0.8686132
vn -0.8685178 0 -0.495658
vn -0.8685178 0 -0.495658
vn -0.8685178 0 -0.495658
vn -0.8685178 0 -0.495658
vn -0.4753334 0 0.8798057
vn -0.4753334 0 0.8798057
vn -0.4753334 0 0.8798057
vn -0.4753334 0 0.8798057
vn 0.8798358 0 0.4752778
vn 0.8798358 0 0.4752778
vn 0.8798358 0 0.4752778
vn 0.8798358 0 0.4752778
vn -0.4753449 0 0.8797995
vn -0.4753449 0 0.8797995
vn -0.4753449 0 0.8797995
vn -0.4753449 0 0.8797995
vn -0.4753449 0 0.8797995
vn -0.4753449 0 0.8797995
vn -0.4753449 5.101855E-11 0.8797995
vn -0.4753449 5.101855E-11 0.8797995
vn -0.4753449 5.101855E-11 0.8797995
vn 0.8798082 0 0.4753288
vn 0.8798082 0 0.4753288
vn 0.8798082 0 0.4753288
vn 0.8798082 0 0.4753288
vn 0.4752759 0 -0.8798369
vn 0.4752759 0 -0.8798369
vn 0.4752759 0 -0.8798369
vn 0.4752759 0 -0.8798369
vn 0.8801466 0 0.474702
vn 0.8801466 0 0.474702
vn 0.8801466 0 0.474702
vn 0.8801466 0 0.474702
vn 0.8801466 0 0.474702
vn 0.8801466 0 0.474702
vn 0.8801466 -3.179087E-11 0.474702
vn 0.8801466 -3.179087E-11 0.474702
vn 0.8801466 -3.179087E-11 0.474702
vn 0.4753446 0 -0.8797997
vn 0.4753446 0 -0.8797997
vn 0.4753446 0 -0.8797997
vn 0.4753446 0 -0.8797997
vn 0 -1 0
vn 0 -1 0
vn 0 -1 0
vn 0 -1 0
vn 0 -1 0
vn 0 -1 0
vn 0 -1 0
vn 0 -1 0
vn 0 -1 0
vn 0 -1 0
vn 0 -1 0
vn 0 -1 0

g CDNNDG01_0004450
f 1/1/1 2/2/2 3/3/3
f 3/3/3 2/2/2 4/4/4
f 5/5/5 6/6/6 7/7/7
f 7/7/7 6/6/6 8/8/8
f 9/9/9 10/10/10 11/11/11
f 12/12/12 13/13/13 14/14/14
f 14/14/14 13/13/13 15/15/15
f 16/16/16 17/17/17 18/18/18
f 19/19/19 20/20/20 21/21/21
f 22/22/22 23/23/23 24/24/24
f 25/25/25 26/26/26 27/27/27
f 28/28/28 29/29/29 30/30/30
f 31/31/31 32/32/32 33/33/33
f 34/34/34 35/35/35 36/36/36
f 37/37/37 38/38/38 39/39/39
f 40/40/40 41/41/41 42/42/42
f 43/43/43 44/44/44 45/45/45
f 46/46/46 47/47/47 48/48/48
f 49/49/49 50/50/50 51/51/51
f 52/52/52 53/53/53 54/54/54
f 55/55/55 56/56/56 57/57/57
f 58/58/58 59/59/59 60/60/60
f 61/61/61 62/62/62 63/63/63
f 64/64/64 65/65/65 66/66/66
f 66/66/66 65/65/65 67/67/67
f 68/68/68 69/69/69 70/70/70
f 71/71/71 72/72/72 73/73/73
f 74/74/74 71/71/71 73/73/73
f 75/75/75 76/76/76 77/77/77
f 77/77/77 78/78/78 75/75/75
f 79/79/79 80/80/80 81/81/81
f 79/79/79 82/82/82 80/80/80
f 83/83/83 84/84/84 85/85/85
f 85/85/85 84/84/84 86/86/86
f 87/87/87 88/88/88 89/89/89
f 87/87/87 90/90/90 88/88/88
f 91/91/91 92/92/92 93/93/93
f 91/91/91 94/94/94 92/92/92
f 95/95/95 96/96/96 97/97/97
f 98/98/98 99/99/99 100/100/100
f 100/100/100 101/101/101 98/98/98
f 102/102/102 103/103/103 104/104/104
f 102/102/102 105/105/105 103/103/103
f 106/106/106 107/107/107 108/108/108
f 109/109/109 110/110/110 111/111/111
f 112/112/112 113/113/113 114/114/114
f 115/115/115 116/116/116 117/117/117
f 118/118/118 115/115/115 117/117/117
f 119/119/119 120/120/120 121/121/121
f 121/121/121 120/120/120 122/122/122
f 123/123/123 124/124/124 125/125/125
f 126/126/126 125/125/125 124/124/124
f 127/127/127 128/128/128 129/129/129
f 130/130/130 131/131/131 132/132/132
f 133/133/133 134/134/134 135/135/135
f 136/136/136 137/137/137 138/138/138
f 139/139/139 138/138/138 137/137/137
f 140/140/140 141/141/141 142/142/142
f 143/143/143 142/142/142 141/141/141
f 144/144/144 145/145/145 146/146/146
f 147/147/147 148/148/148 149/149/149
f 150/150/150 151/151/151 152/152/152
f 153/153/153 154/154/154 155/155/155
f 156/156/156 155/155/155 154/154/154
f 157/157/157 158/158/158 159/159/159
f 160/160/160 157/157/157 159/159/159
f 158/158/158 161/161/161 162/162/162
f 162/162/162 163/163/163 164/164/164
f 164/164/164 165/165/165 166/166/166
f 161/161/161 167/167/167 168/168/168
f 158/158/158 162/162/162 159/159/159
f 161/161/161 168/168/168 163/163/163
f 164/164/164 163/163/163 165/165/165
f 161/161/161 163/163/163 162/162/162
