v -2.760827 6.260255 -18.44367
v 15.92217 6.260255 -7.100674
v 19.18117 6.260255 -12.24067
v 0.5581728 6.260255 -24.04967
v -2.760827 6.260255 -18.44367
v 15.69417 6.260255 -6.740674
v 15.92217 6.260255 -7.100674
v -2.928827 6.260255 -18.55067
v -2.760827 6.260255 -18.44367
v 0.5581728 6.260255 -24.04967
v 12.01917 3.016255 0.4143262
v 14.80117 3.016255 1.347326
v 12.0817 3.016255 0.3157201
v 9.477173 3.016255 3.363326
v 12.36217 3.016255 5.193326
v 12.01917 3.016255 0.4143262
v 9.477173 3.016255 3.363326
v 12.01917 3.016255 0.4143262
v 11.54014 3.016255 0.1102859
v 12.01917 3.016255 0.4143262
v 12.36217 3.016255 5.193326
v 14.80117 3.016255 1.347326
v 12.0817 3.016255 0.3157201
v 14.80117 3.016255 1.347326
v 12.39517 3.016255 -0.1786738
v 12.10636 4.048422 -0.797703
v 12.56135 4.048422 -0.5092164
v 15.69417 4.048422 -6.740674
v -2.760827 4.048422 -18.44367
v 12.10636 4.048422 -0.797703
v 15.69417 4.048422 -6.740674
v -2.760827 4.048422 -18.44367
v 11.52017 4.048422 -0.9672801
v 11.61117 4.048422 -1.111674
v -2.760827 4.048422 -18.44367
v 11.61117 4.048422 -1.111674
v 12.10636 4.048422 -0.797703
v 12.59217 4.048422 -0.4896738
v 14.80117 4.048422 1.347326
v 15.69417 4.048422 -6.740674
v 12.39517 4.048422 -0.1786738
v 14.80117 4.048422 1.347326
v 12.59217 4.048422 -0.4896738
v 12.56135 4.048422 -0.5092164
v 12.59217 4.048422 -0.4896738
v 15.69417 4.048422 -6.740674
v 14.80117 4.048422 1.347326
v 20.03417 4.048422 4.665326
v 24.17617 4.048422 -1.866674
v -23.01083 4.048422 13.49033
v -4.420827 4.048422 25.27933
v 9.477173 4.048422 3.363326
v -23.01083 4.048422 13.49033
v 9.477173 4.048422 3.363326
v -2.760827 4.048422 -18.44367
v 14.80117 4.048422 1.347326
v 24.17617 4.048422 -1.866674
v 15.69417 4.048422 -6.740674
v -2.760827 4.048422 -18.44367
v 9.477173 4.048422 3.363326
v 11.03917 4.048422 -0.2076738
v -2.760827 4.048422 -18.44367
v 11.03917 4.048422 -0.2076738
v 11.15467 4.048422 -0.3898221
v 9.477173 4.048422 3.363326
v 11.54014 4.048422 0.1102859
v 11.03917 4.048422 -0.2076738
v -2.760827 4.048422 -18.44367
v 11.41517 4.048422 -0.8006738
v 11.52017 4.048422 -0.9672801
v -2.760827 4.048422 -18.44367
v 11.15467 4.048422 -0.3898221
v 11.41517 4.048422 -0.8006738
v 15.69417 4.048422 -6.740674
v 24.17617 4.048422 -1.866674
v 15.92217 4.048422 -7.100674
v 11.54014 8.284255 0.1102859
v 12.01917 8.284255 0.4143262
v 12.39517 8.284255 -0.1786738
v 11.91617 8.284255 -0.4826738
v 11.03917 8.284255 -0.2076738
v 11.54014 8.284255 0.1102859
v 11.91617 8.284255 -0.4826738
v 11.41517 8.284255 -0.8006738
v 11.91617 8.284255 -0.4826738
v 12.39517 8.284255 -0.1786738
v 12.59217 8.284255 -0.4896738
v 11.41517 8.284255 -0.8006738
v 11.91617 8.284255 -0.4826738
v 11.61117 8.284255 -1.111674
v 11.61117 8.284255 -1.111674
v 11.91617 8.284255 -0.4826738
v 12.59217 8.284255 -0.4896738
v -2.760827 4.048422 -18.44367
v 15.69417 4.048422 -6.740674
v 15.69417 6.260255 -6.740674
v -2.760827 6.260255 -18.44367
v -2.928827 6.260255 -18.55067
v -2.760827 4.048422 -18.44367
v -2.760827 6.260255 -18.44367
v -2.928827 -4.40664 -18.55067
v -2.760827 -4.40664 -18.44367
v -2.760827 4.048422 -18.44367
v -2.928827 6.260255 -18.55067
v 15.69417 4.048422 -6.740674
v 15.92217 4.048422 -7.100674
v 15.92217 6.260255 -7.100674
v 15.69417 6.260255 -6.740674
v 15.92217 -4.40664 -7.100674
v 19.18117 -4.40664 -12.24067
v 19.18117 6.260255 -12.24067
v 15.92217 4.048422 -7.100674
v 15.92217 6.260255 -7.100674
v 15.92217 4.048422 -7.100674
v 19.18117 6.260255 -12.24067
v 0.5581728 6.260255 -24.04967
v 19.18117 6.260255 -12.24067
v 19.18117 -4.40664 -12.24067
v 0.5581728 -4.40664 -24.04967
v -2.928827 6.260255 -18.55067
v 0.5581728 6.260255 -24.04967
v 0.5581728 -4.40664 -24.04967
v -2.928827 -4.40664 -18.55067
v 9.477173 -4.40664 3.363326
v 12.36217 -4.40664 5.193326
v 12.36217 3.016255 5.193326
v 9.477173 3.016255 3.363326
v 12.36217 -4.40664 5.193326
v 14.80117 -4.40664 1.347326
v 14.80117 3.016255 1.347326
v 12.36217 3.016255 5.193326
v 17.41767 -4.40664 3.006326
v 20.03417 -4.40664 4.665326
v 20.03417 4.048422 4.665326
v 14.80117 4.048422 1.347326
v 17.41767 -4.40664 3.006326
v 20.03417 4.048422 4.665326
v 14.80117 4.048422 1.347326
v 14.80117 3.016255 1.347326
v 17.41767 -4.40664 3.006326
v 14.80117 3.016255 1.347326
v 14.80117 -4.40664 1.347326
v 17.41767 -4.40664 3.006326
v 12.39517 3.016255 -0.1786738
v 14.80117 3.016255 1.347326
v 14.80117 4.048422 1.347326
v 12.39517 4.048422 -0.1786738
v 20.03417 -4.40664 4.665326
v 24.17617 -4.40664 -1.866674
v 24.17617 4.048422 -1.866674
v 20.03417 4.048422 4.665326
v 15.92217 4.048422 -7.100674
v 24.17617 4.048422 -1.866674
v 24.17617 -4.40664 -1.866674
v 15.92217 -4.40664 -7.100674
v -23.01083 4.048422 13.49033
v -2.760827 4.048422 -18.44367
v -2.760827 -4.40664 -18.44367
v -23.01083 -4.40664 13.49033
v -13.71583 -4.40664 19.38483
v -4.420827 -4.40664 25.27933
v -4.420827 4.048422 25.27933
v -23.01083 4.048422 13.49033
v -23.01083 -4.40664 13.49033
v -13.71583 -4.40664 19.38483
v -23.01083 4.048422 13.49033
v -13.71583 -4.40664 19.38483
v -4.420827 4.048422 25.27933
v -4.420827 4.048422 25.27933
v 9.477173 3.016255 3.363326
v 9.477173 4.048422 3.363326
v -4.420827 -4.40664 25.27933
v 9.477173 -4.40664 3.363326
v 9.477173 3.016255 3.363326
v -4.420827 4.048422 25.27933
v 9.477173 3.016255 3.363326
v 11.54014 3.016255 0.1102859
v 11.54014 4.048422 0.1102859
v 9.477173 4.048422 3.363326
v 11.03917 4.048422 -0.2076738
v 11.54014 4.048422 0.1102859
v 11.54014 8.284255 0.1102859
v 11.03917 8.284255 -0.2076738
v 11.54014 4.048422 0.1102859
v 12.01917 3.016255 0.4143262
v 12.01917 8.284255 0.4143262
v 11.54014 8.284255 0.1102859
v 11.54014 4.048422 0.1102859
v 11.54014 3.016255 0.1102859
v 12.01917 3.016255 0.4143262
v 11.03917 8.284255 -0.2076738
v 11.15467 4.048422 -0.3898221
v 11.03917 4.048422 -0.2076738
v 11.03917 8.284255 -0.2076738
v 11.41517 8.284255 -0.8006738
v 11.41517 4.048422 -0.8006738
v 11.15467 4.048422 -0.3898221
v 11.41517 8.284255 -0.8006738
v 11.52017 4.048422 -0.9672801
v 11.41517 4.048422 -0.8006738
v 11.52017 4.048422 -0.9672801
v 11.61117 8.284255 -1.111674
v 11.61117 4.048422 -1.111674
v 11.41517 8.284255 -0.8006738
v 11.61117 8.284255 -1.111674
v 11.52017 4.048422 -0.9672801
v 12.39517 4.048422 -0.1786738
v 12.59217 4.048422 -0.4896738
v 12.59217 8.284255 -0.4896738
v 12.39517 8.284255 -0.1786738
v 12.01917 8.284255 0.4143262
v 12.39517 4.048422 -0.1786738
v 12.39517 8.284255 -0.1786738
v 12.0817 3.016255 0.3157201
v 12.39517 3.016255 -0.1786738
v 12.39517 4.048422 -0.1786738
v 12.01917 8.284255 0.4143262
v 12.01917 3.016255 0.4143262
v 12.0817 3.016255 0.3157201
v 12.01917 8.284255 0.4143262
v 12.0817 3.016255 0.3157201
v 12.39517 4.048422 -0.1786738
v 11.61117 8.284255 -1.111674
v 12.10636 4.048422 -0.797703
v 11.61117 4.048422 -1.111674
v 11.61117 8.284255 -1.111674
v 12.59217 8.284255 -0.4896738
v 12.10636 4.048422 -0.797703
v 12.56135 4.048422 -0.5092164
v 12.59217 8.284255 -0.4896738
v 12.59217 4.048422 -0.4896738
v 12.10636 4.048422 -0.797703
v 12.59217 8.284255 -0.4896738
v 12.56135 4.048422 -0.5092164
v -23.01083 -4.40664 13.49033
v -2.760827 -4.40664 -18.44367
v -2.928827 -4.40664 -18.55067
v 0.5581728 -4.40664 -24.04967
v 19.18117 -4.40664 -12.24067
v 15.92217 -4.40664 -7.100674
v 24.17617 -4.40664 -1.866674
v 20.03417 -4.40664 4.665326
v 17.41767 -4.40664 3.006326
v 14.80117 -4.40664 1.347326
v 12.36217 -4.40664 5.193326
v 9.477173 -4.40664 3.363326
v -4.420827 -4.40664 25.27933
v -13.71583 -4.40664 19.38483
vt 0.716569 0.002480
vt 0.874352 0.207541
vt 0.799055 0.241653
vt 0.634518 0.037143
vt 0.716569 0.002480
vt 0.879626 0.205154
vt 0.874352 0.207541
vt 0.715078 0.000635
vt 0.716569 0.002480
vt 0.634518 0.037143
vt 0.886761 0.757490
vt 0.899189 0.787473
vt 0.885333 0.758137
vt 0.929690 0.730964
vt 0.954893 0.762257
vt 0.886761 0.757490
vt 0.929690 0.730964
vt 0.886761 0.757490
vt 0.882574 0.752294
vt 0.886761 0.757490
vt 0.954893 0.762257
vt 0.899189 0.787473
vt 0.885333 0.758137
vt 0.899189 0.787473
vt 0.878173 0.761378
vt 0.250758 0.377367
vt 0.254775 0.382356
vt 0.163805 0.414807
vt 0.000846 0.212402
vt 0.250758 0.377367
vt 0.163805 0.414807
vt 0.000846 0.212402
vt 0.248501 0.370985
vt 0.246387 0.371936
vt 0.000846 0.212402
vt 0.246387 0.371936
vt 0.250758 0.377367
vt 0.255047 0.382694
vt 0.280846 0.407021
vt 0.163805 0.414807
vt 0.259600 0.380635
vt 0.280846 0.407021
vt 0.255047 0.382694
vt 0.254775 0.382356
vt 0.255047 0.382694
vt 0.163805 0.414807
vt 0.280846 0.407021
vt 0.327039 0.464408
vt 0.231405 0.507703
vt 0.468474 0.000635
vt 0.632609 0.204571
vt 0.311680 0.349884
vt 0.468474 0.000635
vt 0.311680 0.349884
vt 0.000846 0.212402
vt 0.280846 0.407021
vt 0.231405 0.507703
vt 0.163805 0.414807
vt 0.000846 0.212402
vt 0.311680 0.349884
vt 0.259622 0.365957
vt 0.000846 0.212402
vt 0.259622 0.365957
vt 0.256955 0.367164
vt 0.311680 0.349884
vt 0.264049 0.371451
vt 0.259622 0.365957
vt 0.000846 0.212402
vt 0.250940 0.369887
vt 0.248501 0.370985
vt 0.000846 0.212402
vt 0.256955 0.367164
vt 0.250940 0.369887
vt 0.163805 0.414807
vt 0.231405 0.507703
vt 0.158534 0.417191
vt 0.655022 0.950122
vt 0.659125 0.955214
vt 0.650709 0.959023
vt 0.646607 0.953932
vt 0.650731 0.944797
vt 0.655022 0.950122
vt 0.646607 0.953932
vt 0.642315 0.948607
vt 0.646607 0.953932
vt 0.650709 0.959023
vt 0.646296 0.961019
vt 0.642315 0.948607
vt 0.646607 0.953932
vt 0.637902 0.950592
vt 0.637902 0.950592
vt 0.646607 0.953932
vt 0.646296 0.961019
vt 0.861585 0.716326
vt 0.701354 0.512396
vt 0.717321 0.509518
vt 0.877986 0.714004
vt 0.879456 0.715865
vt 0.861585 0.716326
vt 0.877986 0.714004
vt 0.801150 0.726925
vt 0.799700 0.725087
vt 0.861585 0.716326
vt 0.879456 0.715865
vt 0.211122 0.993510
vt 0.216387 0.991194
vt 0.232255 0.994804
vt 0.226975 0.997126
vt 0.156514 0.977571
vt 0.230928 0.944797
vt 0.307642 0.961601
vt 0.216387 0.991194
vt 0.232255 0.994804
vt 0.216387 0.991194
vt 0.307642 0.961601
vt 0.532437 0.509518
vt 0.699639 0.713402
vt 0.663349 0.728629
vt 0.498308 0.527386
vt 0.423738 0.957716
vt 0.343494 0.993856
vt 0.309645 0.980471
vt 0.388850 0.944797
vt 0.450198 0.985070
vt 0.425550 0.953911
vt 0.476485 0.944797
vt 0.501357 0.976240
vt 0.503384 0.969199
vt 0.558935 0.944797
vt 0.610226 0.956762
vt 0.554172 0.981385
vt 0.773711 0.770786
vt 0.751269 0.742294
vt 0.809729 0.730964
vt 0.855077 0.788541
vt 0.773711 0.770786
vt 0.809729 0.730964
vt 0.855077 0.788541
vt 0.847818 0.789863
vt 0.773711 0.770786
vt 0.847818 0.789863
vt 0.796153 0.799278
vt 0.773711 0.770786
vt 0.868648 0.816301
vt 0.847818 0.789863
vt 0.855077 0.788541
vt 0.875933 0.815011
vt 0.000846 0.986477
vt 0.095420 0.944797
vt 0.154575 0.957509
vt 0.059023 0.999619
vt 0.675700 0.730964
vt 0.749301 0.820773
vt 0.719209 0.832203
vt 0.646362 0.743316
vt 0.496053 0.517685
vt 0.028596 0.729108
vt 0.000846 0.718776
vt 0.463509 0.509518
vt 0.080816 0.841313
vt 0.000846 0.739684
vt 0.056290 0.730964
vt 0.217874 0.936321
vt 0.160777 0.942930
vt 0.080816 0.841313
vt 0.217874 0.936321
vt 0.080816 0.841313
vt 0.056290 0.730964
vt 0.275193 0.896186
vt 0.589652 0.752069
vt 0.596860 0.753843
vt 0.219966 0.880327
vt 0.538343 0.739437
vt 0.589652 0.752069
vt 0.275193 0.896186
vt 0.589652 0.752069
vt 0.637342 0.730964
vt 0.644610 0.732713
vt 0.596860 0.753843
vt 0.677183 0.960379
vt 0.672888 0.955040
vt 0.702608 0.949929
vt 0.706925 0.955296
vt 0.672888 0.955040
vt 0.661591 0.951179
vt 0.698479 0.944797
vt 0.702608 0.949929
vt 0.672888 0.955040
vt 0.665693 0.956278
vt 0.661591 0.951179
vt 0.788477 0.950567
vt 0.770847 0.945945
vt 0.773439 0.944797
vt 0.788477 0.950567
vt 0.779994 0.954325
vt 0.765000 0.948536
vt 0.770847 0.945945
vt 0.779994 0.954325
vt 0.762630 0.949580
vt 0.765000 0.948536
vt 0.762630 0.949580
vt 0.775546 0.956284
vt 0.760575 0.950485
vt 0.779994 0.954325
vt 0.775546 0.956284
vt 0.762630 0.949580
vt 0.724701 0.946726
vt 0.729199 0.944797
vt 0.758825 0.951644
vt 0.754304 0.953583
vt 0.745683 0.957285
vt 0.724701 0.946726
vt 0.754304 0.953583
vt 0.710392 0.948132
vt 0.717533 0.945066
vt 0.724701 0.946726
vt 0.745683 0.957285
vt 0.708968 0.948743
vt 0.710392 0.948132
vt 0.745683 0.957285
vt 0.710392 0.948132
vt 0.724701 0.946726
vt 0.627494 0.944797
vt 0.616819 0.956356
vt 0.612521 0.951127
vt 0.627494 0.944797
vt 0.636053 0.955209
vt 0.616819 0.956356
vt 0.620768 0.961160
vt 0.636053 0.955209
vt 0.621036 0.961485
vt 0.616819 0.956356
vt 0.636053 0.955209
vt 0.620768 0.961160
vt 0.790186 0.944797
vt 0.790186 0.944797
vt 0.790186 0.944797
vt 0.790186 0.944797
vt 0.790186 0.944797
vt 0.790186 0.944797
vt 0.790186 0.944797
vt 0.790186 0.944797
vt 0.790186 0.944797
vt 0.790186 0.944797
vt 0.790186 0.944797
vt 0.790186 0.944797
vt 0.790186 0.944797
vt 0.790186 0.944797
vn 0 1 0
vn 0 1 0
vn 0 1 0
vn 0 1 0
vn 0 1 0
vn 0 1 0
vn 0 1 0
vn 0 1 0
vn 0 1 0
vn 0 1 0
vn 0 1 0
vn 0 1 0
vn 0 1 0
vn 0 1 0
vn 0 1 0
vn 0 1 0
vn 0 1 0
vn 0 1 0
vn 0 1 0
vn 0 1 0
vn 0 1 0
vn 0 1 0
vn 0 1 0
vn 0 1 0
vn 0 1 0
vn 0 1 0
vn 0 1 0
vn 0 1 0
vn 0 1 0
vn 0 1 0
vn 0 1 0
vn 0 1 0
vn 0 1 0
vn 0 1 0
vn 0 1 0
vn 0 1 0
vn 0 1 0
vn 0 1 0
vn 0 1 0
vn 0 1 0
vn 0 1 0
vn 0 1 0
vn 0 1 0
vn 0 1 0
vn 0 1 0
vn 0 1 0
vn 0 1 0
vn 0 1 0
vn 0 1 0
vn 0 1 0
vn 0 1 0
vn 0 1 0
vn 0 1 0
vn 0 1 0
vn 0 1 0
vn 0 1 0
vn 0 1 0
vn 0 1 0
vn 0 1 0
vn 0 1 0
vn 0 1 0
vn 0 1 0
vn 0 1 0
vn 0 1 0
vn 0 1 0
vn 0 1 0
vn 0 1 0
vn 0 1 0
vn 0 1 0
vn 0 1 0
vn 0 1 0
vn 0 1 0
vn 0 1 0
vn 0 1 0
vn 0 1 0
vn 0 1 0
vn 0 1 0
vn 0 1 0
vn 0 1 0
vn 0 1 0
vn 0 1 0
vn 0 1 0
vn 0 1 0
vn 0 1 0
vn 0 1 0
vn 0 1 0
vn 0 1 0
vn 0 1 0
vn 0 1 0
vn 0 1 0
vn 0 1 0
vn 0 1 0
vn 0 1 0
vn -0.5355365 0 0.8445121
vn -0.5355365 0 0.8445121
vn -0.5355365 0 0.8445121
vn -0.5355365 0 0.8445121
vn -0.5372003 0 0.8434547
vn -0.5372003 0 0.8434547
vn -0.5372003 0 0.8434547
vn -0.5372003 0 0.8434547
vn -0.5372003 0 0.8434547
vn -0.5372003 0 0.8434547
vn -0.5372003 0 0.8434547
vn 0.8448191 0 0.5350521
vn 0.8448191 0 0.5350521
vn 0.8448191 0 0.5350521
vn 0.8448191 0 0.5350521
vn 0.8445466 0 0.535482
vn 0.8445466 0 0.535482
vn 0.8445466 0 0.535482
vn 0.8445466 0 0.535482
vn 0.8445466 0 0.535482
vn 0.8445466 0 0.535482
vn 0.8445466 0 0.535482
vn 0.5355191 0 -0.8445231
vn 0.5355191 0 -0.8445231
vn 0.5355191 0 -0.8445231
vn 0.5355191 0 -0.8445231
vn -0.8445204 0 -0.5355233
vn -0.8445204 0 -0.5355233
vn -0.8445204 0 -0.5355233
vn -0.8445204 0 -0.5355233
vn -0.5356439 0 0.844444
vn -0.5356439 0 0.844444
vn -0.5356439 0 0.844444
vn -0.5356439 0 0.844444
vn 0.8445013 0 0.5355535
vn 0.8445013 0 0.5355535
vn 0.8445013 0 0.5355535
vn 0.8445013 0 0.5355535
vn -0.5354859 0 0.8445442
vn -0.5354859 0 0.8445442
vn -0.5354859 0 0.8445442
vn -0.5354859 0 0.8445442
vn -0.5354859 0 0.8445442
vn -0.5354859 0 0.8445442
vn -0.5354859 0 0.8445442
vn -0.5354859 0 0.8445442
vn -0.5354859 0 0.8445442
vn -0.5354859 0 0.8445442
vn -0.5354859 0 0.8445442
vn -0.5354859 0 0.8445442
vn -0.5356031 0 0.8444698
vn -0.5356031 0 0.8444698
vn -0.5356031 0 0.8444698
vn -0.5356031 0 0.8444698
vn 0.8445228 0 0.5355195
vn 0.8445228 0 0.5355195
vn 0.8445228 0 0.5355195
vn 0.8445228 0 0.5355195
vn 0.5355242 0 -0.8445199
vn 0.5355242 0 -0.8445199
vn 0.5355242 0 -0.8445199
vn 0.5355242 0 -0.8445199
vn -0.8445185 0 -0.5355264
vn -0.8445185 0 -0.5355264
vn -0.8445185 0 -0.5355264
vn -0.8445185 0 -0.5355264
vn -0.5355492 0 0.8445041
vn -0.5355492 0 0.8445041
vn -0.5355492 0 0.8445041
vn -0.5355492 0 0.8445041
vn -0.5355492 0 0.8445041
vn -0.5355492 0 0.8445041
vn -0.5355492 4.651093E-11 0.8445041
vn -0.5355492 4.651093E-11 0.8445041
vn -0.5355492 4.651093E-11 0.8445041
vn 0.8445078 0 0.5355434
vn 0.8445078 0 0.5355434
vn 0.8445078 0 0.5355434
vn 0.8445078 0 0.5355434
vn 0.8445078 0 0.5355434
vn 0.8445078 0 0.5355434
vn 0.8445078 0 0.5355434
vn 0.8445013 0 0.5355535
vn 0.8445013 0 0.5355535
vn 0.8445013 0 0.5355535
vn 0.8445013 0 0.5355535
vn -0.5358717 0 0.8442994
vn -0.5358717 0 0.8442994
vn -0.5358717 0 0.8442994
vn -0.5358717 0 0.8442994
vn -0.5358717 0 0.8442994
vn -0.5358717 0 0.8442994
vn -0.5358717 0 0.8442994
vn -0.5358717 0 0.8442994
vn -0.5358717 0 0.8442994
vn -0.5358717 0 0.8442994
vn -0.5358717 0 0.8442994
vn -0.84454 0 -0.5354925
vn -0.84454 0 -0.5354925
vn -0.84454 0 -0.5354925
vn -0.84454 1.475876E-09 -0.5354925
vn -0.84454 7.37938E-10 -0.5354925
vn -0.84454 0 -0.5354925
vn -0.84454 7.37938E-10 -0.5354925
vn -0.8460056 0 -0.533174
vn -0.8460056 0 -0.533174
vn -0.8460056 0 -0.533174
vn -0.8460056 0 -0.533174
vn -0.8460056 0 -0.533174
vn -0.8460056 0 -0.533174
vn -0.8460056 6.718483E-10 -0.533174
vn -0.8460056 6.718483E-10 -0.533174
vn -0.8460056 6.718483E-10 -0.533174
vn 0.8447782 0 0.5351167
vn 0.8447782 0 0.5351167
vn 0.8447782 0 0.5351167
vn 0.8447782 0 0.5351167
vn 0.84454 0 0.5354925
vn 0.84454 0 0.5354925
vn 0.84454 0 0.5354925
vn 0.84454 0 0.5354925
vn 0.84454 0 0.5354925
vn 0.84454 0 0.5354925
vn 0.84454 0 0.5354924
vn 0.84454 0 0.5354924
vn 0.84454 0 0.5354924
vn 0.84454 -1.075775E-09 0.5354925
vn 0.84454 -1.075775E-09 0.5354925
vn 0.84454 -1.075775E-09 0.5354925
vn 0.5354821 0 -0.8445466
vn 0.5354821 0 -0.8445466
vn 0.5354821 0 -0.8445466
vn 0.5354821 4.177629E-10 -0.8445466
vn 0.5354821 4.177629E-10 -0.8445466
vn 0.5354821 4.177629E-10 -0.8445466
vn 0.535482 0 -0.8445466
vn 0.535482 0 -0.8445466
vn 0.535482 0 -0.8445466
vn 0.5354821 -7.676329E-10 -0.8445466
vn 0.5354821 -7.676329E-10 -0.8445466
vn 0.5354821 -7.676329E-10 -0.8445466
vn 0 -1 0
vn 0 -1 0
vn 0 -1 0
vn 0 -1 0
vn 0 -1 0
vn 0 -1 0
vn 0 -1 0
vn 0 -1 0
vn 0 -1 0
vn 0 -1 0
vn 0 -1 0
vn 0 -1 0
vn 0 -1 0
vn 0 -1 0

g CDNNDG02_0000280
f 1/1/1 2/2/2 3/3/3
f 4/4/4 1/1/1 3/3/3
f 5/5/5 6/6/6 7/7/7
f 8/8/8 9/9/9 10/10/10
f 11/11/11 12/12/12 13/13/13
f 14/14/14 15/15/15 16/16/16
f 17/17/17 18/18/18 19/19/19
f 20/20/20 21/21/21 22/22/22
f 23/23/23 24/24/24 25/25/25
f 26/26/26 27/27/27 28/28/28
f 29/29/29 30/30/30 31/31/31
f 32/32/32 33/33/33 34/34/34
f 35/35/35 36/36/36 37/37/37
f 38/38/38 39/39/39 40/40/40
f 41/41/41 42/42/42 43/43/43
f 44/44/44 45/45/45 46/46/46
f 47/47/47 48/48/48 49/49/49
f 50/50/50 51/51/51 52/52/52
f 53/53/53 54/54/54 55/55/55
f 56/56/56 57/57/57 58/58/58
f 59/59/59 60/60/60 61/61/61
f 62/62/62 63/63/63 64/64/64
f 65/65/65 66/66/66 67/67/67
f 68/68/68 69/69/69 70/70/70
f 71/71/71 72/72/72 73/73/73
f 74/74/74 75/75/75 76/76/76
f 77/77/77 79/79/79 80/80/80
f 77/77/77 78/78/78 79/79/79
f 81/81/81 83/83/83 84/84/84
f 81/81/81 82/82/82 83/83/83
f 85/85/85 86/86/86 87/87/87
f 88/88/88 89/89/89 90/90/90
f 91/91/91 92/92/92 93/93/93
f 97/97/97 94/94/94 96/96/96
f 96/96/96 94/94/94 95/95/95
f 98/98/98 99/99/99 100/100/100
f 103/103/103 104/104/104 101/101/101
f 103/103/103 101/101/101 102/102/102
f 106/106/106 107/107/107 105/105/105
f 105/105/105 107/107/107 108/108/108
f 110/110/110 111/111/111 112/112/112
f 109/109/109 110/110/110 112/112/112
f 113/113/113 114/114/114 115/115/115
f 116/116/116 118/118/118 119/119/119
f 116/116/116 117/117/117 118/118/118
f 123/123/123 120/120/120 122/122/122
f 122/122/122 120/120/120 121/121/121
f 127/127/127 124/124/124 126/126/126
f 126/126/126 124/124/124 125/125/125
f 128/128/128 130/130/130 131/131/131
f 128/128/128 129/129/129 130/130/130
f 132/132/132 133/133/133 134/134/134
f 135/135/135 136/136/136 137/137/137
f 138/138/138 139/139/139 140/140/140
f 141/141/141 142/142/142 143/143/143
f 144/144/144 146/146/146 147/147/147
f 144/144/144 145/145/145 146/146/146
f 149/149/149 150/150/150 151/151/151
f 148/148/148 149/149/149 151/151/151
f 155/155/155 152/152/152 154/154/154
f 153/153/153 154/154/154 152/152/152
f 159/159/159 156/156/156 158/158/158
f 158/158/158 156/156/156 157/157/157
f 160/160/160 161/161/161 162/162/162
f 163/163/163 164/164/164 165/165/165
f 166/166/166 167/167/167 168/168/168
f 169/169/169 170/170/170 171/171/171
f 175/175/175 172/172/172 174/174/174
f 173/173/173 174/174/174 172/172/172
f 176/176/176 178/178/178 179/179/179
f 176/176/176 177/177/177 178/178/178
f 183/183/183 180/180/180 182/182/182
f 182/182/182 180/180/180 181/181/181
f 184/184/184 186/186/186 187/187/187
f 186/186/186 184/184/184 185/185/185
f 188/188/188 189/189/189 190/190/190
f 191/191/191 192/192/192 193/193/193
f 197/197/197 195/195/195 196/196/196
f 197/197/197 194/194/194 195/195/195
f 198/198/198 199/199/199 200/200/200
f 201/201/201 202/202/202 203/203/203
f 204/204/204 205/205/205 206/206/206
f 207/207/207 209/209/209 210/210/210
f 207/207/207 208/208/208 209/209/209
f 211/211/211 212/212/212 213/213/213
f 214/214/214 215/215/215 216/216/216
f 217/217/217 218/218/218 219/219/219
f 220/220/220 221/221/221 222/222/222
f 223/223/223 224/224/224 225/225/225
f 226/226/226 227/227/227 228/228/228
f 229/229/229 230/230/230 231/231/231
f 232/232/232 233/233/233 234/234/234
f 248/248/248 235/235/235 246/246/246
f 247/247/247 248/248/248 246/246/246
f 240/240/240 236/236/236 239/239/239
f 246/246/246 236/236/236 240/240/240
f 236/236/236 238/238/238 239/239/239
f 237/237/237 238/238/238 236/236/236
f 246/246/246 235/235/235 236/236/236
f 243/243/243 241/241/241 242/242/242
f 240/240/240 241/241/241 244/244/244
f 244/244/244 246/246/246 240/240/240
f 243/243/243 244/244/244 241/241/241
f 244/244/244 245/245/245 246/246/246
