v -7.797734 6.739459 5.312519
v -5.543735 6.739461 6.664519
v 0.3872655 6.740047 -3.130481
v -2.054734 6.740048 -4.715481
v -5.543735 6.739461 6.664519
v -1.790735 6.739459 9.099519
v 0.3872655 6.740047 -3.130481
v 4.934266 6.740413 -8.740481
v 7.144266 6.740297 -4.666481
v 8.837266 6.740457 -7.275481
v 4.934266 6.740413 -8.740481
v 8.837266 6.740457 -7.275481
v 5.421266 6.740459 -9.492481
v -7.797734 6.739459 5.312519
v -7.988735 6.739441 5.604518
v -5.783734 6.739439 7.035519
v -5.543735 6.739461 6.664519
v 2.699265 6.740203 -5.297482
v 6.674179 6.740287 -4.733213
v 4.934266 6.740413 -8.740481
v 4.934266 6.740413 -8.740481
v 6.783266 6.740298 -4.901481
v 7.144266 6.740297 -4.666481
v 4.934266 6.740413 -8.740481
v 6.674179 6.740287 -4.733213
v 6.783266 6.740298 -4.901481
v -8.336735 6.739459 4.962519
v -7.797734 6.739459 5.312519
v -2.054734 6.740048 -4.715481
v 2.699265 6.740203 -5.297482
v 6.442266 6.740266 -4.375481
v 6.674179 6.740287 -4.733213
v 2.699265 6.740203 -5.297482
v 6.803266 6.740265 -4.140481
v 6.442266 6.740266 -4.375481
v 1.765265 6.740116 -3.858481
v 6.803266 6.740265 -4.140481
v 2.699265 6.740203 -5.297482
v 0.3872655 6.740047 -3.130481
v 6.803266 6.740265 -4.140481
v 1.765265 6.740116 -3.858481
v -1.790735 6.739459 9.099519
v 6.803266 6.740265 -4.140481
v 0.3872655 6.740047 -3.130481
v 6.442266 7.65328 -4.375481
v 7.144266 7.65128 -4.666481
v 6.783266 7.65328 -4.901481
v 6.442266 7.65328 -4.375481
v 6.803266 7.65328 -4.140481
v 7.144266 7.65128 -4.666481
v 2.699265 5.88628 -5.297482
v 4.934266 5.88728 -8.740481
v 3.864265 5.53928 -9.434482
v 1.629266 5.53928 -5.992481
v 2.699265 5.88628 -5.297482
v 3.864265 5.53928 -9.434482
v -8.336735 6.739459 4.962519
v -8.336735 -6.703203 4.962519
v -7.797734 6.739459 5.312519
v -7.797734 -6.703203 5.312519
v -7.988735 6.739441 5.604518
v -7.893234 -6.703203 5.458519
v -7.988735 -6.703203 5.604518
v -7.893234 -6.703203 5.458519
v -7.797734 6.739459 5.312519
v -7.797734 -6.703203 5.312519
v -7.988735 6.739441 5.604518
v -7.797734 6.739459 5.312519
v -7.893234 -6.703203 5.458519
v -7.988735 6.739441 5.604518
v -7.988735 -6.703203 5.604518
v -5.783734 6.739439 7.035519
v -5.783734 -6.703203 7.035519
v -5.663734 -6.703203 6.850019
v -5.543735 -6.703203 6.664519
v -5.543735 6.739461 6.664519
v -5.783734 6.739439 7.035519
v -5.783734 -6.703203 7.035519
v -5.663734 -6.703203 6.850019
v -5.783734 6.739439 7.035519
v -5.663734 -6.703203 6.850019
v -5.543735 6.739461 6.664519
v -3.667234 -6.703203 7.882019
v -1.790735 -6.703203 9.099519
v -1.790735 6.739459 9.099519
v -5.543735 6.739461 6.664519
v -5.543735 -6.703203 6.664519
v -3.667234 -6.703203 7.882019
v -5.543735 6.739461 6.664519
v -3.667234 -6.703203 7.882019
v -1.790735 6.739459 9.099519
v 2.506265 -6.703203 2.479519
v 6.803266 -6.703203 -4.140481
v 6.803266 6.740265 -4.140481
v -1.790735 6.739459 9.099519
v -1.790735 -6.703203 9.099519
v 2.506265 -6.703203 2.479519
v -1.790735 6.739459 9.099519
v 2.506265 -6.703203 2.479519
v 6.803266 6.740265 -4.140481
v 7.144266 -6.703203 -4.666481
v 7.144266 6.740297 -4.666481
v 6.803266 6.740265 -4.140481
v 6.803266 -6.703203 -4.140481
v 7.990766 -6.703203 -5.970981
v 8.837266 -6.703203 -7.275481
v 8.837266 6.740457 -7.275481
v 7.144266 6.740297 -4.666481
v 7.144266 -6.703203 -4.666481
v 7.990766 -6.703203 -5.970981
v 7.144266 6.740297 -4.666481
v 7.990766 -6.703203 -5.970981
v 8.837266 6.740457 -7.275481
v 6.803266 6.740265 -4.140481
v 7.144266 7.65128 -4.666481
v 6.803266 7.65328 -4.140481
v 7.144266 6.740297 -4.666481
v 8.837266 -6.703203 -7.275481
v 5.421266 -6.703203 -9.492481
v 8.837266 6.740457 -7.275481
v 5.421266 6.740459 -9.492481
v 4.934266 6.740413 -8.740481
v 5.177765 -6.703203 -9.116482
v 4.934266 5.88728 -8.740481
v 4.934266 5.88728 -8.740481
v 5.177765 -6.703203 -9.116482
v 4.934266 -6.703203 -8.740481
v 5.177765 -6.703203 -9.116482
v 5.421266 6.740459 -9.492481
v 5.421266 -6.703203 -9.492481
v 4.934266 6.740413 -8.740481
v 5.421266 6.740459 -9.492481
v 5.177765 -6.703203 -9.116482
v 2.699265 5.88628 -5.297482
v 2.699265 6.740203 -5.297482
v 4.934266 5.88728 -8.740481
v 4.934266 6.740413 -8.740481
v 2.699265 5.88628 -5.297482
v 2.699265 -6.703203 -5.297482
v 1.765265 -6.703203 -3.858481
v 1.765265 6.740116 -3.858481
v 1.765265 6.740116 -3.858481
v 2.699265 6.740203 -5.297482
v 2.699265 5.88628 -5.297482
v 0.3872655 6.740047 -3.130481
v 1.076265 -6.703203 -3.494481
v 0.3872655 -6.703203 -3.130481
v 1.076265 -6.703203 -3.494481
v 1.765265 6.740116 -3.858481
v 1.765265 -6.703203 -3.858481
v 0.3872655 6.740047 -3.130481
v 1.765265 6.740116 -3.858481
v 1.076265 -6.703203 -3.494481
v 0.3872655 -6.703203 -3.130481
v -2.054734 -6.703203 -4.715481
v 0.3872655 6.740047 -3.130481
v -2.054734 6.740048 -4.715481
v -8.336735 -6.703203 4.962519
v -8.336735 6.739459 4.962519
v -2.054734 -6.703203 -4.715481
v -2.054734 6.740048 -4.715481
v 6.442266 6.740266 -4.375481
v 6.803266 7.65328 -4.140481
v 6.442266 7.65328 -4.375481
v 6.803266 6.740265 -4.140481
v 7.144266 7.65128 -4.666481
v 7.144266 6.740297 -4.666481
v 6.783266 6.740298 -4.901481
v 6.783266 7.65328 -4.901481
v 6.442266 7.65328 -4.375481
v 6.674179 6.740287 -4.733213
v 6.442266 6.740266 -4.375481
v 6.674179 6.740287 -4.733213
v 6.783266 7.65328 -4.901481
v 6.783266 6.740298 -4.901481
v 6.442266 7.65328 -4.375481
v 6.783266 7.65328 -4.901481
v 6.674179 6.740287 -4.733213
v 4.934266 -6.703203 -8.740481
v 3.864265 5.53928 -9.434482
v 4.934266 5.88728 -8.740481
v 3.864265 -6.703203 -9.434482
v 1.629266 -6.703203 -5.992481
v 3.864265 5.53928 -9.434482
v 3.864265 -6.703203 -9.434482
v 1.629266 5.53928 -5.992481
v 2.699265 -6.703203 -5.297482
v 2.699265 5.88628 -5.297482
v 1.629266 5.53928 -5.992481
v 1.629266 -6.703203 -5.992481
v 4.934266 -6.703203 -8.740481
v 7.990766 -6.703203 -5.970981
v 7.144266 -6.703203 -4.666481
v -7.797734 -6.703203 5.312519
v -2.054734 -6.703203 -4.715481
v 0.3872655 -6.703203 -3.130481
v -8.336735 -6.703203 4.962519
v -7.988735 -6.703203 5.604518
v -7.893234 -6.703203 5.458519
v -5.783734 -6.703203 7.035519
v -5.543735 -6.703203 6.664519
v -5.663734 -6.703203 6.850019
v 1.076265 -6.703203 -3.494481
v 2.506265 -6.703203 2.479519
v -3.667234 -6.703203 7.882019
v -1.790735 -6.703203 9.099519
v 1.765265 -6.703203 -3.858481
v 6.803266 -6.703203 -4.140481
v 8.837266 -6.703203 -7.275481
v 5.177765 -6.703203 -9.116482
v 5.421266 -6.703203 -9.492481
v 2.699265 -6.703203 -5.297482
v 3.864265 -6.703203 -9.434482
v 1.629266 -6.703203 -5.992481
vt 0.525880 0.013813
vt 0.573371 0.065983
vt 0.227071 0.202220
vt 0.171373 0.145693
vt 0.573371 0.065983
vt 0.658932 0.152859
vt 0.227071 0.202220
vt 0.028628 0.306807
vt 0.172189 0.358164
vt 0.079946 0.397062
vt 0.028628 0.306807
vt 0.079946 0.397062
vt 0.002041 0.317996
vt 0.525880 0.013813
vt 0.536206 0.009423
vt 0.586490 0.060468
vt 0.573371 0.065983
vt 0.150361 0.255453
vt 0.169881 0.347302
vt 0.028628 0.306807
vt 0.028628 0.306807
vt 0.163932 0.349808
vt 0.172189 0.358164
vt 0.028628 0.306807
vt 0.169881 0.347302
vt 0.163932 0.349808
vt 0.513582 0.001335
vt 0.525880 0.013813
vt 0.171373 0.145693
vt 0.150361 0.255453
vt 0.182529 0.341973
vt 0.169881 0.347302
vt 0.150361 0.255453
vt 0.190787 0.350329
vt 0.182529 0.341973
vt 0.201240 0.233992
vt 0.190787 0.350329
vt 0.150361 0.255453
vt 0.227071 0.202220
vt 0.190787 0.350329
vt 0.201240 0.233992
vt 0.658932 0.152859
vt 0.190787 0.350329
vt 0.227071 0.202220
vt 0.117342 0.975968
vt 0.107710 0.990985
vt 0.100000 0.983233
vt 0.117342 0.975968
vt 0.125043 0.983716
vt 0.107710 0.990985
vt 0.330229 0.898844
vt 0.210310 0.949912
vt 0.187755 0.924207
vt 0.307583 0.873164
vt 0.330229 0.898844
vt 0.187755 0.924207
vt 0.602041 0.921666
vt 0.661164 0.873164
vt 0.614161 0.933870
vt 0.673084 0.885168
vt 0.687583 0.921640
vt 0.741360 0.875297
vt 0.746293 0.873164
vt 0.741360 0.875297
vt 0.677551 0.925976
vt 0.736426 0.877429
vt 0.687583 0.921640
vt 0.677551 0.925976
vt 0.741360 0.875297
vt 0.824490 0.724601
vt 0.883828 0.675567
vt 0.874531 0.774942
vt 0.933046 0.725080
vt 0.917600 0.908785
vt 0.911309 0.911416
vt 0.853061 0.878513
vt 0.865855 0.873164
vt 0.923892 0.906154
vt 0.917600 0.908785
vt 0.865855 0.873164
vt 0.917600 0.908785
vt 0.853061 0.878513
vt 0.776550 0.717850
vt 0.818607 0.760133
vt 0.761032 0.811673
vt 0.675510 0.725694
vt 0.734493 0.675567
vt 0.776550 0.717850
vt 0.675510 0.725694
vt 0.776550 0.717850
vt 0.761032 0.811673
vt 0.409078 0.529945
vt 0.178879 0.626907
vt 0.112872 0.597702
vt 0.580975 0.400534
vt 0.639289 0.432979
vt 0.409078 0.529945
vt 0.580975 0.400534
vt 0.409078 0.529945
vt 0.112872 0.597702
vt 0.160589 0.634601
vt 0.094276 0.605525
vt 0.112872 0.597702
vt 0.178879 0.626907
vt 0.115229 0.653701
vt 0.069869 0.672802
vt 0.002041 0.644364
vt 0.094276 0.605525
vt 0.160589 0.634601
vt 0.115229 0.653701
vt 0.094276 0.605525
vt 0.115229 0.653701
vt 0.002041 0.644364
vt 0.112872 0.597702
vt 0.089702 0.603520
vt 0.108309 0.595683
vt 0.094276 0.605525
vt 0.214286 0.975968
vt 0.214286 0.975968
vt 0.214286 0.975968
vt 0.214286 0.975968
vt 0.434552 0.801492
vt 0.489822 0.752907
vt 0.438951 0.798005
vt 0.438951 0.798005
vt 0.489822 0.752907
vt 0.502799 0.747389
vt 0.489822 0.752907
vt 0.408163 0.812714
vt 0.476844 0.758426
vt 0.434552 0.801492
vt 0.408163 0.812714
vt 0.489822 0.752907
vt 0.559647 0.746556
vt 0.555373 0.749992
vt 0.438951 0.798005
vt 0.434552 0.801492
vt 0.559647 0.746556
vt 0.621632 0.696736
vt 0.671299 0.675567
vt 0.605871 0.728469
vt 0.605871 0.728469
vt 0.555373 0.749992
vt 0.559647 0.746556
vt 0.183673 0.975968
vt 0.183673 0.975968
vt 0.183673 0.975968
vt 0.183673 0.975968
vt 0.183673 0.975968
vt 0.183673 0.975968
vt 0.183673 0.975968
vt 0.183673 0.975968
vt 0.183673 0.975968
vt 0.224490 0.975968
vt 0.224490 0.975968
vt 0.224490 0.975968
vt 0.224490 0.975968
vt 0.403093 0.675567
vt 0.342588 0.724786
vt 0.068149 0.818358
vt 0.002041 0.869966
vt 0.134536 0.975968
vt 0.137795 0.986926
vt 0.130612 0.979402
vt 0.141711 0.983483
vt 0.173469 0.975968
vt 0.173469 0.975968
vt 0.173469 0.975968
vt 0.173469 0.975968
vt 0.164009 0.979360
vt 0.156609 0.980764
vt 0.168206 0.975968
vt 0.156609 0.980764
vt 0.146939 0.986420
vt 0.151155 0.983020
vt 0.164009 0.979360
vt 0.146939 0.986420
vt 0.156609 0.980764
vt 0.193878 0.975968
vt 0.193878 0.975968
vt 0.193878 0.975968
vt 0.193878 0.975968
vt 0.182639 0.873164
vt 0.002041 0.972292
vt 0.064250 0.923637
vt 0.122230 0.921052
vt 0.418095 0.897074
vt 0.357117 0.946480
vt 0.334694 0.920824
vt 0.394327 0.873164
vt 0.244898 0.975968
vt 0.244898 0.975968
vt 0.244898 0.975968
vt 0.244898 0.975968
vt 0.244898 0.975968
vt 0.244898 0.975968
vt 0.244898 0.975968
vt 0.244898 0.975968
vt 0.244898 0.975968
vt 0.244898 0.975968
vt 0.244898 0.975968
vt 0.244898 0.975968
vt 0.244898 0.975968
vt 0.244898 0.975968
vt 0.244898 0.975968
vt 0.244898 0.975968
vt 0.244898 0.975968
vt 0.244898 0.975968
vt 0.244898 0.975968
vt 0.244898 0.975968
vt 0.244898 0.975968
vt 0.244898 0.975968
vt 0.244898 0.975968
vt 0.244898 0.975968
vn -2.729969E-05 1 4.319697E-05
vn -2.729936E-05 1 4.31973E-05
vn -2.729969E-05 1 4.319697E-05
vn -2.730003E-05 1 4.319664E-05
vn -2.729953E-05 1 4.319719E-05
vn -2.729953E-05 1 4.319719E-05
vn -2.729953E-05 1 4.319719E-05
vn -2.730037E-05 1 4.319681E-05
vn -2.730037E-05 1 4.319681E-05
vn -2.730037E-05 1 4.319681E-05
vn -2.730066E-05 1 4.319758E-05
vn -2.730066E-05 1 4.319758E-05
vn -2.730066E-05 1 4.319758E-05
vn -2.730226E-05 1 4.320183E-05
vn -2.730289E-05 1 4.320256E-05
vn -2.730226E-05 1 4.320183E-05
vn -2.730164E-05 1 4.32011E-05
vn -2.729979E-05 1 4.319633E-05
vn -2.729979E-05 1 4.319633E-05
vn -2.729979E-05 1 4.319633E-05
vn -2.728246E-05 1 4.31871E-05
vn -2.728246E-05 1 4.31871E-05
vn -2.728246E-05 1 4.31871E-05
vn -2.731854E-05 1 4.320448E-05
vn -2.731854E-05 1 4.320448E-05
vn -2.731854E-05 1 4.320448E-05
vn -2.730558E-05 1 4.319346E-05
vn -2.730558E-05 1 4.319346E-05
vn -2.730558E-05 1 4.319346E-05
vn -2.729837E-05 1 4.318631E-05
vn -2.729837E-05 1 4.318631E-05
vn -2.729837E-05 1 4.318631E-05
vn -2.730836E-05 1 4.322688E-05
vn -2.730836E-05 1 4.322688E-05
vn -2.730836E-05 1 4.322688E-05
vn -2.730016E-05 1 4.319781E-05
vn -2.730016E-05 1 4.319781E-05
vn -2.730016E-05 1 4.319781E-05
vn -2.730082E-05 1 4.318609E-05
vn -2.730082E-05 1 4.318609E-05
vn -2.730082E-05 1 4.318609E-05
vn -2.729906E-05 1 4.319727E-05
vn -2.729906E-05 1 4.319727E-05
vn -2.729906E-05 1 4.319727E-05
vn 0.003895951 0.9999892 0.002525702
vn 0.003895951 0.9999892 0.002525702
vn 0.003895951 0.9999892 0.002525702
vn 0.001740596 0.9999949 -0.002673852
vn 0.001740596 0.9999949 -0.002673852
vn 0.001740596 0.9999949 -0.002673852
vn -0.2209269 0.9647301 -0.143133
vn -0.2209269 0.9647301 -0.143133
vn -0.2209269 0.9647301 -0.143133
vn -0.2201019 0.9649504 -0.1429191
vn -0.2201019 0.9649504 -0.1429191
vn -0.2201019 0.9649504 -0.1429191
vn -0.5446054 0 0.8386924
vn -0.5446054 0 0.8386924
vn -0.5446054 0 0.8386924
vn -0.5446054 0 0.8386924
vn -0.8368686 0 -0.5474038
vn -0.8368686 0 -0.5474038
vn -0.8368686 0 -0.5474038
vn -0.8368686 0 -0.5474038
vn -0.8368686 0 -0.5474038
vn -0.8368686 0 -0.5474038
vn -0.8368686 0 -0.5474038
vn -0.8368686 0 -0.5474038
vn -0.8368686 0 -0.5474038
vn -0.5443865 0 0.8388345
vn -0.5443865 0 0.8388345
vn -0.5443865 0 0.8388345
vn -0.5443865 0 0.8388345
vn 0.8396308 0 0.5431575
vn 0.8396308 0 0.5431575
vn 0.8396308 0 0.5431575
vn 0.8396308 0 0.5431575
vn 0.8396308 0 0.5431575
vn 0.8396308 0 0.5431575
vn 0.8396308 0 0.5431575
vn 0.8396308 0 0.5431575
vn 0.8396308 0 0.5431575
vn -0.5442889 0 0.8388978
vn -0.5442889 0 0.8388978
vn -0.5442889 0 0.8388978
vn -0.5442889 0 0.8388978
vn -0.5442889 0 0.8388978
vn -0.5442889 0 0.8388978
vn -0.5442889 -2.905989E-11 0.8388978
vn -0.5442889 -2.905989E-11 0.8388978
vn -0.5442889 -2.905989E-11 0.8388978
vn 0.8387908 0 0.5444538
vn 0.8387908 0 0.5444538
vn 0.8387908 0 0.5444538
vn 0.8387908 0 0.5444538
vn 0.8387908 0 0.5444538
vn 0.8387908 0 0.5444538
vn 0.8387908 -2.092717E-10 0.5444538
vn 0.8387908 -2.092717E-10 0.5444538
vn 0.8387908 -2.092717E-10 0.5444538
vn 0.839099 0 0.5439787
vn 0.839099 0 0.5439787
vn 0.839099 0 0.5439787
vn 0.839099 0 0.5439787
vn 0.8388621 0 0.544344
vn 0.8388621 0 0.544344
vn 0.8388621 0 0.544344
vn 0.8388621 0 0.544344
vn 0.8388621 0 0.544344
vn 0.8388621 0 0.544344
vn 0.8388621 -1.885509E-10 0.544344
vn 0.8388621 -1.885509E-10 0.544344
vn 0.8388621 -1.885509E-10 0.544344
vn 0.839099 0 0.5439787
vn 0.839099 0 0.5439787
vn 0.839099 0 0.5439787
vn 0.839099 0 0.5439787
vn 0.5444013 0 -0.8388249
vn 0.5444013 0 -0.8388249
vn 0.5444013 0 -0.8388249
vn 0.5444013 0 -0.8388249
vn -0.8393605 0 -0.5435752
vn -0.8393605 0 -0.5435752
vn -0.8393605 0 -0.5435752
vn -0.8393605 0 -0.5435752
vn -0.8393605 0 -0.5435752
vn -0.8393605 0 -0.5435752
vn -0.8393605 0 -0.5435752
vn -0.8393605 0 -0.5435752
vn -0.8393605 0 -0.5435752
vn -0.8393605 1.817112E-12 -0.5435752
vn -0.8393605 1.817112E-12 -0.5435752
vn -0.8393605 1.817112E-12 -0.5435752
vn -0.8387718 0 -0.5444831
vn -0.8387718 0 -0.5444831
vn -0.8387718 0 -0.5444831
vn -0.8387718 0 -0.5444831
vn -0.838803 0 -0.544435
vn -0.838803 0 -0.544435
vn -0.838803 0 -0.544435
vn -0.838803 0 -0.544435
vn -0.838803 0 -0.544435
vn -0.838803 0 -0.544435
vn -0.838803 0 -0.544435
vn -0.467121 0 -0.8841934
vn -0.467121 0 -0.8841934
vn -0.467121 0 -0.8841934
vn -0.467121 0 -0.8841934
vn -0.467121 0 -0.8841934
vn -0.467121 0 -0.8841934
vn -0.467121 -2.961625E-11 -0.8841934
vn -0.467121 -2.961625E-11 -0.8841934
vn -0.467121 -2.961625E-11 -0.8841934
vn 0.5444329 0 -0.8388044
vn 0.5444329 0 -0.8388044
vn 0.5444329 0 -0.8388044
vn 0.5444329 0 -0.8388044
vn -0.838788 0 -0.5444582
vn -0.838788 0 -0.5444582
vn -0.838788 0 -0.5444582
vn -0.838788 0 -0.5444582
vn -0.5455594 0 0.8380721
vn -0.5455594 0 0.8380721
vn -0.5455594 0 0.8380721
vn -0.5455594 0 0.8380721
vn 0.5455594 0 -0.8380721
vn 0.5455594 0 -0.8380721
vn 0.5455594 0 -0.8380721
vn 0.5455594 0 -0.8380721
vn -0.839099 0 -0.5439787
vn -0.839099 0 -0.5439787
vn -0.839099 0 -0.5439787
vn -0.839099 0 -0.5439786
vn -0.839099 0 -0.5439786
vn -0.839099 0 -0.5439786
vn -0.839099 -1.929281E-09 -0.5439786
vn -0.839099 -1.929281E-09 -0.5439786
vn -0.839099 -1.929281E-09 -0.5439786
vn 0.5441613 0 -0.8389806
vn 0.5441613 0 -0.8389806
vn 0.5441613 0 -0.8389806
vn 0.5441613 0 -0.8389806
vn -0.8386996 0 -0.5445943
vn -0.8386996 0 -0.5445943
vn -0.8386996 0 -0.5445943
vn -0.8386996 0 -0.5445943
vn -0.5447128 0 0.8386226
vn -0.5447128 0 0.8386226
vn -0.5447128 0 0.8386226
vn -0.5447128 0 0.8386226
vn 0 -1 0
vn 0 -1 0
vn 0 -1 0
vn 0 -1 0
vn 0 -1 0
vn 0 -1 0
vn 0 -1 0
vn 0 -1 0
vn 0 -1 0
vn 0 -1 0
vn 0 -1 0
vn 0 -1 0
vn 0 -1 0
vn 0 -1 0
vn 0 -1 0
vn 0 -1 0
vn 0 -1 0
vn 0 -1 0
vn 0 -1 0
vn 0 -1 0
vn 0 -1 0
vn 0 -1 0
vn 0 -1 0
vn 0 -1 0

g CDNNDG02_0016070
f 1/1/1 2/2/2 3/3/3
f 4/4/4 1/1/1 3/3/3
f 5/5/5 6/6/6 7/7/7
f 8/8/8 9/9/9 10/10/10
f 11/11/11 12/12/12 13/13/13
f 14/14/14 15/15/15 16/16/16
f 17/17/17 14/14/14 16/16/16
f 18/18/18 19/19/19 20/20/20
f 21/21/21 22/22/22 23/23/23
f 24/24/24 25/25/25 26/26/26
f 27/27/27 28/28/28 29/29/29
f 30/30/30 31/31/31 32/32/32
f 33/33/33 34/34/34 35/35/35
f 36/36/36 37/37/37 38/38/38
f 39/39/39 40/40/40 41/41/41
f 42/42/42 43/43/43 44/44/44
f 45/45/45 46/46/46 47/47/47
f 48/48/48 49/49/49 50/50/50
f 51/51/51 52/52/52 53/53/53
f 54/54/54 55/55/55 56/56/56
f 57/57/57 58/58/58 59/59/59
f 59/59/59 58/58/58 60/60/60
f 61/61/61 62/62/62 63/63/63
f 64/64/64 65/65/65 66/66/66
f 67/67/67 68/68/68 69/69/69
f 70/70/70 71/71/71 72/72/72
f 72/72/72 71/71/71 73/73/73
f 74/74/74 75/75/75 76/76/76
f 77/77/77 78/78/78 79/79/79
f 80/80/80 81/81/81 82/82/82
f 83/83/83 84/84/84 85/85/85
f 86/86/86 87/87/87 88/88/88
f 89/89/89 90/90/90 91/91/91
f 92/92/92 93/93/93 94/94/94
f 95/95/95 96/96/96 97/97/97
f 98/98/98 99/99/99 100/100/100
f 101/101/101 102/102/102 103/103/103
f 104/104/104 101/101/101 103/103/103
f 105/105/105 106/106/106 107/107/107
f 108/108/108 109/109/109 110/110/110
f 111/111/111 112/112/112 113/113/113
f 114/114/114 115/115/115 116/116/116
f 114/114/114 117/117/117 115/115/115
f 118/118/118 119/119/119 120/120/120
f 121/121/121 120/120/120 119/119/119
f 122/122/122 123/123/123 124/124/124
f 125/125/125 126/126/126 127/127/127
f 128/128/128 129/129/129 130/130/130
f 131/131/131 132/132/132 133/133/133
f 134/134/134 135/135/135 136/136/136
f 136/136/136 135/135/135 137/137/137
f 138/138/138 139/139/139 140/140/140
f 141/141/141 138/138/138 140/140/140
f 142/142/142 143/143/143 144/144/144
f 145/145/145 146/146/146 147/147/147
f 148/148/148 149/149/149 150/150/150
f 151/151/151 152/152/152 153/153/153
f 154/154/154 155/155/155 156/156/156
f 157/157/157 156/156/156 155/155/155
f 158/158/158 159/159/159 160/160/160
f 160/160/160 159/159/159 161/161/161
f 162/162/162 163/163/163 164/164/164
f 163/163/163 162/162/162 165/165/165
f 166/166/166 167/167/167 168/168/168
f 169/169/169 166/166/166 168/168/168
f 170/170/170 171/171/171 172/172/172
f 173/173/173 174/174/174 175/175/175
f 176/176/176 177/177/177 178/178/178
f 179/179/179 180/180/180 181/181/181
f 180/180/180 179/179/179 182/182/182
f 183/183/183 184/184/184 185/185/185
f 183/183/183 186/186/186 184/184/184
f 187/187/187 188/188/188 189/189/189
f 189/189/189 190/190/190 187/187/187
f 191/191/191 192/192/192 193/193/193
f 194/194/194 195/195/195 196/196/196
f 197/197/197 195/195/195 194/194/194
f 198/198/198 199/199/199 200/200/200
f 194/194/194 196/196/196 201/201/201
f 199/199/199 202/202/202 200/200/200
f 196/196/196 203/203/203 204/204/204
f 199/199/199 194/194/194 202/202/202
f 194/194/194 201/201/201 202/202/202
f 201/201/201 196/196/196 204/204/204
f 205/205/205 204/204/204 206/206/206
f 201/201/201 204/204/204 205/205/205
f 207/207/207 208/208/208 204/204/204
f 191/191/191 209/209/209 192/192/192
f 191/191/191 210/210/210 209/209/209
f 210/210/210 211/211/211 209/209/209
f 212/212/212 193/193/193 208/208/208
f 212/212/212 191/191/191 193/193/193
f 212/212/212 213/213/213 191/191/191
f 214/214/214 213/213/213 212/212/212
f 207/207/207 212/212/212 208/208/208
f 203/203/203 207/207/207 204/204/204
