v -6.736395 5.993117 2.642616
v 0.003604856 5.993117 7.038616
v 0.07260486 5.993117 6.932616
v -6.736395 5.993117 2.642616
v 0.07260486 5.993117 6.932616
v 1.881605 5.993117 -3.548384
v -6.736395 5.993117 2.642616
v -3.518093 5.993117 -0.4540071
v -3.981112 5.993117 -0.7562712
v -6.736395 5.993117 2.642616
v 1.881605 5.993117 -3.548384
v -3.518093 5.993117 -0.4540071
v -3.518093 5.993117 -0.4540071
v 1.881605 5.993117 -3.548384
v -2.995075 5.993117 -1.254951
v -6.736395 5.993117 2.642616
v -3.981112 5.993117 -0.7562712
v -3.458093 5.993117 -1.557781
v -3.232433 5.993117 -1.894535
v -2.769414 5.993117 -1.591705
v 1.881605 5.993117 -3.548384
v -2.995075 5.993117 -1.254951
v 1.881605 5.993117 -3.548384
v -2.769414 5.993117 -1.591705
v -3.458093 5.993117 -1.557781
v -3.232433 5.993117 -1.894535
v -1.330395 5.993117 -5.643384
v -3.232433 5.993117 -1.894535
v 1.881605 5.993117 -3.548384
v -1.330395 5.993117 -5.643384
v -6.736395 5.993117 2.642616
v -3.458093 5.993117 -1.557781
v -1.330395 5.993117 -5.643384
v 0.07260486 5.993117 6.932616
v 5.081605 5.993117 -1.460384
v 1.881605 5.993117 -3.548384
v 0.07260486 5.993117 6.932616
v 5.408605 5.993117 -1.247384
v 5.081605 5.993117 -1.460384
v -3.636395 6.233117 -0.8043844
v -2.995075 5.993117 -1.254951
v -2.769414 5.993117 -1.591705
v -3.636395 6.233117 -0.8043844
v -2.769414 5.993117 -1.591705
v -3.116395 6.233117 -1.580384
v -3.636395 6.233117 -0.8043844
v -3.518093 5.993117 -0.4540071
v -2.995075 5.993117 -1.254951
v -3.232433 5.993117 -1.894535
v -3.116395 6.233117 -1.580384
v -2.769414 5.993117 -1.591705
v -3.981112 5.993117 -0.7562712
v -3.518093 5.993117 -0.4540071
v -3.636395 6.233117 -0.8043844
v -3.981112 5.993117 -0.7562712
v -3.636395 6.233117 -0.8043844
v -3.458093 5.993117 -1.557781
v -3.458093 5.993117 -1.557781
v -3.116395 6.233117 -1.580384
v -3.232433 5.993117 -1.894535
v -3.636395 6.233117 -0.8043844
v -3.116395 6.233117 -1.580384
v -3.458093 5.993117 -1.557781
v 1.881605 2.662117 -3.548384
v 5.081605 2.662117 -1.460384
v 2.305605 2.662117 -4.196384
v 1.428605 2.662117 -4.768384
v 2.305605 2.662117 -4.196384
v 3.092605 2.662117 -6.839385
v 1.428605 2.662117 -4.768384
v 3.092605 2.662117 -6.839385
v 2.873605 2.662117 -6.982384
v 5.081605 2.662117 -1.460384
v 6.896605 2.662117 -4.242384
v 6.629605 2.662117 -4.416384
v 2.305605 2.662117 -4.196384
v 5.081605 2.662117 -1.460384
v 6.629605 2.662117 -4.416384
v 2.305605 2.662117 -4.196384
v 6.629605 2.662117 -4.416384
v 3.092605 2.662117 -6.839385
v 3.092605 2.662117 -6.839385
v 6.629605 2.662117 -4.416384
v 6.929605 2.662117 -4.876384
v 3.339605 2.662117 -7.218384
v -6.736395 -5.538518 2.642616
v 0.003604856 -5.538518 7.038616
v 0.003604856 5.993117 7.038616
v -6.736395 5.993117 2.642616
v 0.003604856 -5.538518 7.038616
v 0.07260486 -5.538518 6.932616
v 0.07260486 5.993117 6.932616
v 0.003604856 5.993117 7.038616
v 0.07260486 -5.538518 6.932616
v 5.408605 -5.538518 -1.247384
v 5.408605 5.993117 -1.247384
v 0.07260486 5.993117 6.932616
v 5.081605 5.993117 -1.460384
v 5.408605 5.993117 -1.247384
v 5.081605 2.662117 -1.460384
v 5.081605 2.662117 -1.460384
v 5.408605 5.993117 -1.247384
v 5.408605 -5.538518 -1.247384
v 5.081605 -5.538518 -1.460384
v 1.881605 5.993117 -3.548384
v 5.081605 5.993117 -1.460384
v 5.081605 2.662117 -1.460384
v 1.881605 2.662117 -3.548384
v -1.330395 5.993117 -5.643384
v 1.881605 2.662117 -3.548384
v 1.881605 -5.538518 -3.548384
v -1.330395 -5.538518 -5.643384
v -1.330395 5.993117 -5.643384
v 1.881605 5.993117 -3.548384
v 1.881605 2.662117 -3.548384
v -6.736395 5.993117 2.642616
v -4.033395 -5.538518 -1.500384
v -6.736395 -5.538518 2.642616
v -4.033395 -5.538518 -1.500384
v -1.330395 5.993117 -5.643384
v -1.330395 -5.538518 -5.643384
v -6.736395 5.993117 2.642616
v -1.330395 5.993117 -5.643384
v -4.033395 -5.538518 -1.500384
v 1.881605 2.662117 -3.548384
v 2.305605 2.662117 -4.196384
v 2.305605 -5.538518 -4.196384
v 1.881605 -5.538518 -3.548384
v 5.081605 -5.538518 -1.460384
v 6.896605 -5.538518 -4.242384
v 6.896605 2.662117 -4.242384
v 5.081605 2.662117 -1.460384
v 6.629605 2.662117 -4.416384
v 6.896605 2.662117 -4.242384
v 6.896605 -5.538518 -4.242384
v 6.629605 -5.538518 -4.416384
v 6.629605 -5.538518 -4.416384
v 6.929605 -5.538518 -4.876384
v 6.929605 2.662117 -4.876384
v 6.629605 2.662117 -4.416384
v 3.339605 2.662117 -7.218384
v 6.929605 2.662117 -4.876384
v 6.929605 -5.538518 -4.876384
v 3.339605 -5.538518 -7.218384
v 3.092605 2.662117 -6.839385
v 3.339605 2.662117 -7.218384
v 3.339605 -5.538518 -7.218384
v 3.092605 -5.538518 -6.839385
v 2.873605 2.662117 -6.982384
v 3.092605 2.662117 -6.839385
v 3.092605 -5.538518 -6.839385
v 2.873605 -5.538518 -6.982384
v 1.428605 2.662117 -4.768384
v 2.873605 2.662117 -6.982384
v 2.873605 -5.538518 -6.982384
v 1.428605 -5.538518 -4.768384
v 1.428605 -5.538518 -4.768384
v 2.305605 -5.538518 -4.196384
v 2.305605 2.662117 -4.196384
v 1.428605 2.662117 -4.768384
v -1.330395 -5.538518 -5.643384
v 1.881605 -5.538518 -3.548384
v 2.305605 -5.538518 -4.196384
v 1.428605 -5.538518 -4.768384
v 2.873605 -5.538518 -6.982384
v 3.092605 -5.538518 -6.839385
v 3.339605 -5.538518 -7.218384
v 6.929605 -5.538518 -4.876384
v 6.629605 -5.538518 -4.416384
v 6.896605 -5.538518 -4.242384
v 5.081605 -5.538518 -1.460384
v 5.408605 -5.538518 -1.247384
v 0.07260486 -5.538518 6.932616
v 0.003604856 -5.538518 7.038616
v -6.736395 -5.538518 2.642616
v -4.033395 -5.538518 -1.500384
vt 0.246561 0.475138
vt 0.003115 0.215117
vt 0.008877 0.212400
vt 0.246561 0.475138
vt 0.008877 0.212400
vt 0.580917 0.138292
vt 0.246561 0.475138
vt 0.414306 0.349061
vt 0.431044 0.366924
vt 0.246561 0.475138
vt 0.580917 0.138292
vt 0.414306 0.349061
vt 0.414306 0.349061
vt 0.580917 0.138292
vt 0.457840 0.328461
vt 0.246561 0.475138
vt 0.431044 0.366924
vt 0.474609 0.346324
vt 0.492910 0.337439
vt 0.476141 0.319576
vt 0.580917 0.138292
vt 0.457840 0.328461
vt 0.580917 0.138292
vt 0.476141 0.319576
vt 0.474609 0.346324
vt 0.492910 0.337439
vt 0.696932 0.262213
vt 0.492910 0.337439
vt 0.580917 0.138292
vt 0.696932 0.262213
vt 0.246561 0.475138
vt 0.474609 0.346324
vt 0.696932 0.262213
vt 0.008877 0.212400
vt 0.465286 0.014829
vt 0.580917 0.138292
vt 0.008877 0.212400
vt 0.453490 0.002212
vt 0.465286 0.014829
vt 0.855032 0.809641
vt 0.876225 0.784713
vt 0.893603 0.776549
vt 0.855032 0.809641
vt 0.893603 0.776549
vt 0.895090 0.790823
vt 0.855032 0.809641
vt 0.834891 0.803637
vt 0.876225 0.784713
vt 0.917139 0.792363
vt 0.904728 0.790083
vt 0.903427 0.776549
vt 0.939645 0.792501
vt 0.925234 0.776549
vt 0.943707 0.779896
vt 0.769470 0.809132
vt 0.773972 0.795838
vt 0.811042 0.789729
vt 0.811042 0.789729
vt 0.814227 0.776549
vt 0.828506 0.781361
vt 0.773972 0.795838
vt 0.814227 0.776549
vt 0.811042 0.789729
vt 0.117644 0.971090
vt 0.003115 0.848843
vt 0.152531 0.954553
vt 0.183905 0.988056
vt 0.152531 0.954553
vt 0.295261 0.923331
vt 0.183905 0.988056
vt 0.295261 0.923331
vt 0.303104 0.931698
vt 0.003115 0.848843
vt 0.152895 0.778050
vt 0.162440 0.788250
vt 0.152531 0.954553
vt 0.003115 0.848843
vt 0.162440 0.788250
vt 0.152531 0.954553
vt 0.162440 0.788250
vt 0.295261 0.923331
vt 0.295261 0.923331
vt 0.162440 0.788250
vt 0.187206 0.776549
vt 0.315666 0.913698
vt 0.790263 0.771351
vt 0.551402 0.515802
vt 0.651258 0.480089
vt 0.893592 0.739359
vt 0.003115 0.684206
vt 0.008745 0.681600
vt 0.103529 0.767990
vt 0.097818 0.770633
vt 0.008745 0.681600
vt 0.443217 0.480089
vt 0.544253 0.563584
vt 0.103529 0.767990
vt 0.981308 0.776549
vt 0.981308 0.776549
vt 0.981308 0.776549
vt 0.981308 0.776549
vt 0.981308 0.776549
vt 0.981308 0.776549
vt 0.981308 0.776549
vt 0.981308 0.776549
vt 0.981308 0.776549
vt 0.981308 0.776549
vt 0.981308 0.776549
vt 0.981308 0.776549
vt 0.981308 0.776549
vt 0.981308 0.776549
vt 0.981308 0.776549
vt 0.981308 0.776549
vt 0.981308 0.776549
vt 0.981308 0.776549
vt 0.065421 0.993363
vt 0.065421 0.993363
vt 0.065421 0.993363
vt 0.065421 0.993363
vt 0.065421 0.993363
vt 0.065421 0.993363
vt 0.065421 0.993363
vt 0.065421 0.993363
vt 0.065421 0.993363
vt 0.950156 0.776549
vt 0.950156 0.776549
vt 0.950156 0.776549
vt 0.950156 0.776549
vt 0.323988 0.844443
vt 0.470543 0.776549
vt 0.543117 0.834551
vt 0.395067 0.903137
vt 0.965732 0.776549
vt 0.965732 0.776549
vt 0.965732 0.776549
vt 0.965732 0.776549
vt 0.551402 0.787608
vt 0.575208 0.776549
vt 0.646839 0.833695
vt 0.622790 0.844866
vt 0.003115 0.993363
vt 0.003115 0.993363
vt 0.003115 0.993363
vt 0.003115 0.993363
vt 0.018692 0.993363
vt 0.018692 0.993363
vt 0.018692 0.993363
vt 0.018692 0.993363
vt 0.034268 0.993363
vt 0.034268 0.993363
vt 0.034268 0.993363
vt 0.034268 0.993363
vt 0.049844 0.993363
vt 0.049844 0.993363
vt 0.049844 0.993363
vt 0.049844 0.993363
vt 0.684696 0.834352
vt 0.654206 0.802042
vt 0.729666 0.776549
vt 0.760471 0.809191
vt 0.080997 0.993363
vt 0.080997 0.993363
vt 0.080997 0.993363
vt 0.080997 0.993363
vt 0.080997 0.993363
vt 0.080997 0.993363
vt 0.080997 0.993363
vt 0.080997 0.993363
vt 0.080997 0.993363
vt 0.080997 0.993363
vt 0.080997 0.993363
vt 0.080997 0.993363
vt 0.080997 0.993363
vt 0.080997 0.993363
vt 0.080997 0.993363
vt 0.080997 0.993363
vn 0 1 0
vn 0 1 0
vn 0 1 0
vn 0 1 0
vn 0 1 0
vn 0 1 0
vn 0 1 0
vn 0 1 0
vn 0 1 0
vn 0 1 0
vn 0 1 0
vn 0 1 0
vn 0 1 0
vn 0 1 0
vn 0 1 0
vn 0 1 0
vn 0 1 0
vn 0 1 0
vn 0 1 0
vn 0 1 0
vn 0 1 0
vn 0 1 0
vn 0 1 0
vn 0 1 0
vn 0 1 0
vn 0 1 0
vn 0 1 0
vn 0 1 0
vn 0 1 0
vn 0 1 0
vn 0 1 0
vn 0 1 0
vn 0 1 0
vn 0 1 0
vn 0 1 0
vn 0 1 0
vn 0 1 0
vn 0 1 0
vn 0 1 0
vn 0.5384719 0.7614779 0.3608317
vn 0.5384719 0.7614779 0.3608317
vn 0.5384719 0.7614779 0.3608317
vn 0.5384719 0.7614779 0.3608316
vn 0.5384719 0.7614779 0.3608316
vn 0.5384719 0.7614779 0.3608316
vn 0.5331497 0.7710667 0.3481486
vn 0.5331497 0.7710667 0.3481486
vn 0.5331497 0.7710667 0.3481486
vn 0.4210124 0.6390446 -0.6437162
vn 0.4210124 0.6390446 -0.6437162
vn 0.4210124 0.6390446 -0.6437162
vn -0.3957178 0.6898985 0.6061745
vn -0.3957178 0.6898985 0.6061745
vn -0.3957178 0.6898985 0.6061745
vn -0.5652196 0.7378967 -0.3688297
vn -0.5652196 0.7378967 -0.3688297
vn -0.5652196 0.7378967 -0.3688297
vn -0.5504525 0.7489623 -0.3688599
vn -0.5504525 0.7489623 -0.3688599
vn -0.5504525 0.7489623 -0.3688599
vn -0.5504525 0.7489623 -0.3688599
vn -0.5504525 0.7489623 -0.3688599
vn -0.5504525 0.7489623 -0.3688599
vn 0 1 0
vn 0 1 0
vn 0 1 0
vn 0 1 0
vn 0 1 0
vn 0 1 0
vn 0 1 0
vn 0 1 0
vn 0 1 0
vn 0 1 0
vn 0 1 0
vn 0 1 0
vn 0 1 0
vn 0 1 0
vn 0 1 0
vn 0 1 0
vn 0 1 0
vn 0 1 0
vn 0 1 0
vn 0 1 0
vn 0 1 0
vn 0 1 0
vn -0.5462981 0 0.8375908
vn -0.5462981 0 0.8375908
vn -0.5462981 0 0.8375908
vn -0.5462981 0 0.8375908
vn 0.8380821 0 0.545544
vn 0.8380821 0 0.545544
vn 0.8380821 0 0.545544
vn 0.8380821 0 0.545544
vn 0.8375536 0 0.5463552
vn 0.8375536 0 0.5463552
vn 0.8375536 0 0.5463552
vn 0.8375536 0 0.5463552
vn 0.5457987 0 -0.8379163
vn 0.5457987 0 -0.8379163
vn 0.5457987 0 -0.8379163
vn 0.5457987 0 -0.8379163
vn 0.5457987 0 -0.8379163
vn 0.5457987 0 -0.8379163
vn 0.5457987 0 -0.8379163
vn 0.5464594 0 -0.8374856
vn 0.5464594 0 -0.8374856
vn 0.5464594 0 -0.8374856
vn 0.5464594 0 -0.8374856
vn 0.5463076 0 -0.8375847
vn 0.5463076 0 -0.8375847
vn 0.5463076 0 -0.8375847
vn 0.5463076 0 -0.8375847
vn 0.5463076 0 -0.8375847
vn 0.5463076 0 -0.8375847
vn 0.5463076 0 -0.8375847
vn -0.837514 0 -0.5464157
vn -0.837514 0 -0.5464157
vn -0.837514 0 -0.5464157
vn -0.837514 0 -0.5464157
vn -0.837514 0 -0.5464157
vn -0.837514 0 -0.5464157
vn -0.837514 0 -0.5464157
vn -0.837514 0 -0.5464157
vn -0.837514 0 -0.5464157
vn -0.8367876 0 -0.5475277
vn -0.8367876 0 -0.5475277
vn -0.8367876 0 -0.5475277
vn -0.8367876 0 -0.5475277
vn 0.8375208 0 0.5464055
vn 0.8375208 0 0.5464055
vn 0.8375208 0 0.5464055
vn 0.8375208 0 0.5464055
vn 0.5459806 0 -0.8377978
vn 0.5459806 0 -0.8377978
vn 0.5459806 0 -0.8377978
vn 0.5459806 0 -0.8377978
vn 0.8376106 0 0.5462678
vn 0.8376106 0 0.5462678
vn 0.8376106 0 0.5462678
vn 0.8376106 0 0.5462678
vn 0.5463817 0 -0.8375363
vn 0.5463817 0 -0.8375363
vn 0.5463817 0 -0.8375363
vn 0.5463817 0 -0.8375363
vn -0.8377864 0 -0.545998
vn -0.8377864 0 -0.545998
vn -0.8377864 0 -0.545998
vn -0.8377864 0 -0.545998
vn 0.5467342 0 -0.8373062
vn 0.5467342 0 -0.8373062
vn 0.5467342 0 -0.8373062
vn 0.5467342 0 -0.8373062
vn -0.8374224 0 -0.5465562
vn -0.8374224 0 -0.5465562
vn -0.8374224 0 -0.5465562
vn -0.8374224 0 -0.5465562
vn -0.5462969 0 0.8375916
vn -0.5462969 0 0.8375916
vn -0.5462969 0 0.8375916
vn -0.5462969 0 0.8375916
vn 0 -1 0
vn 0 -1 0
vn 0 -1 0
vn 0 -1 0
vn 0 -1 0
vn 0 -1 0
vn 0 -1 0
vn 0 -1 0
vn 0 -1 0
vn 0 -1 0
vn 0 -1 0
vn 0 -1 0
vn 0 -1 0
vn 0 -1 0
vn 0 -1 0
vn 0 -1 0

g CDNNDG02_0007690
f 1/1/1 2/2/2 3/3/3
f 4/4/4 5/5/5 6/6/6
f 7/7/7 8/8/8 9/9/9
f 10/10/10 11/11/11 12/12/12
f 13/13/13 14/14/14 15/15/15
f 16/16/16 17/17/17 18/18/18
f 19/19/19 20/20/20 21/21/21
f 22/22/22 23/23/23 24/24/24
f 25/25/25 26/26/26 27/27/27
f 28/28/28 29/29/29 30/30/30
f 31/31/31 32/32/32 33/33/33
f 34/34/34 35/35/35 36/36/36
f 37/37/37 38/38/38 39/39/39
f 40/40/40 41/41/41 42/42/42
f 43/43/43 44/44/44 45/45/45
f 46/46/46 47/47/47 48/48/48
f 49/49/49 50/50/50 51/51/51
f 52/52/52 53/53/53 54/54/54
f 55/55/55 56/56/56 57/57/57
f 58/58/58 59/59/59 60/60/60
f 61/61/61 62/62/62 63/63/63
f 64/64/64 65/65/65 66/66/66
f 67/67/67 68/68/68 69/69/69
f 70/70/70 71/71/71 72/72/72
f 73/73/73 74/74/74 75/75/75
f 76/76/76 77/77/77 78/78/78
f 79/79/79 80/80/80 81/81/81
f 82/82/82 83/83/83 84/84/84
f 85/85/85 82/82/82 84/84/84
f 86/86/86 88/88/88 89/89/89
f 88/88/88 86/86/86 87/87/87
f 90/90/90 92/92/92 93/93/93
f 90/90/90 91/91/91 92/92/92
f 97/97/97 94/94/94 96/96/96
f 95/95/95 96/96/96 94/94/94
f 98/98/98 99/99/99 100/100/100
f 103/103/103 101/101/101 102/102/102
f 101/101/101 103/103/103 104/104/104
f 108/108/108 105/105/105 107/107/107
f 106/106/106 107/107/107 105/105/105
f 111/111/111 112/112/112 110/110/110
f 109/109/109 110/110/110 112/112/112
f 113/113/113 114/114/114 115/115/115
f 116/116/116 117/117/117 118/118/118
f 119/119/119 120/120/120 121/121/121
f 122/122/122 123/123/123 124/124/124
f 125/125/125 127/127/127 128/128/128
f 125/125/125 126/126/126 127/127/127
f 129/129/129 131/131/131 132/132/132
f 129/129/129 130/130/130 131/131/131
f 135/135/135 133/133/133 134/134/134
f 133/133/133 135/135/135 136/136/136
f 138/138/138 139/139/139 137/137/137
f 137/137/137 139/139/139 140/140/140
f 142/142/142 143/143/143 141/141/141
f 141/141/141 143/143/143 144/144/144
f 145/145/145 147/147/147 148/148/148
f 145/145/145 146/146/146 147/147/147
f 151/151/151 149/149/149 150/150/150
f 149/149/149 151/151/151 152/152/152
f 153/153/153 155/155/155 156/156/156
f 153/153/153 154/154/154 155/155/155
f 160/160/160 157/157/157 159/159/159
f 159/159/159 157/157/157 158/158/158
f 173/173/173 175/175/175 176/176/176
f 173/173/173 174/174/174 175/175/175
f 162/162/162 173/173/173 176/176/176
f 161/161/161 162/162/162 176/176/176
f 168/168/168 166/166/166 167/167/167
f 163/163/163 164/164/164 166/166/166
f 164/164/164 165/165/165 166/166/166
f 162/162/162 171/171/171 173/173/173
f 163/163/163 166/166/166 169/169/169
f 162/162/162 163/163/163 171/171/171
f 166/166/166 168/168/168 169/169/169
f 173/173/173 171/171/171 172/172/172
f 163/163/163 169/169/169 171/171/171
f 169/169/169 170/170/170 171/171/171
