v 0.6164227 6.215852 -0.904723
v 1.887423 6.215852 -0.915723
v 2.537423 6.215852 -1.947723
v -4.867578 6.215852 8.307277
v 0.02042267 6.215852 7.791277
v 0.8374227 6.215852 1.266277
v -7.870577 6.215852 6.415277
v -4.867578 6.215852 8.307277
v 0.8374227 6.215852 1.266277
v 0.02042267 6.215852 7.791277
v 3.195423 6.215852 2.752277
v 0.8374227 6.215852 1.266277
v -7.870577 6.215852 6.415277
v 0.1064227 6.215852 -0.09572303
v 1.571423 6.215852 -8.564723
v 0.6164227 6.215852 -0.904723
v 2.537423 6.215852 -1.947723
v 1.571423 6.215852 -8.564723
v -4.867578 6.215852 8.307277
v -0.4145773 6.215852 8.482277
v 0.02042267 6.215852 7.791277
v 4.004423 6.215852 -1.023723
v 7.292423 6.215852 -6.270723
v 5.248423 6.215852 -7.558723
v 2.537423 6.215852 -1.947723
v 1.571423 6.215852 -8.564723
v 5.248423 6.215852 -7.558723
v 2.161423 6.215852 -9.503723
v -5.213577 6.215852 8.858277
v -1.948577 6.215852 10.91528
v -1.685577 6.215852 10.49928
v -4.867578 6.215852 8.307277
v 1.571423 6.215852 -8.564723
v 2.537423 6.215852 -1.947723
v 5.248423 6.215852 -7.558723
v -4.867578 6.215852 8.307277
v -1.685577 6.215852 10.49928
v -0.4145773 6.215852 8.482277
v 0.1064227 6.215852 -0.09572303
v 0.6164227 6.215852 -0.904723
v 1.571423 6.215852 -8.564723
v -7.870577 6.215852 6.415277
v 0.8374227 6.215852 1.266277
v 0.1064227 6.215852 -0.09572303
v 1.887423 5.821852 -0.915723
v 4.004423 5.055852 -1.023723
v 2.537423 5.821852 -1.947723
v 1.887423 5.821852 -0.915723
v 3.367423 5.055852 0.01727697
v 4.004423 5.055852 -1.023723
v 2.161423 6.260852 -9.503723
v 6.855422 5.647852 -10.10972
v 3.768423 5.647852 -12.05472
v 2.161423 6.260852 -9.503723
v 5.248423 6.259852 -7.558723
v 6.855422 5.647852 -10.10972
v 0.02042267 -6.18344 7.791277
v 3.195423 -6.18344 2.752277
v 3.195423 6.215852 2.752277
v 0.02042267 6.215852 7.791277
v -1.817077 -6.18344 10.70728
v -1.685577 -6.18344 10.49928
v -1.685577 6.215852 10.49928
v -1.948577 6.215852 10.91528
v -1.948577 -6.18344 10.91528
v -1.817077 -6.18344 10.70728
v -1.948577 6.215852 10.91528
v -1.817077 -6.18344 10.70728
v -1.685577 6.215852 10.49928
v -1.685577 -6.18344 10.49928
v -0.4145773 -6.18344 8.482277
v -0.4145773 6.215852 8.482277
v -1.685577 6.215852 10.49928
v -0.4145773 -6.18344 8.482277
v 0.02042267 -6.18344 7.791277
v 0.02042267 6.215852 7.791277
v -0.4145773 6.215852 8.482277
v 0.8374227 6.215852 1.266277
v 3.195423 6.215852 2.752277
v 3.195423 -6.18344 2.752277
v 0.8374227 -6.18344 1.266277
v 0.1064227 6.215852 -0.09572303
v 0.8374227 6.215852 1.266277
v 0.8374227 -6.18344 1.266277
v 0.1064227 -6.18344 -0.09572303
v 0.1064227 -6.18344 -0.09572303
v 0.6164227 -6.18344 -0.904723
v 0.6164227 6.215852 -0.904723
v 0.1064227 6.215852 -0.09572303
v 0.6164227 6.215852 -0.904723
v 1.887423 5.821852 -0.915723
v 1.887423 6.215852 -0.915723
v 0.6164227 -6.18344 -0.904723
v 1.887423 -6.18344 -0.915723
v 1.887423 5.821852 -0.915723
v 0.6164227 6.215852 -0.904723
v 1.887423 5.821852 -0.915723
v 2.537423 5.821852 -1.947723
v 2.537423 6.215852 -1.947723
v 1.887423 6.215852 -0.915723
v 2.537423 5.821852 -1.947723
v 4.004423 5.055852 -1.023723
v 4.004423 6.215852 -1.023723
v 2.537423 6.215852 -1.947723
v 2.537423 5.821852 -1.947723
v 4.004423 6.215852 -1.023723
v 4.004423 -6.18344 -1.023723
v 7.292423 -6.18344 -6.270723
v 7.292423 6.215852 -6.270723
v 4.004423 5.055852 -1.023723
v 4.004423 6.215852 -1.023723
v 4.004423 5.055852 -1.023723
v 7.292423 6.215852 -6.270723
v 3.367423 -6.18344 0.01727697
v 4.004423 -6.18344 -1.023723
v 4.004423 5.055852 -1.023723
v 3.367423 5.055852 0.01727697
v 5.248423 6.215852 -7.558723
v 6.270422 -6.18344 -6.914723
v 5.248423 -6.18344 -7.558723
v 6.270422 -6.18344 -6.914723
v 7.292423 6.215852 -6.270723
v 7.292423 -6.18344 -6.270723
v 5.248423 6.215852 -7.558723
v 7.292423 6.215852 -6.270723
v 6.270422 -6.18344 -6.914723
v 1.571423 6.215852 -8.564723
v 2.161423 6.215852 -9.503723
v 2.161423 -6.18344 -9.503723
v 1.571423 -6.18344 -8.564723
v -7.870577 6.215852 6.415277
v -3.149577 -6.18344 -1.074723
v -7.870577 -6.18344 6.415277
v -3.149577 -6.18344 -1.074723
v 1.571423 6.215852 -8.564723
v 1.571423 -6.18344 -8.564723
v -7.870577 6.215852 6.415277
v 1.571423 6.215852 -8.564723
v -3.149577 -6.18344 -1.074723
v 2.161423 6.260852 -9.503723
v 3.768423 5.647852 -12.05472
v 2.161423 6.215852 -9.503723
v 2.161423 6.215852 -9.503723
v 3.768423 5.647852 -12.05472
v 3.768423 -6.18344 -12.05472
v 2.161423 -6.18344 -9.503723
v -7.870577 -6.18344 6.415277
v -4.867578 -6.18344 8.307277
v -4.867578 6.215852 8.307277
v -7.870577 6.215852 6.415277
v -5.213577 6.215852 8.858277
v -5.040577 -6.18344 8.582777
v -5.213577 -6.18344 8.858277
v -5.040577 -6.18344 8.582777
v -4.867578 6.215852 8.307277
v -4.867578 -6.18344 8.307277
v -5.213577 6.215852 8.858277
v -4.867578 6.215852 8.307277
v -5.040577 -6.18344 8.582777
v -5.213577 -6.18344 8.858277
v -1.948577 -6.18344 10.91528
v -1.948577 6.215852 10.91528
v -5.213577 6.215852 8.858277
v 1.887423 -6.18344 -0.915723
v 3.367423 -6.18344 0.01727697
v 3.367423 5.055852 0.01727697
v 1.887423 5.821852 -0.915723
v 5.248423 -6.18344 -7.558723
v 6.855422 -6.18344 -10.10972
v 6.855422 5.647852 -10.10972
v 5.248423 6.215852 -7.558723
v 5.248423 6.259852 -7.558723
v 5.248423 6.215852 -7.558723
v 6.855422 5.647852 -10.10972
v 3.768423 5.647852 -12.05472
v 6.855422 5.647852 -10.10972
v 6.855422 -6.18344 -10.10972
v 3.768423 -6.18344 -12.05472
v 2.161423 6.215852 -9.503723
v 5.248423 6.215852 -7.558723
v 5.248423 6.259852 -7.558723
v 2.161423 6.260852 -9.503723
v -1.948577 -6.18344 10.91528
v -5.213577 -6.18344 8.858277
v -5.040577 -6.18344 8.582777
v -4.867578 -6.18344 8.307277
v -7.870577 -6.18344 6.415277
v -3.149577 -6.18344 -1.074723
v 1.571423 -6.18344 -8.564723
v 2.161423 -6.18344 -9.503723
v 3.768423 -6.18344 -12.05472
v 6.855422 -6.18344 -10.10972
v 5.248423 -6.18344 -7.558723
v 6.270422 -6.18344 -6.914723
v 7.292423 -6.18344 -6.270723
v 4.004423 -6.18344 -1.023723
v 3.367423 -6.18344 0.01727697
v 1.887423 -6.18344 -0.915723
v 0.6164227 -6.18344 -0.904723
v 0.1064227 -6.18344 -0.09572303
v 0.8374227 -6.18344 1.266277
v 3.195423 -6.18344 2.752277
v 0.02042267 -6.18344 7.791277
v -0.4145773 -6.18344 8.482277
v -1.685577 -6.18344 10.49928
v -1.817077 -6.18344 10.70728
vt 0.439530 0.170365
vt 0.441321 0.137442
vt 0.479977 0.121390
vt 0.094831 0.305399
vt 0.119127 0.179151
vt 0.359943 0.162977
vt 0.161127 0.384648
vt 0.094831 0.305399
vt 0.359943 0.162977
vt 0.119127 0.179151
vt 0.307873 0.100743
vt 0.359943 0.162977
vt 0.161127 0.384648
vt 0.409226 0.182960
vt 0.722232 0.151484
vt 0.439530 0.170365
vt 0.479977 0.121390
vt 0.722232 0.151484
vt 0.094831 0.305399
vt 0.093245 0.189893
vt 0.119127 0.179151
vt 0.447602 0.082671
vt 0.644131 0.001490
vt 0.689259 0.055440
vt 0.479977 0.121390
vt 0.722232 0.151484
vt 0.689259 0.055440
vt 0.757404 0.136915
vt 0.074195 0.313942
vt 0.002114 0.227776
vt 0.017697 0.221280
vt 0.094831 0.305399
vt 0.722232 0.151484
vt 0.479977 0.121390
vt 0.689259 0.055440
vt 0.094831 0.305399
vt 0.017697 0.221280
vt 0.093245 0.189893
vt 0.409226 0.182960
vt 0.439530 0.170365
vt 0.722232 0.151484
vt 0.161127 0.384648
vt 0.359943 0.162977
vt 0.409226 0.182960
vt 0.533373 0.946041
vt 0.538727 0.889717
vt 0.570772 0.930488
vt 0.533373 0.946041
vt 0.501057 0.904922
vt 0.538727 0.889717
vt 0.722335 0.831193
vt 0.748566 0.709389
vt 0.815457 0.789592
vt 0.722335 0.831193
vt 0.655391 0.750926
vt 0.748566 0.709389
vt 0.116263 0.785576
vt 0.300390 0.709389
vt 0.311173 0.761263
vt 0.124210 0.838623
vt 0.009715 0.829668
vt 0.017315 0.826512
vt 0.023737 0.880189
vt 0.008302 0.886598
vt 0.002114 0.832824
vt 0.009715 0.829668
vt 0.008302 0.886598
vt 0.009715 0.829668
vt 0.023737 0.880189
vt 0.017315 0.826512
vt 0.091015 0.796014
vt 0.098572 0.849221
vt 0.023737 0.880189
vt 0.091015 0.796014
vt 0.116263 0.785576
vt 0.124210 0.838623
vt 0.098572 0.849221
vt 0.961222 0.822265
vt 0.911129 0.761019
vt 0.900634 0.709389
vt 0.949967 0.769706
vt 0.403255 0.961449
vt 0.355850 0.941902
vt 0.344609 0.889717
vt 0.391295 0.908967
vt 0.454545 0.901784
vt 0.482891 0.889717
vt 0.495125 0.941894
vt 0.466343 0.954146
vt 0.266825 0.973913
vt 0.268036 0.939995
vt 0.268392 0.941671
vt 0.255814 0.921470
vt 0.257357 0.889717
vt 0.268036 0.939995
vt 0.266825 0.973913
vt 0.640592 0.904349
vt 0.677097 0.889717
vt 0.677508 0.891272
vt 0.640985 0.905912
vt 0.635771 0.928229
vt 0.604651 0.892958
vt 0.605709 0.889717
vt 0.636145 0.927146
vt 0.635771 0.928229
vt 0.605709 0.889717
vt 0.355075 0.788103
vt 0.546446 0.709389
vt 0.562254 0.759673
vt 0.366715 0.834714
vt 0.367934 0.839599
vt 0.366715 0.834714
vt 0.562254 0.759673
vt 0.317125 0.803334
vt 0.355075 0.788103
vt 0.366715 0.834714
vt 0.328235 0.850157
vt 0.136983 0.992848
vt 0.099577 0.915832
vt 0.120930 0.941946
vt 0.099577 0.915832
vt 0.093619 0.939814
vt 0.078224 0.889717
vt 0.136983 0.992848
vt 0.093619 0.939814
vt 0.099577 0.915832
vt 0.570576 0.441550
vt 0.605740 0.426994
vt 0.589156 0.461481
vt 0.554529 0.475815
vt 0.009598 0.674524
vt 0.278313 0.590527
vt 0.002114 0.705231
vt 0.278313 0.590527
vt 0.570576 0.441550
vt 0.554529 0.475815
vt 0.009598 0.674524
vt 0.570576 0.441550
vt 0.278313 0.590527
vt 0.605801 0.426867
vt 0.700439 0.388972
vt 0.605740 0.426994
vt 0.605740 0.426994
vt 0.700439 0.388972
vt 0.683235 0.422433
vt 0.589156 0.461481
vt 0.065710 0.998652
vt 0.002114 0.921356
vt 0.008421 0.889717
vt 0.073002 0.968212
vt 0.580754 0.897986
vt 0.584458 0.924709
vt 0.575053 0.928781
vt 0.584458 0.924709
vt 0.599856 0.889717
vt 0.593863 0.920638
vt 0.580754 0.897986
vt 0.599856 0.889717
vt 0.584458 0.924709
vt 0.889551 0.826344
vt 0.820296 0.742230
vt 0.825232 0.709389
vt 0.895560 0.794807
vt 0.438780 0.958759
vt 0.408034 0.920949
vt 0.417771 0.889717
vt 0.449652 0.925934
vt 0.141649 0.927966
vt 0.233733 0.889717
vt 0.250639 0.937577
vt 0.157961 0.978749
vt 0.158020 0.978932
vt 0.157961 0.978749
vt 0.250639 0.937577
vt 0.649526 0.837753
vt 0.583408 0.757494
vt 0.566596 0.709389
vt 0.631757 0.788486
vt 0.338992 0.970148
vt 0.272727 0.889844
vt 0.272782 0.889717
vt 0.339051 0.970023
vt 0.682875 0.889717
vt 0.682875 0.889717
vt 0.682875 0.889717
vt 0.682875 0.889717
vt 0.682875 0.889717
vt 0.682875 0.889717
vt 0.682875 0.889717
vt 0.682875 0.889717
vt 0.682875 0.889717
vt 0.682875 0.889717
vt 0.682875 0.889717
vt 0.682875 0.889717
vt 0.682875 0.889717
vt 0.682875 0.889717
vt 0.682875 0.889717
vt 0.682875 0.889717
vt 0.682875 0.889717
vt 0.682875 0.889717
vt 0.682875 0.889717
vt 0.682875 0.889717
vt 0.682875 0.889717
vt 0.682875 0.889717
vt 0.682875 0.889717
vt 0.682875 0.889717
vn 0 1 0
vn 0 1 0
vn 0 1 0
vn 0 1 0
vn 0 1 0
vn 0 1 0
vn 0 1 0
vn 0 1 0
vn 0 1 0
vn 0 1 0
vn 0 1 0
vn 0 1 0
vn 0 1 0
vn 0 1 0
vn 0 1 0
vn 0 1 0
vn 0 1 0
vn 0 1 0
vn 0 1 0
vn 0 1 0
vn 0 1 0
vn 0 1 0
vn 0 1 0
vn 0 1 0
vn 0 1 0
vn 0 1 0
vn 0 1 0
vn 0 1 0
vn 0 1 0
vn 0 1 0
vn 0 1 0
vn 0 1 0
vn 0 1 0
vn 0 1 0
vn 0 1 0
vn 0 1 0
vn 0 1 0
vn 0 1 0
vn 0 1 0
vn 0 1 0
vn 0 1 0
vn 0 1 0
vn 0 1 0
vn 0 1 0
vn 0.3419564 0.9147007 0.2153795
vn 0.3419564 0.9147007 0.2153795
vn 0.3419564 0.9147007 0.2153795
vn 0.3421312 0.9160333 0.2093541
vn 0.3421312 0.9160333 0.2093541
vn 0.3421312 0.9160333 0.2093541
vn 0.106211 0.9799502 -0.1685725
vn 0.106211 0.9799502 -0.1685725
vn 0.106211 0.9799502 -0.1685725
vn 0.1062719 0.9800137 -0.1681652
vn 0.1062719 0.9800137 -0.1681652
vn 0.1062719 0.9800137 -0.1681652
vn 0.846059 0 0.5330893
vn 0.846059 0 0.5330893
vn 0.846059 0 0.5330893
vn 0.846059 0 0.5330893
vn 0.8452474 0 0.5343752
vn 0.8452474 0 0.5343752
vn 0.8452474 0 0.5343752
vn 0.8452474 0 0.5343752
vn 0.8452474 0 0.5343752
vn 0.8452474 0 0.5343752
vn 0.8452474 -2.205269E-11 0.5343752
vn 0.8452474 -2.205269E-11 0.5343752
vn 0.8452474 -2.205269E-11 0.5343752
vn 0.8460367 0 0.5331247
vn 0.8460367 0 0.5331247
vn 0.8460367 0 0.5331247
vn 0.8460367 0 0.5331247
vn 0.8462737 0 0.5327483
vn 0.8462737 0 0.5327483
vn 0.8462737 0 0.5327483
vn 0.8462737 0 0.5327483
vn 0.5331558 0 -0.8460171
vn 0.5331558 0 -0.8460171
vn 0.5331558 0 -0.8460171
vn 0.5331558 0 -0.8460171
vn 0.8811142 0 -0.4729035
vn 0.8811142 0 -0.4729035
vn 0.8811142 0 -0.4729035
vn 0.8811142 0 -0.4729035
vn 0.8459359 0 0.5332847
vn 0.8459359 0 0.5332847
vn 0.8459359 0 0.5332847
vn 0.8459359 0 0.5332847
vn 0.008654279 0 0.9999626
vn 0.008654279 0 0.9999626
vn 0.008654279 0 0.9999626
vn 0.008654279 0 0.9999626
vn 0.008654279 0 0.9999626
vn 0.008654279 0 0.9999626
vn 0.008654279 0 0.9999626
vn 0.8461507 0 0.5329437
vn 0.8461507 0 0.5329437
vn 0.8461507 0 0.5329437
vn 0.8461507 0 0.5329437
vn -0.5329509 0 0.8461462
vn -0.5329509 0 0.8461462
vn -0.5329509 0 0.8461462
vn -0.5329509 0 0.8461462
vn -0.5329509 0 0.8461462
vn -0.5329509 0 0.8461462
vn 0.8473717 0 0.5310002
vn 0.8473717 0 0.5310002
vn 0.8473717 0 0.5310002
vn 0.8473717 0 0.5310002
vn 0.8473717 0 0.5310002
vn 0.8473717 0 0.5310002
vn 0.8473717 0 0.5310002
vn 0.8529779 0 0.5219471
vn 0.8529779 0 0.5219471
vn 0.8529779 0 0.5219471
vn 0.8529779 0 0.5219471
vn 0.5331206 0 -0.8460392
vn 0.5331206 0 -0.8460392
vn 0.5331206 0 -0.8460392
vn 0.5331206 0 -0.8460392
vn 0.5331206 0 -0.8460392
vn 0.5331206 0 -0.8460392
vn 0.5331206 0 -0.8460392
vn 0.5331206 0 -0.8460392
vn 0.5331206 0 -0.8460392
vn -0.8467294 0 -0.5320238
vn -0.8467294 0 -0.5320238
vn -0.8467294 0 -0.5320238
vn -0.8467294 0 -0.5320238
vn -0.8459743 0 -0.5332236
vn -0.8459743 0 -0.5332236
vn -0.8459743 0 -0.5332236
vn -0.8459743 0 -0.5332236
vn -0.8459743 0 -0.5332236
vn -0.8459743 0 -0.5332236
vn -0.8459743 -1.985683E-12 -0.5332236
vn -0.8459743 -1.985683E-12 -0.5332236
vn -0.8459743 -1.985683E-12 -0.5332236
vn -0.8461109 0 -0.5330068
vn -0.8461109 0 -0.5330068
vn -0.8461109 0 -0.5330068
vn -0.8461109 0 -0.5330068
vn -0.8461109 0 -0.5330068
vn -0.8461109 0 -0.5330068
vn -0.8461109 0 -0.5330068
vn -0.5330598 0 0.8460776
vn -0.5330598 0 0.8460776
vn -0.5330598 0 0.8460776
vn -0.5330598 0 0.8460776
vn -0.8468739 0 -0.5317938
vn -0.8468739 0 -0.5317938
vn -0.8468739 0 -0.5317938
vn -0.8468739 0 -0.5317938
vn -0.8468739 0 -0.5317938
vn -0.8468739 0 -0.5317938
vn -0.8468739 1.997177E-11 -0.5317938
vn -0.8468739 1.997177E-11 -0.5317938
vn -0.8468739 1.997177E-11 -0.5317938
vn -0.533047 0 0.8460857
vn -0.533047 0 0.8460857
vn -0.533047 0 0.8460857
vn -0.533047 0 0.8460857
vn -0.5332831 0 0.8459368
vn -0.5332831 0 0.8459368
vn -0.5332831 0 0.8459368
vn -0.5332831 0 0.8459368
vn 0.8461109 0 0.5330068
vn 0.8461109 0 0.5330068
vn 0.8461109 0 0.5330068
vn 0.8461109 0 0.5330068
vn 0.8461109 0 0.5330068
vn 0.8461109 0 0.5330068
vn 0.8461109 0 0.5330068
vn 0.5330749 0 -0.846068
vn 0.5330749 0 -0.846068
vn 0.5330749 0 -0.846068
vn 0.5330749 0 -0.846068
vn -0.5330749 0 0.846068
vn -0.5330749 0 0.846068
vn -0.5330749 0 0.846068
vn -0.5330749 0 0.846068
vn 0 -1 0
vn 0 -1 0
vn 0 -1 0
vn 0 -1 0
vn 0 -1 0
vn 0 -1 0
vn 0 -1 0
vn 0 -1 0
vn 0 -1 0
vn 0 -1 0
vn 0 -1 0
vn 0 -1 0
vn 0 -1 0
vn 0 -1 0
vn 0 -1 0
vn 0 -1 0
vn 0 -1 0
vn 0 -1 0
vn 0 -1 0
vn 0 -1 0
vn 0 -1 0
vn 0 -1 0
vn 0 -1 0
vn 0 -1 0

g CDNNDG02_0012880
f 1/1/1 2/2/2 3/3/3
f 4/4/4 5/5/5 6/6/6
f 7/7/7 8/8/8 9/9/9
f 10/10/10 11/11/11 12/12/12
f 13/13/13 14/14/14 15/15/15
f 16/16/16 17/17/17 18/18/18
f 19/19/19 20/20/20 21/21/21
f 23/23/23 24/24/24 25/25/25
f 22/22/22 23/23/23 25/25/25
f 26/26/26 27/27/27 28/28/28
f 29/29/29 30/30/30 31/31/31
f 32/32/32 29/29/29 31/31/31
f 33/33/33 34/34/34 35/35/35
f 36/36/36 37/37/37 38/38/38
f 39/39/39 40/40/40 41/41/41
f 42/42/42 43/43/43 44/44/44
f 45/45/45 46/46/46 47/47/47
f 48/48/48 49/49/49 50/50/50
f 51/51/51 52/52/52 53/53/53
f 54/54/54 55/55/55 56/56/56
f 58/58/58 59/59/59 57/57/57
f 57/57/57 59/59/59 60/60/60
f 61/61/61 62/62/62 63/63/63
f 64/64/64 65/65/65 66/66/66
f 67/67/67 68/68/68 69/69/69
f 70/70/70 72/72/72 73/73/73
f 70/70/70 71/71/71 72/72/72
f 75/75/75 76/76/76 74/74/74
f 74/74/74 76/76/76 77/77/77
f 80/80/80 78/78/78 79/79/79
f 78/78/78 80/80/80 81/81/81
f 85/85/85 82/82/82 84/84/84
f 84/84/84 82/82/82 83/83/83
f 87/87/87 88/88/88 86/86/86
f 86/86/86 88/88/88 89/89/89
f 90/90/90 91/91/91 92/92/92
f 96/96/96 93/93/93 95/95/95
f 95/95/95 93/93/93 94/94/94
f 97/97/97 99/99/99 100/100/100
f 97/97/97 98/98/98 99/99/99
f 101/101/101 102/102/102 103/103/103
f 104/104/104 105/105/105 106/106/106
f 108/108/108 109/109/109 110/110/110
f 107/107/107 108/108/108 110/110/110
f 111/111/111 112/112/112 113/113/113
f 115/115/115 116/116/116 114/114/114
f 114/114/114 116/116/116 117/117/117
f 118/118/118 119/119/119 120/120/120
f 121/121/121 122/122/122 123/123/123
f 124/124/124 125/125/125 126/126/126
f 127/127/127 128/128/128 129/129/129
f 130/130/130 127/127/127 129/129/129
f 131/131/131 132/132/132 133/133/133
f 134/134/134 135/135/135 136/136/136
f 137/137/137 138/138/138 139/139/139
f 140/140/140 141/141/141 142/142/142
f 144/144/144 145/145/145 146/146/146
f 143/143/143 144/144/144 146/146/146
f 147/147/147 149/149/149 150/150/150
f 149/149/149 147/147/147 148/148/148
f 151/151/151 152/152/152 153/153/153
f 154/154/154 155/155/155 156/156/156
f 157/157/157 158/158/158 159/159/159
f 163/163/163 160/160/160 162/162/162
f 162/162/162 160/160/160 161/161/161
f 164/164/164 166/166/166 167/167/167
f 166/166/166 164/164/164 165/165/165
f 169/169/169 170/170/170 168/168/168
f 168/168/168 170/170/170 171/171/171
f 172/172/172 173/173/173 174/174/174
f 177/177/177 175/175/175 176/176/176
f 175/175/175 177/177/177 178/178/178
f 182/182/182 179/179/179 181/181/181
f 181/181/181 179/179/179 180/180/180
f 185/185/185 205/205/205 206/206/206
f 186/186/186 204/204/204 205/205/205
f 186/186/186 203/203/203 204/204/204
f 201/201/201 202/202/202 203/203/203
f 183/183/183 184/184/184 206/206/206
f 184/184/184 185/185/185 206/206/206
f 188/188/188 200/200/200 201/201/201
f 186/186/186 187/187/187 188/188/188
f 188/188/188 189/189/189 199/199/199
f 189/189/189 190/190/190 193/193/193
f 203/203/203 186/186/186 201/201/201
f 190/190/190 191/191/191 192/192/192
f 190/190/190 192/192/192 193/193/193
f 198/198/198 189/189/189 193/193/193
f 193/193/193 194/194/194 196/196/196
f 185/185/185 186/186/186 205/205/205
f 194/194/194 195/195/195 196/196/196
f 193/193/193 196/196/196 198/198/198
f 196/196/196 197/197/197 198/198/198
f 186/186/186 188/188/188 201/201/201
f 189/189/189 198/198/198 199/199/199
f 188/188/188 199/199/199 200/200/200
