v -3.060749 5.943593 -4.807406
v 0.1972135 5.943593 -3.041427
v 1.674214 5.943593 -5.764427
v -1.583786 5.943593 -7.531426
v -3.060749 5.943593 -4.807406
v -1.583786 5.943593 -7.531426
v -3.060786 5.943593 -4.807426
v -7.077786 5.943593 2.559573
v -3.718786 5.943593 4.380573
v -2.388787 5.943593 1.926573
v -5.747787 5.943593 0.1055734
v 4.983213 5.376593 -6.324427
v 5.741213 5.376593 -5.884427
v 6.375214 5.376593 -6.977427
v 5.617213 5.376593 -7.417427
v -5.747822 8.169221 0.1055543
v -2.388777 7.755689 1.926578
v 0.1972432 7.765905 -3.04141
v -3.060749 8.166984 -4.807406
v -5.747822 8.169221 0.1055543
v -3.060749 8.166984 -4.807406
v -3.316794 8.198517 -4.946431
v -5.985794 8.198517 -0.02343046
v -1.631794 7.662517 2.33657
v 1.037201 7.662466 -2.585433
v 0.1972432 7.765905 -3.04141
v -2.388777 7.755689 1.926578
v -7.077786 5.216592 2.559573
v -5.845556 5.216592 0.2859685
v -5.98579 5.216592 -0.02342851
v -9.869786 5.216592 7.140574
v -7.077786 5.216592 2.559573
v -5.98579 5.216592 -0.02342851
v -9.869786 5.216592 7.140574
v -0.4157865 5.216592 12.26557
v -4.077917 5.216592 4.18588
v -9.869786 5.216592 7.140574
v -4.077917 5.216592 4.18588
v -7.077786 5.216592 2.559573
v -4.077917 5.216592 4.18588
v -0.4157865 5.216592 12.26557
v -3.718786 5.216592 4.380573
v -2.388787 5.216592 1.926573
v -0.4157865 5.216592 12.26557
v -2.135229 5.216592 2.063903
v -3.718786 5.216592 4.380573
v -0.4157865 5.216592 12.26557
v -2.388787 5.216592 1.926573
v -5.98579 5.216592 -0.02342851
v -5.845556 5.216592 0.2859685
v -5.747822 5.216592 0.1055543
v -5.845556 5.216592 0.2859685
v -5.747787 5.216592 0.1055734
v -5.747822 5.216592 0.1055543
v 5.617213 5.216592 -7.417427
v 6.375214 5.216592 -6.977427
v 10.05121 5.216592 -7.039426
v 0.5962135 5.216592 -12.16543
v 5.617213 5.216592 -7.417427
v 10.05121 5.216592 -7.039426
v 6.047575 5.216592 -6.412586
v 10.05121 5.216592 -7.039426
v 6.375214 5.216592 -6.977427
v 1.674214 5.216592 -5.764427
v 5.0897 5.216592 -6.262614
v 4.983213 5.216592 -6.324427
v 1.674214 5.216592 -5.764427
v 4.983213 5.216592 -6.324427
v 5.617213 5.216592 -7.417427
v -1.583786 5.216592 -7.531426
v 1.674214 5.216592 -5.764427
v 0.5962135 5.216592 -12.16543
v 0.5962135 5.216592 -12.16543
v 1.674214 5.216592 -5.764427
v 5.617213 5.216592 -7.417427
v -3.31679 5.216592 -4.946428
v -1.583786 5.216592 -7.531426
v 0.5962135 5.216592 -12.16543
v -3.31679 5.216592 -4.946428
v -2.954676 5.216592 -5.003124
v -1.583786 5.216592 -7.531426
v 1.652538 5.216592 -5.724465
v 5.0897 5.216592 -6.262614
v 1.674214 5.216592 -5.764427
v -2.135229 5.216592 2.063903
v -0.4157865 5.216592 12.26557
v -1.631794 5.216592 2.33657
v 0.1972432 5.216592 -3.04141
v 1.652538 5.216592 -5.724465
v 0.1972135 5.216592 -3.041427
v 0.1972432 5.216592 -3.04141
v 1.037201 5.216592 -2.585433
v 1.652538 5.216592 -5.724465
v -0.4157865 5.216592 12.26557
v 5.0897 5.216592 -6.262614
v 1.037201 5.216592 -2.585433
v -1.631794 5.216592 2.33657
v -0.4157865 5.216592 12.26557
v 1.037201 5.216592 -2.585433
v -0.4157865 5.216592 12.26557
v 5.741213 5.216592 -5.884427
v 5.0897 5.216592 -6.262614
v 1.037201 5.216592 -2.585433
v 5.0897 5.216592 -6.262614
v 1.652538 5.216592 -5.724465
v 5.741213 5.216592 -5.884427
v 10.05121 5.216592 -7.039426
v 6.047575 5.216592 -6.412586
v -0.4157865 5.216592 12.26557
v 10.05121 5.216592 -7.039426
v 5.741213 5.216592 -5.884427
v -3.31679 5.216592 -4.946428
v -3.060786 5.216592 -4.807426
v -2.954676 5.216592 -5.003124
v 1.652538 5.216592 -5.724465
v 1.674214 5.216592 -5.764427
v 1.674214 5.943593 -5.764427
v 0.1972135 5.216592 -3.041427
v 1.652538 5.216592 -5.724465
v 1.674214 5.943593 -5.764427
v 0.1972135 5.943593 -3.041427
v -1.583786 5.943593 -7.531426
v 1.674214 5.943593 -5.764427
v 1.674214 5.216592 -5.764427
v -1.583786 5.216592 -7.531426
v -3.060786 5.943593 -4.807426
v -2.954676 5.216592 -5.003124
v -3.060786 5.216592 -4.807426
v -3.060786 5.943593 -4.807426
v -1.583786 5.943593 -7.531426
v -1.583786 5.216592 -7.531426
v -2.954676 5.216592 -5.003124
v -4.077917 5.216592 4.18588
v -3.718786 5.216592 4.380573
v -3.718786 5.943593 4.380573
v -7.077786 5.216592 2.559573
v -4.077917 5.216592 4.18588
v -3.718786 5.943593 4.380573
v -7.077786 5.943593 2.559573
v -3.718786 5.216592 4.380573
v -2.388787 5.216592 1.926573
v -2.388787 5.943593 1.926573
v -3.718786 5.943593 4.380573
v -7.077786 5.943593 2.559573
v -5.747787 5.943593 0.1055734
v -5.845556 5.216592 0.2859685
v -7.077786 5.216592 2.559573
v -5.845556 5.216592 0.2859685
v -5.747787 5.943593 0.1055734
v -5.747787 5.216592 0.1055734
v 5.0897 5.216592 -6.262614
v 5.741213 5.216592 -5.884427
v 5.741213 5.376593 -5.884427
v 4.983213 5.376593 -6.324427
v 4.983213 5.376593 -6.324427
v 4.983213 5.216592 -6.324427
v 5.0897 5.216592 -6.262614
v 6.047575 5.216592 -6.412586
v 6.375214 5.216592 -6.977427
v 6.375214 5.376593 -6.977427
v 5.741213 5.376593 -5.884427
v 5.741213 5.216592 -5.884427
v 6.047575 5.216592 -6.412586
v 5.741213 5.376593 -5.884427
v 6.047575 5.216592 -6.412586
v 6.375214 5.376593 -6.977427
v 5.617213 5.376593 -7.417427
v 6.375214 5.376593 -6.977427
v 6.375214 5.216592 -6.977427
v 5.617213 5.216592 -7.417427
v 4.983213 5.376593 -6.324427
v 5.617213 5.376593 -7.417427
v 5.617213 5.216592 -7.417427
v 4.983213 5.216592 -6.324427
v -2.135229 5.216592 2.063903
v -1.631794 5.216592 2.33657
v -1.631794 7.662517 2.33657
v -2.388787 5.216592 1.926573
v -2.135229 5.216592 2.063903
v -2.388777 7.755689 1.926578
v -2.388777 7.755689 1.926578
v -2.135229 5.216592 2.063903
v -1.631794 7.662517 2.33657
v -5.98579 5.216592 -0.02342851
v -5.747822 5.216592 0.1055543
v -5.747822 8.169221 0.1055543
v -5.985794 8.198517 -0.02343046
v -2.388787 5.943593 1.926573
v -2.388787 5.216592 1.926573
v -2.388777 7.755689 1.926578
v -5.747822 8.169221 0.1055543
v -2.388787 5.943593 1.926573
v -2.388777 7.755689 1.926578
v -5.747822 8.169221 0.1055543
v -5.747822 5.216592 0.1055543
v -5.747787 5.943593 0.1055734
v -5.747822 8.169221 0.1055543
v -5.747787 5.943593 0.1055734
v -2.388787 5.943593 1.926573
v -5.747787 5.216592 0.1055734
v -5.747787 5.943593 0.1055734
v -5.747822 5.216592 0.1055543
v -1.631794 5.216592 2.33657
v 1.037201 5.216592 -2.585433
v 1.037201 7.662466 -2.585433
v -1.631794 7.662517 2.33657
v 0.1972432 7.765905 -3.04141
v 1.037201 7.662466 -2.585433
v 1.037201 5.216592 -2.585433
v 0.1972432 5.216592 -3.04141
v -3.060749 8.166984 -4.807406
v 0.1972135 5.943593 -3.041427
v -3.060749 5.943593 -4.807406
v 0.1972135 5.943593 -3.041427
v 0.1972432 7.765905 -3.04141
v 0.1972432 5.216592 -3.04141
v -3.060749 8.166984 -4.807406
v 0.1972432 7.765905 -3.04141
v 0.1972135 5.943593 -3.041427
v 0.1972135 5.216592 -3.041427
v 0.1972135 5.943593 -3.041427
v 0.1972432 5.216592 -3.04141
v -3.316794 8.198517 -4.946431
v -3.060786 5.943593 -4.807426
v -3.31679 5.216592 -4.946428
v -3.316794 8.198517 -4.946431
v -3.060749 8.166984 -4.807406
v -3.060786 5.943593 -4.807426
v -3.31679 5.216592 -4.946428
v -3.060786 5.943593 -4.807426
v -3.060786 5.216592 -4.807426
v -3.060786 5.943593 -4.807426
v -3.060749 8.166984 -4.807406
v -3.060749 5.943593 -4.807406
v -5.985794 8.198517 -0.02343046
v -3.316794 8.198517 -4.946431
v -3.31679 5.216592 -4.946428
v -5.98579 5.216592 -0.02342851
v -5.98579 5.216592 -0.02342851
v -3.31679 5.216592 -4.946428
v -3.316794 -5.672262 -4.946431
v -5.985794 -5.672262 -0.02343046
v -3.31679 5.216592 -4.946428
v 0.5962135 5.216592 -12.16543
v 0.5962135 -5.672262 -12.16543
v -3.316794 -5.672262 -4.946431
v -9.869786 5.216592 7.140574
v -7.927786 -5.672262 3.558573
v -9.869786 -5.672262 7.140574
v -7.927786 -5.672262 3.558573
v -5.98579 5.216592 -0.02342851
v -5.985794 -5.672262 -0.02343046
v -9.869786 5.216592 7.140574
v -5.98579 5.216592 -0.02342851
v -7.927786 -5.672262 3.558573
v -9.869786 -5.672262 7.140574
v -0.4157865 -5.672262 12.26557
v -0.4157865 5.216592 12.26557
v -9.869786 5.216592 7.140574
v -0.4157865 -5.672262 12.26557
v 10.05121 -5.672262 -7.039426
v 10.05121 5.216592 -7.039426
v -0.4157865 5.216592 12.26557
v 0.5962135 5.216592 -12.16543
v 10.05121 5.216592 -7.039426
v 10.05121 -5.672262 -7.039426
v 0.5962135 -5.672262 -12.16543
v -7.927786 -5.672262 3.558573
v -5.985794 -5.672262 -0.02343046
v -3.316794 -5.672262 -4.946431
v 0.5962135 -5.672262 -12.16543
v 10.05121 -5.672262 -7.039426
v -0.4157865 -5.672262 12.26557
v -9.869786 -5.672262 7.140574
vt 0.328956 0.789107
vt 0.385902 0.866020
vt 0.299460 0.901375
vt 0.242481 0.824463
vt 0.328956 0.789107
vt 0.242481 0.824463
vt 0.328956 0.789106
vt 0.468831 0.789106
vt 0.527507 0.868397
vt 0.449654 0.900230
vt 0.390977 0.820941
vt 0.204865 0.963687
vt 0.218684 0.981030
vt 0.184872 0.995732
vt 0.171053 0.978389
vt 0.163358 0.794899
vt 0.224822 0.876628
vt 0.066268 0.939687
vt 0.006581 0.860451
vt 0.163358 0.794899
vt 0.006581 0.860451
vt 0.001880 0.854221
vt 0.159002 0.789106
vt 0.238652 0.895034
vt 0.081668 0.960103
vt 0.066268 0.939687
vt 0.224822 0.876628
vt 0.473920 0.068727
vt 0.401041 0.098478
vt 0.391059 0.095171
vt 0.620701 0.001397
vt 0.473920 0.068727
vt 0.391059 0.095171
vt 0.620701 0.001397
vt 0.787539 0.226494
vt 0.526866 0.140154
vt 0.620701 0.001397
vt 0.526866 0.140154
vt 0.473920 0.068727
vt 0.526866 0.140154
vt 0.787539 0.226494
vt 0.533205 0.148704
vt 0.454544 0.180813
vt 0.787539 0.226494
vt 0.459015 0.186850
vt 0.533205 0.148704
vt 0.787539 0.226494
vt 0.454544 0.180813
vt 0.391059 0.095171
vt 0.401041 0.098478
vt 0.395258 0.100837
vt 0.401041 0.098478
vt 0.395259 0.100838
vt 0.395258 0.100837
vt 0.155672 0.373325
vt 0.169986 0.391366
vt 0.168772 0.479162
vt 0.001880 0.254073
vt 0.155672 0.373325
vt 0.168772 0.479162
vt 0.188084 0.383463
vt 0.168772 0.479162
vt 0.169986 0.391366
vt 0.208006 0.278926
vt 0.192705 0.360566
vt 0.190694 0.358032
vt 0.208006 0.278926
vt 0.190694 0.358032
vt 0.155672 0.373325
vt 0.150476 0.201360
vt 0.208006 0.278926
vt 0.001880 0.254073
vt 0.001880 0.254073
vt 0.208006 0.278926
vt 0.155672 0.373325
vt 0.233261 0.159608
vt 0.150476 0.201360
vt 0.001880 0.254073
vt 0.233261 0.159608
vt 0.231514 0.168265
vt 0.150476 0.201360
vt 0.209287 0.278403
vt 0.192705 0.360566
vt 0.208006 0.278926
vt 0.459015 0.186850
vt 0.787539 0.226494
vt 0.467892 0.198836
vt 0.295283 0.243271
vt 0.209287 0.278403
vt 0.295283 0.243271
vt 0.295283 0.243271
vt 0.310128 0.263269
vt 0.209287 0.278403
vt 0.787539 0.226494
vt 0.192705 0.360566
vt 0.310128 0.263269
vt 0.467892 0.198836
vt 0.787539 0.226494
vt 0.310128 0.263269
vt 0.787539 0.226494
vt 0.205008 0.376073
vt 0.192705 0.360566
vt 0.310128 0.263269
vt 0.192705 0.360566
vt 0.209287 0.278403
vt 0.205008 0.376073
vt 0.168772 0.479162
vt 0.188084 0.383463
vt 0.787539 0.226494
vt 0.168772 0.479162
vt 0.205008 0.376073
vt 0.233261 0.159608
vt 0.237786 0.165703
vt 0.231514 0.168265
vt 0.863396 0.826862
vt 0.862142 0.827375
vt 0.859023 0.824080
vt 0.947633 0.792432
vt 0.863396 0.826862
vt 0.859023 0.824080
vt 0.944590 0.789106
vt 0.340226 0.963687
vt 0.340226 0.963687
vt 0.340226 0.963687
vt 0.340226 0.963687
vt 0.330827 0.963687
vt 0.330827 0.963687
vt 0.330827 0.963687
vt 0.330827 0.963687
vt 0.330827 0.963687
vt 0.330827 0.963687
vt 0.330827 0.963687
vt 0.677544 0.859683
vt 0.683601 0.868132
vt 0.680759 0.873978
vt 0.626953 0.789106
vt 0.677544 0.859683
vt 0.680759 0.873978
vt 0.624060 0.794881
vt 0.166230 0.967082
vt 0.089363 0.998420
vt 0.086466 0.995053
vt 0.163403 0.963687
vt 0.079190 0.969339
vt 0.001880 0.999802
vt 0.010542 0.991885
vt 0.082105 0.963687
vt 0.010542 0.991885
vt 0.001880 0.999802
vt 0.004864 0.994122
vt 0.226101 0.966047
vt 0.237063 0.980489
vt 0.236440 0.980777
vt 0.223684 0.963972
vt 0.223684 0.963972
vt 0.224309 0.963687
vt 0.226101 0.966047
vt 0.299817 0.971229
vt 0.282627 0.978578
vt 0.281955 0.977910
vt 0.315224 0.963687
vt 0.315890 0.964357
vt 0.299817 0.971229
vt 0.315224 0.963687
vt 0.299817 0.971229
vt 0.281955 0.977910
vt 0.349624 0.963687
vt 0.349624 0.963687
vt 0.349624 0.963687
vt 0.349624 0.963687
vt 0.275839 0.963969
vt 0.242481 0.978032
vt 0.243156 0.977747
vt 0.276507 0.963687
vt 0.610805 0.879874
vt 0.619518 0.891741
vt 0.609786 0.895916
vt 0.606417 0.873897
vt 0.610805 0.879874
vt 0.596272 0.878176
vt 0.596272 0.878176
vt 0.610805 0.879874
vt 0.609786 0.895916
vt 0.544105 0.789106
vt 0.548227 0.794716
vt 0.536211 0.799406
vt 0.531955 0.793822
vt 0.603518 0.875119
vt 0.606417 0.873897
vt 0.596272 0.878176
vt 0.536211 0.799406
vt 0.603518 0.875119
vt 0.596272 0.878176
vt 0.536211 0.799406
vt 0.548227 0.794716
vt 0.545277 0.795868
vt 0.536211 0.799406
vt 0.545277 0.795868
vt 0.603518 0.875119
vt 0.548227 0.794717
vt 0.545277 0.795868
vt 0.548227 0.794716
vt 0.854283 0.800648
vt 0.698281 0.864880
vt 0.687970 0.853532
vt 0.844442 0.789106
vt 0.359023 0.963687
vt 0.359023 0.963687
vt 0.359023 0.963687
vt 0.359023 0.963687
vt 0.359023 0.963687
vt 0.359023 0.963687
vt 0.359023 0.963687
vt 0.359023 0.963687
vt 0.359023 0.963687
vt 0.359023 0.963687
vt 0.359023 0.963687
vt 0.359023 0.963687
vt 0.359023 0.963687
vt 0.359023 0.963687
vt 0.359023 0.963687
vt 0.359023 0.963687
vt 0.359023 0.963687
vt 0.359023 0.963687
vt 0.359023 0.963687
vt 0.359023 0.963687
vt 0.359023 0.963687
vt 0.359023 0.963687
vt 0.359023 0.963687
vt 0.359023 0.963687
vt 0.359023 0.963687
vt 0.359023 0.963687
vt 0.359023 0.963687
vt 0.359023 0.963687
vt 0.368421 0.963687
vt 0.368421 0.963687
vt 0.368421 0.963687
vt 0.368421 0.963687
vt 0.368421 0.963687
vt 0.368421 0.963687
vt 0.368421 0.963687
vt 0.368421 0.963687
vt 0.368421 0.963687
vt 0.368421 0.963687
vt 0.368421 0.963687
vt 0.368421 0.963687
vt 0.368421 0.963687
vt 0.368421 0.963687
vt 0.368421 0.963687
vt 0.368421 0.963687
vt 0.368421 0.963687
vt 0.368421 0.963687
vt 0.368421 0.963687
vt 0.368421 0.963687
vt 0.368421 0.963687
vt 0.704667 0.483240
vt 0.868194 0.704733
vt 0.829251 0.723514
vt 0.663534 0.499058
vt 0.658086 0.534127
vt 0.049264 0.786038
vt 0.001880 0.738527
vt 0.618851 0.483240
vt 0.321429 0.963687
vt 0.321429 0.963687
vt 0.321429 0.963687
vt 0.321429 0.963687
vt 0.377820 0.963687
vt 0.377820 0.963687
vt 0.377820 0.963687
vt 0.377820 0.963687
vt 0.377820 0.963687
vt 0.377820 0.963687
vt 0.377820 0.963687
vn 0 1 0
vn 0 1 0
vn 0 1 0
vn 0 1 0
vn 0 1 0
vn 0 1 0
vn 0 1 0
vn 0 1 0
vn 0 1 0
vn 0 1 0
vn 0 1 0
vn 0 1 0
vn 0 1 0
vn 0 1 0
vn 0 1 0
vn 0.0945932 0.9941942 0.05128362
vn 0.0945932 0.9941942 0.05128362
vn 0.0945932 0.9941942 0.05128362
vn 0.0945932 0.9941942 0.05128362
vn 0.09459319 0.9941942 0.05128361
vn 0.09459318 0.9941942 0.05128361
vn 0.09459319 0.9941942 0.05128361
vn 0.0945932 0.9941942 0.05128362
vn 0.09459319 0.9941942 0.05128361
vn 0.0945932 0.9941942 0.05128361
vn 0.0945932 0.9941942 0.05128362
vn 0.0945932 0.9941942 0.05128361
vn 0 1 0
vn 0 1 0
vn 0 1 0
vn 0 1 0
vn 0 1 0
vn 0 1 0
vn 0 1 0
vn 0 1 0
vn 0 1 0
vn 0 1 0
vn 0 1 0
vn 0 1 0
vn 0 1 0
vn 0 1 0
vn 0 1 0
vn 0 1 0
vn 0 1 0
vn 0 1 0
vn 0 1 0
vn 0 1 0
vn 0 1 0
vn 0 1 0
vn 0 1 0
vn 0 1 0
vn 0 1 0
vn 0 1 0
vn 0 1 0
vn 0 1 0
vn 0 1 0
vn 0 1 0
vn 0 1 0
vn 0 1 0
vn 0 1 0
vn 0 1 0
vn 0 1 0
vn 0 1 0
vn 0 1 0
vn 0 1 0
vn 0 1 0
vn 0 1 0
vn 0 1 0
vn 0 1 0
vn 0 1 0
vn 0 1 0
vn 0 1 0
vn 0 1 0
vn 0 1 0
vn 0 1 0
vn 0 1 0
vn 0 1 0
vn 0 1 0
vn 0 1 0
vn 0 1 0
vn 0 1 0
vn 0 1 0
vn 0 1 0
vn 0 1 0
vn 0 1 0
vn 0 1 0
vn 0 1 0
vn 0 1 0
vn 0 1 0
vn 0 1 0
vn 0 1 0
vn 0 1 0
vn 0 1 0
vn 0 1 0
vn 0 1 0
vn 0 1 0
vn 0 1 0
vn 0 1 0
vn 0 1 0
vn 0 1 0
vn 0 1 0
vn 0 1 0
vn 0 1 0
vn 0 1 0
vn 0 1 0
vn 0 1 0
vn 0 1 0
vn 0 1 0
vn 0 1 0
vn 0 1 0
vn 0 1 0
vn 0 1 0
vn 0 1 0
vn 0 1 0
vn 0.8790158 0 0.4767926
vn 0.8790158 0 0.4767926
vn 0.8790158 0 0.4767926
vn 0.8790158 0 0.4767926
vn 0.8790158 9.17447E-10 0.4767926
vn 0.8790158 1.834894E-09 0.4767926
vn 0.8790158 9.17447E-10 0.4767926
vn 0.4767524 0 -0.8790376
vn 0.4767524 0 -0.8790376
vn 0.4767524 0 -0.8790376
vn 0.4767524 0 -0.8790376
vn -0.8790892 -5.999965E-09 -0.4766574
vn -0.8790892 -5.999965E-09 -0.4766574
vn -0.8790892 -5.999965E-09 -0.4766574
vn -0.8790892 -8.142016E-09 -0.4766574
vn -0.8790892 -4.071008E-09 -0.4766574
vn -0.8790892 0 -0.4766574
vn -0.8790892 -4.071008E-09 -0.4766574
vn -0.4765951 0 0.8791229
vn -0.4765951 0 0.8791229
vn -0.4765951 0 0.8791229
vn -0.4765951 0 0.8791229
vn -0.4765951 -1.853294E-09 0.8791229
vn -0.4765951 -3.706587E-09 0.8791229
vn -0.4765951 -1.853294E-09 0.8791229
vn 0.8791794 0 0.4764909
vn 0.8791794 0 0.4764909
vn 0.8791794 0 0.4764909
vn 0.8791794 0 0.4764909
vn -0.8791794 -6.528998E-10 -0.4764909
vn -0.8791794 -1.3058E-09 -0.4764909
vn -0.8791794 -6.528998E-10 -0.4764909
vn -0.8791794 0 -0.4764909
vn -0.8791794 0 -0.4764909
vn -0.8791794 0 -0.4764909
vn -0.8791794 0 -0.4764909
vn -0.5020254 -1.178603E-08 0.8648528
vn -0.5020254 0 0.8648528
vn -0.5020254 -1.178603E-08 0.8648528
vn -0.5020254 -2.357207E-08 0.8648528
vn -0.5020254 0 0.8648529
vn -0.5020254 0 0.8648529
vn -0.5020254 0 0.8648529
vn 0.8650106 0 0.5017536
vn 0.8650106 0 0.5017536
vn 0.8650106 0 0.5017536
vn 0.8650106 0 0.5017536
vn 0.8650106 0 0.5017536
vn 0.8650106 0 0.5017536
vn 0.8650106 -1.882482E-08 0.5017536
vn 0.8650106 -1.882482E-08 0.5017536
vn 0.8650106 -1.882482E-08 0.5017536
vn 0.5020254 0 -0.8648528
vn 0.5020254 0 -0.8648528
vn 0.5020254 0 -0.8648528
vn 0.5020254 0 -0.8648528
vn -0.8650106 0 -0.5017536
vn -0.8650106 0 -0.5017536
vn -0.8650106 0 -0.5017536
vn -0.8650106 0 -0.5017536
vn -0.4762457 0 0.8793122
vn -0.4762457 0 0.8793122
vn -0.4762457 0 0.8793122
vn -0.4762457 -8.210172E-10 0.8793122
vn -0.4762457 -8.210172E-10 0.8793122
vn -0.4762457 -8.210172E-10 0.8793122
vn -0.4762457 8.81537E-10 0.8793122
vn -0.4762457 8.81537E-10 0.8793122
vn -0.4762457 8.81537E-10 0.8793122
vn -0.4765211 -1.554165E-10 0.879163
vn -0.4765211 0 0.879163
vn -0.4765211 -1.554165E-10 0.879163
vn -0.4765211 -3.10833E-10 0.879163
vn -0.4764211 0 0.8792172
vn -0.4764211 0 0.8792172
vn -0.4764211 0 0.8792172
vn -0.4765951 1.141446E-09 0.8791229
vn -0.4765951 1.141446E-09 0.8791229
vn -0.4765951 1.141446E-09 0.8791229
vn -0.4765577 0 0.8791432
vn -0.4765577 0 0.8791432
vn -0.4765577 0 0.8791432
vn -0.4765951 -7.664487E-10 0.8791229
vn -0.4765951 -7.664487E-10 0.8791229
vn -0.4765951 -7.664487E-10 0.8791229
vn -0.4765577 0 0.8791432
vn -0.4765577 0 0.8791432
vn -0.4765577 0 0.8791432
vn 0.8790742 0 0.476685
vn 0.8790742 0 0.476685
vn 0.8790742 0 0.476685
vn 0.8790742 0 0.476685
vn 0.4770919 0 -0.8788534
vn 0.4770919 0 -0.8788534
vn 0.4770919 0 -0.8788534
vn 0.4770919 0 -0.8788534
vn 0.4765439 4.050794E-09 -0.8791507
vn 0.4765439 4.050794E-09 -0.8791507
vn 0.4765439 4.050794E-09 -0.8791507
vn 0.4765509 0 -0.8791469
vn 0.4765509 0 -0.8791469
vn 0.4765509 0 -0.8791469
vn 0.4765439 1.468593E-10 -0.8791507
vn 0.4765439 1.468593E-10 -0.8791507
vn 0.4765439 1.468593E-10 -0.8791507
vn 0.4765509 0 -0.8791469
vn 0.4765509 0 -0.8791469
vn 0.4765509 0 -0.8791469
vn 0.4771676 1.320675E-09 -0.8788123
vn 0.4771676 1.320675E-09 -0.8788123
vn 0.4771676 1.320675E-09 -0.8788123
vn 0.4771675 -9.956609E-09 -0.8788124
vn 0.4771675 -9.956609E-09 -0.8788124
vn 0.4771675 -9.956609E-09 -0.8788124
vn 0.4771676 1.782922E-08 -0.8788123
vn 0.4771676 1.782922E-08 -0.8788123
vn 0.4771676 1.782922E-08 -0.8788123
vn 0.4765215 4.05085E-09 -0.8791628
vn 0.4765215 4.05085E-09 -0.8791628
vn 0.4765215 4.05085E-09 -0.8791628
vn -0.8791143 -1.373028E-06 -0.476611
vn -0.8791143 -1.373028E-06 -0.476611
vn -0.8791143 -1.373028E-06 -0.476611
vn -0.8791143 -1.373028E-06 -0.476611
vn -0.8791143 3.760052E-07 -0.476611
vn -0.8791143 3.760052E-07 -0.476611
vn -0.8791143 3.760052E-07 -0.476611
vn -0.8791143 3.760052E-07 -0.476611
vn -0.8791534 1.880026E-07 -0.4765388
vn -0.8791535 0 -0.4765386
vn -0.8791534 1.880026E-07 -0.4765388
vn -0.8791533 3.760052E-07 -0.476539
vn -0.8791121 0 -0.4766152
vn -0.8791121 0 -0.4766152
vn -0.8791121 0 -0.4766152
vn -0.879113 3.760052E-07 -0.4766134
vn -0.879113 3.760052E-07 -0.4766134
vn -0.879113 3.760052E-07 -0.4766134
vn -0.8791123 -1.880073E-07 -0.4766147
vn -0.8791123 -1.880073E-07 -0.4766147
vn -0.8791123 -1.880073E-07 -0.4766147
vn -0.4765767 0 0.8791329
vn -0.4765767 0 0.8791329
vn -0.4765767 0 0.8791329
vn -0.4765767 0 0.8791329
vn 0.8790988 0 0.4766396
vn 0.8790988 0 0.4766396
vn 0.8790988 0 0.4766396
vn 0.8790988 0 0.4766396
vn 0.4766096 0 -0.879115
vn 0.4766096 0 -0.879115
vn 0.4766096 0 -0.879115
vn 0.4766096 0 -0.879115
vn 0 -1 0
vn 0 -1 0
vn 0 -1 0
vn 0 -1 0
vn 0 -1 0
vn 0 -1 0
vn 0 -1 0

g CDNNDG01_0003080
f 4/4/4 1/1/1 2/2/2
f 3/3/3 4/4/4 2/2/2
f 5/5/5 6/6/6 7/7/7
f 8/8/8 10/10/10 11/11/11
f 8/8/8 9/9/9 10/10/10
f 12/12/12 14/14/14 15/15/15
f 12/12/12 13/13/13 14/14/14
f 19/19/19 16/16/16 18/18/18
f 18/18/18 16/16/16 17/17/17
f 23/23/23 20/20/20 22/22/22
f 22/22/22 20/20/20 21/21/21
f 27/27/27 24/24/24 25/25/25
f 26/26/26 27/27/27 25/25/25
f 28/28/28 29/29/29 30/30/30
f 31/31/31 32/32/32 33/33/33
f 34/34/34 35/35/35 36/36/36
f 37/37/37 38/38/38 39/39/39
f 40/40/40 41/41/41 42/42/42
f 43/43/43 44/44/44 45/45/45
f 46/46/46 47/47/47 48/48/48
f 49/49/49 50/50/50 51/51/51
f 52/52/52 53/53/53 54/54/54
f 55/55/55 56/56/56 57/57/57
f 58/58/58 59/59/59 60/60/60
f 61/61/61 62/62/62 63/63/63
f 64/64/64 65/65/65 66/66/66
f 67/67/67 68/68/68 69/69/69
f 70/70/70 71/71/71 72/72/72
f 73/73/73 74/74/74 75/75/75
f 76/76/76 77/77/77 78/78/78
f 79/79/79 80/80/80 81/81/81
f 82/82/82 83/83/83 84/84/84
f 85/85/85 86/86/86 87/87/87
f 88/88/88 89/89/89 90/90/90
f 91/91/91 92/92/92 93/93/93
f 94/94/94 95/95/95 96/96/96
f 97/97/97 98/98/98 99/99/99
f 100/100/100 101/101/101 102/102/102
f 103/103/103 104/104/104 105/105/105
f 106/106/106 107/107/107 108/108/108
f 109/109/109 110/110/110 111/111/111
f 112/112/112 113/113/113 114/114/114
f 115/115/115 116/116/116 117/117/117
f 121/121/121 118/118/118 119/119/119
f 119/119/119 120/120/120 121/121/121
f 125/125/125 122/122/122 124/124/124
f 123/123/123 124/124/124 122/122/122
f 126/126/126 127/127/127 128/128/128
f 130/130/130 131/131/131 132/132/132
f 129/129/129 130/130/130 132/132/132
f 133/133/133 134/134/134 135/135/135
f 137/137/137 138/138/138 139/139/139
f 136/136/136 137/137/137 139/139/139
f 140/140/140 142/142/142 143/143/143
f 140/140/140 141/141/141 142/142/142
f 144/144/144 146/146/146 147/147/147
f 144/144/144 145/145/145 146/146/146
f 148/148/148 149/149/149 150/150/150
f 151/151/151 153/153/153 154/154/154
f 151/151/151 152/152/152 153/153/153
f 155/155/155 156/156/156 157/157/157
f 158/158/158 159/159/159 160/160/160
f 161/161/161 162/162/162 163/163/163
f 164/164/164 165/165/165 166/166/166
f 167/167/167 169/169/169 170/170/170
f 167/167/167 168/168/168 169/169/169
f 174/174/174 171/171/171 173/173/173
f 173/173/173 171/171/171 172/172/172
f 175/175/175 176/176/176 177/177/177
f 178/178/178 179/179/179 180/180/180
f 181/181/181 182/182/182 183/183/183
f 184/184/184 186/186/186 187/187/187
f 186/186/186 184/184/184 185/185/185
f 188/188/188 189/189/189 190/190/190
f 191/191/191 192/192/192 193/193/193
f 194/194/194 195/195/195 196/196/196
f 197/197/197 198/198/198 199/199/199
f 200/200/200 201/201/201 202/202/202
f 203/203/203 205/205/205 206/206/206
f 203/203/203 204/204/204 205/205/205
f 208/208/208 209/209/209 210/210/210
f 207/207/207 208/208/208 210/210/210
f 211/211/211 212/212/212 213/213/213
f 214/214/214 215/215/215 216/216/216
f 217/217/217 218/218/218 219/219/219
f 220/220/220 221/221/221 222/222/222
f 223/223/223 224/224/224 225/225/225
f 226/226/226 227/227/227 228/228/228
f 229/229/229 230/230/230 231/231/231
f 232/232/232 233/233/233 234/234/234
f 238/238/238 235/235/235 236/236/236
f 237/237/237 238/238/238 236/236/236
f 239/239/239 240/240/240 241/241/241
f 242/242/242 239/239/239 241/241/241
f 246/246/246 243/243/243 245/245/245
f 245/245/245 243/243/243 244/244/244
f 247/247/247 248/248/248 249/249/249
f 250/250/250 251/251/251 252/252/252
f 253/253/253 254/254/254 255/255/255
f 256/256/256 258/258/258 259/259/259
f 258/258/258 256/256/256 257/257/257
f 263/263/263 260/260/260 262/262/262
f 261/261/261 262/262/262 260/260/260
f 267/267/267 264/264/264 266/266/266
f 265/265/265 266/266/266 264/264/264
f 270/270/270 272/272/272 273/273/273
f 268/268/268 269/269/269 273/273/273
f 272/272/272 270/270/270 271/271/271
f 274/274/274 268/268/268 273/273/273
f 273/273/273 269/269/269 270/270/270
