v -6.226118 5.443466 2.634072
v 2.465882 5.445096 3.212072
v 2.678512 5.445157 2.865718
v -6.226118 5.443466 2.634072
v 2.580882 5.445114 3.283072
v 2.465882 5.445096 3.212072
v -2.011118 5.444072 5.992072
v 0.08388199 5.444403 7.168072
v 2.580882 5.445114 3.283072
v 0.509882 5.445381 -7.849928
v 2.845882 5.445189 2.870072
v 7.038882 5.446382 -3.653928
v 0.509882 5.445381 -7.849928
v 2.721882 5.445169 2.795072
v 2.845882 5.445189 2.870072
v -6.226118 5.443466 2.634072
v 2.721882 5.445169 2.795072
v 0.509882 5.445381 -7.849928
v -6.226118 5.443466 2.634072
v 2.678512 5.445157 2.865718
v 2.721882 5.445169 2.795072
v -6.212118 5.443433 3.216072
v -2.011118 5.444072 5.992072
v -5.977392 5.443501 2.832226
v -6.491118 5.44339 3.046072
v -2.011118 5.444072 5.992072
v -6.212118 5.443433 3.216072
v -2.011118 5.444072 5.992072
v 0.006881999 5.444381 7.289072
v 0.08388199 5.444403 7.168072
v -6.519118 5.443382 3.089072
v -2.011118 5.444072 5.992072
v -6.491118 5.44339 3.046072
v -6.226118 5.443466 2.634072
v -5.957118 5.443507 2.799072
v 2.580882 5.445114 3.283072
v -5.957118 5.443507 2.799072
v -2.011118 5.444072 5.992072
v 2.580882 5.445114 3.283072
v -5.977392 5.443501 2.832226
v -2.011118 5.444072 5.992072
v -5.957118 5.443507 2.799072
v -6.491118 6.632049 3.046072
v -6.212118 6.632049 3.216072
v -5.957118 6.632049 2.799072
v -6.226118 6.632049 2.634072
v -6.491118 6.632049 3.046072
v -6.226118 6.632049 2.634072
v -6.373118 6.632049 2.544072
v -6.628118 6.632049 2.962072
v 2.580882 6.387049 3.283072
v 2.845882 6.387049 2.870072
v 2.721882 6.387049 2.795072
v 2.465882 6.387049 3.212072
v -7.205118 3.379049 4.157072
v -2.694118 3.379049 7.055072
v -2.011118 3.522049 5.992072
v -7.205118 3.379049 4.157072
v -2.011118 3.522049 5.992072
v -6.519118 3.522049 3.089072
v -2.011118 -5.34493 5.992072
v 0.006881999 -5.34493 7.289072
v 0.006881999 5.444381 7.289072
v -2.011118 3.522049 5.992072
v -2.011118 5.444072 5.992072
v -2.011118 3.522049 5.992072
v 0.006881999 5.444381 7.289072
v -6.519118 3.522049 3.089072
v -2.011118 3.522049 5.992072
v -2.011118 5.444072 5.992072
v -6.519118 5.443382 3.089072
v 0.04538199 -5.34493 7.228572
v 0.08388199 -5.34493 7.168072
v 0.08388199 5.444403 7.168072
v 0.006881999 5.444381 7.289072
v 0.006881999 -5.34493 7.289072
v 0.04538199 -5.34493 7.228572
v 0.006881999 5.444381 7.289072
v 0.04538199 -5.34493 7.228572
v 0.08388199 5.444403 7.168072
v 0.08388199 -5.34493 7.168072
v 2.580882 -5.34493 3.283072
v 2.580882 5.445114 3.283072
v 0.08388199 5.444403 7.168072
v 2.580882 -5.34493 3.283072
v 2.845882 -5.34493 2.870072
v 2.845882 5.445189 2.870072
v 2.580882 5.445114 3.283072
v 4.942382 -5.34493 -0.391928
v 7.038882 -5.34493 -3.653928
v 7.038882 5.446382 -3.653928
v 2.845882 5.445189 2.870072
v 2.845882 -5.34493 2.870072
v 4.942382 -5.34493 -0.391928
v 2.845882 5.445189 2.870072
v 4.942382 -5.34493 -0.391928
v 7.038882 5.446382 -3.653928
v 2.580882 5.445114 3.283072
v 2.845882 5.445189 2.870072
v 2.845882 6.387049 2.870072
v 2.580882 6.387049 3.283072
v 0.509882 5.445381 -7.849928
v 7.038882 5.446382 -3.653928
v 7.038882 -5.34493 -3.653928
v 0.509882 -5.34493 -7.849928
v -6.226118 5.443466 2.634072
v -2.858118 -5.34493 -2.607928
v -6.226118 -5.34493 2.634072
v -2.858118 -5.34493 -2.607928
v 0.509882 5.445381 -7.849928
v 0.509882 -5.34493 -7.849928
v -6.226118 5.443466 2.634072
v 0.509882 5.445381 -7.849928
v -2.858118 -5.34493 -2.607928
v -6.519118 5.443382 3.089072
v -6.505118 -5.34493 3.067572
v -6.519118 3.522049 3.089072
v -6.519118 3.522049 3.089072
v -6.505118 -5.34493 3.067572
v -6.519118 -5.34493 3.089072
v -6.505118 -5.34493 3.067572
v -6.491118 5.44339 3.046072
v -6.491118 -5.34493 3.046072
v -6.519118 5.443382 3.089072
v -6.491118 5.44339 3.046072
v -6.505118 -5.34493 3.067572
v -7.205118 3.379049 4.157072
v -6.862118 -5.34493 3.623072
v -7.205118 -5.34493 4.157072
v -6.862118 -5.34493 3.623072
v -6.519118 3.522049 3.089072
v -6.519118 -5.34493 3.089072
v -7.205118 3.379049 4.157072
v -6.519118 3.522049 3.089072
v -6.862118 -5.34493 3.623072
v -6.373118 6.632049 2.544072
v -6.226118 5.443466 2.634072
v -6.226118 -5.34493 2.634072
v -6.373118 -5.34493 2.544072
v -6.373118 6.632049 2.544072
v -6.226118 6.632049 2.634072
v -6.226118 5.443466 2.634072
v -6.226118 6.632049 2.634072
v -5.957118 6.632049 2.799072
v -5.957118 5.443507 2.799072
v -6.226118 5.443466 2.634072
v -6.628118 6.632049 2.962072
v -6.373118 6.632049 2.544072
v -6.373118 -5.34493 2.544072
v -6.628118 -5.34493 2.962072
v -6.628118 6.632049 2.962072
v -6.491118 5.44339 3.046072
v -6.491118 6.632049 3.046072
v -6.628118 -5.34493 2.962072
v -6.491118 -5.34493 3.046072
v -6.491118 5.44339 3.046072
v -6.628118 6.632049 2.962072
v -6.491118 5.44339 3.046072
v -6.212118 5.443433 3.216072
v -6.212118 6.632049 3.216072
v -6.491118 6.632049 3.046072
v -5.977392 5.443501 2.832226
v -5.957118 5.443507 2.799072
v -5.957118 6.632049 2.799072
v -6.212118 6.632049 3.216072
v -6.212118 5.443433 3.216072
v -5.977392 5.443501 2.832226
v -6.212118 6.632049 3.216072
v -5.977392 5.443501 2.832226
v -5.957118 6.632049 2.799072
v 2.721882 6.387049 2.795072
v 2.845882 6.387049 2.870072
v 2.845882 5.445189 2.870072
v 2.721882 5.445169 2.795072
v 2.465882 6.387049 3.212072
v 2.678512 5.445157 2.865718
v 2.465882 5.445096 3.212072
v 2.678512 5.445157 2.865718
v 2.721882 6.387049 2.795072
v 2.721882 5.445169 2.795072
v 2.465882 6.387049 3.212072
v 2.721882 6.387049 2.795072
v 2.678512 5.445157 2.865718
v 2.465882 5.445096 3.212072
v 2.580882 5.445114 3.283072
v 2.580882 6.387049 3.283072
v 2.465882 6.387049 3.212072
v -7.205118 -5.34493 4.157072
v -2.694118 -5.34493 7.055072
v -2.694118 3.379049 7.055072
v -7.205118 3.379049 4.157072
v -2.694118 -5.34493 7.055072
v -2.011118 -5.34493 5.992072
v -2.011118 3.522049 5.992072
v -2.694118 3.379049 7.055072
v -6.862118 -5.34493 3.623072
v -6.519118 -5.34493 3.089072
v -6.505118 -5.34493 3.067572
v -6.491118 -5.34493 3.046072
v -6.628118 -5.34493 2.962072
v -6.373118 -5.34493 2.544072
v -6.226118 -5.34493 2.634072
v -2.858118 -5.34493 -2.607928
v 0.509882 -5.34493 -7.849928
v 7.038882 -5.34493 -3.653928
v 4.942382 -5.34493 -0.391928
v 2.845882 -5.34493 2.870072
v 2.580882 -5.34493 3.283072
v 0.08388199 -5.34493 7.168072
v 0.04538199 -5.34493 7.228572
v 0.006881999 -5.34493 7.289072
v -2.011118 -5.34493 5.992072
v -2.694118 -5.34493 7.055072
v -7.205118 -5.34493 4.157072
vt 0.211926 0.435502
vt 0.184291 0.152038
vt 0.199731 0.145052
vt 0.211926 0.435502
vt 0.181094 0.148297
vt 0.184291 0.152038
vt 0.060943 0.298488
vt 0.007938 0.230314
vt 0.181094 0.148297
vt 0.679216 0.214261
vt 0.199502 0.139592
vt 0.490298 0.001859
vt 0.679216 0.214261
vt 0.202880 0.143627
vt 0.199502 0.139592
vt 0.211926 0.435502
vt 0.202880 0.143627
vt 0.679216 0.214261
vt 0.211926 0.435502
vt 0.199731 0.145052
vt 0.202880 0.143627
vt 0.185907 0.435129
vt 0.060943 0.298488
vt 0.203017 0.427417
vt 0.193564 0.444206
vt 0.060943 0.298488
vt 0.185907 0.435129
vt 0.060943 0.298488
vt 0.002545 0.232843
vt 0.007938 0.230314
vt 0.191647 0.445125
vt 0.060943 0.298488
vt 0.193564 0.444206
vt 0.211926 0.435502
vt 0.204495 0.426751
vt 0.181094 0.148297
vt 0.204495 0.426751
vt 0.060943 0.298488
vt 0.181094 0.148297
vt 0.203017 0.427417
vt 0.060943 0.298488
vt 0.204495 0.426751
vt 0.912917 0.744756
vt 0.905852 0.736370
vt 0.922997 0.728625
vt 0.929853 0.736709
vt 0.912917 0.744756
vt 0.929853 0.736709
vt 0.933592 0.741127
vt 0.916407 0.748873
vt 0.002545 0.996349
vt 0.018988 0.988848
vt 0.022006 0.992324
vt 0.005401 0.999573
vt 0.660747 0.897255
vt 0.531807 0.751579
vt 0.578509 0.728625
vt 0.660747 0.897255
vt 0.578509 0.728625
vt 0.707692 0.874230
vt 0.261579 0.844194
vt 0.204445 0.779568
vt 0.195929 0.728625
vt 0.255236 0.803152
vt 0.253843 0.794135
vt 0.255236 0.803152
vt 0.195929 0.728625
vt 0.384541 0.949131
vt 0.255236 0.803152
vt 0.253843 0.794135
vt 0.383462 0.940472
vt 0.014678 0.675876
vt 0.017335 0.674632
vt 0.007930 0.721195
vt 0.002545 0.723718
vt 0.012022 0.677121
vt 0.014678 0.675876
vt 0.002545 0.723718
vt 0.014678 0.675876
vt 0.007930 0.721195
vt 0.017335 0.674632
vt 0.187921 0.593920
vt 0.180841 0.639388
vt 0.007930 0.721195
vt 0.187921 0.593920
vt 0.206056 0.585354
vt 0.199223 0.630705
vt 0.180841 0.639388
vt 0.349294 0.517585
vt 0.492536 0.449814
vt 0.489608 0.493324
vt 0.199223 0.630705
vt 0.206056 0.585354
vt 0.349294 0.517585
vt 0.199223 0.630705
vt 0.349294 0.517585
vt 0.489608 0.493324
vt 0.180841 0.639388
vt 0.199223 0.630705
vt 0.198618 0.634723
vt 0.180214 0.643416
vt 0.189644 0.983869
vt 0.002545 0.772113
vt 0.005448 0.728625
vt 0.190031 0.937538
vt 0.498728 0.671107
vt 0.734807 0.610247
vt 0.504493 0.719396
vt 0.734807 0.610247
vt 0.965651 0.449814
vt 0.965131 0.501093
vt 0.498728 0.671107
vt 0.965651 0.449814
vt 0.734807 0.610247
vt 0.759420 0.729527
vt 0.766122 0.776328
vt 0.760464 0.738035
vt 0.760464 0.738035
vt 0.766122 0.776328
vt 0.765215 0.776773
vt 0.766122 0.776328
vt 0.761258 0.728625
vt 0.767028 0.775883
vt 0.759420 0.729527
vt 0.761258 0.728625
vt 0.766122 0.776328
vt 0.715013 0.760716
vt 0.742699 0.787678
vt 0.720182 0.798582
vt 0.742699 0.787678
vt 0.760464 0.738035
vt 0.765215 0.776773
vt 0.715013 0.760716
vt 0.760464 0.738035
vt 0.742699 0.787678
vt 0.834530 0.786811
vt 0.831620 0.776763
vt 0.837482 0.728625
vt 0.840994 0.733219
vt 0.834530 0.786811
vt 0.830964 0.782147
vt 0.831620 0.776763
vt 0.830964 0.782147
vt 0.824427 0.773613
vt 0.825093 0.768242
vt 0.831620 0.776763
vt 0.796438 0.736826
vt 0.813311 0.728625
vt 0.819056 0.781023
vt 0.802435 0.789102
vt 0.783612 0.741895
vt 0.780872 0.742803
vt 0.780280 0.737525
vt 0.789443 0.794299
vt 0.786161 0.789994
vt 0.780872 0.742803
vt 0.783612 0.741895
vt 0.780872 0.742803
vt 0.774139 0.733916
vt 0.773537 0.728625
vt 0.780280 0.737525
vt 0.977550 0.729210
vt 0.978848 0.728625
vt 0.978182 0.733471
vt 0.961832 0.740844
vt 0.962522 0.735986
vt 0.977550 0.729210
vt 0.961832 0.740844
vt 0.977550 0.729210
vt 0.978182 0.733471
vt 0.037321 0.995328
vt 0.035623 0.992083
vt 0.035928 0.988848
vt 0.037623 0.992089
vt 0.938931 0.736045
vt 0.952982 0.733956
vt 0.939410 0.740113
vt 0.952982 0.733956
vt 0.955292 0.728625
vt 0.955751 0.732701
vt 0.938931 0.736045
vt 0.955292 0.728625
vt 0.952982 0.733956
vt 0.029872 0.995582
vt 0.028265 0.992570
vt 0.027990 0.988848
vt 0.029598 0.991863
vt 0.525533 0.912921
vt 0.398570 0.768690
vt 0.391858 0.728625
vt 0.520218 0.874443
vt 0.854547 0.750176
vt 0.899330 0.728625
vt 0.892492 0.766624
vt 0.847328 0.787792
vt 0.043257 0.988848
vt 0.043257 0.988848
vt 0.043257 0.988848
vt 0.043257 0.988848
vt 0.043257 0.988848
vt 0.043257 0.988848
vt 0.043257 0.988848
vt 0.043257 0.988848
vt 0.043257 0.988848
vt 0.043257 0.988848
vt 0.043257 0.988848
vt 0.043257 0.988848
vt 0.043257 0.988848
vt 0.043257 0.988848
vt 0.043257 0.988848
vt 0.043257 0.988848
vt 0.043257 0.988848
vt 0.043257 0.988848
vt 0.043257 0.988848
vn -0.0001915231 1 5.96687E-05
vn -0.0001915231 1 5.96687E-05
vn -0.0001915231 1 5.96687E-05
vn -0.0001915322 1 5.98056E-05
vn -0.0001915322 1 5.98056E-05
vn -0.0001915322 1 5.98056E-05
vn -0.0001915248 1 5.968919E-05
vn -0.0001915248 1 5.968919E-05
vn -0.0001915248 1 5.968919E-05
vn -0.0001915248 1 5.96914E-05
vn -0.0001915248 1 5.96914E-05
vn -0.0001915248 1 5.96914E-05
vn -0.0001915042 1 5.968693E-05
vn -0.0001915042 1 5.968693E-05
vn -0.0001915042 1 5.968693E-05
vn -0.0001915244 1 5.969112E-05
vn -0.0001915244 1 5.969112E-05
vn -0.0001915244 1 5.969112E-05
vn -0.0001915261 1 5.978359E-05
vn -0.0001915261 1 5.978359E-05
vn -0.0001915261 1 5.978359E-05
vn -0.0001915267 1 5.969519E-05
vn -0.0001915267 1 5.969519E-05
vn -0.0001915267 1 5.969519E-05
vn -0.0001916302 1 5.985174E-05
vn -0.0001916302 1 5.985174E-05
vn -0.0001916302 1 5.985174E-05
vn -0.0001915255 1 5.96904E-05
vn -0.0001915255 1 5.96904E-05
vn -0.0001915255 1 5.96904E-05
vn -0.0001915309 1 5.970079E-05
vn -0.0001915309 1 5.970079E-05
vn -0.0001915309 1 5.970079E-05
vn -0.0001915242 1 5.969682E-05
vn -0.0001915242 1 5.969682E-05
vn -0.0001915242 1 5.969682E-05
vn -0.0001915238 1 5.969089E-05
vn -0.0001915238 1 5.969089E-05
vn -0.0001915238 1 5.969089E-05
vn -0.000191491 1 5.965028E-05
vn -0.000191491 1 5.965028E-05
vn -0.000191491 1 5.965028E-05
vn 0 1 0
vn 0 1 0
vn 0 1 0
vn 0 1 0
vn 0 1 0
vn 0 1 0
vn 0 1 0
vn 0 1 0
vn 0 1 0
vn 0 1 0
vn 0 1 0
vn 0 1 0
vn -0.06078434 0.9936564 0.09461633
vn -0.06078434 0.9936564 0.09461633
vn -0.06078434 0.9936564 0.09461633
vn -0.06061113 0.993714 0.09412158
vn -0.06061113 0.993714 0.09412158
vn -0.06061113 0.993714 0.09412158
vn -0.5406733 0 0.8412327
vn -0.5406733 0 0.8412327
vn -0.5406733 0 0.8412327
vn -0.5406733 0 0.8412327
vn -0.5406733 0 0.8412327
vn -0.5406733 0 0.8412327
vn -0.5406733 0 0.8412327
vn -0.5414172 0 0.840754
vn -0.5414172 0 0.840754
vn -0.5414172 0 0.840754
vn -0.5414172 0 0.840754
vn 0.8436615 0 0.5368755
vn 0.8436615 0 0.5368755
vn 0.8436615 0 0.5368755
vn 0.8436615 0 0.5368754
vn 0.8436615 0 0.5368754
vn 0.8436615 0 0.5368754
vn 0.8436615 -3.682575E-10 0.5368754
vn 0.8436615 -3.682575E-10 0.5368754
vn 0.8436615 -3.682575E-10 0.5368754
vn 0.8412277 0 0.540681
vn 0.8412277 0 0.540681
vn 0.8412277 0 0.540681
vn 0.8412277 0 0.540681
vn 0.8416417 0 0.5400364
vn 0.8416417 0 0.5400364
vn 0.8416417 0 0.5400364
vn 0.8416417 0 0.5400364
vn 0.8412371 0 0.5406663
vn 0.8412371 0 0.5406663
vn 0.8412371 0 0.5406663
vn 0.8412371 0 0.5406663
vn 0.8412371 0 0.5406663
vn 0.8412371 0 0.5406663
vn 0.8412371 -6.44635E-10 0.5406663
vn 0.8412371 -6.44635E-10 0.5406663
vn 0.8412371 -6.44635E-10 0.5406663
vn 0.8416417 0 0.5400364
vn 0.8416417 0 0.5400364
vn 0.8416417 0 0.5400364
vn 0.8416417 0 0.5400364
vn 0.5406469 0 -0.8412496
vn 0.5406469 0 -0.8412496
vn 0.5406469 0 -0.8412496
vn 0.5406469 0 -0.8412496
vn -0.841314 0 -0.5405467
vn -0.841314 0 -0.5405467
vn -0.841314 0 -0.5405467
vn -0.841314 0 -0.5405467
vn -0.841314 0 -0.5405467
vn -0.841314 0 -0.5405467
vn -0.841314 6.492338E-10 -0.5405467
vn -0.841314 6.492338E-10 -0.5405467
vn -0.841314 6.492338E-10 -0.5405467
vn -0.8379981 0 -0.5456732
vn -0.8379981 0 -0.5456732
vn -0.8379981 0 -0.5456732
vn -0.8379981 0 -0.5456732
vn -0.8379981 0 -0.5456732
vn -0.8379981 0 -0.5456732
vn -0.8379981 0 -0.5456731
vn -0.8379981 0 -0.5456731
vn -0.8379981 0 -0.5456731
vn -0.8379981 -2.129247E-11 -0.5456732
vn -0.8379981 -2.129247E-11 -0.5456732
vn -0.8379981 -2.129247E-11 -0.5456732
vn -0.8413832 0 -0.5404391
vn -0.8413832 0 -0.5404391
vn -0.8413832 0 -0.5404391
vn -0.8413832 0 -0.5404391
vn -0.8413832 0 -0.5404391
vn -0.8413832 0 -0.5404391
vn -0.8413832 5.074774E-10 -0.5404391
vn -0.8413832 5.074774E-10 -0.5404391
vn -0.8413832 5.074774E-10 -0.5404391
vn 0.5221534 0 -0.8528516
vn 0.5221534 0 -0.8528516
vn 0.5221534 0 -0.8528516
vn 0.5221534 0 -0.8528516
vn 0.5221534 0 -0.8528516
vn 0.5221534 0 -0.8528516
vn 0.5221534 0 -0.8528516
vn 0.5228595 0 -0.8524189
vn 0.5228595 0 -0.8524189
vn 0.5228595 0 -0.8524189
vn 0.5228595 0 -0.8524189
vn -0.8536854 0 -0.520789
vn -0.8536854 0 -0.520789
vn -0.8536854 0 -0.520789
vn -0.8536854 0 -0.520789
vn -0.5227074 0 0.8525121
vn -0.5227074 0 0.8525121
vn -0.5227074 0 0.8525121
vn -0.5227074 0 0.8525121
vn -0.5227074 0 0.8525121
vn -0.5227074 0 0.8525121
vn -0.5227074 0 0.8525121
vn -0.5203356 0 0.8539619
vn -0.5203356 0 0.8539619
vn -0.5203356 0 0.8539619
vn -0.5203356 0 0.8539619
vn 0.8531301 0 0.5216982
vn 0.8531301 0 0.5216982
vn 0.8531301 0 0.5216982
vn 0.8531301 0 0.5216982
vn 0.8531301 0 0.5216982
vn 0.8531301 0 0.5216982
vn 0.8531301 1.935039E-09 0.5216982
vn 0.8531301 1.935039E-09 0.5216982
vn 0.8531301 1.935039E-09 0.5216982
vn 0.517537 0 -0.8556609
vn 0.517537 0 -0.8556609
vn 0.517537 0 -0.8556609
vn 0.517537 0 -0.8556609
vn -0.8522192 0 -0.5231849
vn -0.8522192 0 -0.5231849
vn -0.8522192 0 -0.5231849
vn -0.8522192 0 -0.523185
vn -0.8522192 0 -0.523185
vn -0.8522192 0 -0.523185
vn -0.8522192 1.525394E-09 -0.5231849
vn -0.8522192 1.525394E-09 -0.5231849
vn -0.8522192 1.525394E-09 -0.5231849
vn -0.5253354 0 0.8508952
vn -0.5253354 0 0.8508952
vn -0.5253354 0 0.8508952
vn -0.5253354 0 0.8508952
vn -0.540503 0 0.841342
vn -0.540503 0 0.841342
vn -0.540503 0 0.841342
vn -0.540503 0 0.841342
vn 0.841307 0 0.5405576
vn 0.841307 0 0.5405576
vn 0.841307 0 0.5405576
vn 0.841307 0 0.5405576
vn 0 -1 0
vn 0 -1 0
vn 0 -1 0
vn 0 -1 0
vn 0 -1 0
vn 0 -1 0
vn 0 -1 0
vn 0 -1 0
vn 0 -1 0
vn 0 -1 0
vn 0 -1 0
vn 0 -1 0
vn 0 -1 0
vn 0 -1 0
vn 0 -1 0
vn 0 -1 0
vn 0 -1 0
vn 0 -1 0
vn 0 -1 0

g CDNNDG02_0005940
f 1/1/1 2/2/2 3/3/3
f 4/4/4 5/5/5 6/6/6
f 7/7/7 8/8/8 9/9/9
f 10/10/10 11/11/11 12/12/12
f 13/13/13 14/14/14 15/15/15
f 16/16/16 17/17/17 18/18/18
f 19/19/19 20/20/20 21/21/21
f 22/22/22 23/23/23 24/24/24
f 25/25/25 26/26/26 27/27/27
f 28/28/28 29/29/29 30/30/30
f 31/31/31 32/32/32 33/33/33
f 34/34/34 35/35/35 36/36/36
f 37/37/37 38/38/38 39/39/39
f 40/40/40 41/41/41 42/42/42
f 44/44/44 45/45/45 46/46/46
f 43/43/43 44/44/44 46/46/46
f 47/47/47 49/49/49 50/50/50
f 47/47/47 48/48/48 49/49/49
f 51/51/51 53/53/53 54/54/54
f 51/51/51 52/52/52 53/53/53
f 55/55/55 56/56/56 57/57/57
f 58/58/58 59/59/59 60/60/60
f 64/64/64 61/61/61 62/62/62
f 63/63/63 64/64/64 62/62/62
f 65/65/65 66/66/66 67/67/67
f 71/71/71 68/68/68 69/69/69
f 70/70/70 71/71/71 69/69/69
f 72/72/72 73/73/73 74/74/74
f 75/75/75 76/76/76 77/77/77
f 78/78/78 79/79/79 80/80/80
f 82/82/82 83/83/83 84/84/84
f 81/81/81 82/82/82 84/84/84
f 86/86/86 87/87/87 88/88/88
f 85/85/85 86/86/86 88/88/88
f 89/89/89 90/90/90 91/91/91
f 92/92/92 93/93/93 94/94/94
f 95/95/95 96/96/96 97/97/97
f 99/99/99 100/100/100 101/101/101
f 98/98/98 99/99/99 101/101/101
f 105/105/105 102/102/102 104/104/104
f 103/103/103 104/104/104 102/102/102
f 106/106/106 107/107/107 108/108/108
f 109/109/109 110/110/110 111/111/111
f 112/112/112 113/113/113 114/114/114
f 115/115/115 116/116/116 117/117/117
f 118/118/118 119/119/119 120/120/120
f 121/121/121 122/122/122 123/123/123
f 124/124/124 125/125/125 126/126/126
f 127/127/127 128/128/128 129/129/129
f 130/130/130 131/131/131 132/132/132
f 133/133/133 134/134/134 135/135/135
f 137/137/137 139/139/139 136/136/136
f 139/139/139 137/137/137 138/138/138
f 140/140/140 141/141/141 142/142/142
f 143/143/143 145/145/145 146/146/146
f 143/143/143 144/144/144 145/145/145
f 147/147/147 149/149/149 150/150/150
f 147/147/147 148/148/148 149/149/149
f 151/151/151 152/152/152 153/153/153
f 156/156/156 157/157/157 154/154/154
f 156/156/156 154/154/154 155/155/155
f 159/159/159 160/160/160 161/161/161
f 158/158/158 159/159/159 161/161/161
f 162/162/162 163/163/163 164/164/164
f 165/165/165 166/166/166 167/167/167
f 168/168/168 169/169/169 170/170/170
f 173/173/173 171/171/171 172/172/172
f 171/171/171 173/173/173 174/174/174
f 175/175/175 176/176/176 177/177/177
f 178/178/178 179/179/179 180/180/180
f 181/181/181 182/182/182 183/183/183
f 187/187/187 185/185/185 186/186/186
f 187/187/187 184/184/184 185/185/185
f 191/191/191 188/188/188 190/190/190
f 190/190/190 188/188/188 189/189/189
f 193/193/193 194/194/194 195/195/195
f 192/192/192 193/193/193 195/195/195
f 214/214/214 196/196/196 213/213/213
f 213/213/213 196/196/196 212/212/212
f 208/208/208 212/212/212 203/203/203
f 208/208/208 203/203/203 207/207/207
f 203/203/203 206/206/206 207/207/207
f 209/209/209 212/212/212 208/208/208
f 200/200/200 201/201/201 199/199/199
f 212/212/212 197/197/197 198/198/198
f 206/206/206 203/203/203 204/204/204
f 202/202/202 199/199/199 201/201/201
f 206/206/206 204/204/204 205/205/205
f 212/212/212 196/196/196 197/197/197
f 198/198/198 199/199/199 212/212/212
f 203/203/203 212/212/212 202/202/202
f 210/210/210 212/212/212 209/209/209
f 212/212/212 199/199/199 202/202/202
f 212/212/212 210/210/210 211/211/211
