v -3.751671 5.120069 3.408781
v -1.186671 5.038069 8.598781
v 0.4083289 5.121069 5.687781
v -5.346671 5.038069 6.319781
v -1.186671 5.038069 8.598781
v -3.751671 5.120069 3.408781
v -6.658671 5.625069 1.813781
v -3.751671 5.625069 3.408781
v -1.325671 5.625069 -7.915219
v 3.668329 5.625069 -5.177219
v 3.997329 5.625069 -5.777219
v 3.668329 5.625069 -5.177219
v 6.709329 5.625069 -3.682219
v 6.965329 5.625069 -4.150219
v 0.4083289 5.625069 5.687781
v 6.709329 5.625069 -3.682219
v 3.668329 5.625069 -5.177219
v -3.751671 5.625069 3.408781
v 0.4083289 5.625069 5.687781
v 3.668329 5.625069 -5.177219
v 1.777329 5.625069 6.437781
v 7.183329 5.625069 -3.423219
v 6.709329 5.625069 -3.682219
v 0.4083289 5.625069 5.687781
v 1.777329 5.625069 6.437781
v 6.709329 5.625069 -3.682219
v -5.346671 5.038069 6.319781
v -5.346671 -5.559211 6.319781
v -1.186671 5.038069 8.598781
v -1.186671 -5.559211 8.598781
v 0.4083289 -5.559211 5.687781
v 0.4083289 5.121069 5.687781
v -1.186671 5.038069 8.598781
v -1.186671 -5.559211 8.598781
v -5.346671 -5.559211 6.319781
v -5.346671 5.038069 6.319781
v -3.751671 -5.559211 3.408781
v -3.751671 5.120069 3.408781
v -5.205171 -5.559211 2.611281
v -3.751671 5.120069 3.408781
v -3.751671 5.625069 3.408781
v -5.205171 -5.559211 2.611281
v -3.751671 -5.559211 3.408781
v -3.751671 5.120069 3.408781
v -6.658671 5.625069 1.813781
v -6.658671 -5.559211 1.813781
v -5.205171 -5.559211 2.611281
v -6.658671 5.625069 1.813781
v -5.205171 -5.559211 2.611281
v -3.751671 5.625069 3.408781
v 1.777329 -5.559211 6.437781
v 1.777329 5.625069 6.437781
v 0.4083289 5.121069 5.687781
v 0.4083289 -5.559211 5.687781
v 0.4083289 5.625069 5.687781
v 0.4083289 5.121069 5.687781
v 1.777329 5.625069 6.437781
v -3.751671 5.625069 3.408781
v 0.4083289 5.121069 5.687781
v 0.4083289 5.625069 5.687781
v -3.751671 5.120069 3.408781
v 1.777329 -5.559211 6.437781
v 7.183329 5.625069 -3.423219
v 1.777329 5.625069 6.437781
v 7.183329 -5.559211 -3.423219
v 7.183329 -5.559211 -3.423219
v 6.709329 5.625069 -3.682219
v 7.183329 5.625069 -3.423219
v 6.709329 -5.559211 -3.682219
v 6.837329 -5.559211 -3.916219
v 6.965329 -5.559211 -4.150219
v 6.965329 5.625069 -4.150219
v 6.709329 5.625069 -3.682219
v 6.709329 -5.559211 -3.682219
v 6.837329 -5.559211 -3.916219
v 6.709329 5.625069 -3.682219
v 6.837329 -5.559211 -3.916219
v 6.965329 5.625069 -4.150219
v 6.965329 -5.559211 -4.150219
v 3.997329 5.625069 -5.777219
v 6.965329 5.625069 -4.150219
v 3.997329 -5.559211 -5.777219
v 3.668329 5.625069 -5.177219
v 3.997329 -5.559211 -5.777219
v 3.668329 -5.559211 -5.177219
v 3.997329 5.625069 -5.777219
v -1.325671 5.625069 -7.915219
v 3.668329 -5.559211 -5.177219
v -1.325671 -5.559211 -7.915219
v 3.668329 5.625069 -5.177219
v -6.658671 5.625069 1.813781
v -1.325671 -5.559211 -7.915219
v -6.658671 -5.559211 1.813781
v -1.325671 5.625069 -7.915219
v -5.346671 -5.559211 6.319781
v -3.751671 -5.559211 3.408781
v -1.186671 -5.559211 8.598781
v -5.205171 -5.559211 2.611281
v -1.325671 -5.559211 -7.915219
v 0.4083289 -5.559211 5.687781
v 6.709329 -5.559211 -3.682219
v 1.777329 -5.559211 6.437781
v -6.658671 -5.559211 1.813781
v 3.668329 -5.559211 -5.177219
v 7.183329 -5.559211 -3.423219
v 3.997329 -5.559211 -5.777219
v 6.965329 -5.559211 -4.150219
v 6.837329 -5.559211 -3.916219
vt 0.509128 0.601717
vt 0.690420 0.668145
vt 0.589378 0.710547
vt 0.610166 0.559322
vt 0.690420 0.668145
vt 0.509128 0.601717
vt 0.163075 0.367488
vt 0.107525 0.290512
vt 0.501982 0.226868
vt 0.406628 0.094619
vt 0.427530 0.085943
vt 0.406628 0.094619
vt 0.354562 0.014094
vt 0.370865 0.007343
vt 0.028151 0.180353
vt 0.354562 0.014094
vt 0.406628 0.094619
vt 0.107525 0.290512
vt 0.028151 0.180353
vt 0.406628 0.094619
vt 0.002028 0.144101
vt 0.345541 0.001541
vt 0.354562 0.014094
vt 0.028151 0.180353
vt 0.002028 0.144101
vt 0.354562 0.014094
vt 0.695740 0.601599
vt 0.826600 0.559322
vt 0.776715 0.710377
vt 0.906524 0.666694
vt 0.648821 0.925671
vt 0.517241 0.894036
vt 0.618518 0.852080
vt 0.747769 0.884011
vt 0.413284 0.935081
vt 0.279919 0.893825
vt 0.512938 0.894200
vt 0.379840 0.852080
vt 0.675913 0.039218
vt 0.570383 0.120247
vt 0.563979 0.122326
vt 0.675913 0.039218
vt 0.703964 0.076895
vt 0.570383 0.120247
vt 0.507099 0.045929
vt 0.647863 0.001541
vt 0.675913 0.039218
vt 0.507099 0.045929
vt 0.675913 0.039218
vt 0.563979 0.122326
vt 0.810502 0.220211
vt 0.671996 0.267625
vt 0.651591 0.229506
vt 0.784123 0.184726
vt 0.645251 0.231649
vt 0.651591 0.229506
vt 0.671996 0.267625
vt 0.563979 0.122326
vt 0.651591 0.229506
vt 0.645251 0.231649
vt 0.570383 0.120247
vt 0.960202 0.404399
vt 0.480730 0.516205
vt 0.822066 0.371341
vt 0.623514 0.547288
vt 0.137887 0.956857
vt 0.010961 0.999865
vt 0.002028 0.987694
vt 0.146698 0.968862
vt 0.301966 0.990396
vt 0.294044 0.993672
vt 0.152130 0.963500
vt 0.168192 0.956857
vt 0.309887 0.987120
vt 0.301966 0.990396
vt 0.168192 0.956857
vt 0.301966 0.990396
vt 0.152130 0.963500
vt 0.277955 0.734977
vt 0.198289 0.844406
vt 0.141988 0.766556
vt 0.333487 0.811766
vt 0.752536 0.860554
vt 0.907837 0.898550
vt 0.887382 0.906908
vt 0.773273 0.852080
vt 0.368742 0.723802
vt 0.409550 0.559322
vt 0.503161 0.689104
vt 0.273834 0.592227
vt 0.002028 0.511326
vt 0.475906 0.416788
vt 0.141363 0.554862
vt 0.341190 0.371341
vt 0.314402 0.956857
vt 0.314402 0.956857
vt 0.314402 0.956857
vt 0.314402 0.956857
vt 0.314402 0.956857
vt 0.314402 0.956857
vt 0.314402 0.956857
vt 0.314402 0.956857
vt 0.314402 0.956857
vt 0.314402 0.956857
vt 0.314402 0.956857
vt 0.314402 0.956857
vt 0.314402 0.956857
vt 0.314402 0.956857
vn -0.01219504 0.9996875 0.0218217
vn -0.01219504 0.9996875 0.0218217
vn -0.01219504 0.9996875 0.0218217
vn -0.01186559 0.999695 0.02165901
vn -0.01186559 0.999695 0.02165901
vn -0.01186559 0.999695 0.02165901
vn 0 1 0
vn 0 1 0
vn 0 1 0
vn 0 1 0
vn 0 1 0
vn 0 1 0
vn 0 1 0
vn 0 1 0
vn 0 1 0
vn 0 1 0
vn 0 1 0
vn 0 1 0
vn 0 1 0
vn 0 1 0
vn 0 1 0
vn 0 1 0
vn 0 1 0
vn 0 1 0
vn 0 1 0
vn 0 1 0
vn -0.4804614 0 0.8770159
vn -0.4804614 0 0.8770159
vn -0.4804614 0 0.8770159
vn -0.4804614 0 0.8770159
vn 0.8769844 0 0.4805188
vn 0.8769844 0 0.4805188
vn 0.8769844 0 0.4805188
vn 0.8769844 0 0.4805188
vn -0.8769844 0 -0.4805188
vn -0.8769844 0 -0.4805188
vn -0.8769844 0 -0.4805188
vn -0.8769844 0 -0.4805188
vn -0.4810271 0 0.8767058
vn -0.4810271 0 0.8767058
vn -0.4810271 0 0.8767058
vn -0.4810271 0 0.8767058
vn -0.4810271 0 0.8767058
vn -0.4810271 0 0.8767058
vn -0.4810271 0 0.8767058
vn -0.4810271 0 0.8767058
vn -0.4810271 0 0.8767058
vn -0.4810271 0 0.8767058
vn -0.4810271 0 0.8767058
vn -0.4810271 0 0.8767058
vn -0.4804672 0 0.8770127
vn -0.4804672 0 0.8770127
vn -0.4804672 0 0.8770127
vn -0.4804672 0 0.8770127
vn -0.4804672 0 0.8770127
vn -0.4804672 0 0.8770127
vn -0.4804672 0 0.8770127
vn -0.4804614 0 0.8770159
vn -0.4804614 0 0.8770159
vn -0.4804614 0 0.8770159
vn -0.4804614 0 0.8770159
vn 0.8768741 0 0.4807201
vn 0.8768741 0 0.4807201
vn 0.8768741 0 0.4807201
vn 0.8768741 0 0.4807201
vn 0.4795006 0 -0.8775415
vn 0.4795006 0 -0.8775415
vn 0.4795006 0 -0.8775415
vn 0.4795006 0 -0.8775415
vn 0.8773218 0 0.4799025
vn 0.8773218 0 0.4799025
vn 0.8773218 0 0.4799025
vn 0.8773218 0 0.4799025
vn 0.8773218 0 0.4799025
vn 0.8773218 0 0.4799025
vn 0.8773218 0 0.4799025
vn 0.8773218 0 0.4799025
vn 0.8773218 0 0.4799025
vn 0.4806934 0 -0.8768888
vn 0.4806934 0 -0.8768888
vn 0.4806934 0 -0.8768888
vn 0.4806934 0 -0.8768888
vn -0.8768323 0 -0.4807964
vn -0.8768323 0 -0.4807964
vn -0.8768323 0 -0.4807964
vn -0.8768323 0 -0.4807964
vn 0.4807455 0 -0.8768601
vn 0.4807455 0 -0.8768601
vn 0.4807455 0 -0.8768601
vn 0.4807455 0 -0.8768601
vn -0.8768982 0 -0.4806761
vn -0.8768982 0 -0.4806761
vn -0.8768982 0 -0.4806761
vn -0.8768982 0 -0.4806761
vn 0 -1 0
vn 0 -1 0
vn 0 -1 0
vn 0 -1 0
vn 0 -1 0
vn 0 -1 0
vn 0 -1 0
vn 0 -1 0
vn 0 -1 0
vn 0 -1 0
vn 0 -1 0
vn 0 -1 0
vn 0 -1 0
vn 0 -1 0

g CDNNDG01_0003810
f 1/1/1 2/2/2 3/3/3
f 4/4/4 5/5/5 6/6/6
f 7/7/7 8/8/8 9/9/9
f 9/9/9 8/8/8 10/10/10
f 11/11/11 12/12/12 13/13/13
f 14/14/14 11/11/11 13/13/13
f 15/15/15 16/16/16 17/17/17
f 18/18/18 19/19/19 20/20/20
f 21/21/21 22/22/22 23/23/23
f 24/24/24 25/25/25 26/26/26
f 27/27/27 28/28/28 29/29/29
f 29/29/29 28/28/28 30/30/30
f 31/31/31 32/32/32 33/33/33
f 34/34/34 31/31/31 33/33/33
f 35/35/35 36/36/36 37/37/37
f 37/37/37 36/36/36 38/38/38
f 39/39/39 40/40/40 41/41/41
f 42/42/42 43/43/43 44/44/44
f 45/45/45 46/46/46 47/47/47
f 48/48/48 49/49/49 50/50/50
f 51/51/51 52/52/52 53/53/53
f 53/53/53 54/54/54 51/51/51
f 55/55/55 56/56/56 57/57/57
f 58/58/58 59/59/59 60/60/60
f 58/58/58 61/61/61 59/59/59
f 62/62/62 63/63/63 64/64/64
f 62/62/62 65/65/65 63/63/63
f 66/66/66 67/67/67 68/68/68
f 67/67/67 66/66/66 69/69/69
f 70/70/70 71/71/71 72/72/72
f 73/73/73 74/74/74 75/75/75
f 76/76/76 77/77/77 78/78/78
f 79/79/79 80/80/80 81/81/81
f 80/80/80 79/79/79 82/82/82
f 83/83/83 84/84/84 85/85/85
f 83/83/83 86/86/86 84/84/84
f 87/87/87 88/88/88 89/89/89
f 87/87/87 90/90/90 88/88/88
f 91/91/91 92/92/92 93/93/93
f 91/91/91 94/94/94 92/92/92
f 95/95/95 96/96/96 97/97/97
f 98/98/98 99/99/99 96/96/96
f 100/100/100 101/101/101 102/102/102
f 103/103/103 99/99/99 98/98/98
f 96/96/96 104/104/104 100/100/100
f 100/100/100 104/104/104 101/101/101
f 102/102/102 101/101/101 105/105/105
f 96/96/96 99/99/99 104/104/104
f 96/96/96 100/100/100 97/97/97
f 106/106/106 107/107/107 108/108/108
f 104/104/104 108/108/108 101/101/101
f 104/104/104 106/106/106 108/108/108
