v 15.87015 7.345878 -5.856978
v 17.84215 7.345878 -4.535978
v 17.88715 7.345878 -4.605978
v 0.131147 7.345878 -4.767978
v 3.852147 7.345878 -5.745978
v 4.852147 7.345878 -7.368979
v 0.131147 7.345878 -4.767978
v 6.059147 7.345878 -4.386978
v 3.852147 7.345878 -5.745978
v 4.852147 7.345878 -7.368979
v 7.059147 7.345878 -6.008978
v 5.155147 7.345878 -12.67098
v 0.131147 7.345878 -4.767978
v 4.852147 7.345878 -7.368979
v 5.155147 7.345878 -12.67098
v 6.059147 7.345878 -4.386978
v 12.84815 7.345878 3.317022
v 7.059147 7.345878 -6.008978
v 0.131147 7.345878 -4.767978
v 12.84815 7.345878 3.317022
v 6.059147 7.345878 -4.386978
v 5.155147 7.345878 -12.67098
v 7.059147 7.345878 -6.008978
v 15.87015 7.345878 -5.856978
v 7.059147 7.345878 -6.008978
v 12.84815 7.345878 3.317022
v 15.87015 7.345878 -5.856978
v 12.84815 7.345878 3.317022
v 17.84215 7.345878 -4.535978
v 15.87015 7.345878 -5.856978
v 3.852147 7.548878 -5.745978
v 6.059147 7.548878 -4.386978
v 7.059147 7.548878 -6.008978
v 4.852147 7.548878 -7.368979
v -9.774853 6.243877 10.35902
v 3.145147 6.243877 18.57502
v -9.480853 6.243877 9.897021
v 2.466147 6.243877 1.174022
v 12.84815 6.243877 3.317022
v 3.510147 6.243877 -0.4519783
v 0.131147 6.243877 -4.767978
v 3.510147 6.243877 -0.4519783
v 12.84815 6.243877 3.317022
v -9.480853 6.243877 9.897021
v 3.145147 6.243877 18.57502
v 2.466147 6.243877 1.174022
v 2.466147 6.243877 1.174022
v 3.145147 6.243877 18.57502
v 12.84815 6.243877 3.317022
v 0.131147 6.243877 -4.767978
v 0.383147 6.243877 -0.1639783
v 1.427147 6.243877 -1.789978
v 0.131147 6.243877 -4.767978
v 1.427147 6.243877 -1.789978
v 3.510147 6.243877 -0.4519783
v -9.480853 6.243877 9.897021
v 2.466147 6.243877 1.174022
v 0.383147 6.243877 -0.1639783
v -9.480853 6.243877 9.897021
v 0.383147 6.243877 -0.1639783
v 0.131147 6.243877 -4.767978
v -18.11885 6.243877 4.404022
v -9.480853 6.243877 9.897021
v 0.131147 6.243877 -4.767978
v -18.11885 6.243877 4.404022
v 0.131147 6.243877 -4.767978
v -3.684853 6.243877 -18.29198
v 0.131147 6.243877 -4.767978
v 5.155147 6.243877 -12.67098
v 3.512147 6.243877 -13.71498
v -3.684853 6.243877 -18.29198
v 0.131147 6.243877 -4.767978
v 3.512147 6.243877 -13.71498
v 0.383147 6.420877 -0.1639783
v 2.466147 6.420877 1.174022
v 3.510147 6.420877 -0.4519783
v 1.427147 6.420877 -1.789978
v 0.131147 6.243877 -4.767978
v 12.84815 6.243877 3.317022
v 12.84815 7.345878 3.317022
v 0.131147 7.345878 -4.767978
v 12.84815 -6.485514 3.317022
v 17.84215 -6.485514 -4.535978
v 17.84215 7.345878 -4.535978
v 12.84815 6.243877 3.317022
v 12.84815 7.345878 3.317022
v 12.84815 6.243877 3.317022
v 17.84215 7.345878 -4.535978
v 17.84215 -6.485514 -4.535978
v 17.88715 -6.485514 -4.605978
v 17.88715 7.345878 -4.605978
v 17.84215 7.345878 -4.535978
v 3.145147 -6.485514 18.57502
v 12.84815 -6.485514 3.317022
v 12.84815 6.243877 3.317022
v 3.145147 6.243877 18.57502
v 15.87015 7.345878 -5.856978
v 17.88715 7.345878 -4.605978
v 17.88715 -6.485514 -4.605978
v 15.87015 -6.485514 -5.856978
v 5.155147 7.345878 -12.67098
v 15.87015 7.345878 -5.856978
v 5.155147 6.243877 -12.67098
v 5.155147 6.243877 -12.67098
v 15.87015 7.345878 -5.856978
v 15.87015 -6.485514 -5.856978
v 5.155147 -6.485514 -12.67098
v 3.512147 6.243877 -13.71498
v 5.155147 6.243877 -12.67098
v 5.155147 -6.485514 -12.67098
v 3.512147 -6.485514 -13.71498
v -3.684853 6.243877 -18.29198
v 3.512147 6.243877 -13.71498
v 3.512147 -6.485514 -13.71498
v -3.684853 -6.485514 -18.29198
v 0.131147 7.345878 -4.767978
v 5.155147 7.345878 -12.67098
v 5.155147 6.243877 -12.67098
v 0.131147 6.243877 -4.767978
v 3.852147 7.345878 -5.745978
v 6.059147 7.345878 -4.386978
v 6.059147 7.548878 -4.386978
v 3.852147 7.548878 -5.745978
v 6.059147 7.345878 -4.386978
v 7.059147 7.345878 -6.008978
v 7.059147 7.548878 -6.008978
v 6.059147 7.548878 -4.386978
v 4.852147 7.548878 -7.368979
v 7.059147 7.548878 -6.008978
v 7.059147 7.345878 -6.008978
v 4.852147 7.345878 -7.368979
v 3.852147 7.548878 -5.745978
v 4.852147 7.548878 -7.368979
v 4.852147 7.345878 -7.368979
v 3.852147 7.345878 -5.745978
v -18.11885 6.243877 4.404022
v -10.90185 -6.485514 -6.943978
v -18.11885 -6.485514 4.404022
v -10.90185 -6.485514 -6.943978
v -3.684853 6.243877 -18.29198
v -3.684853 -6.485514 -18.29198
v -18.11885 6.243877 4.404022
v -3.684853 6.243877 -18.29198
v -10.90185 -6.485514 -6.943978
v -18.11885 -6.485514 4.404022
v -9.480853 -6.485514 9.897021
v -9.480853 6.243877 9.897021
v -18.11885 6.243877 4.404022
v -9.774853 6.243877 10.35902
v -9.480853 6.243877 9.897021
v -9.480853 -6.485514 9.897021
v -9.774853 -6.485514 10.35902
v -9.774853 -6.485514 10.35902
v 3.145147 -6.485514 18.57502
v 3.145147 6.243877 18.57502
v -9.774853 6.243877 10.35902
v 0.383147 6.243877 -0.1639783
v 2.466147 6.243877 1.174022
v 2.466147 6.420877 1.174022
v 0.383147 6.420877 -0.1639783
v 2.466147 6.243877 1.174022
v 3.510147 6.243877 -0.4519783
v 3.510147 6.420877 -0.4519783
v 2.466147 6.420877 1.174022
v 1.427147 6.420877 -1.789978
v 3.510147 6.420877 -0.4519783
v 3.510147 6.243877 -0.4519783
v 1.427147 6.243877 -1.789978
v 0.383147 6.420877 -0.1639783
v 1.427147 6.420877 -1.789978
v 1.427147 6.243877 -1.789978
v 0.383147 6.243877 -0.1639783
v -10.90185 -6.485514 -6.943978
v -3.684853 -6.485514 -18.29198
v 3.512147 -6.485514 -13.71498
v 5.155147 -6.485514 -12.67098
v 15.87015 -6.485514 -5.856978
v 17.88715 -6.485514 -4.605978
v 17.84215 -6.485514 -4.535978
v 12.84815 -6.485514 3.317022
v 3.145147 -6.485514 18.57502
v -9.774853 -6.485514 10.35902
v -9.480853 -6.485514 9.897021
v -18.11885 -6.485514 4.404022
vt 0.442620 0.618602
vt 0.468028 0.644737
vt 0.466673 0.645331
vt 0.464598 0.410316
vt 0.445478 0.459542
vt 0.414056 0.472734
vt 0.464598 0.410316
vt 0.471608 0.488792
vt 0.445478 0.459542
vt 0.414056 0.472734
vt 0.440206 0.501983
vt 0.311586 0.476598
vt 0.464598 0.410316
vt 0.414056 0.472734
vt 0.311586 0.476598
vt 0.471608 0.488792
vt 0.620069 0.578861
vt 0.440206 0.501983
vt 0.464598 0.410316
vt 0.620069 0.578861
vt 0.471608 0.488792
vt 0.311586 0.476598
vt 0.440206 0.501983
vt 0.442620 0.618602
vt 0.440206 0.501983
vt 0.620069 0.578861
vt 0.442620 0.618602
vt 0.620069 0.578861
vt 0.468028 0.644737
vt 0.442620 0.618602
vt 0.191792 0.933025
vt 0.217519 0.961854
vt 0.186601 0.974855
vt 0.160855 0.946027
vt 0.554715 0.111650
vt 0.709774 0.283158
vt 0.545739 0.115450
vt 0.374660 0.271438
vt 0.413349 0.408523
vt 0.343069 0.284930
vt 0.260754 0.239733
vt 0.343069 0.284930
vt 0.413349 0.408523
vt 0.545739 0.115450
vt 0.709774 0.283158
vt 0.374660 0.271438
vt 0.374660 0.271438
vt 0.709774 0.283158
vt 0.413349 0.408523
vt 0.260754 0.239733
vt 0.349400 0.243787
vt 0.317810 0.257279
vt 0.260754 0.239733
vt 0.317810 0.257279
vt 0.343069 0.284930
vt 0.545739 0.115450
vt 0.374660 0.271438
vt 0.349400 0.243787
vt 0.545739 0.115450
vt 0.349400 0.243787
vt 0.260754 0.239733
vt 0.442057 0.000770
vt 0.545739 0.115450
vt 0.260754 0.239733
vt 0.442057 0.000770
vt 0.260754 0.239733
vt 0.001125 0.187310
vt 0.260754 0.239733
vt 0.107232 0.304648
vt 0.087526 0.282840
vt 0.001125 0.187310
vt 0.260754 0.239733
vt 0.087526 0.282840
vt 0.251500 0.933025
vt 0.276308 0.960222
vt 0.245281 0.973492
vt 0.220472 0.946296
vt 0.535433 0.933025
vt 0.535433 0.933025
vt 0.535433 0.933025
vt 0.535433 0.933025
vt 0.152147 0.865821
vt 0.002459 0.930569
vt 0.051286 0.909312
vt 0.199374 0.845267
vt 0.203532 0.843457
vt 0.199374 0.845267
vt 0.051286 0.909312
vt 0.002459 0.930569
vt 0.001125 0.931152
vt 0.049929 0.909906
vt 0.051286 0.909312
vt 0.443016 0.740005
vt 0.152147 0.865821
vt 0.199374 0.845267
vt 0.494813 0.717475
vt 0.284581 0.667569
vt 0.308633 0.694317
vt 0.259896 0.715586
vt 0.236247 0.689287
vt 0.153548 0.525459
vt 0.284581 0.667569
vt 0.149814 0.527409
vt 0.149814 0.527409
vt 0.284581 0.667569
vt 0.236247 0.689287
vt 0.107412 0.549565
vt 0.129765 0.505647
vt 0.149814 0.527409
vt 0.107412 0.549565
vt 0.087672 0.528139
vt 0.041860 0.410316
vt 0.129765 0.505647
vt 0.087672 0.528139
vt 0.001125 0.434282
vt 0.157687 0.934972
vt 0.004805 0.999357
vt 0.001125 0.997324
vt 0.153800 0.933025
vt 0.541057 0.933025
vt 0.541057 0.933025
vt 0.541057 0.933025
vt 0.541057 0.933025
vt 0.492747 0.933363
vt 0.462317 0.945862
vt 0.463016 0.945528
vt 0.493453 0.933025
vt 0.279652 0.933025
vt 0.304810 0.961625
vt 0.304116 0.961970
vt 0.278965 0.933378
vt 0.459787 0.933380
vt 0.429256 0.945618
vt 0.428571 0.945260
vt 0.459094 0.933025
vt 0.978159 0.736082
vt 0.714080 0.809145
vt 0.930998 0.717475
vt 0.714080 0.809145
vt 0.537556 0.922276
vt 0.497188 0.900804
vt 0.978159 0.736082
vt 0.537556 0.922276
vt 0.714080 0.809145
vt 0.552306 0.933025
vt 0.552306 0.933025
vt 0.552306 0.933025
vt 0.552306 0.933025
vt 0.391955 0.952775
vt 0.383137 0.956463
vt 0.335208 0.936656
vt 0.343890 0.933025
vt 0.546682 0.933025
vt 0.546682 0.933025
vt 0.546682 0.933025
vt 0.546682 0.933025
vt 0.529809 0.933025
vt 0.529809 0.933025
vt 0.529809 0.933025
vt 0.529809 0.933025
vt 0.425293 0.933330
vt 0.394826 0.946404
vt 0.395456 0.946102
vt 0.425930 0.933025
vt 0.307707 0.933025
vt 0.332427 0.959945
vt 0.331802 0.960255
vt 0.307087 0.933341
vt 0.527238 0.933325
vt 0.496681 0.946094
vt 0.496063 0.945792
vt 0.526613 0.933025
vt 0.557930 0.933025
vt 0.557930 0.933025
vt 0.557930 0.933025
vt 0.557930 0.933025
vt 0.557930 0.933025
vt 0.557930 0.933025
vt 0.557930 0.933025
vt 0.557930 0.933025
vt 0.557930 0.933025
vt 0.557930 0.933025
vt 0.557930 0.933025
vt 0.557930 0.933025
vn 0 1 0
vn 0 1 0
vn 0 1 0
vn 0 1 0
vn 0 1 0
vn 0 1 0
vn 0 1 0
vn 0 1 0
vn 0 1 0
vn 0 1 0
vn 0 1 0
vn 0 1 0
vn 0 1 0
vn 0 1 0
vn 0 1 0
vn 0 1 0
vn 0 1 0
vn 0 1 0
vn 0 1 0
vn 0 1 0
vn 0 1 0
vn 0 1 0
vn 0 1 0
vn 0 1 0
vn 0 1 0
vn 0 1 0
vn 0 1 0
vn 0 1 0
vn 0 1 0
vn 0 1 0
vn 0 1 0
vn 0 1 0
vn 0 1 0
vn 0 1 0
vn 0 1 0
vn 0 1 0
vn 0 1 0
vn 0 1 0
vn 0 1 0
vn 0 1 0
vn 0 1 0
vn 0 1 0
vn 0 1 0
vn 0 1 0
vn 0 1 0
vn 0 1 0
vn 0 1 0
vn 0 1 0
vn 0 1 0
vn 0 1 0
vn 0 1 0
vn 0 1 0
vn 0 1 0
vn 0 1 0
vn 0 1 0
vn 0 1 0
vn 0 1 0
vn 0 1 0
vn 0 1 0
vn 0 1 0
vn 0 1 0
vn 0 1 0
vn 0 1 0
vn 0 1 0
vn 0 1 0
vn 0 1 0
vn 0 1 0
vn 0 1 0
vn 0 1 0
vn 0 1 0
vn 0 1 0
vn 0 1 0
vn 0 1 0
vn 0 1 0
vn 0 1 0
vn 0 1 0
vn 0 1 0
vn -0.5365148 0 0.843891
vn -0.5365148 0 0.843891
vn -0.5365148 0 0.843891
vn -0.5365148 0 0.843891
vn 0.8438252 0 0.5366182
vn 0.8438252 0 0.5366182
vn 0.8438252 0 0.5366182
vn 0.8438252 0 0.5366182
vn 0.8438252 0 0.5366182
vn 0.8438252 0 0.5366182
vn 0.8438252 0 0.5366182
vn 0.8411785 0 0.5407576
vn 0.8411785 0 0.5407576
vn 0.8411785 0 0.5407576
vn 0.8411785 0 0.5407576
vn 0.8438277 0 0.5366142
vn 0.8438277 0 0.5366142
vn 0.8438277 0 0.5366142
vn 0.8438277 0 0.5366142
vn 0.5270796 0 -0.8498159
vn 0.5270796 0 -0.8498159
vn 0.5270796 0 -0.8498159
vn 0.5270796 0 -0.8498159
vn 0.5366156 0 -0.8438268
vn 0.5366156 0 -0.8438268
vn 0.5366156 0 -0.8438268
vn 0.5366156 0 -0.8438268
vn 0.5366156 0 -0.8438268
vn 0.5366156 0 -0.8438268
vn 0.5366156 0 -0.8438268
vn 0.5363103 0 -0.8440209
vn 0.5363103 0 -0.8440209
vn 0.5363103 0 -0.8440209
vn 0.5363103 0 -0.8440209
vn 0.5366327 0 -0.8438159
vn 0.5366327 0 -0.8438159
vn 0.5366327 0 -0.8438159
vn 0.5366327 0 -0.8438159
vn -0.843912 0 -0.5364816
vn -0.843912 0 -0.5364816
vn -0.843912 0 -0.5364816
vn -0.843912 0 -0.5364816
vn -0.5243342 0 0.8515126
vn -0.5243342 0 0.8515126
vn -0.5243342 0 0.8515126
vn -0.5243342 0 0.8515126
vn 0.8512256 0 0.5248
vn 0.8512256 0 0.5248
vn 0.8512256 0 0.5248
vn 0.8512256 0 0.5248
vn 0.5246139 0 -0.8513403
vn 0.5246139 0 -0.8513403
vn 0.5246139 0 -0.8513403
vn 0.5246139 0 -0.8513403
vn -0.85137 0 -0.5245656
vn -0.85137 0 -0.5245656
vn -0.85137 0 -0.5245656
vn -0.85137 0 -0.5245656
vn -0.8438115 0 -0.5366397
vn -0.8438115 0 -0.5366397
vn -0.8438115 0 -0.5366397
vn -0.8438115 0 -0.5366397
vn -0.8438115 0 -0.5366397
vn -0.8438115 0 -0.5366397
vn -0.8438115 1.929189E-12 -0.5366397
vn -0.8438115 1.929189E-12 -0.5366397
vn -0.8438115 1.929189E-12 -0.5366397
vn -0.5366037 0 0.8438344
vn -0.5366037 0 0.8438344
vn -0.5366037 0 0.8438344
vn -0.5366037 0 0.8438344
vn -0.8436615 0 -0.5368755
vn -0.8436615 0 -0.5368755
vn -0.8436615 0 -0.5368755
vn -0.8436615 0 -0.5368755
vn -0.536605 0 0.8438336
vn -0.536605 0 0.8438336
vn -0.536605 0 0.8438336
vn -0.536605 0 0.8438336
vn -0.5404513 0 0.8413753
vn -0.5404513 0 0.8413753
vn -0.5404513 0 0.8413753
vn -0.5404513 0 0.8413753
vn 0.841481 0 0.5402867
vn 0.841481 0 0.5402867
vn 0.841481 0 0.5402867
vn 0.841481 0 0.5402867
vn 0.5404513 0 -0.8413753
vn 0.5404513 0 -0.8413753
vn 0.5404513 0 -0.8413753
vn 0.5404513 0 -0.8413753
vn -0.841481 0 -0.5402867
vn -0.841481 0 -0.5402867
vn -0.841481 0 -0.5402867
vn -0.841481 0 -0.5402867
vn 0 -1 0
vn 0 -1 0
vn 0 -1 0
vn 0 -1 0
vn 0 -1 0
vn 0 -1 0
vn 0 -1 0
vn 0 -1 0
vn 0 -1 0
vn 0 -1 0
vn 0 -1 0
vn 0 -1 0

g CDNNDG02_0010170
f 1/1/1 2/2/2 3/3/3
f 4/4/4 5/5/5 6/6/6
f 7/7/7 8/8/8 9/9/9
f 10/10/10 11/11/11 12/12/12
f 13/13/13 14/14/14 15/15/15
f 16/16/16 17/17/17 18/18/18
f 19/19/19 20/20/20 21/21/21
f 22/22/22 23/23/23 24/24/24
f 25/25/25 26/26/26 27/27/27
f 28/28/28 29/29/29 30/30/30
f 32/32/32 33/33/33 34/34/34
f 31/31/31 32/32/32 34/34/34
f 35/35/35 36/36/36 37/37/37
f 38/38/38 39/39/39 40/40/40
f 41/41/41 42/42/42 43/43/43
f 44/44/44 45/45/45 46/46/46
f 47/47/47 48/48/48 49/49/49
f 50/50/50 51/51/51 52/52/52
f 53/53/53 54/54/54 55/55/55
f 56/56/56 57/57/57 58/58/58
f 59/59/59 60/60/60 61/61/61
f 62/62/62 63/63/63 64/64/64
f 65/65/65 66/66/66 67/67/67
f 68/68/68 69/69/69 70/70/70
f 71/71/71 72/72/72 73/73/73
f 74/74/74 76/76/76 77/77/77
f 74/74/74 75/75/75 76/76/76
f 78/78/78 80/80/80 81/81/81
f 78/78/78 79/79/79 80/80/80
f 83/83/83 84/84/84 85/85/85
f 82/82/82 83/83/83 85/85/85
f 86/86/86 87/87/87 88/88/88
f 89/89/89 91/91/91 92/92/92
f 89/89/89 90/90/90 91/91/91
f 96/96/96 93/93/93 95/95/95
f 94/94/94 95/95/95 93/93/93
f 99/99/99 97/97/97 98/98/98
f 97/97/97 99/99/99 100/100/100
f 101/101/101 102/102/102 103/103/103
f 107/107/107 104/104/104 106/106/106
f 105/105/105 106/106/106 104/104/104
f 110/110/110 111/111/111 109/109/109
f 108/108/108 109/109/109 111/111/111
f 115/115/115 112/112/112 114/114/114
f 113/113/113 114/114/114 112/112/112
f 116/116/116 118/118/118 119/119/119
f 116/116/116 117/117/117 118/118/118
f 121/121/121 122/122/122 123/123/123
f 120/120/120 121/121/121 123/123/123
f 127/127/127 124/124/124 126/126/126
f 125/125/125 126/126/126 124/124/124
f 131/131/131 128/128/128 130/130/130
f 129/129/129 130/130/130 128/128/128
f 132/132/132 134/134/134 135/135/135
f 132/132/132 133/133/133 134/134/134
f 136/136/136 137/137/137 138/138/138
f 139/139/139 140/140/140 141/141/141
f 142/142/142 143/143/143 144/144/144
f 148/148/148 145/145/145 147/147/147
f 147/147/147 145/145/145 146/146/146
f 149/149/149 151/151/151 152/152/152
f 149/149/149 150/150/150 151/151/151
f 153/153/153 155/155/155 156/156/156
f 155/155/155 153/153/153 154/154/154
f 160/160/160 157/157/157 159/159/159
f 159/159/159 157/157/157 158/158/158
f 164/164/164 161/161/161 163/163/163
f 162/162/162 163/163/163 161/161/161
f 165/165/165 167/167/167 168/168/168
f 165/165/165 166/166/166 167/167/167
f 169/169/169 171/171/171 172/172/172
f 169/169/169 170/170/170 171/171/171
f 184/184/184 173/173/173 183/183/183
f 181/181/181 182/182/182 183/183/183
f 180/180/180 181/181/181 183/183/183
f 173/173/173 180/180/180 183/183/183
f 173/173/173 174/174/174 175/175/175
f 173/173/173 175/175/175 176/176/176
f 173/173/173 176/176/176 180/180/180
f 176/176/176 177/177/177 180/180/180
f 177/177/177 178/178/178 179/179/179
f 177/177/177 179/179/179 180/180/180
