v -6.122133 5.569612 1.821962
v 0.9228666 5.569612 6.319962
v 5.935867 5.569612 -1.531038
v 6.121867 5.569612 -1.822038
v -0.9221333 5.569612 -6.320038
v -6.122133 -5.569612 1.821962
v 0.9228666 -5.569612 6.319962
v 0.9228666 5.569612 6.319962
v -6.122133 5.569612 1.821962
v 0.9228666 -5.569612 6.319962
v 5.935867 -5.569612 -1.531038
v 5.935867 5.569612 -1.531038
v 0.9228666 5.569612 6.319962
v 5.935867 -5.569612 -1.531038
v 6.121867 -5.569612 -1.822038
v 6.121867 5.569612 -1.822038
v 5.935867 5.569612 -1.531038
v -0.9221333 5.569612 -6.320038
v 6.121867 5.569612 -1.822038
v 6.121867 -5.569612 -1.822038
v -0.9221333 -5.569612 -6.320038
v -6.122133 5.569612 1.821962
v -3.522133 -5.569612 -2.249038
v -6.122133 -5.569612 1.821962
v -3.522133 -5.569612 -2.249038
v -0.9221333 5.569612 -6.320038
v -0.9221333 -5.569612 -6.320038
v -6.122133 5.569612 1.821962
v -0.9221333 5.569612 -6.320038
v -3.522133 -5.569612 -2.249038
v -3.522133 -5.569612 -2.249038
v -0.9221333 -5.569612 -6.320038
v 6.121867 -5.569612 -1.822038
v 5.935867 -5.569612 -1.531038
v 0.9228666 -5.569612 6.319962
v -6.122133 -5.569612 1.821962
vt 0.199098 0.414928
vt 0.002519 0.177780
vt 0.345170 0.008236
vt 0.357871 0.001946
vt 0.554443 0.239077
vt 0.200514 0.744442
vt 0.002519 0.508832
vt 0.142281 0.420233
vt 0.343056 0.659160
vt 0.350126 0.582590
vt 0.690631 0.426042
vt 0.824117 0.544397
vt 0.478930 0.703092
vt 0.690631 0.426042
vt 0.703253 0.420233
vt 0.836912 0.538509
vt 0.824117 0.544397
vt 0.777902 0.001946
vt 0.964871 0.240361
vt 0.746153 0.353185
vt 0.561713 0.118009
vt 0.572193 0.829850
vt 0.177249 0.832652
vt 0.351984 0.749027
vt 0.177249 0.832652
vt 0.217922 0.999392
vt 0.002519 0.916275
vt 0.572193 0.829850
vt 0.217922 0.999392
vt 0.177249 0.832652
vt 0.579345 0.749027
vt 0.579345 0.749027
vt 0.579345 0.749027
vt 0.579345 0.749027
vt 0.579345 0.749027
vt 0.579345 0.749027
vn 0 1 0
vn 0 1 0
vn 0 1 0
vn 0 1 0
vn 0 1 0
vn -0.5381367 0 0.8428575
vn -0.5381367 0 0.8428575
vn -0.5381367 0 0.8428575
vn -0.5381367 0 0.8428575
vn 0.8428383 0 0.5381669
vn 0.8428383 0 0.5381669
vn 0.8428383 0 0.5381669
vn 0.8428383 0 0.5381669
vn 0.8425868 0 0.5385606
vn 0.8425868 0 0.5385606
vn 0.8425868 0 0.5385606
vn 0.8425868 0 0.5385606
vn 0.538191 0 -0.8428229
vn 0.538191 0 -0.8428229
vn 0.538191 0 -0.8428229
vn 0.538191 0 -0.8428229
vn -0.8427823 0 -0.5382545
vn -0.8427823 0 -0.5382545
vn -0.8427823 0 -0.5382545
vn -0.8427823 0 -0.5382545
vn -0.8427823 0 -0.5382545
vn -0.8427823 0 -0.5382545
vn -0.8427823 2.250104E-11 -0.5382545
vn -0.8427823 2.250104E-11 -0.5382545
vn -0.8427823 2.250104E-11 -0.5382545
vn 0 -1 0
vn 0 -1 0
vn 0 -1 0
vn 0 -1 0
vn 0 -1 0
vn 0 -1 0

g CDNNDG02_0011470
f 3/3/3 4/4/4 5/5/5
f 1/1/1 3/3/3 5/5/5
f 1/1/1 2/2/2 3/3/3
f 6/6/6 8/8/8 9/9/9
f 8/8/8 6/6/6 7/7/7
f 13/13/13 10/10/10 12/12/12
f 11/11/11 12/12/12 10/10/10
f 14/14/14 16/16/16 17/17/17
f 14/14/14 15/15/15 16/16/16
f 21/21/21 18/18/18 20/20/20
f 19/19/19 20/20/20 18/18/18
f 22/22/22 23/23/23 24/24/24
f 25/25/25 26/26/26 27/27/27
f 28/28/28 29/29/29 30/30/30
f 31/31/31 35/35/35 36/36/36
f 31/31/31 34/34/34 35/35/35
f 32/32/32 33/33/33 34/34/34
f 31/31/31 32/32/32 34/34/34
