v 3.477425 6.424864 -3.647591
v 4.636425 6.403864 -2.892591
v 8.113425 6.403864 -8.233591
v -8.337575 6.492864 6.570409
v 1.174425 6.438864 -1.727591
v 3.329425 6.492864 -11.34859
v -8.337575 6.492864 6.570409
v -5.346575 6.436864 8.517409
v 1.345425 6.424864 -0.3005909
v -5.346575 6.436864 8.517409
v -4.494311 6.421436 9.072831
v 1.345425 6.424864 -0.3005909
v -4.494311 6.421436 9.072831
v -3.965575 6.411864 9.417409
v 1.345425 6.424864 -0.3005909
v 2.214425 6.438864 -3.323591
v 3.477425 6.424864 -3.647591
v 3.329425 6.492864 -11.34859
v -3.965575 6.411864 9.417409
v -3.323004 6.399896 9.835885
v -1.694575 6.371864 10.57041
v -3.323004 6.399896 9.835885
v -2.408575 6.382864 10.43141
v -1.694575 6.371864 10.57041
v -2.408575 6.382864 10.43141
v -1.842575 6.371864 10.79941
v -1.694575 6.371864 10.57041
v 1.174425 6.438864 -1.727591
v 2.214425 6.438864 -3.323591
v 3.329425 6.492864 -11.34859
v -3.965575 6.411864 9.417409
v -1.694575 6.371864 10.57041
v 1.345425 6.424864 -0.3005909
v 3.329425 6.492864 -11.34859
v 3.477425 6.424864 -3.647591
v 8.113425 6.403864 -8.233591
v -1.694575 6.371864 10.57041
v 4.181425 6.352864 1.546409
v 1.345425 6.424864 -0.3005909
v -8.337575 6.492864 6.570409
v 1.345425 6.424864 -0.3005909
v 1.174425 6.438864 -1.727591
v -3.965575 6.697864 9.417409
v -2.667575 5.975864 10.82941
v -3.323004 6.399896 9.835885
v -3.323004 6.399896 9.835885
v -2.667575 5.975864 10.82941
v -2.408575 5.975864 10.43141
v -3.965575 6.697864 9.417409
v -3.750575 5.975864 10.98441
v -2.667575 5.975864 10.82941
v -5.251575 5.975864 10.00741
v -3.750575 5.975864 10.98441
v -3.965575 6.697864 9.417409
v -5.606575 5.975864 8.915409
v -5.251575 5.975864 10.00741
v -3.965575 6.697864 9.417409
v -5.606575 5.975864 8.915409
v -3.965575 6.697864 9.417409
v -4.494311 6.421436 9.072831
v -5.606575 5.975864 8.915409
v -4.494311 6.421436 9.072831
v -5.346575 5.975864 8.517409
v 3.329425 5.985855 -11.34859
v 8.113425 5.985759 -8.233591
v 3.896425 5.597101 -12.22059
v 3.896425 5.597101 -12.22059
v 8.833423 5.492855 -9.338588
v 4.048423 5.492855 -12.45459
v 3.896425 5.597101 -12.22059
v 8.113425 5.985759 -8.233591
v 8.833423 5.492855 -9.338588
v -1.694575 -6.400174 10.57041
v 4.181425 -6.400174 1.546409
v 4.181425 6.352864 1.546409
v -1.694575 6.371864 10.57041
v -1.842575 -6.400174 10.79941
v -1.694575 -6.400174 10.57041
v -1.694575 6.371864 10.57041
v -1.842575 6.371864 10.79941
v 1.345425 6.424864 -0.3005909
v 4.181425 6.352864 1.546409
v 4.181425 -6.400174 1.546409
v 1.345425 -6.400174 -0.3005909
v 1.174425 6.438864 -1.727591
v 1.345425 6.424864 -0.3005909
v 1.345425 -6.400174 -0.3005909
v 1.174425 -6.400174 -1.727591
v 1.174425 -6.400174 -1.727591
v 2.214425 -6.400174 -3.323591
v 2.214425 6.438864 -3.323591
v 1.174425 6.438864 -1.727591
v 2.845925 -6.400174 -3.485591
v 3.477425 -6.400174 -3.647591
v 3.477425 6.424864 -3.647591
v 2.214425 6.438864 -3.323591
v 2.214425 -6.400174 -3.323591
v 2.845925 -6.400174 -3.485591
v 2.214425 6.438864 -3.323591
v 2.845925 -6.400174 -3.485591
v 3.477425 6.424864 -3.647591
v 4.056925 -6.400174 -3.270091
v 4.636425 -6.400174 -2.892591
v 4.636425 6.403864 -2.892591
v 3.477425 6.424864 -3.647591
v 3.477425 -6.400174 -3.647591
v 4.056925 -6.400174 -3.270091
v 3.477425 6.424864 -3.647591
v 4.056925 -6.400174 -3.270091
v 4.636425 6.403864 -2.892591
v 4.636425 6.403864 -2.892591
v 8.113425 5.985759 -8.233591
v 8.113425 6.403864 -8.233591
v 4.636425 -6.400174 -2.892591
v 8.113425 -6.400174 -8.233591
v 8.113425 5.985759 -8.233591
v 4.636425 6.403864 -2.892591
v 8.113425 -6.400174 -8.233591
v 8.833423 -6.400174 -9.338588
v 8.833423 5.492855 -9.338588
v 8.113425 5.985759 -8.233591
v 3.329425 6.492864 -11.34859
v 8.113425 6.403864 -8.233591
v 8.113425 5.985759 -8.233591
v 3.329425 5.985855 -11.34859
v -8.337575 6.492864 6.570409
v 3.329425 5.985855 -11.34859
v 3.329425 -6.400174 -11.34859
v -8.337575 -6.400174 6.570409
v -8.337575 6.492864 6.570409
v 3.329425 6.492864 -11.34859
v 3.329425 5.985855 -11.34859
v 3.329425 5.985855 -11.34859
v 3.896425 5.597101 -12.22059
v 3.896425 -6.400174 -12.22059
v 3.329425 -6.400174 -11.34859
v 3.896425 5.597101 -12.22059
v 4.048423 5.492855 -12.45459
v 4.048423 -6.400174 -12.45459
v 3.896425 -6.400174 -12.22059
v -8.337575 6.492864 6.570409
v -5.346575 5.975864 8.517409
v -5.346575 6.436864 8.517409
v -8.337575 -6.400174 6.570409
v -5.346575 -6.400174 8.517409
v -5.346575 5.975864 8.517409
v -8.337575 6.492864 6.570409
v -5.346575 6.436864 8.517409
v -5.346575 5.975864 8.517409
v -4.494311 6.421436 9.072831
v -3.323004 6.399896 9.835885
v -2.408575 5.975864 10.43141
v -2.408575 6.382864 10.43141
v -2.408575 -6.400174 10.43141
v -1.842575 -6.400174 10.79941
v -1.842575 6.371864 10.79941
v -2.408575 5.975864 10.43141
v -2.408575 6.382864 10.43141
v -2.408575 5.975864 10.43141
v -1.842575 6.371864 10.79941
v -2.667575 -6.400174 10.82941
v -2.408575 -6.400174 10.43141
v -2.408575 5.975864 10.43141
v -2.667575 5.975864 10.82941
v -3.750575 -6.400174 10.98441
v -2.667575 -6.400174 10.82941
v -2.667575 5.975864 10.82941
v -3.750575 5.975864 10.98441
v -5.251575 -6.400174 10.00741
v -3.750575 -6.400174 10.98441
v -3.750575 5.975864 10.98441
v -5.251575 5.975864 10.00741
v -5.606575 -6.400174 8.915409
v -5.251575 -6.400174 10.00741
v -5.251575 5.975864 10.00741
v -5.606575 5.975864 8.915409
v -5.606575 5.975864 8.915409
v -5.346575 5.975864 8.517409
v -5.346575 -6.400174 8.517409
v -5.606575 -6.400174 8.915409
v -3.965575 6.697864 9.417409
v -3.323004 6.399896 9.835885
v -3.965575 6.411864 9.417409
v -4.494311 6.421436 9.072831
v -3.965575 6.697864 9.417409
v -3.965575 6.411864 9.417409
v 4.048423 5.492855 -12.45459
v 6.440923 -6.400174 -10.89659
v 4.048423 -6.400174 -12.45459
v 6.440923 -6.400174 -10.89659
v 8.833423 5.492855 -9.338588
v 8.833423 -6.400174 -9.338588
v 4.048423 5.492855 -12.45459
v 8.833423 5.492855 -9.338588
v 6.440923 -6.400174 -10.89659
v -2.408575 -6.400174 10.43141
v -2.667575 -6.400174 10.82941
v -3.750575 -6.400174 10.98441
v -5.251575 -6.400174 10.00741
v -5.606575 -6.400174 8.915409
v -5.346575 -6.400174 8.517409
v -8.337575 -6.400174 6.570409
v 3.329425 -6.400174 -11.34859
v 3.896425 -6.400174 -12.22059
v 4.048423 -6.400174 -12.45459
v 6.440923 -6.400174 -10.89659
v 8.833423 -6.400174 -9.338588
v 8.113425 -6.400174 -8.233591
v 4.636425 -6.400174 -2.892591
v 4.056925 -6.400174 -3.270091
v 3.477425 -6.400174 -3.647591
v 2.845925 -6.400174 -3.485591
v 2.214425 -6.400174 -3.323591
v 1.174425 -6.400174 -1.727591
v 1.345425 -6.400174 -0.3005909
v 4.181425 -6.400174 1.546409
v -1.694575 -6.400174 10.57041
v -1.842575 -6.400174 10.79941
vt 0.476466 0.105014
vt 0.453039 0.077785
vt 0.629960 0.001326
vt 0.133044 0.370280
vt 0.411857 0.156769
vt 0.726637 0.113722
vt 0.133044 0.370280
vt 0.072649 0.299999
vt 0.365643 0.151847
vt 0.072649 0.299999
vt 0.055421 0.279975
vt 0.365643 0.151847
vt 0.055421 0.279975
vt 0.044732 0.267552
vt 0.365643 0.151847
vt 0.464725 0.133899
vt 0.476466 0.105014
vt 0.726637 0.113722
vt 0.044732 0.267552
vt 0.031752 0.252455
vt 0.009453 0.214420
vt 0.031752 0.252455
vt 0.013282 0.230971
vt 0.009453 0.214420
vt 0.013282 0.230971
vt 0.001869 0.217673
vt 0.009453 0.214420
vt 0.411857 0.156769
vt 0.464725 0.133899
vt 0.726637 0.113722
vt 0.044732 0.267552
vt 0.009453 0.214420
vt 0.365643 0.151847
vt 0.726637 0.113722
vt 0.476466 0.105014
vt 0.629960 0.001326
vt 0.009453 0.214420
vt 0.308339 0.085203
vt 0.365643 0.151847
vt 0.133044 0.370280
vt 0.365643 0.151847
vt 0.411857 0.156769
vt 0.180734 0.966200
vt 0.138318 0.931215
vt 0.168419 0.949489
vt 0.168419 0.949489
vt 0.138318 0.931215
vt 0.150909 0.925729
vt 0.288033 0.956138
vt 0.239252 0.949606
vt 0.245122 0.925729
vt 0.216192 0.959516
vt 0.185047 0.925729
vt 0.234558 0.926687
vt 0.099625 0.966751
vt 0.065421 0.958756
vt 0.083515 0.925729
vt 0.120633 0.966751
vt 0.104673 0.925729
vt 0.115508 0.939178
vt 0.120633 0.966751
vt 0.115508 0.939178
vt 0.132957 0.960835
vt 0.571396 0.859275
vt 0.476636 0.748469
vt 0.599535 0.844234
vt 0.599535 0.844234
vt 0.512347 0.729443
vt 0.607081 0.840205
vt 0.599535 0.844234
vt 0.476636 0.748469
vt 0.512347 0.729443
vt 0.640913 0.499797
vt 0.932538 0.374005
vt 0.933672 0.463654
vt 0.637423 0.591573
vt 0.633514 0.502964
vt 0.640913 0.499797
vt 0.637423 0.591573
vt 0.629907 0.594791
vt 0.381589 0.885216
vt 0.326339 0.818870
vt 0.325234 0.729443
vt 0.379611 0.794245
vt 0.917275 0.824886
vt 0.872991 0.819928
vt 0.871028 0.729443
vt 0.914615 0.734224
vt 0.728972 0.751584
vt 0.779138 0.729443
vt 0.782613 0.819955
vt 0.731646 0.842448
vt 0.616352 0.743444
vt 0.621489 0.729443
vt 0.624844 0.819455
vt 0.614410 0.848004
vt 0.611215 0.757446
vt 0.616352 0.743444
vt 0.614410 0.848004
vt 0.616352 0.743444
vt 0.624844 0.819455
vt 0.852589 0.813928
vt 0.841121 0.800767
vt 0.842257 0.729443
vt 0.865566 0.756073
vt 0.864057 0.827088
vt 0.852589 0.813928
vt 0.865566 0.756073
vt 0.852589 0.813928
vt 0.842257 0.729443
vt 0.109916 0.908951
vt 0.284627 0.830496
vt 0.284829 0.833434
vt 0.106542 0.819174
vt 0.278717 0.744837
vt 0.284627 0.830496
vt 0.109916 0.908951
vt 0.278717 0.744837
vt 0.314340 0.729443
vt 0.320536 0.811416
vt 0.284627 0.830496
vt 0.724475 0.843725
vt 0.630107 0.732368
vt 0.629907 0.729443
vt 0.724173 0.840107
vt 0.001869 0.658364
vt 0.589864 0.388029
vt 0.584411 0.457194
vt 0.005620 0.726021
vt 0.001869 0.658364
vt 0.590091 0.385151
vt 0.589864 0.388029
vt 0.589864 0.388029
vt 0.618285 0.376968
vt 0.612580 0.444128
vt 0.584411 0.457194
vt 0.618285 0.376968
vt 0.625908 0.374005
vt 0.620139 0.440626
vt 0.612580 0.444128
vt 0.467904 0.818194
vt 0.405061 0.751611
vt 0.404891 0.749125
vt 0.471586 0.885535
vt 0.409563 0.817277
vt 0.405061 0.751611
vt 0.467904 0.818194
vt 0.404891 0.749125
vt 0.405061 0.751611
vt 0.386916 0.729443
vt 0.970274 0.763365
vt 0.951854 0.744623
vt 0.951678 0.742410
vt 0.957117 0.810836
vt 0.945804 0.798016
vt 0.940187 0.729443
vt 0.951854 0.744623
vt 0.951678 0.742410
vt 0.951854 0.744623
vt 0.940187 0.729443
vt 0.924644 0.734943
vt 0.936147 0.729443
vt 0.933174 0.817866
vt 0.921495 0.823451
vt 0.789945 0.753525
vt 0.794938 0.729443
vt 0.791986 0.818166
vt 0.786916 0.842617
vt 0.835860 0.829469
vt 0.805573 0.795372
vt 0.800000 0.729443
vt 0.830760 0.764074
vt 0.040819 0.998806
vt 0.006981 0.990823
vt 0.001869 0.925729
vt 0.036237 0.933838
vt 0.044860 0.931726
vt 0.056645 0.925729
vt 0.060784 0.990748
vt 0.049180 0.996652
vt 0.305320 0.942158
vt 0.293458 0.925729
vt 0.305382 0.940139
vt 0.315201 0.951994
vt 0.305320 0.942158
vt 0.305382 0.940139
vt 0.102346 0.922588
vt 0.048354 0.784202
vt 0.094837 0.838960
vt 0.048354 0.784202
vt 0.008006 0.811457
vt 0.001869 0.729443
vt 0.102346 0.922588
vt 0.008006 0.811457
vt 0.048354 0.784202
vt 0.319626 0.925729
vt 0.319626 0.925729
vt 0.319626 0.925729
vt 0.319626 0.925729
vt 0.319626 0.925729
vt 0.319626 0.925729
vt 0.319626 0.925729
vt 0.319626 0.925729
vt 0.319626 0.925729
vt 0.319626 0.925729
vt 0.319626 0.925729
vt 0.319626 0.925729
vt 0.319626 0.925729
vt 0.319626 0.925729
vt 0.319626 0.925729
vt 0.319626 0.925729
vt 0.319626 0.925729
vt 0.319626 0.925729
vt 0.319626 0.925729
vt 0.319626 0.925729
vt 0.319626 0.925729
vt 0.319626 0.925729
vt 0.319626 0.925729
vn 0.0127219 0.9998848 0.00828198
vn 0.0127219 0.9998848 0.00828198
vn 0.0127219 0.9998848 0.00828198
vn 0.01313963 0.9998771 0.008555166
vn 0.01313963 0.9998771 0.008555166
vn 0.01313963 0.9998771 0.008555166
vn 0.01312326 0.9998769 0.008598585
vn 0.01312326 0.9998769 0.008598585
vn 0.01312326 0.9998769 0.008598585
vn 0.01270426 0.999885 0.008280598
vn 0.01270426 0.999885 0.008280598
vn 0.01270426 0.999885 0.008280598
vn 0.01270426 0.999885 0.008280598
vn 0.01270426 0.999885 0.008280598
vn 0.01270426 0.999885 0.008280598
vn 0.01328275 0.999875 0.008573647
vn 0.01328275 0.999875 0.008573647
vn 0.01328275 0.999875 0.008573647
vn 0.01403174 0.9998767 0.00705029
vn 0.01403174 0.9998767 0.00705029
vn 0.01403174 0.9998767 0.00705029
vn 0.01403172 0.9998767 0.007050342
vn 0.01403172 0.9998767 0.007050342
vn 0.01403172 0.9998767 0.007050342
vn 0.0136826 0.9998673 0.008842903
vn 0.0136826 0.9998673 0.008842903
vn 0.0136826 0.9998673 0.008842903
vn 0.01312327 0.9998773 0.008551504
vn 0.01312327 0.9998773 0.008551504
vn 0.01312327 0.9998773 0.008551504
vn 0.01325443 0.9998753 0.008581259
vn 0.01325443 0.9998753 0.008581259
vn 0.01325443 0.9998753 0.008581259
vn 0.01301551 0.9998785 0.008578814
vn 0.01301551 0.9998785 0.008578814
vn 0.01301551 0.9998785 0.008578814
vn 0.01878623 0.9997723 0.01012769
vn 0.01878623 0.9997723 0.01012769
vn 0.01878623 0.9997723 0.01012769
vn 0.01288686 0.9998828 0.008265385
vn 0.01288686 0.9998828 0.008265385
vn 0.01288686 0.9998828 0.008265385
vn 0.3035724 0.9321038 0.1975509
vn 0.3035724 0.9321038 0.1975509
vn 0.3035724 0.9321038 0.1975509
vn 0.3035724 0.9321038 0.1975509
vn 0.3035724 0.9321038 0.1975509
vn 0.3035724 0.9321038 0.1975509
vn 0.05883348 0.9097009 0.4110752
vn 0.05883348 0.9097009 0.4110752
vn 0.05883348 0.9097009 0.4110752
vn -0.2819265 0.8561031 0.4331338
vn -0.2819265 0.8561031 0.4331338
vn -0.2819265 0.8561031 0.4331338
vn -0.4345708 0.8894883 0.1412753
vn -0.4345708 0.8894883 0.1412753
vn -0.4345708 0.8894883 0.1412753
vn -0.3358878 0.9159871 -0.2194242
vn -0.3358878 0.9159871 -0.2194242
vn -0.3358878 0.9159871 -0.2194242
vn -0.3358878 0.9159871 -0.2194242
vn -0.3358878 0.9159871 -0.2194242
vn -0.3358878 0.9159871 -0.2194242
vn 0.1910465 0.9367122 -0.2933794
vn 0.1910465 0.9367122 -0.2933794
vn 0.1910465 0.9367122 -0.2933794
vn 0.1909802 0.9367589 -0.2932735
vn 0.1909802 0.9367589 -0.2932735
vn 0.1909802 0.9367589 -0.2932735
vn 0.1910335 0.9367189 -0.2933663
vn 0.1910335 0.9367189 -0.2933663
vn 0.1910335 0.9367189 -0.2933663
vn 0.838002 0 0.5456671
vn 0.838002 0 0.5456671
vn 0.838002 0 0.5456671
vn 0.838002 0 0.5456671
vn 0.8398652 0 0.542795
vn 0.8398652 0 0.542795
vn 0.8398652 0 0.542795
vn 0.8398652 0 0.542795
vn 0.5457359 0 -0.8379573
vn 0.5457359 0 -0.8379573
vn 0.5457359 0 -0.8379573
vn 0.5457359 0 -0.8379573
vn 0.9928966 0 -0.1189806
vn 0.9928966 0 -0.1189806
vn 0.9928966 0 -0.1189806
vn 0.9928966 0 -0.1189806
vn 0.8378194 0 0.5459475
vn 0.8378194 0 0.5459475
vn 0.8378194 0 0.5459475
vn 0.8378194 0 0.5459475
vn 0.2484861 0 0.9686355
vn 0.2484861 0 0.9686355
vn 0.2484861 0 0.9686355
vn 0.2484861 0 0.9686355
vn 0.2484861 0 0.9686355
vn 0.2484861 0 0.9686355
vn 0.2484861 3.571436E-11 0.9686355
vn 0.2484861 3.571436E-11 0.9686355
vn 0.2484861 3.571436E-11 0.9686355
vn -0.5458267 0 0.8378981
vn -0.5458267 0 0.8378981
vn -0.5458267 0 0.8378981
vn -0.5458267 0 0.8378981
vn -0.5458267 0 0.8378981
vn -0.5458267 0 0.8378981
vn -0.5458267 0 0.8378981
vn -0.5458267 0 0.8378981
vn -0.5458267 0 0.8378981
vn 0.8380598 0 0.5455784
vn 0.8380598 0 0.5455784
vn 0.8380598 0 0.5455784
vn 0.8380598 0 0.5455784
vn 0.8380598 0 0.5455784
vn 0.8380598 0 0.5455784
vn 0.8380598 0 0.5455784
vn 0.8378368 0 0.5459208
vn 0.8378368 0 0.5459208
vn 0.8378368 0 0.5459208
vn 0.8378368 0 0.5459208
vn 0.5456532 0 -0.8380111
vn 0.5456532 0 -0.8380111
vn 0.5456532 0 -0.8380111
vn 0.5456532 0 -0.8380111
vn -0.8380234 0 -0.5456342
vn -0.8380234 0 -0.5456342
vn -0.8380234 0 -0.5456342
vn -0.8380234 0 -0.5456342
vn -0.8380234 0 -0.5456342
vn -0.8380234 0 -0.5456342
vn -0.8380234 0 -0.5456342
vn -0.8383557 0 -0.5451235
vn -0.8383557 0 -0.5451235
vn -0.8383557 0 -0.5451235
vn -0.8383557 0 -0.5451235
vn -0.8386073 0 -0.5447364
vn -0.8386073 0 -0.5447364
vn -0.8386073 0 -0.5447364
vn -0.8386073 0 -0.5447364
vn -0.5455496 0 0.8380785
vn -0.5455496 0 0.8380785
vn -0.5455496 0 0.8380785
vn -0.5455496 0 0.8380785
vn -0.5455496 0 0.8380785
vn -0.5455496 0 0.8380785
vn -0.5455496 0 0.8380785
vn -0.5459902 0 0.8377916
vn -0.5459902 0 0.8377916
vn -0.5459902 0 0.8377916
vn -0.5457259 0 0.8379638
vn -0.5457259 0 0.8379638
vn -0.5457259 0 0.8379638
vn -0.5450925 0 0.8383759
vn -0.5450925 0 0.8383759
vn -0.5450925 0 0.8383759
vn -0.5450925 0 0.8383759
vn -0.5450925 0 0.8383759
vn -0.5450925 0 0.8383759
vn -0.5450925 0 0.8383759
vn 0.8381548 0 0.5454324
vn 0.8381548 0 0.5454324
vn 0.8381548 0 0.5454324
vn 0.8381548 0 0.5454324
vn 0.1416773 0 0.9899129
vn 0.1416773 0 0.9899129
vn 0.1416773 0 0.9899129
vn 0.1416773 0 0.9899129
vn -0.5455182 0 0.838099
vn -0.5455182 0 0.838099
vn -0.5455182 0 0.838099
vn -0.5455182 0 0.838099
vn -0.9510084 0 0.3091649
vn -0.9510084 0 0.3091649
vn -0.9510084 0 0.3091649
vn -0.9510084 0 0.3091649
vn -0.8371919 0 -0.5469093
vn -0.8371919 0 -0.5469093
vn -0.8371919 0 -0.5469093
vn -0.8371919 0 -0.5469093
vn 0.5457259 0 -0.8379638
vn 0.5457259 0 -0.8379638
vn 0.5457259 0 -0.8379638
vn 0.5459902 0 -0.8377916
vn 0.5459902 0 -0.8377916
vn 0.5459902 0 -0.8377916
vn 0.5456961 0 -0.8379832
vn 0.5456961 0 -0.8379832
vn 0.5456961 0 -0.8379832
vn 0.5456961 0 -0.8379832
vn 0.5456961 0 -0.8379832
vn 0.5456961 0 -0.8379832
vn 0.5456961 -1.33539E-12 -0.8379832
vn 0.5456961 -1.33539E-12 -0.8379832
vn 0.5456961 -1.33539E-12 -0.8379832
vn 0 -1 0
vn 0 -1 0
vn 0 -1 0
vn 0 -1 0
vn 0 -1 0
vn 0 -1 0
vn 0 -1 0
vn 0 -1 0
vn 0 -1 0
vn 0 -1 0
vn 0 -1 0
vn 0 -1 0
vn 0 -1 0
vn 0 -1 0
vn 0 -1 0
vn 0 -1 0
vn 0 -1 0
vn 0 -1 0
vn 0 -1 0
vn 0 -1 0
vn 0 -1 0
vn 0 -1 0
vn 0 -1 0

g CDNNDG02_0011920
f 1/1/1 2/2/2 3/3/3
f 4/4/4 5/5/5 6/6/6
f 7/7/7 8/8/8 9/9/9
f 10/10/10 11/11/11 12/12/12
f 13/13/13 14/14/14 15/15/15
f 16/16/16 17/17/17 18/18/18
f 19/19/19 20/20/20 21/21/21
f 22/22/22 23/23/23 24/24/24
f 25/25/25 26/26/26 27/27/27
f 28/28/28 29/29/29 30/30/30
f 31/31/31 32/32/32 33/33/33
f 34/34/34 35/35/35 36/36/36
f 37/37/37 38/38/38 39/39/39
f 40/40/40 41/41/41 42/42/42
f 43/43/43 44/44/44 45/45/45
f 46/46/46 47/47/47 48/48/48
f 49/49/49 50/50/50 51/51/51
f 52/52/52 53/53/53 54/54/54
f 55/55/55 56/56/56 57/57/57
f 58/58/58 59/59/59 60/60/60
f 61/61/61 62/62/62 63/63/63
f 64/64/64 65/65/65 66/66/66
f 67/67/67 68/68/68 69/69/69
f 70/70/70 71/71/71 72/72/72
f 73/73/73 75/75/75 76/76/76
f 73/73/73 74/74/74 75/75/75
f 77/77/77 79/79/79 80/80/80
f 77/77/77 78/78/78 79/79/79
f 83/83/83 84/84/84 82/82/82
f 81/81/81 82/82/82 84/84/84
f 88/88/88 86/86/86 87/87/87
f 88/88/88 85/85/85 86/86/86
f 90/90/90 91/91/91 89/89/89
f 89/89/89 91/91/91 92/92/92
f 93/93/93 94/94/94 95/95/95
f 96/96/96 97/97/97 98/98/98
f 99/99/99 100/100/100 101/101/101
f 102/102/102 103/103/103 104/104/104
f 105/105/105 106/106/106 107/107/107
f 108/108/108 109/109/109 110/110/110
f 111/111/111 112/112/112 113/113/113
f 114/114/114 116/116/116 117/117/117
f 114/114/114 115/115/115 116/116/116
f 118/118/118 120/120/120 121/121/121
f 118/118/118 119/119/119 120/120/120
f 125/125/125 122/122/122 123/123/123
f 123/123/123 124/124/124 125/125/125
f 127/127/127 128/128/128 129/129/129
f 126/126/126 127/127/127 129/129/129
f 130/130/130 131/131/131 132/132/132
f 134/134/134 135/135/135 136/136/136
f 133/133/133 134/134/134 136/136/136
f 138/138/138 139/139/139 140/140/140
f 137/137/137 138/138/138 140/140/140
f 141/141/141 142/142/142 143/143/143
f 144/144/144 146/146/146 147/147/147
f 146/146/146 144/144/144 145/145/145
f 148/148/148 149/149/149 150/150/150
f 151/151/151 152/152/152 153/153/153
f 155/155/155 156/156/156 157/157/157
f 157/157/157 154/154/154 155/155/155
f 158/158/158 159/159/159 160/160/160
f 162/162/162 163/163/163 161/161/161
f 161/161/161 163/163/163 164/164/164
f 166/166/166 167/167/167 168/168/168
f 165/165/165 166/166/166 168/168/168
f 169/169/169 171/171/171 172/172/172
f 171/171/171 169/169/169 170/170/170
f 173/173/173 175/175/175 176/176/176
f 173/173/173 174/174/174 175/175/175
f 178/178/178 179/179/179 180/180/180
f 177/177/177 178/178/178 180/180/180
f 181/181/181 182/182/182 183/183/183
f 184/184/184 185/185/185 186/186/186
f 187/187/187 188/188/188 189/189/189
f 190/190/190 191/191/191 192/192/192
f 193/193/193 194/194/194 195/195/195
f 196/196/196 217/217/217 218/218/218
f 215/215/215 216/216/216 217/217/217
f 196/196/196 197/197/197 198/198/198
f 196/196/196 198/198/198 199/199/199
f 202/202/202 214/214/214 215/215/215
f 196/196/196 199/199/199 201/201/201
f 199/199/199 200/200/200 201/201/201
f 217/217/217 201/201/201 215/215/215
f 202/202/202 203/203/203 214/214/214
f 203/203/203 204/204/204 206/206/206
f 196/196/196 201/201/201 217/217/217
f 204/204/204 205/205/205 206/206/206
f 203/203/203 213/213/213 214/214/214
f 203/203/203 206/206/206 208/208/208
f 201/201/201 202/202/202 215/215/215
f 206/206/206 207/207/207 208/208/208
f 203/203/203 208/208/208 211/211/211
f 208/208/208 209/209/209 210/210/210
f 208/208/208 210/210/210 211/211/211
f 203/203/203 211/211/211 212/212/212
f 203/203/203 212/212/212 213/213/213
