v 0.8394842 5.703636 -8.807555
v 4.381153 5.703636 -6.821653
v 4.687484 5.703636 -7.284555
v 0.8394842 5.703636 -8.807555
v 4.687484 5.703636 -7.284555
v 1.316484 5.703636 -9.515554
v -1.741516 5.703636 -1.393555
v 4.530184 5.703636 -6.215189
v 4.147484 5.703636 -6.468555
v 0.8394842 5.703636 -8.807555
v 4.147484 5.703636 -6.468555
v 4.381153 5.703636 -6.821653
v -1.741516 5.703636 -1.393555
v 4.147484 5.703636 -6.468555
v 0.8394842 5.703636 -8.807555
v -3.390516 5.703636 -2.485555
v -1.741516 5.703636 -1.393555
v 0.8394842 5.703636 -8.807555
v -6.515516 5.703636 5.818445
v -4.762516 5.703636 6.979445
v -1.741516 5.703636 -1.393555
v -4.762516 5.703636 6.979445
v -0.3425158 5.703636 6.275445
v -1.741516 5.703636 -1.393555
v -4.762516 5.703636 6.979445
v -2.013516 5.703636 8.799445
v -0.3425158 5.703636 6.275445
v -1.741516 5.703636 -1.393555
v 2.347987 5.703636 0.162554
v 2.402406 5.703636 0.08015507
v -1.741516 5.703636 -1.393555
v -0.3425158 5.703636 6.275445
v 2.347987 5.703636 0.162554
v -1.741516 5.703636 -1.393555
v 2.402406 5.703636 0.08015507
v 3.204883 5.703636 -1.136892
v -1.741516 5.703636 -1.393555
v 3.204883 5.703636 -1.136892
v 6.890484 5.703636 -4.652555
v -0.3425158 5.703636 6.275445
v 6.890484 5.703636 -4.652555
v 3.171106 5.703636 0.7052794
v -0.3425158 5.703636 6.275445
v 3.171106 5.703636 0.7052794
v 2.347987 5.703636 0.162554
v 3.225526 5.703636 0.6228805
v 6.890484 5.703636 -4.652555
v 4.028862 5.703636 -0.5941662
v 3.171106 5.703636 0.7052794
v 6.890484 5.703636 -4.652555
v 3.225526 5.703636 0.6228805
v 3.204883 5.703636 -1.136892
v 4.028862 5.703636 -0.5941662
v 6.890484 5.703636 -4.652555
v -1.741516 5.703636 -1.393555
v 6.890484 5.703636 -4.652555
v 4.530184 5.703636 -6.215189
v 3.225526 5.703636 0.6228805
v 4.028862 5.703636 -0.5941662
v 3.379484 6.035636 -0.4995548
v 2.990484 6.035636 0.08944523
v 3.225526 5.703636 0.6228805
v 3.379484 6.035636 -0.4995548
v 2.990484 6.035636 0.08944523
v 3.171106 5.703636 0.7052794
v 3.225526 5.703636 0.6228805
v 3.204883 5.703636 -1.136892
v 3.379484 6.035636 -0.4995548
v 4.028862 5.703636 -0.5941662
v 2.347987 5.703636 0.162554
v 3.171106 5.703636 0.7052794
v 2.990484 6.035636 0.08944523
v 2.347987 5.703636 0.162554
v 2.990484 6.035636 0.08944523
v 3.379484 6.035636 -0.4995548
v 2.347987 5.703636 0.162554
v 3.379484 6.035636 -0.4995548
v 2.402406 5.703636 0.08015507
v 2.402406 5.703636 0.08015507
v 3.379484 6.035636 -0.4995548
v 3.204883 5.703636 -1.136892
v -3.392516 5.415636 11.20245
v -1.896516 5.415636 8.876445
v -2.013516 5.415636 8.799445
v -6.282516 5.415636 9.342445
v -3.392516 5.415636 11.20245
v -2.013516 5.415636 8.799445
v -4.762516 5.415636 6.979445
v 4.147484 6.454636 -6.468555
v 6.890484 6.454636 -4.652555
v 4.923484 6.454636 -6.517555
v 4.147484 6.454636 -6.468555
v 4.923484 6.454636 -6.517555
v 4.687484 6.454636 -7.284555
v 1.316484 6.454636 -9.515554
v 4.687484 6.454636 -7.284555
v 1.559484 6.454636 -9.882555
v 4.923484 6.454636 -6.517555
v 6.890484 6.454636 -4.652555
v 7.150484 6.454636 -5.043555
v 1.559484 6.454636 -9.882555
v 4.687484 6.454636 -7.284555
v 5.446484 6.454636 -7.308555
v 4.687484 6.454636 -7.284555
v 4.923484 6.454636 -6.517555
v 5.446484 6.454636 -7.308555
v -3.390516 -5.709101 -2.485555
v -1.741516 -5.709101 -1.393555
v -1.741516 5.703636 -1.393555
v -3.390516 5.703636 -2.485555
v -6.515516 5.703636 5.818445
v -1.741516 5.703636 -1.393555
v -1.741516 -5.709101 -1.393555
v -6.515516 -5.709101 5.818445
v -6.515516 5.703636 5.818445
v -4.762516 5.415636 6.979445
v -4.762516 5.703636 6.979445
v -6.515516 -5.709101 5.818445
v -4.762516 -5.709101 6.979445
v -4.762516 5.415636 6.979445
v -6.515516 5.703636 5.818445
v -4.762516 5.415636 6.979445
v -2.013516 5.415636 8.799445
v -2.013516 5.703636 8.799445
v -4.762516 5.703636 6.979445
v -2.013516 -5.709101 8.799445
v -0.3425158 -5.709101 6.275445
v -0.3425158 5.703636 6.275445
v -2.013516 5.415636 8.799445
v -2.013516 5.703636 8.799445
v -2.013516 5.415636 8.799445
v -0.3425158 5.703636 6.275445
v -0.3425158 -5.709101 6.275445
v 6.890484 -5.709101 -4.652555
v 6.890484 5.703636 -4.652555
v -0.3425158 5.703636 6.275445
v 6.890484 -5.709101 -4.652555
v 7.150484 -5.709101 -5.043555
v 7.150484 5.703636 -5.043555
v 6.890484 5.703636 -4.652555
v 6.890484 5.703636 -4.652555
v 7.150484 5.703636 -5.043555
v 7.150484 6.454636 -5.043555
v 6.890484 6.454636 -4.652555
v 4.923484 5.703636 -6.517555
v 6.036984 -5.709101 -5.780555
v 4.923484 -5.709101 -6.517555
v 6.036984 -5.709101 -5.780555
v 7.150484 5.703636 -5.043555
v 7.150484 -5.709101 -5.043555
v 4.923484 5.703636 -6.517555
v 7.150484 5.703636 -5.043555
v 6.036984 -5.709101 -5.780555
v 4.923484 6.454636 -6.517555
v 7.150484 6.454636 -5.043555
v 7.150484 5.703636 -5.043555
v 4.923484 5.703636 -6.517555
v 5.184984 -5.709101 -6.913055
v 5.446484 -5.709101 -7.308555
v 5.446484 5.703636 -7.308555
v 4.923484 5.703636 -6.517555
v 4.923484 -5.709101 -6.517555
v 5.184984 -5.709101 -6.913055
v 4.923484 5.703636 -6.517555
v 5.184984 -5.709101 -6.913055
v 5.446484 5.703636 -7.308555
v 4.923484 5.703636 -6.517555
v 5.446484 5.703636 -7.308555
v 5.446484 6.454636 -7.308555
v 4.923484 6.454636 -6.517555
v 1.559484 5.703636 -9.882555
v 3.502984 -5.709101 -8.595554
v 1.559484 -5.709101 -9.882555
v 3.502984 -5.709101 -8.595554
v 5.446484 5.703636 -7.308555
v 5.446484 -5.709101 -7.308555
v 1.559484 5.703636 -9.882555
v 5.446484 5.703636 -7.308555
v 3.502984 -5.709101 -8.595554
v 1.559484 6.454636 -9.882555
v 5.446484 6.454636 -7.308555
v 5.446484 5.703636 -7.308555
v 1.559484 5.703636 -9.882555
v 1.316484 5.703636 -9.515554
v 1.437984 -5.709101 -9.699055
v 1.316484 -5.709101 -9.515554
v 1.437984 -5.709101 -9.699055
v 1.559484 5.703636 -9.882555
v 1.559484 -5.709101 -9.882555
v 1.316484 5.703636 -9.515554
v 1.559484 5.703636 -9.882555
v 1.437984 -5.709101 -9.699055
v 0.8394842 5.703636 -8.807555
v 1.316484 5.703636 -9.515554
v 1.316484 -5.709101 -9.515554
v 0.8394842 -5.709101 -8.807555
v -3.390516 5.703636 -2.485555
v 0.8394842 5.703636 -8.807555
v 0.8394842 -5.709101 -8.807555
v -3.390516 -5.709101 -2.485555
v 1.316484 6.454636 -9.515554
v 1.559484 6.454636 -9.882555
v 1.559484 5.703636 -9.882555
v 1.316484 5.703636 -9.515554
v -6.282516 -5.709101 9.342445
v -3.392516 -5.709101 11.20245
v -3.392516 5.415636 11.20245
v -6.282516 5.415636 9.342445
v -3.392516 -5.709101 11.20245
v -1.896516 -5.709101 8.876445
v -1.896516 5.415636 8.876445
v -3.392516 5.415636 11.20245
v -2.013516 5.415636 8.799445
v -1.896516 5.415636 8.876445
v -1.896516 -5.709101 8.876445
v -2.013516 -5.709101 8.799445
v -6.282516 5.415636 9.342445
v -4.762516 5.415636 6.979445
v -4.762516 -5.709101 6.979445
v -6.282516 -5.709101 9.342445
v 1.316484 5.703636 -9.515554
v 4.687484 5.703636 -7.284555
v 4.687484 6.454636 -7.284555
v 1.316484 6.454636 -9.515554
v 4.147484 6.454636 -6.468555
v 4.381153 5.703636 -6.821653
v 4.147484 5.703636 -6.468555
v 4.381153 5.703636 -6.821653
v 4.687484 6.454636 -7.284555
v 4.687484 5.703636 -7.284555
v 4.147484 6.454636 -6.468555
v 4.687484 6.454636 -7.284555
v 4.381153 5.703636 -6.821653
v 4.530184 5.703636 -6.215189
v 6.890484 5.703636 -4.652555
v 6.890484 6.454636 -4.652555
v 4.147484 6.454636 -6.468555
v 4.147484 6.454636 -6.468555
v 4.147484 5.703636 -6.468555
v 4.530184 5.703636 -6.215189
v 0.8394842 -5.709101 -8.807555
v 1.316484 -5.709101 -9.515554
v 1.437984 -5.709101 -9.699055
v 1.559484 -5.709101 -9.882555
v 3.502984 -5.709101 -8.595554
v 5.446484 -5.709101 -7.308555
v 5.184984 -5.709101 -6.913055
v 4.923484 -5.709101 -6.517555
v 6.036984 -5.709101 -5.780555
v 7.150484 -5.709101 -5.043555
v 6.890484 -5.709101 -4.652555
v -0.3425158 -5.709101 6.275445
v -2.013516 -5.709101 8.799445
v -1.896516 -5.709101 8.876445
v -3.392516 -5.709101 11.20245
v -6.282516 -5.709101 9.342445
v -4.762516 -5.709101 6.979445
v -6.515516 -5.709101 5.818445
v -1.741516 -5.709101 -1.393555
v -3.390516 -5.709101 -2.485555
vt 0.747223 0.182553
vt 0.661835 0.076579
vt 0.681335 0.067230
vt 0.747223 0.182553
vt 0.681335 0.067230
vt 0.777045 0.168000
vt 0.434080 0.262333
vt 0.636090 0.072271
vt 0.646960 0.083711
vt 0.747223 0.182553
vt 0.646960 0.083711
vt 0.661835 0.076579
vt 0.434080 0.262333
vt 0.646960 0.083711
vt 0.747223 0.182553
vt 0.480926 0.311623
vt 0.434080 0.262333
vt 0.747223 0.182553
vt 0.130300 0.408016
vt 0.080492 0.355620
vt 0.434080 0.262333
vt 0.080492 0.355620
vt 0.108722 0.222459
vt 0.434080 0.262333
vt 0.080492 0.355620
vt 0.002410 0.273453
vt 0.108722 0.222459
vt 0.434080 0.262333
vt 0.366699 0.139759
vt 0.370169 0.138098
vt 0.434080 0.262333
vt 0.108722 0.222459
vt 0.366699 0.139759
vt 0.434080 0.262333
vt 0.370169 0.138098
vt 0.421438 0.113606
vt 0.434080 0.262333
vt 0.421438 0.113606
vt 0.569051 0.001712
vt 0.108722 0.222459
vt 0.569051 0.001712
vt 0.343413 0.115153
vt 0.108722 0.222459
vt 0.343413 0.115153
vt 0.366699 0.139759
vt 0.346884 0.113493
vt 0.569051 0.001712
vt 0.398152 0.088974
vt 0.343413 0.115153
vt 0.569051 0.001712
vt 0.346884 0.113493
vt 0.421438 0.113606
vt 0.398152 0.088974
vt 0.569051 0.001712
vt 0.434080 0.262333
vt 0.569051 0.001712
vt 0.636090 0.072271
vt 0.287643 0.938910
vt 0.336466 0.916096
vt 0.335212 0.935952
vt 0.311574 0.947004
vt 0.287643 0.938910
vt 0.335212 0.935952
vt 0.311574 0.947004
vt 0.284337 0.940456
vt 0.287643 0.938910
vt 0.397838 0.938984
vt 0.375904 0.935604
vt 0.377095 0.916096
vt 0.363729 0.939158
vt 0.342169 0.916096
vt 0.368924 0.919855
vt 0.226506 0.947074
vt 0.231889 0.927427
vt 0.255705 0.916096
vt 0.226506 0.947074
vt 0.255705 0.916096
vt 0.229836 0.945490
vt 0.229836 0.945490
vt 0.255705 0.916096
vt 0.279028 0.922125
vt 0.144578 0.784985
vt 0.241522 0.739726
vt 0.244791 0.743192
vt 0.223558 0.870600
vt 0.144578 0.784985
vt 0.244791 0.743192
vt 0.322043 0.824617
vt 0.754501 0.502191
vt 0.677108 0.420570
vt 0.756288 0.478939
vt 0.754501 0.502191
vt 0.756288 0.478939
vt 0.788649 0.485786
vt 0.883725 0.586092
vt 0.788649 0.485786
vt 0.899083 0.578710
vt 0.756288 0.478939
vt 0.677108 0.420570
vt 0.693470 0.412671
vt 0.899083 0.578710
vt 0.788649 0.485786
vt 0.789390 0.463050
vt 0.788649 0.485786
vt 0.756288 0.478939
vt 0.789390 0.463050
vt 0.828672 0.827179
vt 0.783133 0.779306
vt 0.875661 0.739726
vt 0.921857 0.788289
vt 0.404819 0.916096
vt 0.404819 0.916096
vt 0.404819 0.916096
vt 0.404819 0.916096
vt 0.139056 0.873530
vt 0.087714 0.822418
vt 0.089955 0.821430
vt 0.050814 0.911416
vt 0.002410 0.860057
vt 0.087714 0.822418
vt 0.139056 0.873530
vt 0.087714 0.822418
vt 0.010768 0.740744
vt 0.012980 0.739726
vt 0.089955 0.821430
vt 0.002410 0.681351
vt 0.106395 0.632362
vt 0.191185 0.685924
vt 0.083586 0.734223
vt 0.085717 0.735611
vt 0.083586 0.734223
vt 0.191185 0.685924
vt 0.106395 0.632362
vt 0.556646 0.420295
vt 0.647851 0.470840
vt 0.191185 0.685924
vt 0.556646 0.420295
vt 0.572756 0.412671
vt 0.664192 0.463108
vt 0.647851 0.470840
vt 0.647851 0.470840
vt 0.664192 0.463108
vt 0.670300 0.466478
vt 0.653944 0.474217
vt 0.477108 0.916096
vt 0.477108 0.916096
vt 0.477108 0.916096
vt 0.477108 0.916096
vt 0.477108 0.916096
vt 0.477108 0.916096
vt 0.477108 0.916096
vt 0.477108 0.916096
vt 0.477108 0.916096
vt 0.477108 0.916096
vt 0.477108 0.916096
vt 0.477108 0.916096
vt 0.477108 0.916096
vt 0.107624 0.923620
vt 0.123681 0.916096
vt 0.215088 0.966286
vt 0.182515 0.981549
vt 0.091566 0.931145
vt 0.107624 0.923620
vt 0.182515 0.981549
vt 0.107624 0.923620
vt 0.215088 0.966286
vt 0.182515 0.981549
vt 0.215088 0.966286
vt 0.221194 0.969639
vt 0.188591 0.984916
vt 0.440964 0.916096
vt 0.440964 0.916096
vt 0.440964 0.916096
vt 0.440964 0.916096
vt 0.440964 0.916096
vt 0.440964 0.916096
vt 0.440964 0.916096
vt 0.440964 0.916096
vt 0.440964 0.916096
vt 0.440964 0.916096
vt 0.440964 0.916096
vt 0.440964 0.916096
vt 0.440964 0.916096
vt 0.453012 0.916096
vt 0.453012 0.916096
vt 0.453012 0.916096
vt 0.453012 0.916096
vt 0.453012 0.916096
vt 0.453012 0.916096
vt 0.453012 0.916096
vt 0.453012 0.916096
vt 0.453012 0.916096
vt 0.453012 0.916096
vt 0.453012 0.916096
vt 0.453012 0.916096
vt 0.453012 0.916096
vt 0.453012 0.916096
vt 0.453012 0.916096
vt 0.453012 0.916096
vt 0.453012 0.916096
vt 0.453012 0.916096
vt 0.453012 0.916096
vt 0.453012 0.916096
vt 0.453012 0.916096
vt 0.405506 0.862118
vt 0.327711 0.777765
vt 0.410799 0.739726
vt 0.489685 0.825265
vt 0.602410 0.783060
vt 0.697283 0.739726
vt 0.777607 0.791914
vt 0.681416 0.835848
vt 0.416867 0.916096
vt 0.416867 0.916096
vt 0.416867 0.916096
vt 0.416867 0.916096
vt 0.428916 0.916096
vt 0.428916 0.916096
vt 0.428916 0.916096
vt 0.428916 0.916096
vt 0.590160 0.842095
vt 0.496386 0.742560
vt 0.502759 0.739726
vt 0.596622 0.839355
vt 0.465060 0.916096
vt 0.465060 0.916096
vt 0.465060 0.916096
vt 0.465060 0.916096
vt 0.465060 0.916096
vt 0.465060 0.916096
vt 0.465060 0.916096
vt 0.465060 0.916096
vt 0.465060 0.916096
vt 0.067789 0.988419
vt 0.002410 0.918981
vt 0.008649 0.916096
vt 0.084701 0.996869
vt 0.084701 0.996869
vt 0.078389 0.999677
vt 0.067789 0.988419
vt 0.489157 0.916096
vt 0.489157 0.916096
vt 0.489157 0.916096
vt 0.489157 0.916096
vt 0.489157 0.916096
vt 0.489157 0.916096
vt 0.489157 0.916096
vt 0.489157 0.916096
vt 0.489157 0.916096
vt 0.489157 0.916096
vt 0.489157 0.916096
vt 0.489157 0.916096
vt 0.489157 0.916096
vt 0.489157 0.916096
vt 0.489157 0.916096
vt 0.489157 0.916096
vt 0.489157 0.916096
vt 0.489157 0.916096
vt 0.489157 0.916096
vt 0.489157 0.916096
vn 0 1 0
vn 0 1 0
vn 0 1 0
vn 0 1 0
vn 0 1 0
vn 0 1 0
vn 0 1 0
vn 0 1 0
vn 0 1 0
vn 0 1 0
vn 0 1 0
vn 0 1 0
vn 0 1 0
vn 0 1 0
vn 0 1 0
vn 0 1 0
vn 0 1 0
vn 0 1 0
vn 0 1 0
vn 0 1 0
vn 0 1 0
vn 0 1 0
vn 0 1 0
vn 0 1 0
vn 0 1 0
vn 0 1 0
vn 0 1 0
vn 0 1 0
vn 0 1 0
vn 0 1 0
vn 0 1 0
vn 0 1 0
vn 0 1 0
vn 0 1 0
vn 0 1 0
vn 0 1 0
vn 0 1 0
vn 0 1 0
vn 0 1 0
vn 0 1 0
vn 0 1 0
vn 0 1 0
vn 0 1 0
vn 0 1 0
vn 0 1 0
vn 0 1 0
vn 0 1 0
vn 0 1 0
vn 0 1 0
vn 0 1 0
vn 0 1 0
vn 0 1 0
vn 0 1 0
vn 0 1 0
vn 0 1 0
vn 0 1 0
vn 0 1 0
vn 0.4682412 0.8277829 0.3090723
vn 0.4682412 0.8277829 0.3090723
vn 0.4682412 0.8277829 0.3090723
vn 0.4679887 0.8279231 0.3090791
vn 0.4679887 0.8279231 0.3090791
vn 0.4679887 0.8279231 0.3090791
vn 0.4679888 0.8279231 0.3090791
vn 0.4679888 0.8279231 0.3090791
vn 0.4679888 0.8279231 0.3090791
vn 0.3331394 0.7957413 -0.5057806
vn 0.3331394 0.7957413 -0.5057806
vn 0.3331394 0.7957413 -0.5057806
vn -0.3440205 0.7806543 0.5217554
vn -0.3440205 0.7806543 0.5217554
vn -0.3440205 0.7806543 0.5217554
vn -0.4642602 0.8309324 -0.3066166
vn -0.4642602 0.8309324 -0.3066166
vn -0.4642602 0.8309324 -0.3066166
vn -0.4642602 0.8309324 -0.3066166
vn -0.4642602 0.8309324 -0.3066166
vn -0.4642602 0.8309324 -0.3066166
vn -0.4639944 0.8313298 -0.3059412
vn -0.4639944 0.8313298 -0.3059412
vn -0.4639944 0.8313298 -0.3059412
vn 0 1 0
vn 0 1 0
vn 0 1 0
vn 0 1 0
vn 0 1 0
vn 0 1 0
vn 0 1 0
vn 0 1 0
vn 0 1 0
vn 0 1 0
vn 0 1 0
vn 0 1 0
vn 0 1 0
vn 0 1 0
vn 0 1 0
vn 0 1 0
vn 0 1 0
vn 0 1 0
vn 0 1 0
vn 0 1 0
vn 0 1 0
vn 0 1 0
vn 0 1 0
vn 0 1 0
vn 0 1 0
vn -0.5521306 0 0.8337576
vn -0.5521306 0 0.8337576
vn -0.5521306 0 0.8337576
vn -0.5521306 0 0.8337576
vn -0.8338602 0 -0.5519757
vn -0.8338602 0 -0.5519757
vn -0.8338602 0 -0.5519757
vn -0.8338602 0 -0.5519757
vn -0.5521733 0 0.8337294
vn -0.5521733 0 0.8337294
vn -0.5521733 0 0.8337294
vn -0.5521733 0 0.8337294
vn -0.5521733 0 0.8337294
vn -0.5521733 0 0.8337294
vn -0.5521733 0 0.8337294
vn -0.5520375 0 0.8338193
vn -0.5520375 0 0.8338193
vn -0.5520375 0 0.8338193
vn -0.5520375 0 0.8338193
vn 0.8338249 0 0.5520291
vn 0.8338249 0 0.5520291
vn 0.8338249 0 0.5520291
vn 0.8338249 0 0.5520291
vn 0.8338249 0 0.5520291
vn 0.8338249 0 0.5520291
vn 0.8338249 0 0.5520291
vn 0.8338888 0 0.5519325
vn 0.8338888 0 0.5519325
vn 0.8338888 0 0.5519325
vn 0.8338888 0 0.5519325
vn 0.832705 0 0.5537169
vn 0.832705 0 0.5537169
vn 0.832705 0 0.5537169
vn 0.832705 0 0.5537169
vn 0.832705 0 0.5537169
vn 0.832705 0 0.5537169
vn 0.832705 0 0.5537169
vn 0.832705 0 0.5537169
vn 0.551932 0 -0.8338891
vn 0.551932 0 -0.8338891
vn 0.551932 0 -0.8338891
vn 0.551932 0 -0.8338891
vn 0.551932 0 -0.8338891
vn 0.551932 0 -0.8338891
vn 0.551932 3.261677E-11 -0.8338891
vn 0.551932 3.261677E-11 -0.8338891
vn 0.551932 3.261677E-11 -0.8338891
vn 0.551932 0 -0.8338891
vn 0.551932 0 -0.8338891
vn 0.551932 0 -0.8338891
vn 0.551932 0 -0.8338891
vn 0.8341534 0 0.5515325
vn 0.8341534 0 0.5515325
vn 0.8341534 0 0.5515325
vn 0.8341534 0 0.5515325
vn 0.8341534 0 0.5515325
vn 0.8341534 0 0.5515325
vn 0.8341534 2.037638E-11 0.5515325
vn 0.8341534 2.037638E-11 0.5515325
vn 0.8341534 2.037638E-11 0.5515325
vn 0.8341534 0 0.5515325
vn 0.8341534 0 0.5515325
vn 0.8341534 0 0.5515325
vn 0.8341534 0 0.5515325
vn 0.5521235 0 -0.8337623
vn 0.5521235 0 -0.8337623
vn 0.5521235 0 -0.8337623
vn 0.5521235 0 -0.8337623
vn 0.5521235 0 -0.8337623
vn 0.5521235 0 -0.8337623
vn 0.5521235 -3.401908E-11 -0.8337623
vn 0.5521235 -3.401908E-11 -0.8337623
vn 0.5521235 -3.401908E-11 -0.8337623
vn 0.5521235 0 -0.8337623
vn 0.5521235 0 -0.8337623
vn 0.5521235 0 -0.8337623
vn 0.5521235 0 -0.8337623
vn -0.8337938 0 -0.552076
vn -0.8337938 0 -0.552076
vn -0.8337938 0 -0.552076
vn -0.8337938 0 -0.552076
vn -0.8337938 0 -0.552076
vn -0.8337938 0 -0.552076
vn -0.8337938 0 -0.552076
vn -0.8337938 0 -0.552076
vn -0.8337938 0 -0.552076
vn -0.8293372 0 -0.5587484
vn -0.8293372 0 -0.5587484
vn -0.8293372 0 -0.5587484
vn -0.8293372 0 -0.5587484
vn -0.8311188 0 -0.5560949
vn -0.8311188 0 -0.5560949
vn -0.8311188 0 -0.5560949
vn -0.8311188 0 -0.5560949
vn -0.8337938 0 -0.552076
vn -0.8337938 0 -0.552076
vn -0.8337938 0 -0.552076
vn -0.8337938 0 -0.552076
vn -0.5411987 0 0.8408948
vn -0.5411987 0 0.8408948
vn -0.5411987 0 0.8408948
vn -0.5411987 0 0.8408948
vn 0.841061 0 0.5409403
vn 0.841061 0 0.5409403
vn 0.841061 0 0.5409403
vn 0.841061 0 0.5409403
vn 0.5497476 0 -0.8353308
vn 0.5497476 0 -0.8353308
vn 0.5497476 0 -0.8353308
vn 0.5497476 0 -0.8353308
vn -0.8410281 0 -0.5409914
vn -0.8410281 0 -0.5409914
vn -0.8410281 0 -0.5409914
vn -0.8410281 0 -0.5409914
vn -0.5518998 0 0.8339105
vn -0.5518998 0 0.8339105
vn -0.5518998 0 0.8339105
vn -0.5518998 0 0.8339105
vn -0.8339322 0 -0.5518669
vn -0.8339322 0 -0.5518669
vn -0.8339322 0 -0.5518669
vn -0.8339322 0 -0.5518669
vn -0.8339322 0 -0.5518669
vn -0.8339322 0 -0.5518669
vn -0.8339322 5.042065E-11 -0.5518669
vn -0.8339322 5.042065E-11 -0.5518669
vn -0.8339322 5.042065E-11 -0.5518669
vn -0.5520316 2.241531E-09 0.8338231
vn -0.5520316 0 0.8338231
vn -0.5520316 2.241531E-09 0.8338231
vn -0.5520316 4.483063E-09 0.8338231
vn -0.5520316 0 0.8338231
vn -0.5520316 0 0.8338231
vn -0.5520316 0 0.8338231
vn 0 -1 0
vn 0 -1 0
vn 0 -1 0
vn 0 -1 0
vn 0 -1 0
vn 0 -1 0
vn 0 -1 0
vn 0 -1 0
vn 0 -1 0
vn 0 -1 0
vn 0 -1 0
vn 0 -1 0
vn 0 -1 0
vn 0 -1 0
vn 0 -1 0
vn 0 -1 0
vn 0 -1 0
vn 0 -1 0
vn 0 -1 0
vn 0 -1 0

g CDNNDG02_0012420
f 1/1/1 2/2/2 3/3/3
f 4/4/4 5/5/5 6/6/6
f 7/7/7 8/8/8 9/9/9
f 10/10/10 11/11/11 12/12/12
f 13/13/13 14/14/14 15/15/15
f 16/16/16 17/17/17 18/18/18
f 19/19/19 20/20/20 21/21/21
f 22/22/22 23/23/23 24/24/24
f 25/25/25 26/26/26 27/27/27
f 28/28/28 29/29/29 30/30/30
f 31/31/31 32/32/32 33/33/33
f 34/34/34 35/35/35 36/36/36
f 37/37/37 38/38/38 39/39/39
f 40/40/40 41/41/41 42/42/42
f 43/43/43 44/44/44 45/45/45
f 46/46/46 47/47/47 48/48/48
f 49/49/49 50/50/50 51/51/51
f 52/52/52 53/53/53 54/54/54
f 55/55/55 56/56/56 57/57/57
f 58/58/58 59/59/59 60/60/60
f 61/61/61 62/62/62 63/63/63
f 64/64/64 65/65/65 66/66/66
f 67/67/67 68/68/68 69/69/69
f 70/70/70 71/71/71 72/72/72
f 73/73/73 74/74/74 75/75/75
f 76/76/76 77/77/77 78/78/78
f 79/79/79 80/80/80 81/81/81
f 82/82/82 83/83/83 84/84/84
f 85/85/85 87/87/87 88/88/88
f 87/87/87 85/85/85 86/86/86
f 89/89/89 90/90/90 91/91/91
f 92/92/92 93/93/93 94/94/94
f 95/95/95 96/96/96 97/97/97
f 98/98/98 99/99/99 100/100/100
f 101/101/101 102/102/102 103/103/103
f 104/104/104 105/105/105 106/106/106
f 107/107/107 109/109/109 110/110/110
f 109/109/109 107/107/107 108/108/108
f 111/111/111 113/113/113 114/114/114
f 111/111/111 112/112/112 113/113/113
f 115/115/115 116/116/116 117/117/117
f 121/121/121 118/118/118 120/120/120
f 120/120/120 118/118/118 119/119/119
f 125/125/125 122/122/122 124/124/124
f 124/124/124 122/122/122 123/123/123
f 127/127/127 128/128/128 129/129/129
f 126/126/126 127/127/127 129/129/129
f 130/130/130 131/131/131 132/132/132
f 136/136/136 133/133/133 135/135/135
f 134/134/134 135/135/135 133/133/133
f 137/137/137 139/139/139 140/140/140
f 137/137/137 138/138/138 139/139/139
f 141/141/141 143/143/143 144/144/144
f 141/141/141 142/142/142 143/143/143
f 145/145/145 146/146/146 147/147/147
f 148/148/148 149/149/149 150/150/150
f 151/151/151 152/152/152 153/153/153
f 154/154/154 156/156/156 157/157/157
f 154/154/154 155/155/155 156/156/156
f 158/158/158 159/159/159 160/160/160
f 161/161/161 162/162/162 163/163/163
f 164/164/164 165/165/165 166/166/166
f 170/170/170 167/167/167 169/169/169
f 168/168/168 169/169/169 167/167/167
f 171/171/171 172/172/172 173/173/173
f 174/174/174 175/175/175 176/176/176
f 177/177/177 178/178/178 179/179/179
f 180/180/180 182/182/182 183/183/183
f 180/180/180 181/181/181 182/182/182
f 184/184/184 185/185/185 186/186/186
f 187/187/187 188/188/188 189/189/189
f 190/190/190 191/191/191 192/192/192
f 193/193/193 195/195/195 196/196/196
f 193/193/193 194/194/194 195/195/195
f 200/200/200 197/197/197 199/199/199
f 199/199/199 197/197/197 198/198/198
f 204/204/204 201/201/201 203/203/203
f 203/203/203 201/201/201 202/202/202
f 205/205/205 207/207/207 208/208/208
f 207/207/207 205/205/205 206/206/206
f 210/210/210 211/211/211 209/209/209
f 209/209/209 211/211/211 212/212/212
f 213/213/213 215/215/215 216/216/216
f 213/213/213 214/214/214 215/215/215
f 217/217/217 218/218/218 219/219/219
f 220/220/220 217/217/217 219/219/219
f 224/224/224 221/221/221 223/223/223
f 223/223/223 221/221/221 222/222/222
f 225/225/225 226/226/226 227/227/227
f 228/228/228 229/229/229 230/230/230
f 231/231/231 232/232/232 233/233/233
f 234/234/234 236/236/236 237/237/237
f 234/234/234 235/235/235 236/236/236
f 238/238/238 239/239/239 240/240/240
f 260/260/260 241/241/241 259/259/259
f 257/257/257 258/258/258 259/259/259
f 259/259/259 248/248/248 251/251/251
f 241/241/241 242/242/242 245/245/245
f 242/242/242 243/243/243 245/245/245
f 243/243/243 244/244/244 245/245/245
f 259/259/259 252/252/252 257/257/257
f 241/241/241 245/245/245 248/248/248
f 253/253/253 256/256/256 257/257/257
f 245/245/245 246/246/246 247/247/247
f 245/245/245 247/247/247 248/248/248
f 259/259/259 241/241/241 248/248/248
f 248/248/248 249/249/249 251/251/251
f 253/253/253 255/255/255 256/256/256
f 249/249/249 250/250/250 251/251/251
f 252/252/252 253/253/253 257/257/257
f 251/251/251 252/252/252 259/259/259
f 255/255/255 253/253/253 254/254/254
