v 0.8415859 5.948086 5.01403
v 1.745586 6.005086 5.60303
v 6.775586 5.964087 0.2710299
v -1.956414 5.636086 -5.67897
v 0.8415859 5.948086 5.01403
v 6.775586 5.964087 0.2710299
v -6.411414 5.492086 0.2890299
v -5.671414 5.539086 0.7710299
v -1.956414 5.636086 -5.67897
v -1.48097 5.772067 1.535307
v 0.8415859 5.948086 5.01403
v -1.076504 5.796817 1.757082
v -4.558414 5.609087 1.49603
v 0.8415859 5.948086 5.01403
v -1.48097 5.772067 1.535307
v -4.558414 5.609087 1.49603
v -1.48097 5.772067 1.535307
v -1.956414 5.636086 -5.67897
v -1.956414 5.636086 -5.67897
v -0.8490067 5.80287 1.36998
v 0.8415859 5.948086 5.01403
v -1.956414 5.636086 -5.67897
v -1.48097 5.772067 1.535307
v -1.221154 5.779357 1.11776
v -1.956414 5.636086 -5.67897
v -1.221154 5.779357 1.11776
v -0.8490067 5.80287 1.36998
v -1.076504 5.796817 1.757082
v 0.8415859 5.948086 5.01403
v -0.8490067 5.80287 1.36998
v -5.671414 5.539086 0.7710299
v -4.558414 5.609087 1.49603
v -1.956414 5.636086 -5.67897
v -6.411414 5.492086 0.2890299
v -1.956414 5.636086 -5.67897
v -2.338414 5.492086 -5.91297
v -1.172414 6.050086 1.46603
v -1.076504 5.796817 1.757082
v -0.8490067 5.80287 1.36998
v -1.221154 5.779357 1.11776
v -1.172414 6.050086 1.46603
v -0.8490067 5.80287 1.36998
v -1.48097 5.772067 1.535307
v -1.076504 5.796817 1.757082
v -1.172414 6.050086 1.46603
v -1.48097 5.772067 1.535307
v -1.172414 6.050086 1.46603
v -1.221154 5.779357 1.11776
v -5.671414 -5.784111 0.7710299
v -4.558414 -5.784111 1.49603
v -4.558414 5.609087 1.49603
v -5.671414 5.539086 0.7710299
v -1.858414 -5.784111 3.25503
v 0.8415859 -5.784111 5.01403
v 0.8415859 5.948086 5.01403
v -4.558414 5.609087 1.49603
v -4.558414 -5.784111 1.49603
v -1.858414 -5.784111 3.25503
v -4.558414 5.609087 1.49603
v -1.858414 -5.784111 3.25503
v 0.8415859 5.948086 5.01403
v 0.8415859 -5.784111 5.01403
v 1.745586 -5.784111 5.60303
v 1.745586 6.005086 5.60303
v 0.8415859 5.948086 5.01403
v -6.411414 -5.784111 0.2890299
v -5.671414 -5.784111 0.7710299
v -5.671414 5.539086 0.7710299
v -6.411414 5.492086 0.2890299
v 1.745586 -5.784111 5.60303
v 6.775586 -5.784111 0.2710299
v 6.775586 5.964087 0.2710299
v 1.745586 6.005086 5.60303
v -1.956414 5.636086 -5.67897
v 6.775586 5.964087 0.2710299
v 6.775586 -5.784111 0.2710299
v -1.956414 -5.784111 -5.67897
v -2.338414 5.492086 -5.91297
v -2.147414 -5.784111 -5.79597
v -2.338414 -5.784111 -5.91297
v -2.147414 -5.784111 -5.79597
v -1.956414 5.636086 -5.67897
v -1.956414 -5.784111 -5.67897
v -2.338414 5.492086 -5.91297
v -1.956414 5.636086 -5.67897
v -2.147414 -5.784111 -5.79597
v -6.411414 5.492086 0.2890299
v -4.374914 -5.784111 -2.81197
v -6.411414 -5.784111 0.2890299
v -4.374914 -5.784111 -2.81197
v -2.338414 5.492086 -5.91297
v -2.338414 -5.784111 -5.91297
v -6.411414 5.492086 0.2890299
v -2.338414 5.492086 -5.91297
v -4.374914 -5.784111 -2.81197
v -6.411414 -5.784111 0.2890299
v -4.374914 -5.784111 -2.81197
v -2.338414 -5.784111 -5.91297
v -2.147414 -5.784111 -5.79597
v -1.956414 -5.784111 -5.67897
v 6.775586 -5.784111 0.2710299
v 1.745586 -5.784111 5.60303
v 0.8415859 -5.784111 5.01403
v -1.858414 -5.784111 3.25503
v -4.558414 -5.784111 1.49603
v -5.671414 -5.784111 0.7710299
vt 0.026936 0.200092
vt 0.002532 0.169494
vt 0.236449 0.001965
vt 0.485854 0.298022
vt 0.026936 0.200092
vt 0.236449 0.001965
vt 0.222587 0.445429
vt 0.202645 0.420413
vt 0.485854 0.298022
vt 0.174595 0.279408
vt 0.026936 0.200092
vt 0.165488 0.265739
vt 0.172636 0.382780
vt 0.026936 0.200092
vt 0.174595 0.279408
vt 0.172636 0.382780
vt 0.174595 0.279408
vt 0.485854 0.298022
vt 0.485854 0.298022
vt 0.182494 0.258238
vt 0.026936 0.200092
vt 0.485854 0.298022
vt 0.174595 0.279408
vt 0.192955 0.270833
vt 0.485854 0.298022
vt 0.192955 0.270833
vt 0.182494 0.258238
vt 0.165488 0.265739
vt 0.026936 0.200092
vt 0.182494 0.258238
vt 0.202645 0.420413
vt 0.172636 0.382780
vt 0.485854 0.298022
vt 0.788435 0.783890
vt 0.529397 0.931894
vt 0.516456 0.917925
vt 0.828424 0.795560
vt 0.815190 0.790142
vt 0.829859 0.783890
vt 0.860759 0.783890
vt 0.879622 0.784872
vt 0.871019 0.794762
vt 0.802528 0.796278
vt 0.794937 0.783890
vt 0.808299 0.785431
vt 0.851728 0.783890
vt 0.854181 0.794648
vt 0.835443 0.791357
vt 0.688106 0.337808
vt 0.658554 0.299968
vt 0.789712 0.222180
vt 0.818861 0.261036
vt 0.586853 0.208169
vt 0.515150 0.116368
vt 0.648186 0.033559
vt 0.789712 0.222180
vt 0.658554 0.299968
vt 0.586853 0.208169
vt 0.789712 0.222180
vt 0.586853 0.208169
vt 0.648186 0.033559
vt 0.515150 0.116368
vt 0.491139 0.085631
vt 0.624481 0.001965
vt 0.648186 0.033559
vt 0.707753 0.362967
vt 0.688106 0.337808
vt 0.818861 0.261036
vt 0.838231 0.286870
vt 0.524051 0.611740
vt 0.755815 0.449902
vt 0.888077 0.576683
vt 0.653417 0.741311
vt 0.252092 0.462593
vt 0.518086 0.758922
vt 0.267854 0.778221
vt 0.012565 0.485508
vt 0.238856 0.449902
vt 0.007548 0.479106
vt 0.002532 0.472704
vt 0.007548 0.479106
vt 0.252092 0.462593
vt 0.012565 0.485508
vt 0.238856 0.449902
vt 0.252092 0.462593
vt 0.007548 0.479106
vt 0.509578 0.864385
vt 0.137211 0.850252
vt 0.271896 0.783890
vt 0.137211 0.850252
vt 0.236439 0.998960
vt 0.002532 0.916612
vt 0.509578 0.864385
vt 0.236439 0.998960
vt 0.137211 0.850252
vt 0.886076 0.783890
vt 0.886076 0.783890
vt 0.886076 0.783890
vt 0.886076 0.783890
vt 0.886076 0.783890
vt 0.886076 0.783890
vt 0.886076 0.783890
vt 0.886076 0.783890
vt 0.886076 0.783890
vt 0.886076 0.783890
vt 0.886076 0.783890
vn -0.03589366 0.9984919 -0.0415385
vn -0.03589366 0.9984919 -0.0415385
vn -0.03589366 0.9984919 -0.0415385
vn -0.02150673 0.9994916 -0.02353554
vn -0.02150673 0.9994916 -0.02353554
vn -0.02150673 0.9994916 -0.02353554
vn -0.05322742 0.9984599 -0.01564175
vn -0.05322742 0.9984599 -0.01564175
vn -0.05322742 0.9984599 -0.01564175
vn -0.05268403 0.9984933 -0.01534835
vn -0.05268403 0.9984933 -0.01534835
vn -0.05268403 0.9984933 -0.01534835
vn -0.05268402 0.9984933 -0.01534836
vn -0.05268402 0.9984933 -0.01534836
vn -0.05268402 0.9984933 -0.01534836
vn -0.05268402 0.9984933 -0.01534836
vn -0.05268402 0.9984933 -0.01534836
vn -0.05268402 0.9984933 -0.01534836
vn -0.05268402 0.9984933 -0.01534836
vn -0.05268402 0.9984933 -0.01534836
vn -0.05268402 0.9984933 -0.01534836
vn -0.05268401 0.9984933 -0.01534836
vn -0.05268401 0.9984933 -0.01534836
vn -0.05268401 0.9984933 -0.01534836
vn -0.05268401 0.9984933 -0.01534836
vn -0.05268401 0.9984933 -0.01534836
vn -0.05268401 0.9984933 -0.01534836
vn -0.052684 0.9984933 -0.01534837
vn -0.052684 0.9984933 -0.01534837
vn -0.052684 0.9984933 -0.01534837
vn -0.05277796 0.9984878 -0.01538245
vn -0.05277796 0.9984878 -0.01538245
vn -0.05277796 0.9984878 -0.01538245
vn -0.2559115 0.951979 -0.1680631
vn -0.2559115 0.951979 -0.1680631
vn -0.2559115 0.951979 -0.1680631
vn 0.6302589 0.6764835 0.3809774
vn 0.6302589 0.6764835 0.3809774
vn 0.6302589 0.6764835 0.3809774
vn 0.3637407 0.7100819 -0.60289
vn 0.3637407 0.7100819 -0.60289
vn 0.3637407 0.7100819 -0.60289
vn -0.4064974 0.6186725 0.6723126
vn -0.4064974 0.6186725 0.6723126
vn -0.4064974 0.6186725 0.6723126
vn -0.6613633 0.6342192 -0.4004554
vn -0.6613633 0.6342192 -0.4004554
vn -0.6613633 0.6342192 -0.4004554
vn -0.5458084 0 0.83791
vn -0.5458084 0 0.83791
vn -0.5458084 0 0.83791
vn -0.5458084 0 0.83791
vn -0.5458606 0 0.837876
vn -0.5458606 0 0.837876
vn -0.5458606 0 0.837876
vn -0.5458606 0 0.837876
vn -0.5458606 0 0.837876
vn -0.5458606 0 0.837876
vn -0.5458606 1.373958E-12 0.837876
vn -0.5458606 1.373958E-12 0.837876
vn -0.5458606 1.373958E-12 0.837876
vn -0.5459002 0 0.8378502
vn -0.5459002 0 0.8378502
vn -0.5459002 0 0.8378502
vn -0.5459002 0 0.8378502
vn -0.5457841 0 0.8379259
vn -0.5457841 0 0.8379259
vn -0.5457841 0 0.8379259
vn -0.5457841 0 0.8379259
vn 0.7274065 0 0.6862068
vn 0.7274065 0 0.6862068
vn 0.7274065 0 0.6862068
vn 0.7274065 0 0.6862068
vn 0.5631019 0 -0.8263875
vn 0.5631019 0 -0.8263875
vn 0.5631019 0 -0.8263875
vn 0.5631019 0 -0.8263875
vn 0.5223526 0 -0.8527296
vn 0.5223526 0 -0.8527296
vn 0.5223526 0 -0.8527296
vn 0.5223526 0 -0.8527296
vn 0.5223526 0 -0.8527296
vn 0.5223526 0 -0.8527296
vn 0.5223526 0 -0.8527296
vn 0.5223526 0 -0.8527296
vn 0.5223526 0 -0.8527296
vn -0.8358663 0 -0.5489331
vn -0.8358663 0 -0.5489331
vn -0.8358663 0 -0.5489331
vn -0.8358663 0 -0.5489331
vn -0.8358663 0 -0.5489331
vn -0.8358663 0 -0.5489331
vn -0.8358663 0 -0.5489331
vn -0.8358663 0 -0.5489331
vn -0.8358663 0 -0.5489331
vn 0 -1 0
vn 0 -1 0
vn 0 -1 0
vn 0 -1 0
vn 0 -1 0
vn 0 -1 0
vn 0 -1 0
vn 0 -1 0
vn 0 -1 0
vn 0 -1 0
vn 0 -1 0

g CDNNDG02_0009670
f 1/1/1 2/2/2 3/3/3
f 4/4/4 5/5/5 6/6/6
f 7/7/7 8/8/8 9/9/9
f 10/10/10 11/11/11 12/12/12
f 13/13/13 14/14/14 15/15/15
f 16/16/16 17/17/17 18/18/18
f 19/19/19 20/20/20 21/21/21
f 22/22/22 23/23/23 24/24/24
f 25/25/25 26/26/26 27/27/27
f 28/28/28 29/29/29 30/30/30
f 31/31/31 32/32/32 33/33/33
f 34/34/34 35/35/35 36/36/36
f 37/37/37 38/38/38 39/39/39
f 40/40/40 41/41/41 42/42/42
f 43/43/43 44/44/44 45/45/45
f 46/46/46 47/47/47 48/48/48
f 50/50/50 51/51/51 52/52/52
f 52/52/52 49/49/49 50/50/50
f 53/53/53 54/54/54 55/55/55
f 56/56/56 57/57/57 58/58/58
f 59/59/59 60/60/60 61/61/61
f 65/65/65 62/62/62 63/63/63
f 64/64/64 65/65/65 63/63/63
f 67/67/67 68/68/68 69/69/69
f 69/69/69 66/66/66 67/67/67
f 70/70/70 72/72/72 73/73/73
f 70/70/70 71/71/71 72/72/72
f 77/77/77 74/74/74 76/76/76
f 75/75/75 76/76/76 74/74/74
f 78/78/78 79/79/79 80/80/80
f 81/81/81 82/82/82 83/83/83
f 84/84/84 85/85/85 86/86/86
f 87/87/87 88/88/88 89/89/89
f 90/90/90 91/91/91 92/92/92
f 93/93/93 94/94/94 95/95/95
f 97/97/97 105/105/105 106/106/106
f 97/97/97 104/104/104 105/105/105
f 96/96/96 97/97/97 106/106/106
f 101/101/101 103/103/103 104/104/104
f 97/97/97 98/98/98 99/99/99
f 97/97/97 99/99/99 100/100/100
f 101/101/101 102/102/102 103/103/103
f 97/97/97 100/100/100 104/104/104
f 100/100/100 101/101/101 104/104/104
