v -3.288304 5.350058 -2.554622
v -4.315304 5.350177 -0.969622
v -7.692304 5.350569 4.238378
v -0.2773044 5.349569 9.047378
v 0.9856956 5.349422 7.100378
v 0.4506956 5.349495 6.754378
v 7.523695 5.348673 -4.153622
v 7.049695 5.348737 -4.460622
v 7.240695 5.348715 -4.754622
v 0.9066956 5.349569 -8.861622
v 0.3006957 5.34964 -7.927622
v 0.2276956 5.349649 -7.974622
v 0.06469564 5.349669 -7.723622
v -0.1223044 5.34969 -7.432622
v -4.315304 5.350177 -0.969622
v -3.801804 -5.349611 -1.762122
v -4.315304 -5.349611 -0.969622
v -3.801804 -5.349611 -1.762122
v -3.288304 5.350058 -2.554622
v -3.288304 -5.349611 -2.554622
v -4.315304 5.350177 -0.969622
v -3.288304 5.350058 -2.554622
v -3.801804 -5.349611 -1.762122
v -7.692304 5.350569 4.238378
v -4.315304 5.350177 -0.969622
v -4.315304 -5.349611 -0.969622
v -7.692304 -5.349611 4.238378
v 0.06469564 5.349669 -7.723622
v 0.2276956 5.349649 -7.974622
v 0.2276956 -5.349611 -7.974622
v 0.06469564 -5.349611 -7.723622
v -0.1223044 5.34969 -7.432622
v -0.02880436 -5.349611 -7.578122
v -0.1223044 -5.349611 -7.432622
v -0.02880436 -5.349611 -7.578122
v 0.06469564 5.349669 -7.723622
v 0.06469564 -5.349611 -7.723622
v -0.1223044 5.34969 -7.432622
v 0.06469564 5.349669 -7.723622
v -0.02880436 -5.349611 -7.578122
v -3.288304 5.350058 -2.554622
v -0.1223044 5.34969 -7.432622
v -0.1223044 -5.349611 -7.432622
v -3.288304 -5.349611 -2.554622
v -3.984804 -5.349611 6.642878
v -0.2773044 -5.349611 9.047378
v -0.2773044 5.349569 9.047378
v -7.692304 5.350569 4.238378
v -7.692304 -5.349611 4.238378
v -3.984804 -5.349611 6.642878
v -7.692304 5.350569 4.238378
v -3.984804 -5.349611 6.642878
v -0.2773044 5.349569 9.047378
v 0.3541956 -5.349611 8.073878
v 0.9856956 -5.349611 7.100378
v 0.9856956 5.349422 7.100378
v -0.2773044 5.349569 9.047378
v -0.2773044 -5.349611 9.047378
v 0.3541956 -5.349611 8.073878
v -0.2773044 5.349569 9.047378
v 0.3541956 -5.349611 8.073878
v 0.9856956 5.349422 7.100378
v 0.4506956 5.349495 6.754378
v 0.9856956 5.349422 7.100378
v 0.9856956 -5.349611 7.100378
v 0.4506956 -5.349611 6.754378
v 0.4506956 -5.349611 6.754378
v 7.523695 -5.349611 -4.153622
v 7.523695 5.348673 -4.153622
v 0.4506956 5.349495 6.754378
v 7.049695 5.348737 -4.460622
v 7.286695 -5.349611 -4.307122
v 7.049695 -5.349611 -4.460622
v 7.286695 -5.349611 -4.307122
v 7.523695 5.348673 -4.153622
v 7.523695 -5.349611 -4.153622
v 7.049695 5.348737 -4.460622
v 7.523695 5.348673 -4.153622
v 7.286695 -5.349611 -4.307122
v 7.049695 -5.349611 -4.460622
v 7.240695 -5.349611 -4.754622
v 7.240695 5.348715 -4.754622
v 7.049695 5.348737 -4.460622
v 0.9066956 5.349569 -8.861622
v 7.240695 5.348715 -4.754622
v 7.240695 -5.349611 -4.754622
v 0.9066956 -5.349611 -8.861622
v 0.3006957 5.34964 -7.927622
v 0.6036956 -5.349611 -8.394622
v 0.3006957 -5.349611 -7.927622
v 0.6036956 -5.349611 -8.394622
v 0.9066956 5.349569 -8.861622
v 0.9066956 -5.349611 -8.861622
v 0.3006957 5.34964 -7.927622
v 0.9066956 5.349569 -8.861622
v 0.6036956 -5.349611 -8.394622
v 0.2276956 5.349649 -7.974622
v 0.2641957 -5.349611 -7.951122
v 0.2276956 -5.349611 -7.974622
v 0.2641957 -5.349611 -7.951122
v 0.3006957 5.34964 -7.927622
v 0.3006957 -5.349611 -7.927622
v 0.2276956 5.349649 -7.974622
v 0.3006957 5.34964 -7.927622
v 0.2641957 -5.349611 -7.951122
v -0.1223044 -5.349611 -7.432622
v -0.02880436 -5.349611 -7.578122
v 0.06469564 -5.349611 -7.723622
v 0.2276956 -5.349611 -7.974622
v 0.2641957 -5.349611 -7.951122
v 0.3006957 -5.349611 -7.927622
v 0.6036956 -5.349611 -8.394622
v 0.9066956 -5.349611 -8.861622
v 7.240695 -5.349611 -4.754622
v 7.049695 -5.349611 -4.460622
v 7.286695 -5.349611 -4.307122
v 7.523695 -5.349611 -4.153622
v 0.4506956 -5.349611 6.754378
v 0.9856956 -5.349611 7.100378
v 0.3541956 -5.349611 8.073878
v -0.2773044 -5.349611 9.047378
v -3.984804 -5.349611 6.642878
v -7.692304 -5.349611 4.238378
v -4.315304 -5.349611 -0.969622
v -3.801804 -5.349611 -1.762122
v -3.288304 -5.349611 -2.554622
vt 0.410846 0.235716
vt 0.355013 0.258052
vt 0.171562 0.331497
vt 0.002028 0.170984
vt 0.070612 0.143514
vt 0.082810 0.155095
vt 0.467068 0.001248
vt 0.477890 0.011511
vt 0.488247 0.007356
vt 0.633024 0.144483
vt 0.600120 0.157664
vt 0.601777 0.159244
vt 0.592935 0.162789
vt 0.582684 0.166857
vt 0.390540 0.477404
vt 0.216971 0.415081
vt 0.244391 0.404457
vt 0.216971 0.415081
vt 0.334975 0.498932
vt 0.189552 0.425706
vt 0.390540 0.477404
vt 0.334975 0.498932
vt 0.216971 0.415081
vt 0.573122 0.406612
vt 0.390540 0.477404
vt 0.244391 0.404457
vt 0.424589 0.334582
vt 0.153770 0.569217
vt 0.144971 0.572634
vt 0.002028 0.498454
vt 0.010712 0.495081
vt 0.163970 0.565298
vt 0.015746 0.493147
vt 0.020780 0.491213
vt 0.015746 0.493147
vt 0.153770 0.569217
vt 0.010712 0.495081
vt 0.163970 0.565298
vt 0.153770 0.569217
vt 0.015746 0.493147
vt 0.334975 0.498932
vt 0.163970 0.565298
vt 0.020780 0.491213
vt 0.189552 0.425706
vt 0.085374 0.864028
vt 0.002028 0.785105
vt 0.128151 0.772784
vt 0.297070 0.932735
vt 0.168715 0.942948
vt 0.085374 0.864028
vt 0.297070 0.932735
vt 0.085374 0.864028
vt 0.128151 0.772784
vt 0.514604 0.785354
vt 0.548478 0.772784
vt 0.671027 0.824425
vt 0.602386 0.849898
vt 0.480730 0.797925
vt 0.514604 0.785354
vt 0.602386 0.849898
vt 0.514604 0.785354
vt 0.671027 0.824425
vt 0.824162 0.772784
vt 0.835675 0.784224
vt 0.686821 0.831969
vt 0.675456 0.820679
vt 0.002028 0.717686
vt 0.384121 0.575531
vt 0.512675 0.625944
vt 0.125541 0.769978
vt 0.983258 0.772784
vt 0.844796 0.823855
vt 0.839757 0.818861
vt 0.844796 0.823855
vt 0.993469 0.782905
vt 0.849836 0.828850
vt 0.983258 0.772784
vt 0.993469 0.782905
vt 0.844796 0.823855
vt 0.002028 0.950093
vt 0.012219 0.946317
vt 0.139678 0.995983
vt 0.129353 0.999809
vt 0.659674 0.575531
vt 0.797093 0.712859
vt 0.652884 0.759593
vt 0.517241 0.624059
vt 0.476108 0.846308
vt 0.318259 0.778996
vt 0.334287 0.772784
vt 0.318259 0.778996
vt 0.443628 0.858894
vt 0.302231 0.785208
vt 0.476108 0.846308
vt 0.443628 0.858894
vt 0.318259 0.778996
vt 0.285896 0.946317
vt 0.144787 0.994931
vt 0.144016 0.994164
vt 0.144787 0.994931
vt 0.287458 0.947872
vt 0.145558 0.995698
vt 0.285896 0.946317
vt 0.287458 0.947872
vt 0.144787 0.994931
vt 0.292089 0.946317
vt 0.292089 0.946317
vt 0.292089 0.946317
vt 0.292089 0.946317
vt 0.292089 0.946317
vt 0.292089 0.946317
vt 0.292089 0.946317
vt 0.292089 0.946317
vt 0.292089 0.946317
vt 0.292089 0.946317
vt 0.292089 0.946317
vt 0.292089 0.946317
vt 0.292089 0.946317
vt 0.292089 0.946317
vt 0.292089 0.946317
vt 0.292089 0.946317
vt 0.292089 0.946317
vt 0.292089 0.946317
vt 0.292089 0.946317
vt 0.292089 0.946317
vt 0.292089 0.946317
vn 0.0001293171 1 8.549311E-06
vn 0.0001293176 1 8.548948E-06
vn 0.0001293173 1 8.54913E-06
vn 0.0001293152 1 8.548384E-06
vn 0.0001293131 1 8.547716E-06
vn 0.0001293163 1 8.548767E-06
vn 0.0001293155 1 8.548658E-06
vn 0.0001293177 1 8.547705E-06
vn 0.0001293236 1 8.540153E-06
vn 0.00012932 1 8.545119E-06
vn 0.0001292904 1 8.530042E-06
vn 0.000129293 1 8.544874E-06
vn 0.0001292637 1 8.511E-06
vn 0.0001292896 1 8.525058E-06
vn -0.839229 0 -0.5437781
vn -0.839229 0 -0.5437781
vn -0.839229 0 -0.5437781
vn -0.839229 0 -0.5437781
vn -0.839229 0 -0.5437781
vn -0.839229 0 -0.5437781
vn -0.839229 -1.3231E-10 -0.5437781
vn -0.839229 -1.3231E-10 -0.5437781
vn -0.839229 -1.3231E-10 -0.5437781
vn -0.8390468 0 -0.5440593
vn -0.8390468 0 -0.5440593
vn -0.8390468 0 -0.5440593
vn -0.8390468 0 -0.5440593
vn -0.8386726 0 -0.544636
vn -0.8386726 0 -0.544636
vn -0.8386726 0 -0.544636
vn -0.8386726 0 -0.544636
vn -0.8412724 0 -0.5406114
vn -0.8412724 0 -0.5406114
vn -0.8412724 0 -0.5406114
vn -0.8412724 0 -0.5406114
vn -0.8412724 0 -0.5406114
vn -0.8412724 0 -0.5406114
vn -0.8412724 3.723643E-10 -0.5406114
vn -0.8412724 3.723643E-10 -0.5406114
vn -0.8412724 3.723643E-10 -0.5406114
vn -0.8388127 0 -0.5444201
vn -0.8388127 0 -0.5444201
vn -0.8388127 0 -0.5444201
vn -0.8388127 0 -0.5444201
vn -0.544133 0 0.838999
vn -0.544133 0 0.838999
vn -0.544133 0 0.838999
vn -0.544133 0 0.838999
vn -0.544133 0 0.838999
vn -0.544133 0 0.838999
vn -0.544133 -1.480065E-12 0.838999
vn -0.544133 -1.480065E-12 0.838999
vn -0.544133 -1.480065E-12 0.838999
vn 0.8389453 0 0.5442157
vn 0.8389453 0 0.5442157
vn 0.8389453 0 0.5442157
vn 0.8389453 0 0.5442157
vn 0.8389453 0 0.5442157
vn 0.8389453 0 0.5442157
vn 0.8389453 0 0.5442157
vn 0.8389453 0 0.5442157
vn 0.8389453 0 0.5442157
vn 0.543056 0 -0.8396965
vn 0.543056 0 -0.8396965
vn 0.543056 0 -0.8396965
vn 0.543056 0 -0.8396965
vn 0.8390477 0 0.5440579
vn 0.8390477 0 0.5440579
vn 0.8390477 0 0.5440579
vn 0.8390477 0 0.5440579
vn 0.5436183 0 -0.8393325
vn 0.5436183 0 -0.8393325
vn 0.5436183 0 -0.8393325
vn 0.5436183 0 -0.8393325
vn 0.5436183 0 -0.8393325
vn 0.5436183 0 -0.8393325
vn 0.5436183 -1.489801E-10 -0.8393325
vn 0.5436183 -1.489801E-10 -0.8393325
vn 0.5436183 -1.489801E-10 -0.8393325
vn 0.8385739 0 0.5447878
vn 0.8385739 0 0.5447878
vn 0.8385739 0 0.5447878
vn 0.8385739 0 0.5447878
vn 0.5440475 0 -0.8390545
vn 0.5440475 0 -0.8390545
vn 0.5440475 0 -0.8390545
vn 0.5440475 0 -0.8390545
vn -0.8388948 0 -0.5442936
vn -0.8388948 0 -0.5442936
vn -0.8388948 0 -0.5442936
vn -0.8388948 0 -0.5442936
vn -0.8388948 0 -0.5442936
vn -0.8388948 0 -0.5442936
vn -0.8388948 -4.139024E-10 -0.5442936
vn -0.8388948 -4.139024E-10 -0.5442936
vn -0.8388948 -4.139024E-10 -0.5442936
vn 0.5413396 0 -0.840804
vn 0.5413396 0 -0.840804
vn 0.5413396 0 -0.840804
vn 0.5413396 0 -0.840804
vn 0.5413396 0 -0.840804
vn 0.5413396 0 -0.840804
vn 0.5413396 -3.806666E-11 -0.840804
vn 0.5413396 -3.806666E-11 -0.840804
vn 0.5413396 -3.806666E-11 -0.840804
vn 0 -1 0
vn 0 -1 0
vn 0 -1 0
vn 0 -1 0
vn 0 -1 0
vn 0 -1 0
vn 0 -1 0
vn 0 -1 0
vn 0 -1 0
vn 0 -1 0
vn 0 -1 0
vn 0 -1 0
vn 0 -1 0
vn 0 -1 0
vn 0 -1 0
vn 0 -1 0
vn 0 -1 0
vn 0 -1 0
vn 0 -1 0
vn 0 -1 0
vn 0 -1 0

g CDNNDG02_0011740
f 1/1/1 6/6/6 8/8/8
f 14/14/14 8/8/8 11/11/11
f 14/14/14 1/1/1 8/8/8
f 5/5/5 6/6/6 4/4/4
f 12/12/12 13/13/13 11/11/11
f 11/11/11 13/13/13 14/14/14
f 11/11/11 8/8/8 10/10/10
f 6/6/6 1/1/1 2/2/2
f 6/6/6 3/3/3 4/4/4
f 6/6/6 2/2/2 3/3/3
f 7/7/7 8/8/8 6/6/6
f 8/8/8 9/9/9 10/10/10
f 15/15/15 16/16/16 17/17/17
f 18/18/18 19/19/19 20/20/20
f 21/21/21 22/22/22 23/23/23
f 27/27/27 25/25/25 26/26/26
f 27/27/27 24/24/24 25/25/25
f 31/31/31 29/29/29 30/30/30
f 31/31/31 28/28/28 29/29/29
f 32/32/32 33/33/33 34/34/34
f 35/35/35 36/36/36 37/37/37
f 38/38/38 39/39/39 40/40/40
f 42/42/42 43/43/43 44/44/44
f 41/41/41 42/42/42 44/44/44
f 45/45/45 46/46/46 47/47/47
f 48/48/48 49/49/49 50/50/50
f 51/51/51 52/52/52 53/53/53
f 54/54/54 55/55/55 56/56/56
f 57/57/57 58/58/58 59/59/59
f 60/60/60 61/61/61 62/62/62
f 65/65/65 66/66/66 64/64/64
f 63/63/63 64/64/64 66/66/66
f 70/70/70 67/67/67 69/69/69
f 68/68/68 69/69/69 67/67/67
f 71/71/71 72/72/72 73/73/73
f 74/74/74 75/75/75 76/76/76
f 77/77/77 78/78/78 79/79/79
f 81/81/81 82/82/82 80/80/80
f 80/80/80 82/82/82 83/83/83
f 85/85/85 86/86/86 87/87/87
f 84/84/84 85/85/85 87/87/87
f 88/88/88 89/89/89 90/90/90
f 91/91/91 92/92/92 93/93/93
f 94/94/94 95/95/95 96/96/96
f 97/97/97 98/98/98 99/99/99
f 100/100/100 101/101/101 102/102/102
f 103/103/103 104/104/104 105/105/105
f 121/121/121 122/122/122 120/120/120
f 110/110/110 111/111/111 108/108/108
f 118/118/118 125/125/125 126/126/126
f 110/110/110 108/108/108 109/109/109
f 115/115/115 118/118/118 126/126/126
f 111/111/111 107/107/107 108/108/108
f 115/115/115 112/112/112 113/113/113
f 107/107/107 111/111/111 106/106/106
f 111/111/111 112/112/112 115/115/115
f 115/115/115 113/113/113 114/114/114
f 106/106/106 115/115/115 126/126/126
f 115/115/115 116/116/116 118/118/118
f 115/115/115 106/106/106 111/111/111
f 123/123/123 124/124/124 122/122/122
f 116/116/116 117/117/117 118/118/118
f 122/122/122 124/124/124 118/118/118
f 118/118/118 120/120/120 122/122/122
f 118/118/118 124/124/124 125/125/125
f 120/120/120 118/118/118 119/119/119
