v 1.685469 6.911707 -9.287164
v 5.455469 6.911707 -7.017164
v 1.757469 6.911707 -9.399163
v 5.455469 6.911707 -7.017164
v 7.748468 6.911707 -5.488163
v 8.025469 6.911707 -5.918164
v 5.709469 6.911707 -7.410163
v 7.367469 6.911707 -3.512164
v 8.378469 6.911707 -5.081163
v 7.748468 6.911707 -5.488163
v -0.9145314 6.911707 6.150836
v 0.6824686 6.911707 3.672836
v 0.1964686 6.911707 3.359836
v -1.407531 6.911707 5.833837
v -8.502531 6.911707 6.527836
v -4.289531 6.911707 9.241837
v -3.011531 6.911707 7.257836
v -6.928531 6.911707 4.084836
v 5.455469 6.911707 -7.017164
v 7.367469 6.911707 -3.512164
v 7.748468 6.911707 -5.488163
v -3.011531 6.911707 7.257836
v -2.409531 6.911707 7.389836
v -1.407531 6.911707 5.833837
v -3.011531 6.911707 7.257836
v -2.525531 6.911707 7.570837
v -2.409531 6.911707 7.389836
v -6.928531 6.911707 4.084836
v -3.011531 6.911707 7.257836
v -1.407531 6.911707 5.833837
v 1.129469 6.911707 1.910836
v 3.069468 6.911707 3.159836
v 6.736469 6.911707 -2.531164
v -6.928531 6.911707 4.084836
v -1.865477 6.911707 -2.76204
v -2.011679 6.911707 -2.853861
v -6.928531 6.911707 4.084836
v -0.5663608 6.911707 -1.924722
v -1.865477 6.911707 -2.76204
v -6.928531 6.911707 4.084836
v -2.011679 6.911707 -2.853861
v 1.685469 6.911707 -9.287164
v -2.011679 6.911707 -2.853861
v -1.678888 6.911707 -3.370714
v 1.685469 6.911707 -9.287164
v -0.5663608 6.911707 -1.924722
v 1.129469 6.911707 1.910836
v -0.2335701 6.911707 -2.442396
v -1.532686 6.911707 -3.278892
v -0.2335701 6.911707 -2.442396
v 1.685469 6.911707 -9.287164
v -0.2335701 6.911707 -2.442396
v 1.129469 6.911707 1.910836
v 1.685469 6.911707 -9.287164
v -1.678888 6.911707 -3.370714
v -1.532686 6.911707 -3.278892
v 1.685469 6.911707 -9.287164
v -6.928531 6.911707 4.084836
v 1.129469 6.911707 1.910836
v -0.5663608 6.911707 -1.924722
v -6.928531 6.911707 4.084836
v -1.407531 6.911707 5.833837
v 0.1964686 6.911707 3.359836
v -6.928531 6.911707 4.084836
v 0.1964686 6.911707 3.359836
v 1.129469 6.911707 1.910836
v 1.129469 6.911707 1.910836
v 5.455469 6.911707 -7.017164
v 1.685469 6.911707 -9.287164
v 5.455469 6.911707 -7.017164
v 6.736469 6.911707 -2.531164
v 7.367469 6.911707 -3.512164
v 1.129469 6.911707 1.910836
v 6.736469 6.911707 -2.531164
v 5.455469 6.911707 -7.017164
v -0.7545314 7.229708 -2.388164
v -0.5663608 6.911707 -1.924722
v -0.2335701 6.911707 -2.442396
v -1.532686 6.911707 -3.278892
v -0.7545314 7.229708 -2.388164
v -0.2335701 6.911707 -2.442396
v -1.678888 6.911707 -3.370714
v -1.574531 7.229708 -2.903164
v -0.7545314 7.229708 -2.388164
v -1.678888 6.911707 -3.370714
v -0.7545314 7.229708 -2.388164
v -1.532686 6.911707 -3.278892
v -1.865477 6.911707 -2.76204
v -0.7545314 7.229708 -2.388164
v -1.574531 7.229708 -2.903164
v -2.011679 6.911707 -2.853861
v -1.865477 6.911707 -2.76204
v -1.574531 7.229708 -2.903164
v -1.865477 6.911707 -2.76204
v -0.5663608 6.911707 -1.924722
v -0.7545314 7.229708 -2.388164
v -2.011679 6.911707 -2.853861
v -1.574531 7.229708 -2.903164
v -1.678888 6.911707 -3.370714
v -2.656531 5.729708 10.29384
v -1.261531 5.728708 8.129836
v -2.525531 6.154707 7.570837
v -4.289531 6.336708 9.241837
v -2.525531 6.154707 7.570837
v -3.011531 6.335708 7.257836
v -2.525531 6.154707 7.570837
v -1.261531 5.728708 8.129836
v -2.409531 6.154707 7.389836
v -4.289531 6.336708 9.241837
v -2.656531 5.729708 10.29384
v -2.525531 6.154707 7.570837
v -2.525531 6.154707 7.570837
v -2.409531 6.154707 7.389836
v -2.409531 6.911707 7.389836
v -2.525531 6.911707 7.570837
v -2.409531 -6.882926 7.389836
v -1.407531 -6.882926 5.833837
v -1.407531 6.911707 5.833837
v -2.409531 6.154707 7.389836
v -2.409531 6.911707 7.389836
v -2.409531 6.154707 7.389836
v -1.407531 6.911707 5.833837
v -1.407531 -6.882926 5.833837
v -0.9145314 -6.882926 6.150836
v -0.9145314 6.911707 6.150836
v -1.407531 6.911707 5.833837
v -0.9145314 -6.882926 6.150836
v 0.6824686 -6.882926 3.672836
v 0.6824686 6.911707 3.672836
v -0.9145314 6.911707 6.150836
v 0.1964686 6.911707 3.359836
v 0.4394686 -6.882926 3.516336
v 0.1964686 -6.882926 3.359836
v 0.4394686 -6.882926 3.516336
v 0.6824686 6.911707 3.672836
v 0.6824686 -6.882926 3.672836
v 0.1964686 6.911707 3.359836
v 0.6824686 6.911707 3.672836
v 0.4394686 -6.882926 3.516336
v 0.1964686 -6.882926 3.359836
v 1.129469 -6.882926 1.910836
v 1.129469 6.911707 1.910836
v 0.1964686 6.911707 3.359836
v 1.129469 -6.882926 1.910836
v 3.069468 -6.882926 3.159836
v 3.069468 6.911707 3.159836
v 1.129469 6.911707 1.910836
v 4.902968 -6.882926 0.3143364
v 6.736469 -6.882926 -2.531164
v 6.736469 6.911707 -2.531164
v 3.069468 6.911707 3.159836
v 3.069468 -6.882926 3.159836
v 4.902968 -6.882926 0.3143364
v 3.069468 6.911707 3.159836
v 4.902968 -6.882926 0.3143364
v 6.736469 6.911707 -2.531164
v 6.736469 -6.882926 -2.531164
v 7.367469 -6.882926 -3.512164
v 7.367469 6.911707 -3.512164
v 6.736469 6.911707 -2.531164
v 7.367469 -6.882926 -3.512164
v 8.378469 -6.882926 -5.081163
v 8.378469 6.911707 -5.081163
v 7.367469 6.911707 -3.512164
v 7.748468 6.911707 -5.488163
v 8.378469 6.911707 -5.081163
v 8.378469 -6.882926 -5.081163
v 7.748468 -6.882926 -5.488163
v 7.748468 -6.882926 -5.488163
v 8.025469 -6.882926 -5.918164
v 8.025469 6.911707 -5.918164
v 7.748468 6.911707 -5.488163
v 5.709469 6.911707 -7.410163
v 8.025469 6.911707 -5.918164
v 8.025469 -6.882926 -5.918164
v 5.709469 -6.882926 -7.410163
v 5.455469 6.911707 -7.017164
v 5.709469 6.911707 -7.410163
v 5.709469 -6.882926 -7.410163
v 5.455469 -6.882926 -7.017164
v 1.757469 6.911707 -9.399163
v 5.455469 6.911707 -7.017164
v 5.455469 -6.882926 -7.017164
v 1.757469 -6.882926 -9.399163
v 1.685469 6.911707 -9.287164
v 1.757469 6.911707 -9.399163
v 1.757469 -6.882926 -9.399163
v 1.685469 -6.882926 -9.287164
v -6.928531 6.911707 4.084836
v 1.685469 6.911707 -9.287164
v 1.685469 -6.882926 -9.287164
v -6.928531 -6.882926 4.084836
v -8.502531 6.911707 6.527836
v -6.928531 6.911707 4.084836
v -6.928531 -6.882926 4.084836
v -8.502531 -6.882926 6.527836
v -8.502531 6.911707 6.527836
v -4.289531 6.336708 9.241837
v -4.289531 6.911707 9.241837
v -8.502531 -6.882926 6.527836
v -4.289531 -6.882926 9.241837
v -4.289531 6.336708 9.241837
v -8.502531 6.911707 6.527836
v -3.473031 -6.882926 9.767837
v -2.656531 -6.882926 10.29384
v -2.656531 5.729708 10.29384
v -4.289531 6.336708 9.241837
v -4.289531 -6.882926 9.241837
v -3.473031 -6.882926 9.767837
v -4.289531 6.336708 9.241837
v -3.473031 -6.882926 9.767837
v -2.656531 5.729708 10.29384
v -4.289531 6.336708 9.241837
v -3.011531 6.335708 7.257836
v -3.011531 6.911707 7.257836
v -4.289531 6.911707 9.241837
v -3.011531 6.335708 7.257836
v -2.525531 6.154707 7.570837
v -2.525531 6.911707 7.570837
v -3.011531 6.911707 7.257836
v -2.656531 -6.882926 10.29384
v -1.261531 -6.882926 8.129836
v -1.261531 5.728708 8.129836
v -2.656531 5.729708 10.29384
v -2.409531 6.154707 7.389836
v -1.835531 -6.882926 7.759836
v -2.409531 -6.882926 7.389836
v -1.835531 -6.882926 7.759836
v -1.261531 5.728708 8.129836
v -1.261531 -6.882926 8.129836
v -2.409531 6.154707 7.389836
v -1.261531 5.728708 8.129836
v -1.835531 -6.882926 7.759836
v -1.835531 -6.882926 7.759836
v -1.261531 -6.882926 8.129836
v -2.656531 -6.882926 10.29384
v -3.473031 -6.882926 9.767837
v -4.289531 -6.882926 9.241837
v -8.502531 -6.882926 6.527836
v -6.928531 -6.882926 4.084836
v 1.685469 -6.882926 -9.287164
v 1.757469 -6.882926 -9.399163
v 5.455469 -6.882926 -7.017164
v 5.709469 -6.882926 -7.410163
v 8.025469 -6.882926 -5.918164
v 7.748468 -6.882926 -5.488163
v 8.378469 -6.882926 -5.081163
v 7.367469 -6.882926 -3.512164
v 6.736469 -6.882926 -2.531164
v 4.902968 -6.882926 0.3143364
v 3.069468 -6.882926 3.159836
v 1.129469 -6.882926 1.910836
v 0.1964686 -6.882926 3.359836
v 0.4394686 -6.882926 3.516336
v 0.6824686 -6.882926 3.672836
v -0.9145314 -6.882926 6.150836
v -1.407531 -6.882926 5.833837
v -2.409531 -6.882926 7.389836
vt 0.710260 0.181135
vt 0.623174 0.079966
vt 0.714537 0.179194
vt 0.623174 0.079966
vt 0.564531 0.018439
vt 0.580954 0.010971
vt 0.638184 0.073118
vt 0.488995 0.028793
vt 0.548920 0.001534
vt 0.564531 0.018439
vt 0.120114 0.251892
vt 0.214747 0.208839
vt 0.226754 0.221879
vt 0.132274 0.265120
vt 0.106289 0.455782
vt 0.002183 0.342751
vt 0.077948 0.308299
vt 0.199581 0.413353
vt 0.623174 0.079966
vt 0.488995 0.028793
vt 0.564531 0.018439
vt 0.077948 0.308299
vt 0.072853 0.292132
vt 0.132274 0.265120
vt 0.077948 0.308299
vt 0.065941 0.295259
vt 0.072853 0.292132
vt 0.199581 0.413353
vt 0.077948 0.308299
vt 0.132274 0.265120
vt 0.282091 0.196726
vt 0.234180 0.144671
vt 0.451528 0.045806
vt 0.199581 0.413353
vt 0.461007 0.276925
vt 0.464529 0.280847
vt 0.199581 0.413353
vt 0.428890 0.242068
vt 0.461007 0.276925
vt 0.199581 0.413353
vt 0.464529 0.280847
vt 0.710260 0.181135
vt 0.464529 0.280847
vt 0.484268 0.271876
vt 0.710260 0.181135
vt 0.428890 0.242068
vt 0.282091 0.196726
vt 0.448660 0.233096
vt 0.480746 0.267953
vt 0.448660 0.233096
vt 0.710260 0.181135
vt 0.448660 0.233096
vt 0.282091 0.196726
vt 0.710260 0.181135
vt 0.484268 0.271876
vt 0.480746 0.267953
vt 0.710260 0.181135
vt 0.199581 0.413353
vt 0.282091 0.196726
vt 0.428890 0.242068
vt 0.199581 0.413353
vt 0.132274 0.265120
vt 0.226754 0.221879
vt 0.199581 0.413353
vt 0.226754 0.221879
vt 0.282091 0.196726
vt 0.282091 0.196726
vt 0.623174 0.079966
vt 0.710260 0.181135
vt 0.623174 0.079966
vt 0.451528 0.045806
vt 0.488995 0.028793
vt 0.282091 0.196726
vt 0.451528 0.045806
vt 0.623174 0.079966
vt 0.214579 0.971059
vt 0.198690 0.964734
vt 0.216688 0.957055
vt 0.109277 0.990920
vt 0.078603 0.971867
vt 0.080808 0.957055
vt 0.112399 0.994730
vt 0.096116 0.993241
vt 0.078603 0.971867
vt 0.112399 0.994730
vt 0.078603 0.971867
vt 0.109277 0.990920
vt 0.067543 0.990684
vt 0.054230 0.961146
vt 0.072952 0.982382
vt 0.070880 0.994469
vt 0.067543 0.990684
vt 0.072952 0.982382
vt 0.067543 0.990684
vt 0.037118 0.957055
vt 0.054230 0.961146
vt 0.237991 0.968229
vt 0.239966 0.957055
vt 0.255811 0.960228
vt 0.764192 0.804650
vt 0.846090 0.769939
vt 0.865655 0.805426
vt 0.801694 0.851064
vt 0.865655 0.805426
vt 0.876835 0.819242
vt 0.865655 0.805426
vt 0.846090 0.769939
vt 0.872508 0.802540
vt 0.801694 0.851064
vt 0.764192 0.804650
vt 0.865655 0.805426
vt 0.530568 0.860858
vt 0.537327 0.857964
vt 0.537674 0.861709
vt 0.530908 0.864606
vt 0.531462 0.794548
vt 0.588650 0.769939
vt 0.595843 0.836677
vt 0.537327 0.857964
vt 0.537674 0.861709
vt 0.537327 0.857964
vt 0.595843 0.836677
vt 0.984589 0.815138
vt 0.973799 0.802513
vt 0.981359 0.769939
vt 0.992336 0.782783
vt 0.331878 0.809235
vt 0.424030 0.769939
vt 0.432701 0.835903
vt 0.338967 0.875873
vt 0.933005 0.848510
vt 0.919855 0.776293
vt 0.924863 0.782648
vt 0.919855 0.776293
vt 0.922817 0.835582
vt 0.914847 0.769939
vt 0.933005 0.848510
vt 0.922817 0.835582
vt 0.919855 0.776293
vt 0.635371 0.792829
vt 0.688569 0.769939
vt 0.698227 0.835537
vt 0.644116 0.858820
vt 0.748545 0.855250
vt 0.703057 0.804813
vt 0.713026 0.769939
vt 0.759303 0.821252
vt 0.731813 0.546203
vt 0.839174 0.500791
vt 0.852028 0.564569
vt 0.633622 0.656949
vt 0.624454 0.591613
vt 0.731813 0.546203
vt 0.633622 0.656949
vt 0.731813 0.546203
vt 0.852028 0.564569
vt 0.839174 0.500791
vt 0.876187 0.485164
vt 0.889676 0.548674
vt 0.852028 0.564569
vt 0.876187 0.485164
vt 0.935387 0.460123
vt 0.949893 0.523203
vt 0.889676 0.548674
vt 0.909325 0.849069
vt 0.895656 0.832309
vt 0.882096 0.769939
vt 0.895534 0.786416
vt 0.938865 0.776706
vt 0.954108 0.769939
vt 0.968231 0.832322
vt 0.952726 0.839204
vt 0.326752 0.894948
vt 0.274484 0.832910
vt 0.259825 0.769939
vt 0.311211 0.830931
vt 0.018061 0.963689
vt 0.032113 0.957055
vt 0.015996 0.992512
vt 0.002183 0.999033
vt 0.254773 0.933577
vt 0.170472 0.834244
vt 0.155022 0.769939
vt 0.237900 0.867597
vt 0.614001 0.462061
vt 0.618277 0.460123
vt 0.599767 0.494855
vt 0.595565 0.496760
vt 0.103565 0.693901
vt 0.614001 0.462061
vt 0.595565 0.496760
vt 0.093839 0.724642
vt 0.010317 0.736261
vt 0.103565 0.693901
vt 0.093839 0.724642
vt 0.002183 0.766279
vt 0.150594 0.923175
vt 0.047416 0.812049
vt 0.047683 0.810700
vt 0.142550 0.953093
vt 0.041395 0.842539
vt 0.047416 0.812049
vt 0.150594 0.923175
vt 0.021789 0.821112
vt 0.002183 0.799685
vt 0.007303 0.769939
vt 0.047416 0.812049
vt 0.041395 0.842539
vt 0.021789 0.821112
vt 0.047416 0.812049
vt 0.021789 0.821112
vt 0.007303 0.769939
vt 0.117904 0.988127
vt 0.192363 0.957055
vt 0.192630 0.959842
vt 0.118118 0.990932
vt 0.232819 0.970079
vt 0.222707 0.958708
vt 0.223055 0.957055
vt 0.233091 0.968830
vt 0.438865 0.804211
vt 0.519046 0.769939
vt 0.524361 0.830793
vt 0.442923 0.865607
vt 0.630651 0.863443
vt 0.612716 0.784991
vt 0.624994 0.800044
vt 0.612716 0.784991
vt 0.605521 0.830762
vt 0.600437 0.769939
vt 0.630651 0.863443
vt 0.605521 0.830762
vt 0.612716 0.784991
vt 0.262009 0.957055
vt 0.262009 0.957055
vt 0.262009 0.957055
vt 0.262009 0.957055
vt 0.262009 0.957055
vt 0.262009 0.957055
vt 0.262009 0.957055
vt 0.262009 0.957055
vt 0.262009 0.957055
vt 0.262009 0.957055
vt 0.262009 0.957055
vt 0.262009 0.957055
vt 0.262009 0.957055
vt 0.262009 0.957055
vt 0.262009 0.957055
vt 0.262009 0.957055
vt 0.262009 0.957055
vt 0.262009 0.957055
vt 0.262009 0.957055
vt 0.262009 0.957055
vt 0.262009 0.957055
vt 0.262009 0.957055
vt 0.262009 0.957055
vt 0.262009 0.957055
vt 0.262009 0.957055
vn 0 1 0
vn 0 1 0
vn 0 1 0
vn 0 1 0
vn 0 1 0
vn 0 1 0
vn 0 1 0
vn 0 1 0
vn 0 1 0
vn 0 1 0
vn 0 1 0
vn 0 1 0
vn 0 1 0
vn 0 1 0
vn 0 1 0
vn 0 1 0
vn 0 1 0
vn 0 1 0
vn 0 1 0
vn 0 1 0
vn 0 1 0
vn 0 1 0
vn 0 1 0
vn 0 1 0
vn 0 1 0
vn 0 1 0
vn 0 1 0
vn 0 1 0
vn 0 1 0
vn 0 1 0
vn 0 1 0
vn 0 1 0
vn 0 1 0
vn 0 1 0
vn 0 1 0
vn 0 1 0
vn 0 1 0
vn 0 1 0
vn 0 1 0
vn 0 1 0
vn 0 1 0
vn 0 1 0
vn 0 1 0
vn 0 1 0
vn 0 1 0
vn 0 1 0
vn 0 1 0
vn 0 1 0
vn 0 1 0
vn 0 1 0
vn 0 1 0
vn 0 1 0
vn 0 1 0
vn 0 1 0
vn 0 1 0
vn 0 1 0
vn 0 1 0
vn 0 1 0
vn 0 1 0
vn 0 1 0
vn 0 1 0
vn 0 1 0
vn 0 1 0
vn 0 1 0
vn 0 1 0
vn 0 1 0
vn 0 1 0
vn 0 1 0
vn 0 1 0
vn 0 1 0
vn 0 1 0
vn 0 1 0
vn 0 1 0
vn 0 1 0
vn 0 1 0
vn 0.516404 0.7893795 0.331974
vn 0.516404 0.7893795 0.331974
vn 0.516404 0.7893795 0.331974
vn 0.3770565 0.7175776 -0.5855858
vn 0.3770565 0.7175776 -0.5855858
vn 0.3770565 0.7175776 -0.5855858
vn 0.3630523 0.7307771 -0.5780639
vn 0.3630523 0.7307771 -0.5780639
vn 0.3630523 0.7307771 -0.5780639
vn 0.3630524 0.730777 -0.578064
vn 0.3630524 0.730777 -0.578064
vn 0.3630524 0.730777 -0.578064
vn -0.4027618 0.6530922 0.6412905
vn -0.4027618 0.6530922 0.6412905
vn -0.4027618 0.6530922 0.6412905
vn -0.4027617 0.6530922 0.6412905
vn -0.4027617 0.6530922 0.6412905
vn -0.4027617 0.6530922 0.6412905
vn -0.4018004 0.6707657 0.6234018
vn -0.4018004 0.6707657 0.6234018
vn -0.4018004 0.6707657 0.6234018
vn -0.5735558 0.7311981 -0.3693007
vn -0.5735558 0.7311981 -0.3693007
vn -0.5735558 0.7311981 -0.3693007
vn 0.25051 0.9546248 0.1610475
vn 0.25051 0.9546248 0.1610475
vn 0.25051 0.9546248 0.1610475
vn 0.2514199 0.9543138 0.1614719
vn 0.2514199 0.9543138 0.1614719
vn 0.2514199 0.9543138 0.1614719
vn 0.250687 0.9546434 0.1606613
vn 0.250687 0.9546434 0.1606613
vn 0.250687 0.9546434 0.1606613
vn 0.251039 0.9544852 0.1610512
vn 0.251039 0.9544852 0.1610512
vn 0.251039 0.9544852 0.1610512
vn 0.8419333 0 0.5395816
vn 0.8419333 0 0.5395816
vn 0.8419333 0 0.5395816
vn 0.8419333 0 0.5395816
vn 0.8407569 0 0.5414128
vn 0.8407569 0 0.5414128
vn 0.8407569 0 0.5414128
vn 0.8407569 0 0.5414128
vn 0.8407569 0 0.5414128
vn 0.8407569 0 0.5414128
vn 0.8407569 0 0.5414128
vn -0.5408438 0 0.841123
vn -0.5408438 0 0.841123
vn -0.5408438 0 0.841123
vn -0.5408438 0 0.841123
vn 0.8405607 0 0.5417173
vn 0.8405607 0 0.5417173
vn 0.8405607 0 0.5417173
vn 0.8405607 0 0.5417173
vn 0.5414569 0 -0.8407285
vn 0.5414569 0 -0.8407285
vn 0.5414569 0 -0.8407285
vn 0.5414569 0 -0.8407285
vn 0.5414569 0 -0.8407285
vn 0.5414569 0 -0.8407285
vn 0.5414569 -2.952258E-11 -0.8407285
vn 0.5414569 -2.952258E-11 -0.8407285
vn 0.5414569 -2.952258E-11 -0.8407285
vn 0.8407823 0 0.5413733
vn 0.8407823 0 0.5413733
vn 0.8407823 0 0.5413733
vn 0.8407823 0 0.5413733
vn -0.541327 0 0.8408121
vn -0.541327 0 0.8408121
vn -0.541327 0 0.8408121
vn -0.541327 0 0.8408121
vn 0.8406069 0 0.5416456
vn 0.8406069 0 0.5416456
vn 0.8406069 0 0.5416456
vn 0.8406069 0 0.5416456
vn 0.8406069 0 0.5416456
vn 0.8406069 0 0.5416456
vn 0.8406069 -1.828417E-11 0.5416456
vn 0.8406069 -1.828417E-11 0.5416456
vn 0.8406069 -1.828417E-11 0.5416456
vn 0.8410392 0 0.5409742
vn 0.8410392 0 0.5409742
vn 0.8410392 0 0.5409742
vn 0.8410392 0 0.5409742
vn 0.8406036 0 0.5416508
vn 0.8406036 0 0.5416508
vn 0.8406036 0 0.5416508
vn 0.8406036 0 0.5416508
vn 0.542643 0 -0.8399634
vn 0.542643 0 -0.8399634
vn 0.542643 0 -0.8399634
vn 0.542643 0 -0.8399634
vn 0.8406699 0 0.5415478
vn 0.8406699 0 0.5415478
vn 0.8406699 0 0.5415478
vn 0.8406699 0 0.5415478
vn 0.5415645 0 -0.8406592
vn 0.5415645 0 -0.8406592
vn 0.5415645 0 -0.8406592
vn 0.5415645 0 -0.8406592
vn -0.8398567 0 -0.5428082
vn -0.8398567 0 -0.5428082
vn -0.8398567 0 -0.5428082
vn -0.8398567 0 -0.5428082
vn 0.5415157 0 -0.8406906
vn 0.5415157 0 -0.8406906
vn 0.5415157 0 -0.8406906
vn 0.5415157 0 -0.8406906
vn -0.8411785 0 -0.5407576
vn -0.8411785 0 -0.5407576
vn -0.8411785 0 -0.5407576
vn -0.8411785 0 -0.5407576
vn -0.8406715 0 -0.5415453
vn -0.8406715 0 -0.5415453
vn -0.8406715 0 -0.5415453
vn -0.8406715 0 -0.5415453
vn -0.8406302 0 -0.5416095
vn -0.8406302 0 -0.5416095
vn -0.8406302 0 -0.5416095
vn -0.8406302 0 -0.5416095
vn -0.5415541 0 0.8406659
vn -0.5415541 0 0.8406659
vn -0.5415541 0 0.8406659
vn -0.5415541 0 0.8406659
vn -0.5415541 0 0.8406659
vn -0.5415541 0 0.8406659
vn -0.5415541 0 0.8406659
vn -0.5415639 0 0.8406596
vn -0.5415639 0 0.8406596
vn -0.5415639 0 0.8406596
vn -0.5415639 0 0.8406596
vn -0.5415639 0 0.8406596
vn -0.5415639 0 0.8406596
vn -0.5415639 3.030803E-11 0.8406596
vn -0.5415639 3.030803E-11 0.8406596
vn -0.5415639 3.030803E-11 0.8406596
vn 0.8406825 0 0.5415283
vn 0.8406825 0 0.5415283
vn 0.8406825 0 0.5415283
vn 0.8406825 0 0.5415283
vn -0.5414569 0 0.8407285
vn -0.5414569 0 0.8407285
vn -0.5414569 0 0.8407285
vn -0.5414569 0 0.8407285
vn 0.8404964 0 0.5418172
vn 0.8404964 0 0.5418172
vn 0.8404964 0 0.5418172
vn 0.8404964 0 0.5418172
vn 0.5417933 0 -0.8405117
vn 0.5417933 0 -0.8405117
vn 0.5417933 0 -0.8405117
vn 0.5417933 0 -0.8405117
vn 0.5417933 0 -0.8405117
vn 0.5417933 0 -0.8405117
vn 0.5417933 1.229529E-12 -0.8405117
vn 0.5417933 1.229529E-12 -0.8405117
vn 0.5417933 1.229529E-12 -0.8405117
vn 0 -1 0
vn 0 -1 0
vn 0 -1 0
vn 0 -1 0
vn 0 -1 0
vn 0 -1 0
vn 0 -1 0
vn 0 -1 0
vn 0 -1 0
vn 0 -1 0
vn 0 -1 0
vn 0 -1 0
vn 0 -1 0
vn 0 -1 0
vn 0 -1 0
vn 0 -1 0
vn 0 -1 0
vn 0 -1 0
vn 0 -1 0
vn 0 -1 0
vn 0 -1 0
vn 0 -1 0
vn 0 -1 0
vn 0 -1 0
vn 0 -1 0

g CDNNDG02_0008820
f 1/1/1 2/2/2 3/3/3
f 7/7/7 4/4/4 6/6/6
f 6/6/6 4/4/4 5/5/5
f 8/8/8 9/9/9 10/10/10
f 14/14/14 11/11/11 13/13/13
f 12/12/12 13/13/13 11/11/11
f 18/18/18 15/15/15 17/17/17
f 17/17/17 15/15/15 16/16/16
f 19/19/19 20/20/20 21/21/21
f 22/22/22 23/23/23 24/24/24
f 25/25/25 26/26/26 27/27/27
f 28/28/28 29/29/29 30/30/30
f 31/31/31 32/32/32 33/33/33
f 34/34/34 35/35/35 36/36/36
f 37/37/37 38/38/38 39/39/39
f 40/40/40 41/41/41 42/42/42
f 43/43/43 44/44/44 45/45/45
f 46/46/46 47/47/47 48/48/48
f 49/49/49 50/50/50 51/51/51
f 52/52/52 53/53/53 54/54/54
f 55/55/55 56/56/56 57/57/57
f 58/58/58 59/59/59 60/60/60
f 61/61/61 62/62/62 63/63/63
f 64/64/64 65/65/65 66/66/66
f 67/67/67 68/68/68 69/69/69
f 70/70/70 71/71/71 72/72/72
f 73/73/73 74/74/74 75/75/75
f 76/76/76 77/77/77 78/78/78
f 79/79/79 80/80/80 81/81/81
f 82/82/82 83/83/83 84/84/84
f 85/85/85 86/86/86 87/87/87
f 88/88/88 89/89/89 90/90/90
f 91/91/91 92/92/92 93/93/93
f 94/94/94 95/95/95 96/96/96
f 97/97/97 98/98/98 99/99/99
f 100/100/100 101/101/101 102/102/102
f 103/103/103 104/104/104 105/105/105
f 106/106/106 107/107/107 108/108/108
f 109/109/109 110/110/110 111/111/111
f 113/113/113 114/114/114 112/112/112
f 112/112/112 114/114/114 115/115/115
f 117/117/117 118/118/118 119/119/119
f 116/116/116 117/117/117 119/119/119
f 120/120/120 121/121/121 122/122/122
f 126/126/126 123/123/123 125/125/125
f 125/125/125 123/123/123 124/124/124
f 128/128/128 129/129/129 130/130/130
f 127/127/127 128/128/128 130/130/130
f 131/131/131 132/132/132 133/133/133
f 134/134/134 135/135/135 136/136/136
f 137/137/137 138/138/138 139/139/139
f 141/141/141 142/142/142 140/140/140
f 140/140/140 142/142/142 143/143/143
f 145/145/145 146/146/146 147/147/147
f 147/147/147 144/144/144 145/145/145
f 148/148/148 149/149/149 150/150/150
f 151/151/151 152/152/152 153/153/153
f 154/154/154 155/155/155 156/156/156
f 158/158/158 159/159/159 157/157/157
f 157/157/157 159/159/159 160/160/160
f 162/162/162 163/163/163 161/161/161
f 161/161/161 163/163/163 164/164/164
f 167/167/167 165/165/165 166/166/166
f 165/165/165 167/167/167 168/168/168
f 169/169/169 171/171/171 172/172/172
f 169/169/169 170/170/170 171/171/171
f 174/174/174 175/175/175 176/176/176
f 173/173/173 174/174/174 176/176/176
f 177/177/177 179/179/179 180/180/180
f 177/177/177 178/178/178 179/179/179
f 183/183/183 184/184/184 182/182/182
f 181/181/181 182/182/182 184/184/184
f 185/185/185 187/187/187 188/188/188
f 185/185/185 186/186/186 187/187/187
f 189/189/189 191/191/191 192/192/192
f 189/189/189 190/190/190 191/191/191
f 194/194/194 195/195/195 196/196/196
f 193/193/193 194/194/194 196/196/196
f 197/197/197 198/198/198 199/199/199
f 200/200/200 202/202/202 203/203/203
f 202/202/202 200/200/200 201/201/201
f 204/204/204 205/205/205 206/206/206
f 207/207/207 208/208/208 209/209/209
f 210/210/210 211/211/211 212/212/212
f 213/213/213 215/215/215 216/216/216
f 213/213/213 214/214/214 215/215/215
f 217/217/217 219/219/219 220/220/220
f 219/219/219 217/217/217 218/218/218
f 222/222/222 223/223/223 221/221/221
f 221/221/221 223/223/223 224/224/224
f 225/225/225 226/226/226 227/227/227
f 228/228/228 229/229/229 230/230/230
f 231/231/231 232/232/232 233/233/233
f 257/257/257 258/258/258 240/240/240
f 258/258/258 238/238/238 240/240/240
f 249/249/249 243/243/243 248/248/248
f 252/252/252 243/243/243 250/250/250
f 236/236/236 234/234/234 235/235/235
f 257/257/257 240/240/240 253/253/253
f 237/237/237 234/234/234 236/236/236
f 257/257/257 253/253/253 254/254/254
f 238/238/238 258/258/258 237/237/237
f 258/258/258 234/234/234 237/237/237
f 239/239/239 240/240/240 238/238/238
f 256/256/256 254/254/254 255/255/255
f 243/243/243 249/249/249 250/250/250
f 241/241/241 242/242/242 243/243/243
f 243/243/243 244/244/244 245/245/245
f 243/243/243 246/246/246 248/248/248
f 245/245/245 246/246/246 243/243/243
f 246/246/246 247/247/247 248/248/248
f 241/241/241 243/243/243 252/252/252
f 252/252/252 240/240/240 241/241/241
f 253/253/253 240/240/240 252/252/252
f 252/252/252 250/250/250 251/251/251
f 256/256/256 257/257/257 254/254/254
