v 1.381934 7.681305 5.839975
v 6.397934 7.680194 15.54998
v 17.73393 7.679194 -2.504025
v -4.854065 7.68213 8.485975
v 6.397934 7.680194 15.54998
v 1.381934 7.681305 5.839975
v 1.381934 7.681305 5.839975
v 17.73393 7.679194 -2.504025
v 9.762934 7.680566 -7.508025
v -5.467066 7.682236 8.100975
v -4.854065 7.68213 8.485975
v 1.381934 7.681305 5.839975
v -16.85106 7.684195 0.9539751
v -5.467066 7.682236 8.100975
v -6.056066 7.682585 1.169975
v -6.056066 7.682585 1.169975
v -5.467066 7.682236 8.100975
v 1.381934 7.681305 5.839975
v -16.85106 7.684195 0.9539751
v -6.056066 7.682585 1.169975
v -13.89707 7.683934 -3.753025
v -3.849316 7.683263 -6.69915
v -1.765816 7.683433 -10.01834
v -3.726066 7.683705 -11.2489
v -5.809566 7.683557 -7.929775
v -5.932816 7.683093 -3.379963
v -3.849316 7.683263 -6.69915
v -5.809566 7.683557 -7.929775
v -7.893066 7.683408 -4.61065
v -5.809566 7.683557 -7.929775
v -3.726066 7.683705 -11.2489
v -5.686316 7.683977 -12.47946
v -7.769816 7.68385 -9.1604
v -7.893066 7.683408 -4.61065
v -5.809566 7.683557 -7.929775
v -7.769816 7.68385 -9.1604
v -9.853316 7.683723 -5.841338
v -3.726066 7.683705 -11.2489
v -1.765816 7.683433 -10.01834
v 2.277934 7.683353 -12.10703
v -5.563066 7.684353 -17.02902
v -3.726066 7.683705 -11.2489
v 2.277934 7.683353 -12.10703
v -3.849316 7.683263 -6.69915
v 2.277934 7.683353 -12.10703
v -1.765816 7.683433 -10.01834
v -6.056066 7.682585 1.169975
v -3.849316 7.683263 -6.69915
v -5.932816 7.683093 -3.379963
v -6.056066 7.682585 1.169975
v 2.277934 7.683353 -12.10703
v -3.849316 7.683263 -6.69915
v -7.893066 7.683408 -4.61065
v -6.056066 7.682585 1.169975
v -5.932816 7.683093 -3.379963
v -7.769816 7.68385 -9.1604
v -5.686316 7.683977 -12.47946
v -5.563066 7.684353 -17.02902
v -5.686316 7.683977 -12.47946
v -3.726066 7.683705 -11.2489
v -5.563066 7.684353 -17.02902
v -13.89707 7.683934 -3.753025
v -7.769816 7.68385 -9.1604
v -5.563066 7.684353 -17.02902
v -13.89707 7.683934 -3.753025
v -7.893066 7.683408 -4.61065
v -9.853316 7.683723 -5.841338
v -13.89707 7.683934 -3.753025
v -9.853316 7.683723 -5.841338
v -7.769816 7.68385 -9.1604
v -13.89707 7.683934 -3.753025
v -6.056066 7.682585 1.169975
v -7.893066 7.683408 -4.61065
v -5.788066 7.781353 8.612975
v -5.175066 7.781353 8.997975
v -4.854065 7.781353 8.485975
v -5.788066 7.781353 8.612975
v -4.854065 7.781353 8.485975
v -5.467066 7.780354 8.100975
v -16.85106 -7.682045 0.9539751
v -5.467066 -7.682045 8.100975
v -5.467066 7.682236 8.100975
v -16.85106 7.684195 0.9539751
v 0.7719344 -7.682045 12.01797
v 6.397934 -7.682045 15.54998
v 6.397934 7.680194 15.54998
v -4.854065 7.68213 8.485975
v -4.854065 -7.682045 8.485975
v 0.7719344 -7.682045 12.01797
v -4.854065 7.68213 8.485975
v 0.7719344 -7.682045 12.01797
v 6.397934 7.680194 15.54998
v 6.397934 -7.682045 15.54998
v 17.73393 -7.682045 -2.504025
v 17.73393 7.679194 -2.504025
v 6.397934 7.680194 15.54998
v 9.762934 7.680566 -7.508025
v 17.73393 7.679194 -2.504025
v 17.73393 -7.682045 -2.504025
v 9.762934 -7.682045 -7.508025
v 1.381934 7.681305 5.839975
v 5.572433 -7.682045 -0.8340251
v 1.381934 -7.682045 5.839975
v 5.572433 -7.682045 -0.8340251
v 9.762934 7.680566 -7.508025
v 9.762934 -7.682045 -7.508025
v 1.381934 7.681305 5.839975
v 9.762934 7.680566 -7.508025
v 5.572433 -7.682045 -0.8340251
v -6.056066 7.682585 1.169975
v -2.337066 -7.682045 3.504975
v -6.056066 -7.682045 1.169975
v -2.337066 -7.682045 3.504975
v 1.381934 7.681305 5.839975
v 1.381934 -7.682045 5.839975
v -6.056066 7.682585 1.169975
v 1.381934 7.681305 5.839975
v -2.337066 -7.682045 3.504975
v -16.85106 7.684195 0.9539751
v -13.89707 7.683934 -3.753025
v -13.89707 -7.682045 -3.753025
v -16.85106 -7.682045 0.9539751
v -13.89707 7.683934 -3.753025
v -9.730066 -7.682045 -10.39102
v -13.89707 -7.682045 -3.753025
v -9.730066 -7.682045 -10.39102
v -5.563066 7.684353 -17.02902
v -5.563066 -7.682045 -17.02902
v -13.89707 7.683934 -3.753025
v -5.563066 7.684353 -17.02902
v -9.730066 -7.682045 -10.39102
v -6.056066 -7.682045 1.169975
v 2.277934 -7.682045 -12.10703
v 2.277934 7.683353 -12.10703
v -6.056066 7.682585 1.169975
v -5.563066 7.684353 -17.02902
v -1.642566 -7.682045 -14.56802
v -5.563066 -7.682045 -17.02902
v -1.642566 -7.682045 -14.56802
v 2.277934 7.683353 -12.10703
v 2.277934 -7.682045 -12.10703
v -5.563066 7.684353 -17.02902
v 2.277934 7.683353 -12.10703
v -1.642566 -7.682045 -14.56802
v -5.788066 -7.682045 8.612975
v -5.175066 -7.682045 8.997975
v -5.175066 7.781353 8.997975
v -5.788066 7.781353 8.612975
v -5.175066 7.781353 8.997975
v -4.854065 7.68213 8.485975
v -4.854065 7.781353 8.485975
v -5.175066 -7.682045 8.997975
v -4.854065 -7.682045 8.485975
v -4.854065 7.68213 8.485975
v -5.175066 7.781353 8.997975
v -5.788066 7.781353 8.612975
v -5.467066 7.682236 8.100975
v -5.467066 -7.682045 8.100975
v -5.788066 -7.682045 8.612975
v -5.788066 7.781353 8.612975
v -5.467066 7.780354 8.100975
v -5.467066 7.682236 8.100975
v -5.467066 7.780354 8.100975
v -4.854065 7.781353 8.485975
v -4.854065 7.68213 8.485975
v -5.467066 7.682236 8.100975
v -9.730066 -7.682045 -10.39102
v -5.563066 -7.682045 -17.02902
v -1.642566 -7.682045 -14.56802
v 2.277934 -7.682045 -12.10703
v -6.056066 -7.682045 1.169975
v -2.337066 -7.682045 3.504975
v 1.381934 -7.682045 5.839975
v 5.572433 -7.682045 -0.8340251
v 9.762934 -7.682045 -7.508025
v 17.73393 -7.682045 -2.504025
v 6.397934 -7.682045 15.54998
v 0.7719344 -7.682045 12.01797
v -4.854065 -7.682045 8.485975
v -5.175066 -7.682045 8.997975
v -5.788066 -7.682045 8.612975
v -5.467066 -7.682045 8.100975
v -16.85106 -7.682045 0.9539751
v -13.89707 -7.682045 -3.753025
vt 0.198838 0.220677
vt 0.001147 0.154767
vt 0.364445 0.000758
vt 0.146548 0.304465
vt 0.001147 0.154767
vt 0.198838 0.220677
vt 0.198838 0.220677
vt 0.364445 0.000758
vt 0.467442 0.106823
vt 0.154472 0.312620
vt 0.146548 0.304465
vt 0.198838 0.220677
vt 0.301564 0.464056
vt 0.154472 0.312620
vt 0.294956 0.319631
vt 0.294956 0.319631
vt 0.154472 0.312620
vt 0.198838 0.220677
vt 0.301564 0.464056
vt 0.294956 0.319631
vt 0.396273 0.423939
vt 0.453862 0.289110
vt 0.520654 0.260810
vt 0.545980 0.286889
vt 0.479189 0.315189
vt 0.387073 0.317410
vt 0.453862 0.289110
vt 0.479189 0.315189
vt 0.412401 0.343488
vt 0.479189 0.315189
vt 0.545980 0.286889
vt 0.571305 0.312968
vt 0.504515 0.341267
vt 0.412401 0.343488
vt 0.479189 0.315189
vt 0.504515 0.341267
vt 0.437729 0.369565
vt 0.545980 0.286889
vt 0.520654 0.260810
vt 0.562124 0.206427
vt 0.663419 0.310747
vt 0.545980 0.286889
vt 0.562124 0.206427
vt 0.453862 0.289110
vt 0.562124 0.206427
vt 0.520654 0.260810
vt 0.294956 0.319631
vt 0.453862 0.289110
vt 0.387073 0.317410
vt 0.294956 0.319631
vt 0.562124 0.206427
vt 0.453862 0.289110
vt 0.412401 0.343488
vt 0.294956 0.319631
vt 0.387073 0.317410
vt 0.504515 0.341267
vt 0.571305 0.312968
vt 0.663419 0.310747
vt 0.571305 0.312968
vt 0.545980 0.286889
vt 0.663419 0.310747
vt 0.396273 0.423939
vt 0.504515 0.341267
vt 0.663419 0.310747
vt 0.396273 0.423939
vt 0.412401 0.343488
vt 0.437729 0.369565
vt 0.396273 0.423939
vt 0.437729 0.369565
vt 0.504515 0.341267
vt 0.396273 0.423939
vt 0.294956 0.319631
vt 0.412401 0.343488
vt 0.287260 0.854981
vt 0.279817 0.847293
vt 0.289492 0.843182
vt 0.287260 0.854981
vt 0.289492 0.843182
vt 0.296939 0.850870
vt 0.309633 0.843182
vt 0.309633 0.843182
vt 0.309633 0.843182
vt 0.309633 0.843182
vt 0.315367 0.843182
vt 0.315367 0.843182
vt 0.315367 0.843182
vt 0.315367 0.843182
vt 0.315367 0.843182
vt 0.315367 0.843182
vt 0.315367 0.843182
vt 0.315367 0.843182
vt 0.315367 0.843182
vt 0.058133 0.612965
vt 0.411628 0.465909
vt 0.361444 0.520817
vt 0.001147 0.670702
vt 0.879853 0.832402
vt 0.779817 0.727578
vt 0.829757 0.672727
vt 0.927906 0.775570
vt 0.315367 0.786305
vt 0.499144 0.784189
vt 0.366439 0.839883
vt 0.499144 0.784189
vt 0.585988 0.672727
vt 0.631859 0.728490
vt 0.315367 0.786305
vt 0.585988 0.672727
vt 0.499144 0.784189
vt 0.094486 0.999884
vt 0.099986 0.891152
vt 0.145774 0.939119
vt 0.099986 0.891152
vt 0.001147 0.902097
vt 0.054195 0.843182
vt 0.094486 0.999884
vt 0.001147 0.902097
vt 0.099986 0.891152
vt 0.413991 0.618968
vt 0.509487 0.578918
vt 0.556818 0.628602
vt 0.463157 0.667882
vt 0.509487 0.578918
vt 0.688909 0.573188
vt 0.556818 0.628602
vt 0.688909 0.573188
vt 0.778853 0.465909
vt 0.821010 0.517771
vt 0.509487 0.578918
vt 0.778853 0.465909
vt 0.688909 0.573188
vt 0.052649 0.780735
vt 0.312376 0.672727
vt 0.265867 0.731441
vt 0.001147 0.841520
vt 0.732524 0.834531
vt 0.728732 0.723305
vt 0.776977 0.773881
vt 0.728732 0.723305
vt 0.634174 0.731430
vt 0.680484 0.672727
vt 0.732524 0.834531
vt 0.634174 0.731430
vt 0.728732 0.723305
vt 0.321101 0.843182
vt 0.321101 0.843182
vt 0.321101 0.843182
vt 0.321101 0.843182
vt 0.149083 0.907849
vt 0.159501 0.903243
vt 0.159149 0.903638
vt 0.203132 0.847312
vt 0.213007 0.843182
vt 0.159501 0.903243
vt 0.149083 0.907849
vt 0.215596 0.847490
vt 0.226162 0.843516
vt 0.277344 0.894863
vt 0.267313 0.899091
vt 0.215596 0.847490
vt 0.225828 0.843182
vt 0.226162 0.843516
vt 0.306103 0.850968
vt 0.299312 0.843548
vt 0.299626 0.843182
vt 0.306412 0.850605
vt 0.326835 0.843182
vt 0.326835 0.843182
vt 0.326835 0.843182
vt 0.326835 0.843182
vt 0.326835 0.843182
vt 0.326835 0.843182
vt 0.326835 0.843182
vt 0.326835 0.843182
vt 0.326835 0.843182
vt 0.326835 0.843182
vt 0.326835 0.843182
vt 0.326835 0.843182
vt 0.326835 0.843182
vt 0.326835 0.843182
vt 0.326835 0.843182
vt 0.326835 0.843182
vt 0.326835 0.843182
vt 0.326835 0.843182
vn 0.0001483472 1 3.775697E-05
vn 0.0001483472 1 3.775697E-05
vn 0.0001483472 1 3.775697E-05
vn 0.0001483461 1 3.775753E-05
vn 0.0001483461 1 3.775753E-05
vn 0.0001483461 1 3.775753E-05
vn 0.0001483471 1 3.775677E-05
vn 0.0001483471 1 3.775677E-05
vn 0.0001483471 1 3.775677E-05
vn 0.0001483443 1 3.775314E-05
vn 0.0001483443 1 3.775314E-05
vn 0.0001483443 1 3.775314E-05
vn 0.0001483459 1 3.775705E-05
vn 0.0001483459 1 3.775705E-05
vn 0.0001483459 1 3.775705E-05
vn 0.0001483456 1 3.775708E-05
vn 0.0001483456 1 3.775708E-05
vn 0.0001483456 1 3.775708E-05
vn 0.0001483459 1 3.775735E-05
vn 0.0001483459 1 3.775735E-05
vn 0.0001483459 1 3.775735E-05
vn 8.4344E-05 1 0.0001042516
vn 8.183369E-05 1 9.939133E-05
vn 7.932338E-05 1 9.453102E-05
vn 8.183369E-05 1 9.939133E-05
vn 9.232483E-05 1 0.0001092643
vn 8.981352E-05 1 0.0001044019
vn 8.730221E-05 1 9.953954E-05
vn 8.981352E-05 1 0.0001044019
vn 8.730221E-05 1 9.953954E-05
vn 8.479191E-05 1 9.46791E-05
vn 8.228161E-05 1 8.981866E-05
vn 8.479191E-05 1 9.46791E-05
vn 9.528446E-05 1 0.0001045502
vn 9.277316E-05 1 9.968768E-05
vn 9.026186E-05 1 9.482515E-05
vn 9.277316E-05 1 9.968768E-05
vn 7.340447E-05 1 0.0001039597
vn 7.340447E-05 1 0.0001039597
vn 7.340447E-05 1 0.0001039597
vn 7.134067E-05 1 8.952007E-05
vn 7.134067E-05 1 8.952007E-05
vn 7.134067E-05 1 8.952007E-05
vn 6.837893E-05 1 9.423014E-05
vn 6.837893E-05 1 9.423014E-05
vn 6.837893E-05 1 9.423014E-05
vn 0.0001003031 1 0.0001142724
vn 0.0001003031 1 0.0001142724
vn 0.0001003031 1 0.0001142724
vn 8.1386E-05 1 0.0001089675
vn 8.1386E-05 1 0.0001089675
vn 8.1386E-05 1 0.0001089675
vn 8.936664E-05 1 0.0001139762
vn 8.936664E-05 1 0.0001139762
vn 8.936664E-05 1 0.0001139762
vn 7.429517E-05 1 8.480527E-05
vn 7.429517E-05 1 8.480527E-05
vn 7.429517E-05 1 8.480527E-05
vn 8.524262E-05 1 8.510184E-05
vn 8.524262E-05 1 8.510184E-05
vn 8.524262E-05 1 8.510184E-05
vn 9.322239E-05 1 9.01134E-05
vn 9.322239E-05 1 9.01134E-05
vn 9.322239E-05 1 9.01134E-05
vn 0.0001012026 1 9.512372E-05
vn 0.0001012026 1 9.512372E-05
vn 0.0001012026 1 9.512372E-05
vn 0.0001062226 1 0.0001048443
vn 0.0001062226 1 0.0001048443
vn 0.0001062226 1 0.0001048443
vn 0.0001032647 1 0.0001095596
vn 0.0001032647 1 0.0001095596
vn 0.0001032647 1 0.0001095596
vn 0 1 0
vn 0 1 0
vn 0 1 0
vn -0.000290324 0.9999977 -0.00213514
vn -0.000290324 0.9999977 -0.00213514
vn -0.000290324 0.9999977 -0.00213514
vn -0.5317098 0 0.8469266
vn -0.5317098 0 0.8469266
vn -0.5317098 0 0.8469266
vn -0.5317098 0 0.8469266
vn -0.5317029 0 0.846931
vn -0.5317029 0 0.846931
vn -0.5317029 0 0.846931
vn -0.5317028 0 0.846931
vn -0.5317028 0 0.846931
vn -0.5317028 0 0.846931
vn -0.5317029 -1.475764E-10 0.846931
vn -0.5317029 -1.475764E-10 0.846931
vn -0.5317029 -1.475764E-10 0.846931
vn 0.8468949 0 0.5317603
vn 0.8468949 0 0.5317603
vn 0.8468949 0 0.5317603
vn 0.8468949 0 0.5317603
vn 0.5316883 0 -0.8469401
vn 0.5316883 0 -0.8469401
vn 0.5316883 0 -0.8469401
vn 0.5316883 0 -0.8469401
vn -0.8468986 0 -0.5317544
vn -0.8468986 0 -0.5317544
vn -0.8468986 0 -0.5317544
vn -0.8468986 0 -0.5317544
vn -0.8468986 0 -0.5317544
vn -0.8468986 0 -0.5317544
vn -0.8468986 1.772216E-11 -0.5317544
vn -0.8468986 1.772216E-11 -0.5317544
vn -0.8468986 1.772216E-11 -0.5317544
vn 0.5317377 0 -0.846909
vn 0.5317377 0 -0.846909
vn 0.5317377 0 -0.846909
vn 0.5317377 0 -0.846909
vn 0.5317377 0 -0.846909
vn 0.5317377 0 -0.846909
vn 0.5317377 2.576937E-10 -0.846909
vn 0.5317377 2.576937E-10 -0.846909
vn 0.5317377 2.576937E-10 -0.846909
vn -0.8470163 0 -0.5315669
vn -0.8470163 0 -0.5315669
vn -0.8470163 0 -0.5315669
vn -0.8470163 0 -0.5315669
vn -0.8469501 0 -0.5316724
vn -0.8469501 0 -0.5316724
vn -0.8469501 0 -0.5316724
vn -0.8469501 0 -0.5316724
vn -0.8469501 0 -0.5316724
vn -0.8469501 0 -0.5316724
vn -0.8469501 -1.611195E-10 -0.5316724
vn -0.8469501 -1.611195E-10 -0.5316724
vn -0.8469501 -1.611195E-10 -0.5316724
vn 0.8469681 0 0.5316436
vn 0.8469681 0 0.5316436
vn 0.8469681 0 0.5316436
vn 0.8469681 0 0.5316436
vn 0.5316582 0 -0.846959
vn 0.5316582 0 -0.846959
vn 0.5316582 0 -0.846959
vn 0.5316582 0 -0.846959
vn 0.5316582 0 -0.846959
vn 0.5316582 0 -0.846959
vn 0.5316582 -2.566698E-11 -0.846959
vn 0.5316582 -2.566698E-11 -0.846959
vn 0.5316582 -2.566698E-11 -0.846959
vn -0.5318603 0 0.8468321
vn -0.5318603 0 0.8468321
vn -0.5318603 0 0.8468321
vn -0.5318603 0 0.8468321
vn 0.8472535 0 0.5311887
vn 0.8472535 0 0.5311887
vn 0.8472535 0 0.5311887
vn 0.8472535 0 0.5311887
vn 0.8472535 0 0.5311887
vn 0.8472535 0 0.5311887
vn 0.8472535 0 0.5311887
vn -0.8472535 0 -0.5311888
vn -0.8472535 0 -0.5311888
vn -0.8472535 0 -0.5311888
vn -0.8472535 0 -0.5311888
vn -0.8472535 0 -0.5311888
vn -0.8472535 0 -0.5311888
vn -0.8472535 0 -0.5311888
vn 0.5318603 0 -0.8468321
vn 0.5318603 0 -0.8468321
vn 0.5318603 0 -0.8468321
vn 0.5318603 0 -0.8468321
vn 0 -1 0
vn 0 -1 0
vn 0 -1 0
vn 0 -1 0
vn 0 -1 0
vn 0 -1 0
vn 0 -1 0
vn 0 -1 0
vn 0 -1 0
vn 0 -1 0
vn 0 -1 0
vn 0 -1 0
vn 0 -1 0
vn 0 -1 0
vn 0 -1 0
vn 0 -1 0
vn 0 -1 0
vn 0 -1 0

g CDNNDG02_0007560
f 1/1/1 2/2/2 3/3/3
f 4/4/4 5/5/5 6/6/6
f 7/7/7 8/8/8 9/9/9
f 10/10/10 11/11/11 12/12/12
f 13/13/13 14/14/14 15/15/15
f 16/16/16 17/17/17 18/18/18
f 19/19/19 20/20/20 21/21/21
f 25/25/25 22/22/22 23/23/23
f 24/24/24 25/25/25 23/23/23
f 29/29/29 26/26/26 27/27/27
f 28/28/28 29/29/29 27/27/27
f 33/33/33 30/30/30 31/31/31
f 32/32/32 33/33/33 31/31/31
f 37/37/37 34/34/34 35/35/35
f 36/36/36 37/37/37 35/35/35
f 38/38/38 39/39/39 40/40/40
f 41/41/41 42/42/42 43/43/43
f 44/44/44 45/45/45 46/46/46
f 47/47/47 48/48/48 49/49/49
f 50/50/50 51/51/51 52/52/52
f 53/53/53 54/54/54 55/55/55
f 56/56/56 57/57/57 58/58/58
f 59/59/59 60/60/60 61/61/61
f 62/62/62 63/63/63 64/64/64
f 65/65/65 66/66/66 67/67/67
f 68/68/68 69/69/69 70/70/70
f 71/71/71 72/72/72 73/73/73
f 74/74/74 75/75/75 76/76/76
f 77/77/77 78/78/78 79/79/79
f 80/80/80 82/82/82 83/83/83
f 82/82/82 80/80/80 81/81/81
f 84/84/84 85/85/85 86/86/86
f 87/87/87 88/88/88 89/89/89
f 90/90/90 91/91/91 92/92/92
f 96/96/96 93/93/93 95/95/95
f 94/94/94 95/95/95 93/93/93
f 97/97/97 98/98/98 100/100/100
f 100/100/100 98/98/98 99/99/99
f 101/101/101 102/102/102 103/103/103
f 104/104/104 105/105/105 106/106/106
f 107/107/107 108/108/108 109/109/109
f 110/110/110 111/111/111 112/112/112
f 113/113/113 114/114/114 115/115/115
f 116/116/116 117/117/117 118/118/118
f 120/120/120 121/121/121 122/122/122
f 119/119/119 120/120/120 122/122/122
f 123/123/123 124/124/124 125/125/125
f 126/126/126 127/127/127 128/128/128
f 129/129/129 130/130/130 131/131/131
f 135/135/135 132/132/132 133/133/133
f 133/133/133 134/134/134 135/135/135
f 136/136/136 137/137/137 138/138/138
f 139/139/139 140/140/140 141/141/141
f 142/142/142 143/143/143 144/144/144
f 145/145/145 147/147/147 148/148/148
f 147/147/147 145/145/145 146/146/146
f 149/149/149 150/150/150 151/151/151
f 152/152/152 154/154/154 155/155/155
f 152/152/152 153/153/153 154/154/154
f 157/157/157 158/158/158 159/159/159
f 156/156/156 157/157/157 159/159/159
f 160/160/160 161/161/161 162/162/162
f 163/163/163 165/165/165 166/166/166
f 163/163/163 164/164/164 165/165/165
f 171/171/171 183/183/183 184/184/184
f 183/183/183 171/171/171 182/182/182
f 179/179/179 181/181/181 182/182/182
f 167/167/167 168/168/168 169/169/169
f 167/167/167 169/169/169 170/170/170
f 167/167/167 170/170/170 171/171/171
f 179/179/179 180/180/180 181/181/181
f 167/167/167 171/171/171 184/184/184
f 171/171/171 172/172/172 182/182/182
f 172/172/172 179/179/179 182/182/182
f 172/172/172 173/173/173 179/179/179
f 173/173/173 174/174/174 177/177/177
f 174/174/174 175/175/175 176/176/176
f 174/174/174 176/176/176 177/177/177
f 173/173/173 178/178/178 179/179/179
f 173/173/173 177/177/177 178/178/178
