v 0.5420625 5.662123 -8.016853
v 7.175063 5.662123 -3.872853
v 0.6140624 5.662123 -8.127853
v -0.2019375 5.662123 7.011147
v 0.02306245 5.662123 7.157147
v 7.175063 5.662123 -3.872853
v 0.4450625 5.662123 -7.866853
v 7.175063 5.662123 -3.872853
v 0.5420625 5.662123 -8.016853
v -5.230937 5.662123 0.8861469
v -2.624938 5.662123 2.921147
v -2.117938 5.662123 2.164147
v -5.230937 5.662123 0.8861469
v -0.2019375 5.662123 7.011147
v -2.624938 5.662123 2.921147
v -2.117938 5.662123 2.164147
v -1.351938 5.662123 2.677147
v 0.4450625 5.662123 -7.866853
v -5.230937 5.662123 0.8861469
v -2.117938 5.662123 2.164147
v 0.4450625 5.662123 -7.866853
v -1.858938 5.662123 3.434147
v -0.2019375 5.662123 7.011147
v -1.351938 5.662123 2.677147
v -2.624938 5.662123 2.921147
v -0.2019375 5.662123 7.011147
v -1.858938 5.662123 3.434147
v -1.351938 5.662123 2.677147
v 7.175063 5.662123 -3.872853
v 0.4450625 5.662123 -7.866853
v -1.351938 5.662123 2.677147
v -0.2019375 5.662123 7.011147
v 7.175063 5.662123 -3.872853
v -6.538938 5.662123 2.902147
v -6.376937 5.662123 3.007147
v -5.230937 5.662123 0.8861469
v -6.376937 5.662123 3.007147
v -0.2019375 5.662123 7.011147
v -5.230937 5.662123 0.8861469
v -2.624938 7.532123 2.921147
v -1.858938 7.532123 3.434147
v -1.351938 7.532123 2.677147
v -2.117938 7.532123 2.164147
v -6.376937 4.829123 3.007147
v -0.9189376 4.662123 8.116147
v -0.2019375 4.829123 7.011147
v -7.092937 4.662123 4.111147
v -0.9189376 4.662123 8.116147
v -6.376937 4.829123 3.007147
v -6.538938 5.662123 2.902147
v -6.376937 4.829123 3.007147
v -6.376937 5.662123 3.007147
v -6.538938 -5.605578 2.902147
v -6.376937 -5.605578 3.007147
v -6.376937 4.829123 3.007147
v -6.538938 5.662123 2.902147
v -6.376937 4.829123 3.007147
v -0.2019375 4.829123 7.011147
v -0.2019375 5.662123 7.011147
v -6.376937 5.662123 3.007147
v -0.2019375 -5.605578 7.011147
v 0.02306245 -5.605578 7.157147
v 0.02306245 5.662123 7.157147
v -0.2019375 4.829123 7.011147
v -0.2019375 5.662123 7.011147
v -0.2019375 4.829123 7.011147
v 0.02306245 5.662123 7.157147
v 3.599062 -5.605578 1.642147
v 7.175063 -5.605578 -3.872853
v 7.175063 5.662123 -3.872853
v 0.02306245 5.662123 7.157147
v 0.02306245 -5.605578 7.157147
v 3.599062 -5.605578 1.642147
v 0.02306245 5.662123 7.157147
v 3.599062 -5.605578 1.642147
v 7.175063 5.662123 -3.872853
v 0.6140624 5.662123 -8.127853
v 3.894562 -5.605578 -6.000353
v 0.6140624 -5.605578 -8.127853
v 3.894562 -5.605578 -6.000353
v 7.175063 5.662123 -3.872853
v 7.175063 -5.605578 -3.872853
v 0.6140624 5.662123 -8.127853
v 7.175063 5.662123 -3.872853
v 3.894562 -5.605578 -6.000353
v 0.5420625 5.662123 -8.016853
v 0.6140624 5.662123 -8.127853
v 0.6140624 -5.605578 -8.127853
v 0.5420625 -5.605578 -8.016853
v 0.4450625 5.662123 -7.866853
v 0.5420625 5.662123 -8.016853
v 0.5420625 -5.605578 -8.016853
v 0.4450625 -5.605578 -7.866853
v -5.230937 5.662123 0.8861469
v 0.4450625 5.662123 -7.866853
v 0.4450625 -5.605578 -7.866853
v -5.230937 -5.605578 0.8861469
v -6.538938 5.662123 2.902147
v -5.230937 5.662123 0.8861469
v -5.230937 -5.605578 0.8861469
v -6.538938 -5.605578 2.902147
v -2.624938 5.662123 2.921147
v -1.858938 5.662123 3.434147
v -1.858938 7.532123 3.434147
v -2.624938 7.532123 2.921147
v -1.858938 5.662123 3.434147
v -1.351938 5.662123 2.677147
v -1.351938 7.532123 2.677147
v -1.858938 7.532123 3.434147
v -2.117938 7.532123 2.164147
v -1.351938 7.532123 2.677147
v -1.351938 5.662123 2.677147
v -2.117938 5.662123 2.164147
v -2.624938 7.532123 2.921147
v -2.117938 7.532123 2.164147
v -2.117938 5.662123 2.164147
v -2.624938 5.662123 2.921147
v -7.092937 -5.605578 4.111147
v -0.9189376 -5.605578 8.116147
v -0.9189376 4.662123 8.116147
v -7.092937 4.662123 4.111147
v -0.9189376 -5.605578 8.116147
v -0.2019375 -5.605578 7.011147
v -0.2019375 4.829123 7.011147
v -0.9189376 4.662123 8.116147
v -7.092937 4.662123 4.111147
v -6.376937 4.829123 3.007147
v -6.376937 -5.605578 3.007147
v -7.092937 -5.605578 4.111147
v -6.376937 -5.605578 3.007147
v -6.538938 -5.605578 2.902147
v -5.230937 -5.605578 0.8861469
v 0.4450625 -5.605578 -7.866853
v 0.5420625 -5.605578 -8.016853
v 0.6140624 -5.605578 -8.127853
v 3.894562 -5.605578 -6.000353
v 7.175063 -5.605578 -3.872853
v 3.599062 -5.605578 1.642147
v 0.02306245 -5.605578 7.157147
v -0.2019375 -5.605578 7.011147
v -0.9189376 -5.605578 8.116147
v -7.092937 -5.605578 4.111147
vt 0.570330 0.168147
vt 0.413595 0.001439
vt 0.574470 0.166319
vt 0.007657 0.188665
vt 0.002137 0.183011
vt 0.413595 0.001439
vt 0.564734 0.170610
vt 0.413595 0.001439
vt 0.570330 0.168147
vt 0.238219 0.314699
vt 0.161401 0.249256
vt 0.189635 0.236388
vt 0.238219 0.314699
vt 0.007657 0.188665
vt 0.161401 0.249256
vt 0.189635 0.236388
vt 0.170244 0.217142
vt 0.564734 0.170610
vt 0.238219 0.314699
vt 0.189635 0.236388
vt 0.564734 0.170610
vt 0.142010 0.230009
vt 0.007657 0.188665
vt 0.170244 0.217142
vt 0.161401 0.249256
vt 0.007657 0.188665
vt 0.142010 0.230009
vt 0.170244 0.217142
vt 0.413595 0.001439
vt 0.564734 0.170610
vt 0.170244 0.217142
vt 0.007657 0.188665
vt 0.413595 0.001439
vt 0.163020 0.347902
vt 0.159050 0.343832
vt 0.238219 0.314699
vt 0.159050 0.343832
vt 0.007657 0.188665
vt 0.238219 0.314699
vt 0.862678 0.820846
vt 0.844017 0.802317
vt 0.871188 0.789928
vt 0.889849 0.808458
vt 0.301282 0.808364
vt 0.490571 0.942493
vt 0.448052 0.960983
vt 0.343796 0.789928
vt 0.490571 0.942493
vt 0.301282 0.808364
vt 0.555556 0.401950
vt 0.570155 0.402151
vt 0.559424 0.405965
vt 0.698899 0.351079
vt 0.702714 0.355039
vt 0.570155 0.402151
vt 0.555556 0.401950
vt 0.570155 0.402151
vt 0.717521 0.555027
vt 0.706943 0.558999
vt 0.559424 0.405965
vt 0.848193 0.505961
vt 0.853498 0.511460
vt 0.712322 0.564575
vt 0.717521 0.555027
vt 0.706943 0.558999
vt 0.717521 0.555027
vt 0.712322 0.564575
vt 0.628764 0.697137
vt 0.428850 0.784784
vt 0.282051 0.764800
vt 0.687471 0.587050
vt 0.828686 0.609486
vt 0.628764 0.697137
vt 0.687471 0.587050
vt 0.628764 0.697137
vt 0.282051 0.764800
vt 0.162451 0.975439
vt 0.215866 0.870925
vt 0.294896 0.951919
vt 0.215866 0.870925
vt 0.002137 0.811148
vt 0.136832 0.789928
vt 0.162451 0.975439
vt 0.002137 0.811148
vt 0.215866 0.870925
vt 0.411542 0.352890
vt 0.415704 0.351079
vt 0.550450 0.406344
vt 0.546346 0.408130
vt 0.405918 0.355331
vt 0.411542 0.352890
vt 0.546346 0.408130
vt 0.540801 0.410536
vt 0.077723 0.498119
vt 0.405918 0.355331
vt 0.540801 0.410536
vt 0.217203 0.551319
vt 0.002137 0.531022
vt 0.077723 0.498119
vt 0.217203 0.551319
vt 0.142675 0.583761
vt 0.918489 0.789928
vt 0.936617 0.808084
vt 0.913470 0.816548
vt 0.895299 0.798350
vt 0.107833 0.982011
vt 0.081019 0.993644
vt 0.057692 0.990078
vt 0.084569 0.978417
vt 0.960888 0.812038
vt 0.942308 0.793805
vt 0.964656 0.789928
vt 0.983192 0.808118
vt 0.002137 0.990478
vt 0.029555 0.978417
vt 0.052344 0.987060
vt 0.024990 0.999092
vt 0.131960 0.587050
vt 0.277387 0.737877
vt 0.149420 0.785902
vt 0.002137 0.633154
vt 0.838121 0.810018
vt 0.798403 0.827064
vt 0.668803 0.806864
vt 0.711127 0.789928
vt 0.495726 0.808422
vt 0.534618 0.789928
vt 0.663555 0.838026
vt 0.623096 0.855513
vt 0.113248 0.978417
vt 0.113248 0.978417
vt 0.113248 0.978417
vt 0.113248 0.978417
vt 0.113248 0.978417
vt 0.113248 0.978417
vt 0.113248 0.978417
vt 0.113248 0.978417
vt 0.113248 0.978417
vt 0.113248 0.978417
vt 0.113248 0.978417
vt 0.113248 0.978417
vt 0.113248 0.978417
vn 0 1 0
vn 0 1 0
vn 0 1 0
vn 0 1 0
vn 0 1 0
vn 0 1 0
vn 0 1 0
vn 0 1 0
vn 0 1 0
vn 0 1 0
vn 0 1 0
vn 0 1 0
vn 0 1 0
vn 0 1 0
vn 0 1 0
vn 0 1 0
vn 0 1 0
vn 0 1 0
vn 0 1 0
vn 0 1 0
vn 0 1 0
vn 0 1 0
vn 0 1 0
vn 0 1 0
vn 0 1 0
vn 0 1 0
vn 0 1 0
vn 0 1 0
vn 0 1 0
vn 0 1 0
vn 0 1 0
vn 0 1 0
vn 0 1 0
vn 0 1 0
vn 0 1 0
vn 0 1 0
vn 0 1 0
vn 0 1 0
vn 0 1 0
vn 0 1 0
vn 0 1 0
vn 0 1 0
vn 0 1 0
vn -0.06842804 0.9920589 0.1055303
vn -0.06842804 0.9920589 0.1055303
vn -0.06842804 0.9920589 0.1055303
vn -0.06851868 0.9920424 0.1056266
vn -0.06851868 0.9920424 0.1056266
vn -0.06851868 0.9920424 0.1056266
vn -0.5438955 0 0.839153
vn -0.5438955 0 0.839153
vn -0.5438955 0 0.839153
vn -0.5438955 0 0.839153
vn -0.5438955 0 0.839153
vn -0.5438955 0 0.839153
vn -0.5438955 0 0.839153
vn -0.5440567 0 0.8390484
vn -0.5440567 0 0.8390484
vn -0.5440567 0 0.8390484
vn -0.5440567 0 0.8390484
vn -0.5443329 0 0.8388693
vn -0.5443329 0 0.8388693
vn -0.5443329 0 0.8388693
vn -0.5443329 0 0.8388693
vn -0.5443329 0 0.8388693
vn -0.5443329 0 0.8388693
vn -0.5443329 0 0.8388693
vn 0.8390514 0 0.5440522
vn 0.8390514 0 0.5440522
vn 0.8390514 0 0.5440522
vn 0.8390514 0 0.5440522
vn 0.8390514 0 0.5440522
vn 0.8390514 0 0.5440522
vn 0.8390514 0 0.5440522
vn 0.8390514 0 0.5440522
vn 0.8390514 0 0.5440522
vn 0.5441206 0 -0.839007
vn 0.5441206 0 -0.839007
vn 0.5441206 0 -0.839007
vn 0.5441206 0 -0.839007
vn 0.5441206 0 -0.839007
vn 0.5441206 0 -0.839007
vn 0.5441206 0 -0.839007
vn 0.5441206 0 -0.839007
vn 0.5441206 0 -0.839007
vn -0.8389613 0 -0.5441911
vn -0.8389613 0 -0.5441911
vn -0.8389613 0 -0.5441911
vn -0.8389613 0 -0.5441911
vn -0.8397203 0 -0.5430191
vn -0.8397203 0 -0.5430191
vn -0.8397203 0 -0.5430191
vn -0.8397203 0 -0.5430191
vn -0.8390322 0 -0.5440817
vn -0.8390322 0 -0.5440817
vn -0.8390322 0 -0.5440817
vn -0.8390322 0 -0.5440817
vn -0.8388997 0 -0.5442861
vn -0.8388997 0 -0.5442861
vn -0.8388997 0 -0.5442861
vn -0.8388997 0 -0.5442861
vn -0.5564512 0 0.8308803
vn -0.5564512 0 0.8308803
vn -0.5564512 0 0.8308803
vn -0.5564512 0 0.8308803
vn 0.8308664 0 0.5564719
vn 0.8308664 0 0.5564719
vn 0.8308664 0 0.5564719
vn 0.8308664 0 0.5564719
vn 0.5564512 0 -0.8308803
vn 0.5564512 0 -0.8308803
vn 0.5564512 0 -0.8308803
vn 0.5564512 0 -0.8308803
vn -0.8308664 0 -0.5564719
vn -0.8308664 0 -0.5564719
vn -0.8308664 0 -0.5564719
vn -0.8308664 0 -0.5564719
vn -0.5442144 0 0.8389462
vn -0.5442144 0 0.8389462
vn -0.5442144 0 0.8389462
vn -0.5442144 0 0.8389462
vn 0.838877 0 0.5443211
vn 0.838877 0 0.5443211
vn 0.838877 0 0.5443211
vn 0.838877 0 0.5443211
vn -0.8389988 0 -0.5441333
vn -0.8389988 0 -0.5441333
vn -0.8389988 0 -0.5441333
vn -0.8389988 0 -0.5441333
vn 0 -1 0
vn 0 -1 0
vn 0 -1 0
vn 0 -1 0
vn 0 -1 0
vn 0 -1 0
vn 0 -1 0
vn 0 -1 0
vn 0 -1 0
vn 0 -1 0
vn 0 -1 0
vn 0 -1 0
vn 0 -1 0

g CDNNDG02_0002930
f 1/1/1 2/2/2 3/3/3
f 4/4/4 5/5/5 6/6/6
f 7/7/7 8/8/8 9/9/9
f 10/10/10 11/11/11 12/12/12
f 13/13/13 14/14/14 15/15/15
f 16/16/16 17/17/17 18/18/18
f 19/19/19 20/20/20 21/21/21
f 22/22/22 23/23/23 24/24/24
f 25/25/25 26/26/26 27/27/27
f 28/28/28 29/29/29 30/30/30
f 31/31/31 32/32/32 33/33/33
f 34/34/34 35/35/35 36/36/36
f 37/37/37 38/38/38 39/39/39
f 41/41/41 42/42/42 43/43/43
f 40/40/40 41/41/41 43/43/43
f 44/44/44 45/45/45 46/46/46
f 47/47/47 48/48/48 49/49/49
f 50/50/50 51/51/51 52/52/52
f 55/55/55 56/56/56 53/53/53
f 55/55/55 53/53/53 54/54/54
f 60/60/60 57/57/57 59/59/59
f 59/59/59 57/57/57 58/58/58
f 64/64/64 61/61/61 62/62/62
f 63/63/63 64/64/64 62/62/62
f 65/65/65 66/66/66 67/67/67
f 68/68/68 69/69/69 70/70/70
f 71/71/71 72/72/72 73/73/73
f 74/74/74 75/75/75 76/76/76
f 77/77/77 78/78/78 79/79/79
f 80/80/80 81/81/81 82/82/82
f 83/83/83 84/84/84 85/85/85
f 86/86/86 87/87/87 88/88/88
f 89/89/89 86/86/86 88/88/88
f 90/90/90 92/92/92 93/93/93
f 90/90/90 91/91/91 92/92/92
f 97/97/97 94/94/94 96/96/96
f 96/96/96 94/94/94 95/95/95
f 98/98/98 99/99/99 100/100/100
f 101/101/101 98/98/98 100/100/100
f 105/105/105 102/102/102 103/103/103
f 104/104/104 105/105/105 103/103/103
f 107/107/107 108/108/108 106/106/106
f 106/106/106 108/108/108 109/109/109
f 111/111/111 112/112/112 113/113/113
f 110/110/110 111/111/111 113/113/113
f 114/114/114 116/116/116 117/117/117
f 114/114/114 115/115/115 116/116/116
f 118/118/118 120/120/120 121/121/121
f 120/120/120 118/118/118 119/119/119
f 123/123/123 124/124/124 125/125/125
f 122/122/122 123/123/123 125/125/125
f 126/126/126 128/128/128 129/129/129
f 128/128/128 126/126/126 127/127/127
f 141/141/141 142/142/142 130/130/130
f 135/135/135 136/136/136 134/134/134
f 141/141/141 130/130/130 140/140/140
f 131/131/131 132/132/132 130/130/130
f 140/140/140 132/132/132 138/138/138
f 138/138/138 133/133/133 136/136/136
f 136/136/136 133/133/133 134/134/134
f 137/137/137 138/138/138 136/136/136
f 140/140/140 130/130/130 132/132/132
f 138/138/138 139/139/139 140/140/140
f 132/132/132 133/133/133 138/138/138
