v -2.490008 7.038082 8.21797
v -1.066008 7.038082 9.14197
v 1.887992 7.038082 4.587969
v 0.7689924 7.038082 3.862969
v 1.754992 7.038082 2.428969
v 2.727993 7.038082 3.059969
v 6.965992 7.038082 -3.477031
v 3.456992 7.038082 -5.906031
v 3.343992 7.038082 -7.11303
v 1.972992 7.038082 -7.998031
v 1.006992 7.038082 -7.585031
v 0.4719924 7.038082 -7.931031
v -6.982008 7.038082 3.562969
v -1.695008 7.038082 6.99197
v -2.490008 -7.038082 8.21797
v -1.066008 -7.038082 9.14197
v -1.066008 7.038082 9.14197
v -2.490008 7.038082 8.21797
v -1.066008 -7.038082 9.14197
v 1.887992 -7.038082 4.587969
v 1.887992 7.038082 4.587969
v -1.066008 7.038082 9.14197
v 0.7689924 7.038082 3.862969
v 1.887992 7.038082 4.587969
v 1.887992 -7.038082 4.587969
v 0.7689924 -7.038082 3.862969
v 0.7689924 -7.038082 3.862969
v 1.754992 -7.038082 2.428969
v 1.754992 7.038082 2.428969
v 0.7689924 7.038082 3.862969
v 1.754992 -7.038082 2.428969
v 2.727993 -7.038082 3.059969
v 2.727993 7.038082 3.059969
v 1.754992 7.038082 2.428969
v 2.727993 -7.038082 3.059969
v 6.965992 -7.038082 -3.477031
v 6.965992 7.038082 -3.477031
v 2.727993 7.038082 3.059969
v 3.456992 7.038082 -5.906031
v 6.965992 7.038082 -3.477031
v 6.965992 -7.038082 -3.477031
v 3.456992 -7.038082 -5.906031
v 3.343992 7.038082 -7.11303
v 3.456992 7.038082 -5.906031
v 3.456992 -7.038082 -5.906031
v 3.343992 -7.038082 -7.11303
v 1.972992 7.038082 -7.998031
v 3.343992 7.038082 -7.11303
v 3.343992 -7.038082 -7.11303
v 1.972992 -7.038082 -7.998031
v 1.006992 7.038082 -7.585031
v 1.972992 7.038082 -7.998031
v 1.972992 -7.038082 -7.998031
v 1.006992 -7.038082 -7.585031
v 0.4719924 7.038082 -7.931031
v 1.006992 7.038082 -7.585031
v 1.006992 -7.038082 -7.585031
v 0.4719924 -7.038082 -7.931031
v -6.982008 7.038082 3.562969
v 0.4719924 7.038082 -7.931031
v 0.4719924 -7.038082 -7.931031
v -6.982008 -7.038082 3.562969
v -4.338508 -7.038082 5.27747
v -1.695008 -7.038082 6.99197
v -1.695008 7.038082 6.99197
v -6.982008 7.038082 3.562969
v -6.982008 -7.038082 3.562969
v -4.338508 -7.038082 5.27747
v -6.982008 7.038082 3.562969
v -4.338508 -7.038082 5.27747
v -1.695008 7.038082 6.99197
v -2.490008 7.038082 8.21797
v -1.695008 7.038082 6.99197
v -1.695008 -7.038082 6.99197
v -2.490008 -7.038082 8.21797
v -1.695008 -7.038082 6.99197
v -4.338508 -7.038082 5.27747
v -6.982008 -7.038082 3.562969
v 0.4719924 -7.038082 -7.931031
v 1.006992 -7.038082 -7.585031
v 1.972992 -7.038082 -7.998031
v 3.343992 -7.038082 -7.11303
v 3.456992 -7.038082 -5.906031
v 6.965992 -7.038082 -3.477031
v 2.727993 -7.038082 3.059969
v 1.754992 -7.038082 2.428969
v 0.7689924 -7.038082 3.862969
v 1.887992 -7.038082 4.587969
v -1.066008 -7.038082 9.14197
v -2.490008 -7.038082 8.21797
vt 0.036484 0.238740
vt 0.002096 0.203314
vt 0.169356 0.129074
vt 0.196337 0.156914
vt 0.248994 0.132143
vt 0.225511 0.107936
vt 0.465617 0.001420
vt 0.555957 0.088706
vt 0.600488 0.091386
vt 0.633423 0.125496
vt 0.618406 0.149649
vt 0.631282 0.162959
vt 0.209121 0.350286
vt 0.081512 0.218761
vt 0.734426 0.740057
vt 0.767295 0.774043
vt 0.576424 0.818999
vt 0.542977 0.784417
vt 0.357616 0.787761
vt 0.195990 0.858926
vt 0.002096 0.812470
vt 0.166552 0.740057
vt 0.798245 0.815812
vt 0.771488 0.788368
vt 0.922124 0.740057
vt 0.948412 0.767021
vt 0.413207 0.908769
vt 0.362453 0.932329
vt 0.167715 0.886189
vt 0.219357 0.862216
vt 0.614284 0.862216
vt 0.636724 0.885379
vt 0.442122 0.931805
vt 0.419287 0.908236
vt 0.433434 0.634278
vt 0.201204 0.736612
vt 0.002096 0.692197
vt 0.238392 0.588068
vt 0.527992 0.721257
vt 0.438155 0.634539
vt 0.584067 0.588068
vt 0.672331 0.673270
vt 0.205613 0.987305
vt 0.161426 0.984687
vt 0.305452 0.937500
vt 0.348867 0.940072
vt 0.395338 0.821446
vt 0.362683 0.787778
vt 0.505825 0.740057
vt 0.537908 0.773136
vt 0.002096 0.885998
vt 0.017211 0.862216
vt 0.162032 0.910055
vt 0.147181 0.933420
vt 0.014842 0.999032
vt 0.002096 0.985965
vt 0.144699 0.937500
vt 0.157222 0.950339
vt 0.002096 0.539319
vt 0.426358 0.353693
vt 0.572566 0.401516
vt 0.155725 0.583890
vt 0.834666 0.417390
vt 0.895824 0.481086
vt 0.703085 0.526207
vt 0.578616 0.396579
vt 0.773507 0.353693
vt 0.834666 0.417390
vt 0.578616 0.396579
vt 0.834666 0.417390
vt 0.703085 0.526207
vt 0.641509 0.881711
vt 0.686459 0.862216
vt 0.841264 0.908385
vt 0.797101 0.927539
vt 0.354298 0.937500
vt 0.354298 0.937500
vt 0.354298 0.937500
vt 0.354298 0.937500
vt 0.354298 0.937500
vt 0.354298 0.937500
vt 0.354298 0.937500
vt 0.354298 0.937500
vt 0.354298 0.937500
vt 0.354298 0.937500
vt 0.354298 0.937500
vt 0.354298 0.937500
vt 0.354298 0.937500
vt 0.354298 0.937500
vt 0.354298 0.937500
vn 0 1 0
vn 0 1 0
vn 0 1 0
vn 0 1 0
vn 0 1 0
vn 0 1 0
vn 0 1 0
vn 0 1 0
vn 0 1 0
vn 0 1 0
vn 0 1 0
vn 0 1 0
vn 0 1 0
vn 0 1 0
vn -0.5443256 0 0.838874
vn -0.5443256 0 0.838874
vn -0.5443256 0 0.838874
vn -0.5443256 0 0.838874
vn 0.8389567 0 0.5441981
vn 0.8389567 0 0.5441981
vn 0.8389567 0 0.5441981
vn 0.8389567 0 0.5441981
vn 0.5437487 0 -0.8392481
vn 0.5437487 0 -0.8392481
vn 0.5437487 0 -0.8392481
vn 0.5437487 0 -0.8392481
vn 0.8240084 0 0.5665776
vn 0.8240084 0 0.5665776
vn 0.8240084 0 0.5665776
vn 0.8240084 0 0.5665776
vn -0.5441091 0 0.8390145
vn -0.5441091 0 0.8390145
vn -0.5441091 0 0.8390145
vn -0.5441091 0 0.8390145
vn 0.8390911 0 0.5439909
vn 0.8390911 0 0.5439909
vn 0.8390911 0 0.5439909
vn 0.8390911 0 0.5439909
vn 0.5691612 0 -0.8222259
vn 0.5691612 0 -0.8222259
vn 0.5691612 0 -0.8222259
vn 0.5691612 0 -0.8222259
vn 0.9956462 0 -0.09321294
vn 0.9956462 0 -0.09321294
vn 0.9956462 0 -0.09321294
vn 0.9956462 0 -0.09321294
vn 0.5423362 0 -0.8401616
vn 0.5423362 0 -0.8401616
vn 0.5423362 0 -0.8401616
vn 0.5423362 0 -0.8401616
vn -0.393115 0 -0.9194893
vn -0.393115 0 -0.9194893
vn -0.393115 0 -0.9194893
vn -0.393115 0 -0.9194893
vn 0.543056 0 -0.8396965
vn 0.543056 0 -0.8396965
vn 0.543056 0 -0.8396965
vn 0.543056 0 -0.8396965
vn -0.8390135 0 -0.5441105
vn -0.8390135 0 -0.5441105
vn -0.8390135 0 -0.5441105
vn -0.8390135 0 -0.5441105
vn -0.5441458 0 0.8389906
vn -0.5441458 0 0.8389906
vn -0.5441458 0 0.8389906
vn -0.5441458 0 0.8389906
vn -0.5441458 0 0.8389906
vn -0.5441458 0 0.8389906
vn -0.5441458 0 0.8389906
vn -0.5441458 0 0.8389906
vn -0.5441458 0 0.8389906
vn -0.8390373 0 -0.5440739
vn -0.8390373 0 -0.5440739
vn -0.8390373 0 -0.5440739
vn -0.8390373 0 -0.5440739
vn 0 -1 0
vn 0 -1 0
vn 0 -1 0
vn 0 -1 0
vn 0 -1 0
vn 0 -1 0
vn 0 -1 0
vn 0 -1 0
vn 0 -1 0
vn 0 -1 0
vn 0 -1 0
vn 0 -1 0
vn 0 -1 0
vn 0 -1 0
vn 0 -1 0

g CDNNDG02_0001410
f 14/14/14 4/4/4 13/13/13
f 14/14/14 1/1/1 2/2/2
f 5/5/5 12/12/12 13/13/13
f 3/3/3 4/4/4 14/14/14
f 2/2/2 3/3/3 14/14/14
f 4/4/4 5/5/5 13/13/13
f 9/9/9 11/11/11 8/8/8
f 10/10/10 11/11/11 9/9/9
f 7/7/7 5/5/5 6/6/6
f 7/7/7 8/8/8 5/5/5
f 12/12/12 5/5/5 11/11/11
f 11/11/11 5/5/5 8/8/8
f 15/15/15 17/17/17 18/18/18
f 17/17/17 15/15/15 16/16/16
f 19/19/19 21/21/21 22/22/22
f 19/19/19 20/20/20 21/21/21
f 25/25/25 23/23/23 24/24/24
f 23/23/23 25/25/25 26/26/26
f 28/28/28 29/29/29 27/27/27
f 27/27/27 29/29/29 30/30/30
f 31/31/31 33/33/33 34/34/34
f 33/33/33 31/31/31 32/32/32
f 36/36/36 37/37/37 35/35/35
f 35/35/35 37/37/37 38/38/38
f 39/39/39 41/41/41 42/42/42
f 39/39/39 40/40/40 41/41/41
f 46/46/46 43/43/43 45/45/45
f 45/45/45 43/43/43 44/44/44
f 47/47/47 49/49/49 50/50/50
f 47/47/47 48/48/48 49/49/49
f 52/52/52 53/53/53 51/51/51
f 51/51/51 53/53/53 54/54/54
f 57/57/57 58/58/58 56/56/56
f 55/55/55 56/56/56 58/58/58
f 59/59/59 61/61/61 62/62/62
f 59/59/59 60/60/60 61/61/61
f 63/63/63 64/64/64 65/65/65
f 66/66/66 67/67/67 68/68/68
f 69/69/69 70/70/70 71/71/71
f 72/72/72 74/74/74 75/75/75
f 72/72/72 73/73/73 74/74/74
f 89/89/89 76/76/76 88/88/88
f 88/88/88 76/76/76 87/87/87
f 90/90/90 76/76/76 89/89/89
f 86/86/86 78/78/78 79/79/79
f 86/86/86 79/79/79 80/80/80
f 87/87/87 76/76/76 77/77/77
f 80/80/80 82/82/82 83/83/83
f 81/81/81 82/82/82 80/80/80
f 86/86/86 80/80/80 83/83/83
f 86/86/86 83/83/83 84/84/84
f 78/78/78 86/86/86 87/87/87
f 84/84/84 85/85/85 86/86/86
f 78/78/78 87/87/87 77/77/77
