v -8.796398 4.066732 -6.308778
v 3.400602 4.067979 -6.480778
v 1.622602 4.067731 -10.69578
v -1.640398 4.067731 10.68922
v 8.790602 4.068731 6.298222
v 7.790602 4.068591 3.926222
v -1.640398 4.067731 10.68922
v 6.473602 4.068449 3.500222
v 3.400602 4.067979 -6.480778
v 3.400602 4.067979 -6.480778
v 6.473602 4.068449 3.500222
v 7.438602 4.068542 3.093222
v -1.640398 4.067731 10.68922
v 6.598333 4.068467 3.796237
v 6.473602 4.068449 3.500222
v -8.796398 4.066732 -6.308778
v -1.640398 4.067731 10.68922
v 3.400602 4.067979 -6.480778
v -1.640398 4.067731 10.68922
v 6.824602 4.068499 4.333221
v 6.598333 4.068467 3.796237
v -1.640398 4.067731 10.68922
v 7.790602 4.068591 3.926222
v 6.824602 4.068499 4.333221
v 6.824602 5.320721 4.333221
v 7.438602 5.320721 3.093222
v 6.473602 5.320721 3.500222
v 7.790602 5.320721 3.926222
v -8.796398 4.066732 -6.308778
v -3.586898 -4.074288 -8.502278
v -8.796398 -4.074288 -6.308778
v -3.586898 -4.074288 -8.502278
v 1.622602 4.067731 -10.69578
v 1.622602 -4.074288 -10.69578
v -8.796398 4.066732 -6.308778
v 1.622602 4.067731 -10.69578
v -3.586898 -4.074288 -8.502278
v -5.218398 -4.074288 2.190222
v -1.640398 -4.074288 10.68922
v -1.640398 4.067731 10.68922
v -8.796398 4.066732 -6.308778
v -8.796398 -4.074288 -6.308778
v -5.218398 -4.074288 2.190222
v -8.796398 4.066732 -6.308778
v -5.218398 -4.074288 2.190222
v -1.640398 4.067731 10.68922
v -1.640398 4.067731 10.68922
v -1.640398 -4.074288 10.68922
v 8.790602 -4.074288 6.298222
v 8.790602 4.068731 6.298222
v 7.790602 -4.074288 3.926222
v 7.790602 4.068591 3.926222
v 8.790602 -4.074288 6.298222
v 8.790602 4.068731 6.298222
v 7.438602 4.068542 3.093222
v 7.790602 -4.074288 3.926222
v 7.438602 -4.074288 3.093222
v 7.790602 4.068591 3.926222
v 3.400602 4.067979 -6.480778
v 5.419602 -4.074288 -1.693778
v 3.400602 -4.074288 -6.480778
v 5.419602 -4.074288 -1.693778
v 7.438602 4.068542 3.093222
v 7.438602 -4.074288 3.093222
v 3.400602 4.067979 -6.480778
v 7.438602 4.068542 3.093222
v 5.419602 -4.074288 -1.693778
v 1.622602 4.067731 -10.69578
v 3.400602 -4.074288 -6.480778
v 1.622602 -4.074288 -10.69578
v 3.400602 4.067979 -6.480778
v 7.438602 5.320721 3.093222
v 7.790602 4.068591 3.926222
v 7.438602 4.068542 3.093222
v 7.790602 5.320721 3.926222
v 6.824602 5.320721 4.333221
v 7.790602 4.068591 3.926222
v 7.790602 5.320721 3.926222
v 6.824602 4.068499 4.333221
v 6.473602 5.320721 3.500222
v 7.438602 4.068542 3.093222
v 6.473602 4.068449 3.500222
v 7.438602 5.320721 3.093222
v 6.598333 4.068467 3.796237
v 6.824602 4.068499 4.333221
v 6.824602 5.320721 4.333221
v 6.473602 5.320721 3.500222
v 6.473602 4.068449 3.500222
v 6.598333 4.068467 3.796237
v 6.473602 5.320721 3.500222
v 6.598333 4.068467 3.796237
v 6.824602 5.320721 4.333221
v -3.586898 -4.074288 -8.502278
v 1.622602 -4.074288 -10.69578
v 3.400602 -4.074288 -6.480778
v -1.640398 -4.074288 10.68922
v 7.790602 -4.074288 3.926222
v 8.790602 -4.074288 6.298222
v -5.218398 -4.074288 2.190222
v 5.419602 -4.074288 -1.693778
v -8.796398 -4.074288 -6.308778
v 7.438602 -4.074288 3.093222
vt 0.104096 0.328052
vt 0.094485 0.520832
vt 0.001314 0.491300
vt 0.479850 0.446930
vt 0.376951 0.610354
vt 0.324521 0.593745
vt 0.479850 0.446930
vt 0.315645 0.572781
vt 0.094485 0.520832
vt 0.094485 0.520832
vt 0.315645 0.572781
vt 0.306109 0.587899
vt 0.479850 0.446930
vt 0.322188 0.574853
vt 0.315645 0.572781
vt 0.104096 0.328052
vt 0.479850 0.446930
vt 0.094485 0.520832
vt 0.479850 0.446930
vt 0.334058 0.578611
vt 0.322188 0.574853
vt 0.479850 0.446930
vt 0.324521 0.593745
vt 0.334058 0.578611
vt 0.915097 0.849965
vt 0.888305 0.858892
vt 0.897446 0.844362
vt 0.905955 0.864511
vt 0.530171 0.649538
vt 0.483525 0.692862
vt 0.533920 0.612302
vt 0.483525 0.692862
vt 0.428384 0.812254
vt 0.433133 0.773417
vt 0.530171 0.649538
vt 0.428384 0.812254
vt 0.483525 0.692862
vt 0.190881 0.902998
vt 0.376661 0.961634
vt 0.376567 0.999987
vt 0.001314 0.881548
vt 0.005096 0.844362
vt 0.190881 0.902998
vt 0.001314 0.881548
vt 0.190881 0.902998
vt 0.376567 0.999987
vt 0.637337 0.612302
vt 0.637377 0.643023
vt 0.538475 0.805776
vt 0.537451 0.776672
vt 0.832313 0.973820
vt 0.830761 0.944602
vt 0.884490 0.989912
vt 0.883457 0.960854
vt 0.812255 0.938882
vt 0.832313 0.973820
vt 0.813990 0.968156
vt 0.830761 0.944602
vt 0.599557 0.873258
vt 0.708689 0.935667
vt 0.603386 0.903177
vt 0.708689 0.935667
vt 0.812255 0.938882
vt 0.813990 0.968156
vt 0.599557 0.873258
vt 0.812255 0.938882
vt 0.708689 0.935667
vt 0.505913 0.844362
vt 0.603386 0.903177
vt 0.510665 0.874564
vt 0.599557 0.873258
vt 0.811985 0.934329
vt 0.830761 0.944602
vt 0.812255 0.938882
vt 0.830519 0.940058
vt 0.938573 0.844362
vt 0.930567 0.863349
vt 0.930355 0.858984
vt 0.938772 0.848750
vt 0.926906 0.850287
vt 0.918774 0.858842
vt 0.927139 0.844362
vt 0.918528 0.864789
vt 0.948550 0.846278
vt 0.959652 0.849755
vt 0.959430 0.855482
vt 0.942181 0.850080
vt 0.942430 0.844362
vt 0.948550 0.846278
vt 0.942181 0.850080
vt 0.948550 0.846278
vt 0.959430 0.855482
vt 0.969777 0.844362
vt 0.969777 0.844362
vt 0.969777 0.844362
vt 0.969777 0.844362
vt 0.969777 0.844362
vt 0.969777 0.844362
vt 0.969777 0.844362
vt 0.969777 0.844362
vt 0.969777 0.844362
vt 0.969777 0.844362
vn -0.0001024488 1 -1.563131E-05
vn -0.0001024488 1 -1.563131E-05
vn -0.0001024488 1 -1.563131E-05
vn -0.0001024488 1 -1.563286E-05
vn -0.0001024488 1 -1.563286E-05
vn -0.0001024488 1 -1.563286E-05
vn -0.0001024472 1 -1.563169E-05
vn -0.0001024472 1 -1.563169E-05
vn -0.0001024472 1 -1.563169E-05
vn -0.0001024569 1 -1.56287E-05
vn -0.0001024569 1 -1.56287E-05
vn -0.0001024569 1 -1.56287E-05
vn -0.0001024567 1 -1.564245E-05
vn -0.0001024567 1 -1.564245E-05
vn -0.0001024567 1 -1.564245E-05
vn -0.0001024489 1 -1.563219E-05
vn -0.0001024489 1 -1.563219E-05
vn -0.0001024489 1 -1.563219E-05
vn -0.0001024539 1 -1.563907E-05
vn -0.0001024539 1 -1.563907E-05
vn -0.0001024539 1 -1.563907E-05
vn -0.0001024413 1 -1.562233E-05
vn -0.0001024413 1 -1.562233E-05
vn -0.0001024413 1 -1.562233E-05
vn 0 1 0
vn 0 1 0
vn 0 1 0
vn 0 1 0
vn -0.388061 0 -0.9216337
vn -0.388061 0 -0.9216337
vn -0.388061 0 -0.9216337
vn -0.388061 0 -0.9216337
vn -0.388061 0 -0.9216337
vn -0.388061 0 -0.9216337
vn -0.388061 1.387206E-12 -0.9216337
vn -0.388061 1.387206E-12 -0.9216337
vn -0.388061 1.387206E-12 -0.9216337
vn -0.9216558 0 0.3880085
vn -0.9216558 0 0.3880085
vn -0.9216558 0 0.3880085
vn -0.9216558 0 0.3880085
vn -0.9216558 0 0.3880085
vn -0.9216558 0 0.3880085
vn -0.9216558 1.889781E-11 0.3880085
vn -0.9216558 1.889781E-11 0.3880085
vn -0.9216558 1.889781E-11 0.3880085
vn 0.387982 0 0.921667
vn 0.387982 0 0.921667
vn 0.387982 0 0.921667
vn 0.387982 0 0.921667
vn 0.9214598 0 -0.3884738
vn 0.9214598 0 -0.3884738
vn 0.9214598 0 -0.3884738
vn 0.9214598 0 -0.3884738
vn 0.9211351 0 -0.3892432
vn 0.9211351 0 -0.3892432
vn 0.9211351 0 -0.3892432
vn 0.9211351 0 -0.3892432
vn 0.9213997 0 -0.3886163
vn 0.9213997 0 -0.3886163
vn 0.9213997 0 -0.3886163
vn 0.9213997 0 -0.3886163
vn 0.9213997 0 -0.3886163
vn 0.9213997 0 -0.3886163
vn 0.9213997 1.893106E-11 -0.3886163
vn 0.9213997 1.893106E-11 -0.3886163
vn 0.9213997 1.893106E-11 -0.3886163
vn 0.92138 0 -0.3886628
vn 0.92138 0 -0.3886628
vn 0.92138 0 -0.3886628
vn 0.92138 0 -0.3886628
vn 0.9211351 0 -0.3892432
vn 0.9211351 0 -0.3892432
vn 0.9211351 0 -0.3892432
vn 0.9211351 0 -0.3892432
vn 0.3882702 0 0.9215456
vn 0.3882702 0 0.9215456
vn 0.3882702 0 0.9215456
vn 0.3882702 0 0.9215456
vn -0.3886119 0 -0.9214016
vn -0.3886119 0 -0.9214016
vn -0.3886119 0 -0.9214016
vn -0.3886119 0 -0.9214016
vn -0.9215312 0 0.3883043
vn -0.9215312 0 0.3883043
vn -0.9215312 0 0.3883043
vn -0.9215312 0 0.3883043
vn -0.9215312 0 0.3883043
vn -0.9215312 0 0.3883043
vn -0.9215312 5.802232E-10 0.3883043
vn -0.9215312 5.802232E-10 0.3883043
vn -0.9215312 5.802232E-10 0.3883043
vn 0 -1 0
vn 0 -1 0
vn 0 -1 0
vn 0 -1 0
vn 0 -1 0
vn 0 -1 0
vn 0 -1 0
vn 0 -1 0
vn 0 -1 0
vn 0 -1 0

g CDNNDG02_0017810
f 1/1/1 2/2/2 3/3/3
f 4/4/4 5/5/5 6/6/6
f 7/7/7 8/8/8 9/9/9
f 10/10/10 11/11/11 12/12/12
f 13/13/13 14/14/14 15/15/15
f 16/16/16 17/17/17 18/18/18
f 19/19/19 20/20/20 21/21/21
f 22/22/22 23/23/23 24/24/24
f 25/25/25 26/26/26 27/27/27
f 25/25/25 28/28/28 26/26/26
f 29/29/29 30/30/30 31/31/31
f 32/32/32 33/33/33 34/34/34
f 35/35/35 36/36/36 37/37/37
f 38/38/38 39/39/39 40/40/40
f 41/41/41 42/42/42 43/43/43
f 44/44/44 45/45/45 46/46/46
f 47/47/47 48/48/48 49/49/49
f 50/50/50 47/47/47 49/49/49
f 51/51/51 52/52/52 53/53/53
f 53/53/53 52/52/52 54/54/54
f 55/55/55 56/56/56 57/57/57
f 56/56/56 55/55/55 58/58/58
f 59/59/59 60/60/60 61/61/61
f 62/62/62 63/63/63 64/64/64
f 65/65/65 66/66/66 67/67/67
f 68/68/68 69/69/69 70/70/70
f 69/69/69 68/68/68 71/71/71
f 72/72/72 73/73/73 74/74/74
f 73/73/73 72/72/72 75/75/75
f 76/76/76 77/77/77 78/78/78
f 76/76/76 79/79/79 77/77/77
f 80/80/80 81/81/81 82/82/82
f 80/80/80 83/83/83 81/81/81
f 84/84/84 85/85/85 86/86/86
f 87/87/87 88/88/88 89/89/89
f 90/90/90 91/91/91 92/92/92
f 93/93/93 94/94/94 95/95/95
f 96/96/96 97/97/97 98/98/98
f 99/99/99 93/93/93 95/95/95
f 99/99/99 95/95/95 100/100/100
f 101/101/101 93/93/93 99/99/99
f 99/99/99 100/100/100 102/102/102
f 96/96/96 102/102/102 97/97/97
f 99/99/99 102/102/102 96/96/96
