v -2.509909 5.234174 -1.431237
v 0.7040914 5.234174 6.458763
v -2.132236 5.234174 -2.02284
v -3.498909 5.234174 -2.063237
v 0.7040914 5.234174 6.458763
v -2.509909 5.234174 -1.431237
v -2.610909 5.234174 -3.454237
v 0.5777976 5.234174 -7.332187
v 0.07009138 5.234174 -7.651237
v -7.138908 5.234174 3.634763
v 0.1770914 5.234174 8.308763
v 0.7040914 5.234174 6.458763
v -2.610909 5.234174 -3.454237
v 7.128091 5.234174 -3.598238
v 0.6190914 5.234174 -7.306237
v 0.6190914 5.234174 -7.306237
v 7.128091 5.234174 -3.598238
v 0.8200704 5.234174 -7.626828
v -2.610909 5.234174 -3.454237
v 0.6190914 5.234174 -7.306237
v 0.5777976 5.234174 -7.332187
v 0.1770914 5.234174 8.308763
v 1.169091 5.234174 6.754763
v 0.7040914 5.234174 6.458763
v -7.138908 5.234174 3.634763
v 0.7040914 5.234174 6.458763
v -3.498909 5.234174 -2.063237
v -2.132236 5.234174 -2.02284
v 0.7040914 5.234174 6.458763
v 7.128091 5.234174 -3.598238
v -2.610909 5.234174 -3.454237
v -1.621909 5.234174 -2.822237
v 7.128091 5.234174 -3.598238
v -2.132236 5.234174 -2.02284
v 7.128091 5.234174 -3.598238
v -1.621909 5.234174 -2.822237
v -2.509909 5.342174 -1.431237
v -1.621909 5.342174 -2.822237
v -2.383909 5.774174 -2.743237
v -2.824909 5.774174 -2.071237
v -2.509909 5.342174 -1.431237
v -2.383909 5.774174 -2.743237
v -2.610909 5.342174 -3.454237
v -2.383909 5.774174 -2.743237
v -1.621909 5.342174 -2.822237
v -3.498909 5.342174 -2.063237
v -2.509909 5.342174 -1.431237
v -2.824909 5.774174 -2.071237
v -3.498909 5.342174 -2.063237
v -2.824909 5.774174 -2.071237
v -2.383909 5.774174 -2.743237
v -3.498909 5.342174 -2.063237
v -2.383909 5.774174 -2.743237
v -2.610909 5.342174 -3.454237
v -0.5259086 6.475173 -8.024238
v 0.2760914 6.475173 -7.974237
v -0.3191498 6.474755 -8.354465
v -0.3191498 6.474755 -8.354465
v 0.4640914 6.474174 -8.268237
v -0.1339226 6.47438 -8.650304
v -0.1339226 6.47438 -8.650304
v 0.4640914 6.474174 -8.268237
v -0.03190862 6.474174 -8.813237
v -0.3191498 6.474755 -8.354465
v 0.2760914 6.475173 -7.974237
v 0.4640914 6.474174 -8.268237
v -0.5259086 6.475173 -8.024238
v 0.07009138 6.475173 -7.651237
v 0.2760914 6.475173 -7.974237
v -0.03190862 6.474174 -8.813237
v 0.4640914 6.474174 -8.268237
v 0.5710914 6.474174 -8.435238
v 0.4640914 6.474174 -8.268237
v 1.113091 6.475173 -8.094237
v 0.5710914 6.474174 -8.435238
v 0.4640914 6.474174 -8.268237
v 0.8200704 6.475173 -7.626828
v 1.113091 6.475173 -8.094237
v 0.07009138 6.475173 -7.651237
v 0.6190914 6.475173 -7.306237
v 0.8200704 6.475173 -7.626828
v 0.2760914 6.475173 -7.974237
v 0.2760914 6.475173 -7.974237
v 0.8200704 6.475173 -7.626828
v 0.4640914 6.474174 -8.268237
v -7.138908 -5.254475 3.634763
v 0.1770914 -5.254475 8.308763
v 0.1770914 5.234174 8.308763
v -7.138908 5.234174 3.634763
v 0.1770914 -5.254475 8.308763
v 1.169091 -5.254475 6.754763
v 1.169091 5.234174 6.754763
v 0.1770914 5.234174 8.308763
v 0.7040914 5.234174 6.458763
v 1.169091 5.234174 6.754763
v 1.169091 -5.254475 6.754763
v 0.7040914 -5.254475 6.458763
v 0.7040914 -5.254475 6.458763
v 7.128091 -5.254475 -3.598238
v 7.128091 5.234174 -3.598238
v 0.7040914 5.234174 6.458763
v 0.8200704 5.234174 -7.626828
v 7.128091 5.234174 -3.598238
v 7.128091 -5.254475 -3.598238
v 0.8200704 -5.254475 -7.626828
v -2.610909 5.234174 -3.454237
v 0.07009138 5.234174 -7.651237
v 0.07009138 -5.254475 -7.651237
v -2.610909 -5.254475 -3.454237
v -3.498909 5.234174 -2.063237
v -2.610909 5.234174 -3.454237
v -2.610909 -5.254475 -3.454237
v -3.498909 -5.254475 -2.063237
v -7.138908 5.234174 3.634763
v -5.318909 -5.254475 0.7857625
v -7.138908 -5.254475 3.634763
v -5.318909 -5.254475 0.7857625
v -3.498909 5.234174 -2.063237
v -3.498909 -5.254475 -2.063237
v -7.138908 5.234174 3.634763
v -3.498909 5.234174 -2.063237
v -5.318909 -5.254475 0.7857625
v -3.498909 5.342174 -2.063237
v -2.610909 5.342174 -3.454237
v -2.610909 5.234174 -3.454237
v -3.498909 5.234174 -2.063237
v -2.132236 5.234174 -2.02284
v -1.621909 5.234174 -2.822237
v -1.621909 5.342174 -2.822237
v -2.509909 5.342174 -1.431237
v -2.509909 5.234174 -1.431237
v -2.132236 5.234174 -2.02284
v -2.509909 5.342174 -1.431237
v -2.132236 5.234174 -2.02284
v -1.621909 5.342174 -2.822237
v -2.610909 5.342174 -3.454237
v -1.621909 5.342174 -2.822237
v -1.621909 5.234174 -2.822237
v -2.610909 5.234174 -3.454237
v -3.498909 5.234174 -2.063237
v -2.509909 5.234174 -1.431237
v -2.509909 5.342174 -1.431237
v -3.498909 5.342174 -2.063237
v -0.5259086 6.475173 -8.024238
v 0.07009138 5.234174 -7.651237
v 0.07009138 6.475173 -7.651237
v -0.5259086 -5.254475 -8.024238
v 0.07009138 -5.254475 -7.651237
v 0.07009138 5.234174 -7.651237
v -0.5259086 6.475173 -8.024238
v 0.5777976 5.234174 -7.332187
v 0.6190914 5.234174 -7.306237
v 0.6190914 6.475173 -7.306237
v 0.07009138 5.234174 -7.651237
v 0.5777976 5.234174 -7.332187
v 0.6190914 6.475173 -7.306237
v 0.07009138 6.475173 -7.651237
v -0.03190862 6.474174 -8.813237
v 0.2695914 -5.254475 -8.624237
v -0.03190862 -5.254475 -8.813237
v 0.2695914 -5.254475 -8.624237
v 0.5710914 6.474174 -8.435238
v 0.5710914 -5.254475 -8.435238
v -0.03190862 6.474174 -8.813237
v 0.5710914 6.474174 -8.435238
v 0.2695914 -5.254475 -8.624237
v 0.5710914 6.474174 -8.435238
v 0.8420914 -5.254475 -8.264737
v 0.5710914 -5.254475 -8.435238
v 0.8420914 -5.254475 -8.264737
v 1.113091 6.475173 -8.094237
v 1.113091 -5.254475 -8.094237
v 0.5710914 6.474174 -8.435238
v 1.113091 6.475173 -8.094237
v 0.8420914 -5.254475 -8.264737
v -0.1339226 6.47438 -8.650304
v -0.03190862 6.474174 -8.813237
v -0.03190862 -5.254475 -8.813237
v -0.1339226 -5.254475 -8.650304
v -0.3191498 6.474755 -8.354465
v -0.2265362 -5.254475 -8.502385
v -0.3191498 -5.254475 -8.354465
v -0.2265362 -5.254475 -8.502385
v -0.1339226 6.47438 -8.650304
v -0.1339226 -5.254475 -8.650304
v -0.3191498 6.474755 -8.354465
v -0.1339226 6.47438 -8.650304
v -0.2265362 -5.254475 -8.502385
v -0.5259086 6.475173 -8.024238
v -0.3191498 6.474755 -8.354465
v -0.3191498 -5.254475 -8.354465
v -0.5259086 -5.254475 -8.024238
v 0.8200704 -5.254475 -7.626828
v 1.113091 -5.254475 -8.094237
v 1.113091 6.475173 -8.094237
v 0.8200704 5.234174 -7.626828
v 0.8200704 6.475173 -7.626828
v 0.8200704 5.234174 -7.626828
v 1.113091 6.475173 -8.094237
v 0.6190914 5.234174 -7.306237
v 0.8200704 5.234174 -7.626828
v 0.8200704 6.475173 -7.626828
v 0.6190914 6.475173 -7.306237
v -0.5259086 -5.254475 -8.024238
v -0.3191498 -5.254475 -8.354465
v -0.2265362 -5.254475 -8.502385
v -0.1339226 -5.254475 -8.650304
v -0.03190862 -5.254475 -8.813237
v 0.2695914 -5.254475 -8.624237
v 0.5710914 -5.254475 -8.435238
v 0.8420914 -5.254475 -8.264737
v 1.113091 -5.254475 -8.094237
v 0.8200704 -5.254475 -7.626828
v 7.128091 -5.254475 -3.598238
v 0.7040914 -5.254475 6.458763
v 1.169091 -5.254475 6.754763
v 0.1770914 -5.254475 8.308763
v -7.138908 -5.254475 3.634763
v -5.318909 -5.254475 0.7857625
v -3.498909 -5.254475 -2.063237
v -2.610909 -5.254475 -3.454237
v 0.07009138 -5.254475 -7.651237
vt 0.242523 0.133584
vt 0.541641 0.232314
vt 0.219552 0.144231
vt 0.219204 0.104330
vt 0.541641 0.232314
vt 0.242523 0.133584
vt 0.165194 0.129366
vt 0.013997 0.219963
vt 0.002232 0.204950
vt 0.440460 0.001704
vt 0.612902 0.218101
vt 0.541641 0.232314
vt 0.165194 0.129366
vt 0.151145 0.413411
vt 0.014954 0.221184
vt 0.014954 0.221184
vt 0.151145 0.413411
vt 0.002509 0.226846
vt 0.165194 0.129366
vt 0.014954 0.221184
vt 0.013997 0.219963
vt 0.612902 0.218101
vt 0.552560 0.246067
vt 0.541641 0.232314
vt 0.440460 0.001704
vt 0.541641 0.232314
vt 0.219204 0.104330
vt 0.219552 0.144231
vt 0.541641 0.232314
vt 0.151145 0.413411
vt 0.165194 0.129366
vt 0.188512 0.158618
vt 0.151145 0.413411
vt 0.219552 0.144231
vt 0.151145 0.413411
vt 0.188512 0.158618
vt 0.810268 0.914657
vt 0.862700 0.890971
vt 0.865855 0.914526
vt 0.840497 0.926310
vt 0.810268 0.914657
vt 0.865855 0.914526
vt 0.933036 0.890971
vt 0.963129 0.895606
vt 0.954900 0.918763
vt 0.054185 0.998738
vt 0.031250 0.971039
vt 0.061420 0.978636
vt 0.922743 0.890971
vt 0.926796 0.910945
vt 0.901550 0.922824
vt 0.922743 0.890971
vt 0.901550 0.922824
vt 0.870536 0.914856
vt 0.779612 0.890971
vt 0.780782 0.913722
vt 0.767218 0.896626
vt 0.767218 0.896626
vt 0.769738 0.918865
vt 0.756115 0.901691
vt 0.756115 0.901691
vt 0.769738 0.918865
vt 0.750000 0.904481
vt 0.767218 0.896626
vt 0.780782 0.913722
vt 0.769738 0.918865
vt 0.779612 0.890971
vt 0.792904 0.908083
vt 0.780782 0.913722
vt 0.750000 0.904481
vt 0.769738 0.918865
vt 0.763471 0.921795
vt 0.769738 0.918865
vt 0.775636 0.937360
vt 0.763471 0.921795
vt 0.769738 0.918865
vt 0.793172 0.929344
vt 0.775636 0.937360
vt 0.792904 0.908083
vt 0.805199 0.923846
vt 0.793172 0.929344
vt 0.780782 0.913722
vt 0.780782 0.913722
vt 0.793172 0.929344
vt 0.769738 0.918865
vt 0.796556 0.245669
vt 0.618304 0.033030
vt 0.790054 0.001704
vt 0.970631 0.217127
vt 0.727679 0.682693
vt 0.787226 0.655877
vt 0.954613 0.711258
vt 0.894294 0.738421
vt 0.566850 0.890971
vt 0.577640 0.904449
vt 0.452618 0.954366
vt 0.441964 0.941060
vt 0.274554 0.593305
vt 0.662188 0.417376
vt 0.835707 0.471380
vt 0.443050 0.649582
vt 0.121256 0.417376
vt 0.269323 0.603673
vt 0.148412 0.652397
vt 0.002232 0.468481
vt 0.284258 0.812023
vt 0.121354 0.887366
vt 0.002232 0.855889
vt 0.163055 0.781508
vt 0.338250 0.787068
vt 0.284258 0.812023
vt 0.163055 0.781508
vt 0.216357 0.756871
vt 0.559428 0.684769
vt 0.325531 0.706375
vt 0.434708 0.655877
vt 0.325531 0.706375
vt 0.338250 0.787068
vt 0.216357 0.756871
vt 0.559428 0.684769
vt 0.338250 0.787068
vt 0.325531 0.706375
vt 0.339522 0.787383
vt 0.285523 0.812342
vt 0.284258 0.812023
vt 0.338250 0.787068
vt 0.089261 0.984347
vt 0.119390 0.971039
vt 0.121132 0.971601
vt 0.068699 0.994760
vt 0.066964 0.994196
vt 0.089261 0.984347
vt 0.068699 0.994760
vt 0.089261 0.984347
vt 0.121132 0.971601
vt 0.003400 0.971039
vt 0.024874 0.998831
vt 0.023703 0.999346
vt 0.002232 0.971559
vt 0.991272 0.918967
vt 0.968750 0.891272
vt 0.970450 0.890971
vt 0.992975 0.918670
vt 0.435860 0.924146
vt 0.399994 0.910569
vt 0.421485 0.906878
vt 0.235150 0.958336
vt 0.220982 0.941317
vt 0.399994 0.910569
vt 0.435860 0.924146
vt 0.387718 0.895882
vt 0.386719 0.894687
vt 0.408190 0.890971
vt 0.399994 0.910569
vt 0.387718 0.895882
vt 0.408190 0.890971
vt 0.421485 0.906878
vt 0.696643 0.655877
vt 0.571547 0.721508
vt 0.564732 0.712820
vt 0.571547 0.721508
vt 0.710469 0.673506
vt 0.578361 0.730197
vt 0.696643 0.655877
vt 0.710469 0.673506
vt 0.571547 0.721508
vt 0.710469 0.673506
vt 0.584510 0.738007
vt 0.578361 0.730197
vt 0.584510 0.738007
vt 0.722955 0.689347
vt 0.590658 0.745816
vt 0.710469 0.673506
vt 0.722955 0.689347
vt 0.584510 0.738007
vt 0.720367 0.935737
vt 0.714093 0.938527
vt 0.582589 0.904292
vt 0.588771 0.901541
vt 0.731758 0.930671
vt 0.594383 0.899044
vt 0.599995 0.896546
vt 0.594383 0.899044
vt 0.720367 0.935737
vt 0.588771 0.901541
vt 0.731758 0.930671
vt 0.720367 0.935737
vt 0.594383 0.899044
vt 0.744473 0.925017
vt 0.731758 0.930671
vt 0.599995 0.896546
vt 0.612524 0.890971
vt 0.002232 0.898871
vt 0.020127 0.890971
vt 0.215567 0.953092
vt 0.176496 0.954436
vt 0.197413 0.961106
vt 0.176496 0.954436
vt 0.215567 0.953092
vt 0.164063 0.959925
vt 0.176496 0.954436
vt 0.197413 0.961106
vt 0.184961 0.966603
vt 0.127232 0.971039
vt 0.127232 0.971039
vt 0.127232 0.971039
vt 0.127232 0.971039
vt 0.127232 0.971039
vt 0.127232 0.971039
vt 0.127232 0.971039
vt 0.127232 0.971039
vt 0.127232 0.971039
vt 0.127232 0.971039
vt 0.127232 0.971039
vt 0.127232 0.971039
vt 0.127232 0.971039
vt 0.127232 0.971039
vt 0.127232 0.971039
vt 0.127232 0.971039
vt 0.127232 0.971039
vt 0.127232 0.971039
vt 0.127232 0.971039
vn 0 1 0
vn 0 1 0
vn 0 1 0
vn 0 1 0
vn 0 1 0
vn 0 1 0
vn 0 1 0
vn 0 1 0
vn 0 1 0
vn 0 1 0
vn 0 1 0
vn 0 1 0
vn 0 1 0
vn 0 1 0
vn 0 1 0
vn 0 1 0
vn 0 1 0
vn 0 1 0
vn 0 1 0
vn 0 1 0
vn 0 1 0
vn 0 1 0
vn 0 1 0
vn 0 1 0
vn 0 1 0
vn 0 1 0
vn 0 1 0
vn 0 1 0
vn 0 1 0
vn 0 1 0
vn 0 1 0
vn 0 1 0
vn 0 1 0
vn 0 1 0
vn 0 1 0
vn 0 1 0
vn 0.4926268 0.8114285 0.3144879
vn 0.4926268 0.8114285 0.3144879
vn 0.4926268 0.8114285 0.3144879
vn 0.4808255 0.8180711 0.3155417
vn 0.4808255 0.8180711 0.3155417
vn 0.4808255 0.8180711 0.3155417
vn 0.3615138 0.7411242 -0.5657233
vn 0.3615138 0.7411242 -0.5657233
vn 0.3615138 0.7411242 -0.5657233
vn -0.4091264 0.6501691 0.640231
vn -0.4091264 0.6501691 0.640231
vn -0.4091264 0.6501691 0.640231
vn -0.5111718 0.7913105 -0.3354565
vn -0.5111718 0.7913105 -0.3354565
vn -0.5111718 0.7913105 -0.3354565
vn -0.5069044 0.7989552 -0.3236025
vn -0.5069044 0.7989552 -0.3236025
vn -0.5069044 0.7989552 -0.3236025
vn 7.60481E-05 0.9999992 -0.001219812
vn 7.60481E-05 0.9999992 -0.001219812
vn 7.60481E-05 0.9999992 -0.001219812
vn 0.0008250383 0.9999994 -0.0007508493
vn 0.0008250383 0.9999994 -0.0007508493
vn 0.0008250383 0.9999994 -0.0007508493
vn 0.0008250555 0.9999994 -0.0007508761
vn 0.0008250555 0.9999994 -0.0007508761
vn 0.0008250555 0.9999994 -0.0007508761
vn 0.00104338 0.9999957 -0.002734151
vn 0.00104338 0.9999957 -0.002734151
vn 0.00104338 0.9999957 -0.002734151
vn 0 1 0
vn 0 1 0
vn 0 1 0
vn 0 1 0
vn 0 1 0
vn 0 1 0
vn -0.001314949 0.9999988 -0.000842512
vn -0.001314949 0.9999988 -0.000842512
vn -0.001314949 0.9999988 -0.000842512
vn -0.001319118 0.9999988 -0.0008269599
vn -0.001319118 0.9999988 -0.0008269599
vn -0.001319118 0.9999988 -0.0008269599
vn 0 1 0
vn 0 1 0
vn 0 1 0
vn 0 1 0
vn 0.001542372 0.9999959 -0.002415068
vn 0.001542372 0.9999959 -0.002415068
vn 0.001542372 0.9999959 -0.002415068
vn -0.5383802 0 0.8427021
vn -0.5383802 0 0.8427021
vn -0.5383802 0 0.8427021
vn -0.5383802 0 0.8427021
vn 0.8429013 0 0.5380682
vn 0.8429013 0 0.5380682
vn 0.8429013 0 0.5380682
vn 0.8429013 0 0.5380682
vn 0.5369928 0 -0.8435868
vn 0.5369928 0 -0.8435868
vn 0.5369928 0 -0.8435868
vn 0.5369928 0 -0.8435868
vn 0.8427459 0 0.5383116
vn 0.8427459 0 0.5383116
vn 0.8427459 0 0.5383116
vn 0.8427459 0 0.5383116
vn 0.5382437 0 -0.8427892
vn 0.5382437 0 -0.8427892
vn 0.5382437 0 -0.8427892
vn 0.5382437 0 -0.8427892
vn -0.8427342 0 -0.5383298
vn -0.8427342 0 -0.5383298
vn -0.8427342 0 -0.5383298
vn -0.8427342 0 -0.5383298
vn -0.8428871 0 -0.5380904
vn -0.8428871 0 -0.5380904
vn -0.8428871 0 -0.5380904
vn -0.8428871 0 -0.5380904
vn -0.8427224 0 -0.5383484
vn -0.8427224 0 -0.5383484
vn -0.8427224 0 -0.5383484
vn -0.8427224 0 -0.5383484
vn -0.8427224 0 -0.5383484
vn -0.8427224 0 -0.5383484
vn -0.8427224 -2.390091E-11 -0.5383484
vn -0.8427224 -2.390091E-11 -0.5383484
vn -0.8427224 -2.390091E-11 -0.5383484
vn -0.8428871 0 -0.5380904
vn -0.8428871 0 -0.5380904
vn -0.8428871 0 -0.5380904
vn -0.8428871 0 -0.5380904
vn 0.8428871 0 0.5380904
vn 0.8428871 0 0.5380904
vn 0.8428871 0 0.5380904
vn 0.8428871 0 0.5380904
vn 0.8428871 0 0.5380904
vn 0.8428871 0 0.5380904
vn 0.8428871 -5.149152E-09 0.5380904
vn 0.8428871 -5.149152E-09 0.5380904
vn 0.8428871 -5.149152E-09 0.5380904
vn 0.5384733 0 -0.8426425
vn 0.5384733 0 -0.8426425
vn 0.5384733 0 -0.8426425
vn 0.5384733 0 -0.8426425
vn -0.5384733 0 0.8426425
vn -0.5384733 0 0.8426425
vn -0.5384733 0 0.8426425
vn -0.5384733 0 0.8426425
vn -0.5305102 0 0.8476785
vn -0.5305102 0 0.8476785
vn -0.5305102 0 0.8476785
vn -0.5305102 0 0.8476785
vn -0.5305102 0 0.8476785
vn -0.5305102 0 0.8476785
vn -0.5305102 0 0.8476785
vn -0.5320768 0 0.8466961
vn -0.5320768 0 0.8466961
vn -0.5320768 0 0.8466961
vn -0.5320768 0 0.8466961
vn -0.5320768 -1.122312E-09 0.8466961
vn -0.5320768 -2.244624E-09 0.8466961
vn -0.5320768 -1.122312E-09 0.8466961
vn 0.5311352 0 -0.8472871
vn 0.5311352 0 -0.8472871
vn 0.5311352 0 -0.8472871
vn 0.5311352 0 -0.8472871
vn 0.5311352 0 -0.8472871
vn 0.5311352 0 -0.8472871
vn 0.5311352 -3.363975E-11 -0.8472871
vn 0.5311352 -3.363975E-11 -0.8472871
vn 0.5311352 -3.363975E-11 -0.8472871
vn 0.5325233 0 -0.8464153
vn 0.5325233 0 -0.8464153
vn 0.5325233 0 -0.8464153
vn 0.5325233 0 -0.8464153
vn 0.5325233 0 -0.8464153
vn 0.5325233 0 -0.8464153
vn 0.5325233 0 -0.8464153
vn 0.5325233 0 -0.8464153
vn 0.5325233 0 -0.8464153
vn -0.8475755 0 -0.5306747
vn -0.8475755 0 -0.5306747
vn -0.8475755 0 -0.5306747
vn -0.8475755 0 -0.5306747
vn -0.8475756 0 -0.5306747
vn -0.8475756 0 -0.5306747
vn -0.8475756 0 -0.5306747
vn -0.8475756 0 -0.5306747
vn -0.8475756 0 -0.5306747
vn -0.8475756 0 -0.5306747
vn -0.8475756 2.10313E-12 -0.5306747
vn -0.8475756 2.10313E-12 -0.5306747
vn -0.8475756 2.10313E-12 -0.5306747
vn -0.8475756 0 -0.5306747
vn -0.8475756 0 -0.5306747
vn -0.8475756 0 -0.5306747
vn -0.8475756 0 -0.5306747
vn 0.8472726 0 0.5311582
vn 0.8472726 0 0.5311582
vn 0.8472726 0 0.5311582
vn 0.8472726 0 0.5311582
vn 0.8472726 0 0.5311582
vn 0.8472726 0 0.5311582
vn 0.8472726 0 0.5311582
vn 0.8472726 0 0.5311583
vn 0.8472726 0 0.5311583
vn 0.8472726 0 0.5311583
vn 0.8472726 0 0.5311583
vn 0 -1 0
vn 0 -1 0
vn 0 -1 0
vn 0 -1 0
vn 0 -1 0
vn 0 -1 0
vn 0 -1 0
vn 0 -1 0
vn 0 -1 0
vn 0 -1 0
vn 0 -1 0
vn 0 -1 0
vn 0 -1 0
vn 0 -1 0
vn 0 -1 0
vn 0 -1 0
vn 0 -1 0
vn 0 -1 0
vn 0 -1 0

g CDNNDG02_0013520
f 1/1/1 2/2/2 3/3/3
f 4/4/4 5/5/5 6/6/6
f 7/7/7 8/8/8 9/9/9
f 10/10/10 11/11/11 12/12/12
f 13/13/13 14/14/14 15/15/15
f 16/16/16 17/17/17 18/18/18
f 19/19/19 20/20/20 21/21/21
f 22/22/22 23/23/23 24/24/24
f 25/25/25 26/26/26 27/27/27
f 28/28/28 29/29/29 30/30/30
f 31/31/31 32/32/32 33/33/33
f 34/34/34 35/35/35 36/36/36
f 37/37/37 38/38/38 39/39/39
f 40/40/40 41/41/41 42/42/42
f 43/43/43 44/44/44 45/45/45
f 46/46/46 47/47/47 48/48/48
f 49/49/49 50/50/50 51/51/51
f 52/52/52 53/53/53 54/54/54
f 55/55/55 56/56/56 57/57/57
f 58/58/58 59/59/59 60/60/60
f 61/61/61 62/62/62 63/63/63
f 64/64/64 65/65/65 66/66/66
f 67/67/67 68/68/68 69/69/69
f 70/70/70 71/71/71 72/72/72
f 73/73/73 74/74/74 75/75/75
f 76/76/76 77/77/77 78/78/78
f 82/82/82 79/79/79 81/81/81
f 81/81/81 79/79/79 80/80/80
f 83/83/83 84/84/84 85/85/85
f 89/89/89 86/86/86 88/88/88
f 88/88/88 86/86/86 87/87/87
f 91/91/91 92/92/92 90/90/90
f 90/90/90 92/92/92 93/93/93
f 96/96/96 97/97/97 95/95/95
f 94/94/94 95/95/95 97/97/97
f 101/101/101 98/98/98 100/100/100
f 99/99/99 100/100/100 98/98/98
f 102/102/102 104/104/104 105/105/105
f 102/102/102 103/103/103 104/104/104
f 106/106/106 107/107/107 108/108/108
f 109/109/109 106/106/106 108/108/108
f 110/110/110 111/111/111 112/112/112
f 113/113/113 110/110/110 112/112/112
f 114/114/114 115/115/115 116/116/116
f 117/117/117 118/118/118 119/119/119
f 120/120/120 121/121/121 122/122/122
f 123/123/123 125/125/125 126/126/126
f 123/123/123 124/124/124 125/125/125
f 127/127/127 128/128/128 129/129/129
f 130/130/130 131/131/131 132/132/132
f 133/133/133 134/134/134 135/135/135
f 136/136/136 138/138/138 139/139/139
f 136/136/136 137/137/137 138/138/138
f 143/143/143 140/140/140 142/142/142
f 142/142/142 140/140/140 141/141/141
f 144/144/144 145/145/145 146/146/146
f 147/147/147 149/149/149 150/150/150
f 149/149/149 147/147/147 148/148/148
f 151/151/151 152/152/152 153/153/153
f 157/157/157 154/154/154 155/155/155
f 156/156/156 157/157/157 155/155/155
f 158/158/158 159/159/159 160/160/160
f 161/161/161 162/162/162 163/163/163
f 164/164/164 165/165/165 166/166/166
f 167/167/167 168/168/168 169/169/169
f 170/170/170 171/171/171 172/172/172
f 173/173/173 174/174/174 175/175/175
f 179/179/179 177/177/177 178/178/178
f 179/179/179 176/176/176 177/177/177
f 180/180/180 181/181/181 182/182/182
f 183/183/183 184/184/184 185/185/185
f 186/186/186 187/187/187 188/188/188
f 192/192/192 190/190/190 191/191/191
f 192/192/192 189/189/189 190/190/190
f 194/194/194 195/195/195 196/196/196
f 193/193/193 194/194/194 196/196/196
f 197/197/197 198/198/198 199/199/199
f 201/201/201 202/202/202 200/200/200
f 200/200/200 202/202/202 203/203/203
f 213/213/213 221/221/221 222/222/222
f 215/215/215 220/220/220 221/221/221
f 204/204/204 205/205/205 222/222/222
f 215/215/215 219/219/219 220/220/220
f 205/205/205 206/206/206 209/209/209
f 215/215/215 218/218/218 219/219/219
f 206/206/206 207/207/207 209/209/209
f 210/210/210 213/213/213 222/222/222
f 207/207/207 208/208/208 209/209/209
f 215/215/215 217/217/217 218/218/218
f 205/205/205 209/209/209 222/222/222
f 214/214/214 215/215/215 221/221/221
f 209/209/209 210/210/210 222/222/222
f 210/210/210 211/211/211 213/213/213
f 217/217/217 215/215/215 216/216/216
f 211/211/211 212/212/212 213/213/213
f 213/213/213 214/214/214 221/221/221
