v 6.726152 5.767828 -2.685995
v 9.090152 5.767828 -6.429995
v 9.039152 5.767828 -6.461995
v 5.955152 5.767828 -8.340995
v 6.726152 5.767828 -2.685995
v 9.039152 5.767828 -6.461995
v 5.955152 5.767828 -8.340995
v 9.039152 5.767828 -6.461995
v 7.321152 5.767828 -8.667994
v 7.321152 5.767828 -8.667994
v 9.039152 5.767828 -6.461995
v 8.896152 5.767828 -7.674995
v -7.815848 5.767828 5.920005
v 0.08315191 5.767828 0.5520052
v 2.681152 5.767828 -10.44199
v 5.955152 5.767828 -8.340995
v 6.202928 5.767828 -3.016298
v 6.726152 5.767828 -2.685995
v 0.08315191 5.767828 0.5520052
v 1.097152 5.767828 0.3160052
v 2.681152 5.767828 -10.44199
v 1.097152 5.767828 0.3160052
v 3.767152 5.767828 2.001005
v 6.253152 5.767828 -1.936995
v 1.097152 5.767828 0.3160052
v 5.537152 5.767828 -2.388995
v 5.955152 5.767828 -8.340995
v 1.097152 5.767828 0.3160052
v 6.253152 5.767828 -1.936995
v 5.537152 5.767828 -2.388995
v 5.537152 5.767828 -2.388995
v 6.010152 5.767828 -3.137995
v 5.955152 5.767828 -8.340995
v 5.955152 5.767828 -8.340995
v 6.010152 5.767828 -3.137995
v 6.202928 5.767828 -3.016298
v -7.742848 5.767828 7.057005
v -4.283848 5.767828 11.465
v -7.415826 5.767828 6.548012
v -8.310848 5.767828 6.693005
v -4.283848 5.767828 11.465
v -7.742848 5.767828 7.057005
v -9.305848 5.767828 8.243005
v -4.283848 5.767828 11.465
v -8.310848 5.767828 6.693005
v -7.815848 5.767828 5.920005
v 0.5921519 5.767828 3.865005
v 0.08315191 5.767828 0.5520052
v 1.097152 5.767828 0.3160052
v 5.955152 5.767828 -8.340995
v 2.681152 5.767828 -10.44199
v -7.246848 5.767828 6.285005
v -4.283848 5.767828 11.465
v 0.5921519 5.767828 3.865005
v -7.815848 5.767828 5.920005
v -7.246848 5.767828 6.285005
v 0.5921519 5.767828 3.865005
v -7.415826 5.767828 6.548012
v -4.283848 5.767828 11.465
v -7.246848 5.767828 6.285005
v 5.537152 6.958828 -2.388995
v 6.253152 6.958828 -1.936995
v 6.726152 6.958828 -2.685995
v 6.010152 6.958828 -3.137995
v -8.310848 7.128828 6.693005
v -7.742848 7.128828 7.057005
v -7.246848 7.128828 6.285005
v -7.815848 7.128828 5.920005
v -8.310848 7.128828 6.693005
v -7.815848 7.128828 5.920005
v -8.147848 7.128828 5.707005
v -8.642848 7.128828 6.480005
v -4.283848 -5.784603 11.465
v 0.5921519 -5.784603 3.865005
v 0.5921519 5.767828 3.865005
v -4.283848 5.767828 11.465
v 0.08315191 5.767828 0.5520052
v 0.5921519 5.767828 3.865005
v 0.5921519 -5.784603 3.865005
v 0.08315191 -5.784603 0.5520052
v 0.08315191 -5.784603 0.5520052
v 1.097152 -5.784603 0.3160052
v 1.097152 5.767828 0.3160052
v 0.08315191 5.767828 0.5520052
v 1.097152 -5.784603 0.3160052
v 3.767152 -5.784603 2.001005
v 3.767152 5.767828 2.001005
v 1.097152 5.767828 0.3160052
v 5.010152 -5.784603 0.03200521
v 6.253152 -5.784603 -1.936995
v 6.253152 5.767828 -1.936995
v 3.767152 5.767828 2.001005
v 3.767152 -5.784603 2.001005
v 5.010152 -5.784603 0.03200521
v 3.767152 5.767828 2.001005
v 5.010152 -5.784603 0.03200521
v 6.253152 5.767828 -1.936995
v 6.489652 -5.784603 -2.311495
v 6.726152 -5.784603 -2.685995
v 6.726152 5.767828 -2.685995
v 6.253152 5.767828 -1.936995
v 6.253152 -5.784603 -1.936995
v 6.489652 -5.784603 -2.311495
v 6.253152 5.767828 -1.936995
v 6.489652 -5.784603 -2.311495
v 6.726152 5.767828 -2.685995
v 6.726152 -5.784603 -2.685995
v 9.090152 -5.784603 -6.429995
v 9.090152 5.767828 -6.429995
v 6.726152 5.767828 -2.685995
v 6.253152 5.767828 -1.936995
v 6.726152 5.767828 -2.685995
v 6.726152 6.958828 -2.685995
v 6.253152 6.958828 -1.936995
v 9.039152 5.767828 -6.461995
v 9.090152 5.767828 -6.429995
v 9.090152 -5.784603 -6.429995
v 9.039152 -5.784603 -6.461995
v 8.896152 5.767828 -7.674995
v 9.039152 5.767828 -6.461995
v 9.039152 -5.784603 -6.461995
v 8.896152 -5.784603 -7.674995
v 7.321152 5.767828 -8.667994
v 8.896152 5.767828 -7.674995
v 8.896152 -5.784603 -7.674995
v 7.321152 -5.784603 -8.667994
v 5.955152 5.767828 -8.340995
v 7.321152 5.767828 -8.667994
v 7.321152 -5.784603 -8.667994
v 5.955152 -5.784603 -8.340995
v 2.681152 5.767828 -10.44199
v 5.955152 5.767828 -8.340995
v 5.955152 -5.784603 -8.340995
v 2.681152 -5.784603 -10.44199
v -7.815848 5.767828 5.920005
v 2.681152 5.767828 -10.44199
v 2.681152 -5.784603 -10.44199
v -7.815848 -5.784603 5.920005
v -9.305848 5.767828 8.243005
v -8.310848 5.767828 6.693005
v -8.310848 -5.784603 6.693005
v -9.305848 -5.784603 8.243005
v -9.305848 -5.784603 8.243005
v -4.283848 -5.784603 11.465
v -4.283848 5.767828 11.465
v -9.305848 5.767828 8.243005
v 5.537152 5.767828 -2.388995
v 6.253152 5.767828 -1.936995
v 6.253152 6.958828 -1.936995
v 5.537152 6.958828 -2.388995
v 6.010152 6.958828 -3.137995
v 6.202928 5.767828 -3.016298
v 6.010152 5.767828 -3.137995
v 6.010152 6.958828 -3.137995
v 6.726152 6.958828 -2.685995
v 6.726152 5.767828 -2.685995
v 6.202928 5.767828 -3.016298
v 5.537152 6.958828 -2.388995
v 6.010152 6.958828 -3.137995
v 6.010152 5.767828 -3.137995
v 5.537152 5.767828 -2.388995
v -8.147848 7.128828 5.707005
v -7.815848 5.767828 5.920005
v -7.815848 -5.784603 5.920005
v -8.147848 -5.784603 5.707005
v -8.147848 7.128828 5.707005
v -7.815848 7.128828 5.920005
v -7.815848 5.767828 5.920005
v -7.815848 7.128828 5.920005
v -7.246848 7.128828 6.285005
v -7.246848 5.767828 6.285005
v -7.815848 5.767828 5.920005
v -8.642848 7.128828 6.480005
v -8.395349 -5.784603 6.093505
v -8.642848 -5.784603 6.480005
v -8.395349 -5.784603 6.093505
v -8.147848 7.128828 5.707005
v -8.147848 -5.784603 5.707005
v -8.642848 7.128828 6.480005
v -8.147848 7.128828 5.707005
v -8.395349 -5.784603 6.093505
v -8.642848 7.128828 6.480005
v -8.310848 5.767828 6.693005
v -8.310848 7.128828 6.693005
v -8.642848 -5.784603 6.480005
v -8.310848 -5.784603 6.693005
v -8.310848 5.767828 6.693005
v -8.642848 7.128828 6.480005
v -8.310848 5.767828 6.693005
v -7.742848 5.767828 7.057005
v -7.742848 7.128828 7.057005
v -8.310848 7.128828 6.693005
v -7.415826 5.767828 6.548012
v -7.246848 5.767828 6.285005
v -7.246848 7.128828 6.285005
v -7.742848 7.128828 7.057005
v -7.742848 5.767828 7.057005
v -7.415826 5.767828 6.548012
v -7.742848 7.128828 7.057005
v -7.415826 5.767828 6.548012
v -7.246848 7.128828 6.285005
v -9.305848 -5.784603 8.243005
v -8.310848 -5.784603 6.693005
v -8.642848 -5.784603 6.480005
v -8.395349 -5.784603 6.093505
v -8.147848 -5.784603 5.707005
v -7.815848 -5.784603 5.920005
v 2.681152 -5.784603 -10.44199
v 5.955152 -5.784603 -8.340995
v 7.321152 -5.784603 -8.667994
v 8.896152 -5.784603 -7.674995
v 9.039152 -5.784603 -6.461995
v 9.090152 -5.784603 -6.429995
v 6.726152 -5.784603 -2.685995
v 6.489652 -5.784603 -2.311495
v 6.253152 -5.784603 -1.936995
v 5.010152 -5.784603 0.03200521
v 3.767152 -5.784603 2.001005
v 1.097152 -5.784603 0.3160052
v 0.08315191 -5.784603 0.5520052
v 0.5921519 -5.784603 3.865005
v -4.283848 -5.784603 11.465
vt 0.222070 0.325459
vt 0.115360 0.373123
vt 0.114453 0.372087
vt 0.061202 0.309435
vt 0.222070 0.325459
vt 0.114453 0.372087
vt 0.061202 0.309435
vt 0.114453 0.372087
vt 0.051800 0.337105
vt 0.051800 0.337105
vt 0.114453 0.372087
vt 0.079946 0.369104
vt 0.468030 0.031223
vt 0.314692 0.191006
vt 0.001645 0.242912
vt 0.061202 0.309435
vt 0.212708 0.314829
vt 0.222070 0.325459
vt 0.314692 0.191006
vt 0.307903 0.211547
vt 0.001645 0.242912
vt 0.307903 0.211547
vt 0.355661 0.265797
vt 0.243418 0.315922
vt 0.307903 0.211547
vt 0.230607 0.301375
vt 0.061202 0.309435
vt 0.307903 0.211547
vt 0.243418 0.315922
vt 0.230607 0.301375
vt 0.230607 0.301375
vt 0.209258 0.310912
vt 0.061202 0.309435
vt 0.061202 0.309435
vt 0.209258 0.310912
vt 0.212708 0.314829
vt 0.500383 0.032782
vt 0.625577 0.103223
vt 0.485873 0.039378
vt 0.490065 0.021240
vt 0.625577 0.103223
vt 0.500383 0.032782
vt 0.534250 0.001172
vt 0.625577 0.103223
vt 0.490065 0.021240
vt 0.468030 0.031223
vt 0.408936 0.201556
vt 0.314692 0.191006
vt 0.307903 0.211547
vt 0.061202 0.309435
vt 0.001645 0.242912
vt 0.478376 0.042786
vt 0.625577 0.103223
vt 0.408936 0.201556
vt 0.468030 0.031223
vt 0.478376 0.042786
vt 0.408936 0.201556
vt 0.485873 0.039378
vt 0.625577 0.103223
vt 0.478376 0.042786
vt 0.847718 0.934349
vt 0.859969 0.948268
vt 0.839554 0.957393
vt 0.827303 0.943474
vt 0.813204 0.940857
vt 0.823135 0.951992
vt 0.801953 0.961642
vt 0.791995 0.950488
vt 0.813204 0.940857
vt 0.791995 0.950488
vt 0.786184 0.943980
vt 0.807393 0.934349
vt 0.591151 0.727599
vt 0.377951 0.823539
vt 0.312500 0.770238
vt 0.528756 0.672919
vt 0.096916 0.998978
vt 0.001645 0.989296
vt 0.162783 0.934349
vt 0.256689 0.943892
vt 0.761621 0.886555
vt 0.754950 0.906537
vt 0.689145 0.853798
vt 0.695912 0.833529
vt 0.661688 0.672919
vt 0.708720 0.725882
vt 0.643103 0.800854
vt 0.595395 0.747130
vt 0.252616 0.749794
vt 0.197360 0.774253
vt 0.129535 0.722539
vt 0.241633 0.672919
vt 0.307873 0.725335
vt 0.252616 0.749794
vt 0.241633 0.672919
vt 0.252616 0.749794
vt 0.129535 0.722539
vt 0.186850 0.778906
vt 0.176341 0.783560
vt 0.108215 0.731980
vt 0.129535 0.722539
vt 0.197360 0.774253
vt 0.186850 0.778906
vt 0.129535 0.722539
vt 0.186850 0.778906
vt 0.108215 0.731980
vt 0.176341 0.783560
vt 0.071276 0.830075
vt 0.001645 0.779163
vt 0.108215 0.731980
vt 0.129535 0.722539
vt 0.108215 0.731980
vt 0.101080 0.726578
vt 0.122432 0.717123
vt 0.458169 0.987631
vt 0.457237 0.986609
vt 0.613568 0.934349
vt 0.614486 0.935356
vt 0.296309 0.989306
vt 0.261513 0.986647
vt 0.418120 0.934349
vt 0.452418 0.936970
vt 0.528969 0.918055
vt 0.500000 0.886256
vt 0.656062 0.833529
vt 0.684614 0.864872
vt 0.618421 0.961905
vt 0.627561 0.934349
vt 0.782794 0.946306
vt 0.773785 0.973464
vt 0.773519 0.793066
vt 0.712171 0.726712
vt 0.868139 0.672919
vt 0.928605 0.738322
vt 0.001645 0.595320
vt 0.474765 0.376319
vt 0.630129 0.453735
vt 0.163832 0.669568
vt 0.082237 0.854111
vt 0.126816 0.833529
vt 0.288467 0.907004
vt 0.244531 0.927289
vt 0.698258 0.376319
vt 0.788523 0.476175
vt 0.726434 0.549011
vt 0.634868 0.447722
vt 0.870094 0.934349
vt 0.882078 0.948160
vt 0.875489 0.955758
vt 0.863487 0.941927
vt 0.899135 0.953562
vt 0.911551 0.944463
vt 0.914944 0.948189
vt 0.899135 0.953562
vt 0.886513 0.939702
vt 0.902341 0.934349
vt 0.911551 0.944463
vt 0.952303 0.943257
vt 0.973112 0.934349
vt 0.989085 0.935472
vt 0.968307 0.944367
vt 0.783343 0.904574
vt 0.796469 0.890998
vt 0.958106 0.833529
vt 0.964232 0.840116
vt 0.783343 0.904574
vt 0.777117 0.897879
vt 0.796469 0.890998
vt 0.777117 0.897879
vt 0.766447 0.886405
vt 0.785818 0.879544
vt 0.796469 0.890998
vt 0.292763 0.843785
vt 0.484601 0.920890
vt 0.473647 0.925935
vt 0.484601 0.920890
vt 0.315031 0.833529
vt 0.495556 0.915845
vt 0.292763 0.843785
vt 0.315031 0.833529
vt 0.484601 0.920890
vt 0.001645 0.913285
vt 0.015228 0.911420
vt 0.007645 0.919958
vt 0.072664 0.833529
vt 0.078569 0.840097
vt 0.015228 0.911420
vt 0.001645 0.913285
vt 0.015228 0.911420
vt 0.025465 0.922818
vt 0.017900 0.931376
vt 0.007645 0.919958
vt 0.933893 0.946758
vt 0.926761 0.949930
vt 0.919408 0.943677
vt 0.940377 0.934349
vt 0.947695 0.940618
vt 0.933893 0.946758
vt 0.940377 0.934349
vt 0.933893 0.946758
vt 0.919408 0.943677
vt 0.993421 0.934349
vt 0.993421 0.934349
vt 0.993421 0.934349
vt 0.993421 0.934349
vt 0.993421 0.934349
vt 0.993421 0.934349
vt 0.993421 0.934349
vt 0.993421 0.934349
vt 0.993421 0.934349
vt 0.993421 0.934349
vt 0.993421 0.934349
vt 0.993421 0.934349
vt 0.993421 0.934349
vt 0.993421 0.934349
vt 0.993421 0.934349
vt 0.993421 0.934349
vt 0.993421 0.934349
vt 0.993421 0.934349
vt 0.993421 0.934349
vt 0.993421 0.934349
vt 0.993421 0.934349
vn 0 1 0
vn 0 1 0
vn 0 1 0
vn 0 1 0
vn 0 1 0
vn 0 1 0
vn 0 1 0
vn 0 1 0
vn 0 1 0
vn 0 1 0
vn 0 1 0
vn 0 1 0
vn 0 1 0
vn 0 1 0
vn 0 1 0
vn 0 1 0
vn 0 1 0
vn 0 1 0
vn 0 1 0
vn 0 1 0
vn 0 1 0
vn 0 1 0
vn 0 1 0
vn 0 1 0
vn 0 1 0
vn 0 1 0
vn 0 1 0
vn 0 1 0
vn 0 1 0
vn 0 1 0
vn 0 1 0
vn 0 1 0
vn 0 1 0
vn 0 1 0
vn 0 1 0
vn 0 1 0
vn 0 1 0
vn 0 1 0
vn 0 1 0
vn 0 1 0
vn 0 1 0
vn 0 1 0
vn 0 1 0
vn 0 1 0
vn 0 1 0
vn 0 1 0
vn 0 1 0
vn 0 1 0
vn 0 1 0
vn 0 1 0
vn 0 1 0
vn 0 1 0
vn 0 1 0
vn 0 1 0
vn 0 1 0
vn 0 1 0
vn 0 1 0
vn 0 1 0
vn 0 1 0
vn 0 1 0
vn 0 1 0
vn 0 1 0
vn 0 1 0
vn 0 1 0
vn 0 1 0
vn 0 1 0
vn 0 1 0
vn 0 1 0
vn 0 1 0
vn 0 1 0
vn 0 1 0
vn 0 1 0
vn 0.8416675 0 0.5399961
vn 0.8416675 0 0.5399961
vn 0.8416675 0 0.5399961
vn 0.8416675 0 0.5399961
vn 0.9884027 0 -0.1518554
vn 0.9884027 0 -0.1518554
vn 0.9884027 0 -0.1518554
vn 0.9884027 0 -0.1518554
vn 0.226683 0 0.9739686
vn 0.226683 0 0.9739686
vn 0.226683 0 0.9739686
vn 0.226683 0 0.9739686
vn -0.533695 0 0.845677
vn -0.533695 0 0.845677
vn -0.533695 0 0.845677
vn -0.533695 0 0.845677
vn 0.8456011 0 0.5338153
vn 0.8456011 0 0.5338153
vn 0.8456011 0 0.5338153
vn 0.8456011 0 0.5338153
vn 0.8456011 0 0.5338153
vn 0.8456011 0 0.5338153
vn 0.8456011 2.15173E-11 0.5338153
vn 0.8456011 2.15173E-11 0.5338153
vn 0.8456011 2.15173E-11 0.5338153
vn 0.8455157 0 0.5339505
vn 0.8455157 0 0.5339505
vn 0.8455157 0 0.5339505
vn 0.8455157 0 0.5339505
vn 0.8455157 0 0.5339505
vn 0.8455157 0 0.5339505
vn 0.8455157 0 0.5339505
vn 0.8455157 0 0.5339505
vn 0.8455157 0 0.5339505
vn 0.8455533 0 0.533891
vn 0.8455533 0 0.533891
vn 0.8455533 0 0.533891
vn 0.8455533 0 0.533891
vn 0.8455157 0 0.5339505
vn 0.8455157 0 0.5339505
vn 0.8455157 0 0.5339505
vn 0.8455157 0 0.5339505
vn 0.5314911 0 -0.8470639
vn 0.5314911 0 -0.8470639
vn 0.5314911 0 -0.8470639
vn 0.5314911 0 -0.8470639
vn 0.9931226 0 -0.1170788
vn 0.9931226 0 -0.1170788
vn 0.9931226 0 -0.1170788
vn 0.9931226 0 -0.1170788
vn 0.533326 0 -0.8459098
vn 0.533326 0 -0.8459098
vn 0.533326 0 -0.8459098
vn 0.533326 0 -0.8459098
vn -0.2328074 0 -0.9725229
vn -0.2328074 0 -0.9725229
vn -0.2328074 0 -0.9725229
vn -0.2328074 0 -0.9725229
vn 0.5400818 0 -0.8416125
vn 0.5400818 0 -0.8416125
vn 0.5400818 0 -0.8416125
vn 0.5400818 0 -0.8416125
vn -0.8416795 0 -0.5399774
vn -0.8416795 0 -0.5399774
vn -0.8416795 0 -0.5399774
vn -0.8416795 0 -0.5399774
vn -0.8415311 0 -0.5402087
vn -0.8415311 0 -0.5402087
vn -0.8415311 0 -0.5402087
vn -0.8415311 0 -0.5402087
vn -0.539995 0 0.8416682
vn -0.539995 0 0.8416682
vn -0.539995 0 0.8416682
vn -0.539995 0 0.8416682
vn -0.5338153 0 0.8456011
vn -0.5338153 0 0.8456011
vn -0.5338153 0 0.8456011
vn -0.5338153 0 0.8456011
vn 0.5338153 0 -0.8456011
vn 0.5338153 0 -0.8456011
vn 0.5338153 0 -0.8456011
vn 0.5338153 -8.669755E-10 -0.8456011
vn 0.5338153 -4.334878E-10 -0.8456011
vn 0.5338153 0 -0.8456011
vn 0.5338153 -4.334878E-10 -0.8456011
vn -0.8455157 0 -0.5339505
vn -0.8455157 0 -0.5339505
vn -0.8455157 0 -0.5339505
vn -0.8455157 0 -0.5339505
vn 0.5399886 0 -0.8416724
vn 0.5399886 0 -0.8416724
vn 0.5399886 0 -0.8416724
vn 0.5399886 0 -0.8416724
vn 0.5399886 0 -0.8416724
vn 0.5399886 0 -0.8416724
vn 0.5399886 0 -0.8416724
vn 0.5399349 0 -0.8417068
vn 0.5399349 0 -0.8417068
vn 0.5399349 0 -0.8417068
vn 0.5399349 0 -0.8417068
vn -0.8421329 0 -0.5392701
vn -0.8421329 0 -0.5392701
vn -0.8421329 0 -0.5392701
vn -0.8421329 0 -0.5392701
vn -0.8421329 0 -0.5392701
vn -0.8421329 0 -0.5392701
vn -0.8421329 0 -0.5392701
vn -0.8421329 0 -0.5392701
vn -0.8421329 0 -0.5392701
vn -0.5399886 0 0.8416724
vn -0.5399886 0 0.8416724
vn -0.5399886 0 0.8416724
vn -0.5399886 0 0.8416724
vn -0.5399886 0 0.8416724
vn -0.5399886 0 0.8416724
vn -0.5399886 0 0.8416724
vn -0.5395584 0 0.8419482
vn -0.5395584 0 0.8419482
vn -0.5395584 0 0.8419482
vn -0.5395584 0 0.8419482
vn 0.8413201 0 0.5405372
vn 0.8413201 0 0.5405372
vn 0.8413201 0 0.5405372
vn 0.8413201 0 0.5405372
vn 0.8413201 0 0.5405372
vn 0.8413201 0 0.5405372
vn 0.8413201 4.004443E-10 0.5405372
vn 0.8413201 4.004443E-10 0.5405372
vn 0.8413201 4.004443E-10 0.5405372
vn 0 -1 0
vn 0 -1 0
vn 0 -1 0
vn 0 -1 0
vn 0 -1 0
vn 0 -1 0
vn 0 -1 0
vn 0 -1 0
vn 0 -1 0
vn 0 -1 0
vn 0 -1 0
vn 0 -1 0
vn 0 -1 0
vn 0 -1 0
vn 0 -1 0
vn 0 -1 0
vn 0 -1 0
vn 0 -1 0
vn 0 -1 0
vn 0 -1 0
vn 0 -1 0

g CDNNDG02_0004030
f 1/1/1 2/2/2 3/3/3
f 4/4/4 5/5/5 6/6/6
f 7/7/7 8/8/8 9/9/9
f 10/10/10 11/11/11 12/12/12
f 13/13/13 14/14/14 15/15/15
f 16/16/16 17/17/17 18/18/18
f 19/19/19 20/20/20 21/21/21
f 22/22/22 23/23/23 24/24/24
f 25/25/25 26/26/26 27/27/27
f 28/28/28 29/29/29 30/30/30
f 31/31/31 32/32/32 33/33/33
f 34/34/34 35/35/35 36/36/36
f 37/37/37 38/38/38 39/39/39
f 40/40/40 41/41/41 42/42/42
f 43/43/43 44/44/44 45/45/45
f 46/46/46 47/47/47 48/48/48
f 49/49/49 50/50/50 51/51/51
f 52/52/52 53/53/53 54/54/54
f 55/55/55 56/56/56 57/57/57
f 58/58/58 59/59/59 60/60/60
f 62/62/62 63/63/63 64/64/64
f 61/61/61 62/62/62 64/64/64
f 65/65/65 66/66/66 68/68/68
f 67/67/67 68/68/68 66/66/66
f 70/70/70 71/71/71 72/72/72
f 69/69/69 70/70/70 72/72/72
f 76/76/76 73/73/73 75/75/75
f 74/74/74 75/75/75 73/73/73
f 80/80/80 77/77/77 78/78/78
f 79/79/79 80/80/80 78/78/78
f 81/81/81 82/82/82 83/83/83
f 84/84/84 81/81/81 83/83/83
f 85/85/85 87/87/87 88/88/88
f 87/87/87 85/85/85 86/86/86
f 89/89/89 90/90/90 91/91/91
f 92/92/92 93/93/93 94/94/94
f 95/95/95 96/96/96 97/97/97
f 98/98/98 99/99/99 100/100/100
f 101/101/101 102/102/102 103/103/103
f 104/104/104 105/105/105 106/106/106
f 108/108/108 109/109/109 107/107/107
f 107/107/107 109/109/109 110/110/110
f 114/114/114 111/111/111 112/112/112
f 112/112/112 113/113/113 114/114/114
f 117/117/117 115/115/115 116/116/116
f 115/115/115 117/117/117 118/118/118
f 122/122/122 119/119/119 121/121/121
f 121/121/121 119/119/119 120/120/120
f 125/125/125 123/123/123 124/124/124
f 123/123/123 125/125/125 126/126/126
f 128/128/128 129/129/129 127/127/127
f 127/127/127 129/129/129 130/130/130
f 133/133/133 131/131/131 132/132/132
f 131/131/131 133/133/133 134/134/134
f 135/135/135 137/137/137 138/138/138
f 135/135/135 136/136/136 137/137/137
f 139/139/139 141/141/141 142/142/142
f 139/139/139 140/140/140 141/141/141
f 143/143/143 145/145/145 146/146/146
f 145/145/145 143/143/143 144/144/144
f 147/147/147 149/149/149 150/150/150
f 149/149/149 147/147/147 148/148/148
f 151/151/151 152/152/152 153/153/153
f 157/157/157 154/154/154 155/155/155
f 155/155/155 156/156/156 157/157/157
f 161/161/161 158/158/158 160/160/160
f 160/160/160 158/158/158 159/159/159
f 163/163/163 164/164/164 165/165/165
f 162/162/162 163/163/163 165/165/165
f 166/166/166 167/167/167 168/168/168
f 170/170/170 171/171/171 169/169/169
f 169/169/169 171/171/171 172/172/172
f 173/173/173 174/174/174 175/175/175
f 176/176/176 177/177/177 178/178/178
f 179/179/179 180/180/180 181/181/181
f 182/182/182 183/183/183 184/184/184
f 185/185/185 187/187/187 188/188/188
f 187/187/187 185/185/185 186/186/186
f 192/192/192 189/189/189 190/190/190
f 191/191/191 192/192/192 190/190/190
f 193/193/193 194/194/194 195/195/195
f 196/196/196 197/197/197 198/198/198
f 199/199/199 200/200/200 201/201/201
f 207/207/207 221/221/221 222/222/222
f 207/207/207 208/208/208 220/220/220
f 202/202/202 203/203/203 222/222/222
f 208/208/208 219/219/219 220/220/220
f 203/203/203 204/204/204 205/205/205
f 207/207/207 220/220/220 221/221/221
f 203/203/203 205/205/205 207/207/207
f 217/217/217 218/218/218 219/219/219
f 205/205/205 206/206/206 207/207/207
f 222/222/222 203/203/203 207/207/207
f 216/216/216 217/217/217 219/219/219
f 208/208/208 209/209/209 219/219/219
f 209/209/209 210/210/210 212/212/212
f 209/209/209 216/216/216 219/219/219
f 210/210/210 211/211/211 212/212/212
f 209/209/209 212/212/212 214/214/214
f 212/212/212 213/213/213 214/214/214
f 209/209/209 214/214/214 215/215/215
f 209/209/209 215/215/215 216/216/216
