v -7.072759 6.486743 9.572347
v -5.808759 6.486743 9.324347
v -5.601759 6.486743 9.006347
v -8.918758 6.486743 8.371346
v -7.072759 6.486743 9.572347
v -8.904758 6.486743 6.829347
v -8.904758 6.486743 6.829347
v -7.072759 6.486743 9.572347
v -5.601759 6.486743 9.006347
v -5.601759 6.486743 9.006347
v -2.865759 6.486743 10.78835
v -2.731759 6.486743 10.58235
v 2.363241 6.486743 -4.567654
v 6.012241 6.486743 -9.043653
v 4.073241 6.486743 -10.30565
v 0.2392412 6.486743 -5.949654
v 6.012241 6.486743 -9.043653
v 8.935241 6.486743 -7.336654
v 9.502241 6.486743 -8.208653
v 6.670241 6.486743 -10.05265
v -9.080759 6.486743 7.100347
v -8.918758 6.486743 8.371346
v -8.904758 6.486743 6.829347
v -5.601759 6.486743 9.006347
v -0.8037589 6.486743 -1.738654
v -2.792759 6.486743 -3.032654
v -8.904758 6.486743 6.829347
v 0.2392412 6.486743 -5.949654
v 4.073241 6.486743 -10.30565
v 3.372241 6.486743 -10.76265
v -9.121758 6.486743 6.688346
v -8.904758 6.486743 6.829347
v -2.792759 6.486743 -3.032654
v -2.731759 6.486743 10.58235
v 8.935241 6.486743 -7.336654
v 0.6912411 6.486743 -1.998654
v 2.363241 6.486743 -4.567654
v 8.935241 6.486743 -7.336654
v 6.012241 6.486743 -9.043653
v 0.6912411 6.486743 -1.998654
v 8.935241 6.486743 -7.336654
v 2.363241 6.486743 -4.567654
v -2.731759 6.486743 10.58235
v 0.6912411 6.486743 -1.998654
v -0.8037589 6.486743 -1.738654
v -5.601759 6.486743 9.006347
v -2.731759 6.486743 10.58235
v -0.8037589 6.486743 -1.738654
v 4.073241 5.858833 -10.30565
v 6.012241 5.858766 -9.043653
v 6.670241 5.429564 -10.05265
v 4.073241 5.858833 -10.30565
v 6.670241 5.429564 -10.05265
v 6.933246 5.257766 -10.45666
v 3.873245 5.257766 -12.44866
v 4.073241 5.858833 -10.30565
v 6.933246 5.257766 -10.45666
v 2.953241 5.257743 -11.03565
v 3.372241 5.482744 -10.76265
v 3.873245 5.257766 -12.44866
v 3.372241 5.482744 -10.76265
v 4.073241 5.858833 -10.30565
v 3.873245 5.257766 -12.44866
v -9.121758 -6.451437 6.688346
v -8.904758 -6.451437 6.829347
v -8.904758 6.486743 6.829347
v -9.121758 6.486743 6.688346
v -9.080759 6.486743 7.100347
v -8.904758 6.486743 6.829347
v -8.904758 -6.451437 6.829347
v -9.080759 -6.451437 7.100347
v -8.999759 -6.451437 7.735847
v -8.918758 -6.451437 8.371346
v -8.918758 6.486743 8.371346
v -9.080759 6.486743 7.100347
v -9.080759 -6.451437 7.100347
v -8.999759 -6.451437 7.735847
v -9.080759 6.486743 7.100347
v -8.999759 -6.451437 7.735847
v -8.918758 6.486743 8.371346
v -8.918758 -6.451437 8.371346
v -7.072759 -6.451437 9.572347
v -7.072759 6.486743 9.572347
v -8.918758 6.486743 8.371346
v -6.440759 -6.451437 9.448346
v -5.808759 -6.451437 9.324347
v -5.808759 6.486743 9.324347
v -7.072759 6.486743 9.572347
v -7.072759 -6.451437 9.572347
v -6.440759 -6.451437 9.448346
v -7.072759 6.486743 9.572347
v -6.440759 -6.451437 9.448346
v -5.808759 6.486743 9.324347
v -5.808759 -6.451437 9.324347
v -5.601759 -6.451437 9.006347
v -5.601759 6.486743 9.006347
v -5.808759 6.486743 9.324347
v -5.601759 -6.451437 9.006347
v -2.865759 -6.451437 10.78835
v -2.865759 6.486743 10.78835
v -5.601759 6.486743 9.006347
v -2.865759 -6.451437 10.78835
v -2.731759 -6.451437 10.58235
v -2.731759 6.486743 10.58235
v -2.865759 6.486743 10.78835
v -2.731759 -6.451437 10.58235
v 8.935241 -6.451437 -7.336654
v 8.935241 6.486743 -7.336654
v -2.731759 6.486743 10.58235
v 8.935241 -6.451437 -7.336654
v 9.502241 -6.451437 -8.208653
v 9.502241 6.486743 -8.208653
v 8.935241 6.486743 -7.336654
v 6.670241 6.486743 -10.05265
v 9.502241 6.486743 -8.208653
v 6.670241 5.429564 -10.05265
v 6.670241 5.429564 -10.05265
v 9.502241 6.486743 -8.208653
v 9.502241 -6.451437 -8.208653
v 6.670241 -6.451437 -10.05265
v 6.012241 6.486743 -9.043653
v 6.670241 6.486743 -10.05265
v 6.012241 5.858766 -9.043653
v 6.012241 5.858766 -9.043653
v 6.670241 6.486743 -10.05265
v 6.670241 5.429564 -10.05265
v 4.073241 6.486743 -10.30565
v 6.012241 6.486743 -9.043653
v 6.012241 5.858766 -9.043653
v 4.073241 5.858833 -10.30565
v 3.372241 6.486743 -10.76265
v 4.073241 6.486743 -10.30565
v 4.073241 5.858833 -10.30565
v 3.372241 5.482744 -10.76265
v 0.2392412 6.486743 -5.949654
v 3.372241 5.482744 -10.76265
v 3.372241 -6.451437 -10.76265
v 0.2392412 -6.451437 -5.949654
v 0.2392412 6.486743 -5.949654
v 3.372241 6.486743 -10.76265
v 3.372241 5.482744 -10.76265
v 0.2392412 -6.451437 -5.949654
v 2.363241 -6.451437 -4.567654
v 2.363241 6.486743 -4.567654
v 0.2392412 6.486743 -5.949654
v 0.6912411 6.486743 -1.998654
v 1.527241 -6.451437 -3.283154
v 0.6912411 -6.451437 -1.998654
v 1.527241 -6.451437 -3.283154
v 2.363241 6.486743 -4.567654
v 2.363241 -6.451437 -4.567654
v 0.6912411 6.486743 -1.998654
v 2.363241 6.486743 -4.567654
v 1.527241 -6.451437 -3.283154
v -0.8037589 6.486743 -1.738654
v 0.6912411 6.486743 -1.998654
v 0.6912411 -6.451437 -1.998654
v -0.8037589 -6.451437 -1.738654
v -2.792759 6.486743 -3.032654
v -0.8037589 6.486743 -1.738654
v -0.8037589 -6.451437 -1.738654
v -2.792759 -6.451437 -3.032654
v -9.121758 6.486743 6.688346
v -2.792759 6.486743 -3.032654
v -2.792759 -6.451437 -3.032654
v -9.121758 -6.451437 6.688346
v 6.801744 -6.451437 -10.25466
v 6.933246 -6.451437 -10.45666
v 6.933246 5.257766 -10.45666
v 6.670241 5.429564 -10.05265
v 6.670241 -6.451437 -10.05265
v 6.801744 -6.451437 -10.25466
v 6.670241 5.429564 -10.05265
v 6.801744 -6.451437 -10.25466
v 6.933246 5.257766 -10.45666
v 3.873245 5.257766 -12.44866
v 6.933246 5.257766 -10.45666
v 6.933246 -6.451437 -10.45666
v 3.873245 -6.451437 -12.44866
v 2.953241 5.257743 -11.03565
v 3.413243 -6.451437 -11.74216
v 2.953241 -6.451437 -11.03565
v 3.413243 -6.451437 -11.74216
v 3.873245 5.257766 -12.44866
v 3.873245 -6.451437 -12.44866
v 2.953241 5.257743 -11.03565
v 3.873245 5.257766 -12.44866
v 3.413243 -6.451437 -11.74216
v 2.953241 -6.451437 -11.03565
v 3.372241 -6.451437 -10.76265
v 3.372241 5.482744 -10.76265
v 2.953241 5.257743 -11.03565
v -0.8037589 -6.451437 -1.738654
v 0.6912411 -6.451437 -1.998654
v 1.527241 -6.451437 -3.283154
v 2.363241 -6.451437 -4.567654
v 0.2392412 -6.451437 -5.949654
v 3.372241 -6.451437 -10.76265
v 2.953241 -6.451437 -11.03565
v 3.413243 -6.451437 -11.74216
v 3.873245 -6.451437 -12.44866
v 6.933246 -6.451437 -10.45666
v 6.801744 -6.451437 -10.25466
v 6.670241 -6.451437 -10.05265
v 9.502241 -6.451437 -8.208653
v 8.935241 -6.451437 -7.336654
v -2.731759 -6.451437 10.58235
v -2.865759 -6.451437 10.78835
v -5.601759 -6.451437 9.006347
v -5.808759 -6.451437 9.324347
v -6.440759 -6.451437 9.448346
v -7.072759 -6.451437 9.572347
v -8.918758 -6.451437 8.371346
v -8.999759 -6.451437 7.735847
v -9.080759 -6.451437 7.100347
v -8.904758 -6.451437 6.829347
v -9.121758 -6.451437 6.688346
v -2.792759 -6.451437 -3.032654
vt 0.037491 0.379722
vt 0.046796 0.350099
vt 0.057368 0.345441
vt 0.074887 0.424071
vt 0.037491 0.379722
vt 0.125195 0.424814
vt 0.125195 0.424814
vt 0.037491 0.379722
vt 0.057368 0.345441
vt 0.057368 0.345441
vt 0.001876 0.279706
vt 0.008724 0.276690
vt 0.507805 0.167129
vt 0.657333 0.084220
vt 0.696624 0.130811
vt 0.550832 0.218163
vt 0.657333 0.084220
vt 0.604476 0.014118
vt 0.633469 0.001357
vt 0.690883 0.069409
vt 0.116186 0.428774
vt 0.074887 0.424071
vt 0.125195 0.424814
vt 0.057368 0.345441
vt 0.412470 0.239819
vt 0.452758 0.287607
vt 0.125195 0.424814
vt 0.550832 0.218163
vt 0.696624 0.130811
vt 0.710854 0.147655
vt 0.129585 0.430027
vt 0.125195 0.424814
vt 0.452758 0.287607
vt 0.008724 0.276690
vt 0.604476 0.014118
vt 0.422393 0.204757
vt 0.507805 0.167129
vt 0.604476 0.014118
vt 0.657333 0.084220
vt 0.422393 0.204757
vt 0.604476 0.014118
vt 0.507805 0.167129
vt 0.008724 0.276690
vt 0.422393 0.204757
vt 0.412470 0.239819
vt 0.057368 0.345441
vt 0.008724 0.276690
vt 0.412470 0.239819
vt 0.800127 0.876116
vt 0.761726 0.830573
vt 0.794281 0.812993
vt 0.800127 0.876116
vt 0.794281 0.812993
vt 0.807306 0.805970
vt 0.867874 0.877790
vt 0.800127 0.876116
vt 0.807306 0.805970
vt 0.025099 0.999006
vt 0.016419 0.988215
vt 0.070499 0.977877
vt 0.016419 0.988215
vt 0.001876 0.970149
vt 0.070499 0.977877
vt 0.757137 0.877069
vt 0.753683 0.872055
vt 0.752345 0.805970
vt 0.755856 0.811066
vt 0.872420 0.810122
vt 0.879883 0.805970
vt 0.881369 0.872032
vt 0.874027 0.876116
vt 0.907883 0.873866
vt 0.888050 0.872025
vt 0.885553 0.805970
vt 0.925869 0.809712
vt 0.927716 0.875707
vt 0.907883 0.873866
vt 0.925869 0.809712
vt 0.907883 0.873866
vt 0.885553 0.805970
vt 0.528435 0.916120
vt 0.490910 0.873187
vt 0.487805 0.805970
vt 0.525944 0.849606
vt 0.426930 0.820335
vt 0.430750 0.805970
vt 0.429901 0.904274
vt 0.422139 0.933465
vt 0.423111 0.834701
vt 0.426930 0.820335
vt 0.422139 0.933465
vt 0.426930 0.820335
vt 0.429901 0.904274
vt 0.638772 0.810471
vt 0.647667 0.805970
vt 0.646936 0.903957
vt 0.637899 0.908530
vt 0.416755 0.938686
vt 0.360256 0.874925
vt 0.356473 0.805970
vt 0.413895 0.870774
vt 0.003597 0.704300
vt 0.010299 0.701359
vt 0.008686 0.799195
vt 0.001876 0.802183
vt 0.010299 0.701359
vt 0.593321 0.445281
vt 0.601078 0.539007
vt 0.008686 0.799195
vt 0.593321 0.445281
vt 0.621694 0.432836
vt 0.629907 0.526362
vt 0.601078 0.539007
vt 0.065387 0.966320
vt 0.009878 0.899057
vt 0.064651 0.958514
vt 0.064651 0.958514
vt 0.009878 0.899057
vt 0.001876 0.805970
vt 0.056507 0.872171
vt 0.075356 0.984918
vt 0.106851 0.970149
vt 0.075047 0.988281
vt 0.075047 0.988281
vt 0.106851 0.970149
vt 0.106288 0.975828
vt 0.970624 0.856096
vt 0.932868 0.810568
vt 0.932458 0.805970
vt 0.970185 0.851463
vt 0.984298 0.872556
vt 0.970624 0.856096
vt 0.970185 0.851463
vt 0.983579 0.865131
vt 0.194445 0.880610
vt 0.351110 0.811596
vt 0.344218 0.877388
vt 0.189493 0.950826
vt 0.194445 0.880610
vt 0.351699 0.805970
vt 0.351110 0.811596
vt 0.478741 0.926316
vt 0.435272 0.876864
vt 0.439384 0.805970
vt 0.483563 0.856231
vt 0.535676 0.845685
vt 0.573711 0.896324
vt 0.532833 0.915862
vt 0.573711 0.896324
vt 0.618768 0.805970
vt 0.614589 0.876786
vt 0.535676 0.845685
vt 0.618768 0.805970
vt 0.573711 0.896324
vt 0.625262 0.841356
vt 0.632548 0.805970
vt 0.630058 0.876114
vt 0.622889 0.910930
vt 0.185565 0.949876
vt 0.147139 0.902685
vt 0.142589 0.805970
vt 0.180408 0.852416
vt 0.634146 0.584068
vt 0.953509 0.432836
vt 0.950070 0.502105
vt 0.635845 0.650901
vt 0.658951 0.808825
vt 0.664994 0.805970
vt 0.672742 0.890435
vt 0.660592 0.897487
vt 0.652908 0.811680
vt 0.658951 0.808825
vt 0.660592 0.897487
vt 0.658951 0.808825
vt 0.672742 0.890435
vt 0.137657 0.963506
vt 0.077647 0.890951
vt 0.069418 0.805970
vt 0.128569 0.877488
vt 0.684027 0.827719
vt 0.699480 0.880995
vt 0.677298 0.891711
vt 0.699480 0.880995
vt 0.729046 0.805970
vt 0.721662 0.870279
vt 0.684027 0.827719
vt 0.729046 0.805970
vt 0.699480 0.880995
vt 0.741509 0.880905
vt 0.733584 0.871213
vt 0.739780 0.805970
vt 0.747704 0.817054
vt 0.110694 0.970149
vt 0.110694 0.970149
vt 0.110694 0.970149
vt 0.110694 0.970149
vt 0.110694 0.970149
vt 0.110694 0.970149
vt 0.110694 0.970149
vt 0.110694 0.970149
vt 0.110694 0.970149
vt 0.110694 0.970149
vt 0.110694 0.970149
vt 0.110694 0.970149
vt 0.110694 0.970149
vt 0.110694 0.970149
vt 0.110694 0.970149
vt 0.110694 0.970149
vt 0.110694 0.970149
vt 0.110694 0.970149
vt 0.110694 0.970149
vt 0.110694 0.970149
vt 0.110694 0.970149
vt 0.110694 0.970149
vt 0.110694 0.970149
vt 0.110694 0.970149
vt 0.110694 0.970149
vt 0.110694 0.970149
vn 0 1 0
vn 0 1 0
vn 0 1 0
vn 0 1 0
vn 0 1 0
vn 0 1 0
vn 0 1 0
vn 0 1 0
vn 0 1 0
vn 0 1 0
vn 0 1 0
vn 0 1 0
vn 0 1 0
vn 0 1 0
vn 0 1 0
vn 0 1 0
vn 0 1 0
vn 0 1 0
vn 0 1 0
vn 0 1 0
vn 0 1 0
vn 0 1 0
vn 0 1 0
vn 0 1 0
vn 0 1 0
vn 0 1 0
vn 0 1 0
vn 0 1 0
vn 0 1 0
vn 0 1 0
vn 0 1 0
vn 0 1 0
vn 0 1 0
vn 0 1 0
vn 0 1 0
vn 0 1 0
vn 0 1 0
vn 0 1 0
vn 0 1 0
vn 0 1 0
vn 0 1 0
vn 0 1 0
vn 0 1 0
vn 0 1 0
vn 0 1 0
vn 0 1 0
vn 0 1 0
vn 0 1 0
vn 0.1831088 0.9419916 -0.2812879
vn 0.1831088 0.9419916 -0.2812879
vn 0.1831088 0.9419916 -0.2812879
vn 0.1831119 0.9419712 -0.2813544
vn 0.1831119 0.9419712 -0.2813544
vn 0.1831119 0.9419712 -0.2813544
vn 0.1831184 0.9419873 -0.2812963
vn 0.1831184 0.9419873 -0.2812963
vn 0.1831184 0.9419873 -0.2812963
vn -0.3438504 0.9119492 -0.2238653
vn -0.3438504 0.9119492 -0.2238653
vn -0.3438504 0.9119492 -0.2238653
vn -0.3434691 0.9121152 -0.2237742
vn -0.3434691 0.9121152 -0.2237742
vn -0.3434691 0.9121152 -0.2237742
vn -0.5448525 0 0.8385319
vn -0.5448525 0 0.8385319
vn -0.5448525 0 0.8385319
vn -0.5448525 0 0.8385319
vn -0.8386557 0 -0.544662
vn -0.8386557 0 -0.544662
vn -0.8386557 0 -0.544662
vn -0.8386557 0 -0.544662
vn -0.9919748 0 0.1264358
vn -0.9919748 0 0.1264358
vn -0.9919748 0 0.1264358
vn -0.9919748 0 0.1264358
vn -0.9919748 0 0.1264358
vn -0.9919748 0 0.1264358
vn -0.9919748 0 0.1264358
vn -0.9919748 0 0.1264358
vn -0.9919748 0 0.1264358
vn -0.5453394 0 0.8382153
vn -0.5453394 0 0.8382153
vn -0.5453394 0 0.8382153
vn -0.5453394 0 0.8382153
vn 0.1925317 0 0.9812908
vn 0.1925317 0 0.9812908
vn 0.1925317 0 0.9812908
vn 0.1925317 0 0.9812908
vn 0.1925317 0 0.9812908
vn 0.1925317 0 0.9812908
vn 0.1925317 0 0.9812908
vn 0.1925317 0 0.9812908
vn 0.1925317 0 0.9812908
vn 0.8380821 0 0.545544
vn 0.8380821 0 0.545544
vn 0.8380821 0 0.545544
vn 0.8380821 0 0.545544
vn -0.5457632 0 0.8379394
vn -0.5457632 0 0.8379394
vn -0.5457632 0 0.8379394
vn -0.5457632 0 0.8379394
vn 0.8382576 0 0.5452744
vn 0.8382576 0 0.5452744
vn 0.8382576 0 0.5452744
vn 0.8382576 0 0.5452744
vn 0.8380234 0 0.5456342
vn 0.8380234 0 0.5456342
vn 0.8380234 0 0.5456342
vn 0.8380234 0 0.5456342
vn 0.8383557 0 0.5451235
vn 0.8383557 0 0.5451235
vn 0.8383557 0 0.5451235
vn 0.8383557 0 0.5451235
vn 0.5456538 0 -0.8380107
vn 0.5456538 0 -0.8380107
vn 0.5456538 0 -0.8380107
vn 0.5456538 0 -0.8380107
vn 0.5456538 0 -0.8380107
vn 0.5456538 0 -0.8380107
vn 0.5456538 0 -0.8380107
vn -0.8376271 0 -0.5462425
vn -0.8376271 0 -0.5462425
vn -0.8376271 0 -0.5462425
vn -0.8376271 0 -0.5462425
vn -0.8376271 0 -0.5462425
vn -0.8376271 0 -0.5462425
vn 0.5454896 0 -0.8381176
vn 0.5454896 0 -0.8381176
vn 0.5454896 0 -0.8381176
vn 0.5454896 0 -0.8381176
vn 0.546122 0 -0.8377057
vn 0.546122 0 -0.8377057
vn 0.546122 0 -0.8377057
vn 0.546122 0 -0.8377057
vn -0.8380814 0 -0.5455452
vn -0.8380814 0 -0.5455452
vn -0.8380814 0 -0.5455452
vn -0.8380814 0 -0.5455452
vn -0.8380814 0 -0.5455452
vn -0.8380814 0 -0.5455452
vn -0.8380814 0 -0.5455452
vn -0.5453767 0 0.8381911
vn -0.5453767 0 0.8381911
vn -0.5453767 0 0.8381911
vn -0.5453767 0 0.8381911
vn -0.838123 0 -0.5454813
vn -0.838123 0 -0.5454813
vn -0.838123 0 -0.5454813
vn -0.838123 0 -0.5454813
vn -0.838123 0 -0.5454813
vn -0.838123 0 -0.5454813
vn -0.838123 1.963256E-11 -0.5454813
vn -0.838123 1.963256E-11 -0.5454813
vn -0.838123 1.963256E-11 -0.5454813
vn -0.1713412 0 -0.9852117
vn -0.1713412 0 -0.9852117
vn -0.1713412 0 -0.9852117
vn -0.1713412 0 -0.9852117
vn 0.545329 0 -0.8382221
vn 0.545329 0 -0.8382221
vn 0.545329 0 -0.8382221
vn 0.545329 0 -0.8382221
vn -0.8380356 0 -0.5456154
vn -0.8380356 0 -0.5456154
vn -0.8380356 0 -0.5456154
vn -0.8380356 0 -0.5456154
vn 0.8380643 0 0.5455716
vn 0.8380643 0 0.5455716
vn 0.8380643 0 0.5455716
vn 0.8380643 0 0.5455715
vn 0.8380643 0 0.5455715
vn 0.8380643 0 0.5455715
vn 0.8380643 -1.382205E-10 0.5455716
vn 0.8380643 -1.382205E-10 0.5455716
vn 0.8380643 -1.382205E-10 0.5455716
vn 0.5455658 0 -0.8380679
vn 0.5455658 0 -0.8380679
vn 0.5455658 0 -0.8380679
vn 0.5455658 0 -0.8380679
vn -0.8380233 0 -0.5456344
vn -0.8380233 0 -0.5456344
vn -0.8380233 0 -0.5456344
vn -0.8380233 0 -0.5456344
vn -0.8380233 0 -0.5456344
vn -0.8380233 0 -0.5456344
vn -0.8380233 1.17493E-10 -0.5456344
vn -0.8380233 1.17493E-10 -0.5456344
vn -0.8380233 1.17493E-10 -0.5456344
vn -0.5459018 0 0.8378492
vn -0.5459018 0 0.8378492
vn -0.5459018 0 0.8378492
vn -0.5459018 0 0.8378492
vn 0 -1 0
vn 0 -1 0
vn 0 -1 0
vn 0 -1 0
vn 0 -1 0
vn 0 -1 0
vn 0 -1 0
vn 0 -1 0
vn 0 -1 0
vn 0 -1 0
vn 0 -1 0
vn 0 -1 0
vn 0 -1 0
vn 0 -1 0
vn 0 -1 0
vn 0 -1 0
vn 0 -1 0
vn 0 -1 0
vn 0 -1 0
vn 0 -1 0
vn 0 -1 0
vn 0 -1 0
vn 0 -1 0
vn 0 -1 0
vn 0 -1 0
vn 0 -1 0

g CDNNDG02_0012280
f 1/1/1 2/2/2 3/3/3
f 4/4/4 5/5/5 6/6/6
f 7/7/7 8/8/8 9/9/9
f 10/10/10 11/11/11 12/12/12
f 13/13/13 15/15/15 16/16/16
f 13/13/13 14/14/14 15/15/15
f 20/20/20 17/17/17 18/18/18
f 19/19/19 20/20/20 18/18/18
f 21/21/21 22/22/22 23/23/23
f 25/25/25 26/26/26 27/27/27
f 24/24/24 25/25/25 27/27/27
f 28/28/28 29/29/29 30/30/30
f 31/31/31 32/32/32 33/33/33
f 34/34/34 35/35/35 36/36/36
f 37/37/37 38/38/38 39/39/39
f 40/40/40 41/41/41 42/42/42
f 43/43/43 44/44/44 45/45/45
f 46/46/46 47/47/47 48/48/48
f 49/49/49 50/50/50 51/51/51
f 52/52/52 53/53/53 54/54/54
f 55/55/55 56/56/56 57/57/57
f 58/58/58 59/59/59 60/60/60
f 61/61/61 62/62/62 63/63/63
f 67/67/67 64/64/64 65/65/65
f 66/66/66 67/67/67 65/65/65
f 68/68/68 70/70/70 71/71/71
f 68/68/68 69/69/69 70/70/70
f 72/72/72 73/73/73 74/74/74
f 75/75/75 76/76/76 77/77/77
f 78/78/78 79/79/79 80/80/80
f 84/84/84 81/81/81 83/83/83
f 83/83/83 81/81/81 82/82/82
f 85/85/85 86/86/86 87/87/87
f 88/88/88 89/89/89 90/90/90
f 91/91/91 92/92/92 93/93/93
f 95/95/95 96/96/96 94/94/94
f 94/94/94 96/96/96 97/97/97
f 98/98/98 100/100/100 101/101/101
f 100/100/100 98/98/98 99/99/99
f 103/103/103 104/104/104 105/105/105
f 102/102/102 103/103/103 105/105/105
f 109/109/109 106/106/106 108/108/108
f 107/107/107 108/108/108 106/106/106
f 111/111/111 112/112/112 110/110/110
f 110/110/110 112/112/112 113/113/113
f 114/114/114 115/115/115 116/116/116
f 119/119/119 117/117/117 118/118/118
f 117/117/117 119/119/119 120/120/120
f 121/121/121 122/122/122 123/123/123
f 124/124/124 125/125/125 126/126/126
f 128/128/128 129/129/129 130/130/130
f 127/127/127 128/128/128 130/130/130
f 134/134/134 131/131/131 133/133/133
f 132/132/132 133/133/133 131/131/131
f 138/138/138 136/136/136 137/137/137
f 138/138/138 135/135/135 136/136/136
f 139/139/139 140/140/140 141/141/141
f 145/145/145 142/142/142 144/144/144
f 144/144/144 142/142/142 143/143/143
f 146/146/146 147/147/147 148/148/148
f 149/149/149 150/150/150 151/151/151
f 152/152/152 153/153/153 154/154/154
f 155/155/155 157/157/157 158/158/158
f 155/155/155 156/156/156 157/157/157
f 161/161/161 159/159/159 160/160/160
f 159/159/159 161/161/161 162/162/162
f 163/163/163 165/165/165 166/166/166
f 163/163/163 164/164/164 165/165/165
f 167/167/167 168/168/168 169/169/169
f 170/170/170 171/171/171 172/172/172
f 173/173/173 174/174/174 175/175/175
f 178/178/178 176/176/176 177/177/177
f 176/176/176 178/178/178 179/179/179
f 180/180/180 181/181/181 182/182/182
f 183/183/183 184/184/184 185/185/185
f 186/186/186 187/187/187 188/188/188
f 190/190/190 191/191/191 192/192/192
f 192/192/192 189/189/189 190/190/190
f 216/216/216 217/217/217 218/218/218
f 207/207/207 193/193/193 194/194/194
f 193/193/193 216/216/216 218/218/218
f 207/207/207 194/194/194 206/206/206
f 194/194/194 195/195/195 206/206/206
f 195/195/195 196/196/196 206/206/206
f 214/214/214 215/215/215 216/216/216
f 196/196/196 197/197/197 198/198/198
f 196/196/196 198/198/198 204/204/204
f 211/211/211 214/214/214 216/216/216
f 198/198/198 199/199/199 200/200/200
f 198/198/198 200/200/200 201/201/201
f 198/198/198 201/201/201 204/204/204
f 212/212/212 213/213/213 214/214/214
f 201/201/201 202/202/202 203/203/203
f 201/201/201 203/203/203 204/204/204
f 206/206/206 196/196/196 204/204/204
f 204/204/204 205/205/205 206/206/206
f 211/211/211 212/212/212 214/214/214
f 193/193/193 207/207/207 209/209/209
f 207/207/207 208/208/208 209/209/209
f 209/209/209 211/211/211 216/216/216
f 193/193/193 209/209/209 216/216/216
f 209/209/209 210/210/210 211/211/211
