v 2.088132 7.751503 5.476627
v 4.825132 6.229504 7.231627
v 7.905132 6.229504 2.428627
v 5.780132 7.751503 -0.2873731
v 7.905132 6.229504 2.428627
v 8.520132 6.229504 1.469627
v 2.088132 7.751503 5.476627
v 7.905132 6.229504 2.428627
v 5.780132 7.751503 -0.2873731
v -6.351868 6.229504 -5.267373
v -2.025868 7.751503 -5.385373
v -5.077868 7.751503 -7.252373
v -5.788868 7.751503 0.4236269
v 2.088132 7.751503 5.476627
v 5.780132 7.751503 -0.2873731
v -2.025868 7.751503 -5.385373
v -6.351868 6.229504 -5.267373
v -6.046267 7.055658 -2.178249
v -2.025868 7.751503 -5.385373
v -5.788868 7.751503 0.4236269
v -5.141868 7.518053 -1.581373
v -5.348868 7.518157 -1.261373
v -5.997906 7.186396 -1.689399
v -5.788868 7.751503 0.4236269
v -5.348868 7.518157 -1.261373
v -6.046267 7.055658 -2.178249
v -5.141868 7.518053 -1.581373
v -2.025868 7.751503 -5.385373
v -5.788868 7.751503 0.4236269
v -2.025868 7.751503 -5.385373
v -5.141868 7.518053 -1.581373
v -7.342868 6.494929 -2.576373
v -5.788868 7.751503 0.4236269
v -5.997906 7.186396 -1.689399
v -7.342868 6.494929 -2.576373
v -7.132868 6.496895 -2.895373
v -6.351868 6.229504 -5.267373
v -7.132868 6.496895 -2.895373
v -6.046267 7.055658 -2.178249
v -6.351868 6.229504 -5.267373
v -8.773868 6.229504 -1.490373
v -5.788868 7.751503 0.4236269
v -7.342868 6.494929 -2.576373
v -8.773868 6.229504 -1.490373
v -7.342868 6.494929 -2.576373
v -6.351868 6.229504 -5.267373
v -7.342868 7.518504 -2.576373
v -5.348868 7.518504 -1.261373
v -5.141868 7.518504 -1.581373
v -7.132868 7.518504 -2.895373
v 7.905132 5.642503 2.428627
v 9.296132 5.348504 3.320627
v 9.911132 5.348504 2.361627
v 8.520132 5.642503 1.469627
v 2.088132 -7.439829 5.476627
v 4.825132 -7.439829 7.231627
v 4.825132 6.229504 7.231627
v 2.088132 7.751503 5.476627
v -5.788868 -7.439829 0.4236269
v 2.088132 -7.439829 5.476627
v 2.088132 7.751503 5.476627
v -5.788868 7.751503 0.4236269
v -7.281368 -7.439829 -0.5333731
v -5.788868 -7.439829 0.4236269
v -5.788868 7.751503 0.4236269
v -8.773868 6.229504 -1.490373
v -8.773868 -7.439829 -1.490373
v -7.281368 -7.439829 -0.5333731
v -8.773868 6.229504 -1.490373
v -7.281368 -7.439829 -0.5333731
v -5.788868 7.751503 0.4236269
v 4.825132 6.229504 7.231627
v 7.905132 5.642503 2.428627
v 7.905132 6.229504 2.428627
v 4.825132 -7.439829 7.231627
v 7.905132 -7.439829 2.428627
v 7.905132 5.642503 2.428627
v 4.825132 6.229504 7.231627
v 7.905132 5.642503 2.428627
v 8.520132 5.642503 1.469627
v 8.520132 6.229504 1.469627
v 7.905132 6.229504 2.428627
v 5.780132 7.751503 -0.2873731
v 8.520132 5.642503 1.469627
v 8.520132 -7.439829 1.469627
v 5.780132 -7.439829 -0.2873731
v 5.780132 7.751503 -0.2873731
v 8.520132 6.229504 1.469627
v 8.520132 5.642503 1.469627
v -5.077868 7.751503 -7.252373
v -2.025868 7.751503 -5.385373
v -2.025868 -7.439829 -5.385373
v -5.077868 -7.439829 -7.252373
v -2.025868 7.751503 -5.385373
v 5.780132 7.751503 -0.2873731
v 5.780132 -7.439829 -0.2873731
v -2.025868 -7.439829 -5.385373
v 8.520132 5.642503 1.469627
v 9.911132 5.348504 2.361627
v 9.911132 -7.439829 2.361627
v 8.520132 -7.439829 1.469627
v -6.351868 6.229504 -5.267373
v -5.077868 7.751503 -7.252373
v -5.077868 -7.439829 -7.252373
v -6.351868 -7.439829 -5.267373
v -8.773868 6.229504 -1.490373
v -6.351868 6.229504 -5.267373
v -6.351868 -7.439829 -5.267373
v -8.773868 -7.439829 -1.490373
v -5.997906 7.186396 -1.689399
v -5.348868 7.518157 -1.261373
v -5.348868 7.518504 -1.261373
v -7.342868 7.518504 -2.576373
v -7.342868 6.494929 -2.576373
v -5.997906 7.186396 -1.689399
v -7.342868 7.518504 -2.576373
v -5.997906 7.186396 -1.689399
v -5.348868 7.518504 -1.261373
v -5.348868 7.518157 -1.261373
v -5.141868 7.518053 -1.581373
v -5.141868 7.518504 -1.581373
v -5.348868 7.518504 -1.261373
v -7.132868 7.518504 -2.895373
v -6.046267 7.055658 -2.178249
v -7.132868 6.496895 -2.895373
v -6.046267 7.055658 -2.178249
v -5.141868 7.518504 -1.581373
v -5.141868 7.518053 -1.581373
v -7.132868 7.518504 -2.895373
v -5.141868 7.518504 -1.581373
v -6.046267 7.055658 -2.178249
v -7.342868 7.518504 -2.576373
v -7.132868 7.518504 -2.895373
v -7.132868 6.496895 -2.895373
v -7.342868 6.494929 -2.576373
v 7.905132 -7.439829 2.428627
v 9.296132 -7.439829 3.320627
v 9.296132 5.348504 3.320627
v 7.905132 5.642503 2.428627
v 9.603632 -7.439829 2.841127
v 9.911132 -7.439829 2.361627
v 9.911132 5.348504 2.361627
v 9.296132 5.348504 3.320627
v 9.296132 -7.439829 3.320627
v 9.603632 -7.439829 2.841127
v 9.296132 5.348504 3.320627
v 9.603632 -7.439829 2.841127
v 9.911132 5.348504 2.361627
v -8.773868 -7.439829 -1.490373
v -6.351868 -7.439829 -5.267373
v -5.077868 -7.439829 -7.252373
v -2.025868 -7.439829 -5.385373
v 5.780132 -7.439829 -0.2873731
v 8.520132 -7.439829 1.469627
v 9.911132 -7.439829 2.361627
v 9.603632 -7.439829 2.841127
v 9.296132 -7.439829 3.320627
v 7.905132 -7.439829 2.428627
v 4.825132 -7.439829 7.231627
v 2.088132 -7.439829 5.476627
v -5.788868 -7.439829 0.4236269
v -7.281368 -7.439829 -0.5333731
vt 0.316889 0.942273
vt 0.254386 0.857134
vt 0.436333 0.776066
vt 0.535657 0.844915
vt 0.436333 0.776066
vt 0.472663 0.759878
vt 0.316889 0.942273
vt 0.436333 0.776066
vt 0.535657 0.844915
vt 0.541667 0.884285
vt 0.542516 0.759878
vt 0.613764 0.841263
vt 0.200045 0.756280
vt 0.002193 0.546959
vt 0.223125 0.446809
vt 0.422684 0.654231
vt 0.876385 0.571741
vt 0.755513 0.559200
vt 0.877251 0.446809
vt 0.653509 0.548618
vt 0.731341 0.532335
vt 0.719019 0.537934
vt 0.736362 0.557214
vt 0.653509 0.548618
vt 0.719019 0.537934
vt 0.755513 0.559200
vt 0.731341 0.532335
vt 0.877251 0.446809
vt 0.653509 0.548618
vt 0.877251 0.446809
vt 0.731341 0.532335
vt 0.772261 0.597137
vt 0.653509 0.548618
vt 0.736362 0.557214
vt 0.772261 0.597137
vt 0.784523 0.591454
vt 0.876385 0.571741
vt 0.784523 0.591454
vt 0.755513 0.559200
vt 0.876385 0.571741
vt 0.731187 0.637143
vt 0.653509 0.548618
vt 0.772261 0.597137
vt 0.731187 0.637143
vt 0.772261 0.597137
vt 0.876385 0.571741
vt 0.867977 0.817229
vt 0.817982 0.765373
vt 0.829896 0.759878
vt 0.879852 0.811656
vt 0.919180 0.812520
vt 0.885965 0.776129
vt 0.921687 0.759878
vt 0.954915 0.796264
vt 0.103344 0.156153
vt 0.036067 0.083936
vt 0.002193 0.001520
vt 0.066928 0.065782
vt 0.297035 0.363978
vt 0.103344 0.156153
vt 0.066928 0.065782
vt 0.264371 0.277635
vt 0.333717 0.403354
vt 0.297035 0.363978
vt 0.264371 0.277635
vt 0.342340 0.366558
vt 0.370398 0.442729
vt 0.333717 0.403354
vt 0.342340 0.366558
vt 0.333717 0.403354
vt 0.264371 0.277635
vt 0.427632 0.643647
vt 0.610776 0.557483
vt 0.609192 0.562533
vt 0.466977 0.526563
vt 0.645489 0.446809
vt 0.610776 0.557483
vt 0.427632 0.643647
vt 0.610776 0.557483
vt 0.647002 0.541298
vt 0.645444 0.546337
vt 0.609192 0.562533
vt 0.472585 0.130454
vt 0.409081 0.054762
vt 0.441198 0.037836
vt 0.508681 0.109372
vt 0.472585 0.130454
vt 0.407615 0.055534
vt 0.409081 0.054762
vt 0.745225 0.419366
vt 0.672092 0.338138
vt 0.704420 0.313135
vt 0.776171 0.392829
vt 0.672092 0.338138
vt 0.472585 0.130454
vt 0.508681 0.109372
vt 0.704420 0.313135
vt 0.409081 0.054762
vt 0.375000 0.017472
vt 0.406938 0.001520
vt 0.441198 0.037836
vt 0.147514 0.803071
vt 0.221144 0.759878
vt 0.248079 0.846196
vt 0.173008 0.880002
vt 0.002193 0.868457
vt 0.147514 0.803071
vt 0.173008 0.880002
vt 0.030170 0.944268
vt 0.777776 0.778828
vt 0.760966 0.759880
vt 0.760965 0.759878
vt 0.810558 0.812324
vt 0.812574 0.818062
vt 0.777776 0.778828
vt 0.810558 0.812324
vt 0.777776 0.778828
vt 0.760965 0.759878
vt 0.087720 0.952558
vt 0.097991 0.948328
vt 0.097990 0.948329
vt 0.087719 0.952558
vt 0.051804 0.999951
vt 0.025765 0.970960
vt 0.054056 0.998111
vt 0.025765 0.970960
vt 0.002193 0.948329
vt 0.002194 0.948328
vt 0.051804 0.999951
vt 0.002193 0.948329
vt 0.025765 0.970960
vt 0.059211 0.953337
vt 0.069840 0.948328
vt 0.071623 0.953474
vt 0.061010 0.958486
vt 0.754679 0.874425
vt 0.721428 0.838073
vt 0.692982 0.759878
vt 0.726122 0.795008
vt 0.669614 0.767805
vt 0.687067 0.759878
vt 0.653884 0.866707
vt 0.618421 0.882813
vt 0.652161 0.775731
vt 0.669614 0.767805
vt 0.618421 0.882813
vt 0.669614 0.767805
vt 0.653884 0.866707
vt 0.076754 0.948328
vt 0.076754 0.948328
vt 0.076754 0.948328
vt 0.076754 0.948328
vt 0.076754 0.948328
vt 0.076754 0.948328
vt 0.076754 0.948328
vt 0.076754 0.948328
vt 0.076754 0.948328
vt 0.076754 0.948328
vt 0.076754 0.948328
vt 0.076754 0.948328
vt 0.076754 0.948328
vt 0.076754 0.948328
vn 0.3568861 0.9056798 0.2288589
vn 0.3568861 0.9056798 0.2288589
vn 0.3568861 0.9056798 0.2288589
vn 0.3565574 0.9058601 0.2286578
vn 0.3565574 0.9058601 0.2286578
vn 0.3565574 0.9058601 0.2286578
vn 0.3567371 0.9058291 0.2284999
vn 0.3567371 0.9058291 0.2284999
vn 0.3567371 0.9058291 0.2284999
vn -0.2829838 0.8401935 0.462596
vn -0.2829838 0.8401935 0.462596
vn -0.2829838 0.8401935 0.462596
vn 0 1 0
vn 0 1 0
vn 0 1 0
vn 0 1 0
vn -0.3294147 0.9197556 -0.2133909
vn -0.3294147 0.9197556 -0.2133909
vn -0.3294147 0.9197556 -0.2133909
vn -0.3294148 0.9197555 -0.2133909
vn -0.3294148 0.9197555 -0.2133909
vn -0.3294148 0.9197555 -0.2133909
vn -0.3294147 0.9197556 -0.2133909
vn -0.3294147 0.9197556 -0.2133909
vn -0.3294147 0.9197556 -0.2133909
vn -0.3294147 0.9197556 -0.2133909
vn -0.3294147 0.9197556 -0.2133909
vn -0.3294147 0.9197556 -0.2133909
vn -0.3294147 0.9197556 -0.2133909
vn -0.3294147 0.9197556 -0.2133909
vn -0.3294147 0.9197556 -0.2133909
vn -0.3320254 0.9189276 -0.2129112
vn -0.3320254 0.9189276 -0.2129112
vn -0.3320254 0.9189276 -0.2129112
vn -0.3320254 0.9189276 -0.2129112
vn -0.3320254 0.9189276 -0.2129112
vn -0.3320254 0.9189276 -0.2129112
vn -0.3320254 0.9189276 -0.2129112
vn -0.3320254 0.9189276 -0.2129112
vn -0.3320254 0.9189276 -0.2129112
vn -0.3320254 0.9189276 -0.2129112
vn -0.3320254 0.9189276 -0.2129112
vn -0.3320254 0.9189276 -0.2129112
vn -0.3320254 0.9189276 -0.2129112
vn -0.3320254 0.9189276 -0.2129112
vn -0.3320254 0.9189276 -0.2129112
vn 0 1 0
vn 0 1 0
vn 0 1 0
vn 0 1 0
vn 0.1474526 0.9845385 0.0945603
vn 0.1474526 0.9845385 0.0945603
vn 0.1474526 0.9845385 0.0945603
vn 0.1474526 0.9845385 0.0945603
vn -0.5397779 0 0.8418075
vn -0.5397779 0 0.8418075
vn -0.5397779 0 0.8418075
vn -0.5397779 0 0.8418075
vn -0.5399418 0 0.8417023
vn -0.5399418 0 0.8417023
vn -0.5399418 0 0.8417023
vn -0.5399418 0 0.8417023
vn -0.5397738 0 0.8418101
vn -0.5397738 0 0.8418101
vn -0.5397738 0 0.8418101
vn -0.5397738 0 0.8418101
vn -0.5397738 0 0.8418101
vn -0.5397738 0 0.8418101
vn -0.5397738 2.716488E-11 0.8418101
vn -0.5397738 2.716488E-11 0.8418101
vn -0.5397738 2.716488E-11 0.8418101
vn 0.8417872 0 0.5398095
vn 0.8417872 0 0.5398095
vn 0.8417872 0 0.5398095
vn 0.8417872 0 0.5398095
vn 0.8417872 0 0.5398095
vn 0.8417872 0 0.5398095
vn 0.8417872 0 0.5398095
vn 0.8417768 0 0.5398256
vn 0.8417768 0 0.5398256
vn 0.8417768 0 0.5398256
vn 0.8417768 0 0.5398256
vn 0.5397945 0 -0.8417968
vn 0.5397945 0 -0.8417968
vn 0.5397945 0 -0.8417968
vn 0.5397945 0 -0.8417968
vn 0.5397945 0 -0.8417968
vn 0.5397945 0 -0.8417968
vn 0.5397945 0 -0.8417968
vn 0.5218344 0 -0.8530468
vn 0.5218344 0 -0.8530468
vn 0.5218344 0 -0.8530468
vn 0.5218344 0 -0.8530468
vn 0.5468042 0 -0.8372605
vn 0.5468042 0 -0.8372605
vn 0.5468042 0 -0.8372605
vn 0.5468042 0 -0.8372605
vn 0.5398091 0 -0.8417875
vn 0.5398091 0 -0.8417875
vn 0.5398091 0 -0.8417875
vn 0.5398091 0 -0.8417875
vn -0.8415777 0 -0.540136
vn -0.8415777 0 -0.540136
vn -0.8415777 0 -0.540136
vn -0.8415777 0 -0.540136
vn -0.8417935 0 -0.5397997
vn -0.8417935 0 -0.5397997
vn -0.8417935 0 -0.5397997
vn -0.8417935 0 -0.5397997
vn -0.5505389 0 0.8348095
vn -0.5505389 0 0.8348095
vn -0.5505389 0 0.8348095
vn -0.5505389 0 0.8348095
vn -0.5505389 0 0.8348095
vn -0.5505389 0 0.8348095
vn -0.5505389 1.750914E-08 0.8348095
vn -0.5505389 1.750914E-08 0.8348095
vn -0.5505389 1.750914E-08 0.8348095
vn 0.8396406 0 0.5431425
vn 0.8396406 0 0.5431425
vn 0.8396406 0 0.5431425
vn 0.8396406 0 0.5431425
vn 0.5508247 0 -0.834621
vn 0.5508247 0 -0.834621
vn 0.5508247 0 -0.834621
vn 0.5508247 0 -0.834621
vn 0.5508247 0 -0.834621
vn 0.5508247 0 -0.834621
vn 0.5508247 -1.486824E-09 -0.834621
vn 0.5508247 -1.486824E-09 -0.834621
vn 0.5508247 -1.486824E-09 -0.834621
vn -0.8352588 0 -0.5498569
vn -0.8352588 0 -0.5498569
vn -0.8352588 0 -0.5498569
vn -0.8352588 0 -0.5498569
vn -0.5398091 0 0.8417875
vn -0.5398091 0 0.8417875
vn -0.5398091 0 0.8417875
vn -0.5398091 0 0.8417875
vn 0.8417768 0 0.5398256
vn 0.8417768 0 0.5398256
vn 0.8417768 0 0.5398256
vn 0.8417768 0 0.5398256
vn 0.8417768 0 0.5398256
vn 0.8417768 0 0.5398256
vn 0.8417768 0 0.5398256
vn 0.8417768 0 0.5398256
vn 0.8417768 0 0.5398256
vn 0 -1 0
vn 0 -1 0
vn 0 -1 0
vn 0 -1 0
vn 0 -1 0
vn 0 -1 0
vn 0 -1 0
vn 0 -1 0
vn 0 -1 0
vn 0 -1 0
vn 0 -1 0
vn 0 -1 0
vn 0 -1 0
vn 0 -1 0

g CDNNDG02_0006490
f 1/1/1 2/2/2 3/3/3
f 4/4/4 5/5/5 6/6/6
f 7/7/7 8/8/8 9/9/9
f 10/10/10 11/11/11 12/12/12
f 13/13/13 15/15/15 16/16/16
f 15/15/15 13/13/13 14/14/14
f 17/17/17 18/18/18 19/19/19
f 20/20/20 21/21/21 22/22/22
f 23/23/23 24/24/24 25/25/25
f 26/26/26 27/27/27 28/28/28
f 29/29/29 30/30/30 31/31/31
f 32/32/32 33/33/33 34/34/34
f 35/35/35 36/36/36 37/37/37
f 38/38/38 39/39/39 40/40/40
f 41/41/41 42/42/42 43/43/43
f 44/44/44 45/45/45 46/46/46
f 47/47/47 48/48/48 49/49/49
f 50/50/50 47/47/47 49/49/49
f 51/51/51 52/52/52 54/54/54
f 53/53/53 54/54/54 52/52/52
f 55/55/55 57/57/57 58/58/58
f 57/57/57 55/55/55 56/56/56
f 59/59/59 61/61/61 62/62/62
f 61/61/61 59/59/59 60/60/60
f 63/63/63 64/64/64 65/65/65
f 66/66/66 67/67/67 68/68/68
f 69/69/69 70/70/70 71/71/71
f 72/72/72 73/73/73 74/74/74
f 75/75/75 77/77/77 78/78/78
f 75/75/75 76/76/76 77/77/77
f 82/82/82 79/79/79 80/80/80
f 80/80/80 81/81/81 82/82/82
f 84/84/84 85/85/85 86/86/86
f 83/83/83 84/84/84 86/86/86
f 87/87/87 88/88/88 89/89/89
f 92/92/92 90/90/90 91/91/91
f 90/90/90 92/92/92 93/93/93
f 94/94/94 95/95/95 96/96/96
f 97/97/97 94/94/94 96/96/96
f 100/100/100 101/101/101 99/99/99
f 98/98/98 99/99/99 101/101/101
f 105/105/105 102/102/102 104/104/104
f 104/104/104 102/102/102 103/103/103
f 106/106/106 108/108/108 109/109/109
f 106/106/106 107/107/107 108/108/108
f 110/110/110 111/111/111 112/112/112
f 113/113/113 114/114/114 115/115/115
f 116/116/116 117/117/117 118/118/118
f 119/119/119 121/121/121 122/122/122
f 119/119/119 120/120/120 121/121/121
f 123/123/123 124/124/124 125/125/125
f 126/126/126 127/127/127 128/128/128
f 129/129/129 130/130/130 131/131/131
f 132/132/132 134/134/134 135/135/135
f 132/132/132 133/133/133 134/134/134
f 136/136/136 138/138/138 139/139/139
f 138/138/138 136/136/136 137/137/137
f 140/140/140 141/141/141 142/142/142
f 143/143/143 144/144/144 145/145/145
f 146/146/146 147/147/147 148/148/148
f 162/162/162 149/149/149 150/150/150
f 152/152/152 150/150/150 151/151/151
f 161/161/161 152/152/152 153/153/153
f 161/161/161 150/150/150 152/152/152
f 161/161/161 162/162/162 150/150/150
f 153/153/153 160/160/160 161/161/161
f 160/160/160 153/153/153 158/158/158
f 158/158/158 153/153/153 154/154/154
f 157/157/157 158/158/158 156/156/156
f 154/154/154 155/155/155 156/156/156
f 158/158/158 159/159/159 160/160/160
f 154/154/154 156/156/156 158/158/158
