v -4.091153 5.440868 0.3841425
v -4.063447 5.440868 0.4005702
v -1.780618 5.440868 -1.693618
v -4.091153 5.440868 0.3841425
v -1.780618 5.440868 -1.693618
v -3.250618 5.440868 -2.644618
v -6.911618 5.440868 3.013382
v -4.158858 5.440868 0.4880959
v -3.250618 5.440868 -2.644618
v -4.158858 5.440868 0.4880959
v -4.091153 5.440868 0.3841425
v -3.250618 5.440868 -2.644618
v -6.911618 5.440868 3.013382
v -4.333069 5.440868 0.7555791
v -4.158858 5.440868 0.4880959
v -4.333069 5.440868 0.7555791
v -0.3936179 5.440868 7.142382
v -4.135533 5.440868 0.8727058
v -6.911618 5.440868 3.013382
v -0.3936179 5.440868 7.142382
v -4.333069 5.440868 0.7555791
v -3.617449 5.440868 1.209889
v -0.3936179 5.440868 7.142382
v -3.376551 5.440868 0.8392486
v -4.135533 5.440868 0.8727058
v -0.3936179 5.440868 7.142382
v -3.617449 5.440868 1.209889
v -3.893618 5.440868 0.5012692
v -3.376551 5.440868 0.8392486
v -1.780618 5.440868 -1.693618
v -3.376551 5.440868 0.8392486
v -0.3936179 5.440868 7.142382
v -1.780618 5.440868 -1.693618
v -4.063447 5.440868 0.4005702
v -3.893618 5.440868 0.5012692
v -1.780618 5.440868 -1.693618
v -1.780618 5.440868 -1.693618
v 3.979382 5.440868 -5.267618
v 1.549382 5.440868 -6.839618
v -1.780618 5.440868 -1.693618
v 6.241382 5.440868 -3.112618
v 3.979382 5.440868 -5.267618
v -7.003618 5.440868 3.156382
v -0.3936179 5.440868 7.142382
v -6.911618 5.440868 3.013382
v 3.979382 5.440868 -5.267618
v 6.241382 5.440868 -3.112618
v 6.556382 5.440868 -3.599618
v -1.780618 5.440868 -1.693618
v -0.3936179 5.440868 7.142382
v 6.241382 5.440868 -3.112618
v -4.135533 5.440868 0.8727058
v -3.665618 5.592868 0.9133819
v -4.090618 5.592868 0.6613819
v -4.333069 5.440868 0.7555791
v -4.135533 5.440868 0.8727058
v -4.090618 5.592868 0.6613819
v -4.135533 5.440868 0.8727058
v -3.617449 5.440868 1.209889
v -3.665618 5.592868 0.9133819
v -3.665618 5.592868 0.9133819
v -3.617449 5.440868 1.209889
v -3.376551 5.440868 0.8392486
v -4.333069 5.440868 0.7555791
v -4.090618 5.592868 0.6613819
v -4.158858 5.440868 0.4880959
v -4.158858 5.440868 0.4880959
v -4.090618 5.592868 0.6613819
v -4.091153 5.440868 0.3841425
v -4.091153 5.440868 0.3841425
v -4.090618 5.592868 0.6613819
v -4.063447 5.440868 0.4005702
v -4.090618 5.592868 0.6613819
v -3.665618 5.592868 0.9133819
v -3.893618 5.440868 0.5012692
v -4.090618 5.592868 0.6613819
v -3.893618 5.440868 0.5012692
v -4.063447 5.440868 0.4005702
v -3.893618 5.440868 0.5012692
v -3.665618 5.592868 0.9133819
v -3.376551 5.440868 0.8392486
v 2.334632 4.630619 -6.721556
v 2.942132 4.630619 -6.328493
v 3.119882 4.586369 -6.603368
v 2.512382 4.586369 -6.996493
v 2.512382 4.586369 -6.996493
v 3.119882 4.586369 -6.603368
v 3.297632 4.542119 -6.878243
v 2.690132 4.542119 -7.27143
v 2.942132 4.630619 -6.328493
v 3.549632 4.630619 -5.935431
v 3.727382 4.586369 -6.210243
v 3.119882 4.586369 -6.603368
v 3.119882 4.586369 -6.603368
v 3.727382 4.586369 -6.210243
v 3.905132 4.542119 -6.485055
v 3.297632 4.542119 -6.878243
v 1.549382 4.674868 -6.839618
v 2.942132 4.630619 -6.328493
v 2.334632 4.630619 -6.721556
v 1.549382 4.674868 -6.839618
v 3.979382 4.674868 -5.267618
v 2.942132 4.630619 -6.328493
v 1.549382 4.674868 -6.839618
v 2.334632 4.630619 -6.721556
v 2.512382 4.586369 -6.996493
v 2.260382 4.497869 -7.939618
v 2.512382 4.586369 -6.996493
v 2.690132 4.542119 -7.27143
v 1.549382 4.674868 -6.839618
v 2.512382 4.586369 -6.996493
v 2.260382 4.497869 -7.939618
v 2.260382 4.497869 -7.939618
v 2.690132 4.542119 -7.27143
v 3.297632 4.542119 -6.878243
v 3.549632 4.630619 -5.935431
v 3.979382 4.674868 -5.267618
v 3.727382 4.586369 -6.210243
v 2.942132 4.630619 -6.328493
v 3.979382 4.674868 -5.267618
v 3.549632 4.630619 -5.935431
v 3.727382 4.586369 -6.210243
v 3.979382 4.674868 -5.267618
v 4.690382 4.497869 -6.366618
v 3.297632 4.542119 -6.878243
v 3.905132 4.542119 -6.485055
v 4.690382 4.497869 -6.366618
v 3.727382 4.586369 -6.210243
v 4.690382 4.497869 -6.366618
v 3.905132 4.542119 -6.485055
v 2.260382 4.497869 -7.939618
v 3.297632 4.542119 -6.878243
v 4.690382 4.497869 -6.366618
v -6.911618 5.440868 3.013382
v -5.081118 -5.408864 0.1843819
v -6.911618 -5.408864 3.013382
v -5.081118 -5.408864 0.1843819
v -3.250618 5.440868 -2.644618
v -3.250618 -5.408864 -2.644618
v -6.911618 5.440868 3.013382
v -3.250618 5.440868 -2.644618
v -5.081118 -5.408864 0.1843819
v -7.003618 5.440868 3.156382
v -6.911618 5.440868 3.013382
v -6.911618 -5.408864 3.013382
v -7.003618 -5.408864 3.156382
v -3.698618 -5.408864 5.149382
v -0.3936179 -5.408864 7.142382
v -0.3936179 5.440868 7.142382
v -7.003618 5.440868 3.156382
v -7.003618 -5.408864 3.156382
v -3.698618 -5.408864 5.149382
v -7.003618 5.440868 3.156382
v -3.698618 -5.408864 5.149382
v -0.3936179 5.440868 7.142382
v -0.3936179 -5.408864 7.142382
v 6.241382 -5.408864 -3.112618
v 6.241382 5.440868 -3.112618
v -0.3936179 5.440868 7.142382
v 6.241382 -5.408864 -3.112618
v 6.556382 -5.408864 -3.599618
v 6.556382 5.440868 -3.599618
v 6.241382 5.440868 -3.112618
v 3.979382 5.440868 -5.267618
v 6.556382 5.440868 -3.599618
v 3.979382 4.674868 -5.267618
v 3.979382 4.674868 -5.267618
v 6.556382 5.440868 -3.599618
v 6.556382 -5.408864 -3.599618
v 3.979382 -5.408864 -5.267618
v 1.549382 5.440868 -6.839618
v 3.979382 5.440868 -5.267618
v 3.979382 4.674868 -5.267618
v 1.549382 4.674868 -6.839618
v -1.780618 5.440868 -1.693618
v 1.549382 4.674868 -6.839618
v 1.549382 -5.408864 -6.839618
v -1.780618 -5.408864 -1.693618
v -1.780618 5.440868 -1.693618
v 1.549382 5.440868 -6.839618
v 1.549382 4.674868 -6.839618
v 1.549382 4.674868 -6.839618
v 2.260382 4.497869 -7.939618
v 2.260382 -5.408864 -7.939618
v 1.549382 -5.408864 -6.839618
v -3.250618 5.440868 -2.644618
v -1.780618 5.440868 -1.693618
v -1.780618 -5.408864 -1.693618
v -3.250618 -5.408864 -2.644618
v 3.979382 -5.408864 -5.267618
v 4.690382 -5.408864 -6.366618
v 4.690382 4.497869 -6.366618
v 3.979382 4.674868 -5.267618
v 2.260382 4.497869 -7.939618
v 4.690382 4.497869 -6.366618
v 4.690382 -5.408864 -6.366618
v 2.260382 -5.408864 -7.939618
v -3.250618 -5.408864 -2.644618
v -1.780618 -5.408864 -1.693618
v 1.549382 -5.408864 -6.839618
v 2.260382 -5.408864 -7.939618
v 4.690382 -5.408864 -6.366618
v 3.979382 -5.408864 -5.267618
v 6.556382 -5.408864 -3.599618
v 6.241382 -5.408864 -3.112618
v -0.3936179 -5.408864 7.142382
v -3.698618 -5.408864 5.149382
v -7.003618 -5.408864 3.156382
v -6.911618 -5.408864 3.013382
v -5.081118 -5.408864 0.1843819
vt 0.317802 0.350629
vt 0.317035 0.349724
vt 0.414428 0.274867
vt 0.317802 0.350629
vt 0.414428 0.274867
vt 0.458843 0.322908
vt 0.195526 0.443115
vt 0.312964 0.352852
vt 0.458843 0.322908
vt 0.312964 0.352852
vt 0.317802 0.350629
vt 0.458843 0.322908
vt 0.195526 0.443115
vt 0.300516 0.358572
vt 0.312964 0.352852
vt 0.300516 0.358572
vt 0.002667 0.230097
vt 0.295044 0.352116
vt 0.195526 0.443115
vt 0.002667 0.230097
vt 0.300516 0.358572
vt 0.279297 0.335185
vt 0.002667 0.230097
vt 0.296546 0.327275
vt 0.295044 0.352116
vt 0.002667 0.230097
vt 0.279297 0.335185
vt 0.312331 0.344173
vt 0.296546 0.327275
vt 0.414428 0.274867
vt 0.296546 0.327275
vt 0.002667 0.230097
vt 0.414428 0.274867
vt 0.317035 0.349724
vt 0.312331 0.344173
vt 0.414428 0.274867
vt 0.414428 0.274867
vt 0.580513 0.086100
vt 0.653930 0.165521
vt 0.414428 0.274867
vt 0.479943 0.012217
vt 0.580513 0.086100
vt 0.188871 0.446136
vt 0.002667 0.230097
vt 0.195526 0.443115
vt 0.580513 0.086100
vt 0.479943 0.012217
vt 0.502609 0.001873
vt 0.414428 0.274867
vt 0.002667 0.230097
vt 0.479943 0.012217
vt 0.270231 0.912698
vt 0.269102 0.898129
vt 0.279743 0.911007
vt 0.275175 0.918683
vt 0.270231 0.912698
vt 0.279743 0.911007
vt 0.270231 0.912698
vt 0.256000 0.897004
vt 0.269102 0.898129
vt 0.297582 0.905630
vt 0.285333 0.903218
vt 0.300306 0.897004
vt 0.306667 0.903656
vt 0.311017 0.897004
vt 0.317380 0.899061
vt 0.317380 0.899061
vt 0.311017 0.897004
vt 0.321544 0.897275
vt 0.249977 0.918928
vt 0.239166 0.919641
vt 0.249336 0.918079
vt 0.239166 0.919641
vt 0.229333 0.906616
vt 0.245408 0.912875
vt 0.239166 0.919641
vt 0.245408 0.912875
vt 0.249336 0.918079
vt 0.245408 0.912875
vt 0.229333 0.906616
vt 0.232158 0.897004
vt 0.065918 0.973156
vt 0.048985 0.953455
vt 0.061441 0.947770
vt 0.078375 0.967470
vt 0.078375 0.967470
vt 0.061441 0.947770
vt 0.073896 0.942085
vt 0.090832 0.961784
vt 0.048985 0.953455
vt 0.032053 0.933754
vt 0.044507 0.928070
vt 0.061441 0.947770
vt 0.061441 0.947770
vt 0.044507 0.928070
vt 0.056960 0.922386
vt 0.073896 0.942085
vt 0.070389 0.998545
vt 0.048985 0.953455
vt 0.065918 0.973156
vt 0.070389 0.998545
vt 0.002667 0.919737
vt 0.048985 0.953455
vt 0.070389 0.998545
vt 0.065918 0.973156
vt 0.078375 0.967470
vt 0.120225 0.975796
vt 0.078375 0.967470
vt 0.090832 0.961784
vt 0.070389 0.998545
vt 0.078375 0.967470
vt 0.120225 0.975796
vt 0.120225 0.975796
vt 0.090832 0.961784
vt 0.073896 0.942085
vt 0.032053 0.933754
vt 0.002667 0.919737
vt 0.044507 0.928070
vt 0.048985 0.953455
vt 0.002667 0.919737
vt 0.032053 0.933754
vt 0.044507 0.928070
vt 0.002667 0.919737
vt 0.052473 0.897004
vt 0.073896 0.942085
vt 0.056960 0.922386
vt 0.052473 0.897004
vt 0.044507 0.928070
vt 0.052473 0.897004
vt 0.056960 0.922386
vt 0.120225 0.975796
vt 0.073896 0.942085
vt 0.052473 0.897004
vt 0.397027 0.857011
vt 0.479866 0.820669
vt 0.350537 0.879458
vt 0.479866 0.820669
vt 0.659215 0.737828
vt 0.609197 0.761878
vt 0.397027 0.857011
vt 0.659215 0.737828
vt 0.479866 0.820669
vt 0.390400 0.860006
vt 0.397027 0.857011
vt 0.350537 0.879458
vt 0.344000 0.882413
vt 0.645834 0.582903
vt 0.554667 0.476723
vt 0.598435 0.451311
vt 0.783250 0.666562
vt 0.736998 0.689078
vt 0.645834 0.582903
vt 0.783250 0.666562
vt 0.645834 0.582903
vt 0.598435 0.451311
vt 0.002667 0.662179
vt 0.477210 0.460868
vt 0.525446 0.530001
vt 0.044503 0.734022
vt 0.477210 0.460868
vt 0.499747 0.451311
vt 0.548286 0.520314
vt 0.525446 0.530001
vt 0.909940 0.604724
vt 0.837432 0.520220
vt 0.906433 0.599717
vt 0.906433 0.599717
vt 0.837432 0.520220
vt 0.789333 0.451311
vt 0.860877 0.534692
vt 0.978270 0.684403
vt 0.909940 0.604724
vt 0.906433 0.599717
vt 0.974698 0.679322
vt 0.052113 0.867163
vt 0.286934 0.760535
vt 0.238042 0.784834
vt 0.002667 0.891873
vt 0.052113 0.867163
vt 0.290699 0.758664
vt 0.286934 0.760535
vt 0.286934 0.760535
vt 0.337006 0.737828
vt 0.288357 0.761979
vt 0.238042 0.784834
vt 0.873406 0.857569
vt 0.832719 0.809733
vt 0.786667 0.737828
vt 0.826813 0.785028
vt 0.128000 0.918257
vt 0.177724 0.897004
vt 0.222486 0.959754
vt 0.172948 0.982409
vt 0.779309 0.880317
vt 0.711626 0.801120
vt 0.666667 0.737828
vt 0.733529 0.816063
vt 0.328000 0.897004
vt 0.328000 0.897004
vt 0.328000 0.897004
vt 0.328000 0.897004
vt 0.328000 0.897004
vt 0.328000 0.897004
vt 0.328000 0.897004
vt 0.328000 0.897004
vt 0.328000 0.897004
vt 0.328000 0.897004
vt 0.328000 0.897004
vt 0.328000 0.897004
vt 0.328000 0.897004
vn 0 1 0
vn 0 1 0
vn 0 1 0
vn 0 1 0
vn 0 1 0
vn 0 1 0
vn 0 1 0
vn 0 1 0
vn 0 1 0
vn 0 1 0
vn 0 1 0
vn 0 1 0
vn 0 1 0
vn 0 1 0
vn 0 1 0
vn 0 1 0
vn 0 1 0
vn 0 1 0
vn 0 1 0
vn 0 1 0
vn 0 1 0
vn 0 1 0
vn 0 1 0
vn 0 1 0
vn 0 1 0
vn 0 1 0
vn 0 1 0
vn 0 1 0
vn 0 1 0
vn 0 1 0
vn 0 1 0
vn 0 1 0
vn 0 1 0
vn 0 1 0
vn 0 1 0
vn 0 1 0
vn 0 1 0
vn 0 1 0
vn 0 1 0
vn 0 1 0
vn 0 1 0
vn 0 1 0
vn 0 1 0
vn 0 1 0
vn 0 1 0
vn 0 1 0
vn 0 1 0
vn 0 1 0
vn 0 1 0
vn 0 1 0
vn 0 1 0
vn -0.3040775 0.8028345 0.5128291
vn -0.3040775 0.8028345 0.5128291
vn -0.3040775 0.8028345 0.5128291
vn -0.3040775 0.8028345 0.5128291
vn -0.3040775 0.8028345 0.5128291
vn -0.3040775 0.8028345 0.5128291
vn -0.3079439 0.825404 0.4731583
vn -0.3079439 0.825404 0.4731583
vn -0.3079439 0.825404 0.4731583
vn 0.5041829 0.7990096 0.3276936
vn 0.5041829 0.7990096 0.3276936
vn 0.5041829 0.7990096 0.3276936
vn -0.5930005 0.7065303 -0.3862193
vn -0.5930005 0.7065303 -0.3862193
vn -0.5930005 0.7065303 -0.3862193
vn -0.5930005 0.7065303 -0.3862193
vn -0.5930005 0.7065303 -0.3862193
vn -0.5930005 0.7065303 -0.3862193
vn 0.2743588 0.8429877 -0.4627082
vn 0.2743588 0.8429877 -0.4627082
vn 0.2743588 0.8429877 -0.4627082
vn 0.2743588 0.8429877 -0.4627083
vn 0.2743588 0.8429877 -0.4627083
vn 0.2743588 0.8429877 -0.4627083
vn 0.2743588 0.8429877 -0.4627083
vn 0.2743588 0.8429877 -0.4627083
vn 0.2743588 0.8429877 -0.4627083
vn 0.3108061 0.8229849 -0.475495
vn 0.3108061 0.8229849 -0.475495
vn 0.3108061 0.8229849 -0.475495
vn 0.07277012 0.9909879 -0.1124613
vn 0.07277177 0.9909865 -0.1124728
vn 0.07277012 0.9909879 -0.1124613
vn 0.07276847 0.9909893 -0.1124498
vn 0.07277828 0.9909879 -0.1124561
vn 0.07277992 0.9909865 -0.1124675
vn 0.07277828 0.9909879 -0.1124561
vn 0.07277663 0.9909893 -0.1124446
vn 0.07278158 0.990985 -0.112479
vn 0.07278323 0.9909836 -0.1124905
vn 0.07278158 0.990985 -0.112479
vn 0.07277993 0.9909865 -0.1124675
vn 0.07278973 0.990985 -0.1124738
vn 0.07279138 0.9909836 -0.1124853
vn 0.07278973 0.990985 -0.1124738
vn 0.07278808 0.9909865 -0.1124623
vn 0.07274886 0.9909921 -0.1124374
vn 0.07274886 0.9909921 -0.1124374
vn 0.07274886 0.9909921 -0.1124374
vn 0.07276361 0.9909865 -0.1124781
vn 0.07276361 0.9909865 -0.1124781
vn 0.07276361 0.9909865 -0.1124781
vn 0.07275216 0.9909893 -0.1124604
vn 0.07275216 0.9909893 -0.1124604
vn 0.07275216 0.9909893 -0.1124604
vn 0.07278478 0.9909893 -0.1124393
vn 0.07278478 0.9909893 -0.1124393
vn 0.07278478 0.9909893 -0.1124393
vn 0.07275702 0.9909921 -0.1124322
vn 0.07275702 0.9909921 -0.1124322
vn 0.07275702 0.9909921 -0.1124322
vn 0.07276518 0.9909921 -0.1124269
vn 0.07276518 0.9909921 -0.1124269
vn 0.07276518 0.9909921 -0.1124269
vn 0.07277507 0.9909836 -0.1124958
vn 0.07277507 0.9909836 -0.1124958
vn 0.07277507 0.9909836 -0.1124958
vn 0.07279469 0.9909807 -0.1125083
vn 0.07279469 0.9909807 -0.1125083
vn 0.07279469 0.9909807 -0.1125083
vn 0.07280285 0.9909807 -0.112503
vn 0.07280285 0.9909807 -0.112503
vn 0.07280285 0.9909807 -0.112503
vn 0.07281101 0.9909807 -0.1124977
vn 0.07281101 0.9909807 -0.1124977
vn 0.07281101 0.9909807 -0.1124977
vn 0.0728077 0.9909836 -0.1124747
vn 0.0728077 0.9909836 -0.1124747
vn 0.0728077 0.9909836 -0.1124747
vn 0.07279624 0.9909865 -0.112457
vn 0.07279624 0.9909865 -0.112457
vn 0.07279624 0.9909865 -0.112457
vn -0.8395742 0 -0.5432451
vn -0.8395742 0 -0.5432451
vn -0.8395742 0 -0.5432451
vn -0.8395742 0 -0.5432451
vn -0.8395742 0 -0.5432451
vn -0.8395742 0 -0.5432451
vn -0.8395742 0 -0.5432451
vn -0.8395742 0 -0.5432451
vn -0.8395742 0 -0.5432451
vn -0.8409873 0 -0.5410548
vn -0.8409873 0 -0.5410548
vn -0.8409873 0 -0.5410548
vn -0.8409873 0 -0.5410548
vn -0.5163997 0 0.8563477
vn -0.5163997 0 0.8563477
vn -0.5163997 0 0.8563477
vn -0.5163997 0 0.8563477
vn -0.5163997 0 0.8563477
vn -0.5163997 0 0.8563477
vn -0.5163997 -3.675372E-11 0.8563477
vn -0.5163997 -3.675372E-11 0.8563477
vn -0.5163997 -3.675372E-11 0.8563477
vn 0.8395921 0 0.5432173
vn 0.8395921 0 0.5432173
vn 0.8395921 0 0.5432173
vn 0.8395921 0 0.5432173
vn 0.8396627 0 0.5431083
vn 0.8396627 0 0.5431083
vn 0.8396627 0 0.5431083
vn 0.8396627 0 0.5431083
vn 0.5433728 0 -0.8394915
vn 0.5433728 0 -0.8394915
vn 0.5433728 0 -0.8394915
vn 0.5433728 0 -0.8394915
vn 0.5433728 0 -0.8394915
vn 0.5433728 0 -0.8394915
vn 0.5433728 0 -0.8394915
vn 0.5431653 0 -0.8396258
vn 0.5431653 0 -0.8396258
vn 0.5431653 0 -0.8396258
vn 0.5431653 0 -0.8396258
vn -0.8395526 0 -0.5432783
vn -0.8395526 0 -0.5432783
vn -0.8395526 0 -0.5432783
vn -0.8395526 0 -0.5432783
vn -0.8395526 0 -0.5432783
vn -0.8395526 0 -0.5432783
vn -0.8395526 0 -0.5432783
vn -0.8398364 0 -0.5428396
vn -0.8398364 0 -0.5428396
vn -0.8398364 0 -0.5428396
vn -0.8398364 0 -0.5428396
vn 0.5431802 0 -0.8396161
vn 0.5431802 0 -0.8396161
vn 0.5431802 0 -0.8396161
vn 0.5431802 0 -0.8396161
vn 0.8396112 0 0.5431879
vn 0.8396112 0 0.5431879
vn 0.8396112 0 0.5431879
vn 0.8396112 0 0.5431879
vn 0.5434088 0 -0.8394682
vn 0.5434088 0 -0.8394682
vn 0.5434088 0 -0.8394682
vn 0.5434088 0 -0.8394682
vn 0 -1 0
vn 0 -1 0
vn 0 -1 0
vn 0 -1 0
vn 0 -1 0
vn 0 -1 0
vn 0 -1 0
vn 0 -1 0
vn 0 -1 0
vn 0 -1 0
vn 0 -1 0
vn 0 -1 0
vn 0 -1 0

g CDNNDG02_0012340
f 1/1/1 2/2/2 3/3/3
f 4/4/4 5/5/5 6/6/6
f 7/7/7 8/8/8 9/9/9
f 10/10/10 11/11/11 12/12/12
f 13/13/13 14/14/14 15/15/15
f 16/16/16 17/17/17 18/18/18
f 19/19/19 20/20/20 21/21/21
f 22/22/22 23/23/23 24/24/24
f 25/25/25 26/26/26 27/27/27
f 28/28/28 29/29/29 30/30/30
f 31/31/31 32/32/32 33/33/33
f 34/34/34 35/35/35 36/36/36
f 37/37/37 38/38/38 39/39/39
f 40/40/40 41/41/41 42/42/42
f 43/43/43 44/44/44 45/45/45
f 46/46/46 47/47/47 48/48/48
f 49/49/49 50/50/50 51/51/51
f 52/52/52 53/53/53 54/54/54
f 55/55/55 56/56/56 57/57/57
f 58/58/58 59/59/59 60/60/60
f 61/61/61 62/62/62 63/63/63
f 64/64/64 65/65/65 66/66/66
f 67/67/67 68/68/68 69/69/69
f 70/70/70 71/71/71 72/72/72
f 73/73/73 74/74/74 75/75/75
f 76/76/76 77/77/77 78/78/78
f 79/79/79 80/80/80 81/81/81
f 85/85/85 82/82/82 84/84/84
f 84/84/84 82/82/82 83/83/83
f 89/89/89 86/86/86 88/88/88
f 88/88/88 86/86/86 87/87/87
f 93/93/93 90/90/90 92/92/92
f 92/92/92 90/90/90 91/91/91
f 97/97/97 94/94/94 96/96/96
f 96/96/96 94/94/94 95/95/95
f 98/98/98 99/99/99 100/100/100
f 101/101/101 102/102/102 103/103/103
f 104/104/104 105/105/105 106/106/106
f 107/107/107 108/108/108 109/109/109
f 110/110/110 111/111/111 112/112/112
f 113/113/113 114/114/114 115/115/115
f 116/116/116 117/117/117 118/118/118
f 119/119/119 120/120/120 121/121/121
f 122/122/122 123/123/123 124/124/124
f 125/125/125 126/126/126 127/127/127
f 128/128/128 129/129/129 130/130/130
f 131/131/131 132/132/132 133/133/133
f 134/134/134 135/135/135 136/136/136
f 137/137/137 138/138/138 139/139/139
f 140/140/140 141/141/141 142/142/142
f 143/143/143 144/144/144 145/145/145
f 146/146/146 143/143/143 145/145/145
f 147/147/147 148/148/148 149/149/149
f 150/150/150 151/151/151 152/152/152
f 153/153/153 154/154/154 155/155/155
f 159/159/159 156/156/156 158/158/158
f 157/157/157 158/158/158 156/156/156
f 161/161/161 162/162/162 163/163/163
f 160/160/160 161/161/161 163/163/163
f 164/164/164 165/165/165 166/166/166
f 169/169/169 167/167/167 168/168/168
f 167/167/167 169/169/169 170/170/170
f 171/171/171 173/173/173 174/174/174
f 171/171/171 172/172/172 173/173/173
f 178/178/178 176/176/176 177/177/177
f 178/178/178 175/175/175 176/176/176
f 179/179/179 180/180/180 181/181/181
f 183/183/183 184/184/184 185/185/185
f 182/182/182 183/183/183 185/185/185
f 186/186/186 188/188/188 189/189/189
f 186/186/186 187/187/187 188/188/188
f 191/191/191 192/192/192 190/190/190
f 190/190/190 192/192/192 193/193/193
f 194/194/194 196/196/196 197/197/197
f 194/194/194 195/195/195 196/196/196
f 210/210/210 198/198/198 199/199/199
f 207/207/207 210/210/210 199/199/199
f 203/203/203 200/200/200 202/202/202
f 199/199/199 206/206/206 207/207/207
f 207/207/207 209/209/209 210/210/210
f 200/200/200 201/201/201 202/202/202
f 207/207/207 208/208/208 209/209/209
f 206/206/206 199/199/199 205/205/205
f 203/203/203 204/204/204 205/205/205
f 203/203/203 199/199/199 200/200/200
f 205/205/205 199/199/199 203/203/203
