v -5.071055 5.774548 4.8101
v -0.5800548 5.774548 7.8011
v -0.4800548 5.774548 7.6521
v -5.071055 5.774548 4.8101
v 3.676945 5.774548 -5.5359
v 0.4979452 5.774548 -7.4209
v -5.071055 5.774548 4.8101
v -0.4800548 5.774548 7.6521
v -2.226055 5.774548 4.7491
v -2.226055 5.774548 4.7491
v -0.4800548 5.774548 7.6521
v -1.617055 5.774548 3.8481
v -5.071055 5.774548 4.8101
v -3.575055 5.774548 3.8361
v -2.965055 5.774548 2.9351
v -5.071055 5.774548 4.8101
v -2.226055 5.774548 4.7491
v -3.575055 5.774548 3.8361
v -1.617055 5.774548 3.8481
v 6.881945 5.774548 -3.4009
v 3.676945 5.774548 -5.5359
v -1.617055 5.774548 3.8481
v -0.4800548 5.774548 7.6521
v 6.881945 5.774548 -3.4009
v -5.071055 5.774548 4.8101
v -2.965055 5.774548 2.9351
v 3.676945 5.774548 -5.5359
v -2.965055 5.774548 2.9351
v -1.617055 5.774548 3.8481
v 3.676945 5.774548 -5.5359
v -6.624055 5.774548 3.7751
v -5.071055 5.774548 4.8101
v 0.4979452 5.774548 -7.4209
v 2.212945 5.774548 -7.7149
v 3.676945 5.774548 -5.5359
v 3.513945 5.774548 -6.8489
v -6.857055 5.774548 3.6201
v -6.624055 5.774548 3.7751
v 0.4979452 5.774548 -7.4209
v 0.4979452 5.774548 -7.4209
v 3.676945 5.774548 -5.5359
v 2.212945 5.774548 -7.7149
v -6.624055 -0.8544524 3.7751
v -5.934055 -1.054452 6.1051
v -5.071055 -0.8534524 4.8101
v -7.487055 -1.054452 5.0711
v -5.934055 -1.054452 6.1051
v -6.624055 -0.8544524 3.7751
v -2.379055 6.149548 4.0081
v -2.226055 5.774548 4.7491
v -1.617055 5.774548 3.8481
v -2.789055 6.149548 3.7441
v -2.226055 5.774548 4.7491
v -2.379055 6.149548 4.0081
v -3.575055 5.774548 3.8361
v -2.226055 5.774548 4.7491
v -2.789055 6.149548 3.7441
v -2.965055 5.774548 2.9351
v -2.789055 6.149548 3.7441
v -1.617055 5.774548 3.8481
v -2.789055 6.149548 3.7441
v -2.379055 6.149548 4.0081
v -1.617055 5.774548 3.8481
v -3.575055 5.774548 3.8361
v -2.789055 6.149548 3.7441
v -2.965055 5.774548 2.9351
v -6.624055 -0.8544524 3.7751
v -5.071055 -0.8534524 4.8101
v -5.071055 5.774548 4.8101
v -6.624055 5.774548 3.7751
v -5.071055 -0.8534524 4.8101
v -0.5800548 -5.700214 7.8011
v -0.5800548 5.774548 7.8011
v -5.071055 5.774548 4.8101
v -5.071055 -0.8534524 4.8101
v -5.071055 -5.700214 4.8101
v -0.5800548 -5.700214 7.8011
v -6.857055 5.774548 3.6201
v -6.624055 -0.8544524 3.7751
v -6.624055 5.774548 3.7751
v -6.857055 -5.700214 3.6201
v -6.624055 -5.700214 3.7751
v -6.624055 -0.8544524 3.7751
v -6.857055 5.774548 3.6201
v -6.857055 -5.700214 3.6201
v -6.624055 -0.8544524 3.7751
v -0.5800548 -5.700214 7.8011
v -0.4800548 -5.700214 7.6521
v -0.4800548 5.774548 7.6521
v -0.5800548 5.774548 7.8011
v -0.4800548 -5.700214 7.6521
v 6.881945 -5.700214 -3.4009
v 6.881945 5.774548 -3.4009
v -0.4800548 5.774548 7.6521
v 3.676945 5.774548 -5.5359
v 6.881945 5.774548 -3.4009
v 6.881945 -5.700214 -3.4009
v 3.676945 -5.700214 -5.5359
v 3.513945 5.774548 -6.8489
v 3.676945 5.774548 -5.5359
v 3.676945 -5.700214 -5.5359
v 3.513945 -5.700214 -6.8489
v 2.212945 5.774548 -7.7149
v 3.513945 5.774548 -6.8489
v 3.513945 -5.700214 -6.8489
v 2.212945 -5.700214 -7.7149
v 0.4979452 5.774548 -7.4209
v 2.212945 5.774548 -7.7149
v 2.212945 -5.700214 -7.7149
v 0.4979452 -5.700214 -7.4209
v -6.857055 5.774548 3.6201
v 0.4979452 5.774548 -7.4209
v 0.4979452 -5.700214 -7.4209
v -6.857055 -5.700214 3.6201
v -7.487055 -5.700214 5.0711
v -5.934055 -5.700214 6.1051
v -5.934055 -1.054452 6.1051
v -7.487055 -1.054452 5.0711
v -5.934055 -5.700214 6.1051
v -5.071055 -5.700214 4.8101
v -5.071055 -0.8534524 4.8101
v -5.934055 -1.054452 6.1051
v -7.487055 -1.054452 5.0711
v -7.055555 -5.700214 4.4231
v -7.487055 -5.700214 5.0711
v -7.055555 -5.700214 4.4231
v -6.624055 -0.8544524 3.7751
v -6.624055 -5.700214 3.7751
v -7.487055 -1.054452 5.0711
v -6.624055 -0.8544524 3.7751
v -7.055555 -5.700214 4.4231
v -7.055555 -5.700214 4.4231
v -6.624055 -5.700214 3.7751
v -6.857055 -5.700214 3.6201
v 0.4979452 -5.700214 -7.4209
v 2.212945 -5.700214 -7.7149
v 3.513945 -5.700214 -6.8489
v 3.676945 -5.700214 -5.5359
v 6.881945 -5.700214 -3.4009
v -0.4800548 -5.700214 7.6521
v -0.5800548 -5.700214 7.8011
v -5.071055 -5.700214 4.8101
v -5.934055 -5.700214 6.1051
v -7.487055 -5.700214 5.0711
vt 0.114586 0.308954
vt 0.002278 0.188737
vt 0.008272 0.186227
vt 0.114586 0.308954
vt 0.533028 0.087320
vt 0.603369 0.172242
vt 0.114586 0.308954
vt 0.008272 0.186227
vt 0.120499 0.234316
vt 0.120499 0.234316
vt 0.008272 0.186227
vt 0.156750 0.219027
vt 0.114586 0.308954
vt 0.154807 0.270438
vt 0.191059 0.255123
vt 0.114586 0.308954
vt 0.120499 0.234316
vt 0.154807 0.270438
vt 0.156750 0.219027
vt 0.452866 0.001517
vt 0.533028 0.087320
vt 0.156750 0.219027
vt 0.008272 0.186227
vt 0.452866 0.001517
vt 0.114586 0.308954
vt 0.191059 0.255123
vt 0.533028 0.087320
vt 0.191059 0.255123
vt 0.156750 0.219027
vt 0.533028 0.087320
vt 0.153449 0.350525
vt 0.114586 0.308954
vt 0.603369 0.172242
vt 0.617074 0.127445
vt 0.533028 0.087320
vt 0.584561 0.092617
vt 0.159269 0.356761
vt 0.153449 0.350525
vt 0.603369 0.172242
vt 0.603369 0.172242
vt 0.533028 0.087320
vt 0.617074 0.127445
vt 0.778755 0.861363
vt 0.687927 0.842509
vt 0.741023 0.820941
vt 0.725625 0.882917
vt 0.687927 0.842509
vt 0.778755 0.861363
vt 0.658151 0.971493
vt 0.626424 0.965647
vt 0.660347 0.951442
vt 0.579360 0.965417
vt 0.537585 0.951442
vt 0.569920 0.954856
vt 0.570299 0.986206
vt 0.537585 0.951442
vt 0.579360 0.965417
vt 0.485194 0.951442
vt 0.521581 0.954634
vt 0.518920 0.985750
vt 0.521581 0.954634
vt 0.531326 0.965070
vt 0.518920 0.985750
vt 0.619404 0.951442
vt 0.621155 0.971778
vt 0.585421 0.965920
vt 0.838908 0.774900
vt 0.800521 0.733808
vt 0.885834 0.716165
vt 0.924550 0.757594
vt 0.800521 0.733808
vt 0.628702 0.628408
vt 0.773951 0.596358
vt 0.885834 0.716165
vt 0.800521 0.733808
vt 0.739014 0.746527
vt 0.628702 0.628408
vt 0.930347 0.763809
vt 0.838908 0.774900
vt 0.924550 0.757594
vt 0.782902 0.793500
vt 0.777186 0.787372
vt 0.838908 0.774900
vt 0.930347 0.763809
vt 0.782902 0.793500
vt 0.838908 0.774900
vt 0.002278 0.543725
vt 0.008155 0.541277
vt 0.153506 0.590524
vt 0.147546 0.593006
vt 0.008155 0.541277
vt 0.444042 0.361153
vt 0.595587 0.407845
vt 0.153506 0.590524
vt 0.183674 0.820941
vt 0.265562 0.905038
vt 0.083018 0.947957
vt 0.002278 0.865043
vt 0.182740 0.951442
vt 0.234043 0.956003
vt 0.052859 0.999277
vt 0.002278 0.994780
vt 0.649097 0.820941
vt 0.682247 0.854834
vt 0.501933 0.898683
vt 0.469248 0.865268
vt 0.462925 0.857579
vt 0.449906 0.901632
vt 0.271071 0.864376
vt 0.283904 0.820941
vt 0.623463 0.630817
vt 0.182743 0.816480
vt 0.002278 0.779417
vt 0.436802 0.596358
vt 0.821126 0.872777
vt 0.783599 0.832763
vt 0.841314 0.820941
vt 0.879056 0.861185
vt 0.239180 0.971934
vt 0.289418 0.951442
vt 0.349931 0.972158
vt 0.296883 0.991903
vt 0.479823 0.964705
vt 0.380493 0.961805
vt 0.405633 0.951442
vt 0.380493 0.961805
vt 0.432456 0.986129
vt 0.355353 0.972168
vt 0.479823 0.964705
vt 0.432456 0.986129
vt 0.380493 0.961805
vt 0.665148 0.951442
vt 0.665148 0.951442
vt 0.665148 0.951442
vt 0.665148 0.951442
vt 0.665148 0.951442
vt 0.665148 0.951442
vt 0.665148 0.951442
vt 0.665148 0.951442
vt 0.665148 0.951442
vt 0.665148 0.951442
vt 0.665148 0.951442
vt 0.665148 0.951442
vt 0.665148 0.951442
vn 0 1 0
vn 0 1 0
vn 0 1 0
vn 0 1 0
vn 0 1 0
vn 0 1 0
vn 0 1 0
vn 0 1 0
vn 0 1 0
vn 0 1 0
vn 0 1 0
vn 0 1 0
vn 0 1 0
vn 0 1 0
vn 0 1 0
vn 0 1 0
vn 0 1 0
vn 0 1 0
vn 0 1 0
vn 0 1 0
vn 0 1 0
vn 0 1 0
vn 0 1 0
vn 0 1 0
vn 0 1 0
vn 0 1 0
vn 0 1 0
vn 0 1 0
vn 0 1 0
vn 0 1 0
vn 0 1 0
vn 0 1 0
vn 0 1 0
vn 0 1 0
vn 0 1 0
vn 0 1 0
vn 0 1 0
vn 0 1 0
vn 0 1 0
vn 0 1 0
vn 0 1 0
vn 0 1 0
vn -0.07148112 0.9917617 0.106298
vn -0.07148112 0.9917617 0.106298
vn -0.07148112 0.9917617 0.106298
vn -0.07060678 0.9918512 0.1060467
vn -0.07060678 0.9918512 0.1060467
vn -0.07060678 0.9918512 0.1060467
vn 0.4715599 0.8222162 0.3187347
vn 0.4715599 0.8222162 0.3187347
vn 0.4715599 0.8222162 0.3187347
vn -0.3087288 0.8214619 0.4794652
vn -0.3087288 0.8214619 0.4794652
vn -0.3087288 0.8214619 0.4794652
vn -0.3292017 0.8093396 0.4864109
vn -0.3292017 0.8093396 0.4864109
vn -0.3292017 0.8093396 0.4864109
vn 0.3077896 0.8359146 -0.4544363
vn 0.3077896 0.8359146 -0.4544363
vn 0.3077896 0.8359146 -0.4544363
vn 0.3060966 0.8248159 -0.4753773
vn 0.3060966 0.8248159 -0.4753773
vn 0.3060966 0.8248159 -0.4753773
vn -0.4392523 0.8477143 -0.297385
vn -0.4392523 0.8477143 -0.297385
vn -0.4392523 0.8477143 -0.297385
vn -0.5545765 0 0.8321327
vn -0.5545765 0 0.8321327
vn -0.5545765 0 0.8321327
vn -0.5545765 0 0.8321327
vn -0.5543152 0 0.8323068
vn -0.5543152 0 0.8323068
vn -0.5543152 0 0.8323068
vn -0.5543152 0 0.8323068
vn -0.5543152 0 0.8323068
vn -0.5543152 0 0.8323068
vn -0.5543152 0 0.8323068
vn -0.5538753 0 0.8325996
vn -0.5538753 0 0.8325996
vn -0.5538753 0 0.8325996
vn -0.5538753 0 0.8325996
vn -0.5538753 0 0.8325996
vn -0.5538753 0 0.8325996
vn -0.5538753 0 0.8325996
vn -0.5538753 0 0.8325996
vn -0.5538753 0 0.8325996
vn 0.8303316 0 0.5572696
vn 0.8303316 0 0.5572696
vn 0.8303316 0 0.5572696
vn 0.8303316 0 0.5572696
vn 0.8322819 0 0.5543526
vn 0.8322819 0 0.5543526
vn 0.8322819 0 0.5543526
vn 0.8322819 0 0.5543526
vn 0.5544006 0 -0.83225
vn 0.5544006 0 -0.83225
vn 0.5544006 0 -0.83225
vn 0.5544006 0 -0.83225
vn 0.9923822 0 -0.1231975
vn 0.9923822 0 -0.1231975
vn 0.9923822 0 -0.1231975
vn 0.9923822 0 -0.1231975
vn 0.5541095 0 -0.8324438
vn 0.5541095 0 -0.8324438
vn 0.5541095 0 -0.8324438
vn 0.5541095 0 -0.8324438
vn -0.1689638 0 -0.9856222
vn -0.1689638 0 -0.9856222
vn -0.1689638 0 -0.9856222
vn -0.1689638 0 -0.9856222
vn -0.8322474 0 -0.5544044
vn -0.8322474 0 -0.5544044
vn -0.8322474 0 -0.5544044
vn -0.8322474 0 -0.5544044
vn -0.5542054 0 0.83238
vn -0.5542054 0 0.83238
vn -0.5542054 0 0.83238
vn -0.5542054 0 0.83238
vn 0.8321491 0 0.5545519
vn 0.8321491 0 0.5545519
vn 0.8321491 0 0.5545519
vn 0.8321491 0 0.5545519
vn -0.8323466 0 -0.5542555
vn -0.8323466 0 -0.5542555
vn -0.8323466 0 -0.5542555
vn -0.8323466 0 -0.5542555
vn -0.8323466 0 -0.5542555
vn -0.8323466 0 -0.5542555
vn -0.8323466 -5.438437E-11 -0.5542555
vn -0.8323466 -5.438437E-11 -0.5542555
vn -0.8323466 -5.438437E-11 -0.5542555
vn 0 -1 0
vn 0 -1 0
vn 0 -1 0
vn 0 -1 0
vn 0 -1 0
vn 0 -1 0
vn 0 -1 0
vn 0 -1 0
vn 0 -1 0
vn 0 -1 0
vn 0 -1 0
vn 0 -1 0
vn 0 -1 0

g CDNNDG02_0013230
f 1/1/1 2/2/2 3/3/3
f 4/4/4 5/5/5 6/6/6
f 7/7/7 8/8/8 9/9/9
f 10/10/10 11/11/11 12/12/12
f 13/13/13 14/14/14 15/15/15
f 16/16/16 17/17/17 18/18/18
f 19/19/19 20/20/20 21/21/21
f 22/22/22 23/23/23 24/24/24
f 25/25/25 26/26/26 27/27/27
f 28/28/28 29/29/29 30/30/30
f 31/31/31 32/32/32 33/33/33
f 34/34/34 35/35/35 36/36/36
f 37/37/37 38/38/38 39/39/39
f 40/40/40 41/41/41 42/42/42
f 43/43/43 44/44/44 45/45/45
f 46/46/46 47/47/47 48/48/48
f 49/49/49 50/50/50 51/51/51
f 52/52/52 53/53/53 54/54/54
f 55/55/55 56/56/56 57/57/57
f 58/58/58 59/59/59 60/60/60
f 61/61/61 62/62/62 63/63/63
f 64/64/64 65/65/65 66/66/66
f 70/70/70 68/68/68 69/69/69
f 70/70/70 67/67/67 68/68/68
f 71/71/71 73/73/73 74/74/74
f 73/73/73 71/71/71 72/72/72
f 75/75/75 76/76/76 77/77/77
f 78/78/78 79/79/79 80/80/80
f 81/81/81 82/82/82 83/83/83
f 84/84/84 85/85/85 86/86/86
f 87/87/87 89/89/89 90/90/90
f 87/87/87 88/88/88 89/89/89
f 94/94/94 91/91/91 93/93/93
f 92/92/92 93/93/93 91/91/91
f 97/97/97 95/95/95 96/96/96
f 95/95/95 97/97/97 98/98/98
f 102/102/102 99/99/99 101/101/101
f 101/101/101 99/99/99 100/100/100
f 105/105/105 103/103/103 104/104/104
f 103/103/103 105/105/105 106/106/106
f 107/107/107 109/109/109 110/110/110
f 107/107/107 108/108/108 109/109/109
f 111/111/111 113/113/113 114/114/114
f 111/111/111 112/112/112 113/113/113
f 118/118/118 115/115/115 117/117/117
f 117/117/117 115/115/115 116/116/116
f 120/120/120 121/121/121 122/122/122
f 119/119/119 120/120/120 122/122/122
f 123/123/123 124/124/124 125/125/125
f 126/126/126 127/127/127 128/128/128
f 129/129/129 130/130/130 131/131/131
f 143/143/143 132/132/132 142/142/142
f 144/144/144 132/132/132 143/143/143
f 132/132/132 133/133/133 142/142/142
f 140/140/140 141/141/141 142/142/142
f 133/133/133 134/134/134 135/135/135
f 138/138/138 140/140/140 142/142/142
f 133/133/133 135/135/135 142/142/142
f 138/138/138 139/139/139 140/140/140
f 135/135/135 136/136/136 138/138/138
f 135/135/135 138/138/138 142/142/142
f 136/136/136 137/137/137 138/138/138
