v -3.553917 5.152111 -2.043561
v -2.513917 5.152111 -1.376562
v -5.943917 5.152111 3.969439
v -0.6129169 5.152111 7.390439
v 5.964083 5.152111 -2.860562
v 5.549083 5.152111 -3.126561
v 5.941083 5.152111 -3.737561
v 3.990083 5.152111 -4.988562
v 3.716083 5.152111 -4.562562
v -0.2889169 5.152111 -7.132562
v -3.033917 -5.152111 -1.710062
v -2.513917 -5.152111 -1.376562
v -2.513917 5.152111 -1.376562
v -3.553917 5.152111 -2.043561
v -3.553917 -5.152111 -2.043561
v -3.033917 -5.152111 -1.710062
v -3.553917 5.152111 -2.043561
v -3.033917 -5.152111 -1.710062
v -2.513917 5.152111 -1.376562
v -5.943917 5.152111 3.969439
v -2.513917 5.152111 -1.376562
v -2.513917 -5.152111 -1.376562
v -5.943917 -5.152111 3.969439
v -5.943917 -5.152111 3.969439
v -0.6129169 -5.152111 7.390439
v -0.6129169 5.152111 7.390439
v -5.943917 5.152111 3.969439
v -0.6129169 -5.152111 7.390439
v 5.964083 -5.152111 -2.860562
v 5.964083 5.152111 -2.860562
v -0.6129169 5.152111 7.390439
v 5.549083 5.152111 -3.126561
v 5.964083 5.152111 -2.860562
v 5.964083 -5.152111 -2.860562
v 5.549083 -5.152111 -3.126561
v 5.549083 -5.152111 -3.126561
v 5.941083 -5.152111 -3.737561
v 5.941083 5.152111 -3.737561
v 5.549083 5.152111 -3.126561
v 3.990083 5.152111 -4.988562
v 5.941083 5.152111 -3.737561
v 5.941083 -5.152111 -3.737561
v 3.990083 -5.152111 -4.988562
v 3.716083 5.152111 -4.562562
v 3.990083 5.152111 -4.988562
v 3.990083 -5.152111 -4.988562
v 3.716083 -5.152111 -4.562562
v -0.2889169 5.152111 -7.132562
v 3.716083 5.152111 -4.562562
v 3.716083 -5.152111 -4.562562
v -0.2889169 -5.152111 -7.132562
v -3.553917 5.152111 -2.043561
v -0.2889169 5.152111 -7.132562
v -0.2889169 -5.152111 -7.132562
v -3.553917 -5.152111 -2.043561
v -3.553917 -5.152111 -2.043561
v -0.2889169 -5.152111 -7.132562
v 3.716083 -5.152111 -4.562562
v 3.990083 -5.152111 -4.988562
v 5.941083 -5.152111 -3.737561
v 5.549083 -5.152111 -3.126561
v 5.964083 -5.152111 -2.860562
v -0.6129169 -5.152111 7.390439
v -5.943917 -5.152111 3.969439
v -2.513917 -5.152111 -1.376562
v -3.033917 -5.152111 -1.710062
vt 0.496517 0.384478
vt 0.461559 0.342787
vt 0.182302 0.480945
vt 0.002994 0.267241
vt 0.538493 0.002299
vt 0.552435 0.018937
vt 0.584354 0.003145
vt 0.649922 0.081364
vt 0.627667 0.092402
vt 0.762361 0.252961
vt 0.699434 0.870772
vt 0.682635 0.850587
vt 0.743817 0.797701
vt 0.777849 0.838594
vt 0.716232 0.890957
vt 0.699434 0.870772
vt 0.777849 0.838594
vt 0.699434 0.870772
vt 0.743817 0.797701
vt 0.061982 0.934868
vt 0.339879 0.797701
vt 0.277339 0.851232
vt 0.002994 0.986645
vt 0.780285 0.752200
vt 0.604790 0.542031
vt 0.661287 0.487356
vt 0.839051 0.700247
vt 0.002994 0.732122
vt 0.535539 0.487356
vt 0.597697 0.543583
vt 0.058334 0.791479
vt 0.002994 0.993103
vt 0.002994 0.993103
vt 0.002994 0.993103
vt 0.002994 0.993103
vt 0.784431 0.811940
vt 0.815337 0.797701
vt 0.876411 0.852604
vt 0.845110 0.867026
vt 0.032934 0.993103
vt 0.032934 0.993103
vt 0.032934 0.993103
vt 0.032934 0.993103
vt 0.946287 0.808422
vt 0.967884 0.797701
vt 0.904555 0.853318
vt 0.883234 0.863902
vt 0.976048 0.797701
vt 0.976048 0.797701
vt 0.976048 0.797701
vt 0.976048 0.797701
vt 0.410275 0.928216
vt 0.674762 0.797701
vt 0.608411 0.852348
vt 0.347305 0.981194
vt 0.017964 0.993103
vt 0.017964 0.993103
vt 0.017964 0.993103
vt 0.017964 0.993103
vt 0.017964 0.993103
vt 0.017964 0.993103
vt 0.017964 0.993103
vt 0.017964 0.993103
vt 0.017964 0.993103
vt 0.017964 0.993103
vt 0.017964 0.993103
vn 0 1 0
vn 0 1 0
vn 0 1 0
vn 0 1 0
vn 0 1 0
vn 0 1 0
vn 0 1 0
vn 0 1 0
vn 0 1 0
vn 0 1 0
vn -0.5398573 0 0.8417565
vn -0.5398573 0 0.8417565
vn -0.5398573 0 0.8417565
vn -0.5398573 0 0.8417565
vn -0.5398573 0 0.8417565
vn -0.5398573 0 0.8417565
vn -0.5398573 3.651528E-11 0.8417565
vn -0.5398573 3.651528E-11 0.8417565
vn -0.5398573 3.651528E-11 0.8417565
vn -0.841659 0 -0.5400094
vn -0.841659 0 -0.5400094
vn -0.841659 0 -0.5400094
vn -0.841659 0 -0.5400094
vn -0.5400792 0 0.8416142
vn -0.5400792 0 0.8416142
vn -0.5400792 0 0.8416142
vn -0.5400792 0 0.8416142
vn 0.841661 0 0.5400063
vn 0.841661 0 0.5400063
vn 0.841661 0 0.5400063
vn 0.841661 0 0.5400063
vn 0.5396292 0 -0.8419028
vn 0.5396292 0 -0.8419028
vn 0.5396292 0 -0.8419028
vn 0.5396292 0 -0.8419028
vn 0.8416705 0 0.5399915
vn 0.8416705 0 0.5399915
vn 0.8416705 0 0.5399915
vn 0.8416705 0 0.5399915
vn 0.5397759 0 -0.8418087
vn 0.5397759 0 -0.8418087
vn 0.5397759 0 -0.8418087
vn 0.5397759 0 -0.8418087
vn -0.8410501 0 -0.5409572
vn -0.8410501 0 -0.5409572
vn -0.8410501 0 -0.5409572
vn -0.8410501 0 -0.5409572
vn 0.5400671 0 -0.841622
vn 0.5400671 0 -0.841622
vn 0.5400671 0 -0.841622
vn 0.5400671 0 -0.841622
vn -0.8416671 0 -0.5399967
vn -0.8416671 0 -0.5399967
vn -0.8416671 0 -0.5399967
vn -0.8416671 0 -0.5399967
vn 0 -1 0
vn 0 -1 0
vn 0 -1 0
vn 0 -1 0
vn 0 -1 0
vn 0 -1 0
vn 0 -1 0
vn 0 -1 0
vn 0 -1 0
vn 0 -1 0
vn 0 -1 0

g CDNNDG02_0011820
f 7/7/7 8/8/8 9/9/9
f 10/10/10 1/1/1 2/2/2
f 2/2/2 4/4/4 6/6/6
f 9/9/9 2/2/2 6/6/6
f 2/2/2 9/9/9 10/10/10
f 4/4/4 2/2/2 3/3/3
f 9/9/9 6/6/6 7/7/7
f 5/5/5 6/6/6 4/4/4
f 11/11/11 12/12/12 13/13/13
f 14/14/14 15/15/15 16/16/16
f 17/17/17 18/18/18 19/19/19
f 23/23/23 20/20/20 22/22/22
f 22/22/22 20/20/20 21/21/21
f 27/27/27 24/24/24 26/26/26
f 26/26/26 24/24/24 25/25/25
f 31/31/31 28/28/28 30/30/30
f 29/29/29 30/30/30 28/28/28
f 34/34/34 35/35/35 33/33/33
f 32/32/32 33/33/33 35/35/35
f 37/37/37 38/38/38 36/36/36
f 36/36/36 38/38/38 39/39/39
f 42/42/42 40/40/40 41/41/41
f 40/40/40 42/42/42 43/43/43
f 44/44/44 46/46/46 47/47/47
f 44/44/44 45/45/45 46/46/46
f 50/50/50 48/48/48 49/49/49
f 48/48/48 50/50/50 51/51/51
f 55/55/55 52/52/52 54/54/54
f 54/54/54 52/52/52 53/53/53
f 65/65/65 57/57/57 58/58/58
f 65/65/65 61/61/61 63/63/63
f 58/58/58 59/59/59 60/60/60
f 65/65/65 63/63/63 64/64/64
f 58/58/58 60/60/60 61/61/61
f 66/66/66 56/56/56 57/57/57
f 65/65/65 66/66/66 57/57/57
f 61/61/61 62/62/62 63/63/63
f 61/61/61 65/65/65 58/58/58
