v -4.858171 6.017166 9.215205
v -4.683171 6.017166 10.14621
v -2.460171 6.017166 10.70121
v -7.950171 6.017166 5.956205
v -5.374171 6.017166 8.440206
v 0.8028294 6.017166 0.7382055
v -4.683171 6.017166 10.14621
v -3.149171 6.017166 11.01921
v -2.460171 6.017166 10.70121
v -4.858171 6.017166 9.215205
v -2.460171 6.017166 10.70121
v 0.8148294 6.017166 6.988205
v -5.581171 6.017166 8.804206
v -4.858171 6.017166 9.215205
v -5.374171 6.017166 8.440206
v -2.460171 6.017166 10.70121
v -1.715171 6.017166 11.15421
v -1.567171 6.017166 10.91021
v -2.460171 6.017166 10.70121
v -1.567171 6.017166 10.91021
v 0.8148294 6.017166 6.988205
v -8.330171 6.017166 6.552206
v -8.078719 6.017166 6.712808
v -7.950171 6.017166 5.956205
v -5.374171 6.017166 8.440206
v -4.858171 6.017166 9.215205
v 0.8148294 6.017166 6.988205
v -8.078719 6.017166 6.712808
v -5.374171 6.017166 8.440206
v -7.950171 6.017166 5.956205
v -5.374171 6.017166 8.440206
v 0.8148294 6.017166 6.988205
v 0.4638294 6.017166 6.775206
v -5.374171 6.017166 8.440206
v 0.4638294 6.017166 6.775206
v 0.5605212 6.017166 6.615965
v -7.950171 6.017166 5.956205
v 0.5818294 6.017166 -0.4057945
v 1.934829 6.017166 -9.518794
v 0.8028294 6.017166 0.7382055
v 1.151829 6.017166 6.434206
v 3.584829 6.017166 2.427206
v -5.374171 6.017166 8.440206
v 0.5605212 6.017166 6.615965
v 0.8028294 6.017166 0.7382055
v 0.8008294 6.017166 6.220205
v 1.151829 6.017166 6.434206
v 0.8028294 6.017166 0.7382055
v 0.5605212 6.017166 6.615965
v 0.8008294 6.017166 6.220205
v 0.8028294 6.017166 0.7382055
v -7.950171 6.017166 5.956205
v 0.8028294 6.017166 0.7382055
v 0.5818294 6.017166 -0.4057945
v 0.5818294 6.017166 -0.4057945
v 3.88183 6.017166 -1.456795
v 1.934829 6.017166 -9.518794
v 1.934829 6.017166 -9.518794
v 8.602829 6.017166 -8.846794
v 2.095829 6.017166 -9.770795
v 1.934829 6.017166 -9.518794
v 3.88183 6.017166 -1.456795
v 8.602829 6.017166 -8.846794
v 2.095829 6.017166 -9.770795
v 8.602829 6.017166 -8.846794
v 3.562829 6.017166 -12.06679
v 0.4638294 7.029165 6.775206
v 1.151829 7.028165 6.434206
v 0.8008294 7.029165 6.220205
v 0.4638294 7.029165 6.775206
v 0.8148294 7.029165 6.988205
v 1.151829 7.028165 6.434206
v -4.683171 -6.019113 10.14621
v -3.149171 -6.019113 11.01921
v -3.149171 6.017166 11.01921
v -4.683171 6.017166 10.14621
v -3.149171 -6.019113 11.01921
v -2.460171 -6.019113 10.70121
v -2.460171 6.017166 10.70121
v -3.149171 6.017166 11.01921
v -2.087671 -6.019113 10.92771
v -1.715171 -6.019113 11.15421
v -1.715171 6.017166 11.15421
v -2.460171 6.017166 10.70121
v -2.460171 -6.019113 10.70121
v -2.087671 -6.019113 10.92771
v -2.460171 6.017166 10.70121
v -2.087671 -6.019113 10.92771
v -1.715171 6.017166 11.15421
v -1.715171 -6.019113 11.15421
v -1.567171 -6.019113 10.91021
v -1.567171 6.017166 10.91021
v -1.715171 6.017166 11.15421
v -0.3761706 -6.019113 8.949205
v 0.8148294 -6.019113 6.988205
v 0.8148294 6.017166 6.988205
v -1.567171 6.017166 10.91021
v -1.567171 -6.019113 10.91021
v -0.3761706 -6.019113 8.949205
v -1.567171 6.017166 10.91021
v -0.3761706 -6.019113 8.949205
v 0.8148294 6.017166 6.988205
v 0.8148294 -6.019113 6.988205
v 1.151829 -6.019113 6.434206
v 1.151829 6.017166 6.434206
v 0.8148294 6.017166 6.988205
v 1.151829 -6.019113 6.434206
v 3.584829 -6.019113 2.427206
v 3.584829 6.017166 2.427206
v 1.151829 6.017166 6.434206
v 0.8148294 6.017166 6.988205
v 1.151829 6.017166 6.434206
v 1.151829 7.028165 6.434206
v 0.8148294 7.029165 6.988205
v 0.8028294 6.017166 0.7382055
v 3.584829 6.017166 2.427206
v 3.584829 -6.019113 2.427206
v 0.8028294 -6.019113 0.7382055
v 0.5818294 6.017166 -0.4057945
v 0.8028294 6.017166 0.7382055
v 0.8028294 -6.019113 0.7382055
v 0.5818294 -6.019113 -0.4057945
v 0.5818294 -6.019113 -0.4057945
v 3.88183 -6.019113 -1.456795
v 3.88183 6.017166 -1.456795
v 0.5818294 6.017166 -0.4057945
v 3.88183 -6.019113 -1.456795
v 8.602829 -6.019113 -8.846794
v 8.602829 6.017166 -8.846794
v 3.88183 6.017166 -1.456795
v 3.562829 6.017166 -12.06679
v 6.082829 -6.019113 -10.45679
v 3.562829 -6.019113 -12.06679
v 6.082829 -6.019113 -10.45679
v 8.602829 6.017166 -8.846794
v 8.602829 -6.019113 -8.846794
v 3.562829 6.017166 -12.06679
v 8.602829 6.017166 -8.846794
v 6.082829 -6.019113 -10.45679
v 2.095829 6.017166 -9.770795
v 3.562829 6.017166 -12.06679
v 3.562829 -6.019113 -12.06679
v 2.095829 -6.019113 -9.770795
v 1.934829 6.017166 -9.518794
v 2.095829 6.017166 -9.770795
v 2.095829 -6.019113 -9.770795
v 1.934829 -6.019113 -9.518794
v -7.950171 6.017166 5.956205
v 1.934829 6.017166 -9.518794
v 1.934829 -6.019113 -9.518794
v -7.950171 -6.019113 5.956205
v -8.330171 6.017166 6.552206
v -7.950171 6.017166 5.956205
v -7.950171 -6.019113 5.956205
v -8.330171 -6.019113 6.552206
v -8.330171 -6.019113 6.552206
v -8.078719 -6.019113 6.712808
v -8.078719 6.017166 6.712808
v -8.330171 6.017166 6.552206
v -6.726445 -6.019113 7.576507
v -5.374171 -6.019113 8.440206
v -5.374171 6.017166 8.440206
v -8.078719 6.017166 6.712808
v -8.078719 -6.019113 6.712808
v -6.726445 -6.019113 7.576507
v -8.078719 6.017166 6.712808
v -6.726445 -6.019113 7.576507
v -5.374171 6.017166 8.440206
v -5.581171 6.017166 8.804206
v -5.374171 6.017166 8.440206
v -5.374171 -6.019113 8.440206
v -5.581171 -6.019113 8.804206
v -5.581171 -6.019113 8.804206
v -4.858171 -6.019113 9.215205
v -4.858171 6.017166 9.215205
v -5.581171 6.017166 8.804206
v -4.858171 -6.019113 9.215205
v -4.683171 -6.019113 10.14621
v -4.683171 6.017166 10.14621
v -4.858171 6.017166 9.215205
v 0.4638294 6.017166 6.775206
v 0.8148294 6.017166 6.988205
v 0.8148294 7.029165 6.988205
v 0.4638294 7.029165 6.775206
v 0.8008294 7.029165 6.220205
v 1.151829 7.028165 6.434206
v 1.151829 6.017166 6.434206
v 0.8008294 6.017166 6.220205
v 0.4638294 7.029165 6.775206
v 0.5605212 6.017166 6.615965
v 0.4638294 6.017166 6.775206
v 0.4638294 7.029165 6.775206
v 0.8008294 7.029165 6.220205
v 0.8008294 6.017166 6.220205
v 0.5605212 6.017166 6.615965
v -3.149171 -6.019113 11.01921
v -4.683171 -6.019113 10.14621
v -4.858171 -6.019113 9.215205
v -5.581171 -6.019113 8.804206
v -5.374171 -6.019113 8.440206
v -6.726445 -6.019113 7.576507
v -8.078719 -6.019113 6.712808
v -8.330171 -6.019113 6.552206
v -7.950171 -6.019113 5.956205
v 1.934829 -6.019113 -9.518794
v 2.095829 -6.019113 -9.770795
v 3.562829 -6.019113 -12.06679
v 6.082829 -6.019113 -10.45679
v 8.602829 -6.019113 -8.846794
v 3.88183 -6.019113 -1.456795
v 0.5818294 -6.019113 -0.4057945
v 0.8028294 -6.019113 0.7382055
v 3.584829 -6.019113 2.427206
v 1.151829 -6.019113 6.434206
v 0.8148294 -6.019113 6.988205
v -0.3761706 -6.019113 8.949205
v -1.567171 -6.019113 10.91021
v -1.715171 -6.019113 11.15421
v -2.087671 -6.019113 10.92771
v -2.460171 -6.019113 10.70121
vt 0.652057 0.078258
vt 0.680467 0.082198
vt 0.697246 0.131396
vt 0.552791 0.009636
vt 0.628436 0.066788
vt 0.392858 0.202784
vt 0.680467 0.082198
vt 0.707005 0.116185
vt 0.697246 0.131396
vt 0.652057 0.078258
vt 0.697246 0.131396
vt 0.583654 0.203527
vt 0.639563 0.062239
vt 0.652057 0.078258
vt 0.628436 0.066788
vt 0.697246 0.131396
vt 0.711020 0.147904
vt 0.703561 0.151158
vt 0.697246 0.131396
vt 0.703561 0.151158
vt 0.583654 0.203527
vt 0.571014 0.001279
vt 0.575898 0.006851
vt 0.552791 0.009636
vt 0.628436 0.066788
vt 0.652057 0.078258
vt 0.583654 0.203527
vt 0.575898 0.006851
vt 0.628436 0.066788
vt 0.552791 0.009636
vt 0.628436 0.066788
vt 0.583654 0.203527
vt 0.577178 0.195750
vt 0.628436 0.066788
vt 0.577178 0.195750
vt 0.572309 0.197876
vt 0.552791 0.009636
vt 0.357950 0.197810
vt 0.079660 0.227028
vt 0.392858 0.202784
vt 0.566717 0.210936
vt 0.444217 0.264425
vt 0.628436 0.066788
vt 0.572309 0.197876
vt 0.392858 0.202784
vt 0.560210 0.203159
vt 0.566717 0.210936
vt 0.392858 0.202784
vt 0.572309 0.197876
vt 0.560210 0.203159
vt 0.392858 0.202784
vt 0.552791 0.009636
vt 0.392858 0.202784
vt 0.357950 0.197810
vt 0.357950 0.197810
vt 0.325629 0.270694
vt 0.079660 0.227028
vt 0.079660 0.227028
vt 0.099703 0.374507
vt 0.071956 0.230569
vt 0.079660 0.227028
vt 0.325629 0.270694
vt 0.099703 0.374507
vt 0.071956 0.230569
vt 0.099703 0.374507
vt 0.001764 0.262829
vt 0.518460 0.961637
vt 0.508717 0.975621
vt 0.502645 0.968460
vt 0.518460 0.961637
vt 0.524497 0.968799
vt 0.508717 0.975621
vt 0.879310 0.837596
vt 0.905112 0.870433
vt 0.821603 0.891626
vt 0.795414 0.858298
vt 0.588223 0.887968
vt 0.578690 0.902692
vt 0.495591 0.852541
vt 0.505266 0.837596
vt 0.091906 0.969534
vt 0.098586 0.977431
vt 0.015326 0.998871
vt 0.001764 0.982841
vt 0.085225 0.961637
vt 0.091906 0.969534
vt 0.001764 0.982841
vt 0.091906 0.969534
vt 0.015326 0.998871
vt 0.352272 0.720575
vt 0.344932 0.723748
vt 0.260779 0.673297
vt 0.268230 0.670077
vt 0.285935 0.749277
vt 0.226939 0.774806
vt 0.141024 0.725120
vt 0.260779 0.673297
vt 0.344932 0.723748
vt 0.285935 0.749277
vt 0.260779 0.673297
vt 0.285935 0.749277
vt 0.141024 0.725120
vt 0.226939 0.774806
vt 0.210272 0.782030
vt 0.124109 0.732451
vt 0.141024 0.725120
vt 0.210272 0.782030
vt 0.089728 0.834180
vt 0.001764 0.785381
vt 0.124109 0.732451
vt 0.141024 0.725120
vt 0.124109 0.732451
vt 0.116754 0.728219
vt 0.133684 0.720874
vt 0.179925 0.949719
vt 0.126984 0.888245
vt 0.291984 0.837596
vt 0.344131 0.898152
vt 0.627827 0.893216
vt 0.592593 0.888590
vt 0.756671 0.837596
vt 0.791379 0.842152
vt 0.122464 0.887238
vt 0.090631 0.958465
vt 0.001764 0.909888
vt 0.034071 0.837596
vt 0.936005 0.718752
vt 0.713784 0.819925
vt 0.620811 0.772764
vt 0.846351 0.670077
vt 0.457222 0.830916
vt 0.566047 0.725104
vt 0.615770 0.780130
vt 0.566047 0.725104
vt 0.356261 0.719194
vt 0.516322 0.670077
vt 0.457222 0.830916
vt 0.356261 0.719194
vt 0.566047 0.725104
vt 0.507610 0.410555
vt 0.578770 0.377238
vt 0.737477 0.401329
vt 0.667385 0.434145
vt 0.499800 0.414211
vt 0.507610 0.410555
vt 0.667385 0.434145
vt 0.659693 0.437747
vt 0.020232 0.638688
vt 0.499800 0.414211
vt 0.659693 0.437747
vt 0.187320 0.658847
vt 0.001764 0.647316
vt 0.020232 0.638688
vt 0.187320 0.658847
vt 0.169129 0.667346
vt 0.434994 0.837596
vt 0.439760 0.843024
vt 0.354043 0.862798
vt 0.349206 0.857288
vt 0.465389 0.872217
vt 0.491017 0.901409
vt 0.406069 0.922056
vt 0.354043 0.862798
vt 0.439760 0.843024
vt 0.465389 0.872217
vt 0.354043 0.862798
vt 0.465389 0.872217
vt 0.406069 0.922056
vt 0.202822 0.966137
vt 0.214024 0.961637
vt 0.381050 0.981752
vt 0.370016 0.986185
vt 0.186593 0.961637
vt 0.198712 0.976927
vt 0.114594 0.997324
vt 0.102293 0.981805
vt 0.470573 0.961637
vt 0.498202 0.965338
vt 0.414285 0.985462
vt 0.386243 0.981706
vt 0.592024 0.961637
vt 0.597705 0.968465
vt 0.591226 0.970183
vt 0.585538 0.963346
vt 0.535293 0.972709
vt 0.529101 0.965637
vt 0.542262 0.961637
vt 0.548460 0.968696
vt 0.552028 0.968374
vt 0.570255 0.968172
vt 0.565582 0.970103
vt 0.552028 0.968374
vt 0.568335 0.961637
vt 0.581868 0.963374
vt 0.570255 0.968172
vt 0.601411 0.961637
vt 0.601411 0.961637
vt 0.601411 0.961637
vt 0.601411 0.961637
vt 0.601411 0.961637
vt 0.601411 0.961637
vt 0.601411 0.961637
vt 0.601411 0.961637
vt 0.601411 0.961637
vt 0.601411 0.961637
vt 0.601411 0.961637
vt 0.601411 0.961637
vt 0.601411 0.961637
vt 0.601411 0.961637
vt 0.601411 0.961637
vt 0.601411 0.961637
vt 0.601411 0.961637
vt 0.601411 0.961637
vt 0.601411 0.961637
vt 0.601411 0.961637
vt 0.601411 0.961637
vt 0.601411 0.961637
vt 0.601411 0.961637
vt 0.601411 0.961637
vt 0.601411 0.961637
vn 0 1 0
vn 0 1 0
vn 0 1 0
vn 0 1 0
vn 0 1 0
vn 0 1 0
vn 0 1 0
vn 0 1 0
vn 0 1 0
vn 0 1 0
vn 0 1 0
vn 0 1 0
vn 0 1 0
vn 0 1 0
vn 0 1 0
vn 0 1 0
vn 0 1 0
vn 0 1 0
vn 0 1 0
vn 0 1 0
vn 0 1 0
vn 0 1 0
vn 0 1 0
vn 0 1 0
vn 0 1 0
vn 0 1 0
vn 0 1 0
vn 0 1 0
vn 0 1 0
vn 0 1 0
vn 0 1 0
vn 0 1 0
vn 0 1 0
vn 0 1 0
vn 0 1 0
vn 0 1 0
vn 0 1 0
vn 0 1 0
vn 0 1 0
vn 0 1 0
vn 0 1 0
vn 0 1 0
vn 0 1 0
vn 0 1 0
vn 0 1 0
vn 0 1 0
vn 0 1 0
vn 0 1 0
vn 0 1 0
vn 0 1 0
vn 0 1 0
vn 0 1 0
vn 0 1 0
vn 0 1 0
vn 0 1 0
vn 0 1 0
vn 0 1 0
vn 0 1 0
vn 0 1 0
vn 0 1 0
vn 0 1 0
vn 0 1 0
vn 0 1 0
vn 0 1 0
vn 0 1 0
vn 0 1 0
vn 0.002079245 0.999997 0.001262533
vn 0.002079245 0.999997 0.001262533
vn 0.002079245 0.999997 0.001262533
vn 0.0008000441 0.9999988 -0.001318383
vn 0.0008000441 0.9999988 -0.001318383
vn 0.0008000441 0.9999988 -0.001318383
vn -0.4946128 0 0.8691134
vn -0.4946128 0 0.8691134
vn -0.4946128 0 0.8691134
vn -0.4946128 0 0.8691134
vn 0.4190582 0 0.9079594
vn 0.4190582 0 0.9079594
vn 0.4190582 0 0.9079594
vn 0.4190582 0 0.9079594
vn -0.5195467 0 0.8544421
vn -0.5195467 0 0.8544421
vn -0.5195467 0 0.8544421
vn -0.5195467 0 0.8544421
vn -0.5195467 0 0.8544421
vn -0.5195467 0 0.8544421
vn -0.5195467 0 0.8544421
vn -0.5195467 0 0.8544421
vn -0.5195467 0 0.8544421
vn 0.8550095 0 0.5186123
vn 0.8550095 0 0.5186123
vn 0.8550095 0 0.5186123
vn 0.8550095 0 0.5186123
vn 0.8547115 0 0.5191032
vn 0.8547115 0 0.5191032
vn 0.8547115 0 0.5191032
vn 0.8547115 0 0.5191032
vn 0.8547115 0 0.5191032
vn 0.8547115 0 0.5191032
vn 0.8547115 -2.066699E-12 0.5191032
vn 0.8547115 -2.066699E-12 0.5191032
vn 0.8547115 -2.066699E-12 0.5191032
vn 0.8543474 0 0.5197023
vn 0.8543474 0 0.5197023
vn 0.8543474 0 0.5197023
vn 0.8543474 0 0.5197023
vn 0.8547706 0 0.519006
vn 0.8547706 0 0.519006
vn 0.8547706 0 0.519006
vn 0.8547706 0 0.519006
vn 0.8543474 0 0.5197023
vn 0.8543474 0 0.5197023
vn 0.8543474 0 0.5197023
vn 0.8543474 0 0.5197023
vn 0.5189621 0 -0.8547972
vn 0.5189621 0 -0.8547972
vn 0.5189621 0 -0.8547972
vn 0.5189621 0 -0.8547972
vn 0.9818469 0 -0.189675
vn 0.9818469 0 -0.189675
vn 0.9818469 0 -0.189675
vn 0.9818469 0 -0.189675
vn 0.3034658 0 0.9528423
vn 0.3034658 0 0.9528423
vn 0.3034658 0 0.9528423
vn 0.3034658 0 0.9528423
vn 0.8427164 0 0.5383578
vn 0.8427164 0 0.5383578
vn 0.8427164 0 0.5383578
vn 0.8427164 0 0.5383578
vn 0.5383893 0 -0.8426962
vn 0.5383893 0 -0.8426962
vn 0.5383893 0 -0.8426962
vn 0.5383893 0 -0.8426962
vn 0.5383893 0 -0.8426962
vn 0.5383893 0 -0.8426962
vn 0.5383893 3.260236E-11 -0.8426962
vn 0.5383893 3.260236E-11 -0.8426962
vn 0.5383893 3.260236E-11 -0.8426962
vn -0.8426778 0 -0.5384182
vn -0.8426778 0 -0.5384182
vn -0.8426778 0 -0.5384182
vn -0.8426778 0 -0.5384182
vn -0.8426962 0 -0.5383893
vn -0.8426962 0 -0.5383893
vn -0.8426962 0 -0.5383893
vn -0.8426962 0 -0.5383893
vn -0.8427409 0 -0.5383195
vn -0.8427409 0 -0.5383195
vn -0.8427409 0 -0.5383195
vn -0.8427409 0 -0.5383195
vn -0.8431951 0 -0.5376076
vn -0.8431951 0 -0.5376076
vn -0.8431951 0 -0.5376076
vn -0.8431951 0 -0.5376076
vn -0.5382768 0 0.8427681
vn -0.5382768 0 0.8427681
vn -0.5382768 0 0.8427681
vn -0.5382768 0 0.8427681
vn -0.5382768 0 0.8427681
vn -0.5382768 0 0.8427681
vn -0.5382768 0 0.8427681
vn -0.5382768 0 0.8427681
vn -0.5382768 0 0.8427681
vn -0.5382768 0 0.8427681
vn -0.5382768 -1.899613E-10 0.8427681
vn -0.5382768 -1.899613E-10 0.8427681
vn -0.5382768 -1.899613E-10 0.8427681
vn -0.86927 0 -0.4943376
vn -0.86927 0 -0.4943376
vn -0.86927 0 -0.4943376
vn -0.86927 0 -0.4943376
vn -0.4941953 0 0.8693509
vn -0.4941953 0 0.8693509
vn -0.4941953 0 0.8693509
vn -0.4941953 0 0.8693509
vn -0.9827884 0 0.1847347
vn -0.9827884 0 0.1847347
vn -0.9827884 0 0.1847347
vn -0.9827884 0 0.1847347
vn -0.5187874 0 0.8549033
vn -0.5187874 0 0.8549033
vn -0.5187874 0 0.8549033
vn -0.5187874 0 0.8549033
vn 0.5205642 0 -0.8538225
vn 0.5205642 0 -0.8538225
vn 0.5205642 0 -0.8538225
vn 0.5205642 0 -0.8538225
vn -0.8547632 0 -0.5190183
vn -0.8547632 0 -0.5190183
vn -0.8547632 0 -0.5190183
vn -0.8547631 1.200635E-09 -0.5190184
vn -0.8547631 6.003174E-10 -0.5190184
vn -0.8547631 0 -0.5190184
vn -0.8547631 6.003174E-10 -0.5190184
vn 0 -1 0
vn 0 -1 0
vn 0 -1 0
vn 0 -1 0
vn 0 -1 0
vn 0 -1 0
vn 0 -1 0
vn 0 -1 0
vn 0 -1 0
vn 0 -1 0
vn 0 -1 0
vn 0 -1 0
vn 0 -1 0
vn 0 -1 0
vn 0 -1 0
vn 0 -1 0
vn 0 -1 0
vn 0 -1 0
vn 0 -1 0
vn 0 -1 0
vn 0 -1 0
vn 0 -1 0
vn 0 -1 0
vn 0 -1 0
vn 0 -1 0

g CDNNDG02_0002440
f 1/1/1 2/2/2 3/3/3
f 4/4/4 5/5/5 6/6/6
f 7/7/7 8/8/8 9/9/9
f 10/10/10 11/11/11 12/12/12
f 13/13/13 14/14/14 15/15/15
f 16/16/16 17/17/17 18/18/18
f 19/19/19 20/20/20 21/21/21
f 22/22/22 23/23/23 24/24/24
f 25/25/25 26/26/26 27/27/27
f 28/28/28 29/29/29 30/30/30
f 31/31/31 32/32/32 33/33/33
f 34/34/34 35/35/35 36/36/36
f 37/37/37 38/38/38 39/39/39
f 40/40/40 41/41/41 42/42/42
f 43/43/43 44/44/44 45/45/45
f 46/46/46 47/47/47 48/48/48
f 49/49/49 50/50/50 51/51/51
f 52/52/52 53/53/53 54/54/54
f 55/55/55 56/56/56 57/57/57
f 58/58/58 59/59/59 60/60/60
f 61/61/61 62/62/62 63/63/63
f 64/64/64 65/65/65 66/66/66
f 67/67/67 68/68/68 69/69/69
f 70/70/70 71/71/71 72/72/72
f 76/76/76 73/73/73 75/75/75
f 75/75/75 73/73/73 74/74/74
f 78/78/78 79/79/79 80/80/80
f 77/77/77 78/78/78 80/80/80
f 81/81/81 82/82/82 83/83/83
f 84/84/84 85/85/85 86/86/86
f 87/87/87 88/88/88 89/89/89
f 91/91/91 92/92/92 90/90/90
f 90/90/90 92/92/92 93/93/93
f 94/94/94 95/95/95 96/96/96
f 97/97/97 98/98/98 99/99/99
f 100/100/100 101/101/101 102/102/102
f 104/104/104 105/105/105 103/103/103
f 103/103/103 105/105/105 106/106/106
f 108/108/108 109/109/109 110/110/110
f 107/107/107 108/108/108 110/110/110
f 111/111/111 113/113/113 114/114/114
f 111/111/111 112/112/112 113/113/113
f 115/115/115 117/117/117 118/118/118
f 115/115/115 116/116/116 117/117/117
f 122/122/122 119/119/119 120/120/120
f 121/121/121 122/122/122 120/120/120
f 124/124/124 125/125/125 126/126/126
f 123/123/123 124/124/124 126/126/126
f 130/130/130 127/127/127 128/128/128
f 128/128/128 129/129/129 130/130/130
f 131/131/131 132/132/132 133/133/133
f 134/134/134 135/135/135 136/136/136
f 137/137/137 138/138/138 139/139/139
f 140/140/140 141/141/141 142/142/142
f 143/143/143 140/140/140 142/142/142
f 144/144/144 146/146/146 147/147/147
f 144/144/144 145/145/145 146/146/146
f 148/148/148 150/150/150 151/151/151
f 148/148/148 149/149/149 150/150/150
f 152/152/152 154/154/154 155/155/155
f 152/152/152 153/153/153 154/154/154
f 159/159/159 156/156/156 158/158/158
f 158/158/158 156/156/156 157/157/157
f 160/160/160 161/161/161 162/162/162
f 163/163/163 164/164/164 165/165/165
f 166/166/166 167/167/167 168/168/168
f 170/170/170 171/171/171 172/172/172
f 169/169/169 170/170/170 172/172/172
f 174/174/174 175/175/175 176/176/176
f 176/176/176 173/173/173 174/174/174
f 177/177/177 179/179/179 180/180/180
f 177/177/177 178/178/178 179/179/179
f 181/181/181 183/183/183 184/184/184
f 183/183/183 181/181/181 182/182/182
f 187/187/187 188/188/188 186/186/186
f 185/185/185 186/186/186 188/188/188
f 189/189/189 190/190/190 191/191/191
f 195/195/195 192/192/192 193/193/193
f 194/194/194 195/195/195 193/193/193
f 220/220/220 197/197/197 198/198/198
f 220/220/220 198/198/198 216/216/216
f 219/219/219 220/220/220 217/217/217
f 198/198/198 199/199/199 200/200/200
f 219/219/219 217/217/217 218/218/218
f 212/212/212 200/200/200 201/201/201
f 210/210/210 205/205/205 208/208/208
f 201/201/201 204/204/204 212/212/212
f 202/202/202 204/204/204 201/201/201
f 203/203/203 204/204/204 202/202/202
f 211/211/211 205/205/205 210/210/210
f 220/220/220 196/196/196 197/197/197
f 205/205/205 206/206/206 208/208/208
f 206/206/206 207/207/207 208/208/208
f 216/216/216 217/217/217 220/220/220
f 200/200/200 216/216/216 198/198/198
f 208/208/208 209/209/209 210/210/210
f 200/200/200 215/215/215 216/216/216
f 200/200/200 212/212/212 214/214/214
f 211/211/211 212/212/212 204/204/204
f 211/211/211 204/204/204 205/205/205
f 212/212/212 213/213/213 214/214/214
f 200/200/200 214/214/214 215/215/215
