v -0.4914913 6.010918 -6.534776
v 6.520509 6.011959 -2.762776
v 0.4905087 6.011062 -8.100776
v 7.221509 6.012062 -3.881776
v -1.121491 6.010825 -5.529776
v 4.506509 6.011662 -1.515776
v 4.957509 6.011728 -2.234776
v -1.121491 6.010825 -5.529776
v 4.413508 6.01165 0.5982243
v 4.506509 6.011662 -1.515776
v -1.121491 6.010825 -5.529776
v 4.957509 6.011728 -2.234776
v 6.520509 6.011959 -2.762776
v 4.413508 6.01165 0.5982243
v 6.520509 6.011959 -2.762776
v 5.256509 6.011773 -1.044776
v 4.413508 6.01165 0.5982243
v 5.256509 6.011773 -1.044776
v 4.506509 6.011662 -1.515776
v 4.957509 6.011728 -2.234776
v 5.708508 6.011839 -1.762776
v 6.520509 6.011959 -2.762776
v 5.256509 6.011773 -1.044776
v 6.520509 6.011959 -2.762776
v 5.708508 6.011839 -1.762776
v -1.095491 6.010839 6.042224
v 0.4105087 6.011062 6.985224
v 4.413508 6.01165 0.5982243
v -5.352941 6.010205 2.497612
v -1.095491 6.010839 6.042224
v -5.304492 6.010212 2.420224
v -5.304492 6.010212 2.420224
v -1.095491 6.010839 6.042224
v 4.413508 6.01165 0.5982243
v -5.879491 6.010127 2.059224
v -5.304492 6.010212 2.420224
v -1.121491 6.010825 -5.529776
v -5.304492 6.010212 2.420224
v 4.413508 6.01165 0.5982243
v -1.121491 6.010825 -5.529776
v -1.121491 6.010825 -5.529776
v 6.520509 6.011959 -2.762776
v -0.4914913 6.010918 -6.534776
v -5.746491 6.010148 3.126224
v -1.095491 6.010839 6.042224
v -5.352941 6.010205 2.497612
v 4.957509 6.992231 -2.234776
v 5.256509 6.992231 -1.044776
v 5.708508 6.994231 -1.762776
v 4.506509 6.992231 -1.515776
v 5.256509 6.992231 -1.044776
v 4.957509 6.992231 -2.234776
v -5.746491 5.035229 3.126224
v -2.140508 4.472344 7.710251
v -1.095491 5.035203 6.042224
v -7.368491 4.472203 4.433224
v -2.140508 4.472344 7.710251
v -5.746491 5.035229 3.126224
v -7.368491 4.472203 4.433224
v -5.746491 5.035229 3.126224
v -6.322491 5.035203 2.765224
v -6.322491 6.882231 2.765224
v -5.304492 6.882231 2.420224
v -5.879491 6.882231 2.059224
v -6.322491 6.882231 2.765224
v -5.746491 6.881231 3.126224
v -5.304492 6.882231 2.420224
v -6.322491 6.010062 2.765224
v -6.322491 5.035203 2.765224
v -5.746491 5.035229 3.126224
v -5.746491 6.010148 3.126224
v -5.746491 6.010148 3.126224
v -5.746491 5.035229 3.126224
v -1.095491 5.035203 6.042224
v -1.095491 6.010839 6.042224
v -0.3424913 -5.902041 6.513724
v 0.4105087 -5.902041 6.985224
v 0.4105087 6.011062 6.985224
v -1.095491 6.010839 6.042224
v -0.3424913 -5.902041 6.513724
v 0.4105087 6.011062 6.985224
v -1.095491 6.010839 6.042224
v -1.095491 5.035203 6.042224
v -0.3424913 -5.902041 6.513724
v -1.095491 5.035203 6.042224
v -1.095491 -5.902041 6.042224
v -0.3424913 -5.902041 6.513724
v -6.322491 6.010062 2.765224
v -5.746491 6.881231 3.126224
v -6.322491 6.882231 2.765224
v -5.746491 6.010148 3.126224
v 4.413508 -5.902041 0.5982243
v 4.413508 6.01165 0.5982243
v 0.4105087 6.011062 6.985224
v 0.4105087 -5.902041 6.985224
v 6.520509 -5.902041 -2.762776
v 6.520509 6.011959 -2.762776
v 4.413508 6.01165 0.5982243
v 4.413508 -5.902041 0.5982243
v 6.871008 -5.902041 -3.322276
v 7.221509 -5.902041 -3.881776
v 7.221509 6.012062 -3.881776
v 6.520509 6.011959 -2.762776
v 6.520509 -5.902041 -2.762776
v 6.871008 -5.902041 -3.322276
v 6.520509 6.011959 -2.762776
v 6.871008 -5.902041 -3.322276
v 7.221509 6.012062 -3.881776
v 0.4905087 6.011062 -8.100776
v 3.856009 -5.902041 -5.991276
v 0.4905087 -5.902041 -8.100776
v 3.856009 -5.902041 -5.991276
v 7.221509 6.012062 -3.881776
v 7.221509 -5.902041 -3.881776
v 0.4905087 6.011062 -8.100776
v 7.221509 6.012062 -3.881776
v 3.856009 -5.902041 -5.991276
v -0.4914913 6.010918 -6.534776
v 0.4905087 -5.902041 -8.100776
v -0.4914913 -5.902041 -6.534776
v 0.4905087 6.011062 -8.100776
v -1.121491 6.010825 -5.529776
v -0.4914913 -5.902041 -6.534776
v -1.121491 -5.902041 -5.529776
v -0.4914913 6.010918 -6.534776
v -5.879491 6.010127 2.059224
v -1.121491 -5.902041 -5.529776
v -5.879491 -5.902041 2.059224
v -1.121491 6.010825 -5.529776
v -6.322491 6.010062 2.765224
v -5.879491 6.010127 2.059224
v -6.322491 5.035203 2.765224
v -6.322491 5.035203 2.765224
v -5.879491 -5.902041 2.059224
v -6.322491 -5.902041 2.765224
v -5.879491 6.010127 2.059224
v -7.368491 4.472203 4.433224
v -6.845491 -5.902041 3.599224
v -7.368491 -5.902041 4.433224
v -6.845491 -5.902041 3.599224
v -6.322491 5.035203 2.765224
v -6.322491 -5.902041 2.765224
v -7.368491 4.472203 4.433224
v -6.322491 5.035203 2.765224
v -6.845491 -5.902041 3.599224
v -6.322491 6.882231 2.765224
v -5.879491 6.010127 2.059224
v -6.322491 6.010062 2.765224
v -5.879491 6.882231 2.059224
v 4.506509 6.992231 -1.515776
v 5.256509 6.011773 -1.044776
v 5.256509 6.992231 -1.044776
v 4.506509 6.011662 -1.515776
v 5.256509 6.992231 -1.044776
v 5.256509 6.011773 -1.044776
v 5.708508 6.011839 -1.762776
v 5.708508 6.994231 -1.762776
v 4.957509 6.011728 -2.234776
v 4.957509 6.992231 -2.234776
v 5.708508 6.011839 -1.762776
v 5.708508 6.994231 -1.762776
v 4.506509 6.011662 -1.515776
v 4.506509 6.992231 -1.515776
v 4.957509 6.011728 -2.234776
v 4.957509 6.992231 -2.234776
v -2.140508 -5.902041 7.710251
v -2.140508 4.472344 7.710251
v -7.368491 4.472203 4.433224
v -7.368491 -5.902041 4.433224
v -1.618 -5.902041 6.876238
v -1.095491 -5.902041 6.042224
v -1.095491 5.035203 6.042224
v -2.140508 4.472344 7.710251
v -2.140508 -5.902041 7.710251
v -1.618 -5.902041 6.876238
v -2.140508 4.472344 7.710251
v -1.618 -5.902041 6.876238
v -1.095491 5.035203 6.042224
v -5.352941 6.010205 2.497612
v -5.304492 6.010212 2.420224
v -5.304492 6.882231 2.420224
v -5.746491 6.881231 3.126224
v -5.746491 6.010148 3.126224
v -5.352941 6.010205 2.497612
v -5.746491 6.881231 3.126224
v -5.352941 6.010205 2.497612
v -5.304492 6.882231 2.420224
v -5.879491 6.010127 2.059224
v -5.879491 6.882231 2.059224
v -5.304492 6.010212 2.420224
v -5.304492 6.882231 2.420224
v -6.845491 -5.902041 3.599224
v -6.322491 -5.902041 2.765224
v -1.095491 -5.902041 6.042224
v -5.879491 -5.902041 2.059224
v -7.368491 -5.902041 4.433224
v -1.618 -5.902041 6.876238
v -2.140508 -5.902041 7.710251
v 4.413508 -5.902041 0.5982243
v -0.3424913 -5.902041 6.513724
v 0.4105087 -5.902041 6.985224
v -1.121491 -5.902041 -5.529776
v 3.856009 -5.902041 -5.991276
v 6.520509 -5.902041 -2.762776
v -0.4914913 -5.902041 -6.534776
v 6.871008 -5.902041 -3.322276
v 0.4905087 -5.902041 -8.100776
v 7.221509 -5.902041 -3.881776
vt 0.533414 0.209929
vt 0.384404 0.020563
vt 0.594810 0.183288
vt 0.428275 0.001543
vt 0.494014 0.227020
vt 0.335663 0.075091
vt 0.363852 0.062855
vt 0.494014 0.227020
vt 0.252635 0.077729
vt 0.335663 0.075091
vt 0.494014 0.227020
vt 0.363852 0.062855
vt 0.384404 0.020563
vt 0.252635 0.077729
vt 0.384404 0.020563
vt 0.317071 0.054840
vt 0.252635 0.077729
vt 0.317071 0.054840
vt 0.335663 0.075091
vt 0.363852 0.062855
vt 0.345220 0.042576
vt 0.384404 0.020563
vt 0.317071 0.054840
vt 0.384404 0.020563
vt 0.345220 0.042576
vt 0.039468 0.226992
vt 0.002242 0.186331
vt 0.252635 0.077729
vt 0.179218 0.341886
vt 0.039468 0.226992
vt 0.182252 0.340571
vt 0.182252 0.340571
vt 0.039468 0.226992
vt 0.252635 0.077729
vt 0.196502 0.356095
vt 0.182252 0.340571
vt 0.494014 0.227020
vt 0.182252 0.340571
vt 0.252635 0.077729
vt 0.494014 0.227020
vt 0.494014 0.227020
vt 0.384404 0.020563
vt 0.533414 0.209929
vt 0.154576 0.352562
vt 0.039468 0.226992
vt 0.179218 0.341886
vt 0.289171 0.954654
vt 0.244395 0.946961
vt 0.271325 0.935185
vt 0.262190 0.966399
vt 0.244395 0.946961
vt 0.289171 0.954654
vt 0.692591 0.722047
vt 0.517937 0.626532
vt 0.578538 0.597222
vt 0.646022 0.766740
vt 0.517937 0.626532
vt 0.692591 0.722047
vt 0.646022 0.766740
vt 0.692591 0.722047
vt 0.706711 0.737505
vt 0.475442 0.961338
vt 0.488224 0.935185
vt 0.501789 0.949926
vt 0.475442 0.961338
vt 0.461883 0.946573
vt 0.488224 0.935185
vt 0.692825 0.935185
vt 0.692825 0.935185
vt 0.692825 0.935185
vt 0.692825 0.935185
vt 0.692825 0.935185
vt 0.692825 0.935185
vt 0.692825 0.935185
vt 0.692825 0.935185
vt 0.692825 0.935185
vt 0.692825 0.935185
vt 0.692825 0.935185
vt 0.692825 0.935185
vt 0.692825 0.935185
vt 0.692825 0.935185
vt 0.692825 0.935185
vt 0.692825 0.935185
vt 0.692825 0.935185
vt 0.692825 0.935185
vt 0.692825 0.935185
vt 0.692825 0.935185
vt 0.692825 0.935185
vt 0.692825 0.935185
vt 0.692825 0.935185
vt 0.692825 0.935185
vt 0.337892 0.667423
vt 0.254535 0.726941
vt 0.002242 0.828494
vt 0.089283 0.767495
vt 0.468722 0.614747
vt 0.387304 0.673486
vt 0.254535 0.726941
vt 0.337892 0.667423
vt 0.490501 0.605985
vt 0.512280 0.597222
vt 0.431508 0.655701
vt 0.387304 0.673486
vt 0.468722 0.614747
vt 0.490501 0.605985
vt 0.387304 0.673486
vt 0.490501 0.605985
vt 0.431508 0.655701
vt 0.756368 0.242615
vt 0.757853 0.091502
vt 0.834445 0.181456
vt 0.757853 0.091502
vt 0.600897 0.060040
vt 0.681258 0.001543
vt 0.756368 0.242615
vt 0.600897 0.060040
vt 0.757853 0.091502
vt 0.420812 0.386150
vt 0.561419 0.384295
vt 0.500944 0.410483
vt 0.482194 0.359568
vt 0.381421 0.403203
vt 0.500944 0.410483
vt 0.462134 0.427284
vt 0.420812 0.386150
vt 0.083976 0.531992
vt 0.462134 0.427284
vt 0.169080 0.554166
vt 0.381421 0.403203
vt 0.056306 0.543982
vt 0.083976 0.531992
vt 0.063400 0.545807
vt 0.063400 0.545807
vt 0.169080 0.554166
vt 0.141818 0.565979
vt 0.083976 0.531992
vt 0.002242 0.575116
vt 0.109614 0.579925
vt 0.077410 0.593871
vt 0.109614 0.579925
vt 0.063400 0.545807
vt 0.141818 0.565979
vt 0.002242 0.575116
vt 0.063400 0.545807
vt 0.109614 0.579925
vt 0.049944 0.542346
vt 0.083976 0.531992
vt 0.056306 0.543982
vt 0.077645 0.530342
vt 0.681614 0.935185
vt 0.681614 0.935185
vt 0.681614 0.935185
vt 0.681614 0.935185
vt 0.556054 0.950213
vt 0.562543 0.945682
vt 0.589252 0.935185
vt 0.582783 0.939712
vt 0.528965 0.954481
vt 0.522724 0.959182
vt 0.512999 0.935185
vt 0.506726 0.939872
vt 0.638827 0.948254
vt 0.632287 0.946259
vt 0.665353 0.937194
vt 0.658847 0.935185
vt 0.704036 0.935185
vt 0.704036 0.935185
vt 0.704036 0.935185
vt 0.704036 0.935185
vt 0.369525 0.900498
vt 0.337592 0.914046
vt 0.121076 0.856223
vt 0.197054 0.831790
vt 0.401457 0.886950
vt 0.369525 0.900498
vt 0.197054 0.831790
vt 0.369525 0.900498
vt 0.121076 0.856223
vt 0.623492 0.936310
vt 0.626370 0.935185
vt 0.620450 0.939491
vt 0.594170 0.949758
vt 0.600112 0.945445
vt 0.623492 0.936310
vt 0.594170 0.949758
vt 0.623492 0.936310
vt 0.620450 0.939491
vt 0.551184 0.949759
vt 0.545584 0.954173
vt 0.539245 0.935185
vt 0.533632 0.939584
vt 0.737668 0.935185
vt 0.737668 0.935185
vt 0.737668 0.935185
vt 0.737668 0.935185
vt 0.737668 0.935185
vt 0.737668 0.935185
vt 0.737668 0.935185
vt 0.737668 0.935185
vt 0.737668 0.935185
vt 0.737668 0.935185
vt 0.737668 0.935185
vt 0.737668 0.935185
vt 0.737668 0.935185
vt 0.737668 0.935185
vt 0.737668 0.935185
vt 0.737668 0.935185
vt 0.737668 0.935185
vn -0.0001480287 1 -7.881119E-07
vn -0.0001480297 1 -7.87026E-07
vn -0.0001480297 1 -7.87026E-07
vn -0.0001480306 1 -7.859401E-07
vn -0.0001480315 1 -7.819327E-07
vn -0.0001480315 1 -7.819327E-07
vn -0.0001480315 1 -7.819327E-07
vn -0.0001480269 1 -7.883231E-07
vn -0.0001480269 1 -7.883231E-07
vn -0.0001480269 1 -7.883231E-07
vn -0.0001480314 1 -7.822006E-07
vn -0.0001480314 1 -7.822006E-07
vn -0.0001480314 1 -7.822006E-07
vn -0.0001480254 1 -7.823742E-07
vn -0.0001480254 1 -7.823742E-07
vn -0.0001480254 1 -7.823742E-07
vn -0.000148038 1 -7.888077E-07
vn -0.000148038 1 -7.888077E-07
vn -0.000148038 1 -7.888077E-07
vn -0.000148031 1 -7.811653E-07
vn -0.000148031 1 -7.811653E-07
vn -0.000148031 1 -7.811653E-07
vn -0.0001481008 1 -8.378165E-07
vn -0.0001481008 1 -8.378165E-07
vn -0.0001481008 1 -8.378165E-07
vn -0.0001480291 1 -7.82882E-07
vn -0.0001480291 1 -7.82882E-07
vn -0.0001480291 1 -7.82882E-07
vn -0.0001480205 1 -7.956122E-07
vn -0.0001480205 1 -7.956122E-07
vn -0.0001480205 1 -7.956122E-07
vn -0.0001480303 1 -7.841836E-07
vn -0.0001480303 1 -7.841836E-07
vn -0.0001480303 1 -7.841836E-07
vn -0.0001480292 1 -7.844429E-07
vn -0.0001480292 1 -7.844429E-07
vn -0.0001480292 1 -7.844429E-07
vn -0.0001480305 1 -7.851086E-07
vn -0.0001480305 1 -7.851086E-07
vn -0.0001480305 1 -7.851086E-07
vn -0.0001480303 1 -7.851647E-07
vn -0.0001480303 1 -7.851647E-07
vn -0.0001480303 1 -7.851647E-07
vn -0.000148035 1 -7.782083E-07
vn -0.000148035 1 -7.782083E-07
vn -0.000148035 1 -7.782083E-07
vn -0.003162513 0.9999947 0.0007946147
vn -0.003162513 0.9999947 0.0007946147
vn -0.003162513 0.9999947 0.0007946147
vn 0 1 0
vn 0 1 0
vn 0 1 0
vn -0.1460404 0.9614626 0.232942
vn -0.1460404 0.9614626 0.232942
vn -0.1460404 0.9614626 0.232942
vn -0.1460388 0.9614631 0.2329408
vn -0.1460388 0.9614631 0.2329408
vn -0.1460388 0.9614631 0.2329408
vn -0.146037 0.9614629 0.232943
vn -0.146037 0.9614629 0.232943
vn -0.146037 0.9614629 0.232943
vn 0 1 0
vn 0 1 0
vn 0 1 0
vn 0.0006093048 0.9999982 0.001797891
vn 0.0006093048 0.9999982 0.001797891
vn 0.0006093048 0.9999982 0.001797891
vn -0.5310563 0 0.8473365
vn -0.5310563 0 0.8473365
vn -0.5310563 0 0.8473365
vn -0.5310563 0 0.8473365
vn -0.5311937 0 0.8472504
vn -0.5311937 0 0.8472504
vn -0.5311937 0 0.8472504
vn -0.5311937 0 0.8472504
vn -0.530707 0 0.8475553
vn -0.530707 0 0.8475553
vn -0.530707 0 0.8475553
vn -0.530707 2.230039E-10 0.8475553
vn -0.530707 2.230039E-10 0.8475553
vn -0.530707 2.230039E-10 0.8475553
vn -0.530707 0 0.8475553
vn -0.530707 0 0.8475553
vn -0.530707 0 0.8475553
vn -0.530707 0 0.8475553
vn -0.530707 0 0.8475553
vn -0.530707 0 0.8475553
vn -0.5310563 0 0.8473365
vn -0.5310563 0 0.8473365
vn -0.5310563 0 0.8473365
vn -0.5310563 0 0.8473365
vn 0.8473343 0 0.5310599
vn 0.8473343 0 0.5310599
vn 0.8473343 0 0.5310599
vn 0.8473343 0 0.5310599
vn 0.8472753 0 0.5311541
vn 0.8472753 0 0.5311541
vn 0.8472753 0 0.5311541
vn 0.8472753 0 0.5311541
vn 0.8474447 0 0.5308836
vn 0.8474447 0 0.5308836
vn 0.8474447 0 0.5308836
vn 0.8474448 0 0.5308836
vn 0.8474448 0 0.5308836
vn 0.8474448 0 0.5308836
vn 0.8474448 -3.353164E-10 0.5308836
vn 0.8474448 -3.353164E-10 0.5308836
vn 0.8474448 -3.353164E-10 0.5308836
vn 0.5310961 0 -0.8473116
vn 0.5310961 0 -0.8473116
vn 0.5310961 0 -0.8473116
vn 0.5310961 0 -0.8473116
vn 0.5310961 0 -0.8473116
vn 0.5310961 0 -0.8473116
vn 0.5310961 -1.887401E-10 -0.8473116
vn 0.5310961 -1.887401E-10 -0.8473116
vn 0.5310961 -1.887401E-10 -0.8473116
vn -0.8472071 0 -0.5312627
vn -0.8472071 0 -0.5312627
vn -0.8472071 0 -0.5312627
vn -0.8472071 0 -0.5312627
vn -0.8472871 0 -0.5311352
vn -0.8472871 0 -0.5311352
vn -0.8472871 0 -0.5311352
vn -0.8472871 0 -0.5311352
vn -0.8472511 0 -0.5311926
vn -0.8472511 0 -0.5311926
vn -0.8472511 0 -0.5311926
vn -0.8472511 0 -0.5311926
vn -0.8470533 0 -0.531508
vn -0.8470533 0 -0.531508
vn -0.8470533 0 -0.531508
vn -0.8470533 0 -0.531508
vn -0.8470533 0 -0.531508
vn -0.8470533 0 -0.531508
vn -0.8470533 0 -0.531508
vn -0.8471984 0 -0.5312767
vn -0.8471984 0 -0.5312767
vn -0.8471984 0 -0.5312767
vn -0.8471984 0 -0.5312767
vn -0.8471984 0 -0.5312767
vn -0.8471984 0 -0.5312767
vn -0.8471984 2.313941E-12 -0.5312767
vn -0.8471984 2.313941E-12 -0.5312767
vn -0.8471984 2.313941E-12 -0.5312767
vn -0.8470533 0 -0.531508
vn -0.8470533 0 -0.531508
vn -0.8470533 0 -0.531508
vn -0.8470533 0 -0.531508
vn -0.5318246 0 0.8468545
vn -0.5318246 0 0.8468545
vn -0.5318246 0 0.8468545
vn -0.5318246 0 0.8468545
vn 0.8462722 0 0.5327507
vn 0.8462722 0 0.5327507
vn 0.8462722 0 0.5327507
vn 0.8462722 0 0.5327507
vn 0.5321254 0 -0.8466656
vn 0.5321254 0 -0.8466656
vn 0.5321254 0 -0.8466656
vn 0.5321254 0 -0.8466656
vn -0.8471367 0 -0.5313751
vn -0.8471367 0 -0.5313751
vn -0.8471367 0 -0.5313751
vn -0.8471367 0 -0.5313751
vn -0.5311101 0 0.8473028
vn -0.5311101 0 0.8473028
vn -0.5311101 0 0.8473028
vn -0.5311101 0 0.8473028
vn 0.847427 0 0.530912
vn 0.847427 0 0.530912
vn 0.847427 0 0.530912
vn 0.847427 0 0.530912
vn 0.847427 0 0.530912
vn 0.847427 0 0.530912
vn 0.847427 -2.551551E-11 0.530912
vn 0.847427 -2.551551E-11 0.530912
vn 0.847427 -2.551551E-11 0.530912
vn 0.8475934 0 0.5306463
vn 0.8475934 0 0.5306463
vn 0.8475934 0 0.5306463
vn 0.8475934 0 0.5306463
vn 0.8475934 0 0.5306463
vn 0.8475934 0 0.5306463
vn 0.8475934 -1.979573E-09 0.5306463
vn 0.8475934 -1.979573E-09 0.5306463
vn 0.8475934 -1.979573E-09 0.5306463
vn 0.531719 0 -0.8469208
vn 0.531719 0 -0.8469208
vn 0.531719 0 -0.8469208
vn 0.531719 0 -0.8469208
vn 0 -1 0
vn 0 -1 0
vn 0 -1 0
vn 0 -1 0
vn 0 -1 0
vn 0 -1 0
vn 0 -1 0
vn 0 -1 0
vn 0 -1 0
vn 0 -1 0
vn 0 -1 0
vn 0 -1 0
vn 0 -1 0
vn 0 -1 0
vn 0 -1 0
vn 0 -1 0
vn 0 -1 0

g CDNNDG02_0016510
f 1/1/1 2/2/2 3/3/3
f 3/3/3 2/2/2 4/4/4
f 5/5/5 6/6/6 7/7/7
f 8/8/8 9/9/9 10/10/10
f 11/11/11 12/12/12 13/13/13
f 14/14/14 15/15/15 16/16/16
f 17/17/17 18/18/18 19/19/19
f 20/20/20 21/21/21 22/22/22
f 23/23/23 24/24/24 25/25/25
f 26/26/26 27/27/27 28/28/28
f 29/29/29 30/30/30 31/31/31
f 32/32/32 33/33/33 34/34/34
f 35/35/35 36/36/36 37/37/37
f 38/38/38 39/39/39 40/40/40
f 41/41/41 42/42/42 43/43/43
f 44/44/44 45/45/45 46/46/46
f 47/47/47 48/48/48 49/49/49
f 50/50/50 51/51/51 52/52/52
f 53/53/53 54/54/54 55/55/55
f 56/56/56 57/57/57 58/58/58
f 59/59/59 60/60/60 61/61/61
f 62/62/62 63/63/63 64/64/64
f 65/65/65 66/66/66 67/67/67
f 68/68/68 69/69/69 70/70/70
f 71/71/71 68/68/68 70/70/70
f 72/72/72 73/73/73 74/74/74
f 75/75/75 72/72/72 74/74/74
f 76/76/76 77/77/77 78/78/78
f 79/79/79 80/80/80 81/81/81
f 82/82/82 83/83/83 84/84/84
f 85/85/85 86/86/86 87/87/87
f 88/88/88 89/89/89 90/90/90
f 88/88/88 91/91/91 89/89/89
f 92/92/92 93/93/93 94/94/94
f 95/95/95 92/92/92 94/94/94
f 96/96/96 97/97/97 98/98/98
f 99/99/99 96/96/96 98/98/98
f 100/100/100 101/101/101 102/102/102
f 103/103/103 104/104/104 105/105/105
f 106/106/106 107/107/107 108/108/108
f 109/109/109 110/110/110 111/111/111
f 112/112/112 113/113/113 114/114/114
f 115/115/115 116/116/116 117/117/117
f 118/118/118 119/119/119 120/120/120
f 119/119/119 118/118/118 121/121/121
f 122/122/122 123/123/123 124/124/124
f 123/123/123 122/122/122 125/125/125
f 126/126/126 127/127/127 128/128/128
f 127/127/127 126/126/126 129/129/129
f 130/130/130 131/131/131 132/132/132
f 133/133/133 134/134/134 135/135/135
f 134/134/134 133/133/133 136/136/136
f 137/137/137 138/138/138 139/139/139
f 140/140/140 141/141/141 142/142/142
f 143/143/143 144/144/144 145/145/145
f 146/146/146 147/147/147 148/148/148
f 146/146/146 149/149/149 147/147/147
f 150/150/150 151/151/151 152/152/152
f 150/150/150 153/153/153 151/151/151
f 154/154/154 155/155/155 156/156/156
f 156/156/156 157/157/157 154/154/154
f 158/158/158 159/159/159 160/160/160
f 161/161/161 160/160/160 159/159/159
f 162/162/162 163/163/163 164/164/164
f 164/164/164 163/163/163 165/165/165
f 166/166/166 167/167/167 168/168/168
f 168/168/168 169/169/169 166/166/166
f 170/170/170 171/171/171 172/172/172
f 173/173/173 174/174/174 175/175/175
f 176/176/176 177/177/177 178/178/178
f 179/179/179 180/180/180 181/181/181
f 182/182/182 183/183/183 184/184/184
f 185/185/185 186/186/186 187/187/187
f 188/188/188 189/189/189 190/190/190
f 191/191/191 190/190/190 189/189/189
f 192/192/192 193/193/193 194/194/194
f 193/193/193 195/195/195 194/194/194
f 196/196/196 197/197/197 198/198/198
f 196/196/196 192/192/192 197/197/197
f 194/194/194 199/199/199 200/200/200
f 200/200/200 199/199/199 201/201/201
f 192/192/192 194/194/194 197/197/197
f 195/195/195 202/202/202 199/199/199
f 195/195/195 199/199/199 194/194/194
f 203/203/203 204/204/204 199/199/199
f 202/202/202 205/205/205 203/203/203
f 203/203/203 206/206/206 204/204/204
f 205/205/205 207/207/207 203/203/203
f 203/203/203 208/208/208 206/206/206
f 202/202/202 203/203/203 199/199/199
