v 3.078763 7.065529 -10.94504
v 5.038763 7.065529 -9.931044
v 3.187763 7.065529 -11.11504
v 3.045763 7.065529 -0.5630437
v 4.928689 7.065529 -9.413643
v 4.771763 7.065529 -9.514044
v 3.078763 7.065529 -10.94504
v 4.771763 7.065529 -9.514044
v 5.038763 7.065529 -9.931044
v 3.045763 7.065529 -0.5630437
v 4.771763 7.065529 -9.514044
v 3.078763 7.065529 -10.94504
v -9.726236 7.065529 9.072956
v -5.037237 7.065529 12.07296
v 1.298763 7.065529 2.166956
v 3.045763 7.065529 -0.5630437
v 7.525763 7.065529 -7.752044
v 4.928689 7.065529 -9.413643
v 3.045763 7.065529 -0.5630437
v 7.792763 7.065529 -8.169044
v 7.525763 7.065529 -7.752044
v 4.151763 7.065529 0.1439564
v 9.535763 7.065529 -7.045043
v 7.792763 7.065529 -8.169044
v 3.045763 7.065529 -0.5630437
v -9.726236 7.065529 9.072956
v -0.2832368 7.065529 -4.911044
v 3.078763 7.065529 -10.94504
v -9.726236 7.065529 9.072956
v 0.8387632 7.065529 -4.181044
v -0.2832368 7.065529 -4.911044
v -0.2832368 7.065529 -4.911044
v 0.7877632 7.065529 -6.556044
v 3.078763 7.065529 -10.94504
v 0.8387632 7.065529 -4.181044
v 1.298763 7.065529 2.166956
v 1.909763 7.065529 -5.826044
v -9.726236 7.065529 9.072956
v 1.298763 7.065529 2.166956
v 0.8387632 7.065529 -4.181044
v 0.7877632 7.065529 -6.556044
v 1.909763 7.065529 -5.826044
v 3.078763 7.065529 -10.94504
v 1.298763 7.065529 2.166956
v 3.078763 7.065529 -10.94504
v 1.909763 7.065529 -5.826044
v 1.298763 7.065529 2.166956
v 1.934763 7.065529 1.172956
v 3.078763 7.065529 -10.94504
v 1.934763 7.065529 1.172956
v 3.045763 7.065529 -0.5630437
v 3.078763 7.065529 -10.94504
v 4.151763 7.065529 0.1439564
v 4.708763 7.065529 0.5009564
v 9.535763 7.065529 -7.045043
v 4.771763 7.906529 -9.514044
v 7.525763 7.906529 -7.752044
v 7.792763 7.906529 -8.169044
v 5.038763 7.906529 -9.931044
v 1.934763 6.962529 1.172956
v 4.151763 6.670529 0.1439564
v 3.045763 6.961529 -0.5630437
v 1.934763 6.962529 1.172956
v 2.404763 6.670529 2.874956
v 4.151763 6.670529 0.1439564
v 1.298763 6.670529 2.166956
v 2.404763 6.670529 2.874956
v 1.934763 6.962529 1.172956
v 0.7877632 7.351529 -6.556044
v 1.001763 7.890529 -5.619044
v 1.909763 7.351529 -5.826044
v 0.8387632 7.351529 -4.181044
v 1.909763 7.351529 -5.826044
v 1.001763 7.890529 -5.619044
v 0.6477632 7.890529 -5.070044
v 0.8387632 7.351529 -4.181044
v 1.001763 7.890529 -5.619044
v -0.2832368 7.351529 -4.911044
v 0.6477632 7.890529 -5.070044
v 1.001763 7.890529 -5.619044
v -0.2832368 7.351529 -4.911044
v 1.001763 7.890529 -5.619044
v 0.7877632 7.351529 -6.556044
v -0.2832368 7.351529 -4.911044
v 0.8387632 7.351529 -4.181044
v 0.6477632 7.890529 -5.070044
v 1.298763 7.065529 2.166956
v 1.934763 6.962529 1.172956
v 1.934763 7.065529 1.172956
v 1.298763 7.065529 2.166956
v 1.298763 6.670529 2.166956
v 1.934763 6.962529 1.172956
v 1.934763 6.962529 1.172956
v 3.045763 6.961529 -0.5630437
v 3.045763 7.065529 -0.5630437
v 1.934763 7.065529 1.172956
v -5.037237 7.065529 12.07296
v 1.298763 6.670529 2.166956
v 1.298763 7.065529 2.166956
v -5.037237 -7.076347 12.07296
v 1.298763 -7.076347 2.166956
v 1.298763 6.670529 2.166956
v -5.037237 7.065529 12.07296
v 3.045763 6.961529 -0.5630437
v 4.151763 6.670529 0.1439564
v 4.151763 7.065529 0.1439564
v 3.045763 7.065529 -0.5630437
v 3.045763 6.961529 -0.5630437
v 4.151763 7.065529 0.1439564
v 4.430263 -7.076347 0.3224564
v 4.708763 -7.076347 0.5009564
v 4.708763 7.065529 0.5009564
v 4.151763 7.065529 0.1439564
v 4.430263 -7.076347 0.3224564
v 4.708763 7.065529 0.5009564
v 4.151763 7.065529 0.1439564
v 4.151763 6.670529 0.1439564
v 4.430263 -7.076347 0.3224564
v 4.151763 6.670529 0.1439564
v 4.151763 -7.076347 0.1439564
v 4.430263 -7.076347 0.3224564
v 4.708763 -7.076347 0.5009564
v 9.535763 -7.076347 -7.045043
v 9.535763 7.065529 -7.045043
v 4.708763 7.065529 0.5009564
v 7.792763 7.065529 -8.169044
v 9.535763 7.065529 -7.045043
v 9.535763 -7.076347 -7.045043
v 7.792763 -7.076347 -8.169044
v 5.038763 7.065529 -9.931044
v 7.792763 7.065529 -8.169044
v 7.792763 -7.076347 -8.169044
v 5.038763 -7.076347 -9.931044
v 3.187763 7.065529 -11.11504
v 4.113263 -7.076347 -10.52304
v 3.187763 -7.076347 -11.11504
v 4.113263 -7.076347 -10.52304
v 5.038763 7.065529 -9.931044
v 5.038763 -7.076347 -9.931044
v 3.187763 7.065529 -11.11504
v 5.038763 7.065529 -9.931044
v 4.113263 -7.076347 -10.52304
v 5.038763 7.906529 -9.931044
v 7.792763 7.906529 -8.169044
v 7.792763 7.065529 -8.169044
v 5.038763 7.065529 -9.931044
v 3.078763 7.065529 -10.94504
v 3.187763 7.065529 -11.11504
v 3.187763 -7.076347 -11.11504
v 3.078763 -7.076347 -10.94504
v -9.726236 7.065529 9.072956
v 3.078763 7.065529 -10.94504
v 3.078763 -7.076347 -10.94504
v -9.726236 -7.076347 9.072956
v -9.726236 -7.076347 9.072956
v -5.037237 -7.076347 12.07296
v -5.037237 7.065529 12.07296
v -9.726236 7.065529 9.072956
v 4.928689 7.065529 -9.413643
v 7.525763 7.065529 -7.752044
v 7.525763 7.906529 -7.752044
v 4.771763 7.906529 -9.514044
v 4.771763 7.906529 -9.514044
v 4.771763 7.065529 -9.514044
v 4.928689 7.065529 -9.413643
v 7.525763 7.065529 -7.752044
v 7.792763 7.065529 -8.169044
v 7.792763 7.906529 -8.169044
v 7.525763 7.906529 -7.752044
v 4.771763 7.906529 -9.514044
v 5.038763 7.906529 -9.931044
v 5.038763 7.065529 -9.931044
v 4.771763 7.065529 -9.514044
v 2.404763 -7.076347 2.874956
v 4.151763 -7.076347 0.1439564
v 4.151763 6.670529 0.1439564
v 2.404763 6.670529 2.874956
v 1.298763 -7.076347 2.166956
v 2.404763 -7.076347 2.874956
v 2.404763 6.670529 2.874956
v 1.298763 6.670529 2.166956
v 0.7877632 7.351529 -6.556044
v 1.909763 7.351529 -5.826044
v 1.909763 7.065529 -5.826044
v 0.7877632 7.065529 -6.556044
v 0.8387632 7.065529 -4.181044
v 1.909763 7.065529 -5.826044
v 1.909763 7.351529 -5.826044
v 0.8387632 7.351529 -4.181044
v -0.2832368 7.351529 -4.911044
v 0.7877632 7.351529 -6.556044
v 0.7877632 7.065529 -6.556044
v -0.2832368 7.065529 -4.911044
v -0.2832368 7.065529 -4.911044
v 0.8387632 7.065529 -4.181044
v 0.8387632 7.351529 -4.181044
v -0.2832368 7.351529 -4.911044
v -5.037237 -7.076347 12.07296
v -9.726236 -7.076347 9.072956
v 3.078763 -7.076347 -10.94504
v 3.187763 -7.076347 -11.11504
v 4.113263 -7.076347 -10.52304
v 5.038763 -7.076347 -9.931044
v 7.792763 -7.076347 -8.169044
v 9.535763 -7.076347 -7.045043
v 4.708763 -7.076347 0.5009564
v 4.430263 -7.076347 0.3224564
v 4.151763 -7.076347 0.1439564
v 2.404763 -7.076347 2.874956
v 1.298763 -7.076347 2.166956
vt 0.698326 0.137529
vt 0.669696 0.096249
vt 0.703514 0.135372
vt 0.387337 0.131853
vt 0.654101 0.098216
vt 0.656969 0.101533
vt 0.698326 0.137529
vt 0.656969 0.101533
vt 0.669696 0.096249
vt 0.387337 0.131853
vt 0.656969 0.101533
vt 0.698326 0.137529
vt 0.087421 0.390869
vt 0.001718 0.291776
vt 0.304020 0.166419
vt 0.387337 0.131853
vt 0.606639 0.043322
vt 0.654101 0.098216
vt 0.387337 0.131853
vt 0.619367 0.038039
vt 0.606639 0.043322
vt 0.367142 0.108476
vt 0.587248 0.001190
vt 0.619367 0.038039
vt 0.387337 0.131853
vt 0.087421 0.390869
vt 0.514613 0.203572
vt 0.698326 0.137529
vt 0.087421 0.390869
vt 0.493744 0.179851
vt 0.514613 0.203572
vt 0.514613 0.203572
vt 0.564833 0.182364
vt 0.698326 0.137529
vt 0.493744 0.179851
vt 0.304020 0.166419
vt 0.543965 0.158642
vt 0.087421 0.390869
vt 0.304020 0.166419
vt 0.493744 0.179851
vt 0.564833 0.182364
vt 0.543965 0.158642
vt 0.698326 0.137529
vt 0.304020 0.166419
vt 0.698326 0.137529
vt 0.543965 0.158642
vt 0.304020 0.166419
vt 0.334356 0.153835
vt 0.698326 0.137529
vt 0.334356 0.153835
vt 0.387337 0.131853
vt 0.698326 0.137529
vt 0.367142 0.108476
vt 0.356943 0.096703
vt 0.587248 0.001190
vt 0.925429 0.813765
vt 0.876289 0.756397
vt 0.888715 0.751190
vt 0.937856 0.808558
vt 0.051350 0.999116
vt 0.083416 0.953571
vt 0.103301 0.977802
vt 0.051350 0.999116
vt 0.001718 0.987064
vt 0.083416 0.953571
vt 0.337459 0.975836
vt 0.317869 0.953571
vt 0.366930 0.963768
vt 0.396853 0.976035
vt 0.371134 0.974071
vt 0.377380 0.953571
vt 0.161512 0.973788
vt 0.209933 0.953571
vt 0.203493 0.974251
vt 0.187325 0.980935
vt 0.161512 0.973788
vt 0.203493 0.974251
vt 0.108247 0.982900
vt 0.113084 0.960781
vt 0.129203 0.953571
vt 0.108247 0.982900
vt 0.129203 0.953571
vt 0.156511 0.961104
vt 0.421209 0.976020
vt 0.400344 0.953571
vt 0.425900 0.954167
vt 0.301783 0.826395
vt 0.331854 0.813401
vt 0.331894 0.813957
vt 0.301783 0.826395
vt 0.301644 0.824258
vt 0.331854 0.813401
vt 0.331854 0.813401
vt 0.384435 0.791671
vt 0.384482 0.792229
vt 0.331894 0.813957
vt 0.001718 0.950298
vt 0.301644 0.824258
vt 0.301783 0.826395
vt 0.002026 0.872952
vt 0.296899 0.751190
vt 0.301644 0.824258
vt 0.001718 0.950298
vt 0.872131 0.786433
vt 0.851548 0.765243
vt 0.851633 0.762778
vt 0.872156 0.785787
vt 0.872131 0.786433
vt 0.851633 0.762778
vt 0.843578 0.843812
vt 0.838488 0.838120
vt 0.841269 0.751190
vt 0.851633 0.762778
vt 0.843578 0.843812
vt 0.841269 0.751190
vt 0.851633 0.762778
vt 0.851548 0.765243
vt 0.843578 0.843812
vt 0.851548 0.765243
vt 0.848669 0.849504
vt 0.843578 0.843812
vt 0.484536 0.843853
vt 0.708550 0.751190
vt 0.718272 0.823485
vt 0.490314 0.917777
vt 0.658025 0.502946
vt 0.626499 0.466441
vt 0.616839 0.394048
vt 0.647819 0.429922
vt 0.707425 0.560617
vt 0.658025 0.502946
vt 0.647819 0.429922
vt 0.696364 0.486596
vt 0.740618 0.599376
vt 0.712673 0.505641
vt 0.728983 0.524686
vt 0.712673 0.505641
vt 0.707425 0.560617
vt 0.696364 0.486596
vt 0.740618 0.599376
vt 0.707425 0.560617
vt 0.712673 0.505641
vt 0.708095 0.565101
vt 0.658643 0.507370
vt 0.658025 0.502946
vt 0.707425 0.560617
vt 0.607355 0.396346
vt 0.612499 0.394048
vt 0.603391 0.481178
vt 0.598338 0.483436
vt 0.001718 0.666360
vt 0.607355 0.396346
vt 0.598338 0.483436
vt 0.003360 0.748690
vt 0.479712 0.931321
vt 0.391513 0.834984
vt 0.388316 0.751190
vt 0.478096 0.849255
vt 0.990641 0.810155
vt 0.941581 0.756486
vt 0.942011 0.751190
vt 0.994091 0.808164
vt 0.994091 0.808164
vt 0.993605 0.813398
vt 0.990641 0.810155
vt 0.498282 0.958241
vt 0.509385 0.953571
vt 0.509934 0.957526
vt 0.498819 0.962201
vt 0.483257 0.958662
vt 0.494340 0.953571
vt 0.493889 0.958377
vt 0.482818 0.963462
vt 0.749141 0.784590
vt 0.829202 0.751190
vt 0.834913 0.822919
vt 0.753482 0.856889
vt 0.743054 0.857527
vt 0.723368 0.834904
vt 0.724860 0.751190
vt 0.744888 0.774209
vt 0.259895 0.977627
vt 0.240722 0.955056
vt 0.240550 0.953571
vt 0.259717 0.976134
vt 0.429553 0.973605
vt 0.477957 0.953571
vt 0.478137 0.955048
vt 0.429716 0.975089
vt 0.264721 0.975160
vt 0.312984 0.953571
vt 0.312851 0.955268
vt 0.264605 0.976849
vt 0.235435 0.977821
vt 0.214777 0.955273
vt 0.214880 0.953571
vt 0.235547 0.976128
vt 0.513746 0.953571
vt 0.513746 0.953571
vt 0.513746 0.953571
vt 0.513746 0.953571
vt 0.513746 0.953571
vt 0.513746 0.953571
vt 0.513746 0.953571
vt 0.513746 0.953571
vt 0.513746 0.953571
vt 0.513746 0.953571
vt 0.513746 0.953571
vt 0.513746 0.953571
vt 0.513746 0.953571
vn 0 1 0
vn 0 1 0
vn 0 1 0
vn 0 1 0
vn 0 1 0
vn 0 1 0
vn 0 1 0
vn 0 1 0
vn 0 1 0
vn 0 1 0
vn 0 1 0
vn 0 1 0
vn 0 1 0
vn 0 1 0
vn 0 1 0
vn 0 1 0
vn 0 1 0
vn 0 1 0
vn 0 1 0
vn 0 1 0
vn 0 1 0
vn 0 1 0
vn 0 1 0
vn 0 1 0
vn 0 1 0
vn 0 1 0
vn 0 1 0
vn 0 1 0
vn 0 1 0
vn 0 1 0
vn 0 1 0
vn 0 1 0
vn 0 1 0
vn 0 1 0
vn 0 1 0
vn 0 1 0
vn 0 1 0
vn 0 1 0
vn 0 1 0
vn 0 1 0
vn 0 1 0
vn 0 1 0
vn 0 1 0
vn 0 1 0
vn 0 1 0
vn 0 1 0
vn 0 1 0
vn 0 1 0
vn 0 1 0
vn 0 1 0
vn 0 1 0
vn 0 1 0
vn 0 1 0
vn 0 1 0
vn 0 1 0
vn 0 1 0
vn 0 1 0
vn 0 1 0
vn 0 1 0
vn 0.1825517 0.9762976 0.1162665
vn 0.1825517 0.9762976 0.1162665
vn 0.1825517 0.9762976 0.1162665
vn 0.1828619 0.9761549 0.1169754
vn 0.1828619 0.9761549 0.1169754
vn 0.1828619 0.9761549 0.1169754
vn -0.1295022 0.9707231 0.2023015
vn -0.1295022 0.9707231 0.2023015
vn -0.1295022 0.9707231 0.2023015
vn 0.3422456 0.7785651 -0.5260268
vn 0.3422456 0.7785651 -0.5260268
vn 0.3422456 0.7785651 -0.5260268
vn 0.5359133 0.7688017 0.3489138
vn 0.5359133 0.7688017 0.3489138
vn 0.5359133 0.7688017 0.3489138
vn 0.5402526 0.7660109 0.3483596
vn 0.5402526 0.7660109 0.3483596
vn 0.5402526 0.7660109 0.3483596
vn -0.514458 0.7907529 -0.331727
vn -0.514458 0.7907529 -0.331727
vn -0.514458 0.7907529 -0.331727
vn -0.5156251 0.7883102 -0.3357049
vn -0.5156251 0.7883102 -0.3357049
vn -0.5156251 0.7883102 -0.3357049
vn -0.3509821 0.7653759 0.5394546
vn -0.3509821 0.7653759 0.5394546
vn -0.3509821 0.7653759 0.5394546
vn 0.842333 0 0.5389575
vn 0.842333 0 0.5389575
vn 0.842333 0 0.5389575
vn 0.842333 0 0.5389575
vn 0.842333 0 0.5389575
vn 0.842333 0 0.5389575
vn 0.8422802 0 0.5390399
vn 0.8422802 0 0.5390399
vn 0.8422802 0 0.5390399
vn 0.8422802 0 0.5390399
vn 0.8424196 0 0.538822
vn 0.8424196 0 0.538822
vn 0.8424196 0 0.538822
vn 0.8424196 0 0.538822
vn 0.8424196 0 0.538822
vn 0.8424196 0 0.538822
vn 0.8424196 0 0.538822
vn -0.5385997 0 0.8425618
vn -0.5385997 0 0.8425618
vn -0.5385997 0 0.8425618
vn -0.5385997 0 0.8425618
vn -0.5385997 0 0.8425618
vn -0.5385997 0 0.8425618
vn -0.5396112 0 0.8419144
vn -0.5396112 0 0.8419144
vn -0.5396112 0 0.8419144
vn -0.5396112 2.66119E-11 0.8419144
vn -0.5396112 2.66119E-11 0.8419144
vn -0.5396112 2.66119E-11 0.8419144
vn -0.5396112 0 0.8419144
vn -0.5396112 0 0.8419144
vn -0.5396112 0 0.8419144
vn -0.5396112 0 0.8419144
vn -0.5396112 0 0.8419144
vn -0.5396112 0 0.8419144
vn 0.8423951 0 0.5388604
vn 0.8423951 0 0.5388604
vn 0.8423951 0 0.5388604
vn 0.8423951 0 0.5388604
vn 0.5419511 0 -0.84041
vn 0.5419511 0 -0.84041
vn 0.5419511 0 -0.84041
vn 0.5419511 0 -0.84041
vn 0.5389322 0 -0.8423492
vn 0.5389322 0 -0.8423492
vn 0.5389322 0 -0.8423492
vn 0.5389322 0 -0.8423492
vn 0.538847 0 -0.8424036
vn 0.538847 0 -0.8424036
vn 0.538847 0 -0.8424036
vn 0.538847 0 -0.8424036
vn 0.538847 0 -0.8424036
vn 0.538847 0 -0.8424036
vn 0.538847 2.662959E-11 -0.8424036
vn 0.538847 2.662959E-11 -0.8424036
vn 0.538847 2.662959E-11 -0.8424036
vn 0.5389322 0 -0.8423492
vn 0.5389322 0 -0.8423492
vn 0.5389322 0 -0.8423492
vn 0.5389322 0 -0.8423492
vn -0.8418214 0 -0.5397561
vn -0.8418214 0 -0.5397561
vn -0.8418214 0 -0.5397561
vn -0.8418214 0 -0.5397561
vn -0.842396 0 -0.538859
vn -0.842396 0 -0.538859
vn -0.842396 0 -0.538859
vn -0.842396 0 -0.538859
vn -0.5389314 0 0.8423497
vn -0.5389314 0 0.8423497
vn -0.5389314 0 0.8423497
vn -0.5389314 0 0.8423497
vn -0.5389322 -3.456641E-09 0.8423492
vn -0.5389322 0 0.8423492
vn -0.5389322 -3.456641E-09 0.8423492
vn -0.5389322 -6.913282E-09 0.8423492
vn -0.5389321 0 0.8423492
vn -0.5389321 0 0.8423492
vn -0.5389321 0 0.8423492
vn 0.8421614 0 0.5392256
vn 0.8421614 0 0.5392256
vn 0.8421614 0 0.5392256
vn 0.8421614 0 0.5392256
vn -0.8421614 0 -0.5392256
vn -0.8421614 0 -0.5392256
vn -0.8421614 0 -0.5392256
vn -0.8421614 0 -0.5392256
vn 0.842389 0 0.5388699
vn 0.842389 0 0.5388699
vn 0.842389 0 0.5388699
vn 0.842389 0 0.5388699
vn -0.5391401 0 0.8422161
vn -0.5391401 0 0.8422161
vn -0.5391401 0 0.8422161
vn -0.5391401 0 0.8422161
vn 0.5453559 0 -0.8382046
vn 0.5453559 0 -0.8382046
vn 0.5453559 0 -0.8382046
vn 0.5453559 0 -0.8382046
vn 0.838036 0 0.545615
vn 0.838036 0 0.545615
vn 0.838036 0 0.545615
vn 0.838036 0 0.545615
vn -0.838036 0 -0.545615
vn -0.838036 0 -0.545615
vn -0.838036 0 -0.545615
vn -0.838036 0 -0.545615
vn -0.5453559 0 0.8382046
vn -0.5453559 0 0.8382046
vn -0.5453559 0 0.8382046
vn -0.5453559 0 0.8382046
vn 0 -1 0
vn 0 -1 0
vn 0 -1 0
vn 0 -1 0
vn 0 -1 0
vn 0 -1 0
vn 0 -1 0
vn 0 -1 0
vn 0 -1 0
vn 0 -1 0
vn 0 -1 0
vn 0 -1 0
vn 0 -1 0

g CDNNDG02_0012930
f 1/1/1 2/2/2 3/3/3
f 4/4/4 5/5/5 6/6/6
f 7/7/7 8/8/8 9/9/9
f 10/10/10 11/11/11 12/12/12
f 13/13/13 14/14/14 15/15/15
f 16/16/16 17/17/17 18/18/18
f 19/19/19 20/20/20 21/21/21
f 22/22/22 24/24/24 25/25/25
f 22/22/22 23/23/23 24/24/24
f 26/26/26 27/27/27 28/28/28
f 29/29/29 30/30/30 31/31/31
f 32/32/32 33/33/33 34/34/34
f 35/35/35 36/36/36 37/37/37
f 38/38/38 39/39/39 40/40/40
f 41/41/41 42/42/42 43/43/43
f 44/44/44 45/45/45 46/46/46
f 47/47/47 48/48/48 49/49/49
f 50/50/50 51/51/51 52/52/52
f 53/53/53 54/54/54 55/55/55
f 56/56/56 57/57/57 59/59/59
f 59/59/59 57/57/57 58/58/58
f 60/60/60 61/61/61 62/62/62
f 63/63/63 64/64/64 65/65/65
f 66/66/66 67/67/67 68/68/68
f 69/69/69 70/70/70 71/71/71
f 72/72/72 73/73/73 74/74/74
f 75/75/75 76/76/76 77/77/77
f 78/78/78 79/79/79 80/80/80
f 81/81/81 82/82/82 83/83/83
f 84/84/84 85/85/85 86/86/86
f 87/87/87 88/88/88 89/89/89
f 90/90/90 91/91/91 92/92/92
f 96/96/96 93/93/93 95/95/95
f 94/94/94 95/95/95 93/93/93
f 97/97/97 98/98/98 99/99/99
f 103/103/103 100/100/100 102/102/102
f 101/101/101 102/102/102 100/100/100
f 104/104/104 105/105/105 106/106/106
f 107/107/107 108/108/108 109/109/109
f 110/110/110 111/111/111 112/112/112
f 113/113/113 114/114/114 115/115/115
f 116/116/116 117/117/117 118/118/118
f 119/119/119 120/120/120 121/121/121
f 125/125/125 122/122/122 124/124/124
f 123/123/123 124/124/124 122/122/122
f 128/128/128 129/129/129 127/127/127
f 126/126/126 127/127/127 129/129/129
f 132/132/132 133/133/133 131/131/131
f 130/130/130 131/131/131 133/133/133
f 134/134/134 135/135/135 136/136/136
f 137/137/137 138/138/138 139/139/139
f 140/140/140 141/141/141 142/142/142
f 143/143/143 145/145/145 146/146/146
f 143/143/143 144/144/144 145/145/145
f 147/147/147 148/148/148 149/149/149
f 150/150/150 147/147/147 149/149/149
f 151/151/151 153/153/153 154/154/154
f 151/151/151 152/152/152 153/153/153
f 155/155/155 157/157/157 158/158/158
f 157/157/157 155/155/155 156/156/156
f 159/159/159 161/161/161 162/162/162
f 159/159/159 160/160/160 161/161/161
f 163/163/163 164/164/164 165/165/165
f 167/167/167 168/168/168 169/169/169
f 166/166/166 167/167/167 169/169/169
f 173/173/173 170/170/170 171/171/171
f 172/172/172 173/173/173 171/171/171
f 174/174/174 176/176/176 177/177/177
f 174/174/174 175/175/175 176/176/176
f 178/178/178 180/180/180 181/181/181
f 180/180/180 178/178/178 179/179/179
f 182/182/182 184/184/184 185/185/185
f 182/182/182 183/183/183 184/184/184
f 186/186/186 188/188/188 189/189/189
f 186/186/186 187/187/187 188/188/188
f 193/193/193 190/190/190 192/192/192
f 192/192/192 190/190/190 191/191/191
f 197/197/197 194/194/194 195/195/195
f 196/196/196 197/197/197 195/195/195
f 210/210/210 199/199/199 200/200/200
f 210/210/210 200/200/200 208/208/208
f 206/206/206 207/207/207 205/205/205
f 210/210/210 198/198/198 199/199/199
f 203/203/203 208/208/208 202/202/202
f 200/200/200 201/201/201 202/202/202
f 208/208/208 200/200/200 202/202/202
f 208/208/208 209/209/209 210/210/210
f 205/205/205 208/208/208 204/204/204
f 204/204/204 208/208/208 203/203/203
f 208/208/208 205/205/205 207/207/207
