v -0.8963008 5.6927 2.859627
v -0.7733008 5.6927 8.378627
v -0.09630077 5.6927 3.338627
v -0.7733008 5.6927 8.378627
v 0.3026992 5.6927 2.672627
v -0.09630077 5.6927 3.338627
v -7.180301 5.6927 4.207627
v -0.8963008 5.6927 2.859627
v -0.4983008 5.6927 2.193627
v -7.180301 5.6927 4.207627
v -0.7733008 5.6927 8.378627
v -0.8963008 5.6927 2.859627
v -0.4983008 5.6927 2.193627
v 0.3026992 5.6927 2.672627
v 5.506699 5.6927 -3.919373
v -0.7733008 5.6927 8.378627
v 5.506699 5.6927 -3.919373
v 0.3026992 5.6927 2.672627
v -7.180301 5.6927 4.207627
v -0.4983008 5.6927 2.193627
v -0.1923008 5.6927 -6.598373
v -0.4983008 5.6927 2.193627
v 5.506699 5.6927 -3.919373
v -0.1923008 5.6927 -6.598373
v -0.1923008 5.6927 -6.598373
v 2.438699 5.6927 -7.372373
v 1.253699 5.6927 -8.834373
v 1.253699 5.6927 -8.834373
v 2.438699 5.6927 -7.372373
v 2.755699 5.6927 -7.863373
v -0.7733008 5.6927 8.378627
v 6.669699 5.6927 -3.167373
v 5.506699 5.6927 -3.919373
v -0.1923008 5.6927 -6.598373
v 5.506699 5.6927 -3.919373
v 2.438699 5.6927 -7.372373
v 2.438699 5.6927 -7.372373
v 5.506699 5.6927 -3.919373
v 6.176699 5.6927 -4.955373
v -0.3383008 6.214701 2.782627
v -0.09630077 5.8247 3.338627
v 0.3026992 5.8247 2.672627
v -0.4983008 5.8257 2.193627
v -0.3383008 6.214701 2.782627
v 0.3026992 5.8247 2.672627
v -0.8963008 5.8247 2.859627
v -0.09630077 5.8247 3.338627
v -0.3383008 6.214701 2.782627
v -0.8963008 5.8247 2.859627
v -0.3383008 6.214701 2.782627
v -0.4983008 5.8257 2.193627
v -0.1923008 5.6927 -6.598373
v 1.253699 5.6927 -8.834373
v 1.253699 -5.694415 -8.834373
v -0.1923008 -5.694415 -6.598373
v -7.180301 5.6927 4.207627
v -0.1923008 5.6927 -6.598373
v -0.1923008 -5.694415 -6.598373
v -7.180301 -5.694415 4.207627
v -3.976801 -5.694415 6.293127
v -0.7733008 -5.694415 8.378627
v -0.7733008 5.6927 8.378627
v -7.180301 5.6927 4.207627
v -7.180301 -5.694415 4.207627
v -3.976801 -5.694415 6.293127
v -7.180301 5.6927 4.207627
v -3.976801 -5.694415 6.293127
v -0.7733008 5.6927 8.378627
v -0.7733008 -5.694415 8.378627
v 6.669699 -5.694415 -3.167373
v 6.669699 5.6927 -3.167373
v -0.7733008 5.6927 8.378627
v 5.506699 5.6927 -3.919373
v 6.669699 5.6927 -3.167373
v 6.669699 -5.694415 -3.167373
v 5.506699 -5.694415 -3.919373
v 5.506699 -5.694415 -3.919373
v 6.176699 -5.694415 -4.955373
v 6.176699 5.6927 -4.955373
v 5.506699 5.6927 -3.919373
v 2.438699 5.6927 -7.372373
v 4.307699 -5.694415 -6.163873
v 2.438699 -5.694415 -7.372373
v 4.307699 -5.694415 -6.163873
v 6.176699 5.6927 -4.955373
v 6.176699 -5.694415 -4.955373
v 2.438699 5.6927 -7.372373
v 6.176699 5.6927 -4.955373
v 4.307699 -5.694415 -6.163873
v 2.438699 -5.694415 -7.372373
v 2.755699 -5.694415 -7.863373
v 2.755699 5.6927 -7.863373
v 2.438699 5.6927 -7.372373
v 1.253699 5.6927 -8.834373
v 2.755699 5.6927 -7.863373
v 2.755699 -5.694415 -7.863373
v 1.253699 -5.694415 -8.834373
v -0.09630077 5.6927 3.338627
v 0.3026992 5.6927 2.672627
v 0.3026992 5.8247 2.672627
v -0.09630077 5.8247 3.338627
v -0.4983008 5.8257 2.193627
v 0.3026992 5.8247 2.672627
v 0.3026992 5.6927 2.672627
v -0.4983008 5.6927 2.193627
v -0.8963008 5.6927 2.859627
v -0.09630077 5.6927 3.338627
v -0.09630077 5.8247 3.338627
v -0.8963008 5.8247 2.859627
v -0.8963008 5.8247 2.859627
v -0.4983008 5.8257 2.193627
v -0.4983008 5.6927 2.193627
v -0.8963008 5.6927 2.859627
v 1.253699 -5.694415 -8.834373
v 2.755699 -5.694415 -7.863373
v 2.438699 -5.694415 -7.372373
v 4.307699 -5.694415 -6.163873
v 6.176699 -5.694415 -4.955373
v 5.506699 -5.694415 -3.919373
v 6.669699 -5.694415 -3.167373
v -0.7733008 -5.694415 8.378627
v -3.976801 -5.694415 6.293127
v -7.180301 -5.694415 4.207627
v -0.1923008 -5.694415 -6.598373
vt 0.207378 0.209973
vt 0.002123 0.206333
vt 0.189587 0.187888
vt 0.002123 0.206333
vt 0.214369 0.176914
vt 0.189587 0.187888
vt 0.157059 0.383209
vt 0.207378 0.209973
vt 0.232160 0.199026
vt 0.157059 0.383209
vt 0.002123 0.206333
vt 0.207378 0.209973
vt 0.232160 0.199026
vt 0.214369 0.176914
vt 0.459700 0.033685
vt 0.002123 0.206333
vt 0.459700 0.033685
vt 0.214369 0.176914
vt 0.157059 0.383209
vt 0.232160 0.199026
vt 0.559160 0.190982
vt 0.232160 0.199026
vt 0.459700 0.033685
vt 0.559160 0.190982
vt 0.559160 0.190982
vt 0.588031 0.118456
vt 0.642368 0.151203
vt 0.642368 0.151203
vt 0.588031 0.118456
vt 0.606302 0.109735
vt 0.002123 0.206333
vt 0.431767 0.001575
vt 0.459700 0.033685
vt 0.559160 0.190982
vt 0.459700 0.033685
vt 0.588031 0.118456
vt 0.588031 0.118456
vt 0.459700 0.033685
vt 0.498253 0.015252
vt 0.577495 0.922835
vt 0.602850 0.930902
vt 0.580339 0.940991
vt 0.498275 0.943437
vt 0.475584 0.941494
vt 0.481763 0.922835
vt 0.556987 0.922835
vt 0.573189 0.943179
vt 0.547771 0.940358
vt 0.607219 0.937567
vt 0.607260 0.922835
vt 0.630007 0.927571
vt 0.404033 0.707411
vt 0.487202 0.667717
vt 0.562623 0.689880
vt 0.480629 0.729014
vt 0.002123 0.899231
vt 0.404033 0.707411
vt 0.480629 0.729014
vt 0.084397 0.918121
vt 0.278704 0.473438
vt 0.353622 0.559471
vt 0.154088 0.663736
vt 0.002123 0.489234
vt 0.203784 0.387402
vt 0.278704 0.473438
vt 0.002123 0.489234
vt 0.278704 0.473438
vt 0.154088 0.663736
vt 0.978118 0.450000
vt 0.562804 0.649747
vt 0.358811 0.589970
vt 0.779976 0.387402
vt 0.874835 0.760729
vt 0.847134 0.729223
vt 0.922252 0.667717
vt 0.949561 0.698778
vt 0.243008 0.982199
vt 0.205942 0.999924
vt 0.002123 0.940811
vt 0.039711 0.922835
vt 0.656562 0.831822
vt 0.685825 0.717986
vt 0.730032 0.768255
vt 0.685825 0.717986
vt 0.566879 0.729845
vt 0.641617 0.667717
vt 0.656562 0.831822
vt 0.566879 0.729845
vt 0.685825 0.717986
vt 0.471111 0.983199
vt 0.453557 0.991567
vt 0.248408 0.931321
vt 0.266209 0.922835
vt 0.770401 0.771557
vt 0.734607 0.730809
vt 0.807348 0.667717
vt 0.842636 0.707890
vt 0.659516 0.923480
vt 0.637009 0.933042
vt 0.634820 0.932398
vt 0.657330 0.922835
vt 0.542551 0.944150
vt 0.526539 0.923548
vt 0.527372 0.922835
vt 0.543388 0.943428
vt 0.505339 0.922835
vt 0.521133 0.943280
vt 0.518981 0.944433
vt 0.503185 0.923985
vt 0.664544 0.932455
vt 0.687492 0.922835
vt 0.688383 0.923059
vt 0.665432 0.932676
vt 0.694268 0.922835
vt 0.694268 0.922835
vt 0.694268 0.922835
vt 0.694268 0.922835
vt 0.694268 0.922835
vt 0.694268 0.922835
vt 0.694268 0.922835
vt 0.694268 0.922835
vt 0.694268 0.922835
vt 0.694268 0.922835
vt 0.694268 0.922835
vn 0 1 0
vn 0 1 0
vn 0 1 0
vn 0 1 0
vn 0 1 0
vn 0 1 0
vn 0 1 0
vn 0 1 0
vn 0 1 0
vn 0 1 0
vn 0 1 0
vn 0 1 0
vn 0 1 0
vn 0 1 0
vn 0 1 0
vn 0 1 0
vn 0 1 0
vn 0 1 0
vn 0 1 0
vn 0 1 0
vn 0 1 0
vn 0 1 0
vn 0 1 0
vn 0 1 0
vn 0 1 0
vn 0 1 0
vn 0 1 0
vn 0 1 0
vn 0 1 0
vn 0 1 0
vn 0 1 0
vn 0 1 0
vn 0 1 0
vn 0 1 0
vn 0 1 0
vn 0 1 0
vn 0 1 0
vn 0 1 0
vn 0 1 0
vn 0.5319899 0.7844793 0.3187147
vn 0.5319899 0.7844793 0.3187147
vn 0.5319899 0.7844793 0.3187147
vn 0.3481421 0.7359727 -0.5806386
vn 0.3481421 0.7359727 -0.5806386
vn 0.3481421 0.7359727 -0.5806386
vn -0.3810027 0.6707613 0.6363302
vn -0.3810027 0.6707613 0.6363302
vn -0.3810027 0.6707613 0.6363302
vn -0.5698779 0.7483473 -0.339434
vn -0.5698779 0.7483473 -0.339434
vn -0.5698779 0.7483473 -0.339434
vn -0.8397112 0 -0.5430332
vn -0.8397112 0 -0.5430332
vn -0.8397112 0 -0.5430332
vn -0.8397112 0 -0.5430332
vn -0.8397161 0 -0.5430257
vn -0.8397161 0 -0.5430257
vn -0.8397161 0 -0.5430257
vn -0.8397161 0 -0.5430257
vn -0.5455813 0 0.8380579
vn -0.5455813 0 0.8380579
vn -0.5455813 0 0.8380579
vn -0.5455813 0 0.8380579
vn -0.5455813 0 0.8380579
vn -0.5455813 0 0.8380579
vn -0.5455813 0 0.8380579
vn -0.5455813 0 0.8380579
vn -0.5455813 0 0.8380579
vn 0.8404967 0 0.5418168
vn 0.8404967 0 0.5418168
vn 0.8404967 0 0.5418168
vn 0.8404967 0 0.5418168
vn 0.5429818 0 -0.8397444
vn 0.5429818 0 -0.8397444
vn 0.5429818 0 -0.8397444
vn 0.5429818 0 -0.8397444
vn 0.8397006 0 0.5430496
vn 0.8397006 0 0.5430496
vn 0.8397006 0 0.5430496
vn 0.8397006 0 0.5430496
vn 0.5429811 0 -0.8397449
vn 0.5429811 0 -0.8397449
vn 0.5429811 0 -0.8397449
vn 0.5429811 0 -0.8397449
vn 0.5429811 0 -0.8397449
vn 0.5429811 0 -0.8397449
vn 0.5429811 3.434028E-11 -0.8397449
vn 0.5429811 3.434028E-11 -0.8397449
vn 0.5429811 3.434028E-11 -0.8397449
vn 0.8401206 0 0.5423996
vn 0.8401206 0 0.5423996
vn 0.8401206 0 0.5423996
vn 0.8401206 0 0.5423996
vn 0.5429035 0 -0.8397951
vn 0.5429035 0 -0.8397951
vn 0.5429035 0 -0.8397951
vn 0.5429035 0 -0.8397951
vn 0.8578337 0 0.5139274
vn 0.8578337 0 0.5139274
vn 0.8578337 0 0.5139274
vn 0.8578337 0 0.5139274
vn 0.5132347 0 -0.8582484
vn 0.5132347 0 -0.8582484
vn 0.5132347 0 -0.8582484
vn 0.5132347 0 -0.8582484
vn -0.513707 0 0.8579657
vn -0.513707 0 0.8579657
vn -0.513707 0 0.8579657
vn -0.513707 0 0.8579657
vn -0.8584014 0 -0.5129786
vn -0.8584014 0 -0.5129786
vn -0.8584014 0 -0.5129786
vn -0.8584014 0 -0.5129786
vn 0 -1 0
vn 0 -1 0
vn 0 -1 0
vn 0 -1 0
vn 0 -1 0
vn 0 -1 0
vn 0 -1 0
vn 0 -1 0
vn 0 -1 0
vn 0 -1 0
vn 0 -1 0

g CDNNDG02_0004540
f 1/1/1 2/2/2 3/3/3
f 4/4/4 5/5/5 6/6/6
f 7/7/7 8/8/8 9/9/9
f 10/10/10 11/11/11 12/12/12
f 13/13/13 14/14/14 15/15/15
f 16/16/16 17/17/17 18/18/18
f 19/19/19 20/20/20 21/21/21
f 22/22/22 23/23/23 24/24/24
f 25/25/25 26/26/26 27/27/27
f 28/28/28 29/29/29 30/30/30
f 31/31/31 32/32/32 33/33/33
f 34/34/34 35/35/35 36/36/36
f 37/37/37 38/38/38 39/39/39
f 40/40/40 41/41/41 42/42/42
f 43/43/43 44/44/44 45/45/45
f 46/46/46 47/47/47 48/48/48
f 49/49/49 50/50/50 51/51/51
f 52/52/52 54/54/54 55/55/55
f 52/52/52 53/53/53 54/54/54
f 57/57/57 58/58/58 59/59/59
f 56/56/56 57/57/57 59/59/59
f 60/60/60 61/61/61 62/62/62
f 63/63/63 64/64/64 65/65/65
f 66/66/66 67/67/67 68/68/68
f 69/69/69 71/71/71 72/72/72
f 69/69/69 70/70/70 71/71/71
f 75/75/75 73/73/73 74/74/74
f 73/73/73 75/75/75 76/76/76
f 78/78/78 79/79/79 77/77/77
f 77/77/77 79/79/79 80/80/80
f 81/81/81 82/82/82 83/83/83
f 84/84/84 85/85/85 86/86/86
f 87/87/87 88/88/88 89/89/89
f 91/91/91 92/92/92 90/90/90
f 90/90/90 92/92/92 93/93/93
f 96/96/96 94/94/94 95/95/95
f 94/94/94 96/96/96 97/97/97
f 98/98/98 100/100/100 101/101/101
f 98/98/98 99/99/99 100/100/100
f 103/103/103 104/104/104 105/105/105
f 102/102/102 103/103/103 105/105/105
f 107/107/107 108/108/108 109/109/109
f 106/106/106 107/107/107 109/109/109
f 113/113/113 110/110/110 112/112/112
f 112/112/112 110/110/110 111/111/111
f 122/122/122 123/123/123 124/124/124
f 119/119/119 122/122/122 124/124/124
f 119/119/119 121/121/121 122/122/122
f 124/124/124 114/114/114 116/116/116
f 114/114/114 115/115/115 116/116/116
f 119/119/119 124/124/124 117/117/117
f 116/116/116 117/117/117 124/124/124
f 120/120/120 121/121/121 119/119/119
f 117/117/117 118/118/118 119/119/119
