v -0.4641656 6.049322 -5.442554
v 0.8208343 6.049322 -4.606555
v 2.577834 6.049322 -10.11755
v -8.472166 6.049322 5.521446
v -1.838166 6.049322 -0.1225545
v -3.926166 6.049322 -1.480554
v -1.838166 6.049322 -0.1225545
v -1.160453 6.049322 5.127604
v -0.7080268 6.049322 4.431566
v -2.235166 6.049322 9.579446
v -1.160453 6.049322 5.127604
v -1.838166 6.049322 -0.1225545
v -1.838166 6.049322 -0.1225545
v -0.7080268 6.049322 4.431566
v 2.694834 6.049322 2.004446
v -2.235166 6.049322 9.579446
v 0.02968585 6.049322 4.912718
v -0.4229132 6.049322 5.607752
v -2.235166 6.049322 9.579446
v -0.4229132 6.049322 5.607752
v -1.160453 6.049322 5.127604
v -0.7080268 6.049322 4.431566
v 0.02968585 6.049322 4.912718
v 2.694834 6.049322 2.004446
v -2.235166 6.049322 9.579446
v 2.694834 6.049322 2.004446
v 0.02968585 6.049322 4.912718
v 0.7458344 6.049322 -1.384555
v 2.694834 6.049322 2.004446
v 1.372834 6.049322 -0.9935545
v -1.267166 6.049322 -0.9985545
v 2.694834 6.049322 2.004446
v 0.7458344 6.049322 -1.384555
v -1.267166 6.049322 -0.9985545
v 0.7458344 6.049322 -1.384555
v 0.2038344 6.049322 -3.658555
v 1.372834 6.049322 -0.9935545
v 2.694834 6.049322 2.004446
v 1.374748 6.049322 -0.9966177
v 0.2038344 6.049322 -3.658555
v 0.7458344 6.049322 -1.384555
v 1.014757 6.049322 -1.815015
v -1.267166 6.049322 -0.9985545
v 0.2038344 6.049322 -3.658555
v -0.7681656 6.049322 -4.291554
v -2.422166 6.049322 -1.749555
v -1.838166 6.049322 -0.1225545
v 2.694834 6.049322 2.004446
v -1.267166 6.049322 -0.9985545
v 2.694834 6.049322 2.004446
v 2.961834 6.049322 2.179446
v 8.468834 6.049322 -6.283555
v -8.472166 6.049322 5.521446
v -2.235166 6.049322 9.579446
v -1.838166 6.049322 -0.1225545
v 0.8208343 6.049322 -4.606555
v 2.700683 6.049322 -0.6426632
v 2.954362 6.049322 -1.034088
v 0.8208343 6.049322 -4.606555
v 2.694834 6.049322 2.004446
v 2.700683 6.049322 -0.6426632
v 0.8208343 6.049322 -4.606555
v 2.954362 6.049322 -1.034088
v 3.367813 6.049322 -0.7636385
v 2.694834 6.049322 2.004446
v 3.367813 6.049322 -0.7636385
v 3.113941 6.049322 -0.3733386
v 2.694834 6.049322 2.004446
v 3.113941 6.049322 -0.3733386
v 2.700683 6.049322 -0.6426632
v 0.8208343 6.049322 -4.606555
v 3.367813 6.049322 -0.7636385
v 8.468834 6.049322 -6.283555
v 2.694834 6.049322 2.004446
v 8.468834 6.049322 -6.283555
v 3.367813 6.049322 -0.7636385
v 0.8208343 6.049322 -4.606555
v 8.468834 6.049322 -6.283555
v 2.577834 6.049322 -10.11755
v 0.2038344 6.049322 -3.658555
v 1.014757 6.049322 -1.815015
v 1.038834 6.049322 -1.853554
v 0.2038344 6.049322 -3.658555
v 1.038834 6.049322 -1.853554
v 0.8208343 6.049322 -4.606555
v 1.374748 6.049322 -0.9966177
v 2.694834 6.049322 2.004446
v 1.665834 6.049322 -1.462554
v 0.8208343 6.049322 -4.606555
v 1.038834 6.049322 -1.853554
v 1.665834 6.049322 -1.462554
v 0.8208343 6.049322 -4.606555
v 1.665834 6.049322 -1.462554
v 2.694834 6.049322 2.004446
v 3.012834 6.317322 -0.6925545
v 3.113941 6.049322 -0.3733386
v 3.367813 6.049322 -0.7636385
v 2.954362 6.049322 -1.034088
v 3.012834 6.317322 -0.6925545
v 3.367813 6.049322 -0.7636385
v 2.700683 6.049322 -0.6426632
v 3.113941 6.049322 -0.3733386
v 3.012834 6.317322 -0.6925545
v 2.700683 6.049322 -0.6426632
v 3.012834 6.317322 -0.6925545
v 2.954362 6.049322 -1.034088
v -0.6031656 6.526322 5.039445
v -0.4229132 6.049322 5.607752
v 0.02968585 6.049322 4.912718
v -0.7080268 6.049322 4.431566
v -0.6031656 6.526322 5.039445
v 0.02968585 6.049322 4.912718
v -1.160453 6.049322 5.127604
v -0.4229132 6.049322 5.607752
v -0.6031656 6.526322 5.039445
v -1.160453 6.049322 5.127604
v -0.6031656 6.526322 5.039445
v -0.7080268 6.049322 4.431566
v 0.7458344 6.513322 -1.384555
v 1.372834 6.513322 -0.9935545
v 1.665834 6.513322 -1.462554
v 1.038834 6.513322 -1.853554
v -8.591166 7.032322 5.724445
v -2.235166 7.032322 9.579446
v -8.472166 7.032322 5.521446
v -8.591166 7.032322 5.724445
v -2.363166 7.033322 9.776445
v -2.235166 7.032322 9.579446
v -1.838166 6.049322 -0.1225545
v -1.267166 6.049322 -0.9985545
v -1.267166 -6.065573 -0.9985545
v -1.838166 -6.065573 -0.1225545
v -3.926166 6.049322 -1.480554
v -1.838166 6.049322 -0.1225545
v -1.838166 -6.065573 -0.1225545
v -3.926166 -6.065573 -1.480554
v -8.472166 6.049322 5.521446
v -3.926166 6.049322 -1.480554
v -3.926166 -6.065573 -1.480554
v -8.472166 -6.065573 5.521446
v -8.591166 7.032322 5.724445
v -8.472166 6.049322 5.521446
v -8.472166 -6.065573 5.521446
v -8.591166 -6.065573 5.724445
v -8.591166 7.032322 5.724445
v -8.472166 7.032322 5.521446
v -8.472166 6.049322 5.521446
v -2.235166 -6.065573 9.579446
v 2.694834 -6.065573 2.004446
v 2.694834 6.049322 2.004446
v -2.235166 6.049322 9.579446
v -2.363166 7.033322 9.776445
v -2.235166 6.049322 9.579446
v -2.235166 7.032322 9.579446
v -2.363166 -6.065573 9.776445
v -2.235166 -6.065573 9.579446
v -2.235166 6.049322 9.579446
v -2.363166 7.033322 9.776445
v 2.694834 -6.065573 2.004446
v 2.961834 -6.065573 2.179446
v 2.961834 6.049322 2.179446
v 2.694834 6.049322 2.004446
v 2.961834 -6.065573 2.179446
v 8.468834 -6.065573 -6.283555
v 8.468834 6.049322 -6.283555
v 2.961834 6.049322 2.179446
v 2.577834 6.049322 -10.11755
v 5.523335 -6.065573 -8.200555
v 2.577834 -6.065573 -10.11755
v 5.523335 -6.065573 -8.200555
v 8.468834 6.049322 -6.283555
v 8.468834 -6.065573 -6.283555
v 2.577834 6.049322 -10.11755
v 8.468834 6.049322 -6.283555
v 5.523335 -6.065573 -8.200555
v -0.4641656 6.049322 -5.442554
v 2.577834 6.049322 -10.11755
v 2.577834 -6.065573 -10.11755
v -0.4641656 -6.065573 -5.442554
v 0.1783344 -6.065573 -5.024554
v 0.8208343 -6.065573 -4.606555
v 0.8208343 6.049322 -4.606555
v -0.4641656 6.049322 -5.442554
v -0.4641656 -6.065573 -5.442554
v 0.1783344 -6.065573 -5.024554
v -0.4641656 6.049322 -5.442554
v 0.1783344 -6.065573 -5.024554
v 0.8208343 6.049322 -4.606555
v 0.2038344 6.049322 -3.658555
v 0.5123343 -6.065573 -4.132555
v 0.2038344 -6.065573 -3.658555
v 0.5123343 -6.065573 -4.132555
v 0.8208343 6.049322 -4.606555
v 0.8208343 -6.065573 -4.606555
v 0.2038344 6.049322 -3.658555
v 0.8208343 6.049322 -4.606555
v 0.5123343 -6.065573 -4.132555
v -0.7681656 6.049322 -4.291554
v 0.2038344 6.049322 -3.658555
v 0.2038344 -6.065573 -3.658555
v -0.7681656 -6.065573 -4.291554
v -2.422166 6.049322 -1.749555
v -1.595166 -6.065573 -3.020555
v -2.422166 -6.065573 -1.749555
v -1.595166 -6.065573 -3.020555
v -0.7681656 6.049322 -4.291554
v -0.7681656 -6.065573 -4.291554
v -2.422166 6.049322 -1.749555
v -0.7681656 6.049322 -4.291554
v -1.595166 -6.065573 -3.020555
v -1.844666 -6.065573 -1.374054
v -1.267166 -6.065573 -0.9985545
v -1.267166 6.049322 -0.9985545
v -2.422166 6.049322 -1.749555
v -2.422166 -6.065573 -1.749555
v -1.844666 -6.065573 -1.374054
v -2.422166 6.049322 -1.749555
v -1.844666 -6.065573 -1.374054
v -1.267166 6.049322 -0.9985545
v 0.7458344 6.049322 -1.384555
v 1.372834 6.049322 -0.9935545
v 1.372834 6.513322 -0.9935545
v 0.7458344 6.513322 -1.384555
v 1.374748 6.049322 -0.9966177
v 1.665834 6.049322 -1.462554
v 1.665834 6.513322 -1.462554
v 1.372834 6.513322 -0.9935545
v 1.372834 6.513322 -0.9935545
v 1.372834 6.049322 -0.9935545
v 1.374748 6.049322 -0.9966177
v 1.038834 6.513322 -1.853554
v 1.665834 6.513322 -1.462554
v 1.665834 6.049322 -1.462554
v 1.038834 6.049322 -1.853554
v 0.7458344 6.513322 -1.384555
v 1.038834 6.513322 -1.853554
v 1.014757 6.049322 -1.815015
v 0.7458344 6.049322 -1.384555
v 1.014757 6.049322 -1.815015
v 1.038834 6.513322 -1.853554
v 1.038834 6.049322 -1.853554
v -8.591166 -6.065573 5.724445
v -2.363166 -6.065573 9.776445
v -2.363166 7.033322 9.776445
v -8.591166 7.032322 5.724445
v -8.472166 7.032322 5.521446
v -2.235166 7.032322 9.579446
v -2.235166 6.049322 9.579446
v -8.472166 6.049322 5.521446
v -1.844666 -6.065573 -1.374054
v -2.422166 -6.065573 -1.749555
v -1.595166 -6.065573 -3.020555
v -0.7681656 -6.065573 -4.291554
v 0.2038344 -6.065573 -3.658555
v 0.5123343 -6.065573 -4.132555
v 0.8208343 -6.065573 -4.606555
v 0.1783344 -6.065573 -5.024554
v -0.4641656 -6.065573 -5.442554
v 2.577834 -6.065573 -10.11755
v 5.523335 -6.065573 -8.200555
v 8.468834 -6.065573 -6.283555
v 2.961834 -6.065573 2.179446
v 2.694834 -6.065573 2.004446
v -2.235166 -6.065573 9.579446
v -2.363166 -6.065573 9.776445
v -8.591166 -6.065573 5.724445
v -8.472166 -6.065573 5.521446
v -3.926166 -6.065573 -1.480554
v -1.838166 -6.065573 -0.1225545
v -1.267166 -6.065573 -0.9985545
vt 0.575487 0.268732
vt 0.545151 0.229480
vt 0.756731 0.181697
vt 0.149466 0.499025
vt 0.371610 0.305204
vt 0.420890 0.368983
vt 0.371610 0.305204
vt 0.172712 0.280246
vt 0.199695 0.267302
vt 0.002193 0.308516
vt 0.172712 0.280246
vt 0.371610 0.305204
vt 0.371610 0.305204
vt 0.199695 0.267302
vt 0.295851 0.167461
vt 0.002193 0.308516
vt 0.182231 0.244766
vt 0.155286 0.257716
vt 0.002193 0.308516
vt 0.155286 0.257716
vt 0.172712 0.280246
vt 0.199695 0.267302
vt 0.182231 0.244766
vt 0.295851 0.167461
vt 0.002193 0.308516
vt 0.295851 0.167461
vt 0.182231 0.244766
vt 0.422531 0.228876
vt 0.295851 0.167461
vt 0.408371 0.209737
vt 0.405571 0.288866
vt 0.295851 0.167461
vt 0.422531 0.228876
vt 0.405571 0.288866
vt 0.422531 0.228876
vt 0.508398 0.247133
vt 0.408371 0.209737
vt 0.295851 0.167461
vt 0.408490 0.209683
vt 0.508398 0.247133
vt 0.422531 0.228876
vt 0.439206 0.221197
vt 0.405571 0.288866
vt 0.508398 0.247133
vt 0.531370 0.276825
vt 0.432823 0.324147
vt 0.371610 0.305204
vt 0.295851 0.167461
vt 0.405571 0.288866
vt 0.295851 0.167461
vt 0.289498 0.159303
vt 0.617601 0.001730
vt 0.149466 0.499025
vt 0.002193 0.308516
vt 0.371610 0.305204
vt 0.545151 0.229480
vt 0.396530 0.169629
vt 0.411704 0.162372
vt 0.545151 0.229480
vt 0.295851 0.167461
vt 0.396530 0.169629
vt 0.545151 0.229480
vt 0.411704 0.162372
vt 0.401887 0.149740
vt 0.295851 0.167461
vt 0.401887 0.149740
vt 0.386755 0.157004
vt 0.295851 0.167461
vt 0.386755 0.157004
vt 0.396530 0.169629
vt 0.545151 0.229480
vt 0.401887 0.149740
vt 0.617601 0.001730
vt 0.295851 0.167461
vt 0.617601 0.001730
vt 0.401887 0.149740
vt 0.545151 0.229480
vt 0.617601 0.001730
vt 0.756731 0.181697
vt 0.508398 0.247133
vt 0.439206 0.221197
vt 0.440699 0.220509
vt 0.508398 0.247133
vt 0.440699 0.220509
vt 0.545151 0.229480
vt 0.408490 0.209683
vt 0.295851 0.167461
vt 0.426539 0.201371
vt 0.545151 0.229480
vt 0.440699 0.220509
vt 0.426539 0.201371
vt 0.545151 0.229480
vt 0.426539 0.201371
vt 0.295851 0.167461
vt 0.466878 0.932017
vt 0.456140 0.928393
vt 0.469148 0.922145
vt 0.396376 0.933236
vt 0.385965 0.932222
vt 0.388171 0.922145
vt 0.410003 0.933150
vt 0.401316 0.922145
vt 0.411982 0.923611
vt 0.438596 0.931490
vt 0.440633 0.922145
vt 0.451529 0.924840
vt 0.345026 0.941020
vt 0.324561 0.934057
vt 0.349505 0.922145
vt 0.254983 0.943144
vt 0.234649 0.941265
vt 0.239060 0.922145
vt 0.277860 0.942864
vt 0.260965 0.922145
vt 0.281560 0.924967
vt 0.355263 0.939918
vt 0.359020 0.922145
vt 0.380028 0.927236
vt 0.212823 0.948036
vt 0.199561 0.930021
vt 0.216578 0.922145
vt 0.229839 0.940160
vt 0.147774 0.917997
vt 0.009752 0.724913
vt 0.155550 0.914625
vt 0.147774 0.917997
vt 0.002193 0.728564
vt 0.009752 0.724913
vt 0.085669 0.939218
vt 0.118084 0.922145
vt 0.097717 0.980494
vt 0.065789 0.997309
vt 0.879036 0.829563
vt 0.831158 0.766594
vt 0.811404 0.724913
vt 0.858570 0.786946
vt 0.193818 0.641255
vt 0.461706 0.503460
vt 0.440368 0.561407
vt 0.176510 0.697127
vt 0.187469 0.640259
vt 0.193818 0.641255
vt 0.176510 0.697127
vt 0.168860 0.700680
vt 0.187469 0.640259
vt 0.195246 0.636646
vt 0.193818 0.641255
vt 0.167580 0.863086
vt 0.455706 0.724913
vt 0.474835 0.764856
vt 0.182357 0.905114
vt 0.175962 0.912229
vt 0.182357 0.905114
vt 0.183576 0.908580
vt 0.160088 0.866673
vt 0.167580 0.863086
vt 0.182357 0.905114
vt 0.175962 0.912229
vt 0.177168 0.990063
vt 0.171053 0.982255
vt 0.188805 0.922145
vt 0.195014 0.930073
vt 0.467105 0.657863
vt 0.789225 0.503460
vt 0.813137 0.540964
vt 0.486152 0.697698
vt 0.163609 0.720168
vt 0.070007 0.591715
vt 0.137819 0.679965
vt 0.070007 0.591715
vt 0.025935 0.540998
vt 0.002193 0.503460
vt 0.163609 0.720168
vt 0.025935 0.540998
vt 0.070007 0.591715
vt 0.503805 0.816893
vt 0.682101 0.724913
vt 0.655876 0.785672
vt 0.480263 0.876266
vt 0.899094 0.803432
vt 0.883772 0.784505
vt 0.906184 0.724913
vt 0.937296 0.763346
vt 0.914416 0.822358
vt 0.899094 0.803432
vt 0.937296 0.763346
vt 0.899094 0.803432
vt 0.906184 0.724913
vt 0.024139 0.940603
vt 0.019547 0.990554
vt 0.002193 0.999643
vt 0.019547 0.990554
vt 0.059377 0.922145
vt 0.036900 0.981464
vt 0.024139 0.940603
vt 0.059377 0.922145
vt 0.019547 0.990554
vt 0.166113 0.991741
vt 0.144171 0.962655
vt 0.122807 0.922145
vt 0.144422 0.950799
vt 0.709855 0.774701
vt 0.735974 0.808403
vt 0.688596 0.832922
vt 0.735974 0.808403
vt 0.806059 0.724913
vt 0.783352 0.783885
vt 0.709855 0.774701
vt 0.806059 0.724913
vt 0.735974 0.808403
vt 0.956675 0.800499
vt 0.942982 0.783503
vt 0.963276 0.724913
vt 0.991079 0.759424
vt 0.970368 0.817494
vt 0.956675 0.800499
vt 0.991079 0.759424
vt 0.956675 0.800499
vt 0.963276 0.724913
vt 0.318068 0.941947
vt 0.304825 0.924332
vt 0.305547 0.922145
vt 0.318798 0.939771
vt 0.473790 0.929096
vt 0.489881 0.922145
vt 0.490614 0.923468
vt 0.474408 0.930469
vt 0.474408 0.930469
vt 0.473684 0.929142
vt 0.473790 0.929096
vt 0.300167 0.941349
vt 0.287988 0.923611
vt 0.287281 0.922145
vt 0.299453 0.939873
vt 0.417408 0.929831
vt 0.433488 0.922145
vt 0.431417 0.924802
vt 0.416667 0.931852
vt 0.431417 0.924802
vt 0.433488 0.922145
vt 0.432737 0.924171
vt 0.915683 0.250715
vt 0.763158 0.065334
vt 0.779149 0.001730
vt 0.934194 0.190184
vt 0.964898 0.696638
vt 0.819191 0.506927
vt 0.817982 0.503460
vt 0.963510 0.692939
vt 0.495614 0.922145
vt 0.495614 0.922145
vt 0.495614 0.922145
vt 0.495614 0.922145
vt 0.495614 0.922145
vt 0.495614 0.922145
vt 0.495614 0.922145
vt 0.495614 0.922145
vt 0.495614 0.922145
vt 0.495614 0.922145
vt 0.495614 0.922145
vt 0.495614 0.922145
vt 0.495614 0.922145
vt 0.495614 0.922145
vt 0.495614 0.922145
vt 0.495614 0.922145
vt 0.495614 0.922145
vt 0.495614 0.922145
vt 0.495614 0.922145
vt 0.495614 0.922145
vt 0.495614 0.922145
vn 0 1 0
vn 0 1 0
vn 0 1 0
vn 0 1 0
vn 0 1 0
vn 0 1 0
vn 0 1 0
vn 0 1 0
vn 0 1 0
vn 0 1 0
vn 0 1 0
vn 0 1 0
vn 0 1 0
vn 0 1 0
vn 0 1 0
vn 0 1 0
vn 0 1 0
vn 0 1 0
vn 0 1 0
vn 0 1 0
vn 0 1 0
vn 0 1 0
vn 0 1 0
vn 0 1 0
vn 0 1 0
vn 0 1 0
vn 0 1 0
vn 0 1 0
vn 0 1 0
vn 0 1 0
vn 0 1 0
vn 0 1 0
vn 0 1 0
vn 0 1 0
vn 0 1 0
vn 0 1 0
vn 0 1 0
vn 0 1 0
vn 0 1 0
vn 0 1 0
vn 0 1 0
vn 0 1 0
vn 0 1 0
vn 0 1 0
vn 0 1 0
vn 0 1 0
vn 0 1 0
vn 0 1 0
vn 0 1 0
vn 0 1 0
vn 0 1 0
vn 0 1 0
vn 0 1 0
vn 0 1 0
vn 0 1 0
vn 0 1 0
vn 0 1 0
vn 0 1 0
vn 0 1 0
vn 0 1 0
vn 0 1 0
vn 0 1 0
vn 0 1 0
vn 0 1 0
vn 0 1 0
vn 0 1 0
vn 0 1 0
vn 0 1 0
vn 0 1 0
vn 0 1 0
vn 0 1 0
vn 0 1 0
vn 0 1 0
vn 0 1 0
vn 0 1 0
vn 0 1 0
vn 0 1 0
vn 0 1 0
vn 0 1 0
vn 0 1 0
vn 0 1 0
vn 0 1 0
vn 0 1 0
vn 0 1 0
vn 0 1 0
vn 0 1 0
vn 0 1 0
vn 0 1 0
vn 0 1 0
vn 0 1 0
vn 0 1 0
vn 0 1 0
vn 0 1 0
vn 0 1 0
vn 0.6029961 0.6946646 0.3922203
vn 0.6029961 0.6946646 0.3922203
vn 0.6029961 0.6946646 0.3922203
vn 0.3974612 0.6876206 -0.6076204
vn 0.3974612 0.6876206 -0.6076204
vn 0.3974612 0.6876206 -0.6076204
vn -0.4280345 0.6208194 0.6567874
vn -0.4280345 0.6208194 0.6567874
vn -0.4280345 0.6208194 0.6567874
vn -0.6311748 0.6590066 -0.4090583
vn -0.6311748 0.6590066 -0.4090583
vn -0.6311748 0.6590066 -0.4090583
vn 0.6024607 0.6950752 0.3923158
vn 0.6024607 0.6950752 0.3923158
vn 0.6024607 0.6950752 0.3923158
vn 0.3965949 0.6877248 -0.6080683
vn 0.3965949 0.6877248 -0.6080683
vn 0.3965949 0.6877248 -0.6080683
vn -0.4276312 0.6210104 0.6568696
vn -0.4276312 0.6210104 0.6568696
vn -0.4276312 0.6210104 0.6568696
vn -0.6297917 0.6601378 -0.4093659
vn -0.6297917 0.6601378 -0.4093659
vn -0.6297917 0.6601378 -0.4093659
vn 0 1 0
vn 0 1 0
vn 0 1 0
vn 0 1 0
vn 0 1 0
vn 0 1 0
vn 0 1 0
vn 0.002208425 0.9999909 -0.00364118
vn 0.002208425 0.9999909 -0.00364118
vn 0.002208425 0.9999909 -0.00364118
vn -0.8377438 0 -0.5460635
vn -0.8377438 0 -0.5460635
vn -0.8377438 0 -0.5460635
vn -0.8377438 0 -0.5460635
vn 0.5452141 0 -0.8382968
vn 0.5452141 0 -0.8382968
vn 0.5452141 0 -0.8382968
vn 0.5452141 0 -0.8382968
vn -0.8387336 0 -0.544542
vn -0.8387336 0 -0.544542
vn -0.8387336 0 -0.544542
vn -0.8387336 0 -0.544542
vn -0.862698 0 -0.5057195
vn -0.862698 0 -0.5057195
vn -0.862698 0 -0.5057195
vn -0.862698 0 -0.5057195
vn -0.862698 0 -0.5057195
vn -0.862698 0 -0.5057195
vn -0.862698 0 -0.5057195
vn 0.8381275 0 0.5454744
vn 0.8381275 0 0.5454744
vn 0.8381275 0 0.5454744
vn 0.8381275 0 0.5454744
vn 0.8385409 0 0.5448387
vn 0.8385409 0 0.5448387
vn 0.8385409 0 0.5448387
vn 0.8385409 0 0.5448387
vn 0.8385409 0 0.5448387
vn 0.8385409 0 0.5448387
vn 0.8385409 0 0.5448387
vn -0.5481774 0 0.8363621
vn -0.5481774 0 0.8363621
vn -0.5481774 0 0.8363621
vn -0.5481774 0 0.8363621
vn 0.8381697 0 0.5454095
vn 0.8381697 0 0.5454095
vn 0.8381697 0 0.5454095
vn 0.8381697 0 0.5454095
vn 0.5454733 0 -0.8381281
vn 0.5454733 0 -0.8381281
vn 0.5454733 0 -0.8381281
vn 0.5454733 0 -0.8381281
vn 0.5454733 0 -0.8381281
vn 0.5454733 0 -0.8381281
vn 0.5454733 3.09048E-11 -0.8381281
vn 0.5454733 3.09048E-11 -0.8381281
vn 0.5454733 3.09048E-11 -0.8381281
vn -0.8381773 0 -0.5453979
vn -0.8381773 0 -0.5453979
vn -0.8381773 0 -0.5453979
vn -0.8381773 0 -0.5453979
vn -0.5453323 0 0.83822
vn -0.5453323 0 0.83822
vn -0.5453323 0 0.83822
vn -0.5453323 0 0.83822
vn -0.5453323 0 0.83822
vn -0.5453323 0 0.83822
vn -0.5453323 3.221874E-11 0.83822
vn -0.5453323 3.221874E-11 0.83822
vn -0.5453323 3.221874E-11 0.83822
vn -0.8381203 0 -0.5454854
vn -0.8381203 0 -0.5454854
vn -0.8381203 0 -0.5454854
vn -0.8381203 0 -0.5454854
vn -0.8381203 0 -0.5454854
vn -0.8381203 0 -0.5454854
vn -0.8381203 -1.895344E-11 -0.5454854
vn -0.8381203 -1.895344E-11 -0.5454854
vn -0.8381203 -1.895344E-11 -0.5454854
vn 0.5457154 0 -0.8379706
vn 0.5457154 0 -0.8379706
vn 0.5457154 0 -0.8379706
vn 0.5457154 0 -0.8379706
vn -0.8381874 0 -0.5453823
vn -0.8381874 0 -0.5453823
vn -0.8381874 0 -0.5453823
vn -0.8381874 0 -0.5453823
vn -0.8381874 0 -0.5453823
vn -0.8381874 0 -0.5453823
vn -0.8381874 -2.096291E-11 -0.5453823
vn -0.8381874 -2.096291E-11 -0.5453823
vn -0.8381874 -2.096291E-11 -0.5453823
vn -0.5451159 0 0.8383607
vn -0.5451159 0 0.8383607
vn -0.5451159 0 0.8383607
vn -0.5451159 0 0.8383607
vn -0.5451159 0 0.8383607
vn -0.5451159 0 0.8383607
vn -0.5451159 -1.309544E-12 0.8383607
vn -0.5451159 -1.309544E-12 0.8383607
vn -0.5451159 -1.309544E-12 0.8383607
vn -0.5291471 0 0.8485301
vn -0.5291471 0 0.8485301
vn -0.5291471 0 0.8485301
vn -0.5291471 0 0.8485301
vn 0.8480999 -7.875317E-10 0.5298364
vn 0.8480999 0 0.5298364
vn 0.8480999 -7.875317E-10 0.5298364
vn 0.8480999 -1.575063E-09 0.5298364
vn 0.8481 0 0.5298362
vn 0.8481 0 0.5298362
vn 0.8481 0 0.5298362
vn 0.5291471 0 -0.8485301
vn 0.5291471 0 -0.8485301
vn 0.5291471 0 -0.8485301
vn 0.5291471 0 -0.8485301
vn -0.8480999 -1.984793E-09 -0.5298364
vn -0.8480999 -3.969586E-09 -0.5298364
vn -0.8480999 -1.984793E-09 -0.5298364
vn -0.8480999 0 -0.5298364
vn -0.8480999 0 -0.5298364
vn -0.8480999 0 -0.5298364
vn -0.8480999 0 -0.5298364
vn -0.5453478 0 0.8382099
vn -0.5453478 0 0.8382099
vn -0.5453478 0 0.8382099
vn -0.5453478 0 0.8382099
vn 0.5453615 0 -0.838201
vn 0.5453615 0 -0.838201
vn 0.5453615 0 -0.838201
vn 0.5453615 0 -0.838201
vn 0 -1 0
vn 0 -1 0
vn 0 -1 0
vn 0 -1 0
vn 0 -1 0
vn 0 -1 0
vn 0 -1 0
vn 0 -1 0
vn 0 -1 0
vn 0 -1 0
vn 0 -1 0
vn 0 -1 0
vn 0 -1 0
vn 0 -1 0
vn 0 -1 0
vn 0 -1 0
vn 0 -1 0
vn 0 -1 0
vn 0 -1 0
vn 0 -1 0
vn 0 -1 0

g CDNNDG02_0013440
f 1/1/1 2/2/2 3/3/3
f 4/4/4 5/5/5 6/6/6
f 7/7/7 8/8/8 9/9/9
f 10/10/10 11/11/11 12/12/12
f 13/13/13 14/14/14 15/15/15
f 16/16/16 17/17/17 18/18/18
f 19/19/19 20/20/20 21/21/21
f 22/22/22 23/23/23 24/24/24
f 25/25/25 26/26/26 27/27/27
f 28/28/28 29/29/29 30/30/30
f 31/31/31 32/32/32 33/33/33
f 34/34/34 35/35/35 36/36/36
f 37/37/37 38/38/38 39/39/39
f 40/40/40 41/41/41 42/42/42
f 44/44/44 45/45/45 46/46/46
f 43/43/43 44/44/44 46/46/46
f 47/47/47 48/48/48 49/49/49
f 50/50/50 51/51/51 52/52/52
f 53/53/53 54/54/54 55/55/55
f 56/56/56 57/57/57 58/58/58
f 59/59/59 60/60/60 61/61/61
f 62/62/62 63/63/63 64/64/64
f 65/65/65 66/66/66 67/67/67
f 68/68/68 69/69/69 70/70/70
f 71/71/71 72/72/72 73/73/73
f 74/74/74 75/75/75 76/76/76
f 77/77/77 78/78/78 79/79/79
f 80/80/80 81/81/81 82/82/82
f 83/83/83 84/84/84 85/85/85
f 86/86/86 87/87/87 88/88/88
f 89/89/89 90/90/90 91/91/91
f 92/92/92 93/93/93 94/94/94
f 95/95/95 96/96/96 97/97/97
f 98/98/98 99/99/99 100/100/100
f 101/101/101 102/102/102 103/103/103
f 104/104/104 105/105/105 106/106/106
f 107/107/107 108/108/108 109/109/109
f 110/110/110 111/111/111 112/112/112
f 113/113/113 114/114/114 115/115/115
f 116/116/116 117/117/117 118/118/118
f 120/120/120 121/121/121 122/122/122
f 119/119/119 120/120/120 122/122/122
f 123/123/123 124/124/124 125/125/125
f 126/126/126 127/127/127 128/128/128
f 129/129/129 131/131/131 132/132/132
f 129/129/129 130/130/130 131/131/131
f 133/133/133 135/135/135 136/136/136
f 133/133/133 134/134/134 135/135/135
f 137/137/137 139/139/139 140/140/140
f 137/137/137 138/138/138 139/139/139
f 144/144/144 141/141/141 142/142/142
f 142/142/142 143/143/143 144/144/144
f 145/145/145 146/146/146 147/147/147
f 148/148/148 150/150/150 151/151/151
f 148/148/148 149/149/149 150/150/150
f 152/152/152 153/153/153 154/154/154
f 156/156/156 157/157/157 155/155/155
f 155/155/155 157/157/157 158/158/158
f 159/159/159 161/161/161 162/162/162
f 161/161/161 159/159/159 160/160/160
f 166/166/166 163/163/163 165/165/165
f 164/164/164 165/165/165 163/163/163
f 167/167/167 168/168/168 169/169/169
f 170/170/170 171/171/171 172/172/172
f 173/173/173 174/174/174 175/175/175
f 176/176/176 178/178/178 179/179/179
f 176/176/176 177/177/177 178/178/178
f 180/180/180 181/181/181 182/182/182
f 183/183/183 184/184/184 185/185/185
f 186/186/186 187/187/187 188/188/188
f 189/189/189 190/190/190 191/191/191
f 192/192/192 193/193/193 194/194/194
f 195/195/195 196/196/196 197/197/197
f 200/200/200 198/198/198 199/199/199
f 198/198/198 200/200/200 201/201/201
f 202/202/202 203/203/203 204/204/204
f 205/205/205 206/206/206 207/207/207
f 208/208/208 209/209/209 210/210/210
f 211/211/211 212/212/212 213/213/213
f 214/214/214 215/215/215 216/216/216
f 217/217/217 218/218/218 219/219/219
f 220/220/220 222/222/222 223/223/223
f 222/222/222 220/220/220 221/221/221
f 227/227/227 224/224/224 226/226/226
f 225/225/225 226/226/226 224/224/224
f 228/228/228 229/229/229 230/230/230
f 234/234/234 231/231/231 233/233/233
f 232/232/232 233/233/233 231/231/231
f 235/235/235 237/237/237 238/238/238
f 235/235/235 236/236/236 237/237/237
f 239/239/239 240/240/240 241/241/241
f 245/245/245 242/242/242 243/243/243
f 244/244/244 245/245/245 243/243/243
f 249/249/249 246/246/246 248/248/248
f 247/247/247 248/248/248 246/246/246
f 270/270/270 254/254/254 263/263/263
f 266/266/266 264/264/264 265/265/265
f 256/256/256 261/261/261 263/263/263
f 251/251/251 252/252/252 250/250/250
f 252/252/252 253/253/253 254/254/254
f 261/261/261 262/262/262 263/263/263
f 254/254/254 270/270/270 252/252/252
f 261/261/261 256/256/256 260/260/260
f 256/256/256 263/263/263 255/255/255
f 257/257/257 259/259/259 256/256/256
f 258/258/258 259/259/259 257/257/257
f 270/270/270 263/263/263 269/269/269
f 270/270/270 250/250/250 252/252/252
f 260/260/260 256/256/256 259/259/259
f 269/269/269 263/263/263 264/264/264
f 255/255/255 263/263/263 254/254/254
f 269/269/269 267/267/267 268/268/268
f 269/269/269 264/264/264 267/267/267
f 264/264/264 266/266/266 267/267/267
