v -3.549842 6.895538 10.59357
v -2.287842 6.895538 11.39457
v 2.450158 6.676538 3.915573
v 3.558158 6.477539 -12.14943
v 3.980158 6.594539 -3.350427
v 9.122158 6.477539 -8.614427
v -4.003564 6.88615 9.901035
v -3.366842 6.887032 10.30557
v 2.450158 6.676538 3.915573
v -3.549842 6.895538 10.59357
v 2.450158 6.676538 3.915573
v -3.366842 6.887032 10.30557
v -8.779841 6.893538 7.269573
v 2.450158 6.676538 3.915573
v 2.167158 6.594539 -0.2224271
v -8.779841 6.893538 7.269573
v 2.167158 6.594539 -0.2224271
v 1.749158 6.594539 -1.905427
v -8.779841 6.893538 7.269573
v -4.917842 6.886141 9.320573
v 2.450158 6.676538 3.915573
v -4.917842 6.886141 9.320573
v -4.809983 6.886169 9.389047
v 2.450158 6.676538 3.915573
v -8.779841 6.893538 7.269573
v -5.099842 6.894538 9.607573
v -4.917842 6.886141 9.320573
v 2.167158 6.594539 -0.2224271
v 2.450158 6.676538 3.915573
v 4.238158 6.594539 1.093573
v -0.08184175 6.600538 -6.419427
v 2.675158 6.594539 -3.362427
v 0.2321582 6.589539 -6.914427
v 0.2321582 6.589539 -6.914427
v 2.675158 6.594539 -3.362427
v 3.980158 6.594539 -3.350427
v 3.980158 6.594539 -3.350427
v 5.261158 6.594539 -2.537427
v 9.122158 6.477539 -8.614427
v -4.809983 6.886169 9.389047
v -4.079842 6.886151 9.852573
v 2.450158 6.676538 3.915573
v -4.079842 6.886151 9.852573
v -4.003564 6.88615 9.901035
v 2.450158 6.676538 3.915573
v 0.2321582 6.589539 -6.914427
v 3.980158 6.594539 -3.350427
v 3.558158 6.477539 -12.14943
v -8.779841 6.893538 7.269573
v 1.749158 6.594539 -1.905427
v -0.08184175 6.600538 -6.419427
v -0.08184175 6.600538 -6.419427
v 1.749158 6.594539 -1.905427
v 2.675158 6.594539 -3.362427
v -5.099842 7.586538 9.607573
v -4.079842 8.363539 9.852573
v -4.917842 7.585538 9.320573
v -5.099842 7.586538 9.607573
v -4.261842 8.363539 10.14057
v -4.079842 8.363539 9.852573
v -4.261842 8.363539 10.14057
v -3.549842 7.584538 10.59357
v -3.366842 7.584538 10.30557
v -4.261842 8.363539 10.14057
v -3.366842 7.584538 10.30557
v -4.079842 8.363539 9.852573
v -2.287842 -6.680274 11.39457
v 2.450158 -6.680274 3.915573
v 2.450158 6.676538 3.915573
v -2.287842 6.895538 11.39457
v 2.450158 -6.680274 3.915573
v 4.238158 -6.680274 1.093573
v 4.238158 6.594539 1.093573
v 2.450158 6.676538 3.915573
v 2.167158 6.594539 -0.2224271
v 4.238158 6.594539 1.093573
v 4.238158 -6.680274 1.093573
v 2.167158 -6.680274 -0.2224271
v 1.749158 6.594539 -1.905427
v 2.167158 6.594539 -0.2224271
v 2.167158 -6.680274 -0.2224271
v 1.749158 -6.680274 -1.905427
v 2.212158 -6.680274 -2.633927
v 2.675158 -6.680274 -3.362427
v 2.675158 6.594539 -3.362427
v 1.749158 6.594539 -1.905427
v 1.749158 -6.680274 -1.905427
v 2.212158 -6.680274 -2.633927
v 1.749158 6.594539 -1.905427
v 2.212158 -6.680274 -2.633927
v 2.675158 6.594539 -3.362427
v 2.675158 -6.680274 -3.362427
v 3.980158 -6.680274 -3.350427
v 3.980158 6.594539 -3.350427
v 2.675158 6.594539 -3.362427
v 3.980158 -6.680274 -3.350427
v 5.261158 -6.680274 -2.537427
v 5.261158 6.594539 -2.537427
v 3.980158 6.594539 -3.350427
v 7.191658 -6.680274 -5.575927
v 9.122158 -6.680274 -8.614427
v 9.122158 6.477539 -8.614427
v 5.261158 6.594539 -2.537427
v 5.261158 -6.680274 -2.537427
v 7.191658 -6.680274 -5.575927
v 5.261158 6.594539 -2.537427
v 7.191658 -6.680274 -5.575927
v 9.122158 6.477539 -8.614427
v 3.558158 6.477539 -12.14943
v 9.122158 6.477539 -8.614427
v 9.122158 -6.680274 -8.614427
v 3.558158 -6.680274 -12.14943
v 0.2321582 6.589539 -6.914427
v 1.895158 -6.680274 -9.531927
v 0.2321582 -6.680274 -6.914427
v 1.895158 -6.680274 -9.531927
v 3.558158 6.477539 -12.14943
v 3.558158 -6.680274 -12.14943
v 0.2321582 6.589539 -6.914427
v 3.558158 6.477539 -12.14943
v 1.895158 -6.680274 -9.531927
v -0.08184175 6.600538 -6.419427
v 0.07515825 -6.680274 -6.666927
v -0.08184175 -6.680274 -6.419427
v 0.07515825 -6.680274 -6.666927
v 0.2321582 6.589539 -6.914427
v 0.2321582 -6.680274 -6.914427
v -0.08184175 6.600538 -6.419427
v 0.2321582 6.589539 -6.914427
v 0.07515825 -6.680274 -6.666927
v -8.779841 6.893538 7.269573
v -0.08184175 6.600538 -6.419427
v -0.08184175 -6.680274 -6.419427
v -8.779841 -6.680274 7.269573
v -8.779841 -6.680274 7.269573
v -5.099842 -6.680274 9.607573
v -5.099842 6.894538 9.607573
v -8.779841 6.893538 7.269573
v -5.099842 -6.680274 9.607573
v -4.261842 -6.680274 10.14057
v -4.261842 6.894538 10.14057
v -5.099842 6.894538 9.607573
v -3.905842 -6.680274 10.36707
v -3.549842 -6.680274 10.59357
v -3.549842 6.895538 10.59357
v -4.261842 6.894538 10.14057
v -4.261842 -6.680274 10.14057
v -3.905842 -6.680274 10.36707
v -4.261842 6.894538 10.14057
v -3.905842 -6.680274 10.36707
v -3.549842 6.895538 10.59357
v -3.549842 -6.680274 10.59357
v -2.287842 -6.680274 11.39457
v -2.287842 6.895538 11.39457
v -3.549842 6.895538 10.59357
v -5.099842 6.894538 9.607573
v -4.261842 6.894538 10.14057
v -4.261842 8.363539 10.14057
v -5.099842 7.586538 9.607573
v -5.099842 6.894538 9.607573
v -4.261842 8.363539 10.14057
v -4.261842 8.363539 10.14057
v -3.549842 6.895538 10.59357
v -3.549842 7.584538 10.59357
v -4.261842 8.363539 10.14057
v -4.261842 6.894538 10.14057
v -3.549842 6.895538 10.59357
v -4.917842 7.585538 9.320573
v -4.809983 6.886169 9.389047
v -4.917842 6.886141 9.320573
v -4.809983 6.886169 9.389047
v -4.079842 8.363539 9.852573
v -4.079842 6.886151 9.852573
v -4.917842 7.585538 9.320573
v -4.079842 8.363539 9.852573
v -4.809983 6.886169 9.389047
v -4.079842 8.363539 9.852573
v -4.003564 6.88615 9.901035
v -4.079842 6.886151 9.852573
v -4.079842 8.363539 9.852573
v -3.366842 6.887032 10.30557
v -4.003564 6.88615 9.901035
v -4.079842 8.363539 9.852573
v -3.366842 7.584538 10.30557
v -3.366842 6.887032 10.30557
v -5.099842 7.586538 9.607573
v -4.917842 7.585538 9.320573
v -4.917842 6.886141 9.320573
v -5.099842 6.894538 9.607573
v -3.549842 6.895538 10.59357
v -3.366842 6.887032 10.30557
v -3.366842 7.584538 10.30557
v -3.549842 7.584538 10.59357
v -3.549842 -6.680274 10.59357
v -3.905842 -6.680274 10.36707
v -4.261842 -6.680274 10.14057
v -5.099842 -6.680274 9.607573
v -8.779841 -6.680274 7.269573
v -0.08184175 -6.680274 -6.419427
v 0.07515825 -6.680274 -6.666927
v 0.2321582 -6.680274 -6.914427
v 1.895158 -6.680274 -9.531927
v 3.558158 -6.680274 -12.14943
v 9.122158 -6.680274 -8.614427
v 7.191658 -6.680274 -5.575927
v 5.261158 -6.680274 -2.537427
v 3.980158 -6.680274 -3.350427
v 2.675158 -6.680274 -3.362427
v 2.212158 -6.680274 -2.633927
v 1.749158 -6.680274 -1.905427
v 2.167158 -6.680274 -0.2224271
v 4.238158 -6.680274 1.093573
v 2.450158 -6.680274 3.915573
v -2.287842 -6.680274 11.39457
vt 0.623739 0.105831
vt 0.645486 0.131090
vt 0.440916 0.224304
vt 0.001582 0.243921
vt 0.241944 0.253666
vt 0.097517 0.355213
vt 0.604881 0.096689
vt 0.615859 0.109433
vt 0.440916 0.224304
vt 0.623739 0.105831
vt 0.440916 0.224304
vt 0.615859 0.109433
vt 0.533499 0.001149
vt 0.440916 0.224304
vt 0.328037 0.218034
vt 0.533499 0.001149
vt 0.328037 0.218034
vt 0.281962 0.209460
vt 0.533499 0.001149
vt 0.589121 0.078389
vt 0.440916 0.224304
vt 0.589121 0.078389
vt 0.590980 0.080548
vt 0.440916 0.224304
vt 0.533499 0.001149
vt 0.596974 0.074807
vt 0.589121 0.078389
vt 0.328037 0.218034
vt 0.440916 0.224304
vt 0.363755 0.259467
vt 0.158466 0.172329
vt 0.241846 0.227680
vt 0.144914 0.178506
vt 0.144914 0.178506
vt 0.241846 0.227680
vt 0.241944 0.253666
vt 0.241944 0.253666
vt 0.264010 0.279293
vt 0.097517 0.355213
vt 0.590980 0.080548
vt 0.603566 0.095162
vt 0.440916 0.224304
vt 0.603566 0.095162
vt 0.604881 0.096689
vt 0.440916 0.224304
vt 0.144914 0.178506
vt 0.241944 0.253666
vt 0.001582 0.243921
vt 0.533499 0.001149
vt 0.281962 0.209460
vt 0.158466 0.172329
vt 0.158466 0.172329
vt 0.281962 0.209460
vt 0.241846 0.227680
vt 0.820103 0.913962
vt 0.803598 0.889655
vt 0.827792 0.910374
vt 0.820103 0.913962
vt 0.795886 0.893253
vt 0.803598 0.889655
vt 0.839748 0.889655
vt 0.855989 0.907319
vt 0.848526 0.910762
vt 0.839748 0.889655
vt 0.848526 0.910762
vt 0.832278 0.893082
vt 0.367003 0.760384
vt 0.164779 0.852026
vt 0.078605 0.782853
vt 0.282808 0.688506
vt 0.164779 0.852026
vt 0.088479 0.886607
vt 0.001582 0.818439
vt 0.078605 0.782853
vt 0.037902 0.999372
vt 0.001582 0.958344
vt 0.165864 0.889655
vt 0.201588 0.930014
vt 0.497138 0.966910
vt 0.450949 0.958720
vt 0.614694 0.889655
vt 0.660127 0.897711
vt 0.427333 0.967024
vt 0.407792 0.975914
vt 0.319620 0.907730
vt 0.359347 0.889655
vt 0.446873 0.958134
vt 0.427333 0.967024
vt 0.359347 0.889655
vt 0.427333 0.967024
vt 0.319620 0.907730
vt 0.791875 0.889655
vt 0.791970 0.914315
vt 0.704211 0.917460
vt 0.704114 0.892393
vt 0.293780 0.889655
vt 0.315399 0.914598
vt 0.227674 0.990196
vt 0.205696 0.964841
vt 0.801982 0.793450
vt 0.719988 0.830701
vt 0.629747 0.764838
vt 0.795629 0.688506
vt 0.883978 0.756197
vt 0.801982 0.793450
vt 0.795629 0.688506
vt 0.801982 0.793450
vt 0.629747 0.764838
vt 0.467957 0.865921
vt 0.370253 0.755269
vt 0.529040 0.688506
vt 0.625157 0.797368
vt 0.401638 0.426297
vt 0.635995 0.469856
vt 0.564102 0.503461
vt 0.635995 0.469856
vt 0.549224 0.358621
vt 0.707890 0.436250
vt 0.401638 0.426297
vt 0.549224 0.358621
vt 0.635995 0.469856
vt 0.387676 0.432684
vt 0.557304 0.506633
vt 0.550506 0.509806
vt 0.557304 0.506633
vt 0.401638 0.426297
vt 0.564102 0.503461
vt 0.387676 0.432684
vt 0.401638 0.426297
vt 0.557304 0.506633
vt 0.001582 0.609744
vt 0.387676 0.432684
vt 0.550506 0.509806
vt 0.174556 0.685551
vt 0.797848 0.358621
vt 0.860403 0.430692
vt 0.775634 0.505060
vt 0.712025 0.431765
vt 0.860403 0.430692
vt 0.874663 0.447103
vt 0.790137 0.521749
vt 0.775634 0.505060
vt 0.880724 0.454075
vt 0.886784 0.461047
vt 0.802456 0.535934
vt 0.790137 0.521749
vt 0.874663 0.447103
vt 0.880724 0.454075
vt 0.790137 0.521749
vt 0.880724 0.454075
vt 0.802456 0.535934
vt 0.886784 0.461047
vt 0.908214 0.485762
vt 0.824250 0.561067
vt 0.802456 0.535934
vt 0.775634 0.505060
vt 0.790137 0.521749
vt 0.780818 0.529978
vt 0.771236 0.508918
vt 0.775634 0.505060
vt 0.780818 0.529978
vt 0.780818 0.529978
vt 0.802456 0.535934
vt 0.798100 0.539802
vt 0.780818 0.529978
vt 0.790137 0.521749
vt 0.802456 0.535934
vt 0.690835 0.923463
vt 0.697711 0.917614
vt 0.699537 0.919704
vt 0.697711 0.917614
vt 0.666924 0.911384
vt 0.685350 0.903466
vt 0.690835 0.923463
vt 0.666924 0.911384
vt 0.697711 0.917614
vt 0.666924 0.911384
vt 0.684057 0.901988
vt 0.685350 0.903466
vt 0.666924 0.911384
vt 0.673258 0.889655
vt 0.684057 0.901988
vt 0.666924 0.911384
vt 0.664557 0.893378
vt 0.673258 0.889655
vt 0.873418 0.892871
vt 0.880741 0.889655
vt 0.889057 0.893136
vt 0.881652 0.896312
vt 0.869981 0.892875
vt 0.863069 0.896018
vt 0.859177 0.892761
vt 0.866142 0.889655
vt 0.892405 0.889655
vt 0.892405 0.889655
vt 0.892405 0.889655
vt 0.892405 0.889655
vt 0.892405 0.889655
vt 0.892405 0.889655
vt 0.892405 0.889655
vt 0.892405 0.889655
vt 0.892405 0.889655
vt 0.892405 0.889655
vt 0.892405 0.889655
vt 0.892405 0.889655
vt 0.892405 0.889655
vt 0.892405 0.889655
vt 0.892405 0.889655
vt 0.892405 0.889655
vt 0.892405 0.889655
vt 0.892405 0.889655
vt 0.892405 0.889655
vt 0.892405 0.889655
vt 0.892405 0.889655
vn 0.01325149 0.9996942 -0.02087812
vn 0.01325149 0.9996942 -0.02087812
vn 0.01325149 0.9996942 -0.02087812
vn 0.008712375 0.999868 -0.01371306
vn 0.008712375 0.999868 -0.01371306
vn 0.008712375 0.999868 -0.01371306
vn 0.01237836 0.9996887 -0.02166243
vn 0.01237836 0.9996887 -0.02166243
vn 0.01237836 0.9996887 -0.02166243
vn 0.01237831 0.9996887 -0.02166247
vn 0.01237831 0.9996887 -0.02166247
vn 0.01237831 0.9996887 -0.02166247
vn 0.01313254 0.9996993 -0.02070852
vn 0.01313254 0.9996993 -0.02070852
vn 0.01313254 0.9996993 -0.02070852
vn 0.02333847 0.9997108 -0.005796484
vn 0.02333847 0.9997108 -0.005796484
vn 0.02333847 0.9997108 -0.005796484
vn 0.01305332 0.9996948 -0.02097345
vn 0.01305332 0.9996948 -0.02097345
vn 0.01305332 0.9996948 -0.02097345
vn 0.01305333 0.9996948 -0.02097345
vn 0.01305333 0.9996948 -0.02097345
vn 0.01305333 0.9996948 -0.02097345
vn 0.01305333 0.9996948 -0.02097346
vn 0.01305333 0.9996948 -0.02097346
vn 0.01305333 0.9996948 -0.02097346
vn 0.01316026 0.9996989 -0.02071041
vn 0.01316026 0.9996989 -0.02071041
vn 0.01316026 0.9996989 -0.02071041
vn 0.01574014 0.9998013 -0.01223315
vn 0.01574014 0.9998013 -0.01223315
vn 0.01574014 0.9998013 -0.01223315
vn 1.302635E-05 0.999999 -0.001416616
vn 1.302635E-05 0.999999 -0.001416616
vn 1.302635E-05 0.999999 -0.001416616
vn 0.00870667 0.999868 -0.01371863
vn 0.00870667 0.999868 -0.01371863
vn 0.00870667 0.999868 -0.01371863
vn 0.0132088 0.9996971 -0.02076731
vn 0.0132088 0.9996971 -0.02076731
vn 0.0132088 0.9996971 -0.02076731
vn 0.0132088 0.9996971 -0.02076731
vn 0.0132088 0.9996971 -0.02076731
vn 0.0132088 0.9996971 -0.02076731
vn 0.01184862 0.9998337 -0.01386301
vn 0.01184862 0.9998337 -0.01386301
vn 0.01184862 0.9998337 -0.01386301
vn 0.02183149 0.9997333 -0.007526597
vn 0.02183149 0.9997333 -0.007526597
vn 0.02183149 0.9997333 -0.007526597
vn 0.001276626 0.9999989 0.0008113627
vn 0.001276626 0.9999989 0.0008113627
vn 0.001276626 0.9999989 0.0008113627
vn -0.5197242 0.7870501 -0.3323235
vn -0.5197242 0.7870501 -0.3323235
vn -0.5197242 0.7870501 -0.3323235
vn -0.5208964 0.787597 -0.3291776
vn -0.5208964 0.787597 -0.3291776
vn -0.5208964 0.787597 -0.3291776
vn 0.5724934 0.7347934 0.3637719
vn 0.5724934 0.7347934 0.3637719
vn 0.5724934 0.7347934 0.3637719
vn 0.5730843 0.7351302 0.3621574
vn 0.5730843 0.7351302 0.3621574
vn 0.5730843 0.7351302 0.3621574
vn 0.8447527 0 0.5351569
vn 0.8447527 0 0.5351569
vn 0.8447527 0 0.5351569
vn 0.8447527 0 0.5351569
vn 0.8447198 0 0.5352088
vn 0.8447198 0 0.5352088
vn 0.8447198 0 0.5352088
vn 0.8447198 0 0.5352088
vn 0.5363216 0 -0.8440137
vn 0.5363216 0 -0.8440137
vn 0.5363216 0 -0.8440137
vn 0.5363216 0 -0.8440137
vn 0.9705145 0 -0.2410428
vn 0.9705145 0 -0.2410428
vn 0.9705145 0 -0.2410428
vn 0.9705145 0 -0.2410428
vn 0.8439714 0 0.5363882
vn 0.8439714 0 0.5363882
vn 0.8439714 0 0.5363882
vn 0.8439714 0 0.5363882
vn 0.8439714 0 0.5363882
vn 0.8439714 0 0.5363882
vn 0.8439714 -1.881573E-11 0.5363882
vn 0.8439714 -1.881573E-11 0.5363882
vn 0.8439714 -1.881573E-11 0.5363882
vn -0.009195013 0 0.9999577
vn -0.009195013 0 0.9999577
vn -0.009195013 0 0.9999577
vn -0.009195013 0 0.9999577
vn -0.5358515 0 0.8443122
vn -0.5358515 0 0.8443122
vn -0.5358515 0 0.8443122
vn -0.5358515 0 0.8443122
vn 0.8440502 0 0.5362642
vn 0.8440502 0 0.5362642
vn 0.8440502 0 0.5362642
vn 0.8440502 0 0.5362642
vn 0.8440502 0 0.5362642
vn 0.8440502 0 0.5362642
vn 0.8440502 0 0.5362642
vn 0.8440502 0 0.5362642
vn 0.8440502 0 0.5362642
vn 0.536257 0 -0.8440548
vn 0.536257 0 -0.8440548
vn 0.536257 0 -0.8440548
vn 0.536257 0 -0.8440548
vn -0.844053 0 -0.5362598
vn -0.844053 0 -0.5362598
vn -0.844053 0 -0.5362598
vn -0.844053 0 -0.5362598
vn -0.844053 0 -0.5362598
vn -0.844053 0 -0.5362598
vn -0.844053 1.889806E-11 -0.5362598
vn -0.844053 1.889806E-11 -0.5362598
vn -0.844053 1.889806E-11 -0.5362598
vn -0.8444333 0 -0.5356607
vn -0.8444333 0 -0.5356607
vn -0.8444333 0 -0.5356607
vn -0.8444333 0 -0.5356607
vn -0.8444333 0 -0.5356607
vn -0.8444333 0 -0.5356607
vn -0.8444333 1.87895E-11 -0.5356607
vn -0.8444333 1.87895E-11 -0.5356607
vn -0.8444333 1.87895E-11 -0.5356607
vn -0.8440294 0 -0.5362968
vn -0.8440294 0 -0.5362968
vn -0.8440294 0 -0.5362968
vn -0.8440294 0 -0.5362968
vn -0.536252 0 0.8440579
vn -0.536252 0 0.8440579
vn -0.536252 0 0.8440579
vn -0.536252 0 0.8440579
vn -0.53668 0 0.8437858
vn -0.53668 0 0.8437858
vn -0.53668 0 0.8437858
vn -0.53668 0 0.8437858
vn -0.5367988 0 0.8437103
vn -0.5367988 0 0.8437103
vn -0.5367988 0 0.8437103
vn -0.5367988 0 0.8437103
vn -0.5367988 0 0.8437103
vn -0.5367988 0 0.8437103
vn -0.5367988 1.150832E-12 0.8437103
vn -0.5367988 1.150832E-12 0.8437103
vn -0.5367988 1.150832E-12 0.8437103
vn -0.5358795 0 0.8442945
vn -0.5358795 0 0.8442945
vn -0.5358795 0 0.8442945
vn -0.5358795 0 0.8442945
vn -0.53668 0 0.8437858
vn -0.53668 0 0.8437858
vn -0.53668 0 0.8437858
vn -0.53668 0 0.8437858
vn -0.53668 0 0.8437858
vn -0.53668 0 0.8437858
vn -0.5367988 0 0.8437103
vn -0.5367988 0 0.8437103
vn -0.5367988 0 0.8437103
vn -0.5367988 0 0.8437103
vn -0.5367988 0 0.8437103
vn -0.5367988 0 0.8437103
vn 0.5359626 0 -0.8442417
vn 0.5359626 0 -0.8442417
vn 0.5359626 0 -0.8442417
vn 0.5359625 0 -0.8442417
vn 0.5359625 0 -0.8442417
vn 0.5359625 0 -0.8442417
vn 0.5359626 -5.044517E-09 -0.8442417
vn 0.5359626 -5.044517E-09 -0.8442417
vn 0.5359626 -5.044517E-09 -0.8442417
vn 0.5362625 0 -0.8440512
vn 0.5362625 0 -0.8440512
vn 0.5362625 0 -0.8440512
vn 0.5362626 1.935375E-09 -0.8440512
vn 0.5362626 1.935375E-09 -0.8440512
vn 0.5362626 1.935375E-09 -0.8440512
vn 0.5362626 0 -0.8440512
vn 0.5362626 0 -0.8440512
vn 0.5362626 0 -0.8440512
vn -0.8445086 0 -0.535542
vn -0.8445086 0 -0.535542
vn -0.8445086 0 -0.535542
vn -0.8445086 0 -0.535542
vn 0.8440233 0 0.5363065
vn 0.8440233 0 0.5363065
vn 0.8440233 0 0.5363065
vn 0.8440233 0 0.5363065
vn 0 -1 0
vn 0 -1 0
vn 0 -1 0
vn 0 -1 0
vn 0 -1 0
vn 0 -1 0
vn 0 -1 0
vn 0 -1 0
vn 0 -1 0
vn 0 -1 0
vn 0 -1 0
vn 0 -1 0
vn 0 -1 0
vn 0 -1 0
vn 0 -1 0
vn 0 -1 0
vn 0 -1 0
vn 0 -1 0
vn 0 -1 0
vn 0 -1 0
vn 0 -1 0

g CDNNDG02_0003570
f 1/1/1 2/2/2 3/3/3
f 4/4/4 5/5/5 6/6/6
f 7/7/7 8/8/8 9/9/9
f 10/10/10 11/11/11 12/12/12
f 13/13/13 14/14/14 15/15/15
f 16/16/16 17/17/17 18/18/18
f 19/19/19 20/20/20 21/21/21
f 22/22/22 23/23/23 24/24/24
f 25/25/25 26/26/26 27/27/27
f 28/28/28 29/29/29 30/30/30
f 31/31/31 32/32/32 33/33/33
f 34/34/34 35/35/35 36/36/36
f 37/37/37 38/38/38 39/39/39
f 40/40/40 41/41/41 42/42/42
f 43/43/43 44/44/44 45/45/45
f 46/46/46 47/47/47 48/48/48
f 49/49/49 50/50/50 51/51/51
f 52/52/52 53/53/53 54/54/54
f 55/55/55 56/56/56 57/57/57
f 58/58/58 59/59/59 60/60/60
f 61/61/61 62/62/62 63/63/63
f 64/64/64 65/65/65 66/66/66
f 67/67/67 69/69/69 70/70/70
f 67/67/67 68/68/68 69/69/69
f 71/71/71 73/73/73 74/74/74
f 71/71/71 72/72/72 73/73/73
f 75/75/75 77/77/77 78/78/78
f 75/75/75 76/76/76 77/77/77
f 82/82/82 79/79/79 81/81/81
f 81/81/81 79/79/79 80/80/80
f 83/83/83 84/84/84 85/85/85
f 86/86/86 87/87/87 88/88/88
f 89/89/89 90/90/90 91/91/91
f 92/92/92 94/94/94 95/95/95
f 94/94/94 92/92/92 93/93/93
f 96/96/96 98/98/98 99/99/99
f 98/98/98 96/96/96 97/97/97
f 100/100/100 101/101/101 102/102/102
f 103/103/103 104/104/104 105/105/105
f 106/106/106 107/107/107 108/108/108
f 109/109/109 111/111/111 112/112/112
f 109/109/109 110/110/110 111/111/111
f 113/113/113 114/114/114 115/115/115
f 116/116/116 117/117/117 118/118/118
f 119/119/119 120/120/120 121/121/121
f 122/122/122 123/123/123 124/124/124
f 125/125/125 126/126/126 127/127/127
f 128/128/128 129/129/129 130/130/130
f 134/134/134 132/132/132 133/133/133
f 134/134/134 131/131/131 132/132/132
f 136/136/136 137/137/137 138/138/138
f 138/138/138 135/135/135 136/136/136
f 139/139/139 141/141/141 142/142/142
f 141/141/141 139/139/139 140/140/140
f 143/143/143 144/144/144 145/145/145
f 146/146/146 147/147/147 148/148/148
f 149/149/149 150/150/150 151/151/151
f 152/152/152 154/154/154 155/155/155
f 154/154/154 152/152/152 153/153/153
f 156/156/156 157/157/157 158/158/158
f 159/159/159 160/160/160 161/161/161
f 162/162/162 163/163/163 164/164/164
f 165/165/165 166/166/166 167/167/167
f 168/168/168 169/169/169 170/170/170
f 171/171/171 172/172/172 173/173/173
f 174/174/174 175/175/175 176/176/176
f 177/177/177 178/178/178 179/179/179
f 180/180/180 181/181/181 182/182/182
f 183/183/183 184/184/184 185/185/185
f 187/187/187 188/188/188 189/189/189
f 186/186/186 187/187/187 189/189/189
f 191/191/191 192/192/192 190/190/190
f 190/190/190 192/192/192 193/193/193
f 214/214/214 194/194/194 213/213/213
f 213/213/213 194/194/194 195/195/195
f 212/212/212 213/213/213 211/211/211
f 198/198/198 213/213/213 197/197/197
f 211/211/211 213/213/213 198/198/198
f 201/201/201 208/208/208 200/200/200
f 208/208/208 199/199/199 200/200/200
f 205/205/205 206/206/206 207/207/207
f 205/205/205 207/207/207 202/202/202
f 205/205/205 202/202/202 204/204/204
f 196/196/196 213/213/213 195/195/195
f 202/202/202 203/203/203 204/204/204
f 210/210/210 198/198/198 199/199/199
f 207/207/207 201/201/201 202/202/202
f 208/208/208 201/201/201 207/207/207
f 209/209/209 210/210/210 199/199/199
f 196/196/196 197/197/197 213/213/213
f 210/210/210 211/211/211 198/198/198
f 208/208/208 209/209/209 199/199/199
