v 11.48855 4.340997 -0.1540154
v 13.93755 4.340997 1.019985
v 11.60155 4.340997 -0.3260154
v 11.48855 4.340997 -0.1540154
v 13.42555 4.340997 1.809985
v 13.93755 4.340997 1.019985
v -15.94045 4.340997 -3.223015
v -1.013449 4.340997 -8.372015
v -4.230449 4.340997 -10.30802
v 7.015551 4.340997 11.66599
v 13.42555 4.340997 1.809985
v 11.48855 4.340997 -0.1540154
v -4.230449 4.340997 -10.30802
v -1.013449 4.340997 -8.372015
v -3.897449 4.340997 -10.50102
v -1.013449 4.340997 -8.372015
v 7.015551 4.340997 11.66599
v 11.48855 4.340997 -0.1540154
v -15.94045 4.340997 -3.223015
v 7.015551 4.340997 11.66599
v -1.013449 4.340997 -8.372015
v -3.897449 4.340997 -10.50102
v -3.897449 -4.340997 -10.50102
v -4.230449 -4.340997 -10.30802
v -4.230449 4.340997 -10.30802
v -15.94045 4.340997 -3.223015
v -4.230449 -4.340997 -10.30802
v -15.94045 -4.340997 -3.223015
v -4.230449 4.340997 -10.30802
v -15.94045 4.340997 -3.223015
v -15.94045 -4.340997 -3.223015
v 7.015551 4.340997 11.66599
v 7.015551 -4.340997 11.66599
v 7.015551 4.340997 11.66599
v 7.015551 -4.340997 11.66599
v 13.42555 4.340997 1.809985
v 13.42555 -4.340997 1.809985
v 13.93755 -4.340997 1.019985
v 13.93755 4.340997 1.019985
v 13.42555 -4.340997 1.809985
v 13.42555 4.340997 1.809985
v 13.93755 -4.340997 1.019985
v 11.60155 4.340997 -0.3260154
v 13.93755 4.340997 1.019985
v 11.60155 -4.340997 -0.3260154
v 11.48855 -4.340997 -0.1540154
v 11.60155 4.340997 -0.3260154
v 11.60155 -4.340997 -0.3260154
v 11.48855 4.340997 -0.1540154
v -1.013449 4.340997 -8.372015
v 5.237551 -4.340997 -4.263015
v -1.013449 -4.340997 -8.372015
v 5.237551 -4.340997 -4.263015
v 11.48855 4.340997 -0.1540154
v 11.48855 -4.340997 -0.1540154
v -1.013449 4.340997 -8.372015
v 11.48855 4.340997 -0.1540154
v 5.237551 -4.340997 -4.263015
v -3.897449 4.340997 -10.50102
v -1.013449 -4.340997 -8.372015
v -3.897449 -4.340997 -10.50102
v -1.013449 4.340997 -8.372015
v -15.94045 -4.340997 -3.223015
v -1.013449 -4.340997 -8.372015
v 5.237551 -4.340997 -4.263015
v -4.230449 -4.340997 -10.30802
v 11.48855 -4.340997 -0.1540154
v 7.015551 -4.340997 11.66599
v -3.897449 -4.340997 -10.50102
v 11.60155 -4.340997 -0.3260154
v 13.93755 -4.340997 1.019985
v 13.42555 -4.340997 1.809985
vt 0.286784 0.047555
vt 0.257876 0.001093
vt 0.290928 0.045371
vt 0.286784 0.047555
vt 0.238842 0.010990
vt 0.257876 0.001093
vt 0.366406 0.569629
vt 0.488225 0.284328
vt 0.535729 0.345281
vt 0.001389 0.134888
vt 0.238842 0.010990
vt 0.286784 0.047555
vt 0.535729 0.345281
vt 0.488225 0.284328
vt 0.540339 0.338902
vt 0.488225 0.284328
vt 0.001389 0.134888
vt 0.286784 0.047555
vt 0.366406 0.569629
vt 0.001389 0.134888
vt 0.488225 0.284328
vt 0.430159 0.819154
vt 0.337500 0.792594
vt 0.342117 0.786512
vt 0.434825 0.813008
vt 0.605950 0.596901
vt 0.342117 0.786512
vt 0.511435 0.572678
vt 0.434825 0.813008
vt 0.967910 0.440186
vt 0.904687 0.465527
vt 0.603735 0.001093
vt 0.544444 0.031187
vt 0.666756 0.719715
vt 0.609722 0.704314
vt 0.903770 0.596491
vt 0.844185 0.582415
vt 0.862980 0.572678
vt 0.922770 0.586648
vt 0.844185 0.582415
vt 0.903770 0.596491
vt 0.470868 0.935222
vt 0.535328 0.878689
vt 0.566243 0.921855
vt 0.440278 0.892511
vt 0.573464 0.878689
vt 0.663734 0.909421
vt 0.569444 0.880670
vt 0.667796 0.907418
vt 0.144103 0.626907
vt 0.144669 0.759633
vt 0.050364 0.643441
vt 0.144669 0.759633
vt 0.334707 0.861757
vt 0.238967 0.875816
vt 0.144103 0.626907
vt 0.334707 0.861757
vt 0.144669 0.759633
vt 0.094608 0.572678
vt 0.050364 0.643441
vt 0.001389 0.589784
vt 0.144103 0.626907
vt 0.854167 0.878689
vt 0.854167 0.878689
vt 0.854167 0.878689
vt 0.854167 0.878689
vt 0.854167 0.878689
vt 0.854167 0.878689
vt 0.854167 0.878689
vt 0.854167 0.878689
vt 0.854167 0.878689
vt 0.854167 0.878689
vn 0 1 0
vn 0 1 0
vn 0 1 0
vn 0 1 0
vn 0 1 0
vn 0 1 0
vn 0 1 0
vn 0 1 0
vn 0 1 0
vn 0 1 0
vn 0 1 0
vn 0 1 0
vn 0 1 0
vn 0 1 0
vn 0 1 0
vn 0 1 0
vn 0 1 0
vn 0 1 0
vn 0 1 0
vn 0 1 0
vn 0 1 0
vn -0.5014459 0 -0.865189
vn -0.5014459 0 -0.865189
vn -0.5014459 0 -0.865189
vn -0.5014459 0 -0.865189
vn -0.5176619 0 -0.8555852
vn -0.5176619 0 -0.8555852
vn -0.5176619 0 -0.8555852
vn -0.5176619 0 -0.8555852
vn -0.5441557 0 0.8389843
vn -0.5441557 0 0.8389843
vn -0.5441557 0 0.8389843
vn -0.5441557 0 0.8389843
vn 0.8383037 0 0.5452036
vn 0.8383037 0 0.5452036
vn 0.8383037 0 0.5452036
vn 0.8383037 0 0.5452036
vn 0.8391709 0 0.5438678
vn 0.8391709 0 0.5438678
vn 0.8391709 0 0.5438678
vn 0.8391709 0 0.5438678
vn 0.4992514 0 -0.8664572
vn 0.4992514 0 -0.8664572
vn 0.4992514 0 -0.8664572
vn 0.4992514 0 -0.8664572
vn -0.8357692 0 -0.5490809
vn -0.8357692 0 -0.5490809
vn -0.8357692 0 -0.5490809
vn -0.8357692 0 -0.5490809
vn 0.5492899 0 -0.8356318
vn 0.5492899 0 -0.8356318
vn 0.5492899 0 -0.8356318
vn 0.5492899 0 -0.8356318
vn 0.5492899 0 -0.8356318
vn 0.5492899 0 -0.8356318
vn 0.5492899 4.481936E-11 -0.8356318
vn 0.5492899 4.481936E-11 -0.8356318
vn 0.5492899 4.481936E-11 -0.8356318
vn 0.5939125 0 -0.8045297
vn 0.5939125 0 -0.8045297
vn 0.5939125 0 -0.8045297
vn 0.5939125 0 -0.8045297
vn 0 -1 0
vn 0 -1 0
vn 0 -1 0
vn 0 -1 0
vn 0 -1 0
vn 0 -1 0
vn 0 -1 0
vn 0 -1 0
vn 0 -1 0
vn 0 -1 0

g CDNNDG02_0017700
f 1/1/1 2/2/2 3/3/3
f 4/4/4 5/5/5 6/6/6
f 7/7/7 8/8/8 9/9/9
f 10/10/10 11/11/11 12/12/12
f 13/13/13 14/14/14 15/15/15
f 16/16/16 17/17/17 18/18/18
f 19/19/19 20/20/20 21/21/21
f 22/22/22 23/23/23 24/24/24
f 25/25/25 22/22/22 24/24/24
f 26/26/26 27/27/27 28/28/28
f 26/26/26 29/29/29 27/27/27
f 30/30/30 31/31/31 32/32/32
f 32/32/32 31/31/31 33/33/33
f 34/34/34 35/35/35 36/36/36
f 37/37/37 36/36/36 35/35/35
f 38/38/38 39/39/39 40/40/40
f 40/40/40 39/39/39 41/41/41
f 42/42/42 43/43/43 44/44/44
f 43/43/43 42/42/42 45/45/45
f 46/46/46 47/47/47 48/48/48
f 46/46/46 49/49/49 47/47/47
f 50/50/50 51/51/51 52/52/52
f 53/53/53 54/54/54 55/55/55
f 56/56/56 57/57/57 58/58/58
f 59/59/59 60/60/60 61/61/61
f 59/59/59 62/62/62 60/60/60
f 63/63/63 64/64/64 65/65/65
f 63/63/63 66/66/66 64/64/64
f 65/65/65 67/67/67 68/68/68
f 66/66/66 69/69/69 64/64/64
f 67/67/67 70/70/70 71/71/71
f 63/63/63 65/65/65 68/68/68
f 67/67/67 71/71/71 72/72/72
f 68/68/68 67/67/67 72/72/72
