v -3.065027 5.781141 1.232694
v -2.071027 5.781141 5.513694
v 0.4439732 5.781141 3.450694
v -5.001027 5.781141 4.331694
v -2.362027 5.781141 5.979694
v -2.071027 5.781141 5.513694
v -3.065027 5.781141 1.232694
v 0.4439732 5.781141 3.450694
v 6.172973 5.781141 -2.500306
v -0.1920268 5.781141 -6.475307
v 0.4439732 5.781141 3.450694
v 1.891973 5.781141 4.355694
v 6.172973 5.781141 -2.500306
v -5.001027 5.781141 4.331694
v -2.071027 5.781141 5.513694
v -3.065027 5.781141 1.232694
v -4.461027 5.781141 0.3606937
v -3.065027 5.781141 1.232694
v -0.1920268 5.781141 -6.475307
v -2.071027 5.781141 5.513694
v -1.189027 5.781141 6.064694
v 0.4439732 5.781141 3.450694
v -5.001027 1.751141 4.331694
v -3.065027 1.751141 1.232694
v -4.461027 1.751141 0.3606937
v -6.397027 1.751141 3.459694
v -2.362027 -5.583133 5.979694
v -2.071027 -5.583133 5.513694
v -2.071027 5.781141 5.513694
v -2.362027 5.781141 5.979694
v -2.071027 -5.583133 5.513694
v -1.189027 -5.583133 6.064694
v -1.189027 5.781141 6.064694
v -2.071027 5.781141 5.513694
v -1.189027 -5.583133 6.064694
v 0.4439732 -5.583133 3.450694
v 0.4439732 5.781141 3.450694
v -1.189027 5.781141 6.064694
v 0.4439732 -5.583133 3.450694
v 1.891973 -5.583133 4.355694
v 1.891973 5.781141 4.355694
v 0.4439732 5.781141 3.450694
v 1.891973 -5.583133 4.355694
v 6.172973 -5.583133 -2.500306
v 6.172973 5.781141 -2.500306
v 1.891973 5.781141 4.355694
v -0.1920268 5.781141 -6.475307
v 6.172973 5.781141 -2.500306
v 6.172973 -5.583133 -2.500306
v -0.1920268 -5.583133 -6.475307
v -4.461027 5.781141 0.3606937
v -2.326527 -5.583133 -3.057306
v -4.461027 1.751141 0.3606937
v -4.461027 1.751141 0.3606937
v -2.326527 -5.583133 -3.057306
v -4.461027 -5.583133 0.3606937
v -2.326527 -5.583133 -3.057306
v -0.1920268 5.781141 -6.475307
v -0.1920268 -5.583133 -6.475307
v -4.461027 5.781141 0.3606937
v -0.1920268 5.781141 -6.475307
v -2.326527 -5.583133 -3.057306
v -6.397027 1.751141 3.459694
v -4.461027 1.751141 0.3606937
v -4.461027 -5.583133 0.3606937
v -6.397027 -5.583133 3.459694
v -4.461027 1.751141 0.3606937
v -3.065027 1.751141 1.232694
v -3.065027 5.781141 1.232694
v -4.461027 5.781141 0.3606937
v -5.001027 5.781141 4.331694
v -3.065027 5.781141 1.232694
v -3.065027 1.751141 1.232694
v -5.001027 1.751141 4.331694
v -5.001027 -5.583133 4.331694
v -2.362027 -5.583133 5.979694
v -2.362027 5.781141 5.979694
v -5.001027 1.751141 4.331694
v -5.001027 5.781141 4.331694
v -5.001027 1.751141 4.331694
v -2.362027 5.781141 5.979694
v -6.397027 -5.583133 3.459694
v -5.001027 -5.583133 4.331694
v -5.001027 1.751141 4.331694
v -6.397027 1.751141 3.459694
v -5.001027 -5.583133 4.331694
v -6.397027 -5.583133 3.459694
v -4.461027 -5.583133 0.3606937
v -2.326527 -5.583133 -3.057306
v -0.1920268 -5.583133 -6.475307
v 6.172973 -5.583133 -2.500306
v 1.891973 -5.583133 4.355694
v 0.4439732 -5.583133 3.450694
v -1.189027 -5.583133 6.064694
v -2.071027 -5.583133 5.513694
v -2.362027 -5.583133 5.979694
vt 0.226132 0.248192
vt 0.028377 0.222804
vt 0.122543 0.155395
vt 0.083981 0.300451
vt 0.007001 0.230660
vt 0.028377 0.222804
vt 0.226132 0.248192
vt 0.122543 0.155395
vt 0.394774 0.001524
vt 0.580446 0.169870
vt 0.122543 0.155395
vt 0.080269 0.117099
vt 0.394774 0.001524
vt 0.083981 0.300451
vt 0.028377 0.222804
vt 0.226132 0.248192
vt 0.266863 0.285111
vt 0.226132 0.248192
vt 0.580446 0.169870
vt 0.028377 0.222804
vt 0.002639 0.199478
vt 0.122543 0.155395
vt 0.664908 0.763265
vt 0.804957 0.711890
vt 0.845086 0.748184
vt 0.705037 0.799558
vt 0.002639 0.960285
vt 0.023437 0.952744
vt 0.148486 0.991732
vt 0.127390 0.999381
vt 0.457737 0.933045
vt 0.432718 0.910212
vt 0.562642 0.867378
vt 0.588020 0.890539
vt 0.182058 0.910267
vt 0.299548 0.867378
vt 0.426797 0.905956
vt 0.307626 0.949457
vt 0.043804 0.949189
vt 0.002639 0.911548
vt 0.133900 0.867378
vt 0.175657 0.905561
vt 0.002639 0.825283
vt 0.312280 0.711890
vt 0.443971 0.748639
vt 0.129900 0.863650
vt 0.257063 0.304878
vt 0.432398 0.471708
vt 0.175562 0.507097
vt 0.002639 0.342571
vt 0.567318 0.600024
vt 0.156000 0.612919
vt 0.475022 0.585453
vt 0.475022 0.585453
vt 0.156000 0.612919
vt 0.309366 0.559303
vt 0.156000 0.612919
vt 0.256297 0.708753
vt 0.002639 0.666534
vt 0.567318 0.600024
vt 0.256297 0.708753
vt 0.156000 0.612919
vt 0.615327 0.536385
vt 0.475022 0.585453
vt 0.309366 0.559303
vt 0.448421 0.510671
vt 0.870574 0.918598
vt 0.831135 0.882363
vt 0.878140 0.867378
vt 0.917780 0.903798
vt 0.825522 0.881657
vt 0.685506 0.930191
vt 0.593668 0.915673
vt 0.732992 0.867378
vt 0.526333 0.823974
vt 0.451187 0.754812
vt 0.581719 0.711890
vt 0.610841 0.797053
vt 0.657943 0.782047
vt 0.610841 0.797053
vt 0.581719 0.711890
vt 0.566094 0.860559
vt 0.526333 0.823974
vt 0.610841 0.797053
vt 0.650968 0.833976
vt 0.155673 0.952744
vt 0.155673 0.952744
vt 0.155673 0.952744
vt 0.155673 0.952744
vt 0.155673 0.952744
vt 0.155673 0.952744
vt 0.155673 0.952744
vt 0.155673 0.952744
vt 0.155673 0.952744
vt 0.155673 0.952744
vt 0.155673 0.952744
vn 0 1 0
vn 0 1 0
vn 0 1 0
vn 0 1 0
vn 0 1 0
vn 0 1 0
vn 0 1 0
vn 0 1 0
vn 0 1 0
vn 0 1 0
vn 0 1 0
vn 0 1 0
vn 0 1 0
vn 0 1 0
vn 0 1 0
vn 0 1 0
vn 0 1 0
vn 0 1 0
vn 0 1 0
vn 0 1 0
vn 0 1 0
vn 0 1 0
vn 0 1 0
vn 0 1 0
vn 0 1 0
vn 0 1 0
vn 0.8482028 0 0.5296717
vn 0.8482028 0 0.5296717
vn 0.8482028 0 0.5296717
vn 0.8482028 0 0.5296717
vn -0.529826 0 0.8481063
vn -0.529826 0 0.8481063
vn -0.529826 0 0.8481063
vn -0.529826 0 0.8481063
vn 0.8481076 0 0.529824
vn 0.8481076 0 0.529824
vn 0.8481076 0 0.529824
vn 0.8481076 0 0.529824
vn -0.529999 0 0.8479983
vn -0.529999 0 0.8479983
vn -0.529999 0 0.8479983
vn -0.529999 0 0.8479983
vn 0.8482206 0 0.529643
vn 0.8482206 0 0.529643
vn 0.8482206 0 0.529643
vn 0.8482206 0 0.529643
vn 0.5296994 0 -0.8481854
vn 0.5296994 0 -0.8481854
vn 0.5296994 0 -0.8481854
vn 0.5296994 0 -0.8481854
vn -0.8481934 0 -0.5296866
vn -0.8481934 0 -0.5296866
vn -0.8481934 0 -0.5296866
vn -0.8481934 0 -0.5296866
vn -0.8481934 0 -0.5296866
vn -0.8481934 0 -0.5296866
vn -0.8481934 0 -0.5296866
vn -0.8481934 0 -0.5296866
vn -0.8481934 0 -0.5296866
vn -0.8481934 2.387658E-11 -0.5296866
vn -0.8481934 2.387658E-11 -0.5296866
vn -0.8481934 2.387658E-11 -0.5296866
vn -0.8481059 0 -0.5298268
vn -0.8481059 0 -0.5298268
vn -0.8481059 0 -0.5298268
vn -0.8481059 0 -0.5298268
vn -0.5297805 0 0.8481348
vn -0.5297805 0 0.8481348
vn -0.5297805 0 0.8481348
vn -0.5297805 0 0.8481348
vn -0.8481059 0 -0.5298268
vn -0.8481059 0 -0.5298268
vn -0.8481059 0 -0.5298268
vn -0.8481059 0 -0.5298268
vn -0.5296811 0 0.8481969
vn -0.5296811 0 0.8481969
vn -0.5296811 0 0.8481969
vn -0.5296811 0 0.8481969
vn -0.5296811 0 0.8481969
vn -0.5296811 0 0.8481969
vn -0.5296811 0 0.8481969
vn -0.5297805 0 0.8481348
vn -0.5297805 0 0.8481348
vn -0.5297805 0 0.8481348
vn -0.5297805 0 0.8481348
vn 0 -1 0
vn 0 -1 0
vn 0 -1 0
vn 0 -1 0
vn 0 -1 0
vn 0 -1 0
vn 0 -1 0
vn 0 -1 0
vn 0 -1 0
vn 0 -1 0
vn 0 -1 0

g CDNNDG02_0001650
f 1/1/1 2/2/2 3/3/3
f 4/4/4 5/5/5 6/6/6
f 7/7/7 8/8/8 10/10/10
f 9/9/9 10/10/10 8/8/8
f 11/11/11 12/12/12 13/13/13
f 14/14/14 15/15/15 16/16/16
f 17/17/17 18/18/18 19/19/19
f 20/20/20 21/21/21 22/22/22
f 26/26/26 23/23/23 25/25/25
f 24/24/24 25/25/25 23/23/23
f 28/28/28 29/29/29 27/27/27
f 27/27/27 29/29/29 30/30/30
f 31/31/31 33/33/33 34/34/34
f 33/33/33 31/31/31 32/32/32
f 35/35/35 37/37/37 38/38/38
f 35/35/35 36/36/36 37/37/37
f 40/40/40 41/41/41 42/42/42
f 42/42/42 39/39/39 40/40/40
f 46/46/46 43/43/43 45/45/45
f 44/44/44 45/45/45 43/43/43
f 47/47/47 49/49/49 50/50/50
f 47/47/47 48/48/48 49/49/49
f 51/51/51 52/52/52 53/53/53
f 54/54/54 55/55/55 56/56/56
f 57/57/57 58/58/58 59/59/59
f 60/60/60 61/61/61 62/62/62
f 63/63/63 64/64/64 65/65/65
f 66/66/66 63/63/63 65/65/65
f 67/67/67 69/69/69 70/70/70
f 69/69/69 67/67/67 68/68/68
f 71/71/71 73/73/73 74/74/74
f 71/71/71 72/72/72 73/73/73
f 76/76/76 77/77/77 78/78/78
f 78/78/78 75/75/75 76/76/76
f 79/79/79 80/80/80 81/81/81
f 82/82/82 84/84/84 85/85/85
f 84/84/84 82/82/82 83/83/83
f 96/96/96 86/86/86 95/95/95
f 95/95/95 93/93/93 94/94/94
f 95/95/95 86/86/86 88/88/88
f 87/87/87 88/88/88 86/86/86
f 93/93/93 88/88/88 89/89/89
f 92/92/92 93/93/93 91/91/91
f 89/89/89 90/90/90 91/91/91
f 93/93/93 95/95/95 88/88/88
f 89/89/89 91/91/91 93/93/93
