v -6.043395 6.974066 5.412114
v -3.804395 6.974066 6.864114
v -3.504395 6.974066 1.497114
v -3.504395 6.974066 1.497114
v 0.1942902 6.974066 5.803919
v 0.6886048 6.974066 5.042114
v -3.504395 6.974066 1.497114
v 0.6886048 6.974066 5.042114
v 0.9656048 6.974066 5.222114
v -5.399395 6.974066 0.2681141
v -3.504395 6.974066 1.497114
v 0.4176048 6.974066 -8.701886
v -3.804395 6.974066 6.864114
v 0.1416048 6.974066 5.885114
v -3.504395 6.974066 1.497114
v -3.504395 6.974066 1.497114
v 0.1416048 6.974066 5.885114
v 0.1942902 6.974066 5.803919
v -3.804395 6.974066 6.864114
v 0.4186048 6.974066 6.065114
v 0.1416048 6.974066 5.885114
v -3.504395 6.974066 1.497114
v 0.9656048 6.974066 5.222114
v 7.224605 6.974066 -4.428886
v 0.4176048 6.974066 -8.701886
v -3.804395 6.974066 6.864114
v -1.196395 6.974066 8.555114
v 0.4186048 6.974066 6.065114
v 0.4176048 6.974066 -8.701886
v 7.224605 6.974066 -4.428886
v 0.4826048 6.974066 -8.801886
v 0.1416048 8.280066 5.885114
v 0.9656048 8.279066 5.222114
v 0.6886048 8.280066 5.042114
v 0.1416048 8.280066 5.885114
v 0.4186048 8.280066 6.065114
v 0.9656048 8.279066 5.222114
v -3.804395 6.224066 6.864114
v -1.226395 6.216066 8.602114
v -1.196395 6.225066 8.555114
v -4.799395 5.933066 8.398114
v -2.191395 5.933066 10.09011
v -1.226395 6.216066 8.602114
v -4.799395 5.933066 8.398114
v -1.226395 6.216066 8.602114
v -3.804395 6.224066 6.864114
v -6.043395 6.974066 5.412114
v -3.804395 6.224066 6.864114
v -3.804395 6.974066 6.864114
v -6.043395 -6.93811 5.412114
v -3.804395 -6.93811 6.864114
v -3.804395 6.224066 6.864114
v -6.043395 6.974066 5.412114
v -3.804395 6.224066 6.864114
v -1.196395 6.225066 8.555114
v -1.196395 6.974066 8.555114
v -3.804395 6.974066 6.864114
v -1.196395 -6.93811 8.555114
v 0.4186048 -6.93811 6.065114
v 0.4186048 6.974066 6.065114
v -1.196395 6.225066 8.555114
v -1.196395 6.974066 8.555114
v -1.196395 6.225066 8.555114
v 0.4186048 6.974066 6.065114
v 0.4186048 -6.93811 6.065114
v 0.9656048 -6.93811 5.222114
v 0.9656048 6.974066 5.222114
v 0.4186048 6.974066 6.065114
v 0.9656048 -6.93811 5.222114
v 7.224605 -6.93811 -4.428886
v 7.224605 6.974066 -4.428886
v 0.9656048 6.974066 5.222114
v 0.4186048 6.974066 6.065114
v 0.9656048 6.974066 5.222114
v 0.9656048 8.279066 5.222114
v 0.4186048 8.280066 6.065114
v -1.708895 -6.93811 9.346114
v -1.226395 -6.93811 8.602114
v -1.226395 6.216066 8.602114
v -2.191395 5.933066 10.09011
v -2.191395 -6.93811 10.09011
v -1.708895 -6.93811 9.346114
v -2.191395 5.933066 10.09011
v -1.708895 -6.93811 9.346114
v -1.226395 6.216066 8.602114
v -1.211395 -6.93811 8.578614
v -1.196395 -6.93811 8.555114
v -1.196395 6.225066 8.555114
v -1.226395 6.216066 8.602114
v -1.226395 -6.93811 8.602114
v -1.211395 -6.93811 8.578614
v -1.226395 6.216066 8.602114
v -1.211395 -6.93811 8.578614
v -1.196395 6.225066 8.555114
v 0.4826048 6.974066 -8.801886
v 7.224605 6.974066 -4.428886
v 7.224605 -6.93811 -4.428886
v 0.4826048 -6.93811 -8.801886
v 0.4176048 6.974066 -8.701886
v 0.4501048 -6.93811 -8.751885
v 0.4176048 -6.93811 -8.701886
v 0.4501048 -6.93811 -8.751885
v 0.4826048 6.974066 -8.801886
v 0.4826048 -6.93811 -8.801886
v 0.4176048 6.974066 -8.701886
v 0.4826048 6.974066 -8.801886
v 0.4501048 -6.93811 -8.751885
v -5.399395 6.974066 0.2681141
v 0.4176048 6.974066 -8.701886
v 0.4176048 -6.93811 -8.701886
v -5.399395 -6.93811 0.2681141
v -5.399395 -6.93811 0.2681141
v -3.504395 -6.93811 1.497114
v -3.504395 6.974066 1.497114
v -5.399395 6.974066 0.2681141
v -6.043395 6.974066 5.412114
v -3.504395 6.974066 1.497114
v -3.504395 -6.93811 1.497114
v -6.043395 -6.93811 5.412114
v 0.6886048 8.280066 5.042114
v 0.9656048 8.279066 5.222114
v 0.9656048 6.974066 5.222114
v 0.6886048 6.974066 5.042114
v 0.1416048 8.280066 5.885114
v 0.1942902 6.974066 5.803919
v 0.1416048 6.974066 5.885114
v 0.1416048 8.280066 5.885114
v 0.6886048 8.280066 5.042114
v 0.6886048 6.974066 5.042114
v 0.1942902 6.974066 5.803919
v 0.1416048 6.974066 5.885114
v 0.4186048 6.974066 6.065114
v 0.4186048 8.280066 6.065114
v 0.1416048 8.280066 5.885114
v -4.799395 -6.93811 8.398114
v -2.191395 -6.93811 10.09011
v -2.191395 5.933066 10.09011
v -4.799395 5.933066 8.398114
v -4.799395 5.933066 8.398114
v -3.804395 6.224066 6.864114
v -3.804395 -6.93811 6.864114
v -4.799395 -6.93811 8.398114
v -3.804395 -6.93811 6.864114
v -6.043395 -6.93811 5.412114
v -3.504395 -6.93811 1.497114
v -5.399395 -6.93811 0.2681141
v 0.4176048 -6.93811 -8.701886
v 0.4501048 -6.93811 -8.751885
v 0.4826048 -6.93811 -8.801886
v 7.224605 -6.93811 -4.428886
v 0.9656048 -6.93811 5.222114
v 0.4186048 -6.93811 6.065114
v -1.196395 -6.93811 8.555114
v -1.211395 -6.93811 8.578614
v -1.226395 -6.93811 8.602114
v -1.708895 -6.93811 9.346114
v -2.191395 -6.93811 10.09011
v -4.799395 -6.93811 8.398114
vt 0.115013 0.309928
vt 0.062816 0.258189
vt 0.253872 0.250657
vt 0.253872 0.250657
vt 0.099692 0.165389
vt 0.126712 0.153849
vt 0.253872 0.250657
vt 0.126712 0.153849
vt 0.120241 0.147448
vt 0.298051 0.294447
vt 0.253872 0.250657
vt 0.616217 0.158648
vt 0.062816 0.258189
vt 0.096812 0.166619
vt 0.253872 0.250657
vt 0.253872 0.250657
vt 0.096812 0.166619
vt 0.099692 0.165389
vt 0.062816 0.258189
vt 0.090341 0.160218
vt 0.096812 0.166619
vt 0.253872 0.250657
vt 0.120241 0.147448
vt 0.462568 0.001319
vt 0.616217 0.158648
vt 0.062816 0.258189
vt 0.002024 0.197921
vt 0.090341 0.160218
vt 0.616217 0.158648
vt 0.462568 0.001319
vt 0.619764 0.157131
vt 0.336120 0.934888
vt 0.358437 0.916887
vt 0.364586 0.922899
vt 0.336120 0.934888
vt 0.329960 0.928878
vt 0.358437 0.916887
vt 0.002024 0.940441
vt 0.062304 0.998600
vt 0.060570 0.999312
vt 0.058594 0.916887
vt 0.117165 0.975733
vt 0.062304 0.998600
vt 0.058594 0.916887
vt 0.062304 0.998600
vt 0.002024 0.940441
vt 0.002024 0.803331
vt 0.062103 0.851376
vt 0.052775 0.854309
vt 0.173119 0.750660
vt 0.223003 0.800770
vt 0.062103 0.851376
vt 0.002024 0.803331
vt 0.062103 0.851376
vt 0.121138 0.910703
vt 0.111879 0.913688
vt 0.052775 0.854309
vt 0.625808 0.364264
vt 0.540218 0.400627
vt 0.368961 0.370046
vt 0.465321 0.334762
vt 0.456031 0.333054
vt 0.465321 0.334762
vt 0.368961 0.370046
vt 0.540218 0.400627
vt 0.511242 0.412942
vt 0.339483 0.382575
vt 0.368961 0.370046
vt 0.511242 0.412942
vt 0.179521 0.553858
vt 0.002024 0.525933
vt 0.339483 0.382575
vt 0.368961 0.370046
vt 0.339483 0.382575
vt 0.323066 0.379673
vt 0.352579 0.367121
vt 0.652997 0.352725
vt 0.627423 0.363589
vt 0.467075 0.334096
vt 0.522545 0.312665
vt 0.678572 0.341861
vt 0.652997 0.352725
vt 0.522545 0.312665
vt 0.652997 0.352725
vt 0.467075 0.334096
vt 0.626616 0.363927
vt 0.625808 0.364264
vt 0.465321 0.334762
vt 0.467075 0.334096
vt 0.627423 0.363589
vt 0.626616 0.363927
vt 0.467075 0.334096
vt 0.626616 0.363927
vt 0.465321 0.334762
vt 0.640485 0.741554
vt 0.483806 0.586178
vt 0.636716 0.556728
vt 0.790680 0.709418
vt 0.321572 0.558231
vt 0.476150 0.614728
vt 0.474400 0.615467
vt 0.476150 0.614728
vt 0.325135 0.556728
vt 0.477901 0.613990
vt 0.321572 0.558231
vt 0.325135 0.556728
vt 0.476150 0.614728
vt 0.002024 0.692724
vt 0.321572 0.558231
vt 0.474400 0.615467
vt 0.160377 0.747629
vt 0.925122 0.750660
vt 0.967335 0.792835
vt 0.793959 0.846191
vt 0.751012 0.803285
vt 0.228745 0.809086
vt 0.367857 0.750660
vt 0.526571 0.806066
vt 0.389864 0.863481
vt 0.451245 0.925216
vt 0.445344 0.919580
vt 0.459238 0.916887
vt 0.465140 0.922512
vt 0.370445 0.928731
vt 0.388097 0.932704
vt 0.385319 0.933843
vt 0.370445 0.928731
vt 0.399339 0.916887
vt 0.414165 0.922018
vt 0.388097 0.932704
vt 0.434142 0.916887
vt 0.439961 0.922538
vt 0.424857 0.927267
vt 0.419028 0.921607
vt 0.688780 0.750660
vt 0.746889 0.808789
vt 0.591430 0.858633
vt 0.532389 0.799572
vt 0.121457 0.940788
vt 0.172293 0.916887
vt 0.324951 0.968842
vt 0.271553 0.991212
vt 0.469636 0.916887
vt 0.469636 0.916887
vt 0.469636 0.916887
vt 0.469636 0.916887
vt 0.469636 0.916887
vt 0.469636 0.916887
vt 0.469636 0.916887
vt 0.469636 0.916887
vt 0.469636 0.916887
vt 0.469636 0.916887
vt 0.469636 0.916887
vt 0.469636 0.916887
vt 0.469636 0.916887
vt 0.469636 0.916887
vt 0.469636 0.916887
vt 0.469636 0.916887
vn 0 1 0
vn 0 1 0
vn 0 1 0
vn 0 1 0
vn 0 1 0
vn 0 1 0
vn 0 1 0
vn 0 1 0
vn 0 1 0
vn 0 1 0
vn 0 1 0
vn 0 1 0
vn 0 1 0
vn 0 1 0
vn 0 1 0
vn 0 1 0
vn 0 1 0
vn 0 1 0
vn 0 1 0
vn 0 1 0
vn 0 1 0
vn 0 1 0
vn 0 1 0
vn 0 1 0
vn 0 1 0
vn 0 1 0
vn 0 1 0
vn 0 1 0
vn 0 1 0
vn 0 1 0
vn 0 1 0
vn 0.002539367 0.9999954 0.001647727
vn 0.002539367 0.9999954 0.001647727
vn 0.002539367 0.9999954 0.001647727
vn 0.0005422158 0.9999995 -0.0008344098
vn 0.0005422158 0.9999995 -0.0008344098
vn 0.0005422158 0.9999995 -0.0008344098
vn -0.08696134 0.9872214 0.1335352
vn -0.08696134 0.9872214 0.1335352
vn -0.08696134 0.9872214 0.1335352
vn -0.08576316 0.9875068 0.1321929
vn -0.08576316 0.9875068 0.1321929
vn -0.08576316 0.9875068 0.1321929
vn -0.08574167 0.9875709 0.1317276
vn -0.08574167 0.9875709 0.1317276
vn -0.08574167 0.9875709 0.1317276
vn -0.5441056 0 0.8390167
vn -0.5441056 0 0.8390167
vn -0.5441056 0 0.8390167
vn -0.5441056 0 0.8390167
vn -0.5441056 0 0.8390167
vn -0.5441056 0 0.8390167
vn -0.5441056 0 0.8390167
vn -0.5440381 0 0.8390605
vn -0.5440381 0 0.8390605
vn -0.5440381 0 0.8390605
vn -0.5440381 0 0.8390605
vn 0.838982 0 0.5441591
vn 0.838982 0 0.5441591
vn 0.838982 0 0.5441591
vn 0.838982 0 0.5441591
vn 0.838982 0 0.5441591
vn 0.838982 0 0.5441591
vn 0.838982 0 0.5441591
vn 0.8388754 0 0.5443236
vn 0.8388754 0 0.5443236
vn 0.8388754 0 0.5443236
vn 0.8388754 0 0.5443236
vn 0.8390053 0 0.5441233
vn 0.8390053 0 0.5441233
vn 0.8390053 0 0.5441233
vn 0.8390053 0 0.5441233
vn 0.8388754 0 0.5443236
vn 0.8388754 0 0.5443236
vn 0.8388754 0 0.5443236
vn 0.8388754 0 0.5443236
vn 0.83901 0 0.544116
vn 0.83901 0 0.544116
vn 0.83901 0 0.544116
vn 0.83901 0 0.544116
vn 0.83901 0 0.544116
vn 0.83901 0 0.544116
vn 0.83901 1.876508E-12 0.544116
vn 0.83901 1.876508E-12 0.544116
vn 0.83901 1.876508E-12 0.544116
vn 0.8429222 0 0.5380355
vn 0.8429222 0 0.5380355
vn 0.8429222 0 0.5380355
vn 0.8429222 0 0.5380355
vn 0.8429222 0 0.5380355
vn 0.8429222 0 0.5380355
vn 0.8429222 1.864341E-12 0.5380355
vn 0.8429222 1.864341E-12 0.5380355
vn 0.8429222 1.864341E-12 0.5380355
vn 0.5441746 0 -0.838972
vn 0.5441746 0 -0.838972
vn 0.5441746 0 -0.838972
vn 0.5441746 0 -0.838972
vn -0.8384436 0 -0.5449883
vn -0.8384436 0 -0.5449883
vn -0.8384436 0 -0.5449883
vn -0.8384436 0 -0.5449883
vn -0.8384436 0 -0.5449883
vn -0.8384436 0 -0.5449883
vn -0.8384436 1.648758E-11 -0.5449883
vn -0.8384436 1.648758E-11 -0.5449883
vn -0.8384436 1.648758E-11 -0.5449883
vn -0.8390201 0 -0.5441003
vn -0.8390201 0 -0.5441003
vn -0.8390201 0 -0.5441003
vn -0.8390201 0 -0.5441003
vn -0.5441322 0 0.8389995
vn -0.5441322 0 0.8389995
vn -0.5441322 0 0.8389995
vn -0.5441322 0 0.8389995
vn -0.8390062 0 -0.5441218
vn -0.8390062 0 -0.5441218
vn -0.8390062 0 -0.5441218
vn -0.8390062 0 -0.5441218
vn 0.5448819 0 -0.8385128
vn 0.5448819 0 -0.8385128
vn 0.5448819 0 -0.8385128
vn 0.5448819 0 -0.8385128
vn -0.8388753 0 -0.5443236
vn -0.8388753 0 -0.5443236
vn -0.8388753 0 -0.5443236
vn -0.8388754 -1.584091E-09 -0.5443236
vn -0.8388754 -7.920454E-10 -0.5443236
vn -0.8388754 0 -0.5443236
vn -0.8388754 -7.920454E-10 -0.5443236
vn -0.5448819 0 0.8385128
vn -0.5448819 0 0.8385128
vn -0.5448819 0 0.8385128
vn -0.5448819 0 0.8385128
vn -0.5442646 0 0.8389137
vn -0.5442646 0 0.8389137
vn -0.5442646 0 0.8389137
vn -0.5442646 0 0.8389137
vn -0.838968 0 -0.5441807
vn -0.838968 0 -0.5441807
vn -0.838968 0 -0.5441807
vn -0.838968 0 -0.5441807
vn 0 -1 0
vn 0 -1 0
vn 0 -1 0
vn 0 -1 0
vn 0 -1 0
vn 0 -1 0
vn 0 -1 0
vn 0 -1 0
vn 0 -1 0
vn 0 -1 0
vn 0 -1 0
vn 0 -1 0
vn 0 -1 0
vn 0 -1 0
vn 0 -1 0
vn 0 -1 0

g CDNNDG02_0002920
f 1/1/1 2/2/2 3/3/3
f 4/4/4 5/5/5 6/6/6
f 7/7/7 8/8/8 9/9/9
f 10/10/10 11/11/11 12/12/12
f 13/13/13 14/14/14 15/15/15
f 16/16/16 17/17/17 18/18/18
f 19/19/19 20/20/20 21/21/21
f 22/22/22 24/24/24 25/25/25
f 22/22/22 23/23/23 24/24/24
f 26/26/26 27/27/27 28/28/28
f 29/29/29 30/30/30 31/31/31
f 32/32/32 33/33/33 34/34/34
f 35/35/35 36/36/36 37/37/37
f 38/38/38 39/39/39 40/40/40
f 41/41/41 42/42/42 43/43/43
f 44/44/44 45/45/45 46/46/46
f 47/47/47 48/48/48 49/49/49
f 53/53/53 50/50/50 52/52/52
f 52/52/52 50/50/50 51/51/51
f 57/57/57 55/55/55 56/56/56
f 57/57/57 54/54/54 55/55/55
f 59/59/59 60/60/60 61/61/61
f 58/58/58 59/59/59 61/61/61
f 62/62/62 63/63/63 64/64/64
f 66/66/66 67/67/67 65/65/65
f 65/65/65 67/67/67 68/68/68
f 69/69/69 71/71/71 72/72/72
f 69/69/69 70/70/70 71/71/71
f 76/76/76 73/73/73 75/75/75
f 74/74/74 75/75/75 73/73/73
f 77/77/77 78/78/78 79/79/79
f 80/80/80 81/81/81 82/82/82
f 83/83/83 84/84/84 85/85/85
f 86/86/86 87/87/87 88/88/88
f 89/89/89 90/90/90 91/91/91
f 92/92/92 93/93/93 94/94/94
f 98/98/98 95/95/95 97/97/97
f 96/96/96 97/97/97 95/95/95
f 99/99/99 100/100/100 101/101/101
f 102/102/102 103/103/103 104/104/104
f 105/105/105 106/106/106 107/107/107
f 111/111/111 108/108/108 110/110/110
f 110/110/110 108/108/108 109/109/109
f 112/112/112 114/114/114 115/115/115
f 114/114/114 112/112/112 113/113/113
f 117/117/117 118/118/118 119/119/119
f 116/116/116 117/117/117 119/119/119
f 122/122/122 123/123/123 121/121/121
f 120/120/120 121/121/121 123/123/123
f 124/124/124 125/125/125 126/126/126
f 130/130/130 127/127/127 128/128/128
f 129/129/129 130/130/130 128/128/128
f 131/131/131 133/133/133 134/134/134
f 133/133/133 131/131/131 132/132/132
f 135/135/135 137/137/137 138/138/138
f 137/137/137 135/135/135 136/136/136
f 139/139/139 141/141/141 142/142/142
f 141/141/141 139/139/139 140/140/140
f 156/156/156 158/158/158 143/143/143
f 156/156/156 157/157/157 158/158/158
f 155/155/155 143/143/143 154/154/154
f 144/144/144 145/145/145 143/143/143
f 155/155/155 156/156/156 143/143/143
f 145/145/145 147/147/147 150/150/150
f 146/146/146 147/147/147 145/145/145
f 147/147/147 148/148/148 150/150/150
f 154/154/154 143/143/143 153/153/153
f 148/148/148 149/149/149 150/150/150
f 153/153/153 143/143/143 152/152/152
f 150/150/150 151/151/151 145/145/145
f 151/151/151 152/152/152 145/145/145
f 152/152/152 143/143/143 145/145/145
