v -8.746362 5.907639 7.505407
v -8.418362 5.907639 7.715407
v -5.317362 5.907639 9.702408
v -4.443362 5.907639 8.340407
v -2.815362 5.907639 9.383408
v -0.1173619 5.907639 5.172408
v -1.412362 5.907639 4.342407
v 0.4746381 5.907639 1.396407
v 3.121638 5.907639 3.092407
v 8.457638 5.907639 -5.235592
v 4.905638 5.907639 -7.511592
v 4.726638 5.907639 -7.626593
v 4.637638 5.907639 -8.479592
v 3.233638 5.907639 -9.392592
v 2.136638 5.907639 -9.128592
v 1.977638 5.907639 -9.230593
v -6.465362 5.907639 3.945407
v -7.025362 5.907639 4.819407
v -7.808362 5.907639 6.040407
v -7.922362 5.907639 6.218408
v -8.746362 -5.907639 7.505407
v -8.418362 -5.907639 7.715407
v -8.418362 5.907639 7.715407
v -8.746362 5.907639 7.505407
v -8.418362 -5.907639 7.715407
v -5.317362 -5.907639 9.702408
v -5.317362 5.907639 9.702408
v -8.418362 5.907639 7.715407
v -5.317362 -5.907639 9.702408
v -4.443362 -5.907639 8.340407
v -4.443362 5.907639 8.340407
v -5.317362 5.907639 9.702408
v -3.629362 -5.907639 8.861907
v -2.815362 -5.907639 9.383408
v -2.815362 5.907639 9.383408
v -4.443362 5.907639 8.340407
v -4.443362 -5.907639 8.340407
v -3.629362 -5.907639 8.861907
v -4.443362 5.907639 8.340407
v -3.629362 -5.907639 8.861907
v -2.815362 5.907639 9.383408
v -2.815362 -5.907639 9.383408
v -0.1173619 -5.907639 5.172408
v -0.1173619 5.907639 5.172408
v -2.815362 5.907639 9.383408
v -1.412362 5.907639 4.342407
v -0.1173619 5.907639 5.172408
v -0.1173619 -5.907639 5.172408
v -1.412362 -5.907639 4.342407
v -1.412362 -5.907639 4.342407
v 0.4746381 -5.907639 1.396407
v 0.4746381 5.907639 1.396407
v -1.412362 5.907639 4.342407
v 0.4746381 -5.907639 1.396407
v 3.121638 -5.907639 3.092407
v 3.121638 5.907639 3.092407
v 0.4746381 5.907639 1.396407
v 3.121638 -5.907639 3.092407
v 8.457638 -5.907639 -5.235592
v 8.457638 5.907639 -5.235592
v 3.121638 5.907639 3.092407
v 4.905638 5.907639 -7.511592
v 8.457638 5.907639 -5.235592
v 8.457638 -5.907639 -5.235592
v 4.905638 -5.907639 -7.511592
v 4.726638 5.907639 -7.626593
v 4.905638 5.907639 -7.511592
v 4.905638 -5.907639 -7.511592
v 4.726638 -5.907639 -7.626593
v 4.637638 5.907639 -8.479592
v 4.682138 -5.907639 -8.053093
v 4.637638 -5.907639 -8.479592
v 4.682138 -5.907639 -8.053093
v 4.726638 5.907639 -7.626593
v 4.726638 -5.907639 -7.626593
v 4.637638 5.907639 -8.479592
v 4.726638 5.907639 -7.626593
v 4.682138 -5.907639 -8.053093
v 3.233638 5.907639 -9.392592
v 4.637638 5.907639 -8.479592
v 4.637638 -5.907639 -8.479592
v 3.233638 -5.907639 -9.392592
v 2.136638 5.907639 -9.128592
v 3.233638 5.907639 -9.392592
v 3.233638 -5.907639 -9.392592
v 2.136638 -5.907639 -9.128592
v 1.977638 5.907639 -9.230593
v 2.136638 5.907639 -9.128592
v 2.136638 -5.907639 -9.128592
v 1.977638 -5.907639 -9.230593
v -6.465362 5.907639 3.945407
v -2.243862 -5.907639 -2.642593
v -6.465362 -5.907639 3.945407
v -2.243862 -5.907639 -2.642593
v 1.977638 5.907639 -9.230593
v 1.977638 -5.907639 -9.230593
v -6.465362 5.907639 3.945407
v 1.977638 5.907639 -9.230593
v -2.243862 -5.907639 -2.642593
v -7.025362 5.907639 4.819407
v -6.465362 5.907639 3.945407
v -6.465362 -5.907639 3.945407
v -7.025362 -5.907639 4.819407
v -7.808362 5.907639 6.040407
v -7.025362 5.907639 4.819407
v -7.025362 -5.907639 4.819407
v -7.808362 -5.907639 6.040407
v -7.922362 5.907639 6.218408
v -7.808362 5.907639 6.040407
v -7.808362 -5.907639 6.040407
v -7.922362 -5.907639 6.218408
v -8.746362 5.907639 7.505407
v -7.922362 5.907639 6.218408
v -7.922362 -5.907639 6.218408
v -8.746362 -5.907639 7.505407
v -7.922362 -5.907639 6.218408
v -7.808362 -5.907639 6.040407
v -7.025362 -5.907639 4.819407
v -6.465362 -5.907639 3.945407
v -2.243862 -5.907639 -2.642593
v 1.977638 -5.907639 -9.230593
v 2.136638 -5.907639 -9.128592
v 3.233638 -5.907639 -9.392592
v 4.637638 -5.907639 -8.479592
v 4.682138 -5.907639 -8.053093
v 4.726638 -5.907639 -7.626593
v 4.905638 -5.907639 -7.511592
v 8.457638 -5.907639 -5.235592
v 3.121638 -5.907639 3.092407
v 0.4746381 -5.907639 1.396407
v -1.412362 -5.907639 4.342407
v -0.1173619 -5.907639 5.172408
v -2.815362 -5.907639 9.383408
v -3.629362 -5.907639 8.861907
v -4.443362 -5.907639 8.340407
v -5.317362 -5.907639 9.702408
v -8.418362 -5.907639 7.715407
v -8.746362 -5.907639 7.505407
vt 0.550526 0.001318
vt 0.557304 0.008810
vt 0.621439 0.079650
vt 0.577222 0.099464
vt 0.610887 0.136653
vt 0.474181 0.197816
vt 0.447391 0.168235
vt 0.351755 0.211012
vt 0.406498 0.271474
vt 0.136159 0.392429
vt 0.062694 0.311299
vt 0.058982 0.307211
vt 0.031345 0.305115
vt 0.001873 0.273045
vt 0.010519 0.248064
vt 0.007226 0.244432
vt 0.434952 0.053031
vt 0.463326 0.040335
vt 0.502965 0.022583
vt 0.508744 0.019999
vt 0.417197 0.664032
vt 0.423879 0.671355
vt 0.355095 0.760255
vt 0.348315 0.752825
vt 0.423879 0.671355
vt 0.487105 0.740586
vt 0.419252 0.830504
vt 0.355095 0.760255
vt 0.858630 0.895418
vt 0.815573 0.914568
vt 0.747191 0.858693
vt 0.790879 0.839262
vt 0.500659 0.957343
vt 0.517000 0.975292
vt 0.448894 0.992464
vt 0.415730 0.956038
vt 0.484317 0.939394
vt 0.500659 0.957343
vt 0.415730 0.956038
vt 0.500659 0.957343
vt 0.448894 0.992464
vt 0.968543 0.719695
vt 0.834427 0.779150
vt 0.764045 0.724360
vt 0.900128 0.664032
vt 0.420855 0.925632
vt 0.393258 0.896270
vt 0.586739 0.839262
vt 0.613930 0.868194
vt 0.167486 0.894361
vt 0.073861 0.935854
vt 0.001873 0.881366
vt 0.096871 0.839262
vt 0.690010 0.839262
vt 0.743325 0.898070
vt 0.672078 0.917298
vt 0.617977 0.857627
vt 0.343564 0.717964
vt 0.077394 0.835974
vt 0.001873 0.783775
vt 0.271947 0.664032
vt 0.568294 0.799450
vt 0.492509 0.718448
vt 0.681345 0.664032
vt 0.756015 0.743846
vt 0.572123 0.803532
vt 0.568294 0.799450
vt 0.756015 0.743846
vt 0.759787 0.747868
vt 0.224503 0.996172
vt 0.397709 0.940300
vt 0.411441 0.941205
vt 0.397709 0.940300
vt 0.196629 0.994334
vt 0.383976 0.939394
vt 0.224503 0.996172
vt 0.196629 0.994334
vt 0.397709 0.940300
vt 0.202627 0.926493
vt 0.172285 0.894652
vt 0.359237 0.839262
vt 0.389133 0.870636
vt 0.522472 0.964286
vt 0.530882 0.939394
vt 0.716959 0.958437
vt 0.708672 0.982962
vt 0.005259 0.998825
vt 0.001873 0.995243
vt 0.188279 0.939394
vt 0.191615 0.942923
vt 0.118971 0.592685
vt 0.526339 0.511592
vt 0.312821 0.608845
vt 0.526339 0.511592
vt 0.552408 0.395257
vt 0.739873 0.414333
vt 0.118971 0.592685
vt 0.552408 0.395257
vt 0.526339 0.511592
vt 0.090223 0.605779
vt 0.118971 0.592685
vt 0.312821 0.608845
vt 0.284496 0.621745
vt 0.050060 0.624086
vt 0.090223 0.605779
vt 0.284496 0.621745
vt 0.244925 0.639783
vt 0.044205 0.626752
vt 0.050060 0.624086
vt 0.244925 0.639783
vt 0.239157 0.642409
vt 0.001873 0.646018
vt 0.044205 0.626752
vt 0.239157 0.642409
vt 0.197447 0.661390
vt 0.720974 0.939394
vt 0.720974 0.939394
vt 0.720974 0.939394
vt 0.720974 0.939394
vt 0.720974 0.939394
vt 0.720974 0.939394
vt 0.720974 0.939394
vt 0.720974 0.939394
vt 0.720974 0.939394
vt 0.720974 0.939394
vt 0.720974 0.939394
vt 0.720974 0.939394
vt 0.720974 0.939394
vt 0.720974 0.939394
vt 0.720974 0.939394
vt 0.720974 0.939394
vt 0.720974 0.939394
vt 0.720974 0.939394
vt 0.720974 0.939394
vt 0.720974 0.939394
vt 0.720974 0.939394
vt 0.720974 0.939394
vt 0.720974 0.939394
vn 0 1 0
vn 0 1 0
vn 0 1 0
vn 0 1 0
vn 0 1 0
vn 0 1 0
vn 0 1 0
vn 0 1 0
vn 0 1 0
vn 0 1 0
vn 0 1 0
vn 0 1 0
vn 0 1 0
vn 0 1 0
vn 0 1 0
vn 0 1 0
vn 0 1 0
vn 0 1 0
vn 0 1 0
vn 0 1 0
vn -0.5391994 0 0.8421781
vn -0.5391994 0 0.8421781
vn -0.5391994 0 0.8421781
vn -0.5391994 0 0.8421781
vn -0.5395082 0 0.8419803
vn -0.5395082 0 0.8419803
vn -0.5395082 0 0.8419803
vn -0.5395082 0 0.8419803
vn 0.8416199 0 0.5400704
vn 0.8416199 0 0.5400704
vn 0.8416199 0 0.5400704
vn 0.8416199 0 0.5400704
vn -0.5394499 0 0.8420177
vn -0.5394499 0 0.8420177
vn -0.5394499 0 0.8420177
vn -0.5394499 0 0.8420177
vn -0.5394499 0 0.8420177
vn -0.5394499 0 0.8420177
vn -0.5394499 3.318543E-11 0.8420177
vn -0.5394499 3.318543E-11 0.8420177
vn -0.5394499 3.318543E-11 0.8420177
vn 0.8420026 0 0.5394735
vn 0.8420026 0 0.5394735
vn 0.8420026 0 0.5394735
vn 0.8420026 0 0.5394735
vn 0.539607 0 -0.841917
vn 0.539607 0 -0.841917
vn 0.539607 0 -0.841917
vn 0.539607 0 -0.841917
vn 0.8420689 0 0.53937
vn 0.8420689 0 0.53937
vn 0.8420689 0 0.53937
vn 0.8420689 0 0.53937
vn -0.5394869 0 0.841994
vn -0.5394869 0 0.841994
vn -0.5394869 0 0.841994
vn -0.5394869 0 0.841994
vn 0.8419922 0 0.5394897
vn 0.8419922 0 0.5394897
vn 0.8419922 0 0.5394897
vn 0.8419922 0 0.5394897
vn 0.539511 0 -0.8419785
vn 0.539511 0 -0.8419785
vn 0.539511 0 -0.8419785
vn 0.539511 0 -0.8419785
vn 0.54052 0 -0.8413312
vn 0.54052 0 -0.8413312
vn 0.54052 0 -0.8413312
vn 0.54052 0 -0.8413312
vn 0.9946009 0 -0.1037743
vn 0.9946009 0 -0.1037743
vn 0.9946009 0 -0.1037743
vn 0.9946009 0 -0.1037743
vn 0.9946009 0 -0.1037743
vn 0.9946009 0 -0.1037743
vn 0.9946009 2.449938E-12 -0.1037743
vn 0.9946009 2.449938E-12 -0.1037743
vn 0.9946009 2.449938E-12 -0.1037743
vn 0.5451562 0 -0.8383344
vn 0.5451562 0 -0.8383344
vn 0.5451562 0 -0.8383344
vn 0.5451562 0 -0.8383344
vn -0.2339763 0 -0.9722423
vn -0.2339763 0 -0.9722423
vn -0.2339763 0 -0.9722423
vn -0.2339763 0 -0.9722423
vn 0.5399547 0 -0.8416941
vn 0.5399547 0 -0.8416941
vn 0.5399547 0 -0.8416941
vn 0.5399547 0 -0.8416941
vn -0.8419707 0 -0.5395232
vn -0.8419707 0 -0.5395232
vn -0.8419707 0 -0.5395232
vn -0.8419707 0 -0.5395232
vn -0.8419707 0 -0.5395232
vn -0.8419707 0 -0.5395232
vn -0.8419707 2.12636E-11 -0.5395232
vn -0.8419707 2.12636E-11 -0.5395232
vn -0.8419707 2.12636E-11 -0.5395232
vn -0.8419914 0 -0.539491
vn -0.8419914 0 -0.539491
vn -0.8419914 0 -0.539491
vn -0.8419914 0 -0.539491
vn -0.8417827 0 -0.5398164
vn -0.8417827 0 -0.5398164
vn -0.8417827 0 -0.5398164
vn -0.8417827 0 -0.5398164
vn -0.8420995 0 -0.5393221
vn -0.8420995 0 -0.5393221
vn -0.8420995 0 -0.5393221
vn -0.8420995 0 -0.5393221
vn -0.8421763 0 -0.5392022
vn -0.8421763 0 -0.5392022
vn -0.8421763 0 -0.5392022
vn -0.8421763 0 -0.5392022
vn 0 -1 0
vn 0 -1 0
vn 0 -1 0
vn 0 -1 0
vn 0 -1 0
vn 0 -1 0
vn 0 -1 0
vn 0 -1 0
vn 0 -1 0
vn 0 -1 0
vn 0 -1 0
vn 0 -1 0
vn 0 -1 0
vn 0 -1 0
vn 0 -1 0
vn 0 -1 0
vn 0 -1 0
vn 0 -1 0
vn 0 -1 0
vn 0 -1 0
vn 0 -1 0
vn 0 -1 0
vn 0 -1 0

g CDNNDG02_0001070
f 17/17/17 18/18/18 4/4/4
f 20/20/20 1/1/1 2/2/2
f 4/4/4 20/20/20 2/2/2
f 17/17/17 4/4/4 7/7/7
f 4/4/4 19/19/19 20/20/20
f 4/4/4 2/2/2 3/3/3
f 4/4/4 18/18/18 19/19/19
f 6/6/6 7/7/7 5/5/5
f 5/5/5 7/7/7 4/4/4
f 7/7/7 8/8/8 17/17/17
f 8/8/8 10/10/10 11/11/11
f 10/10/10 8/8/8 9/9/9
f 8/8/8 11/11/11 12/12/12
f 15/15/15 16/16/16 8/8/8
f 14/14/14 12/12/12 13/13/13
f 15/15/15 12/12/12 14/14/14
f 8/8/8 12/12/12 15/15/15
f 8/8/8 16/16/16 17/17/17
f 24/24/24 21/21/21 23/23/23
f 23/23/23 21/21/21 22/22/22
f 25/25/25 27/27/27 28/28/28
f 27/27/27 25/25/25 26/26/26
f 30/30/30 31/31/31 29/29/29
f 29/29/29 31/31/31 32/32/32
f 33/33/33 34/34/34 35/35/35
f 36/36/36 37/37/37 38/38/38
f 39/39/39 40/40/40 41/41/41
f 43/43/43 44/44/44 45/45/45
f 42/42/42 43/43/43 45/45/45
f 48/48/48 46/46/46 47/47/47
f 46/46/46 48/48/48 49/49/49
f 51/51/51 52/52/52 50/50/50
f 50/50/50 52/52/52 53/53/53
f 54/54/54 56/56/56 57/57/57
f 56/56/56 54/54/54 55/55/55
f 61/61/61 58/58/58 59/59/59
f 59/59/59 60/60/60 61/61/61
f 62/62/62 64/64/64 65/65/65
f 62/62/62 63/63/63 64/64/64
f 66/66/66 68/68/68 69/69/69
f 66/66/66 67/67/67 68/68/68
f 70/70/70 71/71/71 72/72/72
f 73/73/73 74/74/74 75/75/75
f 76/76/76 77/77/77 78/78/78
f 81/81/81 79/79/79 80/80/80
f 79/79/79 81/81/81 82/82/82
f 84/84/84 85/85/85 83/83/83
f 83/83/83 85/85/85 86/86/86
f 89/89/89 87/87/87 88/88/88
f 87/87/87 89/89/89 90/90/90
f 91/91/91 92/92/92 93/93/93
f 94/94/94 95/95/95 96/96/96
f 97/97/97 98/98/98 99/99/99
f 100/100/100 102/102/102 103/103/103
f 100/100/100 101/101/101 102/102/102
f 104/104/104 106/106/106 107/107/107
f 104/104/104 105/105/105 106/106/106
f 111/111/111 109/109/109 110/110/110
f 111/111/111 108/108/108 109/109/109
f 112/112/112 113/113/113 114/114/114
f 115/115/115 112/112/112 114/114/114
f 138/138/138 116/116/116 137/137/137
f 125/125/125 126/126/126 122/122/122
f 137/137/137 116/116/116 135/135/135
f 126/126/126 120/120/120 122/122/122
f 136/136/136 137/137/137 135/135/135
f 125/125/125 123/123/123 124/124/124
f 122/122/122 123/123/123 125/125/125
f 120/120/120 121/121/121 122/122/122
f 135/135/135 117/117/117 118/118/118
f 119/119/119 135/135/135 118/118/118
f 120/120/120 126/126/126 127/127/127
f 129/129/129 130/130/130 128/128/128
f 130/130/130 127/127/127 128/128/128
f 135/135/135 116/116/116 117/117/117
f 120/120/120 131/131/131 119/119/119
f 131/131/131 134/134/134 135/135/135
f 132/132/132 133/133/133 134/134/134
f 135/135/135 119/119/119 131/131/131
f 130/130/130 120/120/120 127/127/127
f 130/130/130 131/131/131 120/120/120
f 131/131/131 132/132/132 134/134/134
