v -1.413157 5.736206 2.210989
v -2.009157 5.736206 3.127989
v -3.576157 5.736206 2.111989
v -5.708157 5.736206 5.397989
v -4.027157 5.736206 6.488989
v -4.788157 5.736206 7.660989
v -2.151157 5.736206 9.370989
v 6.463843 5.736206 -3.911011
v 5.895843 5.736206 -4.279011
v 6.100843 5.736206 -4.595011
v 4.831843 5.736206 -5.419011
v 4.642843 5.736206 -5.128011
v 0.08884321 5.736206 -8.083011
v -4.575157 5.736206 -0.893011
v -1.798157 5.736206 0.9089891
v -2.009157 5.736206 3.127989
v -1.413157 5.736206 2.210989
v -1.413157 -5.736206 2.210989
v -2.009157 -5.736206 3.127989
v -3.576157 5.736206 2.111989
v -2.009157 5.736206 3.127989
v -2.009157 -5.736206 3.127989
v -3.576157 -5.736206 2.111989
v -5.708157 5.736206 5.397989
v -3.576157 5.736206 2.111989
v -3.576157 -5.736206 2.111989
v -5.708157 -5.736206 5.397989
v -5.708157 -5.736206 5.397989
v -4.027157 -5.736206 6.488989
v -4.027157 5.736206 6.488989
v -5.708157 5.736206 5.397989
v -4.788157 5.736206 7.660989
v -4.027157 5.736206 6.488989
v -4.027157 -5.736206 6.488989
v -4.788157 -5.736206 7.660989
v -3.469657 -5.736206 8.515989
v -2.151157 -5.736206 9.370989
v -2.151157 5.736206 9.370989
v -4.788157 5.736206 7.660989
v -4.788157 -5.736206 7.660989
v -3.469657 -5.736206 8.515989
v -4.788157 5.736206 7.660989
v -3.469657 -5.736206 8.515989
v -2.151157 5.736206 9.370989
v 2.156343 -5.736206 2.729989
v 6.463843 -5.736206 -3.911011
v 6.463843 5.736206 -3.911011
v -2.151157 5.736206 9.370989
v -2.151157 -5.736206 9.370989
v 2.156343 -5.736206 2.729989
v -2.151157 5.736206 9.370989
v 2.156343 -5.736206 2.729989
v 6.463843 5.736206 -3.911011
v 5.895843 5.736206 -4.279011
v 6.463843 5.736206 -3.911011
v 6.463843 -5.736206 -3.911011
v 5.895843 -5.736206 -4.279011
v 5.998343 -5.736206 -4.437011
v 6.100843 -5.736206 -4.595011
v 6.100843 5.736206 -4.595011
v 5.895843 5.736206 -4.279011
v 5.895843 -5.736206 -4.279011
v 5.998343 -5.736206 -4.437011
v 5.895843 5.736206 -4.279011
v 5.998343 -5.736206 -4.437011
v 6.100843 5.736206 -4.595011
v 4.831843 5.736206 -5.419011
v 5.466343 -5.736206 -5.007011
v 4.831843 -5.736206 -5.419011
v 5.466343 -5.736206 -5.007011
v 6.100843 5.736206 -4.595011
v 6.100843 -5.736206 -4.595011
v 4.831843 5.736206 -5.419011
v 6.100843 5.736206 -4.595011
v 5.466343 -5.736206 -5.007011
v 4.642843 5.736206 -5.128011
v 4.737343 -5.736206 -5.273511
v 4.642843 -5.736206 -5.128011
v 4.737343 -5.736206 -5.273511
v 4.831843 5.736206 -5.419011
v 4.831843 -5.736206 -5.419011
v 4.642843 5.736206 -5.128011
v 4.831843 5.736206 -5.419011
v 4.737343 -5.736206 -5.273511
v 0.08884321 5.736206 -8.083011
v 4.642843 5.736206 -5.128011
v 4.642843 -5.736206 -5.128011
v 0.08884321 -5.736206 -8.083011
v -4.575157 5.736206 -0.893011
v 0.08884321 5.736206 -8.083011
v 0.08884321 -5.736206 -8.083011
v -4.575157 -5.736206 -0.893011
v -4.575157 -5.736206 -0.893011
v -1.798157 -5.736206 0.9089891
v -1.798157 5.736206 0.9089891
v -4.575157 5.736206 -0.893011
v -1.798157 -5.736206 0.9089891
v -1.413157 -5.736206 2.210989
v -1.413157 5.736206 2.210989
v -1.798157 5.736206 0.9089891
v -1.798157 -5.736206 0.9089891
v -4.575157 -5.736206 -0.893011
v 0.08884321 -5.736206 -8.083011
v 4.642843 -5.736206 -5.128011
v 4.737343 -5.736206 -5.273511
v 4.831843 -5.736206 -5.419011
v 5.466343 -5.736206 -5.007011
v 6.100843 -5.736206 -4.595011
v 5.998343 -5.736206 -4.437011
v 5.895843 -5.736206 -4.279011
v 6.463843 -5.736206 -3.911011
v 2.156343 -5.736206 2.729989
v -2.151157 -5.736206 9.370989
v -3.469657 -5.736206 8.515989
v -4.788157 -5.736206 7.660989
v -4.027157 -5.736206 6.488989
v -5.708157 -5.736206 5.397989
v -3.576157 -5.736206 2.111989
v -2.009157 -5.736206 3.127989
v -1.413157 -5.736206 2.210989
vt 0.296428 0.220570
vt 0.258949 0.237256
vt 0.301298 0.280242
vt 0.166995 0.339929
vt 0.121520 0.293818
vt 0.073621 0.315123
vt 0.002342 0.242787
vt 0.545219 0.001575
vt 0.560559 0.017158
vt 0.573475 0.011418
vt 0.607821 0.046232
vt 0.595926 0.051524
vt 0.719093 0.176457
vt 0.425208 0.307037
vt 0.350098 0.230860
vt 0.285830 0.901514
vt 0.322700 0.885039
vt 0.279900 0.955039
vt 0.243560 0.971277
vt 0.548116 0.826428
vt 0.507830 0.784080
vt 0.473068 0.681890
vt 0.512786 0.723641
vt 0.788694 0.741168
vt 0.922931 0.681890
vt 0.879382 0.751446
vt 0.747073 0.809872
vt 0.046067 0.999825
vt 0.002342 0.954305
vt 0.042765 0.885039
vt 0.087126 0.931223
vt 0.189655 0.906087
vt 0.236918 0.885039
vt 0.196467 0.954043
vt 0.149883 0.974788
vt 0.589496 0.787881
vt 0.555035 0.752080
vt 0.594001 0.681890
vt 0.663925 0.754533
vt 0.623956 0.823680
vt 0.589496 0.787881
vt 0.663925 0.754533
vt 0.589496 0.787881
vt 0.594001 0.681890
vt 0.267733 0.459293
vt 0.533142 0.343307
vt 0.572832 0.442874
vt 0.034440 0.678148
vt 0.002342 0.575271
vt 0.267733 0.459293
vt 0.034440 0.678148
vt 0.267733 0.459293
vt 0.572832 0.442874
vt 0.982342 0.795881
vt 0.967935 0.780572
vt 0.929742 0.681890
vt 0.943947 0.696983
vt 0.099742 0.887772
vt 0.105807 0.885039
vt 0.144303 0.983739
vt 0.132000 0.989282
vt 0.093677 0.890504
vt 0.099742 0.887772
vt 0.132000 0.989282
vt 0.099742 0.887772
vt 0.144303 0.983739
vt 0.741388 0.815166
vt 0.685865 0.698782
vt 0.701940 0.715675
vt 0.685865 0.698782
vt 0.708778 0.780898
vt 0.669789 0.681890
vt 0.741388 0.815166
vt 0.708778 0.780898
vt 0.685865 0.698782
vt 0.475128 0.890255
vt 0.434279 0.959958
vt 0.428571 0.962529
vt 0.434279 0.959958
vt 0.486710 0.885039
vt 0.439987 0.957388
vt 0.475128 0.890255
vt 0.486710 0.885039
vt 0.434279 0.959958
vt 0.737385 0.566884
vt 0.618420 0.443337
vt 0.578454 0.343307
vt 0.695744 0.465115
vt 0.047944 0.812130
vt 0.343526 0.681890
vt 0.293679 0.753225
vt 0.002342 0.881593
vt 0.421689 0.827674
vt 0.348946 0.752254
vt 0.392919 0.681890
vt 0.466721 0.758409
vt 0.379920 0.965171
vt 0.327869 0.954942
vt 0.370879 0.885039
vt 0.423688 0.895418
vt 0.491803 0.885039
vt 0.491803 0.885039
vt 0.491803 0.885039
vt 0.491803 0.885039
vt 0.491803 0.885039
vt 0.491803 0.885039
vt 0.491803 0.885039
vt 0.491803 0.885039
vt 0.491803 0.885039
vt 0.491803 0.885039
vt 0.491803 0.885039
vt 0.491803 0.885039
vt 0.491803 0.885039
vt 0.491803 0.885039
vt 0.491803 0.885039
vt 0.491803 0.885039
vt 0.491803 0.885039
vt 0.491803 0.885039
vt 0.491803 0.885039
vt 0.491803 0.885039
vn 0 1 0
vn 0 1 0
vn 0 1 0
vn 0 1 0
vn 0 1 0
vn 0 1 0
vn 0 1 0
vn 0 1 0
vn 0 1 0
vn 0 1 0
vn 0 1 0
vn 0 1 0
vn 0 1 0
vn 0 1 0
vn 0 1 0
vn -0.8384645 0 -0.5449562
vn -0.8384645 0 -0.5449562
vn -0.8384645 0 -0.5449562
vn -0.8384645 0 -0.5449562
vn 0.5440281 0 -0.839067
vn 0.5440281 0 -0.839067
vn 0.5440281 0 -0.839067
vn 0.5440281 0 -0.839067
vn -0.8388983 0 -0.5442882
vn -0.8388983 0 -0.5442882
vn -0.8388983 0 -0.5442882
vn -0.8388983 0 -0.5442882
vn -0.5444094 0 0.8388196
vn -0.5444094 0 0.8388196
vn -0.5444094 0 0.8388196
vn -0.5444094 0 0.8388196
vn -0.8387051 0 -0.5445858
vn -0.8387051 0 -0.5445858
vn -0.8387051 0 -0.5445858
vn -0.8387051 0 -0.5445858
vn -0.5440822 0 0.8390319
vn -0.5440822 0 0.8390319
vn -0.5440822 0 0.8390319
vn -0.5440822 0 0.8390319
vn -0.5440822 0 0.8390319
vn -0.5440822 0 0.8390319
vn -0.5440822 0 0.8390319
vn -0.5440822 0 0.8390319
vn -0.5440822 0 0.8390319
vn 0.8389714 0 0.5441755
vn 0.8389714 0 0.5441755
vn 0.8389714 0 0.5441755
vn 0.8389714 0 0.5441755
vn 0.8389714 0 0.5441755
vn 0.8389714 0 0.5441755
vn 0.8389714 -2.208791E-11 0.5441755
vn 0.8389714 -2.208791E-11 0.5441755
vn 0.8389714 -2.208791E-11 0.5441755
vn 0.5437413 0 -0.8392529
vn 0.5437413 0 -0.8392529
vn 0.5437413 0 -0.8392529
vn 0.5437413 0 -0.8392529
vn 0.8389285 0 0.5442416
vn 0.8389285 0 0.5442416
vn 0.8389285 0 0.5442416
vn 0.8389285 0 0.5442416
vn 0.8389285 0 0.5442416
vn 0.8389285 0 0.5442416
vn 0.8389285 0 0.5442416
vn 0.8389285 0 0.5442416
vn 0.8389285 0 0.5442416
vn 0.5445934 0 -0.8387002
vn 0.5445934 0 -0.8387002
vn 0.5445934 0 -0.8387002
vn 0.5445934 0 -0.8387002
vn 0.5445934 0 -0.8387002
vn 0.5445934 0 -0.8387002
vn 0.5445934 3.404256E-11 -0.8387002
vn 0.5445934 3.404256E-11 -0.8387002
vn 0.5445934 3.404256E-11 -0.8387002
vn -0.8386411 0 -0.5446844
vn -0.8386411 0 -0.5446844
vn -0.8386411 0 -0.5446844
vn -0.8386411 0 -0.5446844
vn -0.8386411 0 -0.5446844
vn -0.8386411 0 -0.5446844
vn -0.8386411 0 -0.5446844
vn -0.8386411 0 -0.5446844
vn -0.8386411 0 -0.5446844
vn 0.5443277 0 -0.8388726
vn 0.5443277 0 -0.8388726
vn 0.5443277 0 -0.8388726
vn 0.5443277 0 -0.8388726
vn -0.8389497 0 -0.5442089
vn -0.8389497 0 -0.5442089
vn -0.8389497 0 -0.5442089
vn -0.8389497 0 -0.5442089
vn -0.5443405 0 0.8388644
vn -0.5443405 0 0.8388644
vn -0.5443405 0 0.8388644
vn -0.5443405 0 0.8388644
vn -0.958954 0 0.2835617
vn -0.958954 0 0.2835617
vn -0.958954 0 0.2835617
vn -0.958954 0 0.2835617
vn 0 -1 0
vn 0 -1 0
vn 0 -1 0
vn 0 -1 0
vn 0 -1 0
vn 0 -1 0
vn 0 -1 0
vn 0 -1 0
vn 0 -1 0
vn 0 -1 0
vn 0 -1 0
vn 0 -1 0
vn 0 -1 0
vn 0 -1 0
vn 0 -1 0
vn 0 -1 0
vn 0 -1 0
vn 0 -1 0
vn 0 -1 0
vn 0 -1 0

g CDNNDG02_0000230
f 15/15/15 1/1/1 9/9/9
f 15/15/15 12/12/12 13/13/13
f 2/2/2 3/3/3 4/4/4
f 8/8/8 1/1/1 7/7/7
f 2/2/2 5/5/5 7/7/7
f 5/5/5 2/2/2 4/4/4
f 12/12/12 15/15/15 9/9/9
f 7/7/7 5/5/5 6/6/6
f 7/7/7 1/1/1 2/2/2
f 8/8/8 9/9/9 1/1/1
f 12/12/12 9/9/9 10/10/10
f 14/14/14 15/15/15 13/13/13
f 12/12/12 10/10/10 11/11/11
f 16/16/16 18/18/18 19/19/19
f 16/16/16 17/17/17 18/18/18
f 22/22/22 20/20/20 21/21/21
f 20/20/20 22/22/22 23/23/23
f 25/25/25 26/26/26 27/27/27
f 24/24/24 25/25/25 27/27/27
f 31/31/31 28/28/28 30/30/30
f 30/30/30 28/28/28 29/29/29
f 32/32/32 34/34/34 35/35/35
f 32/32/32 33/33/33 34/34/34
f 36/36/36 37/37/37 38/38/38
f 39/39/39 40/40/40 41/41/41
f 42/42/42 43/43/43 44/44/44
f 45/45/45 46/46/46 47/47/47
f 48/48/48 49/49/49 50/50/50
f 51/51/51 52/52/52 53/53/53
f 56/56/56 54/54/54 55/55/55
f 54/54/54 56/56/56 57/57/57
f 58/58/58 59/59/59 60/60/60
f 61/61/61 62/62/62 63/63/63
f 64/64/64 65/65/65 66/66/66
f 67/67/67 68/68/68 69/69/69
f 70/70/70 71/71/71 72/72/72
f 73/73/73 74/74/74 75/75/75
f 76/76/76 77/77/77 78/78/78
f 79/79/79 80/80/80 81/81/81
f 82/82/82 83/83/83 84/84/84
f 86/86/86 87/87/87 85/85/85
f 85/85/85 87/87/87 88/88/88
f 89/89/89 91/91/91 92/92/92
f 89/89/89 90/90/90 91/91/91
f 96/96/96 93/93/93 94/94/94
f 95/95/95 96/96/96 94/94/94
f 99/99/99 97/97/97 98/98/98
f 97/97/97 99/99/99 100/100/100
f 120/120/120 112/112/112 119/119/119
f 108/108/108 109/109/109 107/107/107
f 113/113/113 114/114/114 116/116/116
f 102/102/102 103/103/103 101/101/101
f 119/119/119 112/112/112 113/113/113
f 104/104/104 105/105/105 107/107/107
f 119/119/119 116/116/116 117/117/117
f 104/104/104 101/101/101 103/103/103
f 105/105/105 106/106/106 107/107/107
f 120/120/120 101/101/101 112/112/112
f 110/110/110 107/107/107 109/109/109
f 110/110/110 111/111/111 112/112/112
f 107/107/107 110/110/110 104/104/104
f 110/110/110 112/112/112 104/104/104
f 116/116/116 114/114/114 115/115/115
f 119/119/119 117/117/117 118/118/118
f 112/112/112 101/101/101 104/104/104
f 119/119/119 113/113/113 116/116/116
