v -7.477499 7.664735 5.14193
v -0.8404995 7.664735 9.450931
v 4.270501 7.664735 -0.2840699
v -2.790499 7.664735 0.5619301
v 3.1915 7.664735 -2.49207
v -2.251499 7.664735 -0.2610699
v -2.251499 7.664735 -0.2610699
v 3.1915 7.664735 -2.49207
v -0.4054995 7.664735 -5.74807
v -7.477499 7.664735 5.14193
v 3.1915 7.664735 -2.49207
v -2.790499 7.664735 0.5619301
v -3.806499 7.664735 -0.1030699
v -3.2695 7.664735 -0.9270698
v -0.4054995 7.664735 -5.74807
v -3.2695 7.664735 -0.9270698
v -2.251499 7.664735 -0.2610699
v -0.4054995 7.664735 -5.74807
v -7.477499 7.664735 5.14193
v -2.790499 7.664735 0.5619301
v -3.806499 7.664735 -0.1030699
v -7.477499 7.664735 5.14193
v -3.806499 7.664735 -0.1030699
v -0.4054995 7.664735 -5.74807
v -0.4054995 7.664735 -5.74807
v 3.9345 7.664735 -6.28807
v 1.1285 7.664735 -8.11007
v -0.4054995 7.664735 -5.74807
v 3.1915 7.664735 -2.49207
v 3.9345 7.664735 -6.28807
v -0.8404995 7.664735 9.450931
v 5.1215 7.664735 0.2679301
v 4.7145 7.664735 0.003930131
v -0.8404995 7.664735 9.450931
v 4.7145 7.664735 0.003930131
v 4.270501 7.664735 -0.2840699
v 3.1915 7.664735 -2.49207
v 4.270501 7.664735 -0.2840699
v 4.9585 7.664735 -1.34507
v -7.477499 7.664735 5.14193
v 4.270501 7.664735 -0.2840699
v 3.1915 7.664735 -2.49207
v 3.1915 7.664735 -2.49207
v 5.145501 7.664735 -5.50107
v 3.9345 7.664735 -6.28807
v -3.806499 8.009735 -0.1030699
v -2.9345 8.267735 -0.1320699
v -3.263499 8.267735 -0.3350699
v -3.806499 8.009735 -0.1030699
v -2.790499 8.009735 0.5619301
v -2.9345 8.267735 -0.1320699
v -3.806499 8.009735 -0.1030699
v -3.263499 8.267735 -0.3350699
v -3.2695 8.009735 -0.9270698
v -2.9345 8.267735 -0.1320699
v -2.790499 8.009735 0.5619301
v -2.251499 8.009735 -0.2610699
v -3.2695 8.009735 -0.9270698
v -2.9345 8.267735 -0.1320699
v -2.251499 8.009735 -0.2610699
v -3.2695 8.009735 -0.9270698
v -3.263499 8.267735 -0.3350699
v -2.9345 8.267735 -0.1320699
v 2.7415 0.09273523 -10.59307
v 5.546501 0.09273523 -8.77107
v 6.9635 0.09273523 -10.56907
v 4.0115 0.09273523 -12.54907
v 5.546501 0.09273523 -8.77107
v 5.693501 0.09273523 -8.67507
v 6.9635 0.09273523 -10.56907
v 1.1285 6.467735 -8.11007
v 5.546501 6.467735 -8.77107
v 2.7415 6.467735 -10.59307
v 1.1285 6.467735 -8.11007
v 3.9345 6.465735 -6.28807
v 5.546501 6.467735 -8.77107
v 4.7145 7.664735 0.003930131
v 5.1215 7.664735 0.2679301
v 5.1215 -7.338962 0.2679301
v 4.7145 -7.338962 0.003930131
v 4.270501 7.664735 -0.2840699
v 4.7145 7.664735 0.003930131
v 4.7145 -7.338962 0.003930131
v 4.270501 -7.338962 -0.2840699
v 4.270501 -7.338962 -0.2840699
v 4.9585 -7.338962 -1.34507
v 4.9585 7.664735 -1.34507
v 4.270501 7.664735 -0.2840699
v 3.1915 7.664735 -2.49207
v 4.9585 7.664735 -1.34507
v 4.9585 -7.338962 -1.34507
v 3.1915 -7.338962 -2.49207
v 3.1915 -7.338962 -2.49207
v 5.145501 -7.338962 -5.50107
v 5.145501 7.664735 -5.50107
v 3.1915 7.664735 -2.49207
v 3.9345 7.664735 -6.28807
v 4.54 -7.338962 -5.89457
v 3.9345 6.465735 -6.28807
v 3.9345 6.465735 -6.28807
v 4.54 -7.338962 -5.89457
v 3.9345 -7.338962 -6.28807
v 4.54 -7.338962 -5.89457
v 5.145501 7.664735 -5.50107
v 5.145501 -7.338962 -5.50107
v 3.9345 7.664735 -6.28807
v 5.145501 7.664735 -5.50107
v 4.54 -7.338962 -5.89457
v 1.1285 7.664735 -8.11007
v 3.9345 7.664735 -6.28807
v 3.9345 6.465735 -6.28807
v 1.1285 6.467735 -8.11007
v -0.4054995 7.664735 -5.74807
v 1.1285 6.467735 -8.11007
v 1.1285 -7.338962 -8.11007
v -0.4054995 -7.338962 -5.74807
v -0.4054995 7.664735 -5.74807
v 1.1285 7.664735 -8.11007
v 1.1285 6.467735 -8.11007
v -7.477499 7.664735 5.14193
v -0.4054995 7.664735 -5.74807
v -0.4054995 -7.338962 -5.74807
v -7.477499 -7.338962 5.14193
v 2.7415 0.09273523 -10.59307
v 4.0115 0.09273523 -12.54907
v 4.0115 -7.338962 -12.54907
v 2.7415 -7.338962 -10.59307
v 1.1285 6.467735 -8.11007
v 2.7415 0.09273523 -10.59307
v 2.7415 -7.338962 -10.59307
v 1.1285 -7.338962 -8.11007
v 1.1285 6.467735 -8.11007
v 2.7415 6.467735 -10.59307
v 2.7415 0.09273523 -10.59307
v -7.477499 -7.338962 5.14193
v -0.8404995 -7.338962 9.450931
v -0.8404995 7.664735 9.450931
v -7.477499 7.664735 5.14193
v -0.8404995 -7.338962 9.450931
v 5.1215 -7.338962 0.2679301
v 5.1215 7.664735 0.2679301
v -0.8404995 7.664735 9.450931
v -3.806499 7.664735 -0.1030699
v -2.790499 7.664735 0.5619301
v -2.790499 8.009735 0.5619301
v -3.806499 8.009735 -0.1030699
v -3.806499 8.009735 -0.1030699
v -3.2695 8.009735 -0.9270698
v -3.2695 7.664735 -0.9270698
v -3.806499 7.664735 -0.1030699
v -2.790499 7.664735 0.5619301
v -2.251499 7.664735 -0.2610699
v -2.251499 8.009735 -0.2610699
v -2.790499 8.009735 0.5619301
v -3.2695 8.009735 -0.9270698
v -2.251499 8.009735 -0.2610699
v -2.251499 7.664735 -0.2610699
v -3.2695 7.664735 -0.9270698
v 5.546501 -7.338962 -8.77107
v 5.693501 -7.338962 -8.67507
v 5.693501 0.09273523 -8.67507
v 5.546501 0.09273523 -8.77107
v 5.693501 -7.338962 -8.67507
v 6.9635 -7.338962 -10.56907
v 6.9635 0.09273523 -10.56907
v 5.693501 0.09273523 -8.67507
v 4.0115 0.09273523 -12.54907
v 5.487501 -7.338962 -11.55907
v 4.0115 -7.338962 -12.54907
v 5.487501 -7.338962 -11.55907
v 6.9635 0.09273523 -10.56907
v 6.9635 -7.338962 -10.56907
v 4.0115 0.09273523 -12.54907
v 6.9635 0.09273523 -10.56907
v 5.487501 -7.338962 -11.55907
v 4.7405 -7.338962 -7.52957
v 5.546501 0.09273523 -8.77107
v 5.546501 6.467735 -8.77107
v 4.7405 -7.338962 -7.52957
v 5.546501 -7.338962 -8.77107
v 5.546501 0.09273523 -8.77107
v 3.9345 6.465735 -6.28807
v 3.9345 -7.338962 -6.28807
v 4.7405 -7.338962 -7.52957
v 3.9345 6.465735 -6.28807
v 4.7405 -7.338962 -7.52957
v 5.546501 6.467735 -8.77107
v 2.7415 6.467735 -10.59307
v 5.546501 6.467735 -8.77107
v 5.546501 0.09273523 -8.77107
v 2.7415 0.09273523 -10.59307
v 4.7145 -7.338962 0.003930131
v 5.1215 -7.338962 0.2679301
v -0.8404995 -7.338962 9.450931
v -7.477499 -7.338962 5.14193
v -0.4054995 -7.338962 -5.74807
v 1.1285 -7.338962 -8.11007
v 2.7415 -7.338962 -10.59307
v 4.0115 -7.338962 -12.54907
v 5.487501 -7.338962 -11.55907
v 6.9635 -7.338962 -10.56907
v 5.693501 -7.338962 -8.67507
v 5.546501 -7.338962 -8.77107
v 4.7405 -7.338962 -7.52957
v 3.9345 -7.338962 -6.28807
v 4.54 -7.338962 -5.89457
v 5.145501 -7.338962 -5.50107
v 3.1915 -7.338962 -2.49207
v 4.9585 -7.338962 -1.34507
v 4.270501 -7.338962 -0.2840699
vt 0.158192 0.678414
vt 0.002075 0.503374
vt 0.354070 0.367857
vt 0.323708 0.554388
vt 0.433986 0.396234
vt 0.353462 0.540108
vt 0.353462 0.540108
vt 0.433986 0.396234
vt 0.551898 0.491056
vt 0.158192 0.678414
vt 0.433986 0.396234
vt 0.323708 0.554388
vt 0.347800 0.581183
vt 0.377590 0.566957
vt 0.551898 0.491056
vt 0.377590 0.566957
vt 0.353462 0.540108
vt 0.551898 0.491056
vt 0.158192 0.678414
vt 0.323708 0.554388
vt 0.347800 0.581183
vt 0.158192 0.678414
vt 0.347800 0.581183
vt 0.551898 0.491056
vt 0.551898 0.491056
vt 0.571290 0.376403
vt 0.637296 0.450414
vt 0.551898 0.491056
vt 0.433986 0.396234
vt 0.571290 0.376403
vt 0.002075 0.503374
vt 0.334071 0.345411
vt 0.343636 0.356146
vt 0.002075 0.503374
vt 0.343636 0.356146
vt 0.354070 0.367857
vt 0.433986 0.396234
vt 0.354070 0.367857
vt 0.392431 0.349628
vt 0.158192 0.678414
vt 0.354070 0.367857
vt 0.433986 0.396234
vt 0.433986 0.396234
vt 0.542778 0.344461
vt 0.571290 0.376403
vt 0.892677 0.913364
vt 0.895507 0.890135
vt 0.902652 0.898449
vt 0.892677 0.913364
vt 0.869295 0.887709
vt 0.895507 0.890135
vt 0.002075 0.999182
vt 0.011933 0.984825
vt 0.030197 0.985853
vt 0.934197 0.905213
vt 0.908714 0.900955
vt 0.936586 0.887709
vt 0.833846 0.913270
vt 0.809129 0.905673
vt 0.811492 0.887709
vt 0.833846 0.913270
vt 0.815945 0.913938
vt 0.809129 0.905673
vt 0.680073 0.792316
vt 0.615439 0.719689
vt 0.679089 0.682853
vt 0.749325 0.759284
vt 0.615439 0.719689
vt 0.612033 0.715883
vt 0.679089 0.682853
vt 0.517551 0.798427
vt 0.541049 0.682853
vt 0.606301 0.756111
vt 0.517551 0.798427
vt 0.452282 0.725139
vt 0.541049 0.682853
vt 0.091286 0.984825
vt 0.091286 0.984825
vt 0.091286 0.984825
vt 0.091286 0.984825
vt 0.091286 0.984825
vt 0.091286 0.984825
vt 0.091286 0.984825
vt 0.091286 0.984825
vt 0.443983 0.905244
vt 0.481267 0.887709
vt 0.600243 0.930032
vt 0.562258 0.947897
vt 0.080913 0.984825
vt 0.080913 0.984825
vt 0.080913 0.984825
vt 0.080913 0.984825
vt 0.002075 0.937946
vt 0.108248 0.887709
vt 0.230473 0.930307
vt 0.122301 0.981489
vt 0.070539 0.984825
vt 0.070539 0.984825
vt 0.070539 0.984825
vt 0.070539 0.984825
vt 0.070539 0.984825
vt 0.070539 0.984825
vt 0.070539 0.984825
vt 0.070539 0.984825
vt 0.070539 0.984825
vt 0.070539 0.984825
vt 0.070539 0.984825
vt 0.070539 0.984825
vt 0.070539 0.984825
vt 0.070539 0.984825
vt 0.070539 0.984825
vt 0.070539 0.984825
vt 0.520113 0.087222
vt 0.595627 0.050889
vt 0.475989 0.111456
vt 0.391515 0.152361
vt 0.520113 0.087222
vt 0.606197 0.045538
vt 0.595627 0.050889
vt 0.123252 0.279380
vt 0.520113 0.087222
vt 0.391515 0.152361
vt 0.002075 0.340926
vt 0.629505 0.035701
vt 0.700117 0.001517
vt 0.634751 0.034577
vt 0.564793 0.068444
vt 0.595627 0.050889
vt 0.629505 0.035701
vt 0.564793 0.068444
vt 0.475989 0.111456
vt 0.595627 0.050889
vt 0.685986 0.007123
vt 0.629505 0.035701
vt 0.799370 0.582145
vt 0.643154 0.409185
vt 0.760821 0.344461
vt 0.920006 0.520715
vt 0.002075 0.837442
vt 0.327487 0.682853
vt 0.446394 0.725833
vt 0.114859 0.883327
vt 0.861153 0.914858
vt 0.838174 0.889134
vt 0.840888 0.887709
vt 0.863877 0.913443
vt 0.038019 0.998155
vt 0.066267 0.984825
vt 0.063505 0.986189
vt 0.035270 0.999512
vt 0.941909 0.900749
vt 0.969894 0.887709
vt 0.972526 0.888708
vt 0.944529 0.901754
vt 0.122407 0.984825
vt 0.122407 0.984825
vt 0.122407 0.984825
vt 0.122407 0.984825
vt 0.741989 0.923678
vt 0.738589 0.919977
vt 0.800893 0.887709
vt 0.804324 0.891445
vt 0.605809 0.919964
vt 0.672173 0.887709
vt 0.733364 0.907931
vt 0.666387 0.940483
vt 0.888142 0.682853
vt 0.788527 0.740133
vt 0.755187 0.702093
vt 0.788527 0.740133
vt 0.955429 0.759628
vt 0.821867 0.778173
vt 0.888142 0.682853
vt 0.955429 0.759628
vt 0.788527 0.740133
vt 0.280270 0.908383
vt 0.384991 0.908465
vt 0.438191 0.926578
vt 0.280270 0.908383
vt 0.324027 0.887709
vt 0.384991 0.908465
vt 0.349149 0.968634
vt 0.236515 0.929057
vt 0.280270 0.908383
vt 0.349149 0.968634
vt 0.280270 0.908383
vt 0.438191 0.926578
vt 0.101660 0.984825
vt 0.101660 0.984825
vt 0.101660 0.984825
vt 0.101660 0.984825
vt 0.112033 0.984825
vt 0.112033 0.984825
vt 0.112033 0.984825
vt 0.112033 0.984825
vt 0.112033 0.984825
vt 0.112033 0.984825
vt 0.112033 0.984825
vt 0.112033 0.984825
vt 0.112033 0.984825
vt 0.112033 0.984825
vt 0.112033 0.984825
vt 0.112033 0.984825
vt 0.112033 0.984825
vt 0.112033 0.984825
vt 0.112033 0.984825
vt 0.112033 0.984825
vt 0.112033 0.984825
vt 0.112033 0.984825
vt 0.112033 0.984825
vn 0 1 0
vn 0 1 0
vn 0 1 0
vn 0 1 0
vn 0 1 0
vn 0 1 0
vn 0 1 0
vn 0 1 0
vn 0 1 0
vn 0 1 0
vn 0 1 0
vn 0 1 0
vn 0 1 0
vn 0 1 0
vn 0 1 0
vn 0 1 0
vn 0 1 0
vn 0 1 0
vn 0 1 0
vn 0 1 0
vn 0 1 0
vn 0 1 0
vn 0 1 0
vn 0 1 0
vn 0 1 0
vn 0 1 0
vn 0 1 0
vn 0 1 0
vn 0 1 0
vn 0 1 0
vn 0 1 0
vn 0 1 0
vn 0 1 0
vn 0 1 0
vn 0 1 0
vn 0 1 0
vn 0 1 0
vn 0 1 0
vn 0 1 0
vn 0 1 0
vn 0 1 0
vn 0 1 0
vn 0 1 0
vn 0 1 0
vn 0 1 0
vn -0.2475779 0.8818764 0.401247
vn -0.2475779 0.8818764 0.401247
vn -0.2475779 0.8818764 0.401247
vn -0.2504078 0.8893425 0.3825779
vn -0.2504078 0.8893425 0.3825779
vn -0.2504078 0.8893425 0.3825779
vn -0.5177151 0.7862163 -0.3373944
vn -0.5177151 0.7862163 -0.3373944
vn -0.5177151 0.7862163 -0.3373944
vn 0.3831863 0.8889257 0.2509568
vn 0.3831863 0.8889257 0.2509568
vn 0.3831863 0.8889257 0.2509568
vn 0.2584136 0.8815913 -0.3949926
vn 0.2584136 0.8815913 -0.3949926
vn 0.2584136 0.8815913 -0.3949926
vn 0.2405374 0.8889146 -0.3898365
vn 0.2405374 0.8889146 -0.3898365
vn 0.2405374 0.8889146 -0.3898365
vn 0 1 0
vn 0 1 0
vn 0 1 0
vn 0 1 0
vn 0 1 0
vn 0 1 0
vn 0 1 0
vn 0 1 0
vn 0 1 0
vn 0 1 0
vn 0.0001334765 0.9999996 0.0008921318
vn 0.0001334765 0.9999996 0.0008921318
vn 0.0001334765 0.9999996 0.0008921318
vn 0.5441911 0 -0.8389613
vn 0.5441911 0 -0.8389613
vn 0.5441911 0 -0.8389613
vn 0.5441911 0 -0.8389613
vn 0.5441911 0 -0.8389613
vn 0.5441911 0 -0.8389613
vn 0.5441911 0 -0.8389613
vn 0.5441911 0 -0.8389613
vn 0.8390393 0 0.5440708
vn 0.8390393 0 0.5440708
vn 0.8390393 0 0.5440708
vn 0.8390393 0 0.5440708
vn 0.544471 0 -0.8387797
vn 0.544471 0 -0.8387797
vn 0.544471 0 -0.8387797
vn 0.544471 0 -0.8387797
vn 0.8386791 0 0.5446258
vn 0.8386791 0 0.5446258
vn 0.8386791 0 0.5446258
vn 0.8386791 0 0.5446258
vn 0.5449153 0 -0.8384911
vn 0.5449153 0 -0.8384911
vn 0.5449153 0 -0.8384911
vn 0.5449153 0 -0.8384911
vn 0.5449153 0 -0.8384911
vn 0.5449153 0 -0.8384911
vn 0.5449153 0 -0.8384911
vn 0.5449153 0 -0.8384911
vn 0.5449153 0 -0.8384911
vn 0.5449153 2.602377E-11 -0.8384911
vn 0.5449153 2.602377E-11 -0.8384911
vn 0.5449153 2.602377E-11 -0.8384911
vn 0.544589 0 -0.838703
vn 0.544589 0 -0.838703
vn 0.544589 0 -0.838703
vn 0.544589 0 -0.838703
vn -0.8386545 0 -0.5446638
vn -0.8386545 0 -0.5446638
vn -0.8386545 0 -0.5446638
vn -0.8386545 0 -0.5446638
vn -0.8386545 0 -0.5446638
vn -0.8386545 0 -0.5446638
vn -0.8386545 0 -0.5446638
vn -0.8386723 0 -0.5446364
vn -0.8386723 0 -0.5446364
vn -0.8386723 0 -0.5446364
vn -0.8386723 0 -0.5446364
vn -0.8387178 0 -0.5445663
vn -0.8387178 0 -0.5445663
vn -0.8387178 0 -0.5445663
vn -0.8387178 0 -0.5445663
vn -0.8385902 0 -0.5447628
vn -0.8385902 0 -0.5447628
vn -0.8385902 0 -0.5447628
vn -0.8385902 0 -0.5447628
vn -0.8385902 0 -0.5447628
vn -0.8385902 0 -0.5447628
vn -0.8385902 0 -0.5447628
vn -0.5445396 0 0.8387351
vn -0.5445396 0 0.8387351
vn -0.5445396 0 0.8387351
vn -0.5445396 0 0.8387351
vn 0.8387336 0 0.544542
vn 0.8387336 0 0.544542
vn 0.8387336 0 0.544542
vn 0.8387336 0 0.544542
vn -0.5476487 0 0.8367084
vn -0.5476487 0 0.8367084
vn -0.5476487 0 0.8367084
vn -0.5476487 0 0.8367084
vn -0.8377926 0 -0.5459886
vn -0.8377926 0 -0.5459886
vn -0.8377926 0 -0.5459886
vn -0.8377926 0 -0.5459886
vn 0.8365575 0 0.5478791
vn 0.8365575 0 0.5478791
vn 0.8365575 0 0.5478791
vn 0.8365575 0 0.5478791
vn 0.5474708 0 -0.8368248
vn 0.5474708 0 -0.8368248
vn 0.5474708 0 -0.8368248
vn 0.5474708 0 -0.8368248
vn -0.5467889 0 0.8372705
vn -0.5467889 0 0.8372705
vn -0.5467889 0 0.8372705
vn -0.5467889 0 0.8372705
vn 0.8305631 0 0.5569246
vn 0.8305631 0 0.5569246
vn 0.8305631 0 0.5569246
vn 0.8305631 0 0.5569246
vn 0.5570352 0 -0.8304889
vn 0.5570352 0 -0.8304889
vn 0.5570352 0 -0.8304889
vn 0.5570352 0 -0.8304889
vn 0.5570352 0 -0.8304889
vn 0.5570352 0 -0.8304889
vn 0.5570352 2.181443E-12 -0.8304889
vn 0.5570352 2.181443E-12 -0.8304889
vn 0.5570352 2.181443E-12 -0.8304889
vn 0.8387445 0 0.5445252
vn 0.8387445 0 0.5445252
vn 0.8387445 0 0.5445252
vn 0.8387445 0 0.5445252
vn 0.8387445 0 0.5445252
vn 0.8387445 0 0.5445252
vn 0.8387445 0 0.5445252
vn 0.8387445 0 0.5445252
vn 0.8387445 0 0.5445252
vn 0.8387445 -2.01348E-11 0.5445252
vn 0.8387445 -2.01348E-11 0.5445252
vn 0.8387445 -2.01348E-11 0.5445252
vn 0.5447256 0 -0.8386143
vn 0.5447256 0 -0.8386143
vn 0.5447256 0 -0.8386143
vn 0.5447256 0 -0.8386143
vn 0 -1 0
vn 0 -1 0
vn 0 -1 0
vn 0 -1 0
vn 0 -1 0
vn 0 -1 0
vn 0 -1 0
vn 0 -1 0
vn 0 -1 0
vn 0 -1 0
vn 0 -1 0
vn 0 -1 0
vn 0 -1 0
vn 0 -1 0
vn 0 -1 0
vn 0 -1 0
vn 0 -1 0
vn 0 -1 0
vn 0 -1 0

g CDNNDG02_0012130
f 1/1/1 2/2/2 3/3/3
f 4/4/4 5/5/5 6/6/6
f 7/7/7 8/8/8 9/9/9
f 10/10/10 11/11/11 12/12/12
f 13/13/13 14/14/14 15/15/15
f 16/16/16 17/17/17 18/18/18
f 19/19/19 20/20/20 21/21/21
f 22/22/22 23/23/23 24/24/24
f 25/25/25 26/26/26 27/27/27
f 28/28/28 29/29/29 30/30/30
f 31/31/31 32/32/32 33/33/33
f 34/34/34 35/35/35 36/36/36
f 37/37/37 38/38/38 39/39/39
f 40/40/40 41/41/41 42/42/42
f 43/43/43 44/44/44 45/45/45
f 46/46/46 47/47/47 48/48/48
f 49/49/49 50/50/50 51/51/51
f 52/52/52 53/53/53 54/54/54
f 55/55/55 56/56/56 57/57/57
f 58/58/58 59/59/59 60/60/60
f 61/61/61 62/62/62 63/63/63
f 67/67/67 64/64/64 65/65/65
f 66/66/66 67/67/67 65/65/65
f 68/68/68 69/69/69 70/70/70
f 71/71/71 72/72/72 73/73/73
f 74/74/74 75/75/75 76/76/76
f 77/77/77 79/79/79 80/80/80
f 77/77/77 78/78/78 79/79/79
f 81/81/81 83/83/83 84/84/84
f 81/81/81 82/82/82 83/83/83
f 86/86/86 87/87/87 88/88/88
f 85/85/85 86/86/86 88/88/88
f 91/91/91 89/89/89 90/90/90
f 89/89/89 91/91/91 92/92/92
f 94/94/94 95/95/95 96/96/96
f 93/93/93 94/94/94 96/96/96
f 97/97/97 98/98/98 99/99/99
f 100/100/100 101/101/101 102/102/102
f 103/103/103 104/104/104 105/105/105
f 106/106/106 107/107/107 108/108/108
f 110/110/110 111/111/111 112/112/112
f 109/109/109 110/110/110 112/112/112
f 114/114/114 115/115/115 116/116/116
f 113/113/113 114/114/114 116/116/116
f 117/117/117 118/118/118 119/119/119
f 121/121/121 122/122/122 123/123/123
f 120/120/120 121/121/121 123/123/123
f 124/124/124 125/125/125 126/126/126
f 127/127/127 124/124/124 126/126/126
f 131/131/131 128/128/128 129/129/129
f 129/129/129 130/130/130 131/131/131
f 132/132/132 133/133/133 134/134/134
f 138/138/138 135/135/135 137/137/137
f 137/137/137 135/135/135 136/136/136
f 139/139/139 141/141/141 142/142/142
f 139/139/139 140/140/140 141/141/141
f 146/146/146 143/143/143 145/145/145
f 145/145/145 143/143/143 144/144/144
f 150/150/150 147/147/147 149/149/149
f 149/149/149 147/147/147 148/148/148
f 151/151/151 153/153/153 154/154/154
f 151/151/151 152/152/152 153/153/153
f 155/155/155 157/157/157 158/158/158
f 155/155/155 156/156/156 157/157/157
f 162/162/162 159/159/159 160/160/160
f 161/161/161 162/162/162 160/160/160
f 164/164/164 165/165/165 163/163/163
f 163/163/163 165/165/165 166/166/166
f 167/167/167 168/168/168 169/169/169
f 170/170/170 171/171/171 172/172/172
f 173/173/173 174/174/174 175/175/175
f 176/176/176 177/177/177 178/178/178
f 179/179/179 180/180/180 181/181/181
f 182/182/182 183/183/183 184/184/184
f 185/185/185 186/186/186 187/187/187
f 189/189/189 190/190/190 188/188/188
f 188/188/188 190/190/190 191/191/191
f 210/210/210 195/195/195 208/208/208
f 210/210/210 208/208/208 209/209/209
f 197/197/197 198/198/198 204/204/204
f 194/194/194 192/192/192 193/193/193
f 210/210/210 192/192/192 194/194/194
f 208/208/208 196/196/196 205/205/205
f 195/195/195 210/210/210 194/194/194
f 196/196/196 208/208/208 195/195/195
f 203/203/203 201/201/201 202/202/202
f 198/198/198 199/199/199 200/200/200
f 205/205/205 196/196/196 197/197/197
f 208/208/208 206/206/206 207/207/207
f 203/203/203 204/204/204 198/198/198
f 205/205/205 206/206/206 208/208/208
f 203/203/203 200/200/200 201/201/201
f 203/203/203 198/198/198 200/200/200
f 204/204/204 205/205/205 197/197/197
