v 5.500147 6.205003 6.138007
v 8.585147 6.205003 1.328007
v 5.856147 7.727004 -0.4229926
v 2.108147 7.727004 5.430007
v 4.833147 6.205003 7.178007
v 5.500147 6.205003 6.138007
v 2.108147 7.727004 5.430007
v 5.500147 6.205003 6.138007
v 5.856147 7.727004 -0.4229926
v -5.921853 7.727004 0.2800074
v 2.108147 7.727004 5.430007
v 5.856147 7.727004 -0.4229926
v -2.979853 7.727004 -4.180993
v -2.979853 7.727004 -4.180993
v 5.856147 7.727004 -0.4229926
v -2.095853 7.727004 -5.522993
v -4.561853 6.440003 -7.103992
v -2.979853 7.727004 -4.180993
v -2.095853 7.727004 -5.522993
v -6.208853 6.443004 -4.535993
v -5.384853 6.442004 -5.819993
v -5.012853 6.205003 -7.393992
v -6.208853 6.443004 -4.535993
v -5.921853 7.727004 0.2800074
v -2.979853 7.727004 -4.180993
v -8.764853 6.205003 -1.543993
v -5.921853 7.727004 0.2800074
v -6.208853 6.443004 -4.535993
v -5.384853 6.442004 -5.819993
v -4.561853 6.440003 -7.103992
v -5.012853 6.205003 -7.393992
v -8.764853 6.205003 -1.543993
v -6.208853 6.443004 -4.535993
v -5.012853 6.205003 -7.393992
v -5.384853 7.727004 -5.819993
v -2.979853 7.727004 -4.180993
v -4.561853 6.440003 -7.103992
v -6.208853 6.443004 -4.535993
v -2.979853 7.727004 -4.180993
v -5.384853 7.727004 -5.819993
v 4.833147 5.616004 7.178007
v 6.224147 5.321003 8.070007
v 6.891147 5.321003 7.030007
v 5.500147 5.616004 6.138007
v 4.833147 5.616004 7.178007
v 5.500147 5.616004 6.138007
v 5.500147 6.205003 6.138007
v 4.833147 6.205003 7.178007
v 5.500147 -7.413602 6.138007
v 8.585147 -7.413602 1.328007
v 8.585147 6.205003 1.328007
v 5.500147 5.616004 6.138007
v 5.500147 6.205003 6.138007
v 5.500147 5.616004 6.138007
v 8.585147 6.205003 1.328007
v 5.856147 7.727004 -0.4229926
v 7.220647 -7.413602 0.4525073
v 5.856147 -7.413602 -0.4229926
v 7.220647 -7.413602 0.4525073
v 8.585147 6.205003 1.328007
v 8.585147 -7.413602 1.328007
v 5.856147 7.727004 -0.4229926
v 8.585147 6.205003 1.328007
v 7.220647 -7.413602 0.4525073
v -2.095853 7.727004 -5.522993
v 5.856147 7.727004 -0.4229926
v 5.856147 -7.413602 -0.4229926
v -2.095853 -7.413602 -5.522993
v -4.561853 6.440003 -7.103992
v -2.095853 7.727004 -5.522993
v -2.095853 -7.413602 -5.522993
v -4.561853 -7.413602 -7.103992
v -5.012853 6.205003 -7.393992
v -4.561853 6.440003 -7.103992
v -4.561853 -7.413602 -7.103992
v -5.012853 -7.413602 -7.393992
v 2.108147 7.727004 5.430007
v 4.833147 5.616004 7.178007
v 4.833147 6.205003 7.178007
v 2.108147 -7.413602 5.430007
v 4.833147 -7.413602 7.178007
v 4.833147 5.616004 7.178007
v 2.108147 7.727004 5.430007
v -5.921853 -7.413602 0.2800074
v 2.108147 -7.413602 5.430007
v 2.108147 7.727004 5.430007
v -5.921853 7.727004 0.2800074
v -7.343353 -7.413602 -0.6319926
v -5.921853 -7.413602 0.2800074
v -5.921853 7.727004 0.2800074
v -8.764853 6.205003 -1.543993
v -8.764853 -7.413602 -1.543993
v -7.343353 -7.413602 -0.6319926
v -8.764853 6.205003 -1.543993
v -7.343353 -7.413602 -0.6319926
v -5.921853 7.727004 0.2800074
v 5.528647 -7.413602 7.624007
v 6.224147 -7.413602 8.070007
v 6.224147 5.321003 8.070007
v 4.833147 5.616004 7.178007
v 4.833147 -7.413602 7.178007
v 5.528647 -7.413602 7.624007
v 4.833147 5.616004 7.178007
v 5.528647 -7.413602 7.624007
v 6.224147 5.321003 8.070007
v -8.764853 6.205003 -1.543993
v -5.012853 6.205003 -7.393992
v -5.012853 -7.413602 -7.393992
v -8.764853 -7.413602 -1.543993
v -5.384853 7.727004 -5.819993
v -4.561853 6.440003 -7.103992
v -5.384853 6.442004 -5.819993
v -6.208853 6.443004 -4.535993
v -5.384853 7.727004 -5.819993
v -5.384853 6.442004 -5.819993
v 6.224147 -7.413602 8.070007
v 6.891147 -7.413602 7.030007
v 6.891147 5.321003 7.030007
v 6.224147 5.321003 8.070007
v 5.500147 5.616004 6.138007
v 6.195647 -7.413602 6.584007
v 5.500147 -7.413602 6.138007
v 6.195647 -7.413602 6.584007
v 6.891147 5.321003 7.030007
v 6.891147 -7.413602 7.030007
v 5.500147 5.616004 6.138007
v 6.891147 5.321003 7.030007
v 6.195647 -7.413602 6.584007
v -5.921853 -7.413602 0.2800074
v -7.343353 -7.413602 -0.6319926
v -8.764853 -7.413602 -1.543993
v -5.012853 -7.413602 -7.393992
v -4.561853 -7.413602 -7.103992
v -2.095853 -7.413602 -5.522993
v 5.856147 -7.413602 -0.4229926
v 7.220647 -7.413602 0.4525073
v 8.585147 -7.413602 1.328007
v 5.500147 -7.413602 6.138007
v 6.195647 -7.413602 6.584007
v 6.891147 -7.413602 7.030007
v 6.224147 -7.413602 8.070007
v 5.528647 -7.413602 7.624007
v 4.833147 -7.413602 7.178007
v 2.108147 -7.413602 5.430007
vt 0.466583 0.545890
vt 0.648124 0.464179
vt 0.710741 0.537672
vt 0.489409 0.637133
vt 0.427332 0.563556
vt 0.466583 0.545890
vt 0.489409 0.637133
vt 0.466583 0.545890
vt 0.710741 0.537672
vt 0.201651 0.773568
vt 0.002169 0.564017
vt 0.224047 0.464179
vt 0.370725 0.695242
vt 0.370725 0.695242
vt 0.224047 0.464179
vt 0.421590 0.671705
vt 0.847557 0.848379
vt 0.733189 0.800797
vt 0.783846 0.777612
vt 0.190277 0.869351
vt 0.239230 0.847530
vt 0.299982 0.838803
vt 0.190277 0.869351
vt 0.002169 0.855654
vt 0.172499 0.777612
vt 0.077029 0.938156
vt 0.002169 0.855654
vt 0.190277 0.869351
vt 0.239230 0.847530
vt 0.288187 0.825740
vt 0.299982 0.838803
vt 0.077029 0.938156
vt 0.190277 0.869351
vt 0.299982 0.838803
vt 0.915066 0.839184
vt 0.852495 0.777612
vt 0.966778 0.815007
vt 0.683254 0.868731
vt 0.665944 0.777612
vt 0.727516 0.840320
vt 0.117174 0.995009
vt 0.084599 0.959109
vt 0.122943 0.941791
vt 0.155533 0.977686
vt 0.396903 0.897798
vt 0.436105 0.880208
vt 0.434025 0.881245
vt 0.394794 0.898848
vt 0.481337 0.857657
vt 0.659719 0.777612
vt 0.615477 0.799822
vt 0.436105 0.880208
vt 0.434025 0.881245
vt 0.436105 0.880208
vt 0.615477 0.799822
vt 0.477052 0.097720
vt 0.491918 0.036464
vt 0.525173 0.071436
vt 0.491918 0.036464
vt 0.414317 0.023885
vt 0.458663 0.001493
vt 0.477052 0.097720
vt 0.414317 0.023885
vt 0.491918 0.036464
vt 0.674478 0.305423
vt 0.477052 0.097720
vt 0.525173 0.071436
vt 0.718882 0.275232
vt 0.739418 0.367114
vt 0.674478 0.305423
vt 0.718882 0.275232
vt 0.778929 0.338428
vt 0.751303 0.378376
vt 0.739418 0.367114
vt 0.778929 0.338428
vt 0.789943 0.349985
vt 0.096102 0.096526
vt 0.035579 0.036464
vt 0.033605 0.033145
vt 0.144835 0.179271
vt 0.078504 0.108652
vt 0.035579 0.036464
vt 0.096102 0.096526
vt 0.340249 0.387358
vt 0.144835 0.179271
vt 0.096102 0.096526
vt 0.295289 0.308632
vt 0.374852 0.424192
vt 0.340249 0.387358
vt 0.295289 0.308632
vt 0.370293 0.391628
vt 0.409455 0.461026
vt 0.374852 0.424192
vt 0.370293 0.391628
vt 0.374852 0.424192
vt 0.295289 0.308632
vt 0.061579 0.090628
vt 0.044654 0.072603
vt 0.002169 0.001493
vt 0.035579 0.036464
vt 0.078504 0.108652
vt 0.061579 0.090628
vt 0.035579 0.036464
vt 0.061579 0.090628
vt 0.002169 0.001493
vt 0.715835 0.563573
vt 0.938532 0.464179
vt 0.973784 0.534886
vt 0.754878 0.632585
vt 0.205314 0.956432
vt 0.256996 0.941791
vt 0.208757 0.963050
vt 0.160521 0.984339
vt 0.205314 0.956432
vt 0.208757 0.963050
vt 0.352202 0.794506
vt 0.389845 0.777612
vt 0.344098 0.887939
vt 0.305857 0.905101
vt 0.034839 0.998942
vt 0.062628 0.959239
vt 0.079206 0.976687
vt 0.062628 0.959239
vt 0.002169 0.962973
vt 0.046049 0.941791
vt 0.034839 0.998942
vt 0.002169 0.962973
vt 0.062628 0.959239
vt 0.262473 0.941791
vt 0.262473 0.941791
vt 0.262473 0.941791
vt 0.262473 0.941791
vt 0.262473 0.941791
vt 0.262473 0.941791
vt 0.262473 0.941791
vt 0.262473 0.941791
vt 0.262473 0.941791
vt 0.262473 0.941791
vt 0.262473 0.941791
vt 0.262473 0.941791
vt 0.262473 0.941791
vt 0.262473 0.941791
vt 0.262473 0.941791
vt 0.262473 0.941791
vn 0.3576712 0.905233 0.2294003
vn 0.3576712 0.905233 0.2294003
vn 0.3576712 0.905233 0.2294003
vn 0.3581267 0.9049812 0.2296832
vn 0.3581267 0.9049812 0.2296832
vn 0.3581267 0.9049812 0.2296832
vn 0.3582093 0.905025 0.2293813
vn 0.3582093 0.905025 0.2293813
vn 0.3582093 0.905025 0.2293813
vn 0 1 0
vn 0 1 0
vn 0 1 0
vn 0 1 0
vn 0 1 0
vn 0 1 0
vn 0 1 0
vn -0.3359366 0.9155208 -0.2212876
vn -0.3359366 0.9155208 -0.2212876
vn -0.3359366 0.9155208 -0.2212876
vn -0.3382685 0.9154997 -0.217795
vn -0.3382685 0.9154997 -0.217795
vn -0.3382685 0.9154997 -0.217795
vn -0.3388475 0.9139171 -0.2234677
vn -0.3388475 0.9139171 -0.2234677
vn -0.3388475 0.9139171 -0.2234677
vn -0.3453422 0.9117208 -0.2224951
vn -0.3453422 0.9117208 -0.2224951
vn -0.3453422 0.9117208 -0.2224951
vn -0.3373034 0.9158958 -0.2176265
vn -0.3373034 0.9158958 -0.2176265
vn -0.3373034 0.9158958 -0.2176265
vn -0.3414842 0.9140132 -0.2190169
vn -0.3414842 0.9140132 -0.2190169
vn -0.3414842 0.9140132 -0.2190169
vn 0.363277 0.7641202 -0.5330574
vn 0.363277 0.7641202 -0.5330574
vn 0.363277 0.7641202 -0.5330574
vn -0.3627034 0.7649788 0.5322158
vn -0.3627034 0.7649788 0.5322158
vn -0.3627034 0.7649788 0.5322158
vn 0.1479351 0.9844356 0.09487759
vn 0.1479351 0.9844356 0.09487759
vn 0.1479351 0.9844356 0.09487759
vn 0.1479351 0.9844356 0.09487759
vn 0.8417565 0 0.5398573
vn 0.8417565 0 0.5398573
vn 0.8417565 0 0.5398573
vn 0.8417565 0 0.5398573
vn 0.8417466 0 0.5398728
vn 0.8417466 0 0.5398728
vn 0.8417466 0 0.5398728
vn 0.8417466 0 0.5398728
vn 0.8417466 0 0.5398728
vn 0.8417466 0 0.5398728
vn 0.8417466 0 0.5398728
vn 0.5400248 0 -0.8416491
vn 0.5400248 0 -0.8416491
vn 0.5400248 0 -0.8416491
vn 0.5400248 0 -0.8416491
vn 0.5400248 0 -0.8416491
vn 0.5400248 0 -0.8416491
vn 0.5400248 2.616251E-11 -0.8416491
vn 0.5400248 2.616251E-11 -0.8416491
vn 0.5400248 2.616251E-11 -0.8416491
vn 0.5398585 0 -0.8417558
vn 0.5398585 0 -0.8417558
vn 0.5398585 0 -0.8417558
vn 0.5398585 0 -0.8417558
vn 0.539722 0 -0.8418434
vn 0.539722 0 -0.8418434
vn 0.539722 0 -0.8418434
vn 0.539722 0 -0.8418434
vn 0.5408518 0 -0.8411179
vn 0.5408518 0 -0.8411179
vn 0.5408518 0 -0.8411179
vn 0.5408518 0 -0.8411179
vn -0.5399299 0 0.84171
vn -0.5399299 0 0.84171
vn -0.5399299 0 0.84171
vn -0.5399299 0 0.84171
vn -0.5399299 0 0.84171
vn -0.5399299 0 0.84171
vn -0.5399299 0 0.84171
vn -0.5398566 0 0.841757
vn -0.5398566 0 0.841757
vn -0.5398566 0 0.841757
vn -0.5398566 0 0.841757
vn -0.5399942 0 0.8416687
vn -0.5399942 0 0.8416687
vn -0.5399942 0 0.8416687
vn -0.5399942 0 0.8416687
vn -0.5399942 0 0.8416687
vn -0.5399942 0 0.8416687
vn -0.5399942 -2.616321E-11 0.8416687
vn -0.5399942 -2.616321E-11 0.8416687
vn -0.5399942 -2.616321E-11 0.8416687
vn -0.5398091 0 0.8417875
vn -0.5398091 0 0.8417875
vn -0.5398091 0 0.8417875
vn -0.5398091 0 0.8417875
vn -0.5398091 0 0.8417875
vn -0.5398091 0 0.8417875
vn -0.5398091 -3.164842E-11 0.8417875
vn -0.5398091 -3.164842E-11 0.8417875
vn -0.5398091 -3.164842E-11 0.8417875
vn -0.8417484 0 -0.5398701
vn -0.8417484 0 -0.5398701
vn -0.8417484 0 -0.5398701
vn -0.8417484 0 -0.5398701
vn -0.8419021 0 -0.5396304
vn -0.8419021 0 -0.5396304
vn -0.8419021 0 -0.5396304
vn -0.8416041 0 -0.5400949
vn -0.8416041 0 -0.5400949
vn -0.8416041 0 -0.5400949
vn 0.8417565 0 0.5398573
vn 0.8417565 0 0.5398573
vn 0.8417565 0 0.5398573
vn 0.8417565 0 0.5398573
vn 0.5398091 0 -0.8417875
vn 0.5398091 0 -0.8417875
vn 0.5398091 0 -0.8417875
vn 0.5398091 0 -0.8417875
vn 0.5398091 0 -0.8417875
vn 0.5398091 0 -0.8417875
vn 0.5398091 3.164842E-11 -0.8417875
vn 0.5398091 3.164842E-11 -0.8417875
vn 0.5398091 3.164842E-11 -0.8417875
vn 0 -1 0
vn 0 -1 0
vn 0 -1 0
vn 0 -1 0
vn 0 -1 0
vn 0 -1 0
vn 0 -1 0
vn 0 -1 0
vn 0 -1 0
vn 0 -1 0
vn 0 -1 0
vn 0 -1 0
vn 0 -1 0
vn 0 -1 0
vn 0 -1 0
vn 0 -1 0

g CDNNDG02_0006240
f 1/1/1 2/2/2 3/3/3
f 4/4/4 5/5/5 6/6/6
f 7/7/7 8/8/8 9/9/9
f 11/11/11 12/12/12 13/13/13
f 10/10/10 11/11/11 13/13/13
f 14/14/14 15/15/15 16/16/16
f 17/17/17 18/18/18 19/19/19
f 20/20/20 21/21/21 22/22/22
f 23/23/23 24/24/24 25/25/25
f 26/26/26 27/27/27 28/28/28
f 29/29/29 30/30/30 31/31/31
f 32/32/32 33/33/33 34/34/34
f 35/35/35 36/36/36 37/37/37
f 38/38/38 39/39/39 40/40/40
f 41/41/41 42/42/42 44/44/44
f 43/43/43 44/44/44 42/42/42
f 45/45/45 47/47/47 48/48/48
f 45/45/45 46/46/46 47/47/47
f 50/50/50 51/51/51 52/52/52
f 49/49/49 50/50/50 52/52/52
f 53/53/53 54/54/54 55/55/55
f 56/56/56 57/57/57 58/58/58
f 59/59/59 60/60/60 61/61/61
f 62/62/62 63/63/63 64/64/64
f 68/68/68 65/65/65 67/67/67
f 66/66/66 67/67/67 65/65/65
f 69/69/69 71/71/71 72/72/72
f 69/69/69 70/70/70 71/71/71
f 75/75/75 73/73/73 74/74/74
f 73/73/73 75/75/75 76/76/76
f 77/77/77 78/78/78 79/79/79
f 82/82/82 83/83/83 80/80/80
f 82/82/82 80/80/80 81/81/81
f 87/87/87 84/84/84 86/86/86
f 86/86/86 84/84/84 85/85/85
f 88/88/88 89/89/89 90/90/90
f 91/91/91 92/92/92 93/93/93
f 94/94/94 95/95/95 96/96/96
f 97/97/97 98/98/98 99/99/99
f 100/100/100 101/101/101 102/102/102
f 103/103/103 104/104/104 105/105/105
f 106/106/106 108/108/108 109/109/109
f 106/106/106 107/107/107 108/108/108
f 110/110/110 111/111/111 112/112/112
f 113/113/113 114/114/114 115/115/115
f 117/117/117 118/118/118 116/116/116
f 116/116/116 118/118/118 119/119/119
f 120/120/120 121/121/121 122/122/122
f 123/123/123 124/124/124 125/125/125
f 126/126/126 127/127/127 128/128/128
f 144/144/144 138/138/138 143/143/143
f 144/144/144 134/134/134 135/135/135
f 144/144/144 129/129/129 134/134/134
f 130/130/130 131/131/131 133/133/133
f 142/142/142 143/143/143 138/138/138
f 131/131/131 132/132/132 133/133/133
f 139/139/139 142/142/142 138/138/138
f 139/139/139 140/140/140 141/141/141
f 133/133/133 134/134/134 130/130/130
f 134/134/134 129/129/129 130/130/130
f 135/135/135 136/136/136 138/138/138
f 136/136/136 137/137/137 138/138/138
f 138/138/138 144/144/144 135/135/135
f 142/142/142 139/139/139 141/141/141
