v -15.89946 6.792017 13.32577
v 4.817539 6.792017 -19.32223
v 4.571539 6.792017 -19.47523
v 1.492539 6.792017 -11.46223
v 3.651539 6.792017 -10.07523
v 4.817539 6.792017 -19.32223
v 0.3685387 6.792017 -9.713233
v 1.492539 6.792017 -11.46223
v 4.817539 6.792017 -19.32223
v -2.069207 6.792017 -4.740424
v -1.536976 6.792017 -5.624648
v 0.3685387 6.792017 -9.713233
v -15.89946 6.792017 13.32577
v -2.069207 6.792017 -4.740424
v 0.3685387 6.792017 -9.713233
v -1.536976 6.792017 -5.624648
v 2.527539 6.792017 -8.326233
v 0.3685387 6.792017 -9.713233
v -1.536976 6.792017 -5.624648
v -1.049061 6.792017 -5.330633
v 2.527539 6.792017 -8.326233
v -15.89946 6.792017 13.32577
v -2.245398 6.792017 -4.445582
v -2.069207 6.792017 -4.740424
v 2.527539 6.792017 -8.326233
v 13.80154 6.792017 -10.01523
v 3.651539 6.792017 -10.07523
v -15.89946 6.792017 13.32577
v 0.3685387 6.792017 -9.713233
v 4.817539 6.792017 -19.32223
v 3.651539 6.792017 -10.07523
v 13.80154 6.792017 -10.01523
v 4.817539 6.792017 -19.32223
v -7.256461 6.792017 4.048767
v -1.754697 6.792017 -4.1513
v -2.245398 6.792017 -4.445582
v -15.89946 6.792017 13.32577
v -7.265461 6.792017 6.198767
v -8.254461 6.792017 5.534767
v -15.89946 6.792017 13.32577
v -8.254461 6.792017 5.534767
v -7.256461 6.792017 4.048767
v -15.89946 6.792017 13.32577
v -7.256461 6.792017 4.048767
v -2.245398 6.792017 -4.445582
v -7.256461 6.792017 4.048767
v 2.527539 6.792017 -8.326233
v -1.754697 6.792017 -4.1513
v -7.265461 6.792017 6.198767
v 13.80154 6.792017 -10.01523
v -6.267461 6.792017 4.712767
v -7.256461 6.792017 4.048767
v -6.267461 6.792017 4.712767
v 2.527539 6.792017 -8.326233
v -15.89946 6.792017 13.32577
v 13.80154 6.792017 -10.01523
v -7.265461 6.792017 6.198767
v -6.267461 6.792017 4.712767
v 13.80154 6.792017 -10.01523
v 2.527539 6.792017 -8.326233
v -1.754697 6.792017 -4.1513
v 2.527539 6.792017 -8.326233
v -1.578035 6.792017 -4.44693
v -1.578035 6.792017 -4.44693
v 2.527539 6.792017 -8.326233
v -1.049061 6.792017 -5.330633
v 4.817539 6.792017 -19.32223
v 13.80154 6.792017 -10.01523
v 16.14554 6.792017 -13.03323
v 5.168539 6.792017 -19.88423
v 13.80154 6.792017 -10.01523
v 14.13354 6.792017 -9.808233
v 16.14554 6.792017 -13.03323
v -15.89946 6.792017 13.32577
v -5.008461 6.792017 20.12277
v 13.80154 6.792017 -10.01523
v 1.063539 9.132017 -9.913233
v 1.646539 9.701016 -10.02223
v 1.551539 9.131017 -10.72623
v 1.551539 9.131017 -10.72623
v 1.646539 9.701016 -10.02223
v 3.019539 9.133017 -9.845233
v 1.646539 9.701016 -10.02223
v 2.389539 9.701016 -9.578233
v 3.019539 9.133017 -9.845233
v 2.389539 9.701016 -9.578233
v 2.531539 9.133017 -9.031233
v 3.019539 9.133017 -9.845233
v 1.646539 9.701016 -10.02223
v 2.531539 9.133017 -9.031233
v 2.389539 9.701016 -9.578233
v 1.063539 9.132017 -9.913233
v 2.531539 9.133017 -9.031233
v 1.646539 9.701016 -10.02223
v 1.492539 9.086017 -11.46223
v 1.551539 9.086017 -10.72623
v 3.019539 9.086017 -9.845233
v 0.3685387 9.086017 -9.713233
v 1.551539 9.086017 -10.72623
v 1.492539 9.086017 -11.46223
v 2.531539 9.086017 -9.031233
v 3.651539 9.086017 -10.07523
v 3.019539 9.086017 -9.845233
v 1.492539 9.086017 -11.46223
v 3.019539 9.086017 -9.845233
v 3.651539 9.086017 -10.07523
v 0.3685387 9.086017 -9.713233
v 2.527539 9.086017 -8.326233
v 1.063539 9.086017 -9.913233
v 0.3685387 9.086017 -9.713233
v 1.063539 9.086017 -9.913233
v 1.551539 9.086017 -10.72623
v 2.527539 9.086017 -8.326233
v 3.651539 9.086017 -10.07523
v 2.531539 9.086017 -9.031233
v 1.063539 9.086017 -9.913233
v 2.527539 9.086017 -8.326233
v 2.531539 9.086017 -9.031233
v -2.245398 6.792017 -4.445582
v -1.754697 6.792017 -4.1513
v -1.915461 7.134017 -4.531233
v -1.578035 6.792017 -4.44693
v -1.049061 6.792017 -5.330633
v -1.471461 7.134017 -5.274233
v -1.915461 7.134017 -4.531233
v -1.578035 6.792017 -4.44693
v -1.471461 7.134017 -5.274233
v -1.915461 7.134017 -4.531233
v -1.754697 6.792017 -4.1513
v -1.578035 6.792017 -4.44693
v -1.536976 6.792017 -5.624648
v -1.471461 7.134017 -5.274233
v -1.049061 6.792017 -5.330633
v -2.069207 6.792017 -4.740424
v -1.471461 7.134017 -5.274233
v -1.536976 6.792017 -5.624648
v -2.245398 6.792017 -4.445582
v -1.915461 7.134017 -4.531233
v -1.471461 7.134017 -5.274233
v -2.245398 6.792017 -4.445582
v -1.471461 7.134017 -5.274233
v -2.069207 6.792017 -4.740424
v -7.265461 8.230017 6.198767
v -6.267461 8.230017 4.712767
v -7.256461 8.230017 4.048767
v -8.254461 8.230017 5.534767
v -15.89946 -6.828358 13.32577
v -5.008461 -6.828358 20.12277
v -5.008461 6.792017 20.12277
v -15.89946 6.792017 13.32577
v 4.396539 -6.828358 5.053767
v 13.80154 -6.828358 -10.01523
v 13.80154 6.792017 -10.01523
v -5.008461 6.792017 20.12277
v -5.008461 -6.828358 20.12277
v 4.396539 -6.828358 5.053767
v -5.008461 6.792017 20.12277
v 4.396539 -6.828358 5.053767
v 13.80154 6.792017 -10.01523
v 13.96754 -6.828358 -9.911734
v 14.13354 -6.828358 -9.808233
v 14.13354 6.792017 -9.808233
v 13.80154 6.792017 -10.01523
v 13.80154 -6.828358 -10.01523
v 13.96754 -6.828358 -9.911734
v 13.80154 6.792017 -10.01523
v 13.96754 -6.828358 -9.911734
v 14.13354 6.792017 -9.808233
v 14.13354 -6.828358 -9.808233
v 16.14554 -6.828358 -13.03323
v 16.14554 6.792017 -13.03323
v 14.13354 6.792017 -9.808233
v 5.168539 6.792017 -19.88423
v 16.14554 6.792017 -13.03323
v 16.14554 -6.828358 -13.03323
v 5.168539 -6.828358 -19.88423
v 4.817539 6.792017 -19.32223
v 5.168539 6.792017 -19.88423
v 5.168539 -6.828358 -19.88423
v 4.817539 -6.828358 -19.32223
v 4.571539 6.792017 -19.47523
v 4.817539 6.792017 -19.32223
v 4.817539 -6.828358 -19.32223
v 4.571539 -6.828358 -19.47523
v -15.89946 6.792017 13.32577
v 4.571539 6.792017 -19.47523
v 4.571539 -6.828358 -19.47523
v -15.89946 -6.828358 13.32577
v 1.063539 9.132017 -9.913233
v 1.551539 9.131017 -10.72623
v 1.551539 9.086017 -10.72623
v 1.063539 9.086017 -9.913233
v 1.551539 9.131017 -10.72623
v 3.019539 9.133017 -9.845233
v 3.019539 9.086017 -9.845233
v 1.551539 9.086017 -10.72623
v 2.531539 9.086017 -9.031233
v 3.019539 9.086017 -9.845233
v 3.019539 9.133017 -9.845233
v 2.531539 9.133017 -9.031233
v 1.063539 9.086017 -9.913233
v 2.531539 9.086017 -9.031233
v 2.531539 9.133017 -9.031233
v 1.063539 9.132017 -9.913233
v 0.3685387 6.792017 -9.713233
v 2.527539 6.792017 -8.326233
v 2.527539 9.086017 -8.326233
v 0.3685387 9.086017 -9.713233
v 2.527539 6.792017 -8.326233
v 3.651539 6.792017 -10.07523
v 3.651539 9.086017 -10.07523
v 2.527539 9.086017 -8.326233
v 1.492539 9.086017 -11.46223
v 3.651539 9.086017 -10.07523
v 3.651539 6.792017 -10.07523
v 1.492539 6.792017 -11.46223
v 0.3685387 9.086017 -9.713233
v 1.492539 9.086017 -11.46223
v 1.492539 6.792017 -11.46223
v 0.3685387 6.792017 -9.713233
v -7.265461 6.792017 6.198767
v -6.267461 6.792017 4.712767
v -6.267461 8.230017 4.712767
v -7.265461 8.230017 6.198767
v -7.256461 8.230017 4.048767
v -6.267461 8.230017 4.712767
v -6.267461 6.792017 4.712767
v -7.256461 6.792017 4.048767
v -8.254461 8.230017 5.534767
v -7.256461 8.230017 4.048767
v -7.256461 6.792017 4.048767
v -8.254461 6.792017 5.534767
v -8.254461 6.792017 5.534767
v -7.265461 6.792017 6.198767
v -7.265461 8.230017 6.198767
v -8.254461 8.230017 5.534767
v -15.89946 -6.828358 13.32577
v 4.571539 -6.828358 -19.47523
v 4.817539 -6.828358 -19.32223
v 5.168539 -6.828358 -19.88423
v 16.14554 -6.828358 -13.03323
v 14.13354 -6.828358 -9.808233
v 13.96754 -6.828358 -9.911734
v 13.80154 -6.828358 -10.01523
v 4.396539 -6.828358 5.053767
v -5.008461 -6.828358 20.12277
vt 0.573062 0.000694
vt 0.010662 0.245274
vt 0.008108 0.242292
vt 0.145651 0.206403
vt 0.168826 0.232580
vt 0.010662 0.245274
vt 0.175780 0.193132
vt 0.145651 0.206403
vt 0.010662 0.245274
vt 0.261268 0.164518
vt 0.246044 0.170794
vt 0.175780 0.193132
vt 0.573062 0.000694
vt 0.261268 0.164518
vt 0.175780 0.193132
vt 0.246044 0.170794
vt 0.198955 0.219309
vt 0.175780 0.193132
vt 0.246044 0.170794
vt 0.250950 0.176707
vt 0.198955 0.219309
vt 0.573062 0.000694
vt 0.266345 0.162440
vt 0.261268 0.164518
vt 0.198955 0.219309
vt 0.167463 0.354699
vt 0.168826 0.232580
vt 0.573062 0.000694
vt 0.175780 0.193132
vt 0.010662 0.245274
vt 0.168826 0.232580
vt 0.167463 0.354699
vt 0.010662 0.245274
vt 0.412582 0.103368
vt 0.271254 0.168387
vt 0.266345 0.162440
vt 0.573062 0.000694
vt 0.449299 0.103569
vt 0.438195 0.091572
vt 0.573062 0.000694
vt 0.438195 0.091572
vt 0.412582 0.103368
vt 0.573062 0.000694
vt 0.412582 0.103368
vt 0.266345 0.162440
vt 0.412582 0.103368
vt 0.198955 0.219309
vt 0.271254 0.168387
vt 0.449299 0.103569
vt 0.167463 0.354699
vt 0.423686 0.115364
vt 0.412582 0.103368
vt 0.423686 0.115364
vt 0.198955 0.219309
vt 0.573062 0.000694
vt 0.167463 0.354699
vt 0.449299 0.103569
vt 0.423686 0.115364
vt 0.167463 0.354699
vt 0.198955 0.219309
vt 0.271254 0.168387
vt 0.198955 0.219309
vt 0.266164 0.170470
vt 0.266164 0.170470
vt 0.198955 0.219309
vt 0.250950 0.176707
vt 0.010662 0.245274
vt 0.167463 0.354699
vt 0.115383 0.382460
vt 0.000984 0.249416
vt 0.167463 0.354699
vt 0.170919 0.358723
vt 0.115383 0.382460
vt 0.573062 0.000694
vt 0.686542 0.132735
vt 0.167463 0.354699
vt 0.954177 0.929216
vt 0.955311 0.937506
vt 0.940945 0.934446
vt 0.685039 0.929903
vt 0.699863 0.929216
vt 0.699491 0.947088
vt 0.699863 0.929216
vt 0.707145 0.937923
vt 0.699491 0.947088
vt 0.937687 0.937925
vt 0.925197 0.934542
vt 0.938247 0.929216
vt 0.745052 0.938095
vt 0.725394 0.929216
vt 0.738165 0.929250
vt 0.739063 0.946686
vt 0.725394 0.929216
vt 0.745052 0.938095
vt 0.419291 0.942320
vt 0.431670 0.943125
vt 0.446162 0.960690
vt 0.449000 0.929216
vt 0.431670 0.943125
vt 0.419291 0.942320
vt 0.459981 0.955009
vt 0.442143 0.968165
vt 0.446162 0.960690
vt 0.419291 0.942320
vt 0.446162 0.960690
vt 0.442143 0.968165
vt 0.449000 0.929216
vt 0.471852 0.955062
vt 0.445471 0.937444
vt 0.449000 0.929216
vt 0.445471 0.937444
vt 0.431670 0.943125
vt 0.471852 0.955062
vt 0.442143 0.968165
vt 0.459981 0.955009
vt 0.445471 0.937444
vt 0.471852 0.955062
vt 0.459981 0.955009
vt 0.971766 0.934589
vt 0.967520 0.929216
vt 0.975369 0.930083
vt 0.884754 0.935050
vt 0.899201 0.929216
vt 0.900502 0.935029
vt 0.888351 0.939928
vt 0.884754 0.935050
vt 0.900502 0.935029
vt 0.888351 0.939928
vt 0.879921 0.936998
vt 0.884754 0.935050
vt 0.957677 0.929520
vt 0.964830 0.929216
vt 0.962134 0.934845
vt 0.917165 0.931121
vt 0.910161 0.938787
vt 0.902559 0.936876
vt 0.922035 0.929216
vt 0.922438 0.933985
vt 0.910161 0.938787
vt 0.922035 0.929216
vt 0.910161 0.938787
vt 0.917165 0.931121
vt 0.589016 0.940912
vt 0.563997 0.952411
vt 0.553150 0.940715
vt 0.578169 0.929216
vt 0.714513 0.840347
vt 0.606299 0.708873
vt 0.692951 0.666204
vt 0.802999 0.799916
vt 0.254439 0.774412
vt 0.507930 0.666204
vt 0.603929 0.707451
vt 0.088436 0.927491
vt 0.000984 0.882606
vt 0.254439 0.774412
vt 0.088436 0.927491
vt 0.254439 0.774412
vt 0.603929 0.707451
vt 0.240813 0.977102
vt 0.239173 0.975117
vt 0.334071 0.929216
vt 0.337405 0.933253
vt 0.242452 0.979087
vt 0.240813 0.977102
vt 0.337405 0.933253
vt 0.240813 0.977102
vt 0.334071 0.929216
vt 0.000984 0.952178
vt 0.054975 0.929216
vt 0.151361 0.969676
vt 0.096460 0.993025
vt 0.880253 0.666204
vt 0.996518 0.798770
vt 0.919443 0.839634
vt 0.805118 0.709288
vt 0.236731 0.975566
vt 0.227115 0.979582
vt 0.153543 0.933166
vt 0.162999 0.929216
vt 0.414260 0.929216
vt 0.416837 0.932154
vt 0.342101 0.974835
vt 0.339567 0.971945
vt 0.642477 0.427338
vt 0.075428 0.664262
vt 0.000984 0.617443
vt 0.558585 0.384455
vt 0.990779 0.929358
vt 0.977605 0.934395
vt 0.977362 0.934255
vt 0.990530 0.929216
vt 0.747295 0.929216
vt 0.761432 0.946375
vt 0.761173 0.946524
vt 0.747047 0.929359
vt 0.000984 0.999546
vt 0.014034 0.994448
vt 0.014350 0.994585
vt 0.001300 0.999683
vt 0.723048 0.946832
vt 0.709646 0.929366
vt 0.709960 0.929216
vt 0.723356 0.946686
vt 0.496442 0.962754
vt 0.474409 0.936656
vt 0.490372 0.929216
vt 0.512468 0.955389
vt 0.636811 0.941967
vt 0.666161 0.929216
vt 0.682326 0.936415
vt 0.652893 0.949203
vt 0.527801 0.929216
vt 0.550907 0.954936
vt 0.537804 0.962267
vt 0.514764 0.936620
vt 0.634147 0.936885
vt 0.604443 0.949553
vt 0.591535 0.941848
vt 0.621155 0.929216
vt 0.807087 0.940448
vt 0.831852 0.929216
vt 0.841464 0.933884
vt 0.816654 0.945135
vt 0.793876 0.929216
vt 0.804686 0.940752
vt 0.796224 0.945457
vt 0.785433 0.933942
vt 0.877095 0.933801
vt 0.852008 0.944946
vt 0.843504 0.940341
vt 0.868546 0.929216
vt 0.774107 0.945303
vt 0.763780 0.933584
vt 0.773107 0.929216
vt 0.783453 0.940956
vt 0.016732 0.994448
vt 0.016732 0.994448
vt 0.016732 0.994448
vt 0.016732 0.994448
vt 0.016732 0.994448
vt 0.016732 0.994448
vt 0.016732 0.994448
vt 0.016732 0.994448
vt 0.016732 0.994448
vt 0.016732 0.994448
vn 0 1 0
vn 0 1 0
vn 0 1 0
vn 0 1 0
vn 0 1 0
vn 0 1 0
vn 0 1 0
vn 0 1 0
vn 0 1 0
vn 0 1 0
vn 0 1 0
vn 0 1 0
vn 0 1 0
vn 0 1 0
vn 0 1 0
vn 0 1 0
vn 0 1 0
vn 0 1 0
vn 0 1 0
vn 0 1 0
vn 0 1 0
vn 0 1 0
vn 0 1 0
vn 0 1 0
vn 0 1 0
vn 0 1 0
vn 0 1 0
vn 0 1 0
vn 0 1 0
vn 0 1 0
vn 0 1 0
vn 0 1 0
vn 0 1 0
vn 0 1 0
vn 0 1 0
vn 0 1 0
vn 0 1 0
vn 0 1 0
vn 0 1 0
vn 0 1 0
vn 0 1 0
vn 0 1 0
vn 0 1 0
vn 0 1 0
vn 0 1 0
vn 0 1 0
vn 0 1 0
vn 0 1 0
vn 0 1 0
vn 0 1 0
vn 0 1 0
vn 0 1 0
vn 0 1 0
vn 0 1 0
vn 0 1 0
vn 0 1 0
vn 0 1 0
vn 0 1 0
vn 0 1 0
vn 0 1 0
vn 0 1 0
vn 0 1 0
vn 0 1 0
vn 0 1 0
vn 0 1 0
vn 0 1 0
vn 0 1 0
vn 0 1 0
vn 0 1 0
vn 0 1 0
vn 0 1 0
vn 0 1 0
vn 0 1 0
vn 0 1 0
vn 0 1 0
vn 0 1 0
vn -0.6759448 0.6147074 -0.4064893
vn -0.6759448 0.6147074 -0.4064893
vn -0.6759448 0.6147074 -0.4064893
vn 0.3679003 0.6977831 -0.6146121
vn 0.3679003 0.6977831 -0.6146121
vn 0.3679003 0.6977831 -0.6146121
vn 0.3677481 0.6971702 -0.6153983
vn 0.3677481 0.6971702 -0.6153983
vn 0.3677481 0.6971702 -0.6153983
vn 0.6994703 0.5787024 0.4193385
vn 0.6994703 0.5787024 0.4193385
vn 0.6994703 0.5787024 0.4193385
vn -0.4205478 0.5725985 0.7037545
vn -0.4205478 0.5725985 0.7037545
vn -0.4205478 0.5725985 0.7037545
vn -0.4237435 0.5691519 0.7046329
vn -0.4237435 0.5691519 0.7046329
vn -0.4237435 0.5691519 0.7046329
vn 0 1 0
vn 0 1 0
vn 0 1 0
vn 0 1 0
vn 0 1 0
vn 0 1 0
vn 0 1 0
vn 0 1 0
vn 0 1 0
vn 0 1 0
vn 0 1 0
vn 0 1 0
vn 0 1 0
vn 0 1 0
vn 0 1 0
vn 0 1 0
vn 0 1 0
vn 0 1 0
vn 0 1 0
vn 0 1 0
vn 0 1 0
vn 0 1 0
vn 0 1 0
vn 0 1 0
vn -0.4191775 0.579439 0.6989568
vn -0.4191775 0.579439 0.6989568
vn -0.4191775 0.579439 0.6989568
vn 0.6143355 0.6981144 0.3677339
vn 0.6143355 0.6981144 0.3677339
vn 0.6143355 0.6981144 0.3677339
vn 0.6151206 0.6975027 0.3675821
vn 0.6151206 0.6975027 0.3675821
vn 0.6151206 0.6975027 0.3675821
vn 0.6151206 0.6975027 0.3675822
vn 0.6151206 0.6975027 0.3675822
vn 0.6151206 0.6975027 0.3675822
vn 0.4072226 0.6144004 -0.6757824
vn 0.4072226 0.6144004 -0.6757824
vn 0.4072226 0.6144004 -0.6757824
vn -0.7043576 0.5693271 -0.4239659
vn -0.7043576 0.5693271 -0.4239659
vn -0.7043576 0.5693271 -0.4239659
vn -0.7033476 0.5732767 -0.4203046
vn -0.7033476 0.5732767 -0.4203046
vn -0.7033476 0.5732767 -0.4203046
vn -0.7033476 0.5732767 -0.4203046
vn -0.7033476 0.5732767 -0.4203046
vn -0.7033476 0.5732767 -0.4203046
vn 0 1 0
vn 0 1 0
vn 0 1 0
vn 0 1 0
vn -0.5294457 0 0.8483438
vn -0.5294457 0 0.8483438
vn -0.5294457 0 0.8483438
vn -0.5294457 0 0.8483438
vn 0.8483302 0 0.5294675
vn 0.8483302 0 0.5294675
vn 0.8483302 0 0.5294675
vn 0.8483302 0 0.5294675
vn 0.8483302 0 0.5294675
vn 0.8483302 0 0.5294675
vn 0.8483302 -1.812741E-12 0.5294675
vn 0.8483302 -1.812741E-12 0.5294675
vn 0.8483302 -1.812741E-12 0.5294675
vn -0.5290796 0 0.8485722
vn -0.5290796 0 0.8485722
vn -0.5290796 0 0.8485722
vn -0.5290796 0 0.8485722
vn -0.5290796 0 0.8485722
vn -0.5290796 0 0.8485722
vn -0.5290796 -1.13053E-12 0.8485722
vn -0.5290796 -1.13053E-12 0.8485722
vn -0.5290796 -1.13053E-12 0.8485722
vn 0.8484266 0 0.529313
vn 0.8484266 0 0.529313
vn 0.8484266 0 0.529313
vn 0.8484266 0 0.529313
vn 0.5294639 0 -0.8483325
vn 0.5294639 0 -0.8483325
vn 0.5294639 0 -0.8483325
vn 0.5294639 0 -0.8483325
vn -0.8481678 0 -0.5297276
vn -0.8481678 0 -0.5297276
vn -0.8481678 0 -0.5297276
vn -0.8481678 0 -0.5297276
vn 0.528136 0 -0.8491598
vn 0.528136 0 -0.8491598
vn 0.528136 0 -0.8491598
vn 0.528136 0 -0.8491598
vn -0.8483425 0 -0.5294479
vn -0.8483425 0 -0.5294479
vn -0.8483425 0 -0.5294479
vn -0.8483425 0 -0.5294479
vn -0.8573999 0 -0.5146508
vn -0.8573999 0 -0.5146508
vn -0.8573999 0 -0.5146508
vn -0.8573999 0 -0.5146508
vn 0.5145816 0 -0.8574414
vn 0.5145816 0 -0.8574414
vn 0.5145816 0 -0.8574414
vn 0.5145816 0 -0.8574414
vn 0.8576788 0 0.5141858
vn 0.8576788 0 0.5141858
vn 0.8576788 0 0.5141858
vn 0.8576788 0 0.5141858
vn -0.5150109 0 0.8571836
vn -0.5150109 0 0.8571836
vn -0.5150109 0 0.8571836
vn -0.5150109 0 0.8571836
vn -0.5405015 0 0.841343
vn -0.5405015 0 0.841343
vn -0.5405015 0 0.841343
vn -0.5405015 0 0.841343
vn 0.8412566 0 0.5406361
vn 0.8412566 0 0.5406361
vn 0.8412566 0 0.5406361
vn 0.8412566 0 0.5406361
vn 0.5405015 0 -0.841343
vn 0.5405015 0 -0.841343
vn 0.5405015 0 -0.841343
vn 0.5405015 0 -0.841343
vn -0.8412566 0 -0.5406361
vn -0.8412566 0 -0.5406361
vn -0.8412566 0 -0.5406361
vn -0.8412566 0 -0.5406361
vn 0.8301547 0 0.5575332
vn 0.8301547 0 0.5575332
vn 0.8301547 0 0.5575332
vn 0.8301547 0 0.5575332
vn 0.5574094 0 -0.8302378
vn 0.5574094 0 -0.8302378
vn 0.5574094 0 -0.8302378
vn 0.5574094 0 -0.8302378
vn -0.8301547 0 -0.5575332
vn -0.8301547 0 -0.5575332
vn -0.8301547 0 -0.5575332
vn -0.8301547 0 -0.5575332
vn -0.5574094 0 0.8302378
vn -0.5574094 0 0.8302378
vn -0.5574094 0 0.8302378
vn -0.5574094 0 0.8302378
vn 0 -1 0
vn 0 -1 0
vn 0 -1 0
vn 0 -1 0
vn 0 -1 0
vn 0 -1 0
vn 0 -1 0
vn 0 -1 0
vn 0 -1 0
vn 0 -1 0

g CDNNDG02_0009750
f 1/1/1 2/2/2 3/3/3
f 4/4/4 5/5/5 6/6/6
f 7/7/7 8/8/8 9/9/9
f 10/10/10 11/11/11 12/12/12
f 13/13/13 14/14/14 15/15/15
f 16/16/16 17/17/17 18/18/18
f 19/19/19 20/20/20 21/21/21
f 22/22/22 23/23/23 24/24/24
f 25/25/25 26/26/26 27/27/27
f 28/28/28 29/29/29 30/30/30
f 31/31/31 32/32/32 33/33/33
f 34/34/34 35/35/35 36/36/36
f 37/37/37 38/38/38 39/39/39
f 40/40/40 41/41/41 42/42/42
f 43/43/43 44/44/44 45/45/45
f 46/46/46 47/47/47 48/48/48
f 49/49/49 50/50/50 51/51/51
f 52/52/52 53/53/53 54/54/54
f 55/55/55 56/56/56 57/57/57
f 58/58/58 59/59/59 60/60/60
f 61/61/61 62/62/62 63/63/63
f 64/64/64 65/65/65 66/66/66
f 67/67/67 68/68/68 69/69/69
f 70/70/70 67/67/67 69/69/69
f 71/71/71 72/72/72 73/73/73
f 74/74/74 75/75/75 76/76/76
f 77/77/77 78/78/78 79/79/79
f 80/80/80 81/81/81 82/82/82
f 83/83/83 84/84/84 85/85/85
f 86/86/86 87/87/87 88/88/88
f 89/89/89 90/90/90 91/91/91
f 92/92/92 93/93/93 94/94/94
f 95/95/95 96/96/96 97/97/97
f 98/98/98 99/99/99 100/100/100
f 101/101/101 102/102/102 103/103/103
f 104/104/104 105/105/105 106/106/106
f 107/107/107 108/108/108 109/109/109
f 110/110/110 111/111/111 112/112/112
f 113/113/113 114/114/114 115/115/115
f 116/116/116 117/117/117 118/118/118
f 119/119/119 120/120/120 121/121/121
f 122/122/122 123/123/123 124/124/124
f 125/125/125 126/126/126 127/127/127
f 128/128/128 129/129/129 130/130/130
f 131/131/131 132/132/132 133/133/133
f 134/134/134 135/135/135 136/136/136
f 137/137/137 138/138/138 139/139/139
f 140/140/140 141/141/141 142/142/142
f 143/143/143 145/145/145 146/146/146
f 143/143/143 144/144/144 145/145/145
f 150/150/150 147/147/147 148/148/148
f 149/149/149 150/150/150 148/148/148
f 151/151/151 152/152/152 153/153/153
f 154/154/154 155/155/155 156/156/156
f 157/157/157 158/158/158 159/159/159
f 160/160/160 161/161/161 162/162/162
f 163/163/163 164/164/164 165/165/165
f 166/166/166 167/167/167 168/168/168
f 170/170/170 171/171/171 169/169/169
f 169/169/169 171/171/171 172/172/172
f 176/176/176 173/173/173 175/175/175
f 174/174/174 175/175/175 173/173/173
f 177/177/177 179/179/179 180/180/180
f 177/177/177 178/178/178 179/179/179
f 181/181/181 183/183/183 184/184/184
f 181/181/181 182/182/182 183/183/183
f 188/188/188 185/185/185 186/186/186
f 187/187/187 188/188/188 186/186/186
f 190/190/190 191/191/191 192/192/192
f 189/189/189 190/190/190 192/192/192
f 196/196/196 193/193/193 195/195/195
f 194/194/194 195/195/195 193/193/193
f 200/200/200 197/197/197 199/199/199
f 198/198/198 199/199/199 197/197/197
f 204/204/204 201/201/201 202/202/202
f 203/203/203 204/204/204 202/202/202
f 206/206/206 207/207/207 208/208/208
f 208/208/208 205/205/205 206/206/206
f 212/212/212 209/209/209 211/211/211
f 210/210/210 211/211/211 209/209/209
f 216/216/216 213/213/213 215/215/215
f 214/214/214 215/215/215 213/213/213
f 218/218/218 219/219/219 220/220/220
f 217/217/217 218/218/218 220/220/220
f 221/221/221 223/223/223 224/224/224
f 221/221/221 222/222/222 223/223/223
f 228/228/228 225/225/225 227/227/227
f 226/226/226 227/227/227 225/225/225
f 229/229/229 231/231/231 232/232/232
f 229/229/229 230/230/230 231/231/231
f 236/236/236 233/233/233 235/235/235
f 235/235/235 233/233/233 234/234/234
f 246/246/246 237/237/237 245/245/245
f 245/245/245 238/238/238 239/239/239
f 245/245/245 237/237/237 238/238/238
f 239/239/239 240/240/240 241/241/241
f 243/243/243 241/241/241 242/242/242
f 244/244/244 239/239/239 241/241/241
f 243/243/243 244/244/244 241/241/241
f 244/244/244 245/245/245 239/239/239
