v -6.672785 5.405291 4.100681
v -6.968785 5.405291 4.574681
v -4.829785 5.405291 5.911681
v -4.569785 5.405291 5.494681
v -0.1107849 5.405291 8.280681
v 7.207215 5.405291 -3.431319
v 6.524215 5.405291 -3.858319
v 6.835215 5.405291 -4.356319
v 0.9692151 5.405291 -8.021318
v 0.7472151 5.405291 -7.666319
v 0.05521507 5.405291 -8.098319
v -7.314785 5.405291 3.699681
v -6.968785 5.405291 4.574681
v -6.672785 5.405291 4.100681
v -6.672785 -5.405291 4.100681
v -6.968785 -5.405291 4.574681
v -6.968785 -5.405291 4.574681
v -4.829785 -5.405291 5.911681
v -4.829785 5.405291 5.911681
v -6.968785 5.405291 4.574681
v -4.829785 -5.405291 5.911681
v -4.569785 -5.405291 5.494681
v -4.569785 5.405291 5.494681
v -4.829785 5.405291 5.911681
v -2.340285 -5.405291 6.887681
v -0.1107849 -5.405291 8.280681
v -0.1107849 5.405291 8.280681
v -4.569785 5.405291 5.494681
v -4.569785 -5.405291 5.494681
v -2.340285 -5.405291 6.887681
v -4.569785 5.405291 5.494681
v -2.340285 -5.405291 6.887681
v -0.1107849 5.405291 8.280681
v -0.1107849 -5.405291 8.280681
v 7.207215 -5.405291 -3.431319
v 7.207215 5.405291 -3.431319
v -0.1107849 5.405291 8.280681
v 6.524215 5.405291 -3.858319
v 7.207215 5.405291 -3.431319
v 7.207215 -5.405291 -3.431319
v 6.524215 -5.405291 -3.858319
v 6.524215 -5.405291 -3.858319
v 6.835215 -5.405291 -4.356319
v 6.835215 5.405291 -4.356319
v 6.524215 5.405291 -3.858319
v 0.9692151 5.405291 -8.021318
v 6.835215 5.405291 -4.356319
v 6.835215 -5.405291 -4.356319
v 0.9692151 -5.405291 -8.021318
v 0.7472151 5.405291 -7.666319
v 0.9692151 5.405291 -8.021318
v 0.9692151 -5.405291 -8.021318
v 0.7472151 -5.405291 -7.666319
v 0.05521507 5.405291 -8.098319
v 0.7472151 5.405291 -7.666319
v 0.7472151 -5.405291 -7.666319
v 0.05521507 -5.405291 -8.098319
v -7.314785 5.405291 3.699681
v 0.05521507 5.405291 -8.098319
v 0.05521507 -5.405291 -8.098319
v -7.314785 -5.405291 3.699681
v -7.314785 -5.405291 3.699681
v -6.672785 -5.405291 4.100681
v -6.672785 5.405291 4.100681
v -7.314785 5.405291 3.699681
v -6.672785 -5.405291 4.100681
v -7.314785 -5.405291 3.699681
v 0.05521507 -5.405291 -8.098319
v 0.7472151 -5.405291 -7.666319
v 0.9692151 -5.405291 -8.021318
v 6.835215 -5.405291 -4.356319
v 6.524215 -5.405291 -3.858319
v 7.207215 -5.405291 -3.431319
v -0.1107849 -5.405291 8.280681
v -2.340285 -5.405291 6.887681
v -4.569785 -5.405291 5.494681
v -4.829785 -5.405291 5.911681
v -6.968785 -5.405291 4.574681
vt 0.191168 0.400144
vt 0.170211 0.408727
vt 0.109859 0.347996
vt 0.128296 0.340456
vt 0.002532 0.213849
vt 0.520381 0.001626
vt 0.539656 0.021021
vt 0.561676 0.012001
vt 0.727113 0.178574
vt 0.711415 0.185012
vt 0.730915 0.204661
vt 0.209269 0.418372
vt 0.094910 0.936497
vt 0.113836 0.928455
vt 0.109811 0.943277
vt 0.091139 0.951210
vt 0.956182 0.771068
vt 0.898734 0.712175
vt 0.901978 0.695935
vt 0.960210 0.755633
vt 0.967089 0.703061
vt 0.982942 0.695935
vt 0.983886 0.762230
vt 0.967819 0.769452
vt 0.767360 0.776118
vt 0.706329 0.714128
vt 0.708215 0.695935
vt 0.831941 0.821606
vt 0.828389 0.838106
vt 0.767360 0.776118
vt 0.831941 0.821606
vt 0.767360 0.776118
vt 0.708215 0.695935
vt 0.003090 0.626492
vt 0.509499 0.422764
vt 0.515772 0.485685
vt 0.002532 0.692157
vt 0.893561 0.776915
vt 0.876559 0.757993
vt 0.870886 0.695935
vt 0.887662 0.714605
vt 0.002532 0.936972
vt 0.022368 0.928455
vt 0.028645 0.990485
vt 0.008541 0.999116
vt 0.700638 0.923505
vt 0.540922 0.758924
vt 0.534177 0.695935
vt 0.691768 0.858328
vt 0.071219 0.934514
vt 0.085539 0.928455
vt 0.074886 0.946153
vt 0.060759 0.952130
vt 0.863557 0.779606
vt 0.846039 0.760422
vt 0.837975 0.695935
vt 0.855260 0.714864
vt 0.007227 0.908966
vt 0.528180 0.695935
vt 0.516467 0.714329
vt 0.002532 0.924490
vt 0.051371 0.960772
vt 0.035443 0.943579
vt 0.039419 0.928455
vt 0.055564 0.945883
vt 0.118987 0.928455
vt 0.118987 0.928455
vt 0.118987 0.928455
vt 0.118987 0.928455
vt 0.118987 0.928455
vt 0.118987 0.928455
vt 0.118987 0.928455
vt 0.118987 0.928455
vt 0.118987 0.928455
vt 0.118987 0.928455
vt 0.118987 0.928455
vt 0.118987 0.928455
vt 0.118987 0.928455
vn 0 1 0
vn 0 1 0
vn 0 1 0
vn 0 1 0
vn 0 1 0
vn 0 1 0
vn 0 1 0
vn 0 1 0
vn 0 1 0
vn 0 1 0
vn 0 1 0
vn 0 1 0
vn -0.8481993 0 -0.5296772
vn -0.8481993 0 -0.5296772
vn -0.8481993 0 -0.5296772
vn -0.8481993 0 -0.5296772
vn -0.5300346 0 0.847976
vn -0.5300346 0 0.847976
vn -0.5300346 0 0.847976
vn -0.5300346 0 0.847976
vn 0.8485695 0 0.529084
vn 0.8485695 0 0.529084
vn 0.8485695 0 0.529084
vn 0.8485695 0 0.529084
vn -0.5298793 0 0.8480731
vn -0.5298793 0 0.8480731
vn -0.5298793 0 0.8480731
vn -0.5298793 0 0.8480731
vn -0.5298793 0 0.8480731
vn -0.5298793 0 0.8480731
vn -0.5298793 1.426526E-12 0.8480731
vn -0.5298793 1.426526E-12 0.8480731
vn -0.5298793 1.426526E-12 0.8480731
vn 0.8480634 0 0.5298948
vn 0.8480634 0 0.5298948
vn 0.8480634 0 0.5298948
vn 0.8480634 0 0.5298948
vn 0.5301105 0 -0.8479285
vn 0.5301105 0 -0.8479285
vn 0.5301105 0 -0.8479285
vn 0.5301105 0 -0.8479285
vn 0.8481896 0 0.5296927
vn 0.8481896 0 0.5296927
vn 0.8481896 0 0.5296927
vn 0.8481896 0 0.5296927
vn 0.529869 0 -0.8480795
vn 0.529869 0 -0.8480795
vn 0.529869 0 -0.8480795
vn 0.529869 0 -0.8480795
vn -0.8478641 0 -0.5302136
vn -0.8478641 0 -0.5302136
vn -0.8478641 0 -0.5302136
vn -0.8478641 0 -0.5302136
vn 0.5295581 0 -0.8482736
vn 0.5295581 0 -0.8482736
vn 0.5295581 0 -0.8482736
vn 0.5295581 0 -0.8482736
vn -0.8481194 0 -0.5298051
vn -0.8481194 0 -0.5298051
vn -0.8481194 0 -0.5298051
vn -0.8481194 0 -0.5298051
vn -0.5297614 0 0.8481467
vn -0.5297614 0 0.8481467
vn -0.5297614 0 0.8481467
vn -0.5297614 0 0.8481467
vn 0 -1 0
vn 0 -1 0
vn 0 -1 0
vn 0 -1 0
vn 0 -1 0
vn 0 -1 0
vn 0 -1 0
vn 0 -1 0
vn 0 -1 0
vn 0 -1 0
vn 0 -1 0
vn 0 -1 0
vn 0 -1 0

g CDNNDG02_0000770
f 8/8/8 10/10/10 7/7/7
f 11/11/11 1/1/1 10/10/10
f 12/12/12 1/1/1 11/11/11
f 10/10/10 1/1/1 4/4/4
f 3/3/3 4/4/4 2/2/2
f 7/7/7 5/5/5 6/6/6
f 10/10/10 4/4/4 7/7/7
f 4/4/4 1/1/1 2/2/2
f 5/5/5 7/7/7 4/4/4
f 10/10/10 8/8/8 9/9/9
f 13/13/13 14/14/14 15/15/15
f 16/16/16 13/13/13 15/15/15
f 17/17/17 19/19/19 20/20/20
f 19/19/19 17/17/17 18/18/18
f 22/22/22 23/23/23 21/21/21
f 21/21/21 23/23/23 24/24/24
f 25/25/25 26/26/26 27/27/27
f 28/28/28 29/29/29 30/30/30
f 31/31/31 32/32/32 33/33/33
f 37/37/37 34/34/34 36/36/36
f 35/35/35 36/36/36 34/34/34
f 40/40/40 38/38/38 39/39/39
f 38/38/38 40/40/40 41/41/41
f 43/43/43 44/44/44 42/42/42
f 42/42/42 44/44/44 45/45/45
f 46/46/46 48/48/48 49/49/49
f 46/46/46 47/47/47 48/48/48
f 50/50/50 52/52/52 53/53/53
f 50/50/50 51/51/51 52/52/52
f 56/56/56 54/54/54 55/55/55
f 54/54/54 56/56/56 57/57/57
f 58/58/58 60/60/60 61/61/61
f 58/58/58 59/59/59 60/60/60
f 62/62/62 64/64/64 65/65/65
f 64/64/64 62/62/62 63/63/63
f 76/76/76 77/77/77 78/78/78
f 66/66/66 76/76/76 78/78/78
f 72/72/72 75/75/75 76/76/76
f 66/66/66 67/67/67 68/68/68
f 66/66/66 68/68/68 69/69/69
f 72/72/72 74/74/74 75/75/75
f 66/66/66 69/69/69 76/76/76
f 69/69/69 70/70/70 71/71/71
f 72/72/72 73/73/73 74/74/74
f 69/69/69 71/71/71 72/72/72
f 76/76/76 69/69/69 72/72/72
