v -6.285984 5.693299 2.473603
v 0.2710164 5.693299 6.749603
v 6.227016 5.693299 -2.384397
v 6.286016 5.693299 -2.474397
v -0.2709836 5.693299 -6.749397
v -0.2979836 5.693299 -6.707397
v -3.007483 -5.693299 4.611603
v 0.2710164 -5.693299 6.749603
v 0.2710164 5.693299 6.749603
v -6.285984 5.693299 2.473603
v -6.285984 -5.693299 2.473603
v -3.007483 -5.693299 4.611603
v -6.285984 5.693299 2.473603
v -3.007483 -5.693299 4.611603
v 0.2710164 5.693299 6.749603
v 3.249017 -5.693299 2.182603
v 6.227016 -5.693299 -2.384397
v 6.227016 5.693299 -2.384397
v 0.2710164 5.693299 6.749603
v 0.2710164 -5.693299 6.749603
v 3.249017 -5.693299 2.182603
v 0.2710164 5.693299 6.749603
v 3.249017 -5.693299 2.182603
v 6.227016 5.693299 -2.384397
v 6.256516 -5.693299 -2.429397
v 6.286016 -5.693299 -2.474397
v 6.286016 5.693299 -2.474397
v 6.227016 5.693299 -2.384397
v 6.227016 -5.693299 -2.384397
v 6.256516 -5.693299 -2.429397
v 6.227016 5.693299 -2.384397
v 6.256516 -5.693299 -2.429397
v 6.286016 5.693299 -2.474397
v -0.2709836 5.693299 -6.749397
v 6.286016 5.693299 -2.474397
v 6.286016 -5.693299 -2.474397
v -0.2709836 -5.693299 -6.749397
v -0.2979836 5.693299 -6.707397
v -0.2844836 -5.693299 -6.728397
v -0.2979836 -5.693299 -6.707397
v -0.2844836 -5.693299 -6.728397
v -0.2709836 5.693299 -6.749397
v -0.2709836 -5.693299 -6.749397
v -0.2979836 5.693299 -6.707397
v -0.2709836 5.693299 -6.749397
v -0.2844836 -5.693299 -6.728397
v -6.285984 5.693299 2.473603
v -0.2979836 5.693299 -6.707397
v -0.2979836 -5.693299 -6.707397
v -6.285984 -5.693299 2.473603
v -6.285984 -5.693299 2.473603
v -0.2979836 -5.693299 -6.707397
v -0.2844836 -5.693299 -6.728397
v -0.2709836 -5.693299 -6.749397
v 6.286016 -5.693299 -2.474397
v 6.256516 -5.693299 -2.429397
v 6.227016 -5.693299 -2.384397
v 3.249017 -5.693299 2.182603
v 0.2710164 -5.693299 6.749603
v -3.007483 -5.693299 4.611603
vt 0.389103 0.001898
vt 0.566922 0.217036
vt 0.183975 0.411506
vt 0.180202 0.413432
vt 0.002421 0.198310
vt 0.004182 0.197428
vt 0.673987 0.608941
vt 0.590799 0.501535
vt 0.789620 0.417457
vt 0.958329 0.635294
vt 0.757172 0.716343
vt 0.673987 0.608941
vt 0.958329 0.635294
vt 0.673987 0.608941
vt 0.789620 0.417457
vt 0.191416 0.510729
vt 0.380420 0.419270
vt 0.580100 0.530457
vt 0.196809 0.715922
vt 0.002421 0.602184
vt 0.191416 0.510729
vt 0.196809 0.715922
vt 0.191416 0.510729
vt 0.580100 0.530457
vt 0.382283 0.418363
vt 0.384145 0.417457
vt 0.583877 0.528619
vt 0.580100 0.530457
vt 0.380420 0.419270
vt 0.382283 0.418363
vt 0.580100 0.530457
vt 0.382283 0.418363
vt 0.583877 0.528619
vt 0.723369 0.001898
vt 0.903115 0.216372
vt 0.751089 0.328846
vt 0.573850 0.117374
vt 0.152028 0.998786
vt 0.003291 0.909948
vt 0.004162 0.909524
vt 0.003291 0.909948
vt 0.150263 0.999647
vt 0.002421 0.910373
vt 0.152028 0.998786
vt 0.150263 0.999647
vt 0.003291 0.909948
vt 0.537902 0.807673
vt 0.152028 0.998786
vt 0.004162 0.909524
vt 0.384666 0.721063
vt 0.544794 0.721063
vt 0.544794 0.721063
vt 0.544794 0.721063
vt 0.544794 0.721063
vt 0.544794 0.721063
vt 0.544794 0.721063
vt 0.544794 0.721063
vt 0.544794 0.721063
vt 0.544794 0.721063
vt 0.544794 0.721063
vn 0 1 0
vn 0 1 0
vn 0 1 0
vn 0 1 0
vn 0 1 0
vn 0 1 0
vn -0.5462405 0 0.8376284
vn -0.5462405 0 0.8376284
vn -0.5462405 0 0.8376284
vn -0.5462405 0 0.8376284
vn -0.5462405 0 0.8376284
vn -0.5462405 0 0.8376284
vn -0.5462405 -3.425528E-11 0.8376284
vn -0.5462405 -3.425528E-11 0.8376284
vn -0.5462405 -3.425528E-11 0.8376284
vn 0.8376507 0 0.5462062
vn 0.8376507 0 0.5462062
vn 0.8376507 0 0.5462062
vn 0.8376507 0 0.5462062
vn 0.8376507 0 0.5462062
vn 0.8376507 0 0.5462062
vn 0.8376507 0 0.5462062
vn 0.8376507 0 0.5462062
vn 0.8376507 0 0.5462062
vn 0.8363142 0 0.5482504
vn 0.8363142 0 0.5482504
vn 0.8363142 0 0.5482504
vn 0.8363142 0 0.5482504
vn 0.8363142 0 0.5482504
vn 0.8363142 0 0.5482504
vn 0.8363142 0 0.5482504
vn 0.8363142 0 0.5482504
vn 0.8363142 0 0.5482504
vn 0.5461509 0 -0.8376868
vn 0.5461509 0 -0.8376868
vn 0.5461509 0 -0.8376868
vn 0.5461509 0 -0.8376868
vn -0.8411785 0 -0.5407576
vn -0.8411785 0 -0.5407576
vn -0.8411785 0 -0.5407576
vn -0.8411785 0 -0.5407576
vn -0.8411785 0 -0.5407576
vn -0.8411785 0 -0.5407576
vn -0.8411785 2.211458E-11 -0.5407576
vn -0.8411785 2.211458E-11 -0.5407576
vn -0.8411785 2.211458E-11 -0.5407576
vn -0.8375943 0 -0.5462928
vn -0.8375943 0 -0.5462928
vn -0.8375943 0 -0.5462928
vn -0.8375943 0 -0.5462928
vn 0 -1 0
vn 0 -1 0
vn 0 -1 0
vn 0 -1 0
vn 0 -1 0
vn 0 -1 0
vn 0 -1 0
vn 0 -1 0
vn 0 -1 0
vn 0 -1 0

g CDNNDG02_0000510
f 5/5/5 6/6/6 4/4/4
f 6/6/6 1/1/1 3/3/3
f 6/6/6 3/3/3 4/4/4
f 3/3/3 1/1/1 2/2/2
f 7/7/7 8/8/8 9/9/9
f 10/10/10 11/11/11 12/12/12
f 13/13/13 14/14/14 15/15/15
f 16/16/16 17/17/17 18/18/18
f 19/19/19 20/20/20 21/21/21
f 22/22/22 23/23/23 24/24/24
f 25/25/25 26/26/26 27/27/27
f 28/28/28 29/29/29 30/30/30
f 31/31/31 32/32/32 33/33/33
f 37/37/37 34/34/34 36/36/36
f 35/35/35 36/36/36 34/34/34
f 38/38/38 39/39/39 40/40/40
f 41/41/41 42/42/42 43/43/43
f 44/44/44 45/45/45 46/46/46
f 47/47/47 49/49/49 50/50/50
f 47/47/47 48/48/48 49/49/49
f 60/60/60 58/58/58 59/59/59
f 60/60/60 51/51/51 52/52/52
f 56/56/56 52/52/52 55/55/55
f 52/52/52 53/53/53 55/55/55
f 53/53/53 54/54/54 55/55/55
f 58/58/58 60/60/60 52/52/52
f 57/57/57 58/58/58 52/52/52
f 56/56/56 57/57/57 52/52/52
