v 0.2711253 6.368748 2.348932
v 1.704125 6.368748 3.261931
v 7.748126 6.368748 -6.219069
v -4.123875 6.368748 6.104931
v -2.701875 6.368748 7.011931
v 0.2711253 6.368748 2.348932
v 5.365125 6.368748 -8.077068
v 7.748126 6.368748 -6.219069
v 7.556125 6.368748 -7.402069
v 0.2711253 6.368748 2.348932
v 7.748126 6.368748 -6.219069
v 5.365125 6.368748 -8.077068
v 5.365125 6.368748 -8.077068
v 7.556125 6.368748 -7.402069
v 6.269125 6.368748 -8.274069
v -8.456875 6.368748 8.398932
v -5.485875 6.368748 8.241932
v -4.123875 6.368748 6.104931
v -4.123875 6.368748 6.104931
v 0.2711253 6.368748 2.348932
v 3.005125 6.368748 -9.581068
v 0.2711253 6.368748 2.348932
v 5.365125 6.368748 -8.077068
v 3.005125 6.368748 -9.581068
v -8.456875 6.368748 8.398932
v -4.123875 6.368748 6.104931
v 3.005125 6.368748 -9.581068
v -5.485875 6.368748 8.241932
v -5.133874 6.368748 10.51793
v -4.203875 6.368748 9.058931
v -8.456875 6.368748 8.398932
v -5.133874 6.368748 10.51793
v -5.485875 6.368748 8.241932
v -3.224863 5.711691 8.180939
v -2.866863 5.704401 7.657938
v -2.972119 5.748188 7.59081
v -3.338869 5.759125 8.108185
v -3.110858 5.664258 8.253693
v -2.761608 5.660612 7.725067
v -2.866863 5.704401 7.657938
v -3.224863 5.711691 8.180939
v -3.582863 5.718982 8.703938
v -3.224863 5.711691 8.180939
v -3.338869 5.759125 8.108185
v -3.705619 5.770061 8.62556
v -3.460108 5.667903 8.782317
v -3.110858 5.664258 8.253693
v -3.224863 5.711691 8.180939
v -3.582863 5.718982 8.703938
v -3.338869 5.759125 8.108185
v -2.972119 5.748188 7.59081
v -2.701875 5.777395 7.011931
v -4.203875 5.835721 9.058931
v -3.338869 5.759125 8.108185
v -2.701875 5.777395 7.011931
v -2.972119 5.748188 7.59081
v -2.866863 5.704401 7.657938
v -2.701875 5.777395 7.011931
v -2.866863 5.704401 7.657938
v -2.761608 5.660612 7.725067
v -2.315852 5.616824 7.257946
v -2.866863 5.704401 7.657938
v -2.315852 5.616824 7.257946
v -2.701875 5.777395 7.011931
v -3.110858 5.664258 8.253693
v -2.315852 5.616824 7.257946
v -2.761608 5.660612 7.725067
v -4.203875 5.835721 9.058931
v -3.582863 5.718982 8.703938
v -3.705619 5.770061 8.62556
v -4.203875 5.835721 9.058931
v -3.705619 5.770061 8.62556
v -3.338869 5.759125 8.108185
v -4.203875 5.835721 9.058931
v -3.677852 5.616824 9.394946
v -3.582863 5.718982 8.703938
v -3.677852 5.616824 9.394946
v -3.110858 5.664258 8.253693
v -3.460108 5.667903 8.782317
v -3.677852 5.616824 9.394946
v -3.460108 5.667903 8.782317
v -3.582863 5.718982 8.703938
v -3.677852 5.616824 9.394946
v -2.315852 5.616824 7.257946
v -3.110858 5.664258 8.253693
v -4.157625 5.958042 8.337307
v -3.790875 5.947106 7.819932
v -4.128875 6.087653 7.604432
v -4.486875 6.094944 8.127432
v -4.486875 6.094944 8.127432
v -4.128875 6.087653 7.604432
v -4.466875 6.2282 7.388932
v -4.816124 6.231846 7.917556
v -3.790875 5.947106 7.819932
v -3.424125 5.93617 7.302557
v -3.770875 6.080362 7.081431
v -4.128875 6.087653 7.604432
v -4.128875 6.087653 7.604432
v -3.770875 6.080362 7.081431
v -4.117625 6.224555 6.860307
v -4.466875 6.2282 7.388932
v -4.203875 5.835721 9.058931
v -3.790875 5.947106 7.819932
v -4.157625 5.958042 8.337307
v -4.203875 5.835721 9.058931
v -2.701875 5.777395 7.011931
v -3.790875 5.947106 7.819932
v -4.486875 6.094944 8.127432
v -4.203875 5.835721 9.058931
v -4.157625 5.958042 8.337307
v -5.485875 6.368748 8.241932
v -4.486875 6.094944 8.127432
v -4.816124 6.231846 7.917556
v -5.485875 6.368748 8.241932
v -4.203875 5.835721 9.058931
v -4.486875 6.094944 8.127432
v -5.485875 6.368748 8.241932
v -4.816124 6.231846 7.917556
v -4.466875 6.2282 7.388932
v -3.770875 6.080362 7.081431
v -3.424125 5.93617 7.302557
v -2.701875 5.777395 7.011931
v -3.790875 5.947106 7.819932
v -2.701875 5.777395 7.011931
v -3.424125 5.93617 7.302557
v -4.123875 6.368748 6.104931
v -3.770875 6.080362 7.081431
v -2.701875 5.777395 7.011931
v -4.466875 6.2282 7.388932
v -4.117625 6.224555 6.860307
v -4.123875 6.368748 6.104931
v -4.123875 6.368748 6.104931
v -4.117625 6.224555 6.860307
v -3.770875 6.080362 7.081431
v -5.485875 6.368748 8.241932
v -4.466875 6.2282 7.388932
v -4.123875 6.368748 6.104931
v -5.485875 6.368748 8.241932
v -4.203875 6.368748 9.058931
v -4.203875 5.835721 9.058931
v -4.123875 6.368748 6.104931
v -2.701875 5.777395 7.011931
v -2.701875 6.368748 7.011931
v -2.701875 -6.350781 7.011931
v 0.2711253 -6.350781 2.348932
v 0.2711253 6.368748 2.348932
v -2.701875 5.777395 7.011931
v -2.701875 6.368748 7.011931
v -2.701875 5.777395 7.011931
v 0.2711253 6.368748 2.348932
v 0.2711253 -6.350781 2.348932
v 1.704125 -6.350781 3.261931
v 1.704125 6.368748 3.261931
v 0.2711253 6.368748 2.348932
v 1.704125 -6.350781 3.261931
v 7.748126 -6.350781 -6.219069
v 7.748126 6.368748 -6.219069
v 1.704125 6.368748 3.261931
v 7.556125 6.368748 -7.402069
v 7.748126 6.368748 -6.219069
v 7.748126 -6.350781 -6.219069
v 7.556125 -6.350781 -7.402069
v 6.269125 6.368748 -8.274069
v 7.556125 6.368748 -7.402069
v 7.556125 -6.350781 -7.402069
v 6.269125 -6.350781 -8.274069
v 5.365125 6.368748 -8.077068
v 6.269125 6.368748 -8.274069
v 6.269125 -6.350781 -8.274069
v 5.365125 -6.350781 -8.077068
v 3.005125 6.368748 -9.581068
v 4.185125 -6.350781 -8.829068
v 3.005125 -6.350781 -9.581068
v 4.185125 -6.350781 -8.829068
v 5.365125 6.368748 -8.077068
v 5.365125 -6.350781 -8.077068
v 3.005125 6.368748 -9.581068
v 5.365125 6.368748 -8.077068
v 4.185125 -6.350781 -8.829068
v -8.456875 6.368748 8.398932
v 3.005125 6.368748 -9.581068
v 3.005125 -6.350781 -9.581068
v -8.456875 -6.350781 8.398932
v -8.456875 -6.350781 8.398932
v -5.133874 -6.350781 10.51793
v -5.133874 6.368748 10.51793
v -8.456875 6.368748 8.398932
v -5.133874 6.368748 10.51793
v -4.203875 5.835721 9.058931
v -4.203875 6.368748 9.058931
v -5.133874 -6.350781 10.51793
v -4.203875 -6.350781 9.058931
v -4.203875 5.835721 9.058931
v -5.133874 6.368748 10.51793
v -3.940863 -6.350781 9.226938
v -3.677852 -6.350781 9.394946
v -3.677852 5.616824 9.394946
v -4.203875 5.835721 9.058931
v -4.203875 -6.350781 9.058931
v -3.940863 -6.350781 9.226938
v -4.203875 5.835721 9.058931
v -3.940863 -6.350781 9.226938
v -3.677852 5.616824 9.394946
v -2.996852 -6.350781 8.326446
v -2.315852 -6.350781 7.257946
v -2.315852 5.616824 7.257946
v -3.677852 5.616824 9.394946
v -3.677852 -6.350781 9.394946
v -2.996852 -6.350781 8.326446
v -3.677852 5.616824 9.394946
v -2.996852 -6.350781 8.326446
v -2.315852 5.616824 7.257946
v -2.701875 5.777395 7.011931
v -2.315852 5.616824 7.257946
v -2.315852 -6.350781 7.257946
v -2.701875 -6.350781 7.011931
v -4.203875 -6.350781 9.058931
v -5.133874 -6.350781 10.51793
v -8.456875 -6.350781 8.398932
v 3.005125 -6.350781 -9.581068
v 4.185125 -6.350781 -8.829068
v 5.365125 -6.350781 -8.077068
v 6.269125 -6.350781 -8.274069
v 7.556125 -6.350781 -7.402069
v 7.748126 -6.350781 -6.219069
v 1.704125 -6.350781 3.261931
v 0.2711253 -6.350781 2.348932
v -2.701875 -6.350781 7.011931
v -2.315852 -6.350781 7.257946
v -2.996852 -6.350781 8.326446
v -3.677852 -6.350781 9.394946
v -3.940863 -6.350781 9.226938
vt 0.267385 0.170114
vt 0.237304 0.138026
vt 0.545560 0.001274
vt 0.145672 0.269216
vt 0.115789 0.237375
vt 0.267385 0.170114
vt 0.606671 0.054605
vt 0.545560 0.001274
vt 0.584211 0.005462
vt 0.267385 0.170114
vt 0.545560 0.001274
vt 0.606671 0.054605
vt 0.606671 0.054605
vt 0.584211 0.005462
vt 0.612924 0.034279
vt 0.071667 0.366765
vt 0.076200 0.300028
vt 0.145672 0.269216
vt 0.145672 0.269216
vt 0.267385 0.170114
vt 0.656221 0.107454
vt 0.267385 0.170114
vt 0.606671 0.054605
vt 0.656221 0.107454
vt 0.071667 0.366765
vt 0.145672 0.269216
vt 0.656221 0.107454
vt 0.076200 0.300028
vt 0.001852 0.292361
vt 0.049282 0.271322
vt 0.071667 0.366765
vt 0.001852 0.292361
vt 0.076200 0.300028
vt 0.610260 0.889564
vt 0.593812 0.897261
vt 0.591186 0.894815
vt 0.607416 0.886914
vt 0.613104 0.892213
vt 0.596437 0.899707
vt 0.593812 0.897261
vt 0.610260 0.889564
vt 0.626709 0.881866
vt 0.610260 0.889564
vt 0.607416 0.886914
vt 0.623647 0.879012
vt 0.629772 0.884719
vt 0.613104 0.892213
vt 0.610260 0.889564
vt 0.626709 0.881866
vt 0.607416 0.886914
vt 0.591186 0.894815
vt 0.572550 0.900474
vt 0.636596 0.868051
vt 0.607416 0.886914
vt 0.572550 0.900474
vt 0.591186 0.894815
vt 0.593812 0.897261
vt 0.572550 0.900474
vt 0.593812 0.897261
vt 0.596437 0.899707
vt 0.582176 0.909443
vt 0.593812 0.897261
vt 0.582176 0.909443
vt 0.572550 0.900474
vt 0.613104 0.892213
vt 0.582176 0.909443
vt 0.596437 0.899707
vt 0.636596 0.868051
vt 0.626709 0.881866
vt 0.623647 0.879012
vt 0.636596 0.868051
vt 0.623647 0.879012
vt 0.607416 0.886914
vt 0.636596 0.868051
vt 0.649720 0.880282
vt 0.626709 0.881866
vt 0.649720 0.880282
vt 0.613104 0.892213
vt 0.629772 0.884719
vt 0.649720 0.880282
vt 0.629772 0.884719
vt 0.626709 0.881866
vt 0.649720 0.880282
vt 0.582176 0.909443
vt 0.613104 0.892213
vt 0.612377 0.868500
vt 0.596143 0.876404
vt 0.587712 0.868543
vt 0.604169 0.860841
vt 0.604169 0.860841
vt 0.587712 0.868543
vt 0.579278 0.860678
vt 0.595957 0.853179
vt 0.596143 0.876404
vt 0.579910 0.884308
vt 0.571256 0.876244
vt 0.587712 0.868543
vt 0.587712 0.868543
vt 0.571256 0.876244
vt 0.562599 0.868177
vt 0.579278 0.860678
vt 0.636596 0.868051
vt 0.596143 0.876404
vt 0.612377 0.868500
vt 0.636596 0.868051
vt 0.572550 0.900474
vt 0.596143 0.876404
vt 0.604169 0.860841
vt 0.636596 0.868051
vt 0.612377 0.868500
vt 0.604645 0.838217
vt 0.604169 0.860841
vt 0.595957 0.853179
vt 0.604645 0.838217
vt 0.636596 0.868051
vt 0.604169 0.860841
vt 0.604645 0.838217
vt 0.595957 0.853179
vt 0.579278 0.860678
vt 0.571256 0.876244
vt 0.579910 0.884308
vt 0.572550 0.900474
vt 0.596143 0.876404
vt 0.572550 0.900474
vt 0.579910 0.884308
vt 0.537037 0.867405
vt 0.571256 0.876244
vt 0.572550 0.900474
vt 0.579278 0.860678
vt 0.562599 0.868177
vt 0.537037 0.867405
vt 0.537037 0.867405
vt 0.562599 0.868177
vt 0.571256 0.876244
vt 0.604645 0.838217
vt 0.579278 0.860678
vt 0.537037 0.867405
vt 0.828929 0.965545
vt 0.803704 0.938229
vt 0.808720 0.936306
vt 0.764815 0.936306
vt 0.799342 0.965067
vt 0.792380 0.966493
vt 0.769602 0.707193
vt 0.622885 0.770290
vt 0.466667 0.726514
vt 0.622956 0.664533
vt 0.615693 0.662420
vt 0.622956 0.664533
vt 0.466667 0.726514
vt 0.157913 0.936306
vt 0.186381 0.966889
vt 0.030770 0.999217
vt 0.001852 0.968152
vt 0.461559 0.705898
vt 0.162652 0.834724
vt 0.001852 0.793280
vt 0.305466 0.662420
vt 0.482538 0.981996
vt 0.444444 0.978055
vt 0.561615 0.936306
vt 0.599108 0.940185
vt 0.415494 0.908543
vt 0.387037 0.880436
vt 0.503520 0.838217
vt 0.531528 0.865881
vt 0.190741 0.956239
vt 0.196918 0.936306
vt 0.311283 0.971127
vt 0.305203 0.990744
vt 0.051051 0.933172
vt 0.142355 0.863703
vt 0.166566 0.889190
vt 0.142355 0.863703
vt 0.001852 0.881384
vt 0.118143 0.838217
vt 0.051051 0.933172
vt 0.001852 0.881384
vt 0.142355 0.863703
vt 0.001852 0.628504
vt 0.586510 0.369427
vt 0.701613 0.403743
vt 0.126213 0.658709
vt 0.927390 0.662420
vt 0.993566 0.733871
vt 0.841297 0.764132
vt 0.774074 0.691554
vt 0.700189 0.838217
vt 0.660187 0.860024
vt 0.653704 0.858113
vt 0.851883 0.883454
vt 0.806118 0.903041
vt 0.660187 0.860024
vt 0.700189 0.838217
vt 0.754929 0.941853
vt 0.760158 0.947399
vt 0.616979 0.975754
vt 0.603704 0.965020
vt 0.749699 0.936306
vt 0.754929 0.941853
vt 0.603704 0.965020
vt 0.754929 0.941853
vt 0.616979 0.975754
vt 0.348093 0.894722
vt 0.314560 0.909089
vt 0.170370 0.867377
vt 0.238430 0.838217
vt 0.381627 0.880354
vt 0.348093 0.894722
vt 0.238430 0.838217
vt 0.348093 0.894722
vt 0.170370 0.867377
vt 0.323097 0.987925
vt 0.316667 0.978972
vt 0.432815 0.936306
vt 0.440707 0.944552
vt 0.833333 0.936306
vt 0.833333 0.936306
vt 0.833333 0.936306
vt 0.833333 0.936306
vt 0.833333 0.936306
vt 0.833333 0.936306
vt 0.833333 0.936306
vt 0.833333 0.936306
vt 0.833333 0.936306
vt 0.833333 0.936306
vt 0.833333 0.936306
vt 0.833333 0.936306
vt 0.833333 0.936306
vt 0.833333 0.936306
vt 0.833333 0.936306
vt 0.833333 0.936306
vn 0 1 0
vn 0 1 0
vn 0 1 0
vn 0 1 0
vn 0 1 0
vn 0 1 0
vn 0 1 0
vn 0 1 0
vn 0 1 0
vn 0 1 0
vn 0 1 0
vn 0 1 0
vn 0 1 0
vn 0 1 0
vn 0 1 0
vn 0 1 0
vn 0 1 0
vn 0 1 0
vn 0 1 0
vn 0 1 0
vn 0 1 0
vn 0 1 0
vn 0 1 0
vn 0 1 0
vn 0 1 0
vn 0 1 0
vn 0 1 0
vn 0 1 0
vn 0 1 0
vn 0 1 0
vn 0 1 0
vn 0 1 0
vn 0 1 0
vn 0.2791007 0.9436396 0.1778961
vn 0.2791101 0.9436362 0.1778999
vn 0.2791007 0.9436396 0.1778961
vn 0.2790914 0.9436431 0.1778923
vn 0.2791032 0.9436396 0.1778923
vn 0.2791127 0.9436361 0.1778959
vn 0.2791032 0.9436396 0.1778923
vn 0.2790937 0.9436431 0.1778886
vn 0.2790856 0.9436461 0.1778855
vn 0.2790937 0.9436431 0.1778886
vn 0.2790856 0.9436461 0.1778855
vn 0.2790775 0.9436491 0.1778824
vn 0.2790879 0.9436461 0.1778819
vn 0.2790961 0.9436431 0.1778849
vn 0.2790879 0.9436461 0.1778819
vn 0.2790797 0.9436491 0.1778789
vn 0.2791266 0.9436279 0.1779176
vn 0.2791266 0.9436279 0.1779176
vn 0.2791266 0.9436279 0.1779176
vn 0.279089 0.9436431 0.177896
vn 0.279089 0.9436431 0.177896
vn 0.279089 0.9436431 0.177896
vn 0.2791049 0.9436362 0.1779079
vn 0.2791049 0.9436362 0.1779079
vn 0.2791049 0.9436362 0.1779079
vn 0.2791152 0.9436361 0.1778919
vn 0.2791152 0.9436361 0.1778919
vn 0.2791152 0.9436361 0.1778919
vn 0.2791294 0.9436279 0.1779132
vn 0.2791294 0.9436279 0.1779132
vn 0.2791294 0.9436279 0.1779132
vn 0.2791322 0.9436279 0.1779089
vn 0.2791322 0.9436279 0.1779089
vn 0.2791322 0.9436279 0.1779089
vn 0.2790753 0.9436491 0.1778858
vn 0.2790753 0.9436491 0.1778858
vn 0.2790753 0.9436491 0.1778858
vn 0.2790655 0.9436543 0.1778737
vn 0.2790655 0.9436543 0.1778737
vn 0.2790655 0.9436543 0.1778737
vn 0.2790675 0.9436542 0.1778705
vn 0.2790675 0.9436542 0.1778705
vn 0.2790675 0.9436542 0.1778705
vn 0.2790696 0.9436542 0.1778673
vn 0.2790696 0.9436542 0.1778673
vn 0.2790696 0.9436542 0.1778673
vn 0.2790841 0.9436491 0.177872
vn 0.2790841 0.9436491 0.177872
vn 0.2790841 0.9436491 0.177872
vn 0.2790985 0.9436431 0.1778812
vn 0.2790985 0.9436431 0.1778812
vn 0.2790985 0.9436431 0.1778812
vn 0.2790178 0.9436752 0.1778378
vn 0.2790155 0.9436758 0.1778378
vn 0.2790178 0.9436752 0.1778378
vn 0.2790201 0.9436745 0.1778378
vn 0.2790192 0.9436752 0.1778355
vn 0.2790169 0.9436758 0.1778356
vn 0.2790192 0.9436752 0.1778355
vn 0.2790216 0.9436744 0.1778354
vn 0.2790147 0.9436765 0.1778356
vn 0.2790125 0.9436771 0.1778357
vn 0.2790147 0.9436765 0.1778356
vn 0.2790169 0.9436758 0.1778356
vn 0.2790161 0.9436765 0.1778334
vn 0.2790139 0.9436771 0.1778335
vn 0.2790161 0.9436765 0.1778334
vn 0.2790183 0.9436758 0.1778333
vn 0.279022 0.943673 0.1778425
vn 0.279022 0.943673 0.1778425
vn 0.279022 0.943673 0.1778425
vn 0.2790141 0.9436758 0.1778401
vn 0.2790141 0.9436758 0.1778401
vn 0.2790141 0.9436758 0.1778401
vn 0.2790171 0.9436745 0.1778424
vn 0.2790171 0.9436745 0.1778424
vn 0.2790171 0.9436745 0.1778424
vn 0.2790231 0.9436744 0.1778331
vn 0.2790231 0.9436744 0.1778331
vn 0.2790231 0.9436744 0.1778331
vn 0.2790235 0.943673 0.1778401
vn 0.2790235 0.943673 0.1778401
vn 0.2790235 0.943673 0.1778401
vn 0.279025 0.943673 0.1778377
vn 0.279025 0.943673 0.1778377
vn 0.279025 0.943673 0.1778377
vn 0.2790111 0.9436771 0.1778379
vn 0.2790111 0.9436771 0.1778379
vn 0.2790111 0.9436771 0.1778379
vn 0.2790097 0.9436783 0.1778337
vn 0.2790097 0.9436783 0.1778337
vn 0.2790097 0.9436783 0.1778337
vn 0.279011 0.9436783 0.1778315
vn 0.279011 0.9436783 0.1778315
vn 0.279011 0.9436783 0.1778315
vn 0.2790124 0.9436783 0.1778293
vn 0.2790124 0.9436783 0.1778293
vn 0.2790124 0.9436783 0.1778293
vn 0.2790167 0.9436771 0.1778291
vn 0.2790167 0.9436771 0.1778291
vn 0.2790167 0.9436771 0.1778291
vn 0.2790198 0.9436758 0.1778311
vn 0.2790198 0.9436758 0.1778311
vn 0.2790198 0.9436758 0.1778311
vn 0.5374287 0 -0.8433092
vn 0.5374287 0 -0.8433092
vn 0.5374287 0 -0.8433092
vn -0.5377576 0 0.8430995
vn -0.5377576 0 0.8430995
vn -0.5377576 0 0.8430995
vn 0.8431996 0 0.5376008
vn 0.8431996 0 0.5376008
vn 0.8431996 0 0.5376008
vn 0.8431996 0 0.5376008
vn 0.8431996 0 0.5376008
vn 0.8431996 0 0.5376008
vn 0.8431996 0 0.5376008
vn -0.5373324 0 0.8433706
vn -0.5373324 0 0.8433706
vn -0.5373324 0 0.8433706
vn -0.5373324 0 0.8433706
vn 0.8432328 0 0.5375487
vn 0.8432328 0 0.5375487
vn 0.8432328 0 0.5375487
vn 0.8432328 0 0.5375487
vn 0.9870841 0 -0.160203
vn 0.9870841 0 -0.160203
vn 0.9870841 0 -0.160203
vn 0.9870841 0 -0.160203
vn 0.5609193 0 -0.8278705
vn 0.5609193 0 -0.8278705
vn 0.5609193 0 -0.8278705
vn 0.5609193 0 -0.8278705
vn -0.2129232 0 -0.977069
vn -0.2129232 0 -0.977069
vn -0.2129232 0 -0.977069
vn -0.2129232 0 -0.977069
vn 0.5374303 0 -0.8433082
vn 0.5374303 0 -0.8433082
vn 0.5374303 0 -0.8433082
vn 0.5374303 0 -0.8433082
vn 0.5374303 0 -0.8433082
vn 0.5374303 0 -0.8433082
vn 0.5374303 -3.087347E-11 -0.8433082
vn 0.5374303 -3.087347E-11 -0.8433082
vn 0.5374303 -3.087347E-11 -0.8433082
vn -0.8432325 0 -0.537549
vn -0.8432325 0 -0.537549
vn -0.8432325 0 -0.537549
vn -0.8432325 0 -0.537549
vn -0.5376633 0 0.8431596
vn -0.5376633 0 0.8431596
vn -0.5376633 0 0.8431596
vn -0.5376633 0 0.8431596
vn 0.8432567 0 0.5375111
vn 0.8432567 0 0.5375111
vn 0.8432567 0 0.5375111
vn 0.8432567 0 0.5375111
vn 0.8432567 0 0.5375111
vn 0.8432567 0 0.5375111
vn 0.8432567 0 0.5375111
vn -0.538326 0 0.8427367
vn -0.538326 0 0.8427367
vn -0.538326 0 0.8427367
vn -0.538326 0 0.8427367
vn -0.538326 0 0.8427367
vn -0.538326 0 0.8427367
vn -0.538326 -3.249384E-10 0.8427367
vn -0.538326 -3.249384E-10 0.8427367
vn -0.538326 -3.249384E-10 0.8427367
vn 0.8432876 0 0.5374627
vn 0.8432876 0 0.5374627
vn 0.8432876 0 0.5374627
vn 0.8432876 0 0.5374627
vn 0.8432876 0 0.5374627
vn 0.8432876 0 0.5374627
vn 0.8432876 0 0.5374627
vn 0.8432876 0 0.5374627
vn 0.8432876 0 0.5374627
vn 0.5374408 0 -0.8433015
vn 0.5374408 0 -0.8433015
vn 0.5374408 0 -0.8433015
vn 0.5374408 0 -0.8433015
vn 0 -1 0
vn 0 -1 0
vn 0 -1 0
vn 0 -1 0
vn 0 -1 0
vn 0 -1 0
vn 0 -1 0
vn 0 -1 0
vn 0 -1 0
vn 0 -1 0
vn 0 -1 0
vn 0 -1 0
vn 0 -1 0
vn 0 -1 0
vn 0 -1 0
vn 0 -1 0

g CDNNDG02_0001230
f 1/1/1 2/2/2 3/3/3
f 4/4/4 5/5/5 6/6/6
f 7/7/7 8/8/8 9/9/9
f 10/10/10 11/11/11 12/12/12
f 13/13/13 14/14/14 15/15/15
f 16/16/16 17/17/17 18/18/18
f 19/19/19 20/20/20 21/21/21
f 22/22/22 23/23/23 24/24/24
f 25/25/25 26/26/26 27/27/27
f 28/28/28 29/29/29 30/30/30
f 31/31/31 32/32/32 33/33/33
f 37/37/37 34/34/34 36/36/36
f 35/35/35 36/36/36 34/34/34
f 41/41/41 38/38/38 40/40/40
f 39/39/39 40/40/40 38/38/38
f 45/45/45 42/42/42 44/44/44
f 43/43/43 44/44/44 42/42/42
f 49/49/49 46/46/46 48/48/48
f 47/47/47 48/48/48 46/46/46
f 50/50/50 51/51/51 52/52/52
f 53/53/53 54/54/54 55/55/55
f 56/56/56 57/57/57 58/58/58
f 59/59/59 60/60/60 61/61/61
f 62/62/62 63/63/63 64/64/64
f 65/65/65 66/66/66 67/67/67
f 68/68/68 69/69/69 70/70/70
f 71/71/71 72/72/72 73/73/73
f 74/74/74 75/75/75 76/76/76
f 77/77/77 78/78/78 79/79/79
f 80/80/80 81/81/81 82/82/82
f 83/83/83 84/84/84 85/85/85
f 89/89/89 86/86/86 88/88/88
f 87/87/87 88/88/88 86/86/86
f 93/93/93 90/90/90 92/92/92
f 91/91/91 92/92/92 90/90/90
f 97/97/97 94/94/94 96/96/96
f 95/95/95 96/96/96 94/94/94
f 101/101/101 98/98/98 100/100/100
f 99/99/99 100/100/100 98/98/98
f 102/102/102 103/103/103 104/104/104
f 105/105/105 106/106/106 107/107/107
f 108/108/108 109/109/109 110/110/110
f 111/111/111 112/112/112 113/113/113
f 114/114/114 115/115/115 116/116/116
f 117/117/117 118/118/118 119/119/119
f 120/120/120 121/121/121 122/122/122
f 123/123/123 124/124/124 125/125/125
f 126/126/126 127/127/127 128/128/128
f 129/129/129 130/130/130 131/131/131
f 132/132/132 133/133/133 134/134/134
f 135/135/135 136/136/136 137/137/137
f 138/138/138 139/139/139 140/140/140
f 141/141/141 142/142/142 143/143/143
f 145/145/145 146/146/146 147/147/147
f 144/144/144 145/145/145 147/147/147
f 148/148/148 149/149/149 150/150/150
f 154/154/154 151/151/151 153/153/153
f 153/153/153 151/151/151 152/152/152
f 156/156/156 157/157/157 158/158/158
f 155/155/155 156/156/156 158/158/158
f 159/159/159 161/161/161 162/162/162
f 161/161/161 159/159/159 160/160/160
f 163/163/163 165/165/165 166/166/166
f 163/163/163 164/164/164 165/165/165
f 168/168/168 169/169/169 170/170/170
f 167/167/167 168/168/168 170/170/170
f 171/171/171 172/172/172 173/173/173
f 174/174/174 175/175/175 176/176/176
f 177/177/177 178/178/178 179/179/179
f 183/183/183 180/180/180 182/182/182
f 182/182/182 180/180/180 181/181/181
f 187/187/187 184/184/184 186/186/186
f 186/186/186 184/184/184 185/185/185
f 188/188/188 189/189/189 190/190/190
f 192/192/192 193/193/193 191/191/191
f 191/191/191 193/193/193 194/194/194
f 195/195/195 196/196/196 197/197/197
f 198/198/198 199/199/199 200/200/200
f 201/201/201 202/202/202 203/203/203
f 204/204/204 205/205/205 206/206/206
f 207/207/207 208/208/208 209/209/209
f 210/210/210 211/211/211 212/212/212
f 215/215/215 216/216/216 214/214/214
f 213/213/213 214/214/214 216/216/216
f 230/230/230 231/231/231 232/232/232
f 217/217/217 230/230/230 232/232/232
f 217/217/217 218/218/218 219/219/219
f 219/219/219 227/227/227 228/228/228
f 230/230/230 228/228/228 229/229/229
f 219/219/219 220/220/220 227/227/227
f 220/220/220 221/221/221 227/227/227
f 221/221/221 222/222/222 227/227/227
f 222/222/222 223/223/223 224/224/224
f 230/230/230 217/217/217 228/228/228
f 222/222/222 224/224/224 225/225/225
f 217/217/217 219/219/219 228/228/228
f 222/222/222 225/225/225 227/227/227
f 225/225/225 226/226/226 227/227/227
