v -6.421384 5.137922 2.208648
v -0.05438409 5.136306 6.310648
v 0.7926159 5.137366 -2.655352
v -6.421384 5.137922 2.208648
v 0.7926159 5.137366 -2.655352
v -2.091384 5.137259 -4.513352
v -0.05438409 5.136306 6.310648
v 1.823616 5.137334 -2.920352
v 0.7926159 5.137366 -2.655352
v -0.05438409 5.136306 6.310648
v 6.604616 5.137306 -4.028352
v 1.823616 5.137334 -2.920352
v 1.823616 5.137334 -2.920352
v 6.604616 5.137306 -4.028352
v 4.897616 5.137437 -5.127352
v 1.823616 5.137334 -2.920352
v 4.897616 5.137437 -5.127352
v 3.729616 5.13762 -5.879352
v 4.280616 3.693472 -6.735352
v 4.897616 4.199472 -5.127352
v 5.448616 3.693472 -5.983352
v 3.729616 4.200472 -5.879352
v 4.897616 4.199472 -5.127352
v 4.280616 3.693472 -6.735352
v -6.421384 5.137922 2.208648
v -4.256384 -5.117861 -1.152352
v -6.421384 -5.117861 2.208648
v -4.256384 -5.117861 -1.152352
v -2.091384 5.137259 -4.513352
v -2.091384 -5.117861 -4.513352
v -6.421384 5.137922 2.208648
v -2.091384 5.137259 -4.513352
v -4.256384 -5.117861 -1.152352
v -6.421384 -5.117861 2.208648
v -0.05438409 -5.117861 6.310648
v -0.05438409 5.136306 6.310648
v -6.421384 5.137922 2.208648
v -0.05438409 -5.117861 6.310648
v 6.604616 -5.117861 -4.028352
v 6.604616 5.137306 -4.028352
v -0.05438409 5.136306 6.310648
v 4.897616 5.137437 -5.127352
v 5.751116 -5.117861 -4.577852
v 4.897616 4.199472 -5.127352
v 4.897616 4.199472 -5.127352
v 5.751116 -5.117861 -4.577852
v 4.897616 -5.117861 -5.127352
v 5.751116 -5.117861 -4.577852
v 6.604616 5.137306 -4.028352
v 6.604616 -5.117861 -4.028352
v 4.897616 5.137437 -5.127352
v 6.604616 5.137306 -4.028352
v 5.751116 -5.117861 -4.577852
v 3.729616 5.13762 -5.879352
v 4.897616 5.137437 -5.127352
v 4.897616 4.199472 -5.127352
v 3.729616 4.200472 -5.879352
v 1.823616 5.137334 -2.920352
v 2.776616 -5.117861 -4.399852
v 1.823616 -5.117861 -2.920352
v 1.823616 5.137334 -2.920352
v 3.729616 5.13762 -5.879352
v 2.776616 -5.117861 -4.399852
v 2.776616 -5.117861 -4.399852
v 3.729616 5.13762 -5.879352
v 3.729616 4.200472 -5.879352
v 2.776616 -5.117861 -4.399852
v 3.729616 4.200472 -5.879352
v 3.729616 -5.117861 -5.879352
v 3.729616 4.200472 -5.879352
v 4.280616 3.693472 -6.735352
v 4.280616 -5.117861 -6.735352
v 3.729616 -5.117861 -5.879352
v 0.7926159 5.137366 -2.655352
v 1.823616 5.137334 -2.920352
v 1.823616 -5.117861 -2.920352
v 0.7926159 -5.117861 -2.655352
v -2.091384 5.137259 -4.513352
v 0.7926159 5.137366 -2.655352
v 0.7926159 -5.117861 -2.655352
v -2.091384 -5.117861 -4.513352
v 5.173116 -5.117861 -5.555352
v 5.448616 -5.117861 -5.983352
v 5.448616 3.693472 -5.983352
v 4.897616 4.199472 -5.127352
v 4.897616 -5.117861 -5.127352
v 5.173116 -5.117861 -5.555352
v 4.897616 4.199472 -5.127352
v 5.173116 -5.117861 -5.555352
v 5.448616 3.693472 -5.983352
v 4.280616 3.693472 -6.735352
v 4.864616 -5.117861 -6.359352
v 4.280616 -5.117861 -6.735352
v 4.864616 -5.117861 -6.359352
v 5.448616 3.693472 -5.983352
v 5.448616 -5.117861 -5.983352
v 4.280616 3.693472 -6.735352
v 5.448616 3.693472 -5.983352
v 4.864616 -5.117861 -6.359352
v 2.776616 -5.117861 -4.399852
v 3.729616 -5.117861 -5.879352
v 4.280616 -5.117861 -6.735352
v 4.864616 -5.117861 -6.359352
v 5.448616 -5.117861 -5.983352
v 5.173116 -5.117861 -5.555352
v 4.897616 -5.117861 -5.127352
v 5.751116 -5.117861 -4.577852
v 6.604616 -5.117861 -4.028352
v -0.05438409 -5.117861 6.310648
v -6.421384 -5.117861 2.208648
v -4.256384 -5.117861 -1.152352
v -2.091384 -5.117861 -4.513352
v 0.7926159 -5.117861 -2.655352
v 1.823616 -5.117861 -2.920352
vt 0.192668 0.385751
vt 0.002618 0.198985
vt 0.414395 0.172863
vt 0.192668 0.385751
vt 0.414395 0.172863
vt 0.500482 0.257464
vt 0.002618 0.198985
vt 0.426319 0.142494
vt 0.414395 0.172863
vt 0.002618 0.198985
vt 0.476061 0.001675
vt 0.426319 0.142494
vt 0.426319 0.142494
vt 0.476061 0.001675
vt 0.526981 0.051753
vt 0.426319 0.142494
vt 0.526981 0.051753
vt 0.561823 0.086018
vt 0.378719 0.917387
vt 0.303665 0.904142
vt 0.344898 0.884422
vt 0.337501 0.937135
vt 0.303665 0.904142
vt 0.378719 0.917387
vt 0.002618 0.798174
vt 0.229758 0.817577
vt 0.077995 0.880836
vt 0.229758 0.817577
vt 0.310086 0.670017
vt 0.381524 0.754317
vt 0.002618 0.798174
vt 0.310086 0.670017
vt 0.229758 0.817577
vt 0.816824 0.659891
vt 0.629931 0.475470
vt 0.552356 0.390285
vt 0.741664 0.577088
vt 0.083274 0.584644
vt 0.546297 0.390285
vt 0.471592 0.468996
vt 0.002618 0.665846
vt 0.602513 0.797663
vt 0.650616 0.694337
vt 0.609255 0.790353
vt 0.609255 0.790353
vt 0.650616 0.694337
vt 0.675376 0.718656
vt 0.650616 0.694337
vt 0.552356 0.748397
vt 0.625856 0.670017
vt 0.602513 0.797663
vt 0.552356 0.748397
vt 0.650616 0.694337
vt 0.636833 0.831374
vt 0.602513 0.797663
vt 0.609255 0.790353
vt 0.643529 0.824030
vt 0.680628 0.730192
vt 0.819310 0.787913
vt 0.752748 0.815663
vt 0.680628 0.730192
vt 0.815477 0.673968
vt 0.819310 0.787913
vt 0.819310 0.787913
vt 0.815477 0.673968
vt 0.821986 0.681937
vt 0.819310 0.787913
vt 0.821986 0.681937
vt 0.885873 0.760162
vt 0.821986 0.681937
vt 0.864440 0.670017
vt 0.924385 0.744117
vt 0.885873 0.760162
vt 0.002618 0.914557
vt 0.014246 0.884422
vt 0.084924 0.969640
vt 0.073445 0.999389
vt 0.472638 0.833789
vt 0.387435 0.750553
vt 0.462040 0.670017
vt 0.546158 0.752196
vt 0.278389 0.892360
vt 0.297180 0.884422
vt 0.235332 0.951414
vt 0.193717 0.971366
vt 0.259598 0.900297
vt 0.278389 0.892360
vt 0.193717 0.971366
vt 0.278389 0.892360
vt 0.235332 0.951414
vt 0.125690 0.985048
vt 0.170196 0.900963
vt 0.187043 0.917504
vt 0.170196 0.900963
vt 0.091623 0.951601
vt 0.153349 0.884422
vt 0.125690 0.985048
vt 0.091623 0.951601
vt 0.170196 0.900963
vt 0.384817 0.884422
vt 0.384817 0.884422
vt 0.384817 0.884422
vt 0.384817 0.884422
vt 0.384817 0.884422
vt 0.384817 0.884422
vt 0.384817 0.884422
vt 0.384817 0.884422
vt 0.384817 0.884422
vt 0.384817 0.884422
vt 0.384817 0.884422
vt 0.384817 0.884422
vt 0.384817 0.884422
vt 0.384817 0.884422
vt 0.384817 0.884422
vn 0.0001674273 1 0.0001340298
vn 0.0001674273 1 0.0001340298
vn 0.0001674273 1 0.0001340298
vn 1.873127E-05 1 -8.650753E-05
vn 1.873127E-05 1 -8.650753E-05
vn 1.873127E-05 1 -8.650753E-05
vn 6.293105E-05 1 0.0001241582
vn 6.293105E-05 1 0.0001241582
vn 6.293105E-05 1 0.0001241582
vn 3.321235E-05 1 0.0001181121
vn 3.321235E-05 1 0.0001181121
vn 3.321235E-05 1 0.0001181121
vn 2.456492E-05 1 8.079862E-05
vn 2.456492E-05 1 8.079862E-05
vn 2.456492E-05 1 8.079862E-05
vn 6.695768E-05 1 0.000139845
vn 6.695768E-05 1 0.000139845
vn 6.695768E-05 1 0.000139845
vn 0.2409497 0.8954814 -0.374241
vn 0.2409497 0.8954814 -0.374241
vn 0.2409497 0.8954814 -0.374241
vn 0.2418731 0.8951305 -0.3744849
vn 0.2418731 0.8951305 -0.3744849
vn 0.2418731 0.8951305 -0.3744849
vn -0.8406824 0 -0.5415285
vn -0.8406824 0 -0.5415285
vn -0.8406824 0 -0.5415285
vn -0.8406824 0 -0.5415285
vn -0.8406824 0 -0.5415285
vn -0.8406824 0 -0.5415285
vn -0.8406824 2.704764E-10 -0.5415285
vn -0.8406824 2.704764E-10 -0.5415285
vn -0.8406824 2.704764E-10 -0.5415285
vn -0.5415915 0 0.8406419
vn -0.5415915 0 0.8406419
vn -0.5415915 0 0.8406419
vn -0.5415915 0 0.8406419
vn 0.8407158 0 0.5414766
vn 0.8407158 0 0.5414766
vn 0.8407158 0 0.5414766
vn 0.8407158 0 0.5414766
vn 0.54133 0 -0.8408102
vn 0.54133 0 -0.8408102
vn 0.54133 0 -0.8408102
vn 0.54133 0 -0.8408102
vn 0.54133 0 -0.8408102
vn 0.54133 0 -0.8408102
vn 0.54133 0 -0.8408102
vn 0.54133 0 -0.8408102
vn 0.54133 0 -0.8408102
vn 0.54133 -2.260591E-10 -0.8408102
vn 0.54133 -2.260591E-10 -0.8408102
vn 0.54133 -2.260591E-10 -0.8408102
vn 0.5413396 0 -0.840804
vn 0.5413396 0 -0.840804
vn 0.5413396 0 -0.840804
vn 0.5413396 0 -0.840804
vn -0.8406889 0 -0.5415184
vn -0.8406889 0 -0.5415184
vn -0.8406889 0 -0.5415184
vn -0.8406889 4.325617E-10 -0.5415184
vn -0.8406889 4.325617E-10 -0.5415184
vn -0.8406889 4.325617E-10 -0.5415184
vn -0.8406889 0 -0.5415184
vn -0.8406889 0 -0.5415184
vn -0.8406889 0 -0.5415184
vn -0.8406889 0 -0.5415184
vn -0.8406889 0 -0.5415184
vn -0.8406889 0 -0.5415184
vn -0.8408592 0 -0.541254
vn -0.8408592 0 -0.541254
vn -0.8408592 0 -0.541254
vn -0.8408592 0 -0.541254
vn -0.2489402 0 -0.9685189
vn -0.2489402 0 -0.9685189
vn -0.2489402 0 -0.9685189
vn -0.2489402 0 -0.9685189
vn 0.5415823 0 -0.8406477
vn 0.5415823 0 -0.8406477
vn 0.5415823 0 -0.8406477
vn 0.5415823 0 -0.8406477
vn 0.8408592 0 0.541254
vn 0.8408592 0 0.541254
vn 0.8408592 0 0.541254
vn 0.8408592 0 0.541254
vn 0.8408592 0 0.541254
vn 0.8408592 0 0.541254
vn 0.8408592 2.78058E-11 0.541254
vn 0.8408592 2.78058E-11 0.541254
vn 0.8408592 2.78058E-11 0.541254
vn 0.5413396 0 -0.840804
vn 0.5413396 0 -0.840804
vn 0.5413396 0 -0.840804
vn 0.5413396 0 -0.840804
vn 0.5413396 0 -0.840804
vn 0.5413396 0 -0.840804
vn 0.5413396 -1.788046E-12 -0.840804
vn 0.5413396 -1.788046E-12 -0.840804
vn 0.5413396 -1.788046E-12 -0.840804
vn 0 -1 0
vn 0 -1 0
vn 0 -1 0
vn 0 -1 0
vn 0 -1 0
vn 0 -1 0
vn 0 -1 0
vn 0 -1 0
vn 0 -1 0
vn 0 -1 0
vn 0 -1 0
vn 0 -1 0
vn 0 -1 0
vn 0 -1 0
vn 0 -1 0

g CDNNDG02_0004410
f 1/1/1 2/2/2 3/3/3
f 4/4/4 5/5/5 6/6/6
f 7/7/7 8/8/8 9/9/9
f 10/10/10 11/11/11 12/12/12
f 13/13/13 14/14/14 15/15/15
f 16/16/16 17/17/17 18/18/18
f 19/19/19 20/20/20 21/21/21
f 22/22/22 23/23/23 24/24/24
f 25/25/25 26/26/26 27/27/27
f 28/28/28 29/29/29 30/30/30
f 31/31/31 32/32/32 33/33/33
f 34/34/34 36/36/36 37/37/37
f 36/36/36 34/34/34 35/35/35
f 41/41/41 38/38/38 39/39/39
f 39/39/39 40/40/40 41/41/41
f 42/42/42 43/43/43 44/44/44
f 45/45/45 46/46/46 47/47/47
f 48/48/48 49/49/49 50/50/50
f 51/51/51 52/52/52 53/53/53
f 55/55/55 56/56/56 57/57/57
f 54/54/54 55/55/55 57/57/57
f 58/58/58 59/59/59 60/60/60
f 61/61/61 62/62/62 63/63/63
f 64/64/64 65/65/65 66/66/66
f 67/67/67 68/68/68 69/69/69
f 71/71/71 72/72/72 73/73/73
f 70/70/70 71/71/71 73/73/73
f 75/75/75 76/76/76 77/77/77
f 74/74/74 75/75/75 77/77/77
f 78/78/78 80/80/80 81/81/81
f 78/78/78 79/79/79 80/80/80
f 82/82/82 83/83/83 84/84/84
f 85/85/85 86/86/86 87/87/87
f 88/88/88 89/89/89 90/90/90
f 91/91/91 92/92/92 93/93/93
f 94/94/94 95/95/95 96/96/96
f 97/97/97 98/98/98 99/99/99
f 114/114/114 108/108/108 109/109/109
f 104/104/104 105/105/105 103/103/103
f 101/101/101 102/102/102 103/103/103
f 113/113/113 111/111/111 112/112/112
f 114/114/114 100/100/100 107/107/107
f 113/113/113 109/109/109 111/111/111
f 101/101/101 103/103/103 105/105/105
f 106/106/106 107/107/107 100/100/100
f 105/105/105 106/106/106 101/101/101
f 106/106/106 100/100/100 101/101/101
f 107/107/107 108/108/108 114/114/114
f 110/110/110 111/111/111 109/109/109
f 109/109/109 113/113/113 114/114/114
