v 1.334458 2.79217 -1.28032
v 3.315458 2.87236 -1.77732
v 1.844458 2.790811 -1.86932
v 1.207458 2.67636 -3.56732
v 1.844458 2.790811 -1.86932
v 3.315458 2.87236 -1.77732
v 0.3455015 2.792284 -0.1910165
v 3.315458 2.87236 -1.77732
v 1.334458 2.79217 -1.28032
v -0.6355419 2.701485 -1.01532
v 0.3455015 2.792284 -0.1910165
v 1.334458 2.79217 -1.28032
v -0.6355419 2.701485 -1.01532
v 1.334458 2.79217 -1.28032
v 0.2844581 2.69376 -2.18832
v -0.6355419 2.701485 -1.01532
v 0.2844581 2.69376 -2.18832
v 1.207458 2.67636 -3.56732
v 0.2844581 2.69376 -2.18832
v 0.7934581 2.6923 -2.77832
v 1.207458 2.67636 -3.56732
v 0.7934581 2.6923 -2.77832
v 1.844458 2.790811 -1.86932
v 1.207458 2.67636 -3.56732
v -3.323542 2.69336 1.76868
v -0.6355419 2.701485 -1.01532
v 1.207458 2.67636 -3.56732
v -3.323542 2.69336 1.76868
v -2.559542 2.710478 1.28768
v -2.055542 2.710045 0.7246804
v -3.323542 2.69336 1.76868
v -2.055542 2.710045 0.7246804
v -1.108542 2.703592 -0.4513196
v -3.323542 2.69336 1.76868
v -1.108542 2.703592 -0.4513196
v -0.6355419 2.701485 -1.01532
v -2.055542 2.710045 0.7246804
v -1.799002 2.734464 0.9543982
v -1.108542 2.703592 -0.4513196
v -3.323542 2.69336 1.76868
v -2.508523 2.715334 1.333365
v -2.559542 2.710478 1.28768
v -1.799002 2.734464 0.9543982
v -0.3539672 2.773425 0.1825813
v -1.108542 2.703592 -0.4513196
v -1.089542 2.796067 1.58968
v 3.315458 2.87236 -1.77732
v -0.07054193 2.797378 0.4206804
v -0.07054193 2.797378 0.4206804
v 3.315458 2.87236 -1.77732
v 0.4034581 2.797183 -0.1423196
v -1.593542 2.794782 2.15268
v 3.315458 2.87236 -1.77732
v -1.089542 2.796067 1.58968
v -1.089542 2.796067 1.58968
v -0.07054193 2.797378 0.4206804
v -0.3539672 2.773425 0.1825813
v -1.593542 2.794782 2.15268
v -1.214542 2.87236 3.55868
v 3.315458 2.87236 -1.77732
v -3.323542 2.69336 1.76868
v -1.214542 2.87236 3.55868
v -1.593542 2.794782 2.15268
v 0.3455015 2.792284 -0.1910165
v 0.4034581 2.797183 -0.1423196
v 3.315458 2.87236 -1.77732
v -3.323542 2.69336 1.76868
v -1.593542 2.794782 2.15268
v -2.508523 2.715334 1.333365
v -1.799002 2.734464 0.9543982
v -1.089542 2.796067 1.58968
v -0.3539672 2.773425 0.1825813
v -2.559542 2.84636 1.28768
v -1.593542 2.96536 2.15268
v -1.089542 2.96536 1.58968
v -2.055542 2.84636 0.7246804
v -0.6355419 2.87236 -1.01532
v -0.07054193 2.96536 0.4206804
v 0.4034581 2.96536 -0.1423196
v -1.108542 2.85536 -0.4513196
v -0.07054193 2.96536 0.4206804
v -0.6355419 2.87236 -1.01532
v 0.2844581 2.83836 -2.18832
v 1.334458 2.94036 -1.28032
v 1.844458 2.95736 -1.86932
v 0.2844581 2.83836 -2.18832
v 1.844458 2.95736 -1.86932
v 0.7934581 2.82136 -2.77832
v -1.214542 2.87236 3.55868
v -1.214542 -2.8055 3.55868
v 3.315458 2.87236 -1.77732
v 3.315458 -2.8055 -1.77732
v 1.207458 2.67636 -3.56732
v 2.261458 -2.8055 -2.67232
v 1.207458 -2.8055 -3.56732
v 2.261458 -2.8055 -2.67232
v 3.315458 2.87236 -1.77732
v 3.315458 -2.8055 -1.77732
v 1.207458 2.67636 -3.56732
v 3.315458 2.87236 -1.77732
v 2.261458 -2.8055 -2.67232
v 1.207458 2.67636 -3.56732
v 1.207458 -2.8055 -3.56732
v -3.323542 -2.8055 1.76868
v -3.323542 2.69336 1.76868
v -3.323542 2.69336 1.76868
v -3.323542 -2.8055 1.76868
v -1.214542 -2.8055 3.55868
v -1.214542 2.87236 3.55868
v -2.508523 2.715334 1.333365
v -1.593542 2.794782 2.15268
v -1.593542 2.96536 2.15268
v -2.559542 2.84636 1.28768
v -2.559542 2.710478 1.28768
v -2.508523 2.715334 1.333365
v -2.559542 2.84636 1.28768
v -2.508523 2.715334 1.333365
v -1.593542 2.96536 2.15268
v -1.089542 2.796067 1.58968
v -1.089542 2.96536 1.58968
v -1.593542 2.96536 2.15268
v -1.593542 2.794782 2.15268
v -2.055542 2.84636 0.7246804
v -1.799002 2.734464 0.9543982
v -2.055542 2.710045 0.7246804
v -1.799002 2.734464 0.9543982
v -1.089542 2.96536 1.58968
v -1.089542 2.796067 1.58968
v -2.055542 2.84636 0.7246804
v -1.089542 2.96536 1.58968
v -1.799002 2.734464 0.9543982
v -2.559542 2.710478 1.28768
v -2.559542 2.84636 1.28768
v -2.055542 2.84636 0.7246804
v -2.055542 2.710045 0.7246804
v -0.3539672 2.773425 0.1825813
v -0.07054193 2.797378 0.4206804
v -0.07054193 2.96536 0.4206804
v -1.108542 2.85536 -0.4513196
v -1.108542 2.703592 -0.4513196
v -0.3539672 2.773425 0.1825813
v -1.108542 2.85536 -0.4513196
v -0.3539672 2.773425 0.1825813
v -0.07054193 2.96536 0.4206804
v -0.07054193 2.797378 0.4206804
v 0.4034581 2.96536 -0.1423196
v -0.07054193 2.96536 0.4206804
v 0.4034581 2.797183 -0.1423196
v -0.6355419 2.87236 -1.01532
v 0.3455015 2.792284 -0.1910165
v -0.6355419 2.701485 -1.01532
v 0.3455015 2.792284 -0.1910165
v 0.4034581 2.96536 -0.1423196
v 0.4034581 2.797183 -0.1423196
v -0.6355419 2.87236 -1.01532
v 0.4034581 2.96536 -0.1423196
v 0.3455015 2.792284 -0.1910165
v -1.108542 2.703592 -0.4513196
v -1.108542 2.85536 -0.4513196
v -0.6355419 2.701485 -1.01532
v -0.6355419 2.87236 -1.01532
v 0.2844581 2.83836 -2.18832
v 1.334458 2.79217 -1.28032
v 1.334458 2.94036 -1.28032
v 0.2844581 2.69376 -2.18832
v 1.334458 2.94036 -1.28032
v 1.334458 2.79217 -1.28032
v 1.844458 2.790811 -1.86932
v 1.844458 2.95736 -1.86932
v 0.7934581 2.82136 -2.77832
v 1.844458 2.790811 -1.86932
v 0.7934581 2.6923 -2.77832
v 1.844458 2.95736 -1.86932
v 0.2844581 2.69376 -2.18832
v 0.7934581 2.82136 -2.77832
v 0.7934581 2.6923 -2.77832
v 0.2844581 2.83836 -2.18832
v -3.323542 -2.8055 1.76868
v 1.207458 -2.8055 -3.56732
v 2.261458 -2.8055 -2.67232
v -1.214542 -2.8055 3.55868
v 3.315458 -2.8055 -1.77732
vt 0.190617 0.964901
vt 0.193502 0.956041
vt 0.194121 0.962628
vt 0.204319 0.965506
vt 0.194121 0.962628
vt 0.193502 0.956041
vt 0.184138 0.969311
vt 0.193502 0.956041
vt 0.190617 0.964901
vt 0.189121 0.973714
vt 0.184138 0.969311
vt 0.190617 0.964901
vt 0.189121 0.973714
vt 0.190617 0.964901
vt 0.196103 0.969615
vt 0.189121 0.973714
vt 0.196103 0.969615
vt 0.204319 0.965506
vt 0.196103 0.969615
vt 0.199613 0.967346
vt 0.204319 0.965506
vt 0.199613 0.967346
vt 0.194121 0.962628
vt 0.204319 0.965506
vt 0.172572 0.985700
vt 0.189121 0.973714
vt 0.204319 0.965506
vt 0.172572 0.985700
vt 0.175417 0.982288
vt 0.178766 0.980042
vt 0.172572 0.985700
vt 0.178766 0.980042
vt 0.185765 0.975822
vt 0.172572 0.985700
vt 0.185765 0.975822
vt 0.189121 0.973714
vt 0.178766 0.980042
vt 0.177378 0.978890
vt 0.185765 0.975822
vt 0.172572 0.985700
vt 0.175141 0.982059
vt 0.175417 0.982288
vt 0.177378 0.978890
vt 0.181933 0.972435
vt 0.185765 0.975822
vt 0.173544 0.975707
vt 0.193502 0.956041
vt 0.180495 0.971164
vt 0.180495 0.971164
vt 0.193502 0.956041
vt 0.183844 0.969051
vt 0.170197 0.977954
vt 0.193502 0.956041
vt 0.173544 0.975707
vt 0.173544 0.975707
vt 0.180495 0.971164
vt 0.181933 0.972435
vt 0.170197 0.977954
vt 0.161765 0.976238
vt 0.193502 0.956041
vt 0.172572 0.985700
vt 0.161765 0.976238
vt 0.170197 0.977954
vt 0.184138 0.969311
vt 0.183844 0.969051
vt 0.193502 0.956041
vt 0.172572 0.985700
vt 0.170197 0.977954
vt 0.175141 0.982059
vt 0.177378 0.978890
vt 0.173544 0.975707
vt 0.181933 0.972435
vt 0.094023 0.999021
vt 0.088936 0.994810
vt 0.092177 0.992630
vt 0.097264 0.996841
vt 0.088179 0.997154
vt 0.079832 0.994680
vt 0.083073 0.992630
vt 0.084949 0.999202
vt 0.079832 0.994680
vt 0.088179 0.997154
vt 0.051542 0.999423
vt 0.046218 0.994842
vt 0.049599 0.992630
vt 0.051542 0.999423
vt 0.049599 0.992630
vt 0.054960 0.997221
vt 0.308824 0.981993
vt 0.314614 0.976088
vt 0.340453 0.961807
vt 0.346025 0.956041
vt 0.731286 0.970884
vt 0.731311 0.960669
vt 0.736530 0.965296
vt 0.731311 0.960669
vt 0.720588 0.961765
vt 0.726093 0.956041
vt 0.731286 0.970884
vt 0.720588 0.961765
vt 0.731311 0.960669
vt 0.248493 0.956041
vt 0.253749 0.963667
vt 0.222221 0.983725
vt 0.216737 0.976211
vt 0.676967 0.965685
vt 0.682385 0.973157
vt 0.671985 0.963823
vt 0.666317 0.956041
vt 0.148737 0.996869
vt 0.144070 0.992855
vt 0.143908 0.992630
vt 0.148869 0.996915
vt 0.148998 0.997094
vt 0.148737 0.996869
vt 0.148869 0.996915
vt 0.148737 0.996869
vt 0.143908 0.992630
vt 0.210502 0.992630
vt 0.210345 0.992791
vt 0.207283 0.994833
vt 0.207442 0.994670
vt 0.158690 0.996769
vt 0.157505 0.995572
vt 0.158819 0.996633
vt 0.157505 0.995572
vt 0.153711 0.992798
vt 0.153874 0.992630
vt 0.158690 0.996769
vt 0.153711 0.992798
vt 0.157505 0.995572
vt 0.194803 0.994841
vt 0.194678 0.994671
vt 0.197752 0.992630
vt 0.197877 0.992801
vt 0.109358 0.994104
vt 0.108001 0.992854
vt 0.107843 0.992630
vt 0.112833 0.997238
vt 0.112975 0.997440
vt 0.109358 0.994104
vt 0.112833 0.997238
vt 0.109358 0.994104
vt 0.107843 0.992630
vt 0.215841 0.994526
vt 0.218749 0.992786
vt 0.215686 0.994683
vt 0.218903 0.992630
vt 0.125096 0.997132
vt 0.120536 0.992872
vt 0.125256 0.996962
vt 0.120536 0.992872
vt 0.120098 0.992797
vt 0.120257 0.992630
vt 0.125096 0.997132
vt 0.120098 0.992797
vt 0.120536 0.992872
vt 0.211622 0.994732
vt 0.211485 0.994543
vt 0.214703 0.992843
vt 0.214548 0.992630
vt 0.118999 0.997280
vt 0.113934 0.992829
vt 0.113796 0.992630
vt 0.119133 0.997473
vt 0.203081 0.994836
vt 0.203216 0.994697
vt 0.206421 0.992630
vt 0.206270 0.992786
vt 0.131310 0.997139
vt 0.126207 0.992630
vt 0.131430 0.997011
vt 0.126050 0.992794
vt 0.199009 0.994853
vt 0.202116 0.992630
vt 0.202231 0.992794
vt 0.198880 0.994669
vt 0.282563 0.992630
vt 0.282563 0.992630
vt 0.282563 0.992630
vt 0.282563 0.992630
vt 0.282563 0.992630
vn -0.0523216 0.9974949 -0.04760618
vn -0.0523216 0.9974949 -0.04760618
vn -0.0523216 0.9974949 -0.04760618
vn -0.0523216 0.9974949 -0.04760619
vn -0.0523216 0.9974949 -0.04760619
vn -0.0523216 0.9974949 -0.04760619
vn -0.0523216 0.9974949 -0.04760618
vn -0.0523216 0.9974949 -0.04760618
vn -0.0523216 0.9974949 -0.04760618
vn -0.0523216 0.9974949 -0.04760618
vn -0.0523216 0.9974949 -0.04760618
vn -0.0523216 0.9974949 -0.04760618
vn -0.0523216 0.9974949 -0.04760618
vn -0.0523216 0.9974949 -0.04760618
vn -0.0523216 0.9974949 -0.04760618
vn -0.05232165 0.9974949 -0.04760621
vn -0.05232165 0.9974949 -0.04760621
vn -0.05232165 0.9974949 -0.04760621
vn -0.05232161 0.9974949 -0.04760619
vn -0.05232161 0.9974949 -0.04760619
vn -0.05232161 0.9974949 -0.04760619
vn -0.0523216 0.9974949 -0.04760619
vn -0.0523216 0.9974949 -0.04760619
vn -0.0523216 0.9974949 -0.04760619
vn -0.05232161 0.9974949 -0.04760619
vn -0.05232161 0.9974949 -0.04760619
vn -0.05232161 0.9974949 -0.04760619
vn -0.0523216 0.9974949 -0.04760618
vn -0.0523216 0.9974949 -0.04760618
vn -0.0523216 0.9974949 -0.04760618
vn -0.0523216 0.9974949 -0.04760618
vn -0.0523216 0.9974949 -0.04760618
vn -0.0523216 0.9974949 -0.04760618
vn -0.0523215 0.9974949 -0.04760608
vn -0.0523215 0.9974949 -0.04760608
vn -0.0523215 0.9974949 -0.04760608
vn -0.05232161 0.9974949 -0.04760619
vn -0.05232161 0.9974949 -0.04760619
vn -0.05232161 0.9974949 -0.04760619
vn -0.05232165 0.9974949 -0.04760626
vn -0.05232165 0.9974949 -0.04760626
vn -0.05232165 0.9974949 -0.04760626
vn -0.0523216 0.9974949 -0.04760619
vn -0.0523216 0.9974949 -0.04760619
vn -0.0523216 0.9974949 -0.04760619
vn -0.04922708 0.9979129 -0.04179136
vn -0.04922708 0.9979129 -0.04179136
vn -0.04922708 0.9979129 -0.04179136
vn -0.04922706 0.9979129 -0.04179133
vn -0.04922706 0.9979129 -0.04179133
vn -0.04922706 0.9979129 -0.04179133
vn -0.04922706 0.9979129 -0.04179133
vn -0.04922706 0.9979129 -0.04179133
vn -0.04922706 0.9979129 -0.04179133
vn -0.04922707 0.9979129 -0.04179135
vn -0.04922707 0.9979129 -0.04179135
vn -0.04922707 0.9979129 -0.04179135
vn -0.04922707 0.9979129 -0.04179135
vn -0.04922707 0.9979129 -0.04179135
vn -0.04922707 0.9979129 -0.04179135
vn -0.04922707 0.9979129 -0.04179135
vn -0.04922707 0.9979129 -0.04179135
vn -0.04922707 0.9979129 -0.04179135
vn -0.04922709 0.9979129 -0.04179138
vn -0.04922709 0.9979129 -0.04179138
vn -0.04922709 0.9979129 -0.04179138
vn -0.04922707 0.9979129 -0.04179134
vn -0.04922707 0.9979129 -0.04179134
vn -0.04922707 0.9979129 -0.04179134
vn -0.04922707 0.9979129 -0.04179135
vn -0.04922707 0.9979129 -0.04179135
vn -0.04922707 0.9979129 -0.04179135
vn -0.06809085 0.9958153 -0.06095522
vn -0.06809085 0.9958153 -0.06095522
vn -0.06809085 0.9958153 -0.06095522
vn -0.06809085 0.9958153 -0.06095522
vn -0.05230139 0.99766 -0.0440335
vn -0.05230139 0.99766 -0.0440335
vn -0.05230139 0.99766 -0.0440335
vn -0.07675391 0.9964587 -0.03433475
vn -0.07675391 0.9964587 -0.03433475
vn -0.07675391 0.9964587 -0.03433475
vn -0.06961732 0.9970763 -0.03150176
vn -0.06961732 0.9970763 -0.03150176
vn -0.06961732 0.9970763 -0.03150176
vn -0.05953603 0.9950127 -0.0800323
vn -0.05953603 0.9950127 -0.0800323
vn -0.05953603 0.9950127 -0.0800323
vn 0.762334 0 0.6471838
vn 0.762334 0 0.6471838
vn 0.762334 0 0.6471838
vn 0.762334 0 0.6471838
vn 0.6472704 0 -0.7622604
vn 0.6472704 0 -0.7622604
vn 0.6472704 0 -0.7622604
vn 0.6472704 0 -0.7622604
vn 0.6472704 0 -0.7622604
vn 0.6472704 0 -0.7622604
vn 0.6472704 6.361363E-11 -0.7622604
vn 0.6472704 6.361363E-11 -0.7622604
vn 0.6472704 6.361363E-11 -0.7622604
vn -0.7622635 0 -0.6472669
vn -0.7622635 0 -0.6472669
vn -0.7622635 0 -0.6472669
vn -0.7622635 0 -0.6472669
vn -0.6470921 0 0.7624118
vn -0.6470921 0 0.7624118
vn -0.6470921 0 0.7624118
vn -0.6470921 0 0.7624118
vn -0.6670879 0 0.744979
vn -0.6670879 0 0.744979
vn -0.6670879 0 0.744979
vn -0.6670879 0 0.744979
vn -0.6670879 0 0.744979
vn -0.6670879 0 0.744979
vn -0.6670879 1.781398E-08 0.744979
vn -0.6670879 1.781398E-08 0.744979
vn -0.6670879 1.781398E-08 0.744979
vn 0.7450683 0 0.6669883
vn 0.7450683 0 0.6669883
vn 0.7450683 0 0.6669883
vn 0.7450683 0 0.6669883
vn 0.6670879 0 -0.7449791
vn 0.6670879 0 -0.7449791
vn 0.6670879 0 -0.7449791
vn 0.6670879 0 -0.744979
vn 0.6670879 0 -0.744979
vn 0.6670879 0 -0.744979
vn 0.6670879 2.678922E-08 -0.744979
vn 0.6670879 2.678922E-08 -0.744979
vn 0.6670879 2.678922E-08 -0.744979
vn -0.7450683 0 -0.6669883
vn -0.7450683 0 -0.6669883
vn -0.7450683 0 -0.6669883
vn -0.7450683 0 -0.6669883
vn -0.6432267 0 0.7656758
vn -0.6432267 0 0.7656758
vn -0.6432267 0 0.7656758
vn -0.6432267 0 0.7656758
vn -0.6432267 0 0.7656758
vn -0.6432267 0 0.7656758
vn -0.6432267 2.848621E-08 0.7656758
vn -0.6432267 2.848621E-08 0.7656758
vn -0.6432267 2.848621E-08 0.7656758
vn 0.7649817 0 0.644052
vn 0.7649817 0 0.644052
vn 0.7649817 0 0.644052
vn 0.7649817 0 0.644052
vn 0.6432958 0 -0.7656178
vn 0.6432958 0 -0.7656178
vn 0.6432958 0 -0.7656178
vn 0.6432958 0 -0.7656178
vn 0.6432958 0 -0.7656178
vn 0.6432958 0 -0.7656178
vn 0.6432958 -8.430881E-09 -0.7656178
vn 0.6432958 -8.430881E-09 -0.7656178
vn 0.6432958 -8.430881E-09 -0.7656178
vn -0.7662131 0 -0.6425865
vn -0.7662131 0 -0.6425865
vn -0.7662131 0 -0.6425865
vn -0.7662131 0 -0.6425865
vn -0.6541074 0 0.7564017
vn -0.6541074 0 0.7564017
vn -0.6541074 0 0.7564017
vn -0.6541074 0 0.7564017
vn 0.7559854 0 0.6545884
vn 0.7559854 0 0.6545884
vn 0.7559854 0 0.6545884
vn 0.7559854 0 0.6545884
vn 0.6541631 0 -0.7563536
vn 0.6541631 0 -0.7563536
vn 0.6541631 0 -0.7563536
vn 0.6541631 0 -0.7563536
vn -0.7571692 0 -0.6532188
vn -0.7571692 0 -0.6532188
vn -0.7571692 0 -0.6532188
vn -0.7571692 0 -0.6532188
vn 0 -1 0
vn 0 -1 0
vn 0 -1 0
vn 0 -1 0
vn 0 -1 0

g CDNNDG01_0004010
f 1/1/1 2/2/2 3/3/3
f 4/4/4 5/5/5 6/6/6
f 7/7/7 8/8/8 9/9/9
f 10/10/10 11/11/11 12/12/12
f 13/13/13 14/14/14 15/15/15
f 16/16/16 17/17/17 18/18/18
f 19/19/19 20/20/20 21/21/21
f 22/22/22 23/23/23 24/24/24
f 25/25/25 26/26/26 27/27/27
f 28/28/28 29/29/29 30/30/30
f 31/31/31 32/32/32 33/33/33
f 34/34/34 35/35/35 36/36/36
f 37/37/37 38/38/38 39/39/39
f 40/40/40 41/41/41 42/42/42
f 43/43/43 44/44/44 45/45/45
f 46/46/46 47/47/47 48/48/48
f 49/49/49 50/50/50 51/51/51
f 52/52/52 53/53/53 54/54/54
f 55/55/55 56/56/56 57/57/57
f 58/58/58 59/59/59 60/60/60
f 61/61/61 62/62/62 63/63/63
f 64/64/64 65/65/65 66/66/66
f 67/67/67 68/68/68 69/69/69
f 70/70/70 71/71/71 72/72/72
f 73/73/73 74/74/74 75/75/75
f 76/76/76 73/73/73 75/75/75
f 77/77/77 78/78/78 79/79/79
f 80/80/80 81/81/81 82/82/82
f 83/83/83 84/84/84 85/85/85
f 86/86/86 87/87/87 88/88/88
f 89/89/89 90/90/90 91/91/91
f 92/92/92 91/91/91 90/90/90
f 93/93/93 94/94/94 95/95/95
f 96/96/96 97/97/97 98/98/98
f 99/99/99 100/100/100 101/101/101
f 102/102/102 103/103/103 104/104/104
f 105/105/105 102/102/102 104/104/104
f 106/106/106 107/107/107 108/108/108
f 109/109/109 106/106/106 108/108/108
f 110/110/110 111/111/111 112/112/112
f 113/113/113 114/114/114 115/115/115
f 116/116/116 117/117/117 118/118/118
f 119/119/119 120/120/120 121/121/121
f 122/122/122 119/119/119 121/121/121
f 123/123/123 124/124/124 125/125/125
f 126/126/126 127/127/127 128/128/128
f 129/129/129 130/130/130 131/131/131
f 132/132/132 133/133/133 134/134/134
f 135/135/135 132/132/132 134/134/134
f 136/136/136 137/137/137 138/138/138
f 139/139/139 140/140/140 141/141/141
f 142/142/142 143/143/143 144/144/144
f 145/145/145 146/146/146 147/147/147
f 145/145/145 148/148/148 146/146/146
f 149/149/149 150/150/150 151/151/151
f 152/152/152 153/153/153 154/154/154
f 155/155/155 156/156/156 157/157/157
f 158/158/158 159/159/159 160/160/160
f 160/160/160 159/159/159 161/161/161
f 162/162/162 163/163/163 164/164/164
f 162/162/162 165/165/165 163/163/163
f 166/166/166 167/167/167 168/168/168
f 168/168/168 169/169/169 166/166/166
f 170/170/170 171/171/171 172/172/172
f 170/170/170 173/173/173 171/171/171
f 174/174/174 175/175/175 176/176/176
f 174/174/174 177/177/177 175/175/175
f 178/178/178 179/179/179 180/180/180
f 181/181/181 180/180/180 182/182/182
f 178/178/178 180/180/180 181/181/181
