v -0.5287902 6.335028 6.542837
v 4.10721 6.335028 -0.587163
v 2.03021 6.335028 -1.938163
v -0.7677902 6.335028 7.572837
v -0.2257902 6.335028 6.739837
v -0.5287902 6.335028 6.542837
v -7.06379 6.335028 3.479837
v -0.7677902 6.335028 7.572837
v -0.5287902 6.335028 6.542837
v -7.06379 6.335028 3.479837
v -0.5287902 6.335028 6.542837
v -6.29079 6.335028 2.820837
v -7.06379 6.335028 3.479837
v -6.29079 6.335028 2.820837
v -6.53279 6.335028 2.663837
v -6.29079 6.335028 2.820837
v -0.5287902 6.335028 6.542837
v 2.03021 6.335028 -1.938163
v -1.60579 6.335028 -4.302163
v -6.29079 6.335028 2.820837
v -1.60579 6.335028 -4.302163
v -1.64379 6.335028 -4.327163
v 2.31121 2.002028 -7.478163
v 2.58521 2.002028 -7.300163
v 2.91921 2.002028 -8.414163
v 2.58521 2.002028 -7.300163
v 4.34521 2.002028 -7.487163
v 2.91921 2.002028 -8.414163
v 2.58521 2.002028 -7.300163
v 3.73721 2.002028 -6.551163
v 4.34521 2.002028 -7.487163
v -1.60579 5.288028 -4.302163
v 0.7902098 5.288028 -4.538163
v -0.7857902 5.288028 -5.563163
v -1.60579 5.288028 -4.302163
v 2.03021 5.288028 -1.938163
v 0.7902098 5.288028 -4.538163
v 0.7902098 5.288028 -4.538163
v 2.03021 5.288028 -1.938163
v 2.84921 5.288028 -3.198163
v 2.84921 3.360028 -3.198163
v 7.79021 3.360028 -3.917163
v 3.73721 3.360028 -6.551163
v 0.7902098 3.360028 -4.538163
v 3.73721 3.360028 -6.551163
v 2.58521 3.360028 -7.300163
v 0.7902098 3.360028 -4.538163
v 2.84921 3.360028 -3.198163
v 3.73721 3.360028 -6.551163
v 2.03021 3.360028 -1.938163
v 4.10721 3.360028 -0.587163
v 2.84921 3.360028 -3.198163
v 2.84921 3.360028 -3.198163
v 4.10721 3.360028 -0.587163
v 7.79021 3.360028 -3.917163
v 4.10721 3.360028 -0.587163
v 5.17521 3.360028 0.106837
v 7.79021 3.360028 -3.917163
v -7.06379 -5.581679 3.479837
v -0.7677902 -5.581679 7.572837
v -0.7677902 6.335028 7.572837
v -7.06379 6.335028 3.479837
v -0.4967902 -5.581679 7.156337
v -0.2257902 -5.581679 6.739837
v -0.2257902 6.335028 6.739837
v -0.7677902 6.335028 7.572837
v -0.7677902 -5.581679 7.572837
v -0.4967902 -5.581679 7.156337
v -0.7677902 6.335028 7.572837
v -0.4967902 -5.581679 7.156337
v -0.2257902 6.335028 6.739837
v -0.5287902 6.335028 6.542837
v -0.2257902 6.335028 6.739837
v -0.2257902 -5.581679 6.739837
v -0.5287902 -5.581679 6.542837
v -0.5287902 6.335028 6.542837
v 4.10721 3.360028 -0.587163
v 4.10721 6.335028 -0.587163
v -0.5287902 -5.581679 6.542837
v 4.10721 -5.581679 -0.587163
v 4.10721 3.360028 -0.587163
v -0.5287902 6.335028 6.542837
v 2.03021 6.335028 -1.938163
v 4.10721 6.335028 -0.587163
v 2.03021 5.288028 -1.938163
v 2.03021 5.288028 -1.938163
v 4.10721 3.360028 -0.587163
v 2.03021 3.360028 -1.938163
v 2.03021 5.288028 -1.938163
v 4.10721 6.335028 -0.587163
v 4.10721 3.360028 -0.587163
v -1.60579 6.335028 -4.302163
v 2.03021 6.335028 -1.938163
v 2.03021 5.288028 -1.938163
v -1.60579 5.288028 -4.302163
v -1.64379 6.335028 -4.327163
v -1.60579 5.288028 -4.302163
v -1.60579 -5.581679 -4.302163
v -1.64379 -5.581679 -4.327163
v -1.64379 6.335028 -4.327163
v -1.60579 6.335028 -4.302163
v -1.60579 5.288028 -4.302163
v -6.29079 6.335028 2.820837
v -1.64379 6.335028 -4.327163
v -1.64379 -5.581679 -4.327163
v -6.29079 -5.581679 2.820837
v -6.53279 6.335028 2.663837
v -6.29079 6.335028 2.820837
v -6.29079 -5.581679 2.820837
v -6.53279 -5.581679 2.663837
v -7.06379 6.335028 3.479837
v -6.53279 6.335028 2.663837
v -6.53279 -5.581679 2.663837
v -7.06379 -5.581679 3.479837
v 2.31121 -5.581679 -7.478163
v 2.58521 -5.581679 -7.300163
v 2.58521 2.002028 -7.300163
v 2.31121 2.002028 -7.478163
v 3.73721 -5.581679 -6.551163
v 4.34521 -5.581679 -7.487163
v 4.34521 2.002028 -7.487163
v 3.73721 2.002028 -6.551163
v 2.91921 2.002028 -8.414163
v 4.34521 2.002028 -7.487163
v 4.34521 -5.581679 -7.487163
v 2.91921 -5.581679 -8.414163
v 2.31121 2.002028 -7.478163
v 2.91921 2.002028 -8.414163
v 2.91921 -5.581679 -8.414163
v 2.31121 -5.581679 -7.478163
v -1.60579 5.288028 -4.302163
v -0.7857902 5.288028 -5.563163
v -0.7857902 -5.581679 -5.563163
v -1.60579 -5.581679 -4.302163
v 2.03021 3.360028 -1.938163
v 2.84921 3.360028 -3.198163
v 2.84921 5.288028 -3.198163
v 2.03021 5.288028 -1.938163
v 0.7902098 5.288028 -4.538163
v 2.84921 5.288028 -3.198163
v 2.84921 3.360028 -3.198163
v 0.7902098 3.360028 -4.538163
v -0.7857902 5.288028 -5.563163
v 0.002209796 -5.581679 -5.050663
v -0.7857902 -5.581679 -5.563163
v -0.7857902 5.288028 -5.563163
v 0.7902098 5.288028 -4.538163
v 0.002209796 -5.581679 -5.050663
v 0.002209796 -5.581679 -5.050663
v 0.7902098 5.288028 -4.538163
v 0.7902098 3.360028 -4.538163
v 0.002209796 -5.581679 -5.050663
v 0.7902098 3.360028 -4.538163
v 0.7902098 -5.581679 -4.538163
v 4.10721 -5.581679 -0.587163
v 5.17521 -5.581679 0.106837
v 5.17521 3.360028 0.106837
v 4.10721 3.360028 -0.587163
v 5.17521 -5.581679 0.106837
v 7.79021 -5.581679 -3.917163
v 7.79021 3.360028 -3.917163
v 5.17521 3.360028 0.106837
v 3.73721 3.360028 -6.551163
v 7.79021 3.360028 -3.917163
v 3.73721 2.002028 -6.551163
v 3.73721 2.002028 -6.551163
v 7.79021 3.360028 -3.917163
v 7.79021 -5.581679 -3.917163
v 3.73721 -5.581679 -6.551163
v 2.58521 3.360028 -7.300163
v 3.73721 3.360028 -6.551163
v 3.73721 2.002028 -6.551163
v 2.58521 2.002028 -7.300163
v 0.7902098 3.360028 -4.538163
v 2.58521 2.002028 -7.300163
v 2.58521 -5.581679 -7.300163
v 0.7902098 -5.581679 -4.538163
v 0.7902098 3.360028 -4.538163
v 2.58521 3.360028 -7.300163
v 2.58521 2.002028 -7.300163
v -1.60579 -5.581679 -4.302163
v -0.7857902 -5.581679 -5.563163
v 0.002209796 -5.581679 -5.050663
v 0.7902098 -5.581679 -4.538163
v 2.58521 -5.581679 -7.300163
v 2.31121 -5.581679 -7.478163
v 2.91921 -5.581679 -8.414163
v 4.34521 -5.581679 -7.487163
v 3.73721 -5.581679 -6.551163
v 7.79021 -5.581679 -3.917163
v 5.17521 -5.581679 0.106837
v 4.10721 -5.581679 -0.587163
v -0.5287902 -5.581679 6.542837
v -0.2257902 -5.581679 6.739837
v -0.4967902 -5.581679 7.156337
v -0.7677902 -5.581679 7.572837
v -7.06379 -5.581679 3.479837
v -6.53279 -5.581679 2.663837
v -6.29079 -5.581679 2.820837
v -1.64379 -5.581679 -4.327163
vt 0.048455 0.151131
vt 0.365921 0.001842
vt 0.426333 0.068417
vt 0.002558 0.158872
vt 0.039646 0.141419
vt 0.048455 0.151131
vt 0.185585 0.360662
vt 0.002558 0.158872
vt 0.048455 0.151131
vt 0.185585 0.360662
vt 0.048455 0.151131
vt 0.214895 0.335809
vt 0.185585 0.360662
vt 0.214895 0.335809
vt 0.221915 0.343565
vt 0.214895 0.335809
vt 0.048455 0.151131
vt 0.426333 0.068417
vt 0.532039 0.184959
vt 0.214895 0.335809
vt 0.532039 0.184959
vt 0.533157 0.186177
vt 0.799760 0.921650
vt 0.792047 0.913114
vt 0.840150 0.902621
vt 0.792047 0.913114
vt 0.799981 0.858195
vt 0.840150 0.902621
vt 0.792047 0.913114
vt 0.759591 0.877225
vt 0.799981 0.858195
vt 0.106975 0.999817
vt 0.117165 0.923594
vt 0.162438 0.973651
vt 0.106975 0.999817
vt 0.002558 0.884330
vt 0.117165 0.923594
vt 0.117165 0.923594
vt 0.002558 0.884330
vt 0.057977 0.858195
vt 0.149129 0.787413
vt 0.180550 0.629834
vt 0.297550 0.758875
vt 0.208650 0.852964
vt 0.297550 0.758875
vt 0.330819 0.795551
vt 0.208650 0.852964
vt 0.149129 0.787413
vt 0.297550 0.758875
vt 0.093397 0.813609
vt 0.033386 0.747483
vt 0.149129 0.787413
vt 0.149129 0.787413
vt 0.033386 0.747483
vt 0.180550 0.629834
vt 0.033386 0.747483
vt 0.002558 0.713480
vt 0.180550 0.629834
vt 0.722743 0.312686
vt 0.539642 0.112377
vt 0.553441 0.001842
vt 0.739313 0.205185
vt 0.480462 0.866185
vt 0.498009 0.858195
vt 0.507187 0.957817
vt 0.471575 0.974032
vt 0.462916 0.874175
vt 0.480462 0.866185
vt 0.471575 0.974032
vt 0.480462 0.866185
vt 0.507187 0.957817
vt 0.529827 0.967410
vt 0.522543 0.957739
vt 0.514067 0.858195
vt 0.521244 0.867725
vt 0.513570 0.603004
vt 0.829223 0.438307
vt 0.832854 0.463179
vt 0.503836 0.502432
vt 0.818468 0.364641
vt 0.829223 0.438307
vt 0.513570 0.603004
vt 0.397390 0.721493
vt 0.341198 0.654679
vt 0.396047 0.712641
vt 0.396047 0.712641
vt 0.337596 0.629834
vt 0.393581 0.696402
vt 0.396047 0.712641
vt 0.341198 0.654679
vt 0.337596 0.629834
vt 0.495710 0.838450
vt 0.397390 0.721493
vt 0.396047 0.712641
vt 0.494239 0.829447
vt 0.496750 0.839673
vt 0.494239 0.829447
vt 0.479188 0.737344
vt 0.480213 0.738549
vt 0.496750 0.839673
vt 0.495710 0.838450
vt 0.494239 0.829447
vt 0.019648 0.517794
vt 0.339377 0.364641
vt 0.317519 0.474687
vt 0.002558 0.625552
vt 0.553475 0.968278
vt 0.547671 0.960555
vt 0.537084 0.858195
vt 0.542804 0.865806
vt 0.374037 0.875562
vt 0.409060 0.858195
vt 0.392557 0.965024
vt 0.358056 0.982132
vt 0.738715 0.936598
vt 0.731458 0.928027
vt 0.745134 0.858195
vt 0.752460 0.866848
vt 0.675192 0.876000
vt 0.714835 0.858195
vt 0.726261 0.919642
vt 0.686247 0.937613
vt 0.608508 0.965251
vt 0.571500 0.919991
vt 0.560102 0.858195
vt 0.596767 0.903036
vt 0.628419 0.877865
vt 0.668553 0.858195
vt 0.653563 0.928327
vt 0.613811 0.947809
vt 0.295615 0.884987
vt 0.350543 0.858195
vt 0.330396 0.958085
vt 0.276215 0.984512
vt 0.846547 0.881917
vt 0.900839 0.858195
vt 0.903369 0.873808
vt 0.848947 0.897586
vt 0.226539 0.948920
vt 0.171373 0.883048
vt 0.168798 0.866934
vt 0.223833 0.932650
vt 0.268735 0.999339
vt 0.232264 0.883070
vt 0.253081 0.907944
vt 0.268735 0.999339
vt 0.226539 0.948920
vt 0.232264 0.883070
vt 0.232264 0.883070
vt 0.226539 0.948920
vt 0.223833 0.932650
vt 0.232264 0.883070
vt 0.223833 0.932650
vt 0.211446 0.858195
vt 0.444016 0.975854
vt 0.414322 0.942197
vt 0.427725 0.858195
vt 0.457755 0.892234
vt 0.503836 0.707214
vt 0.680404 0.629834
vt 0.692735 0.701946
vt 0.514215 0.780180
vt 0.466621 0.567127
vt 0.357561 0.437079
vt 0.464554 0.555804
vt 0.464554 0.555804
vt 0.357561 0.437079
vt 0.345269 0.364641
vt 0.453137 0.493269
vt 0.497633 0.604089
vt 0.466621 0.567127
vt 0.464554 0.555804
vt 0.495514 0.592706
vt 0.714468 0.688430
vt 0.833532 0.642609
vt 0.818613 0.713148
vt 0.698210 0.771087
vt 0.714468 0.688430
vt 0.836233 0.629834
vt 0.833532 0.642609
vt 0.910486 0.858195
vt 0.910486 0.858195
vt 0.910486 0.858195
vt 0.910486 0.858195
vt 0.910486 0.858195
vt 0.910486 0.858195
vt 0.910486 0.858195
vt 0.910486 0.858195
vt 0.910486 0.858195
vt 0.910486 0.858195
vt 0.910486 0.858195
vt 0.910486 0.858195
vt 0.910486 0.858195
vt 0.910486 0.858195
vt 0.910486 0.858195
vt 0.910486 0.858195
vt 0.910486 0.858195
vt 0.910486 0.858195
vt 0.910486 0.858195
vt 0.910486 0.858195
vn 0 1 0
vn 0 1 0
vn 0 1 0
vn 0 1 0
vn 0 1 0
vn 0 1 0
vn 0 1 0
vn 0 1 0
vn 0 1 0
vn 0 1 0
vn 0 1 0
vn 0 1 0
vn 0 1 0
vn 0 1 0
vn 0 1 0
vn 0 1 0
vn 0 1 0
vn 0 1 0
vn 0 1 0
vn 0 1 0
vn 0 1 0
vn 0 1 0
vn 0 1 0
vn 0 1 0
vn 0 1 0
vn 0 1 0
vn 0 1 0
vn 0 1 0
vn 0 1 0
vn 0 1 0
vn 0 1 0
vn 0 1 0
vn 0 1 0
vn 0 1 0
vn 0 1 0
vn 0 1 0
vn 0 1 0
vn 0 1 0
vn 0 1 0
vn 0 1 0
vn 0 1 0
vn 0 1 0
vn 0 1 0
vn 0 1 0
vn 0 1 0
vn 0 1 0
vn 0 1 0
vn 0 1 0
vn 0 1 0
vn 0 1 0
vn 0 1 0
vn 0 1 0
vn 0 1 0
vn 0 1 0
vn 0 1 0
vn 0 1 0
vn 0 1 0
vn 0 1 0
vn -0.5450445 0 0.8384071
vn -0.5450445 0 0.8384071
vn -0.5450445 0 0.8384071
vn -0.5450445 0 0.8384071
vn 0.8381906 0 0.5453774
vn 0.8381906 0 0.5453774
vn 0.8381906 0 0.5453774
vn 0.8381906 0 0.5453774
vn 0.8381906 0 0.5453774
vn 0.8381906 0 0.5453774
vn 0.8381906 0 0.5453774
vn 0.8381906 0 0.5453774
vn 0.8381906 0 0.5453774
vn 0.5450856 0 -0.8383804
vn 0.5450856 0 -0.8383804
vn 0.5450856 0 -0.8383804
vn 0.5450856 0 -0.8383804
vn 0.838363 0 0.5451123
vn 0.838363 0 0.5451123
vn 0.838363 0 0.5451123
vn 0.838363 0 0.5451123
vn 0.838363 0 0.5451123
vn 0.838363 0 0.5451123
vn 0.838363 0 0.5451123
vn 0.5452579 0 -0.8382684
vn 0.5452579 0 -0.8382684
vn 0.5452579 0 -0.8382684
vn 0.5452579 0 -0.8382684
vn 0.5452579 0 -0.8382684
vn 0.5452579 0 -0.8382684
vn 0.5452579 0 -0.8382684
vn 0.5452579 0 -0.8382684
vn 0.5452579 0 -0.8382684
vn 0.5450856 0 -0.8383804
vn 0.5450856 0 -0.8383804
vn 0.5450856 0 -0.8383804
vn 0.5450856 0 -0.8383804
vn 0.5496165 0 -0.8354171
vn 0.5496165 0 -0.8354171
vn 0.5496165 0 -0.8354171
vn 0.5496165 0 -0.8354171
vn 0.5496165 0 -0.8354171
vn 0.5496165 0 -0.8354171
vn 0.5496165 0 -0.8354171
vn -0.8384007 0 -0.5450543
vn -0.8384007 0 -0.5450543
vn -0.8384007 0 -0.5450543
vn -0.8384007 0 -0.5450543
vn 0.544257 0 -0.8389185
vn 0.544257 0 -0.8389185
vn 0.544257 0 -0.8389185
vn 0.544257 0 -0.8389185
vn -0.8381619 0 -0.5454215
vn -0.8381619 0 -0.5454215
vn -0.8381619 0 -0.5454215
vn -0.8381619 0 -0.5454215
vn -0.5447732 0 0.8385834
vn -0.5447732 0 0.8385834
vn -0.5447732 0 0.8385834
vn -0.5447732 0 0.8385834
vn 0.8386073 0 0.5447364
vn 0.8386073 0 0.5447364
vn 0.8386073 0 0.5447364
vn 0.8386073 0 0.5447364
vn 0.5450297 0 -0.8384168
vn 0.5450297 0 -0.8384168
vn 0.5450297 0 -0.8384168
vn 0.5450297 0 -0.8384168
vn -0.8386073 0 -0.5447364
vn -0.8386073 0 -0.5447364
vn -0.8386073 0 -0.5447364
vn -0.8386073 0 -0.5447364
vn -0.8383373 0 -0.5451519
vn -0.8383373 0 -0.5451519
vn -0.8383373 0 -0.5451519
vn -0.8383373 0 -0.5451519
vn 0.8384436 0 0.5449883
vn 0.8384436 0 0.5449883
vn 0.8384436 0 0.5449883
vn 0.8384436 0 0.5449883
vn 0.5454604 0 -0.8381366
vn 0.5454604 0 -0.8381366
vn 0.5454604 0 -0.8381366
vn 0.5454604 0 -0.8381366
vn 0.5452127 0 -0.8382977
vn 0.5452127 0 -0.8382977
vn 0.5452127 0 -0.8382977
vn 0.5452127 -3.591291E-11 -0.8382977
vn 0.5452127 -3.591291E-11 -0.8382977
vn 0.5452127 -3.591291E-11 -0.8382977
vn 0.5452127 0 -0.8382977
vn 0.5452127 0 -0.8382977
vn 0.5452127 0 -0.8382977
vn 0.5452127 0 -0.8382977
vn 0.5452127 0 -0.8382977
vn 0.5452127 0 -0.8382977
vn -0.5448779 0 0.8385153
vn -0.5448779 0 0.8385153
vn -0.5448779 0 0.8385153
vn -0.5448779 0 0.8385153
vn 0.8385007 0 0.5449005
vn 0.8385007 0 0.5449005
vn 0.8385007 0 0.5449005
vn 0.8385007 0 0.5449005
vn 0.5449229 0 -0.8384861
vn 0.5449229 0 -0.8384861
vn 0.5449229 0 -0.8384861
vn 0.5449229 0 -0.8384861
vn 0.5449229 0 -0.8384861
vn 0.5449229 0 -0.8384861
vn 0.5449229 0 -0.8384861
vn 0.5450907 0 -0.8383771
vn 0.5450907 0 -0.8383771
vn 0.5450907 0 -0.8383771
vn 0.5450907 0 -0.8383771
vn -0.8384852 0 -0.5449243
vn -0.8384852 0 -0.5449243
vn -0.8384852 0 -0.5449243
vn -0.8384852 0 -0.5449243
vn -0.8384852 0 -0.5449243
vn -0.8384852 0 -0.5449243
vn -0.8384852 0 -0.5449243
vn 0 -1 0
vn 0 -1 0
vn 0 -1 0
vn 0 -1 0
vn 0 -1 0
vn 0 -1 0
vn 0 -1 0
vn 0 -1 0
vn 0 -1 0
vn 0 -1 0
vn 0 -1 0
vn 0 -1 0
vn 0 -1 0
vn 0 -1 0
vn 0 -1 0
vn 0 -1 0
vn 0 -1 0
vn 0 -1 0
vn 0 -1 0
vn 0 -1 0

g CDNNDG02_0000020
f 1/1/1 2/2/2 3/3/3
f 4/4/4 5/5/5 6/6/6
f 7/7/7 8/8/8 9/9/9
f 10/10/10 11/11/11 12/12/12
f 13/13/13 14/14/14 15/15/15
f 16/16/16 18/18/18 19/19/19
f 16/16/16 17/17/17 18/18/18
f 20/20/20 21/21/21 22/22/22
f 23/23/23 24/24/24 25/25/25
f 26/26/26 27/27/27 28/28/28
f 29/29/29 30/30/30 31/31/31
f 32/32/32 33/33/33 34/34/34
f 35/35/35 36/36/36 37/37/37
f 38/38/38 39/39/39 40/40/40
f 41/41/41 42/42/42 43/43/43
f 44/44/44 45/45/45 46/46/46
f 47/47/47 48/48/48 49/49/49
f 50/50/50 51/51/51 52/52/52
f 53/53/53 54/54/54 55/55/55
f 56/56/56 57/57/57 58/58/58
f 62/62/62 59/59/59 61/61/61
f 61/61/61 59/59/59 60/60/60
f 63/63/63 64/64/64 65/65/65
f 66/66/66 67/67/67 68/68/68
f 69/69/69 70/70/70 71/71/71
f 74/74/74 72/72/72 73/73/73
f 72/72/72 74/74/74 75/75/75
f 76/76/76 77/77/77 78/78/78
f 79/79/79 81/81/81 82/82/82
f 79/79/79 80/80/80 81/81/81
f 83/83/83 84/84/84 85/85/85
f 86/86/86 87/87/87 88/88/88
f 89/89/89 90/90/90 91/91/91
f 92/92/92 94/94/94 95/95/95
f 92/92/92 93/93/93 94/94/94
f 97/97/97 99/99/99 96/96/96
f 99/99/99 97/97/97 98/98/98
f 100/100/100 101/101/101 102/102/102
f 103/103/103 105/105/105 106/106/106
f 103/103/103 104/104/104 105/105/105
f 107/107/107 109/109/109 110/110/110
f 107/107/107 108/108/108 109/109/109
f 111/111/111 113/113/113 114/114/114
f 111/111/111 112/112/112 113/113/113
f 115/115/115 117/117/117 118/118/118
f 117/117/117 115/115/115 116/116/116
f 120/120/120 121/121/121 119/119/119
f 119/119/119 121/121/121 122/122/122
f 125/125/125 123/123/123 124/124/124
f 123/123/123 125/125/125 126/126/126
f 127/127/127 129/129/129 130/130/130
f 127/127/127 128/128/128 129/129/129
f 131/131/131 133/133/133 134/134/134
f 131/131/131 132/132/132 133/133/133
f 138/138/138 135/135/135 137/137/137
f 136/136/136 137/137/137 135/135/135
f 142/142/142 139/139/139 141/141/141
f 140/140/140 141/141/141 139/139/139
f 143/143/143 144/144/144 145/145/145
f 146/146/146 147/147/147 148/148/148
f 149/149/149 150/150/150 151/151/151
f 152/152/152 153/153/153 154/154/154
f 155/155/155 157/157/157 158/158/158
f 157/157/157 155/155/155 156/156/156
f 159/159/159 161/161/161 162/162/162
f 159/159/159 160/160/160 161/161/161
f 163/163/163 164/164/164 165/165/165
f 169/169/169 166/166/166 168/168/168
f 167/167/167 168/168/168 166/166/166
f 173/173/173 170/170/170 172/172/172
f 171/171/171 172/172/172 170/170/170
f 177/177/177 175/175/175 176/176/176
f 177/177/177 174/174/174 175/175/175
f 178/178/178 179/179/179 180/180/180
f 181/181/181 193/193/193 199/199/199
f 181/181/181 182/182/182 183/183/183
f 197/197/197 198/198/198 199/199/199
f 181/181/181 183/183/183 184/184/184
f 192/192/192 184/184/184 189/189/189
f 188/188/188 185/185/185 187/187/187
f 185/185/185 186/186/186 187/187/187
f 193/193/193 197/197/197 199/199/199
f 184/184/184 185/185/185 189/189/189
f 193/193/193 196/196/196 197/197/197
f 181/181/181 184/184/184 192/192/192
f 185/185/185 188/188/188 189/189/189
f 193/193/193 195/195/195 196/196/196
f 189/189/189 190/190/190 192/192/192
f 190/190/190 191/191/191 192/192/192
f 181/181/181 192/192/192 193/193/193
f 181/181/181 199/199/199 200/200/200
f 193/193/193 194/194/194 195/195/195
