v -1.291213 6.05828 6.571009
v 7.225787 6.05828 -4.161991
v 0.8747872 6.05828 -8.234991
v -5.260213 6.05828 4.268009
v -5.868213 6.05828 5.216009
v -2.009213 6.05828 7.690009
v -1.291213 6.05828 6.571009
v -5.260213 6.05828 4.268009
v -1.291213 6.05828 6.571009
v -0.1332128 6.05828 7.314009
v 7.225787 6.05828 -4.161991
v -6.595213 6.05828 3.412009
v -5.260213 6.05828 4.268009
v 0.8747872 6.05828 -8.234991
v -6.595213 4.41928 3.412009
v -5.868213 4.41928 5.216009
v -5.260213 4.41928 4.268009
v -7.484213 4.41928 4.799009
v -6.150213 4.41928 5.655009
v -5.868213 4.41928 5.216009
v -7.484213 4.41928 4.799009
v -5.868213 4.41928 5.216009
v -6.595213 4.41928 3.412009
v -1.650213 -6.025097 7.130509
v -1.291213 -6.025097 6.571009
v -1.291213 6.05828 6.571009
v -2.009213 6.05828 7.690009
v -2.009213 -6.025097 7.690009
v -1.650213 -6.025097 7.130509
v -2.009213 6.05828 7.690009
v -1.650213 -6.025097 7.130509
v -1.291213 6.05828 6.571009
v -0.7122128 -6.025097 6.942509
v -0.1332128 -6.025097 7.314009
v -0.1332128 6.05828 7.314009
v -1.291213 6.05828 6.571009
v -1.291213 -6.025097 6.571009
v -0.7122128 -6.025097 6.942509
v -1.291213 6.05828 6.571009
v -0.7122128 -6.025097 6.942509
v -0.1332128 6.05828 7.314009
v 3.546287 -6.025097 1.576009
v 7.225787 -6.025097 -4.161991
v 7.225787 6.05828 -4.161991
v -0.1332128 6.05828 7.314009
v -0.1332128 -6.025097 7.314009
v 3.546287 -6.025097 1.576009
v -0.1332128 6.05828 7.314009
v 3.546287 -6.025097 1.576009
v 7.225787 6.05828 -4.161991
v 0.8747872 6.05828 -8.234991
v 7.225787 6.05828 -4.161991
v 7.225787 -6.025097 -4.161991
v 0.8747872 -6.025097 -8.234991
v -6.595213 6.05828 3.412009
v 0.8747872 6.05828 -8.234991
v -6.595213 4.41928 3.412009
v -6.595213 4.41928 3.412009
v 0.8747872 6.05828 -8.234991
v 0.8747872 -6.025097 -8.234991
v -6.595213 -6.025097 3.412009
v -7.484213 4.41928 4.799009
v -6.595213 4.41928 3.412009
v -6.595213 -6.025097 3.412009
v -7.484213 -6.025097 4.799009
v -6.595213 4.41928 3.412009
v -5.260213 4.41928 4.268009
v -5.260213 6.05828 4.268009
v -6.595213 6.05828 3.412009
v -5.868213 6.05828 5.216009
v -5.260213 6.05828 4.268009
v -5.260213 4.41928 4.268009
v -5.868213 4.41928 5.216009
v -5.868213 -6.025097 5.216009
v -2.009213 -6.025097 7.690009
v -2.009213 6.05828 7.690009
v -5.868213 4.41928 5.216009
v -5.868213 6.05828 5.216009
v -5.868213 4.41928 5.216009
v -2.009213 6.05828 7.690009
v -7.484213 -6.025097 4.799009
v -6.150213 -6.025097 5.655009
v -6.150213 4.41928 5.655009
v -7.484213 4.41928 4.799009
v -6.150213 -6.025097 5.655009
v -5.868213 -6.025097 5.216009
v -5.868213 4.41928 5.216009
v -6.150213 4.41928 5.655009
v -5.868213 -6.025097 5.216009
v -6.150213 -6.025097 5.655009
v -7.484213 -6.025097 4.799009
v -6.595213 -6.025097 3.412009
v 0.8747872 -6.025097 -8.234991
v 7.225787 -6.025097 -4.161991
v 3.546287 -6.025097 1.576009
v -0.1332128 -6.025097 7.314009
v -0.7122128 -6.025097 6.942509
v -1.291213 -6.025097 6.571009
v -1.650213 -6.025097 7.130509
v -2.009213 -6.025097 7.690009
vt 0.041758 0.186052
vt 0.422511 0.001229
vt 0.568965 0.137833
vt 0.124650 0.271438
vt 0.090992 0.284649
vt 0.002028 0.201653
vt 0.041758 0.186052
vt 0.124650 0.271438
vt 0.041758 0.186052
vt 0.015040 0.161146
vt 0.422511 0.001229
vt 0.155430 0.300150
vt 0.124650 0.271438
vt 0.568965 0.137833
vt 0.256639 0.951883
vt 0.193718 0.936740
vt 0.226584 0.923833
vt 0.208555 0.970755
vt 0.178499 0.942726
vt 0.193718 0.936740
vt 0.208555 0.970755
vt 0.193718 0.936740
vt 0.256639 0.951883
vt 0.472971 0.868456
vt 0.453757 0.875863
vt 0.273834 0.796363
vt 0.312837 0.781327
vt 0.492185 0.861049
vt 0.472971 0.868456
vt 0.312837 0.781327
vt 0.472971 0.868456
vt 0.273834 0.796363
vt 0.690850 0.793320
vt 0.703643 0.805313
vt 0.522930 0.864402
vt 0.496957 0.840056
vt 0.678056 0.781327
vt 0.690850 0.793320
vt 0.496957 0.840056
vt 0.690850 0.793320
vt 0.522930 0.864402
vt 0.386715 0.701696
vt 0.188543 0.778188
vt 0.002028 0.700740
vt 0.404320 0.545455
vt 0.584896 0.625201
vt 0.386715 0.701696
vt 0.404320 0.545455
vt 0.386715 0.701696
vt 0.002028 0.700740
vt 0.735822 0.761664
vt 0.590264 0.625598
vt 0.689912 0.545455
vt 0.833281 0.679479
vt 0.036958 0.464438
vt 0.452635 0.303440
vt 0.051425 0.472641
vt 0.051425 0.472641
vt 0.452635 0.303440
vt 0.551651 0.365550
vt 0.142226 0.524122
vt 0.002028 0.491760
vt 0.051425 0.472641
vt 0.142226 0.524122
vt 0.093472 0.542992
vt 0.286112 0.923833
vt 0.315192 0.951310
vt 0.290802 0.959058
vt 0.261663 0.931526
vt 0.320487 0.936272
vt 0.353029 0.923833
vt 0.367005 0.931676
vt 0.334530 0.944089
vt 0.184236 0.781327
vt 0.269626 0.861733
vt 0.088705 0.920582
vt 0.027064 0.831048
vt 0.002028 0.838968
vt 0.027064 0.831048
vt 0.088705 0.920582
vt 0.864759 0.781327
vt 0.894208 0.808928
vt 0.737743 0.858227
vt 0.707911 0.830267
vt 0.172486 0.993500
vt 0.157447 0.999301
vt 0.002028 0.929709
vt 0.017262 0.923833
vt 0.371197 0.923833
vt 0.371197 0.923833
vt 0.371197 0.923833
vt 0.371197 0.923833
vt 0.371197 0.923833
vt 0.371197 0.923833
vt 0.371197 0.923833
vt 0.371197 0.923833
vt 0.371197 0.923833
vt 0.371197 0.923833
vt 0.371197 0.923833
vt 0.371197 0.923833
vn 0 1 0
vn 0 1 0
vn 0 1 0
vn 0 1 0
vn 0 1 0
vn 0 1 0
vn 0 1 0
vn 0 1 0
vn 0 1 0
vn 0 1 0
vn 0 1 0
vn 0 1 0
vn 0 1 0
vn 0 1 0
vn 0 1 0
vn 0 1 0
vn 0 1 0
vn 0 1 0
vn 0 1 0
vn 0 1 0
vn 0 1 0
vn 0 1 0
vn 0 1 0
vn 0.8416425 0 0.5400351
vn 0.8416425 0 0.5400351
vn 0.8416425 0 0.5400351
vn 0.8416425 0 0.5400351
vn 0.8416425 0 0.5400351
vn 0.8416425 0 0.5400351
vn 0.8416425 -2.081152E-11 0.5400351
vn 0.8416425 -2.081152E-11 0.5400351
vn 0.8416425 -2.081152E-11 0.5400351
vn -0.5400227 0 0.8416505
vn -0.5400227 0 0.8416505
vn -0.5400227 0 0.8416505
vn -0.5400227 0 0.8416505
vn -0.5400227 0 0.8416505
vn -0.5400227 0 0.8416505
vn -0.5400227 -3.373567E-11 0.8416505
vn -0.5400227 -3.373567E-11 0.8416505
vn -0.5400227 -3.373567E-11 0.8416505
vn 0.8417928 0 0.5398008
vn 0.8417928 0 0.5398008
vn 0.8417928 0 0.5398008
vn 0.8417928 0 0.5398008
vn 0.8417928 0 0.5398008
vn 0.8417928 0 0.5398008
vn 0.8417928 2.027499E-12 0.5398008
vn 0.8417928 2.027499E-12 0.5398008
vn 0.8417928 2.027499E-12 0.5398008
vn 0.5398395 0 -0.841768
vn 0.5398395 0 -0.841768
vn 0.5398395 0 -0.841768
vn 0.5398395 0 -0.841768
vn -0.8417486 0 -0.5398697
vn -0.8417486 0 -0.5398697
vn -0.8417486 0 -0.5398697
vn -0.8417486 0 -0.5398697
vn -0.8417486 0 -0.5398697
vn -0.8417486 0 -0.5398697
vn -0.8417486 0 -0.5398697
vn -0.8419074 0 -0.539622
vn -0.8419074 0 -0.539622
vn -0.8419074 0 -0.539622
vn -0.8419074 0 -0.539622
vn -0.5397692 0 0.841813
vn -0.5397692 0 0.841813
vn -0.5397692 0 0.841813
vn -0.5397692 0 0.841813
vn -0.841755 0 -0.5398597
vn -0.841755 0 -0.5398597
vn -0.841755 0 -0.5398597
vn -0.841755 0 -0.5398597
vn -0.5397097 0 0.8418512
vn -0.5397097 0 0.8418512
vn -0.5397097 0 0.8418512
vn -0.5397097 0 0.8418512
vn -0.5397097 0 0.8418512
vn -0.5397097 0 0.8418512
vn -0.5397097 0 0.8418512
vn -0.5400559 0 0.8416291
vn -0.5400559 0 0.8416291
vn -0.5400559 0 0.8416291
vn -0.5400559 0 0.8416291
vn 0.8413652 0 0.540467
vn 0.8413652 0 0.540467
vn 0.8413652 0 0.540467
vn 0.8413652 0 0.540467
vn 0 -1 0
vn 0 -1 0
vn 0 -1 0
vn 0 -1 0
vn 0 -1 0
vn 0 -1 0
vn 0 -1 0
vn 0 -1 0
vn 0 -1 0
vn 0 -1 0
vn 0 -1 0
vn 0 -1 0

g CDNNDG02_0000080
f 4/4/4 1/1/1 3/3/3
f 2/2/2 3/3/3 1/1/1
f 8/8/8 5/5/5 6/6/6
f 7/7/7 8/8/8 6/6/6
f 9/9/9 10/10/10 11/11/11
f 12/12/12 13/13/13 14/14/14
f 15/15/15 16/16/16 17/17/17
f 18/18/18 19/19/19 20/20/20
f 21/21/21 22/22/22 23/23/23
f 24/24/24 25/25/25 26/26/26
f 27/27/27 28/28/28 29/29/29
f 30/30/30 31/31/31 32/32/32
f 33/33/33 34/34/34 35/35/35
f 36/36/36 37/37/37 38/38/38
f 39/39/39 40/40/40 41/41/41
f 42/42/42 43/43/43 44/44/44
f 45/45/45 46/46/46 47/47/47
f 48/48/48 49/49/49 50/50/50
f 54/54/54 51/51/51 53/53/53
f 52/52/52 53/53/53 51/51/51
f 55/55/55 56/56/56 57/57/57
f 58/58/58 60/60/60 61/61/61
f 60/60/60 58/58/58 59/59/59
f 62/62/62 64/64/64 65/65/65
f 62/62/62 63/63/63 64/64/64
f 66/66/66 68/68/68 69/69/69
f 68/68/68 66/66/66 67/67/67
f 73/73/73 70/70/70 72/72/72
f 72/72/72 70/70/70 71/71/71
f 75/75/75 76/76/76 77/77/77
f 77/77/77 74/74/74 75/75/75
f 78/78/78 79/79/79 80/80/80
f 81/81/81 83/83/83 84/84/84
f 83/83/83 81/81/81 82/82/82
f 86/86/86 87/87/87 85/85/85
f 85/85/85 87/87/87 88/88/88
f 89/89/89 99/99/99 100/100/100
f 89/89/89 92/92/92 98/98/98
f 89/89/89 90/90/90 91/91/91
f 95/95/95 97/97/97 98/98/98
f 89/89/89 91/91/91 92/92/92
f 98/98/98 99/99/99 89/89/89
f 95/95/95 96/96/96 97/97/97
f 92/92/92 93/93/93 95/95/95
f 92/92/92 95/95/95 98/98/98
f 93/93/93 94/94/94 95/95/95
