v -2.931934 5.793618 8.578459
v -2.276934 5.793618 7.530459
v -0.8849341 5.793618 8.399459
v 7.217066 5.793618 -4.567541
v 0.5940659 5.793618 -8.706541
v -4.927934 5.793618 0.1294587
v -3.572934 5.793618 0.9754587
v -6.809934 5.793618 6.155459
v -2.931934 -5.793618 8.578459
v -2.276934 -5.793618 7.530459
v -2.276934 5.793618 7.530459
v -2.931934 5.793618 8.578459
v -2.276934 -5.793618 7.530459
v -0.8849341 -5.793618 8.399459
v -0.8849341 5.793618 8.399459
v -2.276934 5.793618 7.530459
v 3.166066 -5.793618 1.915959
v 7.217066 -5.793618 -4.567541
v 7.217066 5.793618 -4.567541
v -0.8849341 5.793618 8.399459
v -0.8849341 -5.793618 8.399459
v 3.166066 -5.793618 1.915959
v -0.8849341 5.793618 8.399459
v 3.166066 -5.793618 1.915959
v 7.217066 5.793618 -4.567541
v 0.5940659 5.793618 -8.706541
v 7.217066 5.793618 -4.567541
v 7.217066 -5.793618 -4.567541
v 0.5940659 -5.793618 -8.706541
v -4.927934 5.793618 0.1294587
v 0.5940659 5.793618 -8.706541
v 0.5940659 -5.793618 -8.706541
v -4.927934 -5.793618 0.1294587
v -4.250434 -5.793618 0.5524587
v -3.572934 -5.793618 0.9754587
v -3.572934 5.793618 0.9754587
v -4.927934 5.793618 0.1294587
v -4.927934 -5.793618 0.1294587
v -4.250434 -5.793618 0.5524587
v -4.927934 5.793618 0.1294587
v -4.250434 -5.793618 0.5524587
v -3.572934 5.793618 0.9754587
v -6.809934 5.793618 6.155459
v -3.572934 5.793618 0.9754587
v -3.572934 -5.793618 0.9754587
v -6.809934 -5.793618 6.155459
v -6.809934 -5.793618 6.155459
v -2.931934 -5.793618 8.578459
v -2.931934 5.793618 8.578459
v -6.809934 5.793618 6.155459
v -3.572934 -5.793618 0.9754587
v -4.250434 -5.793618 0.5524587
v -4.927934 -5.793618 0.1294587
v 0.5940659 -5.793618 -8.706541
v 7.217066 -5.793618 -4.567541
v 3.166066 -5.793618 1.915959
v -0.8849341 -5.793618 8.399459
v -2.276934 -5.793618 7.530459
v -2.931934 -5.793618 8.578459
v -6.809934 -5.793618 6.155459
vt 0.684582 0.115730
vt 0.643157 0.134893
vt 0.677258 0.175818
vt 0.164731 0.412839
vt 0.002299 0.218137
vt 0.351543 0.056582
vt 0.384744 0.096420
vt 0.589497 0.001712
vt 0.794230 0.864663
vt 0.754023 0.883690
vt 0.854678 0.781287
vt 0.895462 0.761986
vt 0.935632 0.761986
vt 0.935632 0.761986
vt 0.935632 0.761986
vt 0.935632 0.761986
vt 0.254076 0.639248
vt 0.002299 0.757952
vt 0.097462 0.658628
vt 0.608249 0.417808
vt 0.505869 0.520537
vt 0.254076 0.639248
vt 0.608249 0.417808
vt 0.254076 0.639248
vt 0.097462 0.658628
vt 0.706161 0.417808
vt 0.870100 0.611874
vt 0.775422 0.711119
vt 0.613793 0.519797
vt 0.442988 0.842305
vt 0.093525 0.999978
vt 0.002299 0.917449
vt 0.346851 0.761986
vt 0.901149 0.761986
vt 0.901149 0.761986
vt 0.901149 0.761986
vt 0.901149 0.761986
vt 0.901149 0.761986
vt 0.901149 0.761986
vt 0.901149 0.761986
vt 0.901149 0.761986
vt 0.901149 0.761986
vt 0.749024 0.841354
vt 0.544635 0.933539
vt 0.448276 0.852879
vt 0.649793 0.761986
vt 0.912644 0.761986
vt 0.912644 0.761986
vt 0.912644 0.761986
vt 0.912644 0.761986
vt 0.924138 0.761986
vt 0.924138 0.761986
vt 0.924138 0.761986
vt 0.924138 0.761986
vt 0.924138 0.761986
vt 0.924138 0.761986
vt 0.924138 0.761986
vt 0.924138 0.761986
vt 0.924138 0.761986
vt 0.924138 0.761986
vn 0 1 0
vn 0 1 0
vn 0 1 0
vn 0 1 0
vn 0 1 0
vn 0 1 0
vn 0 1 0
vn 0 1 0
vn 0.8479983 0 0.529999
vn 0.8479983 0 0.529999
vn 0.8479983 0 0.529999
vn 0.8479983 0 0.529999
vn -0.5295607 0 0.8482721
vn -0.5295607 0 0.8482721
vn -0.5295607 0 0.8482721
vn -0.5295607 0 0.8482721
vn 0.8480681 0 0.5298873
vn 0.8480681 0 0.5298873
vn 0.8480681 0 0.5298873
vn 0.8480681 0 0.5298873
vn 0.8480681 0 0.5298873
vn 0.8480681 0 0.5298873
vn 0.8480681 -2.130112E-12 0.5298873
vn 0.8480681 -2.130112E-12 0.5298873
vn 0.8480681 -2.130112E-12 0.5298873
vn 0.5299644 0 -0.8480199
vn 0.5299644 0 -0.8480199
vn 0.5299644 0 -0.8480199
vn 0.5299644 0 -0.8480199
vn -0.8480199 0 -0.5299644
vn -0.8480199 0 -0.5299644
vn -0.8480199 0 -0.5299644
vn -0.8480199 0 -0.5299644
vn -0.529605 0 0.8482444
vn -0.529605 0 0.8482444
vn -0.529605 0 0.8482444
vn -0.529605 0 0.8482444
vn -0.529605 0 0.8482444
vn -0.529605 0 0.8482444
vn -0.529605 3.408877E-11 0.8482444
vn -0.529605 3.408877E-11 0.8482444
vn -0.529605 3.408877E-11 0.8482444
vn -0.8480351 0 -0.5299401
vn -0.8480351 0 -0.5299401
vn -0.8480351 0 -0.5299401
vn -0.8480351 0 -0.5299401
vn -0.529881 0 0.848072
vn -0.529881 0 0.848072
vn -0.529881 0 0.848072
vn -0.529881 0 0.848072
vn 0 -1 0
vn 0 -1 0
vn 0 -1 0
vn 0 -1 0
vn 0 -1 0
vn 0 -1 0
vn 0 -1 0
vn 0 -1 0
vn 0 -1 0
vn 0 -1 0

g CDNNDG02_0000060
f 2/2/2 3/3/3 7/7/7
f 5/5/5 6/6/6 7/7/7
f 4/4/4 5/5/5 7/7/7
f 8/8/8 2/2/2 7/7/7
f 3/3/3 4/4/4 7/7/7
f 1/1/1 2/2/2 8/8/8
f 10/10/10 11/11/11 9/9/9
f 9/9/9 11/11/11 12/12/12
f 13/13/13 15/15/15 16/16/16
f 15/15/15 13/13/13 14/14/14
f 17/17/17 18/18/18 19/19/19
f 20/20/20 21/21/21 22/22/22
f 23/23/23 24/24/24 25/25/25
f 26/26/26 28/28/28 29/29/29
f 26/26/26 27/27/27 28/28/28
f 30/30/30 32/32/32 33/33/33
f 30/30/30 31/31/31 32/32/32
f 34/34/34 35/35/35 36/36/36
f 37/37/37 38/38/38 39/39/39
f 40/40/40 41/41/41 42/42/42
f 43/43/43 45/45/45 46/46/46
f 43/43/43 44/44/44 45/45/45
f 50/50/50 47/47/47 49/49/49
f 49/49/49 47/47/47 48/48/48
f 58/58/58 51/51/51 56/56/56
f 52/52/52 54/54/54 51/51/51
f 58/58/58 60/60/60 51/51/51
f 53/53/53 54/54/54 52/52/52
f 58/58/58 59/59/59 60/60/60
f 57/57/57 58/58/58 56/56/56
f 55/55/55 56/56/56 54/54/54
f 56/56/56 51/51/51 54/54/54
