v 4.540379 5.52199 -3.047362
v 6.772378 5.52199 -6.637362
v 5.928379 5.52199 -7.161362
v 3.603379 5.52199 -3.630362
v -7.386621 5.52199 5.409638
v -3.908622 5.52199 7.595638
v 1.049378 5.52199 -1.150362
v -0.4806215 5.52199 -5.514361
v -0.04262156 5.52199 -5.255362
v 2.810989 5.52199 -10.98866
v -7.386621 5.52199 5.409638
v -0.4806215 5.52199 -5.514361
v 2.810989 5.52199 -10.98866
v -7.386621 5.52199 5.409638
v -0.8246216 5.52199 -4.932362
v -0.4806215 5.52199 -5.514361
v -7.386621 5.52199 5.409638
v -0.3866216 5.52199 -4.673361
v -0.8246216 5.52199 -4.932362
v -0.3866216 5.52199 -4.673361
v 1.049378 5.52199 -1.150362
v -0.04262156 5.52199 -5.255362
v -7.386621 5.52199 5.409638
v 1.049378 5.52199 -1.150362
v -0.3866216 5.52199 -4.673361
v -0.04262156 5.52199 -5.255362
v 1.049378 5.52199 -1.150362
v 2.810989 5.52199 -10.98866
v -3.908622 5.52199 7.595638
v -3.820621 5.52199 9.063639
v -2.440622 5.52199 9.967639
v 1.049378 5.52199 -1.150362
v 2.278378 5.52199 -3.126362
v 2.810989 5.52199 -10.98866
v -3.908622 5.52199 7.595638
v -2.440622 5.52199 9.967639
v -0.7716216 5.52199 9.401638
v 2.810989 5.52199 -10.98866
v 3.603379 5.52199 -3.630362
v 5.928379 5.52199 -7.161362
v -0.7716216 5.52199 9.401638
v 4.467379 5.52199 0.9756385
v 1.049378 5.52199 -1.150362
v -3.908622 5.52199 7.595638
v 3.089428 5.52199 -11.00367
v 5.928379 5.52199 -7.161362
v 6.860378 5.52199 -8.658361
v 2.278378 5.52199 -3.126362
v 3.603379 5.52199 -3.630362
v 2.810989 5.52199 -10.98866
v 2.810989 5.52199 -10.98866
v 3.089428 5.52199 -11.00367
v 2.895378 5.52199 -11.12436
v 2.810989 5.52199 -10.98866
v 5.928379 5.52199 -7.161362
v 3.089428 5.52199 -11.00367
v 2.278378 5.52199 -3.126362
v 3.008379 5.52199 -2.672362
v 3.603379 5.52199 -3.630362
v -0.8246216 6.87099 -4.932362
v -0.04262156 6.87099 -5.255362
v -0.4806215 6.87199 -5.514361
v -0.8246216 6.87099 -4.932362
v -0.3866216 6.87099 -4.673361
v -0.04262156 6.87099 -5.255362
v -0.7716216 -5.526102 9.401638
v 4.467379 -5.526102 0.9756385
v 4.467379 5.52199 0.9756385
v -0.7716216 5.52199 9.401638
v 1.049378 5.52199 -1.150362
v 4.467379 5.52199 0.9756385
v 4.467379 -5.526102 0.9756385
v 1.049378 -5.526102 -1.150362
v 1.049378 -5.526102 -1.150362
v 2.278378 -5.526102 -3.126362
v 2.278378 5.52199 -3.126362
v 1.049378 5.52199 -1.150362
v 2.278378 -5.526102 -3.126362
v 3.008379 -5.526102 -2.672362
v 3.008379 5.52199 -2.672362
v 2.278378 5.52199 -3.126362
v 3.008379 -5.526102 -2.672362
v 3.603379 -5.526102 -3.630362
v 3.603379 5.52199 -3.630362
v 3.008379 5.52199 -2.672362
v 3.603379 -5.526102 -3.630362
v 4.540379 -5.526102 -3.047362
v 4.540379 5.52199 -3.047362
v 3.603379 5.52199 -3.630362
v 4.540379 -5.526102 -3.047362
v 6.772378 -5.526102 -6.637362
v 6.772378 5.52199 -6.637362
v 4.540379 5.52199 -3.047362
v 5.928379 5.52199 -7.161362
v 6.772378 5.52199 -6.637362
v 6.772378 -5.526102 -6.637362
v 5.928379 -5.526102 -7.161362
v 6.394379 -5.526102 -7.909862
v 6.860378 -5.526102 -8.658361
v 6.860378 5.52199 -8.658361
v 5.928379 5.52199 -7.161362
v 5.928379 -5.526102 -7.161362
v 6.394379 -5.526102 -7.909862
v 5.928379 5.52199 -7.161362
v 6.394379 -5.526102 -7.909862
v 6.860378 5.52199 -8.658361
v 3.089428 5.52199 -11.00367
v 6.860378 5.52199 -8.658361
v 6.860378 -5.526102 -8.658361
v 3.089428 -5.526102 -11.00367
v 2.895378 5.52199 -11.12436
v 2.992403 -5.526102 -11.06402
v 2.895378 -5.526102 -11.12436
v 2.992403 -5.526102 -11.06402
v 3.089428 5.52199 -11.00367
v 3.089428 -5.526102 -11.00367
v 2.895378 5.52199 -11.12436
v 3.089428 5.52199 -11.00367
v 2.992403 -5.526102 -11.06402
v 2.810989 5.52199 -10.98866
v 2.895378 5.52199 -11.12436
v 2.895378 -5.526102 -11.12436
v 2.810989 -5.526102 -10.98866
v -7.386621 5.52199 5.409638
v 2.810989 5.52199 -10.98866
v 2.810989 -5.526102 -10.98866
v -7.386621 -5.526102 5.409638
v -5.647622 -5.526102 6.502638
v -3.908622 -5.526102 7.595638
v -3.908622 5.52199 7.595638
v -7.386621 5.52199 5.409638
v -7.386621 -5.526102 5.409638
v -5.647622 -5.526102 6.502638
v -7.386621 5.52199 5.409638
v -5.647622 -5.526102 6.502638
v -3.908622 5.52199 7.595638
v -3.908622 -5.526102 7.595638
v -3.820621 -5.526102 9.063639
v -3.820621 5.52199 9.063639
v -3.908622 5.52199 7.595638
v -3.820621 -5.526102 9.063639
v -2.440622 -5.526102 9.967639
v -2.440622 5.52199 9.967639
v -3.820621 5.52199 9.063639
v -2.440622 -5.526102 9.967639
v -0.7716216 -5.526102 9.401638
v -0.7716216 5.52199 9.401638
v -2.440622 5.52199 9.967639
v -0.8246216 5.52199 -4.932362
v -0.3866216 5.52199 -4.673361
v -0.3866216 6.87099 -4.673361
v -0.8246216 6.87099 -4.932362
v -0.3866216 5.52199 -4.673361
v -0.04262156 5.52199 -5.255362
v -0.04262156 6.87099 -5.255362
v -0.3866216 6.87099 -4.673361
v -0.4806215 6.87199 -5.514361
v -0.04262156 6.87099 -5.255362
v -0.04262156 5.52199 -5.255362
v -0.4806215 5.52199 -5.514361
v -0.8246216 6.87099 -4.932362
v -0.4806215 6.87199 -5.514361
v -0.4806215 5.52199 -5.514361
v -0.8246216 5.52199 -4.932362
v -2.440622 -5.526102 9.967639
v -3.820621 -5.526102 9.063639
v -3.908622 -5.526102 7.595638
v -5.647622 -5.526102 6.502638
v -7.386621 -5.526102 5.409638
v 2.810989 -5.526102 -10.98866
v 2.895378 -5.526102 -11.12436
v 2.992403 -5.526102 -11.06402
v 3.089428 -5.526102 -11.00367
v 6.860378 -5.526102 -8.658361
v 6.394379 -5.526102 -7.909862
v 5.928379 -5.526102 -7.161362
v 6.772378 -5.526102 -6.637362
v 4.540379 -5.526102 -3.047362
v 3.603379 -5.526102 -3.630362
v 3.008379 -5.526102 -2.672362
v 2.278378 -5.526102 -3.126362
v 1.049378 -5.526102 -1.150362
v 4.467379 -5.526102 0.9756385
v -0.7716216 -5.526102 9.401638
vt 0.278317 0.296923
vt 0.155252 0.352042
vt 0.137385 0.331037
vt 0.258438 0.273603
vt 0.568794 0.001439
vt 0.643333 0.088009
vt 0.343538 0.210390
vt 0.194283 0.172017
vt 0.203113 0.182917
vt 0.006632 0.253291
vt 0.568794 0.001439
vt 0.194283 0.172017
vt 0.006632 0.253291
vt 0.568794 0.001439
vt 0.214233 0.163524
vt 0.194283 0.172017
vt 0.568794 0.001439
vt 0.223063 0.174424
vt 0.214233 0.163524
vt 0.223063 0.174424
vt 0.343538 0.210390
vt 0.203113 0.182917
vt 0.568794 0.001439
vt 0.343538 0.210390
vt 0.223063 0.174424
vt 0.203113 0.182917
vt 0.343538 0.210390
vt 0.006632 0.253291
vt 0.643333 0.088009
vt 0.693578 0.090321
vt 0.724407 0.124672
vt 0.343538 0.210390
vt 0.275799 0.240742
vt 0.006632 0.253291
vt 0.643333 0.088009
vt 0.724407 0.124672
vt 0.704891 0.166074
vt 0.006632 0.253291
vt 0.258438 0.273603
vt 0.137385 0.331037
vt 0.704891 0.166074
vt 0.416029 0.295457
vt 0.343538 0.210390
vt 0.643333 0.088009
vt 0.006096 0.260205
vt 0.137385 0.331037
vt 0.086069 0.354053
vt 0.275799 0.240742
vt 0.258438 0.273603
vt 0.006632 0.253291
vt 0.006632 0.253291
vt 0.006096 0.260205
vt 0.001980 0.255375
vt 0.006632 0.253291
vt 0.137385 0.331037
vt 0.006096 0.260205
vt 0.275799 0.240742
vt 0.291279 0.258910
vt 0.258438 0.273603
vt 0.618710 0.939568
vt 0.608285 0.957680
vt 0.600000 0.947503
vt 0.618710 0.939568
vt 0.626988 0.949748
vt 0.608285 0.957680
vt 0.373542 0.696650
vt 0.088931 0.822983
vt 0.001980 0.776988
vt 0.290488 0.648921
vt 0.712348 0.781771
vt 0.637624 0.696825
vt 0.811363 0.648921
vt 0.885059 0.732702
vt 0.641555 0.872553
vt 0.575307 0.901881
vt 0.487129 0.855629
vt 0.554283 0.825899
vt 0.444348 0.939568
vt 0.459372 0.957018
vt 0.371666 0.984663
vt 0.356436 0.966974
vt 0.238918 0.985355
vt 0.206914 0.999484
vt 0.118812 0.953892
vt 0.151255 0.939568
vt 0.331798 0.939568
vt 0.351110 0.962042
vt 0.263142 0.990282
vt 0.243564 0.967500
vt 0.375230 0.871598
vt 0.254462 0.925086
vt 0.164356 0.880122
vt 0.286778 0.825899
vt 0.810451 0.893266
vt 0.792079 0.872505
vt 0.961807 0.825899
vt 0.979926 0.846375
vt 0.761236 0.881938
vt 0.736170 0.893032
vt 0.645545 0.848390
vt 0.696364 0.825899
vt 0.786303 0.870845
vt 0.761236 0.881938
vt 0.696364 0.825899
vt 0.761236 0.881938
vt 0.645545 0.848390
vt 0.460666 0.789829
vt 0.378218 0.696020
vt 0.547457 0.648921
vt 0.628771 0.741444
vt 0.464909 0.794656
vt 0.630864 0.743824
vt 0.632956 0.746205
vt 0.630864 0.743824
vt 0.460666 0.789829
vt 0.628771 0.741444
vt 0.464909 0.794656
vt 0.460666 0.789829
vt 0.630864 0.743824
vt 0.571894 0.360427
vt 0.576610 0.358273
vt 0.744999 0.387074
vt 0.740348 0.389198
vt 0.001980 0.620667
vt 0.571894 0.360427
vt 0.740348 0.389198
vt 0.178286 0.645844
vt 0.122964 0.868223
vt 0.159374 0.910546
vt 0.075801 0.936397
vt 0.001980 0.850589
vt 0.086554 0.825899
vt 0.122964 0.868223
vt 0.001980 0.850589
vt 0.122964 0.868223
vt 0.075801 0.936397
vt 0.546740 0.939568
vt 0.595709 0.941744
vt 0.513008 0.966651
vt 0.463366 0.964446
vt 0.084469 0.939568
vt 0.114438 0.972802
vt 0.032361 0.998866
vt 0.001980 0.965177
vt 0.481263 0.873812
vt 0.462118 0.914122
vt 0.380198 0.866762
vt 0.399605 0.825899
vt 0.709204 0.939568
vt 0.717253 0.949418
vt 0.707073 0.952471
vt 0.699010 0.942605
vt 0.694618 0.944982
vt 0.675841 0.952685
vt 0.665347 0.947284
vt 0.684155 0.939568
vt 0.640293 0.955357
vt 0.631683 0.945248
vt 0.651695 0.939568
vt 0.660305 0.949656
vt 0.722772 0.947430
vt 0.742154 0.939568
vt 0.762476 0.942630
vt 0.743112 0.950475
vt 0.768317 0.939568
vt 0.768317 0.939568
vt 0.768317 0.939568
vt 0.768317 0.939568
vt 0.768317 0.939568
vt 0.768317 0.939568
vt 0.768317 0.939568
vt 0.768317 0.939568
vt 0.768317 0.939568
vt 0.768317 0.939568
vt 0.768317 0.939568
vt 0.768317 0.939568
vt 0.768317 0.939568
vt 0.768317 0.939568
vt 0.768317 0.939568
vt 0.768317 0.939568
vt 0.768317 0.939568
vt 0.768317 0.939568
vt 0.768317 0.939568
vt 0.768317 0.939568
vn 0 1 0
vn 0 1 0
vn 0 1 0
vn 0 1 0
vn 0 1 0
vn 0 1 0
vn 0 1 0
vn 0 1 0
vn 0 1 0
vn 0 1 0
vn 0 1 0
vn 0 1 0
vn 0 1 0
vn 0 1 0
vn 0 1 0
vn 0 1 0
vn 0 1 0
vn 0 1 0
vn 0 1 0
vn 0 1 0
vn 0 1 0
vn 0 1 0
vn 0 1 0
vn 0 1 0
vn 0 1 0
vn 0 1 0
vn 0 1 0
vn 0 1 0
vn 0 1 0
vn 0 1 0
vn 0 1 0
vn 0 1 0
vn 0 1 0
vn 0 1 0
vn 0 1 0
vn 0 1 0
vn 0 1 0
vn 0 1 0
vn 0 1 0
vn 0 1 0
vn 0 1 0
vn 0 1 0
vn 0 1 0
vn 0 1 0
vn 0 1 0
vn 0 1 0
vn 0 1 0
vn 0 1 0
vn 0 1 0
vn 0 1 0
vn 0 1 0
vn 0 1 0
vn 0 1 0
vn 0 1 0
vn 0 1 0
vn 0 1 0
vn 0 1 0
vn 0 1 0
vn 0 1 0
vn 0.0009389179 0.999997 0.00227317
vn 0.0009389179 0.999997 0.00227317
vn 0.0009389179 0.999997 0.00227317
vn 0 1 0
vn 0 1 0
vn 0 1 0
vn 0.8492303 0 0.5280225
vn 0.8492303 0 0.5280225
vn 0.8492303 0 0.5280225
vn 0.8492303 0 0.5280225
vn 0.5281666 0 -0.8491408
vn 0.5281666 0 -0.8491408
vn 0.5281666 0 -0.8491408
vn 0.5281666 0 -0.8491408
vn 0.8491551 0 0.5281435
vn 0.8491551 0 0.5281435
vn 0.8491551 0 0.5281435
vn 0.8491551 0 0.5281435
vn -0.5281155 0 0.8491725
vn -0.5281155 0 0.8491725
vn -0.5281155 0 0.8491725
vn -0.5281155 0 0.8491725
vn 0.8494895 0 0.5276057
vn 0.8494895 0 0.5276057
vn 0.8494895 0 0.5276057
vn 0.8494895 0 0.5276057
vn -0.5282874 0 0.8490657
vn -0.5282874 0 0.8490657
vn -0.5282874 0 0.8490657
vn -0.5282874 0 0.8490657
vn 0.8492452 0 0.5279987
vn 0.8492452 0 0.5279987
vn 0.8492452 0 0.5279987
vn 0.8492452 0 0.5279987
vn 0.5274631 0 -0.849578
vn 0.5274631 0 -0.849578
vn 0.5274631 0 -0.849578
vn 0.5274631 0 -0.849578
vn 0.8489209 0 0.5285199
vn 0.8489209 0 0.5285199
vn 0.8489209 0 0.5285199
vn 0.8489209 0 0.5285199
vn 0.8489209 0 0.5285199
vn 0.8489209 0 0.5285199
vn 0.8489209 2.227636E-11 0.5285199
vn 0.8489209 2.227636E-11 0.5285199
vn 0.8489209 2.227636E-11 0.5285199
vn 0.5281304 0 -0.8491634
vn 0.5281304 0 -0.8491634
vn 0.5281304 0 -0.8491634
vn 0.5281304 0 -0.8491634
vn 0.5281303 0 -0.8491634
vn 0.5281303 0 -0.8491634
vn 0.5281303 0 -0.8491634
vn 0.5281304 0 -0.8491633
vn 0.5281304 0 -0.8491633
vn 0.5281304 0 -0.8491633
vn 0.5281304 1.186159E-10 -0.8491634
vn 0.5281304 1.186159E-10 -0.8491634
vn 0.5281304 1.186159E-10 -0.8491634
vn -0.8491907 0 -0.5280863
vn -0.8491907 0 -0.5280863
vn -0.8491907 0 -0.5280863
vn -0.8491907 0 -0.5280863
vn -0.8491907 0 -0.5280863
vn -0.8491907 0 -0.5280863
vn -0.8491907 0 -0.5280863
vn -0.8491907 0 -0.5280863
vn -0.5321416 0 0.8466554
vn -0.5321416 0 0.8466554
vn -0.5321416 0 0.8466554
vn -0.5321416 0 0.8466554
vn -0.5321416 0 0.8466554
vn -0.5321416 0 0.8466554
vn -0.5321416 0 0.8466554
vn -0.5321416 0 0.8466554
vn -0.5321416 0 0.8466554
vn -0.9982081 0 0.05983809
vn -0.9982081 0 0.05983809
vn -0.9982081 0 0.05983809
vn -0.9982081 0 0.05983809
vn -0.5479677 0 0.8364995
vn -0.5479677 0 0.8364995
vn -0.5479677 0 0.8364995
vn -0.5479677 0 0.8364995
vn 0.32116 0 0.9470249
vn 0.32116 0 0.9470249
vn 0.32116 0 0.9470249
vn 0.32116 0 0.9470249
vn -0.5089941 0 0.86077
vn -0.5089941 0 0.86077
vn -0.5089941 0 0.86077
vn -0.5089941 0 0.86077
vn 0.8608676 0 0.508829
vn 0.8608676 0 0.508829
vn 0.8608676 0 0.508829
vn 0.8608676 0 0.508829
vn 0.5089941 0 -0.86077
vn 0.5089941 0 -0.86077
vn 0.5089941 0 -0.86077
vn 0.5089941 0 -0.86077
vn -0.8608676 0 -0.508829
vn -0.8608676 0 -0.508829
vn -0.8608676 0 -0.508829
vn -0.8608676 0 -0.508829
vn 0 -1 0
vn 0 -1 0
vn 0 -1 0
vn 0 -1 0
vn 0 -1 0
vn 0 -1 0
vn 0 -1 0
vn 0 -1 0
vn 0 -1 0
vn 0 -1 0
vn 0 -1 0
vn 0 -1 0
vn 0 -1 0
vn 0 -1 0
vn 0 -1 0
vn 0 -1 0
vn 0 -1 0
vn 0 -1 0
vn 0 -1 0
vn 0 -1 0

g CDNNDG02_0002460
f 1/1/1 3/3/3 4/4/4
f 1/1/1 2/2/2 3/3/3
f 5/5/5 6/6/6 7/7/7
f 8/8/8 9/9/9 10/10/10
f 11/11/11 12/12/12 13/13/13
f 14/14/14 15/15/15 16/16/16
f 17/17/17 18/18/18 19/19/19
f 20/20/20 21/21/21 22/22/22
f 23/23/23 24/24/24 25/25/25
f 26/26/26 27/27/27 28/28/28
f 29/29/29 30/30/30 31/31/31
f 32/32/32 33/33/33 34/34/34
f 35/35/35 36/36/36 37/37/37
f 38/38/38 39/39/39 40/40/40
f 41/41/41 42/42/42 44/44/44
f 44/44/44 42/42/42 43/43/43
f 45/45/45 46/46/46 47/47/47
f 48/48/48 49/49/49 50/50/50
f 51/51/51 52/52/52 53/53/53
f 54/54/54 55/55/55 56/56/56
f 57/57/57 58/58/58 59/59/59
f 60/60/60 61/61/61 62/62/62
f 63/63/63 64/64/64 65/65/65
f 69/69/69 66/66/66 67/67/67
f 67/67/67 68/68/68 69/69/69
f 72/72/72 70/70/70 71/71/71
f 70/70/70 72/72/72 73/73/73
f 75/75/75 76/76/76 77/77/77
f 74/74/74 75/75/75 77/77/77
f 81/81/81 78/78/78 80/80/80
f 80/80/80 78/78/78 79/79/79
f 83/83/83 84/84/84 82/82/82
f 82/82/82 84/84/84 85/85/85
f 87/87/87 88/88/88 89/89/89
f 89/89/89 86/86/86 87/87/87
f 91/91/91 92/92/92 90/90/90
f 90/90/90 92/92/92 93/93/93
f 96/96/96 94/94/94 95/95/95
f 94/94/94 96/96/96 97/97/97
f 98/98/98 99/99/99 100/100/100
f 101/101/101 102/102/102 103/103/103
f 104/104/104 105/105/105 106/106/106
f 109/109/109 110/110/110 108/108/108
f 107/107/107 108/108/108 110/110/110
f 111/111/111 112/112/112 113/113/113
f 114/114/114 115/115/115 116/116/116
f 117/117/117 118/118/118 119/119/119
f 123/123/123 121/121/121 122/122/122
f 123/123/123 120/120/120 121/121/121
f 124/124/124 126/126/126 127/127/127
f 124/124/124 125/125/125 126/126/126
f 128/128/128 129/129/129 130/130/130
f 131/131/131 132/132/132 133/133/133
f 134/134/134 135/135/135 136/136/136
f 137/137/137 139/139/139 140/140/140
f 137/137/137 138/138/138 139/139/139
f 141/141/141 143/143/143 144/144/144
f 143/143/143 141/141/141 142/142/142
f 145/145/145 146/146/146 147/147/147
f 148/148/148 145/145/145 147/147/147
f 149/149/149 151/151/151 152/152/152
f 151/151/151 149/149/149 150/150/150
f 154/154/154 155/155/155 153/153/153
f 153/153/153 155/155/155 156/156/156
f 158/158/158 159/159/159 160/160/160
f 157/157/157 158/158/158 160/160/160
f 164/164/164 161/161/161 163/163/163
f 163/163/163 161/161/161 162/162/162
f 167/167/167 183/183/183 184/184/184
f 167/167/167 168/168/168 182/182/182
f 165/165/165 167/167/167 184/184/184
f 165/165/165 166/166/166 167/167/167
f 168/168/168 169/169/169 182/182/182
f 170/170/170 179/179/179 181/181/181
f 179/179/179 180/180/180 181/181/181
f 167/167/167 182/182/182 183/183/183
f 169/169/169 170/170/170 182/182/182
f 170/170/170 171/171/171 172/172/172
f 170/170/170 181/181/181 182/182/182
f 170/170/170 172/172/172 173/173/173
f 176/176/176 178/178/178 179/179/179
f 170/170/170 173/173/173 176/176/176
f 173/173/173 174/174/174 175/175/175
f 173/173/173 175/175/175 176/176/176
f 179/179/179 170/170/170 176/176/176
f 176/176/176 177/177/177 178/178/178
