v 6.521889 6.401305 -3.702093
v 7.077889 6.401305 -3.346093
v 7.206889 6.401305 -3.548093
v 6.651849 6.401305 -3.904589
v 6.651849 6.401305 -3.904589
v 7.206889 6.401305 -3.548093
v 7.507835 6.401305 -4.01501
v 6.951894 6.401305 -4.372102
v -7.653111 5.496305 3.841907
v -0.494111 5.496305 8.440907
v -6.062111 5.496305 2.465907
v -7.653111 5.496305 3.841907
v -6.366111 5.496305 2.269907
v -6.562111 5.496305 2.143907
v -7.653111 5.496305 3.841907
v -6.062111 5.496305 2.465907
v -6.366111 5.496305 2.269907
v -6.062111 5.496305 2.465907
v 6.651849 5.496305 -3.904589
v 0.5478891 5.496305 -7.825093
v -0.494111 5.496305 8.440907
v 7.077889 5.496305 -3.346093
v 6.521889 5.496305 -3.702093
v -6.062111 5.496305 2.465907
v 6.521889 5.496305 -3.702093
v 6.651849 5.496305 -3.904589
v -6.062111 5.496305 2.465907
v -0.494111 5.496305 8.440907
v 6.521889 5.496305 -3.702093
v 0.5478891 5.496305 -7.825093
v 6.651849 5.496305 -3.904589
v 6.951894 4.591311 -4.372102
v 0.543889 4.592305 -8.488093
v 0.5478891 5.496305 -7.825093
v 6.951894 4.591311 -4.372102
v -6.366111 4.592305 2.269907
v -6.062111 5.496305 2.465907
v 0.5478891 5.496305 -7.825093
v -6.366111 4.592305 2.269907
v 0.5478891 5.496305 -7.825093
v 0.543889 4.592305 -8.488093
v 6.521889 5.496305 -3.702093
v 7.077889 5.496305 -3.346093
v 7.077889 6.401305 -3.346093
v 6.521889 6.401305 -3.702093
v 7.077889 5.496305 -3.346093
v 7.206889 5.496305 -3.548093
v 7.206889 6.401305 -3.548093
v 7.077889 6.401305 -3.346093
v 7.206889 5.496305 -3.548093
v 7.507835 4.591244 -4.01501
v 7.507835 6.401305 -4.01501
v 7.206889 6.401305 -3.548093
v 7.206889 5.496305 -3.548093
v 7.507835 6.401305 -4.01501
v -0.494111 -5.470125 8.440907
v 7.077889 -5.470125 -3.346093
v 7.077889 5.496305 -3.346093
v -0.494111 5.496305 8.440907
v 7.077889 -5.470125 -3.346093
v 7.206889 -5.470125 -3.548093
v 7.206889 5.496305 -3.548093
v 7.077889 5.496305 -3.346093
v 7.357362 -5.470125 -3.781551
v 7.507835 -5.470125 -4.01501
v 7.507835 4.591244 -4.01501
v 7.206889 5.496305 -3.548093
v 7.206889 -5.470125 -3.548093
v 7.357362 -5.470125 -3.781551
v 7.206889 5.496305 -3.548093
v 7.357362 -5.470125 -3.781551
v 7.507835 4.591244 -4.01501
v 6.951894 6.401305 -4.372102
v 7.507835 6.401305 -4.01501
v 7.507835 4.591244 -4.01501
v 6.951894 4.591311 -4.372102
v 0.543889 4.592305 -8.488093
v 6.951894 4.591311 -4.372102
v 6.951894 -5.470125 -4.372102
v 0.543889 -5.470125 -8.488093
v 6.951894 4.591311 -4.372102
v 7.507835 4.591244 -4.01501
v 7.507835 -5.470125 -4.01501
v 6.951894 -5.470125 -4.372102
v 6.651849 6.401305 -3.904589
v 6.951894 6.401305 -4.372102
v 6.651849 5.496305 -3.904589
v 6.651849 5.496305 -3.904589
v 6.951894 6.401305 -4.372102
v 6.951894 4.591311 -4.372102
v 6.521889 6.401305 -3.702093
v 6.651849 6.401305 -3.904589
v 6.651849 5.496305 -3.904589
v 6.521889 5.496305 -3.702093
v -6.562111 5.496305 2.143907
v -6.366111 4.592305 2.269907
v -6.366111 -5.470125 2.269907
v -6.562111 -5.470125 2.143907
v -6.562111 5.496305 2.143907
v -6.366111 5.496305 2.269907
v -6.366111 4.592305 2.269907
v -6.366111 5.496305 2.269907
v -6.062111 5.496305 2.465907
v -6.366111 4.592305 2.269907
v -7.653111 5.496305 3.841907
v -6.562111 5.496305 2.143907
v -6.562111 -5.470125 2.143907
v -7.653111 -5.470125 3.841907
v -7.653111 -5.470125 3.841907
v -0.494111 -5.470125 8.440907
v -0.494111 5.496305 8.440907
v -7.653111 5.496305 3.841907
v -6.366111 4.592305 2.269907
v 0.543889 4.592305 -8.488093
v 0.543889 -5.470125 -8.488093
v -6.366111 -5.470125 2.269907
v -6.562111 -5.470125 2.143907
v -6.366111 -5.470125 2.269907
v 0.543889 -5.470125 -8.488093
v 6.951894 -5.470125 -4.372102
v 7.507835 -5.470125 -4.01501
v 7.357362 -5.470125 -3.781551
v 7.206889 -5.470125 -3.548093
v 7.077889 -5.470125 -3.346093
v -0.494111 -5.470125 8.440907
v -7.653111 -5.470125 3.841907
vt 0.323082 0.859504
vt 0.309890 0.846161
vt 0.317304 0.843032
vt 0.330514 0.856353
vt 0.330514 0.856353
vt 0.317304 0.843032
vt 0.334441 0.835735
vt 0.347673 0.849077
vt 0.181256 0.375869
vt 0.002198 0.194881
vt 0.234191 0.335361
vt 0.181256 0.375869
vt 0.241822 0.343046
vt 0.246727 0.348001
vt 0.181256 0.375869
vt 0.234191 0.335361
vt 0.241822 0.343046
vt 0.234191 0.335361
vt 0.478377 0.012179
vt 0.631011 0.166509
vt 0.002198 0.194881
vt 0.456708 0.001441
vt 0.470568 0.015499
vt 0.234191 0.335361
vt 0.470568 0.015499
vt 0.478377 0.012179
vt 0.234191 0.335361
vt 0.002198 0.194881
vt 0.470568 0.015499
vt 0.153304 0.999999
vt 0.002198 0.846736
vt 0.017666 0.835735
vt 0.176128 0.996452
vt 0.153304 0.999999
vt 0.017666 0.835735
vt 0.451589 0.805237
vt 0.446154 0.794947
vt 0.842282 0.626801
vt 0.451589 0.805237
vt 0.842282 0.626801
vt 0.865221 0.629660
vt 0.366016 0.851476
vt 0.353846 0.838540
vt 0.355988 0.835735
vt 0.368173 0.848686
vt 0.478015 0.430438
vt 0.485792 0.427158
vt 0.488167 0.430562
vt 0.480381 0.433846
vt 0.485792 0.427158
vt 0.501378 0.416117
vt 0.506164 0.422902
vt 0.488167 0.430562
vt 0.485792 0.427158
vt 0.506164 0.422902
vt 0.002198 0.579627
vt 0.449766 0.389745
vt 0.478015 0.430438
vt 0.024242 0.622949
vt 0.449766 0.389745
vt 0.457437 0.386510
vt 0.485792 0.427158
vt 0.478015 0.430438
vt 0.466302 0.382736
vt 0.475168 0.378963
vt 0.501378 0.416117
vt 0.485792 0.427158
vt 0.457437 0.386510
vt 0.466302 0.382736
vt 0.485792 0.427158
vt 0.466302 0.382736
vt 0.501378 0.416117
vt 0.556681 0.436867
vt 0.542881 0.422864
vt 0.538126 0.416085
vt 0.551895 0.430057
vt 0.710594 0.591096
vt 0.551895 0.430057
vt 0.525684 0.392759
vt 0.682391 0.551776
vt 0.551895 0.430057
vt 0.538126 0.416085
vt 0.512088 0.378963
vt 0.525684 0.392759
vt 0.383142 0.842668
vt 0.399861 0.835735
vt 0.380859 0.845411
vt 0.380859 0.845411
vt 0.399861 0.835735
vt 0.395262 0.841230
vt 0.375901 0.845672
vt 0.383142 0.842668
vt 0.380859 0.845411
vt 0.373626 0.848411
vt 0.305095 0.884898
vt 0.298559 0.876371
vt 0.276923 0.835735
vt 0.281426 0.840495
vt 0.305095 0.884898
vt 0.300530 0.880072
vt 0.298559 0.876371
vt 0.300530 0.880072
vt 0.293427 0.872587
vt 0.298559 0.876371
vt 0.207254 0.863044
vt 0.271390 0.835735
vt 0.245675 0.866747
vt 0.182418 0.893682
vt 0.891802 0.590592
vt 0.716484 0.412606
vt 0.739222 0.378963
vt 0.916972 0.559419
vt 0.026159 0.802564
vt 0.439888 0.626801
vt 0.410732 0.657985
vt 0.002198 0.831540
vt 0.404396 0.835735
vt 0.404396 0.835735
vt 0.404396 0.835735
vt 0.404396 0.835735
vt 0.404396 0.835735
vt 0.404396 0.835735
vt 0.404396 0.835735
vt 0.404396 0.835735
vt 0.404396 0.835735
vt 0.404396 0.835735
vn 0 1 0
vn 0 1 0
vn 0 1 0
vn 0 1 0
vn 0 1 0
vn 0 1 0
vn 0 1 0
vn 0 1 0
vn 0 1 0
vn 0 1 0
vn 0 1 0
vn 0 1 0
vn 0 1 0
vn 0 1 0
vn 0 1 0
vn 0 1 0
vn 0 1 0
vn 0 1 0
vn 0 1 0
vn 0 1 0
vn 0 1 0
vn 0 1 0
vn 0 1 0
vn 0 1 0
vn 0 1 0
vn 0 1 0
vn 0 1 0
vn 0 1 0
vn 0 1 0
vn 0.4605714 0.5231369 -0.7170786
vn 0.4605714 0.5231369 -0.7170786
vn 0.4605714 0.5231369 -0.7170786
vn 0.4604761 0.5236456 -0.7167685
vn 0.4604761 0.5236456 -0.7167685
vn 0.4604761 0.5236456 -0.7167685
vn -0.7811776 0.371485 -0.5017573
vn -0.7811776 0.371485 -0.5017573
vn -0.7811776 0.371485 -0.5017573
vn -0.7811863 0.3714552 -0.5017658
vn -0.7811863 0.3714552 -0.5017658
vn -0.7811863 0.3714552 -0.5017658
vn -0.5392256 0 0.8421614
vn -0.5392256 0 0.8421614
vn -0.5392256 0 0.8421614
vn -0.5392256 0 0.8421614
vn 0.8428014 0 0.5382246
vn 0.8428014 0 0.5382246
vn 0.8428014 0 0.5382246
vn 0.8428014 0 0.5382246
vn 0.8405344 0 0.5417581
vn 0.8405344 0 0.5417581
vn 0.8405344 0 0.5417581
vn 0.8405344 0 0.5417581
vn 0.8405344 0 0.5417581
vn 0.8405344 0 0.5417581
vn 0.8413523 0 0.540487
vn 0.8413523 0 0.540487
vn 0.8413523 0 0.540487
vn 0.8413523 0 0.540487
vn 0.8428014 0 0.5382246
vn 0.8428014 0 0.5382246
vn 0.8428014 0 0.5382246
vn 0.8428014 0 0.5382246
vn 0.8405344 0 0.5417581
vn 0.8405344 0 0.5417581
vn 0.8405344 0 0.5417581
vn 0.8405344 0 0.5417581
vn 0.8405344 0 0.5417581
vn 0.8405344 0 0.5417581
vn 0.8405344 -2.639395E-10 0.5417581
vn 0.8405344 -2.639395E-10 0.5417581
vn 0.8405344 -2.639395E-10 0.5417581
vn 0.5404378 0 -0.841384
vn 0.5404378 0 -0.841384
vn 0.5404378 0 -0.841384
vn 0.5404378 0 -0.841384
vn 0.5404379 0 -0.8413839
vn 0.5404379 0 -0.8413839
vn 0.5404379 0 -0.8413839
vn 0.5404379 0 -0.8413839
vn 0.5404378 0 -0.841384
vn 0.5404378 0 -0.841384
vn 0.5404378 0 -0.841384
vn 0.5404378 0 -0.841384
vn -0.8415864 0 -0.5401226
vn -0.8415864 0 -0.5401226
vn -0.8415864 0 -0.5401226
vn -0.8415864 0 -0.5401226
vn -0.8415864 0 -0.5401226
vn -0.8415864 0 -0.5401226
vn -0.8415864 0 -0.5401226
vn -0.8415864 0 -0.5401226
vn -0.8415864 0 -0.5401226
vn -0.8415864 0 -0.5401226
vn 0.5407576 0 -0.8411785
vn 0.5407576 0 -0.8411785
vn 0.5407576 0 -0.8411785
vn 0.5407576 0 -0.8411785
vn 0.5407576 0 -0.8411785
vn 0.5407576 0 -0.8411785
vn 0.5407576 0 -0.8411785
vn 0.5418749 0 -0.8404591
vn 0.5418749 0 -0.8404591
vn 0.5418749 0 -0.8404591
vn -0.8413072 0 -0.5405573
vn -0.8413072 0 -0.5405573
vn -0.8413072 0 -0.5405573
vn -0.8413072 0 -0.5405573
vn -0.5404903 0 0.8413503
vn -0.5404903 0 0.8413503
vn -0.5404903 0 0.8413503
vn -0.5404903 0 0.8413503
vn -0.8413868 0 -0.5404334
vn -0.8413868 0 -0.5404334
vn -0.8413868 0 -0.5404334
vn -0.8413868 0 -0.5404334
vn 0 -1 0
vn 0 -1 0
vn 0 -1 0
vn 0 -1 0
vn 0 -1 0
vn 0 -1 0
vn 0 -1 0
vn 0 -1 0
vn 0 -1 0
vn 0 -1 0

g CDNNDG02_0005000
f 4/4/4 1/1/1 3/3/3
f 3/3/3 1/1/1 2/2/2
f 5/5/5 6/6/6 8/8/8
f 7/7/7 8/8/8 6/6/6
f 9/9/9 10/10/10 11/11/11
f 12/12/12 13/13/13 14/14/14
f 15/15/15 16/16/16 17/17/17
f 18/18/18 19/19/19 20/20/20
f 21/21/21 22/22/22 23/23/23
f 24/24/24 25/25/25 26/26/26
f 27/27/27 28/28/28 29/29/29
f 30/30/30 31/31/31 32/32/32
f 33/33/33 34/34/34 35/35/35
f 36/36/36 37/37/37 38/38/38
f 39/39/39 40/40/40 41/41/41
f 45/45/45 42/42/42 44/44/44
f 44/44/44 42/42/42 43/43/43
f 47/47/47 48/48/48 46/46/46
f 46/46/46 48/48/48 49/49/49
f 50/50/50 51/51/51 52/52/52
f 53/53/53 54/54/54 55/55/55
f 59/59/59 56/56/56 58/58/58
f 57/57/57 58/58/58 56/56/56
f 60/60/60 62/62/62 63/63/63
f 60/60/60 61/61/61 62/62/62
f 64/64/64 65/65/65 66/66/66
f 67/67/67 68/68/68 69/69/69
f 70/70/70 71/71/71 72/72/72
f 75/75/75 76/76/76 74/74/74
f 73/73/73 74/74/74 76/76/76
f 80/80/80 77/77/77 78/78/78
f 78/78/78 79/79/79 80/80/80
f 82/82/82 83/83/83 84/84/84
f 81/81/81 82/82/82 84/84/84
f 85/85/85 86/86/86 87/87/87
f 88/88/88 89/89/89 90/90/90
f 91/91/91 93/93/93 94/94/94
f 91/91/91 92/92/92 93/93/93
f 96/96/96 97/97/97 98/98/98
f 95/95/95 96/96/96 98/98/98
f 99/99/99 100/100/100 101/101/101
f 102/102/102 103/103/103 104/104/104
f 105/105/105 106/106/106 107/107/107
f 108/108/108 105/105/105 107/107/107
f 109/109/109 111/111/111 112/112/112
f 111/111/111 109/109/109 110/110/110
f 114/114/114 115/115/115 116/116/116
f 113/113/113 114/114/114 116/116/116
f 118/118/118 124/124/124 125/125/125
f 120/120/120 123/123/123 124/124/124
f 126/126/126 118/118/118 125/125/125
f 118/118/118 119/119/119 124/124/124
f 120/120/120 122/122/122 123/123/123
f 119/119/119 120/120/120 124/124/124
f 120/120/120 121/121/121 122/122/122
f 117/117/117 118/118/118 126/126/126
