v -0.7743083 6.813764 -6.463954
v 4.696692 6.814976 -0.1189537
v 4.887691 6.815003 0.002046224
v -0.7743083 6.813764 -6.463954
v 4.333429 6.815043 0.4507481
v 4.696692 6.814976 -0.1189537
v -0.7743083 6.813764 -6.463954
v 4.887691 6.815003 0.002046224
v 6.183692 6.814764 -2.032954
v -6.185308 6.814764 2.032046
v 0.7726917 6.815764 6.464046
v 4.477692 6.815079 0.6460462
v -6.185308 6.814764 2.032046
v 4.333429 6.815043 0.4507481
v -0.7743083 6.813764 -6.463954
v -6.185308 6.814764 2.032046
v 4.477692 6.815079 0.6460462
v 4.286692 6.815052 0.5240462
v -6.185308 6.814764 2.032046
v 4.286692 6.815052 0.5240462
v 4.333429 6.815043 0.4507481
v 4.477692 7.935843 0.6460462
v 4.887691 7.935843 0.002046224
v 4.696692 7.935843 -0.1189537
v 4.286692 7.935843 0.5240462
v 2.625192 -6.817285 3.555046
v 4.477692 -6.817285 0.6460462
v 4.477692 6.815079 0.6460462
v 0.7726917 6.815764 6.464046
v 0.7726917 -6.817285 6.464046
v 2.625192 -6.817285 3.555046
v 0.7726917 6.815764 6.464046
v 2.625192 -6.817285 3.555046
v 4.477692 6.815079 0.6460462
v 4.477692 -6.817285 0.6460462
v 4.887691 -6.817285 0.002046224
v 4.887691 6.815003 0.002046224
v 4.477692 6.815079 0.6460462
v 5.535692 -6.817285 -1.015454
v 6.183692 -6.817285 -2.032954
v 6.183692 6.814764 -2.032954
v 4.887691 6.815003 0.002046224
v 4.887691 -6.817285 0.002046224
v 5.535692 -6.817285 -1.015454
v 4.887691 6.815003 0.002046224
v 5.535692 -6.817285 -1.015454
v 6.183692 6.814764 -2.032954
v 4.477692 6.815079 0.6460462
v 4.887691 6.815003 0.002046224
v 4.887691 7.935843 0.002046224
v 4.477692 7.935843 0.6460462
v -0.7743083 6.813764 -6.463954
v 6.183692 6.814764 -2.032954
v 6.183692 -6.817285 -2.032954
v -0.7743083 -6.817285 -6.463954
v -6.185308 6.814764 2.032046
v -3.479808 -6.817285 -2.215954
v -6.185308 -6.817285 2.032046
v -3.479808 -6.817285 -2.215954
v -0.7743083 6.813764 -6.463954
v -0.7743083 -6.817285 -6.463954
v -6.185308 6.814764 2.032046
v -0.7743083 6.813764 -6.463954
v -3.479808 -6.817285 -2.215954
v -6.185308 -6.817285 2.032046
v 0.7726917 -6.817285 6.464046
v 0.7726917 6.815764 6.464046
v -6.185308 6.814764 2.032046
v 4.696692 7.935843 -0.1189537
v 4.887691 7.935843 0.002046224
v 4.887691 6.815003 0.002046224
v 4.696692 6.814976 -0.1189537
v 4.286692 7.935843 0.5240462
v 4.333429 6.815043 0.4507481
v 4.286692 6.815052 0.5240462
v 4.333429 6.815043 0.4507481
v 4.696692 7.935843 -0.1189537
v 4.696692 6.814976 -0.1189537
v 4.286692 7.935843 0.5240462
v 4.696692 7.935843 -0.1189537
v 4.333429 6.815043 0.4507481
v 4.286692 6.815052 0.5240462
v 4.477692 6.815079 0.6460462
v 4.477692 7.935843 0.6460462
v 4.286692 7.935843 0.5240462
v 0.7726917 -6.817285 6.464046
v -6.185308 -6.817285 2.032046
v -3.479808 -6.817285 -2.215954
v -0.7743083 -6.817285 -6.463954
v 6.183692 -6.817285 -2.032954
v 5.535692 -6.817285 -1.015454
v 4.887691 -6.817285 0.002046224
v 4.477692 -6.817285 0.6460462
v 2.625192 -6.817285 3.555046
vt 0.577677 0.256154
vt 0.295434 0.056206
vt 0.290052 0.049232
vt 0.577677 0.256154
vt 0.270085 0.069424
vt 0.295434 0.056206
vt 0.577677 0.256154
vt 0.290052 0.049232
vt 0.380600 0.002075
vt 0.199660 0.453021
vt 0.002532 0.198958
vt 0.261397 0.064150
vt 0.199660 0.453021
vt 0.270085 0.069424
vt 0.577677 0.256154
vt 0.199660 0.453021
vt 0.261397 0.064150
vt 0.266824 0.071125
vt 0.199660 0.453021
vt 0.266824 0.071125
vt 0.270085 0.069424
vt 0.582278 0.770905
vt 0.609040 0.757261
vt 0.614066 0.763640
vt 0.587346 0.777284
vt 0.857434 0.608148
vt 0.732566 0.673624
vt 0.524530 0.591687
vt 0.778488 0.458506
vt 0.982303 0.542671
vt 0.857434 0.608148
vt 0.778488 0.458506
vt 0.857434 0.608148
vt 0.524530 0.591687
vt 0.732566 0.673624
vt 0.704924 0.688116
vt 0.496420 0.606425
vt 0.524530 0.591687
vt 0.661249 0.711019
vt 0.617574 0.733921
vt 0.407595 0.653010
vt 0.496420 0.606425
vt 0.704924 0.688116
vt 0.661249 0.711019
vt 0.496420 0.606425
vt 0.661249 0.711019
vt 0.407595 0.653010
vt 0.524530 0.591687
vt 0.496420 0.606425
vt 0.478962 0.599585
vt 0.507113 0.584827
vt 0.783205 0.338665
vt 0.584810 0.086629
vt 0.779046 0.002075
vt 0.974061 0.249854
vt 0.002532 0.953355
vt 0.389033 0.902249
vt 0.203238 0.998634
vt 0.389033 0.902249
vt 0.380541 0.757261
vt 0.574834 0.805862
vt 0.002532 0.953355
vt 0.380541 0.757261
vt 0.389033 0.902249
vt 0.209612 0.458506
vt 0.400530 0.703670
vt 0.196684 0.751456
vt 0.002532 0.502126
vt 0.673208 0.769402
vt 0.668354 0.763427
vt 0.683023 0.757261
vt 0.687870 0.763228
vt 0.620253 0.770769
vt 0.639203 0.773164
vt 0.636110 0.774701
vt 0.639203 0.773164
vt 0.647430 0.757261
vt 0.663249 0.761213
vt 0.620253 0.770769
vt 0.647430 0.757261
vt 0.639203 0.773164
vt 0.709457 0.757261
vt 0.714297 0.763005
vt 0.698518 0.766518
vt 0.693671 0.760767
vt 0.721519 0.757261
vt 0.721519 0.757261
vt 0.721519 0.757261
vt 0.721519 0.757261
vt 0.721519 0.757261
vt 0.721519 0.757261
vt 0.721519 0.757261
vt 0.721519 0.757261
vt 0.721519 0.757261
vn -4.897491E-05 1 -0.0001488082
vn -4.897491E-05 1 -0.0001488082
vn -4.897491E-05 1 -0.0001488082
vn -4.892292E-05 1 -0.0001488531
vn -4.892292E-05 1 -0.0001488531
vn -4.892292E-05 1 -0.0001488531
vn -4.893049E-05 1 -0.0001488471
vn -4.893049E-05 1 -0.0001488471
vn -4.893049E-05 1 -0.0001488471
vn -4.893023E-05 1 -0.0001488478
vn -4.893023E-05 1 -0.0001488478
vn -4.893023E-05 1 -0.0001488478
vn -4.893008E-05 1 -0.0001488478
vn -4.893008E-05 1 -0.0001488478
vn -4.893008E-05 1 -0.0001488478
vn -4.893457E-05 1 -0.0001488812
vn -4.893457E-05 1 -0.0001488812
vn -4.893457E-05 1 -0.0001488812
vn -4.892237E-05 1 -0.0001487965
vn -4.892237E-05 1 -0.0001487965
vn -4.892237E-05 1 -0.0001487965
vn 0 1 0
vn 0 1 0
vn 0 1 0
vn 0 1 0
vn 0.8434883 0 0.5371475
vn 0.8434883 0 0.5371475
vn 0.8434883 0 0.5371475
vn 0.8434883 0 0.5371475
vn 0.8434883 0 0.5371475
vn 0.8434883 0 0.5371475
vn 0.8434883 5.115492E-10 0.5371475
vn 0.8434883 5.115492E-10 0.5371475
vn 0.8434883 5.115492E-10 0.5371475
vn 0.8435536 0 0.537045
vn 0.8435536 0 0.537045
vn 0.8435536 0 0.537045
vn 0.8435536 0 0.537045
vn 0.8434737 0 0.5371705
vn 0.8434737 0 0.5371705
vn 0.8434737 0 0.5371705
vn 0.8434737 0 0.5371705
vn 0.8434737 0 0.5371705
vn 0.8434737 0 0.5371705
vn 0.8434737 2.913822E-10 0.5371705
vn 0.8434737 2.913822E-10 0.5371705
vn 0.8434737 2.913822E-10 0.5371705
vn 0.8435536 0 0.537045
vn 0.8435536 0 0.537045
vn 0.8435536 0 0.537045
vn 0.8435536 0 0.537045
vn 0.53715 0 -0.8434867
vn 0.53715 0 -0.8434867
vn 0.53715 0 -0.8434867
vn 0.53715 0 -0.8434867
vn -0.8434611 0 -0.5371902
vn -0.8434611 0 -0.5371902
vn -0.8434611 0 -0.5371902
vn -0.8434611 0 -0.5371902
vn -0.8434611 0 -0.5371902
vn -0.8434611 0 -0.5371902
vn -0.8434611 -1.800813E-12 -0.5371902
vn -0.8434611 -1.800813E-12 -0.5371902
vn -0.8434611 -1.800813E-12 -0.5371902
vn -0.5372363 0 0.8434318
vn -0.5372363 0 0.8434318
vn -0.5372363 0 0.8434318
vn -0.5372363 0 0.8434318
vn 0.5351572 0 -0.8447525
vn 0.5351572 0 -0.8447525
vn 0.5351572 0 -0.8447525
vn 0.5351572 0 -0.8447525
vn -0.8431752 0 -0.5376389
vn -0.8431752 0 -0.5376389
vn -0.8431752 0 -0.5376389
vn -0.8431752 0 -0.5376389
vn -0.8431752 0 -0.5376389
vn -0.8431752 0 -0.5376389
vn -0.8431752 2.948429E-09 -0.5376389
vn -0.8431752 2.948429E-09 -0.5376389
vn -0.8431752 2.948429E-09 -0.5376389
vn -0.5383021 0 0.8427519
vn -0.5383021 0 0.8427519
vn -0.5383021 0 0.8427519
vn -0.5383021 0 0.8427519
vn 0 -1 0
vn 0 -1 0
vn 0 -1 0
vn 0 -1 0
vn 0 -1 0
vn 0 -1 0
vn 0 -1 0
vn 0 -1 0
vn 0 -1 0

g CDNNDG02_0003040
f 1/1/1 2/2/2 3/3/3
f 4/4/4 5/5/5 6/6/6
f 7/7/7 8/8/8 9/9/9
f 10/10/10 11/11/11 12/12/12
f 13/13/13 14/14/14 15/15/15
f 16/16/16 17/17/17 18/18/18
f 19/19/19 20/20/20 21/21/21
f 22/22/22 24/24/24 25/25/25
f 22/22/22 23/23/23 24/24/24
f 26/26/26 27/27/27 28/28/28
f 29/29/29 30/30/30 31/31/31
f 32/32/32 33/33/33 34/34/34
f 36/36/36 37/37/37 35/35/35
f 35/35/35 37/37/37 38/38/38
f 39/39/39 40/40/40 41/41/41
f 42/42/42 43/43/43 44/44/44
f 45/45/45 46/46/46 47/47/47
f 48/48/48 50/50/50 51/51/51
f 48/48/48 49/49/49 50/50/50
f 52/52/52 53/53/53 54/54/54
f 55/55/55 52/52/52 54/54/54
f 56/56/56 57/57/57 58/58/58
f 59/59/59 60/60/60 61/61/61
f 62/62/62 63/63/63 64/64/64
f 68/68/68 65/65/65 66/66/66
f 67/67/67 68/68/68 66/66/66
f 69/69/69 71/71/71 72/72/72
f 69/69/69 70/70/70 71/71/71
f 73/73/73 74/74/74 75/75/75
f 76/76/76 77/77/77 78/78/78
f 79/79/79 80/80/80 81/81/81
f 85/85/85 83/83/83 84/84/84
f 85/85/85 82/82/82 83/83/83
f 88/88/88 93/93/93 94/94/94
f 93/93/93 88/88/88 92/92/92
f 89/89/89 91/91/91 92/92/92
f 86/86/86 87/87/87 94/94/94
f 89/89/89 90/90/90 91/91/91
f 87/87/87 88/88/88 94/94/94
f 88/88/88 89/89/89 92/92/92
