v -1.359989 7.192 0.4284528
v -1.334603 7.192 0.4436731
v 2.995359 7.192 -2.373459
v -1.334603 7.192 0.4436731
v 3.010359 7.192 -2.325459
v 2.995359 7.192 -2.373459
v -1.359989 7.192 0.4284528
v 2.995359 7.192 -2.373459
v 2.517359 7.192 -3.929459
v -6.587641 7.192 3.791541
v -1.454773 7.192 0.3716266
v 2.517359 7.192 -3.929459
v -1.454773 7.192 0.3716266
v -1.359989 7.192 0.4284528
v 2.517359 7.192 -3.929459
v -6.587641 7.192 3.791541
v -1.568688 7.192 0.5627143
v -1.454773 7.192 0.3716266
v 1.519359 7.192 -8.761459
v 2.517359 7.192 -3.929459
v 4.334359 7.192 -6.747459
v 1.519359 7.192 -8.761459
v 4.334359 7.192 -6.747459
v 4.425359 7.192 -6.888459
v -0.2116412 7.192 7.901541
v 5.391359 7.192 -0.7914591
v 3.010359 7.192 -2.325459
v -6.587641 7.192 3.791541
v 2.517359 7.192 -3.929459
v 1.519359 7.192 -8.761459
v -1.135727 7.192 1.280592
v -0.2116412 7.192 7.901541
v -0.8196839 7.192 0.752387
v -0.8196839 7.192 0.752387
v -0.2116412 7.192 7.901541
v 3.010359 7.192 -2.325459
v -6.587641 7.192 3.791541
v -0.2116412 7.192 7.901541
v -1.135727 7.192 1.280592
v -6.587641 7.192 3.791541
v -1.135727 7.192 1.280592
v -1.770453 7.192 0.9011648
v -1.334603 7.192 0.4436731
v -0.8196839 7.192 0.752387
v 3.010359 7.192 -2.325459
v -6.587641 7.192 3.791541
v -1.770453 7.192 0.9011648
v -1.597671 7.192 0.6113319
v -6.587641 7.192 3.791541
v -1.597671 7.192 0.6113319
v -1.568688 7.192 0.5627143
v 2.517359 6.64 -3.929459
v 5.422359 5.785 -6.045459
v 4.334359 6.64 -6.747459
v 2.517359 6.64 -3.929459
v 2.995359 5.785 -2.373459
v 5.422359 5.785 -6.045459
v -1.327641 7.501 0.8395409
v -1.135727 7.192 1.280592
v -0.8196839 7.192 0.752387
v -1.454773 7.192 0.3716266
v -1.327641 7.501 0.8395409
v -1.359989 7.192 0.4284528
v -1.334603 7.192 0.4436731
v -1.327641 7.501 0.8395409
v -0.8196839 7.192 0.752387
v -1.359989 7.192 0.4284528
v -1.327641 7.501 0.8395409
v -1.334603 7.192 0.4436731
v -1.770453 7.192 0.9011648
v -1.135727 7.192 1.280592
v -1.327641 7.501 0.8395409
v -1.770453 7.192 0.9011648
v -1.327641 7.501 0.8395409
v -1.597671 7.192 0.6113319
v -1.568688 7.192 0.5627143
v -1.327641 7.501 0.8395409
v -1.454773 7.192 0.3716266
v -1.597671 7.192 0.6113319
v -1.327641 7.501 0.8395409
v -1.568688 7.192 0.5627143
v 1.519359 7.192 -8.761459
v 2.972359 -7.146726 -7.824959
v 1.519359 -7.146726 -8.761459
v 2.972359 -7.146726 -7.824959
v 4.425359 7.192 -6.888459
v 4.425359 -7.146726 -6.888459
v 1.519359 7.192 -8.761459
v 4.425359 7.192 -6.888459
v 2.972359 -7.146726 -7.824959
v -6.587641 7.192 3.791541
v 1.519359 7.192 -8.761459
v 1.519359 -7.146726 -8.761459
v -6.587641 -7.146726 3.791541
v -6.587641 -7.146726 3.791541
v -0.2116412 -7.146726 7.901541
v -0.2116412 7.192 7.901541
v -6.587641 7.192 3.791541
v -0.2116412 -7.146726 7.901541
v 5.391359 -7.146726 -0.7914591
v 5.391359 7.192 -0.7914591
v -0.2116412 7.192 7.901541
v 3.010359 7.192 -2.325459
v 5.391359 7.192 -0.7914591
v 5.391359 -7.146726 -0.7914591
v 3.010359 -7.146726 -2.325459
v 2.995359 7.192 -2.373459
v 3.002859 -7.146726 -2.349459
v 2.995359 5.785 -2.373459
v 2.995359 5.785 -2.373459
v 3.002859 -7.146726 -2.349459
v 2.995359 -7.146726 -2.373459
v 3.002859 -7.146726 -2.349459
v 3.010359 7.192 -2.325459
v 3.010359 -7.146726 -2.325459
v 2.995359 7.192 -2.373459
v 3.010359 7.192 -2.325459
v 3.002859 -7.146726 -2.349459
v 2.517359 7.192 -3.929459
v 2.995359 7.192 -2.373459
v 2.517359 6.64 -3.929459
v 2.517359 6.64 -3.929459
v 2.995359 7.192 -2.373459
v 2.995359 5.785 -2.373459
v 2.517359 6.64 -3.929459
v 4.334359 6.64 -6.747459
v 4.334359 7.192 -6.747459
v 2.517359 7.192 -3.929459
v 4.334359 -7.146726 -6.747459
v 4.425359 -7.146726 -6.888459
v 4.425359 7.192 -6.888459
v 4.334359 6.64 -6.747459
v 4.334359 7.192 -6.747459
v 4.334359 6.64 -6.747459
v 4.425359 7.192 -6.888459
v 2.995359 -7.146726 -2.373459
v 5.422359 -7.146726 -6.045459
v 5.422359 5.785 -6.045459
v 2.995359 5.785 -2.373459
v 4.334359 6.64 -6.747459
v 5.422359 5.785 -6.045459
v 5.422359 -7.146726 -6.045459
v 4.334359 -7.146726 -6.747459
v -0.2116412 -7.146726 7.901541
v -6.587641 -7.146726 3.791541
v 1.519359 -7.146726 -8.761459
v 2.972359 -7.146726 -7.824959
v 4.425359 -7.146726 -6.888459
v 4.334359 -7.146726 -6.747459
v 5.422359 -7.146726 -6.045459
v 2.995359 -7.146726 -2.373459
v 3.002859 -7.146726 -2.349459
v 3.010359 -7.146726 -2.325459
v 5.391359 -7.146726 -0.7914591
vt 0.288852 0.174977
vt 0.288263 0.174327
vt 0.395261 0.062802
vt 0.288263 0.174327
vt 0.393418 0.062422
vt 0.395261 0.062802
vt 0.288852 0.174977
vt 0.395261 0.062802
vt 0.455005 0.074890
vt 0.161138 0.309611
vt 0.291051 0.177404
vt 0.455005 0.074890
vt 0.291051 0.177404
vt 0.288852 0.174977
vt 0.455005 0.074890
vt 0.161138 0.309611
vt 0.283753 0.180352
vt 0.291051 0.177404
vt 0.640424 0.099941
vt 0.455005 0.074890
vt 0.562604 0.027894
vt 0.640424 0.099941
vt 0.562604 0.027894
vt 0.567988 0.025540
vt 0.002179 0.146382
vt 0.334089 0.001462
vt 0.393418 0.062422
vt 0.161138 0.309611
vt 0.455005 0.074890
vt 0.640424 0.099941
vt 0.256142 0.169320
vt 0.002179 0.146382
vt 0.276315 0.161141
vt 0.276315 0.161141
vt 0.002179 0.146382
vt 0.393418 0.062422
vt 0.161138 0.309611
vt 0.002179 0.146382
vt 0.256142 0.169320
vt 0.161138 0.309611
vt 0.256142 0.169320
vt 0.270827 0.185573
vt 0.288263 0.174327
vt 0.276315 0.161141
vt 0.393418 0.062422
vt 0.161138 0.309611
vt 0.270827 0.185573
vt 0.281896 0.181102
vt 0.161138 0.309611
vt 0.281896 0.181102
vt 0.283753 0.180352
vt 0.107175 0.925439
vt 0.042302 0.999814
vt 0.002179 0.970889
vt 0.107175 0.925439
vt 0.178963 0.939176
vt 0.042302 0.999814
vt 0.533769 0.925439
vt 0.553259 0.930483
vt 0.535314 0.937745
vt 0.528839 0.940417
vt 0.509804 0.938194
vt 0.526853 0.938181
vt 0.526321 0.937582
vt 0.509804 0.938194
vt 0.515532 0.925439
vt 0.526853 0.938181
vt 0.509804 0.938194
vt 0.526321 0.937582
vt 0.492372 0.925439
vt 0.505341 0.940237
vt 0.485839 0.937045
vt 0.558454 0.936910
vt 0.557734 0.925439
vt 0.568500 0.932948
vt 0.570185 0.932284
vt 0.557734 0.925439
vt 0.576809 0.929671
vt 0.568500 0.932948
vt 0.557734 0.925439
vt 0.570185 0.932284
vt 0.074104 0.921382
vt 0.173288 0.850549
vt 0.208609 0.886771
vt 0.173288 0.850549
vt 0.002179 0.847625
vt 0.137967 0.814327
vt 0.074104 0.921382
vt 0.002179 0.847625
vt 0.173288 0.850549
vt 0.002179 0.520924
vt 0.483969 0.312865
vt 0.621787 0.380083
vt 0.148581 0.584428
vt 0.224262 0.587719
vt 0.376692 0.746010
vt 0.157339 0.810062
vt 0.002179 0.648944
vt 0.927184 0.621508
vt 0.606126 0.760831
vt 0.381264 0.729530
vt 0.708045 0.587719
vt 0.272392 0.907438
vt 0.213508 0.847132
vt 0.353369 0.814327
vt 0.411203 0.873560
vt 0.341691 0.959173
vt 0.478974 0.925620
vt 0.355471 0.955845
vt 0.355471 0.955845
vt 0.478974 0.925620
vt 0.479868 0.925802
vt 0.478974 0.925620
vt 0.339869 0.958803
vt 0.478079 0.925439
vt 0.341691 0.959173
vt 0.339869 0.958803
vt 0.478974 0.925620
vt 0.400730 0.970951
vt 0.341691 0.959173
vt 0.406101 0.969635
vt 0.406101 0.969635
vt 0.341691 0.959173
vt 0.355471 0.955845
vt 0.882004 0.815591
vt 0.776711 0.861105
vt 0.767799 0.859873
vt 0.873164 0.814327
vt 0.995387 0.891329
vt 0.990207 0.893570
vt 0.762527 0.862154
vt 0.776711 0.861105
vt 0.767799 0.859873
vt 0.776711 0.861105
vt 0.762527 0.862154
vt 0.756485 0.843230
vt 0.621204 0.903098
vt 0.416122 0.875157
vt 0.553574 0.814327
vt 0.203793 0.983967
vt 0.185185 0.954696
vt 0.307470 0.925439
vt 0.333844 0.952274
vt 0.581699 0.925439
vt 0.581699 0.925439
vt 0.581699 0.925439
vt 0.581699 0.925439
vt 0.581699 0.925439
vt 0.581699 0.925439
vt 0.581699 0.925439
vt 0.581699 0.925439
vt 0.581699 0.925439
vt 0.581699 0.925439
vt 0.581699 0.925439
vn 0 1 0
vn 0 1 0
vn 0 1 0
vn 0 1 0
vn 0 1 0
vn 0 1 0
vn 0 1 0
vn 0 1 0
vn 0 1 0
vn 0 1 0
vn 0 1 0
vn 0 1 0
vn 0 1 0
vn 0 1 0
vn 0 1 0
vn 0 1 0
vn 0 1 0
vn 0 1 0
vn 0 1 0
vn 0 1 0
vn 0 1 0
vn 0 1 0
vn 0 1 0
vn 0 1 0
vn 0 1 0
vn 0 1 0
vn 0 1 0
vn 0 1 0
vn 0 1 0
vn 0 1 0
vn 0 1 0
vn 0 1 0
vn 0 1 0
vn 0 1 0
vn 0 1 0
vn 0 1 0
vn 0 1 0
vn 0 1 0
vn 0 1 0
vn 0 1 0
vn 0 1 0
vn 0 1 0
vn 0 1 0
vn 0 1 0
vn 0 1 0
vn 0 1 0
vn 0 1 0
vn 0 1 0
vn 0 1 0
vn 0 1 0
vn 0 1 0
vn 0.4631096 0.8344845 0.2986054
vn 0.4631096 0.8344845 0.2986054
vn 0.4631096 0.8344845 0.2986054
vn 0.469262 0.8267983 0.3101577
vn 0.469262 0.8267983 0.3101577
vn 0.469262 0.8267983 0.3101577
vn 0.5319477 0.7846835 0.318282
vn 0.5319477 0.7846835 0.318282
vn 0.5319477 0.7846835 0.318282
vn 0.3481046 0.7360049 -0.5806203
vn 0.3481046 0.7360049 -0.5806203
vn 0.3481046 0.7360049 -0.5806203
vn 0.3481045 0.7360049 -0.5806203
vn 0.3481045 0.7360049 -0.5806203
vn 0.3481045 0.7360049 -0.5806203
vn 0.3481044 0.7360049 -0.5806203
vn 0.3481044 0.7360049 -0.5806203
vn 0.3481044 0.7360049 -0.5806203
vn -0.3801554 0.6716076 0.6359444
vn -0.3801554 0.6716076 0.6359444
vn -0.3801554 0.6716076 0.6359444
vn -0.5695809 0.7485201 -0.3395517
vn -0.5695809 0.7485201 -0.3395517
vn -0.5695809 0.7485201 -0.3395517
vn -0.5695809 0.7485201 -0.3395517
vn -0.5695809 0.7485201 -0.3395517
vn -0.5695809 0.7485201 -0.3395517
vn -0.5695808 0.7485201 -0.3395517
vn -0.5695808 0.7485201 -0.3395517
vn -0.5695808 0.7485201 -0.3395517
vn 0.5417513 0 -0.8405389
vn 0.5417513 0 -0.8405389
vn 0.5417513 0 -0.8405389
vn 0.5417513 0 -0.8405389
vn 0.5417513 0 -0.8405389
vn 0.5417513 0 -0.8405389
vn 0.5417513 0 -0.8405389
vn 0.5417513 0 -0.8405389
vn 0.5417513 0 -0.8405389
vn -0.8400438 0 -0.5425186
vn -0.8400438 0 -0.5425186
vn -0.8400438 0 -0.5425186
vn -0.8400438 0 -0.5425186
vn -0.5417966 0 0.8405097
vn -0.5417966 0 0.8405097
vn -0.5417966 0 0.8405097
vn -0.5417966 0 0.8405097
vn 0.8405339 0 0.541759
vn 0.8405339 0 0.541759
vn 0.8405339 0 0.541759
vn 0.8405339 0 0.541759
vn 0.541596 0 -0.8406389
vn 0.541596 0 -0.8406389
vn 0.541596 0 -0.8406389
vn 0.541596 0 -0.8406389
vn 0.95448 0 -0.298275
vn 0.95448 0 -0.298275
vn 0.95448 0 -0.298275
vn 0.95448 0 -0.298275
vn 0.95448 0 -0.298275
vn 0.95448 0 -0.298275
vn 0.95448 0 -0.298275
vn 0.95448 0 -0.298275
vn 0.95448 0 -0.298275
vn 0.95448 9.686712E-12 -0.298275
vn 0.95448 9.686712E-12 -0.298275
vn 0.95448 9.686712E-12 -0.298275
vn 0.9559118 0 -0.2936541
vn 0.9559118 0 -0.2936541
vn 0.9559118 0 -0.2936541
vn 0.9559118 0 -0.2936541
vn 0.9559118 0 -0.2936541
vn 0.9559118 0 -0.2936541
vn 0.8404412 0 0.5419027
vn 0.8404412 0 0.5419027
vn 0.8404412 0 0.5419027
vn 0.8404412 0 0.5419027
vn 0.8402091 0 0.5422626
vn 0.8402091 0 0.5422626
vn 0.8402091 0 0.5422626
vn 0.8402091 0 0.5422626
vn 0.8402091 0 0.5422626
vn 0.8402091 0 0.5422626
vn 0.8402091 0 0.5422626
vn 0.8342457 0 0.5513928
vn 0.8342457 0 0.5513928
vn 0.8342457 0 0.5513928
vn 0.8342457 0 0.5513928
vn 0.5421621 0 -0.840274
vn 0.5421621 0 -0.840274
vn 0.5421621 0 -0.840274
vn 0.5421621 0 -0.840274
vn 0 -1 0
vn 0 -1 0
vn 0 -1 0
vn 0 -1 0
vn 0 -1 0
vn 0 -1 0
vn 0 -1 0
vn 0 -1 0
vn 0 -1 0
vn 0 -1 0
vn 0 -1 0

g CDNNDG02_0010540
f 1/1/1 2/2/2 3/3/3
f 4/4/4 5/5/5 6/6/6
f 7/7/7 8/8/8 9/9/9
f 10/10/10 11/11/11 12/12/12
f 13/13/13 14/14/14 15/15/15
f 16/16/16 17/17/17 18/18/18
f 19/19/19 20/20/20 21/21/21
f 22/22/22 23/23/23 24/24/24
f 25/25/25 26/26/26 27/27/27
f 28/28/28 29/29/29 30/30/30
f 31/31/31 32/32/32 33/33/33
f 34/34/34 35/35/35 36/36/36
f 37/37/37 38/38/38 39/39/39
f 40/40/40 41/41/41 42/42/42
f 43/43/43 44/44/44 45/45/45
f 46/46/46 47/47/47 48/48/48
f 49/49/49 50/50/50 51/51/51
f 52/52/52 53/53/53 54/54/54
f 55/55/55 56/56/56 57/57/57
f 58/58/58 59/59/59 60/60/60
f 61/61/61 62/62/62 63/63/63
f 64/64/64 65/65/65 66/66/66
f 67/67/67 68/68/68 69/69/69
f 70/70/70 71/71/71 72/72/72
f 73/73/73 74/74/74 75/75/75
f 76/76/76 77/77/77 78/78/78
f 79/79/79 80/80/80 81/81/81
f 82/82/82 83/83/83 84/84/84
f 85/85/85 86/86/86 87/87/87
f 88/88/88 89/89/89 90/90/90
f 91/91/91 93/93/93 94/94/94
f 91/91/91 92/92/92 93/93/93
f 98/98/98 95/95/95 97/97/97
f 97/97/97 95/95/95 96/96/96
f 99/99/99 101/101/101 102/102/102
f 99/99/99 100/100/100 101/101/101
f 103/103/103 105/105/105 106/106/106
f 103/103/103 104/104/104 105/105/105
f 107/107/107 108/108/108 109/109/109
f 110/110/110 111/111/111 112/112/112
f 113/113/113 114/114/114 115/115/115
f 116/116/116 117/117/117 118/118/118
f 119/119/119 120/120/120 121/121/121
f 122/122/122 123/123/123 124/124/124
f 125/125/125 127/127/127 128/128/128
f 125/125/125 126/126/126 127/127/127
f 130/130/130 131/131/131 132/132/132
f 129/129/129 130/130/130 132/132/132
f 133/133/133 134/134/134 135/135/135
f 137/137/137 138/138/138 139/139/139
f 136/136/136 137/137/137 139/139/139
f 142/142/142 143/143/143 141/141/141
f 140/140/140 141/141/141 143/143/143
f 154/154/154 144/144/144 153/153/153
f 153/153/153 144/144/144 145/145/145
f 152/152/152 153/153/153 145/145/145
f 151/151/151 146/146/146 147/147/147
f 151/151/151 149/149/149 150/150/150
f 147/147/147 148/148/148 149/149/149
f 151/151/151 152/152/152 145/145/145
f 146/146/146 151/151/151 145/145/145
f 149/149/149 151/151/151 147/147/147
