v -1.677125 6.800261 9.31722
v -1.226125 6.800331 9.61022
v -1.044125 6.800348 9.32822
v -4.148125 6.799887 8.12622
v -1.866125 6.800243 9.60822
v -1.677125 6.800261 9.31722
v -3.948125 6.799905 7.81822
v -3.948125 6.799905 7.81822
v -1.044125 6.800348 9.32822
v 4.186874 6.80084 1.26922
v 2.746875 6.800555 -1.78478
v 4.186874 6.80084 1.26922
v 5.154874 6.800931 -0.2217801
v -3.948125 6.799905 7.81822
v 4.186874 6.80084 1.26922
v 2.746875 6.800555 -1.78478
v -7.627125 6.799422 5.43022
v 2.746875 6.800555 -1.78478
v 2.688874 6.800508 -3.17978
v 0.9668745 6.800228 -7.80978
v 2.688874 6.800508 -3.17978
v 3.605875 6.800594 -4.59178
v 1.516455 6.800291 -7.995952
v 3.605875 6.800594 -4.59178
v 5.782875 6.800799 -7.94578
v 1.307875 6.800261 -8.33578
v 1.609875 6.8003 -8.13978
v 5.782875 6.800799 -7.94578
v 1.516455 6.800291 -7.995952
v 5.782875 6.800799 -7.94578
v 1.609875 6.8003 -8.13978
v 3.000875 6.800419 -10.94478
v 5.782875 6.800799 -7.94578
v 6.327875 6.80085 -8.784781
v -3.948125 6.799905 7.81822
v -1.677125 6.800261 9.31722
v -1.044125 6.800348 9.32822
v 1.307875 6.800261 -8.33578
v 5.782875 6.800799 -7.94578
v 3.000875 6.800419 -10.94478
v 1.268875 6.800267 -7.61478
v 3.605875 6.800594 -4.59178
v 1.516455 6.800291 -7.995952
v 0.9668745 6.800228 -7.80978
v 3.605875 6.800594 -4.59178
v 1.268875 6.800267 -7.61478
v -7.627125 6.799422 5.43022
v 2.688874 6.800508 -3.17978
v 0.9668745 6.800228 -7.80978
v -7.627125 6.799422 5.43022
v -3.948125 6.799905 7.81822
v 2.746875 6.800555 -1.78478
v 0.9668745 7.713243 -7.80978
v 1.268875 7.711243 -7.61478
v 1.307875 7.711243 -8.33578
v 1.268875 7.711243 -7.61478
v 1.609875 7.713243 -8.13978
v 1.307875 7.711243 -8.33578
v 3.605875 6.087243 -4.59178
v 5.023875 5.421243 -3.67178
v 5.782875 6.088243 -7.94578
v 5.023875 5.421243 -3.67178
v 7.200874 5.421243 -7.02578
v 5.782875 6.088243 -7.94578
v -1.226125 -6.7512 9.61022
v -1.226125 6.800331 9.61022
v -1.677125 6.800261 9.31722
v -1.677125 -6.7512 9.31722
v -1.044125 -6.7512 9.32822
v -1.044125 6.800348 9.32822
v -1.226125 6.800331 9.61022
v -1.226125 -6.7512 9.61022
v 1.571375 -6.7512 5.29872
v 4.186874 -6.7512 1.26922
v 4.186874 6.80084 1.26922
v -1.044125 6.800348 9.32822
v -1.044125 -6.7512 9.32822
v 1.571375 -6.7512 5.29872
v -1.044125 6.800348 9.32822
v 1.571375 -6.7512 5.29872
v 4.186874 6.80084 1.26922
v 4.670875 -6.7512 0.5237199
v 5.154874 -6.7512 -0.2217801
v 5.154874 6.800931 -0.2217801
v 4.186874 6.80084 1.26922
v 4.186874 -6.7512 1.26922
v 4.670875 -6.7512 0.5237199
v 4.186874 6.80084 1.26922
v 4.670875 -6.7512 0.5237199
v 5.154874 6.800931 -0.2217801
v 2.746875 6.800555 -1.78478
v 3.950875 -6.7512 -1.00328
v 2.746875 -6.7512 -1.78478
v 3.950875 -6.7512 -1.00328
v 5.154874 6.800931 -0.2217801
v 5.154874 -6.7512 -0.2217801
v 2.746875 6.800555 -1.78478
v 5.154874 6.800931 -0.2217801
v 3.950875 -6.7512 -1.00328
v 2.688874 6.800508 -3.17978
v 2.717875 -6.7512 -2.48228
v 2.688874 -6.7512 -3.17978
v 2.717875 -6.7512 -2.48228
v 2.746875 6.800555 -1.78478
v 2.746875 -6.7512 -1.78478
v 2.688874 6.800508 -3.17978
v 2.746875 6.800555 -1.78478
v 2.717875 -6.7512 -2.48228
v 3.147375 -6.7512 -3.88578
v 3.605875 6.087243 -4.59178
v 3.605875 6.800594 -4.59178
v 3.147375 -6.7512 -3.88578
v 3.605875 -6.7512 -4.59178
v 3.605875 6.087243 -4.59178
v 2.688874 6.800508 -3.17978
v 2.688874 -6.7512 -3.17978
v 3.147375 -6.7512 -3.88578
v 2.688874 6.800508 -3.17978
v 3.147375 -6.7512 -3.88578
v 3.605875 6.800594 -4.59178
v 3.605875 6.800594 -4.59178
v 3.605875 6.087243 -4.59178
v 5.782875 6.088243 -7.94578
v 5.782875 6.800799 -7.94578
v 5.782875 6.088243 -7.94578
v 5.782875 -6.7512 -7.94578
v 6.327875 -6.7512 -8.784781
v 6.327875 6.80085 -8.784781
v 5.782875 6.800799 -7.94578
v 5.782875 6.088243 -7.94578
v 6.327875 6.80085 -8.784781
v 6.327875 -6.7512 -8.784781
v 3.000875 6.800419 -10.94478
v 6.327875 6.80085 -8.784781
v 3.000875 -6.7512 -10.94478
v 1.307875 6.800261 -8.33578
v 2.154375 -6.7512 -9.64028
v 1.307875 -6.7512 -8.33578
v 2.154375 -6.7512 -9.64028
v 3.000875 6.800419 -10.94478
v 3.000875 -6.7512 -10.94478
v 1.307875 6.800261 -8.33578
v 3.000875 6.800419 -10.94478
v 2.154375 -6.7512 -9.64028
v 0.9668745 6.800228 -7.80978
v 1.307875 -6.7512 -8.33578
v 0.9668745 -6.7512 -7.80978
v 1.307875 6.800261 -8.33578
v -7.627125 6.799422 5.43022
v -3.330125 -6.7512 -1.18978
v -7.627125 -6.7512 5.43022
v -3.330125 -6.7512 -1.18978
v 0.9668745 6.800228 -7.80978
v 0.9668745 -6.7512 -7.80978
v -7.627125 6.799422 5.43022
v 0.9668745 6.800228 -7.80978
v -3.330125 -6.7512 -1.18978
v 0.9668745 6.800228 -7.80978
v 1.307875 7.711243 -8.33578
v 1.307875 6.800261 -8.33578
v 0.9668745 7.713243 -7.80978
v -5.787625 -6.7512 6.62422
v -3.948125 -6.7512 7.81822
v -3.948125 6.799905 7.81822
v -7.627125 6.799422 5.43022
v -7.627125 -6.7512 5.43022
v -5.787625 -6.7512 6.62422
v -7.627125 6.799422 5.43022
v -5.787625 -6.7512 6.62422
v -3.948125 6.799905 7.81822
v -4.148125 6.799887 8.12622
v -3.948125 -6.7512 7.81822
v -4.148125 -6.7512 8.12622
v -3.948125 6.799905 7.81822
v -4.148125 6.799887 8.12622
v -4.148125 -6.7512 8.12622
v -1.866125 -6.7512 9.60822
v -1.866125 6.800243 9.60822
v -1.677125 -6.7512 9.31722
v -1.677125 6.800261 9.31722
v -1.866125 6.800243 9.60822
v -1.866125 -6.7512 9.60822
v 1.516455 6.800291 -7.995952
v 1.609875 6.8003 -8.13978
v 1.609875 7.713243 -8.13978
v 1.268875 7.711243 -7.61478
v 1.268875 6.800267 -7.61478
v 1.516455 6.800291 -7.995952
v 1.268875 7.711243 -7.61478
v 1.516455 6.800291 -7.995952
v 1.609875 7.713243 -8.13978
v 1.609875 6.8003 -8.13978
v 1.307875 7.711243 -8.33578
v 1.609875 7.713243 -8.13978
v 1.307875 6.800261 -8.33578
v 0.9668745 6.800228 -7.80978
v 1.268875 7.711243 -7.61478
v 0.9668745 7.713243 -7.80978
v 1.268875 6.800267 -7.61478
v 7.200874 -6.7512 -7.02578
v 7.200874 5.421243 -7.02578
v 5.023875 -6.7512 -3.67178
v 5.023875 5.421243 -3.67178
v 5.782875 6.088243 -7.94578
v 6.491875 -6.7512 -7.48578
v 5.782875 -6.7512 -7.94578
v 6.491875 -6.7512 -7.48578
v 7.200874 5.421243 -7.02578
v 7.200874 -6.7512 -7.02578
v 5.782875 6.088243 -7.94578
v 7.200874 5.421243 -7.02578
v 6.491875 -6.7512 -7.48578
v 4.314875 -6.7512 -4.13178
v 5.023875 -6.7512 -3.67178
v 5.023875 5.421243 -3.67178
v 3.605875 6.087243 -4.59178
v 3.605875 -6.7512 -4.59178
v 4.314875 -6.7512 -4.13178
v 3.605875 6.087243 -4.59178
v 4.314875 -6.7512 -4.13178
v 5.023875 5.421243 -3.67178
v -1.677125 -6.7512 9.31722
v 1.571375 -6.7512 5.29872
v -1.044125 -6.7512 9.32822
v -4.148125 -6.7512 8.12622
v -3.948125 -6.7512 7.81822
v -1.226125 -6.7512 9.61022
v -1.866125 -6.7512 9.60822
v -3.330125 -6.7512 -1.18978
v 4.186874 -6.7512 1.26922
v 2.746875 -6.7512 -1.78478
v 3.950875 -6.7512 -1.00328
v 4.670875 -6.7512 0.5237199
v 5.154874 -6.7512 -0.2217801
v 2.688874 -6.7512 -3.17978
v 2.717875 -6.7512 -2.48228
v 0.9668745 -6.7512 -7.80978
v 3.147375 -6.7512 -3.88578
v 1.307875 -6.7512 -8.33578
v 3.605875 -6.7512 -4.59178
v 2.154375 -6.7512 -9.64028
v 5.782875 -6.7512 -7.94578
v 3.000875 -6.7512 -10.94478
v 5.023875 -6.7512 -3.67178
v 6.491875 -6.7512 -7.48578
v 7.200874 -6.7512 -7.02578
v 4.314875 -6.7512 -4.13178
v 6.327875 -6.7512 -8.784781
v -5.787625 -6.7512 6.62422
v -7.627125 -6.7512 5.43022
vt 0.732768 0.150837
vt 0.743280 0.162160
vt 0.733098 0.166696
vt 0.690105 0.088834
vt 0.743276 0.146127
vt 0.732768 0.150837
vt 0.678984 0.093819
vt 0.678984 0.093819
vt 0.733098 0.166696
vt 0.442121 0.297061
vt 0.332211 0.260733
vt 0.442121 0.297061
vt 0.388289 0.321185
vt 0.678984 0.093819
vt 0.442121 0.297061
vt 0.332211 0.260733
vt 0.593306 0.001449
vt 0.332211 0.260733
vt 0.281945 0.259163
vt 0.115267 0.215637
vt 0.281945 0.259163
vt 0.230966 0.282015
vt 0.108502 0.229389
vt 0.230966 0.282015
vt 0.109875 0.336267
vt 0.096277 0.224135
vt 0.103309 0.231717
vt 0.109875 0.336267
vt 0.108502 0.229389
vt 0.109875 0.336267
vt 0.103309 0.231717
vt 0.002083 0.266327
vt 0.109875 0.336267
vt 0.079585 0.349849
vt 0.678984 0.093819
vt 0.732768 0.150837
vt 0.733098 0.166696
vt 0.096277 0.224135
vt 0.109875 0.336267
vt 0.002083 0.266327
vt 0.122264 0.223219
vt 0.230966 0.282015
vt 0.108502 0.229389
vt 0.115267 0.215637
vt 0.230966 0.282015
vt 0.122264 0.223219
vt 0.593306 0.001449
vt 0.281945 0.259163
vt 0.115267 0.215637
vt 0.593306 0.001449
vt 0.678984 0.093819
vt 0.332211 0.260733
vt 0.286339 0.968116
vt 0.292833 0.975107
vt 0.268750 0.975952
vt 0.292833 0.975107
vt 0.275258 0.982934
vt 0.268750 0.975952
vt 0.121814 0.873913
vt 0.157682 0.910562
vt 0.002083 0.927490
vt 0.157682 0.910562
vt 0.038055 0.964096
vt 0.002083 0.927490
vt 0.693224 0.884823
vt 0.637412 0.943216
vt 0.627083 0.932122
vt 0.683066 0.873913
vt 0.403704 0.718354
vt 0.346124 0.685679
vt 0.356283 0.681159
vt 0.413695 0.713909
vt 0.260942 0.782236
vt 0.118184 0.846116
vt 0.055795 0.815594
vt 0.346124 0.685679
vt 0.403704 0.718354
vt 0.260942 0.782236
vt 0.346124 0.685679
vt 0.260942 0.782236
vt 0.055795 0.815594
vt 0.091773 0.857937
vt 0.065362 0.869758
vt 0.002083 0.839634
vt 0.055795 0.815594
vt 0.118184 0.846116
vt 0.091773 0.857937
vt 0.055795 0.815594
vt 0.091773 0.857937
vt 0.002083 0.839634
vt 0.350000 0.968116
vt 0.350000 0.968116
vt 0.350000 0.968116
vt 0.350000 0.968116
vt 0.350000 0.968116
vt 0.350000 0.968116
vt 0.350000 0.968116
vt 0.350000 0.968116
vt 0.350000 0.968116
vt 0.002083 0.968116
vt 0.090624 0.998878
vt 0.066280 0.998137
vt 0.090624 0.998878
vt 0.051591 0.969624
vt 0.114967 0.999620
vt 0.002083 0.968116
vt 0.051591 0.969624
vt 0.090624 0.998878
vt 0.807936 0.723320
vt 0.720809 0.705472
vt 0.717296 0.703834
vt 0.807936 0.723320
vt 0.782993 0.734470
vt 0.720809 0.705472
vt 0.768022 0.681159
vt 0.832879 0.712171
vt 0.807936 0.723320
vt 0.768022 0.681159
vt 0.807936 0.723320
vt 0.717296 0.703834
vt 0.717296 0.703834
vt 0.720809 0.705472
vt 0.600423 0.759251
vt 0.596807 0.757662
vt 0.600423 0.759251
vt 0.664500 0.787407
vt 0.634859 0.800659
vt 0.566667 0.771138
vt 0.596807 0.757662
vt 0.600423 0.759251
vt 0.566667 0.771138
vt 0.339583 0.968116
vt 0.339583 0.968116
vt 0.339583 0.968116
vt 0.339583 0.968116
vt 0.095967 0.634974
vt 0.117899 0.595490
vt 0.164063 0.574560
vt 0.117899 0.595490
vt 0.002083 0.677541
vt 0.071736 0.616420
vt 0.095967 0.634974
vt 0.002083 0.677541
vt 0.117899 0.595490
vt 0.114895 0.626401
vt 0.164063 0.574560
vt 0.182677 0.566128
vt 0.095967 0.634974
vt 0.591361 0.410312
vt 0.416954 0.459878
vt 0.651242 0.353623
vt 0.416954 0.459878
vt 0.114895 0.626401
vt 0.182677 0.566128
vt 0.591361 0.410312
vt 0.114895 0.626401
vt 0.416954 0.459878
vt 0.114895 0.626401
vt 0.091307 0.639109
vt 0.095967 0.634974
vt 0.110246 0.630534
vt 0.520045 0.726150
vt 0.562125 0.771139
vt 0.504328 0.829052
vt 0.418750 0.737554
vt 0.477965 0.681159
vt 0.520045 0.726150
vt 0.418750 0.737554
vt 0.520045 0.726150
vt 0.504328 0.829052
vt 0.708710 0.930977
vt 0.754827 0.878768
vt 0.765441 0.873913
vt 0.697917 0.935914
vt 0.837500 0.738821
vt 0.894868 0.681159
vt 0.946872 0.736808
vt 0.890380 0.795408
vt 0.931122 0.910426
vt 0.875000 0.878468
vt 0.885217 0.873913
vt 0.941170 0.905947
vt 0.321569 0.975452
vt 0.316796 0.977498
vt 0.312500 0.975587
vt 0.329953 0.968116
vt 0.334219 0.970031
vt 0.321569 0.975452
vt 0.329953 0.968116
vt 0.321569 0.975452
vt 0.312500 0.975587
vt 0.370833 0.968116
vt 0.370833 0.968116
vt 0.370833 0.968116
vt 0.370833 0.968116
vt 0.301803 0.968116
vt 0.303840 0.978547
vt 0.297917 0.971807
vt 0.307712 0.974857
vt 0.320399 0.953314
vt 0.260417 0.927325
vt 0.438446 0.900697
vt 0.380245 0.873913
vt 0.360417 0.968116
vt 0.360417 0.968116
vt 0.360417 0.968116
vt 0.360417 0.968116
vt 0.360417 0.968116
vt 0.360417 0.968116
vt 0.360417 0.968116
vt 0.360417 0.968116
vt 0.360417 0.968116
vt 0.239762 0.891142
vt 0.255852 0.908371
vt 0.198387 0.963286
vt 0.162500 0.931330
vt 0.223672 0.873913
vt 0.239762 0.891142
vt 0.162500 0.931330
vt 0.239762 0.891142
vt 0.198387 0.963286
vt 0.402083 0.968116
vt 0.402083 0.968116
vt 0.402083 0.968116
vt 0.402083 0.968116
vt 0.402083 0.968116
vt 0.402083 0.968116
vt 0.402083 0.968116
vt 0.402083 0.968116
vt 0.402083 0.968116
vt 0.402083 0.968116
vt 0.402083 0.968116
vt 0.402083 0.968116
vt 0.402083 0.968116
vt 0.402083 0.968116
vt 0.402083 0.968116
vt 0.402083 0.968116
vt 0.402083 0.968116
vt 0.402083 0.968116
vt 0.402083 0.968116
vt 0.402083 0.968116
vt 0.402083 0.968116
vt 0.402083 0.968116
vt 0.402083 0.968116
vt 0.402083 0.968116
vt 0.402083 0.968116
vt 0.402083 0.968116
vt 0.402083 0.968116
vt 0.402083 0.968116
vt 0.402083 0.968116
vn -0.0001377228 1 -2.831753E-05
vn -0.0001377228 1 -2.831753E-05
vn -0.0001377228 1 -2.831753E-05
vn -0.0001377281 1 -2.832407E-05
vn -0.0001377302 1 -2.831962E-05
vn -0.0001377281 1 -2.832407E-05
vn -0.0001377259 1 -2.832852E-05
vn -0.0001377285 1 -2.832211E-05
vn -0.0001377285 1 -2.832211E-05
vn -0.0001377285 1 -2.832211E-05
vn -0.0001377283 1 -2.832392E-05
vn -0.0001377283 1 -2.832392E-05
vn -0.0001377283 1 -2.832392E-05
vn -0.0001377295 1 -2.832335E-05
vn -0.0001377295 1 -2.832335E-05
vn -0.0001377295 1 -2.832335E-05
vn -0.0001292229 1 -2.867747E-05
vn -0.0001292229 1 -2.867747E-05
vn -0.0001292229 1 -2.867747E-05
vn -0.0001189762 1 -1.614104E-05
vn -0.0001189762 1 -1.614104E-05
vn -0.0001189762 1 -1.614104E-05
vn -0.0001189779 1 -1.615232E-05
vn -0.0001189779 1 -1.615232E-05
vn -0.0001189779 1 -1.615232E-05
vn -0.0001189776 1 -1.616715E-05
vn -0.0001189776 1 -1.616715E-05
vn -0.0001189776 1 -1.616715E-05
vn -0.0001189777 1 -1.61642E-05
vn -0.0001189777 1 -1.61642E-05
vn -0.0001189777 1 -1.61642E-05
vn -0.0001190634 1 -1.61973E-05
vn -0.0001190634 1 -1.61973E-05
vn -0.0001190634 1 -1.61973E-05
vn -0.0001377225 1 -2.833373E-05
vn -0.0001377225 1 -2.833373E-05
vn -0.0001377225 1 -2.833373E-05
vn -0.0001189672 1 -1.62865E-05
vn -0.0001189672 1 -1.62865E-05
vn -0.0001189672 1 -1.62865E-05
vn -0.0001189161 1 -1.619026E-05
vn -0.0001189161 1 -1.619026E-05
vn -0.0001189161 1 -1.619026E-05
vn -0.0001189177 1 -1.6189E-05
vn -0.0001189177 1 -1.6189E-05
vn -0.0001189177 1 -1.6189E-05
vn -0.0001188109 1 -1.62025E-05
vn -0.0001188109 1 -1.62025E-05
vn -0.0001188109 1 -1.62025E-05
vn -0.0001207375 1 -1.647688E-05
vn -0.0001207375 1 -1.647688E-05
vn -0.0001207375 1 -1.647688E-05
vn 0.006398889 0.9999795 0.0003461257
vn 0.006398889 0.9999795 0.0003461257
vn 0.006398889 0.9999795 0.0003461257
vn -0.006397781 0.9999795 -0.0003460658
vn -0.006397781 0.9999795 -0.0003460658
vn -0.006397781 0.9999795 -0.0003460658
vn 0.3073624 0.9303852 0.1997789
vn 0.3073624 0.9303852 0.1997789
vn 0.3073624 0.9303852 0.1997789
vn 0.3078887 0.9301975 0.199843
vn 0.3078887 0.9301975 0.199843
vn 0.3078887 0.9301975 0.199843
vn -0.5447923 0 0.838571
vn -0.5447923 0 0.838571
vn -0.5447923 0 0.838571
vn -0.5447923 0 0.838571
vn 0.840209 0 0.5422627
vn 0.840209 0 0.5422627
vn 0.840209 0 0.5422627
vn 0.840209 0 0.5422627
vn 0.838793 0 0.5444505
vn 0.838793 0 0.5444505
vn 0.838793 0 0.5444505
vn 0.838793 0 0.5444505
vn 0.838793 0 0.5444505
vn 0.838793 0 0.5444505
vn 0.838793 -1.870819E-10 0.5444505
vn 0.838793 -1.870819E-10 0.5444505
vn 0.838793 -1.870819E-10 0.5444505
vn 0.8387391 0 0.5445335
vn 0.8387391 0 0.5445335
vn 0.8387391 0 0.5445335
vn 0.8387391 0 0.5445335
vn 0.8387391 0 0.5445335
vn 0.8387391 0 0.5445335
vn 0.8387391 -1.69094E-11 0.5445335
vn 0.8387391 -1.69094E-11 0.5445335
vn 0.8387391 -1.69094E-11 0.5445335
vn 0.5444495 0 -0.8387936
vn 0.5444495 0 -0.8387936
vn 0.5444495 0 -0.8387936
vn 0.5444495 0 -0.8387936
vn 0.5444495 0 -0.8387936
vn 0.5444495 0 -0.8387936
vn 0.5444495 1.159312E-10 -0.8387936
vn 0.5444495 1.159312E-10 -0.8387936
vn 0.5444495 1.159312E-10 -0.8387936
vn 0.9991368 0 -0.04154117
vn 0.9991368 0 -0.04154117
vn 0.9991368 0 -0.04154117
vn 0.9991368 0 -0.04154117
vn 0.9991368 0 -0.04154117
vn 0.9991368 0 -0.04154117
vn 0.9991368 0 -0.04154117
vn 0.9991368 0 -0.04154117
vn 0.9991368 0 -0.04154117
vn 0.8386607 0 0.5446543
vn 0.8386607 0 0.5446543
vn 0.8386607 0 0.5446543
vn 0.8386607 0 0.5446543
vn 0.8386607 0 0.5446543
vn 0.8386607 0 0.5446543
vn 0.8386607 0 0.5446543
vn 0.8386607 0 0.5446543
vn 0.8386607 0 0.5446543
vn 0.8386607 3.061892E-10 0.5446543
vn 0.8386607 3.061892E-10 0.5446543
vn 0.8386607 3.061892E-10 0.5446543
vn 0.8387977 0 0.5444432
vn 0.8387977 0 0.5444432
vn 0.8387977 0 0.5444432
vn 0.8387977 0 0.5444432
vn 0.8386034 0 0.5447424
vn 0.8386034 0 0.5447424
vn 0.8386034 0 0.5447424
vn 0.8386034 0 0.5447424
vn 0.8386034 0 0.5447424
vn 0.8386034 0 0.5447424
vn 0.8386034 0 0.5447424
vn 0.5445364 0 -0.8387372
vn 0.5445364 0 -0.8387372
vn 0.5445364 0 -0.8387372
vn 0.5445364 0 -0.8387372
vn -0.8388621 0 -0.544344
vn -0.8388621 0 -0.544344
vn -0.8388621 0 -0.544344
vn -0.8388621 0 -0.544344
vn -0.8388621 0 -0.544344
vn -0.8388621 0 -0.544344
vn -0.8388621 1.870488E-10 -0.544344
vn -0.8388621 1.870488E-10 -0.544344
vn -0.8388621 1.870488E-10 -0.544344
vn -0.839099 0 -0.5439787
vn -0.839099 0 -0.5439787
vn -0.839099 0 -0.5439787
vn -0.839099 0 -0.5439787
vn -0.8387908 0 -0.5444538
vn -0.8387908 0 -0.5444538
vn -0.8387908 0 -0.5444538
vn -0.8387908 0 -0.5444538
vn -0.8387908 0 -0.5444538
vn -0.8387908 0 -0.5444538
vn -0.8387908 2.076045E-10 -0.5444538
vn -0.8387908 2.076045E-10 -0.5444538
vn -0.8387908 2.076045E-10 -0.5444538
vn -0.839099 0 -0.5439787
vn -0.839099 0 -0.5439787
vn -0.839099 0 -0.5439787
vn -0.839099 0 -0.5439787
vn -0.5444513 0 0.8387924
vn -0.5444513 0 0.8387924
vn -0.5444513 0 0.8387924
vn -0.5444513 0 0.8387924
vn -0.5444513 0 0.8387924
vn -0.5444513 0 0.8387924
vn -0.5444513 2.022965E-10 0.8387924
vn -0.5444513 2.022965E-10 0.8387924
vn -0.5444513 2.022965E-10 0.8387924
vn -0.8386924 0 -0.5446054
vn -0.8386924 0 -0.5446054
vn -0.8386924 0 -0.5446054
vn -0.8386924 0 -0.5446054
vn -0.5446525 0 0.8386618
vn -0.5446525 0 0.8386618
vn -0.5446525 0 0.8386618
vn -0.5446525 0 0.8386618
vn 0.8386411 0 0.5446844
vn 0.8386411 0 0.5446844
vn 0.8386411 0 0.5446844
vn 0.8386411 0 0.5446844
vn 0.838626 0 0.5447076
vn 0.838626 0 0.5447076
vn 0.838626 0 0.5447076
vn 0.838626 0 0.5447076
vn 0.838626 0 0.5447076
vn 0.838626 0 0.5447076
vn 0.838626 5.54845E-10 0.5447076
vn 0.838626 5.54845E-10 0.5447076
vn 0.838626 5.54845E-10 0.5447076
vn 0.5444024 0 -0.8388242
vn 0.5444024 0 -0.8388242
vn 0.5444024 0 -0.8388242
vn 0.5444024 0 -0.8388242
vn -0.5424436 0 0.8400922
vn -0.5424436 0 0.8400922
vn -0.5424436 0 0.8400922
vn -0.5424436 0 0.8400922
vn 0.8387977 0 0.5444432
vn 0.8387977 0 0.5444432
vn 0.8387977 0 0.5444432
vn 0.8387977 0 0.5444432
vn 0.5442811 0 -0.8389029
vn 0.5442811 0 -0.8389029
vn 0.5442811 0 -0.8389029
vn 0.5442811 0 -0.8389029
vn 0.5442811 0 -0.8389029
vn 0.5442811 0 -0.8389029
vn 0.5442811 -3.123672E-10 -0.8389029
vn 0.5442811 -3.123672E-10 -0.8389029
vn 0.5442811 -3.123672E-10 -0.8389029
vn -0.5442811 0 0.8389029
vn -0.5442811 0 0.8389029
vn -0.5442811 0 0.8389029
vn -0.5442811 0 0.8389029
vn -0.5442811 0 0.8389029
vn -0.5442811 0 0.8389029
vn -0.5442811 -5.602236E-10 0.8389029
vn -0.5442811 -5.602236E-10 0.8389029
vn -0.5442811 -5.602236E-10 0.8389029
vn 0 -1 0
vn 0 -1 0
vn 0 -1 0
vn 0 -1 0
vn 0 -1 0
vn 0 -1 0
vn 0 -1 0
vn 0 -1 0
vn 0 -1 0
vn 0 -1 0
vn 0 -1 0
vn 0 -1 0
vn 0 -1 0
vn 0 -1 0
vn 0 -1 0
vn 0 -1 0
vn 0 -1 0
vn 0 -1 0
vn 0 -1 0
vn 0 -1 0
vn 0 -1 0
vn 0 -1 0
vn 0 -1 0
vn 0 -1 0
vn 0 -1 0
vn 0 -1 0
vn 0 -1 0
vn 0 -1 0
vn 0 -1 0

g CDNNDG02_0016050
f 1/1/1 2/2/2 3/3/3
f 4/4/4 5/5/5 6/6/6
f 7/7/7 4/4/4 6/6/6
f 8/8/8 9/9/9 10/10/10
f 11/11/11 12/12/12 13/13/13
f 14/14/14 15/15/15 16/16/16
f 17/17/17 18/18/18 19/19/19
f 20/20/20 21/21/21 22/22/22
f 23/23/23 24/24/24 25/25/25
f 26/26/26 27/27/27 28/28/28
f 29/29/29 30/30/30 31/31/31
f 32/32/32 33/33/33 34/34/34
f 35/35/35 36/36/36 37/37/37
f 38/38/38 39/39/39 40/40/40
f 41/41/41 42/42/42 43/43/43
f 44/44/44 45/45/45 46/46/46
f 47/47/47 48/48/48 49/49/49
f 50/50/50 51/51/51 52/52/52
f 53/53/53 54/54/54 55/55/55
f 56/56/56 57/57/57 58/58/58
f 59/59/59 60/60/60 61/61/61
f 62/62/62 63/63/63 64/64/64
f 65/65/65 66/66/66 67/67/67
f 67/67/67 68/68/68 65/65/65
f 69/69/69 70/70/70 71/71/71
f 72/72/72 69/69/69 71/71/71
f 73/73/73 74/74/74 75/75/75
f 76/76/76 77/77/77 78/78/78
f 79/79/79 80/80/80 81/81/81
f 82/82/82 83/83/83 84/84/84
f 85/85/85 86/86/86 87/87/87
f 88/88/88 89/89/89 90/90/90
f 91/91/91 92/92/92 93/93/93
f 94/94/94 95/95/95 96/96/96
f 97/97/97 98/98/98 99/99/99
f 100/100/100 101/101/101 102/102/102
f 103/103/103 104/104/104 105/105/105
f 106/106/106 107/107/107 108/108/108
f 109/109/109 110/110/110 111/111/111
f 112/112/112 113/113/113 114/114/114
f 115/115/115 116/116/116 117/117/117
f 118/118/118 119/119/119 120/120/120
f 121/121/121 122/122/122 123/123/123
f 123/123/123 124/124/124 121/121/121
f 125/125/125 126/126/126 127/127/127
f 127/127/127 128/128/128 125/125/125
f 129/129/129 130/130/130 131/131/131
f 132/132/132 133/133/133 134/134/134
f 133/133/133 132/132/132 135/135/135
f 136/136/136 137/137/137 138/138/138
f 139/139/139 140/140/140 141/141/141
f 142/142/142 143/143/143 144/144/144
f 145/145/145 146/146/146 147/147/147
f 146/146/146 145/145/145 148/148/148
f 149/149/149 150/150/150 151/151/151
f 152/152/152 153/153/153 154/154/154
f 155/155/155 156/156/156 157/157/157
f 158/158/158 159/159/159 160/160/160
f 158/158/158 161/161/161 159/159/159
f 162/162/162 163/163/163 164/164/164
f 165/165/165 166/166/166 167/167/167
f 168/168/168 169/169/169 170/170/170
f 171/171/171 172/172/172 173/173/173
f 172/172/172 171/171/171 174/174/174
f 175/175/175 176/176/176 177/177/177
f 178/178/178 175/175/175 177/177/177
f 179/179/179 180/180/180 181/181/181
f 182/182/182 179/179/179 181/181/181
f 183/183/183 184/184/184 185/185/185
f 186/186/186 187/187/187 188/188/188
f 189/189/189 190/190/190 191/191/191
f 192/192/192 193/193/193 194/194/194
f 193/193/193 192/192/192 195/195/195
f 196/196/196 197/197/197 198/198/198
f 196/196/196 199/199/199 197/197/197
f 200/200/200 201/201/201 202/202/202
f 202/202/202 201/201/201 203/203/203
f 204/204/204 205/205/205 206/206/206
f 207/207/207 208/208/208 209/209/209
f 210/210/210 211/211/211 212/212/212
f 213/213/213 214/214/214 215/215/215
f 216/216/216 217/217/217 218/218/218
f 219/219/219 220/220/220 221/221/221
f 222/222/222 223/223/223 224/224/224
f 225/225/225 226/226/226 222/222/222
f 222/222/222 224/224/224 227/227/227
f 225/225/225 222/222/222 228/228/228
f 229/229/229 230/230/230 223/223/223
f 229/229/229 231/231/231 230/230/230
f 231/231/231 232/232/232 230/230/230
f 232/232/232 233/233/233 230/230/230
f 232/232/232 234/234/234 233/233/233
f 226/226/226 223/223/223 222/222/222
f 229/229/229 235/235/235 236/236/236
f 237/237/237 238/238/238 235/235/235
f 229/229/229 237/237/237 235/235/235
f 237/237/237 239/239/239 240/240/240
f 239/239/239 241/241/241 242/242/242
f 241/241/241 243/243/243 242/242/242
f 244/244/244 245/245/245 246/246/246
f 247/247/247 245/245/245 244/244/244
f 247/247/247 242/242/242 245/245/245
f 240/240/240 242/242/242 247/247/247
f 239/239/239 242/242/242 240/240/240
f 243/243/243 248/248/248 242/242/242
f 249/249/249 223/223/223 226/226/226
f 237/237/237 240/240/240 238/238/238
f 229/229/229 236/236/236 231/231/231
f 250/250/250 229/229/229 249/249/249
f 249/249/249 229/229/229 223/223/223
