v -7.418133 6.633941 -0.4417898
v -6.394133 6.633941 0.1282102
v -6.168133 6.633941 -0.2767898
v -7.418133 6.633941 -0.4417898
v -6.168133 6.633941 -0.2767898
v -2.235133 6.633941 -5.49879
v -6.168133 6.633941 -0.2767898
v 2.577867 6.633941 5.48221
v 3.346867 6.633941 4.31521
v -6.168133 6.633941 -0.2767898
v 0.9038671 6.633941 -1.87579
v 1.617867 6.633941 -2.96079
v -6.168133 6.633941 -0.2767898
v 3.346867 6.633941 4.31521
v 0.9038671 6.633941 -1.87579
v 0.9038671 6.633941 -1.87579
v 3.346867 6.633941 4.31521
v 2.056095 6.633941 -1.116634
v -6.168133 6.633941 -0.2767898
v 1.617867 6.633941 -2.96079
v -2.235133 6.633941 -5.49879
v 3.346867 6.633941 4.31521
v 4.341867 6.633941 4.97021
v 4.659867 6.633941 4.48721
v 3.346867 6.633941 4.31521
v 4.659867 6.633941 4.48721
v 4.009144 6.633941 4.05937
v 2.056095 6.633941 -1.116634
v 3.346867 6.633941 4.31521
v 2.568867 6.633941 -0.7787898
v 2.568867 6.633941 -0.7787898
v 3.346867 6.633941 4.31521
v 3.283867 6.633941 -1.86379
v 3.346867 6.633941 4.31521
v 4.009144 6.633941 4.05937
v 3.824867 6.633941 3.93821
v 3.346867 6.633941 4.31521
v 3.824867 6.633941 3.93821
v 4.424867 6.633941 3.02621
v 4.424867 6.633941 3.02621
v 5.259867 6.633941 3.57621
v 4.810867 6.633941 2.32421
v 3.346867 6.633941 4.31521
v 4.424867 6.633941 3.02621
v 4.810867 6.633941 2.32421
v 4.810867 6.633941 2.32421
v 5.259867 6.633941 3.57621
v 5.698867 6.633941 2.90921
v 3.283867 6.633941 -1.86379
v 3.346867 6.633941 4.31521
v 4.810867 6.633941 2.32421
v 3.283867 6.633941 -1.86379
v 4.810867 6.633941 2.32421
v 6.272867 6.633941 0.1042102
v 3.824867 7.026941 3.93821
v 4.659867 7.025941 4.48721
v 4.424867 7.026941 3.02621
v 4.424867 7.026941 3.02621
v 4.659867 7.025941 4.48721
v 5.259867 7.026941 3.57621
v 0.9038671 8.036942 -1.87579
v 3.283867 8.034941 -1.86379
v 1.617867 8.035941 -2.96079
v 0.9038671 8.036942 -1.87579
v 2.568867 8.036942 -0.7787898
v 3.283867 8.034941 -1.86379
v 2.577867 -6.69382 5.48221
v 3.346867 -6.69382 4.31521
v 3.346867 6.633941 4.31521
v 2.577867 6.633941 5.48221
v 3.346867 -6.69382 4.31521
v 4.341867 -6.69382 4.97021
v 4.341867 6.633941 4.97021
v 3.346867 6.633941 4.31521
v 4.341867 -6.69382 4.97021
v 4.659867 -6.69382 4.48721
v 4.659867 6.633941 4.48721
v 4.341867 6.633941 4.97021
v 4.659867 -6.69382 4.48721
v 5.259867 -6.69382 3.57621
v 5.259867 6.633941 3.57621
v 4.659867 6.633941 4.48721
v 5.259867 -6.69382 3.57621
v 5.698867 -6.69382 2.90921
v 5.698867 6.633941 2.90921
v 5.259867 6.633941 3.57621
v 4.659867 6.633941 4.48721
v 5.259867 6.633941 3.57621
v 5.259867 7.026941 3.57621
v 4.659867 7.025941 4.48721
v 4.810867 6.633941 2.32421
v 5.698867 6.633941 2.90921
v 5.698867 -6.69382 2.90921
v 4.810867 -6.69382 2.32421
v 5.541867 -6.69382 1.21421
v 6.272867 -6.69382 0.1042102
v 6.272867 6.633941 0.1042102
v 4.810867 6.633941 2.32421
v 4.810867 -6.69382 2.32421
v 5.541867 -6.69382 1.21421
v 4.810867 6.633941 2.32421
v 5.541867 -6.69382 1.21421
v 6.272867 6.633941 0.1042102
v 3.283867 6.633941 -1.86379
v 4.778367 -6.69382 -0.8797898
v 3.283867 -6.69382 -1.86379
v 4.778367 -6.69382 -0.8797898
v 6.272867 6.633941 0.1042102
v 6.272867 -6.69382 0.1042102
v 3.283867 6.633941 -1.86379
v 6.272867 6.633941 0.1042102
v 4.778367 -6.69382 -0.8797898
v 1.617867 6.633941 -2.96079
v 2.450867 -6.69382 -2.41229
v 1.617867 -6.69382 -2.96079
v 2.450867 -6.69382 -2.41229
v 3.283867 6.633941 -1.86379
v 3.283867 -6.69382 -1.86379
v 1.617867 6.633941 -2.96079
v 3.283867 6.633941 -1.86379
v 2.450867 -6.69382 -2.41229
v -2.235133 6.633941 -5.49879
v 1.617867 6.633941 -2.96079
v 1.617867 -6.69382 -2.96079
v -2.235133 -6.69382 -5.49879
v 1.617867 8.035941 -2.96079
v 3.283867 8.034941 -1.86379
v 3.283867 6.633941 -1.86379
v 1.617867 6.633941 -2.96079
v -7.418133 6.633941 -0.4417898
v -4.826633 -6.69382 -2.97029
v -7.418133 -6.69382 -0.4417898
v -4.826633 -6.69382 -2.97029
v -2.235133 6.633941 -5.49879
v -2.235133 -6.69382 -5.49879
v -7.418133 6.633941 -0.4417898
v -2.235133 6.633941 -5.49879
v -4.826633 -6.69382 -2.97029
v -7.418133 -6.69382 -0.4417898
v -6.394133 -6.69382 0.1282102
v -6.394133 6.633941 0.1282102
v -7.418133 6.633941 -0.4417898
v -6.394133 -6.69382 0.1282102
v -6.168133 -6.69382 -0.2767898
v -6.168133 6.633941 -0.2767898
v -6.394133 6.633941 0.1282102
v -1.795133 -6.69382 2.60271
v 2.577867 -6.69382 5.48221
v 2.577867 6.633941 5.48221
v -6.168133 6.633941 -0.2767898
v -6.168133 -6.69382 -0.2767898
v -1.795133 -6.69382 2.60271
v -6.168133 6.633941 -0.2767898
v -1.795133 -6.69382 2.60271
v 2.577867 6.633941 5.48221
v 4.009144 6.633941 4.05937
v 4.659867 6.633941 4.48721
v 4.659867 7.025941 4.48721
v 3.824867 7.026941 3.93821
v 3.824867 6.633941 3.93821
v 4.009144 6.633941 4.05937
v 3.824867 7.026941 3.93821
v 4.009144 6.633941 4.05937
v 4.659867 7.025941 4.48721
v 4.424867 7.026941 3.02621
v 5.259867 7.026941 3.57621
v 5.259867 6.633941 3.57621
v 4.424867 6.633941 3.02621
v 3.824867 7.026941 3.93821
v 4.424867 7.026941 3.02621
v 4.424867 6.633941 3.02621
v 3.824867 6.633941 3.93821
v 2.056095 6.633941 -1.116634
v 2.568867 6.633941 -0.7787898
v 2.568867 8.036942 -0.7787898
v 0.9038671 6.633941 -1.87579
v 2.056095 6.633941 -1.116634
v 2.568867 8.036942 -0.7787898
v 0.9038671 8.036942 -1.87579
v 2.568867 6.633941 -0.7787898
v 3.283867 6.633941 -1.86379
v 3.283867 8.034941 -1.86379
v 2.568867 8.036942 -0.7787898
v 0.9038671 8.036942 -1.87579
v 1.617867 8.035941 -2.96079
v 1.617867 6.633941 -2.96079
v 0.9038671 6.633941 -1.87579
v -6.168133 -6.69382 -0.2767898
v -6.394133 -6.69382 0.1282102
v -7.418133 -6.69382 -0.4417898
v -4.826633 -6.69382 -2.97029
v -2.235133 -6.69382 -5.49879
v 1.617867 -6.69382 -2.96079
v 2.450867 -6.69382 -2.41229
v 3.283867 -6.69382 -1.86379
v 4.778367 -6.69382 -0.8797898
v 6.272867 -6.69382 0.1042102
v 5.541867 -6.69382 1.21421
v 4.810867 -6.69382 2.32421
v 5.698867 -6.69382 2.90921
v 5.259867 -6.69382 3.57621
v 4.659867 -6.69382 4.48721
v 4.341867 -6.69382 4.97021
v 3.346867 -6.69382 4.31521
v 2.577867 -6.69382 5.48221
v -1.795133 -6.69382 2.60271
vt 0.314423 0.510268
vt 0.284442 0.472355
vt 0.305529 0.463896
vt 0.314423 0.510268
vt 0.305529 0.463896
vt 0.577202 0.316989
vt 0.305529 0.463896
vt 0.002959 0.140216
vt 0.063696 0.111464
vt 0.305529 0.463896
vt 0.387393 0.201085
vt 0.443864 0.174390
vt 0.305529 0.463896
vt 0.063696 0.111464
vt 0.387393 0.201085
vt 0.387393 0.201085
vt 0.063696 0.111464
vt 0.347508 0.158441
vt 0.305529 0.463896
vt 0.443864 0.174390
vt 0.577202 0.316989
vt 0.063696 0.111464
vt 0.029281 0.074638
vt 0.054419 0.062748
vt 0.063696 0.111464
vt 0.054419 0.062748
vt 0.076899 0.086832
vt 0.347508 0.158441
vt 0.063696 0.111464
vt 0.329758 0.139463
vt 0.329758 0.139463
vt 0.063696 0.111464
vt 0.386230 0.112730
vt 0.063696 0.111464
vt 0.076899 0.086832
vt 0.083265 0.093653
vt 0.063696 0.111464
vt 0.083265 0.093653
vt 0.130731 0.071219
vt 0.130731 0.071219
vt 0.101834 0.040314
vt 0.167286 0.056766
vt 0.063696 0.111464
vt 0.130731 0.071219
vt 0.167286 0.056766
vt 0.167286 0.056766
vt 0.101834 0.040314
vt 0.136549 0.023899
vt 0.386230 0.112730
vt 0.063696 0.111464
vt 0.167286 0.056766
vt 0.386230 0.112730
vt 0.167286 0.056766
vt 0.282832 0.002101
vt 0.480557 0.946483
vt 0.452663 0.916634
vt 0.526455 0.924812
vt 0.526455 0.924812
vt 0.452663 0.916634
vt 0.498512 0.894958
vt 0.325776 0.981762
vt 0.324631 0.894958
vt 0.381179 0.955537
vt 0.325776 0.981762
vt 0.269231 0.921215
vt 0.324631 0.894958
vt 0.002959 0.922775
vt 0.060311 0.894958
vt 0.080217 0.970931
vt 0.021900 0.999215
vt 0.121153 0.988869
vt 0.088757 0.953297
vt 0.112663 0.894958
vt 0.145607 0.931132
vt 0.778107 0.563955
vt 0.802151 0.552414
vt 0.822159 0.627847
vt 0.797710 0.639582
vt 0.802151 0.552414
vt 0.847502 0.530639
vt 0.868273 0.605705
vt 0.822159 0.627847
vt 0.847502 0.530639
vt 0.880706 0.514706
vt 0.902037 0.589505
vt 0.868273 0.605705
vt 0.822159 0.627847
vt 0.868273 0.605705
vt 0.868896 0.607957
vt 0.822758 0.630104
vt 0.958123 0.621317
vt 0.928909 0.589289
vt 0.908284 0.514706
vt 0.937015 0.546204
vt 0.691465 0.541250
vt 0.746836 0.514706
vt 0.770575 0.589184
vt 0.657969 0.643164
vt 0.636095 0.567794
vt 0.691465 0.541250
vt 0.657969 0.643164
vt 0.691465 0.541250
vt 0.770575 0.589184
vt 0.712934 0.186697
vt 0.636498 0.055860
vt 0.687196 0.109619
vt 0.636498 0.055860
vt 0.609831 0.077371
vt 0.585799 0.002101
vt 0.712934 0.186697
vt 0.609831 0.077371
vt 0.636498 0.055860
vt 0.770405 0.247632
vt 0.715456 0.139582
vt 0.743716 0.169545
vt 0.715456 0.139582
vt 0.712934 0.186697
vt 0.687196 0.109619
vt 0.770405 0.247632
vt 0.712934 0.186697
vt 0.715456 0.139582
vt 0.903363 0.388552
vt 0.770405 0.247632
vt 0.743716 0.169545
vt 0.874474 0.308135
vt 0.773265 0.255999
vt 0.715690 0.194950
vt 0.712934 0.186697
vt 0.770405 0.247632
vt 0.366850 0.707139
vt 0.465841 0.664433
vt 0.337278 0.759045
vt 0.465841 0.664433
vt 0.628336 0.514706
vt 0.594409 0.569817
vt 0.366850 0.707139
vt 0.628336 0.514706
vt 0.465841 0.664433
vt 0.232364 0.983322
vt 0.204142 0.946737
vt 0.232113 0.894958
vt 0.260813 0.932162
vt 0.153846 0.903126
vt 0.173215 0.894958
vt 0.196353 0.976353
vt 0.176658 0.984659
vt 0.151157 0.731837
vt 0.002959 0.572919
vt 0.027399 0.514706
vt 0.328805 0.837917
vt 0.299348 0.890747
vt 0.151157 0.731837
vt 0.328805 0.837917
vt 0.151157 0.731837
vt 0.027399 0.514706
vt 0.715807 0.919309
vt 0.695266 0.896637
vt 0.695961 0.894958
vt 0.722333 0.924061
vt 0.721624 0.925730
vt 0.715807 0.919309
vt 0.722333 0.924061
vt 0.715807 0.919309
vt 0.695961 0.894958
vt 0.686794 0.925906
vt 0.660343 0.897104
vt 0.659763 0.894958
vt 0.686201 0.923746
vt 0.731504 0.915618
vt 0.776429 0.894958
vt 0.775673 0.896600
vt 0.730769 0.917249
vt 0.404565 0.919526
vt 0.387574 0.901047
vt 0.390651 0.894958
vt 0.442745 0.961049
vt 0.404565 0.919526
vt 0.390651 0.894958
vt 0.445921 0.955067
vt 0.532544 0.920204
vt 0.585964 0.894958
vt 0.588606 0.902768
vt 0.535096 0.928070
vt 0.597850 0.920129
vt 0.652003 0.894958
vt 0.648733 0.900782
vt 0.594675 0.925912
vt 0.784024 0.894958
vt 0.784024 0.894958
vt 0.784024 0.894958
vt 0.784024 0.894958
vt 0.784024 0.894958
vt 0.784024 0.894958
vt 0.784024 0.894958
vt 0.784024 0.894958
vt 0.784024 0.894958
vt 0.784024 0.894958
vt 0.784024 0.894958
vt 0.784024 0.894958
vt 0.784024 0.894958
vt 0.784024 0.894958
vt 0.784024 0.894958
vt 0.784024 0.894958
vt 0.784024 0.894958
vt 0.784024 0.894958
vt 0.784024 0.894958
vn 0 1 0
vn 0 1 0
vn 0 1 0
vn 0 1 0
vn 0 1 0
vn 0 1 0
vn 0 1 0
vn 0 1 0
vn 0 1 0
vn 0 1 0
vn 0 1 0
vn 0 1 0
vn 0 1 0
vn 0 1 0
vn 0 1 0
vn 0 1 0
vn 0 1 0
vn 0 1 0
vn 0 1 0
vn 0 1 0
vn 0 1 0
vn 0 1 0
vn 0 1 0
vn 0 1 0
vn 0 1 0
vn 0 1 0
vn 0 1 0
vn 0 1 0
vn 0 1 0
vn 0 1 0
vn 0 1 0
vn 0 1 0
vn 0 1 0
vn 0 1 0
vn 0 1 0
vn 0 1 0
vn 0 1 0
vn 0 1 0
vn 0 1 0
vn 0 1 0
vn 0 1 0
vn 0 1 0
vn 0 1 0
vn 0 1 0
vn 0 1 0
vn 0 1 0
vn 0 1 0
vn 0 1 0
vn 0 1 0
vn 0 1 0
vn 0 1 0
vn 0 1 0
vn 0 1 0
vn 0 1 0
vn 0.0008359912 0.9999995 0.0005499942
vn 0.0008359912 0.9999995 0.0005499942
vn 0.0008359912 0.9999995 0.0005499942
vn -0.00050427 0.9999996 0.0007655736
vn -0.00050427 0.9999996 0.0007655736
vn -0.00050427 0.9999996 0.0007655736
vn 0.0008421884 0.9999996 -0.0003674443
vn 0.0008421884 0.9999996 -0.0003674443
vn 0.0008421884 0.9999996 -0.0003674443
vn 0.0008468155 0.9999988 -0.001285276
vn 0.0008468155 0.9999988 -0.001285276
vn 0.0008468155 0.9999988 -0.001285276
vn 0.8350105 0 0.550234
vn 0.8350105 0 0.550234
vn 0.8350105 0 0.550234
vn 0.8350105 0 0.550234
vn -0.5498477 0 0.8352649
vn -0.5498477 0 0.8352649
vn -0.5498477 0 0.8352649
vn -0.5498477 0 0.8352649
vn 0.835229 0 0.5499023
vn 0.835229 0 0.5499023
vn 0.835229 0 0.5499023
vn 0.835229 0 0.5499023
vn 0.83514 0 0.5500374
vn 0.83514 0 0.5500374
vn 0.83514 0 0.5500374
vn 0.83514 0 0.5500374
vn 0.8353111 0 0.5497775
vn 0.8353111 0 0.5497775
vn 0.8353111 0 0.5497775
vn 0.8353111 0 0.5497775
vn 0.83514 0 0.5500374
vn 0.83514 0 0.5500374
vn 0.83514 0 0.5500374
vn 0.83514 0 0.5500374
vn 0.5501345 0 -0.835076
vn 0.5501345 0 -0.835076
vn 0.5501345 0 -0.835076
vn 0.5501345 0 -0.835076
vn 0.8351625 0 0.5500033
vn 0.8351625 0 0.5500033
vn 0.8351625 0 0.5500033
vn 0.8351625 0 0.5500033
vn 0.8351625 0 0.5500033
vn 0.8351625 0 0.5500033
vn 0.8351625 1.739293E-11 0.5500033
vn 0.8351625 1.739293E-11 0.5500033
vn 0.8351625 1.739293E-11 0.5500033
vn 0.5499192 0 -0.8352178
vn 0.5499192 0 -0.8352178
vn 0.5499192 0 -0.8352178
vn 0.5499192 0 -0.8352178
vn 0.5499192 0 -0.8352178
vn 0.5499192 0 -0.8352178
vn 0.5499192 2.798098E-11 -0.8352178
vn 0.5499192 2.798098E-11 -0.8352178
vn 0.5499192 2.798098E-11 -0.8352178
vn 0.5499479 0 -0.8351989
vn 0.5499479 0 -0.8351989
vn 0.5499479 0 -0.8351989
vn 0.5499479 0 -0.8351989
vn 0.5499479 0 -0.8351989
vn 0.5499479 0 -0.8351989
vn 0.5499479 2.798026E-11 -0.8351989
vn 0.5499479 2.798026E-11 -0.8351989
vn 0.5499479 2.798026E-11 -0.8351989
vn 0.5500901 0 -0.8351053
vn 0.5500901 0 -0.8351053
vn 0.5500901 0 -0.8351053
vn 0.5500901 0 -0.8351053
vn 0.5499479 0 -0.8351989
vn 0.5499479 0 -0.8351989
vn 0.5499479 0 -0.8351989
vn 0.5499479 0 -0.8351989
vn -0.6983532 0 -0.7157533
vn -0.6983532 0 -0.7157533
vn -0.6983532 0 -0.7157533
vn -0.6983532 0 -0.7157533
vn -0.6983532 0 -0.7157533
vn -0.6983532 0 -0.7157533
vn -0.6983532 -1.524996E-12 -0.7157533
vn -0.6983532 -1.524996E-12 -0.7157533
vn -0.6983532 -1.524996E-12 -0.7157533
vn -0.4863673 0 0.8737545
vn -0.4863673 0 0.8737545
vn -0.4863673 0 0.8737545
vn -0.4863673 0 0.8737545
vn 0.8732404 0 0.4872897
vn 0.8732404 0 0.4872897
vn 0.8732404 0 0.4872897
vn 0.8732404 0 0.4872897
vn -0.5499532 0 0.8351955
vn -0.5499532 0 0.8351955
vn -0.5499532 0 0.8351955
vn -0.5499532 0 0.8351955
vn -0.5499532 0 0.8351955
vn -0.5499532 0 0.8351955
vn -0.5499532 -2.918104E-11 0.8351955
vn -0.5499532 -2.918104E-11 0.8351955
vn -0.5499532 -2.918104E-11 0.8351955
vn -0.5493776 0 0.8355742
vn -0.5493776 0 0.8355742
vn -0.5493776 0 0.8355742
vn -0.5493776 0 0.8355742
vn -0.5493776 0 0.8355742
vn -0.5493776 0 0.8355742
vn -0.5493776 7.667774E-09 0.8355742
vn -0.5493776 7.667774E-09 0.8355742
vn -0.5493776 7.667774E-09 0.8355742
vn 0.5500757 0 -0.8351148
vn 0.5500757 0 -0.8351148
vn 0.5500757 0 -0.8351148
vn 0.5500757 0 -0.8351148
vn -0.8354171 0 -0.5496165
vn -0.8354171 0 -0.5496165
vn -0.8354171 0 -0.5496165
vn -0.8354171 0 -0.5496165
vn -0.5501783 0 0.8350472
vn -0.5501783 0 0.8350472
vn -0.5501783 0 0.8350472
vn -0.5501783 0 0.8350472
vn -0.5501783 6.794402E-10 0.8350472
vn -0.5501783 1.35888E-09 0.8350472
vn -0.5501783 6.794402E-10 0.8350472
vn 0.8349984 0 0.5502524
vn 0.8349984 0 0.5502524
vn 0.8349984 0 0.5502524
vn 0.8349984 0 0.5502524
vn -0.8353519 0 -0.5497155
vn -0.8353519 0 -0.5497155
vn -0.8353519 0 -0.5497155
vn -0.8353519 0 -0.5497155
vn 0 -1 0
vn 0 -1 0
vn 0 -1 0
vn 0 -1 0
vn 0 -1 0
vn 0 -1 0
vn 0 -1 0
vn 0 -1 0
vn 0 -1 0
vn 0 -1 0
vn 0 -1 0
vn 0 -1 0
vn 0 -1 0
vn 0 -1 0
vn 0 -1 0
vn 0 -1 0
vn 0 -1 0
vn 0 -1 0
vn 0 -1 0

g CDNNDG02_0005590
f 1/1/1 2/2/2 3/3/3
f 4/4/4 5/5/5 6/6/6
f 7/7/7 8/8/8 9/9/9
f 10/10/10 11/11/11 12/12/12
f 13/13/13 14/14/14 15/15/15
f 16/16/16 17/17/17 18/18/18
f 19/19/19 20/20/20 21/21/21
f 22/22/22 23/23/23 24/24/24
f 25/25/25 26/26/26 27/27/27
f 28/28/28 29/29/29 30/30/30
f 31/31/31 32/32/32 33/33/33
f 34/34/34 35/35/35 36/36/36
f 37/37/37 38/38/38 39/39/39
f 40/40/40 41/41/41 42/42/42
f 43/43/43 44/44/44 45/45/45
f 46/46/46 47/47/47 48/48/48
f 49/49/49 50/50/50 51/51/51
f 52/52/52 53/53/53 54/54/54
f 55/55/55 56/56/56 57/57/57
f 58/58/58 59/59/59 60/60/60
f 61/61/61 62/62/62 63/63/63
f 64/64/64 65/65/65 66/66/66
f 68/68/68 69/69/69 67/67/67
f 67/67/67 69/69/69 70/70/70
f 71/71/71 73/73/73 74/74/74
f 73/73/73 71/71/71 72/72/72
f 75/75/75 77/77/77 78/78/78
f 75/75/75 76/76/76 77/77/77
f 80/80/80 81/81/81 79/79/79
f 79/79/79 81/81/81 82/82/82
f 84/84/84 85/85/85 83/83/83
f 83/83/83 85/85/85 86/86/86
f 88/88/88 89/89/89 90/90/90
f 87/87/87 88/88/88 90/90/90
f 93/93/93 91/91/91 92/92/92
f 91/91/91 93/93/93 94/94/94
f 95/95/95 96/96/96 97/97/97
f 98/98/98 99/99/99 100/100/100
f 101/101/101 102/102/102 103/103/103
f 104/104/104 105/105/105 106/106/106
f 107/107/107 108/108/108 109/109/109
f 110/110/110 111/111/111 112/112/112
f 113/113/113 114/114/114 115/115/115
f 116/116/116 117/117/117 118/118/118
f 119/119/119 120/120/120 121/121/121
f 124/124/124 122/122/122 123/123/123
f 122/122/122 124/124/124 125/125/125
f 127/127/127 128/128/128 129/129/129
f 126/126/126 127/127/127 129/129/129
f 130/130/130 131/131/131 132/132/132
f 133/133/133 134/134/134 135/135/135
f 136/136/136 137/137/137 138/138/138
f 139/139/139 141/141/141 142/142/142
f 141/141/141 139/139/139 140/140/140
f 144/144/144 145/145/145 143/143/143
f 143/143/143 145/145/145 146/146/146
f 147/147/147 148/148/148 149/149/149
f 150/150/150 151/151/151 152/152/152
f 153/153/153 154/154/154 155/155/155
f 156/156/156 157/157/157 158/158/158
f 159/159/159 160/160/160 161/161/161
f 162/162/162 163/163/163 164/164/164
f 165/165/165 167/167/167 168/168/168
f 165/165/165 166/166/166 167/167/167
f 169/169/169 171/171/171 172/172/172
f 169/169/169 170/170/170 171/171/171
f 173/173/173 174/174/174 175/175/175
f 177/177/177 178/178/178 179/179/179
f 179/179/179 176/176/176 177/177/177
f 183/183/183 180/180/180 182/182/182
f 181/181/181 182/182/182 180/180/180
f 187/187/187 185/185/185 186/186/186
f 187/187/187 184/184/184 185/185/185
f 204/204/204 205/205/205 206/206/206
f 199/199/199 204/204/204 206/206/206
f 188/188/188 189/189/189 190/190/190
f 202/202/202 203/203/203 204/204/204
f 188/188/188 190/190/190 191/191/191
f 195/195/195 199/199/199 206/206/206
f 188/188/188 191/191/191 206/206/206
f 201/201/201 202/202/202 204/204/204
f 191/191/191 192/192/192 193/193/193
f 191/191/191 193/193/193 206/206/206
f 193/193/193 194/194/194 206/206/206
f 194/194/194 195/195/195 206/206/206
f 195/195/195 196/196/196 199/199/199
f 196/196/196 197/197/197 198/198/198
f 199/199/199 201/201/201 204/204/204
f 196/196/196 198/198/198 199/199/199
f 199/199/199 200/200/200 201/201/201
