v -2.955729 5.490075 5.092862
v -1.168729 5.490075 6.218862
v -2.626729 5.490075 -5.046139
v -5.551729 5.490075 3.667861
v -3.880729 5.490075 4.753861
v -3.760729 5.490075 4.569861
v -5.383729 5.490075 3.409861
v -2.626729 5.490075 -5.046139
v 7.845271 5.490075 -2.230139
v -0.8047289 5.490075 -7.850139
v -7.924729 5.490075 1.759861
v -2.626729 5.490075 -5.046139
v -3.242729 5.490075 -5.446138
v 0.4272711 5.490075 -1.006139
v 7.845271 5.490075 -2.230139
v 0.7862711 5.490075 -1.558139
v -0.6087289 5.490075 -2.464139
v 0.7862711 5.490075 -1.558139
v 7.845271 5.490075 -2.230139
v -1.168729 5.490075 6.218862
v 1.571271 5.490075 7.848861
v 0.4272711 5.490075 -1.006139
v 0.4272711 5.490075 -1.006139
v 1.571271 5.490075 7.848861
v 7.845271 5.490075 -2.230139
v -2.626729 5.490075 -5.046139
v -0.9677289 5.490075 -1.913139
v -0.6087289 5.490075 -2.464139
v -2.626729 5.490075 -5.046139
v -0.6087289 5.490075 -2.464139
v 7.845271 5.490075 -2.230139
v -1.168729 5.490075 6.218862
v 0.4272711 5.490075 -1.006139
v -0.9677289 5.490075 -1.913139
v -2.626729 5.490075 -5.046139
v -1.168729 5.490075 6.218862
v -0.9677289 5.490075 -1.913139
v -7.924729 5.490075 1.759861
v -5.383729 5.490075 3.409861
v -2.626729 5.490075 -5.046139
v -3.760729 5.490075 4.569861
v -2.955729 5.490075 5.092862
v -2.626729 5.490075 -5.046139
v -5.383729 5.490075 3.409861
v -3.760729 5.490075 4.569861
v -2.626729 5.490075 -5.046139
v -3.101729 5.490075 5.317862
v -1.330729 5.490075 6.468862
v -1.168729 5.490075 6.218862
v -2.955729 5.490075 5.092862
v -1.168729 5.490075 6.218862
v 1.504271 5.490075 7.955862
v 1.571271 5.490075 7.848861
v -0.4657289 5.887074 -1.974139
v 0.4272711 5.708075 -1.006139
v 0.2882711 5.887074 -1.512139
v -0.9677289 5.707075 -1.913139
v 0.4272711 5.708075 -1.006139
v -0.4657289 5.887074 -1.974139
v 0.2882711 5.887074 -1.512139
v 0.4272711 5.708075 -1.006139
v 0.7862711 5.708075 -1.558139
v -0.9677289 5.707075 -1.913139
v -0.4657289 5.887074 -1.974139
v -0.6087289 5.708075 -2.464139
v -0.6087289 5.708075 -2.464139
v 0.2882711 5.887074 -1.512139
v 0.7862711 5.708075 -1.558139
v -0.6087289 5.708075 -2.464139
v -0.4657289 5.887074 -1.974139
v 0.2882711 5.887074 -1.512139
v -3.880729 -5.492575 4.753861
v -3.760729 -5.492575 4.569861
v -3.760729 5.490075 4.569861
v -3.880729 5.490075 4.753861
v -3.760729 -5.492575 4.569861
v -2.955729 -5.492575 5.092862
v -2.955729 5.490075 5.092862
v -3.760729 5.490075 4.569861
v -3.101729 5.490075 5.317862
v -2.955729 5.490075 5.092862
v -2.955729 -5.492575 5.092862
v -3.101729 -5.492575 5.317862
v -3.101729 -5.492575 5.317862
v -1.330729 -5.492575 6.468862
v -1.330729 5.490075 6.468862
v -3.101729 5.490075 5.317862
v -1.330729 -5.492575 6.468862
v -1.168729 -5.492575 6.218862
v -1.168729 5.490075 6.218862
v -1.330729 5.490075 6.468862
v -1.168729 -5.492575 6.218862
v 1.504271 -5.492575 7.955862
v 1.504271 5.490075 7.955862
v -1.168729 5.490075 6.218862
v 1.537771 -5.492575 7.902361
v 1.571271 -5.492575 7.848861
v 1.571271 5.490075 7.848861
v 1.504271 5.490075 7.955862
v 1.504271 -5.492575 7.955862
v 1.537771 -5.492575 7.902361
v 1.504271 5.490075 7.955862
v 1.537771 -5.492575 7.902361
v 1.571271 5.490075 7.848861
v 4.708271 -5.492575 2.809361
v 7.845271 -5.492575 -2.230139
v 7.845271 5.490075 -2.230139
v 1.571271 5.490075 7.848861
v 1.571271 -5.492575 7.848861
v 4.708271 -5.492575 2.809361
v 1.571271 5.490075 7.848861
v 4.708271 -5.492575 2.809361
v 7.845271 5.490075 -2.230139
v -0.8047289 5.490075 -7.850139
v 7.845271 5.490075 -2.230139
v 7.845271 -5.492575 -2.230139
v -0.8047289 -5.492575 -7.850139
v -2.626729 5.490075 -5.046139
v -0.8047289 5.490075 -7.850139
v -0.8047289 -5.492575 -7.850139
v -2.626729 -5.492575 -5.046139
v -3.242729 5.490075 -5.446138
v -2.626729 5.490075 -5.046139
v -2.626729 -5.492575 -5.046139
v -3.242729 -5.492575 -5.446138
v -7.924729 5.490075 1.759861
v -3.242729 5.490075 -5.446138
v -3.242729 -5.492575 -5.446138
v -7.924729 -5.492575 1.759861
v -7.924729 -5.492575 1.759861
v -5.383729 -5.492575 3.409861
v -5.383729 5.490075 3.409861
v -7.924729 5.490075 1.759861
v -5.551729 5.490075 3.667861
v -5.383729 5.490075 3.409861
v -5.383729 -5.492575 3.409861
v -5.551729 -5.492575 3.667861
v -4.716229 -5.492575 4.210861
v -3.880729 -5.492575 4.753861
v -3.880729 5.490075 4.753861
v -5.551729 5.490075 3.667861
v -5.551729 -5.492575 3.667861
v -4.716229 -5.492575 4.210861
v -5.551729 5.490075 3.667861
v -4.716229 -5.492575 4.210861
v -3.880729 5.490075 4.753861
v -0.9677289 5.490075 -1.913139
v 0.4272711 5.490075 -1.006139
v 0.4272711 5.708075 -1.006139
v -0.9677289 5.707075 -1.913139
v 0.4272711 5.490075 -1.006139
v 0.7862711 5.490075 -1.558139
v 0.7862711 5.708075 -1.558139
v 0.4272711 5.708075 -1.006139
v -0.9677289 5.707075 -1.913139
v -0.6087289 5.708075 -2.464139
v -0.6087289 5.490075 -2.464139
v -0.9677289 5.490075 -1.913139
v -0.6087289 5.708075 -2.464139
v 0.7862711 5.708075 -1.558139
v 0.7862711 5.490075 -1.558139
v -0.6087289 5.490075 -2.464139
v -3.880729 -5.492575 4.753861
v -4.716229 -5.492575 4.210861
v -5.551729 -5.492575 3.667861
v -5.383729 -5.492575 3.409861
v -7.924729 -5.492575 1.759861
v -3.242729 -5.492575 -5.446138
v -2.626729 -5.492575 -5.046139
v -0.8047289 -5.492575 -7.850139
v 7.845271 -5.492575 -2.230139
v 4.708271 -5.492575 2.809361
v 1.571271 -5.492575 7.848861
v 1.537771 -5.492575 7.902361
v 1.504271 -5.492575 7.955862
v -1.168729 -5.492575 6.218862
v -1.330729 -5.492575 6.468862
v -3.101729 -5.492575 5.317862
v -2.955729 -5.492575 5.092862
v -3.760729 -5.492575 4.569861
vt 0.134819 0.324709
vt 0.082798 0.271935
vt 0.595867 0.312043
vt 0.200803 0.401431
vt 0.150655 0.352095
vt 0.158970 0.348477
vt 0.212463 0.396366
vt 0.595867 0.312043
vt 0.463088 0.001686
vt 0.722604 0.257109
vt 0.288655 0.471389
vt 0.595867 0.312043
vt 0.614338 0.330232
vt 0.410729 0.222454
vt 0.463088 0.001686
vt 0.435678 0.211630
vt 0.477515 0.252821
vt 0.435678 0.211630
vt 0.463088 0.001686
vt 0.082798 0.271935
vt 0.007421 0.190989
vt 0.410729 0.222454
vt 0.410729 0.222454
vt 0.007421 0.190989
vt 0.463088 0.001686
vt 0.595867 0.312043
vt 0.452612 0.263645
vt 0.477515 0.252821
vt 0.595867 0.312043
vt 0.477515 0.252821
vt 0.463088 0.001686
vt 0.082798 0.271935
vt 0.410729 0.222454
vt 0.452612 0.263645
vt 0.595867 0.312043
vt 0.082798 0.271935
vt 0.452612 0.263645
vt 0.288655 0.471389
vt 0.212463 0.396366
vt 0.595867 0.312043
vt 0.158970 0.348477
vt 0.134819 0.324709
vt 0.595867 0.312043
vt 0.212463 0.396366
vt 0.158970 0.348477
vt 0.595867 0.312043
vt 0.124650 0.329111
vt 0.071499 0.276820
vt 0.082798 0.271935
vt 0.134819 0.324709
vt 0.082798 0.271935
vt 0.002584 0.193010
vt 0.007421 0.190989
vt 0.930220 0.800339
vt 0.888889 0.775717
vt 0.910041 0.778871
vt 0.928463 0.815416
vt 0.888889 0.775717
vt 0.930220 0.800339
vt 0.069016 0.973413
vt 0.049096 0.969067
vt 0.071476 0.959528
vt 0.077519 0.973662
vt 0.079200 0.959528
vt 0.100015 0.963880
vt 0.043786 0.998889
vt 0.002584 0.974339
vt 0.005156 0.959528
vt 0.043786 0.998889
vt 0.022292 0.995619
vt 0.002584 0.974339
vt 0.647013 0.779098
vt 0.654816 0.775717
vt 0.609977 0.822267
vt 0.602067 0.825695
vt 0.201550 0.959528
vt 0.201550 0.959528
vt 0.201550 0.959528
vt 0.201550 0.959528
vt 0.782946 0.779977
vt 0.792687 0.775717
vt 0.836679 0.816130
vt 0.827072 0.820332
vt 0.162791 0.959528
vt 0.162791 0.959528
vt 0.162791 0.959528
vt 0.162791 0.959528
vt 0.707545 0.780281
vt 0.718168 0.775717
vt 0.672268 0.821269
vt 0.661499 0.825897
vt 0.188630 0.959528
vt 0.188630 0.959528
vt 0.188630 0.959528
vt 0.188630 0.959528
vt 0.350909 0.657892
vt 0.353273 0.656924
vt 0.304536 0.702569
vt 0.299742 0.704532
vt 0.348544 0.658860
vt 0.350909 0.657892
vt 0.299742 0.704532
vt 0.350909 0.657892
vt 0.304536 0.702569
vt 0.576021 0.566238
vt 0.798779 0.475548
vt 0.756159 0.518704
vt 0.304536 0.702569
vt 0.353273 0.656924
vt 0.576021 0.566238
vt 0.304536 0.702569
vt 0.576021 0.566238
vt 0.756159 0.518704
vt 0.254882 0.771516
vt 0.002584 0.518775
vt 0.045047 0.475548
vt 0.293925 0.724866
vt 0.372093 0.829898
vt 0.497297 0.775717
vt 0.534703 0.817820
vt 0.411215 0.871258
vt 0.557379 0.839773
vt 0.540052 0.822138
vt 0.579363 0.775717
vt 0.596456 0.793113
vt 0.002584 0.916068
vt 0.327132 0.775717
vt 0.366343 0.817165
vt 0.046243 0.955590
vt 0.227390 0.959528
vt 0.227390 0.959528
vt 0.227390 0.959528
vt 0.227390 0.959528
vt 0.723514 0.780618
vt 0.734684 0.775717
vt 0.777656 0.815179
vt 0.766639 0.820013
vt 0.175711 0.959528
vt 0.175711 0.959528
vt 0.175711 0.959528
vt 0.175711 0.959528
vt 0.175711 0.959528
vt 0.175711 0.959528
vt 0.175711 0.959528
vt 0.175711 0.959528
vt 0.175711 0.959528
vt 0.882738 0.816303
vt 0.843179 0.776555
vt 0.842377 0.775717
vt 0.881952 0.815479
vt 0.106732 0.968610
vt 0.129106 0.959528
vt 0.128323 0.960326
vt 0.105943 0.969411
vt 0.134367 0.968845
vt 0.156863 0.959528
vt 0.157613 0.960268
vt 0.135119 0.969579
vt 0.974030 0.815972
vt 0.935401 0.776611
vt 0.936220 0.775717
vt 0.974839 0.815067
vt 0.214470 0.959528
vt 0.214470 0.959528
vt 0.214470 0.959528
vt 0.214470 0.959528
vt 0.214470 0.959528
vt 0.214470 0.959528
vt 0.214470 0.959528
vt 0.214470 0.959528
vt 0.214470 0.959528
vt 0.214470 0.959528
vt 0.214470 0.959528
vt 0.214470 0.959528
vt 0.214470 0.959528
vt 0.214470 0.959528
vt 0.214470 0.959528
vt 0.214470 0.959528
vt 0.214470 0.959528
vt 0.214470 0.959528
vn 0 1 0
vn 0 1 0
vn 0 1 0
vn 0 1 0
vn 0 1 0
vn 0 1 0
vn 0 1 0
vn 0 1 0
vn 0 1 0
vn 0 1 0
vn 0 1 0
vn 0 1 0
vn 0 1 0
vn 0 1 0
vn 0 1 0
vn 0 1 0
vn 0 1 0
vn 0 1 0
vn 0 1 0
vn 0 1 0
vn 0 1 0
vn 0 1 0
vn 0 1 0
vn 0 1 0
vn 0 1 0
vn 0 1 0
vn 0 1 0
vn 0 1 0
vn 0 1 0
vn 0 1 0
vn 0 1 0
vn 0 1 0
vn 0 1 0
vn 0 1 0
vn 0 1 0
vn 0 1 0
vn 0 1 0
vn 0 1 0
vn 0 1 0
vn 0 1 0
vn 0 1 0
vn 0 1 0
vn 0 1 0
vn 0 1 0
vn 0 1 0
vn 0 1 0
vn 0 1 0
vn 0 1 0
vn 0 1 0
vn 0 1 0
vn 0 1 0
vn 0 1 0
vn 0 1 0
vn -0.2332179 0.8948396 0.3806197
vn -0.2332179 0.8948396 0.3806197
vn -0.2332179 0.8948396 0.3806197
vn -0.2644151 0.8749169 0.4057157
vn -0.2644151 0.8749169 0.4057157
vn -0.2644151 0.8749169 0.4057157
vn 0.3479203 0.9098085 0.2262743
vn 0.3479203 0.9098085 0.2262743
vn 0.3479203 0.9098085 0.2262743
vn -0.353076 0.9072883 -0.2283974
vn -0.353076 0.9072883 -0.2283974
vn -0.353076 0.9072883 -0.2283974
vn 0.272476 0.8658766 -0.4195408
vn 0.272476 0.8658766 -0.4195408
vn 0.272476 0.8658766 -0.4195408
vn 0.2416638 0.8865914 -0.3944036
vn 0.2416638 0.8865914 -0.3944036
vn 0.2416638 0.8865914 -0.3944036
vn 0.8376106 0 0.5462678
vn 0.8376106 0 0.5462678
vn 0.8376106 0 0.5462678
vn 0.8376106 0 0.5462678
vn -0.5448053 0 0.8385626
vn -0.5448053 0 0.8385626
vn -0.5448053 0 0.8385626
vn -0.5448053 0 0.8385626
vn -0.8388693 0 -0.5443329
vn -0.8388693 0 -0.5443329
vn -0.8388693 0 -0.5443329
vn -0.8388693 0 -0.5443329
vn -0.5449384 0 0.8384761
vn -0.5449384 0 0.8384761
vn -0.5449384 0 0.8384761
vn -0.5449384 0 0.8384761
vn 0.8392097 0 0.5438079
vn 0.8392097 0 0.5438079
vn 0.8392097 0 0.5438079
vn 0.8392097 0 0.5438079
vn -0.5448891 0 0.8385081
vn -0.5448891 0 0.8385081
vn -0.5448891 0 0.8385081
vn -0.5448891 0 0.8385081
vn 0.847553 0 0.5307108
vn 0.847553 0 0.5307108
vn 0.847553 0 0.5307108
vn 0.847553 0 0.5307108
vn 0.847553 0 0.5307108
vn 0.847553 0 0.5307108
vn 0.847553 2.474799E-11 0.5307108
vn 0.847553 2.474799E-11 0.5307108
vn 0.847553 2.474799E-11 0.5307108
vn 0.8489575 0 0.5284611
vn 0.8489575 0 0.5284611
vn 0.8489575 0 0.5284611
vn 0.8489575 0 0.5284611
vn 0.8489575 0 0.5284611
vn 0.8489575 0 0.5284611
vn 0.8489575 2.249718E-12 0.5284611
vn 0.8489575 2.249718E-12 0.5284611
vn 0.8489575 2.249718E-12 0.5284611
vn 0.544818 0 -0.8385543
vn 0.544818 0 -0.8385543
vn 0.544818 0 -0.8385543
vn 0.544818 0 -0.8385543
vn -0.8385256 0 -0.5448622
vn -0.8385256 0 -0.5448622
vn -0.8385256 0 -0.5448622
vn -0.8385256 0 -0.5448622
vn 0.5446054 0 -0.8386924
vn 0.5446054 0 -0.8386924
vn 0.5446054 0 -0.8386924
vn 0.5446054 0 -0.8386924
vn -0.8385446 0 -0.5448329
vn -0.8385446 0 -0.5448329
vn -0.8385446 0 -0.5448329
vn -0.8385446 0 -0.5448329
vn -0.5446054 0 0.8386924
vn -0.5446054 0 0.8386924
vn -0.5446054 0 0.8386924
vn -0.5446054 0 0.8386924
vn -0.8379981 0 -0.5456732
vn -0.8379981 0 -0.5456732
vn -0.8379981 0 -0.5456732
vn -0.8379981 0 -0.5456732
vn -0.5449355 0 0.838478
vn -0.5449355 0 0.838478
vn -0.5449355 0 0.838478
vn -0.5449355 0 0.838478
vn -0.5449355 0 0.838478
vn -0.5449355 0 0.838478
vn -0.5449355 -3.555124E-11 0.838478
vn -0.5449355 -3.555124E-11 0.838478
vn -0.5449355 -3.555124E-11 0.838478
vn -0.545094 0 0.838375
vn -0.545094 0 0.838375
vn -0.545094 0 0.838375
vn -0.545094 0 0.838375
vn 0.8383048 0 0.5452018
vn 0.8383048 0 0.5452018
vn 0.8383048 0 0.5452018
vn 0.8383048 0 0.5452018
vn -0.8378525 0 -0.5458966
vn -0.8378525 0 -0.5458966
vn -0.8378525 0 -0.5458966
vn -0.8378525 0 -0.5458966
vn 0.5446714 0 -0.8386496
vn 0.5446714 0 -0.8386496
vn 0.5446714 0 -0.8386496
vn 0.5446714 0 -0.8386496
vn 0 -1 0
vn 0 -1 0
vn 0 -1 0
vn 0 -1 0
vn 0 -1 0
vn 0 -1 0
vn 0 -1 0
vn 0 -1 0
vn 0 -1 0
vn 0 -1 0
vn 0 -1 0
vn 0 -1 0
vn 0 -1 0
vn 0 -1 0
vn 0 -1 0
vn 0 -1 0
vn 0 -1 0
vn 0 -1 0

g CDNNDG02_0005450
f 1/1/1 2/2/2 3/3/3
f 4/4/4 5/5/5 6/6/6
f 7/7/7 4/4/4 6/6/6
f 8/8/8 9/9/9 10/10/10
f 11/11/11 12/12/12 13/13/13
f 14/14/14 15/15/15 16/16/16
f 17/17/17 18/18/18 19/19/19
f 20/20/20 21/21/21 22/22/22
f 23/23/23 24/24/24 25/25/25
f 26/26/26 27/27/27 28/28/28
f 29/29/29 30/30/30 31/31/31
f 32/32/32 33/33/33 34/34/34
f 35/35/35 36/36/36 37/37/37
f 38/38/38 39/39/39 40/40/40
f 41/41/41 42/42/42 43/43/43
f 44/44/44 45/45/45 46/46/46
f 50/50/50 47/47/47 48/48/48
f 49/49/49 50/50/50 48/48/48
f 51/51/51 52/52/52 53/53/53
f 54/54/54 55/55/55 56/56/56
f 57/57/57 58/58/58 59/59/59
f 60/60/60 61/61/61 62/62/62
f 63/63/63 64/64/64 65/65/65
f 66/66/66 67/67/67 68/68/68
f 69/69/69 70/70/70 71/71/71
f 73/73/73 74/74/74 75/75/75
f 72/72/72 73/73/73 75/75/75
f 79/79/79 76/76/76 78/78/78
f 78/78/78 76/76/76 77/77/77
f 80/80/80 81/81/81 82/82/82
f 83/83/83 80/80/80 82/82/82
f 85/85/85 86/86/86 87/87/87
f 87/87/87 84/84/84 85/85/85
f 89/89/89 90/90/90 91/91/91
f 88/88/88 89/89/89 91/91/91
f 92/92/92 94/94/94 95/95/95
f 94/94/94 92/92/92 93/93/93
f 96/96/96 97/97/97 98/98/98
f 99/99/99 100/100/100 101/101/101
f 102/102/102 103/103/103 104/104/104
f 105/105/105 106/106/106 107/107/107
f 108/108/108 109/109/109 110/110/110
f 111/111/111 112/112/112 113/113/113
f 114/114/114 116/116/116 117/117/117
f 114/114/114 115/115/115 116/116/116
f 118/118/118 120/120/120 121/121/121
f 118/118/118 119/119/119 120/120/120
f 124/124/124 122/122/122 123/123/123
f 122/122/122 124/124/124 125/125/125
f 126/126/126 128/128/128 129/129/129
f 126/126/126 127/127/127 128/128/128
f 130/130/130 132/132/132 133/133/133
f 132/132/132 130/130/130 131/131/131
f 134/134/134 136/136/136 137/137/137
f 134/134/134 135/135/135 136/136/136
f 138/138/138 139/139/139 140/140/140
f 141/141/141 142/142/142 143/143/143
f 144/144/144 145/145/145 146/146/146
f 150/150/150 147/147/147 148/148/148
f 149/149/149 150/150/150 148/148/148
f 151/151/151 153/153/153 154/154/154
f 151/151/151 152/152/152 153/153/153
f 158/158/158 155/155/155 157/157/157
f 157/157/157 155/155/155 156/156/156
f 159/159/159 161/161/161 162/162/162
f 159/159/159 160/160/160 161/161/161
f 169/169/169 179/179/179 180/180/180
f 163/163/163 164/164/164 180/180/180
f 177/177/177 178/178/178 179/179/179
f 164/164/164 165/165/165 166/166/166
f 164/164/164 166/166/166 180/180/180
f 176/176/176 177/177/177 179/179/179
f 166/166/166 167/167/167 169/169/169
f 167/167/167 168/168/168 169/169/169
f 180/180/180 166/166/166 169/169/169
f 179/179/179 172/172/172 176/176/176
f 169/169/169 170/170/170 171/171/171
f 172/172/172 173/173/173 176/176/176
f 169/169/169 171/171/171 172/172/172
f 176/176/176 174/174/174 175/175/175
f 169/169/169 172/172/172 179/179/179
f 176/176/176 173/173/173 174/174/174
