v 1.050198 5.690145 6.502223
v 1.140198 5.690145 6.359223
v 6.180199 5.690145 -1.640776
v 6.247199 5.690145 -1.747776
v -1.147802 5.690145 -6.417777
v -6.212801 5.690145 1.622224
v 1.050198 -5.690145 6.502223
v 1.140198 -5.690145 6.359223
v 1.140198 5.690145 6.359223
v 1.050198 5.690145 6.502223
v 1.140198 -5.690145 6.359223
v 6.180199 -5.690145 -1.640776
v 6.180199 5.690145 -1.640776
v 1.140198 5.690145 6.359223
v 6.213698 -5.690145 -1.694276
v 6.247199 -5.690145 -1.747776
v 6.247199 5.690145 -1.747776
v 6.180199 5.690145 -1.640776
v 6.180199 -5.690145 -1.640776
v 6.213698 -5.690145 -1.694276
v 6.180199 5.690145 -1.640776
v 6.213698 -5.690145 -1.694276
v 6.247199 5.690145 -1.747776
v -1.147802 5.690145 -6.417777
v 6.247199 5.690145 -1.747776
v 6.247199 -5.690145 -1.747776
v -1.147802 -5.690145 -6.417777
v -6.212801 5.690145 1.622224
v -1.147802 5.690145 -6.417777
v -1.147802 -5.690145 -6.417777
v -6.212801 -5.690145 1.622224
v -6.212801 -5.690145 1.622224
v 1.050198 -5.690145 6.502223
v 1.050198 5.690145 6.502223
v -6.212801 5.690145 1.622224
v 1.050198 -5.690145 6.502223
v -6.212801 -5.690145 1.622224
v -1.147802 -5.690145 -6.417777
v 6.247199 -5.690145 -1.747776
v 6.213698 -5.690145 -1.694276
v 6.180199 -5.690145 -1.640776
v 1.140198 -5.690145 6.359223
vt 0.651376 0.251349
vt 0.644180 0.254423
vt 0.241596 0.426606
vt 0.236212 0.428895
vt 0.002924 0.175049
vt 0.407526 0.001996
vt 0.558480 0.756487
vt 0.558480 0.756487
vt 0.558480 0.756487
vt 0.558480 0.756487
vt 0.558480 0.756487
vt 0.558480 0.756487
vt 0.558480 0.756487
vt 0.558480 0.756487
vt 0.558480 0.756487
vt 0.558480 0.756487
vt 0.558480 0.756487
vt 0.558480 0.756487
vt 0.558480 0.756487
vt 0.558480 0.756487
vt 0.558480 0.756487
vt 0.558480 0.756487
vt 0.558480 0.756487
vt 0.656703 0.433134
vt 0.889181 0.686370
vt 0.755575 0.713056
vt 0.526316 0.463332
vt 0.537277 0.829404
vt 0.132034 0.998249
vt 0.002924 0.923002
vt 0.402562 0.756487
vt 0.231374 0.752240
vt 0.002924 0.503233
vt 0.287543 0.433134
vt 0.519179 0.685629
vt 0.543860 0.756487
vt 0.543860 0.756487
vt 0.543860 0.756487
vt 0.543860 0.756487
vt 0.543860 0.756487
vt 0.543860 0.756487
vt 0.543860 0.756487
vn 0 1 0
vn 0 1 0
vn 0 1 0
vn 0 1 0
vn 0 1 0
vn 0 1 0
vn 0.8463317 0 0.5326563
vn 0.8463317 0 0.5326563
vn 0.8463317 0 0.5326563
vn 0.8463317 0 0.5326563
vn 0.8460915 0 0.5330377
vn 0.8460915 0 0.5330377
vn 0.8460915 0 0.5330377
vn 0.8460915 0 0.5330377
vn 0.847553 0 0.5307108
vn 0.847553 0 0.5307108
vn 0.847553 0 0.5307108
vn 0.847553 0 0.5307108
vn 0.847553 0 0.5307108
vn 0.847553 0 0.5307108
vn 0.847553 2.171575E-11 0.5307108
vn 0.847553 2.171575E-11 0.5307108
vn 0.847553 2.171575E-11 0.5307108
vn 0.53395 0 -0.8455161
vn 0.53395 0 -0.8455161
vn 0.53395 0 -0.8455161
vn 0.53395 0 -0.8455161
vn -0.846101 0 -0.5330226
vn -0.846101 0 -0.5330226
vn -0.846101 0 -0.5330226
vn -0.846101 0 -0.5330226
vn -0.5577031 0 0.8300405
vn -0.5577031 0 0.8300405
vn -0.5577031 0 0.8300405
vn -0.5577031 0 0.8300405
vn 0 -1 0
vn 0 -1 0
vn 0 -1 0
vn 0 -1 0
vn 0 -1 0
vn 0 -1 0
vn 0 -1 0

g CDNNDG02_0000470
f 3/3/3 5/5/5 6/6/6
f 3/3/3 4/4/4 5/5/5
f 2/2/2 3/3/3 6/6/6
f 1/1/1 2/2/2 6/6/6
f 8/8/8 9/9/9 7/7/7
f 7/7/7 9/9/9 10/10/10
f 14/14/14 11/11/11 13/13/13
f 12/12/12 13/13/13 11/11/11
f 15/15/15 16/16/16 17/17/17
f 18/18/18 19/19/19 20/20/20
f 21/21/21 22/22/22 23/23/23
f 24/24/24 26/26/26 27/27/27
f 24/24/24 25/25/25 26/26/26
f 29/29/29 30/30/30 31/31/31
f 28/28/28 29/29/29 31/31/31
f 32/32/32 34/34/34 35/35/35
f 34/34/34 32/32/32 33/33/33
f 42/42/42 37/37/37 41/41/41
f 42/42/42 36/36/36 37/37/37
f 38/38/38 41/41/41 37/37/37
f 40/40/40 38/38/38 39/39/39
f 38/38/38 40/40/40 41/41/41
