v -8.292425 6.725271 4.835329
v -2.110425 6.320271 -1.474671
v -3.638425 6.320271 -2.450671
v -4.725425 6.726271 7.113328
v -3.482425 6.726271 9.331328
v -2.124425 6.726271 8.993328
v -3.482425 6.726271 9.331328
v -2.241425 6.726271 9.174329
v -2.124425 6.726271 8.993328
v 0.1985747 6.320271 -5.122672
v 1.406575 6.320271 -4.351672
v 2.914575 6.216271 -9.374672
v 1.406575 6.320271 -4.351672
v 7.934575 6.216271 -6.168672
v 2.914575 6.216271 -9.374672
v -2.124425 6.726271 8.993328
v -1.866425 6.726271 9.176329
v -2.110425 6.320271 -1.474671
v -4.725425 6.726271 7.113328
v -4.696425 6.726271 8.558329
v -3.482425 6.726271 9.331328
v -4.725425 6.726271 7.113328
v -2.124425 6.726271 8.993328
v -2.110425 6.320271 -1.474671
v 0.3305747 6.320271 -2.666672
v 4.567575 6.351065 -2.305671
v 4.578838 6.35107 -2.322289
v 0.3305747 6.320271 -2.666672
v 4.578838 6.35107 -2.322289
v 1.406575 6.320271 -4.351672
v 0.3305747 6.320271 -2.666672
v 5.217575 6.357271 -1.913671
v 5.067575 6.355999 -1.967672
v 5.067575 6.355999 -1.967672
v 5.217575 6.357271 -1.913671
v 5.087413 6.356008 -1.99694
v 0.3305747 6.320271 -2.666672
v 5.067575 6.355999 -1.967672
v 4.567575 6.351065 -2.305671
v 1.406575 6.320271 -4.351672
v 4.987923 6.331149 -2.925826
v 5.013575 6.329879 -2.963671
v 1.406575 6.320271 -4.351672
v 5.013575 6.329879 -2.963671
v 7.934575 6.216271 -6.168672
v 5.013575 6.329879 -2.963671
v 5.686575 6.333271 -2.647671
v 7.934575 6.216271 -6.168672
v 5.013575 6.329879 -2.963671
v 5.186526 6.331752 -2.846756
v 5.686575 6.333271 -2.647671
v 5.217575 6.357271 -1.913671
v 5.686575 6.333271 -2.647671
v 5.513575 6.335255 -2.625671
v 5.087413 6.356008 -1.99694
v 5.217575 6.357271 -1.913671
v 5.513575 6.335255 -2.625671
v 5.186526 6.331752 -2.846756
v 5.513575 6.335255 -2.625671
v 5.686575 6.333271 -2.647671
v -2.110425 6.320271 -1.474671
v 5.217575 6.357271 -1.913671
v 0.3305747 6.320271 -2.666672
v -2.110425 6.320271 -1.474671
v 0.3305747 6.320271 -2.666672
v -0.8624253 6.320271 -3.428671
v -2.110425 6.320271 -1.474671
v -1.866425 6.726271 9.176329
v 5.217575 6.357271 -1.913671
v -8.292425 6.725271 4.835329
v -4.725425 6.726271 7.113328
v -2.110425 6.320271 -1.474671
v 1.406575 6.320271 -4.351672
v 4.578838 6.35107 -2.322289
v 4.987923 6.331149 -2.925826
v 3.514575 4.980271 -10.31367
v 7.934575 5.409271 -6.168672
v 8.534575 4.980271 -7.106671
v 2.914575 5.409271 -9.374672
v 7.934575 5.409271 -6.168672
v 3.514575 4.980271 -10.31367
v 5.013575 7.228271 -2.963671
v 5.067575 7.228271 -1.967672
v 5.513575 7.229271 -2.625671
v 4.567575 7.228271 -2.305671
v 5.067575 7.228271 -1.967672
v 5.013575 7.228271 -2.963671
v -6.508925 -6.394183 5.974329
v -4.725425 -6.394183 7.113328
v -4.725425 6.726271 7.113328
v -8.292425 6.725271 4.835329
v -8.292425 -6.394183 4.835329
v -6.508925 -6.394183 5.974329
v -8.292425 6.725271 4.835329
v -6.508925 -6.394183 5.974329
v -4.725425 6.726271 7.113328
v -4.725425 -6.394183 7.113328
v -4.696425 -6.394183 8.558329
v -4.696425 6.726271 8.558329
v -4.725425 6.726271 7.113328
v -4.696425 -6.394183 8.558329
v -3.482425 -6.394183 9.331328
v -3.482425 6.726271 9.331328
v -4.696425 6.726271 8.558329
v -3.482425 -6.394183 9.331328
v -2.241425 -6.394183 9.174329
v -2.241425 6.726271 9.174329
v -3.482425 6.726271 9.331328
v -2.241425 -6.394183 9.174329
v -2.124425 -6.394183 8.993328
v -2.124425 6.726271 8.993328
v -2.241425 6.726271 9.174329
v -2.124425 -6.394183 8.993328
v -1.866425 -6.394183 9.176329
v -1.866425 6.726271 9.176329
v -2.124425 6.726271 8.993328
v 1.675575 -6.394183 3.631329
v 5.217575 -6.394183 -1.913671
v 5.217575 6.357271 -1.913671
v -1.866425 6.726271 9.176329
v -1.866425 -6.394183 9.176329
v 1.675575 -6.394183 3.631329
v -1.866425 6.726271 9.176329
v 1.675575 -6.394183 3.631329
v 5.217575 6.357271 -1.913671
v 5.452075 -6.394183 -2.280671
v 5.686575 -6.394183 -2.647671
v 5.686575 6.333271 -2.647671
v 5.217575 6.357271 -1.913671
v 5.217575 -6.394183 -1.913671
v 5.452075 -6.394183 -2.280671
v 5.217575 6.357271 -1.913671
v 5.452075 -6.394183 -2.280671
v 5.686575 6.333271 -2.647671
v 5.686575 6.333271 -2.647671
v 7.934575 5.409271 -6.168672
v 7.934575 6.216271 -6.168672
v 5.686575 -6.394183 -2.647671
v 7.934575 -6.394183 -6.168672
v 7.934575 5.409271 -6.168672
v 5.686575 6.333271 -2.647671
v 7.934575 -6.394183 -6.168672
v 8.534575 -6.394183 -7.106671
v 8.534575 4.980271 -7.106671
v 7.934575 5.409271 -6.168672
v 2.914575 6.216271 -9.374672
v 7.934575 6.216271 -6.168672
v 7.934575 5.409271 -6.168672
v 2.914575 5.409271 -9.374672
v 0.1985747 6.320271 -5.122672
v 2.914575 5.409271 -9.374672
v 2.914575 -6.394183 -9.374672
v 0.1985747 -6.394183 -5.122672
v 0.1985747 6.320271 -5.122672
v 2.914575 6.216271 -9.374672
v 2.914575 5.409271 -9.374672
v 2.914575 5.409271 -9.374672
v 3.214575 -6.394183 -9.844172
v 2.914575 -6.394183 -9.374672
v 3.214575 -6.394183 -9.844172
v 3.514575 4.980271 -10.31367
v 3.514575 -6.394183 -10.31367
v 2.914575 5.409271 -9.374672
v 3.514575 4.980271 -10.31367
v 3.214575 -6.394183 -9.844172
v 0.1985747 -6.394183 -5.122672
v 1.406575 -6.394183 -4.351672
v 1.406575 6.320271 -4.351672
v 0.1985747 6.320271 -5.122672
v 0.3305747 6.320271 -2.666672
v 1.406575 6.320271 -4.351672
v 1.406575 -6.394183 -4.351672
v 0.3305747 -6.394183 -2.666672
v -0.8624253 6.320271 -3.428671
v 0.3305747 6.320271 -2.666672
v 0.3305747 -6.394183 -2.666672
v -0.8624253 -6.394183 -3.428671
v -2.110425 6.320271 -1.474671
v -1.486425 -6.394183 -2.451671
v -2.110425 -6.394183 -1.474671
v -1.486425 -6.394183 -2.451671
v -0.8624253 6.320271 -3.428671
v -0.8624253 -6.394183 -3.428671
v -2.110425 6.320271 -1.474671
v -0.8624253 6.320271 -3.428671
v -1.486425 -6.394183 -2.451671
v -3.638425 6.320271 -2.450671
v -2.110425 6.320271 -1.474671
v -2.110425 -6.394183 -1.474671
v -3.638425 -6.394183 -2.450671
v -8.292425 6.725271 4.835329
v -3.638425 6.320271 -2.450671
v -3.638425 -6.394183 -2.450671
v -8.292425 -6.394183 4.835329
v 3.514575 4.980271 -10.31367
v 8.534575 4.980271 -7.106671
v 8.534575 -6.394183 -7.106671
v 3.514575 -6.394183 -10.31367
v 4.567575 6.351065 -2.305671
v 5.067575 6.355999 -1.967672
v 5.067575 7.228271 -1.967672
v 4.567575 7.228271 -2.305671
v 5.087413 6.356008 -1.99694
v 5.513575 6.335255 -2.625671
v 5.513575 7.229271 -2.625671
v 5.067575 7.228271 -1.967672
v 5.067575 6.355999 -1.967672
v 5.087413 6.356008 -1.99694
v 5.067575 7.228271 -1.967672
v 5.087413 6.356008 -1.99694
v 5.513575 7.229271 -2.625671
v 5.013575 7.228271 -2.963671
v 5.186526 6.331752 -2.846756
v 5.013575 6.329879 -2.963671
v 5.186526 6.331752 -2.846756
v 5.513575 7.229271 -2.625671
v 5.513575 6.335255 -2.625671
v 5.013575 7.228271 -2.963671
v 5.513575 7.229271 -2.625671
v 5.186526 6.331752 -2.846756
v 4.567575 7.228271 -2.305671
v 4.578838 6.35107 -2.322289
v 4.567575 6.351065 -2.305671
v 4.567575 7.228271 -2.305671
v 4.987923 6.331149 -2.925826
v 4.578838 6.35107 -2.322289
v 4.987923 6.331149 -2.925826
v 5.013575 7.228271 -2.963671
v 5.013575 6.329879 -2.963671
v 4.567575 7.228271 -2.305671
v 5.013575 7.228271 -2.963671
v 4.987923 6.331149 -2.925826
v -8.292425 -6.394183 4.835329
v -3.638425 -6.394183 -2.450671
v -2.110425 -6.394183 -1.474671
v -1.486425 -6.394183 -2.451671
v -0.8624253 -6.394183 -3.428671
v 0.3305747 -6.394183 -2.666672
v 1.406575 -6.394183 -4.351672
v 0.1985747 -6.394183 -5.122672
v 2.914575 -6.394183 -9.374672
v 3.214575 -6.394183 -9.844172
v 3.514575 -6.394183 -10.31367
v 8.534575 -6.394183 -7.106671
v 7.934575 -6.394183 -6.168672
v 5.686575 -6.394183 -2.647671
v 5.452075 -6.394183 -2.280671
v 5.217575 -6.394183 -1.913671
v 1.675575 -6.394183 3.631329
v -1.866425 -6.394183 9.176329
v -2.124425 -6.394183 8.993328
v -2.241425 -6.394183 9.174329
v -3.482425 -6.394183 9.331328
v -4.696425 -6.394183 8.558329
v -4.725425 -6.394183 7.113328
v -6.508925 -6.394183 5.974329
vt 0.540082 0.001555
vt 0.301890 0.166675
vt 0.265027 0.125409
vt 0.626157 0.097941
vt 0.710214 0.131661
vt 0.697234 0.168241
vt 0.710214 0.131661
vt 0.704117 0.165104
vt 0.697234 0.168241
vt 0.163239 0.228553
vt 0.192360 0.261175
vt 0.002188 0.301075
vt 0.192360 0.261175
vt 0.123262 0.436616
vt 0.002188 0.301075
vt 0.697234 0.168241
vt 0.704152 0.175214
vt 0.301890 0.166675
vt 0.626157 0.097941
vt 0.681006 0.098858
vt 0.710214 0.131661
vt 0.626157 0.097941
vt 0.697234 0.168241
vt 0.301890 0.166675
vt 0.256403 0.232339
vt 0.269486 0.346620
vt 0.268854 0.346922
vt 0.256403 0.232339
vt 0.268854 0.346922
vt 0.192360 0.261175
vt 0.256403 0.232339
vt 0.284257 0.364187
vt 0.282231 0.360137
vt 0.282231 0.360137
vt 0.284257 0.364187
vt 0.281118 0.360669
vt 0.256403 0.232339
vt 0.282231 0.360137
vt 0.269486 0.346620
vt 0.192360 0.261175
vt 0.246012 0.357836
vt 0.244580 0.358520
vt 0.192360 0.261175
vt 0.244580 0.358520
vt 0.123262 0.436616
vt 0.244580 0.358520
vt 0.256479 0.376693
vt 0.123262 0.436616
vt 0.244580 0.358520
vt 0.248988 0.363196
vt 0.256479 0.376693
vt 0.284257 0.364187
vt 0.256479 0.376693
vt 0.257322 0.372038
vt 0.281118 0.360669
vt 0.284257 0.364187
vt 0.257322 0.372038
vt 0.248988 0.363196
vt 0.257322 0.372038
vt 0.256479 0.376693
vt 0.301890 0.166675
vt 0.284257 0.364187
vt 0.256403 0.232339
vt 0.301890 0.166675
vt 0.256403 0.232339
vt 0.227622 0.200122
vt 0.301890 0.166675
vt 0.704152 0.175214
vt 0.284257 0.364187
vt 0.540082 0.001555
vt 0.626157 0.097941
vt 0.301890 0.166675
vt 0.192360 0.261175
vt 0.268854 0.346922
vt 0.246012 0.357836
vt 0.676149 0.458080
vt 0.827912 0.575003
vt 0.794841 0.592885
vt 0.709194 0.440124
vt 0.827912 0.575003
vt 0.676149 0.458080
vt 0.643326 0.949097
vt 0.679158 0.950561
vt 0.655432 0.961869
vt 0.667048 0.937792
vt 0.679158 0.950561
vt 0.643326 0.949097
vt 0.442588 0.829269
vt 0.484431 0.876267
vt 0.426409 0.905660
vt 0.341357 0.810124
vt 0.400744 0.782271
vt 0.442588 0.829269
vt 0.341357 0.810124
vt 0.442588 0.829269
vt 0.426409 0.905660
vt 0.585121 0.937792
vt 0.638212 0.938651
vt 0.581312 0.966938
vt 0.527352 0.966064
vt 0.198797 0.937792
vt 0.226903 0.969392
vt 0.170798 0.998957
vt 0.142232 0.966840
vt 0.809797 0.848016
vt 0.803803 0.880521
vt 0.748359 0.815307
vt 0.754451 0.782271
vt 0.878321 0.847031
vt 0.871744 0.850043
vt 0.816193 0.785332
vt 0.822878 0.782271
vt 0.515347 0.937792
vt 0.521947 0.944401
vt 0.466227 0.974169
vt 0.459519 0.967451
vt 0.462568 0.598702
vt 0.254816 0.691507
vt 0.192687 0.630569
vt 0.613163 0.440124
vt 0.670332 0.505892
vt 0.462568 0.598702
vt 0.613163 0.440124
vt 0.462568 0.598702
vt 0.192687 0.630569
vt 0.241066 0.697652
vt 0.227316 0.703796
vt 0.164871 0.643169
vt 0.192687 0.630569
vt 0.254816 0.691507
vt 0.241066 0.697652
vt 0.192687 0.630569
vt 0.241066 0.697652
vt 0.164871 0.643169
vt 0.164871 0.643169
vt 0.035623 0.707397
vt 0.031471 0.703557
vt 0.227316 0.703796
vt 0.095403 0.762693
vt 0.035623 0.707397
vt 0.164871 0.643169
vt 0.095403 0.762693
vt 0.060262 0.778413
vt 0.002188 0.725378
vt 0.035623 0.707397
vt 0.803063 0.937792
vt 0.803063 0.937792
vt 0.803063 0.937792
vt 0.803063 0.937792
vt 0.679220 0.812742
vt 0.523321 0.882517
vt 0.584777 0.853220
vt 0.742989 0.782271
vt 0.679220 0.812742
vt 0.519053 0.884552
vt 0.523321 0.882517
vt 0.523321 0.882517
vt 0.567308 0.861056
vt 0.584777 0.853220
vt 0.567308 0.861056
vt 0.490153 0.897332
vt 0.549838 0.868893
vt 0.523321 0.882517
vt 0.490153 0.897332
vt 0.567308 0.861056
vt 0.294771 0.937792
vt 0.322856 0.969234
vt 0.260478 0.999861
vt 0.231947 0.967921
vt 0.391379 0.967940
vt 0.328228 0.996137
vt 0.391008 0.965549
vt 0.453175 0.937792
vt 0.781182 0.937792
vt 0.781182 0.937792
vt 0.781182 0.937792
vt 0.781182 0.937792
vt 0.075503 0.966977
vt 0.100581 0.953910
vt 0.136667 0.937792
vt 0.100581 0.953910
vt 0.002188 0.999724
vt 0.064495 0.970029
vt 0.075503 0.966977
vt 0.002188 0.999724
vt 0.100581 0.953910
vt 0.770241 0.937792
vt 0.770241 0.937792
vt 0.770241 0.937792
vt 0.770241 0.937792
vt 0.276300 0.810187
vt 0.002188 0.933228
vt 0.064509 0.904255
vt 0.336196 0.782271
vt 0.814004 0.937792
vt 0.814004 0.937792
vt 0.814004 0.937792
vt 0.814004 0.937792
vt 0.688748 0.937792
vt 0.699934 0.950124
vt 0.696121 0.952213
vt 0.684902 0.939879
vt 0.730953 0.942150
vt 0.708750 0.952608
vt 0.704595 0.948648
vt 0.727962 0.937792
vt 0.731991 0.941667
vt 0.730953 0.942150
vt 0.727962 0.937792
vt 0.730953 0.942150
vt 0.704595 0.948648
vt 0.792123 0.937792
vt 0.792123 0.937792
vt 0.792123 0.937792
vt 0.792123 0.937792
vt 0.792123 0.937792
vt 0.792123 0.937792
vt 0.792123 0.937792
vt 0.792123 0.937792
vt 0.792123 0.937792
vt 0.760741 0.939858
vt 0.764235 0.938064
vt 0.764823 0.937792
vt 0.760741 0.939858
vt 0.742959 0.947922
vt 0.764235 0.938064
vt 0.742959 0.947922
vt 0.737418 0.950669
vt 0.741625 0.948541
vt 0.760741 0.939858
vt 0.737418 0.950669
vt 0.742959 0.947922
vt 0.824945 0.937792
vt 0.824945 0.937792
vt 0.824945 0.937792
vt 0.824945 0.937792
vt 0.824945 0.937792
vt 0.824945 0.937792
vt 0.824945 0.937792
vt 0.824945 0.937792
vt 0.824945 0.937792
vt 0.824945 0.937792
vt 0.824945 0.937792
vt 0.824945 0.937792
vt 0.824945 0.937792
vt 0.824945 0.937792
vt 0.824945 0.937792
vt 0.824945 0.937792
vt 0.824945 0.937792
vt 0.824945 0.937792
vt 0.824945 0.937792
vt 0.824945 0.937792
vt 0.824945 0.937792
vt 0.824945 0.937792
vt 0.824945 0.937792
vt 0.824945 0.937792
vn 0.0251891 0.9989046 -0.03943539
vn 0.0251891 0.9989046 -0.03943539
vn 0.0251891 0.9989046 -0.03943539
vn 0 1 0
vn 0 1 0
vn 0 1 0
vn 0 1 0
vn 0 1 0
vn 0 1 0
vn 0.01108741 0.9997876 -0.01737171
vn 0.01108741 0.9997876 -0.01737171
vn 0.01108741 0.9997876 -0.01737171
vn 0.01109324 0.9997876 -0.01736996
vn 0.01109324 0.9997876 -0.01736996
vn 0.01109324 0.9997876 -0.01736996
vn 0.02745316 0.9988735 -0.03870446
vn 0.02745316 0.9988735 -0.03870446
vn 0.02745316 0.9988735 -0.03870446
vn 0 1 0
vn 0 1 0
vn 0 1 0
vn 0.02797464 0.9988591 -0.0387032
vn 0.02797464 0.9988591 -0.0387032
vn 0.02797464 0.9988591 -0.0387032
vn -0.006892643 0.9999666 -0.00440172
vn -0.006892643 0.9999666 -0.00440172
vn -0.006892643 0.9999666 -0.00440172
vn -0.006892662 0.9999666 -0.004401486
vn -0.006892662 0.9999666 -0.004401486
vn -0.006892662 0.9999666 -0.004401486
vn -0.006892674 0.9999666 -0.004401415
vn -0.006892674 0.9999666 -0.004401415
vn -0.006892674 0.9999666 -0.004401415
vn -0.006892596 0.9999666 -0.00440163
vn -0.006892596 0.9999666 -0.00440163
vn -0.006892596 0.9999666 -0.00440163
vn -0.006892663 0.9999666 -0.00440149
vn -0.006892663 0.9999666 -0.00440149
vn -0.006892663 0.9999666 -0.00440149
vn 0.008123075 0.9995741 -0.02802889
vn 0.008123075 0.9995741 -0.02802889
vn 0.008123075 0.9995741 -0.02802889
vn 0.008123055 0.9995741 -0.02802884
vn 0.008123055 0.9995741 -0.02802884
vn 0.008123055 0.9995741 -0.02802884
vn 0.008123057 0.9995741 -0.02802884
vn 0.008123057 0.9995741 -0.02802884
vn 0.008123057 0.9995741 -0.02802884
vn 0.008123023 0.9995741 -0.02802877
vn 0.008123023 0.9995741 -0.02802877
vn 0.008123023 0.9995741 -0.02802877
vn 0.00795319 0.9995874 -0.02760225
vn 0.00795319 0.9995874 -0.02760225
vn 0.00795319 0.9995874 -0.02760225
vn 0.007953159 0.9995874 -0.02760226
vn 0.007953159 0.9995874 -0.02760226
vn 0.007953159 0.9995874 -0.02760226
vn 0.007953186 0.9995874 -0.02760228
vn 0.007953186 0.9995874 -0.02760228
vn 0.007953186 0.9995874 -0.02760228
vn -0.00575467 0.999914 -0.01178452
vn -0.00575467 0.999914 -0.01178452
vn -0.00575467 0.999914 -0.01178452
vn 0 1 0
vn 0 1 0
vn 0 1 0
vn -0.007317185 0.9992539 -0.03792242
vn -0.007317185 0.9992539 -0.03792242
vn -0.007317185 0.9992539 -0.03792242
vn 0.02501407 0.9989022 -0.03960672
vn 0.02501407 0.9989022 -0.03960672
vn 0.02501407 0.9989022 -0.03960672
vn 0.007953175 0.9995874 -0.02760225
vn 0.007953175 0.9995874 -0.02760225
vn 0.007953175 0.9995874 -0.02760225
vn 0.1935508 0.9331384 -0.3029701
vn 0.1935508 0.9331384 -0.3029701
vn 0.1935508 0.9331384 -0.3029701
vn 0.1933805 0.9332296 -0.3027979
vn 0.1933805 0.9332296 -0.3027979
vn 0.1933805 0.9332296 -0.3027979
vn -0.002076085 0.9999979 0.0001125589
vn -0.002076085 0.9999979 0.0001125589
vn -0.002076085 0.9999979 0.0001125589
vn 0 1 0
vn 0 1 0
vn 0 1 0
vn -0.5382355 0 0.8427945
vn -0.5382355 0 0.8427945
vn -0.5382355 0 0.8427945
vn -0.5382355 0 0.8427945
vn -0.5382355 0 0.8427945
vn -0.5382355 0 0.8427945
vn -0.5382355 -2.871901E-11 0.8427945
vn -0.5382355 -2.871901E-11 0.8427945
vn -0.5382355 -2.871901E-11 0.8427945
vn -0.9997987 0 0.02006516
vn -0.9997987 0 0.02006516
vn -0.9997987 0 0.02006516
vn -0.9997987 0 0.02006516
vn -0.5371003 0 0.8435184
vn -0.5371003 0 0.8435184
vn -0.5371003 0 0.8435184
vn -0.5371003 0 0.8435184
vn 0.1255105 0 0.9920923
vn 0.1255105 0 0.9920923
vn 0.1255105 0 0.9920923
vn 0.1255105 0 0.9920923
vn 0.839819 0 0.5428665
vn 0.839819 0 0.5428665
vn 0.839819 0 0.5428665
vn 0.839819 0 0.5428665
vn -0.5785435 0 0.8156515
vn -0.5785435 0 0.8156515
vn -0.5785435 0 0.8156515
vn -0.5785435 0 0.8156515
vn 0.8427403 0 0.5383203
vn 0.8427403 0 0.5383203
vn 0.8427403 0 0.5383203
vn 0.8427403 0 0.5383203
vn 0.8427403 0 0.5383203
vn 0.8427403 0 0.5383203
vn 0.8427403 -1.937816E-11 0.5383203
vn 0.8427403 -1.937816E-11 0.5383203
vn 0.8427403 -1.937816E-11 0.5383203
vn 0.8426673 0 0.5384346
vn 0.8426673 0 0.5384346
vn 0.8426673 0 0.5384346
vn 0.8426673 0 0.5384346
vn 0.8426673 0 0.5384346
vn 0.8426673 0 0.5384346
vn 0.8426673 -1.92511E-12 0.5384346
vn 0.8426673 -1.92511E-12 0.5384346
vn 0.8426673 -1.92511E-12 0.5384346
vn 0.8428621 0 0.5381296
vn 0.8428621 0 0.5381296
vn 0.8428621 0 0.5381296
vn 0.8428621 0 0.5381296
vn 0.8428621 0 0.5381296
vn 0.8428621 0 0.5381296
vn 0.8428621 0 0.5381296
vn 0.8424019 0 0.5388498
vn 0.8424019 0 0.5388498
vn 0.8424019 0 0.5388498
vn 0.8424019 0 0.5388498
vn 0.5382435 0 -0.8427894
vn 0.5382435 0 -0.8427894
vn 0.5382435 0 -0.8427894
vn 0.5382435 0 -0.8427894
vn -0.8427462 0 -0.5383111
vn -0.8427462 0 -0.5383111
vn -0.8427462 0 -0.5383111
vn -0.8427462 0 -0.5383111
vn -0.8427462 0 -0.5383111
vn -0.8427462 0 -0.5383111
vn -0.8427462 0 -0.5383111
vn -0.8426623 0 -0.5384424
vn -0.8426623 0 -0.5384424
vn -0.8426623 0 -0.5384424
vn -0.8426623 0 -0.5384424
vn -0.8426623 0 -0.5384424
vn -0.8426623 0 -0.5384424
vn -0.8426623 2.163541E-11 -0.5384424
vn -0.8426623 2.163541E-11 -0.5384424
vn -0.8426623 2.163541E-11 -0.5384424
vn -0.5380038 0 0.8429424
vn -0.5380038 0 0.8429424
vn -0.5380038 0 0.8429424
vn -0.5380038 0 0.8429424
vn -0.842816 0 -0.5382018
vn -0.842816 0 -0.5382018
vn -0.842816 0 -0.5382018
vn -0.842816 0 -0.5382018
vn 0.5382918 0 -0.8427586
vn 0.5382918 0 -0.8427586
vn 0.5382918 0 -0.8427586
vn 0.5382918 0 -0.8427586
vn -0.8427724 0 -0.5382702
vn -0.8427724 0 -0.5382702
vn -0.8427724 0 -0.5382702
vn -0.8427724 0 -0.5382702
vn -0.8427724 0 -0.5382702
vn -0.8427724 0 -0.5382702
vn -0.8427724 0 -0.5382702
vn -0.8427724 0 -0.5382702
vn -0.8427724 0 -0.5382702
vn 0.5383022 0 -0.8427519
vn 0.5383022 0 -0.8427519
vn 0.5383022 0 -0.8427519
vn 0.5383022 0 -0.8427519
vn -0.8427458 0 -0.5383117
vn -0.8427458 0 -0.5383117
vn -0.8427458 0 -0.5383117
vn -0.8427458 0 -0.5383117
vn 0.5383628 0 -0.8427132
vn 0.5383628 0 -0.8427132
vn 0.5383628 0 -0.8427132
vn 0.5383628 0 -0.8427132
vn -0.5600418 0 0.8284643
vn -0.5600418 0 0.8284643
vn -0.5600418 0 0.8284643
vn -0.5600418 0 0.8284643
vn 0.8277679 0 0.5610707
vn 0.8277679 0 0.5610707
vn 0.8277679 0 0.5610707
vn 0.8277679 0 0.5610707
vn 0.8277679 0 0.5610707
vn 0.8277679 0 0.5610707
vn 0.8277679 1.118724E-09 0.5610707
vn 0.8277679 1.118724E-09 0.5610707
vn 0.8277679 1.118724E-09 0.5610707
vn 0.5600418 0 -0.8284643
vn 0.5600418 0 -0.8284643
vn 0.5600418 0 -0.8284643
vn 0.5600418 0 -0.8284643
vn 0.5600418 0 -0.8284643
vn 0.5600418 0 -0.8284643
vn 0.5600418 -4.593533E-10 -0.8284643
vn 0.5600418 -4.593533E-10 -0.8284643
vn 0.5600418 -4.593533E-10 -0.8284643
vn -0.8277679 0 -0.5610707
vn -0.8277679 0 -0.5610707
vn -0.8277679 0 -0.5610707
vn -0.8277679 -3.882829E-10 -0.5610707
vn -0.8277679 -3.882829E-10 -0.5610707
vn -0.8277679 -3.882829E-10 -0.5610707
vn -0.827768 0 -0.5610706
vn -0.827768 0 -0.5610706
vn -0.827768 0 -0.5610706
vn -0.8277679 -2.980731E-09 -0.5610707
vn -0.8277679 -2.980731E-09 -0.5610707
vn -0.8277679 -2.980731E-09 -0.5610707
vn 0 -1 0
vn 0 -1 0
vn 0 -1 0
vn 0 -1 0
vn 0 -1 0
vn 0 -1 0
vn 0 -1 0
vn 0 -1 0
vn 0 -1 0
vn 0 -1 0
vn 0 -1 0
vn 0 -1 0
vn 0 -1 0
vn 0 -1 0
vn 0 -1 0
vn 0 -1 0
vn 0 -1 0
vn 0 -1 0
vn 0 -1 0
vn 0 -1 0
vn 0 -1 0
vn 0 -1 0
vn 0 -1 0
vn 0 -1 0

g CDNNDG02_0001940
f 1/1/1 2/2/2 3/3/3
f 4/4/4 5/5/5 6/6/6
f 7/7/7 8/8/8 9/9/9
f 10/10/10 11/11/11 12/12/12
f 13/13/13 14/14/14 15/15/15
f 16/16/16 17/17/17 18/18/18
f 19/19/19 20/20/20 21/21/21
f 22/22/22 23/23/23 24/24/24
f 25/25/25 26/26/26 27/27/27
f 28/28/28 29/29/29 30/30/30
f 31/31/31 32/32/32 33/33/33
f 34/34/34 35/35/35 36/36/36
f 37/37/37 38/38/38 39/39/39
f 40/40/40 41/41/41 42/42/42
f 43/43/43 44/44/44 45/45/45
f 46/46/46 47/47/47 48/48/48
f 49/49/49 50/50/50 51/51/51
f 52/52/52 53/53/53 54/54/54
f 55/55/55 56/56/56 57/57/57
f 58/58/58 59/59/59 60/60/60
f 61/61/61 62/62/62 63/63/63
f 64/64/64 65/65/65 66/66/66
f 67/67/67 68/68/68 69/69/69
f 70/70/70 71/71/71 72/72/72
f 73/73/73 74/74/74 75/75/75
f 76/76/76 77/77/77 78/78/78
f 79/79/79 80/80/80 81/81/81
f 82/82/82 83/83/83 84/84/84
f 85/85/85 86/86/86 87/87/87
f 88/88/88 89/89/89 90/90/90
f 91/91/91 92/92/92 93/93/93
f 94/94/94 95/95/95 96/96/96
f 98/98/98 99/99/99 100/100/100
f 97/97/97 98/98/98 100/100/100
f 101/101/101 103/103/103 104/104/104
f 103/103/103 101/101/101 102/102/102
f 108/108/108 105/105/105 107/107/107
f 107/107/107 105/105/105 106/106/106
f 109/109/109 111/111/111 112/112/112
f 109/109/109 110/110/110 111/111/111
f 113/113/113 115/115/115 116/116/116
f 115/115/115 113/113/113 114/114/114
f 117/117/117 118/118/118 119/119/119
f 120/120/120 121/121/121 122/122/122
f 123/123/123 124/124/124 125/125/125
f 126/126/126 127/127/127 128/128/128
f 129/129/129 130/130/130 131/131/131
f 132/132/132 133/133/133 134/134/134
f 135/135/135 136/136/136 137/137/137
f 139/139/139 140/140/140 138/138/138
f 138/138/138 140/140/140 141/141/141
f 143/143/143 144/144/144 142/142/142
f 142/142/142 144/144/144 145/145/145
f 146/146/146 148/148/148 149/149/149
f 146/146/146 147/147/147 148/148/148
f 151/151/151 152/152/152 153/153/153
f 150/150/150 151/151/151 153/153/153
f 154/154/154 155/155/155 156/156/156
f 157/157/157 158/158/158 159/159/159
f 160/160/160 161/161/161 162/162/162
f 163/163/163 164/164/164 165/165/165
f 166/166/166 168/168/168 169/169/169
f 168/168/168 166/166/166 167/167/167
f 170/170/170 172/172/172 173/173/173
f 170/170/170 171/171/171 172/172/172
f 176/176/176 177/177/177 175/175/175
f 174/174/174 175/175/175 177/177/177
f 178/178/178 179/179/179 180/180/180
f 181/181/181 182/182/182 183/183/183
f 184/184/184 185/185/185 186/186/186
f 189/189/189 187/187/187 188/188/188
f 187/187/187 189/189/189 190/190/190
f 194/194/194 192/192/192 193/193/193
f 194/194/194 191/191/191 192/192/192
f 196/196/196 197/197/197 195/195/195
f 195/195/195 197/197/197 198/198/198
f 200/200/200 201/201/201 202/202/202
f 199/199/199 200/200/200 202/202/202
f 203/203/203 204/204/204 205/205/205
f 206/206/206 207/207/207 208/208/208
f 209/209/209 210/210/210 211/211/211
f 212/212/212 213/213/213 214/214/214
f 215/215/215 216/216/216 217/217/217
f 218/218/218 219/219/219 220/220/220
f 221/221/221 222/222/222 223/223/223
f 224/224/224 225/225/225 226/226/226
f 227/227/227 228/228/228 229/229/229
f 230/230/230 231/231/231 232/232/232
f 235/235/235 255/255/255 256/256/256
f 253/253/253 254/254/254 255/255/255
f 233/233/233 234/234/234 235/235/235
f 233/233/233 235/235/235 256/256/256
f 235/235/235 236/236/236 238/238/238
f 236/236/236 237/237/237 238/238/238
f 251/251/251 253/253/253 255/255/255
f 235/235/235 238/238/238 249/249/249
f 244/244/244 242/242/242 243/243/243
f 239/239/239 240/240/240 241/241/241
f 239/239/239 241/241/241 245/245/245
f 241/241/241 242/242/242 245/245/245
f 251/251/251 252/252/252 253/253/253
f 238/238/238 239/239/239 248/248/248
f 242/242/242 244/244/244 245/245/245
f 239/239/239 245/245/245 246/246/246
f 239/239/239 246/246/246 247/247/247
f 239/239/239 247/247/247 248/248/248
f 238/238/238 248/248/248 249/249/249
f 255/255/255 249/249/249 251/251/251
f 235/235/235 249/249/249 255/255/255
f 249/249/249 250/250/250 251/251/251
