v -1.031799 5.916758 -6.999492
v 6.678201 5.925758 -1.990492
v 6.751201 5.916758 -2.106492
v -1.031799 5.916758 -6.999492
v 3.729201 5.923758 2.702508
v 6.678201 5.925758 -1.990492
v 0.9052007 5.920384 -1.131492
v 2.632201 5.922768 2.003508
v 3.729201 5.923758 2.702508
v 0.3922007 5.920345 -0.4124923
v 2.240529 5.922764 2.617737
v 0.9052007 5.920384 -1.131492
v 0.9052007 5.920384 -1.131492
v 2.240529 5.922764 2.617737
v 2.632201 5.922768 2.003508
v -1.031799 5.916758 -6.999492
v 0.9052007 5.920384 -1.131492
v 3.729201 5.923758 2.702508
v -1.031799 5.916758 -6.999492
v -0.1567993 5.919832 -0.8044923
v 0.3562007 5.919871 -1.523492
v -1.031799 5.916758 -6.999492
v 0.3562007 5.919871 -1.523492
v 0.9052007 5.920384 -1.131492
v -6.754799 5.916758 2.105508
v 0.3922007 5.920345 -0.4124923
v -0.1567993 5.919832 -0.8044923
v -6.754799 5.916758 2.105508
v -0.1567993 5.919832 -0.8044923
v -1.031799 5.916758 -6.999492
v -6.754799 5.916758 2.105508
v 2.240529 5.922764 2.617737
v 0.3922007 5.920345 -0.4124923
v -6.754799 5.916758 2.105508
v 2.097201 5.922764 2.842508
v 2.240529 5.922764 2.617737
v -6.754799 5.916758 2.105508
v 3.194201 5.923758 3.541508
v 2.097201 5.922764 2.842508
v -6.754799 5.916758 2.105508
v 1.029201 5.922758 6.998507
v 3.194201 5.923758 3.541508
v 2.852201 6.723758 2.756508
v 3.194201 6.200758 3.541508
v 3.729201 6.200758 2.702508
v 2.632201 6.199758 2.003508
v 2.852201 6.723758 2.756508
v 3.729201 6.200758 2.702508
v 2.097201 6.199758 2.842508
v 3.194201 6.200758 3.541508
v 2.852201 6.723758 2.756508
v 2.097201 6.199758 2.842508
v 2.852201 6.723758 2.756508
v 2.632201 6.199758 2.003508
v -0.1567993 6.758758 -0.8044923
v 0.9052007 6.758758 -1.131492
v 0.3562007 6.759758 -1.523492
v -0.1567993 6.758758 -0.8044923
v 0.3922007 6.759758 -0.4124923
v 0.9052007 6.758758 -1.131492
v 1.029201 -5.931917 6.998507
v 3.194201 -5.931917 3.541508
v 3.194201 5.923758 3.541508
v 1.029201 5.922758 6.998507
v 3.461701 -5.931917 3.122008
v 3.729201 -5.931917 2.702508
v 3.729201 5.923758 2.702508
v 3.194201 5.923758 3.541508
v 3.194201 -5.931917 3.541508
v 3.461701 -5.931917 3.122008
v 3.194201 5.923758 3.541508
v 3.461701 -5.931917 3.122008
v 3.729201 5.923758 2.702508
v 3.729201 -5.931917 2.702508
v 6.678201 -5.931917 -1.990492
v 6.678201 5.925758 -1.990492
v 3.729201 5.923758 2.702508
v 6.678201 -5.931917 -1.990492
v 6.751201 -5.931917 -2.106492
v 6.751201 5.916758 -2.106492
v 6.678201 5.925758 -1.990492
v 3.194201 5.923758 3.541508
v 3.729201 5.923758 2.702508
v 3.729201 6.200758 2.702508
v 3.194201 6.200758 3.541508
v -1.031799 5.916758 -6.999492
v 6.751201 5.916758 -2.106492
v 6.751201 -5.931917 -2.106492
v -1.031799 -5.931917 -6.999492
v -6.754799 5.916758 2.105508
v -1.031799 5.916758 -6.999492
v -1.031799 -5.931917 -6.999492
v -6.754799 -5.931917 2.105508
v -6.754799 -5.931917 2.105508
v 1.029201 -5.931917 6.998507
v 1.029201 5.922758 6.998507
v -6.754799 5.916758 2.105508
v 2.632201 6.199758 2.003508
v 3.729201 6.200758 2.702508
v 3.729201 5.923758 2.702508
v 2.632201 5.922768 2.003508
v 2.097201 5.922764 2.842508
v 3.194201 5.923758 3.541508
v 3.194201 6.200758 3.541508
v 2.097201 6.199758 2.842508
v 2.097201 6.199758 2.842508
v 2.240529 5.922764 2.617737
v 2.097201 5.922764 2.842508
v 2.240529 5.922764 2.617737
v 2.632201 6.199758 2.003508
v 2.632201 5.922768 2.003508
v 2.097201 6.199758 2.842508
v 2.632201 6.199758 2.003508
v 2.240529 5.922764 2.617737
v -0.1567993 5.919832 -0.8044923
v 0.3922007 5.920345 -0.4124923
v 0.3922007 6.759758 -0.4124923
v -0.1567993 6.758758 -0.8044923
v 0.3922007 5.920345 -0.4124923
v 0.9052007 5.920384 -1.131492
v 0.9052007 6.758758 -1.131492
v 0.3922007 6.759758 -0.4124923
v 0.3562007 6.759758 -1.523492
v 0.9052007 6.758758 -1.131492
v 0.9052007 5.920384 -1.131492
v 0.3562007 5.919871 -1.523492
v -0.1567993 6.758758 -0.8044923
v 0.3562007 6.759758 -1.523492
v 0.3562007 5.919871 -1.523492
v -0.1567993 5.919832 -0.8044923
v 1.029201 -5.931917 6.998507
v -6.754799 -5.931917 2.105508
v -1.031799 -5.931917 -6.999492
v 6.751201 -5.931917 -2.106492
v 6.678201 -5.931917 -1.990492
v 3.729201 -5.931917 2.702508
v 3.461701 -5.931917 3.122008
v 3.194201 -5.931917 3.541508
vt 0.002439 0.184193
vt 0.210804 0.433836
vt 0.206035 0.436199
vt 0.002439 0.184193
vt 0.408788 0.339905
vt 0.210804 0.433836
vt 0.248460 0.247994
vt 0.379713 0.304387
vt 0.408788 0.339905
vt 0.278805 0.231629
vt 0.405624 0.291908
vt 0.248460 0.247994
vt 0.248460 0.247994
vt 0.405624 0.291908
vt 0.379713 0.304387
vt 0.002439 0.184193
vt 0.248460 0.247994
vt 0.408788 0.339905
vt 0.002439 0.184193
vt 0.262481 0.213843
vt 0.232137 0.230208
vt 0.002439 0.184193
vt 0.232137 0.230208
vt 0.248460 0.247994
vt 0.386506 0.001869
vt 0.278805 0.231629
vt 0.262481 0.213843
vt 0.386506 0.001869
vt 0.262481 0.213843
vt 0.002439 0.184193
vt 0.386506 0.001869
vt 0.405624 0.291908
vt 0.278805 0.231629
vt 0.386506 0.001869
vt 0.415106 0.287341
vt 0.405624 0.291908
vt 0.386506 0.001869
vt 0.444180 0.322860
vt 0.415106 0.287341
vt 0.386506 0.001869
vt 0.590019 0.253898
vt 0.444180 0.322860
vt 0.760976 0.747664
vt 0.798737 0.760360
vt 0.765276 0.776477
vt 0.623767 0.781678
vt 0.585366 0.777236
vt 0.595063 0.747664
vt 0.676026 0.747664
vt 0.703729 0.781487
vt 0.665854 0.773236
vt 0.809467 0.773376
vt 0.804878 0.747664
vt 0.843378 0.756732
vt 0.738746 0.747664
vt 0.725363 0.780192
vt 0.709756 0.763246
vt 0.738746 0.747664
vt 0.754327 0.764601
vt 0.725363 0.780192
vt 0.540850 0.797831
vt 0.397189 0.865538
vt 0.240496 0.816363
vt 0.386279 0.747664
vt 0.379755 0.873905
vt 0.362322 0.882272
vt 0.205116 0.833343
vt 0.240496 0.816363
vt 0.397189 0.865538
vt 0.379755 0.873905
vt 0.240496 0.816363
vt 0.379755 0.873905
vt 0.205116 0.833343
vt 0.362322 0.882272
vt 0.167303 0.974497
vt 0.007207 0.926917
vt 0.205116 0.833343
vt 0.167303 0.974497
vt 0.162483 0.976780
vt 0.002439 0.929270
vt 0.007207 0.926917
vt 0.240496 0.816363
vt 0.205116 0.833343
vt 0.201388 0.832183
vt 0.236779 0.815196
vt 0.214462 0.742957
vt 0.002439 0.490523
vt 0.185810 0.441121
vt 0.394709 0.689848
vt 0.400000 0.630353
vt 0.789235 0.441121
vt 0.968537 0.495647
vt 0.585048 0.682077
vt 0.752640 0.001869
vt 0.954338 0.249200
vt 0.799713 0.303290
vt 0.595122 0.052296
vt 0.574807 0.782833
vt 0.546341 0.748818
vt 0.550495 0.747664
vt 0.578950 0.781667
vt 0.632753 0.747664
vt 0.660075 0.781475
vt 0.656600 0.782724
vt 0.629268 0.748901
vt 0.002439 0.997520
vt 0.015684 0.994397
vt 0.006602 0.998738
vt 0.015684 0.994397
vt 0.036351 0.981308
vt 0.040502 0.982532
vt 0.002439 0.997520
vt 0.036351 0.981308
vt 0.015684 0.994397
vt 0.908133 0.747664
vt 0.923265 0.763996
vt 0.912703 0.767563
vt 0.897561 0.751212
vt 0.085991 0.984636
vt 0.057213 0.999578
vt 0.046341 0.996269
vt 0.075136 0.981308
vt 0.945014 0.767556
vt 0.929268 0.751125
vt 0.941550 0.747664
vt 0.957301 0.764071
vt 0.848781 0.763341
vt 0.878025 0.747664
vt 0.890550 0.751335
vt 0.861323 0.766992
vt 0.092683 0.981308
vt 0.092683 0.981308
vt 0.092683 0.981308
vt 0.092683 0.981308
vt 0.092683 0.981308
vt 0.092683 0.981308
vt 0.092683 0.981308
vt 0.092683 0.981308
vn 0.03487442 0.997851 -0.05547264
vn 0.03487442 0.997851 -0.05547264
vn 0.03487442 0.997851 -0.05547264
vn -0.001025521 0.9999995 -0.0002182531
vn -0.001025521 0.9999995 -0.0002182531
vn -0.001025521 0.9999995 -0.0002182531
vn -0.0006446192 0.9999997 -0.0004051681
vn -0.0006446192 0.9999997 -0.0004051681
vn -0.0006446192 0.9999997 -0.0004051681
vn -0.0006446175 0.9999997 -0.0004051722
vn -0.0006446175 0.9999997 -0.0004051722
vn -0.0006446175 0.9999997 -0.0004051722
vn -0.0006446013 0.9999997 -0.000405178
vn -0.0006446013 0.9999997 -0.000405178
vn -0.0006446013 0.9999997 -0.000405178
vn -0.0006446086 0.9999997 -0.0004051759
vn -0.0006446086 0.9999997 -0.0004051759
vn -0.0006446086 0.9999997 -0.0004051759
vn -0.0006446189 0.9999997 -0.0004051731
vn -0.0006446189 0.9999997 -0.0004051731
vn -0.0006446189 0.9999997 -0.0004051731
vn -0.0006446105 0.9999997 -0.0004051753
vn -0.0006446105 0.9999997 -0.0004051753
vn -0.0006446105 0.9999997 -0.0004051753
vn -0.0006446113 0.9999997 -0.000405174
vn -0.0006446113 0.9999997 -0.000405174
vn -0.0006446113 0.9999997 -0.000405174
vn -0.0006446114 0.9999997 -0.0004051742
vn -0.0006446114 0.9999997 -0.0004051742
vn -0.0006446114 0.9999997 -0.0004051742
vn -0.0006446119 0.9999997 -0.0004051756
vn -0.0006446119 0.9999997 -0.0004051756
vn -0.0006446119 0.9999997 -0.0004051756
vn -0.0006442893 0.9999997 -0.00041084
vn -0.0006442893 0.9999997 -0.00041084
vn -0.0006442893 0.9999997 -0.00041084
vn -0.0006442897 0.9999997 -0.0004108353
vn -0.0006442897 0.9999997 -0.0004108353
vn -0.0006442897 0.9999997 -0.0004108353
vn -0.0006835518 0.9999998 -0.0001388169
vn -0.0006835518 0.9999998 -0.0001388169
vn -0.0006835518 0.9999998 -0.0001388169
vn 0.499874 0.8053095 0.3187516
vn 0.499874 0.8053095 0.3187516
vn 0.499874 0.8053095 0.3187516
vn 0.3819744 0.702518 -0.6004698
vn 0.3819744 0.702518 -0.6004698
vn 0.3819744 0.702518 -0.6004698
vn -0.3971948 0.6744414 0.6223866
vn -0.3971948 0.6744414 0.6223866
vn -0.3971948 0.6744414 0.6223866
vn -0.5597166 0.7478849 -0.3569111
vn -0.5597166 0.7478849 -0.3569111
vn -0.5597166 0.7478849 -0.3569111
vn 0.0005488161 0.9999983 0.001782393
vn 0.0005488161 0.9999983 0.001782393
vn 0.0005488161 0.9999983 0.001782393
vn -0.0005488161 0.9999983 -0.001782393
vn -0.0005488161 0.9999983 -0.001782393
vn -0.0005488161 0.9999983 -0.001782393
vn 0.8475159 0 0.53077
vn 0.8475159 0 0.53077
vn 0.8475159 0 0.53077
vn 0.8475159 0 0.53077
vn 0.8431646 0 0.5376556
vn 0.8431646 0 0.5376556
vn 0.8431646 0 0.5376556
vn 0.8431646 0 0.5376556
vn 0.8431646 0 0.5376556
vn 0.8431646 0 0.5376556
vn 0.8431646 -2.069837E-12 0.5376556
vn 0.8431646 -2.069837E-12 0.5376556
vn 0.8431646 -2.069837E-12 0.5376556
vn 0.8467085 0 0.532057
vn 0.8467085 0 0.532057
vn 0.8467085 0 0.532057
vn 0.8467085 0 0.532057
vn 0.8463547 0 0.5326197
vn 0.8463547 0 0.5326197
vn 0.8463547 0 0.5326197
vn 0.8463547 0 0.5326197
vn 0.8431646 0 0.5376556
vn 0.8431646 0 0.5376556
vn 0.8431646 0 0.5376556
vn 0.8431646 0 0.5376556
vn 0.5322362 0 -0.8465959
vn 0.5322362 0 -0.8465959
vn 0.5322362 0 -0.8465959
vn 0.5322362 0 -0.8465959
vn -0.8466426 0 -0.532162
vn -0.8466426 0 -0.532162
vn -0.8466426 0 -0.532162
vn -0.8466426 0 -0.532162
vn -0.5321872 0 0.8466268
vn -0.5321872 0 0.8466268
vn -0.5321872 0 0.8466268
vn -0.5321872 0 0.8466268
vn 0.5373728 0 -0.8433448
vn 0.5373728 0 -0.8433448
vn 0.5373728 0 -0.8433448
vn 0.5373728 0 -0.8433448
vn -0.5373728 0 0.8433448
vn -0.5373728 0 0.8433448
vn -0.5373728 0 0.8433448
vn -0.5373728 0 0.8433448
vn -0.8431646 0 -0.5376556
vn -0.8431646 0 -0.5376556
vn -0.8431646 0 -0.5376556
vn -0.8431646 0 -0.5376556
vn -0.8431646 0 -0.5376556
vn -0.8431646 0 -0.5376556
vn -0.8431646 5.698079E-09 -0.5376556
vn -0.8431646 5.698079E-09 -0.5376556
vn -0.8431646 5.698079E-09 -0.5376556
vn -0.581098 0 0.8138336
vn -0.581098 0 0.8138336
vn -0.581098 0 0.8138336
vn -0.581098 0 0.8138336
vn 0.8140393 0 0.5808097
vn 0.8140393 0 0.5808097
vn 0.8140393 0 0.5808097
vn 0.8140393 0 0.5808097
vn 0.581098 0 -0.8138336
vn 0.581098 0 -0.8138336
vn 0.581098 0 -0.8138336
vn 0.581098 0 -0.8138336
vn -0.8140393 0 -0.5808097
vn -0.8140393 0 -0.5808097
vn -0.8140393 0 -0.5808097
vn -0.8140393 0 -0.5808097
vn 0 -1 0
vn 0 -1 0
vn 0 -1 0
vn 0 -1 0
vn 0 -1 0
vn 0 -1 0
vn 0 -1 0
vn 0 -1 0

g CDNNDG02_0002170
f 1/1/1 2/2/2 3/3/3
f 4/4/4 5/5/5 6/6/6
f 7/7/7 8/8/8 9/9/9
f 10/10/10 11/11/11 12/12/12
f 13/13/13 14/14/14 15/15/15
f 16/16/16 17/17/17 18/18/18
f 19/19/19 20/20/20 21/21/21
f 22/22/22 23/23/23 24/24/24
f 25/25/25 26/26/26 27/27/27
f 28/28/28 29/29/29 30/30/30
f 31/31/31 32/32/32 33/33/33
f 34/34/34 35/35/35 36/36/36
f 37/37/37 38/38/38 39/39/39
f 40/40/40 41/41/41 42/42/42
f 43/43/43 44/44/44 45/45/45
f 46/46/46 47/47/47 48/48/48
f 49/49/49 50/50/50 51/51/51
f 52/52/52 53/53/53 54/54/54
f 55/55/55 56/56/56 57/57/57
f 58/58/58 59/59/59 60/60/60
f 62/62/62 63/63/63 64/64/64
f 61/61/61 62/62/62 64/64/64
f 65/65/65 66/66/66 67/67/67
f 68/68/68 69/69/69 70/70/70
f 71/71/71 72/72/72 73/73/73
f 75/75/75 76/76/76 77/77/77
f 74/74/74 75/75/75 77/77/77
f 79/79/79 80/80/80 78/78/78
f 78/78/78 80/80/80 81/81/81
f 85/85/85 82/82/82 83/83/83
f 83/83/83 84/84/84 85/85/85
f 89/89/89 86/86/86 88/88/88
f 87/87/87 88/88/88 86/86/86
f 90/90/90 92/92/92 93/93/93
f 90/90/90 91/91/91 92/92/92
f 95/95/95 96/96/96 97/97/97
f 97/97/97 94/94/94 95/95/95
f 98/98/98 100/100/100 101/101/101
f 98/98/98 99/99/99 100/100/100
f 105/105/105 103/103/103 104/104/104
f 105/105/105 102/102/102 103/103/103
f 106/106/106 107/107/107 108/108/108
f 109/109/109 110/110/110 111/111/111
f 112/112/112 113/113/113 114/114/114
f 116/116/116 117/117/117 118/118/118
f 115/115/115 116/116/116 118/118/118
f 122/122/122 119/119/119 121/121/121
f 120/120/120 121/121/121 119/119/119
f 124/124/124 125/125/125 126/126/126
f 123/123/123 124/124/124 126/126/126
f 127/127/127 129/129/129 130/130/130
f 129/129/129 127/127/127 128/128/128
f 138/138/138 132/132/132 137/137/137
f 137/137/137 132/132/132 136/136/136
f 135/135/135 133/133/133 134/134/134
f 138/138/138 131/131/131 132/132/132
f 135/135/135 136/136/136 133/133/133
f 133/133/133 136/136/136 132/132/132
