v -2.957216 5.910279 5.15444
v -0.2482156 5.910279 6.88744
v -0.07221555 5.910279 6.85944
v -2.957216 5.910279 5.15444
v -0.07221555 5.910279 6.85944
v 4.71343 5.910279 -4.092485
v -0.07221555 5.910279 6.85944
v 5.013784 5.910279 -4.45456
v 4.761785 5.910279 -4.06156
v -0.07221555 5.910279 6.85944
v 4.761785 5.910279 -4.06156
v 4.71343 5.910279 -4.092485
v -0.07221555 5.910279 6.85944
v 6.536785 5.910279 -3.47756
v 5.013784 5.910279 -4.45456
v -0.2482156 5.910279 6.88744
v -0.1362156 5.910279 6.95944
v -0.07221555 5.910279 6.85944
v -4.827216 5.910279 0.5204397
v 4.529833 5.910279 -4.209904
v 2.192785 5.910279 -5.70456
v -4.827216 5.910279 0.5204397
v 2.192785 5.910279 -5.70456
v 2.443784 5.910279 -6.09756
v -6.387216 5.910279 2.96144
v -2.957216 5.910279 5.15444
v -4.827216 5.910279 0.5204397
v 0.1187844 5.910279 -7.21456
v 2.443784 5.910279 -6.09756
v 0.2867844 5.910279 -7.47656
v -2.957216 5.910279 5.15444
v 4.71343 5.910279 -4.092485
v 4.529833 5.910279 -4.209904
v -4.827216 5.910279 0.5204397
v -2.957216 5.910279 5.15444
v 4.529833 5.910279 -4.209904
v -4.827216 5.910279 0.5204397
v 2.443784 5.910279 -6.09756
v 0.1187844 5.910279 -7.21456
v 2.443784 6.403279 -6.09756
v 4.761785 6.404279 -4.06156
v 5.013784 6.404279 -4.45456
v 2.192785 6.404279 -5.70456
v 4.761785 6.404279 -4.06156
v 2.443784 6.403279 -6.09756
v -2.957216 5.291278 5.15444
v -0.9072155 5.078279 7.91744
v -0.2482156 5.291278 6.88744
v -3.616215 5.078279 6.18444
v -0.9072155 5.078279 7.91744
v -2.957216 5.291278 5.15444
v -6.387216 5.910279 2.96144
v -2.957216 5.291278 5.15444
v -2.957216 5.910279 5.15444
v -6.387216 -5.889958 2.96144
v -2.957216 -5.889958 5.15444
v -2.957216 5.291278 5.15444
v -6.387216 5.910279 2.96144
v -2.957216 5.291278 5.15444
v -0.2482156 5.291278 6.88744
v -0.2482156 5.910279 6.88744
v -2.957216 5.910279 5.15444
v -0.2482156 -5.889958 6.88744
v -0.1362156 -5.889958 6.95944
v -0.1362156 5.910279 6.95944
v -0.2482156 5.291278 6.88744
v -0.2482156 5.910279 6.88744
v -0.2482156 5.291278 6.88744
v -0.1362156 5.910279 6.95944
v -0.1042156 -5.889958 6.90944
v -0.07221555 -5.889958 6.85944
v -0.07221555 5.910279 6.85944
v -0.1362156 5.910279 6.95944
v -0.1362156 -5.889958 6.95944
v -0.1042156 -5.889958 6.90944
v -0.1362156 5.910279 6.95944
v -0.1042156 -5.889958 6.90944
v -0.07221555 5.910279 6.85944
v -0.07221555 -5.889958 6.85944
v 6.536785 -5.889958 -3.47756
v 6.536785 5.910279 -3.47756
v -0.07221555 5.910279 6.85944
v 5.013784 5.910279 -4.45456
v 6.536785 5.910279 -3.47756
v 6.536785 -5.889958 -3.47756
v 5.013784 -5.889958 -4.45456
v 2.443784 5.910279 -6.09756
v 5.013784 5.910279 -4.45456
v 5.013784 -5.889958 -4.45456
v 2.443784 -5.889958 -6.09756
v 0.2867844 5.910279 -7.47656
v 2.443784 5.910279 -6.09756
v 2.443784 -5.889958 -6.09756
v 0.2867844 -5.889958 -7.47656
v 2.443784 6.403279 -6.09756
v 5.013784 6.404279 -4.45456
v 5.013784 5.910279 -4.45456
v 2.443784 5.910279 -6.09756
v 0.1187844 5.910279 -7.21456
v 0.2867844 5.910279 -7.47656
v 0.2867844 -5.889958 -7.47656
v 0.1187844 -5.889958 -7.21456
v -4.827216 5.910279 0.5204397
v 0.1187844 5.910279 -7.21456
v 0.1187844 -5.889958 -7.21456
v -4.827216 -5.889958 0.5204397
v -6.387216 5.910279 2.96144
v -4.827216 5.910279 0.5204397
v -4.827216 -5.889958 0.5204397
v -6.387216 -5.889958 2.96144
v 4.71343 5.910279 -4.092485
v 4.761785 5.910279 -4.06156
v 4.761785 6.404279 -4.06156
v 4.529833 5.910279 -4.209904
v 4.71343 5.910279 -4.092485
v 4.761785 6.404279 -4.06156
v 2.192785 5.910279 -5.70456
v 4.529833 5.910279 -4.209904
v 4.761785 6.404279 -4.06156
v 2.192785 6.404279 -5.70456
v 4.761785 5.910279 -4.06156
v 5.013784 5.910279 -4.45456
v 5.013784 6.404279 -4.45456
v 4.761785 6.404279 -4.06156
v 2.192785 6.404279 -5.70456
v 2.443784 6.403279 -6.09756
v 2.443784 5.910279 -6.09756
v 2.192785 5.910279 -5.70456
v -3.616215 -5.889958 6.18444
v -0.9072155 -5.889958 7.91744
v -0.9072155 5.078279 7.91744
v -3.616215 5.078279 6.18444
v -0.5777156 -5.889958 7.40244
v -0.2482156 -5.889958 6.88744
v -0.2482156 5.291278 6.88744
v -0.9072155 5.078279 7.91744
v -0.9072155 -5.889958 7.91744
v -0.5777156 -5.889958 7.40244
v -0.9072155 5.078279 7.91744
v -0.5777156 -5.889958 7.40244
v -0.2482156 5.291278 6.88744
v -3.616215 5.078279 6.18444
v -2.957216 5.291278 5.15444
v -2.957216 -5.889958 5.15444
v -3.616215 -5.889958 6.18444
v -3.616215 -5.889958 6.18444
v -2.957216 -5.889958 5.15444
v -6.387216 -5.889958 2.96144
v -4.827216 -5.889958 0.5204397
v 0.1187844 -5.889958 -7.21456
v 0.2867844 -5.889958 -7.47656
v 2.443784 -5.889958 -6.09756
v 5.013784 -5.889958 -4.45456
v 6.536785 -5.889958 -3.47756
v -0.07221555 -5.889958 6.85944
v -0.1042156 -5.889958 6.90944
v -0.1362156 -5.889958 6.95944
v -0.2482156 -5.889958 6.88744
v -0.5777156 -5.889958 7.40244
v -0.9072155 -5.889958 7.91744
vt 0.076446 0.290470
vt 0.005432 0.204235
vt 0.006862 0.198762
vt 0.076446 0.290470
vt 0.006862 0.198762
vt 0.483759 0.059344
vt 0.006862 0.198762
vt 0.499708 0.050294
vt 0.482492 0.057805
vt 0.006862 0.198762
vt 0.482492 0.057805
vt 0.483759 0.059344
vt 0.006862 0.198762
vt 0.459671 0.001805
vt 0.499708 0.050294
vt 0.005432 0.204235
vt 0.002481 0.200669
vt 0.006862 0.198762
vt 0.273222 0.353167
vt 0.488570 0.065189
vt 0.549810 0.139588
vt 0.273222 0.353167
vt 0.549810 0.139588
vt 0.567025 0.132108
vt 0.166302 0.399651
vt 0.076446 0.290470
vt 0.273222 0.353167
vt 0.612046 0.205780
vt 0.567025 0.132108
vt 0.623523 0.200773
vt 0.076446 0.290470
vt 0.483759 0.059344
vt 0.488570 0.065189
vt 0.273222 0.353167
vt 0.076446 0.290470
vt 0.488570 0.065189
vt 0.273222 0.353167
vt 0.567025 0.132108
vt 0.612046 0.205780
vt 0.673064 0.806221
vt 0.590571 0.733031
vt 0.607373 0.725632
vt 0.656267 0.813590
vt 0.590571 0.733031
vt 0.673064 0.806221
vt 0.508328 0.810186
vt 0.389578 0.747729
vt 0.434045 0.725632
vt 0.463841 0.832261
vt 0.389578 0.747729
vt 0.508328 0.810186
vt 0.203266 0.922846
vt 0.106865 0.818779
vt 0.108407 0.814634
vt 0.172885 0.999172
vt 0.079416 0.892548
vt 0.106865 0.818779
vt 0.203266 0.922846
vt 0.106865 0.818779
vt 0.031959 0.733377
vt 0.033443 0.729165
vt 0.108407 0.814634
vt 0.005550 0.808334
vt 0.002481 0.804852
vt 0.030329 0.725632
vt 0.031959 0.733377
vt 0.033443 0.729165
vt 0.031959 0.733377
vt 0.030329 0.725632
vt 0.004626 0.597501
vt 0.006771 0.596570
vt 0.036172 0.719786
vt 0.031820 0.721675
vt 0.002481 0.598432
vt 0.004626 0.597501
vt 0.031820 0.721675
vt 0.004626 0.597501
vt 0.036172 0.719786
vt 0.006771 0.596570
vt 0.450183 0.404332
vt 0.486069 0.524741
vt 0.036172 0.719786
vt 0.705311 0.170343
vt 0.665898 0.122218
vt 0.630273 0.001805
vt 0.669118 0.049238
vt 0.771578 0.251546
vt 0.705311 0.170343
vt 0.669118 0.049238
vt 0.734430 0.129272
vt 0.827196 0.319698
vt 0.771578 0.251546
vt 0.734430 0.129272
vt 0.789247 0.196443
vt 0.773154 0.256732
vt 0.706849 0.175490
vt 0.705311 0.170343
vt 0.771578 0.251546
vt 0.963496 0.409660
vt 0.974866 0.404332
vt 0.937625 0.483790
vt 0.926422 0.489040
vt 0.627836 0.566521
vt 0.963496 0.409660
vt 0.926422 0.489040
vt 0.595684 0.643598
vt 0.521914 0.615994
vt 0.627836 0.566521
vt 0.595684 0.643598
vt 0.491315 0.692345
vt 0.681210 0.730551
vt 0.679901 0.729047
vt 0.681349 0.725632
vt 0.686180 0.736260
vt 0.681210 0.730551
vt 0.681349 0.725632
vt 0.749446 0.808938
vt 0.686180 0.736260
vt 0.681349 0.725632
vt 0.750938 0.805573
vt 0.756824 0.732177
vt 0.771868 0.725632
vt 0.773231 0.730161
vt 0.758177 0.736710
vt 0.780506 0.732496
vt 0.795513 0.725632
vt 0.794156 0.728576
vt 0.779156 0.735442
vt 0.281391 0.882305
vt 0.208437 0.798500
vt 0.233419 0.725632
vt 0.307381 0.810595
vt 0.334119 0.735142
vt 0.355583 0.725632
vt 0.382611 0.841466
vt 0.338579 0.858508
vt 0.312655 0.744652
vt 0.334119 0.735142
vt 0.338579 0.858508
vt 0.334119 0.735142
vt 0.382611 0.841466
vt 0.539399 0.747651
vt 0.583299 0.725632
vt 0.556437 0.798485
vt 0.513648 0.818816
vt 0.801489 0.725632
vt 0.801489 0.725632
vt 0.801489 0.725632
vt 0.801489 0.725632
vt 0.801489 0.725632
vt 0.801489 0.725632
vt 0.801489 0.725632
vt 0.801489 0.725632
vt 0.801489 0.725632
vt 0.801489 0.725632
vt 0.801489 0.725632
vt 0.801489 0.725632
vt 0.801489 0.725632
vt 0.801489 0.725632
vt 0.801489 0.725632
vn 0 1 0
vn 0 1 0
vn 0 1 0
vn 0 1 0
vn 0 1 0
vn 0 1 0
vn 0 1 0
vn 0 1 0
vn 0 1 0
vn 0 1 0
vn 0 1 0
vn 0 1 0
vn 0 1 0
vn 0 1 0
vn 0 1 0
vn 0 1 0
vn 0 1 0
vn 0 1 0
vn 0 1 0
vn 0 1 0
vn 0 1 0
vn 0 1 0
vn 0 1 0
vn 0 1 0
vn 0 1 0
vn 0 1 0
vn 0 1 0
vn 0 1 0
vn 0 1 0
vn 0 1 0
vn 0 1 0
vn 0 1 0
vn 0 1 0
vn 0 1 0
vn 0 1 0
vn 0 1 0
vn 0 1 0
vn 0 1 0
vn 0 1 0
vn -0.0002759742 0.9999999 -0.0001769606
vn -0.0002759742 0.9999999 -0.0001769606
vn -0.0002759742 0.9999999 -0.0001769606
vn 0.001155404 0.9999977 -0.001806594
vn 0.001155404 0.9999977 -0.001806594
vn 0.001155404 0.9999977 -0.001806594
vn -0.09247804 0.985165 0.1445603
vn -0.09247804 0.985165 0.1445603
vn -0.09247804 0.985165 0.1445603
vn -0.09247804 0.985165 0.1445603
vn -0.09247804 0.985165 0.1445603
vn -0.09247804 0.985165 0.1445603
vn -0.5386703 0 0.8425167
vn -0.5386703 0 0.8425167
vn -0.5386703 0 0.8425167
vn -0.5386703 0 0.8425167
vn -0.5386703 0 0.8425167
vn -0.5386703 0 0.8425167
vn -0.5386703 0 0.8425167
vn -0.538886 0 0.8423787
vn -0.538886 0 0.8423787
vn -0.538886 0 0.8423787
vn -0.538886 0 0.8423787
vn -0.5407576 0 0.8411785
vn -0.5407576 0 0.8411785
vn -0.5407576 0 0.8411785
vn -0.5407576 0 0.8411785
vn -0.5407576 0 0.8411785
vn -0.5407576 0 0.8411785
vn -0.5407576 0 0.8411785
vn 0.8422714 0 0.5390537
vn 0.8422714 0 0.5390537
vn 0.8422714 0 0.5390537
vn 0.8422714 0 0.5390537
vn 0.8422714 0 0.5390537
vn 0.8422714 0 0.5390537
vn 0.8422714 -2.127215E-11 0.5390537
vn 0.8422714 -2.127215E-11 0.5390537
vn 0.8422714 -2.127215E-11 0.5390537
vn 0.8425185 0 0.5386674
vn 0.8425185 0 0.5386674
vn 0.8425185 0 0.5386674
vn 0.8425185 0 0.5386674
vn 0.5399473 0 -0.8416988
vn 0.5399473 0 -0.8416988
vn 0.5399473 0 -0.8416988
vn 0.5399473 0 -0.8416988
vn 0.538635 0 -0.8425393
vn 0.538635 0 -0.8425393
vn 0.538635 0 -0.8425393
vn 0.538635 0 -0.8425393
vn 0.5386435 0 -0.8425338
vn 0.5386435 0 -0.8425338
vn 0.5386435 0 -0.8425338
vn 0.5386435 0 -0.8425338
vn 0.538635 0 -0.8425393
vn 0.538635 0 -0.8425393
vn 0.538635 0 -0.8425393
vn 0.538635 0 -0.8425393
vn -0.8418043 0 -0.5397829
vn -0.8418043 0 -0.5397829
vn -0.8418043 0 -0.5397829
vn -0.8418043 0 -0.5397829
vn -0.8424889 0 -0.5387137
vn -0.8424889 0 -0.5387137
vn -0.8424889 0 -0.5387137
vn -0.8424889 0 -0.5387137
vn -0.8426223 0 -0.538505
vn -0.8426223 0 -0.538505
vn -0.8426223 0 -0.538505
vn -0.8426223 0 -0.538505
vn -0.5387837 0 0.8424441
vn -0.5387837 0 0.8424441
vn -0.5387837 0 0.8424441
vn -0.5387838 1.116268E-08 0.8424441
vn -0.5387838 1.116268E-08 0.8424441
vn -0.5387838 1.116268E-08 0.8424441
vn -0.5387838 0 0.8424441
vn -0.5387838 4.285057E-09 0.8424441
vn -0.5387838 8.570114E-09 0.8424441
vn -0.5387838 4.285057E-09 0.8424441
vn 0.8418043 0 0.5397829
vn 0.8418043 0 0.5397829
vn 0.8418043 0 0.5397829
vn 0.8418043 0 0.5397829
vn -0.8427773 0 -0.5382624
vn -0.8427773 0 -0.5382624
vn -0.8427773 0 -0.5382624
vn -0.8427773 0 -0.5382624
vn -0.538886 0 0.8423787
vn -0.538886 0 0.8423787
vn -0.538886 0 0.8423787
vn -0.538886 0 0.8423787
vn 0.8423457 0 0.5389376
vn 0.8423457 0 0.5389376
vn 0.8423457 0 0.5389376
vn 0.8423457 0 0.5389376
vn 0.8423457 0 0.5389376
vn 0.8423457 0 0.5389376
vn 0.8423457 2.26608E-11 0.5389376
vn 0.8423457 2.26608E-11 0.5389376
vn 0.8423457 2.26608E-11 0.5389376
vn -0.8423457 0 -0.5389376
vn -0.8423457 0 -0.5389376
vn -0.8423457 0 -0.5389376
vn -0.8423457 0 -0.5389376
vn 0 -1 0
vn 0 -1 0
vn 0 -1 0
vn 0 -1 0
vn 0 -1 0
vn 0 -1 0
vn 0 -1 0
vn 0 -1 0
vn 0 -1 0
vn 0 -1 0
vn 0 -1 0
vn 0 -1 0
vn 0 -1 0
vn 0 -1 0
vn 0 -1 0

g CDNNDG02_0013070
f 1/1/1 2/2/2 3/3/3
f 4/4/4 5/5/5 6/6/6
f 7/7/7 8/8/8 9/9/9
f 10/10/10 11/11/11 12/12/12
f 13/13/13 14/14/14 15/15/15
f 16/16/16 17/17/17 18/18/18
f 19/19/19 20/20/20 21/21/21
f 22/22/22 23/23/23 24/24/24
f 25/25/25 26/26/26 27/27/27
f 28/28/28 29/29/29 30/30/30
f 31/31/31 32/32/32 33/33/33
f 34/34/34 35/35/35 36/36/36
f 37/37/37 38/38/38 39/39/39
f 40/40/40 41/41/41 42/42/42
f 43/43/43 44/44/44 45/45/45
f 46/46/46 47/47/47 48/48/48
f 49/49/49 50/50/50 51/51/51
f 52/52/52 53/53/53 54/54/54
f 55/55/55 57/57/57 58/58/58
f 57/57/57 55/55/55 56/56/56
f 59/59/59 61/61/61 62/62/62
f 59/59/59 60/60/60 61/61/61
f 66/66/66 63/63/63 64/64/64
f 65/65/65 66/66/66 64/64/64
f 67/67/67 68/68/68 69/69/69
f 70/70/70 71/71/71 72/72/72
f 73/73/73 74/74/74 75/75/75
f 76/76/76 77/77/77 78/78/78
f 82/82/82 79/79/79 81/81/81
f 80/80/80 81/81/81 79/79/79
f 85/85/85 83/83/83 84/84/84
f 83/83/83 85/85/85 86/86/86
f 89/89/89 87/87/87 88/88/88
f 87/87/87 89/89/89 90/90/90
f 93/93/93 94/94/94 92/92/92
f 91/91/91 92/92/92 94/94/94
f 98/98/98 95/95/95 97/97/97
f 96/96/96 97/97/97 95/95/95
f 99/99/99 101/101/101 102/102/102
f 99/99/99 100/100/100 101/101/101
f 106/106/106 103/103/103 105/105/105
f 105/105/105 103/103/103 104/104/104
f 108/108/108 109/109/109 110/110/110
f 107/107/107 108/108/108 110/110/110
f 111/111/111 112/112/112 113/113/113
f 114/114/114 115/115/115 116/116/116
f 118/118/118 119/119/119 120/120/120
f 117/117/117 118/118/118 120/120/120
f 124/124/124 121/121/121 123/123/123
f 122/122/122 123/123/123 121/121/121
f 128/128/128 126/126/126 127/127/127
f 128/128/128 125/125/125 126/126/126
f 129/129/129 131/131/131 132/132/132
f 131/131/131 129/129/129 130/130/130
f 133/133/133 134/134/134 135/135/135
f 136/136/136 137/137/137 138/138/138
f 139/139/139 140/140/140 141/141/141
f 142/142/142 144/144/144 145/145/145
f 144/144/144 142/142/142 143/143/143
f 146/146/146 159/159/159 160/160/160
f 146/146/146 147/147/147 159/159/159
f 147/147/147 158/158/158 159/159/159
f 156/156/156 157/157/157 158/158/158
f 147/147/147 148/148/148 149/149/149
f 155/155/155 156/156/156 158/158/158
f 147/147/147 149/149/149 153/153/153
f 147/147/147 155/155/155 158/158/158
f 149/149/149 150/150/150 152/152/152
f 153/153/153 154/154/154 155/155/155
f 150/150/150 151/151/151 152/152/152
f 147/147/147 153/153/153 155/155/155
f 149/149/149 152/152/152 153/153/153
