v -3.75946 3.651713 -0.9697202
v -0.07845968 3.651713 3.88128
v 1.63454 3.885713 2.58128
v -3.75946 3.651713 -0.9697202
v 1.63454 3.885713 2.58128
v -1.94546 3.885713 -2.34472
v -1.94546 3.885713 -2.34472
v 3.76054 3.651713 0.9682798
v 0.08054032 3.651713 -3.88272
v -1.94546 3.885713 -2.34472
v 1.63454 3.885713 2.58128
v 3.76054 3.651713 0.9682798
v -3.75946 -3.77033 -0.9697202
v -0.07845968 -3.77033 3.88128
v -0.07845968 3.651713 3.88128
v -3.75946 3.651713 -0.9697202
v -0.07845968 -3.77033 3.88128
v 1.63454 -3.77033 2.58128
v 1.63454 3.885713 2.58128
v -0.07845968 3.651713 3.88128
v 1.63454 -3.77033 2.58128
v 3.76054 -3.77033 0.9682798
v 3.76054 3.651713 0.9682798
v 1.63454 3.885713 2.58128
v -3.75946 3.651713 -0.9697202
v -1.94546 3.885713 -2.34472
v -1.94546 -3.77033 -2.34472
v -3.75946 -3.77033 -0.9697202
v -1.94546 3.885713 -2.34472
v -0.9324597 -3.77033 -3.11372
v -1.94546 -3.77033 -2.34472
v -0.9324597 -3.77033 -3.11372
v 0.08054032 3.651713 -3.88272
v 0.08054032 -3.77033 -3.88272
v -1.94546 3.885713 -2.34472
v 0.08054032 3.651713 -3.88272
v -0.9324597 -3.77033 -3.11372
v 0.08054032 3.651713 -3.88272
v 3.76054 3.651713 0.9682798
v 3.76054 -3.77033 0.9682798
v 0.08054032 -3.77033 -3.88272
v -1.94546 -3.77033 -2.34472
v -0.9324597 -3.77033 -3.11372
v 0.08054032 -3.77033 -3.88272
v 3.76054 -3.77033 0.9682798
v 1.63454 -3.77033 2.58128
v -0.07845968 -3.77033 3.88128
v -3.75946 -3.77033 -0.9697202
vt 0.112006 0.692568
vt 0.484054 0.901310
vt 0.382328 0.999235
vt 0.112006 0.692568
vt 0.382328 0.999235
vt 0.004505 0.796237
vt 0.117244 0.358108
vt 0.376610 0.683784
vt 0.004505 0.474969
vt 0.117244 0.358108
vt 0.495132 0.561243
vt 0.376610 0.683784
vt 0.615454 0.358108
vt 0.981030 0.566609
vt 0.873399 0.666329
vt 0.504505 0.455938
vt 0.329575 0.131161
vt 0.233243 0.229299
vt 0.121671 0.098373
vt 0.222319 0.003378
vt 0.233243 0.229299
vt 0.113722 0.351095
vt 0.004505 0.225316
vt 0.121671 0.098373
vt 0.495495 0.692568
vt 0.495495 0.692568
vt 0.495495 0.692568
vt 0.495495 0.692568
vt 0.495495 0.692568
vt 0.495495 0.692568
vt 0.495495 0.692568
vt 0.495495 0.692568
vt 0.495495 0.692568
vt 0.495495 0.692568
vt 0.495495 0.692568
vt 0.495495 0.692568
vt 0.495495 0.692568
vt 0.342342 0.003378
vt 0.716041 0.210970
vt 0.825738 0.336700
vt 0.455410 0.130981
vt 0.518018 0.692568
vt 0.518018 0.692568
vt 0.518018 0.692568
vt 0.518018 0.692568
vt 0.518018 0.692568
vt 0.518018 0.692568
vt 0.518018 0.692568
vn -0.08617543 0.9941317 0.065391
vn -0.08617543 0.9941317 0.065391
vn -0.08617543 0.9941317 0.065391
vn -0.08274042 0.9947553 0.06013209
vn -0.08274042 0.9947553 0.06013209
vn -0.08274042 0.9947553 0.06013209
vn 0.07298318 0.9957952 -0.05536551
vn 0.07298318 0.9957952 -0.05536551
vn 0.07298318 0.9957952 -0.05536551
vn 0.07067526 0.9961761 -0.05136367
vn 0.07067526 0.9961761 -0.05136367
vn 0.07067526 0.9961761 -0.05136367
vn -0.7966176 0 0.6044835
vn -0.7966176 0 0.6044835
vn -0.7966176 0 0.6044835
vn -0.7966176 0 0.6044835
vn 0.604529 0 0.7965832
vn 0.604529 0 0.7965832
vn 0.604529 0 0.7965832
vn 0.604529 0 0.7965832
vn 0.6044275 0 0.7966602
vn 0.6044275 0 0.7966602
vn 0.6044275 0 0.7966602
vn 0.6044275 0 0.7966602
vn -0.6040691 0 -0.7969319
vn -0.6040691 0 -0.7969319
vn -0.6040691 0 -0.7969319
vn -0.6040691 0 -0.7969319
vn -0.6046446 0 -0.7964954
vn -0.6046446 0 -0.7964954
vn -0.6046446 0 -0.7964954
vn -0.6046446 0 -0.7964954
vn -0.6046446 0 -0.7964954
vn -0.6046446 0 -0.7964954
vn -0.6046446 -4.686266E-11 -0.7964954
vn -0.6046446 -4.686266E-11 -0.7964954
vn -0.6046446 -4.686266E-11 -0.7964954
vn 0.7966967 0 -0.6043793
vn 0.7966967 0 -0.6043793
vn 0.7966967 0 -0.6043793
vn 0.7966967 0 -0.6043793
vn 0 -1 0
vn 0 -1 0
vn 0 -1 0
vn 0 -1 0
vn 0 -1 0
vn 0 -1 0
vn 0 -1 0

g CDNNDG01_0003480
f 1/1/1 2/2/2 3/3/3
f 4/4/4 5/5/5 6/6/6
f 7/7/7 8/8/8 9/9/9
f 10/10/10 11/11/11 12/12/12
f 13/13/13 14/14/14 15/15/15
f 16/16/16 13/13/13 15/15/15
f 20/20/20 18/18/18 19/19/19
f 20/20/20 17/17/17 18/18/18
f 24/24/24 21/21/21 23/23/23
f 23/23/23 21/21/21 22/22/22
f 25/25/25 27/27/27 28/28/28
f 25/25/25 26/26/26 27/27/27
f 29/29/29 30/30/30 31/31/31
f 32/32/32 33/33/33 34/34/34
f 35/35/35 36/36/36 37/37/37
f 41/41/41 38/38/38 40/40/40
f 40/40/40 38/38/38 39/39/39
f 46/46/46 47/47/47 48/48/48
f 42/42/42 46/46/46 48/48/48
f 42/42/42 43/43/43 46/46/46
f 43/43/43 45/45/45 46/46/46
f 43/43/43 44/44/44 45/45/45
