v -4.110792 6.816961 8.548894
v 6.370208 6.816961 15.18189
v -4.023792 6.816961 8.410893
v -4.023792 6.816961 8.410893
v 6.295208 6.816961 -5.296106
v 5.120208 6.816961 -6.039106
v -4.023792 6.816961 8.410893
v 6.370208 6.816961 15.18189
v 6.295208 6.816961 -5.296106
v 6.295208 6.816961 -5.296106
v 14.38021 6.816961 -1.369106
v 6.367342 6.816961 -5.410151
v 6.295208 6.816961 -5.296106
v 6.370208 6.816961 15.18189
v 14.38021 6.816961 -1.369106
v 6.370208 6.816961 15.18189
v 16.22921 6.816961 3.792894
v 14.38021 6.816961 -1.369106
v 14.38021 6.816961 -1.369106
v 16.22921 6.816961 3.792894
v 16.36102 6.816961 3.648526
v 6.370208 6.816961 15.18189
v 16.52421 6.816961 4.061894
v 16.22921 6.816961 3.792894
v 6.367342 6.816961 -5.410151
v 14.38021 6.816961 -1.369106
v 6.832208 6.816961 -6.145106
v 14.38021 6.816961 -1.369106
v 16.36102 6.816961 3.648526
v 18.53921 6.816961 1.262894
v -19.84979 3.622972 -1.603106
v -9.950792 3.623971 -17.04311
v -10.04279 3.623971 -17.10111
v -19.84979 3.622972 -1.603106
v -4.023792 3.622972 8.410893
v 5.120208 3.623904 -6.039106
v -9.950792 3.623971 -17.04311
v -9.950792 3.623971 -17.04311
v 5.658208 3.623959 -6.889106
v 5.783208 3.623971 -7.087106
v -9.950792 3.623971 -17.04311
v 5.120208 3.623904 -6.039106
v 5.658208 3.623959 -6.889106
v 5.120208 12.62496 -6.039106
v 6.832208 12.62196 -6.145106
v 5.658208 12.62396 -6.889106
v 5.120208 12.62496 -6.039106
v 6.295208 12.62496 -5.296106
v 6.832208 12.62196 -6.145106
v 16.22921 7.326962 3.792894
v 16.52421 7.324962 4.061894
v 18.53921 7.325962 1.262894
v 16.52421 7.324962 4.061894
v 18.62521 7.324962 1.316894
v 18.53921 7.325962 1.262894
v 16.52421 7.324962 4.061894
v 18.88221 7.323961 1.478894
v 18.62521 7.324962 1.316894
v -4.023792 6.816961 8.410893
v 5.120208 6.816961 -6.039106
v 5.120208 3.623904 -6.039106
v -4.023792 3.622972 8.410893
v -4.110792 6.816961 8.548894
v -4.067292 -5.258812 8.479894
v -4.110792 -5.258812 8.548894
v -4.110792 6.816961 8.548894
v -4.023792 6.816961 8.410893
v -4.067292 -5.258812 8.479894
v -4.067292 -5.258812 8.479894
v -4.023792 6.816961 8.410893
v -4.023792 3.622972 8.410893
v -4.067292 -5.258812 8.479894
v -4.023792 3.622972 8.410893
v -4.023792 -5.258812 8.410893
v 5.120208 6.816961 -6.039106
v 5.658208 6.816961 -6.889106
v 5.658208 3.623959 -6.889106
v 5.120208 3.623904 -6.039106
v 5.120208 12.62496 -6.039106
v 5.658208 12.62396 -6.889106
v 5.658208 6.816961 -6.889106
v 5.120208 6.816961 -6.039106
v -4.110792 -5.258812 8.548894
v 6.370208 -5.258812 15.18189
v 6.370208 6.816961 15.18189
v -4.110792 6.816961 8.548894
v 6.370208 -5.258812 15.18189
v 16.52421 -5.258812 4.061894
v 16.52421 6.816961 4.061894
v 6.370208 6.816961 15.18189
v 16.52421 -5.258812 4.061894
v 18.88221 -5.258812 1.478894
v 18.88221 6.816961 1.478894
v 16.52421 6.816961 4.061894
v 16.52421 6.816961 4.061894
v 18.88221 6.816961 1.478894
v 18.88221 7.323961 1.478894
v 16.52421 7.324962 4.061894
v 18.62521 6.816961 1.316894
v 18.88221 6.816961 1.478894
v 18.88221 -5.258812 1.478894
v 18.62521 -5.258812 1.316894
v 18.53921 6.816961 1.262894
v 18.62521 6.816961 1.316894
v 18.62521 -5.258812 1.316894
v 18.53921 -5.258812 1.262894
v 14.38021 6.816961 -1.369106
v 16.45971 -5.258812 -0.05310623
v 14.38021 -5.258812 -1.369106
v 16.45971 -5.258812 -0.05310623
v 18.53921 6.816961 1.262894
v 18.53921 -5.258812 1.262894
v 14.38021 6.816961 -1.369106
v 18.53921 6.816961 1.262894
v 16.45971 -5.258812 -0.05310623
v 6.832208 6.816961 -6.145106
v 14.38021 6.816961 -1.369106
v 14.38021 -5.258812 -1.369106
v 6.832208 -5.258812 -6.145106
v 5.658208 6.816961 -6.889106
v 6.832208 6.816961 -6.145106
v 5.658208 3.623959 -6.889106
v 5.658208 3.623959 -6.889106
v 6.832208 6.816961 -6.145106
v 6.832208 -5.258812 -6.145106
v 5.658208 -5.258812 -6.889106
v 5.658208 12.62396 -6.889106
v 6.832208 12.62196 -6.145106
v 6.832208 6.816961 -6.145106
v 5.658208 6.816961 -6.889106
v 18.62521 7.324962 1.316894
v 18.88221 7.323961 1.478894
v 18.88221 6.816961 1.478894
v 18.62521 6.816961 1.316894
v 18.53921 7.325962 1.262894
v 18.62521 7.324962 1.316894
v 18.62521 6.816961 1.316894
v 18.53921 6.816961 1.262894
v -19.84979 -5.258812 -1.603106
v -4.023792 -5.258812 8.410893
v -4.023792 3.622972 8.410893
v -19.84979 3.622972 -1.603106
v 5.720708 -5.258812 -6.988106
v 5.783208 -5.258812 -7.087106
v 5.783208 3.623971 -7.087106
v 5.658208 3.623959 -6.889106
v 5.658208 -5.258812 -6.889106
v 5.720708 -5.258812 -6.988106
v 5.658208 3.623959 -6.889106
v 5.720708 -5.258812 -6.988106
v 5.783208 3.623971 -7.087106
v -9.950792 3.623971 -17.04311
v 5.783208 3.623971 -7.087106
v 5.783208 -5.258812 -7.087106
v -9.950792 -5.258812 -17.04311
v -10.04279 3.623971 -17.10111
v -9.996792 -5.258812 -17.07211
v -10.04279 -5.258812 -17.10111
v -9.996792 -5.258812 -17.07211
v -9.950792 3.623971 -17.04311
v -9.950792 -5.258812 -17.04311
v -10.04279 3.623971 -17.10111
v -9.950792 3.623971 -17.04311
v -9.996792 -5.258812 -17.07211
v -19.84979 3.622972 -1.603106
v -10.04279 3.623971 -17.10111
v -10.04279 -5.258812 -17.10111
v -19.84979 -5.258812 -1.603106
v 5.120208 6.816961 -6.039106
v 6.295208 6.816961 -5.296106
v 6.295208 12.62496 -5.296106
v 5.120208 12.62496 -6.039106
v 6.367342 6.816961 -5.410151
v 6.832208 6.816961 -6.145106
v 6.832208 12.62196 -6.145106
v 6.295208 12.62496 -5.296106
v 6.295208 6.816961 -5.296106
v 6.367342 6.816961 -5.410151
v 6.295208 12.62496 -5.296106
v 6.367342 6.816961 -5.410151
v 6.832208 12.62196 -6.145106
v 16.22921 6.816961 3.792894
v 16.52421 6.816961 4.061894
v 16.52421 7.324962 4.061894
v 16.22921 7.326962 3.792894
v 16.22921 7.326962 3.792894
v 16.36102 6.816961 3.648526
v 16.22921 6.816961 3.792894
v 16.36102 6.816961 3.648526
v 18.53921 7.325962 1.262894
v 18.53921 6.816961 1.262894
v 16.22921 7.326962 3.792894
v 18.53921 7.325962 1.262894
v 16.36102 6.816961 3.648526
v -9.950792 -5.258812 -17.04311
v 5.783208 -5.258812 -7.087106
v 5.720708 -5.258812 -6.988106
v 5.658208 -5.258812 -6.889106
v 6.832208 -5.258812 -6.145106
v 14.38021 -5.258812 -1.369106
v 16.45971 -5.258812 -0.05310623
v 18.53921 -5.258812 1.262894
v 18.62521 -5.258812 1.316894
v 18.88221 -5.258812 1.478894
v 16.52421 -5.258812 4.061894
v 6.370208 -5.258812 15.18189
v -4.110792 -5.258812 8.548894
v -4.067292 -5.258812 8.479894
v -4.023792 -5.258812 8.410893
v -19.84979 -5.258812 -1.603106
v -10.04279 -5.258812 -17.10111
v -9.996792 -5.258812 -17.07211
vt 0.664912 0.388210
vt 0.527421 0.209820
vt 0.667745 0.386715
vt 0.667745 0.386715
vt 0.949011 0.209490
vt 0.964411 0.229491
vt 0.667745 0.386715
vt 0.527421 0.209820
vt 0.949011 0.209490
vt 0.949011 0.209490
vt 0.867449 0.071769
vt 0.951353 0.208250
vt 0.949011 0.209490
vt 0.527421 0.209820
vt 0.867449 0.071769
vt 0.527421 0.209820
vt 0.761008 0.040607
vt 0.867449 0.071769
vt 0.867449 0.071769
vt 0.761008 0.040607
vt 0.763968 0.038345
vt 0.527421 0.209820
vt 0.755443 0.035592
vt 0.761008 0.040607
vt 0.951353 0.208250
vt 0.867449 0.071769
vt 0.966443 0.200256
vt 0.867449 0.071769
vt 0.763968 0.038345
vt 0.812892 0.000967
vt 0.207962 0.437274
vt 0.523790 0.267759
vt 0.524987 0.269319
vt 0.207962 0.437274
vt 0.001167 0.168960
vt 0.296762 0.012325
vt 0.523790 0.267759
vt 0.523790 0.267759
vt 0.314152 0.003109
vt 0.318203 0.000967
vt 0.523790 0.267759
vt 0.296762 0.012325
vt 0.314152 0.003109
vt 0.016185 0.999556
vt 0.018164 0.970986
vt 0.033205 0.990516
vt 0.016185 0.999556
vt 0.001167 0.980009
vt 0.018164 0.970986
vt 0.818775 0.800955
vt 0.813302 0.796031
vt 0.869789 0.762020
vt 0.813302 0.796031
vt 0.868687 0.760583
vt 0.869789 0.762020
vt 0.813302 0.796031
vt 0.865384 0.756286
vt 0.868687 0.760583
vt 0.489362 0.927407
vt 0.785778 0.770629
vt 0.782089 0.773374
vt 0.486867 0.929520
vt 0.486531 0.928898
vt 0.478640 0.936044
vt 0.477246 0.936778
vt 0.486531 0.928898
vt 0.489362 0.927407
vt 0.478640 0.936044
vt 0.478640 0.936044
vt 0.489362 0.927407
vt 0.486867 0.929520
vt 0.478640 0.936044
vt 0.486867 0.929520
vt 0.480034 0.935309
vt 0.785778 0.770629
vt 0.803216 0.761404
vt 0.799456 0.764186
vt 0.782089 0.773374
vt 0.792565 0.765579
vt 0.810131 0.756286
vt 0.803216 0.761404
vt 0.785778 0.770629
vt 0.464914 0.942080
vt 0.330222 0.766849
vt 0.337404 0.756286
vt 0.474157 0.934199
vt 0.626604 0.650706
vt 0.848514 0.479744
vt 0.857419 0.522953
vt 0.632133 0.696512
vt 0.848514 0.479744
vt 0.900065 0.440039
vt 0.909754 0.482645
vt 0.857419 0.522953
vt 0.857419 0.522953
vt 0.909754 0.482645
vt 0.910167 0.484462
vt 0.857799 0.524800
vt 0.448260 0.486988
vt 0.444909 0.482662
vt 0.435239 0.440039
vt 0.438541 0.444300
vt 0.449378 0.488436
vt 0.448260 0.486988
vt 0.438541 0.444300
vt 0.439641 0.445726
vt 0.503830 0.558446
vt 0.466460 0.480208
vt 0.493278 0.514688
vt 0.466460 0.480208
vt 0.449378 0.488436
vt 0.439641 0.445726
vt 0.503830 0.558446
vt 0.449378 0.488436
vt 0.466460 0.480208
vt 0.602632 0.685497
vt 0.503830 0.558446
vt 0.493278 0.514688
vt 0.590600 0.639837
vt 0.618023 0.705257
vt 0.602632 0.685497
vt 0.614744 0.692970
vt 0.614744 0.692970
vt 0.602632 0.685497
vt 0.590600 0.639837
vt 0.605760 0.659301
vt 0.624053 0.727857
vt 0.608548 0.707944
vt 0.602632 0.685497
vt 0.618023 0.705257
vt 0.448676 0.488812
vt 0.445321 0.484480
vt 0.444909 0.482662
vt 0.448260 0.486988
vt 0.449795 0.490265
vt 0.448676 0.488812
vt 0.448260 0.486988
vt 0.449378 0.488436
vt 0.205219 0.753480
vt 0.001167 0.487859
vt 0.008337 0.440039
vt 0.214678 0.708644
vt 0.929478 0.757319
vt 0.931301 0.756286
vt 0.939628 0.789156
vt 0.935941 0.791245
vt 0.927655 0.758352
vt 0.929478 0.757319
vt 0.935941 0.791245
vt 0.929478 0.757319
vt 0.939628 0.789156
vt 0.431338 0.737469
vt 0.226071 0.473688
vt 0.217036 0.440039
vt 0.420042 0.700915
vt 0.432534 0.739011
vt 0.420633 0.701678
vt 0.421224 0.702440
vt 0.420633 0.701678
vt 0.431338 0.737469
vt 0.420042 0.700915
vt 0.432534 0.739011
vt 0.431338 0.737469
vt 0.420633 0.701678
vt 0.010643 0.924255
vt 0.327454 0.756286
vt 0.314461 0.802929
vt 0.001167 0.969026
vt 0.050841 0.995327
vt 0.036173 0.976019
vt 0.042534 0.970986
vt 0.057312 0.990437
vt 0.945034 0.764054
vt 0.959275 0.756286
vt 0.964930 0.778126
vt 0.948360 0.787177
vt 0.942824 0.765259
vt 0.945034 0.764054
vt 0.948360 0.787177
vt 0.945034 0.764054
vt 0.964930 0.778126
vt 0.065326 0.975648
vt 0.060677 0.971458
vt 0.061057 0.970986
vt 0.065711 0.975177
vt 0.873264 0.795103
vt 0.875716 0.793441
vt 0.872812 0.795655
vt 0.875716 0.793441
vt 0.924187 0.756286
vt 0.923703 0.756862
vt 0.873264 0.795103
vt 0.924187 0.756286
vt 0.875716 0.793441
vt 0.068845 0.970986
vt 0.068845 0.970986
vt 0.068845 0.970986
vt 0.068845 0.970986
vt 0.068845 0.970986
vt 0.068845 0.970986
vt 0.068845 0.970986
vt 0.068845 0.970986
vt 0.068845 0.970986
vt 0.068845 0.970986
vt 0.068845 0.970986
vt 0.068845 0.970986
vt 0.068845 0.970986
vt 0.068845 0.970986
vt 0.068845 0.970986
vt 0.068845 0.970986
vt 0.068845 0.970986
vt 0.068845 0.970986
vn 0 1 0
vn 0 1 0
vn 0 1 0
vn 0 1 0
vn 0 1 0
vn 0 1 0
vn 0 1 0
vn 0 1 0
vn 0 1 0
vn 0 1 0
vn 0 1 0
vn 0 1 0
vn 0 1 0
vn 0 1 0
vn 0 1 0
vn 0 1 0
vn 0 1 0
vn 0 1 0
vn 0 1 0
vn 0 1 0
vn 0 1 0
vn 0 1 0
vn 0 1 0
vn 0 1 0
vn 0 1 0
vn 0 1 0
vn 0 1 0
vn 0 1 0
vn 0 1 0
vn 0 1 0
vn -2.915592E-05 1 4.607484E-05
vn -2.915592E-05 1 4.607484E-05
vn -2.915592E-05 1 4.607484E-05
vn -2.915453E-05 1 4.607562E-05
vn -2.915455E-05 1 4.607549E-05
vn -2.915453E-05 1 4.607562E-05
vn -2.91545E-05 1 4.607575E-05
vn -2.916079E-05 1 4.608536E-05
vn -2.916079E-05 1 4.608536E-05
vn -2.916079E-05 1 4.608536E-05
vn -2.915479E-05 1 4.607614E-05
vn -2.915479E-05 1 4.607614E-05
vn -2.915479E-05 1 4.607614E-05
vn 0.001747994 0.9999985 -7.009128E-05
vn 0.001747994 0.9999985 -7.009128E-05
vn 0.001747994 0.9999985 -7.009128E-05
vn 0.001596051 0.9999955 -0.002524037
vn 0.001596051 0.9999955 -0.002524037
vn 0.001596051 0.9999955 -0.002524037
vn 0.003896159 0.9999874 0.003162111
vn 0.003896159 0.9999874 0.003162111
vn 0.003896159 0.9999874 0.003162111
vn 0.007853154 0.9999511 0.006010738
vn 0.007853154 0.9999511 0.006010738
vn 0.007853154 0.9999511 0.006010738
vn 0.002624703 0.9999945 0.002008925
vn 0.002624703 0.9999945 0.002008925
vn 0.002624703 0.9999945 0.002008925
vn -0.8450217 0 -0.534732
vn -0.8450217 0 -0.534732
vn -0.8450217 0 -0.534732
vn -0.8450217 0 -0.534732
vn -0.8459256 0 -0.5333009
vn -0.8459256 0 -0.5333009
vn -0.8459256 0 -0.5333009
vn -0.8459256 2.260371E-11 -0.5333009
vn -0.8459256 2.260371E-11 -0.5333009
vn -0.8459256 2.260371E-11 -0.5333009
vn -0.8459256 0 -0.5333009
vn -0.8459256 0 -0.5333009
vn -0.8459256 0 -0.5333009
vn -0.8459256 0 -0.5333009
vn -0.8459256 0 -0.5333009
vn -0.8459256 0 -0.5333009
vn -0.8449688 0 -0.5348156
vn -0.8449688 0 -0.5348156
vn -0.8449688 0 -0.5348156
vn -0.8449688 0 -0.5348156
vn -0.8449688 0 -0.5348156
vn -0.8449688 0 -0.5348156
vn -0.8449688 0 -0.5348156
vn -0.8449688 0 -0.5348156
vn -0.5347663 0 0.845
vn -0.5347663 0 0.845
vn -0.5347663 0 0.845
vn -0.5347663 0 0.845
vn 0.7384539 0 0.674304
vn 0.7384539 0 0.674304
vn 0.7384539 0 0.674304
vn 0.7384539 0 0.674304
vn 0.7385412 0 0.6742083
vn 0.7385412 0 0.6742083
vn 0.7385412 0 0.6742083
vn 0.7385412 0 0.6742083
vn 0.7385412 0 0.6742083
vn 0.7385412 0 0.6742083
vn 0.7385412 0 0.6742083
vn 0.7385412 0 0.6742083
vn 0.5332497 0 -0.8459579
vn 0.5332497 0 -0.8459579
vn 0.5332497 0 -0.8459579
vn 0.5332497 0 -0.8459579
vn 0.5317681 0 -0.84689
vn 0.5317681 0 -0.84689
vn 0.5317681 0 -0.84689
vn 0.5317681 0 -0.84689
vn 0.5347572 0 -0.8450058
vn 0.5347572 0 -0.8450058
vn 0.5347572 0 -0.8450058
vn 0.5347572 0 -0.8450058
vn 0.5347572 0 -0.8450058
vn 0.5347572 0 -0.8450058
vn 0.5347572 5.801095E-10 -0.8450058
vn 0.5347572 5.801095E-10 -0.8450058
vn 0.5347572 5.801095E-10 -0.8450058
vn 0.5347005 0 -0.8450417
vn 0.5347005 0 -0.8450417
vn 0.5347005 0 -0.8450417
vn 0.5347005 0 -0.8450417
vn 0.5352917 0 -0.8446673
vn 0.5352917 0 -0.8446673
vn 0.5352917 0 -0.8446673
vn 0.5352917 0 -0.8446673
vn 0.5352917 0 -0.8446673
vn 0.5352917 0 -0.8446673
vn 0.5352917 0 -0.8446673
vn 0.5352917 0 -0.8446673
vn 0.5352917 0 -0.8446673
vn 0.5352917 0 -0.8446673
vn 0.5352917 0 -0.8446673
vn 0.5332497 0 -0.8459579
vn 0.5332497 0 -0.8459579
vn 0.5332497 0 -0.8459579
vn 0.5332497 0 -0.8459579
vn 0.5317681 0 -0.84689
vn 0.5317681 0 -0.84689
vn 0.5317681 0 -0.84689
vn 0.5317681 0 -0.84689
vn -0.534704 0 0.8450394
vn -0.534704 0 0.8450394
vn -0.534704 0 0.8450394
vn -0.534704 0 0.8450394
vn 0.8455904 0 0.5338323
vn 0.8455904 0 0.5338323
vn 0.8455904 0 0.5338323
vn 0.8455904 0 0.5338323
vn 0.8455904 0 0.5338323
vn 0.8455904 0 0.5338323
vn 0.8455904 2.798506E-11 0.5338323
vn 0.8455904 2.798506E-11 0.5338323
vn 0.8455904 2.798506E-11 0.5338323
vn 0.5347121 0 -0.8450342
vn 0.5347121 0 -0.8450342
vn 0.5347121 0 -0.8450342
vn 0.5347121 0 -0.8450342
vn 0.5333015 0 -0.8459252
vn 0.5333015 0 -0.8459252
vn 0.5333015 0 -0.8459252
vn 0.5333014 0 -0.8459253
vn 0.5333014 0 -0.8459253
vn 0.5333014 0 -0.8459253
vn 0.5333015 -4.452059E-10 -0.8459253
vn 0.5333015 -4.452059E-10 -0.8459253
vn 0.5333015 -4.452059E-10 -0.8459253
vn -0.845026 0 -0.5347251
vn -0.845026 0 -0.5347251
vn -0.845026 0 -0.5347251
vn -0.845026 0 -0.5347251
vn -0.534453 0 0.8451982
vn -0.534453 0 0.8451982
vn -0.534453 0 0.8451982
vn -0.534453 0 0.8451982
vn 0.8451339 0 0.5345547
vn 0.8451339 0 0.5345547
vn 0.8451339 0 0.5345547
vn 0.8451339 0 0.5345547
vn 0.8451339 0 0.5345547
vn 0.8451339 0 0.5345547
vn 0.8451339 2.513106E-10 0.5345547
vn 0.8451339 2.513106E-10 0.5345547
vn 0.8451339 2.513106E-10 0.5345547
vn -0.6737941 0 0.7389191
vn -0.6737941 0 0.7389191
vn -0.6737941 0 0.7389191
vn -0.6737941 0 0.7389191
vn -0.7384855 0 -0.6742694
vn -0.7384855 0 -0.6742694
vn -0.7384855 0 -0.6742694
vn -0.7384855 0 -0.6742694
vn -0.7384855 0 -0.6742694
vn -0.7384855 0 -0.6742694
vn -0.7384855 3.136322E-09 -0.6742694
vn -0.7384855 3.136322E-09 -0.6742694
vn -0.7384855 3.136322E-09 -0.6742694
vn 0 -1 0
vn 0 -1 0
vn 0 -1 0
vn 0 -1 0
vn 0 -1 0
vn 0 -1 0
vn 0 -1 0
vn 0 -1 0
vn 0 -1 0
vn 0 -1 0
vn 0 -1 0
vn 0 -1 0
vn 0 -1 0
vn 0 -1 0
vn 0 -1 0
vn 0 -1 0
vn 0 -1 0
vn 0 -1 0

g CDNNDG02_0004920
f 1/1/1 2/2/2 3/3/3
f 4/4/4 5/5/5 6/6/6
f 7/7/7 8/8/8 9/9/9
f 10/10/10 11/11/11 12/12/12
f 13/13/13 14/14/14 15/15/15
f 16/16/16 17/17/17 18/18/18
f 19/19/19 20/20/20 21/21/21
f 22/22/22 23/23/23 24/24/24
f 25/25/25 26/26/26 27/27/27
f 28/28/28 29/29/29 30/30/30
f 31/31/31 32/32/32 33/33/33
f 34/34/34 36/36/36 37/37/37
f 36/36/36 34/34/34 35/35/35
f 38/38/38 39/39/39 40/40/40
f 41/41/41 42/42/42 43/43/43
f 44/44/44 45/45/45 46/46/46
f 47/47/47 48/48/48 49/49/49
f 50/50/50 51/51/51 52/52/52
f 53/53/53 54/54/54 55/55/55
f 56/56/56 57/57/57 58/58/58
f 62/62/62 59/59/59 61/61/61
f 61/61/61 59/59/59 60/60/60
f 63/63/63 64/64/64 65/65/65
f 66/66/66 67/67/67 68/68/68
f 69/69/69 70/70/70 71/71/71
f 72/72/72 73/73/73 74/74/74
f 75/75/75 77/77/77 78/78/78
f 75/75/75 76/76/76 77/77/77
f 80/80/80 81/81/81 82/82/82
f 79/79/79 80/80/80 82/82/82
f 83/83/83 85/85/85 86/86/86
f 85/85/85 83/83/83 84/84/84
f 90/90/90 87/87/87 89/89/89
f 88/88/88 89/89/89 87/87/87
f 92/92/92 93/93/93 91/91/91
f 91/91/91 93/93/93 94/94/94
f 95/95/95 97/97/97 98/98/98
f 95/95/95 96/96/96 97/97/97
f 99/99/99 101/101/101 102/102/102
f 99/99/99 100/100/100 101/101/101
f 105/105/105 106/106/106 104/104/104
f 103/103/103 104/104/104 106/106/106
f 107/107/107 108/108/108 109/109/109
f 110/110/110 111/111/111 112/112/112
f 113/113/113 114/114/114 115/115/115
f 119/119/119 116/116/116 117/117/117
f 117/117/117 118/118/118 119/119/119
f 120/120/120 121/121/121 122/122/122
f 125/125/125 123/123/123 124/124/124
f 123/123/123 125/125/125 126/126/126
f 128/128/128 129/129/129 130/130/130
f 127/127/127 128/128/128 130/130/130
f 131/131/131 132/132/132 134/134/134
f 134/134/134 132/132/132 133/133/133
f 136/136/136 137/137/137 138/138/138
f 135/135/135 136/136/136 138/138/138
f 142/142/142 139/139/139 141/141/141
f 141/141/141 139/139/139 140/140/140
f 143/143/143 144/144/144 145/145/145
f 146/146/146 147/147/147 148/148/148
f 149/149/149 150/150/150 151/151/151
f 155/155/155 152/152/152 153/153/153
f 153/153/153 154/154/154 155/155/155
f 156/156/156 157/157/157 158/158/158
f 159/159/159 160/160/160 161/161/161
f 162/162/162 163/163/163 164/164/164
f 165/165/165 167/167/167 168/168/168
f 165/165/165 166/166/166 167/167/167
f 169/169/169 171/171/171 172/172/172
f 171/171/171 169/169/169 170/170/170
f 173/173/173 174/174/174 175/175/175
f 176/176/176 177/177/177 178/178/178
f 179/179/179 180/180/180 181/181/181
f 182/182/182 184/184/184 185/185/185
f 184/184/184 182/182/182 183/183/183
f 186/186/186 187/187/187 188/188/188
f 189/189/189 190/190/190 191/191/191
f 192/192/192 193/193/193 194/194/194
f 212/212/212 210/210/210 211/211/211
f 212/212/212 195/195/195 210/210/210
f 210/210/210 195/195/195 198/198/198
f 206/206/206 208/208/208 209/209/209
f 197/197/197 195/195/195 196/196/196
f 198/198/198 195/195/195 197/197/197
f 209/209/209 198/198/198 199/199/199
f 207/207/207 208/208/208 206/206/206
f 200/200/200 201/201/201 205/205/205
f 201/201/201 202/202/202 205/205/205
f 203/203/203 204/204/204 205/205/205
f 200/200/200 209/209/209 199/199/199
f 205/205/205 202/202/202 203/203/203
f 205/205/205 206/206/206 200/200/200
f 209/209/209 200/200/200 206/206/206
f 209/209/209 210/210/210 198/198/198
