v -6.627316 5.621209 2.814634
v -0.4133151 5.621209 6.976621
v -0.359315 5.621209 -2.70138
v -0.4133151 5.621209 6.976621
v 6.658685 5.621209 -3.913379
v 1.002685 5.621209 -2.70838
v -0.4133151 5.621209 6.976621
v 1.002685 5.621209 -2.70838
v -0.359315 5.621209 -2.70138
v 1.002685 5.621209 -2.70838
v 6.658685 5.621209 -3.913379
v 3.119685 5.621209 -5.98738
v 3.119685 5.621209 -5.98738
v 6.658685 5.621209 -3.913379
v 3.203685 5.621209 -6.11738
v -6.627316 5.621209 2.814634
v -0.359315 5.621209 -2.70138
v -0.7683151 5.621209 -2.97138
v -6.627316 5.621209 2.814634
v -0.7683151 5.621209 -2.97138
v -2.273316 5.621209 -3.964367
v 1.002685 5.292715 -2.70838
v 3.119685 5.292353 -5.98738
v 1.75063 4.550353 -6.871415
v -0.7683151 4.550241 -2.97138
v -0.359315 4.773353 -2.70138
v 1.002685 5.292715 -2.70838
v -0.7683151 4.550241 -2.97138
v 1.002685 5.292715 -2.70838
v 1.75063 4.550353 -6.871415
v -0.7683151 -5.56713 -2.97138
v -2.273316 -5.56713 -3.964367
v -0.7683151 4.550241 -2.97138
v -2.273316 5.621209 -3.964367
v -2.273316 5.621209 -3.964367
v -0.7683151 5.621209 -2.97138
v -0.7683151 4.550241 -2.97138
v -0.7683151 4.550241 -2.97138
v -0.7683151 5.621209 -2.97138
v -0.359315 4.773353 -2.70138
v -0.359315 5.621209 -2.70138
v -6.627316 -5.56713 2.814634
v -6.627316 5.621209 2.814634
v -2.273316 -5.56713 -3.964367
v -2.273316 5.621209 -3.964367
v -6.627316 -5.56713 2.814634
v -0.4133151 5.621209 6.976621
v -6.627316 5.621209 2.814634
v -0.4133151 -5.56713 6.976621
v -0.4133151 5.621209 6.976621
v -0.4133151 -5.56713 6.976621
v 6.658685 5.621209 -3.913379
v 6.658685 -5.56713 -3.913379
v 6.658685 -5.56713 -3.913379
v 3.203685 5.621209 -6.11738
v 6.658685 5.621209 -3.913379
v 3.203685 -5.56713 -6.11738
v 3.119685 5.621209 -5.98738
v 3.203685 5.621209 -6.11738
v 3.119685 5.292353 -5.98738
v 3.119685 -5.56713 -5.98738
v 3.119685 5.292353 -5.98738
v 3.203685 -5.56713 -6.11738
v 3.203685 5.621209 -6.11738
v 3.119685 5.621209 -5.98738
v 3.119685 5.292353 -5.98738
v 1.002685 5.292715 -2.70838
v 1.002685 5.621209 -2.70838
v -0.359315 5.621209 -2.70138
v 1.002685 5.292715 -2.70838
v -0.359315 4.773353 -2.70138
v -0.359315 5.621209 -2.70138
v 1.002685 5.621209 -2.70838
v 1.002685 5.292715 -2.70838
v 3.119685 -5.56713 -5.98738
v 1.75063 4.550353 -6.871415
v 3.119685 5.292353 -5.98738
v 1.75063 -5.56713 -6.871415
v -0.7683151 -5.56713 -2.97138
v -0.7683151 4.550241 -2.97138
v 1.75063 -5.56713 -6.871415
v 1.75063 4.550353 -6.871415
v -0.7683151 -5.56713 -2.97138
v 6.658685 -5.56713 -3.913379
v -0.4133151 -5.56713 6.976621
v 3.119685 -5.56713 -5.98738
v 3.203685 -5.56713 -6.11738
v -6.627316 -5.56713 2.814634
v 1.75063 -5.56713 -6.871415
v -2.273316 -5.56713 -3.964367
vt 0.183570 0.401734
vt 0.002506 0.215113
vt 0.422932 0.212889
vt 0.002506 0.215113
vt 0.475303 0.001736
vt 0.423181 0.171926
vt 0.002506 0.215113
vt 0.423181 0.171926
vt 0.422932 0.212889
vt 0.423181 0.171926
vt 0.475303 0.001736
vt 0.565545 0.108051
vt 0.565545 0.108051
vt 0.475303 0.001736
vt 0.571190 0.105516
vt 0.183570 0.401734
vt 0.422932 0.212889
vt 0.434678 0.225173
vt 0.183570 0.401734
vt 0.434678 0.225173
vt 0.477875 0.270374
vt 0.764541 0.726307
vt 0.906597 0.661458
vt 0.937815 0.706064
vt 0.769008 0.783154
vt 0.759399 0.769854
vt 0.764541 0.726307
vt 0.769008 0.783154
vt 0.764541 0.726307
vt 0.937815 0.706064
vt 0.847118 0.876736
vt 0.847118 0.876736
vt 0.847118 0.876736
vt 0.847118 0.876736
vt 0.847118 0.876736
vt 0.847118 0.876736
vt 0.847118 0.876736
vt 0.847118 0.876736
vt 0.847118 0.876736
vt 0.847118 0.876736
vt 0.847118 0.876736
vt 0.834586 0.876736
vt 0.834586 0.876736
vt 0.834586 0.876736
vt 0.834586 0.876736
vt 0.768461 0.643409
vt 0.694499 0.406250
vt 0.879061 0.593916
vt 0.586466 0.458358
vt 0.106230 0.657876
vt 0.002506 0.616156
vt 0.579063 0.445042
vt 0.468826 0.406250
vt 0.822055 0.876736
vt 0.822055 0.876736
vt 0.822055 0.876736
vt 0.822055 0.876736
vt 0.809294 0.879283
vt 0.814915 0.876736
vt 0.805866 0.880854
vt 0.694259 0.932016
vt 0.805866 0.880854
vt 0.699802 0.929504
vt 0.814915 0.876736
vt 0.809294 0.879283
vt 0.805866 0.880854
vt 0.664160 0.945013
vt 0.667525 0.943470
vt 0.859649 0.876736
vt 0.859649 0.876736
vt 0.859649 0.876736
vt 0.859649 0.876736
vt 0.859649 0.876736
vt 0.859649 0.876736
vt 0.872180 0.876736
vt 0.872180 0.876736
vt 0.872180 0.876736
vt 0.872180 0.876736
vt 0.884712 0.876736
vt 0.884712 0.876736
vt 0.884712 0.876736
vt 0.884712 0.876736
vt 0.909774 0.876736
vt 0.909774 0.876736
vt 0.909774 0.876736
vt 0.909774 0.876736
vt 0.909774 0.876736
vt 0.909774 0.876736
vt 0.909774 0.876736
vt 0.909774 0.876736
vn 0 1 0
vn 0 1 0
vn 0 1 0
vn 0 1 0
vn 0 1 0
vn 0 1 0
vn 0 1 0
vn 0 1 0
vn 0 1 0
vn 0 1 0
vn 0 1 0
vn 0 1 0
vn 0 1 0
vn 0 1 0
vn 0 1 0
vn 0 1 0
vn 0 1 0
vn 0 1 0
vn 0 1 0
vn 0 1 0
vn 0 1 0
vn -0.3480803 0.9101054 -0.2248293
vn -0.3480803 0.9101054 -0.2248293
vn -0.3480803 0.9101054 -0.2248293
vn -0.3482019 0.9101145 -0.224604
vn -0.3482019 0.9101145 -0.224604
vn -0.3482019 0.9101145 -0.224604
vn -0.3481513 0.9100764 -0.2248369
vn -0.3481513 0.9100764 -0.2248369
vn -0.3481513 0.9100764 -0.2248369
vn 0.5507211 0 -0.8346893
vn 0.5507211 0 -0.8346893
vn 0.5507211 0 -0.8346893
vn 0.5507211 0 -0.8346893
vn 0.5507211 0 -0.8346893
vn 0.5507211 0 -0.8346893
vn 0.5507211 0 -0.8346893
vn 0.5509275 0 -0.8345531
vn 0.5509275 0 -0.8345531
vn 0.5509275 0 -0.8345531
vn 0.5509275 0 -0.8345531
vn -0.8414002 0 -0.5404125
vn -0.8414002 0 -0.5404125
vn -0.8414002 0 -0.5404125
vn -0.8414002 0 -0.5404125
vn -0.5564873 0 0.8308561
vn -0.5564873 0 0.8308561
vn -0.5564873 0 0.8308561
vn -0.5564873 0 0.8308561
vn 0.8386723 0 0.5446364
vn 0.8386723 0 0.5446364
vn 0.8386723 0 0.5446364
vn 0.8386723 0 0.5446364
vn 0.5378067 0 -0.8430682
vn 0.5378067 0 -0.8430682
vn 0.5378067 0 -0.8430682
vn 0.5378067 0 -0.8430682
vn -0.8399166 0 -0.5427154
vn -0.8399166 0 -0.5427154
vn -0.8399166 0 -0.5427154
vn -0.8399166 0 -0.5427154
vn -0.8399166 0 -0.5427154
vn -0.8399166 0 -0.5427154
vn -0.8399166 0 -0.5427154
vn -0.8401197 0 -0.5424011
vn -0.8401197 0 -0.5424011
vn -0.8401197 0 -0.5424011
vn -0.8401197 0 -0.5424011
vn -0.005139433 0 -0.9999868
vn -0.005139433 0 -0.9999868
vn -0.005139433 0 -0.9999868
vn -0.005139433 0 -0.9999868
vn -0.005139433 0 -0.9999868
vn -0.005139433 0 -0.9999868
vn 0.5424623 0 -0.8400801
vn 0.5424623 0 -0.8400801
vn 0.5424623 0 -0.8400801
vn 0.5424623 0 -0.8400801
vn -0.8400225 0 -0.5425516
vn -0.8400225 0 -0.5425516
vn -0.8400225 0 -0.5425516
vn -0.8400225 0 -0.5425516
vn 0 -1 0
vn 0 -1 0
vn 0 -1 0
vn 0 -1 0
vn 0 -1 0
vn 0 -1 0
vn 0 -1 0
vn 0 -1 0

g CDNNDG02_0018090
f 1/1/1 2/2/2 3/3/3
f 4/4/4 5/5/5 6/6/6
f 7/7/7 8/8/8 9/9/9
f 10/10/10 11/11/11 12/12/12
f 13/13/13 14/14/14 15/15/15
f 16/16/16 17/17/17 18/18/18
f 19/19/19 20/20/20 21/21/21
f 22/22/22 23/23/23 24/24/24
f 25/25/25 26/26/26 27/27/27
f 28/28/28 29/29/29 30/30/30
f 31/31/31 32/32/32 33/33/33
f 34/34/34 33/33/33 32/32/32
f 35/35/35 36/36/36 37/37/37
f 38/38/38 39/39/39 40/40/40
f 40/40/40 39/39/39 41/41/41
f 42/42/42 43/43/43 44/44/44
f 44/44/44 43/43/43 45/45/45
f 46/46/46 47/47/47 48/48/48
f 47/47/47 46/46/46 49/49/49
f 50/50/50 51/51/51 52/52/52
f 53/53/53 52/52/52 51/51/51
f 54/54/54 55/55/55 56/56/56
f 55/55/55 54/54/54 57/57/57
f 58/58/58 59/59/59 60/60/60
f 61/61/61 62/62/62 63/63/63
f 63/63/63 62/62/62 64/64/64
f 65/65/65 66/66/66 67/67/67
f 68/68/68 65/65/65 67/67/67
f 69/69/69 70/70/70 71/71/71
f 72/72/72 73/73/73 74/74/74
f 75/75/75 76/76/76 77/77/77
f 76/76/76 75/75/75 78/78/78
f 79/79/79 80/80/80 81/81/81
f 81/81/81 80/80/80 82/82/82
f 83/83/83 84/84/84 85/85/85
f 83/83/83 86/86/86 84/84/84
f 86/86/86 87/87/87 84/84/84
f 88/88/88 83/83/83 85/85/85
f 83/83/83 89/89/89 86/86/86
f 88/88/88 90/90/90 83/83/83
