v -1.911979 5.75266 8.250353
v 3.55002 5.75266 -0.3296471
v 1.86802 5.75385 -1.400647
v 2.83802 5.753635 -2.923647
v 3.73302 5.753433 -2.353647
v 6.37302 5.752851 -6.498647
v 2.736021 5.753674 -8.814647
v 1.904021 5.753857 -7.508647
v -0.9039795 5.754476 -3.097647
v -6.335979 5.755673 5.433353
v -1.911979 -5.753924 8.250353
v 3.55002 -5.753924 -0.3296471
v 3.55002 5.75266 -0.3296471
v -1.911979 5.75266 8.250353
v 1.86802 5.75385 -1.400647
v 2.70902 -5.753924 -0.8651471
v 1.86802 -5.753924 -1.400647
v 2.70902 -5.753924 -0.8651471
v 3.55002 5.75266 -0.3296471
v 3.55002 -5.753924 -0.3296471
v 1.86802 5.75385 -1.400647
v 3.55002 5.75266 -0.3296471
v 2.70902 -5.753924 -0.8651471
v 2.35302 -5.753924 -2.162147
v 2.83802 -5.753924 -2.923647
v 2.83802 5.753635 -2.923647
v 1.86802 5.75385 -1.400647
v 1.86802 -5.753924 -1.400647
v 2.35302 -5.753924 -2.162147
v 1.86802 5.75385 -1.400647
v 2.35302 -5.753924 -2.162147
v 2.83802 5.753635 -2.923647
v 2.83802 -5.753924 -2.923647
v 3.73302 -5.753924 -2.353647
v 3.73302 5.753433 -2.353647
v 2.83802 5.753635 -2.923647
v 5.05302 -5.753924 -4.426147
v 6.37302 -5.753924 -6.498647
v 6.37302 5.752851 -6.498647
v 3.73302 5.753433 -2.353647
v 3.73302 -5.753924 -2.353647
v 5.05302 -5.753924 -4.426147
v 3.73302 5.753433 -2.353647
v 5.05302 -5.753924 -4.426147
v 6.37302 5.752851 -6.498647
v 2.736021 5.753674 -8.814647
v 4.554521 -5.753924 -7.656647
v 2.736021 -5.753924 -8.814647
v 4.554521 -5.753924 -7.656647
v 6.37302 5.752851 -6.498647
v 6.37302 -5.753924 -6.498647
v 2.736021 5.753674 -8.814647
v 6.37302 5.752851 -6.498647
v 4.554521 -5.753924 -7.656647
v 1.904021 5.753857 -7.508647
v 2.320021 -5.753924 -8.161647
v 1.904021 -5.753924 -7.508647
v 2.320021 -5.753924 -8.161647
v 2.736021 5.753674 -8.814647
v 2.736021 -5.753924 -8.814647
v 1.904021 5.753857 -7.508647
v 2.736021 5.753674 -8.814647
v 2.320021 -5.753924 -8.161647
v -0.9039795 5.754476 -3.097647
v 1.904021 5.753857 -7.508647
v 1.904021 -5.753924 -7.508647
v -0.9039795 -5.753924 -3.097647
v -6.335979 5.755673 5.433353
v -0.9039795 5.754476 -3.097647
v -0.9039795 -5.753924 -3.097647
v -6.335979 -5.753924 5.433353
v -4.12398 -5.753924 6.841853
v -1.911979 -5.753924 8.250353
v -1.911979 5.75266 8.250353
v -6.335979 5.755673 5.433353
v -6.335979 -5.753924 5.433353
v -4.12398 -5.753924 6.841853
v -6.335979 5.755673 5.433353
v -4.12398 -5.753924 6.841853
v -1.911979 5.75266 8.250353
v -4.12398 -5.753924 6.841853
v -6.335979 -5.753924 5.433353
v -0.9039795 -5.753924 -3.097647
v 1.904021 -5.753924 -7.508647
v 2.320021 -5.753924 -8.161647
v 2.736021 -5.753924 -8.814647
v 4.554521 -5.753924 -7.656647
v 6.37302 -5.753924 -6.498647
v 5.05302 -5.753924 -4.426147
v 3.73302 -5.753924 -2.353647
v 2.83802 -5.753924 -2.923647
v 2.35302 -5.753924 -2.162147
v 1.86802 -5.753924 -1.400647
v 2.70902 -5.753924 -0.8651471
v 3.55002 -5.753924 -0.3296471
v -1.911979 -5.753924 8.250353
vt 0.002208 0.234744
vt 0.334382 0.080998
vt 0.375805 0.128513
vt 0.434773 0.101209
vt 0.412722 0.075925
vt 0.573213 0.001610
vt 0.662806 0.104358
vt 0.612238 0.127777
vt 0.441451 0.206817
vt 0.111162 0.359708
vt 0.487578 0.708945
vt 0.166591 0.858792
vt 0.002208 0.794500
vt 0.327771 0.642512
vt 0.370314 0.976339
vt 0.480263 0.886172
vt 0.500671 0.909219
vt 0.480263 0.886172
vt 0.328918 0.929570
vt 0.459854 0.863124
vt 0.370314 0.976339
vt 0.328918 0.929570
vt 0.480263 0.886172
vt 0.698764 0.940603
vt 0.670428 0.953776
vt 0.505519 0.889847
vt 0.562997 0.863124
vt 0.727101 0.927430
vt 0.698764 0.940603
vt 0.562997 0.863124
vt 0.698764 0.940603
vt 0.505519 0.889847
vt 0.897808 0.863124
vt 0.919100 0.886918
vt 0.754492 0.908199
vt 0.732892 0.884066
vt 0.246856 0.963125
vt 0.169504 0.999181
vt 0.002208 0.936269
vt 0.159110 0.863124
vt 0.324209 0.927069
vt 0.246856 0.963125
vt 0.159110 0.863124
vt 0.246856 0.963125
vt 0.002208 0.936269
vt 0.582048 0.809683
vt 0.664442 0.692570
vt 0.708691 0.742627
vt 0.664442 0.692570
vt 0.492274 0.708114
vt 0.620192 0.642512
vt 0.582048 0.809683
vt 0.492274 0.708114
vt 0.664442 0.692570
vt 0.503332 0.387317
vt 0.658773 0.397876
vt 0.633849 0.409403
vt 0.658773 0.397876
vt 0.553904 0.363929
vt 0.683697 0.386349
vt 0.503332 0.387317
vt 0.553904 0.363929
vt 0.658773 0.397876
vt 0.332529 0.466249
vt 0.503332 0.387317
vt 0.633849 0.409403
vt 0.465493 0.487207
vt 0.002208 0.618933
vt 0.332529 0.466249
vt 0.465493 0.487207
vt 0.139905 0.637709
vt 0.903671 0.424651
vt 0.956175 0.485372
vt 0.795302 0.591778
vt 0.688742 0.468626
vt 0.851166 0.363929
vt 0.903671 0.424651
vt 0.688742 0.468626
vt 0.903671 0.424651
vt 0.795302 0.591778
vt 0.924945 0.863124
vt 0.924945 0.863124
vt 0.924945 0.863124
vt 0.924945 0.863124
vt 0.924945 0.863124
vt 0.924945 0.863124
vt 0.924945 0.863124
vt 0.924945 0.863124
vt 0.924945 0.863124
vt 0.924945 0.863124
vt 0.924945 0.863124
vt 0.924945 0.863124
vt 0.924945 0.863124
vt 0.924945 0.863124
vt 0.924945 0.863124
vt 0.924945 0.863124
vn 0.0004926525 0.9999998 0.0003161544
vn 0.000502996 0.9999998 0.0003202056
vn 0.0003585408 0.9999999 0.000159342
vn 0.0002244296 1 2.529931E-06
vn 0.0002244326 1 2.531262E-06
vn 0.0002244305 1 2.530123E-06
vn 0.0002244292 1 2.5307E-06
vn 0.000224429 1 2.52928E-06
vn 0.0002244287 1 2.529285E-06
vn 0.0003533696 0.9999999 0.0001573155
vn 0.8435724 0 0.5370154
vn 0.8435724 0 0.5370154
vn 0.8435724 0 0.5370154
vn 0.8435724 0 0.5370154
vn 0.5371025 0 -0.8435169
vn 0.5371025 0 -0.8435169
vn 0.5371025 0 -0.8435169
vn 0.5371025 0 -0.8435169
vn 0.5371025 0 -0.8435169
vn 0.5371025 0 -0.8435169
vn 0.5371025 -1.759648E-10 -0.8435169
vn 0.5371025 -1.759648E-10 -0.8435169
vn 0.5371025 -1.759648E-10 -0.8435169
vn 0.8434561 0 0.5371981
vn 0.8434561 0 0.5371981
vn 0.8434561 0 0.5371981
vn 0.8434561 0 0.5371981
vn 0.8434561 0 0.5371981
vn 0.8434561 0 0.5371981
vn 0.8434561 -2.369836E-10 0.5371981
vn 0.8434561 -2.369836E-10 0.5371981
vn 0.8434561 -2.369836E-10 0.5371981
vn -0.5371804 0 0.8434674
vn -0.5371804 0 0.8434674
vn -0.5371804 0 0.8434674
vn -0.5371804 0 0.8434674
vn 0.843452 0 0.5372046
vn 0.843452 0 0.5372046
vn 0.843452 0 0.5372046
vn 0.843452 0 0.5372046
vn 0.843452 0 0.5372046
vn 0.843452 0 0.5372046
vn 0.843452 1.495297E-10 0.5372046
vn 0.843452 1.495297E-10 0.5372046
vn 0.843452 1.495297E-10 0.5372046
vn 0.5371307 0 -0.8434991
vn 0.5371307 0 -0.8434991
vn 0.5371307 0 -0.8434991
vn 0.5371307 0 -0.8434991
vn 0.5371307 0 -0.8434991
vn 0.5371307 0 -0.8434991
vn 0.5371307 -3.741141E-10 -0.8434991
vn 0.5371307 -3.741141E-10 -0.8434991
vn 0.5371307 -3.741141E-10 -0.8434991
vn -0.8433955 0 -0.5372933
vn -0.8433955 0 -0.5372933
vn -0.8433955 0 -0.5372933
vn -0.8433955 0 -0.5372933
vn -0.8433955 0 -0.5372933
vn -0.8433955 0 -0.5372933
vn -0.8433955 0 -0.5372933
vn -0.8433955 0 -0.5372933
vn -0.8433955 0 -0.5372933
vn -0.8435748 0 -0.5370116
vn -0.8435748 0 -0.5370116
vn -0.8435748 0 -0.5370116
vn -0.8435748 0 -0.5370116
vn -0.843519 0 -0.5370994
vn -0.843519 0 -0.5370994
vn -0.843519 0 -0.5370994
vn -0.843519 0 -0.5370994
vn -0.5371099 0 0.8435123
vn -0.5371099 0 0.8435123
vn -0.5371099 0 0.8435123
vn -0.5371099 0 0.8435123
vn -0.5371099 0 0.8435123
vn -0.5371099 0 0.8435123
vn -0.5371099 0 0.8435123
vn -0.5371099 0 0.8435123
vn -0.5371099 0 0.8435123
vn 0 -1 0
vn 0 -1 0
vn 0 -1 0
vn 0 -1 0
vn 0 -1 0
vn 0 -1 0
vn 0 -1 0
vn 0 -1 0
vn 0 -1 0
vn 0 -1 0
vn 0 -1 0
vn 0 -1 0
vn 0 -1 0
vn 0 -1 0
vn 0 -1 0
vn 0 -1 0

g CDNNDG02_0001380
f 10/10/10 1/1/1 3/3/3
f 9/9/9 10/10/10 3/3/3
f 4/4/4 9/9/9 3/3/3
f 2/2/2 3/3/3 1/1/1
f 6/6/6 7/7/7 8/8/8
f 9/9/9 4/4/4 8/8/8
f 4/4/4 6/6/6 8/8/8
f 6/6/6 4/4/4 5/5/5
f 11/11/11 13/13/13 14/14/14
f 11/11/11 12/12/12 13/13/13
f 15/15/15 16/16/16 17/17/17
f 18/18/18 19/19/19 20/20/20
f 21/21/21 22/22/22 23/23/23
f 24/24/24 25/25/25 26/26/26
f 27/27/27 28/28/28 29/29/29
f 30/30/30 31/31/31 32/32/32
f 33/33/33 35/35/35 36/36/36
f 35/35/35 33/33/33 34/34/34
f 37/37/37 38/38/38 39/39/39
f 40/40/40 41/41/41 42/42/42
f 43/43/43 44/44/44 45/45/45
f 46/46/46 47/47/47 48/48/48
f 49/49/49 50/50/50 51/51/51
f 52/52/52 53/53/53 54/54/54
f 55/55/55 56/56/56 57/57/57
f 58/58/58 59/59/59 60/60/60
f 61/61/61 62/62/62 63/63/63
f 67/67/67 65/65/65 66/66/66
f 67/67/67 64/64/64 65/65/65
f 71/71/71 69/69/69 70/70/70
f 71/71/71 68/68/68 69/69/69
f 72/72/72 73/73/73 74/74/74
f 75/75/75 76/76/76 77/77/77
f 78/78/78 79/79/79 80/80/80
f 96/96/96 81/81/81 94/94/94
f 89/89/89 90/90/90 91/91/91
f 94/94/94 81/81/81 93/93/93
f 82/82/82 83/83/83 81/81/81
f 88/88/88 89/89/89 87/87/87
f 84/84/84 85/85/85 87/87/87
f 93/93/93 81/81/81 83/83/83
f 85/85/85 86/86/86 87/87/87
f 92/92/92 83/83/83 91/91/91
f 84/84/84 87/87/87 89/89/89
f 91/91/91 83/83/83 84/84/84
f 94/94/94 95/95/95 96/96/96
f 91/91/91 84/84/84 89/89/89
f 92/92/92 93/93/93 83/83/83
