v -2.973939 5.917804 10.64812
v 24.44606 5.917804 -2.308876
v 0.1310611 5.917804 -18.03688
v -2.973939 5.917804 10.64812
v 9.503061 5.917804 18.55012
v 10.24506 5.917804 17.42212
v -2.973939 5.917804 10.64812
v 10.68206 5.917804 19.45112
v 9.503061 5.917804 18.55012
v -2.973939 5.917804 10.64812
v 10.24506 5.917804 17.42212
v 24.44606 5.917804 -2.308876
v 10.64206 5.917804 19.29912
v 10.68206 5.917804 19.45112
v 11.38406 5.917804 18.17212
v 9.503061 5.917804 18.55012
v 10.68206 5.917804 19.45112
v 10.64206 5.917804 19.29912
v 10.24506 5.917804 17.42212
v 11.38406 5.917804 18.17212
v 24.44606 5.917804 -2.308876
v 10.68206 5.917804 19.45112
v 24.44606 5.917804 -2.308876
v 11.38406 5.917804 18.17212
v -26.98994 5.917804 -2.895876
v -2.973939 5.917804 10.64812
v 0.1310611 5.917804 -18.03688
v -28.27494 5.917804 -0.9028763
v -5.139939 5.917804 14.00912
v -2.973939 5.917804 10.64812
v -26.98994 5.917804 -2.895876
v 9.503061 9.915804 18.55012
v 10.64206 9.915804 19.29912
v 11.38406 9.915804 18.17212
v 10.24506 9.915804 17.42212
v -16.70744 -5.927302 6.553124
v -5.139939 -5.927302 14.00912
v -5.139939 5.917804 14.00912
v -28.27494 5.917804 -0.9028763
v -28.27494 -5.927302 -0.9028763
v -16.70744 -5.927302 6.553124
v -28.27494 5.917804 -0.9028763
v -16.70744 -5.927302 6.553124
v -5.139939 5.917804 14.00912
v -4.056939 -5.927302 12.32862
v -2.973939 -5.927302 10.64812
v -2.973939 5.917804 10.64812
v -5.139939 5.917804 14.00912
v -5.139939 -5.927302 14.00912
v -4.056939 -5.927302 12.32862
v -5.139939 5.917804 14.00912
v -4.056939 -5.927302 12.32862
v -2.973939 5.917804 10.64812
v -2.973939 -5.927302 10.64812
v 10.68206 -5.927302 19.45112
v 10.68206 5.917804 19.45112
v -2.973939 5.917804 10.64812
v 10.68206 -5.927302 19.45112
v 24.44606 -5.927302 -2.308876
v 24.44606 5.917804 -2.308876
v 10.68206 5.917804 19.45112
v 0.1310611 5.917804 -18.03688
v 24.44606 5.917804 -2.308876
v 24.44606 -5.927302 -2.308876
v 0.1310611 -5.927302 -18.03688
v -26.98994 5.917804 -2.895876
v 0.1310611 5.917804 -18.03688
v 0.1310611 -5.927302 -18.03688
v -26.98994 -5.927302 -2.895876
v -28.27494 5.917804 -0.9028763
v -26.98994 5.917804 -2.895876
v -26.98994 -5.927302 -2.895876
v -28.27494 -5.927302 -0.9028763
v 9.503061 5.917804 18.55012
v 10.64206 5.917804 19.29912
v 10.64206 9.915804 19.29912
v 9.503061 9.915804 18.55012
v 10.64206 5.917804 19.29912
v 11.38406 5.917804 18.17212
v 11.38406 9.915804 18.17212
v 10.64206 9.915804 19.29912
v 10.24506 9.915804 17.42212
v 11.38406 9.915804 18.17212
v 11.38406 5.917804 18.17212
v 10.24506 5.917804 17.42212
v 9.503061 9.915804 18.55012
v 10.24506 9.915804 17.42212
v 10.24506 5.917804 17.42212
v 9.503061 5.917804 18.55012
v -16.70744 -5.927302 6.553124
v -28.27494 -5.927302 -0.9028763
v -26.98994 -5.927302 -2.895876
v 0.1310611 -5.927302 -18.03688
v 24.44606 -5.927302 -2.308876
v 10.68206 -5.927302 19.45112
v -2.973939 -5.927302 10.64812
v -4.056939 -5.927302 12.32862
v -5.139939 -5.927302 14.00912
vt 0.153667 0.345397
vt 0.379233 0.000716
vt 0.651980 0.306930
vt 0.153667 0.345397
vt 0.016621 0.188288
vt 0.036228 0.178977
vt 0.153667 0.345397
vt 0.000990 0.173438
vt 0.016621 0.188288
vt 0.153667 0.345397
vt 0.036228 0.178977
vt 0.379233 0.000716
vt 0.003630 0.173945
vt 0.000990 0.173438
vt 0.023219 0.164633
vt 0.016621 0.188288
vt 0.000990 0.173438
vt 0.003630 0.173945
vt 0.036228 0.178977
vt 0.023219 0.164633
vt 0.379233 0.000716
vt 0.000990 0.173438
vt 0.379233 0.000716
vt 0.023219 0.164633
vt 0.388473 0.647712
vt 0.153667 0.345397
vt 0.651980 0.306930
vt 0.353836 0.663830
vt 0.095252 0.372572
vt 0.153667 0.345397
vt 0.388473 0.647712
vt 0.895861 0.688573
vt 0.883168 0.674566
vt 0.902306 0.665473
vt 0.915016 0.679480
vt 0.992079 0.665473
vt 0.992079 0.665473
vt 0.992079 0.665473
vt 0.992079 0.665473
vt 0.992079 0.665473
vt 0.992079 0.665473
vt 0.992079 0.665473
vt 0.992079 0.665473
vt 0.992079 0.665473
vt 0.826944 0.678809
vt 0.855291 0.665473
vt 0.825855 0.697052
vt 0.768317 0.724120
vt 0.798597 0.692145
vt 0.826944 0.678809
vt 0.768317 0.724120
vt 0.826944 0.678809
vt 0.825855 0.697052
vt 0.982178 0.665473
vt 0.982178 0.665473
vt 0.982178 0.665473
vt 0.982178 0.665473
vt 0.331958 0.836484
vt 0.702347 0.665473
vt 0.675904 0.692280
vt 0.300000 0.865836
vt 0.275571 0.996189
vt 0.000990 0.692318
vt 0.027411 0.665473
vt 0.297959 0.964889
vt 0.654455 0.341161
vt 0.917456 0.000716
vt 0.940808 0.010349
vt 0.681668 0.345791
vt 0.704951 0.681172
vt 0.739472 0.665473
vt 0.766246 0.711238
vt 0.732233 0.726706
vt 0.987129 0.665473
vt 0.987129 0.665473
vt 0.987129 0.665473
vt 0.987129 0.665473
vt 0.928483 0.674524
vt 0.947366 0.665473
vt 0.936800 0.675209
vt 0.917822 0.684305
vt 0.870102 0.689207
vt 0.857426 0.675281
vt 0.867907 0.665473
vt 0.880519 0.679329
vt 0.949505 0.674348
vt 0.968623 0.665473
vt 0.979462 0.669235
vt 0.960439 0.678066
vt 0.000990 0.997851
vt 0.000990 0.997851
vt 0.000990 0.997851
vt 0.000990 0.997851
vt 0.000990 0.997851
vt 0.000990 0.997851
vt 0.000990 0.997851
vt 0.000990 0.997851
vt 0.000990 0.997851
vn 0 1 0
vn 0 1 0
vn 0 1 0
vn 0 1 0
vn 0 1 0
vn 0 1 0
vn 0 1 0
vn 0 1 0
vn 0 1 0
vn 0 1 0
vn 0 1 0
vn 0 1 0
vn 0 1 0
vn 0 1 0
vn 0 1 0
vn 0 1 0
vn 0 1 0
vn 0 1 0
vn 0 1 0
vn 0 1 0
vn 0 1 0
vn 0 1 0
vn 0 1 0
vn 0 1 0
vn 0 1 0
vn 0 1 0
vn 0 1 0
vn 0 1 0
vn 0 1 0
vn 0 1 0
vn 0 1 0
vn 0 1 0
vn 0 1 0
vn 0 1 0
vn 0 1 0
vn -0.5417727 0 0.8405251
vn -0.5417727 0 0.8405251
vn -0.5417727 0 0.8405251
vn -0.5417727 0 0.8405251
vn -0.5417727 0 0.8405251
vn -0.5417727 0 0.8405251
vn -0.5417727 1.331077E-12 0.8405251
vn -0.5417727 1.331077E-12 0.8405251
vn -0.5417727 1.331077E-12 0.8405251
vn 0.8405685 0 0.5417053
vn 0.8405685 0 0.5417053
vn 0.8405685 0 0.5417053
vn 0.8405685 0 0.5417053
vn 0.8405685 0 0.5417053
vn 0.8405685 0 0.5417053
vn 0.8405685 -1.923051E-11 0.5417053
vn 0.8405685 -1.923051E-11 0.5417053
vn 0.8405685 -1.923051E-11 0.5417053
vn -0.5418086 0 0.8405019
vn -0.5418086 0 0.8405019
vn -0.5418086 0 0.8405019
vn -0.5418086 0 0.8405019
vn 0.8451232 0 0.5345715
vn 0.8451232 0 0.5345715
vn 0.8451232 0 0.5345715
vn 0.8451232 0 0.5345715
vn 0.5431238 0 -0.8396526
vn 0.5431238 0 -0.8396526
vn 0.5431238 0 -0.8396526
vn 0.5431238 0 -0.8396526
vn -0.4874569 0 -0.873147
vn -0.4874569 0 -0.873147
vn -0.4874569 0 -0.873147
vn -0.4874569 0 -0.873147
vn -0.8404515 0 -0.5418867
vn -0.8404515 0 -0.5418867
vn -0.8404515 0 -0.5418867
vn -0.8404515 0 -0.5418867
vn -0.5494413 0 0.8355323
vn -0.5494413 0 0.8355323
vn -0.5494413 0 0.8355323
vn -0.5494413 0 0.8355323
vn 0.835229 0 0.5499023
vn 0.835229 0 0.5499023
vn 0.835229 0 0.5499023
vn 0.835229 0 0.5499023
vn 0.5499532 0 -0.8351955
vn 0.5499532 0 -0.8351955
vn 0.5499532 0 -0.8351955
vn 0.5499532 0 -0.8351955
vn -0.8354529 0 -0.5495621
vn -0.8354529 0 -0.5495621
vn -0.8354529 0 -0.5495621
vn -0.8354529 0 -0.5495621
vn 0 -1 0
vn 0 -1 0
vn 0 -1 0
vn 0 -1 0
vn 0 -1 0
vn 0 -1 0
vn 0 -1 0
vn 0 -1 0
vn 0 -1 0

g CDNNDG02_0004120
f 1/1/1 2/2/2 3/3/3
f 4/4/4 5/5/5 6/6/6
f 7/7/7 8/8/8 9/9/9
f 10/10/10 11/11/11 12/12/12
f 13/13/13 14/14/14 15/15/15
f 16/16/16 17/17/17 18/18/18
f 19/19/19 20/20/20 21/21/21
f 22/22/22 23/23/23 24/24/24
f 25/25/25 26/26/26 27/27/27
f 31/31/31 28/28/28 29/29/29
f 30/30/30 31/31/31 29/29/29
f 33/33/33 34/34/34 35/35/35
f 32/32/32 33/33/33 35/35/35
f 36/36/36 37/37/37 38/38/38
f 39/39/39 40/40/40 41/41/41
f 42/42/42 43/43/43 44/44/44
f 45/45/45 46/46/46 47/47/47
f 48/48/48 49/49/49 50/50/50
f 51/51/51 52/52/52 53/53/53
f 54/54/54 56/56/56 57/57/57
f 56/56/56 54/54/54 55/55/55
f 59/59/59 60/60/60 61/61/61
f 58/58/58 59/59/59 61/61/61
f 62/62/62 64/64/64 65/65/65
f 62/62/62 63/63/63 64/64/64
f 69/69/69 66/66/66 68/68/68
f 67/67/67 68/68/68 66/66/66
f 70/70/70 71/71/71 72/72/72
f 73/73/73 70/70/70 72/72/72
f 77/77/77 74/74/74 75/75/75
f 76/76/76 77/77/77 75/75/75
f 79/79/79 80/80/80 81/81/81
f 78/78/78 79/79/79 81/81/81
f 82/82/82 84/84/84 85/85/85
f 82/82/82 83/83/83 84/84/84
f 86/86/86 88/88/88 89/89/89
f 86/86/86 87/87/87 88/88/88
f 98/98/98 90/90/90 97/97/97
f 97/97/97 90/90/90 96/96/96
f 95/95/95 96/96/96 94/94/94
f 91/91/91 92/92/92 90/90/90
f 96/96/96 93/93/93 94/94/94
f 96/96/96 90/90/90 93/93/93
f 93/93/93 90/90/90 92/92/92
