v -7.614587 7.24095 5.442328
v -5.285587 7.24095 6.883328
v -5.101587 7.24095 6.585328
v -7.394588 7.24095 5.087328
v -5.101587 7.24095 6.585328
v -0.4885875 7.24095 -0.7206717
v -3.483588 7.24095 -2.572672
v -7.394588 7.24095 5.087328
v -7.992588 7.24095 4.718328
v -7.394588 7.24095 5.087328
v -3.483588 7.24095 -2.572672
v -1.498587 7.24095 8.813329
v 0.6188481 7.24095 3.686863
v 0.1064719 7.24095 4.473695
v -1.498587 7.24095 8.813329
v 8.041412 7.24095 -6.611671
v 0.6188481 7.24095 3.686863
v -1.498587 7.24095 8.813329
v 0.1064719 7.24095 4.473695
v -0.7275875 7.24095 3.93013
v -0.4885875 7.24095 -0.7206717
v -0.2154057 7.24095 3.142163
v 8.041412 7.24095 -6.611671
v -1.498587 7.24095 8.813329
v -0.7275875 7.24095 3.93013
v -0.4885875 7.24095 -0.7206717
v -0.7275875 7.24095 3.93013
v -0.2154057 7.24095 3.142163
v -0.4885875 7.24095 -0.7206717
v -0.2154057 7.24095 3.142163
v 0.6188481 7.24095 3.686863
v 8.041412 7.24095 -6.611671
v 0.9644125 7.24095 -5.272672
v 8.041412 7.24095 -6.611671
v 3.165412 7.24095 -9.626672
v 0.6084125 7.24095 -5.492671
v 0.9644125 7.24095 -5.272672
v 3.165412 7.24095 -9.626672
v 0.3244125 7.24095 -2.034672
v 8.041412 7.24095 -6.611671
v 0.9644125 7.24095 -5.272672
v -0.6615875 7.24095 -2.643672
v 0.3244125 7.24095 -2.034672
v 0.9644125 7.24095 -5.272672
v -5.101587 7.24095 6.585328
v -1.498587 7.24095 8.813329
v -0.4885875 7.24095 -0.7206717
v -0.4885875 7.24095 -0.7206717
v 8.041412 7.24095 -6.611671
v 0.3244125 7.24095 -2.034672
v -0.0975875 7.78095 3.830328
v 0.1064719 7.24095 4.473695
v 0.6188481 7.24095 3.686863
v -0.2154057 7.24095 3.142163
v -0.0975875 7.78095 3.830328
v 0.6188481 7.24095 3.686863
v -0.7275875 7.24095 3.93013
v 0.1064719 7.24095 4.473695
v -0.0975875 7.78095 3.830328
v -0.7275875 7.24095 3.93013
v -0.0975875 7.78095 3.830328
v -0.2154057 7.24095 3.142163
v -7.992588 -7.242404 4.718328
v -7.394588 -7.242404 5.087328
v -7.394588 7.24095 5.087328
v -7.992588 7.24095 4.718328
v -7.614587 7.24095 5.442328
v -7.394588 7.24095 5.087328
v -7.394588 -7.242404 5.087328
v -7.614587 -7.242404 5.442328
v -6.450088 -7.242404 6.162828
v -5.285587 -7.242404 6.883328
v -5.285587 7.24095 6.883328
v -7.614587 7.24095 5.442328
v -7.614587 -7.242404 5.442328
v -6.450088 -7.242404 6.162828
v -7.614587 7.24095 5.442328
v -6.450088 -7.242404 6.162828
v -5.285587 7.24095 6.883328
v -5.285587 -7.242404 6.883328
v -5.101587 -7.242404 6.585328
v -5.101587 7.24095 6.585328
v -5.285587 7.24095 6.883328
v -5.101587 -7.242404 6.585328
v -1.498587 -7.242404 8.813329
v -1.498587 7.24095 8.813329
v -5.101587 7.24095 6.585328
v -1.498587 -7.242404 8.813329
v 8.041412 -7.242404 -6.611671
v 8.041412 7.24095 -6.611671
v -1.498587 7.24095 8.813329
v 3.165412 7.24095 -9.626672
v 8.041412 7.24095 -6.611671
v 8.041412 -7.242404 -6.611671
v 3.165412 -7.242404 -9.626672
v 0.6084125 7.24095 -5.492671
v 3.165412 7.24095 -9.626672
v 3.165412 -7.242404 -9.626672
v 0.6084125 -7.242404 -5.492671
v 0.6084125 -7.242404 -5.492671
v 0.9644125 -7.242404 -5.272672
v 0.9644125 7.24095 -5.272672
v 0.6084125 7.24095 -5.492671
v -0.6615875 7.24095 -2.643672
v 0.9644125 7.24095 -5.272672
v 0.9644125 -7.242404 -5.272672
v -0.6615875 -7.242404 -2.643672
v -0.1685875 -7.242404 -2.339172
v 0.3244125 -7.242404 -2.034672
v 0.3244125 7.24095 -2.034672
v -0.6615875 7.24095 -2.643672
v -0.6615875 -7.242404 -2.643672
v -0.1685875 -7.242404 -2.339172
v -0.6615875 7.24095 -2.643672
v -0.1685875 -7.242404 -2.339172
v 0.3244125 7.24095 -2.034672
v -0.4885875 7.24095 -0.7206717
v 0.3244125 7.24095 -2.034672
v 0.3244125 -7.242404 -2.034672
v -0.4885875 -7.242404 -0.7206717
v -3.483588 7.24095 -2.572672
v -1.986087 -7.242404 -1.646672
v -3.483588 -7.242404 -2.572672
v -1.986087 -7.242404 -1.646672
v -0.4885875 7.24095 -0.7206717
v -0.4885875 -7.242404 -0.7206717
v -3.483588 7.24095 -2.572672
v -0.4885875 7.24095 -0.7206717
v -1.986087 -7.242404 -1.646672
v -7.992588 7.24095 4.718328
v -3.483588 7.24095 -2.572672
v -3.483588 -7.242404 -2.572672
v -7.992588 -7.242404 4.718328
v -3.483588 -7.242404 -2.572672
v -1.986087 -7.242404 -1.646672
v -0.4885875 -7.242404 -0.7206717
v 0.3244125 -7.242404 -2.034672
v -0.1685875 -7.242404 -2.339172
v -0.6615875 -7.242404 -2.643672
v 0.9644125 -7.242404 -5.272672
v 0.6084125 -7.242404 -5.492671
v 3.165412 -7.242404 -9.626672
v 8.041412 -7.242404 -6.611671
v -1.498587 -7.242404 8.813329
v -5.101587 -7.242404 6.585328
v -5.285587 -7.242404 6.883328
v -6.450088 -7.242404 6.162828
v -7.614587 -7.242404 5.442328
v -7.394588 -7.242404 5.087328
v -7.992588 -7.242404 4.718328
vt 0.122893 0.404646
vt 0.070967 0.342166
vt 0.082469 0.337550
vt 0.136596 0.399126
vt 0.082469 0.337550
vt 0.364580 0.221695
vt 0.431310 0.302046
vt 0.136596 0.399126
vt 0.149890 0.415168
vt 0.136596 0.399126
vt 0.431310 0.302046
vt 0.002183 0.240888
vt 0.198852 0.189087
vt 0.168451 0.201975
vt 0.002183 0.240888
vt 0.597598 0.001520
vt 0.198852 0.189087
vt 0.002183 0.240888
vt 0.168451 0.201975
vt 0.188089 0.224374
vt 0.364580 0.221695
vt 0.218533 0.211492
vt 0.597598 0.001520
vt 0.002183 0.240888
vt 0.188089 0.224374
vt 0.364580 0.221695
vt 0.188089 0.224374
vt 0.218533 0.211492
vt 0.364580 0.221695
vt 0.218533 0.211492
vt 0.198852 0.189087
vt 0.597598 0.001520
vt 0.538723 0.186953
vt 0.597598 0.001520
vt 0.706228 0.132348
vt 0.546650 0.196505
vt 0.538723 0.186953
vt 0.706228 0.132348
vt 0.415301 0.201297
vt 0.597598 0.001520
vt 0.538723 0.186953
vt 0.437243 0.227750
vt 0.415301 0.201297
vt 0.538723 0.186953
vt 0.082469 0.337550
vt 0.002183 0.240888
vt 0.364580 0.221695
vt 0.364580 0.221695
vt 0.597598 0.001520
vt 0.415301 0.201297
vt 0.883241 0.904808
vt 0.858079 0.898029
vt 0.886395 0.886018
vt 0.852913 0.907006
vt 0.831878 0.904904
vt 0.834966 0.886018
vt 0.820650 0.906851
vt 0.801310 0.886018
vt 0.826863 0.888562
vt 0.890830 0.904106
vt 0.897080 0.886018
vt 0.918947 0.891393
vt 0.441584 0.967921
vt 0.427948 0.952492
vt 0.502280 0.886018
vt 0.516165 0.901730
vt 0.691997 0.891814
vt 0.705314 0.886018
vt 0.630982 0.952341
vt 0.617904 0.958032
vt 0.797564 0.792695
vt 0.770742 0.762447
vt 0.844398 0.694529
vt 0.899021 0.756130
vt 0.824386 0.822942
vt 0.797564 0.792695
vt 0.899021 0.756130
vt 0.797564 0.792695
vt 0.844398 0.694529
vt 0.711790 0.890412
vt 0.722840 0.886018
vt 0.794859 0.923855
vt 0.783610 0.928328
vt 0.445655 0.858243
vt 0.362445 0.764421
vt 0.435021 0.694529
vt 0.519750 0.790068
vt 0.002183 0.654125
vt 0.586924 0.419453
vt 0.669698 0.452473
vt 0.074386 0.691383
vt 0.934498 0.886018
vt 0.934498 0.886018
vt 0.934498 0.886018
vt 0.934498 0.886018
vt 0.608896 0.762563
vt 0.766348 0.694529
vt 0.680825 0.766551
vt 0.526201 0.833363
vt 0.529969 0.965613
vt 0.521834 0.956430
vt 0.603192 0.886018
vt 0.611475 0.895370
vt 0.082693 0.929175
vt 0.182529 0.886018
vt 0.100226 0.956815
vt 0.002183 0.999196
vt 0.199060 0.969106
vt 0.187773 0.956348
vt 0.267143 0.886018
vt 0.290130 0.912001
vt 0.210347 0.981864
vt 0.199060 0.969106
vt 0.290130 0.912001
vt 0.199060 0.969106
vt 0.267143 0.886018
vt 0.373576 0.907531
vt 0.423233 0.886018
vt 0.343525 0.956295
vt 0.294760 0.977421
vt 0.923581 0.886018
vt 0.923581 0.886018
vt 0.923581 0.886018
vt 0.923581 0.886018
vt 0.923581 0.886018
vt 0.923581 0.886018
vt 0.923581 0.886018
vt 0.923581 0.886018
vt 0.923581 0.886018
vt 0.078118 0.814821
vt 0.356600 0.694529
vt 0.275664 0.763568
vt 0.002183 0.881698
vt 0.945415 0.886018
vt 0.945415 0.886018
vt 0.945415 0.886018
vt 0.945415 0.886018
vt 0.945415 0.886018
vt 0.945415 0.886018
vt 0.945415 0.886018
vt 0.945415 0.886018
vt 0.945415 0.886018
vt 0.945415 0.886018
vt 0.945415 0.886018
vt 0.945415 0.886018
vt 0.945415 0.886018
vt 0.945415 0.886018
vt 0.945415 0.886018
vt 0.945415 0.886018
vt 0.945415 0.886018
vn 0 1 0
vn 0 1 0
vn 0 1 0
vn 0 1 0
vn 0 1 0
vn 0 1 0
vn 0 1 0
vn 0 1 0
vn 0 1 0
vn 0 1 0
vn 0 1 0
vn 0 1 0
vn 0 1 0
vn 0 1 0
vn 0 1 0
vn 0 1 0
vn 0 1 0
vn 0 1 0
vn 0 1 0
vn 0 1 0
vn 0 1 0
vn 0 1 0
vn 0 1 0
vn 0 1 0
vn 0 1 0
vn 0 1 0
vn 0 1 0
vn 0 1 0
vn 0 1 0
vn 0 1 0
vn 0 1 0
vn 0 1 0
vn 0 1 0
vn 0 1 0
vn 0 1 0
vn 0 1 0
vn 0 1 0
vn 0 1 0
vn 0 1 0
vn 0 1 0
vn 0 1 0
vn 0 1 0
vn 0 1 0
vn 0 1 0
vn 0 1 0
vn 0 1 0
vn 0 1 0
vn 0 1 0
vn 0 1 0
vn 0 1 0
vn 0.6024607 0.6950752 0.3923158
vn 0.6024607 0.6950752 0.3923158
vn 0.6024607 0.6950752 0.3923158
vn 0.3967987 0.6879057 -0.6077307
vn 0.3967987 0.6879057 -0.6077307
vn 0.3967987 0.6879057 -0.6077307
vn -0.4280503 0.6207829 0.6568116
vn -0.4280503 0.6207829 0.6568116
vn -0.4280503 0.6207829 0.6568116
vn -0.6302236 0.6595504 -0.4096479
vn -0.6302236 0.6595504 -0.4096479
vn -0.6302236 0.6595504 -0.4096479
vn -0.5251293 0 0.8510225
vn -0.5251293 0 0.8510225
vn -0.5251293 0 0.8510225
vn -0.5251293 0 0.8510225
vn -0.8500099 0 -0.5267667
vn -0.8500099 0 -0.5267667
vn -0.8500099 0 -0.5267667
vn -0.8500099 0 -0.5267667
vn -0.5261535 0 0.8503896
vn -0.5261535 0 0.8503896
vn -0.5261535 0 0.8503896
vn -0.5261535 0 0.8503896
vn -0.5261535 0 0.8503896
vn -0.5261535 0 0.8503896
vn -0.5261535 -2.839858E-11 0.8503896
vn -0.5261535 -2.839858E-11 0.8503896
vn -0.5261535 -2.839858E-11 0.8503896
vn 0.8508731 0 0.5253713
vn 0.8508731 0 0.5253713
vn 0.8508731 0 0.5253713
vn 0.8508731 0 0.5253713
vn -0.5259401 0 0.8505216
vn -0.5259401 0 0.8505216
vn -0.5259401 0 0.8505216
vn -0.5259401 0 0.8505216
vn 0.8504825 0 0.5260034
vn 0.8504825 0 0.5260034
vn 0.8504825 0 0.5260034
vn 0.8504825 0 0.5260034
vn 0.5259162 0 -0.8505364
vn 0.5259162 0 -0.8505364
vn 0.5259162 0 -0.8505364
vn 0.5259162 0 -0.8505364
vn -0.8504624 0 -0.5260358
vn -0.8504624 0 -0.5260358
vn -0.8504624 0 -0.5260358
vn -0.8504624 0 -0.5260358
vn -0.5256963 0 0.8506723
vn -0.5256963 0 0.8506723
vn -0.5256963 0 0.8506723
vn -0.5256963 0 0.8506723
vn -0.8504788 0 -0.5260093
vn -0.8504788 0 -0.5260093
vn -0.8504788 0 -0.5260093
vn -0.8504788 0 -0.5260093
vn -0.5254929 0 0.850798
vn -0.5254929 0 0.850798
vn -0.5254929 0 0.850798
vn -0.5254929 0 0.850798
vn -0.5254929 0 0.850798
vn -0.5254929 0 0.850798
vn -0.5254929 2.735442E-11 0.850798
vn -0.5254929 2.735442E-11 0.850798
vn -0.5254929 2.735442E-11 0.850798
vn -0.8503892 0 -0.5261541
vn -0.8503892 0 -0.5261541
vn -0.8503892 0 -0.5261541
vn -0.8503892 0 -0.5261541
vn 0.5259342 0 -0.8505253
vn 0.5259342 0 -0.8505253
vn 0.5259342 0 -0.8505253
vn 0.5259342 0 -0.8505253
vn 0.5259342 0 -0.8505253
vn 0.5259342 0 -0.8505253
vn 0.5259342 0 -0.8505253
vn 0.5259342 0 -0.8505253
vn 0.5259342 0 -0.8505253
vn -0.8504987 0 -0.5259771
vn -0.8504987 0 -0.5259771
vn -0.8504987 0 -0.5259771
vn -0.8504987 0 -0.5259771
vn 0 -1 0
vn 0 -1 0
vn 0 -1 0
vn 0 -1 0
vn 0 -1 0
vn 0 -1 0
vn 0 -1 0
vn 0 -1 0
vn 0 -1 0
vn 0 -1 0
vn 0 -1 0
vn 0 -1 0
vn 0 -1 0
vn 0 -1 0
vn 0 -1 0
vn 0 -1 0
vn 0 -1 0

g CDNNDG02_0013410
f 4/4/4 1/1/1 3/3/3
f 3/3/3 1/1/1 2/2/2
f 6/6/6 7/7/7 8/8/8
f 5/5/5 6/6/6 8/8/8
f 9/9/9 10/10/10 11/11/11
f 12/12/12 13/13/13 14/14/14
f 15/15/15 16/16/16 17/17/17
f 18/18/18 19/19/19 20/20/20
f 21/21/21 22/22/22 23/23/23
f 24/24/24 25/25/25 26/26/26
f 27/27/27 28/28/28 29/29/29
f 30/30/30 31/31/31 32/32/32
f 33/33/33 34/34/34 35/35/35
f 36/36/36 37/37/37 38/38/38
f 39/39/39 40/40/40 41/41/41
f 42/42/42 43/43/43 44/44/44
f 45/45/45 46/46/46 47/47/47
f 48/48/48 49/49/49 50/50/50
f 51/51/51 52/52/52 53/53/53
f 54/54/54 55/55/55 56/56/56
f 57/57/57 58/58/58 59/59/59
f 60/60/60 61/61/61 62/62/62
f 63/63/63 65/65/65 66/66/66
f 65/65/65 63/63/63 64/64/64
f 67/67/67 69/69/69 70/70/70
f 67/67/67 68/68/68 69/69/69
f 71/71/71 72/72/72 73/73/73
f 74/74/74 75/75/75 76/76/76
f 77/77/77 78/78/78 79/79/79
f 81/81/81 82/82/82 80/80/80
f 80/80/80 82/82/82 83/83/83
f 84/84/84 86/86/86 87/87/87
f 86/86/86 84/84/84 85/85/85
f 91/91/91 88/88/88 89/89/89
f 89/89/89 90/90/90 91/91/91
f 94/94/94 92/92/92 93/93/93
f 92/92/92 94/94/94 95/95/95
f 96/96/96 98/98/98 99/99/99
f 96/96/96 97/97/97 98/98/98
f 100/100/100 102/102/102 103/103/103
f 102/102/102 100/100/100 101/101/101
f 104/104/104 105/105/105 106/106/106
f 107/107/107 104/104/104 106/106/106
f 108/108/108 109/109/109 110/110/110
f 111/111/111 112/112/112 113/113/113
f 114/114/114 115/115/115 116/116/116
f 117/117/117 119/119/119 120/120/120
f 117/117/117 118/118/118 119/119/119
f 121/121/121 122/122/122 123/123/123
f 124/124/124 125/125/125 126/126/126
f 127/127/127 128/128/128 129/129/129
f 130/130/130 132/132/132 133/133/133
f 130/130/130 131/131/131 132/132/132
f 150/150/150 134/134/134 149/149/149
f 134/134/134 135/135/135 149/149/149
f 147/147/147 148/148/148 149/149/149
f 144/144/144 136/136/136 143/143/143
f 136/136/136 137/137/137 143/143/143
f 137/137/137 138/138/138 140/140/140
f 138/138/138 139/139/139 140/140/140
f 137/137/137 140/140/140 143/143/143
f 140/140/140 141/141/141 142/142/142
f 145/145/145 147/147/147 149/149/149
f 140/140/140 142/142/142 143/143/143
f 145/145/145 146/146/146 147/147/147
f 135/135/135 136/136/136 145/145/145
f 135/135/135 145/145/145 149/149/149
f 136/136/136 144/144/144 145/145/145
