v 1.877178 5.677532 3.769941
v 7.976178 5.677532 -5.382059
v 5.009178 5.677532 -7.359059
v -4.075822 5.677532 -0.197059
v 1.877178 5.677532 3.769941
v 5.009178 5.677532 -7.359059
v 1.760178 5.677532 -8.956059
v 1.760178 5.677532 -8.956059
v 5.009178 5.677532 -7.359059
v 4.868178 5.677532 -8.516059
v 1.760178 5.677532 -8.956059
v 4.868178 5.677532 -8.516059
v 3.079178 5.677532 -9.697059
v -6.718822 5.904628 3.768941
v -1.934822 5.904321 9.490941
v 0.5981784 5.904986 5.688941
v -5.524822 5.904941 1.976941
v -8.484821 5.904321 5.125941
v -1.934822 5.904321 9.490941
v -6.718822 5.904628 3.768941
v -8.484821 5.904321 5.125941
v -6.718822 5.904628 3.768941
v -7.315822 5.904628 3.371941
v -5.524822 5.904941 1.976941
v 0.5981784 5.904986 5.688941
v 1.877178 5.905321 3.769941
v -4.075822 5.905321 -0.197059
v -4.075822 5.677532 -0.197059
v 1.760178 5.677532 -8.956059
v 1.760178 -5.766051 -8.956059
v -4.075822 -5.766051 -0.197059
v -5.524822 5.904941 1.976941
v -4.075822 5.677532 -0.197059
v -4.075822 -5.766051 -0.197059
v -5.524822 -5.766051 1.976941
v -5.524822 5.904941 1.976941
v -4.075822 5.905321 -0.197059
v -4.075822 5.677532 -0.197059
v -6.718822 5.904628 3.768941
v -5.524822 5.904941 1.976941
v -5.524822 -5.766051 1.976941
v -6.718822 -5.766051 3.768941
v 1.877178 -5.766051 3.769941
v 7.976178 -5.766051 -5.382059
v 7.976178 5.677532 -5.382059
v 1.877178 5.677532 3.769941
v -0.6683216 -5.766051 7.589941
v 0.5981784 -5.766051 5.688941
v 0.5981784 5.904986 5.688941
v -1.934822 5.904321 9.490941
v -1.934822 -5.766051 9.490941
v -0.6683216 -5.766051 7.589941
v -1.934822 5.904321 9.490941
v -0.6683216 -5.766051 7.589941
v 0.5981784 5.904986 5.688941
v 0.5981784 5.904986 5.688941
v 1.877178 5.677532 3.769941
v 1.877178 5.905321 3.769941
v 0.5981784 -5.766051 5.688941
v 1.877178 -5.766051 3.769941
v 1.877178 5.677532 3.769941
v 0.5981784 5.904986 5.688941
v 5.009178 5.677532 -7.359059
v 7.976178 5.677532 -5.382059
v 7.976178 -5.766051 -5.382059
v 5.009178 -5.766051 -7.359059
v 4.868178 5.677532 -8.516059
v 5.009178 5.677532 -7.359059
v 5.009178 -5.766051 -7.359059
v 4.868178 -5.766051 -8.516059
v 3.079178 5.677532 -9.697059
v 4.868178 5.677532 -8.516059
v 4.868178 -5.766051 -8.516059
v 3.079178 -5.766051 -9.697059
v 1.760178 5.677532 -8.956059
v 3.079178 5.677532 -9.697059
v 3.079178 -5.766051 -9.697059
v 1.760178 -5.766051 -8.956059
v -8.484821 5.904321 5.125941
v -7.315822 5.904628 3.371941
v -7.315822 -5.766051 3.371941
v -8.484821 -5.766051 5.125941
v -5.209822 -5.766051 7.308441
v -1.934822 -5.766051 9.490941
v -1.934822 5.904321 9.490941
v -8.484821 5.904321 5.125941
v -8.484821 -5.766051 5.125941
v -5.209822 -5.766051 7.308441
v -8.484821 5.904321 5.125941
v -5.209822 -5.766051 7.308441
v -1.934822 5.904321 9.490941
v -7.315822 5.904628 3.371941
v -7.017322 -5.766051 3.570441
v -7.315822 -5.766051 3.371941
v -7.017322 -5.766051 3.570441
v -6.718822 5.904628 3.768941
v -6.718822 -5.766051 3.768941
v -7.315822 5.904628 3.371941
v -6.718822 5.904628 3.768941
v -7.017322 -5.766051 3.570441
v -4.075822 5.905321 -0.197059
v 1.877178 5.905321 3.769941
v 1.877178 5.677532 3.769941
v -4.075822 5.677532 -0.197059
v -7.017322 -5.766051 3.570441
v -6.718822 -5.766051 3.768941
v -5.524822 -5.766051 1.976941
v -4.075822 -5.766051 -0.197059
v 1.760178 -5.766051 -8.956059
v 3.079178 -5.766051 -9.697059
v 4.868178 -5.766051 -8.516059
v 5.009178 -5.766051 -7.359059
v 7.976178 -5.766051 -5.382059
v 1.877178 -5.766051 3.769941
v 0.5981784 -5.766051 5.688941
v -0.6683216 -5.766051 7.589941
v -1.934822 -5.766051 9.490941
v -5.209822 -5.766051 7.308441
v -8.484821 -5.766051 5.125941
v -7.315822 -5.766051 3.371941
vt 0.002000 0.140999
vt 0.325057 0.001385
vt 0.390205 0.073854
vt 0.132731 0.286387
vt 0.002000 0.140999
vt 0.390205 0.073854
vt 0.441906 0.152806
vt 0.441906 0.152806
vt 0.390205 0.073854
vt 0.430059 0.078050
vt 0.441906 0.152806
vt 0.430059 0.078050
vt 0.468957 0.121737
vt 0.844408 0.495266
vt 0.652000 0.376693
vt 0.786013 0.318738
vt 0.907572 0.467949
vt 0.795648 0.536582
vt 0.652000 0.376693
vt 0.844408 0.495266
vt 0.795648 0.536582
vt 0.844408 0.495266
vt 0.857471 0.509838
vt 0.907572 0.467949
vt 0.786013 0.318738
vt 0.853657 0.289474
vt 0.984202 0.434797
vt 0.470981 0.652950
vt 0.163896 0.787507
vt 0.002000 0.749551
vt 0.304779 0.616876
vt 0.550576 0.620257
vt 0.470981 0.652950
vt 0.304779 0.616876
vt 0.379934 0.583933
vt 0.550576 0.620257
vt 0.474337 0.653679
vt 0.470981 0.652950
vt 0.613420 0.592717
vt 0.550576 0.620257
vt 0.379934 0.583933
vt 0.441884 0.556787
vt 0.200242 0.425879
vt 0.517392 0.289474
vt 0.646663 0.327901
vt 0.325020 0.466236
vt 0.067872 0.482807
vt 0.133744 0.454483
vt 0.260077 0.496067
vt 0.126421 0.553529
vt 0.002000 0.511131
vt 0.067872 0.482807
vt 0.126421 0.553529
vt 0.067872 0.482807
vt 0.260077 0.496067
vt 0.260077 0.496067
vt 0.325020 0.466236
vt 0.327539 0.467051
vt 0.133744 0.454483
vt 0.200242 0.425879
vt 0.325020 0.466236
vt 0.260077 0.496067
vt 0.306544 0.790859
vt 0.373107 0.861832
vt 0.209632 0.896758
vt 0.144000 0.826781
vt 0.589794 0.937673
vt 0.629480 0.941264
vt 0.467130 0.976398
vt 0.428000 0.972857
vt 0.539239 0.790859
vt 0.578947 0.833459
vt 0.417153 0.869272
vt 0.378000 0.827269
vt 0.770791 0.828293
vt 0.744344 0.858909
vt 0.584000 0.821046
vt 0.610076 0.790859
vt 0.233625 0.972451
vt 0.172439 0.998987
vt 0.002000 0.963830
vt 0.062316 0.937673
vt 0.688696 0.668694
vt 0.618000 0.590023
vt 0.742274 0.556787
vt 0.885711 0.716412
vt 0.759389 0.747362
vt 0.688696 0.668694
vt 0.885711 0.716412
vt 0.688696 0.668694
vt 0.742274 0.556787
vt 0.408851 0.937673
vt 0.244576 0.984944
vt 0.238000 0.977985
vt 0.244576 0.984944
vt 0.422193 0.951793
vt 0.251152 0.991903
vt 0.408851 0.937673
vt 0.422193 0.951793
vt 0.244576 0.984944
vt 0.005335 0.790859
vt 0.138170 0.933790
vt 0.134798 0.934538
vt 0.002000 0.791647
vt 0.634000 0.937673
vt 0.634000 0.937673
vt 0.634000 0.937673
vt 0.634000 0.937673
vt 0.634000 0.937673
vt 0.634000 0.937673
vt 0.634000 0.937673
vt 0.634000 0.937673
vt 0.634000 0.937673
vt 0.634000 0.937673
vt 0.634000 0.937673
vt 0.634000 0.937673
vt 0.634000 0.937673
vt 0.634000 0.937673
vt 0.634000 0.937673
vt 0.634000 0.937673
vn 0 1 0
vn 0 1 0
vn 0 1 0
vn 0 1 0
vn 0 1 0
vn 0 1 0
vn 0 1 0
vn 0 1 0
vn 0 1 0
vn 0 1 0
vn 0 1 0
vn 0 1 0
vn 0 1 0
vn -8.066681E-05 1 0.0001210464
vn -8.066696E-05 1 0.000121047
vn -8.066681E-05 1 0.0001210464
vn -8.066665E-05 1 0.0001210458
vn -8.066745E-05 1 0.0001210474
vn -8.066745E-05 1 0.0001210474
vn -8.066745E-05 1 0.0001210474
vn -8.066506E-05 1 0.0001210505
vn -8.066506E-05 1 0.0001210505
vn -8.066506E-05 1 0.0001210505
vn -8.066675E-05 1 0.0001210459
vn -8.066498E-05 1 0.0001210445
vn -8.066321E-05 1 0.0001210431
vn -8.066498E-05 1 0.0001210445
vn -0.8321964 0 -0.5544809
vn -0.8321964 0 -0.5544809
vn -0.8321964 0 -0.5544809
vn -0.8321964 0 -0.5544809
vn -0.8321092 0 -0.5546119
vn -0.8321092 0 -0.5546119
vn -0.8321092 0 -0.5546119
vn -0.8321092 0 -0.5546119
vn -0.8321092 0 -0.5546119
vn -0.8321092 0 -0.5546119
vn -0.8321092 0 -0.5546119
vn -0.8321931 0 -0.5544859
vn -0.8321931 0 -0.5544859
vn -0.8321931 0 -0.5544859
vn -0.8321931 0 -0.5544859
vn 0.8321482 0 0.5545533
vn 0.8321482 0 0.5545533
vn 0.8321482 0 0.5545533
vn 0.8321482 0 0.5545533
vn 0.8322186 0 0.5544476
vn 0.8322186 0 0.5544476
vn 0.8322186 0 0.5544476
vn 0.8322186 0 0.5544476
vn 0.8322186 0 0.5544476
vn 0.8322186 0 0.5544476
vn 0.8322186 -2.075347E-12 0.5544476
vn 0.8322186 -2.075347E-12 0.5544476
vn 0.8322186 -2.075347E-12 0.5544476
vn 0.832117 0 0.5546001
vn 0.832117 0 0.5546001
vn 0.832117 0 0.5546001
vn 0.832117 0 0.5546001
vn 0.832117 0 0.5546001
vn 0.832117 0 0.5546001
vn 0.832117 0 0.5546001
vn 0.554506 0 -0.8321797
vn 0.554506 0 -0.8321797
vn 0.554506 0 -0.8321797
vn 0.554506 0 -0.8321797
vn 0.9926559 0 -0.1209719
vn 0.9926559 0 -0.1209719
vn 0.9926559 0 -0.1209719
vn 0.9926559 0 -0.1209719
vn 0.5509267 0 -0.8345537
vn 0.5509267 0 -0.8345537
vn 0.5509267 0 -0.8345537
vn 0.5509267 0 -0.8345537
vn -0.4897904 0 -0.8718402
vn -0.4897904 0 -0.8718402
vn -0.4897904 0 -0.8718402
vn -0.4897904 0 -0.8718402
vn -0.8321233 0 -0.5545907
vn -0.8321233 0 -0.5545907
vn -0.8321233 0 -0.5545907
vn -0.8321233 0 -0.5545907
vn -0.5545536 0 0.832148
vn -0.5545536 0 0.832148
vn -0.5545536 0 0.832148
vn -0.5545536 0 0.832148
vn -0.5545536 0 0.832148
vn -0.5545536 0 0.832148
vn -0.5545536 1.382955E-12 0.832148
vn -0.5545536 1.382955E-12 0.832148
vn -0.5545536 1.382955E-12 0.832148
vn 0.5537342 0 -0.8326935
vn 0.5537342 0 -0.8326935
vn 0.5537342 0 -0.8326935
vn 0.5537342 0 -0.8326935
vn 0.5537342 0 -0.8326935
vn 0.5537342 0 -0.8326935
vn 0.5537342 0 -0.8326935
vn 0.5537342 0 -0.8326935
vn 0.5537342 0 -0.8326935
vn 0.5545389 0 -0.8321578
vn 0.5545389 0 -0.8321578
vn 0.5545389 0 -0.8321578
vn 0.5545389 0 -0.8321578
vn 0 -1 0
vn 0 -1 0
vn 0 -1 0
vn 0 -1 0
vn 0 -1 0
vn 0 -1 0
vn 0 -1 0
vn 0 -1 0
vn 0 -1 0
vn 0 -1 0
vn 0 -1 0
vn 0 -1 0
vn 0 -1 0
vn 0 -1 0
vn 0 -1 0
vn 0 -1 0

g CDNNDG02_0011880
f 1/1/1 2/2/2 3/3/3
f 4/4/4 6/6/6 7/7/7
f 6/6/6 4/4/4 5/5/5
f 8/8/8 9/9/9 10/10/10
f 11/11/11 12/12/12 13/13/13
f 14/14/14 16/16/16 17/17/17
f 14/14/14 15/15/15 16/16/16
f 18/18/18 19/19/19 20/20/20
f 21/21/21 22/22/22 23/23/23
f 25/25/25 26/26/26 27/27/27
f 24/24/24 25/25/25 27/27/27
f 31/31/31 28/28/28 30/30/30
f 30/30/30 28/28/28 29/29/29
f 35/35/35 33/33/33 34/34/34
f 35/35/35 32/32/32 33/33/33
f 36/36/36 37/37/37 38/38/38
f 39/39/39 41/41/41 42/42/42
f 41/41/41 39/39/39 40/40/40
f 46/46/46 43/43/43 45/45/45
f 44/44/44 45/45/45 43/43/43
f 47/47/47 48/48/48 49/49/49
f 50/50/50 51/51/51 52/52/52
f 53/53/53 54/54/54 55/55/55
f 56/56/56 57/57/57 58/58/58
f 59/59/59 61/61/61 62/62/62
f 59/59/59 60/60/60 61/61/61
f 65/65/65 63/63/63 64/64/64
f 63/63/63 65/65/65 66/66/66
f 67/67/67 69/69/69 70/70/70
f 69/69/69 67/67/67 68/68/68
f 71/71/71 73/73/73 74/74/74
f 71/71/71 72/72/72 73/73/73
f 75/75/75 77/77/77 78/78/78
f 75/75/75 76/76/76 77/77/77
f 82/82/82 79/79/79 81/81/81
f 81/81/81 79/79/79 80/80/80
f 83/83/83 84/84/84 85/85/85
f 86/86/86 87/87/87 88/88/88
f 89/89/89 90/90/90 91/91/91
f 92/92/92 93/93/93 94/94/94
f 95/95/95 96/96/96 97/97/97
f 98/98/98 99/99/99 100/100/100
f 104/104/104 101/101/101 103/103/103
f 102/102/102 103/103/103 101/101/101
f 119/119/119 105/105/105 106/106/106
f 109/109/109 111/111/111 112/112/112
f 106/106/106 107/107/107 118/118/118
f 109/109/109 112/112/112 108/108/108
f 111/111/111 109/109/109 110/110/110
f 119/119/119 120/120/120 105/105/105
f 118/118/118 119/119/119 106/106/106
f 117/117/117 118/118/118 116/116/116
f 113/113/113 114/114/114 112/112/112
f 114/114/114 108/108/108 112/112/112
f 115/115/115 118/118/118 107/107/107
f 115/115/115 108/108/108 114/114/114
f 115/115/115 116/116/116 118/118/118
f 108/108/108 115/115/115 107/107/107
