v -7.115777 7.358181 3.925045
v -0.5637767 7.358181 8.107045
v -0.4857767 7.358181 7.985045
v 7.011223 7.358181 -3.760954
v 7.116223 7.358181 -3.924954
v 0.5642233 7.358181 -8.106955
v 0.4592233 7.358181 -7.942955
v -7.037776 7.358181 3.802046
v -7.115777 -7.358181 3.925045
v -0.5637767 -7.358181 8.107045
v -0.5637767 7.358181 8.107045
v -7.115777 7.358181 3.925045
v -0.5637767 -7.358181 8.107045
v -0.4857767 -7.358181 7.985045
v -0.4857767 7.358181 7.985045
v -0.5637767 7.358181 8.107045
v -0.4857767 -7.358181 7.985045
v 7.011223 -7.358181 -3.760954
v 7.011223 7.358181 -3.760954
v -0.4857767 7.358181 7.985045
v 7.011223 -7.358181 -3.760954
v 7.116223 -7.358181 -3.924954
v 7.116223 7.358181 -3.924954
v 7.011223 7.358181 -3.760954
v 0.5642233 7.358181 -8.106955
v 7.116223 7.358181 -3.924954
v 7.116223 -7.358181 -3.924954
v 0.5642233 -7.358181 -8.106955
v 0.4592233 7.358181 -7.942955
v 0.5642233 7.358181 -8.106955
v 0.5642233 -7.358181 -8.106955
v 0.4592233 -7.358181 -7.942955
v -7.037776 7.358181 3.802046
v 0.4592233 7.358181 -7.942955
v 0.4592233 -7.358181 -7.942955
v -7.037776 -7.358181 3.802046
v -7.115777 7.358181 3.925045
v -7.037776 7.358181 3.802046
v -7.037776 -7.358181 3.802046
v -7.115777 -7.358181 3.925045
v -7.037776 -7.358181 3.802046
v 0.4592233 -7.358181 -7.942955
v 0.5642233 -7.358181 -8.106955
v 7.116223 -7.358181 -3.924954
v 7.011223 -7.358181 -3.760954
v -0.4857767 -7.358181 7.985045
v -0.5637767 -7.358181 8.107045
v -7.115777 -7.358181 3.925045
vt 0.179609 0.422516
vt 0.002381 0.229865
vt 0.007495 0.227548
vt 0.499902 0.004789
vt 0.506777 0.001669
vt 0.683996 0.194337
vt 0.677120 0.197457
vt 0.184765 0.420198
vt 0.958754 0.963070
vt 0.786112 0.774499
vt 0.747619 0.719533
vt 0.923488 0.911629
vt 0.042222 0.650347
vt 0.047233 0.648083
vt 0.007485 0.713090
vt 0.002381 0.715396
vt 0.047233 0.648083
vt 0.529680 0.430427
vt 0.498936 0.491375
vt 0.007485 0.713090
vt 0.529680 0.430427
vt 0.536416 0.427379
vt 0.505799 0.488270
vt 0.498936 0.491375
vt 0.713678 0.972129
vt 0.538095 0.780375
vt 0.568495 0.719533
vt 0.740859 0.907775
vt 0.499397 0.722646
vt 0.506266 0.719533
vt 0.532527 0.775200
vt 0.525784 0.778256
vt 0.007532 0.944945
vt 0.499397 0.722646
vt 0.525784 0.778256
vt 0.042940 0.996474
vt 0.002381 0.947257
vt 0.007532 0.944945
vt 0.042940 0.996474
vt 0.037884 0.998744
vt 0.964286 0.719533
vt 0.964286 0.719533
vt 0.964286 0.719533
vt 0.964286 0.719533
vt 0.964286 0.719533
vt 0.964286 0.719533
vt 0.964286 0.719533
vt 0.964286 0.719533
vn 0 1 0
vn 0 1 0
vn 0 1 0
vn 0 1 0
vn 0 1 0
vn 0 1 0
vn 0 1 0
vn 0 1 0
vn -0.5380238 0 0.8429297
vn -0.5380238 0 0.8429297
vn -0.5380238 0 0.8429297
vn -0.5380238 0 0.8429297
vn 0.8425221 0 0.5386617
vn 0.8425221 0 0.5386617
vn 0.8425221 0 0.5386617
vn 0.8425221 0 0.5386617
vn 0.8429368 0 0.5380127
vn 0.8429368 0 0.5380127
vn 0.8429368 0 0.5380127
vn 0.8429368 0 0.5380127
vn 0.8421781 0 0.5391994
vn 0.8421781 0 0.5391994
vn 0.8421781 0 0.5391994
vn 0.8421781 0 0.5391994
vn 0.5380238 0 -0.8429297
vn 0.5380238 0 -0.8429297
vn 0.5380238 0 -0.8429297
vn 0.5380238 0 -0.8429297
vn -0.8421781 0 -0.5391994
vn -0.8421781 0 -0.5391994
vn -0.8421781 0 -0.5391994
vn -0.8421781 0 -0.5391994
vn -0.842916 0 -0.5380452
vn -0.842916 0 -0.5380452
vn -0.842916 0 -0.5380452
vn -0.842916 0 -0.5380452
vn -0.8445086 0 -0.535542
vn -0.8445086 0 -0.535542
vn -0.8445086 0 -0.535542
vn -0.8445086 0 -0.535542
vn 0 -1 0
vn 0 -1 0
vn 0 -1 0
vn 0 -1 0
vn 0 -1 0
vn 0 -1 0
vn 0 -1 0
vn 0 -1 0

g CDNNDG02_0000950
f 6/6/6 4/4/4 5/5/5
f 8/8/8 1/1/1 3/3/3
f 4/4/4 8/8/8 3/3/3
f 4/4/4 6/6/6 7/7/7
f 4/4/4 7/7/7 8/8/8
f 3/3/3 1/1/1 2/2/2
f 9/9/9 11/11/11 12/12/12
f 11/11/11 9/9/9 10/10/10
f 14/14/14 15/15/15 16/16/16
f 13/13/13 14/14/14 16/16/16
f 17/17/17 19/19/19 20/20/20
f 17/17/17 18/18/18 19/19/19
f 21/21/21 23/23/23 24/24/24
f 21/21/21 22/22/22 23/23/23
f 26/26/26 27/27/27 25/25/25
f 25/25/25 27/27/27 28/28/28
f 29/29/29 30/30/30 31/31/31
f 32/32/32 29/29/29 31/31/31
f 33/33/33 35/35/35 36/36/36
f 33/33/33 34/34/34 35/35/35
f 37/37/37 38/38/38 39/39/39
f 40/40/40 37/37/37 39/39/39
f 48/48/48 41/41/41 46/46/46
f 47/47/47 48/48/48 46/46/46
f 44/44/44 45/45/45 43/43/43
f 46/46/46 41/41/41 45/45/45
f 45/45/45 42/42/42 43/43/43
f 45/45/45 41/41/41 42/42/42
