v -6.531925 5.680037 3.051882
v -0.05592457 5.680037 7.207882
v 5.539075 5.680037 -3.595118
v -1.011925 5.680037 -5.550118
v -1.011925 5.680037 -5.550118
v 0.8970754 5.680037 -6.490118
v -0.02792457 5.680037 -7.083118
v -1.011925 5.680037 -5.550118
v 5.539075 5.680037 -3.595118
v 0.8970754 5.680037 -6.490118
v 0.8970754 5.680037 -6.490118
v 5.539075 5.680037 -3.595118
v 6.085075 5.680037 -4.446118
v 1.481075 5.680037 -7.401118
v -0.05592457 5.680037 7.207882
v 6.486075 5.680037 -2.987118
v 5.539075 5.680037 -3.595118
v -5.106668 5.445469 4.392246
v -3.482417 5.451818 5.423121
v -3.398671 5.553229 5.292751
v -5.025546 5.543705 4.265939
v -3.482417 5.451818 5.423121
v -1.858167 5.458168 6.453996
v -1.771796 5.562753 6.319564
v -3.398671 5.553229 5.292751
v -5.187789 5.347233 4.518553
v -3.566164 5.350408 5.55349
v -3.482417 5.451818 5.423121
v -5.106668 5.445469 4.392246
v -3.566164 5.350408 5.55349
v -1.944539 5.353582 6.588428
v -1.858167 5.458168 6.453996
v -3.482417 5.451818 5.423121
v -6.573925 5.629242 3.116882
v -5.106668 5.445469 4.392246
v -5.025546 5.543705 4.265939
v -6.88791 5.248997 3.60586
v -5.106668 5.445469 4.392246
v -6.573925 5.629242 3.116882
v -6.573925 5.629242 3.116882
v -5.025546 5.543705 4.265939
v -3.398671 5.553229 5.292751
v -3.398671 5.553229 5.292751
v -1.771796 5.562753 6.319564
v -0.05592457 5.680037 7.207882
v -6.573925 5.629242 3.116882
v -3.398671 5.553229 5.292751
v -0.05592457 5.680037 7.207882
v -1.858167 5.458168 6.453996
v -0.05592457 5.680037 7.207882
v -1.771796 5.562753 6.319564
v -6.88791 5.248997 3.60586
v -3.566164 5.350408 5.55349
v -5.187789 5.347233 4.518553
v -6.88791 5.248997 3.60586
v -5.187789 5.347233 4.518553
v -5.106668 5.445469 4.392246
v -6.88791 5.248997 3.60586
v -0.4119101 5.248997 7.761859
v -3.566164 5.350408 5.55349
v -1.944539 5.353582 6.588428
v -0.4119101 5.248997 7.761859
v -1.858167 5.458168 6.453996
v -3.566164 5.350408 5.55349
v -0.4119101 5.248997 7.761859
v -1.944539 5.353582 6.588428
v -1.858167 5.458168 6.453996
v -0.4119101 5.248997 7.761859
v -0.05592457 5.680037 7.207882
v -6.573925 5.629242 3.116882
v -0.05592457 5.680037 7.207882
v -6.531925 5.680037 3.051882
v -1.011925 5.680037 -5.550118
v -0.02792457 5.680037 -7.083118
v -0.02792457 -5.669765 -7.083118
v -1.011925 -5.669765 -5.550118
v -6.531925 5.680037 3.051882
v -1.011925 5.680037 -5.550118
v -1.011925 -5.669765 -5.550118
v -6.531925 -5.669765 3.051882
v -6.88791 5.248997 3.60586
v -6.573925 5.629242 3.116882
v -6.573925 -5.669765 3.116882
v -6.88791 -5.669765 3.60586
v -6.573925 5.629242 3.116882
v -6.531925 5.680037 3.051882
v -6.531925 -5.669765 3.051882
v -6.573925 -5.669765 3.116882
v 3.215075 -5.669765 2.110382
v 6.486075 -5.669765 -2.987118
v 6.486075 5.680037 -2.987118
v -0.05592457 5.680037 7.207882
v -0.05592457 -5.669765 7.207882
v 3.215075 -5.669765 2.110382
v -0.05592457 5.680037 7.207882
v 3.215075 -5.669765 2.110382
v 6.486075 5.680037 -2.987118
v -0.4119101 -5.669765 7.761859
v -0.05592457 -5.669765 7.207882
v -0.05592457 5.680037 7.207882
v -0.4119101 5.248997 7.761859
v 5.539075 5.680037 -3.595118
v 6.486075 5.680037 -2.987118
v 6.486075 -5.669765 -2.987118
v 5.539075 -5.669765 -3.595118
v 5.539075 -5.669765 -3.595118
v 6.085075 -5.669765 -4.446118
v 6.085075 5.680037 -4.446118
v 5.539075 5.680037 -3.595118
v 1.481075 5.680037 -7.401118
v 6.085075 5.680037 -4.446118
v 6.085075 -5.669765 -4.446118
v 1.481075 -5.669765 -7.401118
v 0.8970754 5.680037 -6.490118
v 1.481075 5.680037 -7.401118
v 1.481075 -5.669765 -7.401118
v 0.8970754 -5.669765 -6.490118
v -0.02792457 5.680037 -7.083118
v 0.8970754 5.680037 -6.490118
v 0.8970754 -5.669765 -6.490118
v -0.02792457 -5.669765 -7.083118
v -6.88791 -5.669765 3.60586
v -0.4119101 -5.669765 7.761859
v -0.4119101 5.248997 7.761859
v -6.88791 5.248997 3.60586
v -6.531925 -5.669765 3.051882
v -1.011925 -5.669765 -5.550118
v -0.02792457 -5.669765 -7.083118
v 0.8970754 -5.669765 -6.490118
v 1.481075 -5.669765 -7.401118
v 6.085075 -5.669765 -4.446118
v 5.539075 -5.669765 -3.595118
v 6.486075 -5.669765 -2.987118
v 3.215075 -5.669765 2.110382
v -0.05592457 -5.669765 7.207882
v -0.4119101 -5.669765 7.761859
v -6.88791 -5.669765 3.60586
v -6.573925 -5.669765 3.116882
vt 0.177686 0.401588
vt 0.002381 0.203679
vt 0.454247 0.030686
vt 0.537300 0.231215
vt 0.537300 0.231215
vt 0.576380 0.172572
vt 0.601392 0.200842
vt 0.537300 0.231215
vt 0.454247 0.030686
vt 0.576380 0.172572
vt 0.576380 0.172572
vt 0.454247 0.030686
vt 0.489827 0.013832
vt 0.614468 0.154546
vt 0.002381 0.203679
vt 0.428601 0.001742
vt 0.454247 0.030686
vt 0.536974 0.877122
vt 0.493825 0.827543
vt 0.499620 0.824204
vt 0.542594 0.873894
vt 0.493825 0.827543
vt 0.450674 0.777963
vt 0.456644 0.774512
vt 0.499620 0.824204
vt 0.531356 0.880350
vt 0.488032 0.830882
vt 0.493825 0.827543
vt 0.536974 0.877122
vt 0.488032 0.830882
vt 0.444706 0.781413
vt 0.450674 0.777963
vt 0.493825 0.827543
vt 0.591011 0.920463
vt 0.536974 0.877122
vt 0.542594 0.873894
vt 0.569238 0.932934
vt 0.536974 0.877122
vt 0.591011 0.920463
vt 0.591011 0.920463
vt 0.542594 0.873894
vt 0.499620 0.824204
vt 0.499620 0.824204
vt 0.456644 0.774512
vt 0.419813 0.721254
vt 0.591011 0.920463
vt 0.499620 0.824204
vt 0.419813 0.721254
vt 0.450674 0.777963
vt 0.419813 0.721254
vt 0.456644 0.774512
vt 0.569238 0.932934
vt 0.488032 0.830882
vt 0.531356 0.880350
vt 0.569238 0.932934
vt 0.531356 0.880350
vt 0.536974 0.877122
vt 0.569238 0.932934
vt 0.395238 0.735502
vt 0.488032 0.830882
vt 0.444706 0.781413
vt 0.395238 0.735502
vt 0.450674 0.777963
vt 0.488032 0.830882
vt 0.395238 0.735502
vt 0.444706 0.781413
vt 0.450674 0.777963
vt 0.395238 0.735502
vt 0.419813 0.721254
vt 0.591011 0.920463
vt 0.419813 0.721254
vt 0.593908 0.918794
vt 0.917068 0.436324
vt 0.981139 0.405923
vt 0.930861 0.491374
vt 0.867699 0.521343
vt 0.557570 0.606856
vt 0.917068 0.436324
vt 0.867699 0.521343
vt 0.513299 0.689454
vt 0.532727 0.621028
vt 0.554653 0.608528
vt 0.510621 0.690733
vt 0.490476 0.700295
vt 0.554653 0.608528
vt 0.557570 0.606856
vt 0.513299 0.689454
vt 0.510621 0.690733
vt 0.232931 0.505303
vt 0.440895 0.405923
vt 0.484311 0.509137
vt 0.062453 0.710722
vt 0.024979 0.604676
vt 0.232931 0.505303
vt 0.062453 0.710722
vt 0.232931 0.505303
vt 0.484311 0.509137
vt 0.002381 0.615490
vt 0.024979 0.604676
vt 0.062453 0.710722
vt 0.038101 0.717602
vt 0.740910 0.852093
vt 0.715985 0.823697
vt 0.673810 0.721254
vt 0.698384 0.749252
vt 0.747619 0.737698
vt 0.781483 0.721254
vt 0.824666 0.823726
vt 0.790318 0.840404
vt 0.388877 0.963339
vt 0.265302 0.824469
vt 0.221429 0.721254
vt 0.343264 0.858171
vt 0.879797 0.739102
vt 0.917049 0.721254
vt 0.867676 0.806428
vt 0.830952 0.824022
vt 0.668507 0.853812
vt 0.644197 0.826072
vt 0.600000 0.721254
vt 0.623967 0.748604
vt 0.174144 0.998309
vt 0.002381 0.803197
vt 0.041996 0.721254
vt 0.216133 0.919067
vt 0.923810 0.721254
vt 0.923810 0.721254
vt 0.923810 0.721254
vt 0.923810 0.721254
vt 0.923810 0.721254
vt 0.923810 0.721254
vt 0.923810 0.721254
vt 0.923810 0.721254
vt 0.923810 0.721254
vt 0.923810 0.721254
vt 0.923810 0.721254
vt 0.923810 0.721254
vt 0.923810 0.721254
vn 0 1 0
vn 0 1 0
vn 0 1 0
vn 0 1 0
vn 0 1 0
vn 0 1 0
vn 0 1 0
vn 0 1 0
vn 0 1 0
vn 0 1 0
vn 0 1 0
vn 0 1 0
vn 0 1 0
vn 0 1 0
vn 0 1 0
vn 0 1 0
vn 0 1 0
vn -0.2957554 0.8367532 0.4608392
vn -0.2957667 0.8367414 0.4608534
vn -0.2957779 0.8367297 0.4608675
vn -0.2957667 0.8367414 0.4608534
vn -0.2957745 0.8367297 0.4608696
vn -0.2957852 0.8367186 0.4608829
vn -0.2957959 0.8367075 0.4608962
vn -0.2957852 0.8367186 0.4608829
vn -0.2957519 0.8367532 0.4608415
vn -0.2957632 0.8367414 0.4608556
vn -0.2957746 0.8367296 0.4608697
vn -0.2957632 0.8367414 0.4608556
vn -0.2957712 0.8367296 0.4608718
vn -0.2957819 0.8367186 0.4608851
vn -0.2957926 0.8367075 0.4608983
vn -0.2957819 0.8367186 0.4608851
vn -0.2957623 0.8367532 0.4608348
vn -0.2957623 0.8367532 0.4608348
vn -0.2957623 0.8367532 0.4608348
vn -0.2957349 0.8367783 0.4608068
vn -0.2957349 0.8367783 0.4608068
vn -0.2957349 0.8367783 0.4608068
vn -0.2957385 0.8367783 0.4608045
vn -0.2957385 0.8367783 0.4608045
vn -0.2957385 0.8367783 0.4608045
vn -0.2958128 0.8366867 0.4609231
vn -0.2958128 0.8366867 0.4609231
vn -0.2958128 0.8366867 0.4609231
vn -0.2957813 0.8367296 0.4608653
vn -0.2957813 0.8367296 0.4608653
vn -0.2957813 0.8367296 0.4608653
vn -0.2957992 0.8367075 0.460894
vn -0.2957992 0.8367075 0.460894
vn -0.2957992 0.8367075 0.460894
vn -0.2957312 0.8367783 0.4608091
vn -0.2957312 0.8367783 0.4608091
vn -0.2957312 0.8367783 0.4608091
vn -0.2957484 0.8367532 0.4608437
vn -0.2957484 0.8367532 0.4608437
vn -0.2957484 0.8367532 0.4608437
vn -0.2957678 0.8367296 0.460874
vn -0.2957678 0.8367296 0.460874
vn -0.2957678 0.8367296 0.460874
vn -0.2957861 0.8367075 0.4609025
vn -0.2957861 0.8367075 0.4609025
vn -0.2957861 0.8367075 0.4609025
vn -0.2958064 0.8366867 0.4609272
vn -0.2958064 0.8366867 0.4609272
vn -0.2958064 0.8366867 0.4609272
vn -0.2958096 0.8366867 0.4609252
vn -0.2958096 0.8366867 0.4609252
vn -0.2958096 0.8366867 0.4609252
vn -0.2963701 0.8359988 0.4618125
vn -0.2963701 0.8359988 0.4618125
vn -0.2963701 0.8359988 0.4618125
vn -0.8415529 0 -0.5401748
vn -0.8415529 0 -0.5401748
vn -0.8415529 0 -0.5401748
vn -0.8415529 0 -0.5401748
vn -0.8416169 0 -0.540075
vn -0.8416169 0 -0.540075
vn -0.8416169 0 -0.540075
vn -0.8416169 0 -0.540075
vn -0.8414579 0 -0.5403227
vn -0.8414579 0 -0.5403227
vn -0.8414579 0 -0.5403227
vn -0.8414579 0 -0.5403227
vn -0.8399166 0 -0.5427154
vn -0.8399166 0 -0.5427154
vn -0.8399166 0 -0.5427154
vn -0.8399166 0 -0.5427154
vn 0.8416261 0 0.5400606
vn 0.8416261 0 0.5400606
vn 0.8416261 0 0.5400606
vn 0.8416261 0 0.5400606
vn 0.8416261 0 0.5400606
vn 0.8416261 0 0.5400606
vn 0.8416261 0 0.5400606
vn 0.8416261 0 0.5400606
vn 0.8416261 0 0.5400606
vn 0.8412771 0 0.5406041
vn 0.8412771 0 0.5406041
vn 0.8412771 0 0.5406041
vn 0.8412771 0 0.5406041
vn 0.5402635 0 -0.8414959
vn 0.5402635 0 -0.8414959
vn 0.5402635 0 -0.8414959
vn 0.5402635 0 -0.8414959
vn 0.8416601 0 0.5400076
vn 0.8416601 0 0.5400076
vn 0.8416601 0 0.5400076
vn 0.8416601 0 0.5400076
vn 0.5401477 0 -0.8415703
vn 0.5401477 0 -0.8415703
vn 0.5401477 0 -0.8415703
vn 0.5401477 0 -0.8415703
vn -0.8418684 0 -0.5396829
vn -0.8418684 0 -0.5396829
vn -0.8418684 0 -0.5396829
vn -0.8418684 0 -0.5396829
vn 0.5396992 0 -0.8418579
vn 0.5396992 0 -0.8418579
vn 0.5396992 0 -0.8418579
vn 0.5396992 0 -0.8418579
vn -0.5401006 0 0.8416005
vn -0.5401006 0 0.8416005
vn -0.5401006 0 0.8416005
vn -0.5401006 0 0.8416005
vn 0 -1 0
vn 0 -1 0
vn 0 -1 0
vn 0 -1 0
vn 0 -1 0
vn 0 -1 0
vn 0 -1 0
vn 0 -1 0
vn 0 -1 0
vn 0 -1 0
vn 0 -1 0
vn 0 -1 0
vn 0 -1 0

g CDNNDG02_0000840
f 2/2/2 3/3/3 4/4/4
f 1/1/1 2/2/2 4/4/4
f 5/5/5 6/6/6 7/7/7
f 8/8/8 9/9/9 10/10/10
f 14/14/14 11/11/11 12/12/12
f 13/13/13 14/14/14 12/12/12
f 15/15/15 16/16/16 17/17/17
f 19/19/19 20/20/20 21/21/21
f 18/18/18 19/19/19 21/21/21
f 23/23/23 24/24/24 25/25/25
f 22/22/22 23/23/23 25/25/25
f 27/27/27 28/28/28 29/29/29
f 26/26/26 27/27/27 29/29/29
f 31/31/31 32/32/32 33/33/33
f 30/30/30 31/31/31 33/33/33
f 34/34/34 35/35/35 36/36/36
f 37/37/37 38/38/38 39/39/39
f 40/40/40 41/41/41 42/42/42
f 43/43/43 44/44/44 45/45/45
f 46/46/46 47/47/47 48/48/48
f 49/49/49 50/50/50 51/51/51
f 52/52/52 53/53/53 54/54/54
f 55/55/55 56/56/56 57/57/57
f 58/58/58 59/59/59 60/60/60
f 61/61/61 62/62/62 63/63/63
f 64/64/64 65/65/65 66/66/66
f 67/67/67 68/68/68 69/69/69
f 70/70/70 71/71/71 72/72/72
f 73/73/73 75/75/75 76/76/76
f 73/73/73 74/74/74 75/75/75
f 77/77/77 79/79/79 80/80/80
f 77/77/77 78/78/78 79/79/79
f 81/81/81 83/83/83 84/84/84
f 83/83/83 81/81/81 82/82/82
f 88/88/88 85/85/85 87/87/87
f 87/87/87 85/85/85 86/86/86
f 89/89/89 90/90/90 91/91/91
f 92/92/92 93/93/93 94/94/94
f 95/95/95 96/96/96 97/97/97
f 101/101/101 98/98/98 99/99/99
f 99/99/99 100/100/100 101/101/101
f 104/104/104 102/102/102 103/103/103
f 102/102/102 104/104/104 105/105/105
f 107/107/107 108/108/108 106/106/106
f 106/106/106 108/108/108 109/109/109
f 111/111/111 112/112/112 110/110/110
f 110/110/110 112/112/112 113/113/113
f 115/115/115 116/116/116 117/117/117
f 114/114/114 115/115/115 117/117/117
f 120/120/120 118/118/118 119/119/119
f 118/118/118 120/120/120 121/121/121
f 123/123/123 124/124/124 125/125/125
f 125/125/125 122/122/122 123/123/123
f 129/129/129 127/127/127 128/128/128
f 138/138/138 126/126/126 135/135/135
f 130/130/130 132/132/132 129/129/129
f 137/137/137 138/138/138 136/136/136
f 132/132/132 130/130/130 131/131/131
f 136/136/136 138/138/138 135/135/135
f 127/127/127 129/129/129 132/132/132
f 135/135/135 126/126/126 134/134/134
f 134/134/134 126/126/126 127/127/127
f 132/132/132 133/133/133 134/134/134
f 132/132/132 134/134/134 127/127/127
