v -6.521023 5.3459 3.13901
v -0.09102346 5.3479 7.26901
v -6.233023 5.3459 2.69101
v -6.233023 5.3459 2.69101
v -0.09102346 5.3479 7.26901
v -4.739023 5.3459 0.3640099
v -4.739023 5.3459 0.3640099
v -0.09102346 5.3479 7.26901
v -4.230023 5.346056 0.6750098
v -4.230023 5.346056 0.6750098
v -0.09102346 5.3479 7.26901
v -4.00797 5.346054 0.312114
v -2.341214 5.346417 0.2901565
v -0.09102346 5.3479 7.26901
v -1.425644 5.3467 0.8651688
v -1.425644 5.3467 0.8651688
v 6.568976 5.3479 -3.09999
v -1.027907 5.346699 0.235216
v -1.425644 5.3467 0.8651688
v -0.09102346 5.3479 7.26901
v 6.568976 5.3479 -3.09999
v -3.127023 5.3459 -2.14699
v -2.098473 5.346368 -0.4400493
v 6.568976 5.3479 -3.09999
v -3.127023 5.3459 -2.14699
v -2.452699 5.346344 -0.05560589
v -2.179897 5.346343 -0.4884837
v -3.127023 5.3459 -2.14699
v -2.179897 5.346343 -0.4884837
v -2.098473 5.346368 -0.4400493
v -2.098473 5.346368 -0.4400493
v -1.027907 5.346699 0.235216
v 6.568976 5.3479 -3.09999
v -2.117023 5.3459 -3.71999
v 6.568976 5.3479 -3.09999
v 0.1379765 5.3459 -7.22999
v -2.496993 5.346369 0.1923218
v -0.09102346 5.3479 7.26901
v -2.341214 5.346417 0.2901565
v -2.578454 5.346344 0.1439421
v -0.09102346 5.3479 7.26901
v -2.496993 5.346369 0.1923218
v -3.839023 5.346052 0.0360098
v -0.09102346 5.3479 7.26901
v -2.578454 5.346344 0.1439421
v -3.839023 5.346052 0.0360098
v -2.578454 5.346344 0.1439421
v -3.127023 5.3459 -2.14699
v -4.00797 5.346054 0.312114
v -0.09102346 5.3479 7.26901
v -3.839023 5.346052 0.0360098
v -4.334023 5.3459 -0.2669901
v -3.839023 5.346052 0.0360098
v -3.127023 5.3459 -2.14699
v -3.127023 5.3459 -2.14699
v -2.578454 5.346344 0.1439421
v -2.452699 5.346344 -0.05560589
v -3.127023 5.3459 -2.14699
v 6.568976 5.3479 -3.09999
v -2.117023 5.3459 -3.71999
v -4.739023 6.3795 0.3640099
v -4.334023 6.3795 -0.2669901
v -4.423023 6.3795 -0.3219902
v -4.814023 6.3795 0.3170098
v -4.739023 6.3795 0.3640099
v -4.230023 6.3795 0.6750098
v -3.839023 6.3795 0.0360098
v -4.334023 6.3795 -0.2669901
v -3.127023 5.5785 -2.14699
v -2.117023 5.5785 -3.71999
v -2.644023 5.9695 -3.62199
v -3.262023 5.9685 -2.63899
v -3.127023 5.5785 -2.14699
v -2.644023 5.9695 -3.62199
v -1.597023 5.6255 0.3010098
v -1.425644 5.3467 0.8651688
v -1.027907 5.346699 0.235216
v -2.098473 5.346368 -0.4400493
v -1.597023 5.6255 0.3010098
v -1.027907 5.346699 0.235216
v -2.179897 5.346343 -0.4884837
v -2.058023 5.6255 0.0270098
v -1.597023 5.6255 0.3010098
v -2.179897 5.346343 -0.4884837
v -1.597023 5.6255 0.3010098
v -2.098473 5.346368 -0.4400493
v -2.496993 5.346369 0.1923218
v -1.597023 5.6255 0.3010098
v -2.058023 5.6255 0.0270098
v -2.578454 5.346344 0.1439421
v -2.496993 5.346369 0.1923218
v -2.058023 5.6255 0.0270098
v -2.341214 5.346417 0.2901565
v -1.425644 5.3467 0.8651688
v -1.597023 5.6255 0.3010098
v -2.496993 5.346369 0.1923218
v -2.341214 5.346417 0.2901565
v -1.597023 5.6255 0.3010098
v -2.578454 5.346344 0.1439421
v -2.058023 5.6255 0.0270098
v -2.452699 5.346344 -0.05560589
v -2.452699 5.346344 -0.05560589
v -2.058023 5.6255 0.0270098
v -2.179897 5.346343 -0.4884837
v -6.233023 5.3459 2.69101
v -5.486023 -5.356863 1.52751
v -6.233023 -5.356863 2.69101
v -5.486023 -5.356863 1.52751
v -4.739023 5.3459 0.3640099
v -4.739023 -5.356863 0.3640099
v -6.233023 5.3459 2.69101
v -4.739023 5.3459 0.3640099
v -5.486023 -5.356863 1.52751
v -6.521023 5.3459 3.13901
v -6.233023 5.3459 2.69101
v -6.233023 -5.356863 2.69101
v -6.521023 -5.356863 3.13901
v -3.306023 -5.356863 5.20401
v -0.09102346 -5.356863 7.26901
v -0.09102346 5.3479 7.26901
v -6.521023 5.3459 3.13901
v -6.521023 -5.356863 3.13901
v -3.306023 -5.356863 5.20401
v -6.521023 5.3459 3.13901
v -3.306023 -5.356863 5.20401
v -0.09102346 5.3479 7.26901
v 3.238976 -5.356863 2.08451
v 6.568976 -5.356863 -3.09999
v 6.568976 5.3479 -3.09999
v -0.09102346 5.3479 7.26901
v -0.09102346 -5.356863 7.26901
v 3.238976 -5.356863 2.08451
v -0.09102346 5.3479 7.26901
v 3.238976 -5.356863 2.08451
v 6.568976 5.3479 -3.09999
v 0.1379765 5.3459 -7.22999
v 6.568976 5.3479 -3.09999
v 6.568976 -5.356863 -3.09999
v 0.1379765 -5.356863 -7.22999
v -2.117023 5.3459 -3.71999
v -0.9895235 -5.356863 -5.47499
v -2.117023 -5.356863 -3.71999
v -0.9895235 -5.356863 -5.47499
v 0.1379765 5.3459 -7.22999
v 0.1379765 -5.356863 -7.22999
v -2.117023 5.3459 -3.71999
v 0.1379765 5.3459 -7.22999
v -0.9895235 -5.356863 -5.47499
v -4.334023 5.3459 -0.2669901
v -3.127023 5.3459 -2.14699
v -3.127023 -5.356863 -2.14699
v -4.334023 -5.356863 -0.2669901
v -4.423023 6.3795 -0.3219902
v -4.378523 -5.356863 -0.2944902
v -4.423023 -5.356863 -0.3219902
v -4.423023 6.3795 -0.3219902
v -4.334023 6.3795 -0.2669901
v -4.378523 -5.356863 -0.2944902
v -4.378523 -5.356863 -0.2944902
v -4.334023 6.3795 -0.2669901
v -4.334023 5.3459 -0.2669901
v -4.378523 -5.356863 -0.2944902
v -4.334023 5.3459 -0.2669901
v -4.334023 -5.356863 -0.2669901
v -4.334023 6.3795 -0.2669901
v -3.839023 6.3795 0.0360098
v -3.839023 5.346052 0.0360098
v -4.334023 5.3459 -0.2669901
v -4.814023 6.3795 0.3170098
v -4.423023 6.3795 -0.3219902
v -4.423023 -5.356863 -0.3219902
v -4.814023 -5.356863 0.3170098
v -4.814023 6.3795 0.3170098
v -4.739023 5.3459 0.3640099
v -4.739023 6.3795 0.3640099
v -4.814023 -5.356863 0.3170098
v -4.739023 -5.356863 0.3640099
v -4.739023 5.3459 0.3640099
v -4.814023 6.3795 0.3170098
v -4.739023 5.3459 0.3640099
v -4.230023 5.346056 0.6750098
v -4.230023 6.3795 0.6750098
v -4.739023 6.3795 0.3640099
v -4.00797 5.346054 0.312114
v -3.839023 5.346052 0.0360098
v -3.839023 6.3795 0.0360098
v -4.230023 6.3795 0.6750098
v -4.230023 5.346056 0.6750098
v -4.00797 5.346054 0.312114
v -4.230023 6.3795 0.6750098
v -4.00797 5.346054 0.312114
v -3.839023 6.3795 0.0360098
v -2.644023 5.9695 -3.62199
v -2.117023 5.3459 -3.71999
v -2.117023 -5.356863 -3.71999
v -2.644023 -5.356863 -3.62199
v -2.644023 5.9695 -3.62199
v -2.117023 5.5785 -3.71999
v -2.117023 5.3459 -3.71999
v -3.262023 5.9685 -2.63899
v -2.644023 5.9695 -3.62199
v -2.644023 -5.356863 -3.62199
v -3.262023 -5.356863 -2.63899
v -3.194523 -5.356863 -2.39299
v -3.127023 5.3459 -2.14699
v -3.127023 5.5785 -2.14699
v -3.194523 -5.356863 -2.39299
v -3.127023 -5.356863 -2.14699
v -3.127023 5.3459 -2.14699
v -3.262023 5.9685 -2.63899
v -3.262023 -5.356863 -2.63899
v -3.194523 -5.356863 -2.39299
v -3.262023 5.9685 -2.63899
v -3.194523 -5.356863 -2.39299
v -3.127023 5.5785 -2.14699
v -3.127023 5.3459 -2.14699
v -2.117023 5.3459 -3.71999
v -2.117023 5.5785 -3.71999
v -3.127023 5.5785 -2.14699
v -4.378523 -5.356863 -0.2944902
v -4.334023 -5.356863 -0.2669901
v -3.127023 -5.356863 -2.14699
v -3.194523 -5.356863 -2.39299
v -3.262023 -5.356863 -2.63899
v -2.644023 -5.356863 -3.62199
v -2.117023 -5.356863 -3.71999
v -0.9895235 -5.356863 -5.47499
v 0.1379765 -5.356863 -7.22999
v 6.568976 -5.356863 -3.09999
v 3.238976 -5.356863 2.08451
v -0.09102346 -5.356863 7.26901
v -3.306023 -5.356863 5.20401
v -6.521023 -5.356863 3.13901
v -6.233023 -5.356863 2.69101
v -5.486023 -5.356863 1.52751
v -4.739023 -5.356863 0.3640099
v -4.814023 -5.356863 0.3170098
v -4.423023 -5.356863 -0.3219902
vt 0.214253 0.508114
vt 0.002890 0.260913
vt 0.236947 0.496928
vt 0.236947 0.496928
vt 0.002890 0.260913
vt 0.354827 0.438896
vt 0.354827 0.438896
vt 0.002890 0.260913
vt 0.338906 0.419325
vt 0.338906 0.419325
vt 0.002890 0.260913
vt 0.357292 0.410697
vt 0.358016 0.346420
vt 0.002890 0.260913
vt 0.328585 0.311218
vt 0.328585 0.311218
vt 0.528184 0.002193
vt 0.360499 0.295766
vt 0.328585 0.311218
vt 0.002890 0.260913
vt 0.528184 0.002193
vt 0.482031 0.376280
vt 0.395061 0.336927
vt 0.528184 0.002193
vt 0.482031 0.376280
vt 0.375610 0.350657
vt 0.397541 0.340058
vt 0.482031 0.376280
vt 0.397541 0.340058
vt 0.395061 0.336927
vt 0.395061 0.336927
vt 0.360499 0.295766
vt 0.528184 0.002193
vt 0.561718 0.337048
vt 0.528184 0.002193
vt 0.739536 0.249452
vt 0.363024 0.352410
vt 0.002890 0.260913
vt 0.358016 0.346420
vt 0.365501 0.355542
vt 0.002890 0.260913
vt 0.363024 0.352410
vt 0.371281 0.404132
vt 0.002890 0.260913
vt 0.365501 0.355542
vt 0.371281 0.404132
vt 0.365501 0.355542
vt 0.482031 0.376280
vt 0.357292 0.410697
vt 0.002890 0.260913
vt 0.371281 0.404132
vt 0.386793 0.423165
vt 0.371281 0.404132
vt 0.482031 0.376280
vt 0.482031 0.376280
vt 0.365501 0.355542
vt 0.375610 0.350657
vt 0.482031 0.376280
vt 0.528184 0.002193
vt 0.561718 0.337048
vt 0.937081 0.872930
vt 0.967428 0.857989
vt 0.970101 0.861238
vt 0.939365 0.875669
vt 0.937081 0.872930
vt 0.921965 0.854342
vt 0.952702 0.839912
vt 0.967428 0.857989
vt 0.664740 0.877427
vt 0.741839 0.839912
vt 0.737436 0.861818
vt 0.689228 0.884781
vt 0.664740 0.877427
vt 0.737436 0.861818
vt 0.029418 0.999719
vt 0.002890 0.992138
vt 0.032234 0.978070
vt 0.829832 0.879197
vt 0.794798 0.862592
vt 0.797651 0.839912
vt 0.832142 0.882185
vt 0.807866 0.879518
vt 0.794798 0.862592
vt 0.832142 0.882185
vt 0.794798 0.862592
vt 0.829832 0.879197
vt 0.780824 0.879312
vt 0.775617 0.844970
vt 0.788768 0.861932
vt 0.783145 0.882308
vt 0.780824 0.879312
vt 0.788768 0.861932
vt 0.776132 0.873583
vt 0.748555 0.839912
vt 0.775617 0.844970
vt 0.780824 0.879312
vt 0.776132 0.873583
vt 0.775617 0.844970
vt 0.078035 0.997326
vt 0.083557 0.978070
vt 0.087338 0.992910
vt 0.087338 0.992910
vt 0.083557 0.978070
vt 0.107520 0.983330
vt 0.223576 0.897074
vt 0.275806 0.911959
vt 0.218570 0.940158
vt 0.275806 0.911959
vt 0.339598 0.839912
vt 0.333043 0.883760
vt 0.223576 0.897074
vt 0.339598 0.839912
vt 0.275806 0.911959
vt 0.201239 0.908093
vt 0.223576 0.897074
vt 0.218570 0.940158
vt 0.196532 0.951030
vt 0.863401 0.681471
vt 0.760116 0.559910
vt 0.762058 0.513158
vt 0.971421 0.759576
vt 0.966683 0.803028
vt 0.863401 0.681471
vt 0.971421 0.759576
vt 0.863401 0.681471
vt 0.762058 0.513158
vt 0.261396 0.640122
vt 0.519917 0.513158
vt 0.527838 0.577170
vt 0.003819 0.834521
vt 0.002890 0.767079
vt 0.261396 0.640122
vt 0.003819 0.834521
vt 0.261396 0.640122
vt 0.527838 0.577170
vt 0.751727 0.823211
vt 0.542543 0.577155
vt 0.534682 0.513158
vt 0.741078 0.755947
vt 0.012206 0.926468
vt 0.089621 0.929099
vt 0.002890 0.971799
vt 0.089621 0.929099
vt 0.188017 0.839912
vt 0.176353 0.886399
vt 0.012206 0.926468
vt 0.188017 0.839912
vt 0.089621 0.929099
vt 0.353738 0.885879
vt 0.446694 0.839912
vt 0.438536 0.884375
vt 0.346821 0.929727
vt 0.470022 0.918097
vt 0.463081 0.841558
vt 0.464274 0.843205
vt 0.470022 0.918097
vt 0.467599 0.914756
vt 0.463081 0.841558
vt 0.463081 0.841558
vt 0.467599 0.914756
vt 0.467089 0.908076
vt 0.463081 0.841558
vt 0.467089 0.908076
vt 0.461887 0.839912
vt 0.467599 0.914756
vt 0.454250 0.896173
vt 0.453757 0.889518
vt 0.467089 0.908076
vt 0.590665 0.854682
vt 0.620885 0.839912
vt 0.613593 0.887540
vt 0.583815 0.902094
vt 0.493213 0.861809
vt 0.490579 0.863246
vt 0.491141 0.858997
vt 0.486890 0.909369
vt 0.484848 0.906598
vt 0.490579 0.863246
vt 0.493213 0.861809
vt 0.490579 0.863246
vt 0.476879 0.844185
vt 0.477422 0.839912
vt 0.491141 0.858997
vt 0.057368 0.984047
vt 0.070230 0.978070
vt 0.070757 0.984288
vt 0.040950 0.998138
vt 0.040462 0.991902
vt 0.057368 0.984047
vt 0.040950 0.998138
vt 0.057368 0.984047
vt 0.070757 0.984288
vt 0.571875 0.858044
vt 0.575475 0.840895
vt 0.567592 0.885482
vt 0.563584 0.904987
vt 0.571875 0.858044
vt 0.575649 0.839912
vt 0.575475 0.840895
vt 0.508802 0.863318
vt 0.556456 0.839912
vt 0.546980 0.886950
vt 0.500000 0.910020
vt 0.638531 0.886953
vt 0.634860 0.840874
vt 0.635029 0.839912
vt 0.638531 0.886953
vt 0.627168 0.884524
vt 0.634860 0.840874
vt 0.658366 0.843227
vt 0.649894 0.889382
vt 0.638531 0.886953
vt 0.658366 0.843227
vt 0.638531 0.886953
vt 0.635029 0.839912
vt 0.838150 0.877134
vt 0.915227 0.839912
vt 0.915406 0.841351
vt 0.838306 0.878584
vt 0.115607 0.978070
vt 0.115607 0.978070
vt 0.115607 0.978070
vt 0.115607 0.978070
vt 0.115607 0.978070
vt 0.115607 0.978070
vt 0.115607 0.978070
vt 0.115607 0.978070
vt 0.115607 0.978070
vt 0.115607 0.978070
vt 0.115607 0.978070
vt 0.115607 0.978070
vt 0.115607 0.978070
vt 0.115607 0.978070
vt 0.115607 0.978070
vt 0.115607 0.978070
vt 0.115607 0.978070
vt 0.115607 0.978070
vt 0.115607 0.978070
vn -0.0002201696 0.9999999 -0.000141426
vn -0.0002201696 0.9999999 -0.000141426
vn -0.0002201696 0.9999999 -0.000141426
vn -0.000220175 0.9999999 -0.0001414188
vn -0.000220175 0.9999999 -0.0001414188
vn -0.000220175 0.9999999 -0.0001414188
vn -0.0002201741 0.9999999 -0.0001414194
vn -0.0002201741 0.9999999 -0.0001414194
vn -0.0002201741 0.9999999 -0.0001414194
vn -0.0002201742 0.9999999 -0.0001414193
vn -0.0002201742 0.9999999 -0.0001414193
vn -0.0002201742 0.9999999 -0.0001414193
vn -0.0002201837 0.9999999 -0.0001414164
vn -0.0002201837 0.9999999 -0.0001414164
vn -0.0002201837 0.9999999 -0.0001414164
vn -0.0002201805 0.9999999 -0.0001414293
vn -0.0002201805 0.9999999 -0.0001414293
vn -0.0002201805 0.9999999 -0.0001414293
vn -0.000220175 0.9999999 -0.0001414182
vn -0.000220175 0.9999999 -0.0001414182
vn -0.000220175 0.9999999 -0.0001414182
vn -0.0002201758 0.9999999 -0.0001414215
vn -0.0002201758 0.9999999 -0.0001414215
vn -0.0002201758 0.9999999 -0.0001414215
vn -0.000220182 0.9999999 -0.0001414163
vn -0.000220182 0.9999999 -0.0001414163
vn -0.000220182 0.9999999 -0.0001414163
vn -0.0002202286 0.9999999 -0.0001413897
vn -0.0002202286 0.9999999 -0.0001413897
vn -0.0002202286 0.9999999 -0.0001413897
vn -0.0002201728 0.9999999 -0.0001414118
vn -0.0002201728 0.9999999 -0.0001414118
vn -0.0002201728 0.9999999 -0.0001414118
vn -0.0002201751 0.9999999 -0.0001414174
vn -0.0002201751 0.9999999 -0.0001414174
vn -0.0002201751 0.9999999 -0.0001414174
vn -0.0002201408 0.9999999 -0.0001414303
vn -0.0002201408 0.9999999 -0.0001414303
vn -0.0002201408 0.9999999 -0.0001414303
vn -0.0002202121 0.9999999 -0.000141406
vn -0.0002202121 0.9999999 -0.000141406
vn -0.0002202121 0.9999999 -0.000141406
vn -0.0002201755 0.9999999 -0.0001414188
vn -0.0002201755 0.9999999 -0.0001414188
vn -0.0002201755 0.9999999 -0.0001414188
vn -0.0002201756 0.9999999 -0.0001414178
vn -0.0002201756 0.9999999 -0.0001414178
vn -0.0002201756 0.9999999 -0.0001414178
vn -0.0002201706 0.9999999 -0.0001414213
vn -0.0002201706 0.9999999 -0.0001414213
vn -0.0002201706 0.9999999 -0.0001414213
vn -0.0002201647 0.9999999 -0.0001414142
vn -0.0002201647 0.9999999 -0.0001414142
vn -0.0002201647 0.9999999 -0.0001414142
vn -0.0002201827 0.9999999 -0.0001414161
vn -0.0002201827 0.9999999 -0.0001414161
vn -0.0002201827 0.9999999 -0.0001414161
vn -0.0002201752 0.9999999 -0.0001414158
vn -0.0002201752 0.9999999 -0.0001414158
vn -0.0002201752 0.9999999 -0.0001414158
vn 0 1 0
vn 0 1 0
vn 0 1 0
vn 0 1 0
vn 0 1 0
vn 0 1 0
vn 0 1 0
vn 0 1 0
vn 0.5953868 0.7066609 0.382289
vn 0.5953868 0.7066609 0.382289
vn 0.5953868 0.7066609 0.382289
vn 0.6088088 0.6944872 0.3834571
vn 0.6088088 0.6944872 0.3834571
vn 0.6088088 0.6944872 0.3834571
vn 0.4481361 0.8480089 0.2829398
vn 0.4481361 0.8480089 0.2829398
vn 0.4481361 0.8480089 0.2829398
vn 0.3269838 0.7898992 -0.5187878
vn 0.3269838 0.7898992 -0.5187878
vn 0.3269838 0.7898992 -0.5187878
vn 0.3020435 0.8065483 -0.5081826
vn 0.3020435 0.8065483 -0.5081826
vn 0.3020435 0.8065483 -0.5081826
vn 0.3020434 0.8065484 -0.5081826
vn 0.3020434 0.8065484 -0.5081826
vn 0.3020434 0.8065484 -0.5081826
vn -0.3096282 0.7954545 0.5209439
vn -0.3096282 0.7954545 0.5209439
vn -0.3096282 0.7954545 0.5209439
vn -0.3096282 0.7954545 0.5209439
vn -0.3096282 0.7954545 0.5209439
vn -0.3096282 0.7954545 0.5209439
vn -0.3113522 0.8109764 0.4953555
vn -0.3113522 0.8109764 0.4953555
vn -0.3113522 0.8109764 0.4953555
vn -0.3113522 0.8109764 0.4953555
vn -0.3113522 0.8109764 0.4953555
vn -0.3113522 0.8109764 0.4953555
vn -0.5026329 0.8043762 -0.3167634
vn -0.5026329 0.8043762 -0.3167634
vn -0.5026329 0.8043762 -0.3167634
vn -0.5026329 0.8043762 -0.3167634
vn -0.5026329 0.8043762 -0.3167634
vn -0.5026329 0.8043762 -0.3167634
vn -0.8414956 0 -0.540264
vn -0.8414956 0 -0.540264
vn -0.8414956 0 -0.540264
vn -0.8414956 0 -0.540264
vn -0.8414956 0 -0.540264
vn -0.8414956 0 -0.540264
vn -0.8414956 -2.585669E-10 -0.540264
vn -0.8414956 -2.585669E-10 -0.540264
vn -0.8414956 -2.585669E-10 -0.540264
vn -0.8411785 0 -0.5407576
vn -0.8411785 0 -0.5407576
vn -0.8411785 0 -0.5407576
vn -0.8411785 0 -0.5407576
vn -0.5404269 0 0.841391
vn -0.5404269 0 0.841391
vn -0.5404269 0 0.841391
vn -0.5404269 0 0.841391
vn -0.5404269 0 0.841391
vn -0.5404269 0 0.841391
vn -0.5404269 3.807367E-11 0.841391
vn -0.5404269 3.807367E-11 0.841391
vn -0.5404269 3.807367E-11 0.841391
vn 0.841392 0 0.5404254
vn 0.841392 0 0.5404254
vn 0.841392 0 0.5404254
vn 0.841392 0 0.5404254
vn 0.841392 0 0.5404254
vn 0.841392 0 0.5404254
vn 0.841392 2.350867E-11 0.5404254
vn 0.841392 2.350867E-11 0.5404254
vn 0.841392 2.350867E-11 0.5404254
vn 0.5403674 0 -0.8414292
vn 0.5403674 0 -0.8414292
vn 0.5403674 0 -0.8414292
vn 0.5403674 0 -0.8414292
vn -0.8413342 0 -0.5405153
vn -0.8413342 0 -0.5405153
vn -0.8413342 0 -0.5405153
vn -0.8413342 0 -0.5405153
vn -0.8413342 0 -0.5405153
vn -0.8413342 0 -0.5405153
vn -0.8413342 0 -0.5405153
vn -0.8413342 0 -0.5405153
vn -0.8413342 0 -0.5405153
vn -0.8414983 0 -0.5402597
vn -0.8414983 0 -0.5402597
vn -0.8414983 0 -0.5402597
vn -0.8414983 0 -0.5402597
vn 0.5256963 0 -0.8506723
vn 0.5256963 0 -0.8506723
vn 0.5256963 0 -0.8506723
vn 0.5256963 2.229193E-10 -0.8506723
vn 0.5256963 2.229193E-10 -0.8506723
vn 0.5256963 2.229193E-10 -0.8506723
vn 0.5256964 0 -0.8506722
vn 0.5256964 0 -0.8506722
vn 0.5256964 0 -0.8506722
vn 0.5256964 0 -0.8506722
vn 0.5256964 0 -0.8506722
vn 0.5256964 0 -0.8506722
vn 0.5220771 0 -0.8528983
vn 0.5220771 0 -0.8528983
vn 0.5220771 0 -0.8528983
vn 0.5220771 0 -0.8528983
vn -0.8529847 0 -0.5219359
vn -0.8529847 0 -0.5219359
vn -0.8529847 0 -0.5219359
vn -0.8529847 0 -0.5219359
vn -0.5310141 0 0.847363
vn -0.5310141 0 0.847363
vn -0.5310141 0 0.847363
vn -0.5310141 0 0.847363
vn -0.5310141 0 0.847363
vn -0.5310141 0 0.847363
vn -0.5310141 0 0.847363
vn -0.5213822 0 0.8533233
vn -0.5213822 0 0.8533233
vn -0.5213822 0 0.8533233
vn -0.5213822 0 0.8533233
vn 0.8529847 0 0.5219359
vn 0.8529847 0 0.5219359
vn 0.8529847 0 0.5219359
vn 0.8529847 0 0.5219359
vn 0.8529847 0 0.5219359
vn 0.8529847 0 0.5219359
vn 0.8529847 2.367384E-09 0.5219359
vn 0.8529847 2.367384E-09 0.5219359
vn 0.8529847 2.367384E-09 0.5219359
vn -0.1828242 0 -0.9831456
vn -0.1828242 0 -0.9831456
vn -0.1828242 0 -0.9831456
vn -0.1828242 0 -0.9831456
vn -0.1828242 0 -0.9831456
vn -0.1828242 0 -0.9831456
vn -0.1828242 0 -0.9831456
vn -0.8465922 0 -0.5322421
vn -0.8465922 0 -0.5322421
vn -0.8465922 0 -0.5322421
vn -0.8465922 0 -0.5322421
vn -0.9643556 0 0.2646096
vn -0.9643556 0 0.2646096
vn -0.9643556 0 0.2646096
vn -0.9643556 0 0.2646096
vn -0.9643556 0 0.2646096
vn -0.9643556 0 0.2646096
vn -0.9643556 0 0.2646096
vn -0.9643556 0 0.2646096
vn -0.9643556 0 0.2646096
vn -0.9643556 -4.251682E-10 0.2646096
vn -0.9643556 -4.251682E-10 0.2646096
vn -0.9643556 -4.251682E-10 0.2646096
vn 0.8414738 0 0.5402979
vn 0.8414738 0 0.5402979
vn 0.8414738 0 0.5402979
vn 0.8414738 0 0.5402979
vn 0 -1 0
vn 0 -1 0
vn 0 -1 0
vn 0 -1 0
vn 0 -1 0
vn 0 -1 0
vn 0 -1 0
vn 0 -1 0
vn 0 -1 0
vn 0 -1 0
vn 0 -1 0
vn 0 -1 0
vn 0 -1 0
vn 0 -1 0
vn 0 -1 0
vn 0 -1 0
vn 0 -1 0
vn 0 -1 0
vn 0 -1 0

g CDNNDG02_0005960
f 1/1/1 2/2/2 3/3/3
f 4/4/4 5/5/5 6/6/6
f 7/7/7 8/8/8 9/9/9
f 10/10/10 11/11/11 12/12/12
f 13/13/13 14/14/14 15/15/15
f 16/16/16 17/17/17 18/18/18
f 19/19/19 20/20/20 21/21/21
f 22/22/22 23/23/23 24/24/24
f 25/25/25 26/26/26 27/27/27
f 28/28/28 29/29/29 30/30/30
f 31/31/31 32/32/32 33/33/33
f 34/34/34 35/35/35 36/36/36
f 37/37/37 38/38/38 39/39/39
f 40/40/40 41/41/41 42/42/42
f 43/43/43 44/44/44 45/45/45
f 46/46/46 47/47/47 48/48/48
f 49/49/49 50/50/50 51/51/51
f 52/52/52 53/53/53 54/54/54
f 55/55/55 56/56/56 57/57/57
f 58/58/58 59/59/59 60/60/60
f 64/64/64 61/61/61 63/63/63
f 62/62/62 63/63/63 61/61/61
f 65/65/65 66/66/66 68/68/68
f 67/67/67 68/68/68 66/66/66
f 69/69/69 70/70/70 71/71/71
f 72/72/72 73/73/73 74/74/74
f 75/75/75 76/76/76 77/77/77
f 78/78/78 79/79/79 80/80/80
f 81/81/81 82/82/82 83/83/83
f 84/84/84 85/85/85 86/86/86
f 87/87/87 88/88/88 89/89/89
f 90/90/90 91/91/91 92/92/92
f 93/93/93 94/94/94 95/95/95
f 96/96/96 97/97/97 98/98/98
f 99/99/99 100/100/100 101/101/101
f 102/102/102 103/103/103 104/104/104
f 105/105/105 106/106/106 107/107/107
f 108/108/108 109/109/109 110/110/110
f 111/111/111 112/112/112 113/113/113
f 114/114/114 116/116/116 117/117/117
f 114/114/114 115/115/115 116/116/116
f 118/118/118 119/119/119 120/120/120
f 121/121/121 122/122/122 123/123/123
f 124/124/124 125/125/125 126/126/126
f 127/127/127 128/128/128 129/129/129
f 130/130/130 131/131/131 132/132/132
f 133/133/133 134/134/134 135/135/135
f 139/139/139 136/136/136 138/138/138
f 137/137/137 138/138/138 136/136/136
f 140/140/140 141/141/141 142/142/142
f 143/143/143 144/144/144 145/145/145
f 146/146/146 147/147/147 148/148/148
f 152/152/152 150/150/150 151/151/151
f 152/152/152 149/149/149 150/150/150
f 153/153/153 154/154/154 155/155/155
f 156/156/156 157/157/157 158/158/158
f 159/159/159 160/160/160 161/161/161
f 162/162/162 163/163/163 164/164/164
f 165/165/165 167/167/167 168/168/168
f 165/165/165 166/166/166 167/167/167
f 169/169/169 171/171/171 172/172/172
f 169/169/169 170/170/170 171/171/171
f 173/173/173 174/174/174 175/175/175
f 176/176/176 178/178/178 179/179/179
f 178/178/178 176/176/176 177/177/177
f 183/183/183 181/181/181 182/182/182
f 183/183/183 180/180/180 181/181/181
f 184/184/184 185/185/185 186/186/186
f 187/187/187 188/188/188 189/189/189
f 190/190/190 191/191/191 192/192/192
f 194/194/194 195/195/195 196/196/196
f 193/193/193 194/194/194 196/196/196
f 197/197/197 198/198/198 199/199/199
f 200/200/200 202/202/202 203/203/203
f 202/202/202 200/200/200 201/201/201
f 204/204/204 205/205/205 206/206/206
f 207/207/207 208/208/208 209/209/209
f 210/210/210 211/211/211 212/212/212
f 213/213/213 214/214/214 215/215/215
f 216/216/216 218/218/218 219/219/219
f 216/216/216 217/217/217 218/218/218
f 220/220/220 237/237/237 238/238/238
f 221/221/221 222/222/222 230/230/230
f 222/222/222 223/223/223 226/226/226
f 223/223/223 224/224/224 225/225/225
f 220/220/220 221/221/221 236/236/236
f 223/223/223 225/225/225 226/226/226
f 232/232/232 235/235/235 236/236/236
f 222/222/222 226/226/226 230/230/230
f 226/226/226 227/227/227 230/230/230
f 220/220/220 236/236/236 237/237/237
f 227/227/227 228/228/228 229/229/229
f 232/232/232 234/234/234 235/235/235
f 227/227/227 229/229/229 230/230/230
f 221/221/221 230/230/230 232/232/232
f 230/230/230 231/231/231 232/232/232
f 232/232/232 233/233/233 234/234/234
f 221/221/221 232/232/232 236/236/236
