v -2.885533 6.655129 7.193028
v -2.116533 6.655129 7.625029
v -1.756533 6.655129 6.984029
v -2.525533 6.655129 6.552029
v 5.732467 6.62113 -0.8529713
v 6.607467 6.62113 -2.409971
v 5.809467 6.62113 -2.857971
v 4.934467 6.62113 -1.300971
v -6.523533 5.378129 5.150029
v -2.885533 5.37613 7.193028
v -4.546533 5.378129 1.632029
v 5.517717 5.378629 -5.023846
v 6.070592 5.37888 -4.738659
v 6.131217 5.37888 -4.846596
v 5.581967 5.378629 -5.138221
v 4.964842 5.378379 -5.309034
v 5.517717 5.378629 -5.023846
v 5.581967 5.378629 -5.138221
v 5.032717 5.378379 -5.429846
v 5.581967 5.378629 -5.138221
v 6.131217 5.37888 -4.846596
v 6.191842 5.37888 -4.954534
v 5.646217 5.378629 -5.252596
v 5.032717 5.378379 -5.429846
v 5.581967 5.378629 -5.138221
v 5.646217 5.378629 -5.252596
v 5.100592 5.378379 -5.550659
v 6.070592 5.37888 -4.738659
v 6.566467 5.379129 -4.351971
v 6.131217 5.37888 -4.846596
v 6.131217 5.37888 -4.846596
v 6.566467 5.379129 -4.351971
v 6.794467 5.379129 -4.757971
v 5.517717 5.378629 -5.023846
v 6.566467 5.379129 -4.351971
v 6.070592 5.37888 -4.738659
v 4.340467 5.378129 -5.466971
v 5.517717 5.378629 -5.023846
v 4.964842 5.378379 -5.309034
v 4.340467 5.378129 -5.466971
v 6.566467 5.379129 -4.351971
v 5.517717 5.378629 -5.023846
v 4.340467 5.378129 -5.466971
v 4.964842 5.378379 -5.309034
v 5.032717 5.378379 -5.429846
v 5.646217 5.378629 -5.252596
v 6.191842 5.37888 -4.954534
v 6.794467 5.379129 -4.757971
v 6.131217 5.37888 -4.846596
v 6.794467 5.379129 -4.757971
v 6.191842 5.37888 -4.954534
v 4.626467 5.378129 -5.975971
v 5.646217 5.378629 -5.252596
v 6.794467 5.379129 -4.757971
v 4.626467 5.378129 -5.975971
v 5.032717 5.378379 -5.429846
v 5.100592 5.378379 -5.550659
v 4.626467 5.378129 -5.975971
v 5.100592 5.378379 -5.550659
v 5.646217 5.378629 -5.252596
v 4.340467 5.378129 -5.466971
v 5.032717 5.378379 -5.429846
v 4.626467 5.378129 -5.975971
v 6.566467 5.379129 -4.351971
v 6.607467 5.378129 -2.409971
v 7.426467 5.379129 -3.868971
v -2.116533 5.375129 7.625029
v 0.2294669 5.374129 8.943028
v 5.732467 5.378129 -0.8529713
v 4.340467 5.378129 -5.466971
v 6.607467 5.378129 -2.409971
v 6.566467 5.379129 -4.351971
v -6.239533 5.378129 0.6810287
v -4.546533 5.378129 1.632029
v -1.076533 5.378129 -8.509972
v -4.546533 5.378129 1.632029
v 5.36577 5.378129 -2.068445
v 4.340467 5.378129 -5.466971
v -1.076533 5.378129 -8.509972
v -4.546533 5.378129 1.632029
v 4.934467 5.378129 -1.300971
v 5.36577 5.378129 -2.068445
v -4.546533 5.378129 1.632029
v 5.732467 5.378129 -0.8529713
v 4.934467 5.378129 -1.300971
v 4.340467 5.378129 -5.466971
v 5.809467 5.378129 -2.857971
v 6.607467 5.378129 -2.409971
v 4.340467 5.378129 -5.466971
v 5.36577 5.378129 -2.068445
v 5.809467 5.378129 -2.857971
v -2.116533 5.375129 7.625029
v 5.732467 5.378129 -0.8529713
v -1.756533 5.375382 6.984029
v -4.546533 5.378129 1.632029
v -2.525533 5.375664 6.552029
v 5.732467 5.378129 -0.8529713
v -2.525533 5.375664 6.552029
v -1.756533 5.375382 6.984029
v 5.732467 5.378129 -0.8529713
v -4.546533 5.378129 1.632029
v -2.540674 5.375653 6.578989
v -2.525533 5.375664 6.552029
v -4.546533 5.378129 1.632029
v -2.885533 5.37613 7.193028
v -2.540674 5.375653 6.578989
v -2.885533 5.37613 7.193028
v -2.116533 5.375129 7.625029
v -2.116533 6.655129 7.625029
v -2.885533 6.655129 7.193028
v -6.523533 -5.401193 5.150029
v -2.885533 -5.401193 7.193028
v -2.885533 5.37613 7.193028
v -6.523533 5.378129 5.150029
v -2.116533 -5.401193 7.625029
v 0.2294669 -5.401193 8.943028
v 0.2294669 5.374129 8.943028
v -2.116533 5.375129 7.625029
v -2.885533 -5.401193 7.193028
v -2.116533 -5.401193 7.625029
v -2.116533 5.375129 7.625029
v -2.885533 5.37613 7.193028
v -2.116533 5.375129 7.625029
v -1.756533 5.375382 6.984029
v -1.756533 6.655129 6.984029
v -2.116533 6.655129 7.625029
v -2.525533 6.655129 6.552029
v -1.756533 6.655129 6.984029
v -1.756533 5.375382 6.984029
v -2.525533 5.375664 6.552029
v -2.885533 6.655129 7.193028
v -2.540674 5.375653 6.578989
v -2.885533 5.37613 7.193028
v -2.540674 5.375653 6.578989
v -2.525533 6.655129 6.552029
v -2.525533 5.375664 6.552029
v -2.885533 6.655129 7.193028
v -2.525533 6.655129 6.552029
v -2.540674 5.375653 6.578989
v 5.732467 5.378129 -0.8529713
v 6.607467 5.378129 -2.409971
v 6.607467 6.62113 -2.409971
v 5.732467 6.62113 -0.8529713
v 0.2294669 -5.401193 8.943028
v 5.732467 -5.401193 -0.8529713
v 5.732467 5.378129 -0.8529713
v 0.2294669 5.374129 8.943028
v 6.607467 -5.401193 -2.409971
v 7.426467 -5.401193 -3.868971
v 7.426467 5.379129 -3.868971
v 6.607467 5.378129 -2.409971
v 5.732467 -5.401193 -0.8529713
v 6.607467 -5.401193 -2.409971
v 6.607467 5.378129 -2.409971
v 5.732467 5.378129 -0.8529713
v 5.809467 6.62113 -2.857971
v 6.607467 6.62113 -2.409971
v 6.607467 5.378129 -2.409971
v 5.809467 5.378129 -2.857971
v 4.934467 6.62113 -1.300971
v 5.36577 5.378129 -2.068445
v 4.934467 5.378129 -1.300971
v 5.36577 5.378129 -2.068445
v 5.809467 6.62113 -2.857971
v 5.809467 5.378129 -2.857971
v 4.934467 6.62113 -1.300971
v 5.809467 6.62113 -2.857971
v 5.36577 5.378129 -2.068445
v 4.934467 5.378129 -1.300971
v 5.732467 5.378129 -0.8529713
v 5.732467 6.62113 -0.8529713
v 4.934467 6.62113 -1.300971
v -6.523533 5.378129 5.150029
v -4.546533 5.378129 1.632029
v -4.546533 -5.401193 1.632029
v -6.523533 -5.401193 5.150029
v 6.566467 5.379129 -4.351971
v 7.426467 5.379129 -3.868971
v 7.426467 -5.401193 -3.868971
v 6.566467 -5.401193 -4.351971
v 6.566467 -5.401193 -4.351971
v 6.794467 -5.401193 -4.757971
v 6.794467 5.379129 -4.757971
v 6.566467 5.379129 -4.351971
v 4.626467 5.378129 -5.975971
v 6.794467 5.379129 -4.757971
v 6.794467 -5.401193 -4.757971
v 4.626467 -5.401193 -5.975971
v 4.340467 5.378129 -5.466971
v 4.626467 5.378129 -5.975971
v 4.626467 -5.401193 -5.975971
v 4.340467 -5.401193 -5.466971
v -1.076533 5.378129 -8.509972
v 4.340467 5.378129 -5.466971
v 4.340467 -5.401193 -5.466971
v -1.076533 -5.401193 -8.509972
v -6.239533 5.378129 0.6810287
v -1.076533 5.378129 -8.509972
v -1.076533 -5.401193 -8.509972
v -6.239533 -5.401193 0.6810287
v -6.239533 -5.401193 0.6810287
v -4.546533 -5.401193 1.632029
v -4.546533 5.378129 1.632029
v -6.239533 5.378129 0.6810287
v -6.239533 -5.401193 0.6810287
v -1.076533 -5.401193 -8.509972
v 4.340467 -5.401193 -5.466971
v 4.626467 -5.401193 -5.975971
v 6.794467 -5.401193 -4.757971
v 6.566467 -5.401193 -4.351971
v 7.426467 -5.401193 -3.868971
v 6.607467 -5.401193 -2.409971
v 5.732467 -5.401193 -0.8529713
v 0.2294669 -5.401193 8.943028
v -2.116533 -5.401193 7.625029
v -2.885533 -5.401193 7.193028
v -6.523533 -5.401193 5.150029
v -4.546533 -5.401193 1.632029
vt 0.099083 0.983838
vt 0.083333 0.962797
vt 0.106788 0.953020
vt 0.122538 0.974061
vt 0.002252 0.977174
vt 0.060675 0.953020
vt 0.077422 0.975213
vt 0.018999 0.999366
vt 0.147452 0.399634
vt 0.069243 0.295452
vt 0.282665 0.343443
vt 0.538884 0.056350
vt 0.527963 0.040519
vt 0.532112 0.038795
vt 0.543280 0.054523
vt 0.549805 0.072180
vt 0.538884 0.056350
vt 0.543280 0.054523
vt 0.554449 0.070251
vt 0.543280 0.054523
vt 0.532112 0.038795
vt 0.536261 0.037072
vt 0.547677 0.052697
vt 0.554449 0.070251
vt 0.543280 0.054523
vt 0.547677 0.052697
vt 0.559093 0.068322
vt 0.527963 0.040519
vt 0.513140 0.026308
vt 0.532112 0.038795
vt 0.532112 0.038795
vt 0.513140 0.026308
vt 0.528747 0.019827
vt 0.538884 0.056350
vt 0.513140 0.026308
vt 0.527963 0.040519
vt 0.555834 0.090044
vt 0.538884 0.056350
vt 0.549805 0.072180
vt 0.555834 0.090044
vt 0.513140 0.026308
vt 0.538884 0.056350
vt 0.555834 0.090044
vt 0.549805 0.072180
vt 0.554449 0.070251
vt 0.547677 0.052697
vt 0.536261 0.037072
vt 0.528747 0.019827
vt 0.532112 0.038795
vt 0.528747 0.019827
vt 0.536261 0.037072
vt 0.575400 0.081914
vt 0.547677 0.052697
vt 0.528747 0.019827
vt 0.575400 0.081914
vt 0.554449 0.070251
vt 0.559093 0.068322
vt 0.575400 0.081914
vt 0.559093 0.068322
vt 0.547677 0.052697
vt 0.555834 0.090044
vt 0.554449 0.070251
vt 0.575400 0.081914
vt 0.513140 0.026308
vt 0.438574 0.024957
vt 0.494645 0.001678
vt 0.052712 0.273427
vt 0.002252 0.206243
vt 0.378725 0.049830
vt 0.555834 0.090044
vt 0.438574 0.024957
vt 0.513140 0.026308
vt 0.319081 0.391924
vt 0.282665 0.343443
vt 0.672356 0.245176
vt 0.282665 0.343443
vt 0.425381 0.060424
vt 0.555834 0.090044
vt 0.672356 0.245176
vt 0.282665 0.343443
vt 0.395881 0.072684
vt 0.425381 0.060424
vt 0.282665 0.343443
vt 0.378725 0.049830
vt 0.395881 0.072684
vt 0.555834 0.090044
vt 0.455730 0.047811
vt 0.438574 0.024957
vt 0.555834 0.090044
vt 0.425381 0.060424
vt 0.455730 0.047811
vt 0.052712 0.273427
vt 0.378725 0.049830
vt 0.077346 0.263196
vt 0.282665 0.343443
vt 0.093885 0.285218
vt 0.378725 0.049830
vt 0.093885 0.285218
vt 0.077346 0.263196
vt 0.378725 0.049830
vt 0.282665 0.343443
vt 0.092849 0.285648
vt 0.093885 0.285218
vt 0.282665 0.343443
vt 0.069243 0.295452
vt 0.092849 0.285648
vt 0.758281 0.157449
vt 0.775280 0.179315
vt 0.755700 0.185817
vt 0.738689 0.163911
vt 0.841681 0.001678
vt 0.920949 0.103796
vt 0.758281 0.157449
vt 0.677928 0.053986
vt 0.937710 0.125381
vt 0.988845 0.191231
vt 0.827111 0.246033
vt 0.775280 0.179315
vt 0.920949 0.103796
vt 0.937710 0.125381
vt 0.775280 0.179315
vt 0.758281 0.157449
vt 0.596145 0.956231
vt 0.572777 0.965655
vt 0.554054 0.962459
vt 0.577455 0.953020
vt 0.452453 0.977220
vt 0.436937 0.956456
vt 0.452163 0.953020
vt 0.467651 0.973753
vt 0.509009 0.962156
vt 0.547015 0.959173
vt 0.524452 0.967909
vt 0.547015 0.959173
vt 0.532594 0.953020
vt 0.548006 0.958789
vt 0.509009 0.962156
vt 0.532594 0.953020
vt 0.547015 0.959173
vt 0.117579 0.565267
vt 0.058050 0.590851
vt 0.038427 0.587756
vt 0.098048 0.562132
vt 0.654139 0.433246
vt 0.284486 0.592053
vt 0.117579 0.565267
vt 0.492190 0.404362
vt 0.225735 0.617303
vt 0.170682 0.640937
vt 0.002252 0.614797
vt 0.058050 0.590851
vt 0.284486 0.592053
vt 0.225735 0.617303
vt 0.058050 0.590851
vt 0.117579 0.565267
vt 0.489063 0.977563
vt 0.472973 0.956015
vt 0.487245 0.953020
vt 0.503311 0.974536
vt 0.317568 0.976396
vt 0.361342 0.971098
vt 0.332454 0.982603
vt 0.361342 0.971098
vt 0.376263 0.953020
vt 0.391061 0.959262
vt 0.317568 0.976396
vt 0.376263 0.953020
vt 0.361342 0.971098
vt 0.414912 0.953020
vt 0.431609 0.974601
vt 0.413119 0.980935
vt 0.396396 0.959322
vt 0.002252 0.898746
vt 0.137534 0.843960
vt 0.269020 0.895577
vt 0.135501 0.949647
vt 0.831340 0.894021
vt 0.813063 0.870085
vt 0.941055 0.843960
vt 0.959093 0.867583
vt 0.310989 0.978336
vt 0.295802 0.984631
vt 0.128378 0.959398
vt 0.143767 0.953020
vt 0.528199 0.931883
vt 0.481982 0.870689
vt 0.609857 0.843960
vt 0.655458 0.904358
vt 0.662162 0.851806
vt 0.681603 0.843960
vt 0.808375 0.898378
vt 0.789188 0.906121
vt 0.604579 0.826558
vt 0.488739 0.672190
vt 0.616700 0.644295
vt 0.731026 0.796650
vt 0.002252 0.788414
vt 0.357017 0.644295
vt 0.483897 0.697536
vt 0.133758 0.839772
vt 0.440132 0.843960
vt 0.476888 0.891023
vt 0.312021 0.943574
vt 0.274775 0.895887
vt 0.601351 0.953020
vt 0.601351 0.953020
vt 0.601351 0.953020
vt 0.601351 0.953020
vt 0.601351 0.953020
vt 0.601351 0.953020
vt 0.601351 0.953020
vt 0.601351 0.953020
vt 0.601351 0.953020
vt 0.601351 0.953020
vt 0.601351 0.953020
vt 0.601351 0.953020
vt 0.601351 0.953020
vt 0.601351 0.953020
vn 0 1 0
vn 0 1 0
vn 0 1 0
vn 0 1 0
vn 0 1 0
vn 0 1 0
vn 0 1 0
vn 0 1 0
vn 0.0004178768 0.9999999 0.000234833
vn 0.0004178768 0.9999999 0.000234833
vn 0.0004178768 0.9999999 0.000234833
vn -0.0003505924 0.9999999 -0.0001969448
vn -0.0003506004 0.9999999 -0.0001969351
vn -0.0003506083 0.9999999 -0.0001969253
vn -0.0003506004 0.9999999 -0.0001969351
vn -0.0003505823 0.9999999 -0.0001969645
vn -0.0003505895 0.9999999 -0.0001969559
vn -0.0003505967 0.9999999 -0.0001969472
vn -0.0003505895 0.9999999 -0.0001969559
vn -0.0003505967 0.9999999 -0.0001969472
vn -0.0003506048 0.9999999 -0.0001969376
vn -0.0003506129 0.9999999 -0.0001969279
vn -0.0003506048 0.9999999 -0.0001969376
vn -0.0003505863 0.9999999 -0.0001969668
vn -0.0003505937 0.9999999 -0.0001969582
vn -0.000350601 0.9999999 -0.0001969496
vn -0.0003505937 0.9999999 -0.0001969582
vn -0.0003505992 0.9999999 -0.0001969202
vn -0.0003505992 0.9999999 -0.0001969202
vn -0.0003505992 0.9999999 -0.0001969202
vn -0.0003506214 0.9999999 -0.0001969007
vn -0.0003506214 0.9999999 -0.0001969007
vn -0.0003506214 0.9999999 -0.0001969007
vn -0.0003506166 0.9999999 -0.000196898
vn -0.0003506166 0.9999999 -0.000196898
vn -0.0003506166 0.9999999 -0.000196898
vn -0.0003505732 0.9999999 -0.0001969822
vn -0.0003505732 0.9999999 -0.0001969822
vn -0.0003505732 0.9999999 -0.0001969822
vn -0.0003505881 0.9999999 -0.0001969424
vn -0.0003505881 0.9999999 -0.0001969424
vn -0.0003505881 0.9999999 -0.0001969424
vn -0.0003505782 0.9999999 -0.0001969622
vn -0.0003505782 0.9999999 -0.0001969622
vn -0.0003505782 0.9999999 -0.0001969622
vn -0.0003506263 0.9999999 -0.0001969034
vn -0.0003506263 0.9999999 -0.0001969034
vn -0.0003506263 0.9999999 -0.0001969034
vn -0.0003506175 0.9999999 -0.0001969305
vn -0.0003506175 0.9999999 -0.0001969305
vn -0.0003506175 0.9999999 -0.0001969305
vn -0.0003506053 0.9999999 -0.0001969521
vn -0.0003506053 0.9999999 -0.0001969521
vn -0.0003506053 0.9999999 -0.0001969521
vn -0.0003505945 0.9999999 -0.0001969713
vn -0.0003505945 0.9999999 -0.0001969713
vn -0.0003505945 0.9999999 -0.0001969713
vn -0.0003505809 0.9999999 -0.0001969865
vn -0.0003505809 0.9999999 -0.0001969865
vn -0.0003505809 0.9999999 -0.0001969865
vn -0.000350577 0.9999999 -0.0001969843
vn -0.000350577 0.9999999 -0.0001969843
vn -0.000350577 0.9999999 -0.0001969843
vn -0.000292671 0.9999998 0.0005211119
vn -0.000292671 0.9999998 0.0005211119
vn -0.000292671 0.9999998 0.0005211119
vn 0.000149631 0.9999999 0.0004923866
vn 0.000149631 0.9999999 0.0004923866
vn 0.000149631 0.9999999 0.0004923866
vn -0.0007147235 0.9999996 0.0005300223
vn -0.0007147235 0.9999996 0.0005300223
vn -0.0007147235 0.9999996 0.0005300223
vn 0 1 0
vn 0 1 0
vn 0 1 0
vn 0 1 0
vn 0 1 0
vn 0 1 0
vn 0 1 0
vn 0 1 0
vn 0 1 0
vn 0 1 0
vn 0 1 0
vn 0 1 0
vn 0 1 0
vn 0 1 0
vn 0 1 0
vn 0 1 0
vn 0 1 0
vn 0 1 0
vn 0 1 0
vn 0.0001102095 0.9999999 0.0004558899
vn 0.0001102095 0.9999999 0.0004558899
vn 0.0001102095 0.9999999 0.0004558899
vn 0.000110215 0.9999999 0.0004558954
vn 0.000110215 0.9999999 0.0004558954
vn 0.000110215 0.9999999 0.0004558954
vn 0.0001102133 0.9999999 0.0004558934
vn 0.0001102133 0.9999999 0.0004558934
vn 0.0001102133 0.9999999 0.0004558934
vn 0.0001102917 0.9999999 0.0004558639
vn 0.0001102917 0.9999999 0.0004558639
vn 0.0001102917 0.9999999 0.0004558639
vn 0.001319807 0.9999991 -3.456223E-05
vn 0.001319807 0.9999991 -3.456223E-05
vn 0.001319807 0.9999991 -3.456223E-05
vn -0.4897767 0 0.8718479
vn -0.4897767 0 0.8718479
vn -0.4897767 0 0.8718479
vn -0.4897767 0 0.8718479
vn -0.4896466 0 0.8719209
vn -0.4896466 0 0.8719209
vn -0.4896466 0 0.8719209
vn -0.4896466 0 0.8719209
vn -0.4898024 0 0.8718334
vn -0.4898024 0 0.8718334
vn -0.4898024 0 0.8718334
vn -0.4898024 0 0.8718334
vn -0.4897767 0 0.8718479
vn -0.4897767 0 0.8718479
vn -0.4897767 0 0.8718479
vn -0.4897767 0 0.8718479
vn 0.8719023 0 0.4896799
vn 0.8719023 0 0.4896799
vn 0.8719023 0 0.4896799
vn 0.8719023 0 0.4896799
vn 0.4897767 0 -0.8718479
vn 0.4897767 0 -0.8718479
vn 0.4897767 0 -0.8718479
vn 0.4897767 0 -0.8718479
vn -0.8719023 0 -0.4896799
vn -0.8719023 0 -0.4896799
vn -0.8719023 0 -0.4896799
vn -0.8719023 0 -0.4896799
vn -0.8719023 0 -0.4896799
vn -0.8719023 0 -0.4896799
vn -0.8719023 -1.317314E-09 -0.4896799
vn -0.8719023 -1.317314E-09 -0.4896799
vn -0.8719023 -1.317314E-09 -0.4896799
vn 0.8717698 0 0.4899156
vn 0.8717698 0 0.4899156
vn 0.8717698 0 0.4899156
vn 0.8717698 0 0.4899156
vn 0.8718511 0 0.489771
vn 0.8718511 0 0.489771
vn 0.8718511 0 0.489771
vn 0.8718511 0 0.489771
vn 0.8720062 0 0.4894949
vn 0.8720062 0 0.4894949
vn 0.8720062 0 0.4894949
vn 0.8720062 0 0.4894949
vn 0.8717698 0 0.4899156
vn 0.8717698 0 0.4899156
vn 0.8717698 0 0.4899156
vn 0.8717698 0 0.4899156
vn 0.4895348 0 -0.8719838
vn 0.4895348 0 -0.8719838
vn 0.4895348 0 -0.8719838
vn 0.4895348 0 -0.8719838
vn -0.8717698 0 -0.4899156
vn -0.8717698 0 -0.4899156
vn -0.8717698 0 -0.4899156
vn -0.8717698 0 -0.4899156
vn -0.8717698 0 -0.4899156
vn -0.8717698 0 -0.4899156
vn -0.8717698 4.191212E-10 -0.4899156
vn -0.8717698 4.191212E-10 -0.4899156
vn -0.8717698 4.191212E-10 -0.4899156
vn -0.4895348 0 0.8719838
vn -0.4895348 0 0.8719838
vn -0.4895348 0 0.8719838
vn -0.4895348 0 0.8719838
vn -0.871774 0 -0.4899082
vn -0.871774 0 -0.4899082
vn -0.871774 0 -0.4899082
vn -0.871774 0 -0.4899082
vn 0.4896835 0 -0.8719003
vn 0.4896835 0 -0.8719003
vn 0.4896835 0 -0.8719003
vn 0.4896835 0 -0.8719003
vn 0.8719195 0 0.4896494
vn 0.8719195 0 0.4896494
vn 0.8719195 0 0.4896494
vn 0.8719195 0 0.4896494
vn 0.489803 0 -0.8718331
vn 0.489803 0 -0.8718331
vn 0.489803 0 -0.8718331
vn 0.489803 0 -0.8718331
vn -0.8718042 0 -0.4898546
vn -0.8718042 0 -0.4898546
vn -0.8718042 0 -0.4898546
vn -0.8718042 0 -0.4898546
vn 0.4897645 0 -0.8718548
vn 0.4897645 0 -0.8718548
vn 0.4897645 0 -0.8718548
vn 0.4897645 0 -0.8718548
vn -0.8718566 0 -0.4897612
vn -0.8718566 0 -0.4897612
vn -0.8718566 0 -0.4897612
vn -0.8718566 0 -0.4897612
vn -0.4897477 0 0.8718642
vn -0.4897477 0 0.8718642
vn -0.4897477 0 0.8718642
vn -0.4897477 0 0.8718642
vn 0 -1 0
vn 0 -1 0
vn 0 -1 0
vn 0 -1 0
vn 0 -1 0
vn 0 -1 0
vn 0 -1 0
vn 0 -1 0
vn 0 -1 0
vn 0 -1 0
vn 0 -1 0
vn 0 -1 0
vn 0 -1 0
vn 0 -1 0

g CDNNDG01_0001220
f 4/4/4 1/1/1 3/3/3
f 3/3/3 1/1/1 2/2/2
f 8/8/8 5/5/5 7/7/7
f 7/7/7 5/5/5 6/6/6
f 9/9/9 10/10/10 11/11/11
f 12/12/12 13/13/13 15/15/15
f 15/15/15 13/13/13 14/14/14
f 16/16/16 17/17/17 19/19/19
f 19/19/19 17/17/17 18/18/18
f 20/20/20 21/21/21 23/23/23
f 23/23/23 21/21/21 22/22/22
f 24/24/24 25/25/25 27/27/27
f 27/27/27 25/25/25 26/26/26
f 28/28/28 29/29/29 30/30/30
f 31/31/31 32/32/32 33/33/33
f 34/34/34 35/35/35 36/36/36
f 37/37/37 38/38/38 39/39/39
f 40/40/40 41/41/41 42/42/42
f 43/43/43 44/44/44 45/45/45
f 46/46/46 47/47/47 48/48/48
f 49/49/49 50/50/50 51/51/51
f 52/52/52 53/53/53 54/54/54
f 55/55/55 56/56/56 57/57/57
f 58/58/58 59/59/59 60/60/60
f 61/61/61 62/62/62 63/63/63
f 64/64/64 65/65/65 66/66/66
f 67/67/67 68/68/68 69/69/69
f 70/70/70 71/71/71 72/72/72
f 73/73/73 74/74/74 75/75/75
f 76/76/76 77/77/77 78/78/78
f 79/79/79 76/76/76 78/78/78
f 80/80/80 81/81/81 82/82/82
f 83/83/83 84/84/84 85/85/85
f 86/86/86 87/87/87 88/88/88
f 89/89/89 90/90/90 91/91/91
f 92/92/92 93/93/93 94/94/94
f 95/95/95 96/96/96 97/97/97
f 98/98/98 99/99/99 100/100/100
f 101/101/101 102/102/102 103/103/103
f 104/104/104 105/105/105 106/106/106
f 107/107/107 109/109/109 110/110/110
f 109/109/109 107/107/107 108/108/108
f 111/111/111 113/113/113 114/114/114
f 113/113/113 111/111/111 112/112/112
f 115/115/115 117/117/117 118/118/118
f 117/117/117 115/115/115 116/116/116
f 119/119/119 121/121/121 122/122/122
f 121/121/121 119/119/119 120/120/120
f 124/124/124 125/125/125 126/126/126
f 123/123/123 124/124/124 126/126/126
f 130/130/130 127/127/127 128/128/128
f 128/128/128 129/129/129 130/130/130
f 131/131/131 132/132/132 133/133/133
f 134/134/134 135/135/135 136/136/136
f 137/137/137 138/138/138 139/139/139
f 143/143/143 140/140/140 142/142/142
f 141/141/141 142/142/142 140/140/140
f 145/145/145 146/146/146 147/147/147
f 144/144/144 145/145/145 147/147/147
f 149/149/149 150/150/150 151/151/151
f 148/148/148 149/149/149 151/151/151
f 153/153/153 154/154/154 152/152/152
f 152/152/152 154/154/154 155/155/155
f 159/159/159 156/156/156 157/157/157
f 157/157/157 158/158/158 159/159/159
f 160/160/160 161/161/161 162/162/162
f 163/163/163 164/164/164 165/165/165
f 166/166/166 167/167/167 168/168/168
f 170/170/170 171/171/171 172/172/172
f 172/172/172 169/169/169 170/170/170
f 173/173/173 175/175/175 176/176/176
f 173/173/173 174/174/174 175/175/175
f 179/179/179 177/177/177 178/178/178
f 177/177/177 179/179/179 180/180/180
f 181/181/181 183/183/183 184/184/184
f 181/181/181 182/182/182 183/183/183
f 187/187/187 185/185/185 186/186/186
f 185/185/185 187/187/187 188/188/188
f 189/189/189 190/190/190 191/191/191
f 192/192/192 189/189/189 191/191/191
f 194/194/194 195/195/195 193/193/193
f 193/193/193 195/195/195 196/196/196
f 197/197/197 199/199/199 200/200/200
f 197/197/197 198/198/198 199/199/199
f 201/201/201 203/203/203 204/204/204
f 203/203/203 201/201/201 202/202/202
f 218/218/218 213/213/213 215/215/215
f 210/210/210 207/207/207 208/208/208
f 218/218/218 216/216/216 217/217/217
f 218/218/218 205/205/205 206/206/206
f 207/207/207 218/218/218 206/206/206
f 209/209/209 210/210/210 208/208/208
f 210/210/210 211/211/211 212/212/212
f 215/215/215 216/216/216 218/218/218
f 210/210/210 212/212/212 207/207/207
f 214/214/214 215/215/215 213/213/213
f 212/212/212 213/213/213 207/207/207
f 213/213/213 218/218/218 207/207/207
