v -0.3711066 5.958542 -7.5468
v 2.355893 5.958542 -6.0198
v 0.1328934 5.796542 -8.4468
v 0.1328934 5.796542 -8.4468
v 2.355893 5.958542 -6.0198
v 2.859893 5.796542 -6.9188
v -7.415107 5.397542 3.6222
v -6.699107 5.397542 2.3432
v -7.219107 5.397542 1.9682
v -8.247107 5.397542 3.8722
v -7.415107 5.397542 3.6222
v -7.219107 5.397542 1.9682
v -8.247107 5.397542 3.8722
v -3.689107 5.397542 5.7092
v -7.415107 5.397542 3.6222
v -8.247107 5.397542 3.8722
v -3.439107 5.397542 6.5152
v -3.689107 5.397542 5.7092
v -3.689107 5.397542 5.7092
v -2.708107 5.397542 5.2992
v -2.969107 5.397542 4.4252
v -3.689107 5.397542 5.7092
v -3.439107 5.397542 6.5152
v -2.708107 5.397542 5.2992
v -2.969107 5.397542 4.4252
v -2.708107 5.397542 5.2992
v 1.919893 5.397542 7.1642
v -2.708107 5.397542 5.2992
v 1.603893 5.397542 7.7472
v 1.919893 5.397542 7.1642
v 3.921893 7.054542 -4.5728
v 4.769893 7.054542 -4.1368
v 5.190893 7.054542 -4.9558
v 4.341893 7.054542 -5.3918
v -2.969107 5.958996 4.4252
v 2.355893 5.958996 -6.0198
v -0.3711066 5.958996 -7.5468
v -6.699107 5.958996 2.3432
v -7.415107 5.958996 3.6222
v -3.689107 5.958996 5.7092
v -2.969107 5.958996 4.4252
v -6.699107 5.958996 2.3432
v -6.699107 5.958996 2.3432
v -0.3711066 5.958996 -7.5468
v -0.9711066 5.958996 -7.8828
v 4.769893 5.958996 -4.1368
v 7.296894 5.958996 -2.4358
v 4.819312 5.958996 -4.232937
v -2.969107 5.958996 4.4252
v 1.919893 5.958996 7.1642
v 4.769893 5.958996 -4.1368
v 1.919893 5.958996 7.1642
v 7.296894 5.958996 -2.4358
v 4.769893 5.958996 -4.1368
v 2.355893 5.958996 -6.0198
v 3.921893 5.958996 -4.5728
v 4.038172 5.958996 -4.799544
v -2.969107 5.958996 4.4252
v 4.769893 5.958996 -4.1368
v 3.921893 5.958996 -4.5728
v -2.969107 5.958996 4.4252
v 3.921893 5.958996 -4.5728
v 2.355893 5.958996 -6.0198
v 4.819312 5.958996 -4.232937
v 7.296894 5.958996 -2.4358
v 4.981672 5.958996 -4.548788
v 4.981672 5.958996 -4.548788
v 7.296894 5.958996 -2.4358
v 7.644893 5.958996 -3.0568
v 2.355893 5.958996 -6.0198
v 4.038172 5.958996 -4.799544
v 4.148844 5.958996 -5.015355
v 2.355893 -5.931211 -6.0198
v 2.859893 -5.931211 -6.9188
v 2.859893 5.796542 -6.9188
v 2.355893 5.958542 -6.0198
v 0.1328934 5.796542 -8.4468
v 2.859893 5.796542 -6.9188
v 2.859893 -5.931211 -6.9188
v 0.1328934 -5.931211 -8.4468
v -0.3711066 5.958542 -7.5468
v 0.1328934 5.796542 -8.4468
v 0.1328934 -5.931211 -8.4468
v -0.3711066 -5.931211 -7.5468
v -7.219107 5.397542 1.9682
v -6.699107 5.397542 2.3432
v -6.699107 -5.931211 2.3432
v -7.219107 -5.931211 1.9682
v -8.247107 5.397542 3.8722
v -7.219107 5.397542 1.9682
v -7.219107 -5.931211 1.9682
v -8.247107 -5.931211 3.8722
v -8.247107 -5.931211 3.8722
v -3.439107 -5.931211 6.5152
v -3.439107 5.397542 6.5152
v -8.247107 5.397542 3.8722
v -3.439107 -5.931211 6.5152
v -2.708107 -5.931211 5.2992
v -2.708107 5.397542 5.2992
v -3.439107 5.397542 6.5152
v -0.5521066 -5.931211 6.5232
v 1.603893 -5.931211 7.7472
v 1.603893 5.397542 7.7472
v -2.708107 5.397542 5.2992
v -2.708107 -5.931211 5.2992
v -0.5521066 -5.931211 6.5232
v -2.708107 5.397542 5.2992
v -0.5521066 -5.931211 6.5232
v 1.603893 5.397542 7.7472
v 1.603893 -5.931211 7.7472
v 1.919893 -5.931211 7.1642
v 1.919893 5.397542 7.1642
v 1.603893 5.397542 7.7472
v 1.919893 -5.931211 7.1642
v 7.296894 -5.931211 -2.4358
v 7.296894 5.958996 -2.4358
v 1.919893 5.397542 7.1642
v 1.919893 5.958996 7.1642
v 1.919893 5.397542 7.1642
v 7.296894 5.958996 -2.4358
v 7.296894 -5.931211 -2.4358
v 7.644893 -5.931211 -3.0568
v 7.644893 5.958996 -3.0568
v 7.296894 5.958996 -2.4358
v 3.921893 5.958996 -4.5728
v 4.769893 5.958996 -4.1368
v 4.769893 7.054542 -4.1368
v 3.921893 7.054542 -4.5728
v 4.981672 5.958996 -4.548788
v 5.190893 -5.931211 -4.9558
v 5.190893 7.054542 -4.9558
v 4.819312 5.958996 -4.232937
v 4.981672 5.958996 -4.548788
v 5.190893 7.054542 -4.9558
v 4.769893 7.054542 -4.1368
v 4.981672 5.958996 -4.548788
v 4.981672 -5.931211 -4.548788
v 5.190893 -5.931211 -4.9558
v 4.769893 7.054542 -4.1368
v 4.769893 5.958996 -4.1368
v 4.819312 5.958996 -4.232937
v 4.341893 7.054542 -5.3918
v 5.190893 7.054542 -4.9558
v 5.190893 -5.931211 -4.9558
v 4.341893 -5.931211 -5.3918
v 3.921893 7.054542 -4.5728
v 4.038172 5.958996 -4.799544
v 3.921893 5.958996 -4.5728
v 3.921893 7.054542 -4.5728
v 4.148844 5.958996 -5.015355
v 4.038172 5.958996 -4.799544
v 4.148844 5.958996 -5.015355
v 4.341893 7.054542 -5.3918
v 4.341893 -5.931211 -5.3918
v 3.921893 7.054542 -4.5728
v 4.341893 7.054542 -5.3918
v 4.148844 5.958996 -5.015355
v 4.148844 5.958996 -5.015355
v 4.341893 -5.931211 -5.3918
v 4.148844 -5.931211 -5.015355
v -0.9711066 5.958996 -7.8828
v -0.3711066 5.958542 -7.5468
v -0.3711066 -5.931211 -7.5468
v -0.9711066 -5.931211 -7.8828
v -0.9711066 5.958996 -7.8828
v -0.3711066 5.958996 -7.5468
v -0.3711066 5.958542 -7.5468
v 2.355893 5.958996 -6.0198
v 4.148844 5.958996 -5.015355
v 2.355893 5.958542 -6.0198
v 2.355893 5.958542 -6.0198
v 4.148844 5.958996 -5.015355
v 4.148844 -5.931211 -5.015355
v 2.355893 -5.931211 -6.0198
v -0.3711066 5.958996 -7.5468
v 2.355893 5.958996 -6.0198
v 2.355893 5.958542 -6.0198
v -0.3711066 5.958542 -7.5468
v -6.699107 5.958996 2.3432
v -0.9711066 5.958996 -7.8828
v -6.699107 5.397542 2.3432
v -6.699107 5.397542 2.3432
v -0.9711066 5.958996 -7.8828
v -0.9711066 -5.931211 -7.8828
v -6.699107 -5.931211 2.3432
v -7.415107 5.958996 3.6222
v -6.699107 5.958996 2.3432
v -6.699107 5.397542 2.3432
v -7.415107 5.397542 3.6222
v 4.981672 5.958996 -4.548788
v 7.644893 5.958996 -3.0568
v 7.644893 -5.931211 -3.0568
v 4.981672 -5.931211 -4.548788
v -7.415107 5.397542 3.6222
v -3.689107 5.397542 5.7092
v -3.689107 5.958996 5.7092
v -7.415107 5.958996 3.6222
v -3.689107 5.397542 5.7092
v -2.969107 5.397542 4.4252
v -2.969107 5.958996 4.4252
v -3.689107 5.958996 5.7092
v -2.969107 5.397542 4.4252
v 1.919893 5.397542 7.1642
v 1.919893 5.958996 7.1642
v -2.969107 5.958996 4.4252
v -0.9711066 -5.931211 -7.8828
v -0.3711066 -5.931211 -7.5468
v 0.1328934 -5.931211 -8.4468
v 2.859893 -5.931211 -6.9188
v 2.355893 -5.931211 -6.0198
v 4.148844 -5.931211 -5.015355
v 4.341893 -5.931211 -5.3918
v 5.190893 -5.931211 -4.9558
v 4.981672 -5.931211 -4.548788
v 7.644893 -5.931211 -3.0568
v 7.296894 -5.931211 -2.4358
v 1.919893 -5.931211 7.1642
v 1.603893 -5.931211 7.7472
v -0.5521066 -5.931211 6.5232
v -2.708107 -5.931211 5.2992
v -3.439107 -5.931211 6.5152
v -8.247107 -5.931211 3.8722
v -7.219107 -5.931211 1.9682
v -6.699107 -5.931211 2.3432
vt 0.254047 0.895498
vt 0.311208 0.969252
vt 0.222222 0.909740
vt 0.222222 0.909740
vt 0.311208 0.969252
vt 0.279409 0.983478
vt 0.632162 0.024600
vt 0.584968 0.044720
vt 0.570806 0.030518
vt 0.641079 0.001608
vt 0.632162 0.024600
vt 0.570806 0.030518
vt 0.641079 0.001608
vt 0.711347 0.126555
vt 0.632162 0.024600
vt 0.641079 0.001608
vt 0.741400 0.133186
vt 0.711347 0.126555
vt 0.711347 0.126555
vt 0.696553 0.153699
vt 0.663970 0.146786
vt 0.711347 0.126555
vt 0.741400 0.133186
vt 0.696553 0.153699
vt 0.663970 0.146786
vt 0.696553 0.153699
vt 0.767889 0.280558
vt 0.696553 0.153699
vt 0.789405 0.271673
vt 0.767889 0.280558
vt 0.647942 0.895498
vt 0.663952 0.917830
vt 0.634747 0.929230
vt 0.618736 0.906872
vt 0.461556 0.124111
vt 0.073344 0.274420
vt 0.015014 0.199613
vt 0.382024 0.021781
vt 0.429535 0.001608
vt 0.509252 0.103827
vt 0.461556 0.124111
vt 0.382024 0.021781
vt 0.382024 0.021781
vt 0.015014 0.199613
vt 0.002179 0.183154
vt 0.144844 0.340472
vt 0.209587 0.409699
vt 0.141271 0.341867
vt 0.461556 0.124111
vt 0.566173 0.258229
vt 0.144844 0.340472
vt 0.566173 0.258229
vt 0.209587 0.409699
vt 0.144844 0.340472
vt 0.073344 0.274420
vt 0.128158 0.317198
vt 0.119732 0.320480
vt 0.461556 0.124111
vt 0.144844 0.340472
vt 0.128158 0.317198
vt 0.461556 0.124111
vt 0.128158 0.317198
vt 0.073344 0.274420
vt 0.141271 0.341867
vt 0.209587 0.409699
vt 0.129533 0.346449
vt 0.129533 0.346449
vt 0.209587 0.409699
vt 0.186522 0.419502
vt 0.073344 0.274420
vt 0.119732 0.320480
vt 0.111711 0.323603
vt 0.967392 0.801117
vt 0.935096 0.815002
vt 0.869281 0.711679
vt 0.901128 0.696141
vt 0.318083 0.696141
vt 0.375673 0.770541
vt 0.441760 0.874326
vt 0.384991 0.800989
vt 0.439390 0.964500
vt 0.407407 0.977357
vt 0.474459 0.909112
vt 0.506906 0.895498
vt 0.771242 0.895498
vt 0.771242 0.895498
vt 0.771242 0.895498
vt 0.771242 0.895498
vt 0.157112 0.958364
vt 0.087146 0.986590
vt 0.146944 0.923336
vt 0.215947 0.895498
vt 0.061175 0.696141
vt 0.158724 0.825744
vt 0.101092 0.891001
vt 0.002179 0.759590
vt 0.613314 0.913224
vt 0.569578 0.932756
vt 0.511983 0.915304
vt 0.556330 0.895498
vt 0.266743 0.754216
vt 0.311873 0.812288
vt 0.254921 0.879407
vt 0.163399 0.761640
vt 0.221613 0.696141
vt 0.266743 0.754216
vt 0.163399 0.761640
vt 0.266743 0.754216
vt 0.254921 0.879407
vt 0.462653 0.523886
vt 0.441348 0.532664
vt 0.383957 0.431730
vt 0.405559 0.422830
vt 0.441348 0.532664
vt 0.090618 0.681913
vt 0.025198 0.578097
vt 0.383957 0.431730
vt 0.381071 0.426655
vt 0.383957 0.431730
vt 0.025198 0.578097
vt 0.090618 0.681913
vt 0.067931 0.691572
vt 0.002179 0.587898
vt 0.025198 0.578097
vt 0.674578 0.895498
vt 0.689641 0.917653
vt 0.683929 0.924074
vt 0.668845 0.901890
vt 0.798705 0.711825
vt 0.849380 0.821641
vt 0.777778 0.707959
vt 0.810188 0.707274
vt 0.798705 0.711825
vt 0.777778 0.707959
vt 0.807594 0.696141
vt 0.798705 0.711825
vt 0.863964 0.815861
vt 0.849380 0.821641
vt 0.807594 0.696141
vt 0.813683 0.705889
vt 0.810188 0.707274
vt 0.572985 0.696141
vt 0.589366 0.719293
vt 0.661011 0.833091
vt 0.644889 0.810305
vt 0.345818 0.966686
vt 0.343699 0.963258
vt 0.351970 0.960067
vt 0.345818 0.966686
vt 0.335827 0.966295
vt 0.343699 0.963258
vt 0.335827 0.966295
vt 0.315904 0.978227
vt 0.388241 0.900719
vt 0.345818 0.966686
vt 0.315904 0.978227
vt 0.335827 0.966295
vt 0.335827 0.966295
vt 0.388241 0.900719
vt 0.401773 0.895498
vt 0.749455 0.895498
vt 0.749455 0.895498
vt 0.749455 0.895498
vt 0.749455 0.895498
vt 0.749455 0.895498
vt 0.749455 0.895498
vt 0.749455 0.895498
vt 0.749455 0.895498
vt 0.749455 0.895498
vt 0.749455 0.895498
vt 0.749455 0.895498
vt 0.749455 0.895498
vt 0.749455 0.895498
vt 0.749455 0.895498
vt 0.749455 0.895498
vt 0.749455 0.895498
vt 0.749455 0.895498
vt 0.749455 0.895498
vt 0.848772 0.490159
vt 0.468410 0.649105
vt 0.851804 0.486936
vt 0.851804 0.486936
vt 0.468410 0.649105
vt 0.537243 0.579480
vt 0.912108 0.422830
vt 0.896348 0.470290
vt 0.848772 0.490159
vt 0.851804 0.486936
vt 0.899347 0.467080
vt 0.446623 0.696141
vt 0.502848 0.768807
vt 0.567751 0.872158
vt 0.512340 0.800544
vt 0.005114 0.895498
vt 0.082203 0.996609
vt 0.079322 0.999863
vt 0.002179 0.898682
vt 0.743699 0.896365
vt 0.697846 0.915259
vt 0.694989 0.914406
vt 0.740874 0.895498
vt 0.669599 0.696141
vt 0.771424 0.829278
vt 0.768562 0.832650
vt 0.666667 0.699421
vt 0.760349 0.895498
vt 0.760349 0.895498
vt 0.760349 0.895498
vt 0.760349 0.895498
vt 0.760349 0.895498
vt 0.760349 0.895498
vt 0.760349 0.895498
vt 0.760349 0.895498
vt 0.760349 0.895498
vt 0.760349 0.895498
vt 0.760349 0.895498
vt 0.760349 0.895498
vt 0.760349 0.895498
vt 0.760349 0.895498
vt 0.760349 0.895498
vt 0.760349 0.895498
vt 0.760349 0.895498
vt 0.760349 0.895498
vt 0.760349 0.895498
vn 0.07580196 0.987891 -0.1353713
vn 0.07580196 0.987891 -0.1353713
vn 0.07580196 0.987891 -0.1353713
vn 0.07590239 0.9878709 -0.1354619
vn 0.07590239 0.9878709 -0.1354619
vn 0.07590239 0.9878709 -0.1354619
vn 0 1 0
vn 0 1 0
vn 0 1 0
vn 0 1 0
vn 0 1 0
vn 0 1 0
vn 0 1 0
vn 0 1 0
vn 0 1 0
vn 0 1 0
vn 0 1 0
vn 0 1 0
vn 0 1 0
vn 0 1 0
vn 0 1 0
vn 0 1 0
vn 0 1 0
vn 0 1 0
vn 0 1 0
vn 0 1 0
vn 0 1 0
vn 0 1 0
vn 0 1 0
vn 0 1 0
vn 0 1 0
vn 0 1 0
vn 0 1 0
vn 0 1 0
vn 0 1 0
vn 0 1 0
vn 0 1 0
vn 0 1 0
vn 0 1 0
vn 0 1 0
vn 0 1 0
vn 0 1 0
vn 0 1 0
vn 0 1 0
vn 0 1 0
vn 0 1 0
vn 0 1 0
vn 0 1 0
vn 0 1 0
vn 0 1 0
vn 0 1 0
vn 0 1 0
vn 0 1 0
vn 0 1 0
vn 0 1 0
vn 0 1 0
vn 0 1 0
vn 0 1 0
vn 0 1 0
vn 0 1 0
vn 0 1 0
vn 0 1 0
vn 0 1 0
vn 0 1 0
vn 0 1 0
vn 0 1 0
vn 0 1 0
vn 0 1 0
vn 0 1 0
vn 0 1 0
vn 0 1 0
vn 0 1 0
vn 0.8722743 0 0.489017
vn 0.8722743 0 0.489017
vn 0.8722743 0 0.489017
vn 0.8722743 0 0.489017
vn 0.4888177 0 -0.872386
vn 0.4888177 0 -0.872386
vn 0.4888177 0 -0.872386
vn 0.4888177 0 -0.872386
vn -0.872506 0 -0.4886034
vn -0.872506 0 -0.4886034
vn -0.872506 0 -0.4886034
vn -0.872506 0 -0.4886034
vn 0.5849209 0 -0.8110904
vn 0.5849209 0 -0.8110904
vn 0.5849209 0 -0.8110904
vn 0.5849209 0 -0.8110904
vn -0.8799363 0 -0.4750917
vn -0.8799363 0 -0.4750917
vn -0.8799363 0 -0.4750917
vn -0.8799363 0 -0.4750917
vn -0.4817228 0 0.8763236
vn -0.4817228 0 0.8763236
vn -0.4817228 0 0.8763236
vn -0.4817228 0 0.8763236
vn 0.8570573 0 0.5152211
vn 0.8570573 0 0.5152211
vn 0.8570573 0 0.5152211
vn 0.8570573 0 0.5152211
vn -0.4937045 0 0.8696297
vn -0.4937045 0 0.8696297
vn -0.4937045 0 0.8696297
vn -0.4937045 0 0.8696297
vn -0.4937045 0 0.8696297
vn -0.4937045 0 0.8696297
vn -0.4937045 -3.701393E-11 0.8696297
vn -0.4937045 -3.701393E-11 0.8696297
vn -0.4937045 -3.701393E-11 0.8696297
vn 0.8791603 0 0.476526
vn 0.8791603 0 0.476526
vn 0.8791603 0 0.476526
vn 0.8791603 0 0.476526
vn 0.8724673 0 0.4886726
vn 0.8724673 0 0.4886726
vn 0.8724673 0 0.4886726
vn 0.8724673 0 0.4886726
vn 0.8724673 0 0.4886726
vn 0.8724673 0 0.4886726
vn 0.8724673 0 0.4886726
vn 0.8723623 0 0.48886
vn 0.8723623 0 0.48886
vn 0.8723623 0 0.48886
vn 0.8723623 0 0.48886
vn -0.4572532 0 0.8893365
vn -0.4572532 0 0.8893365
vn -0.4572532 0 0.8893365
vn -0.4572532 0 0.8893365
vn 0.8893761 0 0.4571762
vn 0.8893761 0 0.4571762
vn 0.8893761 0 0.4571762
vn 0.8893761 3.008811E-09 0.4571762
vn 0.8893761 3.930341E-09 0.4571762
vn 0.8893761 4.851871E-09 0.4571762
vn 0.8893761 3.930341E-09 0.4571762
vn 0.8893761 0 0.4571762
vn 0.8893761 0 0.4571762
vn 0.8893761 0 0.4571762
vn 0.8893761 0 0.4571763
vn 0.8893761 0 0.4571763
vn 0.8893761 0 0.4571763
vn 0.4568271 0 -0.8895555
vn 0.4568271 0 -0.8895555
vn 0.4568271 0 -0.8895555
vn 0.4568271 0 -0.8895555
vn -0.8898175 0 -0.4563166
vn -0.8898175 0 -0.4563166
vn -0.8898175 0 -0.4563166
vn -0.8898175 3.996237E-09 -0.4563166
vn -0.8898175 3.996237E-09 -0.4563166
vn -0.8898175 3.996237E-09 -0.4563166
vn -0.8898175 0 -0.4563166
vn -0.8898175 0 -0.4563166
vn -0.8898175 0 -0.4563166
vn -0.8898175 1.917994E-09 -0.4563166
vn -0.8898175 1.917994E-09 -0.4563166
vn -0.8898175 1.917994E-09 -0.4563166
vn -0.8898175 0 -0.4563166
vn -0.8898175 0 -0.4563166
vn -0.8898175 0 -0.4563166
vn 0.4886034 0 -0.872506
vn 0.4886034 0 -0.872506
vn 0.4886034 0 -0.872506
vn 0.4886034 0 -0.872506
vn 0.4886034 0 -0.872506
vn 0.4886034 0 -0.872506
vn 0.4886034 0 -0.872506
vn 0.488749 0 -0.8724244
vn 0.488749 0 -0.8724244
vn 0.488749 0 -0.8724244
vn 0.488749 0 -0.8724244
vn 0.488749 0 -0.8724244
vn 0.488749 0 -0.8724244
vn 0.488749 0 -0.8724244
vn 0.4885741 0 -0.8725224
vn 0.4885741 0 -0.8725224
vn 0.4885741 0 -0.8725224
vn 0.4885741 0 -0.8725224
vn -0.8724536 0 -0.4886969
vn -0.8724536 0 -0.4886969
vn -0.8724536 0 -0.4886969
vn -0.8724536 0 -0.4886969
vn -0.8724536 0 -0.4886969
vn -0.8724536 0 -0.4886969
vn -0.8724536 0 -0.4886969
vn -0.8725758 0 -0.4884787
vn -0.8725758 0 -0.4884787
vn -0.8725758 0 -0.4884787
vn -0.8725758 0 -0.4884787
vn 0.488749 0 -0.8724244
vn 0.488749 0 -0.8724244
vn 0.488749 0 -0.8724244
vn 0.488749 0 -0.8724244
vn -0.4886818 0 0.8724621
vn -0.4886818 0 0.8724621
vn -0.4886818 0 0.8724621
vn -0.4886818 0 0.8724621
vn 0.8722278 0 0.4890997
vn 0.8722278 0 0.4890997
vn 0.8722278 0 0.4890997
vn 0.8722278 0 0.4890997
vn -0.4887609 0 0.8724177
vn -0.4887609 0 0.8724177
vn -0.4887609 0 0.8724177
vn -0.4887609 0 0.8724177
vn 0 -1 0
vn 0 -1 0
vn 0 -1 0
vn 0 -1 0
vn 0 -1 0
vn 0 -1 0
vn 0 -1 0
vn 0 -1 0
vn 0 -1 0
vn 0 -1 0
vn 0 -1 0
vn 0 -1 0
vn 0 -1 0
vn 0 -1 0
vn 0 -1 0
vn 0 -1 0
vn 0 -1 0
vn 0 -1 0
vn 0 -1 0

g CDNNDG01_0000880
f 1/1/1 2/2/2 3/3/3
f 4/4/4 5/5/5 6/6/6
f 7/7/7 8/8/8 9/9/9
f 10/10/10 11/11/11 12/12/12
f 13/13/13 14/14/14 15/15/15
f 16/16/16 17/17/17 18/18/18
f 19/19/19 20/20/20 21/21/21
f 22/22/22 23/23/23 24/24/24
f 25/25/25 26/26/26 27/27/27
f 28/28/28 29/29/29 30/30/30
f 31/31/31 33/33/33 34/34/34
f 31/31/31 32/32/32 33/33/33
f 38/38/38 35/35/35 37/37/37
f 37/37/37 35/35/35 36/36/36
f 42/42/42 39/39/39 40/40/40
f 41/41/41 42/42/42 40/40/40
f 43/43/43 44/44/44 45/45/45
f 46/46/46 47/47/47 48/48/48
f 49/49/49 50/50/50 51/51/51
f 52/52/52 53/53/53 54/54/54
f 55/55/55 56/56/56 57/57/57
f 58/58/58 59/59/59 60/60/60
f 61/61/61 62/62/62 63/63/63
f 64/64/64 65/65/65 66/66/66
f 67/67/67 68/68/68 69/69/69
f 70/70/70 71/71/71 72/72/72
f 73/73/73 75/75/75 76/76/76
f 73/73/73 74/74/74 75/75/75
f 77/77/77 79/79/79 80/80/80
f 77/77/77 78/78/78 79/79/79
f 82/82/82 83/83/83 84/84/84
f 81/81/81 82/82/82 84/84/84
f 87/87/87 85/85/85 86/86/86
f 85/85/85 87/87/87 88/88/88
f 89/89/89 90/90/90 91/91/91
f 92/92/92 89/89/89 91/91/91
f 96/96/96 93/93/93 95/95/95
f 95/95/95 93/93/93 94/94/94
f 98/98/98 99/99/99 97/97/97
f 97/97/97 99/99/99 100/100/100
f 101/101/101 102/102/102 103/103/103
f 104/104/104 105/105/105 106/106/106
f 107/107/107 108/108/108 109/109/109
f 111/111/111 112/112/112 110/110/110
f 110/110/110 112/112/112 113/113/113
f 117/117/117 114/114/114 115/115/115
f 115/115/115 116/116/116 117/117/117
f 118/118/118 119/119/119 120/120/120
f 121/121/121 123/123/123 124/124/124
f 121/121/121 122/122/122 123/123/123
f 128/128/128 125/125/125 127/127/127
f 127/127/127 125/125/125 126/126/126
f 129/129/129 130/130/130 131/131/131
f 132/132/132 133/133/133 135/135/135
f 135/135/135 133/133/133 134/134/134
f 136/136/136 137/137/137 138/138/138
f 139/139/139 140/140/140 141/141/141
f 144/144/144 145/145/145 143/143/143
f 142/142/142 143/143/143 145/145/145
f 146/146/146 147/147/147 148/148/148
f 149/149/149 150/150/150 151/151/151
f 152/152/152 153/153/153 154/154/154
f 155/155/155 156/156/156 157/157/157
f 158/158/158 159/159/159 160/160/160
f 163/163/163 164/164/164 162/162/162
f 161/161/161 162/162/162 164/164/164
f 165/165/165 166/166/166 167/167/167
f 168/168/168 169/169/169 170/170/170
f 171/171/171 173/173/173 174/174/174
f 171/171/171 172/172/172 173/173/173
f 178/178/178 175/175/175 177/177/177
f 176/176/176 177/177/177 175/175/175
f 179/179/179 180/180/180 181/181/181
f 182/182/182 184/184/184 185/185/185
f 184/184/184 182/182/182 183/183/183
f 186/186/186 188/188/188 189/189/189
f 186/186/186 187/187/187 188/188/188
f 190/190/190 192/192/192 193/193/193
f 190/190/190 191/191/191 192/192/192
f 197/197/197 194/194/194 196/196/196
f 196/196/196 194/194/194 195/195/195
f 198/198/198 200/200/200 201/201/201
f 198/198/198 199/199/199 200/200/200
f 205/205/205 202/202/202 204/204/204
f 204/204/204 202/202/202 203/203/203
f 224/224/224 220/220/220 221/221/221
f 219/219/219 217/217/217 218/218/218
f 224/224/224 206/206/206 207/207/207
f 216/216/216 217/217/217 219/219/219
f 207/207/207 210/210/210 224/224/224
f 209/209/209 210/210/210 208/208/208
f 216/216/216 219/219/219 214/214/214
f 210/210/210 207/207/207 208/208/208
f 216/216/216 214/214/214 215/215/215
f 213/213/213 211/211/211 212/212/212
f 214/214/214 219/219/219 211/211/211
f 214/214/214 211/211/211 213/213/213
f 224/224/224 221/221/221 222/222/222
f 220/220/220 211/211/211 219/219/219
f 210/210/210 211/211/211 220/220/220
f 224/224/224 210/210/210 220/220/220
f 223/223/223 224/224/224 222/222/222
