v -4.283541 5.66139 4.005462
v -0.9365408 5.66139 7.538462
v -0.6505408 5.66139 7.084462
v -4.533541 5.66139 3.847462
v -4.283541 5.66139 4.005462
v -3.196541 5.66139 1.729462
v -4.283541 5.66139 4.005462
v -0.6505408 5.66139 7.084462
v -2.240541 5.66139 2.333462
v -6.965541 5.66139 8.252461
v -2.977541 5.66139 10.77046
v -0.9365408 5.66139 7.538462
v -4.283541 5.66139 4.005462
v -4.283541 5.66139 4.005462
v -2.240541 5.66139 2.333462
v -3.196541 5.66139 1.729462
v -0.8105408 5.66139 0.07046187
v -0.6505408 5.66139 7.084462
v 7.027459 5.66139 -5.073538
v 3.968459 5.66139 -7.085538
v 7.027459 5.66139 -5.073538
v 7.063459 5.66139 -5.131538
v -0.8105408 5.66139 0.07046187
v 7.027459 5.66139 -5.073538
v 3.968459 5.66139 -7.085538
v 0.6004592 5.66139 -8.959538
v 3.968459 5.66139 -7.085538
v 4.276459 5.66139 -7.573538
v 1.022459 5.66139 -9.628538
v -2.240541 5.66139 2.333462
v -0.6505408 5.66139 7.084462
v -0.8105408 5.66139 0.07046187
v -1.331541 5.66139 -6.117538
v 3.968459 5.66139 -7.085538
v 0.6004592 5.66139 -8.959538
v -1.331541 5.66139 -6.117538
v 0.6004592 5.66139 -8.959538
v 0.5024592 5.66139 -9.021538
v -3.976541 5.66139 -1.928538
v -0.8105408 5.66139 0.07046187
v -1.831541 5.66139 -5.324538
v -0.9949215 5.66139 -5.578553
v 3.968459 5.66139 -7.085538
v -0.8475408 5.66139 -5.811538
v -1.331541 5.66139 -6.117538
v -0.8475408 5.66139 -5.811538
v 3.968459 5.66139 -7.085538
v -1.348541 5.66139 -5.019538
v 3.968459 5.66139 -7.085538
v -0.9949215 5.66139 -5.578553
v -1.831541 5.66139 -5.324538
v -0.8105408 5.66139 0.07046187
v -1.348541 5.66139 -5.019538
v -1.348541 5.66139 -5.019538
v -0.8105408 5.66139 0.07046187
v 3.968459 5.66139 -7.085538
v -1.348541 6.39739 -5.019538
v -0.8475408 6.39739 -5.811538
v -1.331541 6.39739 -6.117538
v -1.831541 6.39739 -5.324538
v -2.240541 5.66139 2.333462
v -0.8105408 5.66139 0.07046187
v -0.8105408 -5.665061 0.07046187
v -2.240541 -5.665061 2.333462
v -3.196541 5.66139 1.729462
v -2.240541 5.66139 2.333462
v -2.240541 -5.665061 2.333462
v -3.196541 -5.665061 1.729462
v -4.533541 5.66139 3.847462
v -3.196541 5.66139 1.729462
v -3.196541 -5.665061 1.729462
v -4.533541 -5.665061 3.847462
v -4.533541 -5.665061 3.847462
v -4.283541 -5.665061 4.005462
v -4.283541 5.66139 4.005462
v -4.533541 5.66139 3.847462
v -6.965541 5.66139 8.252461
v -4.283541 5.66139 4.005462
v -4.283541 -5.665061 4.005462
v -6.965541 -5.665061 8.252461
v -6.965541 -5.665061 8.252461
v -2.977541 -5.665061 10.77046
v -2.977541 5.66139 10.77046
v -6.965541 5.66139 8.252461
v -2.977541 -5.665061 10.77046
v -0.9365408 -5.665061 7.538462
v -0.9365408 5.66139 7.538462
v -2.977541 5.66139 10.77046
v -0.7935408 -5.665061 7.311462
v -0.6505408 -5.665061 7.084462
v -0.6505408 5.66139 7.084462
v -0.9365408 5.66139 7.538462
v -0.9365408 -5.665061 7.538462
v -0.7935408 -5.665061 7.311462
v -0.9365408 5.66139 7.538462
v -0.7935408 -5.665061 7.311462
v -0.6505408 5.66139 7.084462
v 3.188459 -5.665061 1.005462
v 7.027459 -5.665061 -5.073538
v 7.027459 5.66139 -5.073538
v -0.6505408 5.66139 7.084462
v -0.6505408 -5.665061 7.084462
v 3.188459 -5.665061 1.005462
v -0.6505408 5.66139 7.084462
v 3.188459 -5.665061 1.005462
v 7.027459 5.66139 -5.073538
v 7.027459 -5.665061 -5.073538
v 7.063459 -5.665061 -5.131538
v 7.063459 5.66139 -5.131538
v 7.027459 5.66139 -5.073538
v 3.968459 5.66139 -7.085538
v 7.063459 5.66139 -5.131538
v 7.063459 -5.665061 -5.131538
v 3.968459 -5.665061 -7.085538
v 3.968459 -5.665061 -7.085538
v 4.276459 -5.665061 -7.573538
v 4.276459 5.66139 -7.573538
v 3.968459 5.66139 -7.085538
v 1.022459 5.66139 -9.628538
v 4.276459 5.66139 -7.573538
v 4.276459 -5.665061 -7.573538
v 1.022459 -5.665061 -9.628538
v 0.6004592 5.66139 -8.959538
v 1.022459 5.66139 -9.628538
v 1.022459 -5.665061 -9.628538
v 0.6004592 -5.665061 -8.959538
v 0.5024592 5.66139 -9.021538
v 0.6004592 5.66139 -8.959538
v 0.6004592 -5.665061 -8.959538
v 0.5024592 -5.665061 -9.021538
v -1.331541 5.66139 -6.117538
v -0.4145408 -5.665061 -7.569538
v -1.331541 -5.665061 -6.117538
v -0.4145408 -5.665061 -7.569538
v 0.5024592 5.66139 -9.021538
v 0.5024592 -5.665061 -9.021538
v -1.331541 5.66139 -6.117538
v 0.5024592 5.66139 -9.021538
v -0.4145408 -5.665061 -7.569538
v -1.831541 5.66139 -5.324538
v -1.331541 5.66139 -6.117538
v -1.331541 -5.665061 -6.117538
v -1.831541 -5.665061 -5.324538
v -3.976541 5.66139 -1.928538
v -1.831541 5.66139 -5.324538
v -1.831541 -5.665061 -5.324538
v -3.976541 -5.665061 -1.928538
v -1.831541 6.39739 -5.324538
v -1.331541 6.39739 -6.117538
v -1.331541 5.66139 -6.117538
v -1.831541 5.66139 -5.324538
v -2.393541 -5.665061 -0.9290381
v -0.8105408 -5.665061 0.07046187
v -0.8105408 5.66139 0.07046187
v -3.976541 5.66139 -1.928538
v -3.976541 -5.665061 -1.928538
v -2.393541 -5.665061 -0.9290381
v -3.976541 5.66139 -1.928538
v -2.393541 -5.665061 -0.9290381
v -0.8105408 5.66139 0.07046187
v -0.9949215 5.66139 -5.578553
v -0.8475408 5.66139 -5.811538
v -0.8475408 6.39739 -5.811538
v -1.348541 5.66139 -5.019538
v -0.9949215 5.66139 -5.578553
v -0.8475408 6.39739 -5.811538
v -1.348541 6.39739 -5.019538
v -1.331541 6.39739 -6.117538
v -0.8475408 6.39739 -5.811538
v -0.8475408 5.66139 -5.811538
v -1.331541 5.66139 -6.117538
v -1.831541 5.66139 -5.324538
v -1.348541 5.66139 -5.019538
v -1.348541 6.39739 -5.019538
v -1.831541 6.39739 -5.324538
v -0.8105408 -5.665061 0.07046187
v -2.393541 -5.665061 -0.9290381
v -3.976541 -5.665061 -1.928538
v -1.831541 -5.665061 -5.324538
v -1.331541 -5.665061 -6.117538
v -0.4145408 -5.665061 -7.569538
v 0.5024592 -5.665061 -9.021538
v 0.6004592 -5.665061 -8.959538
v 1.022459 -5.665061 -9.628538
v 4.276459 -5.665061 -7.573538
v 3.968459 -5.665061 -7.085538
v 7.063459 -5.665061 -5.131538
v 7.027459 -5.665061 -5.073538
v 3.188459 -5.665061 1.005462
v -0.6505408 -5.665061 7.084462
v -0.7935408 -5.665061 7.311462
v -0.9365408 -5.665061 7.538462
v -2.977541 -5.665061 10.77046
v -6.965541 -5.665061 8.252461
v -4.283541 -5.665061 4.005462
v -4.533541 -5.665061 3.847462
v -3.196541 -5.665061 1.729462
v -2.240541 -5.665061 2.333462
vt 0.241196 0.293536
vt 0.119180 0.202558
vt 0.135632 0.195372
vt 0.246544 0.300249
vt 0.241196 0.293536
vt 0.323300 0.266655
vt 0.241196 0.293536
vt 0.135632 0.195372
vt 0.302855 0.240984
vt 0.087289 0.360926
vt 0.002053 0.253843
vt 0.119180 0.202558
vt 0.241196 0.293536
vt 0.241196 0.293536
vt 0.302855 0.240984
vt 0.323300 0.266655
vt 0.384869 0.205051
vt 0.135632 0.195372
vt 0.576262 0.002428
vt 0.644499 0.084639
vt 0.576262 0.002428
vt 0.578363 0.001524
vt 0.384869 0.205051
vt 0.576262 0.002428
vt 0.644499 0.084639
vt 0.707491 0.174885
vt 0.644499 0.084639
vt 0.662185 0.076900
vt 0.731737 0.164282
vt 0.302855 0.240984
vt 0.135632 0.195372
vt 0.384869 0.205051
vt 0.604343 0.223602
vt 0.644499 0.084639
vt 0.707491 0.174885
vt 0.604343 0.223602
vt 0.707491 0.174885
vt 0.709590 0.177517
vt 0.452529 0.290064
vt 0.384869 0.205051
vt 0.575604 0.236165
vt 0.585541 0.214309
vt 0.644499 0.084639
vt 0.593985 0.210605
vt 0.604343 0.223602
vt 0.593985 0.210605
vt 0.644499 0.084639
vt 0.565281 0.223195
vt 0.644499 0.084639
vt 0.585541 0.214309
vt 0.575604 0.236165
vt 0.384869 0.205051
vt 0.565281 0.223195
vt 0.565281 0.223195
vt 0.384869 0.205051
vt 0.644499 0.084639
vt 0.556468 0.899106
vt 0.583839 0.887195
vt 0.593715 0.899491
vt 0.566311 0.911375
vt 0.845675 0.740743
vt 0.926121 0.702744
vt 0.863709 0.779981
vt 0.784394 0.817444
vt 0.082773 0.999692
vt 0.062913 0.974420
vt 0.002053 0.887195
vt 0.021639 0.912118
vt 0.148781 0.922709
vt 0.224024 0.887195
vt 0.162480 0.963514
vt 0.088296 0.998528
vt 0.492115 0.969217
vt 0.486653 0.962734
vt 0.546103 0.887195
vt 0.551643 0.893770
vt 0.627374 0.774208
vt 0.779025 0.702744
vt 0.718306 0.778897
vt 0.568789 0.849355
vt 0.090603 0.883972
vt 0.002053 0.779524
vt 0.059136 0.702744
vt 0.148947 0.808683
vt 0.002053 0.610941
vt 0.116891 0.560815
vt 0.176548 0.648290
vt 0.060100 0.699118
vt 0.124957 0.557304
vt 0.133022 0.553792
vt 0.192905 0.641169
vt 0.176548 0.648290
vt 0.116891 0.560815
vt 0.124957 0.557304
vt 0.176548 0.648290
vt 0.124957 0.557304
vt 0.192905 0.641169
vt 0.349026 0.459504
vt 0.565038 0.365213
vt 0.630979 0.449950
vt 0.192905 0.641169
vt 0.133022 0.553792
vt 0.349026 0.459504
vt 0.192905 0.641169
vt 0.349026 0.459504
vt 0.630979 0.449950
vt 0.565038 0.365213
vt 0.567099 0.364329
vt 0.633069 0.449054
vt 0.630979 0.449950
vt 0.423638 0.869269
vt 0.358801 0.787087
vt 0.293635 0.702744
vt 0.357577 0.783791
vt 0.229979 0.894672
vt 0.246962 0.887195
vt 0.312696 0.971954
vt 0.295475 0.979535
vt 0.288556 0.874559
vt 0.220336 0.788137
vt 0.154004 0.702744
vt 0.221281 0.787973
vt 0.458574 0.898367
vt 0.482161 0.887195
vt 0.415453 0.964833
vt 0.392197 0.975848
vt 0.386322 0.975817
vt 0.384292 0.973235
vt 0.318275 0.887195
vt 0.320277 0.889742
vt 0.852585 0.413326
vt 0.837857 0.466634
vt 0.786568 0.490787
vt 0.837857 0.466634
vt 0.956627 0.364329
vt 0.889146 0.442480
vt 0.852585 0.413326
vt 0.956627 0.364329
vt 0.837857 0.466634
vt 0.824175 0.426683
vt 0.852585 0.413326
vt 0.786568 0.490787
vt 0.758557 0.503957
vt 0.702510 0.483986
vt 0.824175 0.426683
vt 0.758557 0.503957
vt 0.638604 0.560453
vt 0.828503 0.421586
vt 0.856940 0.408216
vt 0.852585 0.413326
vt 0.824175 0.426683
vt 0.464261 0.821685
vt 0.429158 0.780266
vt 0.491517 0.702744
vt 0.562722 0.786764
vt 0.499363 0.863103
vt 0.464261 0.821685
vt 0.562722 0.786764
vt 0.464261 0.821685
vt 0.491517 0.702744
vt 0.637089 0.890599
vt 0.645016 0.887195
vt 0.649137 0.892552
vt 0.618070 0.898765
vt 0.637089 0.890599
vt 0.649137 0.892552
vt 0.622166 0.904132
vt 0.612453 0.904533
vt 0.603421 0.892552
vt 0.599589 0.887195
vt 0.608613 0.899166
vt 0.664681 0.903776
vt 0.655031 0.891915
vt 0.658834 0.887195
vt 0.668493 0.899067
vt 0.673511 0.887195
vt 0.673511 0.887195
vt 0.673511 0.887195
vt 0.673511 0.887195
vt 0.673511 0.887195
vt 0.673511 0.887195
vt 0.673511 0.887195
vt 0.673511 0.887195
vt 0.673511 0.887195
vt 0.673511 0.887195
vt 0.673511 0.887195
vt 0.673511 0.887195
vt 0.673511 0.887195
vt 0.673511 0.887195
vt 0.673511 0.887195
vt 0.673511 0.887195
vt 0.673511 0.887195
vt 0.673511 0.887195
vt 0.673511 0.887195
vt 0.673511 0.887195
vt 0.673511 0.887195
vt 0.673511 0.887195
vt 0.673511 0.887195
vn 0 1 0
vn 0 1 0
vn 0 1 0
vn 0 1 0
vn 0 1 0
vn 0 1 0
vn 0 1 0
vn 0 1 0
vn 0 1 0
vn 0 1 0
vn 0 1 0
vn 0 1 0
vn 0 1 0
vn 0 1 0
vn 0 1 0
vn 0 1 0
vn 0 1 0
vn 0 1 0
vn 0 1 0
vn 0 1 0
vn 0 1 0
vn 0 1 0
vn 0 1 0
vn 0 1 0
vn 0 1 0
vn 0 1 0
vn 0 1 0
vn 0 1 0
vn 0 1 0
vn 0 1 0
vn 0 1 0
vn 0 1 0
vn 0 1 0
vn 0 1 0
vn 0 1 0
vn 0 1 0
vn 0 1 0
vn 0 1 0
vn 0 1 0
vn 0 1 0
vn 0 1 0
vn 0 1 0
vn 0 1 0
vn 0 1 0
vn 0 1 0
vn 0 1 0
vn 0 1 0
vn 0 1 0
vn 0 1 0
vn 0 1 0
vn 0 1 0
vn 0 1 0
vn 0 1 0
vn 0 1 0
vn 0 1 0
vn 0 1 0
vn 0 1 0
vn 0 1 0
vn 0 1 0
vn 0 1 0
vn -0.8453646 0 -0.5341898
vn -0.8453646 0 -0.5341898
vn -0.8453646 0 -0.5341898
vn -0.8453646 0 -0.5341898
vn 0.534126 0 -0.8454049
vn 0.534126 0 -0.8454049
vn 0.534126 0 -0.8454049
vn 0.534126 0 -0.8454049
vn -0.8456122 0 -0.5337977
vn -0.8456122 0 -0.5337977
vn -0.8456122 0 -0.5337977
vn -0.8456122 0 -0.5337977
vn -0.5342474 0 0.8453282
vn -0.5342474 0 0.8453282
vn -0.5342474 0 0.8453282
vn -0.5342474 0 0.8453282
vn -0.8455173 0 -0.5339481
vn -0.8455173 0 -0.5339481
vn -0.8455173 0 -0.5339481
vn -0.8455173 0 -0.5339481
vn -0.5338813 0 0.8455594
vn -0.5338813 0 0.8455594
vn -0.5338813 0 0.8455594
vn -0.5338813 0 0.8455594
vn 0.84552 0 0.5339438
vn 0.84552 0 0.5339438
vn 0.84552 0 0.5339438
vn 0.84552 0 0.5339438
vn 0.8461083 0 0.533011
vn 0.8461083 0 0.533011
vn 0.8461083 0 0.533011
vn 0.8461083 0 0.533011
vn 0.8461083 0 0.533011
vn 0.8461083 0 0.533011
vn 0.8461083 2.174114E-12 0.533011
vn 0.8461083 2.174114E-12 0.533011
vn 0.8461083 2.174114E-12 0.533011
vn 0.845512 0 0.5339563
vn 0.845512 0 0.5339563
vn 0.845512 0 0.5339563
vn 0.845512 0 0.5339563
vn 0.845512 0 0.5339563
vn 0.845512 0 0.5339563
vn 0.845512 -2.172574E-12 0.5339563
vn 0.845512 -2.172574E-12 0.5339563
vn 0.845512 -2.172574E-12 0.5339563
vn 0.8496402 0 0.5273629
vn 0.8496402 0 0.5273629
vn 0.8496402 0 0.5273629
vn 0.8496402 0 0.5273629
vn 0.5338491 0 -0.8455798
vn 0.5338491 0 -0.8455798
vn 0.5338491 0 -0.8455798
vn 0.5338491 0 -0.8455798
vn 0.8456536 0 0.5337322
vn 0.8456536 0 0.5337322
vn 0.8456536 0 0.5337322
vn 0.8456536 0 0.5337322
vn 0.5339637 0 -0.8455074
vn 0.5339637 0 -0.8455074
vn 0.5339637 0 -0.8455074
vn 0.5339637 0 -0.8455074
vn -0.8457892 0 -0.5335172
vn -0.8457892 0 -0.5335172
vn -0.8457892 0 -0.5335172
vn -0.8457892 0 -0.5335172
vn 0.5346417 0 -0.8450788
vn 0.5346417 0 -0.8450788
vn 0.5346417 0 -0.8450788
vn 0.5346417 0 -0.8450788
vn -0.8455027 0 -0.5339711
vn -0.8455027 0 -0.5339711
vn -0.8455027 0 -0.5339711
vn -0.8455027 0 -0.5339711
vn -0.8455027 0 -0.5339711
vn -0.8455027 0 -0.5339711
vn -0.8455027 2.172563E-12 -0.5339711
vn -0.8455027 2.172563E-12 -0.5339711
vn -0.8455027 2.172563E-12 -0.5339711
vn -0.8458942 0 -0.5333507
vn -0.8458942 0 -0.5333507
vn -0.8458942 0 -0.5333507
vn -0.8458942 0 -0.5333507
vn -0.8454711 0 -0.5340211
vn -0.8454711 0 -0.5340211
vn -0.8454711 0 -0.5340211
vn -0.8454711 0 -0.5340211
vn -0.8458942 0 -0.5333507
vn -0.8458942 0 -0.5333507
vn -0.8458942 0 -0.5333507
vn -0.8458942 0 -0.5333507
vn -0.5338824 0 0.8455587
vn -0.5338824 0 0.8455587
vn -0.5338824 0 0.8455587
vn -0.5338824 0 0.8455587
vn -0.5338824 0 0.8455587
vn -0.5338824 0 0.8455587
vn -0.5338824 1.37183E-12 0.8455587
vn -0.5338824 1.37183E-12 0.8455587
vn -0.5338824 1.37183E-12 0.8455587
vn 0.8451083 0 0.5345951
vn 0.8451083 0 0.5345951
vn 0.8451083 0 0.5345951
vn 0.8451083 0 0.5345951
vn 0.8451083 -1.579824E-09 0.5345951
vn 0.8451083 -3.159648E-09 0.5345951
vn 0.8451083 -1.579824E-09 0.5345951
vn 0.5343872 0 -0.8452398
vn 0.5343872 0 -0.8452398
vn 0.5343872 0 -0.8452398
vn 0.5343872 0 -0.8452398
vn -0.5339271 0 0.8455305
vn -0.5339271 0 0.8455305
vn -0.5339271 0 0.8455305
vn -0.5339271 0 0.8455305
vn 0 -1 0
vn 0 -1 0
vn 0 -1 0
vn 0 -1 0
vn 0 -1 0
vn 0 -1 0
vn 0 -1 0
vn 0 -1 0
vn 0 -1 0
vn 0 -1 0
vn 0 -1 0
vn 0 -1 0
vn 0 -1 0
vn 0 -1 0
vn 0 -1 0
vn 0 -1 0
vn 0 -1 0
vn 0 -1 0
vn 0 -1 0
vn 0 -1 0
vn 0 -1 0
vn 0 -1 0
vn 0 -1 0

g CDNNDG02_0014430
f 1/1/1 2/2/2 3/3/3
f 4/4/4 5/5/5 6/6/6
f 7/7/7 8/8/8 9/9/9
f 10/10/10 12/12/12 13/13/13
f 12/12/12 10/10/10 11/11/11
f 14/14/14 15/15/15 16/16/16
f 17/17/17 18/18/18 19/19/19
f 20/20/20 21/21/21 22/22/22
f 23/23/23 24/24/24 25/25/25
f 29/29/29 26/26/26 27/27/27
f 28/28/28 29/29/29 27/27/27
f 30/30/30 31/31/31 32/32/32
f 33/33/33 34/34/34 35/35/35
f 36/36/36 37/37/37 38/38/38
f 39/39/39 40/40/40 41/41/41
f 42/42/42 43/43/43 44/44/44
f 45/45/45 46/46/46 47/47/47
f 48/48/48 49/49/49 50/50/50
f 51/51/51 52/52/52 53/53/53
f 54/54/54 55/55/55 56/56/56
f 58/58/58 59/59/59 60/60/60
f 57/57/57 58/58/58 60/60/60
f 61/61/61 62/62/62 63/63/63
f 64/64/64 61/61/61 63/63/63
f 67/67/67 65/65/65 66/66/66
f 65/65/65 67/67/67 68/68/68
f 72/72/72 70/70/70 71/71/71
f 72/72/72 69/69/69 70/70/70
f 76/76/76 73/73/73 75/75/75
f 75/75/75 73/73/73 74/74/74
f 77/77/77 79/79/79 80/80/80
f 77/77/77 78/78/78 79/79/79
f 84/84/84 81/81/81 83/83/83
f 83/83/83 81/81/81 82/82/82
f 85/85/85 87/87/87 88/88/88
f 85/85/85 86/86/86 87/87/87
f 89/89/89 90/90/90 91/91/91
f 92/92/92 93/93/93 94/94/94
f 95/95/95 96/96/96 97/97/97
f 98/98/98 99/99/99 100/100/100
f 101/101/101 102/102/102 103/103/103
f 104/104/104 105/105/105 106/106/106
f 107/107/107 109/109/109 110/110/110
f 107/107/107 108/108/108 109/109/109
f 113/113/113 111/111/111 112/112/112
f 111/111/111 113/113/113 114/114/114
f 116/116/116 117/117/117 115/115/115
f 115/115/115 117/117/117 118/118/118
f 121/121/121 119/119/119 120/120/120
f 119/119/119 121/121/121 122/122/122
f 123/123/123 125/125/125 126/126/126
f 123/123/123 124/124/124 125/125/125
f 129/129/129 127/127/127 128/128/128
f 127/127/127 129/129/129 130/130/130
f 131/131/131 132/132/132 133/133/133
f 134/134/134 135/135/135 136/136/136
f 137/137/137 138/138/138 139/139/139
f 140/140/140 142/142/142 143/143/143
f 140/140/140 141/141/141 142/142/142
f 144/144/144 145/145/145 146/146/146
f 147/147/147 144/144/144 146/146/146
f 148/148/148 150/150/150 151/151/151
f 148/148/148 149/149/149 150/150/150
f 152/152/152 153/153/153 154/154/154
f 155/155/155 156/156/156 157/157/157
f 158/158/158 159/159/159 160/160/160
f 161/161/161 162/162/162 163/163/163
f 167/167/167 164/164/164 165/165/165
f 165/165/165 166/166/166 167/167/167
f 171/171/171 168/168/168 169/169/169
f 169/169/169 170/170/170 171/171/171
f 173/173/173 174/174/174 175/175/175
f 175/175/175 172/172/172 173/173/173
f 198/198/198 190/190/190 195/195/195
f 192/192/192 194/194/194 195/195/195
f 195/195/195 197/197/197 198/198/198
f 177/177/177 179/179/179 176/176/176
f 191/191/191 192/192/192 195/195/195
f 178/178/178 179/179/179 177/177/177
f 179/179/179 180/180/180 186/186/186
f 186/186/186 181/181/181 183/183/183
f 198/198/198 176/176/176 189/189/189
f 181/181/181 182/182/182 183/183/183
f 197/197/197 195/195/195 196/196/196
f 186/186/186 184/184/184 185/185/185
f 183/183/183 184/184/184 186/186/186
f 181/181/181 186/186/186 180/180/180
f 186/186/186 176/176/176 179/179/179
f 186/186/186 187/187/187 188/188/188
f 192/192/192 193/193/193 194/194/194
f 188/188/188 189/189/189 186/186/186
f 189/189/189 176/176/176 186/186/186
f 190/190/190 198/198/198 189/189/189
f 195/195/195 190/190/190 191/191/191
