v 4.770458 7.176579 -2.111906
v 6.790458 7.176579 -5.292906
v 6.721457 7.176579 -5.336906
v -1.331542 7.176579 8.249094
v -1.000542 7.176579 8.459094
v 4.747458 7.176579 -0.5899062
v -4.296542 7.176579 6.640094
v 3.393458 7.176579 -1.449906
v -0.2375423 7.176579 -3.961906
v -7.474542 7.176579 4.622094
v -1.331542 7.176579 8.249094
v 4.747458 7.176579 -0.5899062
v 3.393458 7.176579 -1.449906
v 3.462458 7.176579 -7.405906
v 4.770458 7.176579 -2.111906
v 6.721457 7.176579 -5.336906
v -4.296542 7.176579 6.640094
v -4.016542 7.176579 7.813094
v -1.331542 7.176579 8.249094
v 3.393458 7.176579 -1.449906
v 4.770458 7.176579 -2.111906
v 3.462458 7.176579 -7.405906
v -0.2375423 7.176579 -3.961906
v -4.016542 7.176579 7.813094
v -2.566542 7.176579 8.735094
v -1.331542 7.176579 8.249094
v -0.4155423 7.176579 -4.884906
v 3.462458 7.176579 -7.405906
v 1.840458 7.176579 -8.435906
v -0.4155423 7.176579 -4.884906
v -0.2375423 7.176579 -3.961906
v 3.462458 7.176579 -7.405906
v -7.474542 7.176579 4.622094
v -0.2375423 7.176579 -3.961906
v -1.509542 7.176579 -4.768906
v -4.296542 7.176579 6.640094
v -1.331542 7.176579 8.249094
v 3.393458 7.176579 -1.449906
v 3.462458 6.764579 -7.405906
v 6.721457 6.764579 -5.336906
v 4.326458 6.453578 -8.764906
v 4.326458 6.453578 -8.764906
v 6.721457 6.764579 -5.336906
v 7.584458 6.453578 -6.695906
v -4.016542 -7.148243 7.813094
v -2.566542 -7.148243 8.735094
v -2.566542 7.176579 8.735094
v -4.016542 7.176579 7.813094
v -2.566542 -7.148243 8.735094
v -1.331542 -7.148243 8.249094
v -1.331542 7.176579 8.249094
v -2.566542 7.176579 8.735094
v -1.331542 -7.148243 8.249094
v -1.000542 -7.148243 8.459094
v -1.000542 7.176579 8.459094
v -1.331542 7.176579 8.249094
v -1.000542 -7.148243 8.459094
v 4.747458 -7.148243 -0.5899062
v 4.747458 7.176579 -0.5899062
v -1.000542 7.176579 8.459094
v 3.393458 7.176579 -1.449906
v 4.747458 7.176579 -0.5899062
v 4.747458 -7.148243 -0.5899062
v 3.393458 -7.148243 -1.449906
v 4.081958 -7.148243 -1.780906
v 4.770458 -7.148243 -2.111906
v 4.770458 7.176579 -2.111906
v 3.393458 7.176579 -1.449906
v 3.393458 -7.148243 -1.449906
v 4.081958 -7.148243 -1.780906
v 3.393458 7.176579 -1.449906
v 4.081958 -7.148243 -1.780906
v 4.770458 7.176579 -2.111906
v 5.780457 -7.148243 -3.702406
v 6.790458 -7.148243 -5.292906
v 6.790458 7.176579 -5.292906
v 4.770458 7.176579 -2.111906
v 4.770458 -7.148243 -2.111906
v 5.780457 -7.148243 -3.702406
v 4.770458 7.176579 -2.111906
v 5.780457 -7.148243 -3.702406
v 6.790458 7.176579 -5.292906
v 6.721457 7.176579 -5.336906
v 6.790458 7.176579 -5.292906
v 6.721457 6.764579 -5.336906
v 6.721457 6.764579 -5.336906
v 6.790458 7.176579 -5.292906
v 6.790458 -7.148243 -5.292906
v 6.721457 -7.148243 -5.336906
v 3.462458 7.176579 -7.405906
v 6.721457 7.176579 -5.336906
v 6.721457 6.764579 -5.336906
v 3.462458 6.764579 -7.405906
v 1.840458 7.176579 -8.435906
v 3.462458 6.764579 -7.405906
v 3.462458 -7.148243 -7.405906
v 1.840458 -7.148243 -8.435906
v 1.840458 7.176579 -8.435906
v 3.462458 7.176579 -7.405906
v 3.462458 6.764579 -7.405906
v -0.4155423 7.176579 -4.884906
v 1.840458 7.176579 -8.435906
v 1.840458 -7.148243 -8.435906
v -0.4155423 -7.148243 -4.884906
v -0.4155423 -7.148243 -4.884906
v -0.2375423 -7.148243 -3.961906
v -0.2375423 7.176579 -3.961906
v -0.4155423 7.176579 -4.884906
v -1.509542 7.176579 -4.768906
v -0.2375423 7.176579 -3.961906
v -0.2375423 -7.148243 -3.961906
v -1.509542 -7.148243 -4.768906
v -7.474542 7.176579 4.622094
v -1.509542 7.176579 -4.768906
v -1.509542 -7.148243 -4.768906
v -7.474542 -7.148243 4.622094
v -7.474542 -7.148243 4.622094
v -4.296542 -7.148243 6.640094
v -4.296542 7.176579 6.640094
v -7.474542 7.176579 4.622094
v -4.296542 -7.148243 6.640094
v -4.016542 -7.148243 7.813094
v -4.016542 7.176579 7.813094
v -4.296542 7.176579 6.640094
v 7.152958 -7.148243 -6.016406
v 7.584458 -7.148243 -6.695906
v 7.584458 6.453578 -6.695906
v 6.721457 6.764579 -5.336906
v 6.721457 -7.148243 -5.336906
v 7.152958 -7.148243 -6.016406
v 6.721457 6.764579 -5.336906
v 7.152958 -7.148243 -6.016406
v 7.584458 6.453578 -6.695906
v 4.326458 6.453578 -8.764906
v 5.955458 -7.148243 -7.730406
v 4.326458 -7.148243 -8.764906
v 5.955458 -7.148243 -7.730406
v 7.584458 6.453578 -6.695906
v 7.584458 -7.148243 -6.695906
v 4.326458 6.453578 -8.764906
v 7.584458 6.453578 -6.695906
v 5.955458 -7.148243 -7.730406
v 3.462458 6.764579 -7.405906
v 4.326458 6.453578 -8.764906
v 4.326458 -7.148243 -8.764906
v 3.462458 -7.148243 -7.405906
v -4.016542 -7.148243 7.813094
v -4.296542 -7.148243 6.640094
v -7.474542 -7.148243 4.622094
v -1.509542 -7.148243 -4.768906
v -0.2375423 -7.148243 -3.961906
v -0.4155423 -7.148243 -4.884906
v 1.840458 -7.148243 -8.435906
v 3.462458 -7.148243 -7.405906
v 4.326458 -7.148243 -8.764906
v 5.955458 -7.148243 -7.730406
v 7.584458 -7.148243 -6.695906
v 7.152958 -7.148243 -6.016406
v 6.721457 -7.148243 -5.336906
v 6.790458 -7.148243 -5.292906
v 5.780457 -7.148243 -3.702406
v 4.770458 -7.148243 -2.111906
v 4.081958 -7.148243 -1.780906
v 3.393458 -7.148243 -1.449906
v 4.747458 -7.148243 -0.5899062
v -1.000542 -7.148243 8.459094
v -1.331542 -7.148243 8.249094
v -2.566542 -7.148243 8.735094
vt 0.460153 0.063487
vt 0.594412 0.001733
vt 0.596277 0.003832
vt 0.022843 0.250070
vt 0.013945 0.240001
vt 0.395846 0.064289
vt 0.091050 0.340286
vt 0.432284 0.105482
vt 0.538688 0.215933
vt 0.176550 0.436959
vt 0.022843 0.250070
vt 0.395846 0.064289
vt 0.432284 0.105482
vt 0.683935 0.102984
vt 0.460153 0.063487
vt 0.596277 0.003832
vt 0.091050 0.340286
vt 0.041469 0.331834
vt 0.022843 0.250070
vt 0.432284 0.105482
vt 0.460153 0.063487
vt 0.683935 0.102984
vt 0.538688 0.215933
vt 0.041469 0.331834
vt 0.002404 0.287724
vt 0.022843 0.250070
vt 0.577699 0.221294
vt 0.683935 0.102984
vt 0.727572 0.152331
vt 0.577699 0.221294
vt 0.538688 0.215933
vt 0.683935 0.102984
vt 0.176550 0.436959
vt 0.538688 0.215933
vt 0.572878 0.254629
vt 0.091050 0.340286
vt 0.022843 0.250070
vt 0.432284 0.105482
vt 0.509031 0.800561
vt 0.427885 0.701776
vt 0.565032 0.774628
vt 0.565032 0.774628
vt 0.427885 0.701776
vt 0.483917 0.675910
vt 0.328122 0.987858
vt 0.290865 0.945152
vt 0.324281 0.894281
vt 0.362212 0.937760
vt 0.233173 0.929880
vt 0.253755 0.894281
vt 0.285826 0.961153
vt 0.264876 0.997389
vt 0.585230 0.955184
vt 0.576923 0.945523
vt 0.609830 0.894281
vt 0.618288 0.904117
vt 0.442308 0.603232
vt 0.819620 0.441941
vt 0.859564 0.506356
vt 0.475499 0.670530
vt 0.074505 0.999099
vt 0.041281 0.958137
vt 0.002404 0.894281
vt 0.035044 0.934523
vt 0.172641 0.914082
vt 0.186629 0.894281
vt 0.226547 0.958148
vt 0.198071 0.998458
vt 0.158654 0.933883
vt 0.172641 0.914082
vt 0.198071 0.998458
vt 0.172641 0.914082
vt 0.226547 0.958148
vt 0.837436 0.704064
vt 0.903237 0.675910
vt 0.946329 0.738903
vt 0.812371 0.796219
vt 0.771635 0.732219
vt 0.837436 0.704064
vt 0.812371 0.796219
vt 0.837436 0.704064
vt 0.946329 0.738903
vt 0.047203 0.741397
vt 0.045471 0.739292
vt 0.045942 0.739541
vt 0.045942 0.739541
vt 0.045471 0.739292
vt 0.002404 0.675910
vt 0.004105 0.677978
vt 0.128628 0.840804
vt 0.047203 0.741397
vt 0.045942 0.739541
vt 0.127325 0.838898
vt 0.169162 0.890278
vt 0.127325 0.838898
vt 0.084100 0.775639
vt 0.123923 0.824243
vt 0.169162 0.890278
vt 0.128628 0.840804
vt 0.127325 0.838898
vt 0.616360 0.744172
vt 0.764895 0.675910
vt 0.718010 0.729378
vt 0.572115 0.796426
vt 0.751288 0.950946
vt 0.713942 0.945815
vt 0.756777 0.894281
vt 0.794799 0.899505
vt 0.151747 0.999266
vt 0.120542 0.960789
vt 0.079327 0.894281
vt 0.109984 0.932083
vt 0.039831 0.623628
vt 0.435286 0.441941
vt 0.390827 0.493955
vt 0.002404 0.672410
vt 0.385492 0.820395
vt 0.302885 0.726186
vt 0.338287 0.675910
vt 0.422388 0.771825
vt 0.672503 0.951945
vt 0.625000 0.943849
vt 0.659247 0.894281
vt 0.707610 0.902524
vt 0.395607 0.906237
vt 0.423427 0.894281
vt 0.464853 0.953311
vt 0.409212 0.979012
vt 0.367788 0.918194
vt 0.395607 0.906237
vt 0.409212 0.979012
vt 0.395607 0.906237
vt 0.464853 0.953311
vt 0.298029 0.834511
vt 0.215270 0.724591
vt 0.255058 0.773272
vt 0.215270 0.724591
vt 0.217101 0.735498
vt 0.175481 0.675910
vt 0.298029 0.834511
vt 0.217101 0.735498
vt 0.215270 0.724591
vt 0.515420 0.919008
vt 0.570573 0.894281
vt 0.526365 0.945866
vt 0.471154 0.971345
vt 0.800481 0.894281
vt 0.800481 0.894281
vt 0.800481 0.894281
vt 0.800481 0.894281
vt 0.800481 0.894281
vt 0.800481 0.894281
vt 0.800481 0.894281
vt 0.800481 0.894281
vt 0.800481 0.894281
vt 0.800481 0.894281
vt 0.800481 0.894281
vt 0.800481 0.894281
vt 0.800481 0.894281
vt 0.800481 0.894281
vt 0.800481 0.894281
vt 0.800481 0.894281
vt 0.800481 0.894281
vt 0.800481 0.894281
vt 0.800481 0.894281
vt 0.800481 0.894281
vt 0.800481 0.894281
vt 0.800481 0.894281
vn 0 1 0
vn 0 1 0
vn 0 1 0
vn 0 1 0
vn 0 1 0
vn 0 1 0
vn 0 1 0
vn 0 1 0
vn 0 1 0
vn 0 1 0
vn 0 1 0
vn 0 1 0
vn 0 1 0
vn 0 1 0
vn 0 1 0
vn 0 1 0
vn 0 1 0
vn 0 1 0
vn 0 1 0
vn 0 1 0
vn 0 1 0
vn 0 1 0
vn 0 1 0
vn 0 1 0
vn 0 1 0
vn 0 1 0
vn 0 1 0
vn 0 1 0
vn 0 1 0
vn 0 1 0
vn 0 1 0
vn 0 1 0
vn 0 1 0
vn 0 1 0
vn 0 1 0
vn 0 1 0
vn 0 1 0
vn 0 1 0
vn 0.1016288 0.9818582 -0.1600814
vn 0.1016288 0.9818582 -0.1600814
vn 0.1016288 0.9818582 -0.1600814
vn 0.1016837 0.9818465 -0.1601186
vn 0.1016837 0.9818465 -0.1601186
vn 0.1016837 0.9818465 -0.1601186
vn -0.5365742 0 0.8438531
vn -0.5365742 0 0.8438531
vn -0.5365742 0 0.8438531
vn -0.5365742 0 0.8438531
vn 0.3661885 0 0.9305407
vn 0.3661885 0 0.9305407
vn 0.3661885 0 0.9305407
vn 0.3661885 0 0.9305407
vn -0.5357195 0 0.844396
vn -0.5357195 0 0.844396
vn -0.5357195 0 0.844396
vn -0.5357195 0 0.844396
vn 0.8441029 0 0.5361812
vn 0.8441029 0 0.5361812
vn 0.8441029 0 0.5361812
vn 0.8441029 0 0.5361812
vn 0.5361492 0 -0.8441232
vn 0.5361492 0 -0.8441232
vn 0.5361492 0 -0.8441232
vn 0.5361492 0 -0.8441232
vn 0.4332842 0 0.9012573
vn 0.4332842 0 0.9012573
vn 0.4332842 0 0.9012573
vn 0.4332842 0 0.9012573
vn 0.4332842 0 0.9012573
vn 0.4332842 0 0.9012573
vn 0.4332842 0 0.9012573
vn 0.4332842 0 0.9012573
vn 0.4332842 0 0.9012573
vn 0.8441747 0 0.5360682
vn 0.8441747 0 0.5360682
vn 0.8441747 0 0.5360682
vn 0.8441747 0 0.5360682
vn 0.8441747 0 0.5360682
vn 0.8441747 0 0.5360682
vn 0.8441747 0 0.5360682
vn 0.8441747 0 0.5360682
vn 0.8441747 0 0.5360682
vn 0.537666 0 -0.8431579
vn 0.537666 0 -0.8431579
vn 0.537666 0 -0.8431579
vn 0.537666 0 -0.8431579
vn 0.537666 0 -0.8431579
vn 0.537666 0 -0.8431579
vn 0.537666 0 -0.8431579
vn 0.53597 0 -0.844237
vn 0.53597 0 -0.844237
vn 0.53597 0 -0.844237
vn 0.53597 0 -0.844237
vn 0.536067 0 -0.8441755
vn 0.536067 0 -0.8441755
vn 0.536067 0 -0.8441755
vn 0.536067 0 -0.8441755
vn 0.536067 0 -0.8441755
vn 0.536067 0 -0.8441755
vn 0.536067 0 -0.8441755
vn -0.8440626 0 -0.5362448
vn -0.8440626 0 -0.5362448
vn -0.8440626 0 -0.5362448
vn -0.8440626 0 -0.5362448
vn -0.9819077 0 0.1893603
vn -0.9819077 0 0.1893603
vn -0.9819077 0 0.1893603
vn -0.9819077 0 0.1893603
vn 0.5357152 0 -0.8443987
vn 0.5357152 0 -0.8443987
vn 0.5357152 0 -0.8443987
vn 0.5357152 0 -0.8443987
vn -0.8441128 0 -0.5361657
vn -0.8441128 0 -0.5361657
vn -0.8441128 0 -0.5361657
vn -0.8441128 0 -0.5361657
vn -0.5360502 0 0.8441861
vn -0.5360502 0 0.8441861
vn -0.5360502 0 0.8441861
vn -0.5360502 0 0.8441861
vn -0.9726726 0 0.232181
vn -0.9726726 0 0.232181
vn -0.9726726 0 0.232181
vn -0.9726726 0 0.232181
vn 0.8441727 0 0.5360714
vn 0.8441727 0 0.5360714
vn 0.8441727 0 0.5360714
vn 0.8441727 0 0.5360714
vn 0.8441727 0 0.5360714
vn 0.8441727 0 0.5360714
vn 0.8441727 1.814508E-11 0.5360714
vn 0.8441727 1.814508E-11 0.5360714
vn 0.8441727 1.814508E-11 0.5360714
vn 0.5360873 0 -0.8441626
vn 0.5360873 0 -0.8441626
vn 0.5360873 0 -0.8441626
vn 0.5360873 0 -0.8441626
vn 0.5360873 0 -0.8441626
vn 0.5360873 0 -0.8441626
vn 0.5360873 0 -0.8441626
vn 0.5360873 0 -0.8441626
vn 0.5360873 0 -0.8441626
vn -0.8438916 0 -0.5365138
vn -0.8438916 0 -0.5365138
vn -0.8438916 0 -0.5365138
vn -0.8438916 0 -0.5365138
vn 0 -1 0
vn 0 -1 0
vn 0 -1 0
vn 0 -1 0
vn 0 -1 0
vn 0 -1 0
vn 0 -1 0
vn 0 -1 0
vn 0 -1 0
vn 0 -1 0
vn 0 -1 0
vn 0 -1 0
vn 0 -1 0
vn 0 -1 0
vn 0 -1 0
vn 0 -1 0
vn 0 -1 0
vn 0 -1 0
vn 0 -1 0
vn 0 -1 0
vn 0 -1 0
vn 0 -1 0

g CDNNDG02_0012250
f 1/1/1 2/2/2 3/3/3
f 4/4/4 5/5/5 6/6/6
f 7/7/7 9/9/9 10/10/10
f 7/7/7 8/8/8 9/9/9
f 11/11/11 12/12/12 13/13/13
f 14/14/14 15/15/15 16/16/16
f 17/17/17 18/18/18 19/19/19
f 20/20/20 22/22/22 23/23/23
f 20/20/20 21/21/21 22/22/22
f 24/24/24 25/25/25 26/26/26
f 27/27/27 28/28/28 29/29/29
f 30/30/30 31/31/31 32/32/32
f 33/33/33 34/34/34 35/35/35
f 36/36/36 37/37/37 38/38/38
f 39/39/39 40/40/40 41/41/41
f 42/42/42 43/43/43 44/44/44
f 48/48/48 45/45/45 46/46/46
f 47/47/47 48/48/48 46/46/46
f 49/49/49 50/50/50 51/51/51
f 52/52/52 49/49/49 51/51/51
f 56/56/56 53/53/53 55/55/55
f 55/55/55 53/53/53 54/54/54
f 58/58/58 59/59/59 60/60/60
f 57/57/57 58/58/58 60/60/60
f 63/63/63 61/61/61 62/62/62
f 61/61/61 63/63/63 64/64/64
f 65/65/65 66/66/66 67/67/67
f 68/68/68 69/69/69 70/70/70
f 71/71/71 72/72/72 73/73/73
f 74/74/74 75/75/75 76/76/76
f 77/77/77 78/78/78 79/79/79
f 80/80/80 81/81/81 82/82/82
f 83/83/83 84/84/84 85/85/85
f 88/88/88 86/86/86 87/87/87
f 86/86/86 88/88/88 89/89/89
f 90/90/90 92/92/92 93/93/93
f 90/90/90 91/91/91 92/92/92
f 96/96/96 97/97/97 95/95/95
f 94/94/94 95/95/95 97/97/97
f 98/98/98 99/99/99 100/100/100
f 101/101/101 102/102/102 103/103/103
f 104/104/104 101/101/101 103/103/103
f 105/105/105 107/107/107 108/108/108
f 105/105/105 106/106/106 107/107/107
f 109/109/109 111/111/111 112/112/112
f 109/109/109 110/110/110 111/111/111
f 113/113/113 115/115/115 116/116/116
f 113/113/113 114/114/114 115/115/115
f 117/117/117 119/119/119 120/120/120
f 119/119/119 117/117/117 118/118/118
f 121/121/121 123/123/123 124/124/124
f 121/121/121 122/122/122 123/123/123
f 125/125/125 126/126/126 127/127/127
f 128/128/128 129/129/129 130/130/130
f 131/131/131 132/132/132 133/133/133
f 134/134/134 135/135/135 136/136/136
f 137/137/137 138/138/138 139/139/139
f 140/140/140 141/141/141 142/142/142
f 144/144/144 145/145/145 146/146/146
f 143/143/143 144/144/144 146/146/146
f 147/147/147 148/148/148 167/167/167
f 165/165/165 166/166/166 167/167/167
f 148/148/148 149/149/149 151/151/151
f 164/164/164 165/165/165 167/167/167
f 149/149/149 150/150/150 151/151/151
f 148/148/148 151/151/151 164/164/164
f 151/151/151 152/152/152 154/154/154
f 147/147/147 167/167/167 168/168/168
f 152/152/152 153/153/153 154/154/154
f 151/151/151 163/163/163 164/164/164
f 151/151/151 154/154/154 163/163/163
f 154/154/154 155/155/155 156/156/156
f 148/148/148 164/164/164 167/167/167
f 154/154/154 156/156/156 159/159/159
f 161/161/161 162/162/162 163/163/163
f 156/156/156 157/157/157 158/158/158
f 156/156/156 158/158/158 159/159/159
f 154/154/154 159/159/159 161/161/161
f 159/159/159 160/160/160 161/161/161
f 154/154/154 161/161/161 163/163/163
