v -1.363288 4.050969 -12.46486
v 7.419712 4.050969 -6.34786
v 8.664712 4.050969 -8.338861
v 0.3687121 4.050969 -15.23586
v 0.3687121 4.050969 -15.23586
v 8.664712 4.050969 -8.338861
v 9.433712 4.050969 -9.56886
v 7.419712 4.050969 -6.34786
v 7.994712 4.050969 2.731139
v 8.612712 4.050969 1.742139
v 7.419712 4.050969 -6.34786
v 8.612712 4.050969 1.742139
v 9.379712 4.050969 -5.121861
v -5.564288 4.050969 -5.744861
v 7.994712 4.050969 2.731139
v 7.419712 4.050969 -6.34786
v -1.446288 4.050969 -12.33186
v 7.419712 4.050969 -6.34786
v -1.363288 4.050969 -12.46486
v 8.612712 4.050969 1.742139
v 11.91371 4.050969 -3.53786
v 9.379712 4.050969 -5.121861
v -5.564288 4.050969 -5.744861
v 7.419712 4.050969 -6.34786
v -1.446288 4.050969 -12.33186
v 7.419712 3.334969 -6.34786
v 10.62471 2.872969 -7.112861
v 8.664712 2.872969 -8.338861
v 7.419712 3.334969 -6.34786
v 9.379712 3.334969 -5.121861
v 10.62471 2.872969 -7.112861
v -13.20129 3.744969 6.472139
v 0.3577121 3.744969 14.94814
v -12.79629 3.744969 5.82414
v -12.79629 3.744969 5.82414
v 0.3577121 3.744969 14.94814
v 7.852712 3.744969 2.958139
v -5.564288 3.744969 -5.744861
v -5.564288 3.744969 -5.744861
v 7.852712 3.744969 2.958139
v 7.994712 3.744969 2.731139
v -1.446288 4.050969 -12.33186
v -1.363288 4.050969 -12.46486
v -1.363288 -3.86326 -12.46486
v -1.446288 -3.86326 -12.33186
v -5.564288 4.050969 -5.744861
v -1.446288 4.050969 -12.33186
v -5.564288 3.744969 -5.744861
v -5.564288 3.744969 -5.744861
v -1.446288 4.050969 -12.33186
v -1.446288 -3.86326 -12.33186
v -5.564288 -3.86326 -5.744861
v -1.363288 4.050969 -12.46486
v 0.3687121 4.050969 -15.23586
v 0.3687121 -3.86326 -15.23586
v -1.363288 -3.86326 -12.46486
v -12.79629 3.744969 5.82414
v -5.564288 3.744969 -5.744861
v -5.564288 -3.86326 -5.744861
v -12.79629 -3.86326 5.82414
v -13.20129 3.744969 6.472139
v -12.79629 3.744969 5.82414
v -12.79629 -3.86326 5.82414
v -13.20129 -3.86326 6.472139
v -5.564288 3.744969 -5.744861
v 7.994712 3.744969 2.731139
v 7.994712 4.050969 2.731139
v -5.564288 4.050969 -5.744861
v 7.994712 -3.86326 2.731139
v 8.612712 -3.86326 1.742139
v 8.612712 4.050969 1.742139
v 7.994712 3.744969 2.731139
v 7.994712 4.050969 2.731139
v 7.994712 3.744969 2.731139
v 8.612712 4.050969 1.742139
v 8.612712 -3.86326 1.742139
v 11.91371 -3.86326 -3.53786
v 11.91371 4.050969 -3.53786
v 8.612712 4.050969 1.742139
v 4.105212 -3.86326 8.953139
v 7.852712 -3.86326 2.958139
v 7.852712 3.744969 2.958139
v 0.3577121 3.744969 14.94814
v 0.3577121 -3.86326 14.94814
v 4.105212 -3.86326 8.953139
v 0.3577121 3.744969 14.94814
v 4.105212 -3.86326 8.953139
v 7.852712 3.744969 2.958139
v 7.852712 -3.86326 2.958139
v 7.994712 -3.86326 2.731139
v 7.994712 3.744969 2.731139
v 7.852712 3.744969 2.958139
v 9.379712 4.050969 -5.121861
v 11.91371 4.050969 -3.53786
v 9.379712 3.334969 -5.121861
v 9.379712 3.334969 -5.121861
v 11.91371 4.050969 -3.53786
v 11.91371 -3.86326 -3.53786
v 9.379712 -3.86326 -5.121861
v 7.419712 4.050969 -6.34786
v 9.379712 4.050969 -5.121861
v 9.379712 3.334969 -5.121861
v 7.419712 3.334969 -6.34786
v 7.419712 3.334969 -6.34786
v 8.664712 2.872969 -8.338861
v 8.664712 4.050969 -8.338861
v 7.419712 4.050969 -6.34786
v 9.049212 -3.86326 -8.95386
v 9.433712 -3.86326 -9.56886
v 9.433712 4.050969 -9.56886
v 8.664712 4.050969 -8.338861
v 9.049212 -3.86326 -8.95386
v 9.433712 4.050969 -9.56886
v 8.664712 4.050969 -8.338861
v 8.664712 2.872969 -8.338861
v 9.049212 -3.86326 -8.95386
v 8.664712 2.872969 -8.338861
v 8.664712 -3.86326 -8.338861
v 9.049212 -3.86326 -8.95386
v 0.3687121 4.050969 -15.23586
v 9.433712 4.050969 -9.56886
v 9.433712 -3.86326 -9.56886
v 0.3687121 -3.86326 -15.23586
v 10.00221 -3.86326 -6.117361
v 10.62471 -3.86326 -7.112861
v 10.62471 2.872969 -7.112861
v 9.379712 3.334969 -5.121861
v 9.379712 -3.86326 -5.121861
v 10.00221 -3.86326 -6.117361
v 9.379712 3.334969 -5.121861
v 10.00221 -3.86326 -6.117361
v 10.62471 2.872969 -7.112861
v 8.664712 2.872969 -8.338861
v 9.644712 -3.86326 -7.725861
v 8.664712 -3.86326 -8.338861
v 9.644712 -3.86326 -7.725861
v 10.62471 2.872969 -7.112861
v 10.62471 -3.86326 -7.112861
v 8.664712 2.872969 -8.338861
v 10.62471 2.872969 -7.112861
v 9.644712 -3.86326 -7.725861
v -6.421788 -3.86326 10.71014
v 0.3577121 -3.86326 14.94814
v 0.3577121 3.744969 14.94814
v -13.20129 3.744969 6.472139
v -13.20129 -3.86326 6.472139
v -6.421788 -3.86326 10.71014
v -13.20129 3.744969 6.472139
v -6.421788 -3.86326 10.71014
v 0.3577121 3.744969 14.94814
v -1.446288 -3.86326 -12.33186
v -1.363288 -3.86326 -12.46486
v 0.3687121 -3.86326 -15.23586
v 9.433712 -3.86326 -9.56886
v 9.049212 -3.86326 -8.95386
v 8.664712 -3.86326 -8.338861
v 9.644712 -3.86326 -7.725861
v 10.62471 -3.86326 -7.112861
v 10.00221 -3.86326 -6.117361
v 9.379712 -3.86326 -5.121861
v 11.91371 -3.86326 -3.53786
v 8.612712 -3.86326 1.742139
v 7.994712 -3.86326 2.731139
v 7.852712 -3.86326 2.958139
v 4.105212 -3.86326 8.953139
v 0.3577121 -3.86326 14.94814
v -6.421788 -3.86326 10.71014
v -13.20129 -3.86326 6.472139
v -12.79629 -3.86326 5.82414
v -5.564288 -3.86326 -5.744861
vt 0.553320 0.075970
vt 0.695915 0.233824
vt 0.649295 0.256027
vt 0.488435 0.106860
vt 0.488435 0.106860
vt 0.649295 0.256027
vt 0.620495 0.269740
vt 0.695915 0.233824
vt 0.908185 0.244682
vt 0.885027 0.255703
vt 0.695915 0.233824
vt 0.885027 0.255703
vt 0.724483 0.269041
vt 0.710679 0.001043
vt 0.908185 0.244682
vt 0.695915 0.233824
vt 0.556434 0.074489
vt 0.695915 0.233824
vt 0.553320 0.075970
vt 0.885027 0.255703
vt 0.761392 0.314569
vt 0.724483 0.269041
vt 0.710679 0.001043
vt 0.695915 0.233824
vt 0.556434 0.074489
vt 0.238593 0.967460
vt 0.260321 0.909280
vt 0.289373 0.944386
vt 0.238593 0.967460
vt 0.209524 0.932335
vt 0.260321 0.909280
vt 0.287475 0.001043
vt 0.484982 0.244753
vt 0.272298 0.008268
vt 0.272298 0.008268
vt 0.484982 0.244753
vt 0.204192 0.378447
vt 0.001361 0.137290
vt 0.001361 0.137290
vt 0.204192 0.378447
vt 0.198877 0.380979
vt 0.445250 0.417171
vt 0.448411 0.415642
vt 0.520621 0.444666
vt 0.517491 0.446180
vt 0.288701 0.493034
vt 0.445250 0.417171
vt 0.291581 0.494137
vt 0.291581 0.494137
vt 0.445250 0.417171
vt 0.517491 0.446180
vt 0.362485 0.521293
vt 0.448411 0.415642
vt 0.514270 0.383733
vt 0.585831 0.413072
vt 0.520621 0.444666
vt 0.016753 0.627306
vt 0.291581 0.494137
vt 0.362485 0.521293
vt 0.090262 0.653198
vt 0.001361 0.634764
vt 0.016753 0.627306
vt 0.090262 0.653198
vt 0.075015 0.660584
vt 0.003424 0.663191
vt 0.202296 0.905581
vt 0.200308 0.906748
vt 0.001361 0.664266
vt 0.403461 0.807581
vt 0.380517 0.818478
vt 0.329128 0.809788
vt 0.354293 0.799128
vt 0.352296 0.798785
vt 0.354293 0.799128
vt 0.329128 0.809788
vt 0.380517 0.818478
vt 0.258028 0.876684
vt 0.205442 0.868563
vt 0.329128 0.809788
vt 0.547811 0.738995
vt 0.408727 0.805077
vt 0.359608 0.796600
vt 0.640394 0.663191
vt 0.686901 0.672910
vt 0.547811 0.738995
vt 0.640394 0.663191
vt 0.547811 0.738995
vt 0.359608 0.796600
vt 0.408727 0.805077
vt 0.403461 0.807581
vt 0.354293 0.799128
vt 0.359608 0.796600
vt 0.039130 0.963675
vt 0.001361 0.917935
vt 0.045831 0.962843
vt 0.045831 0.962843
vt 0.001361 0.917935
vt 0.075148 0.909280
vt 0.112543 0.954569
vt 0.068361 0.999053
vt 0.039130 0.963675
vt 0.045831 0.962843
vt 0.075037 0.998190
vt 0.371732 0.910078
vt 0.328883 0.932318
vt 0.320937 0.931038
vt 0.366941 0.909280
vt 0.359806 0.946219
vt 0.345734 0.952873
vt 0.292517 0.944478
vt 0.320937 0.931038
vt 0.359806 0.946219
vt 0.292517 0.944478
vt 0.320937 0.931038
vt 0.328883 0.932318
vt 0.359806 0.946219
vt 0.328883 0.932318
vt 0.373879 0.939564
vt 0.359806 0.946219
vt 0.825667 0.836846
vt 0.689796 0.672333
vt 0.762583 0.663191
vt 0.897110 0.826083
vt 0.444530 0.927478
vt 0.421711 0.938127
vt 0.376871 0.931245
vt 0.419810 0.909280
vt 0.467348 0.916828
vt 0.444530 0.927478
vt 0.419810 0.909280
vt 0.444530 0.927478
vt 0.376871 0.931245
vt 0.144796 0.985001
vt 0.192114 0.926578
vt 0.206567 0.943876
vt 0.192114 0.926578
vt 0.115646 0.950115
vt 0.177661 0.909280
vt 0.144796 0.985001
vt 0.115646 0.950115
vt 0.192114 0.926578
vt 0.735957 0.503859
vt 0.834578 0.623977
vt 0.788223 0.651447
vt 0.589116 0.408945
vt 0.637330 0.383733
vt 0.735957 0.503859
vt 0.589116 0.408945
vt 0.735957 0.503859
vt 0.788223 0.651447
vt 0.470748 0.909280
vt 0.470748 0.909280
vt 0.470748 0.909280
vt 0.470748 0.909280
vt 0.470748 0.909280
vt 0.470748 0.909280
vt 0.470748 0.909280
vt 0.470748 0.909280
vt 0.470748 0.909280
vt 0.470748 0.909280
vt 0.470748 0.909280
vt 0.470748 0.909280
vt 0.470748 0.909280
vt 0.470748 0.909280
vt 0.470748 0.909280
vt 0.470748 0.909280
vt 0.470748 0.909280
vt 0.470748 0.909280
vt 0.470748 0.909280
vt 0.470748 0.909280
vn 0 1 0
vn 0 1 0
vn 0 1 0
vn 0 1 0
vn 0 1 0
vn 0 1 0
vn 0 1 0
vn 0 1 0
vn 0 1 0
vn 0 1 0
vn 0 1 0
vn 0 1 0
vn 0 1 0
vn 0 1 0
vn 0 1 0
vn 0 1 0
vn 0 1 0
vn 0 1 0
vn 0 1 0
vn 0 1 0
vn 0 1 0
vn 0 1 0
vn 0 1 0
vn 0 1 0
vn 0 1 0
vn 0.1023734 0.98119 -0.1636639
vn 0.1023734 0.98119 -0.1636639
vn 0.1023734 0.98119 -0.1636639
vn 0.1023734 0.98119 -0.1636639
vn 0.1023734 0.98119 -0.1636639
vn 0.1023734 0.98119 -0.1636639
vn 0 1 0
vn 0 1 0
vn 0 1 0
vn 0 1 0
vn 0 1 0
vn 0 1 0
vn 0 1 0
vn 0 1 0
vn 0 1 0
vn 0 1 0
vn -0.8483565 0 -0.5294254
vn -0.8483565 0 -0.5294254
vn -0.8483565 0 -0.5294254
vn -0.8483565 0 -0.5294254
vn -0.8479332 0 -0.5301031
vn -0.8479332 0 -0.5301031
vn -0.8479332 0 -0.5301031
vn -0.8479332 0 -0.5301031
vn -0.8479332 0 -0.5301031
vn -0.8479332 0 -0.5301031
vn -0.8479332 0 -0.5301031
vn -0.8479811 0 -0.5300264
vn -0.8479811 0 -0.5300264
vn -0.8479811 0 -0.5300264
vn -0.8479811 0 -0.5300264
vn -0.847953 0 -0.5300714
vn -0.847953 0 -0.5300714
vn -0.847953 0 -0.5300714
vn -0.847953 0 -0.5300714
vn -0.8479983 0 -0.529999
vn -0.8479983 0 -0.529999
vn -0.8479983 0 -0.529999
vn -0.8479983 0 -0.529999
vn -0.530072 0 0.8479526
vn -0.530072 0 0.8479526
vn -0.530072 0 0.8479526
vn -0.530072 0 0.8479526
vn 0.8480465 0 0.5299219
vn 0.8480465 0 0.5299219
vn 0.8480465 0 0.5299219
vn 0.8480465 0 0.5299219
vn 0.8480465 0 0.5299219
vn 0.8480465 0 0.5299219
vn 0.8480465 0 0.5299219
vn 0.8479261 0 0.5301144
vn 0.8479261 0 0.5301144
vn 0.8479261 0 0.5301144
vn 0.8479261 0 0.5301144
vn 0.8479586 0 0.5300625
vn 0.8479586 0 0.5300625
vn 0.8479586 0 0.5300625
vn 0.8479586 0 0.5300625
vn 0.8479586 0 0.5300625
vn 0.8479586 0 0.5300625
vn 0.8479586 -3.24425E-11 0.5300625
vn 0.8479586 -3.24425E-11 0.5300625
vn 0.8479586 -3.24425E-11 0.5300625
vn 0.8477884 0 0.5303346
vn 0.8477884 0 0.5303346
vn 0.8477884 0 0.5303346
vn 0.8477884 0 0.5303346
vn 0.5300591 0 -0.8479607
vn 0.5300591 0 -0.8479607
vn 0.5300591 0 -0.8479607
vn 0.5300591 0 -0.8479607
vn 0.5300591 0 -0.8479607
vn 0.5300591 0 -0.8479607
vn 0.5300591 0 -0.8479607
vn 0.53031 0 -0.8478038
vn 0.53031 0 -0.8478038
vn 0.53031 0 -0.8478038
vn 0.53031 0 -0.8478038
vn 0.8478786 0 0.5301903
vn 0.8478786 0 0.5301903
vn 0.8478786 0 0.5301903
vn 0.8478786 0 0.5301903
vn 0.8479208 0 0.5301229
vn 0.8479208 0 0.5301229
vn 0.8479208 0 0.5301229
vn 0.8479208 0 0.5301229
vn 0.8479208 0 0.5301229
vn 0.8479208 0 0.5301229
vn 0.8479208 0 0.5301229
vn 0.8479208 0 0.5301229
vn 0.8479208 0 0.5301229
vn 0.8479208 0 0.5301229
vn 0.8479208 0 0.5301229
vn 0.8479208 0 0.5301229
vn 0.5300914 0 -0.8479405
vn 0.5300914 0 -0.8479405
vn 0.5300914 0 -0.8479405
vn 0.5300914 0 -0.8479405
vn 0.8478786 0 0.5301903
vn 0.8478786 0 0.5301903
vn 0.8478786 0 0.5301903
vn 0.8478786 0 0.5301903
vn 0.8478786 0 0.5301903
vn 0.8478786 0 0.5301903
vn 0.8478786 0 0.5301903
vn 0.8478786 0 0.5301903
vn 0.8478786 0 0.5301903
vn 0.53031 0 -0.8478038
vn 0.53031 0 -0.8478038
vn 0.53031 0 -0.8478038
vn 0.53031 0 -0.8478038
vn 0.53031 0 -0.8478038
vn 0.53031 0 -0.8478038
vn 0.53031 0 -0.8478038
vn 0.53031 0 -0.8478038
vn 0.53031 0 -0.8478038
vn -0.530072 0 0.8479526
vn -0.530072 0 0.8479526
vn -0.530072 0 0.8479526
vn -0.530072 0 0.8479526
vn -0.530072 0 0.8479526
vn -0.530072 0 0.8479526
vn -0.530072 0 0.8479526
vn -0.530072 0 0.8479526
vn -0.530072 0 0.8479526
vn 0 -1 0
vn 0 -1 0
vn 0 -1 0
vn 0 -1 0
vn 0 -1 0
vn 0 -1 0
vn 0 -1 0
vn 0 -1 0
vn 0 -1 0
vn 0 -1 0
vn 0 -1 0
vn 0 -1 0
vn 0 -1 0
vn 0 -1 0
vn 0 -1 0
vn 0 -1 0
vn 0 -1 0
vn 0 -1 0
vn 0 -1 0
vn 0 -1 0

g CDNNDG02_0003940
f 4/4/4 1/1/1 3/3/3
f 3/3/3 1/1/1 2/2/2
f 5/5/5 6/6/6 7/7/7
f 8/8/8 9/9/9 10/10/10
f 11/11/11 12/12/12 13/13/13
f 14/14/14 15/15/15 16/16/16
f 17/17/17 18/18/18 19/19/19
f 20/20/20 21/21/21 22/22/22
f 23/23/23 24/24/24 25/25/25
f 26/26/26 27/27/27 28/28/28
f 29/29/29 30/30/30 31/31/31
f 32/32/32 33/33/33 34/34/34
f 35/35/35 37/37/37 38/38/38
f 37/37/37 35/35/35 36/36/36
f 39/39/39 40/40/40 41/41/41
f 42/42/42 44/44/44 45/45/45
f 42/42/42 43/43/43 44/44/44
f 46/46/46 47/47/47 48/48/48
f 52/52/52 49/49/49 51/51/51
f 51/51/51 49/49/49 50/50/50
f 53/53/53 55/55/55 56/56/56
f 53/53/53 54/54/54 55/55/55
f 57/57/57 59/59/59 60/60/60
f 57/57/57 58/58/58 59/59/59
f 61/61/61 63/63/63 64/64/64
f 61/61/61 62/62/62 63/63/63
f 65/65/65 67/67/67 68/68/68
f 65/65/65 66/66/66 67/67/67
f 70/70/70 71/71/71 72/72/72
f 69/69/69 70/70/70 72/72/72
f 73/73/73 74/74/74 75/75/75
f 79/79/79 76/76/76 78/78/78
f 77/77/77 78/78/78 76/76/76
f 80/80/80 81/81/81 82/82/82
f 83/83/83 84/84/84 85/85/85
f 86/86/86 87/87/87 88/88/88
f 89/89/89 91/91/91 92/92/92
f 89/89/89 90/90/90 91/91/91
f 93/93/93 94/94/94 95/95/95
f 96/96/96 98/98/98 99/99/99
f 96/96/96 97/97/97 98/98/98
f 100/100/100 102/102/102 103/103/103
f 100/100/100 101/101/101 102/102/102
f 107/107/107 104/104/104 106/106/106
f 105/105/105 106/106/106 104/104/104
f 108/108/108 109/109/109 110/110/110
f 111/111/111 112/112/112 113/113/113
f 114/114/114 115/115/115 116/116/116
f 117/117/117 118/118/118 119/119/119
f 123/123/123 120/120/120 122/122/122
f 121/121/121 122/122/122 120/120/120
f 124/124/124 125/125/125 126/126/126
f 127/127/127 128/128/128 129/129/129
f 130/130/130 131/131/131 132/132/132
f 133/133/133 134/134/134 135/135/135
f 136/136/136 137/137/137 138/138/138
f 139/139/139 140/140/140 141/141/141
f 142/142/142 143/143/143 144/144/144
f 145/145/145 146/146/146 147/147/147
f 148/148/148 149/149/149 150/150/150
f 167/167/167 169/169/169 170/170/170
f 167/167/167 168/168/168 169/169/169
f 165/165/165 167/167/167 170/170/170
f 151/151/151 152/152/152 156/156/156
f 165/165/165 166/166/166 167/167/167
f 152/152/152 153/153/153 156/156/156
f 164/164/164 165/165/165 170/170/170
f 153/153/153 154/154/154 155/155/155
f 153/153/153 155/155/155 156/156/156
f 170/170/170 151/151/151 156/156/156
f 156/156/156 157/157/157 159/159/159
f 163/163/163 164/164/164 170/170/170
f 157/157/157 158/158/158 159/159/159
f 156/156/156 159/159/159 160/160/160
f 161/161/161 162/162/162 160/160/160
f 156/156/156 160/160/160 170/170/170
f 160/160/160 162/162/162 170/170/170
f 162/162/162 163/163/163 170/170/170
