v -7.309084 5.656699 4.369584
v -7.530084 5.65671 4.710584
v -4.962084 5.657107 6.377584
v -4.721084 5.657096 6.005584
v -1.210084 5.657133 8.286584
v 7.393916 5.657133 -4.974416
v 8.333916 5.657171 -6.466416
v 4.900916 5.656639 -8.696416
v 2.095916 5.656775 -4.379416
v 0.8499159 5.656678 -4.160416
v -1.380084 5.656332 -5.609416
v -7.697084 5.656639 4.116584
v -7.530084 5.65671 4.710584
v -7.419584 -5.656878 4.540084
v -7.530084 -5.656878 4.710584
v -7.419584 -5.656878 4.540084
v -7.309084 5.656699 4.369584
v -7.309084 -5.656878 4.369584
v -7.530084 5.65671 4.710584
v -7.309084 5.656699 4.369584
v -7.419584 -5.656878 4.540084
v -7.530084 -5.656878 4.710584
v -4.962084 -5.656878 6.377584
v -4.962084 5.657107 6.377584
v -7.530084 5.65671 4.710584
v -4.962084 -5.656878 6.377584
v -4.721084 -5.656878 6.005584
v -4.721084 5.657096 6.005584
v -4.962084 5.657107 6.377584
v -4.721084 -5.656878 6.005584
v -1.210084 -5.656878 8.286584
v -1.210084 5.657133 8.286584
v -4.721084 5.657096 6.005584
v -1.210084 -5.656878 8.286584
v 7.393916 -5.656878 -4.974416
v 7.393916 5.657133 -4.974416
v -1.210084 5.657133 8.286584
v 7.393916 -5.656878 -4.974416
v 8.333916 -5.656878 -6.466416
v 8.333916 5.657171 -6.466416
v 7.393916 5.657133 -4.974416
v 4.900916 5.656639 -8.696416
v 8.333916 5.657171 -6.466416
v 8.333916 -5.656878 -6.466416
v 4.900916 -5.656878 -8.696416
v 2.095916 5.656775 -4.379416
v 3.498416 -5.656878 -6.537916
v 2.095916 -5.656878 -4.379416
v 3.498416 -5.656878 -6.537916
v 4.900916 5.656639 -8.696416
v 4.900916 -5.656878 -8.696416
v 2.095916 5.656775 -4.379416
v 4.900916 5.656639 -8.696416
v 3.498416 -5.656878 -6.537916
v 0.8499159 5.656678 -4.160416
v 1.472916 -5.656878 -4.269916
v 0.8499159 -5.656878 -4.160416
v 1.472916 -5.656878 -4.269916
v 2.095916 5.656775 -4.379416
v 2.095916 -5.656878 -4.379416
v 0.8499159 5.656678 -4.160416
v 2.095916 5.656775 -4.379416
v 1.472916 -5.656878 -4.269916
v -1.380084 5.656332 -5.609416
v -0.2650841 -5.656878 -4.884916
v -1.380084 -5.656878 -5.609416
v -0.2650841 -5.656878 -4.884916
v 0.8499159 5.656678 -4.160416
v 0.8499159 -5.656878 -4.160416
v -1.380084 5.656332 -5.609416
v 0.8499159 5.656678 -4.160416
v -0.2650841 -5.656878 -4.884916
v -7.697084 5.656639 4.116584
v -4.538584 -5.656878 -0.7464159
v -7.697084 -5.656878 4.116584
v -4.538584 -5.656878 -0.7464159
v -1.380084 5.656332 -5.609416
v -1.380084 -5.656878 -5.609416
v -7.697084 5.656639 4.116584
v -1.380084 5.656332 -5.609416
v -4.538584 -5.656878 -0.7464159
v -7.503084 -5.656878 4.243084
v -7.309084 -5.656878 4.369584
v -7.309084 5.656699 4.369584
v -7.697084 5.656639 4.116584
v -7.697084 -5.656878 4.116584
v -7.503084 -5.656878 4.243084
v -7.697084 5.656639 4.116584
v -7.503084 -5.656878 4.243084
v -7.309084 5.656699 4.369584
v -4.538584 -5.656878 -0.7464159
v -1.380084 -5.656878 -5.609416
v -0.2650841 -5.656878 -4.884916
v 0.8499159 -5.656878 -4.160416
v 1.472916 -5.656878 -4.269916
v 2.095916 -5.656878 -4.379416
v 3.498416 -5.656878 -6.537916
v 4.900916 -5.656878 -8.696416
v 8.333916 -5.656878 -6.466416
v 7.393916 -5.656878 -4.974416
v -1.210084 -5.656878 8.286584
v -4.721084 -5.656878 6.005584
v -4.962084 -5.656878 6.377584
v -7.530084 -5.656878 4.710584
v -7.419584 -5.656878 4.540084
v -7.309084 -5.656878 4.369584
v -7.503084 -5.656878 4.243084
v -7.697084 -5.656878 4.116584
vt 0.150171 0.373254
vt 0.137387 0.378528
vt 0.074393 0.317854
vt 0.088339 0.312103
vt 0.002137 0.229146
vt 0.499310 0.023790
vt 0.555256 0.001348
vt 0.639524 0.082473
vt 0.477665 0.149422
vt 0.469604 0.178976
vt 0.524357 0.231668
vt 0.159731 0.382421
vt 0.159295 0.917619
vt 0.093778 0.992839
vt 0.087607 0.995413
vt 0.093778 0.992839
vt 0.171814 0.912399
vt 0.099949 0.990266
vt 0.159295 0.917619
vt 0.171814 0.912399
vt 0.093778 0.992839
vt 0.911828 0.817951
vt 0.850427 0.758389
vt 0.921884 0.679245
vt 0.984160 0.739663
vt 0.177350 0.917983
vt 0.190669 0.912399
vt 0.257276 0.979253
vt 0.243768 0.984917
vt 0.528659 0.841305
vt 0.444444 0.759753
vt 0.515059 0.679245
vt 0.600477 0.761966
vt 0.002137 0.609693
vt 0.487764 0.407541
vt 0.561587 0.471303
vt 0.069051 0.676323
vt 0.487764 0.407541
vt 0.542416 0.385445
vt 0.617016 0.448893
vt 0.561587 0.471303
vt 0.273504 0.912399
vt 0.273504 0.912399
vt 0.273504 0.912399
vt 0.273504 0.912399
vt 0.684448 0.745981
vt 0.686216 0.794654
vt 0.606838 0.827550
vt 0.686216 0.794654
vt 0.845478 0.679245
vt 0.765595 0.761756
vt 0.684448 0.745981
vt 0.845478 0.679245
vt 0.686216 0.794654
vt 0.284188 0.912399
vt 0.284188 0.912399
vt 0.284188 0.912399
vt 0.284188 0.912399
vt 0.284188 0.912399
vt 0.284188 0.912399
vt 0.284188 0.912399
vt 0.284188 0.912399
vt 0.284188 0.912399
vt 0.262821 0.912399
vt 0.262821 0.912399
vt 0.262821 0.912399
vt 0.262821 0.912399
vt 0.262821 0.912399
vt 0.262821 0.912399
vt 0.262821 0.912399
vt 0.262821 0.912399
vt 0.262821 0.912399
vt 0.075574 0.829995
vt 0.181678 0.834219
vt 0.002137 0.908528
vt 0.181678 0.834219
vt 0.439804 0.679245
vt 0.361227 0.759906
vt 0.075574 0.829995
vt 0.439804 0.679245
vt 0.181678 0.834219
vt 0.006749 0.994797
vt 0.002137 0.990323
vt 0.073909 0.912399
vt 0.083264 0.921476
vt 0.011360 0.999272
vt 0.006749 0.994797
vt 0.083264 0.921476
vt 0.006749 0.994797
vt 0.073909 0.912399
vt 0.294872 0.912399
vt 0.294872 0.912399
vt 0.294872 0.912399
vt 0.294872 0.912399
vt 0.294872 0.912399
vt 0.294872 0.912399
vt 0.294872 0.912399
vt 0.294872 0.912399
vt 0.294872 0.912399
vt 0.294872 0.912399
vt 0.294872 0.912399
vt 0.294872 0.912399
vt 0.294872 0.912399
vt 0.294872 0.912399
vt 0.294872 0.912399
vt 0.294872 0.912399
vt 0.294872 0.912399
vt 0.294872 0.912399
vn -9.445285E-05 1 -9.28698E-05
vn -9.444582E-05 1 -9.288131E-05
vn -9.445351E-05 1 -9.287233E-05
vn -5.900704E-05 1 -7.344122E-05
vn -4.933761E-05 1 -4.42694E-05
vn -9.031436E-05 1 -5.993681E-05
vn -0.0001214784 1 -5.126659E-05
vn -9.906136E-05 1 -6.628157E-05
vn -7.885118E-05 1 -5.983847E-05
vn -6.602577E-05 1 -6.78252E-05
vn -9.445044E-05 1 -9.286669E-05
vn -9.444664E-05 1 -9.286443E-05
vn -0.8391738 0 -0.5438634
vn -0.8391738 0 -0.5438634
vn -0.8391738 0 -0.5438634
vn -0.8391738 0 -0.5438634
vn -0.8391738 0 -0.5438634
vn -0.8391738 0 -0.5438634
vn -0.8391738 0 -0.5438634
vn -0.8391738 0 -0.5438634
vn -0.8391738 0 -0.5438634
vn -0.5444831 0 0.8387718
vn -0.5444831 0 0.8387718
vn -0.5444831 0 0.8387718
vn -0.5444831 0 0.8387718
vn 0.8392673 0 0.5437192
vn 0.8392673 0 0.5437192
vn 0.8392673 0 0.5437192
vn 0.8392673 0 0.5437192
vn -0.5447953 0 0.8385691
vn -0.5447953 0 0.8385691
vn -0.5447953 0 0.8385691
vn -0.5447953 0 0.8385691
vn 0.8388957 0 0.5442922
vn 0.8388957 0 0.5442922
vn 0.8388957 0 0.5442922
vn 0.8388957 0 0.5442922
vn 0.8460813 0 0.5330539
vn 0.8460813 0 0.5330539
vn 0.8460813 0 0.5330539
vn 0.8460813 0 0.5330539
vn 0.5447393 0 -0.8386054
vn 0.5447393 0 -0.8386054
vn 0.5447393 0 -0.8386054
vn 0.5447393 0 -0.8386054
vn -0.8385368 0 -0.544845
vn -0.8385368 0 -0.544845
vn -0.8385368 0 -0.544845
vn -0.8385368 0 -0.544845
vn -0.8385368 0 -0.544845
vn -0.8385368 0 -0.544845
vn -0.8385368 1.019163E-10 -0.544845
vn -0.8385368 1.019163E-10 -0.544845
vn -0.8385368 1.019163E-10 -0.544845
vn -0.1731089 0 -0.9849027
vn -0.1731089 0 -0.9849027
vn -0.1731089 0 -0.9849027
vn -0.1731089 0 -0.9849027
vn -0.1731089 0 -0.9849027
vn -0.1731089 0 -0.9849027
vn -0.1731089 4.819745E-10 -0.9849027
vn -0.1731089 4.819745E-10 -0.9849027
vn -0.1731089 4.819745E-10 -0.9849027
vn 0.5448562 0 -0.8385295
vn 0.5448562 0 -0.8385295
vn 0.5448562 0 -0.8385295
vn 0.5448562 0 -0.8385295
vn 0.5448562 0 -0.8385295
vn 0.5448562 0 -0.8385295
vn 0.5448562 1.399725E-10 -0.8385295
vn 0.5448562 1.399725E-10 -0.8385295
vn 0.5448562 1.399725E-10 -0.8385295
vn -0.8386366 0 -0.5446913
vn -0.8386366 0 -0.5446913
vn -0.8386366 0 -0.5446913
vn -0.8386366 0 -0.5446913
vn -0.8386366 0 -0.5446913
vn -0.8386366 0 -0.5446913
vn -0.8386366 9.988092E-11 -0.5446913
vn -0.8386366 9.988092E-11 -0.5446913
vn -0.8386366 9.988092E-11 -0.5446913
vn -0.5462019 0 0.8376535
vn -0.5462019 0 0.8376535
vn -0.5462019 0 0.8376535
vn -0.5462019 0 0.8376535
vn -0.5462019 0 0.8376535
vn -0.5462019 0 0.8376535
vn -0.5462019 -2.416757E-10 0.8376535
vn -0.5462019 -2.416757E-10 0.8376535
vn -0.5462019 -2.416757E-10 0.8376535
vn 0 -1 0
vn 0 -1 0
vn 0 -1 0
vn 0 -1 0
vn 0 -1 0
vn 0 -1 0
vn 0 -1 0
vn 0 -1 0
vn 0 -1 0
vn 0 -1 0
vn 0 -1 0
vn 0 -1 0
vn 0 -1 0
vn 0 -1 0
vn 0 -1 0
vn 0 -1 0
vn 0 -1 0
vn 0 -1 0

g CDNNDG02_0000140
f 1/1/1 11/11/11 12/12/12
f 3/3/3 1/1/1 2/2/2
f 11/11/11 1/1/1 10/10/10
f 5/5/5 9/9/9 10/10/10
f 1/1/1 3/3/3 4/4/4
f 1/1/1 4/4/4 10/10/10
f 10/10/10 4/4/4 5/5/5
f 6/6/6 8/8/8 9/9/9
f 6/6/6 7/7/7 8/8/8
f 5/5/5 6/6/6 9/9/9
f 13/13/13 14/14/14 15/15/15
f 16/16/16 17/17/17 18/18/18
f 19/19/19 20/20/20 21/21/21
f 23/23/23 24/24/24 25/25/25
f 25/25/25 22/22/22 23/23/23
f 27/27/27 28/28/28 26/26/26
f 26/26/26 28/28/28 29/29/29
f 31/31/31 32/32/32 33/33/33
f 33/33/33 30/30/30 31/31/31
f 37/37/37 34/34/34 35/35/35
f 35/35/35 36/36/36 37/37/37
f 39/39/39 40/40/40 41/41/41
f 38/38/38 39/39/39 41/41/41
f 42/42/42 44/44/44 45/45/45
f 42/42/42 43/43/43 44/44/44
f 46/46/46 47/47/47 48/48/48
f 49/49/49 50/50/50 51/51/51
f 52/52/52 53/53/53 54/54/54
f 55/55/55 56/56/56 57/57/57
f 58/58/58 59/59/59 60/60/60
f 61/61/61 62/62/62 63/63/63
f 64/64/64 65/65/65 66/66/66
f 67/67/67 68/68/68 69/69/69
f 70/70/70 71/71/71 72/72/72
f 73/73/73 74/74/74 75/75/75
f 76/76/76 77/77/77 78/78/78
f 79/79/79 80/80/80 81/81/81
f 82/82/82 83/83/83 84/84/84
f 85/85/85 86/86/86 87/87/87
f 88/88/88 89/89/89 90/90/90
f 91/91/91 107/107/107 108/108/108
f 91/91/91 92/92/92 93/93/93
f 91/91/91 93/93/93 94/94/94
f 91/91/91 94/94/94 101/101/101
f 94/94/94 95/95/95 101/101/101
f 107/107/107 91/91/91 106/106/106
f 95/95/95 96/96/96 101/101/101
f 96/96/96 97/97/97 100/100/100
f 102/102/102 105/105/105 106/106/106
f 97/97/97 98/98/98 100/100/100
f 98/98/98 99/99/99 100/100/100
f 103/103/103 104/104/104 105/105/105
f 96/96/96 100/100/100 101/101/101
f 102/102/102 103/103/103 105/105/105
f 91/91/91 101/101/101 102/102/102
f 91/91/91 102/102/102 106/106/106
