v 1.413233 4.324411 -7.553897
v 4.848233 4.324411 -5.685897
v 5.510233 4.324411 -6.902897
v 2.075233 4.324411 -8.769897
v -3.804767 6.118411 3.375103
v -3.148767 6.118411 3.743103
v -2.800767 6.118411 3.122102
v -3.456767 6.118411 2.754102
v -0.7907671 4.715411 -8.253898
v 1.413233 4.715411 -7.553897
v -0.5817671 4.715411 -8.638898
v -0.7907671 4.715411 -8.253898
v 4.848233 4.715411 -5.685897
v 1.413233 4.715411 -7.553897
v -0.7907671 4.715411 -8.253898
v 6.799233 4.715411 -4.127898
v 4.848233 4.715411 -5.685897
v 4.848233 4.715411 -5.685897
v 6.799233 4.715411 -4.127898
v 7.008233 4.715411 -4.512897
v 1.805233 5.141411 5.577103
v 7.016233 5.141411 -4.009898
v 6.799233 5.141411 -4.127898
v -3.148767 5.111381 3.743103
v 1.805233 5.141411 5.577103
v -2.800767 5.139441 3.122102
v -3.543767 5.142411 2.631103
v -2.800767 5.139441 3.122102
v 1.805233 5.141411 5.577103
v -6.039767 4.936411 7.222103
v 1.805233 5.141411 5.577103
v -3.148767 5.111381 3.743103
v -3.804767 5.111736 3.375103
v -3.456767 5.139796 2.754102
v -3.543767 5.142411 2.631103
v -3.543767 5.142411 2.631103
v -3.456767 5.139796 2.754102
v -2.800767 5.139441 3.122102
v -6.039767 4.936411 7.222103
v -3.148767 5.111381 3.743103
v -3.804767 5.111736 3.375103
v -6.039767 4.936411 7.222103
v -3.804767 5.111736 3.375103
v -3.543767 5.142411 2.631103
v -6.039767 4.936411 7.222103
v -0.6747671 4.936411 10.1391
v 1.805233 5.141411 5.577103
v -6.252767 5.143411 1.159102
v -3.543767 5.142411 2.631103
v -0.7907671 5.143411 -8.253898
v -1.378205 5.142349 0.7201025
v 0.09910787 5.142036 1.530352
v 1.067483 5.142161 -1.043398
v -0.5498921 5.142536 -1.927397
v -0.5498921 5.142536 -1.927397
v 1.067483 5.142161 -1.043398
v 2.035858 5.142286 -3.617147
v 0.2784204 5.142724 -4.574897
v 0.09910787 5.142036 1.530352
v 1.57642 5.141724 2.340602
v 2.684858 5.141786 -0.1593975
v 1.067483 5.142161 -1.043398
v 1.067483 5.142161 -1.043398
v 2.684858 5.141786 -0.1593975
v 3.793295 5.141849 -2.659398
v 2.035858 5.142286 -3.617147
v -3.543767 5.142411 2.631103
v 0.09910787 5.142036 1.530352
v -1.378205 5.142349 0.7201025
v -3.543767 5.142411 2.631103
v 1.805233 5.141411 5.577103
v 0.09910787 5.142036 1.530352
v -3.543767 5.142411 2.631103
v -1.378205 5.142349 0.7201025
v -0.5498921 5.142536 -1.927397
v -0.7907671 5.143411 -8.253898
v -0.5498921 5.142536 -1.927397
v 0.2784204 5.142724 -4.574897
v -3.543767 5.142411 2.631103
v -0.5498921 5.142536 -1.927397
v -0.7907671 5.143411 -8.253898
v -0.7907671 5.143411 -8.253898
v 0.2784204 5.142724 -4.574897
v 2.035858 5.142286 -3.617147
v 1.57642 5.141724 2.340602
v 1.805233 5.141411 5.577103
v 2.684858 5.141786 -0.1593975
v 0.09910787 5.142036 1.530352
v 1.805233 5.141411 5.577103
v 1.57642 5.141724 2.340602
v 1.805233 5.141411 5.577103
v 6.799233 5.141411 -4.127898
v 2.684858 5.141786 -0.1593975
v 2.035858 5.142286 -3.617147
v 3.793295 5.141849 -2.659398
v 6.799233 5.141411 -4.127898
v 2.684858 5.141786 -0.1593975
v 6.799233 5.141411 -4.127898
v 3.793295 5.141849 -2.659398
v -0.7907671 5.143411 -8.253898
v 2.035858 5.142286 -3.617147
v 6.799233 5.141411 -4.127898
v -6.252767 5.143411 1.159102
v -0.7907671 5.143411 -8.253898
v -1.056767 5.143411 -8.398897
v 4.848233 -5.083305 -5.685897
v 5.510233 -5.083305 -6.902897
v 5.510233 4.324411 -6.902897
v 4.848233 4.324411 -5.685897
v 2.075233 4.324411 -8.769897
v 5.510233 4.324411 -6.902897
v 5.510233 -5.083305 -6.902897
v 2.075233 -5.083305 -8.769897
v 1.413233 4.324411 -7.553897
v 1.744233 -5.083305 -8.161898
v 1.413233 -5.083305 -7.553897
v 1.744233 -5.083305 -8.161898
v 2.075233 4.324411 -8.769897
v 2.075233 -5.083305 -8.769897
v 1.413233 4.324411 -7.553897
v 2.075233 4.324411 -8.769897
v 1.744233 -5.083305 -8.161898
v -3.804767 5.111736 3.375103
v -3.148767 5.111381 3.743103
v -3.148767 6.118411 3.743103
v -3.804767 6.118411 3.375103
v -3.148767 5.111381 3.743103
v -2.800767 5.139441 3.122102
v -2.800767 6.118411 3.122102
v -3.148767 6.118411 3.743103
v -3.456767 6.118411 2.754102
v -2.800767 6.118411 3.122102
v -2.800767 5.139441 3.122102
v -3.456767 5.139796 2.754102
v -3.804767 6.118411 3.375103
v -3.456767 6.118411 2.754102
v -3.456767 5.139796 2.754102
v -3.804767 5.111736 3.375103
v -0.7907671 4.715411 -8.253898
v -0.5817671 4.715411 -8.638898
v -0.5817671 -5.083305 -8.638898
v -0.7907671 -5.083305 -8.253898
v 6.799233 -5.083305 -4.127898
v 7.008233 -5.083305 -4.512897
v 7.008233 4.715411 -4.512897
v 6.799233 4.715411 -4.127898
v 4.848233 4.715411 -5.685897
v 7.008233 4.715411 -4.512897
v 4.848233 4.324411 -5.685897
v 4.848233 4.324411 -5.685897
v 7.008233 4.715411 -4.512897
v 7.008233 -5.083305 -4.512897
v 4.848233 -5.083305 -5.685897
v -0.5817671 4.715411 -8.638898
v 1.413233 4.324411 -7.553897
v 1.413233 -5.083305 -7.553897
v -0.5817671 -5.083305 -8.638898
v -0.5817671 4.715411 -8.638898
v 1.413233 4.715411 -7.553897
v 1.413233 4.324411 -7.553897
v 1.413233 4.715411 -7.553897
v 4.848233 4.715411 -5.685897
v 4.848233 4.324411 -5.685897
v 1.413233 4.324411 -7.553897
v -6.039767 4.936411 7.222103
v -3.543767 5.142411 2.631103
v -3.543767 -5.083305 2.631103
v -6.039767 -5.083305 7.222103
v -6.039767 -5.083305 7.222103
v -0.6747671 -5.083305 10.1391
v -0.6747671 4.936411 10.1391
v -6.039767 4.936411 7.222103
v -0.6747671 -5.083305 10.1391
v 1.805233 -5.083305 5.577103
v 1.805233 5.141411 5.577103
v -0.6747671 4.936411 10.1391
v 1.805233 -5.083305 5.577103
v 7.016233 -5.083305 -4.009898
v 7.016233 5.141411 -4.009898
v 1.805233 5.141411 5.577103
v 6.799233 5.141411 -4.127898
v 6.907733 -5.083305 -4.068898
v 6.799233 4.715411 -4.127898
v 6.799233 4.715411 -4.127898
v 6.907733 -5.083305 -4.068898
v 6.799233 -5.083305 -4.127898
v 6.907733 -5.083305 -4.068898
v 7.016233 5.141411 -4.009898
v 7.016233 -5.083305 -4.009898
v 6.799233 5.141411 -4.127898
v 7.016233 5.141411 -4.009898
v 6.907733 -5.083305 -4.068898
v -1.056767 5.143411 -8.398897
v -0.7907671 4.715411 -8.253898
v -0.7907671 -5.083305 -8.253898
v -1.056767 -5.083305 -8.398897
v -1.056767 5.143411 -8.398897
v -0.7907671 5.143411 -8.253898
v -0.7907671 4.715411 -8.253898
v -0.7907671 5.143411 -8.253898
v 6.799233 5.141411 -4.127898
v 6.799233 4.715411 -4.127898
v -0.7907671 4.715411 -8.253898
v -6.252767 5.143411 1.159102
v -1.056767 5.143411 -8.398897
v -1.056767 -5.083305 -8.398897
v -6.252767 -5.083305 1.159102
v -4.898267 -5.083305 1.895103
v -3.543767 -5.083305 2.631103
v -3.543767 5.142411 2.631103
v -6.252767 5.143411 1.159102
v -6.252767 -5.083305 1.159102
v -4.898267 -5.083305 1.895103
v -6.252767 5.143411 1.159102
v -4.898267 -5.083305 1.895103
v -3.543767 5.142411 2.631103
v -0.5817671 -5.083305 -8.638898
v 1.413233 -5.083305 -7.553897
v 1.744233 -5.083305 -8.161898
v 2.075233 -5.083305 -8.769897
v 5.510233 -5.083305 -6.902897
v 4.848233 -5.083305 -5.685897
v 7.008233 -5.083305 -4.512897
v 6.799233 -5.083305 -4.127898
v 6.907733 -5.083305 -4.068898
v 7.016233 -5.083305 -4.009898
v 1.805233 -5.083305 5.577103
v -0.6747671 -5.083305 10.1391
v -6.039767 -5.083305 7.222103
v -3.543767 -5.083305 2.631103
v -4.898267 -5.083305 1.895103
v -6.252767 -5.083305 1.159102
v -1.056767 -5.083305 -8.398897
v -0.7907671 -5.083305 -8.253898
vt 0.310278 0.858844
vt 0.384598 0.957145
vt 0.337561 0.976608
vt 0.263279 0.878307
vt 0.866100 0.858844
vt 0.880210 0.876865
vt 0.857066 0.886682
vt 0.842956 0.868661
vt 0.652393 0.394558
vt 0.680868 0.458252
vt 0.637413 0.400747
vt 0.652393 0.394558
vt 0.755680 0.557262
vt 0.680868 0.458252
vt 0.652393 0.394558
vt 0.817637 0.613331
vt 0.755680 0.557262
vt 0.755680 0.557262
vt 0.817637 0.613331
vt 0.802658 0.619520
vt 0.556609 0.234820
vt 0.179865 0.389697
vt 0.175092 0.383420
vt 0.481895 0.091267
vt 0.556609 0.234820
vt 0.457279 0.101552
vt 0.437473 0.080080
vt 0.457279 0.101552
vt 0.556609 0.234820
vt 0.619448 0.006292
vt 0.556609 0.234820
vt 0.481895 0.091267
vt 0.467017 0.072292
vt 0.442401 0.082576
vt 0.437473 0.080080
vt 0.437473 0.080080
vt 0.442401 0.082576
vt 0.457279 0.101552
vt 0.619448 0.006292
vt 0.481895 0.091267
vt 0.467017 0.072292
vt 0.619448 0.006292
vt 0.467017 0.072292
vt 0.437473 0.080080
vt 0.619448 0.006292
vt 0.737404 0.161472
vt 0.556609 0.234820
vt 0.377922 0.001701
vt 0.437473 0.080080
vt 0.008175 0.163842
vt 0.362917 0.143759
vt 0.395688 0.186497
vt 0.294335 0.215543
vt 0.258579 0.168752
vt 0.258579 0.168752
vt 0.294335 0.215543
vt 0.192985 0.244588
vt 0.154241 0.193745
vt 0.395688 0.186497
vt 0.428458 0.229234
vt 0.330092 0.262332
vt 0.294335 0.215543
vt 0.294335 0.215543
vt 0.330092 0.262332
vt 0.231727 0.295430
vt 0.192985 0.244588
vt 0.437473 0.080080
vt 0.395688 0.186497
vt 0.362917 0.143759
vt 0.437473 0.080080
vt 0.556609 0.234820
vt 0.395688 0.186497
vt 0.437473 0.080080
vt 0.362917 0.143759
vt 0.258579 0.168752
vt 0.008175 0.163842
vt 0.258579 0.168752
vt 0.154241 0.193745
vt 0.437473 0.080080
vt 0.258579 0.168752
vt 0.008175 0.163842
vt 0.008175 0.163842
vt 0.154241 0.193745
vt 0.192985 0.244588
vt 0.428458 0.229234
vt 0.556609 0.234820
vt 0.330092 0.262332
vt 0.395688 0.186497
vt 0.556609 0.234820
vt 0.428458 0.229234
vt 0.556609 0.234820
vt 0.175092 0.383420
vt 0.330092 0.262332
vt 0.192985 0.244588
vt 0.231727 0.295430
vt 0.175092 0.383420
vt 0.330092 0.262332
vt 0.175092 0.383420
vt 0.231727 0.295430
vt 0.008175 0.163842
vt 0.192985 0.244588
vt 0.175092 0.383420
vt 0.377922 0.001701
vt 0.008175 0.163842
vt 0.002309 0.156146
vt 0.511516 0.946573
vt 0.465070 0.965820
vt 0.390300 0.878314
vt 0.437283 0.858844
vt 0.013857 0.994898
vt 0.013857 0.994898
vt 0.013857 0.994898
vt 0.013857 0.994898
vt 0.661441 0.915429
vt 0.713611 0.868274
vt 0.736903 0.858844
vt 0.713611 0.868274
vt 0.614319 0.934506
vt 0.690319 0.877704
vt 0.661441 0.915429
vt 0.614319 0.934506
vt 0.713611 0.868274
vt 0.893865 0.858844
vt 0.907165 0.876651
vt 0.900150 0.882359
vt 0.886836 0.864528
vt 0.979168 0.860493
vt 0.956239 0.869532
vt 0.949192 0.867939
vt 0.971947 0.858844
vt 0.983834 0.858844
vt 0.983834 0.858844
vt 0.983834 0.858844
vt 0.983834 0.858844
vt 0.935167 0.864325
vt 0.912240 0.873570
vt 0.919355 0.868230
vt 0.942457 0.858844
vt 0.758490 0.916830
vt 0.743649 0.922832
vt 0.822342 0.864774
vt 0.837007 0.858844
vt 0.608266 0.949452
vt 0.593660 0.955518
vt 0.517321 0.864983
vt 0.532103 0.858844
vt 0.025404 0.994898
vt 0.025404 0.994898
vt 0.025404 0.994898
vt 0.025404 0.994898
vt 0.025404 0.994898
vt 0.025404 0.994898
vt 0.025404 0.994898
vt 0.025404 0.994898
vt 0.025404 0.994898
vt 0.025404 0.994898
vt 0.025404 0.994898
vt 0.025404 0.994898
vt 0.025404 0.994898
vt 0.025404 0.994898
vt 0.025404 0.994898
vt 0.025404 0.994898
vt 0.025404 0.994898
vt 0.025404 0.994898
vt 0.183641 0.917074
vt 0.002309 0.990967
vt 0.080234 0.930622
vt 0.257790 0.858844
vt 0.076225 0.641156
vt 0.190529 0.794079
vt 0.118025 0.854476
vt 0.002309 0.699669
vt 0.632483 0.412080
vt 0.455520 0.484686
vt 0.378854 0.467715
vt 0.559555 0.394558
vt 0.455520 0.484686
vt 0.083654 0.637238
vt 0.002309 0.622188
vt 0.378854 0.467715
vt 0.002309 0.994898
vt 0.002309 0.994898
vt 0.002309 0.994898
vt 0.002309 0.994898
vt 0.002309 0.994898
vt 0.002309 0.994898
vt 0.002309 0.994898
vt 0.002309 0.994898
vt 0.002309 0.994898
vt 0.002309 0.994898
vt 0.002309 0.994898
vt 0.002309 0.994898
vt 0.002309 0.994898
vt 0.002309 0.994898
vt 0.002309 0.994898
vt 0.002309 0.994898
vt 0.002309 0.994898
vt 0.002309 0.994898
vt 0.002309 0.994898
vt 0.002309 0.994898
vt 0.002309 0.994898
vt 0.002309 0.994898
vt 0.002309 0.994898
vt 0.572052 0.700825
vt 0.196305 0.852847
vt 0.279941 0.791291
vt 0.651022 0.641156
vt 0.762645 0.679598
vt 0.791353 0.718038
vt 0.714037 0.778412
vt 0.655889 0.700569
vt 0.733937 0.641156
vt 0.762645 0.679598
vt 0.655889 0.700569
vt 0.762645 0.679598
vt 0.714037 0.778412
vt 0.036952 0.994898
vt 0.036952 0.994898
vt 0.036952 0.994898
vt 0.036952 0.994898
vt 0.036952 0.994898
vt 0.036952 0.994898
vt 0.036952 0.994898
vt 0.036952 0.994898
vt 0.036952 0.994898
vt 0.036952 0.994898
vt 0.036952 0.994898
vt 0.036952 0.994898
vt 0.036952 0.994898
vt 0.036952 0.994898
vt 0.036952 0.994898
vt 0.036952 0.994898
vt 0.036952 0.994898
vt 0.036952 0.994898
vn 0 1 0
vn 0 1 0
vn 0 1 0
vn 0 1 0
vn 0 1 0
vn 0 1 0
vn 0 1 0
vn 0 1 0
vn 0 1 0
vn 0 1 0
vn 0 1 0
vn 0 1 0
vn 0 1 0
vn 0 1 0
vn 0 1 0
vn 0 1 0
vn 0 1 0
vn 0 1 0
vn 0 1 0
vn 0 1 0
vn 0 1 0
vn 0 1 0
vn 0 1 0
vn -0.01885956 0.9992239 0.03458215
vn -0.01885956 0.9992239 0.03458215
vn -0.01885956 0.9992239 0.03458215
vn -0.01885958 0.9992239 0.03458219
vn -0.01885958 0.9992239 0.03458219
vn -0.01885958 0.9992239 0.03458219
vn -0.01885956 0.9992239 0.03458215
vn -0.01885956 0.9992239 0.03458215
vn -0.01885956 0.9992239 0.03458215
vn -0.01885957 0.9992239 0.03458214
vn -0.01885957 0.9992239 0.03458214
vn -0.01885957 0.9992239 0.03458214
vn -0.01885953 0.9992239 0.03458211
vn -0.01885953 0.9992239 0.03458211
vn -0.01885953 0.9992239 0.03458211
vn -0.01885956 0.9992239 0.03458216
vn -0.01885956 0.9992239 0.03458216
vn -0.01885956 0.9992239 0.03458216
vn -0.01885959 0.9992239 0.03458214
vn -0.01885959 0.9992239 0.03458214
vn -0.01885959 0.9992239 0.03458214
vn -0.01884367 0.9992216 0.03465763
vn -0.01884367 0.9992216 0.03465763
vn -0.01884367 0.9992216 0.03465763
vn 0.0002806509 0.9999999 0.0001628509
vn 0.0002806509 0.9999999 0.0001628509
vn 0.0002806509 0.9999999 0.0001628509
vn 0.0001591052 1 0.0001143304
vn 0.0001532673 1 0.0001062342
vn 0.0001591052 1 0.0001143304
vn 0.0001649431 1 0.0001224266
vn 0.0001749991 1 0.0001198426
vn 0.0001702922 1 0.0001126398
vn 0.0001749991 1 0.0001198426
vn 0.0001797061 1 0.0001270454
vn 0.0001647091 1 0.0001040961
vn 0.0001591259 1 9.555243E-05
vn 0.0001647091 1 0.0001040961
vn 0.0001702922 1 0.0001126398
vn 0.0001801254 1 0.0001104505
vn 0.0001756317 1 0.0001028707
vn 0.0001801254 1 0.0001104505
vn 0.0001846191 1 0.0001180303
vn 0.0001415154 1 0.0001276612
vn 0.0001415154 1 0.0001276612
vn 0.0001415154 1 0.0001276612
vn 0.000132703 1 9.849684E-05
vn 0.000132703 1 9.849684E-05
vn 0.000132703 1 9.849684E-05
vn 0.0001261995 1 0.0001103051
vn 0.0001261995 1 0.0001103051
vn 0.0001261995 1 0.0001103051
vn 0.0001922996 1 0.0001309855
vn 0.0001922996 1 0.0001309855
vn 0.0001922996 1 0.0001309855
vn 0.0001595843 1 0.0001322311
vn 0.0001595843 1 0.0001322311
vn 0.0001595843 1 0.0001322311
vn 0.0001747849 1 0.0001360756
vn 0.0001747849 1 0.0001360756
vn 0.0001747849 1 0.0001360756
vn 0.0001391923 1 8.671438E-05
vn 0.0001391923 1 8.671438E-05
vn 0.0001391923 1 8.671438E-05
vn 0.0001649729 1 8.489175E-05
vn 0.0001649729 1 8.489175E-05
vn 0.0001649729 1 8.489175E-05
vn 0.0001809615 1 9.31192E-05
vn 0.0001809615 1 9.31192E-05
vn 0.0001809615 1 9.31192E-05
vn 0.0001944205 1 0.0001000449
vn 0.0001944205 1 0.0001000449
vn 0.0001944205 1 0.0001000449
vn 0.0002013777 1 0.0001142858
vn 0.0002013777 1 0.0001142858
vn 0.0002013777 1 0.0001142858
vn 0.0001968421 1 0.0001226292
vn 0.0001968421 1 0.0001226292
vn 0.0001968421 1 0.0001226292
vn 0 1 0
vn 0 1 0
vn 0 1 0
vn 0.8784467 0 0.4778404
vn 0.8784467 0 0.4778404
vn 0.8784467 0 0.4778404
vn 0.8784467 0 0.4778404
vn 0.4775434 0 -0.8786082
vn 0.4775434 0 -0.8786082
vn 0.4775434 0 -0.8786082
vn 0.4775434 0 -0.8786082
vn -0.8782817 0 -0.4781435
vn -0.8782817 0 -0.4781435
vn -0.8782817 0 -0.4781435
vn -0.8782817 0 -0.4781435
vn -0.8782817 0 -0.4781435
vn -0.8782817 0 -0.4781435
vn -0.8782817 2.717063E-12 -0.4781435
vn -0.8782817 2.717063E-12 -0.4781435
vn -0.8782817 2.717063E-12 -0.4781435
vn -0.489251 0 0.872143
vn -0.489251 0 0.872143
vn -0.489251 0 0.872143
vn -0.489251 0 0.872143
vn 0.8723623 0 0.48886
vn 0.8723623 0 0.48886
vn 0.8723623 0 0.48886
vn 0.8723623 0 0.48886
vn 0.489251 0 -0.872143
vn 0.489251 0 -0.872143
vn 0.489251 0 -0.872143
vn 0.489251 0 -0.872143
vn -0.8723623 0 -0.48886
vn -0.8723623 0 -0.48886
vn -0.8723623 0 -0.48886
vn -0.8723623 0 -0.48886
vn -0.8788534 0 -0.4770918
vn -0.8788534 0 -0.4770918
vn -0.8788534 0 -0.4770918
vn -0.8788534 0 -0.4770918
vn 0.8788534 0 0.4770918
vn 0.8788534 0 0.4770918
vn 0.8788534 0 0.4770918
vn 0.8788534 0 0.4770918
vn 0.4772265 0 -0.8787803
vn 0.4772265 0 -0.8787803
vn 0.4772265 0 -0.8787803
vn 0.4772265 0 -0.8787803
vn 0.4772265 0 -0.8787803
vn 0.4772265 0 -0.8787803
vn 0.4772265 0 -0.8787803
vn 0.4777719 0 -0.8784839
vn 0.4777719 0 -0.8784839
vn 0.4777719 0 -0.8784839
vn 0.4777719 0 -0.8784839
vn 0.4777719 0 -0.8784839
vn 0.4777719 0 -0.8784839
vn 0.4777719 0 -0.8784839
vn 0.4777408 0 -0.8785009
vn 0.4777408 0 -0.8785009
vn 0.4777408 0 -0.8785009
vn 0.4777408 0 -0.8785009
vn -0.8785529 0 -0.477645
vn -0.8785529 0 -0.477645
vn -0.8785529 0 -0.477645
vn -0.8785529 0 -0.477645
vn -0.47767 0 0.8785394
vn -0.47767 0 0.8785394
vn -0.47767 0 0.8785394
vn -0.47767 0 0.8785394
vn 0.8785718 0 0.4776103
vn 0.8785718 0 0.4776103
vn 0.8785718 0 0.4776103
vn 0.8785718 0 0.4776103
vn 0.8785986 0 0.477561
vn 0.8785986 0 0.477561
vn 0.8785986 0 0.477561
vn 0.8785986 0 0.477561
vn 0.4777171 0 -0.8785137
vn 0.4777171 0 -0.8785137
vn 0.4777171 0 -0.8785137
vn 0.4777171 0 -0.8785137
vn 0.4777171 0 -0.8785137
vn 0.4777171 0 -0.8785137
vn 0.4777171 0 -0.8785137
vn 0.4777171 0 -0.8785137
vn 0.4777171 0 -0.8785137
vn 0.4777171 -4.136968E-11 -0.8785137
vn 0.4777171 -4.136968E-11 -0.8785137
vn 0.4777171 -4.136968E-11 -0.8785137
vn 0.4786209 0 -0.8780217
vn 0.4786209 0 -0.8780217
vn 0.4786209 0 -0.8780217
vn 0.4786209 0 -0.8780217
vn 0.4786209 0 -0.8780217
vn 0.4786209 0 -0.8780217
vn 0.4786209 0 -0.8780217
vn 0.4776027 0 -0.8785759
vn 0.4776027 0 -0.8785759
vn 0.4776027 0 -0.8785759
vn 0.4776027 0 -0.8785759
vn -0.8785692 0 -0.4776151
vn -0.8785692 0 -0.4776151
vn -0.8785692 0 -0.4776151
vn -0.8785692 0 -0.4776151
vn -0.4774426 0 0.8786629
vn -0.4774426 0 0.8786629
vn -0.4774426 0 0.8786629
vn -0.4774426 0 0.8786629
vn -0.4774426 0 0.8786629
vn -0.4774426 0 0.8786629
vn -0.4774426 3.865202E-11 0.8786629
vn -0.4774426 3.865202E-11 0.8786629
vn -0.4774426 3.865202E-11 0.8786629
vn 0 -1 0
vn 0 -1 0
vn 0 -1 0
vn 0 -1 0
vn 0 -1 0
vn 0 -1 0
vn 0 -1 0
vn 0 -1 0
vn 0 -1 0
vn 0 -1 0
vn 0 -1 0
vn 0 -1 0
vn 0 -1 0
vn 0 -1 0
vn 0 -1 0
vn 0 -1 0
vn 0 -1 0
vn 0 -1 0

g CDNNDG01_0000870
f 4/4/4 1/1/1 2/2/2
f 3/3/3 4/4/4 2/2/2
f 8/8/8 5/5/5 7/7/7
f 7/7/7 5/5/5 6/6/6
f 9/9/9 10/10/10 11/11/11
f 12/12/12 13/13/13 14/14/14
f 15/15/15 16/16/16 17/17/17
f 18/18/18 19/19/19 20/20/20
f 21/21/21 22/22/22 23/23/23
f 24/24/24 25/25/25 26/26/26
f 27/27/27 28/28/28 29/29/29
f 30/30/30 31/31/31 32/32/32
f 33/33/33 34/34/34 35/35/35
f 36/36/36 37/37/37 38/38/38
f 39/39/39 40/40/40 41/41/41
f 42/42/42 43/43/43 44/44/44
f 45/45/45 46/46/46 47/47/47
f 48/48/48 49/49/49 50/50/50
f 54/54/54 51/51/51 53/53/53
f 53/53/53 51/51/51 52/52/52
f 58/58/58 55/55/55 57/57/57
f 57/57/57 55/55/55 56/56/56
f 62/62/62 59/59/59 61/61/61
f 61/61/61 59/59/59 60/60/60
f 66/66/66 63/63/63 65/65/65
f 65/65/65 63/63/63 64/64/64
f 67/67/67 68/68/68 69/69/69
f 70/70/70 71/71/71 72/72/72
f 73/73/73 74/74/74 75/75/75
f 76/76/76 77/77/77 78/78/78
f 79/79/79 80/80/80 81/81/81
f 82/82/82 83/83/83 84/84/84
f 85/85/85 86/86/86 87/87/87
f 88/88/88 89/89/89 90/90/90
f 91/91/91 92/92/92 93/93/93
f 94/94/94 95/95/95 96/96/96
f 97/97/97 98/98/98 99/99/99
f 100/100/100 101/101/101 102/102/102
f 103/103/103 104/104/104 105/105/105
f 107/107/107 108/108/108 106/106/106
f 106/106/106 108/108/108 109/109/109
f 112/112/112 110/110/110 111/111/111
f 110/110/110 112/112/112 113/113/113
f 114/114/114 115/115/115 116/116/116
f 117/117/117 118/118/118 119/119/119
f 120/120/120 121/121/121 122/122/122
f 123/123/123 125/125/125 126/126/126
f 125/125/125 123/123/123 124/124/124
f 128/128/128 129/129/129 130/130/130
f 127/127/127 128/128/128 130/130/130
f 134/134/134 131/131/131 132/132/132
f 132/132/132 133/133/133 134/134/134
f 138/138/138 135/135/135 137/137/137
f 137/137/137 135/135/135 136/136/136
f 139/139/139 141/141/141 142/142/142
f 139/139/139 140/140/140 141/141/141
f 144/144/144 145/145/145 146/146/146
f 143/143/143 144/144/144 146/146/146
f 147/147/147 148/148/148 149/149/149
f 152/152/152 150/150/150 151/151/151
f 150/150/150 152/152/152 153/153/153
f 155/155/155 156/156/156 157/157/157
f 154/154/154 155/155/155 157/157/157
f 158/158/158 159/159/159 160/160/160
f 161/161/161 163/163/163 164/164/164
f 161/161/161 162/162/162 163/163/163
f 168/168/168 165/165/165 167/167/167
f 167/167/167 165/165/165 166/166/166
f 172/172/172 169/169/169 171/171/171
f 171/171/171 169/169/169 170/170/170
f 174/174/174 175/175/175 176/176/176
f 173/173/173 174/174/174 176/176/176
f 180/180/180 177/177/177 179/179/179
f 178/178/178 179/179/179 177/177/177
f 181/181/181 182/182/182 183/183/183
f 184/184/184 185/185/185 186/186/186
f 187/187/187 188/188/188 189/189/189
f 190/190/190 191/191/191 192/192/192
f 195/195/195 196/196/196 194/194/194
f 193/193/193 194/194/194 196/196/196
f 197/197/197 198/198/198 199/199/199
f 203/203/203 200/200/200 201/201/201
f 201/201/201 202/202/202 203/203/203
f 204/204/204 206/206/206 207/207/207
f 204/204/204 205/205/205 206/206/206
f 208/208/208 209/209/209 210/210/210
f 211/211/211 212/212/212 213/213/213
f 214/214/214 215/215/215 216/216/216
f 234/234/234 218/218/218 230/230/230
f 229/229/229 227/227/227 228/228/228
f 234/234/234 231/231/231 232/232/232
f 234/234/234 217/217/217 218/218/218
f 230/230/230 222/222/222 227/227/227
f 219/219/219 220/220/220 221/221/221
f 221/221/221 222/222/222 219/219/219
f 222/222/222 224/224/224 227/227/227
f 222/222/222 218/218/218 219/219/219
f 230/230/230 231/231/231 234/234/234
f 230/230/230 227/227/227 229/229/229
f 224/224/224 222/222/222 223/223/223
f 225/225/225 226/226/226 227/227/227
f 234/234/234 232/232/232 233/233/233
f 227/227/227 224/224/224 225/225/225
f 222/222/222 230/230/230 218/218/218
