v -0.4769846 5.77152 -5.270212
v -0.005984555 5.77152 -4.962212
v 2.630015 5.77152 -10.02121
v -0.005984555 5.77152 -4.962212
v 2.237015 5.77152 -3.126212
v 5.513015 5.77152 -8.136212
v -0.03363724 5.77152 -4.919978
v 2.237015 5.77152 -3.126212
v -0.005984555 5.77152 -4.962212
v -0.005984555 5.77152 -4.962212
v 5.513015 5.77152 -8.136212
v 2.630015 5.77152 -10.02121
v -0.3049845 5.77152 7.744788
v 5.009016 5.77152 0.136788
v 2.600015 5.77152 -1.438212
v -3.039984 5.77152 6.014788
v -0.3398491 5.77152 -4.452293
v 2.237015 5.77152 -3.126212
v -0.03363724 5.77152 -4.919978
v -3.039984 5.77152 6.014788
v -2.747985 5.77152 7.102788
v -0.3049845 5.77152 7.744788
v -2.352311 5.77152 1.465526
v 2.600015 5.77152 -1.438212
v -1.947062 5.77152 0.846555
v -1.947062 5.77152 0.846555
v 2.600015 5.77152 -1.438212
v -0.8429846 5.77152 -4.711212
v -6.457984 5.77152 3.874788
v -3.039984 5.77152 6.014788
v -2.352311 5.77152 1.465526
v -3.039984 5.77152 6.014788
v 2.600015 5.77152 -1.438212
v -2.352311 5.77152 1.465526
v -6.457984 5.77152 3.874788
v -2.352311 5.77152 1.465526
v -2.50147 5.77152 1.368163
v -3.45582 5.77152 -0.1402185
v -2.096221 5.77152 0.7491925
v -0.8429846 5.77152 -4.711212
v -2.096221 5.77152 0.7491925
v -1.947062 5.77152 0.846555
v -0.8429846 5.77152 -4.711212
v -6.457984 5.77152 3.874788
v -3.861069 5.77152 0.4795744
v -3.45582 5.77152 -0.1402185
v -6.457984 5.77152 3.874788
v -3.45582 5.77152 -0.1402185
v -0.8429846 5.77152 -4.711212
v -6.457984 5.77152 3.874788
v -2.50147 5.77152 1.368163
v -3.861069 5.77152 0.4795744
v -2.747985 5.77152 7.102788
v -1.424985 5.77152 7.955788
v -0.3049845 5.77152 7.744788
v -0.3049845 5.77152 7.744788
v -0.06698456 5.77152 7.899788
v 5.009016 5.77152 0.136788
v -0.3398491 5.77152 -4.452293
v 2.600015 5.77152 -1.438212
v 2.237015 5.77152 -3.126212
v -0.8429846 5.77152 -4.711212
v 2.600015 5.77152 -1.438212
v -0.3719845 5.77152 -4.403212
v -0.3719845 5.77152 -4.403212
v 2.600015 5.77152 -1.438212
v -0.3398491 5.77152 -4.452293
v -0.4769846 6.71552 -5.270212
v -0.3719845 6.71652 -4.403212
v -0.005984555 6.71652 -4.962212
v -0.8429846 6.71652 -4.711212
v -0.3719845 6.71652 -4.403212
v -0.4769846 6.71552 -5.270212
v -3.861069 5.77152 0.4795744
v -3.334985 6.02552 0.427788
v -3.45582 5.77152 -0.1402185
v -2.50147 5.77152 1.368163
v -2.352311 5.77152 1.465526
v -2.496984 6.02552 0.974788
v -3.334985 6.02552 0.427788
v -2.50147 5.77152 1.368163
v -2.496984 6.02552 0.974788
v -3.861069 5.77152 0.4795744
v -2.50147 5.77152 1.368163
v -3.334985 6.02552 0.427788
v -3.45582 5.77152 -0.1402185
v -3.334985 6.02552 0.427788
v -2.096221 5.77152 0.7491925
v -3.334985 6.02552 0.427788
v -2.496984 6.02552 0.974788
v -2.096221 5.77152 0.7491925
v -2.496984 6.02552 0.974788
v -1.947062 5.77152 0.846555
v -2.096221 5.77152 0.7491925
v -2.496984 6.02552 0.974788
v -2.352311 5.77152 1.465526
v -1.947062 5.77152 0.846555
v -1.424985 -5.776937 7.955788
v -0.3049845 -5.776937 7.744788
v -0.3049845 5.77152 7.744788
v -1.424985 5.77152 7.955788
v -0.3049845 -5.776937 7.744788
v -0.06698456 -5.776937 7.899788
v -0.06698456 5.77152 7.899788
v -0.3049845 5.77152 7.744788
v -0.06698456 -5.776937 7.899788
v 5.009016 -5.776937 0.136788
v 5.009016 5.77152 0.136788
v -0.06698456 5.77152 7.899788
v 2.600015 5.77152 -1.438212
v 3.804515 -5.776937 -0.650712
v 2.600015 -5.776937 -1.438212
v 3.804515 -5.776937 -0.650712
v 5.009016 5.77152 0.136788
v 5.009016 -5.776937 0.136788
v 2.600015 5.77152 -1.438212
v 5.009016 5.77152 0.136788
v 3.804515 -5.776937 -0.650712
v 2.237015 5.77152 -3.126212
v 2.418515 -5.776937 -2.282212
v 2.237015 -5.776937 -3.126212
v 2.418515 -5.776937 -2.282212
v 2.600015 5.77152 -1.438212
v 2.600015 -5.776937 -1.438212
v 2.237015 5.77152 -3.126212
v 2.600015 5.77152 -1.438212
v 2.418515 -5.776937 -2.282212
v 2.237015 -5.776937 -3.126212
v 5.513015 -5.776937 -8.136212
v 5.513015 5.77152 -8.136212
v 2.237015 5.77152 -3.126212
v 2.630015 5.77152 -10.02121
v 4.071516 -5.776937 -9.078712
v 2.630015 -5.776937 -10.02121
v 4.071516 -5.776937 -9.078712
v 5.513015 5.77152 -8.136212
v 5.513015 -5.776937 -8.136212
v 2.630015 5.77152 -10.02121
v 5.513015 5.77152 -8.136212
v 4.071516 -5.776937 -9.078712
v -0.4769846 5.77152 -5.270212
v 1.076515 -5.776937 -7.645712
v -0.4769846 -5.776937 -5.270212
v 1.076515 -5.776937 -7.645712
v 2.630015 5.77152 -10.02121
v 2.630015 -5.776937 -10.02121
v -0.4769846 5.77152 -5.270212
v 2.630015 5.77152 -10.02121
v 1.076515 -5.776937 -7.645712
v -0.8429846 5.77152 -4.711212
v -0.6599845 -5.776937 -4.990712
v -0.8429846 -5.776937 -4.711212
v -0.6599845 -5.776937 -4.990712
v -0.4769846 5.77152 -5.270212
v -0.4769846 -5.776937 -5.270212
v -0.8429846 5.77152 -4.711212
v -0.4769846 5.77152 -5.270212
v -0.6599845 -5.776937 -4.990712
v -6.457984 5.77152 3.874788
v -0.8429846 5.77152 -4.711212
v -0.8429846 -5.776937 -4.711212
v -6.457984 -5.776937 3.874788
v -0.8429846 6.71652 -4.711212
v -0.4769846 6.71552 -5.270212
v -0.4769846 5.77152 -5.270212
v -0.8429846 5.77152 -4.711212
v -6.457984 -5.776937 3.874788
v -3.039984 -5.776937 6.014788
v -3.039984 5.77152 6.014788
v -6.457984 5.77152 3.874788
v -3.039984 -5.776937 6.014788
v -2.747985 -5.776937 7.102788
v -2.747985 5.77152 7.102788
v -3.039984 5.77152 6.014788
v -2.747985 -5.776937 7.102788
v -1.424985 -5.776937 7.955788
v -1.424985 5.77152 7.955788
v -2.747985 5.77152 7.102788
v -0.8429846 5.77152 -4.711212
v -0.3719845 5.77152 -4.403212
v -0.3719845 6.71652 -4.403212
v -0.8429846 6.71652 -4.711212
v -0.03363724 5.77152 -4.919978
v -0.005984555 5.77152 -4.962212
v -0.005984555 6.71652 -4.962212
v -0.3398491 5.77152 -4.452293
v -0.03363724 5.77152 -4.919978
v -0.005984555 6.71652 -4.962212
v -0.3719845 6.71652 -4.403212
v -0.3719845 6.71652 -4.403212
v -0.3719845 5.77152 -4.403212
v -0.3398491 5.77152 -4.452293
v -0.4769846 6.71552 -5.270212
v -0.005984555 6.71652 -4.962212
v -0.005984555 5.77152 -4.962212
v -0.4769846 5.77152 -5.270212
v -2.747985 -5.776937 7.102788
v -3.039984 -5.776937 6.014788
v -6.457984 -5.776937 3.874788
v -0.8429846 -5.776937 -4.711212
v -0.6599845 -5.776937 -4.990712
v -0.4769846 -5.776937 -5.270212
v 1.076515 -5.776937 -7.645712
v 2.630015 -5.776937 -10.02121
v 4.071516 -5.776937 -9.078712
v 5.513015 -5.776937 -8.136212
v 2.237015 -5.776937 -3.126212
v 2.418515 -5.776937 -2.282212
v 2.600015 -5.776937 -1.438212
v 3.804515 -5.776937 -0.650712
v 5.009016 -5.776937 0.136788
v -0.06698456 -5.776937 7.899788
v -0.3049845 -5.776937 7.744788
v -1.424985 -5.776937 7.955788
vt 0.538625 0.180825
vt 0.526762 0.166253
vt 0.734780 0.090965
vt 0.526762 0.166253
vt 0.455330 0.096514
vt 0.662179 0.001764
vt 0.525019 0.167053
vt 0.455330 0.096514
vt 0.526762 0.166253
vt 0.526762 0.166253
vt 0.662179 0.001764
vt 0.734780 0.090965
vt 0.012302 0.163577
vt 0.326833 0.009406
vt 0.387498 0.083942
vt 0.078828 0.248141
vt 0.505709 0.175909
vt 0.455330 0.096514
vt 0.525019 0.167053
vt 0.078828 0.248141
vt 0.035181 0.238278
vt 0.012302 0.163577
vt 0.263744 0.231486
vt 0.387498 0.083942
vt 0.289299 0.219765
vt 0.289299 0.219765
vt 0.387498 0.083942
vt 0.515546 0.191411
vt 0.161073 0.353799
vt 0.078828 0.248141
vt 0.263744 0.231486
vt 0.078828 0.248141
vt 0.387498 0.083942
vt 0.263744 0.231486
vt 0.161073 0.353799
vt 0.263744 0.231486
vt 0.267494 0.236101
vt 0.327307 0.266444
vt 0.293049 0.224380
vt 0.515546 0.191411
vt 0.293049 0.224380
vt 0.289299 0.219765
vt 0.515546 0.191411
vt 0.161073 0.353799
vt 0.301719 0.278164
vt 0.327307 0.266444
vt 0.161073 0.353799
vt 0.327307 0.266444
vt 0.515546 0.191411
vt 0.161073 0.353799
vt 0.267494 0.236101
vt 0.301719 0.278164
vt 0.035181 0.238278
vt 0.002347 0.197357
vt 0.012302 0.163577
vt 0.012302 0.163577
vt 0.006332 0.156214
vt 0.326833 0.009406
vt 0.505709 0.175909
vt 0.387498 0.083942
vt 0.455330 0.096514
vt 0.515546 0.191411
vt 0.387498 0.083942
vt 0.503683 0.176839
vt 0.503683 0.176839
vt 0.387498 0.083942
vt 0.505709 0.175909
vt 0.591433 0.902572
vt 0.558685 0.898830
vt 0.580321 0.888889
vt 0.569806 0.912515
vt 0.558685 0.898830
vt 0.591433 0.902572
vt 0.619718 0.904946
vt 0.624133 0.888889
vt 0.643186 0.894141
vt 0.470726 0.893386
vt 0.467136 0.888889
vt 0.487917 0.892095
vt 0.508091 0.917368
vt 0.470726 0.893386
vt 0.487917 0.892095
vt 0.503490 0.934377
vt 0.470726 0.893386
vt 0.508091 0.917368
vt 0.553706 0.934064
vt 0.534051 0.930588
vt 0.521247 0.893355
vt 0.534051 0.930588
vt 0.514085 0.905490
vt 0.521247 0.893355
vt 0.514085 0.905490
vt 0.517695 0.888889
vt 0.521247 0.893355
vt 0.667718 0.904405
vt 0.647887 0.899490
vt 0.671193 0.888889
vt 0.363850 0.921374
vt 0.373466 0.888889
vt 0.460814 0.913725
vt 0.451060 0.946675
vt 0.271060 0.965507
vt 0.265258 0.958325
vt 0.352205 0.888889
vt 0.358090 0.896175
vt 0.340376 0.838847
vt 0.655560 0.694885
vt 0.748909 0.718047
vt 0.429212 0.864068
vt 0.159230 0.883715
vt 0.032690 0.730871
vt 0.063032 0.766856
vt 0.032690 0.730871
vt 0.097681 0.810719
vt 0.002347 0.694885
vt 0.159230 0.883715
vt 0.097681 0.810719
vt 0.032690 0.730871
vt 0.919267 0.822706
vt 0.788967 0.700542
vt 0.822065 0.706198
vt 0.788967 0.700542
vt 0.852127 0.811232
vt 0.755869 0.694885
vt 0.919267 0.822706
vt 0.852127 0.811232
vt 0.788967 0.700542
vt 0.676056 0.453441
vt 0.876014 0.358025
vt 0.976700 0.473803
vt 0.773889 0.570577
vt 0.734742 0.888889
vt 0.734742 0.888889
vt 0.734742 0.888889
vt 0.734742 0.888889
vt 0.734742 0.888889
vt 0.734742 0.888889
vt 0.734742 0.888889
vt 0.734742 0.888889
vt 0.734742 0.888889
vt 0.472922 0.448672
vt 0.473712 0.474286
vt 0.376514 0.518965
vt 0.473712 0.474286
vt 0.670120 0.358025
vt 0.570911 0.429606
vt 0.472922 0.448672
vt 0.670120 0.358025
vt 0.473712 0.474286
vt 0.449720 0.459351
vt 0.365078 0.524229
vt 0.353641 0.529492
vt 0.365078 0.524229
vt 0.472922 0.448672
vt 0.376514 0.518965
vt 0.449720 0.459351
vt 0.472922 0.448672
vt 0.365078 0.524229
vt 0.093364 0.623160
vt 0.449720 0.459351
vt 0.353641 0.529492
vt 0.002347 0.690974
vt 0.457704 0.453521
vt 0.480925 0.442837
vt 0.472922 0.448672
vt 0.449720 0.459351
vt 0.245147 0.868233
vt 0.164319 0.763880
vt 0.253259 0.694885
vt 0.335249 0.800742
vt 0.171782 0.966806
vt 0.129108 0.957204
vt 0.217070 0.888889
vt 0.260359 0.898629
vt 0.034439 0.998396
vt 0.002347 0.958210
vt 0.089730 0.888889
vt 0.122283 0.929654
vt 0.606899 0.907795
vt 0.596244 0.894276
vt 0.603354 0.888889
vt 0.614022 0.902423
vt 0.695932 0.889592
vt 0.697556 0.888889
vt 0.705018 0.890752
vt 0.677944 0.897380
vt 0.695932 0.889592
vt 0.705018 0.890752
vt 0.683493 0.900072
vt 0.683493 0.900072
vt 0.676056 0.898198
vt 0.677944 0.897380
vt 0.711268 0.888889
vt 0.711268 0.888889
vt 0.711268 0.888889
vt 0.711268 0.888889
vt 0.723005 0.888889
vt 0.723005 0.888889
vt 0.723005 0.888889
vt 0.723005 0.888889
vt 0.723005 0.888889
vt 0.723005 0.888889
vt 0.723005 0.888889
vt 0.723005 0.888889
vt 0.723005 0.888889
vt 0.723005 0.888889
vt 0.723005 0.888889
vt 0.723005 0.888889
vt 0.723005 0.888889
vt 0.723005 0.888889
vt 0.723005 0.888889
vt 0.723005 0.888889
vt 0.723005 0.888889
vt 0.723005 0.888889
vn 0 1 0
vn 0 1 0
vn 0 1 0
vn 0 1 0
vn 0 1 0
vn 0 1 0
vn 0 1 0
vn 0 1 0
vn 0 1 0
vn 0 1 0
vn 0 1 0
vn 0 1 0
vn 0 1 0
vn 0 1 0
vn 0 1 0
vn 0 1 0
vn 0 1 0
vn 0 1 0
vn 0 1 0
vn 0 1 0
vn 0 1 0
vn 0 1 0
vn 0 1 0
vn 0 1 0
vn 0 1 0
vn 0 1 0
vn 0 1 0
vn 0 1 0
vn 0 1 0
vn 0 1 0
vn 0 1 0
vn 0 1 0
vn 0 1 0
vn 0 1 0
vn 0 1 0
vn 0 1 0
vn 0 1 0
vn 0 1 0
vn 0 1 0
vn 0 1 0
vn 0 1 0
vn 0 1 0
vn 0 1 0
vn 0 1 0
vn 0 1 0
vn 0 1 0
vn 0 1 0
vn 0 1 0
vn 0 1 0
vn 0 1 0
vn 0 1 0
vn 0 1 0
vn 0 1 0
vn 0 1 0
vn 0 1 0
vn 0 1 0
vn 0 1 0
vn 0 1 0
vn 0 1 0
vn 0 1 0
vn 0 1 0
vn 0 1 0
vn 0 1 0
vn 0 1 0
vn 0 1 0
vn 0 1 0
vn 0 1 0
vn -0.001486633 0.9999985 -0.0009733587
vn -0.001486633 0.9999985 -0.0009733587
vn -0.001486633 0.9999985 -0.0009733587
vn 0.000819111 0.9999989 -0.001252602
vn 0.000819111 0.9999989 -0.001252602
vn 0.000819111 0.9999989 -0.001252602
vn -0.4392506 0.8512189 -0.2872023
vn -0.4392506 0.8512189 -0.2872023
vn -0.4392506 0.8512189 -0.2872023
vn -0.3322188 0.7940993 0.5089568
vn -0.3322188 0.7940993 0.5089568
vn -0.3322188 0.7940993 0.5089568
vn -0.3322188 0.7940993 0.5089568
vn -0.3322188 0.7940993 0.5089568
vn -0.3322188 0.7940993 0.5089568
vn -0.3329541 0.7934803 0.5094413
vn -0.3329541 0.7934803 0.5094413
vn -0.3329541 0.7934803 0.5094413
vn 0.2887194 0.8496177 -0.4413511
vn 0.2887194 0.8496177 -0.4413511
vn 0.2887194 0.8496177 -0.4413511
vn 0.2888958 0.848915 -0.4425862
vn 0.2888958 0.848915 -0.4425862
vn 0.2888958 0.848915 -0.4425862
vn 0.2888958 0.848915 -0.4425862
vn 0.2888958 0.848915 -0.4425862
vn 0.2888958 0.848915 -0.4425862
vn 0.4567167 0.8378528 0.2990191
vn 0.4567167 0.8378528 0.2990191
vn 0.4567167 0.8378528 0.2990191
vn 0.1851361 0 0.9827129
vn 0.1851361 0 0.9827129
vn 0.1851361 0 0.9827129
vn 0.1851361 0 0.9827129
vn -0.5457307 0 0.8379607
vn -0.5457307 0 0.8379607
vn -0.5457307 0 0.8379607
vn -0.5457307 0 0.8379607
vn 0.8369601 0 0.5472639
vn 0.8369601 0 0.5472639
vn 0.8369601 0 0.5472639
vn 0.8369601 0 0.5472639
vn 0.5472213 0 -0.836988
vn 0.5472213 0 -0.836988
vn 0.5472213 0 -0.836988
vn 0.5472213 0 -0.836988
vn 0.5472213 0 -0.836988
vn 0.5472213 0 -0.836988
vn 0.5472213 -3.374935E-11 -0.836988
vn 0.5472213 -3.374935E-11 -0.836988
vn 0.5472213 -3.374935E-11 -0.836988
vn 0.9776496 0 -0.210241
vn 0.9776496 0 -0.210241
vn 0.9776496 0 -0.210241
vn 0.9776496 0 -0.210241
vn 0.9776496 0 -0.210241
vn 0.9776496 0 -0.210241
vn 0.9776496 0 -0.210241
vn 0.9776496 0 -0.210241
vn 0.9776496 0 -0.210241
vn 0.836952 0 0.5472764
vn 0.836952 0 0.5472764
vn 0.836952 0 0.5472764
vn 0.836952 0 0.5472764
vn 0.5472416 0 -0.8369747
vn 0.5472416 0 -0.8369747
vn 0.5472416 0 -0.8369747
vn 0.5472416 0 -0.8369747
vn 0.5472416 0 -0.8369747
vn 0.5472416 0 -0.8369747
vn 0.5472416 0 -0.8369747
vn 0.5472416 0 -0.8369747
vn 0.5472416 0 -0.8369747
vn -0.8369231 0 -0.5473205
vn -0.8369231 0 -0.5473205
vn -0.8369231 0 -0.5473205
vn -0.8369231 0 -0.5473205
vn -0.8369231 0 -0.5473205
vn -0.8369231 0 -0.5473205
vn -0.8369231 -2.10916E-12 -0.5473205
vn -0.8369231 -2.10916E-12 -0.5473205
vn -0.8369231 -2.10916E-12 -0.5473205
vn -0.8366267 0 -0.5477735
vn -0.8366267 0 -0.5477735
vn -0.8366267 0 -0.5477735
vn -0.8366267 0 -0.5477735
vn -0.8366267 0 -0.5477735
vn -0.8366267 0 -0.5477735
vn -0.8366267 -2.419595E-11 -0.5477735
vn -0.8366267 -2.419595E-11 -0.5477735
vn -0.8366267 -2.419595E-11 -0.5477735
vn -0.8369215 0 -0.5473229
vn -0.8369215 0 -0.5473229
vn -0.8369215 0 -0.5473229
vn -0.8369215 0 -0.5473229
vn -0.8366267 0 -0.5477735
vn -0.8366267 0 -0.5477735
vn -0.8366267 0 -0.5477735
vn -0.8366267 0 -0.5477735
vn -0.5306675 0 0.8475801
vn -0.5306675 0 0.8475801
vn -0.5306675 0 0.8475801
vn -0.5306675 0 0.8475801
vn -0.9658211 0 0.2592094
vn -0.9658211 0 0.2592094
vn -0.9658211 0 0.2592094
vn -0.9658211 0 0.2592094
vn -0.5418808 0 0.8404553
vn -0.5418808 0 0.8404553
vn -0.5418808 0 0.8404553
vn -0.5418808 0 0.8404553
vn -0.5472972 0 0.8369383
vn -0.5472972 0 0.8369383
vn -0.5472972 0 0.8369383
vn -0.5472972 0 0.8369383
vn 0.8366266 0 0.5477735
vn 0.8366266 0 0.5477735
vn 0.8366266 0 0.5477735
vn 0.8366267 -3.127854E-11 0.5477735
vn 0.8366267 -2.19485E-09 0.5477735
vn 0.8366267 -3.127854E-11 0.5477735
vn 0.8366267 2.132293E-09 0.5477735
vn 0.8366266 0 0.5477735
vn 0.8366266 0 0.5477735
vn 0.8366266 0 0.5477735
vn 0.5472972 0 -0.8369383
vn 0.5472972 0 -0.8369383
vn 0.5472972 0 -0.8369383
vn 0.5472972 0 -0.8369383
vn 0 -1 0
vn 0 -1 0
vn 0 -1 0
vn 0 -1 0
vn 0 -1 0
vn 0 -1 0
vn 0 -1 0
vn 0 -1 0
vn 0 -1 0
vn 0 -1 0
vn 0 -1 0
vn 0 -1 0
vn 0 -1 0
vn 0 -1 0
vn 0 -1 0
vn 0 -1 0
vn 0 -1 0
vn 0 -1 0

g CDNNDG02_0013260
f 1/1/1 2/2/2 3/3/3
f 4/4/4 5/5/5 6/6/6
f 7/7/7 8/8/8 9/9/9
f 10/10/10 11/11/11 12/12/12
f 13/13/13 15/15/15 16/16/16
f 13/13/13 14/14/14 15/15/15
f 17/17/17 18/18/18 19/19/19
f 20/20/20 21/21/21 22/22/22
f 23/23/23 24/24/24 25/25/25
f 26/26/26 27/27/27 28/28/28
f 29/29/29 30/30/30 31/31/31
f 32/32/32 33/33/33 34/34/34
f 35/35/35 36/36/36 37/37/37
f 38/38/38 39/39/39 40/40/40
f 41/41/41 42/42/42 43/43/43
f 44/44/44 45/45/45 46/46/46
f 47/47/47 48/48/48 49/49/49
f 50/50/50 51/51/51 52/52/52
f 53/53/53 54/54/54 55/55/55
f 56/56/56 57/57/57 58/58/58
f 59/59/59 60/60/60 61/61/61
f 62/62/62 63/63/63 64/64/64
f 65/65/65 66/66/66 67/67/67
f 68/68/68 69/69/69 70/70/70
f 71/71/71 72/72/72 73/73/73
f 74/74/74 75/75/75 76/76/76
f 77/77/77 78/78/78 79/79/79
f 80/80/80 81/81/81 82/82/82
f 83/83/83 84/84/84 85/85/85
f 86/86/86 87/87/87 88/88/88
f 89/89/89 90/90/90 91/91/91
f 92/92/92 93/93/93 94/94/94
f 95/95/95 96/96/96 97/97/97
f 98/98/98 100/100/100 101/101/101
f 98/98/98 99/99/99 100/100/100
f 105/105/105 102/102/102 104/104/104
f 104/104/104 102/102/102 103/103/103
f 109/109/109 106/106/106 107/107/107
f 107/107/107 108/108/108 109/109/109
f 110/110/110 111/111/111 112/112/112
f 113/113/113 114/114/114 115/115/115
f 116/116/116 117/117/117 118/118/118
f 119/119/119 120/120/120 121/121/121
f 122/122/122 123/123/123 124/124/124
f 125/125/125 126/126/126 127/127/127
f 128/128/128 130/130/130 131/131/131
f 128/128/128 129/129/129 130/130/130
f 132/132/132 133/133/133 134/134/134
f 135/135/135 136/136/136 137/137/137
f 138/138/138 139/139/139 140/140/140
f 141/141/141 142/142/142 143/143/143
f 144/144/144 145/145/145 146/146/146
f 147/147/147 148/148/148 149/149/149
f 150/150/150 151/151/151 152/152/152
f 153/153/153 154/154/154 155/155/155
f 156/156/156 157/157/157 158/158/158
f 162/162/162 159/159/159 161/161/161
f 161/161/161 159/159/159 160/160/160
f 166/166/166 164/164/164 165/165/165
f 166/166/166 163/163/163 164/164/164
f 167/167/167 169/169/169 170/170/170
f 169/169/169 167/167/167 168/168/168
f 171/171/171 173/173/173 174/174/174
f 171/171/171 172/172/172 173/173/173
f 175/175/175 177/177/177 178/178/178
f 177/177/177 175/175/175 176/176/176
f 182/182/182 179/179/179 181/181/181
f 181/181/181 179/179/179 180/180/180
f 183/183/183 184/184/184 185/185/185
f 186/186/186 187/187/187 188/188/188
f 189/189/189 186/186/186 188/188/188
f 190/190/190 191/191/191 192/192/192
f 196/196/196 193/193/193 195/195/195
f 194/194/194 195/195/195 193/193/193
f 214/214/214 197/197/197 213/213/213
f 211/211/211 212/212/212 213/213/213
f 213/213/213 198/198/198 210/210/210
f 207/207/207 200/200/200 201/201/201
f 209/209/209 200/200/200 208/208/208
f 213/213/213 197/197/197 198/198/198
f 203/203/203 207/207/207 202/202/202
f 206/206/206 207/207/207 203/203/203
f 206/206/206 203/203/203 205/205/205
f 203/203/203 204/204/204 205/205/205
f 213/213/213 210/210/210 211/211/211
f 201/201/201 202/202/202 207/207/207
f 209/209/209 210/210/210 198/198/198
f 199/199/199 200/200/200 209/209/209
f 207/207/207 208/208/208 200/200/200
f 199/199/199 209/209/209 198/198/198
