v -0.9654312 6.710689 6.563455
v 5.539569 6.709689 -3.650545
v 0.9655688 6.710689 -6.563545
v -5.539431 6.711689 3.650455
v -0.9654312 -6.710689 6.563455
v 5.539569 -6.710689 -3.650545
v 5.539569 6.709689 -3.650545
v -0.9654312 6.710689 6.563455
v 0.9655688 6.710689 -6.563545
v 5.539569 6.709689 -3.650545
v 5.539569 -6.710689 -3.650545
v 0.9655688 -6.710689 -6.563545
v -5.539431 6.711689 3.650455
v 0.9655688 6.710689 -6.563545
v 0.9655688 -6.710689 -6.563545
v -5.539431 -6.710689 3.650455
v -3.252431 -6.710689 5.106955
v -0.9654312 -6.710689 6.563455
v -0.9654312 6.710689 6.563455
v -5.539431 6.711689 3.650455
v -5.539431 -6.710689 3.650455
v -3.252431 -6.710689 5.106955
v -5.539431 6.711689 3.650455
v -3.252431 -6.710689 5.106955
v -0.9654312 6.710689 6.563455
v -3.252431 -6.710689 5.106955
v -5.539431 -6.710689 3.650455
v 0.9655688 -6.710689 -6.563545
v 5.539569 -6.710689 -3.650545
v -0.9654312 -6.710689 6.563455
vt 0.595823 0.133108
vt 0.134484 0.319846
vt 0.002611 0.188409
vt 0.463954 0.001661
vt 0.662060 0.382798
vt 0.209601 0.567033
vt 0.002611 0.511237
vt 0.462602 0.323920
vt 0.136956 0.999574
vt 0.002611 0.867221
vt 0.206181 0.808970
vt 0.338296 0.939114
vt 0.002611 0.760493
vt 0.471575 0.571429
vt 0.676707 0.619294
vt 0.215578 0.805204
vt 0.610575 0.873339
vt 0.675191 0.937706
vt 0.476061 0.982821
vt 0.344648 0.851936
vt 0.545958 0.808970
vt 0.610575 0.873339
vt 0.344648 0.851936
vt 0.610575 0.873339
vt 0.476061 0.982821
vt 0.681462 0.808970
vt 0.681462 0.808970
vt 0.681462 0.808970
vt 0.681462 0.808970
vt 0.681462 0.808970
vn 0.0001998998 1 2.940554E-05
vn 0.0001998998 1 2.940554E-05
vn 0.0001998998 1 2.940554E-05
vn 0.0001998998 1 2.940554E-05
vn 0.8434676 0 0.53718
vn 0.8434676 0 0.53718
vn 0.8434676 0 0.53718
vn 0.8434676 0 0.53718
vn 0.5371737 0 -0.8434716
vn 0.5371737 0 -0.8434716
vn 0.5371737 0 -0.8434716
vn 0.5371737 0 -0.8434716
vn -0.8434676 0 -0.53718
vn -0.8434676 0 -0.53718
vn -0.8434676 0 -0.53718
vn -0.8434676 0 -0.53718
vn -0.5371737 0 0.8434716
vn -0.5371737 0 0.8434716
vn -0.5371737 0 0.8434716
vn -0.5371737 0 0.8434716
vn -0.5371737 0 0.8434716
vn -0.5371737 0 0.8434716
vn -0.5371737 -2.926357E-11 0.8434716
vn -0.5371737 -2.926357E-11 0.8434716
vn -0.5371737 -2.926357E-11 0.8434716
vn 0 -1 0
vn 0 -1 0
vn 0 -1 0
vn 0 -1 0
vn 0 -1 0

g CDNNDG02_0002790
f 1/1/1 3/3/3 4/4/4
f 1/1/1 2/2/2 3/3/3
f 5/5/5 7/7/7 8/8/8
f 5/5/5 6/6/6 7/7/7
f 10/10/10 11/11/11 12/12/12
f 9/9/9 10/10/10 12/12/12
f 14/14/14 15/15/15 16/16/16
f 13/13/13 14/14/14 16/16/16
f 17/17/17 18/18/18 19/19/19
f 20/20/20 21/21/21 22/22/22
f 23/23/23 24/24/24 25/25/25
f 26/26/26 29/29/29 30/30/30
f 26/26/26 28/28/28 29/29/29
f 26/26/26 27/27/27 28/28/28
