v 2.211666 5.978927 -9.367753
v 4.550666 5.978927 -7.852753
v 4.762666 5.978927 -8.184752
v 2.413666 5.978927 -9.683753
v -2.764334 5.978927 1.183247
v -2.546334 5.978927 2.681247
v 2.170666 5.978927 2.453247
v -7.382334 5.978927 7.592247
v -3.631334 5.978927 4.381247
v -4.839334 5.978927 3.610247
v -3.631334 5.978927 4.381247
v -1.689219 5.978927 7.588137
v -1.506334 5.978927 7.301247
v -3.631334 5.978927 4.381247
v -1.506334 5.978927 7.301247
v -1.093334 5.978927 7.565247
v -4.628335 5.977847 -0.006752851
v 2.211666 5.978927 -9.367753
v 1.597666 5.978168 -9.758753
v -4.628335 5.977847 -0.006752851
v -2.764334 5.978927 1.183247
v 2.211666 5.978927 -9.367753
v -4.261334 5.978927 9.585247
v -3.754334 5.978927 11.73325
v -1.406334 5.978927 8.055247
v -3.631334 5.978927 4.381247
v -1.819334 5.978927 7.792247
v -1.689219 5.978927 7.588137
v -4.261334 5.978927 9.585247
v -1.406334 5.978927 8.055247
v -1.819334 5.978927 7.792247
v -4.261334 5.978927 9.585247
v -1.819334 5.978927 7.792247
v -3.631334 5.978927 4.381247
v 2.170666 5.978927 2.453247
v 7.533666 5.978927 -5.947753
v 4.550666 5.978927 -7.852753
v -7.382334 5.978927 7.592247
v -4.261334 5.978927 9.585247
v -3.631334 5.978927 4.381247
v -2.764334 5.978927 1.183247
v 4.550666 5.978927 -7.852753
v 2.211666 5.978927 -9.367753
v -5.088334 5.978927 10.88125
v -3.754334 5.978927 11.73325
v -4.261334 5.978927 9.585247
v -2.764334 5.978927 1.183247
v 2.170666 5.978927 2.453247
v 4.550666 5.978927 -7.852753
v -3.631334 5.978927 4.381247
v -1.093334 5.978927 7.565247
v -2.546334 5.978927 2.681247
v -2.546334 5.978927 2.681247
v -1.093334 5.978927 7.565247
v 2.170666 5.978927 2.453247
v -1.819334 6.958611 7.792247
v -1.406334 6.958611 8.055247
v -1.093334 6.958611 7.565247
v -1.506334 6.958611 7.301247
v -7.382334 5.978927 7.592247
v -6.110834 -5.981329 5.601247
v -7.382334 -5.981329 7.592247
v -6.110834 -5.981329 5.601247
v -4.839334 5.978927 3.610247
v -4.839334 -5.981329 3.610247
v -7.382334 5.978927 7.592247
v -4.839334 5.978927 3.610247
v -6.110834 -5.981329 5.601247
v -7.382334 -5.981329 7.592247
v -4.261334 -5.981329 9.585247
v -4.261334 5.978927 9.585247
v -7.382334 5.978927 7.592247
v -5.088334 5.978927 10.88125
v -4.261334 5.978927 9.585247
v -4.261334 -5.981329 9.585247
v -5.088334 -5.981329 10.88125
v -5.088334 -5.981329 10.88125
v -3.754334 -5.981329 11.73325
v -3.754334 5.978927 11.73325
v -5.088334 5.978927 10.88125
v -3.754334 -5.981329 11.73325
v -1.406334 -5.981329 8.055247
v -1.406334 5.978927 8.055247
v -3.754334 5.978927 11.73325
v -1.249834 -5.981329 7.810247
v -1.093334 -5.981329 7.565247
v -1.093334 5.978927 7.565247
v -1.406334 5.978927 8.055247
v -1.406334 -5.981329 8.055247
v -1.249834 -5.981329 7.810247
v -1.406334 5.978927 8.055247
v -1.249834 -5.981329 7.810247
v -1.093334 5.978927 7.565247
v -1.093334 -5.981329 7.565247
v 2.170666 -5.981329 2.453247
v 2.170666 5.978927 2.453247
v -1.093334 5.978927 7.565247
v 2.170666 -5.981329 2.453247
v 7.533666 -5.981329 -5.947753
v 7.533666 5.978927 -5.947753
v 2.170666 5.978927 2.453247
v -1.406334 5.978927 8.055247
v -1.093334 5.978927 7.565247
v -1.093334 6.958611 7.565247
v -1.406334 6.958611 8.055247
v 4.550666 5.978927 -7.852753
v 7.533666 5.978927 -5.947753
v 7.533666 -5.981329 -5.947753
v 4.550666 -5.981329 -7.852753
v 4.550666 -5.981329 -7.852753
v 4.762666 -5.981329 -8.184752
v 4.762666 5.978927 -8.184752
v 4.550666 5.978927 -7.852753
v 2.413666 5.978927 -9.683753
v 3.588166 -5.981329 -8.934253
v 2.413666 -5.981329 -9.683753
v 3.588166 -5.981329 -8.934253
v 4.762666 5.978927 -8.184752
v 4.762666 -5.981329 -8.184752
v 2.413666 5.978927 -9.683753
v 4.762666 5.978927 -8.184752
v 3.588166 -5.981329 -8.934253
v 2.211666 5.978927 -9.367753
v 2.413666 5.978927 -9.683753
v 2.413666 -5.981329 -9.683753
v 2.211666 -5.981329 -9.367753
v 1.597666 5.978168 -9.758753
v 2.211666 5.978927 -9.367753
v 2.211666 -5.981329 -9.367753
v 1.597666 -5.981329 -9.758753
v -4.628335 5.977847 -0.006752851
v 1.597666 5.978168 -9.758753
v 1.597666 -5.981329 -9.758753
v -4.628335 -5.981329 -0.006752851
v -3.696334 -5.981329 0.5882472
v -2.764334 -5.981329 1.183247
v -2.764334 5.978927 1.183247
v -4.628335 5.977847 -0.006752851
v -4.628335 -5.981329 -0.006752851
v -3.696334 -5.981329 0.5882472
v -4.628335 5.977847 -0.006752851
v -3.696334 -5.981329 0.5882472
v -2.764334 5.978927 1.183247
v -2.764334 -5.981329 1.183247
v -2.546334 -5.981329 2.681247
v -2.546334 5.978927 2.681247
v -2.764334 5.978927 1.183247
v -3.631334 5.978927 4.381247
v -2.546334 5.978927 2.681247
v -2.546334 -5.981329 2.681247
v -3.631334 -5.981329 4.381247
v -4.839334 5.978927 3.610247
v -3.631334 5.978927 4.381247
v -3.631334 -5.981329 4.381247
v -4.839334 -5.981329 3.610247
v -1.819334 5.978927 7.792247
v -1.406334 5.978927 8.055247
v -1.406334 6.958611 8.055247
v -1.819334 6.958611 7.792247
v -1.506334 6.958611 7.301247
v -1.093334 6.958611 7.565247
v -1.093334 5.978927 7.565247
v -1.506334 5.978927 7.301247
v -1.819334 6.958611 7.792247
v -1.689219 5.978927 7.588137
v -1.819334 5.978927 7.792247
v -1.689219 5.978927 7.588137
v -1.506334 6.958611 7.301247
v -1.506334 5.978927 7.301247
v -1.819334 6.958611 7.792247
v -1.506334 6.958611 7.301247
v -1.689219 5.978927 7.588137
v -3.631334 -5.981329 4.381247
v -2.546334 -5.981329 2.681247
v -2.764334 -5.981329 1.183247
v -3.696334 -5.981329 0.5882472
v -4.628335 -5.981329 -0.006752851
v 1.597666 -5.981329 -9.758753
v 2.211666 -5.981329 -9.367753
v 2.413666 -5.981329 -9.683753
v 3.588166 -5.981329 -8.934253
v 4.762666 -5.981329 -8.184752
v 4.550666 -5.981329 -7.852753
v 7.533666 -5.981329 -5.947753
v 2.170666 -5.981329 2.453247
v -1.093334 -5.981329 7.565247
v -1.249834 -5.981329 7.810247
v -1.406334 -5.981329 8.055247
v -3.754334 -5.981329 11.73325
v -5.088334 -5.981329 10.88125
v -4.261334 -5.981329 9.585247
v -7.382334 -5.981329 7.592247
v -6.110834 -5.981329 5.601247
v -4.839334 -5.981329 3.610247
vt 0.014321 0.213330
vt 0.062626 0.265955
vt 0.051889 0.270647
vt 0.004101 0.217801
vt 0.355191 0.103651
vt 0.403394 0.108780
vt 0.395055 0.214369
vt 0.562597 0.001295
vt 0.458378 0.084765
vt 0.433800 0.057586
vt 0.458378 0.084765
vt 0.561259 0.128786
vt 0.551980 0.132834
vt 0.458378 0.084765
vt 0.551980 0.132834
vt 0.560396 0.142126
vt 0.317262 0.061714
vt 0.014321 0.213330
vt 0.001862 0.199518
vt 0.317262 0.061714
vt 0.355191 0.103651
vt 0.014321 0.213330
vt 0.626130 0.071517
vt 0.695210 0.083226
vt 0.576244 0.135198
vt 0.458378 0.084765
vt 0.567861 0.125906
vt 0.561259 0.128786
vt 0.626130 0.071517
vt 0.576244 0.135198
vt 0.567861 0.125906
vt 0.626130 0.071517
vt 0.567861 0.125906
vt 0.458378 0.084765
vt 0.395055 0.214369
vt 0.123355 0.333063
vt 0.062626 0.265955
vt 0.562597 0.001295
vt 0.626130 0.071517
vt 0.458378 0.084765
vt 0.355191 0.103651
vt 0.062626 0.265955
vt 0.014321 0.213330
vt 0.668050 0.053212
vt 0.695210 0.083226
vt 0.626130 0.071517
vt 0.355191 0.103651
vt 0.395055 0.214369
vt 0.062626 0.265955
vt 0.458378 0.084765
vt 0.560396 0.142126
vt 0.403394 0.108780
vt 0.403394 0.108780
vt 0.560396 0.142126
vt 0.395055 0.214369
vt 0.120949 0.977979
vt 0.128765 0.986600
vt 0.113990 0.993028
vt 0.106145 0.984407
vt 0.649907 0.665734
vt 0.897552 0.689237
vt 0.833506 0.717911
vt 0.897552 0.689237
vt 0.779942 0.607513
vt 0.961600 0.660563
vt 0.649907 0.665734
vt 0.779942 0.607513
vt 0.897552 0.689237
vt 0.583730 0.607513
vt 0.646179 0.676059
vt 0.564311 0.727879
vt 0.500931 0.658313
vt 0.001862 0.921668
vt 0.044089 0.902850
vt 0.228270 0.955760
vt 0.186673 0.974297
vt 0.455210 0.806995
vt 0.481790 0.836145
vt 0.401278 0.887870
vt 0.374302 0.858287
vt 0.655158 0.357805
vt 0.537953 0.408967
vt 0.454676 0.388710
vt 0.573621 0.336788
vt 0.530146 0.412377
vt 0.522339 0.415787
vt 0.438830 0.395632
vt 0.454676 0.388710
vt 0.537953 0.408967
vt 0.530146 0.412377
vt 0.454676 0.388710
vt 0.530146 0.412377
vt 0.438830 0.395632
vt 0.522339 0.415787
vt 0.359446 0.486905
vt 0.273517 0.467808
vt 0.438830 0.395632
vt 0.359446 0.486905
vt 0.091766 0.603750
vt 0.001862 0.586390
vt 0.273517 0.467808
vt 0.454676 0.388710
vt 0.438830 0.395632
vt 0.431879 0.393954
vt 0.447745 0.387025
vt 0.193474 0.892012
vt 0.130354 0.825365
vt 0.307707 0.806995
vt 0.369885 0.872651
vt 0.101830 0.995386
vt 0.091414 0.999769
vt 0.001862 0.982428
vt 0.012432 0.977979
vt 0.775899 0.878574
vt 0.926871 0.832777
vt 0.951321 0.858558
vt 0.926871 0.832777
vt 0.726257 0.826232
vt 0.902420 0.806995
vt 0.775899 0.878574
vt 0.726257 0.826232
vt 0.926871 0.832777
vt 0.232775 0.907429
vt 0.243054 0.902850
vt 0.417520 0.957842
vt 0.407394 0.962353
vt 0.785751 0.935944
vt 0.772812 0.922535
vt 0.948101 0.902850
vt 0.960836 0.916060
vt 0.001862 0.750784
vt 0.321045 0.607513
vt 0.496543 0.663050
vt 0.182123 0.804173
vt 0.106639 0.827400
vt 0.125245 0.847806
vt 0.039621 0.899941
vt 0.001862 0.858519
vt 0.088033 0.806995
vt 0.106639 0.827400
vt 0.001862 0.858519
vt 0.106639 0.827400
vt 0.039621 0.899941
vt 0.508430 0.902850
vt 0.555486 0.907685
vt 0.470474 0.959442
vt 0.422719 0.954535
vt 0.486034 0.831720
vt 0.541444 0.806995
vt 0.722311 0.860574
vt 0.667728 0.884929
vt 0.586038 0.951434
vt 0.560521 0.924741
vt 0.742581 0.902850
vt 0.767718 0.929145
vt 0.140276 0.977979
vt 0.147805 0.986437
vt 0.141617 0.990472
vt 0.134078 0.982003
vt 0.194416 0.987915
vt 0.186220 0.979579
vt 0.200541 0.977979
vt 0.208726 0.986305
vt 0.152700 0.984512
vt 0.173494 0.985899
vt 0.167183 0.988611
vt 0.173494 0.985899
vt 0.167900 0.977979
vt 0.182364 0.982086
vt 0.152700 0.984512
vt 0.167900 0.977979
vt 0.173494 0.985899
vt 0.214153 0.977979
vt 0.214153 0.977979
vt 0.214153 0.977979
vt 0.214153 0.977979
vt 0.214153 0.977979
vt 0.214153 0.977979
vt 0.214153 0.977979
vt 0.214153 0.977979
vt 0.214153 0.977979
vt 0.214153 0.977979
vt 0.214153 0.977979
vt 0.214153 0.977979
vt 0.214153 0.977979
vt 0.214153 0.977979
vt 0.214153 0.977979
vt 0.214153 0.977979
vt 0.214153 0.977979
vt 0.214153 0.977979
vt 0.214153 0.977979
vt 0.214153 0.977979
vt 0.214153 0.977979
vt 0.214153 0.977979
vn 0 1 0
vn 0 1 0
vn 0 1 0
vn 0 1 0
vn 0 1 0
vn 0 1 0
vn 0 1 0
vn 0 1 0
vn 0 1 0
vn 0 1 0
vn 0 1 0
vn 0 1 0
vn 0 1 0
vn 0 1 0
vn 0 1 0
vn 0 1 0
vn -0.0008933778 0.9999995 -0.0005373288
vn -0.0008933778 0.9999995 -0.0005373288
vn -0.0008933778 0.9999995 -0.0005373288
vn -0.0004456377 0.9999999 -0.000210169
vn -0.0004456377 0.9999999 -0.000210169
vn -0.0004456377 0.9999999 -0.000210169
vn 0 1 0
vn 0 1 0
vn 0 1 0
vn 0 1 0
vn 0 1 0
vn 0 1 0
vn 0 1 0
vn 0 1 0
vn 0 1 0
vn 0 1 0
vn 0 1 0
vn 0 1 0
vn 0 1 0
vn 0 1 0
vn 0 1 0
vn 0 1 0
vn 0 1 0
vn 0 1 0
vn 0 1 0
vn 0 1 0
vn 0 1 0
vn 0 1 0
vn 0 1 0
vn 0 1 0
vn 0 1 0
vn 0 1 0
vn 0 1 0
vn 0 1 0
vn 0 1 0
vn 0 1 0
vn 0 1 0
vn 0 1 0
vn 0 1 0
vn 0 1 0
vn 0 1 0
vn 0 1 0
vn 0 1 0
vn -0.8427976 0 -0.5382306
vn -0.8427976 0 -0.5382306
vn -0.8427976 0 -0.5382306
vn -0.8427976 0 -0.5382306
vn -0.8427976 0 -0.5382306
vn -0.8427976 0 -0.5382306
vn -0.8427976 -1.890465E-11 -0.5382306
vn -0.8427976 -1.890465E-11 -0.5382306
vn -0.8427976 -1.890465E-11 -0.5382306
vn -0.5382028 0 0.8428153
vn -0.5382028 0 0.8428153
vn -0.5382028 0 0.8428153
vn -0.5382028 0 0.8428153
vn -0.8429912 0 -0.5379273
vn -0.8429912 0 -0.5379273
vn -0.8429912 0 -0.5379273
vn -0.8429912 0 -0.5379273
vn -0.5382646 0 0.8427759
vn -0.5382646 0 0.8427759
vn -0.5382646 0 0.8427759
vn -0.5382646 0 0.8427759
vn 0.8428868 0 0.5380909
vn 0.8428868 0 0.5380909
vn 0.8428868 0 0.5380909
vn 0.8428868 0 0.5380909
vn 0.8427396 0 0.5383214
vn 0.8427396 0 0.5383214
vn 0.8427396 0 0.5383214
vn 0.8427396 0 0.5383214
vn 0.8427396 0 0.5383214
vn 0.8427396 0 0.5383214
vn 0.8427396 0 0.5383214
vn 0.8427396 0 0.5383214
vn 0.8427396 0 0.5383214
vn 0.8428459 0 0.5381551
vn 0.8428459 0 0.5381551
vn 0.8428459 0 0.5381551
vn 0.8428459 0 0.5381551
vn 0.8428922 0 0.5380825
vn 0.8428922 0 0.5380825
vn 0.8428922 0 0.5380825
vn 0.8428922 0 0.5380825
vn 0.8427396 0 0.5383214
vn 0.8427396 0 0.5383214
vn 0.8427396 0 0.5383214
vn 0.8427396 0 0.5383214
vn 0.5382276 0 -0.8427995
vn 0.5382276 0 -0.8427995
vn 0.5382276 0 -0.8427995
vn 0.5382276 0 -0.8427995
vn 0.8428242 0 0.5381889
vn 0.8428242 0 0.5381889
vn 0.8428242 0 0.5381889
vn 0.8428242 0 0.5381889
vn 0.5379432 0 -0.8429811
vn 0.5379432 0 -0.8429811
vn 0.5379432 0 -0.8429811
vn 0.5379432 0 -0.8429811
vn 0.5379432 0 -0.8429811
vn 0.5379432 0 -0.8429811
vn 0.5379432 0 -0.8429811
vn 0.5379432 0 -0.8429811
vn 0.5379432 0 -0.8429811
vn -0.8425618 0 -0.5385997
vn -0.8425618 0 -0.5385997
vn -0.8425618 0 -0.5385997
vn -0.8425618 0 -0.5385997
vn 0.5371422 0 -0.8434917
vn 0.5371422 0 -0.8434917
vn 0.5371422 0 -0.8434917
vn 0.5371422 0 -0.8434917
vn -0.8428705 0 -0.5381165
vn -0.8428705 0 -0.5381165
vn -0.8428705 0 -0.5381165
vn -0.8428705 0 -0.5381165
vn -0.5381038 0 0.8428786
vn -0.5381038 0 0.8428786
vn -0.5381038 0 0.8428786
vn -0.5381038 0 0.8428786
vn -0.5381038 0 0.8428786
vn -0.5381038 0 0.8428786
vn -0.5381038 2.580469E-10 0.8428786
vn -0.5381038 2.580469E-10 0.8428786
vn -0.5381038 2.580469E-10 0.8428786
vn -0.9895762 0 0.1440104
vn -0.9895762 0 0.1440104
vn -0.9895762 0 0.1440104
vn -0.9895762 0 0.1440104
vn -0.8429461 0 -0.537998
vn -0.8429461 0 -0.537998
vn -0.8429461 0 -0.537998
vn -0.8429461 0 -0.537998
vn 0.5380038 0 -0.8429424
vn 0.5380038 0 -0.8429424
vn 0.5380038 0 -0.8429424
vn 0.5380038 0 -0.8429424
vn -0.5371398 0 0.8434932
vn -0.5371398 0 0.8434932
vn -0.5371398 0 0.8434932
vn -0.5371398 0 0.8434932
vn 0.5385905 0 -0.8425677
vn 0.5385905 0 -0.8425677
vn 0.5385905 0 -0.8425677
vn 0.5385905 0 -0.8425677
vn -0.8432369 0 -0.5375421
vn -0.8432369 0 -0.5375421
vn -0.8432369 0 -0.5375421
vn -0.8432369 0 -0.537542
vn -0.8432369 0 -0.537542
vn -0.8432369 0 -0.537542
vn -0.8432369 -8.233491E-10 -0.5375421
vn -0.8432369 -8.233491E-10 -0.5375421
vn -0.8432369 -8.233491E-10 -0.5375421
vn 0 -1 0
vn 0 -1 0
vn 0 -1 0
vn 0 -1 0
vn 0 -1 0
vn 0 -1 0
vn 0 -1 0
vn 0 -1 0
vn 0 -1 0
vn 0 -1 0
vn 0 -1 0
vn 0 -1 0
vn 0 -1 0
vn 0 -1 0
vn 0 -1 0
vn 0 -1 0
vn 0 -1 0
vn 0 -1 0
vn 0 -1 0
vn 0 -1 0
vn 0 -1 0
vn 0 -1 0

g CDNNDG02_0002570
f 4/4/4 1/1/1 3/3/3
f 3/3/3 1/1/1 2/2/2
f 5/5/5 6/6/6 7/7/7
f 8/8/8 9/9/9 10/10/10
f 11/11/11 12/12/12 13/13/13
f 14/14/14 15/15/15 16/16/16
f 17/17/17 18/18/18 19/19/19
f 20/20/20 21/21/21 22/22/22
f 23/23/23 24/24/24 25/25/25
f 26/26/26 27/27/27 28/28/28
f 29/29/29 30/30/30 31/31/31
f 32/32/32 33/33/33 34/34/34
f 35/35/35 36/36/36 37/37/37
f 38/38/38 39/39/39 40/40/40
f 41/41/41 42/42/42 43/43/43
f 44/44/44 45/45/45 46/46/46
f 47/47/47 48/48/48 49/49/49
f 50/50/50 51/51/51 52/52/52
f 53/53/53 54/54/54 55/55/55
f 56/56/56 57/57/57 59/59/59
f 58/58/58 59/59/59 57/57/57
f 60/60/60 61/61/61 62/62/62
f 63/63/63 64/64/64 65/65/65
f 66/66/66 67/67/67 68/68/68
f 69/69/69 71/71/71 72/72/72
f 71/71/71 69/69/69 70/70/70
f 73/73/73 75/75/75 76/76/76
f 73/73/73 74/74/74 75/75/75
f 77/77/77 79/79/79 80/80/80
f 79/79/79 77/77/77 78/78/78
f 82/82/82 83/83/83 81/81/81
f 81/81/81 83/83/83 84/84/84
f 85/85/85 86/86/86 87/87/87
f 88/88/88 89/89/89 90/90/90
f 91/91/91 92/92/92 93/93/93
f 95/95/95 96/96/96 97/97/97
f 94/94/94 95/95/95 97/97/97
f 101/101/101 98/98/98 100/100/100
f 99/99/99 100/100/100 98/98/98
f 103/103/103 104/104/104 105/105/105
f 102/102/102 103/103/103 105/105/105
f 108/108/108 106/106/106 107/107/107
f 106/106/106 108/108/108 109/109/109
f 111/111/111 112/112/112 110/110/110
f 110/110/110 112/112/112 113/113/113
f 114/114/114 115/115/115 116/116/116
f 117/117/117 118/118/118 119/119/119
f 120/120/120 121/121/121 122/122/122
f 123/123/123 125/125/125 126/126/126
f 123/123/123 124/124/124 125/125/125
f 127/127/127 129/129/129 130/130/130
f 127/127/127 128/128/128 129/129/129
f 134/134/134 131/131/131 133/133/133
f 133/133/133 131/131/131 132/132/132
f 135/135/135 136/136/136 137/137/137
f 138/138/138 139/139/139 140/140/140
f 141/141/141 142/142/142 143/143/143
f 144/144/144 146/146/146 147/147/147
f 144/144/144 145/145/145 146/146/146
f 149/149/149 150/150/150 151/151/151
f 148/148/148 149/149/149 151/151/151
f 154/154/154 152/152/152 153/153/153
f 152/152/152 154/154/154 155/155/155
f 157/157/157 158/158/158 159/159/159
f 159/159/159 156/156/156 157/157/157
f 161/161/161 162/162/162 160/160/160
f 160/160/160 162/162/162 163/163/163
f 164/164/164 165/165/165 166/166/166
f 167/167/167 168/168/168 169/169/169
f 170/170/170 171/171/171 172/172/172
f 173/173/173 193/193/193 194/194/194
f 193/193/193 173/173/173 191/191/191
f 173/173/173 174/174/174 186/186/186
f 174/174/174 175/175/175 185/185/185
f 175/175/175 176/176/176 179/179/179
f 191/191/191 192/192/192 193/193/193
f 176/176/176 177/177/177 179/179/179
f 177/177/177 178/178/178 179/179/179
f 189/189/189 190/190/190 191/191/191
f 175/175/175 179/179/179 183/183/183
f 179/179/179 180/180/180 181/181/181
f 173/173/173 188/188/188 191/191/191
f 179/179/179 181/181/181 183/183/183
f 188/188/188 189/189/189 191/191/191
f 181/181/181 182/182/182 183/183/183
f 185/185/185 175/175/175 183/183/183
f 183/183/183 184/184/184 185/185/185
f 174/174/174 185/185/185 186/186/186
f 173/173/173 186/186/186 187/187/187
f 173/173/173 187/187/187 188/188/188
