v -6.392499 5.925747 1.053418
v -2.614499 5.925747 3.483418
v -3.915499 5.925747 -2.800582
v -3.158499 5.925747 -3.977582
v 3.964326 5.925747 0.3945695
v 3.971501 5.925747 0.3834178
v -0.7554989 5.925747 -7.716582
v 3.971501 5.925747 0.3834178
v 6.826501 5.925747 -2.842582
v 3.971501 5.925747 0.3834178
v 4.524501 5.925747 0.7384177
v 6.826501 5.925747 -2.842582
v -3.158499 5.925747 -3.977582
v 3.971501 5.925747 0.3834178
v -0.7554989 5.925747 -7.716582
v -3.289499 5.925747 -2.398582
v 2.98602 5.925747 1.915069
v 3.964326 5.925747 0.3945695
v -3.158499 5.925747 -3.977582
v -2.532499 5.925747 -3.575582
v 3.964326 5.925747 0.3945695
v -3.289499 5.925747 -2.398582
v 3.964326 5.925747 0.3945695
v -2.532499 5.925747 -3.575582
v -3.915499 5.925747 -2.800582
v 2.98602 5.925747 1.915069
v -3.289499 5.925747 -2.398582
v -2.614499 5.925747 3.483418
v 1.189501 5.925747 5.927418
v 3.529501 5.925747 2.286418
v -3.915499 5.925747 -2.800582
v -2.614499 5.925747 3.483418
v 2.975501 5.925747 1.931418
v -3.915499 5.925747 -2.800582
v 2.975501 5.925747 1.931418
v 2.98602 5.925747 1.915069
v -2.614499 5.925747 3.483418
v 3.529501 5.925747 2.286418
v 2.975501 5.925747 1.931418
v -2.511749 5.141372 5.414043
v -1.560999 5.141497 6.025168
v -1.136749 5.342872 5.365293
v -2.087624 5.342685 4.75423
v -1.560999 5.141497 6.025168
v -0.610249 5.141623 6.636293
v -0.185874 5.34306 5.976355
v -1.136749 5.342872 5.365293
v -2.935874 4.94006 6.073855
v -1.985249 4.940122 6.685043
v -1.560999 5.141497 6.025168
v -2.511749 5.141372 5.414043
v -1.985249 4.940122 6.685043
v -1.034624 4.940185 7.29623
v -0.610249 5.141623 6.636293
v -1.560999 5.141497 6.025168
v -2.614499 5.543747 3.483418
v -2.511749 5.141372 5.414043
v -2.087624 5.342685 4.75423
v -4.310499 4.738747 6.122418
v -2.511749 5.141372 5.414043
v -2.614499 5.543747 3.483418
v -2.614499 5.543747 3.483418
v -2.087624 5.342685 4.75423
v -1.136749 5.342872 5.365293
v -1.136749 5.342872 5.365293
v -0.185874 5.34306 5.976355
v 1.189501 5.544747 5.927418
v -2.614499 5.543747 3.483418
v -1.136749 5.342872 5.365293
v 1.189501 5.544747 5.927418
v -0.610249 5.141623 6.636293
v 1.189501 5.544747 5.927418
v -0.185874 5.34306 5.976355
v -4.310499 4.738747 6.122418
v -1.985249 4.940122 6.685043
v -2.935874 4.94006 6.073855
v -4.310499 4.738747 6.122418
v -2.935874 4.94006 6.073855
v -2.511749 5.141372 5.414043
v -4.310499 4.738747 6.122418
v -0.508499 4.738747 8.567418
v -1.985249 4.940122 6.685043
v -1.034624 4.940185 7.29623
v -0.508499 4.738747 8.567418
v -0.610249 5.141623 6.636293
v -1.985249 4.940122 6.685043
v -0.508499 4.738747 8.567418
v -1.034624 4.940185 7.29623
v -0.610249 5.141623 6.636293
v -0.508499 4.738747 8.567418
v 1.189501 5.544747 5.927418
v -0.320499 4.738747 8.683417
v 1.374501 5.544747 6.046418
v 1.189501 5.544747 5.927418
v -0.508499 4.738747 8.567418
v -0.320499 4.738747 8.683417
v 1.189501 5.544747 5.927418
v 2.975501 6.238747 1.931418
v 4.070501 6.434747 0.8574178
v 3.971501 6.238747 0.3834178
v 2.975501 6.238747 1.931418
v 3.454501 6.433747 1.828418
v 4.070501 6.434747 0.8574178
v 3.971501 6.238747 0.3834178
v 4.070501 6.434747 0.8574178
v 4.524501 6.240747 0.7384177
v 2.975501 6.238747 1.931418
v 3.529501 6.240747 2.286418
v 3.454501 6.433747 1.828418
v 3.454501 6.433747 1.828418
v 4.524501 6.240747 0.7384177
v 4.070501 6.434747 0.8574178
v 3.454501 6.433747 1.828418
v 3.529501 6.240747 2.286418
v 4.524501 6.240747 0.7384177
v -3.289499 6.919747 -2.398582
v -2.532499 6.919747 -3.575582
v -3.158499 6.920747 -3.977582
v -3.915499 6.920747 -2.800582
v -6.392499 5.925747 1.053418
v -2.614499 5.543747 3.483418
v -2.614499 5.925747 3.483418
v -6.392499 -5.840565 1.053418
v -2.614499 -5.840565 3.483418
v -2.614499 5.543747 3.483418
v -6.392499 5.925747 1.053418
v -2.614499 5.543747 3.483418
v 1.189501 5.544747 5.927418
v 1.189501 5.925747 5.927418
v -2.614499 5.925747 3.483418
v 1.189501 -5.840565 5.927418
v 3.529501 -5.840565 2.286418
v 3.529501 5.925747 2.286418
v 1.189501 5.544747 5.927418
v 1.189501 5.925747 5.927418
v 1.189501 5.544747 5.927418
v 3.529501 5.925747 2.286418
v 3.529501 -5.840565 2.286418
v 4.524501 -5.840565 0.7384177
v 4.524501 5.925747 0.7384177
v 3.529501 5.925747 2.286418
v 4.524501 -5.840565 0.7384177
v 6.826501 -5.840565 -2.842582
v 6.826501 5.925747 -2.842582
v 4.524501 5.925747 0.7384177
v 3.529501 5.925747 2.286418
v 4.524501 5.925747 0.7384177
v 4.524501 6.240747 0.7384177
v 3.529501 6.240747 2.286418
v -0.7554989 5.925747 -7.716582
v 6.826501 5.925747 -2.842582
v 6.826501 -5.840565 -2.842582
v -0.7554989 -5.840565 -7.716582
v -3.158499 5.925747 -3.977582
v -1.956999 -5.840565 -5.847082
v -3.158499 -5.840565 -3.977582
v -1.956999 -5.840565 -5.847082
v -0.7554989 5.925747 -7.716582
v -0.7554989 -5.840565 -7.716582
v -3.158499 5.925747 -3.977582
v -0.7554989 5.925747 -7.716582
v -1.956999 -5.840565 -5.847082
v -3.915499 5.925747 -2.800582
v -3.158499 5.925747 -3.977582
v -3.158499 -5.840565 -3.977582
v -3.915499 -5.840565 -2.800582
v -6.392499 5.925747 1.053418
v -3.915499 5.925747 -2.800582
v -3.915499 -5.840565 -2.800582
v -6.392499 -5.840565 1.053418
v -3.915499 6.920747 -2.800582
v -3.158499 6.920747 -3.977582
v -3.158499 5.925747 -3.977582
v -3.915499 5.925747 -2.800582
v -4.310499 -5.840565 6.122418
v -0.508499 -5.840565 8.567418
v -0.508499 4.738747 8.567418
v -4.310499 4.738747 6.122418
v -0.508499 -5.840565 8.567418
v -0.320499 -5.840565 8.683417
v -0.320499 4.738747 8.683417
v -0.508499 4.738747 8.567418
v -4.310499 4.738747 6.122418
v -2.614499 5.543747 3.483418
v -2.614499 -5.840565 3.483418
v -4.310499 -5.840565 6.122418
v 0.527001 -5.840565 7.364918
v 1.374501 -5.840565 6.046418
v 1.374501 5.544747 6.046418
v -0.320499 4.738747 8.683417
v -0.320499 -5.840565 8.683417
v 0.527001 -5.840565 7.364918
v -0.320499 4.738747 8.683417
v 0.527001 -5.840565 7.364918
v 1.374501 5.544747 6.046418
v 1.189501 5.544747 5.927418
v 1.282001 -5.840565 5.986918
v 1.189501 -5.840565 5.927418
v 1.282001 -5.840565 5.986918
v 1.374501 5.544747 6.046418
v 1.374501 -5.840565 6.046418
v 1.189501 5.544747 5.927418
v 1.374501 5.544747 6.046418
v 1.282001 -5.840565 5.986918
v 2.975501 6.238747 1.931418
v 2.98602 5.925747 1.915069
v 2.975501 5.925747 1.931418
v 2.975501 6.238747 1.931418
v 3.971501 6.238747 0.3834178
v 3.964326 5.925747 0.3945695
v 2.98602 5.925747 1.915069
v 3.964326 5.925747 0.3945695
v 3.971501 6.238747 0.3834178
v 3.971501 5.925747 0.3834178
v 3.971501 6.238747 0.3834178
v 4.524501 6.240747 0.7384177
v 4.524501 5.925747 0.7384177
v 3.971501 5.925747 0.3834178
v 2.975501 5.925747 1.931418
v 3.529501 5.925747 2.286418
v 3.529501 6.240747 2.286418
v 2.975501 6.238747 1.931418
v -3.289499 5.925747 -2.398582
v -2.532499 5.925747 -3.575582
v -2.532499 6.919747 -3.575582
v -3.289499 6.919747 -2.398582
v -3.158499 6.920747 -3.977582
v -2.532499 6.919747 -3.575582
v -2.532499 5.925747 -3.575582
v -3.158499 5.925747 -3.977582
v -3.915499 5.925747 -2.800582
v -3.289499 5.925747 -2.398582
v -3.289499 6.919747 -2.398582
v -3.915499 6.920747 -2.800582
v -4.310499 -5.840565 6.122418
v -2.614499 -5.840565 3.483418
v -6.392499 -5.840565 1.053418
v -3.915499 -5.840565 -2.800582
v -3.158499 -5.840565 -3.977582
v -1.956999 -5.840565 -5.847082
v -0.7554989 -5.840565 -7.716582
v 6.826501 -5.840565 -2.842582
v 4.524501 -5.840565 0.7384177
v 3.529501 -5.840565 2.286418
v 1.189501 -5.840565 5.927418
v 1.282001 -5.840565 5.986918
v 1.374501 -5.840565 6.046418
v 0.527001 -5.840565 7.364918
v -0.320499 -5.840565 8.683417
v -0.508499 -5.840565 8.567418
vt 0.352292 0.001401
vt 0.448701 0.092925
vt 0.198488 0.060968
vt 0.151518 0.079172
vt 0.324948 0.251700
vt 0.324503 0.251873
vt 0.002309 0.136957
vt 0.324503 0.251873
vt 0.195686 0.320620
vt 0.324503 0.251873
vt 0.338586 0.265268
vt 0.195686 0.320620
vt 0.151518 0.079172
vt 0.324503 0.251873
vt 0.002309 0.136957
vt 0.214438 0.076133
vt 0.385625 0.228176
vt 0.324948 0.251700
vt 0.151518 0.079172
vt 0.167467 0.094337
vt 0.324948 0.251700
vt 0.214438 0.076133
vt 0.324948 0.251700
vt 0.167467 0.094337
vt 0.198488 0.060968
vt 0.385625 0.228176
vt 0.214438 0.076133
vt 0.448701 0.092925
vt 0.545662 0.185075
vt 0.400361 0.241343
vt 0.198488 0.060968
vt 0.448701 0.092925
vt 0.386277 0.227923
vt 0.198488 0.060968
vt 0.386277 0.227923
vt 0.385625 0.228176
vt 0.448701 0.092925
vt 0.400361 0.241343
vt 0.386277 0.227923
vt 0.515692 0.775908
vt 0.540008 0.798700
vt 0.512578 0.809738
vt 0.488259 0.786937
vt 0.540008 0.798700
vt 0.564324 0.821491
vt 0.536897 0.832538
vt 0.512578 0.809738
vt 0.543112 0.764885
vt 0.567424 0.787668
vt 0.540008 0.798700
vt 0.515692 0.775908
vt 0.567424 0.787668
vt 0.591737 0.810450
vt 0.564324 0.821491
vt 0.540008 0.798700
vt 0.436490 0.775161
vt 0.515692 0.775908
vt 0.488259 0.786937
vt 0.546208 0.731092
vt 0.515692 0.775908
vt 0.436490 0.775161
vt 0.436490 0.775161
vt 0.488259 0.786937
vt 0.512578 0.809738
vt 0.512578 0.809738
vt 0.536897 0.832538
vt 0.533779 0.866399
vt 0.436490 0.775161
vt 0.512578 0.809738
vt 0.533779 0.866399
vt 0.564324 0.821491
vt 0.533779 0.866399
vt 0.536897 0.832538
vt 0.546208 0.731092
vt 0.567424 0.787668
vt 0.543112 0.764885
vt 0.546208 0.731092
vt 0.543112 0.764885
vt 0.515692 0.775908
vt 0.546208 0.731092
vt 0.643445 0.822189
vt 0.567424 0.787668
vt 0.591737 0.810450
vt 0.643445 0.822189
vt 0.564324 0.821491
vt 0.567424 0.787668
vt 0.643445 0.822189
vt 0.591737 0.810450
vt 0.564324 0.821491
vt 0.643445 0.822189
vt 0.533779 0.866399
vt 0.648060 0.826693
vt 0.538517 0.870836
vt 0.533779 0.866399
vt 0.643445 0.822189
vt 0.648060 0.826693
vt 0.533779 0.866399
vt 0.582001 0.924508
vt 0.619997 0.897759
vt 0.642613 0.900846
vt 0.582001 0.924508
vt 0.581986 0.912403
vt 0.619997 0.897759
vt 0.023605 0.999647
vt 0.002309 0.997961
vt 0.010280 0.987395
vt 0.965573 0.897759
vt 0.978271 0.909854
vt 0.960739 0.908972
vt 0.763669 0.897759
vt 0.722864 0.922753
vt 0.726167 0.911859
vt 0.763669 0.897759
vt 0.782626 0.899979
vt 0.722864 0.922753
vt 0.576024 0.912377
vt 0.530483 0.929920
vt 0.515012 0.915303
vt 0.560552 0.897759
vt 0.551963 0.046392
vt 0.651310 0.135872
vt 0.648679 0.137397
vt 0.633294 0.001401
vt 0.728615 0.091094
vt 0.651310 0.135872
vt 0.551963 0.046392
vt 0.651310 0.135872
vt 0.748527 0.227460
vt 0.745948 0.229024
vt 0.648679 0.137397
vt 0.430980 0.760678
vt 0.287931 0.815906
vt 0.206753 0.787128
vt 0.354487 0.732064
vt 0.351890 0.731092
vt 0.354487 0.732064
vt 0.206753 0.787128
vt 0.287931 0.815906
vt 0.227114 0.839390
vt 0.145048 0.810955
vt 0.206753 0.787128
vt 0.227114 0.839390
vt 0.086429 0.893720
vt 0.002309 0.866078
vt 0.145048 0.810955
vt 0.206753 0.787128
vt 0.145048 0.810955
vt 0.142818 0.810182
vt 0.204547 0.786346
vt 0.201837 0.538484
vt 0.002309 0.353046
vt 0.240870 0.323529
vt 0.437465 0.506252
vt 0.205711 0.601484
vt 0.518075 0.619197
vt 0.443596 0.648494
vt 0.518075 0.619197
vt 0.356883 0.542017
vt 0.592555 0.589899
vt 0.205711 0.601484
vt 0.356883 0.542017
vt 0.518075 0.619197
vt 0.158125 0.620217
vt 0.205711 0.601484
vt 0.443596 0.648494
vt 0.396706 0.666952
vt 0.002309 0.681514
vt 0.158125 0.620217
vt 0.396706 0.666952
vt 0.243173 0.727348
vt 0.137623 0.616201
vt 0.185270 0.597445
vt 0.205711 0.601484
vt 0.158125 0.620217
vt 0.723867 0.731092
vt 0.819593 0.820991
vt 0.750564 0.863044
vt 0.653580 0.771966
vt 0.819593 0.820991
vt 0.824136 0.825436
vt 0.755166 0.867548
vt 0.750564 0.863044
vt 0.002309 0.942554
vt 0.091761 0.897759
vt 0.325358 0.943011
vt 0.220566 0.984015
vt 0.457542 0.944225
vt 0.406120 0.963987
vt 0.330254 0.935779
vt 0.439887 0.897759
vt 0.508964 0.924463
vt 0.457542 0.944225
vt 0.439887 0.897759
vt 0.457542 0.944225
vt 0.330254 0.935779
vt 0.030023 0.987395
vt 0.030023 0.987395
vt 0.030023 0.987395
vt 0.030023 0.987395
vt 0.030023 0.987395
vt 0.030023 0.987395
vt 0.030023 0.987395
vt 0.030023 0.987395
vt 0.030023 0.987395
vt 0.648961 0.921296
vt 0.655938 0.922316
vt 0.655296 0.922565
vt 0.648961 0.921296
vt 0.709790 0.897759
vt 0.715662 0.899207
vt 0.655938 0.922316
vt 0.715662 0.899207
vt 0.709790 0.897759
vt 0.716101 0.899037
vt 0.948527 0.910889
vt 0.935335 0.898514
vt 0.941253 0.897759
vt 0.954403 0.910135
vt 0.916481 0.897759
vt 0.928988 0.909964
vt 0.927049 0.911168
vt 0.914550 0.898951
vt 0.839722 0.900275
vt 0.794518 0.917340
vt 0.787529 0.914845
vt 0.832789 0.897759
vt 0.888550 0.914726
vt 0.872979 0.900397
vt 0.892315 0.897759
vt 0.907886 0.912067
vt 0.851864 0.897759
vt 0.866579 0.911847
vt 0.860005 0.915541
vt 0.845266 0.901439
vt 0.041570 0.987395
vt 0.041570 0.987395
vt 0.041570 0.987395
vt 0.041570 0.987395
vt 0.041570 0.987395
vt 0.041570 0.987395
vt 0.041570 0.987395
vt 0.041570 0.987395
vt 0.041570 0.987395
vt 0.041570 0.987395
vt 0.041570 0.987395
vt 0.041570 0.987395
vt 0.041570 0.987395
vt 0.041570 0.987395
vt 0.041570 0.987395
vt 0.041570 0.987395
vn 0 1 0
vn 0 1 0
vn 0 1 0
vn 0 1 0
vn 0 1 0
vn 0 1 0
vn 0 1 0
vn 0 1 0
vn 0 1 0
vn 0 1 0
vn 0 1 0
vn 0 1 0
vn 0 1 0
vn 0 1 0
vn 0 1 0
vn 0 1 0
vn 0 1 0
vn 0 1 0
vn 0 1 0
vn 0 1 0
vn 0 1 0
vn 0 1 0
vn 0 1 0
vn 0 1 0
vn 0 1 0
vn 0 1 0
vn 0 1 0
vn 0 1 0
vn 0 1 0
vn 0 1 0
vn 0 1 0
vn 0 1 0
vn 0 1 0
vn 0 1 0
vn 0 1 0
vn 0 1 0
vn 0 1 0
vn 0 1 0
vn 0 1 0
vn -0.1345103 0.9686067 0.2090646
vn -0.1345316 0.968602 0.2090727
vn -0.134553 0.9685973 0.2090808
vn -0.1345316 0.968602 0.2090727
vn -0.1345301 0.9685973 0.2090955
vn -0.1345515 0.9685926 0.2091036
vn -0.1345728 0.9685879 0.2091116
vn -0.1345515 0.9685926 0.2091036
vn -0.1344875 0.9686067 0.2090793
vn -0.1345088 0.968602 0.2090874
vn -0.1345301 0.9685973 0.2090955
vn -0.1345088 0.968602 0.2090874
vn -0.1345073 0.9685973 0.2091101
vn -0.1345286 0.9685926 0.2091182
vn -0.13455 0.9685879 0.2091263
vn -0.1345286 0.9685926 0.2091182
vn -0.134556 0.9686067 0.2090353
vn -0.134556 0.9686067 0.2090353
vn -0.134556 0.9686067 0.2090353
vn -0.1344905 0.9686161 0.2090338
vn -0.1344905 0.9686161 0.2090338
vn -0.1344905 0.9686161 0.2090338
vn -0.1345133 0.9686161 0.2090191
vn -0.1345133 0.9686161 0.2090191
vn -0.1345133 0.9686161 0.2090191
vn -0.1345926 0.9685785 0.2091424
vn -0.1345926 0.9685785 0.2091424
vn -0.1345926 0.9685785 0.2091424
vn -0.1345758 0.9685973 0.2090661
vn -0.1345758 0.9685973 0.2090661
vn -0.1345758 0.9685973 0.2090661
vn -0.1345956 0.9685879 0.209097
vn -0.1345956 0.9685879 0.209097
vn -0.1345956 0.9685879 0.209097
vn -0.1344677 0.9686161 0.2090484
vn -0.1344677 0.9686161 0.2090484
vn -0.1344677 0.9686161 0.2090484
vn -0.1344647 0.9686067 0.209094
vn -0.1344647 0.9686067 0.209094
vn -0.1344647 0.9686067 0.209094
vn -0.1344845 0.9685973 0.2091248
vn -0.1344845 0.9685973 0.2091248
vn -0.1344845 0.9685973 0.2091248
vn -0.1345043 0.9685879 0.2091556
vn -0.1345043 0.9685879 0.2091556
vn -0.1345043 0.9685879 0.2091556
vn -0.134547 0.9685785 0.2091718
vn -0.134547 0.9685785 0.2091718
vn -0.134547 0.9685785 0.2091718
vn -0.1345698 0.9685785 0.2091571
vn -0.1345698 0.9685785 0.2091571
vn -0.1345698 0.9685785 0.2091571
vn -0.1347149 0.9684992 0.2094307
vn -0.1347149 0.9684992 0.2094307
vn -0.1347149 0.9684992 0.2094307
vn -0.1306199 0.968568 0.2116944
vn -0.1306199 0.968568 0.2116944
vn -0.1306199 0.968568 0.2116944
vn -0.4202521 0.8661841 -0.2703948
vn -0.4202521 0.8661841 -0.2703948
vn -0.4202521 0.8661841 -0.2703948
vn -0.4115337 0.8734691 -0.2601764
vn -0.4115337 0.8734691 -0.2601764
vn -0.4115337 0.8734691 -0.2601764
vn 0.2633196 0.8708399 -0.4150912
vn 0.2633196 0.8708399 -0.4150912
vn 0.2633196 0.8708399 -0.4150912
vn -0.266525 0.8717964 0.4110176
vn -0.266525 0.8717964 0.4110176
vn -0.266525 0.8717964 0.4110176
vn 0.4382399 0.8544949 0.2788983
vn 0.4382399 0.8544949 0.2788983
vn 0.4382399 0.8544949 0.2788983
vn 0.4438429 0.8494793 0.2852866
vn 0.4438429 0.8494793 0.2852866
vn 0.4438429 0.8494793 0.2852866
vn 0.001130517 0.9999991 0.0007271037
vn 0.001130517 0.9999991 0.0007271037
vn 0.001130517 0.9999991 0.0007271037
vn 0.001130517 0.9999991 0.0007271037
vn -0.5409601 0 0.8410482
vn -0.5409601 0 0.8410482
vn -0.5409601 0 0.8410482
vn -0.5409601 0 0.8410482
vn -0.5409601 0 0.8410482
vn -0.5409601 0 0.8410482
vn -0.5409601 0 0.8410482
vn -0.540534 0 0.8413222
vn -0.540534 0 0.8413222
vn -0.540534 0 0.8413222
vn -0.540534 0 0.8413222
vn 0.841246 0 0.5406525
vn 0.841246 0 0.5406525
vn 0.841246 0 0.5406525
vn 0.841246 0 0.5406525
vn 0.841246 0 0.5406525
vn 0.841246 0 0.5406525
vn 0.841246 0 0.5406525
vn 0.8412138 0 0.5407026
vn 0.8412138 0 0.5407026
vn 0.8412138 0 0.5407026
vn 0.8412138 0 0.5407026
vn 0.8411861 0 0.5407457
vn 0.8411861 0 0.5407457
vn 0.8411861 0 0.5407457
vn 0.8411861 0 0.5407457
vn 0.8412138 0 0.5407026
vn 0.8412138 0 0.5407026
vn 0.8412138 0 0.5407026
vn 0.8412138 0 0.5407026
vn 0.5407464 0 -0.8411857
vn 0.5407464 0 -0.8411857
vn 0.5407464 0 -0.8411857
vn 0.5407464 0 -0.8411857
vn -0.8412443 0 -0.5406553
vn -0.8412443 0 -0.5406553
vn -0.8412443 0 -0.5406553
vn -0.8412443 0 -0.5406553
vn -0.8412443 0 -0.5406553
vn -0.8412443 0 -0.5406553
vn -0.8412443 -2.080798E-12 -0.5406553
vn -0.8412443 -2.080798E-12 -0.5406553
vn -0.8412443 -2.080798E-12 -0.5406553
vn -0.8410624 0 -0.5409381
vn -0.8410624 0 -0.5409381
vn -0.8410624 0 -0.5409381
vn -0.8410624 0 -0.5409381
vn -0.8412352 0 -0.5406693
vn -0.8412352 0 -0.5406693
vn -0.8412352 0 -0.5406693
vn -0.8412352 0 -0.5406693
vn -0.8410624 0 -0.5409381
vn -0.8410624 0 -0.5409381
vn -0.8410624 0 -0.5409381
vn -0.8410624 0 -0.5409381
vn -0.5408918 0 0.8410922
vn -0.5408918 0 0.8410922
vn -0.5408918 0 0.8410922
vn -0.5408918 0 0.8410922
vn -0.5251073 0 0.851036
vn -0.5251073 0 0.851036
vn -0.5251073 0 0.851036
vn -0.5251073 0 0.851036
vn -0.841251 0 -0.5406448
vn -0.841251 0 -0.5406448
vn -0.841251 0 -0.5406448
vn -0.841251 0 -0.5406448
vn 0.8412096 0 0.5407092
vn 0.8412096 0 0.5407092
vn 0.8412096 0 0.5407092
vn 0.8412096 0 0.5407092
vn 0.8412096 0 0.5407092
vn 0.8412096 0 0.5407092
vn 0.8412096 2.229254E-12 0.5407092
vn 0.8412096 2.229254E-12 0.5407092
vn 0.8412096 2.229254E-12 0.5407092
vn 0.5409873 0 -0.8410307
vn 0.5409873 0 -0.8410307
vn 0.5409873 0 -0.8410307
vn 0.5409873 0 -0.8410307
vn 0.5409873 0 -0.8410307
vn 0.5409873 0 -0.8410307
vn 0.5409873 3.578121E-11 -0.8410307
vn 0.5409873 3.578121E-11 -0.8410307
vn 0.5409873 3.578121E-11 -0.8410307
vn -0.8409665 0 -0.5410872
vn -0.8409665 0 -0.5410872
vn -0.8409665 0 -0.5410872
vn -0.8409666 -7.236001E-09 -0.541087
vn -0.8409666 -8.124093E-09 -0.541087
vn -0.8409666 -9.012184E-09 -0.541087
vn -0.8409666 -8.124093E-09 -0.541087
vn -0.8409667 0 -0.5410869
vn -0.8409667 0 -0.5410869
vn -0.8409667 0 -0.5410869
vn 0.5402191 0 -0.8415244
vn 0.5402191 0 -0.8415244
vn 0.5402191 0 -0.8415244
vn 0.5402191 0 -0.8415244
vn -0.539528 0 0.8419676
vn -0.539528 0 0.8419676
vn -0.539528 0 0.8419676
vn -0.539528 0 0.8419676
vn 0.8410624 0 0.5409381
vn 0.8410624 0 0.5409381
vn 0.8410624 0 0.5409381
vn 0.8410624 0 0.5409381
vn 0.5403499 0 -0.8414404
vn 0.5403499 0 -0.8414404
vn 0.5403499 0 -0.8414404
vn 0.5403499 0 -0.8414404
vn -0.5403499 0 0.8414404
vn -0.5403499 0 0.8414404
vn -0.5403499 0 0.8414404
vn -0.5403499 0 0.8414404
vn 0 -1 0
vn 0 -1 0
vn 0 -1 0
vn 0 -1 0
vn 0 -1 0
vn 0 -1 0
vn 0 -1 0
vn 0 -1 0
vn 0 -1 0
vn 0 -1 0
vn 0 -1 0
vn 0 -1 0
vn 0 -1 0
vn 0 -1 0
vn 0 -1 0
vn 0 -1 0

g CDNNDG02_0004760
f 1/1/1 2/2/2 3/3/3
f 4/4/4 5/5/5 6/6/6
f 7/7/7 8/8/8 9/9/9
f 10/10/10 11/11/11 12/12/12
f 13/13/13 14/14/14 15/15/15
f 16/16/16 17/17/17 18/18/18
f 19/19/19 20/20/20 21/21/21
f 22/22/22 23/23/23 24/24/24
f 25/25/25 26/26/26 27/27/27
f 28/28/28 29/29/29 30/30/30
f 31/31/31 32/32/32 33/33/33
f 34/34/34 35/35/35 36/36/36
f 37/37/37 38/38/38 39/39/39
f 41/41/41 42/42/42 43/43/43
f 43/43/43 40/40/40 41/41/41
f 45/45/45 46/46/46 47/47/47
f 47/47/47 44/44/44 45/45/45
f 49/49/49 50/50/50 51/51/51
f 51/51/51 48/48/48 49/49/49
f 53/53/53 54/54/54 55/55/55
f 55/55/55 52/52/52 53/53/53
f 56/56/56 57/57/57 58/58/58
f 59/59/59 60/60/60 61/61/61
f 62/62/62 63/63/63 64/64/64
f 65/65/65 66/66/66 67/67/67
f 68/68/68 69/69/69 70/70/70
f 71/71/71 72/72/72 73/73/73
f 74/74/74 75/75/75 76/76/76
f 77/77/77 78/78/78 79/79/79
f 80/80/80 81/81/81 82/82/82
f 83/83/83 84/84/84 85/85/85
f 86/86/86 87/87/87 88/88/88
f 89/89/89 90/90/90 91/91/91
f 92/92/92 93/93/93 94/94/94
f 95/95/95 96/96/96 97/97/97
f 98/98/98 99/99/99 100/100/100
f 101/101/101 102/102/102 103/103/103
f 104/104/104 105/105/105 106/106/106
f 107/107/107 108/108/108 109/109/109
f 110/110/110 111/111/111 112/112/112
f 113/113/113 114/114/114 115/115/115
f 119/119/119 116/116/116 118/118/118
f 117/117/117 118/118/118 116/116/116
f 120/120/120 121/121/121 122/122/122
f 123/123/123 125/125/125 126/126/126
f 125/125/125 123/123/123 124/124/124
f 128/128/128 129/129/129 130/130/130
f 127/127/127 128/128/128 130/130/130
f 132/132/132 133/133/133 134/134/134
f 131/131/131 132/132/132 134/134/134
f 135/135/135 136/136/136 137/137/137
f 139/139/139 140/140/140 138/138/138
f 138/138/138 140/140/140 141/141/141
f 142/142/142 144/144/144 145/145/145
f 142/142/142 143/143/143 144/144/144
f 146/146/146 148/148/148 149/149/149
f 146/146/146 147/147/147 148/148/148
f 153/153/153 150/150/150 152/152/152
f 151/151/151 152/152/152 150/150/150
f 154/154/154 155/155/155 156/156/156
f 157/157/157 158/158/158 159/159/159
f 160/160/160 161/161/161 162/162/162
f 163/163/163 165/165/165 166/166/166
f 163/163/163 164/164/164 165/165/165
f 167/167/167 169/169/169 170/170/170
f 167/167/167 168/168/168 169/169/169
f 174/174/174 171/171/171 173/173/173
f 173/173/173 171/171/171 172/172/172
f 175/175/175 177/177/177 178/178/178
f 177/177/177 175/175/175 176/176/176
f 182/182/182 179/179/179 180/180/180
f 181/181/181 182/182/182 180/180/180
f 183/183/183 185/185/185 186/186/186
f 185/185/185 183/183/183 184/184/184
f 187/187/187 188/188/188 189/189/189
f 190/190/190 191/191/191 192/192/192
f 193/193/193 194/194/194 195/195/195
f 196/196/196 197/197/197 198/198/198
f 199/199/199 200/200/200 201/201/201
f 202/202/202 203/203/203 204/204/204
f 205/205/205 206/206/206 207/207/207
f 209/209/209 210/210/210 211/211/211
f 208/208/208 209/209/209 211/211/211
f 212/212/212 213/213/213 214/214/214
f 218/218/218 215/215/215 217/217/217
f 216/216/216 217/217/217 215/215/215
f 222/222/222 219/219/219 220/220/220
f 221/221/221 222/222/222 220/220/220
f 226/226/226 223/223/223 225/225/225
f 224/224/224 225/225/225 223/223/223
f 228/228/228 229/229/229 230/230/230
f 227/227/227 228/228/228 230/230/230
f 231/231/231 233/233/233 234/234/234
f 233/233/233 231/231/231 232/232/232
f 250/250/250 235/235/235 248/248/248
f 249/249/249 250/250/250 248/248/248
f 243/243/243 244/244/244 238/238/238
f 248/248/248 235/235/235 236/236/236
f 237/237/237 238/238/238 236/236/236
f 246/246/246 247/247/247 248/248/248
f 238/238/238 239/239/239 243/243/243
f 243/243/243 240/240/240 242/242/242
f 240/240/240 241/241/241 242/242/242
f 245/245/245 248/248/248 236/236/236
f 240/240/240 243/243/243 239/239/239
f 238/238/238 244/244/244 236/236/236
f 245/245/245 246/246/246 248/248/248
f 244/244/244 245/245/245 236/236/236
