v -7.011276 6.965167 3.887222
v -4.222276 6.965563 5.667222
v -6.240276 6.965908 2.678222
v -6.240276 6.965908 2.678222
v -4.222276 6.965563 5.667222
v -3.421276 6.965663 4.411222
v 2.297224 6.966499 0.7167218
v 3.693224 6.966712 -1.763903
v 2.410224 6.966653 -2.584778
v 1.116724 6.966414 0.02872174
v 0.9012241 6.966286 3.197347
v 2.297224 6.966499 0.7167218
v 1.116724 6.966414 0.02872174
v -0.1767759 6.966176 2.642222
v 1.116724 6.966414 0.02872174
v 2.410224 6.966653 -2.584778
v 1.127224 6.966594 -3.405653
v -0.06377591 6.96633 -0.6592783
v -0.1767759 6.966176 2.642222
v 1.116724 6.966414 0.02872174
v -0.06377591 6.96633 -0.6592783
v -1.254776 6.966064 2.087097
v 2.297224 6.966499 0.7167218
v 6.474724 6.966957 -3.290778
v 3.693224 6.966712 -1.763903
v 2.410224 6.966653 -2.584778
v 3.693224 6.966712 -1.763903
v 6.474724 6.966957 -3.290778
v 0.9327241 6.966826 -7.105778
v 1.127224 6.966594 -3.405653
v 2.410224 6.966653 -2.584778
v 0.9327241 6.966826 -7.105778
v 2.410224 6.966653 -2.584778
v 6.474724 6.966957 -3.290778
v 0.4807241 6.966211 6.100222
v 2.297224 6.966499 0.7167218
v 0.9012241 6.966286 3.197347
v 0.4807241 6.966211 6.100222
v 6.474724 6.966957 -3.290778
v 2.297224 6.966499 0.7167218
v -0.1767759 6.966176 2.642222
v 0.4807241 6.966211 6.100222
v 0.9012241 6.966286 3.197347
v -3.421276 6.965663 4.411222
v 0.4807241 6.966211 6.100222
v -0.1767759 6.966176 2.642222
v -0.7402814 6.966379 -2.680421
v -0.04615358 6.966415 -2.167156
v 1.127224 6.966594 -3.405653
v -0.06377591 6.96633 -0.6592783
v 1.127224 6.966594 -3.405653
v -0.04615358 6.966415 -2.167156
v -1.254776 6.966064 2.087097
v -0.06377591 6.96633 -0.6592783
v -0.6283582 6.966311 -1.37696
v -1.254776 6.966064 2.087097
v -0.6283582 6.966311 -1.37696
v -1.101186 6.966283 -1.725774
v -3.421276 6.965663 4.411222
v -1.254776 6.966064 2.087097
v -1.101186 6.966283 -1.725774
v -0.6283582 6.966311 -1.37696
v -0.06377591 6.96633 -0.6592783
v -0.04615358 6.966415 -2.167156
v -3.421276 6.965663 4.411222
v -0.1767759 6.966176 2.642222
v -1.254776 6.966064 2.087097
v -0.7402814 6.966379 -2.680421
v 1.127224 6.966594 -3.405653
v 0.9327241 6.966826 -7.105778
v -0.09927583 6.966135 6.483222
v 0.1397241 6.966168 6.634222
v 0.4807241 6.966211 6.100222
v -3.421276 6.965663 4.411222
v -1.101186 6.966283 -1.725774
v -1.364203 6.96631 -1.919852
v -1.364203 6.96631 -1.919852
v -0.7818014 6.966383 -2.711114
v 0.9327241 6.966826 -7.105778
v -0.7818014 6.966383 -2.711114
v -0.7402814 6.966379 -2.680421
v 0.9327241 6.966826 -7.105778
v -6.240276 6.965908 2.678222
v -3.421276 6.965663 4.411222
v -1.364203 6.96631 -1.919852
v -6.240276 6.965908 2.678222
v -1.364203 6.96631 -1.919852
v 0.9327241 6.966826 -7.105778
v -0.09927583 6.966135 6.483222
v 0.1317241 6.966167 6.648222
v 0.1397241 6.966168 6.634222
v -3.421276 6.965663 4.411222
v -0.09927583 6.966135 6.483222
v 0.4807241 6.966211 6.100222
v 0.9327241 6.966826 -7.105778
v 6.474724 6.966957 -3.290778
v 6.600724 6.966972 -3.488778
v -0.8072759 7.47763 -2.048778
v -0.04615358 6.966415 -2.167156
v -0.7402814 6.966379 -2.680421
v -0.8072759 7.47763 -2.048778
v -0.7402814 6.966379 -2.680421
v -0.7818014 6.966383 -2.711114
v -0.8072759 7.47763 -2.048778
v -0.6283582 6.966311 -1.37696
v -0.04615358 6.966415 -2.167156
v -1.364203 6.96631 -1.919852
v -0.8072759 7.47763 -2.048778
v -0.7818014 6.966383 -2.711114
v -1.364203 6.96631 -1.919852
v -1.101186 6.966283 -1.725774
v -0.8072759 7.47763 -2.048778
v -1.101186 6.966283 -1.725774
v -0.6283582 6.966311 -1.37696
v -0.8072759 7.47763 -2.048778
v -1.760276 -6.968052 5.447222
v -0.09927583 -6.968052 6.483222
v -0.09927583 6.966135 6.483222
v -3.421276 6.965663 4.411222
v -3.421276 -6.968052 4.411222
v -1.760276 -6.968052 5.447222
v -3.421276 6.965663 4.411222
v -1.760276 -6.968052 5.447222
v -0.09927583 6.966135 6.483222
v -0.09927583 -6.968052 6.483222
v 0.1317241 -6.968052 6.648222
v 0.1317241 6.966167 6.648222
v -0.09927583 6.966135 6.483222
v 0.1317241 -6.968052 6.648222
v 0.1397241 -6.968052 6.634222
v 0.1397241 6.966168 6.634222
v 0.1317241 6.966167 6.648222
v 0.3102241 -6.968052 6.367222
v 0.4807241 -6.968052 6.100222
v 0.4807241 6.966211 6.100222
v 0.1397241 6.966168 6.634222
v 0.1397241 -6.968052 6.634222
v 0.3102241 -6.968052 6.367222
v 0.1397241 6.966168 6.634222
v 0.3102241 -6.968052 6.367222
v 0.4807241 6.966211 6.100222
v 3.477724 -6.968052 1.404722
v 6.474724 -6.968052 -3.290778
v 6.474724 6.966957 -3.290778
v 0.4807241 6.966211 6.100222
v 0.4807241 -6.968052 6.100222
v 3.477724 -6.968052 1.404722
v 0.4807241 6.966211 6.100222
v 3.477724 -6.968052 1.404722
v 6.474724 6.966957 -3.290778
v 6.474724 -6.968052 -3.290778
v 6.600724 -6.968052 -3.488778
v 6.600724 6.966972 -3.488778
v 6.474724 6.966957 -3.290778
v 0.9327241 6.966826 -7.105778
v 6.600724 6.966972 -3.488778
v 6.600724 -6.968052 -3.488778
v 0.9327241 -6.968052 -7.105778
v -6.240276 6.965908 2.678222
v -2.653776 -6.968052 -2.213778
v -6.240276 -6.968052 2.678222
v -2.653776 -6.968052 -2.213778
v 0.9327241 6.966826 -7.105778
v 0.9327241 -6.968052 -7.105778
v -6.240276 6.965908 2.678222
v 0.9327241 6.966826 -7.105778
v -2.653776 -6.968052 -2.213778
v -7.011276 6.965167 3.887222
v -6.625776 -6.968052 3.282722
v -7.011276 -6.968052 3.887222
v -6.625776 -6.968052 3.282722
v -6.240276 6.965908 2.678222
v -6.240276 -6.968052 2.678222
v -7.011276 6.965167 3.887222
v -6.240276 6.965908 2.678222
v -6.625776 -6.968052 3.282722
v -5.616776 -6.968052 4.777222
v -4.222276 -6.968052 5.667222
v -4.222276 6.965563 5.667222
v -7.011276 6.965167 3.887222
v -7.011276 -6.968052 3.887222
v -5.616776 -6.968052 4.777222
v -7.011276 6.965167 3.887222
v -5.616776 -6.968052 4.777222
v -4.222276 6.965563 5.667222
v -4.222276 -6.968052 5.667222
v -3.421276 -6.968052 4.411222
v -3.421276 6.965663 4.411222
v -4.222276 6.965563 5.667222
v -3.421276 -6.968052 4.411222
v -4.222276 -6.968052 5.667222
v -5.616776 -6.968052 4.777222
v -7.011276 -6.968052 3.887222
v -6.625776 -6.968052 3.282722
v -6.240276 -6.968052 2.678222
v -2.653776 -6.968052 -2.213778
v 0.9327241 -6.968052 -7.105778
v 6.600724 -6.968052 -3.488778
v 6.474724 -6.968052 -3.290778
v 3.477724 -6.968052 1.404722
v 0.4807241 -6.968052 6.100222
v 0.3102241 -6.968052 6.367222
v 0.1397241 -6.968052 6.634222
v 0.1317241 -6.968052 6.648222
v -0.09927583 -6.968052 6.483222
v -1.760276 -6.968052 5.447222
vt 0.117437 0.322821
vt 0.043526 0.257308
vt 0.167219 0.304529
vt 0.167219 0.304529
vt 0.043526 0.257308
vt 0.095240 0.238303
vt 0.246828 0.103183
vt 0.349002 0.070027
vt 0.383088 0.100167
vt 0.275413 0.130922
vt 0.144658 0.136339
vt 0.246828 0.103183
vt 0.275413 0.130922
vt 0.167742 0.161677
vt 0.275413 0.130922
vt 0.383088 0.100167
vt 0.417173 0.130308
vt 0.303998 0.158661
vt 0.167742 0.161677
vt 0.275413 0.130922
vt 0.303998 0.158661
vt 0.190826 0.187015
vt 0.246828 0.103183
vt 0.411591 0.004327
vt 0.349002 0.070027
vt 0.383088 0.100167
vt 0.349002 0.070027
vt 0.411591 0.004327
vt 0.569936 0.134494
vt 0.417173 0.130308
vt 0.383088 0.100167
vt 0.569936 0.134494
vt 0.383088 0.100167
vt 0.411591 0.004327
vt 0.024905 0.146556
vt 0.246828 0.103183
vt 0.144658 0.136339
vt 0.024905 0.146556
vt 0.411591 0.004327
vt 0.246828 0.103183
vt 0.167742 0.161677
vt 0.024905 0.146556
vt 0.144658 0.136339
vt 0.095240 0.238303
vt 0.024905 0.146556
vt 0.167742 0.161677
vt 0.387531 0.174383
vt 0.366236 0.158085
vt 0.417173 0.130308
vt 0.303998 0.158661
vt 0.417173 0.130308
vt 0.366236 0.158085
vt 0.190826 0.187015
vt 0.303998 0.158661
vt 0.333710 0.171886
vt 0.190826 0.187015
vt 0.333710 0.171886
vt 0.348183 0.182988
vt 0.095240 0.238303
vt 0.190826 0.187015
vt 0.348183 0.182988
vt 0.333710 0.171886
vt 0.303998 0.158661
vt 0.366236 0.158085
vt 0.095240 0.238303
vt 0.167742 0.161677
vt 0.190826 0.187015
vt 0.387531 0.174383
vt 0.417173 0.130308
vt 0.569936 0.134494
vt 0.009189 0.160262
vt 0.002919 0.154647
vt 0.024905 0.146556
vt 0.095240 0.238303
vt 0.348183 0.182988
vt 0.356235 0.189164
vt 0.356235 0.189164
vt 0.388804 0.175358
vt 0.569936 0.134494
vt 0.388804 0.175358
vt 0.387531 0.174383
vt 0.569936 0.134494
vt 0.167219 0.304529
vt 0.095240 0.238303
vt 0.356235 0.189164
vt 0.167219 0.304529
vt 0.356235 0.189164
vt 0.569936 0.134494
vt 0.009189 0.160262
vt 0.002342 0.154837
vt 0.002919 0.154647
vt 0.095240 0.238303
vt 0.009189 0.160262
vt 0.024905 0.146556
vt 0.569936 0.134494
vt 0.411591 0.004327
vt 0.419744 0.001337
vt 0.283372 0.868977
vt 0.284970 0.848930
vt 0.304420 0.864109
vt 0.283372 0.868977
vt 0.304420 0.864109
vt 0.305583 0.865017
vt 0.339877 0.868977
vt 0.311475 0.861904
vt 0.341509 0.848930
vt 0.381733 0.864167
vt 0.389452 0.848930
vt 0.412116 0.851340
vt 0.367626 0.865071
vt 0.360111 0.859302
vt 0.375345 0.849744
vt 0.360111 0.859302
vt 0.346604 0.848930
vt 0.375345 0.849744
vt 0.772238 0.734238
vt 0.730324 0.695964
vt 0.804988 0.608356
vt 0.890295 0.686262
vt 0.814152 0.772512
vt 0.772238 0.734238
vt 0.890295 0.686262
vt 0.772238 0.734238
vt 0.804988 0.608356
vt 0.730324 0.695964
vt 0.723653 0.690643
vt 0.798200 0.602941
vt 0.804988 0.608356
vt 0.002342 0.753526
vt 0.002903 0.753339
vt 0.072540 0.845773
vt 0.071969 0.845962
vt 0.013600 0.749370
vt 0.024297 0.745402
vt 0.094309 0.837697
vt 0.072540 0.845773
vt 0.002903 0.753339
vt 0.013600 0.749370
vt 0.072540 0.845773
vt 0.013600 0.749370
vt 0.094309 0.837697
vt 0.212416 0.675640
vt 0.400546 0.605874
vt 0.477174 0.695729
vt 0.094309 0.837697
vt 0.024297 0.745402
vt 0.212416 0.675640
vt 0.094309 0.837697
vt 0.212416 0.675640
vt 0.477174 0.695729
vt 0.400546 0.605874
vt 0.408479 0.602941
vt 0.485246 0.692744
vt 0.477174 0.695729
vt 0.717662 0.824236
vt 0.568154 0.692697
vt 0.491803 0.602941
vt 0.638734 0.732214
vt 0.129380 0.496523
vt 0.249163 0.498205
vt 0.051267 0.581879
vt 0.249163 0.498205
vt 0.532187 0.326203
vt 0.447068 0.414527
vt 0.129380 0.496523
vt 0.532187 0.326203
vt 0.249163 0.498205
vt 0.079585 0.514851
vt 0.026805 0.590881
vt 0.002342 0.599884
vt 0.026805 0.590881
vt 0.129380 0.496523
vt 0.051267 0.581879
vt 0.079585 0.514851
vt 0.129380 0.496523
vt 0.026805 0.590881
vt 0.038282 0.966865
vt 0.002342 0.934767
vt 0.077465 0.848930
vt 0.150611 0.914266
vt 0.074221 0.998963
vt 0.038282 0.966865
vt 0.150611 0.914266
vt 0.038282 0.966865
vt 0.077465 0.848930
vt 0.156909 0.867456
vt 0.206516 0.848930
vt 0.276737 0.942191
vt 0.226258 0.961041
vt 0.416862 0.848930
vt 0.416862 0.848930
vt 0.416862 0.848930
vt 0.416862 0.848930
vt 0.416862 0.848930
vt 0.416862 0.848930
vt 0.416862 0.848930
vt 0.416862 0.848930
vt 0.416862 0.848930
vt 0.416862 0.848930
vt 0.416862 0.848930
vt 0.416862 0.848930
vt 0.416862 0.848930
vt 0.416862 0.848930
vt 0.416862 0.848930
vt 0.416862 0.848930
vt 0.416862 0.848930
vn -0.0003789263 0.9999999 0.0003712223
vn -0.0003789263 0.9999999 0.0003712223
vn -0.0003789263 0.9999999 0.0003712223
vn 2.746169E-05 1 9.685256E-05
vn 2.746169E-05 1 9.685256E-05
vn 2.746169E-05 1 9.685256E-05
vn -9.164078E-05 1 3.411619E-05
vn -8.535328E-05 1 4.315306E-05
vn -7.906579E-05 1 5.218993E-05
vn -8.535328E-05 1 4.315306E-05
vn -0.0001139077 1 2.158523E-05
vn -0.0001054534 1 3.244778E-05
vn -9.699917E-05 1 4.331034E-05
vn -0.0001054534 1 3.244778E-05
vn -9.70009E-05 1 4.331331E-05
vn -9.052291E-05 1 5.163663E-05
vn -8.404491E-05 1 5.995995E-05
vn -9.052291E-05 1 5.163663E-05
vn -0.0001193962 1 3.222537E-05
vn -0.0001107638 1 4.217094E-05
vn -0.0001021314 1 5.211651E-05
vn -0.0001107638 1 4.217094E-05
vn -5.941265E-05 1 5.225293E-05
vn -5.941265E-05 1 5.225293E-05
vn -5.941265E-05 1 5.225293E-05
vn -6.850668E-05 1 3.56864E-05
vn -6.850668E-05 1 3.56864E-05
vn -6.850668E-05 1 3.56864E-05
vn -8.883629E-05 1 6.744871E-05
vn -8.883629E-05 1 6.744871E-05
vn -8.883629E-05 1 6.744871E-05
vn -6.4378E-05 1 5.945554E-05
vn -6.4378E-05 1 5.945554E-05
vn -6.4378E-05 1 5.945554E-05
vn -0.0001427072 1 5.377989E-06
vn -0.0001427072 1 5.377989E-06
vn -0.0001427072 1 5.377989E-06
vn -8.603634E-05 1 2.449986E-05
vn -8.603634E-05 1 2.449986E-05
vn -8.603634E-05 1 2.449986E-05
vn -0.0001081402 1 1.038524E-05
vn -0.0001081402 1 1.038524E-05
vn -0.0001081402 1 1.038524E-05
vn -0.0001481579 1 1.799417E-05
vn -0.0001481579 1 1.799417E-05
vn -0.0001481579 1 1.799417E-05
vn -9.314844E-05 1 5.631961E-05
vn -9.314844E-05 1 5.631961E-05
vn -9.314844E-05 1 5.631961E-05
vn -9.3747E-05 1 5.575252E-05
vn -9.3747E-05 1 5.575252E-05
vn -9.3747E-05 1 5.575252E-05
vn -9.991801E-05 1 5.307638E-05
vn -9.991801E-05 1 5.307638E-05
vn -9.991801E-05 1 5.307638E-05
vn -9.883541E-05 1 5.327215E-05
vn -9.883541E-05 1 5.327215E-05
vn -9.883541E-05 1 5.327215E-05
vn -0.0001296003 1 5.203288E-05
vn -0.0001296003 1 5.203288E-05
vn -0.0001296003 1 5.203288E-05
vn -0.0001031797 1 5.564228E-05
vn -0.0001031797 1 5.564228E-05
vn -0.0001031797 1 5.564228E-05
vn -0.0001295976 1 5.203544E-05
vn -0.0001295976 1 5.203544E-05
vn -0.0001295976 1 5.203544E-05
vn -8.882672E-05 1 6.744821E-05
vn -8.882672E-05 1 6.744821E-05
vn -8.882672E-05 1 6.744821E-05
vn -0.0001371172 1 -8.271483E-06
vn -0.0001371172 1 -8.271483E-06
vn -0.0001371172 1 -8.271483E-06
vn 2.019295E-05 1 0.0001086622
vn 2.019295E-05 1 0.0001086622
vn 2.019295E-05 1 0.0001086622
vn 2.019103E-05 1 0.0001086609
vn 2.019103E-05 1 0.0001086609
vn 2.019103E-05 1 0.0001086609
vn 2.0313E-05 1 0.0001087085
vn 2.0313E-05 1 0.0001087085
vn 2.0313E-05 1 0.0001087085
vn 2.020019E-05 1 0.0001086645
vn 2.020019E-05 1 0.0001086645
vn 2.020019E-05 1 0.0001086645
vn 2.020081E-05 1 0.0001086652
vn 2.020081E-05 1 0.0001086652
vn 2.020081E-05 1 0.0001086652
vn -0.0001403953 1 -3.083021E-06
vn -0.0001403953 1 -3.083021E-06
vn -0.0001403953 1 -3.083021E-06
vn -0.0001369188 1 -7.970961E-06
vn -0.0001369188 1 -7.970961E-06
vn -0.0001369188 1 -7.970961E-06
vn -5.42148E-05 1 4.469159E-05
vn -5.42148E-05 1 4.469159E-05
vn -5.42148E-05 1 4.469159E-05
vn 0.4056671 0.7310272 -0.5486651
vn 0.4056671 0.7310272 -0.5486651
vn 0.4056671 0.7310272 -0.5486651
vn 0.4056673 0.7310272 -0.548665
vn 0.4056673 0.7310272 -0.548665
vn 0.4056673 0.7310272 -0.548665
vn 0.5520937 0.7277699 0.4068704
vn 0.5520937 0.7277699 0.4068704
vn 0.5520937 0.7277699 0.4068704
vn -0.6511967 0.5884388 -0.4792521
vn -0.6511967 0.5884388 -0.4792521
vn -0.6511967 0.5884388 -0.4792521
vn -0.4524578 0.6474457 0.6132666
vn -0.4524578 0.6474457 0.6132666
vn -0.4524578 0.6474457 0.6132666
vn -0.4524578 0.6474457 0.6132666
vn -0.4524578 0.6474457 0.6132666
vn -0.4524578 0.6474457 0.6132666
vn -0.5292181 0 0.8484858
vn -0.5292181 0 0.8484858
vn -0.5292181 0 0.8484858
vn -0.5292181 0 0.8484858
vn -0.5292181 0 0.8484858
vn -0.5292181 0 0.8484858
vn -0.5292181 1.606638E-10 0.8484858
vn -0.5292181 1.606638E-10 0.8484858
vn -0.5292181 1.606638E-10 0.8484858
vn -0.5812383 0 0.8137334
vn -0.5812383 0 0.8137334
vn -0.5812383 0 0.8137334
vn -0.5812383 0 0.8137334
vn 0.8682432 0 0.496139
vn 0.8682432 0 0.496139
vn 0.8682432 0 0.496139
vn 0.8682432 0 0.496139
vn 0.8428156 0 0.5382025
vn 0.8428156 0 0.5382025
vn 0.8428156 0 0.5382025
vn 0.8428156 0 0.5382025
vn 0.8428156 0 0.5382025
vn 0.8428156 0 0.5382025
vn 0.8428156 0 0.5382025
vn 0.8428156 0 0.5382025
vn 0.8428156 0 0.5382025
vn 0.8429326 0 0.5380192
vn 0.8429326 0 0.5380192
vn 0.8429326 0 0.5380192
vn 0.8429326 0 0.5380192
vn 0.8429326 0 0.5380192
vn 0.8429326 0 0.5380192
vn 0.8429326 0 0.5380192
vn 0.8429326 0 0.5380192
vn 0.8429326 0 0.5380192
vn 0.8436615 0 0.5368755
vn 0.8436615 0 0.5368755
vn 0.8436615 0 0.5368755
vn 0.8436615 0 0.5368755
vn 0.5379432 0 -0.842981
vn 0.5379432 0 -0.842981
vn 0.5379432 0 -0.842981
vn 0.5379432 0 -0.842981
vn -0.806481 0 -0.59126
vn -0.806481 0 -0.59126
vn -0.806481 0 -0.59126
vn -0.806481 0 -0.59126
vn -0.806481 0 -0.59126
vn -0.806481 0 -0.59126
vn -0.806481 -2.897236E-10 -0.59126
vn -0.806481 -2.897236E-10 -0.59126
vn -0.806481 -2.897236E-10 -0.59126
vn -0.8431442 0 -0.5376874
vn -0.8431442 0 -0.5376874
vn -0.8431442 0 -0.5376874
vn -0.8431442 0 -0.5376874
vn -0.8431442 0 -0.5376874
vn -0.8431442 0 -0.5376874
vn -0.8431442 1.973066E-11 -0.5376874
vn -0.8431442 1.973066E-11 -0.5376874
vn -0.8431442 1.973066E-11 -0.5376874
vn -0.5379898 0 0.8429514
vn -0.5379898 0 0.8429514
vn -0.5379898 0 0.8429514
vn -0.5379898 0 0.8429514
vn -0.5379898 0 0.8429514
vn -0.5379898 0 0.8429514
vn -0.5379898 -2.203317E-10 0.8429514
vn -0.5379898 -2.203317E-10 0.8429514
vn -0.5379898 -2.203317E-10 0.8429514
vn 0.8431359 0 0.5377005
vn 0.8431359 0 0.5377005
vn 0.8431359 0 0.5377005
vn 0.8431359 0 0.5377005
vn 0 -1 0
vn 0 -1 0
vn 0 -1 0
vn 0 -1 0
vn 0 -1 0
vn 0 -1 0
vn 0 -1 0
vn 0 -1 0
vn 0 -1 0
vn 0 -1 0
vn 0 -1 0
vn 0 -1 0
vn 0 -1 0
vn 0 -1 0
vn 0 -1 0
vn 0 -1 0
vn 0 -1 0

g CDNNDG02_0004890
f 1/1/1 2/2/2 3/3/3
f 4/4/4 5/5/5 6/6/6
f 8/8/8 9/9/9 10/10/10
f 7/7/7 8/8/8 10/10/10
f 11/11/11 12/12/12 14/14/14
f 14/14/14 12/12/12 13/13/13
f 16/16/16 17/17/17 18/18/18
f 15/15/15 16/16/16 18/18/18
f 19/19/19 20/20/20 22/22/22
f 22/22/22 20/20/20 21/21/21
f 23/23/23 24/24/24 25/25/25
f 26/26/26 27/27/27 28/28/28
f 29/29/29 30/30/30 31/31/31
f 32/32/32 33/33/33 34/34/34
f 35/35/35 36/36/36 37/37/37
f 38/38/38 39/39/39 40/40/40
f 41/41/41 42/42/42 43/43/43
f 44/44/44 45/45/45 46/46/46
f 47/47/47 48/48/48 49/49/49
f 50/50/50 51/51/51 52/52/52
f 53/53/53 54/54/54 55/55/55
f 56/56/56 57/57/57 58/58/58
f 59/59/59 60/60/60 61/61/61
f 62/62/62 63/63/63 64/64/64
f 65/65/65 66/66/66 67/67/67
f 68/68/68 69/69/69 70/70/70
f 71/71/71 72/72/72 73/73/73
f 74/74/74 75/75/75 76/76/76
f 77/77/77 78/78/78 79/79/79
f 80/80/80 81/81/81 82/82/82
f 83/83/83 84/84/84 85/85/85
f 86/86/86 87/87/87 88/88/88
f 89/89/89 90/90/90 91/91/91
f 92/92/92 93/93/93 94/94/94
f 95/95/95 96/96/96 97/97/97
f 98/98/98 99/99/99 100/100/100
f 101/101/101 102/102/102 103/103/103
f 104/104/104 105/105/105 106/106/106
f 107/107/107 108/108/108 109/109/109
f 110/110/110 111/111/111 112/112/112
f 113/113/113 114/114/114 115/115/115
f 116/116/116 117/117/117 118/118/118
f 119/119/119 120/120/120 121/121/121
f 122/122/122 123/123/123 124/124/124
f 126/126/126 127/127/127 128/128/128
f 128/128/128 125/125/125 126/126/126
f 130/130/130 131/131/131 132/132/132
f 129/129/129 130/130/130 132/132/132
f 133/133/133 134/134/134 135/135/135
f 136/136/136 137/137/137 138/138/138
f 139/139/139 140/140/140 141/141/141
f 142/142/142 143/143/143 144/144/144
f 145/145/145 146/146/146 147/147/147
f 148/148/148 149/149/149 150/150/150
f 152/152/152 153/153/153 154/154/154
f 151/151/151 152/152/152 154/154/154
f 155/155/155 157/157/157 158/158/158
f 155/155/155 156/156/156 157/157/157
f 159/159/159 160/160/160 161/161/161
f 162/162/162 163/163/163 164/164/164
f 165/165/165 166/166/166 167/167/167
f 168/168/168 169/169/169 170/170/170
f 171/171/171 172/172/172 173/173/173
f 174/174/174 175/175/175 176/176/176
f 177/177/177 178/178/178 179/179/179
f 180/180/180 181/181/181 182/182/182
f 183/183/183 184/184/184 185/185/185
f 187/187/187 188/188/188 189/189/189
f 186/186/186 187/187/187 189/189/189
f 195/195/195 192/192/192 194/194/194
f 206/206/206 190/190/190 200/200/200
f 197/197/197 200/200/200 196/196/196
f 205/205/205 206/206/206 201/201/201
f 205/205/205 202/202/202 203/203/203
f 192/192/192 190/190/190 191/191/191
f 193/193/193 194/194/194 192/192/192
f 192/192/192 195/195/195 190/190/190
f 195/195/195 196/196/196 190/190/190
f 199/199/199 197/197/197 198/198/198
f 205/205/205 203/203/203 204/204/204
f 201/201/201 202/202/202 205/205/205
f 197/197/197 199/199/199 200/200/200
f 196/196/196 200/200/200 190/190/190
f 200/200/200 201/201/201 206/206/206
