v -7.532246 5.397111 3.297821
v -0.08424597 4.839136 8.744821
v 0.236754 5.396145 8.23982
v -8.420246 4.837136 3.442821
v -0.08424597 4.839136 8.744821
v -7.532246 5.397111 3.297821
v -3.806808 5.396876 1.586008
v -1.929871 5.396641 2.779946
v -0.211996 5.396654 -0.2089293
v -2.023621 5.396883 -1.361304
v -2.023621 5.396883 -1.361304
v -0.211996 5.396654 -0.2089293
v 1.505879 5.396666 -3.197804
v -0.2404335 5.396889 -4.308617
v -1.929871 5.396641 2.779946
v -0.05293347 5.396406 3.973883
v 1.599629 5.396424 0.9434457
v -0.211996 5.396654 -0.2089293
v -0.211996 5.396654 -0.2089293
v 1.599629 5.396424 0.9434457
v 3.252192 5.396443 -2.086992
v 1.505879 5.396666 -3.197804
v -7.532246 5.397111 3.297821
v -1.929871 5.396641 2.779946
v -3.806808 5.396876 1.586008
v -7.532246 5.397111 3.297821
v 0.236754 5.396145 8.23982
v -1.929871 5.396641 2.779946
v -7.532246 5.397111 3.297821
v -3.806808 5.396876 1.586008
v -2.023621 5.396883 -1.361304
v -2.023621 5.396883 -1.361304
v -0.2404335 5.396889 -4.308617
v -0.138246 5.397111 -8.325179
v -7.532246 5.397111 3.297821
v -2.023621 5.396883 -1.361304
v -0.138246 5.397111 -8.325179
v -0.2404335 5.396889 -4.308617
v 1.505879 5.396666 -3.197804
v -0.138246 5.397111 -8.325179
v -0.05293347 5.396406 3.973883
v 0.236754 5.396145 8.23982
v 1.599629 5.396424 0.9434457
v -1.929871 5.396641 2.779946
v 0.236754 5.396145 8.23982
v -0.05293347 5.396406 3.973883
v 0.236754 5.396145 8.23982
v 6.585754 5.396246 -4.048179
v 1.599629 5.396424 0.9434457
v 1.505879 5.396666 -3.197804
v 3.252192 5.396443 -2.086992
v 6.585754 5.396246 -4.048179
v 1.599629 5.396424 0.9434457
v 6.585754 5.396246 -4.048179
v 3.252192 5.396443 -2.086992
v -0.138246 5.397111 -8.325179
v 1.505879 5.396666 -3.197804
v 6.585754 5.396246 -4.048179
v 0.236754 5.396145 8.23982
v 7.323754 5.396151 -3.578179
v 6.585754 5.396246 -4.048179
v 0.236754 5.396145 8.23982
v 7.629754 5.396145 -3.384179
v 7.323754 5.396151 -3.578179
v -0.440246 4.841136 -9.10218
v -0.138246 5.397111 -8.325179
v 6.585754 5.396246 -4.048179
v -0.440246 4.841136 -9.10218
v 6.585754 5.396246 -4.048179
v 7.588754 4.846136 -3.995179
v 6.585754 5.396246 -4.048179
v 7.323754 4.845136 -3.578179
v 7.588754 4.846136 -3.995179
v -4.252246 -5.376003 6.093821
v -0.08424597 -5.376003 8.744821
v -0.08424597 4.839136 8.744821
v -8.420246 4.837136 3.442821
v -8.420246 -5.376003 3.442821
v -4.252246 -5.376003 6.093821
v -8.420246 4.837136 3.442821
v -4.252246 -5.376003 6.093821
v -0.08424597 4.839136 8.744821
v -0.08424597 -5.376003 8.744821
v 0.236754 -5.376003 8.23982
v 0.236754 5.396145 8.23982
v -0.08424597 4.839136 8.744821
v 3.933254 -5.376003 2.427821
v 7.629754 -5.376003 -3.384179
v 7.629754 5.396145 -3.384179
v 0.236754 5.396145 8.23982
v 0.236754 -5.376003 8.23982
v 3.933254 -5.376003 2.427821
v 0.236754 5.396145 8.23982
v 3.933254 -5.376003 2.427821
v 7.629754 5.396145 -3.384179
v -8.420246 4.837136 3.442821
v -7.976246 -5.376003 3.370321
v -8.420246 -5.376003 3.442821
v -7.976246 -5.376003 3.370321
v -7.532246 5.397111 3.297821
v -7.532246 -5.376003 3.297821
v -8.420246 4.837136 3.442821
v -7.532246 5.397111 3.297821
v -7.976246 -5.376003 3.370321
v 7.323754 5.396151 -3.578179
v 7.629754 5.396145 -3.384179
v 7.323754 4.845136 -3.578179
v 7.323754 4.845136 -3.578179
v 7.629754 5.396145 -3.384179
v 7.629754 -5.376003 -3.384179
v 7.323754 -5.376003 -3.578179
v 6.585754 5.396246 -4.048179
v 7.323754 5.396151 -3.578179
v 7.323754 4.845136 -3.578179
v -7.532246 5.397111 3.297821
v -0.138246 5.397111 -8.325179
v -0.138246 -5.376003 -8.325179
v -7.532246 -5.376003 3.297821
v -0.440246 4.841136 -9.10218
v 7.588754 4.846136 -3.995179
v 7.588754 -5.376003 -3.995179
v -0.440246 -5.376003 -9.10218
v -0.289246 -5.376003 -8.713679
v -0.138246 -5.376003 -8.325179
v -0.138246 5.397111 -8.325179
v -0.440246 4.841136 -9.10218
v -0.440246 -5.376003 -9.10218
v -0.289246 -5.376003 -8.713679
v -0.440246 4.841136 -9.10218
v -0.289246 -5.376003 -8.713679
v -0.138246 5.397111 -8.325179
v 7.456254 -5.376003 -3.786679
v 7.588754 -5.376003 -3.995179
v 7.588754 4.846136 -3.995179
v 7.323754 4.845136 -3.578179
v 7.323754 -5.376003 -3.578179
v 7.456254 -5.376003 -3.786679
v 7.323754 4.845136 -3.578179
v 7.456254 -5.376003 -3.786679
v 7.588754 4.846136 -3.995179
v -7.532246 -5.376003 3.297821
v -0.138246 -5.376003 -8.325179
v -0.289246 -5.376003 -8.713679
v -0.440246 -5.376003 -9.10218
v 7.588754 -5.376003 -3.995179
v 7.456254 -5.376003 -3.786679
v 7.323754 -5.376003 -3.578179
v 7.629754 -5.376003 -3.384179
v 3.933254 -5.376003 2.427821
v 0.236754 -5.376003 8.23982
v -0.08424597 -5.376003 8.744821
v -4.252246 -5.376003 6.093821
v -8.420246 -5.376003 3.442821
v -7.976246 -5.376003 3.370321
vt 0.544592 0.673488
vt 0.729862 0.850372
vt 0.706028 0.861849
vt 0.556827 0.648383
vt 0.729862 0.850372
vt 0.544592 0.673488
vt 0.224456 0.284487
vt 0.184296 0.238264
vt 0.283576 0.195485
vt 0.322338 0.240100
vt 0.322338 0.240100
vt 0.283576 0.195485
vt 0.382859 0.152704
vt 0.420222 0.195713
vt 0.184296 0.238264
vt 0.144135 0.192040
vt 0.244814 0.150868
vt 0.283576 0.195485
vt 0.283576 0.195485
vt 0.244814 0.150868
vt 0.345495 0.109695
vt 0.382859 0.152704
vt 0.168134 0.376703
vt 0.184296 0.238264
vt 0.224456 0.284487
vt 0.168134 0.376703
vt 0.001898 0.185377
vt 0.184296 0.238264
vt 0.168134 0.376703
vt 0.224456 0.284487
vt 0.322338 0.240100
vt 0.322338 0.240100
vt 0.420222 0.195713
vt 0.554073 0.192724
vt 0.168134 0.376703
vt 0.322338 0.240100
vt 0.554073 0.192724
vt 0.420222 0.195713
vt 0.382859 0.152704
vt 0.554073 0.192724
vt 0.144135 0.192040
vt 0.001898 0.185377
vt 0.244814 0.150868
vt 0.184296 0.238264
vt 0.001898 0.185377
vt 0.144135 0.192040
vt 0.001898 0.185377
vt 0.410213 0.027120
vt 0.244814 0.150868
vt 0.382859 0.152704
vt 0.345495 0.109695
vt 0.410213 0.027120
vt 0.244814 0.150868
vt 0.410213 0.027120
vt 0.345495 0.109695
vt 0.554073 0.192724
vt 0.382859 0.152704
vt 0.410213 0.027120
vt 0.001898 0.185377
vt 0.394404 0.008943
vt 0.410213 0.027120
vt 0.001898 0.185377
vt 0.387878 0.001406
vt 0.394404 0.008943
vt 0.907390 0.844822
vt 0.876948 0.841362
vt 0.734345 0.676702
vt 0.907390 0.844822
vt 0.734345 0.676702
vt 0.737181 0.648383
vt 0.531309 0.902954
vt 0.552545 0.923506
vt 0.539883 0.929604
vt 0.779971 0.101262
vt 0.865759 0.201114
vt 0.731610 0.268248
vt 0.557875 0.065994
vt 0.694180 0.001406
vt 0.779971 0.101262
vt 0.557875 0.065994
vt 0.779971 0.101262
vt 0.731610 0.268248
vt 0.540337 0.716105
vt 0.524004 0.723748
vt 0.382837 0.652386
vt 0.406768 0.648383
vt 0.336039 0.811761
vt 0.148082 0.899770
vt 0.001898 0.830764
vt 0.382837 0.652386
vt 0.524004 0.723748
vt 0.336039 0.811761
vt 0.382837 0.652386
vt 0.336039 0.811761
vt 0.001898 0.830764
vt 0.104633 0.928371
vt 0.197738 0.983910
vt 0.195382 0.994632
vt 0.197738 0.983910
vt 0.104364 0.902954
vt 0.200093 0.973189
vt 0.104633 0.928371
vt 0.104364 0.902954
vt 0.197738 0.983910
vt 0.008314 0.981331
vt 0.001898 0.973892
vt 0.013073 0.977650
vt 0.013073 0.977650
vt 0.001898 0.973892
vt 0.093849 0.902954
vt 0.100179 0.910293
vt 0.023856 0.999273
vt 0.008314 0.981331
vt 0.013073 0.977650
vt 0.263757 0.562082
vt 0.651523 0.379747
vt 0.743539 0.453108
vt 0.360979 0.632990
vt 0.172701 0.644446
vt 0.001898 0.447644
vt 0.089864 0.379747
vt 0.258449 0.574083
vt 0.358186 0.906529
vt 0.370675 0.910105
vt 0.222485 0.980034
vt 0.204934 0.969138
vt 0.345697 0.902954
vt 0.358186 0.906529
vt 0.204934 0.969138
vt 0.358186 0.906529
vt 0.222485 0.980034
vt 0.520039 0.970689
vt 0.513356 0.973800
vt 0.375712 0.909249
vt 0.389260 0.902954
vt 0.526722 0.967577
vt 0.520039 0.970689
vt 0.389260 0.902954
vt 0.520039 0.970689
vt 0.375712 0.909249
vt 0.557875 0.902954
vt 0.557875 0.902954
vt 0.557875 0.902954
vt 0.557875 0.902954
vt 0.557875 0.902954
vt 0.557875 0.902954
vt 0.557875 0.902954
vt 0.557875 0.902954
vt 0.557875 0.902954
vt 0.557875 0.902954
vt 0.557875 0.902954
vt 0.557875 0.902954
vt 0.557875 0.902954
vt 0.557875 0.902954
vn -0.3656331 0.7319606 0.5749314
vn -0.3656331 0.7319606 0.5749314
vn -0.3656331 0.7319606 0.5749314
vn -0.366607 0.7305396 0.5761174
vn -0.366607 0.7305396 0.5761174
vn -0.366607 0.7305396 0.5761174
vn 9.004813E-05 1 5.629508E-05
vn 8.98191E-05 1 5.583639E-05
vn 9.004813E-05 1 5.629508E-05
vn 9.027716E-05 1 5.675378E-05
vn 9.083785E-05 1 5.676134E-05
vn 9.058341E-05 1 5.627233E-05
vn 9.083785E-05 1 5.676134E-05
vn 9.109229E-05 1 5.725034E-05
vn 9.034632E-05 1 5.582213E-05
vn 9.011079E-05 1 5.536947E-05
vn 9.034632E-05 1 5.582213E-05
vn 9.058185E-05 1 5.627478E-05
vn 9.114853E-05 1 5.626841E-05
vn 9.088965E-05 1 5.57909E-05
vn 9.114853E-05 1 5.626841E-05
vn 9.140741E-05 1 5.674594E-05
vn 8.922937E-05 1 5.676348E-05
vn 8.922937E-05 1 5.676348E-05
vn 8.922937E-05 1 5.676348E-05
vn 8.910544E-05 1 5.542286E-05
vn 8.910544E-05 1 5.542286E-05
vn 8.910544E-05 1 5.542286E-05
vn 8.881974E-05 1 5.5872E-05
vn 8.881974E-05 1 5.5872E-05
vn 8.881974E-05 1 5.5872E-05
vn 9.195956E-05 1 5.777505E-05
vn 9.195956E-05 1 5.777505E-05
vn 9.195956E-05 1 5.777505E-05
vn 8.997485E-05 1 5.723772E-05
vn 8.997485E-05 1 5.723772E-05
vn 8.997485E-05 1 5.723772E-05
vn 9.077765E-05 1 5.774499E-05
vn 9.077765E-05 1 5.774499E-05
vn 9.077765E-05 1 5.774499E-05
vn 8.938958E-05 1 5.497618E-05
vn 8.938958E-05 1 5.497618E-05
vn 8.938958E-05 1 5.497618E-05
vn 9.040481E-05 1 5.490724E-05
vn 9.040481E-05 1 5.490724E-05
vn 9.040481E-05 1 5.490724E-05
vn 9.119848E-05 1 5.531406E-05
vn 9.119848E-05 1 5.531406E-05
vn 9.119848E-05 1 5.531406E-05
vn 9.204123E-05 1 5.57495E-05
vn 9.204123E-05 1 5.57495E-05
vn 9.204123E-05 1 5.57495E-05
vn 9.262107E-05 1 5.673508E-05
vn 9.262107E-05 1 5.673508E-05
vn 9.262107E-05 1 5.673508E-05
vn 9.229389E-05 1 5.725879E-05
vn 9.229389E-05 1 5.725879E-05
vn 9.229389E-05 1 5.725879E-05
vn 9.294995E-05 1 5.621901E-05
vn 9.294995E-05 1 5.621901E-05
vn 9.294995E-05 1 5.621901E-05
vn 1.33947E-05 1 8.511446E-06
vn 1.33947E-05 1 8.511446E-06
vn 1.33947E-05 1 8.511446E-06
vn 0.4014645 0.6638072 -0.63102
vn 0.4014645 0.6638072 -0.63102
vn 0.4014645 0.6638072 -0.63102
vn 0.3993225 0.6675262 -0.6284508
vn 0.3993225 0.6675262 -0.6284508
vn 0.3993225 0.6675262 -0.6284508
vn 0.4488959 0.8461394 0.2872987
vn 0.4488959 0.8461394 0.2872987
vn 0.4488959 0.8461394 0.2872987
vn -0.536679 0 0.8437865
vn -0.536679 0 0.8437865
vn -0.536679 0 0.8437865
vn -0.536679 0 0.8437865
vn -0.536679 0 0.8437865
vn -0.536679 0 0.8437865
vn -0.536679 3.846815E-11 0.8437865
vn -0.536679 3.846815E-11 0.8437865
vn -0.536679 3.846815E-11 0.8437865
vn 0.8439366 0 0.5364429
vn 0.8439366 0 0.5364429
vn 0.8439366 0 0.5364429
vn 0.8439366 0 0.5364429
vn 0.843796 0 0.5366641
vn 0.843796 0 0.5366641
vn 0.843796 0 0.5366641
vn 0.843796 0 0.5366641
vn 0.843796 0 0.5366641
vn 0.843796 0 0.5366641
vn 0.843796 0 0.5366641
vn 0.843796 0 0.5366641
vn 0.843796 0 0.5366641
vn -0.161154 0 -0.9869293
vn -0.161154 0 -0.9869293
vn -0.161154 0 -0.9869293
vn -0.161154 0 -0.9869293
vn -0.161154 0 -0.9869293
vn -0.161154 0 -0.9869293
vn -0.161154 0 -0.9869293
vn -0.161154 0 -0.9869293
vn -0.161154 0 -0.9869293
vn 0.535446 0 -0.8445694
vn 0.535446 0 -0.8445694
vn 0.535446 0 -0.8445694
vn 0.535446 0 -0.8445694
vn 0.535446 0 -0.8445694
vn 0.535446 0 -0.8445694
vn 0.535446 0 -0.8445694
vn 0.5371712 0 -0.8434732
vn 0.5371712 0 -0.8434732
vn 0.5371712 0 -0.8434732
vn -0.8437422 0 -0.5367486
vn -0.8437422 0 -0.5367486
vn -0.8437422 0 -0.5367486
vn -0.8437422 0 -0.5367486
vn 0.5366987 0 -0.843774
vn 0.5366987 0 -0.843774
vn 0.5366987 0 -0.843774
vn 0.5366987 0 -0.843774
vn -0.9320722 0 0.3622726
vn -0.9320722 0 0.3622726
vn -0.9320722 0 0.3622726
vn -0.9320722 0 0.3622726
vn -0.9320722 0 0.3622726
vn -0.9320722 0 0.3622726
vn -0.9320722 1.348906E-11 0.3622726
vn -0.9320722 1.348906E-11 0.3622726
vn -0.9320722 1.348906E-11 0.3622726
vn 0.8439947 0 0.5363516
vn 0.8439947 0 0.5363516
vn 0.8439947 0 0.5363516
vn 0.8439947 0 0.5363516
vn 0.8439947 0 0.5363516
vn 0.8439947 0 0.5363516
vn 0.8439947 -2.443426E-11 0.5363516
vn 0.8439947 -2.443426E-11 0.5363516
vn 0.8439947 -2.443426E-11 0.5363516
vn 0 -1 0
vn 0 -1 0
vn 0 -1 0
vn 0 -1 0
vn 0 -1 0
vn 0 -1 0
vn 0 -1 0
vn 0 -1 0
vn 0 -1 0
vn 0 -1 0
vn 0 -1 0
vn 0 -1 0
vn 0 -1 0
vn 0 -1 0

g CDNNDG02_0004110
f 1/1/1 2/2/2 3/3/3
f 4/4/4 5/5/5 6/6/6
f 7/7/7 9/9/9 10/10/10
f 9/9/9 7/7/7 8/8/8
f 11/11/11 13/13/13 14/14/14
f 13/13/13 11/11/11 12/12/12
f 15/15/15 17/17/17 18/18/18
f 17/17/17 15/15/15 16/16/16
f 19/19/19 21/21/21 22/22/22
f 21/21/21 19/19/19 20/20/20
f 23/23/23 24/24/24 25/25/25
f 26/26/26 27/27/27 28/28/28
f 29/29/29 30/30/30 31/31/31
f 32/32/32 33/33/33 34/34/34
f 35/35/35 36/36/36 37/37/37
f 38/38/38 39/39/39 40/40/40
f 41/41/41 42/42/42 43/43/43
f 44/44/44 45/45/45 46/46/46
f 47/47/47 48/48/48 49/49/49
f 50/50/50 51/51/51 52/52/52
f 53/53/53 54/54/54 55/55/55
f 56/56/56 57/57/57 58/58/58
f 59/59/59 60/60/60 61/61/61
f 62/62/62 63/63/63 64/64/64
f 65/65/65 66/66/66 67/67/67
f 68/68/68 69/69/69 70/70/70
f 71/71/71 72/72/72 73/73/73
f 74/74/74 75/75/75 76/76/76
f 77/77/77 78/78/78 79/79/79
f 80/80/80 81/81/81 82/82/82
f 86/86/86 83/83/83 84/84/84
f 84/84/84 85/85/85 86/86/86
f 87/87/87 88/88/88 89/89/89
f 90/90/90 91/91/91 92/92/92
f 93/93/93 94/94/94 95/95/95
f 96/96/96 97/97/97 98/98/98
f 99/99/99 100/100/100 101/101/101
f 102/102/102 103/103/103 104/104/104
f 105/105/105 106/106/106 107/107/107
f 108/108/108 110/110/110 111/111/111
f 108/108/108 109/109/109 110/110/110
f 112/112/112 113/113/113 114/114/114
f 118/118/118 115/115/115 117/117/117
f 117/117/117 115/115/115 116/116/116
f 122/122/122 119/119/119 121/121/121
f 120/120/120 121/121/121 119/119/119
f 123/123/123 124/124/124 125/125/125
f 126/126/126 127/127/127 128/128/128
f 129/129/129 130/130/130 131/131/131
f 132/132/132 133/133/133 134/134/134
f 135/135/135 136/136/136 137/137/137
f 138/138/138 139/139/139 140/140/140
f 152/152/152 153/153/153 154/154/154
f 154/154/154 141/141/141 152/152/152
f 145/145/145 142/142/142 143/143/143
f 145/145/145 143/143/143 144/144/144
f 150/150/150 151/151/151 152/152/152
f 141/141/141 142/142/142 149/149/149
f 149/149/149 150/150/150 152/152/152
f 142/142/142 145/145/145 146/146/146
f 142/142/142 146/146/146 147/147/147
f 149/149/149 142/142/142 147/147/147
f 147/147/147 148/148/148 149/149/149
f 141/141/141 149/149/149 152/152/152
