v -1.590052 5.428237 6.758404
v -0.3580524 5.428237 7.548404
v 7.111948 5.428237 -4.098596
v -4.090053 5.428237 4.335404
v -3.608052 5.428237 4.636404
v 0.7599476 5.428237 -8.171596
v -5.493052 5.428237 4.279404
v -4.090053 5.428237 4.335404
v 0.7599476 5.428237 -8.171596
v -3.608052 5.428237 4.636404
v -1.590052 5.428237 6.758404
v 7.111948 5.428237 -4.098596
v -3.608052 5.428237 4.636404
v 7.111948 5.428237 -4.098596
v 0.7599476 5.428237 -8.171596
v -5.493052 5.428237 4.279404
v -3.891052 5.428237 5.089404
v -4.373053 5.428237 4.788404
v -5.493052 5.428237 4.279404
v -4.373053 5.428237 4.788404
v -4.090053 5.428237 4.335404
v -3.891052 5.428237 5.089404
v -1.590052 5.428237 6.758404
v -3.608052 5.428237 4.636404
v -5.493052 5.428237 4.279404
v -1.590052 5.428237 6.758404
v -3.891052 5.428237 5.089404
v -6.110053 5.428237 5.242404
v -2.219052 5.428237 7.738404
v -1.590052 5.428237 6.758404
v -5.493052 5.428237 4.279404
v -6.720052 5.428237 3.492404
v -5.493052 5.428237 4.279404
v 0.7599476 5.428237 -8.171596
v -4.373053 6.383237 4.788404
v -3.891052 6.384237 5.089404
v -3.608052 6.384237 4.636404
v -4.090053 6.383237 4.335404
v -2.219052 -5.431109 7.738404
v -1.590052 -5.431109 6.758404
v -1.590052 5.428237 6.758404
v -2.219052 5.428237 7.738404
v -1.590052 -5.431109 6.758404
v -0.3580524 -5.431109 7.548404
v -0.3580524 5.428237 7.548404
v -1.590052 5.428237 6.758404
v -0.3580524 -5.431109 7.548404
v 7.111948 -5.431109 -4.098596
v 7.111948 5.428237 -4.098596
v -0.3580524 5.428237 7.548404
v 0.7599476 5.428237 -8.171596
v 7.111948 5.428237 -4.098596
v 7.111948 -5.431109 -4.098596
v 0.7599476 -5.431109 -8.171596
v -6.720052 5.428237 3.492404
v 0.7599476 5.428237 -8.171596
v 0.7599476 -5.431109 -8.171596
v -6.720052 -5.431109 3.492404
v -6.106553 -5.431109 3.885904
v -5.493052 -5.431109 4.279404
v -5.493052 5.428237 4.279404
v -6.720052 5.428237 3.492404
v -6.720052 -5.431109 3.492404
v -6.106553 -5.431109 3.885904
v -6.720052 5.428237 3.492404
v -6.106553 -5.431109 3.885904
v -5.493052 5.428237 4.279404
v -6.110053 5.428237 5.242404
v -5.493052 5.428237 4.279404
v -5.493052 -5.431109 4.279404
v -6.110053 -5.431109 5.242404
v -6.110053 -5.431109 5.242404
v -2.219052 -5.431109 7.738404
v -2.219052 5.428237 7.738404
v -6.110053 5.428237 5.242404
v -4.373053 5.428237 4.788404
v -3.891052 5.428237 5.089404
v -3.891052 6.384237 5.089404
v -4.373053 6.383237 4.788404
v -3.891052 5.428237 5.089404
v -3.608052 5.428237 4.636404
v -3.608052 6.384237 4.636404
v -3.891052 6.384237 5.089404
v -4.090053 6.383237 4.335404
v -3.608052 6.384237 4.636404
v -3.608052 5.428237 4.636404
v -4.090053 5.428237 4.335404
v -4.373053 6.383237 4.788404
v -4.090053 6.383237 4.335404
v -4.090053 5.428237 4.335404
v -4.373053 5.428237 4.788404
v -6.110053 -5.431109 5.242404
v -5.493052 -5.431109 4.279404
v -6.106553 -5.431109 3.885904
v -6.720052 -5.431109 3.492404
v 0.7599476 -5.431109 -8.171596
v 7.111948 -5.431109 -4.098596
v -0.3580524 -5.431109 7.548404
v -1.590052 -5.431109 6.758404
v -2.219052 -5.431109 7.738404
vt 0.038485 0.199556
vt 0.008798 0.171734
vt 0.440976 0.001292
vt 0.129261 0.255925
vt 0.117947 0.245039
vt 0.594021 0.144747
vt 0.131648 0.287697
vt 0.129261 0.255925
vt 0.594021 0.144747
vt 0.117947 0.245039
vt 0.038485 0.199556
vt 0.440976 0.001292
vt 0.117947 0.245039
vt 0.440976 0.001292
vt 0.594021 0.144747
vt 0.131648 0.287697
vt 0.101138 0.251497
vt 0.112451 0.262383
vt 0.131648 0.287697
vt 0.112451 0.262383
vt 0.129261 0.255925
vt 0.101138 0.251497
vt 0.038485 0.199556
vt 0.117947 0.245039
vt 0.131648 0.287697
vt 0.038485 0.199556
vt 0.101138 0.251497
vt 0.095917 0.301773
vt 0.002123 0.213906
vt 0.038485 0.199556
vt 0.131648 0.287697
vt 0.161220 0.315404
vt 0.131648 0.287697
vt 0.594021 0.144747
vt 0.171923 0.947713
vt 0.161359 0.937553
vt 0.177043 0.931525
vt 0.187607 0.941685
vt 0.475554 0.866456
vt 0.440364 0.880091
vt 0.269639 0.803224
vt 0.305303 0.789406
vt 0.651729 0.789406
vt 0.680187 0.816214
vt 0.508673 0.870017
vt 0.479830 0.842847
vt 0.600298 0.396291
vt 0.179274 0.559608
vt 0.002123 0.484641
vt 0.428806 0.319121
vt 0.684954 0.783717
vt 0.532909 0.640851
vt 0.624405 0.563307
vt 0.774395 0.704248
vt 0.002123 0.732468
vt 0.437023 0.563307
vt 0.527934 0.619929
vt 0.098913 0.786798
vt 0.873462 0.802753
vt 0.887639 0.816100
vt 0.714512 0.868382
vt 0.685775 0.841328
vt 0.859285 0.789406
vt 0.873462 0.802753
vt 0.685775 0.841328
vt 0.873462 0.802753
vt 0.714512 0.868382
vt 0.002123 0.945298
vt 0.037600 0.931525
vt 0.133630 0.985529
vt 0.098633 0.999117
vt 0.175186 0.789406
vt 0.265319 0.874631
vt 0.093476 0.928237
vt 0.002123 0.841862
vt 0.207594 0.931525
vt 0.217846 0.941493
vt 0.203455 0.945913
vt 0.193206 0.935928
vt 0.253075 0.937910
vt 0.237461 0.943641
vt 0.222930 0.937262
vt 0.238562 0.931525
vt 0.148229 0.948485
vt 0.138004 0.938303
vt 0.145777 0.931525
vt 0.155981 0.941701
vt 0.259023 0.937253
vt 0.274695 0.931525
vt 0.282737 0.935924
vt 0.267084 0.941646
vt 0.288747 0.931525
vt 0.288747 0.931525
vt 0.288747 0.931525
vt 0.288747 0.931525
vt 0.288747 0.931525
vt 0.288747 0.931525
vt 0.288747 0.931525
vt 0.288747 0.931525
vt 0.288747 0.931525
vn 0 1 0
vn 0 1 0
vn 0 1 0
vn 0 1 0
vn 0 1 0
vn 0 1 0
vn 0 1 0
vn 0 1 0
vn 0 1 0
vn 0 1 0
vn 0 1 0
vn 0 1 0
vn 0 1 0
vn 0 1 0
vn 0 1 0
vn 0 1 0
vn 0 1 0
vn 0 1 0
vn 0 1 0
vn 0 1 0
vn 0 1 0
vn 0 1 0
vn 0 1 0
vn 0 1 0
vn 0 1 0
vn 0 1 0
vn 0 1 0
vn 0 1 0
vn 0 1 0
vn 0 1 0
vn 0 1 0
vn 0 1 0
vn 0 1 0
vn 0 1 0
vn -0.001492442 0.9999985 -0.0009323641
vn -0.001492442 0.9999985 -0.0009323641
vn -0.001492442 0.9999985 -0.0009323641
vn -0.001492442 0.9999985 -0.0009323641
vn 0.8415689 0 0.5401498
vn 0.8415689 0 0.5401498
vn 0.8415689 0 0.5401498
vn 0.8415689 0 0.5401498
vn -0.5397903 0 0.8417996
vn -0.5397903 0 0.8417996
vn -0.5397903 0 0.8417996
vn -0.5397903 0 0.8417996
vn 0.8417486 0 0.5398697
vn 0.8417486 0 0.5398697
vn 0.8417486 0 0.5398697
vn 0.8417486 0 0.5398697
vn 0.5397793 0 -0.8418066
vn 0.5397793 0 -0.8418066
vn 0.5397793 0 -0.8418066
vn 0.5397793 0 -0.8418066
vn -0.8417782 0 -0.5398235
vn -0.8417782 0 -0.5398235
vn -0.8417782 0 -0.5398235
vn -0.8417782 0 -0.5398235
vn -0.5398905 0 0.8417352
vn -0.5398905 0 0.8417352
vn -0.5398905 0 0.8417352
vn -0.5398905 0 0.8417352
vn -0.5398905 0 0.8417352
vn -0.5398905 0 0.8417352
vn -0.5398905 -1.446943E-12 0.8417352
vn -0.5398905 -1.446943E-12 0.8417352
vn -0.5398905 -1.446943E-12 0.8417352
vn -0.8420013 0 -0.5394754
vn -0.8420013 0 -0.5394754
vn -0.8420013 0 -0.5394754
vn -0.8420013 0 -0.5394754
vn -0.5399373 0 0.8417052
vn -0.5399373 0 0.8417052
vn -0.5399373 0 0.8417052
vn -0.5399373 0 0.8417052
vn -0.5296825 0 0.848196
vn -0.5296825 0 0.848196
vn -0.5296825 0 0.848196
vn -0.5296825 0 0.848196
vn 0.8481035 0 0.5298306
vn 0.8481035 0 0.5298306
vn 0.8481035 0 0.5298306
vn 0.8481035 0 0.5298306
vn 0.5296825 0 -0.848196
vn 0.5296825 0 -0.848196
vn 0.5296825 0 -0.848196
vn 0.5296825 0 -0.848196
vn -0.8481035 0 -0.5298306
vn -0.8481035 0 -0.5298306
vn -0.8481035 0 -0.5298306
vn -0.8481035 0 -0.5298306
vn 0 -1 0
vn 0 -1 0
vn 0 -1 0
vn 0 -1 0
vn 0 -1 0
vn 0 -1 0
vn 0 -1 0
vn 0 -1 0
vn 0 -1 0

g CDNNDG02_0004450
f 1/1/1 2/2/2 3/3/3
f 4/4/4 5/5/5 6/6/6
f 7/7/7 8/8/8 9/9/9
f 10/10/10 11/11/11 12/12/12
f 13/13/13 14/14/14 15/15/15
f 16/16/16 17/17/17 18/18/18
f 19/19/19 20/20/20 21/21/21
f 22/22/22 23/23/23 24/24/24
f 25/25/25 26/26/26 27/27/27
f 31/31/31 28/28/28 29/29/29
f 30/30/30 31/31/31 29/29/29
f 32/32/32 33/33/33 34/34/34
f 36/36/36 37/37/37 38/38/38
f 35/35/35 36/36/36 38/38/38
f 40/40/40 41/41/41 39/39/39
f 39/39/39 41/41/41 42/42/42
f 43/43/43 45/45/45 46/46/46
f 45/45/45 43/43/43 44/44/44
f 50/50/50 47/47/47 49/49/49
f 48/48/48 49/49/49 47/47/47
f 54/54/54 51/51/51 53/53/53
f 52/52/52 53/53/53 51/51/51
f 58/58/58 55/55/55 57/57/57
f 57/57/57 55/55/55 56/56/56
f 59/59/59 60/60/60 61/61/61
f 62/62/62 63/63/63 64/64/64
f 65/65/65 66/66/66 67/67/67
f 68/68/68 70/70/70 71/71/71
f 68/68/68 69/69/69 70/70/70
f 75/75/75 72/72/72 74/74/74
f 74/74/74 72/72/72 73/73/73
f 77/77/77 78/78/78 79/79/79
f 79/79/79 76/76/76 77/77/77
f 80/80/80 82/82/82 83/83/83
f 80/80/80 81/81/81 82/82/82
f 87/87/87 84/84/84 86/86/86
f 85/85/85 86/86/86 84/84/84
f 91/91/91 88/88/88 90/90/90
f 90/90/90 88/88/88 89/89/89
f 92/92/92 93/93/93 100/100/100
f 97/97/97 98/98/98 99/99/99
f 96/96/96 97/97/97 99/99/99
f 93/93/93 99/99/99 100/100/100
f 93/93/93 94/94/94 96/96/96
f 93/93/93 96/96/96 99/99/99
f 94/94/94 95/95/95 96/96/96
