v -2.382524 5.732411 4.813026
v -2.378524 5.732411 5.675026
v -0.8125243 5.732411 6.708026
v 0.4384757 5.732411 6.343026
v 5.723475 5.732411 -1.666974
v 5.812476 5.732411 -1.801974
v 6.290476 5.732411 -2.526974
v 1.256476 5.732411 -5.847974
v 1.291476 5.732411 -5.900974
v -0.1695243 5.732411 -6.863974
v -6.266524 5.732411 2.379026
v -2.382524 -5.732411 4.813026
v -2.378524 -5.732411 5.675026
v -2.378524 5.732411 5.675026
v -2.382524 5.732411 4.813026
v -2.378524 -5.732411 5.675026
v -0.8125243 -5.732411 6.708026
v -0.8125243 5.732411 6.708026
v -2.378524 5.732411 5.675026
v -0.8125243 -5.732411 6.708026
v 0.4384757 -5.732411 6.343026
v 0.4384757 5.732411 6.343026
v -0.8125243 5.732411 6.708026
v 0.4384757 -5.732411 6.343026
v 5.723475 -5.732411 -1.666974
v 5.723475 5.732411 -1.666974
v 0.4384757 5.732411 6.343026
v 5.723475 -5.732411 -1.666974
v 5.812476 -5.732411 -1.801974
v 5.812476 5.732411 -1.801974
v 5.723475 5.732411 -1.666974
v 5.812476 -5.732411 -1.801974
v 6.290476 -5.732411 -2.526974
v 6.290476 5.732411 -2.526974
v 5.812476 5.732411 -1.801974
v 1.256476 5.732411 -5.847974
v 6.290476 5.732411 -2.526974
v 6.290476 -5.732411 -2.526974
v 1.256476 -5.732411 -5.847974
v 1.256476 -5.732411 -5.847974
v 1.291476 -5.732411 -5.900974
v 1.291476 5.732411 -5.900974
v 1.256476 5.732411 -5.847974
v -0.1695243 5.732411 -6.863974
v 0.5609757 -5.732411 -6.382474
v -0.1695243 -5.732411 -6.863974
v 0.5609757 -5.732411 -6.382474
v 1.291476 5.732411 -5.900974
v 1.291476 -5.732411 -5.900974
v -0.1695243 5.732411 -6.863974
v 1.291476 5.732411 -5.900974
v 0.5609757 -5.732411 -6.382474
v -6.266524 5.732411 2.379026
v -0.1695243 5.732411 -6.863974
v -0.1695243 -5.732411 -6.863974
v -6.266524 -5.732411 2.379026
v -6.266524 -5.732411 2.379026
v -2.382524 -5.732411 4.813026
v -2.382524 5.732411 4.813026
v -6.266524 5.732411 2.379026
v -6.266524 -5.732411 2.379026
v -0.1695243 -5.732411 -6.863974
v 0.5609757 -5.732411 -6.382474
v 1.291476 -5.732411 -5.900974
v 1.256476 -5.732411 -5.847974
v 6.290476 -5.732411 -2.526974
v 5.812476 -5.732411 -1.801974
v 5.723475 -5.732411 -1.666974
v 0.4384757 -5.732411 6.343026
v -0.8125243 -5.732411 6.708026
v -2.378524 -5.732411 5.675026
v -2.382524 -5.732411 4.813026
vt 0.092538 0.290891
vt 0.051965 0.291028
vt 0.002681 0.239585
vt 0.019330 0.198117
vt 0.394121 0.020897
vt 0.400438 0.017913
vt 0.434363 0.001883
vt 0.592801 0.167262
vt 0.595281 0.166088
vt 0.641223 0.214084
vt 0.208741 0.418516
vt 0.682682 0.860194
vt 0.643432 0.860201
vt 0.692312 0.745770
vt 0.732134 0.745763
vt 0.428099 0.912424
vt 0.380697 0.861520
vt 0.428965 0.745763
vt 0.477057 0.797409
vt 0.581769 0.785621
vt 0.597713 0.745763
vt 0.636982 0.836728
vt 0.620810 0.877155
vt 0.498660 0.612052
vt 0.864817 0.441976
vt 0.910954 0.531196
vt 0.539556 0.703701
vt 0.864817 0.441976
vt 0.870989 0.439112
vt 0.917213 0.528291
vt 0.910954 0.531196
vt 0.870989 0.439112
vt 0.904132 0.423729
vt 0.950831 0.512688
vt 0.917213 0.528291
vt 0.202449 0.998146
vt 0.049038 0.834661
vt 0.002681 0.745763
vt 0.153929 0.906945
vt 0.739946 0.746874
vt 0.742262 0.745763
vt 0.789003 0.835786
vt 0.786654 0.836913
vt 0.574232 0.883558
vt 0.504177 0.769011
vt 0.525780 0.792259
vt 0.504177 0.769011
vt 0.530408 0.836398
vt 0.482574 0.745763
vt 0.574232 0.883558
vt 0.530408 0.836398
vt 0.504177 0.769011
vt 0.054974 0.628019
vt 0.490985 0.423729
vt 0.432429 0.540440
vt 0.002681 0.741791
vt 0.322119 0.987880
vt 0.209115 0.861175
vt 0.259214 0.745763
vt 0.373863 0.874315
vt 0.796247 0.745763
vt 0.796247 0.745763
vt 0.796247 0.745763
vt 0.796247 0.745763
vt 0.796247 0.745763
vt 0.796247 0.745763
vt 0.796247 0.745763
vt 0.796247 0.745763
vt 0.796247 0.745763
vt 0.796247 0.745763
vt 0.796247 0.745763
vt 0.796247 0.745763
vn 0 1 0
vn 0 1 0
vn 0 1 0
vn 0 1 0
vn 0 1 0
vn 0 1 0
vn 0 1 0
vn 0 1 0
vn 0 1 0
vn 0 1 0
vn 0 1 0
vn -0.9999892 0 0.004640321
vn -0.9999892 0 0.004640321
vn -0.9999892 0 0.004640321
vn -0.9999892 0 0.004640321
vn -0.5506343 0 0.8347466
vn -0.5506343 0 0.8347466
vn -0.5506343 0 0.8347466
vn -0.5506343 0 0.8347466
vn 0.2800884 0 0.9599742
vn 0.2800884 0 0.9599742
vn 0.2800884 0 0.9599742
vn 0.2800884 0 0.9599742
vn 0.834686 0 0.5507261
vn 0.834686 0 0.5507261
vn 0.834686 0 0.5507261
vn 0.834686 0 0.5507261
vn 0.8348936 0 0.5504113
vn 0.8348936 0 0.5504113
vn 0.8348936 0 0.5504113
vn 0.8348936 0 0.5504113
vn 0.834874 0 0.5504411
vn 0.834874 0 0.5504411
vn 0.834874 0 0.5504411
vn 0.834874 0 0.5504411
vn 0.5506759 0 -0.8347192
vn 0.5506759 0 -0.8347192
vn 0.5506759 0 -0.8347192
vn 0.5506759 0 -0.8347192
vn 0.8344646 0 0.5510615
vn 0.8344646 0 0.5510615
vn 0.8344646 0 0.5510615
vn 0.8344646 0 0.5510615
vn 0.5503405 0 -0.8349403
vn 0.5503405 0 -0.8349403
vn 0.5503405 0 -0.8349403
vn 0.5503405 0 -0.8349403
vn 0.5503405 0 -0.8349403
vn 0.5503405 0 -0.8349403
vn 0.5503405 3.251532E-11 -0.8349403
vn 0.5503405 3.251532E-11 -0.8349403
vn 0.5503405 3.251532E-11 -0.8349403
vn -0.8347497 0 -0.5506296
vn -0.8347497 0 -0.5506296
vn -0.8347497 0 -0.5506296
vn -0.8347497 0 -0.5506296
vn -0.5310183 0 0.8473604
vn -0.5310183 0 0.8473604
vn -0.5310183 0 0.8473604
vn -0.5310183 0 0.8473604
vn 0 -1 0
vn 0 -1 0
vn 0 -1 0
vn 0 -1 0
vn 0 -1 0
vn 0 -1 0
vn 0 -1 0
vn 0 -1 0
vn 0 -1 0
vn 0 -1 0
vn 0 -1 0
vn 0 -1 0

g CDNNDG02_0000290
f 11/11/11 1/1/1 8/8/8
f 9/9/9 10/10/10 8/8/8
f 2/2/2 3/3/3 1/1/1
f 8/8/8 10/10/10 11/11/11
f 3/3/3 4/4/4 1/1/1
f 5/5/5 8/8/8 1/1/1
f 5/5/5 1/1/1 4/4/4
f 5/5/5 6/6/6 8/8/8
f 6/6/6 7/7/7 8/8/8
f 14/14/14 12/12/12 13/13/13
f 12/12/12 14/14/14 15/15/15
f 17/17/17 18/18/18 19/19/19
f 19/19/19 16/16/16 17/17/17
f 20/20/20 22/22/22 23/23/23
f 20/20/20 21/21/21 22/22/22
f 27/27/27 24/24/24 26/26/26
f 25/25/25 26/26/26 24/24/24
f 29/29/29 30/30/30 28/28/28
f 28/28/28 30/30/30 31/31/31
f 33/33/33 34/34/34 32/32/32
f 32/32/32 34/34/34 35/35/35
f 36/36/36 38/38/38 39/39/39
f 36/36/36 37/37/37 38/38/38
f 40/40/40 42/42/42 43/43/43
f 40/40/40 41/41/41 42/42/42
f 44/44/44 45/45/45 46/46/46
f 47/47/47 48/48/48 49/49/49
f 50/50/50 51/51/51 52/52/52
f 56/56/56 53/53/53 55/55/55
f 55/55/55 53/53/53 54/54/54
f 57/57/57 59/59/59 60/60/60
f 59/59/59 57/57/57 58/58/58
f 72/72/72 65/65/65 68/68/68
f 61/61/61 62/62/62 63/63/63
f 72/72/72 61/61/61 65/65/65
f 70/70/70 71/71/71 72/72/72
f 68/68/68 69/69/69 72/72/72
f 63/63/63 64/64/64 65/65/65
f 72/72/72 69/69/69 70/70/70
f 65/65/65 66/66/66 67/67/67
f 65/65/65 61/61/61 63/63/63
f 67/67/67 68/68/68 65/65/65
