v -6.166734 3.757981 -6.589849
v -1.683145 3.757981 1.776653
v -1.777734 3.054981 -8.940849
v -1.777734 3.054981 -8.940849
v -1.683145 3.757981 1.776653
v 2.74583 3.054028 -0.4999147
v -1.683145 3.757981 1.776653
v -0.6361187 3.757981 3.730432
v 2.96453 3.054547 -0.08335374
v -1.683145 3.757981 1.776653
v 2.96453 3.054547 -0.08335374
v 2.967425 3.053981 -0.08641976
v -1.683145 3.757981 1.776653
v 2.967425 3.053981 -0.08641976
v 2.74583 3.054028 -0.4999147
v -2.232733 2.864981 2.059151
v -0.5897336 4.313981 5.258151
v -1.683145 2.864981 1.776653
v 2.74583 2.864981 -0.4999147
v 4.518266 4.319981 2.649151
v 2.868266 2.864981 -0.5628493
v 1.606035 3.953981 3.12483
v 2.840596 3.955106 2.493357
v 2.439926 3.591731 1.685314
v 1.247805 3.590981 2.29601
v -0.6361187 3.757981 3.730432
v 1.247805 3.590981 2.29601
v 2.96453 3.054547 -0.08335374
v 1.247805 3.590981 2.29601
v 2.439926 3.591731 1.685314
v 2.96453 3.054547 -0.08335374
v 2.439926 3.591731 1.685314
v 2.967425 3.053981 -0.08641976
v 2.96453 3.054547 -0.08335374
v 2.74583 2.864981 -0.4999147
v 2.967425 3.053981 -0.08641976
v 4.518266 4.319981 2.649151
v 2.439926 3.591731 1.685314
v 4.518266 4.319981 2.649151
v 2.967425 3.053981 -0.08641976
v -0.6361187 3.757981 3.730432
v -0.5897336 4.313981 5.258151
v 0.3714746 3.952856 3.756303
v -1.683145 2.864981 1.776653
v -0.5897336 4.313981 5.258151
v -0.6361187 3.757981 3.730432
v -0.5897336 4.313981 5.258151
v 1.606035 3.953981 3.12483
v 0.3714746 3.952856 3.756303
v 0.3714746 3.952856 3.756303
v 1.606035 3.953981 3.12483
v 1.247805 3.590981 2.29601
v 1.606035 3.953981 3.12483
v 4.518266 4.319981 2.649151
v 2.840596 3.955106 2.493357
v -0.5897336 4.313981 5.258151
v 4.518266 4.319981 2.649151
v 1.606035 3.953981 3.12483
v 2.439926 3.591731 1.685314
v 2.840596 3.955106 2.493357
v 4.518266 4.319981 2.649151
v -0.6361187 3.757981 3.730432
v 0.3714746 3.952856 3.756303
v 1.247805 3.590981 2.29601
v 3.187891 3.227981 6.363776
v 4.466204 3.228356 5.713963
v 4.057891 3.591731 4.909776
v 2.780016 3.590981 5.560401
v 1.909579 3.227606 7.013588
v 3.187891 3.227981 6.363776
v 2.780016 3.590981 5.560401
v 1.502141 3.590231 6.211026
v 2.780016 3.590981 5.560401
v 4.057891 3.591731 4.909776
v 3.649579 3.955106 4.105588
v 2.372141 3.953981 4.757026
v 1.502141 3.590231 6.211026
v 2.780016 3.590981 5.560401
v 2.372141 3.953981 4.757026
v 1.094704 3.952856 5.408463
v 4.057891 3.591731 4.909776
v 4.466204 3.228356 5.713963
v 6.153266 2.864981 5.869151
v 4.057891 3.591731 4.909776
v 6.153266 2.864981 5.869151
v 4.518266 4.319981 2.649151
v 3.187891 3.227981 6.363776
v 6.153266 2.864981 5.869151
v 4.466204 3.228356 5.713963
v 1.038266 2.864981 8.465151
v 3.187891 3.227981 6.363776
v 1.909579 3.227606 7.013588
v 1.038266 2.864981 8.465151
v 6.153266 2.864981 5.869151
v 3.187891 3.227981 6.363776
v 1.038266 2.864981 8.465151
v 1.909579 3.227606 7.013588
v 1.502141 3.590231 6.211026
v 2.372141 3.953981 4.757026
v 3.649579 3.955106 4.105588
v 4.518266 4.319981 2.649151
v 3.649579 3.955106 4.105588
v 4.057891 3.591731 4.909776
v 4.518266 4.319981 2.649151
v -0.5897336 4.313981 5.258151
v 2.372141 3.953981 4.757026
v 4.518266 4.319981 2.649151
v -0.5897336 4.313981 5.258151
v 1.502141 3.590231 6.211026
v 1.094704 3.952856 5.408463
v -0.5897336 4.313981 5.258151
v 1.094704 3.952856 5.408463
v 2.372141 3.953981 4.757026
v -0.5897336 4.313981 5.258151
v 1.038266 2.864981 8.465151
v 1.502141 3.590231 6.211026
v -1.683145 3.757981 1.776653
v -1.683145 2.864981 1.776653
v -0.6361187 3.757981 3.730432
v -3.924939 -3.52994 -2.406598
v -1.683145 2.864981 1.776653
v -1.683145 3.757981 1.776653
v -3.924939 -3.52994 -2.406598
v -1.683145 -3.52994 1.776653
v -1.683145 2.864981 1.776653
v -6.166734 3.757981 -6.589849
v -6.166734 -3.52994 -6.589849
v -3.924939 -3.52994 -2.406598
v -6.166734 3.757981 -6.589849
v -3.924939 -3.52994 -2.406598
v -1.683145 3.757981 1.776653
v 2.74583 3.054028 -0.4999147
v 2.967425 3.053981 -0.08641976
v 2.74583 2.864981 -0.4999147
v -1.777734 3.054981 -8.940849
v 2.74583 2.864981 -0.4999147
v 2.74583 -3.52994 -0.4999147
v -1.777734 -3.52994 -8.940849
v -1.777734 3.054981 -8.940849
v 2.74583 3.054028 -0.4999147
v 2.74583 2.864981 -0.4999147
v -6.166734 3.757981 -6.589849
v -3.972234 -3.52994 -7.765349
v -6.166734 -3.52994 -6.589849
v -3.972234 -3.52994 -7.765349
v -1.777734 3.054981 -8.940849
v -1.777734 -3.52994 -8.940849
v -6.166734 3.757981 -6.589849
v -1.777734 3.054981 -8.940849
v -3.972234 -3.52994 -7.765349
v -1.411234 -3.52994 3.658651
v -0.5897336 -3.52994 5.258151
v -0.5897336 4.313981 5.258151
v -2.232733 2.864981 2.059151
v -2.232733 -3.52994 2.059151
v -1.411234 -3.52994 3.658651
v -2.232733 2.864981 2.059151
v -1.411234 -3.52994 3.658651
v -0.5897336 4.313981 5.258151
v 0.2242664 -3.52994 6.861651
v 1.038266 -3.52994 8.465151
v 1.038266 2.864981 8.465151
v -0.5897336 4.313981 5.258151
v -0.5897336 -3.52994 5.258151
v 0.2242664 -3.52994 6.861651
v -0.5897336 4.313981 5.258151
v 0.2242664 -3.52994 6.861651
v 1.038266 2.864981 8.465151
v 2.868266 2.864981 -0.5628493
v 4.518266 4.319981 2.649151
v 4.518266 -3.52994 2.649151
v 2.868266 -3.52994 -0.5628493
v 4.518266 4.319981 2.649151
v 5.335766 -3.52994 4.259151
v 4.518266 -3.52994 2.649151
v 5.335766 -3.52994 4.259151
v 6.153266 2.864981 5.869151
v 6.153266 -3.52994 5.869151
v 4.518266 4.319981 2.649151
v 6.153266 2.864981 5.869151
v 5.335766 -3.52994 4.259151
v 2.74583 2.864981 -0.4999147
v 2.868266 2.864981 -0.5628493
v 2.868266 -3.52994 -0.5628493
v 2.74583 -3.52994 -0.4999147
v -2.232733 2.864981 2.059151
v -1.683145 2.864981 1.776653
v -1.683145 -3.52994 1.776653
v -2.232733 -3.52994 2.059151
v 1.038266 -3.52994 8.465151
v 6.153266 -3.52994 5.869151
v 6.153266 2.864981 5.869151
v 1.038266 2.864981 8.465151
v -3.924939 -3.52994 -2.406598
v -6.166734 -3.52994 -6.589849
v -3.972234 -3.52994 -7.765349
v -1.777734 -3.52994 -8.940849
v 2.74583 -3.52994 -0.4999147
v 2.868266 -3.52994 -0.5628493
v 4.518266 -3.52994 2.649151
v 5.335766 -3.52994 4.259151
v 6.153266 -3.52994 5.869151
v 1.038266 -3.52994 8.465151
v 0.2242664 -3.52994 6.861651
v -0.5897336 -3.52994 5.258151
v -1.411234 -3.52994 3.658651
v -2.232733 -3.52994 2.059151
v -1.683145 -3.52994 1.776653
vt 0.575836 0.334165
vt 0.111590 0.173260
vt 0.696013 0.172233
vt 0.696013 0.172233
vt 0.111590 0.173260
vt 0.228025 0.010025
vt 0.111590 0.173260
vt 0.003175 0.135684
vt 0.204937 0.002186
vt 0.111590 0.173260
vt 0.204937 0.002186
vt 0.205099 0.002079
vt 0.111590 0.173260
vt 0.205099 0.002079
vt 0.228025 0.010025
vt 0.161898 0.592335
vt 0.003175 0.524376
vt 0.177335 0.572418
vt 0.301744 0.411905
vt 0.146073 0.338877
vt 0.305183 0.407467
vt 0.115908 0.446783
vt 0.150476 0.401971
vt 0.190568 0.418674
vt 0.157156 0.461923
vt 0.080571 0.529292
vt 0.157156 0.461923
vt 0.281151 0.402849
vt 0.157156 0.461923
vt 0.190568 0.418674
vt 0.281151 0.402849
vt 0.190568 0.418674
vt 0.281312 0.402747
vt 0.281151 0.402849
vt 0.301744 0.411905
vt 0.281312 0.402747
vt 0.146073 0.338877
vt 0.190568 0.418674
vt 0.146073 0.338877
vt 0.281312 0.402747
vt 0.080571 0.529292
vt 0.003175 0.524376
vt 0.081341 0.491593
vt 0.177335 0.572418
vt 0.003175 0.524376
vt 0.080571 0.529292
vt 0.003175 0.524376
vt 0.115908 0.446783
vt 0.081341 0.491593
vt 0.081341 0.491593
vt 0.115908 0.446783
vt 0.157156 0.461923
vt 0.115908 0.446783
vt 0.146073 0.338877
vt 0.150476 0.401971
vt 0.003175 0.524376
vt 0.146073 0.338877
vt 0.115908 0.446783
vt 0.190568 0.418674
vt 0.150476 0.401971
vt 0.146073 0.338877
vt 0.080571 0.529292
vt 0.081341 0.491593
vt 0.157156 0.461923
vt 0.433944 0.447258
vt 0.469506 0.401019
vt 0.518286 0.416939
vt 0.482659 0.463182
vt 0.398384 0.493496
vt 0.433944 0.447258
vt 0.482659 0.463182
vt 0.447032 0.509424
vt 0.482659 0.463182
vt 0.518286 0.416939
vt 0.567111 0.432874
vt 0.531417 0.479120
vt 0.447032 0.509424
vt 0.482659 0.463182
vt 0.531417 0.479120
vt 0.495725 0.525366
vt 0.518286 0.416939
vt 0.469506 0.401019
vt 0.456266 0.338877
vt 0.518286 0.416939
vt 0.456266 0.338877
vt 0.651740 0.402571
vt 0.433944 0.447258
vt 0.456266 0.338877
vt 0.469506 0.401019
vt 0.314286 0.523816
vt 0.433944 0.447258
vt 0.398384 0.493496
vt 0.314286 0.523816
vt 0.456266 0.338877
vt 0.433944 0.447258
vt 0.314286 0.523816
vt 0.398384 0.493496
vt 0.447032 0.509424
vt 0.531417 0.479120
vt 0.567111 0.432874
vt 0.651740 0.402571
vt 0.567111 0.432874
vt 0.518286 0.416939
vt 0.651740 0.402571
vt 0.508703 0.587571
vt 0.531417 0.479120
vt 0.651740 0.402571
vt 0.508703 0.587571
vt 0.447032 0.509424
vt 0.495725 0.525366
vt 0.508703 0.587571
vt 0.495725 0.525366
vt 0.531417 0.479120
vt 0.508703 0.587571
vt 0.314286 0.523816
vt 0.447032 0.509424
vt 0.111565 0.634221
vt 0.100409 0.639785
vt 0.003175 0.596674
vt 0.251212 0.758929
vt 0.100409 0.639785
vt 0.111565 0.634221
vt 0.251212 0.758929
vt 0.021246 0.679267
vt 0.100409 0.639785
vt 0.575702 0.795002
vt 0.481174 0.838589
vt 0.251212 0.758929
vt 0.575702 0.795002
vt 0.251212 0.758929
vt 0.111565 0.634221
vt 0.488889 0.844075
vt 0.488889 0.844075
vt 0.488889 0.844075
vt 0.488889 0.844075
vt 0.488889 0.844075
vt 0.488889 0.844075
vt 0.488889 0.844075
vt 0.488889 0.844075
vt 0.488889 0.844075
vt 0.488889 0.844075
vt 0.520635 0.844075
vt 0.520635 0.844075
vt 0.520635 0.844075
vt 0.520635 0.844075
vt 0.520635 0.844075
vt 0.520635 0.844075
vt 0.520635 0.844075
vt 0.520635 0.844075
vt 0.520635 0.844075
vt 0.266906 0.970735
vt 0.179141 0.941692
vt 0.274360 0.893025
vt 0.433566 0.960640
vt 0.354670 0.999778
vt 0.266906 0.970735
vt 0.433566 0.960640
vt 0.266906 0.970735
vt 0.274360 0.893025
vt 0.091158 0.912917
vt 0.003175 0.884142
vt 0.079251 0.844075
vt 0.274360 0.893025
vt 0.179141 0.941692
vt 0.091158 0.912917
vt 0.274360 0.893025
vt 0.091158 0.912917
vt 0.079251 0.844075
vt 0.441270 0.844075
vt 0.441270 0.844075
vt 0.441270 0.844075
vt 0.441270 0.844075
vt 0.441270 0.844075
vt 0.441270 0.844075
vt 0.441270 0.844075
vt 0.441270 0.844075
vt 0.441270 0.844075
vt 0.441270 0.844075
vt 0.441270 0.844075
vt 0.441270 0.844075
vt 0.441270 0.844075
vt 0.457143 0.844075
vt 0.457143 0.844075
vt 0.457143 0.844075
vt 0.457143 0.844075
vt 0.473016 0.844075
vt 0.473016 0.844075
vt 0.473016 0.844075
vt 0.473016 0.844075
vt 0.584127 0.779839
vt 0.724260 0.596674
vt 0.800155 0.618918
vt 0.658895 0.803552
vt 0.504762 0.844075
vt 0.504762 0.844075
vt 0.504762 0.844075
vt 0.504762 0.844075
vt 0.504762 0.844075
vt 0.504762 0.844075
vt 0.504762 0.844075
vt 0.504762 0.844075
vt 0.504762 0.844075
vt 0.504762 0.844075
vt 0.504762 0.844075
vt 0.504762 0.844075
vt 0.504762 0.844075
vt 0.504762 0.844075
vt 0.504762 0.844075
vn 0.1232269 0.9901789 -0.066037
vn 0.1232269 0.9901789 -0.066037
vn 0.1232269 0.9901789 -0.066037
vn 0.1234334 0.9901531 -0.06603713
vn 0.1234334 0.9901531 -0.06603713
vn 0.1234334 0.9901531 -0.06603713
vn 0.1233968 0.9901516 -0.06612806
vn 0.1233968 0.9901516 -0.06612806
vn 0.1233968 0.9901516 -0.06612806
vn 0.1234346 0.9901532 -0.06603427
vn 0.1234346 0.9901532 -0.06603427
vn 0.1234346 0.9901532 -0.06603427
vn 0.1234334 0.9901531 -0.06603713
vn 0.1234334 0.9901531 -0.06603713
vn 0.1234334 0.9901531 -0.06603713
vn -0.1708511 0.9275401 -0.3323843
vn -0.1708511 0.9275401 -0.3323843
vn -0.1708511 0.9275401 -0.3323843
vn -0.1708564 0.9275355 -0.3323945
vn -0.1708564 0.9275355 -0.3323945
vn -0.1708564 0.9275355 -0.3323945
vn -0.1708597 0.9275376 -0.3323867
vn -0.1708594 0.9275371 -0.3323883
vn -0.1708591 0.9275366 -0.3323899
vn -0.1708594 0.9275371 -0.3323883
vn -0.1708655 0.9275334 -0.3323956
vn -0.1708655 0.9275334 -0.3323956
vn -0.1708655 0.9275334 -0.3323956
vn -0.1708603 0.9275355 -0.3323923
vn -0.1708603 0.9275355 -0.3323923
vn -0.1708603 0.9275355 -0.3323923
vn -0.1708563 0.9275365 -0.3323914
vn -0.1708563 0.9275365 -0.3323914
vn -0.1708563 0.9275365 -0.3323914
vn -0.1708573 0.9275355 -0.332394
vn -0.1708573 0.9275355 -0.332394
vn -0.1708573 0.9275355 -0.332394
vn -0.1708603 0.9275355 -0.3323923
vn -0.1708603 0.9275355 -0.3323923
vn -0.1708603 0.9275355 -0.3323923
vn -0.1708578 0.9275395 -0.3323824
vn -0.1708578 0.9275395 -0.3323824
vn -0.1708578 0.9275395 -0.3323824
vn -0.1708563 0.9275398 -0.3323825
vn -0.1708563 0.9275398 -0.3323825
vn -0.1708563 0.9275398 -0.3323825
vn -0.1708574 0.9275397 -0.3323821
vn -0.1708574 0.9275397 -0.3323821
vn -0.1708574 0.9275397 -0.3323821
vn -0.1708597 0.9275376 -0.3323867
vn -0.1708597 0.9275376 -0.3323867
vn -0.1708597 0.9275376 -0.3323867
vn -0.170862 0.9275355 -0.3323913
vn -0.170862 0.9275355 -0.3323913
vn -0.170862 0.9275355 -0.3323913
vn -0.1708614 0.9275376 -0.332386
vn -0.1708614 0.9275376 -0.332386
vn -0.1708614 0.9275376 -0.332386
vn -0.1708626 0.9275365 -0.3323882
vn -0.1708626 0.9275365 -0.3323882
vn -0.1708626 0.9275365 -0.3323882
vn -0.1708575 0.9275385 -0.3323856
vn -0.1708575 0.9275385 -0.3323856
vn -0.1708575 0.9275385 -0.3323856
vn 0.1691265 0.9275486 0.3332413
vn 0.1691262 0.9275481 0.333243
vn 0.1691259 0.9275475 0.3332448
vn 0.1691262 0.9275481 0.333243
vn 0.1691252 0.9275498 0.3332386
vn 0.1691249 0.9275492 0.3332404
vn 0.1691246 0.9275486 0.3332422
vn 0.1691249 0.9275492 0.3332404
vn 0.1691246 0.9275486 0.3332422
vn 0.1691243 0.9275481 0.333244
vn 0.169124 0.9275475 0.3332458
vn 0.1691243 0.9275481 0.333244
vn 0.1691232 0.9275498 0.3332396
vn 0.1691229 0.9275492 0.3332414
vn 0.1691227 0.9275486 0.3332432
vn 0.1691229 0.9275492 0.3332414
vn 0.1691297 0.9275475 0.3332429
vn 0.1691297 0.9275475 0.3332429
vn 0.1691297 0.9275475 0.3332429
vn 0.1691272 0.9275463 0.3332475
vn 0.1691272 0.9275463 0.3332475
vn 0.1691272 0.9275463 0.3332475
vn 0.1691291 0.9275463 0.3332465
vn 0.1691291 0.9275463 0.3332465
vn 0.1691291 0.9275463 0.3332465
vn 0.1691238 0.927551 0.333236
vn 0.1691238 0.927551 0.333236
vn 0.1691238 0.927551 0.333236
vn 0.1691284 0.9275486 0.3332403
vn 0.1691284 0.9275486 0.3332403
vn 0.1691284 0.9275486 0.3332403
vn 0.1691271 0.9275498 0.3332376
vn 0.1691271 0.9275498 0.3332376
vn 0.1691271 0.9275498 0.3332376
vn 0.1691253 0.9275463 0.3332484
vn 0.1691253 0.9275463 0.3332484
vn 0.1691253 0.9275463 0.3332484
vn 0.1691221 0.9275475 0.3332468
vn 0.1691221 0.9275475 0.3332468
vn 0.1691221 0.9275475 0.3332468
vn 0.1691207 0.9275486 0.3332442
vn 0.1691207 0.9275486 0.3332442
vn 0.1691207 0.9275486 0.3332442
vn 0.1691194 0.9275498 0.3332416
vn 0.1691194 0.9275498 0.3332416
vn 0.1691194 0.9275498 0.3332416
vn 0.16912 0.927551 0.3332379
vn 0.16912 0.927551 0.3332379
vn 0.16912 0.927551 0.3332379
vn 0.1691219 0.927551 0.333237
vn 0.1691219 0.927551 0.333237
vn 0.1691219 0.927551 0.333237
vn -0.8814127 0 0.472347
vn -0.8814127 0 0.472347
vn -0.8814127 0 0.472347
vn -0.8814127 0 0.472347
vn -0.8814127 0 0.472347
vn -0.8814127 0 0.472347
vn -0.8814127 0 0.472347
vn -0.8814127 0 0.472347
vn -0.8814127 0 0.472347
vn -0.8814127 0 0.472347
vn -0.8814127 0 0.472347
vn -0.8814127 0 0.472347
vn -0.8814127 -2.699101E-10 0.472347
vn -0.8814127 -2.699101E-10 0.472347
vn -0.8814127 -2.699101E-10 0.472347
vn 0.8814089 0 -0.472354
vn 0.8814089 0 -0.472354
vn 0.8814089 0 -0.472354
vn 0.8814089 0 -0.472354
vn 0.8814089 0 -0.472354
vn 0.8814089 0 -0.472354
vn 0.8814089 0 -0.472354
vn 0.8814089 0 -0.472354
vn 0.8814089 0 -0.472354
vn 0.8814089 0 -0.472354
vn -0.4721824 0 -0.8815008
vn -0.4721824 0 -0.8815008
vn -0.4721824 0 -0.8815008
vn -0.4721824 0 -0.8815008
vn -0.4721824 0 -0.8815008
vn -0.4721824 0 -0.8815008
vn -0.4721824 5.719644E-11 -0.8815008
vn -0.4721824 5.719644E-11 -0.8815008
vn -0.4721824 5.719644E-11 -0.8815008
vn -0.8895365 0 0.4568641
vn -0.8895365 0 0.4568641
vn -0.8895365 0 0.4568641
vn -0.8895365 0 0.4568641
vn -0.8895365 0 0.4568641
vn -0.8895365 0 0.4568641
vn -0.8895365 2.988219E-11 0.4568641
vn -0.8895365 2.988219E-11 0.4568641
vn -0.8895365 2.988219E-11 0.4568641
vn -0.8916858 0 0.452655
vn -0.8916858 0 0.452655
vn -0.8916858 0 0.452655
vn -0.8916858 0 0.452655
vn -0.8916858 0 0.452655
vn -0.8916858 0 0.452655
vn -0.8916858 3.645167E-12 0.452655
vn -0.8916858 3.645167E-12 0.452655
vn -0.8916858 3.645167E-12 0.452655
vn 0.8895001 0 -0.456935
vn 0.8895001 0 -0.456935
vn 0.8895001 0 -0.456935
vn 0.8895001 0 -0.456935
vn 0.891641 0 -0.4527432
vn 0.891641 0 -0.4527432
vn 0.891641 0 -0.4527432
vn 0.891641 0 -0.4527432
vn 0.891641 0 -0.4527432
vn 0.891641 0 -0.4527432
vn 0.891641 2.595674E-11 -0.4527432
vn 0.891641 2.595674E-11 -0.4527432
vn 0.891641 2.595674E-11 -0.4527432
vn -0.4571589 0 -0.889385
vn -0.4571589 0 -0.889385
vn -0.4571589 0 -0.889385
vn -0.4571589 0 -0.889385
vn -0.4571589 0 -0.889385
vn -0.4571589 0 -0.889385
vn -0.4571589 0 -0.889385
vn -0.4571589 0 -0.889385
vn 0.4525751 0 0.8917263
vn 0.4525751 0 0.8917263
vn 0.4525751 0 0.8917263
vn 0.4525751 0 0.8917263
vn 0 -1 0
vn 0 -1 0
vn 0 -1 0
vn 0 -1 0
vn 0 -1 0
vn 0 -1 0
vn 0 -1 0
vn 0 -1 0
vn 0 -1 0
vn 0 -1 0
vn 0 -1 0
vn 0 -1 0
vn 0 -1 0
vn 0 -1 0
vn 0 -1 0

g CDNNDG02_0010360
f 1/1/1 2/2/2 3/3/3
f 4/4/4 5/5/5 6/6/6
f 7/7/7 8/8/8 9/9/9
f 10/10/10 11/11/11 12/12/12
f 13/13/13 14/14/14 15/15/15
f 16/16/16 17/17/17 18/18/18
f 19/19/19 20/20/20 21/21/21
f 23/23/23 24/24/24 25/25/25
f 22/22/22 23/23/23 25/25/25
f 26/26/26 27/27/27 28/28/28
f 29/29/29 30/30/30 31/31/31
f 32/32/32 33/33/33 34/34/34
f 35/35/35 36/36/36 37/37/37
f 38/38/38 39/39/39 40/40/40
f 41/41/41 42/42/42 43/43/43
f 44/44/44 45/45/45 46/46/46
f 47/47/47 48/48/48 49/49/49
f 50/50/50 51/51/51 52/52/52
f 53/53/53 54/54/54 55/55/55
f 56/56/56 57/57/57 58/58/58
f 59/59/59 60/60/60 61/61/61
f 62/62/62 63/63/63 64/64/64
f 68/68/68 65/65/65 66/66/66
f 66/66/66 67/67/67 68/68/68
f 72/72/72 69/69/69 70/70/70
f 70/70/70 71/71/71 72/72/72
f 76/76/76 73/73/73 74/74/74
f 74/74/74 75/75/75 76/76/76
f 80/80/80 77/77/77 78/78/78
f 78/78/78 79/79/79 80/80/80
f 81/81/81 82/82/82 83/83/83
f 84/84/84 85/85/85 86/86/86
f 87/87/87 88/88/88 89/89/89
f 90/90/90 91/91/91 92/92/92
f 93/93/93 94/94/94 95/95/95
f 96/96/96 97/97/97 98/98/98
f 99/99/99 100/100/100 101/101/101
f 102/102/102 103/103/103 104/104/104
f 105/105/105 106/106/106 107/107/107
f 108/108/108 109/109/109 110/110/110
f 111/111/111 112/112/112 113/113/113
f 114/114/114 115/115/115 116/116/116
f 117/117/117 118/118/118 119/119/119
f 120/120/120 121/121/121 122/122/122
f 123/123/123 124/124/124 125/125/125
f 126/126/126 127/127/127 128/128/128
f 129/129/129 130/130/130 131/131/131
f 132/132/132 133/133/133 134/134/134
f 138/138/138 136/136/136 137/137/137
f 138/138/138 135/135/135 136/136/136
f 139/139/139 140/140/140 141/141/141
f 142/142/142 143/143/143 144/144/144
f 145/145/145 146/146/146 147/147/147
f 148/148/148 149/149/149 150/150/150
f 151/151/151 152/152/152 153/153/153
f 154/154/154 155/155/155 156/156/156
f 157/157/157 158/158/158 159/159/159
f 160/160/160 161/161/161 162/162/162
f 163/163/163 164/164/164 165/165/165
f 166/166/166 167/167/167 168/168/168
f 172/172/172 169/169/169 171/171/171
f 171/171/171 169/169/169 170/170/170
f 173/173/173 174/174/174 175/175/175
f 176/176/176 177/177/177 178/178/178
f 179/179/179 180/180/180 181/181/181
f 183/183/183 184/184/184 182/182/182
f 182/182/182 184/184/184 185/185/185
f 186/186/186 188/188/188 189/189/189
f 186/186/186 187/187/187 188/188/188
f 193/193/193 190/190/190 192/192/192
f 192/192/192 190/190/190 191/191/191
f 208/208/208 194/194/194 198/198/198
f 208/208/208 198/198/198 206/206/206
f 200/200/200 205/205/205 206/206/206
f 196/196/196 194/194/194 195/195/195
f 197/197/197 194/194/194 196/196/196
f 198/198/198 194/194/194 197/197/197
f 204/204/204 205/205/205 201/201/201
f 199/199/199 200/200/200 198/198/198
f 208/208/208 206/206/206 207/207/207
f 204/204/204 201/201/201 202/202/202
f 204/204/204 202/202/202 203/203/203
f 198/198/198 200/200/200 206/206/206
f 200/200/200 201/201/201 205/205/205
