v -8.378705 1.043809 -4.574283
v -5.703705 1.042809 -3.142282
v -2.503706 1.043809 -9.123282
v -8.378705 1.043809 -4.574283
v -2.503706 1.043809 -9.123282
v -5.179706 1.043809 -10.55528
v 8.572294 1.043059 2.74503
v 9.409294 1.043059 1.179842
v 8.692294 1.043309 0.7964674
v 7.855295 1.043309 2.361593
v 7.855295 1.043309 2.361593
v 8.692294 1.043309 0.7964674
v 7.975295 1.043559 0.4130924
v 7.138295 1.043559 1.978155
v 9.409294 1.043059 1.179842
v 10.24629 1.043059 -0.3853451
v 9.529295 1.043309 -0.7686576
v 8.692294 1.043309 0.7964674
v 8.692294 1.043309 0.7964674
v 9.529295 1.043309 -0.7686576
v 8.812295 1.043559 -1.15197
v 7.975295 1.043559 0.4130924
v 8.452294 1.042809 4.693717
v 9.409294 1.043059 1.179842
v 8.572294 1.043059 2.74503
v 8.452294 1.042809 4.693717
v 11.80029 1.042809 -1.567283
v 9.409294 1.043059 1.179842
v 7.855295 1.043309 2.361593
v 8.452294 1.042809 4.693717
v 8.572294 1.043059 2.74503
v 5.584295 1.043809 3.159717
v 7.855295 1.043309 2.361593
v 7.138295 1.043559 1.978155
v 5.584295 1.043809 3.159717
v 8.452294 1.042809 4.693717
v 7.855295 1.043309 2.361593
v 5.584295 1.043809 3.159717
v 7.138295 1.043559 1.978155
v 7.975295 1.043559 0.4130924
v 9.529295 1.043309 -0.7686576
v 10.24629 1.043059 -0.3853451
v 11.80029 1.042809 -1.567283
v 9.409294 1.043059 1.179842
v 11.80029 1.042809 -1.567283
v 10.24629 1.043059 -0.3853451
v 8.932295 1.043809 -3.100283
v 9.529295 1.043309 -0.7686576
v 11.80029 1.042809 -1.567283
v 7.975295 1.043559 0.4130924
v 8.812295 1.043559 -1.15197
v 8.932295 1.043809 -3.100283
v 8.812295 1.043559 -1.15197
v 9.529295 1.043309 -0.7686576
v 8.932295 1.043809 -3.100283
v 5.584295 1.043809 3.159717
v 7.975295 1.043559 0.4130924
v 8.932295 1.043809 -3.100283
v -0.002705461 5.575416 9.319717
v 1.780295 5.575572 10.27372
v 5.584294 5.575572 3.159717
v -7.989706 5.574737 5.647717
v -0.2527055 5.575415 9.786717
v -0.002705461 5.575416 9.319717
v -7.742705 5.574737 5.185718
v -7.742705 5.574737 5.185718
v -0.002705461 5.575416 9.319717
v 5.584294 5.575572 3.159717
v -5.703705 5.574572 -3.142282
v 5.114295 5.57522 -5.618283
v 5.584294 5.575572 3.159717
v 8.932295 5.575572 -3.100283
v 5.114295 5.57522 -5.618283
v 8.932295 5.575572 -3.100283
v 9.130295 5.575572 -3.469283
v -5.703705 5.574572 -3.142282
v 5.584294 5.575572 3.159717
v 5.114295 5.57522 -5.618283
v 1.904295 5.574934 -7.452282
v 5.114295 5.57522 -5.618283
v 5.685295 5.57522 -6.685283
v 2.426295 5.574934 -8.428283
v -9.620706 5.574572 4.180717
v -7.742705 5.574737 5.185718
v -5.703705 5.574572 -3.142282
v -5.703705 5.574572 -3.142282
v 5.114295 5.57522 -5.618283
v 1.904295 5.574934 -7.452282
v -2.503706 5.574572 -9.123282
v 1.904295 5.574934 -7.452282
v -2.218705 5.574572 -9.658282
v -5.703705 5.574572 -3.142282
v 1.904295 5.574934 -7.452282
v -2.503706 5.574572 -9.123282
v -5.179706 1.043809 -10.55528
v -2.503706 1.043809 -9.123282
v -2.503706 -5.093081 -9.123282
v -5.179706 -5.093081 -10.55528
v -8.378705 1.043809 -4.574283
v -5.179706 1.043809 -10.55528
v -5.179706 -5.093081 -10.55528
v -8.378705 -5.093081 -4.574283
v -8.378705 -5.093081 -4.574283
v -5.703705 -5.093081 -3.142282
v -5.703705 1.042809 -3.142282
v -8.378705 1.043809 -4.574283
v 8.452294 -5.093081 4.693717
v 11.80029 -5.093081 -1.567283
v 11.80029 1.042809 -1.567283
v 8.452294 1.042809 4.693717
v 8.932295 1.043809 -3.100283
v 11.80029 1.042809 -1.567283
v 11.80029 -5.093081 -1.567283
v 8.932295 -5.093081 -3.100283
v 5.584295 -5.093081 3.159717
v 8.452294 -5.093081 4.693717
v 8.452294 1.042809 4.693717
v 5.584295 1.043809 3.159717
v -9.620706 -5.093081 4.180717
v -7.742705 -5.093081 5.185718
v -7.742705 5.574737 5.185718
v -9.620706 5.574572 4.180717
v -7.989706 5.574737 5.647717
v -7.742705 5.574737 5.185718
v -7.742705 -5.093081 5.185718
v -7.989706 -5.093081 5.647717
v -7.989706 -5.093081 5.647717
v -0.2527055 -5.093081 9.786717
v -0.2527055 5.575415 9.786717
v -7.989706 5.574737 5.647717
v -0.2527055 -5.093081 9.786717
v -0.002705461 -5.093081 9.319717
v -0.002705461 5.575416 9.319717
v -0.2527055 5.575415 9.786717
v 0.8887945 -5.093081 9.796718
v 1.780295 -5.093081 10.27372
v 1.780295 5.575572 10.27372
v -0.002705461 5.575416 9.319717
v -0.002705461 -5.093081 9.319717
v 0.8887945 -5.093081 9.796718
v -0.002705461 5.575416 9.319717
v 0.8887945 -5.093081 9.796718
v 1.780295 5.575572 10.27372
v 3.682295 -5.093081 6.716717
v 5.584295 1.043809 3.159717
v 5.584294 5.575572 3.159717
v 3.682295 -5.093081 6.716717
v 5.584295 -5.093081 3.159717
v 5.584295 1.043809 3.159717
v 1.780295 5.575572 10.27372
v 1.780295 -5.093081 10.27372
v 3.682295 -5.093081 6.716717
v 1.780295 5.575572 10.27372
v 3.682295 -5.093081 6.716717
v 5.584294 5.575572 3.159717
v 9.031295 -5.093081 -3.284783
v 9.130295 -5.093081 -3.469283
v 9.130295 5.575572 -3.469283
v 8.932295 5.575572 -3.100283
v 9.031295 -5.093081 -3.284783
v 9.130295 5.575572 -3.469283
v 8.932295 5.575572 -3.100283
v 8.932295 1.043809 -3.100283
v 9.031295 -5.093081 -3.284783
v 8.932295 1.043809 -3.100283
v 8.932295 -5.093081 -3.100283
v 9.031295 -5.093081 -3.284783
v 5.584295 1.043809 3.159717
v 8.932295 1.043809 -3.100283
v 8.932295 5.575572 -3.100283
v 5.584294 5.575572 3.159717
v 5.114295 5.57522 -5.618283
v 9.130295 5.575572 -3.469283
v 9.130295 -5.093081 -3.469283
v 5.114295 -5.093081 -5.618283
v 5.114295 -5.093081 -5.618283
v 5.685295 -5.093081 -6.685283
v 5.685295 5.57522 -6.685283
v 5.114295 5.57522 -5.618283
v 2.426295 5.574934 -8.428283
v 5.685295 5.57522 -6.685283
v 5.685295 -5.093081 -6.685283
v 2.426295 -5.093081 -8.428283
v 1.904295 5.574934 -7.452282
v 2.426295 5.574934 -8.428283
v 2.426295 -5.093081 -8.428283
v 1.904295 -5.093081 -7.452282
v -2.218705 5.574572 -9.658282
v 1.904295 5.574934 -7.452282
v 1.904295 -5.093081 -7.452282
v -2.218705 -5.093081 -9.658282
v -2.503706 1.043809 -9.123282
v -2.503706 5.574572 -9.123282
v -2.218705 5.574572 -9.658282
v -2.503706 1.043809 -9.123282
v -2.218705 -5.093081 -9.658282
v -2.503706 -5.093081 -9.123282
v -2.503706 1.043809 -9.123282
v -2.218705 5.574572 -9.658282
v -2.218705 -5.093081 -9.658282
v -9.620706 5.574572 4.180717
v -7.662205 -5.093081 0.5192174
v -9.620706 -5.093081 4.180717
v -9.620706 5.574572 4.180717
v -5.703705 5.574572 -3.142282
v -7.662205 -5.093081 0.5192174
v -7.662205 -5.093081 0.5192174
v -5.703705 5.574572 -3.142282
v -5.703705 1.042809 -3.142282
v -7.662205 -5.093081 0.5192174
v -5.703705 1.042809 -3.142282
v -5.703705 -5.093081 -3.142282
v -5.703705 5.574572 -3.142282
v -2.503706 5.574572 -9.123282
v -2.503706 1.043809 -9.123282
v -5.703705 1.042809 -3.142282
v -5.703705 -5.093081 -3.142282
v -8.378705 -5.093081 -4.574283
v -5.179706 -5.093081 -10.55528
v -2.503706 -5.093081 -9.123282
v -2.218705 -5.093081 -9.658282
v 1.904295 -5.093081 -7.452282
v 2.426295 -5.093081 -8.428283
v 5.685295 -5.093081 -6.685283
v 5.114295 -5.093081 -5.618283
v 9.130295 -5.093081 -3.469283
v 9.031295 -5.093081 -3.284783
v 8.932295 -5.093081 -3.100283
v 11.80029 -5.093081 -1.567283
v 8.452294 -5.093081 4.693717
v 5.584295 -5.093081 3.159717
v 3.682295 -5.093081 6.716717
v 1.780295 -5.093081 10.27372
v 0.8887945 -5.093081 9.796718
v -0.002705461 -5.093081 9.319717
v -0.2527055 -5.093081 9.786717
v -7.989706 -5.093081 5.647717
v -7.742705 -5.093081 5.185718
v -9.620706 -5.093081 4.180717
v -7.662205 -5.093081 0.5192174
vt 0.463442 0.729894
vt 0.511497 0.798460
vt 0.313681 0.881635
vt 0.463442 0.729894
vt 0.313681 0.881635
vt 0.265625 0.813043
vt 0.195948 0.807029
vt 0.144285 0.829063
vt 0.131279 0.810696
vt 0.182940 0.788662
vt 0.182940 0.788662
vt 0.131279 0.810696
vt 0.118273 0.792330
vt 0.169932 0.770296
vt 0.144285 0.829063
vt 0.092622 0.851097
vt 0.079618 0.832730
vt 0.131279 0.810696
vt 0.131279 0.810696
vt 0.079618 0.832730
vt 0.066614 0.814364
vt 0.118273 0.792330
vt 0.260622 0.803362
vt 0.144285 0.829063
vt 0.195948 0.807029
vt 0.260622 0.803362
vt 0.053962 0.891496
vt 0.144285 0.829063
vt 0.182940 0.788662
vt 0.260622 0.803362
vt 0.195948 0.807029
vt 0.208582 0.729894
vt 0.182940 0.788662
vt 0.169932 0.770296
vt 0.208582 0.729894
vt 0.260622 0.803362
vt 0.182940 0.788662
vt 0.208582 0.729894
vt 0.169932 0.770296
vt 0.118273 0.792330
vt 0.079618 0.832730
vt 0.092622 0.851097
vt 0.053962 0.891496
vt 0.144285 0.829063
vt 0.053962 0.891496
vt 0.092622 0.851097
vt 0.001953 0.818031
vt 0.079618 0.832730
vt 0.053962 0.891496
vt 0.118273 0.792330
vt 0.066614 0.814364
vt 0.001953 0.818031
vt 0.066614 0.814364
vt 0.079618 0.832730
vt 0.001953 0.818031
vt 0.208582 0.729894
vt 0.118273 0.792330
vt 0.001953 0.818031
vt 0.639568 0.250839
vt 0.672262 0.297056
vt 0.435034 0.398392
vt 0.513291 0.043620
vt 0.655142 0.244179
vt 0.639568 0.250839
vt 0.497884 0.050201
vt 0.497884 0.050201
vt 0.639568 0.250839
vt 0.435034 0.398392
vt 0.219235 0.105877
vt 0.140338 0.388759
vt 0.435034 0.398392
vt 0.226294 0.487576
vt 0.140338 0.388759
vt 0.226294 0.487576
vt 0.213990 0.492849
vt 0.219235 0.105877
vt 0.435034 0.398392
vt 0.140338 0.388759
vt 0.077564 0.305592
vt 0.140338 0.388759
vt 0.104760 0.403970
vt 0.045020 0.319498
vt 0.463440 0.001517
vt 0.497884 0.050201
vt 0.219235 0.105877
vt 0.219235 0.105877
vt 0.140338 0.388759
vt 0.077564 0.305592
vt 0.019793 0.191128
vt 0.077564 0.305592
vt 0.001953 0.198721
vt 0.219235 0.105877
vt 0.077564 0.305592
vt 0.019793 0.191128
vt 0.388672 0.895296
vt 0.435992 0.963336
vt 0.443511 0.984074
vt 0.396545 0.916543
vt 0.199459 0.915784
vt 0.001953 0.998565
vt 0.010076 0.977459
vt 0.206106 0.895296
vt 0.336557 0.895296
vt 0.382973 0.962888
vt 0.376844 0.983832
vt 0.330078 0.915734
vt 0.982037 0.748611
vt 0.777276 0.835661
vt 0.771484 0.817599
vt 0.977788 0.729894
vt 0.269531 0.895296
vt 0.320185 0.968232
vt 0.325835 0.986251
vt 0.275561 0.913863
vt 0.215529 0.895296
vt 0.265244 0.967848
vt 0.261027 0.991513
vt 0.210938 0.918419
vt 0.497783 0.895296
vt 0.529986 0.942694
vt 0.522861 0.978571
vt 0.490234 0.930549
vt 0.648964 0.930484
vt 0.634766 0.936780
vt 0.641608 0.901510
vt 0.655621 0.895296
vt 0.684900 0.001517
vt 0.821980 0.199060
vt 0.816618 0.237873
vt 0.677734 0.037730
vt 0.679186 0.930224
vt 0.665172 0.936590
vt 0.660156 0.901746
vt 0.674355 0.895296
vt 0.469785 0.917801
vt 0.484994 0.940305
vt 0.480039 0.979359
vt 0.449219 0.933757
vt 0.454575 0.895296
vt 0.469785 0.917801
vt 0.449219 0.933757
vt 0.469785 0.917801
vt 0.480039 0.979359
vt 0.822385 0.581293
vt 0.700805 0.611712
vt 0.697317 0.597187
vt 0.822385 0.581293
vt 0.705467 0.631126
vt 0.700805 0.611712
vt 0.934236 0.496206
vt 0.939306 0.531459
vt 0.822385 0.581293
vt 0.934236 0.496206
vt 0.822385 0.581293
vt 0.697317 0.597187
vt 0.493645 0.721434
vt 0.487581 0.724027
vt 0.476563 0.691312
vt 0.488850 0.686057
vt 0.493645 0.721434
vt 0.476563 0.691312
vt 0.488850 0.686057
vt 0.493498 0.700087
vt 0.493645 0.721434
vt 0.493498 0.700087
vt 0.499709 0.718840
vt 0.493645 0.721434
vt 0.700805 0.611712
vt 0.493498 0.700087
vt 0.488850 0.686057
vt 0.697317 0.597187
vt 0.607422 0.729894
vt 0.679609 0.833158
vt 0.690423 0.865727
vt 0.619174 0.763805
vt 0.629783 0.928545
vt 0.595974 0.943147
vt 0.583984 0.910091
vt 0.618239 0.895296
vt 0.695313 0.729894
vt 0.753650 0.813554
vt 0.765810 0.847212
vt 0.708231 0.764639
vt 0.566510 0.934014
vt 0.535156 0.947410
vt 0.547983 0.908518
vt 0.578929 0.895296
vt 0.515625 0.729894
vt 0.589807 0.835954
vt 0.602371 0.870949
vt 0.529153 0.766267
vt 0.025652 0.702221
vt 0.019813 0.718517
vt 0.001953 0.725991
vt 0.025652 0.702221
vt 0.015829 0.687812
vt 0.033458 0.680435
vt 0.025652 0.702221
vt 0.001953 0.725991
vt 0.015829 0.687812
vt 0.463969 0.531866
vt 0.351188 0.546906
vt 0.471845 0.496206
vt 0.463969 0.531866
vt 0.219484 0.634596
vt 0.351188 0.546906
vt 0.351188 0.546906
vt 0.219484 0.634596
vt 0.224214 0.618763
vt 0.351188 0.546906
vt 0.224214 0.618763
vt 0.230535 0.597603
vt 0.219484 0.634596
vt 0.019813 0.718517
vt 0.025652 0.702221
vt 0.224214 0.618763
vt 0.683594 0.895296
vt 0.683594 0.895296
vt 0.683594 0.895296
vt 0.683594 0.895296
vt 0.683594 0.895296
vt 0.683594 0.895296
vt 0.683594 0.895296
vt 0.683594 0.895296
vt 0.683594 0.895296
vt 0.683594 0.895296
vt 0.683594 0.895296
vt 0.683594 0.895296
vt 0.683594 0.895296
vt 0.683594 0.895296
vt 0.683594 0.895296
vt 0.683594 0.895296
vt 0.683594 0.895296
vt 0.683594 0.895296
vt 0.683594 0.895296
vt 0.683594 0.895296
vt 0.683594 0.895296
vt 0.683594 0.895296
vt 0.683594 0.895296
vt 0.683594 0.895296
vn 0.0002210229 0.9999999 0.0002854495
vn 0.0002210229 0.9999999 0.0002854495
vn 0.0002210229 0.9999999 0.0002854495
vn 0 1 0
vn 0 1 0
vn 0 1 0
vn 0.0002711395 0.9999999 0.0001449975
vn 0.0002711456 0.9999999 0.0001449979
vn 0.0002711395 0.9999999 0.0001449975
vn 0.0002711334 0.9999999 0.0001449971
vn 0.0002711371 0.9999999 0.000145002
vn 0.0002711432 0.9999999 0.0001450024
vn 0.0002711371 0.9999999 0.000145002
vn 0.000271131 0.9999999 0.0001450016
vn 0.0002711493 0.9999999 0.0001450028
vn 0.0002711555 0.9999999 0.0001450032
vn 0.0002711493 0.9999999 0.0001450028
vn 0.0002711432 0.9999999 0.0001450024
vn 0.0002711469 0.9999999 0.0001450073
vn 0.0002711531 0.9999999 0.0001450077
vn 0.0002711469 0.9999999 0.0001450073
vn 0.0002711408 0.9999999 0.0001450069
vn 0.000271126 0.9999999 0.0001449874
vn 0.000271126 0.9999999 0.0001449874
vn 0.000271126 0.9999999 0.0001449874
vn 0.000271148 0.9999999 0.0001449934
vn 0.000271148 0.9999999 0.0001449934
vn 0.000271148 0.9999999 0.0001449934
vn 0.0002711382 0.9999999 0.0001449881
vn 0.0002711382 0.9999999 0.0001449881
vn 0.0002711382 0.9999999 0.0001449881
vn 0.0002711286 0.9999999 0.0001450062
vn 0.0002711286 0.9999999 0.0001450062
vn 0.0002711286 0.9999999 0.0001450062
vn 0.0002711236 0.9999999 0.0001449919
vn 0.0002711236 0.9999999 0.0001449919
vn 0.0002711236 0.9999999 0.0001449919
vn 0.0002711212 0.9999999 0.0001449964
vn 0.0002711212 0.9999999 0.0001449964
vn 0.0002711212 0.9999999 0.0001449964
vn 0.0002711579 0.9999999 0.0001449986
vn 0.0002711579 0.9999999 0.0001449986
vn 0.0002711579 0.9999999 0.0001449986
vn 0.0002711653 0.9999999 0.0001450084
vn 0.0002711653 0.9999999 0.0001450084
vn 0.0002711653 0.9999999 0.0001450084
vn 0.0002711629 0.9999999 0.0001450129
vn 0.0002711629 0.9999999 0.0001450129
vn 0.0002711629 0.9999999 0.0001450129
vn 0.0002711605 0.9999999 0.0001450174
vn 0.0002711605 0.9999999 0.0001450174
vn 0.0002711605 0.9999999 0.0001450174
vn 0.0002711483 0.9999999 0.0001450167
vn 0.0002711483 0.9999999 0.0001450167
vn 0.0002711483 0.9999999 0.0001450167
vn 0.0002711384 0.9999999 0.0001450114
vn 0.0002711384 0.9999999 0.0001450114
vn 0.0002711384 0.9999999 0.0001450114
vn -6.821291E-05 1 -3.648467E-05
vn -6.821291E-05 1 -3.648467E-05
vn -6.821291E-05 1 -3.648467E-05
vn -6.821117E-05 1 -3.648952E-05
vn -6.821009E-05 1 -3.649128E-05
vn -6.820901E-05 1 -3.649305E-05
vn -6.821009E-05 1 -3.649128E-05
vn -6.82133E-05 1 -3.6485E-05
vn -6.82133E-05 1 -3.648502E-05
vn -6.82133E-05 1 -3.6485E-05
vn -6.82133E-05 1 -3.648498E-05
vn -6.821167E-05 1 -3.648445E-05
vn -6.821167E-05 1 -3.648445E-05
vn -6.821167E-05 1 -3.648445E-05
vn -6.822072E-05 1 -3.647074E-05
vn -6.822072E-05 1 -3.647074E-05
vn -6.822072E-05 1 -3.647074E-05
vn -6.821365E-05 1 -3.648435E-05
vn -6.821365E-05 1 -3.648435E-05
vn -6.821365E-05 1 -3.648435E-05
vn -6.821382E-05 1 -3.648439E-05
vn -6.821361E-05 1 -3.648545E-05
vn -6.821382E-05 1 -3.648439E-05
vn -6.821404E-05 1 -3.648333E-05
vn -6.821236E-05 1 -3.648475E-05
vn -6.821236E-05 1 -3.648475E-05
vn -6.821236E-05 1 -3.648475E-05
vn -6.821382E-05 1 -3.648509E-05
vn -6.821382E-05 1 -3.648509E-05
vn -6.821382E-05 1 -3.648509E-05
vn -6.82124E-05 1 -3.648698E-05
vn -6.82124E-05 1 -3.648698E-05
vn -6.82124E-05 1 -3.648698E-05
vn -6.82134E-05 1 -3.648435E-05
vn -6.82134E-05 1 -3.648435E-05
vn -6.82134E-05 1 -3.648435E-05
vn 0.4718191 0 -0.8816954
vn 0.4718191 0 -0.8816954
vn 0.4718191 0 -0.8816954
vn 0.4718191 0 -0.8816954
vn -0.8817932 0 -0.4716363
vn -0.8817932 0 -0.4716363
vn -0.8817932 0 -0.4716363
vn -0.8817932 0 -0.4716363
vn -0.4719562 0 0.881622
vn -0.4719562 0 0.881622
vn -0.4719562 0 0.881622
vn -0.4719562 0 0.881622
vn 0.8818378 0 0.4715529
vn 0.8818378 0 0.4715529
vn 0.8818378 0 0.4715529
vn 0.8818378 0 0.4715529
vn 0.471402 0 -0.8819184
vn 0.471402 0 -0.8819184
vn 0.471402 0 -0.8819184
vn 0.471402 0 -0.8819184
vn -0.4716411 0 0.8817906
vn -0.4716411 0 0.8817906
vn -0.4716411 0 0.8817906
vn -0.4716411 0 0.8817906
vn -0.4718305 0 0.8816893
vn -0.4718305 0 0.8816893
vn -0.4718305 0 0.8816893
vn -0.4718305 0 0.8816893
vn -0.8818769 0 -0.4714797
vn -0.8818769 0 -0.4714797
vn -0.8818769 0 -0.4714797
vn -0.8818769 0 -0.4714797
vn -0.4717058 0 0.881756
vn -0.4717058 0 0.881756
vn -0.4717058 0 0.881756
vn -0.4717058 0 0.881756
vn 0.8816202 0 0.4719594
vn 0.8816202 0 0.4719594
vn 0.8816202 0 0.4719594
vn 0.8816202 0 0.4719594
vn -0.4717685 0 0.8817225
vn -0.4717685 0 0.8817225
vn -0.4717685 0 0.8817225
vn -0.4717685 0 0.8817225
vn -0.4717685 0 0.8817225
vn -0.4717685 0 0.8817225
vn -0.4717685 -3.848537E-10 0.8817225
vn -0.4717685 -3.848537E-10 0.8817225
vn -0.4717685 -3.848537E-10 0.8817225
vn 0.8818446 1.292758E-08 0.4715402
vn 0.8818446 1.292758E-08 0.4715402
vn 0.8818446 1.292758E-08 0.4715402
vn 0.8818446 0 0.4715402
vn 0.8818446 0 0.4715402
vn 0.8818446 0 0.4715402
vn 0.8818446 0 0.4715402
vn 0.8818446 0 0.4715402
vn 0.8818446 0 0.4715402
vn 0.8818446 -3.95596E-10 0.4715402
vn 0.8818446 -3.95596E-10 0.4715402
vn 0.8818446 -3.95596E-10 0.4715402
vn 0.8811603 0 0.4728177
vn 0.8811603 0 0.4728177
vn 0.8811603 0 0.4728177
vn 0.8811603 2.063737E-11 0.4728177
vn 0.8811603 2.063737E-11 0.4728177
vn 0.8811603 2.063737E-11 0.4728177
vn 0.8811606 1.283152E-08 0.4728171
vn 0.8811606 1.283152E-08 0.4728171
vn 0.8811606 1.283152E-08 0.4728171
vn 0.8811604 0 0.4728175
vn 0.8811604 0 0.4728175
vn 0.8811604 0 0.4728175
vn 0.8818064 1.287918E-08 0.4716115
vn 0.8818064 1.283072E-08 0.4716115
vn 0.8818064 1.287918E-08 0.4716115
vn 0.8818064 1.292764E-08 0.4716115
vn 0.4718071 0 -0.8817018
vn 0.4718071 0 -0.8817018
vn 0.4718071 0 -0.8817018
vn 0.4718071 0 -0.8817018
vn 0.8816887 0 0.4718315
vn 0.8816887 0 0.4718315
vn 0.8816887 0 0.4718315
vn 0.8816887 0 0.4718315
vn 0.4716131 0 -0.8818056
vn 0.4716131 0 -0.8818056
vn 0.4716131 0 -0.8818056
vn 0.4716131 0 -0.8818056
vn -0.8818021 0 -0.4716196
vn -0.8818021 0 -0.4716196
vn -0.8818021 0 -0.4716196
vn -0.8818021 0 -0.4716196
vn 0.4717644 0 -0.8817247
vn 0.4717644 0 -0.8817247
vn 0.4717644 0 -0.8817247
vn 0.4717644 0 -0.8817247
vn -0.8825812 4.855615E-09 -0.4701601
vn -0.8825812 4.855615E-09 -0.4701601
vn -0.8825812 4.855615E-09 -0.4701601
vn -0.8825812 0 -0.4701601
vn -0.8825812 0 -0.4701601
vn -0.8825812 0 -0.4701601
vn -0.8825812 0 -0.4701601
vn -0.8825812 0 -0.4701601
vn -0.8825812 0 -0.4701601
vn -0.8817823 0 -0.4716566
vn -0.8817823 0 -0.4716566
vn -0.8817823 0 -0.4716566
vn -0.8817823 1.818291E-11 -0.4716566
vn -0.8817823 1.818291E-11 -0.4716566
vn -0.8817823 1.818291E-11 -0.4716566
vn -0.8817823 4.95103E-09 -0.4716566
vn -0.8817823 4.95103E-09 -0.4716566
vn -0.8817823 4.95103E-09 -0.4716566
vn -0.8817823 0 -0.4716566
vn -0.8817823 0 -0.4716566
vn -0.8817823 0 -0.4716566
vn -0.8817319 4.903082E-09 -0.4717509
vn -0.8817319 4.855143E-09 -0.4717509
vn -0.8817319 4.903082E-09 -0.4717509
vn -0.8817319 4.951021E-09 -0.4717509
vn 0 -1 0
vn 0 -1 0
vn 0 -1 0
vn 0 -1 0
vn 0 -1 0
vn 0 -1 0
vn 0 -1 0
vn 0 -1 0
vn 0 -1 0
vn 0 -1 0
vn 0 -1 0
vn 0 -1 0
vn 0 -1 0
vn 0 -1 0
vn 0 -1 0
vn 0 -1 0
vn 0 -1 0
vn 0 -1 0
vn 0 -1 0
vn 0 -1 0
vn 0 -1 0
vn 0 -1 0
vn 0 -1 0
vn 0 -1 0

g CDNNDG01_0001050
f 1/1/1 2/2/2 3/3/3
f 4/4/4 5/5/5 6/6/6
f 10/10/10 7/7/7 9/9/9
f 9/9/9 7/7/7 8/8/8
f 14/14/14 11/11/11 13/13/13
f 13/13/13 11/11/11 12/12/12
f 18/18/18 15/15/15 17/17/17
f 17/17/17 15/15/15 16/16/16
f 22/22/22 19/19/19 21/21/21
f 21/21/21 19/19/19 20/20/20
f 23/23/23 24/24/24 25/25/25
f 26/26/26 27/27/27 28/28/28
f 29/29/29 30/30/30 31/31/31
f 32/32/32 33/33/33 34/34/34
f 35/35/35 36/36/36 37/37/37
f 38/38/38 39/39/39 40/40/40
f 41/41/41 42/42/42 43/43/43
f 44/44/44 45/45/45 46/46/46
f 47/47/47 48/48/48 49/49/49
f 50/50/50 51/51/51 52/52/52
f 53/53/53 54/54/54 55/55/55
f 56/56/56 57/57/57 58/58/58
f 59/59/59 60/60/60 61/61/61
f 62/62/62 63/63/63 65/65/65
f 65/65/65 63/63/63 64/64/64
f 69/69/69 66/66/66 68/68/68
f 68/68/68 66/66/66 67/67/67
f 70/70/70 71/71/71 72/72/72
f 73/73/73 74/74/74 75/75/75
f 76/76/76 77/77/77 78/78/78
f 79/79/79 80/80/80 81/81/81
f 82/82/82 79/79/79 81/81/81
f 83/83/83 84/84/84 85/85/85
f 86/86/86 87/87/87 88/88/88
f 89/89/89 90/90/90 91/91/91
f 92/92/92 93/93/93 94/94/94
f 96/96/96 97/97/97 95/95/95
f 95/95/95 97/97/97 98/98/98
f 99/99/99 101/101/101 102/102/102
f 99/99/99 100/100/100 101/101/101
f 103/103/103 105/105/105 106/106/106
f 105/105/105 103/103/103 104/104/104
f 110/110/110 107/107/107 108/108/108
f 108/108/108 109/109/109 110/110/110
f 112/112/112 113/113/113 114/114/114
f 111/111/111 112/112/112 114/114/114
f 118/118/118 115/115/115 117/117/117
f 117/117/117 115/115/115 116/116/116
f 122/122/122 119/119/119 120/120/120
f 121/121/121 122/122/122 120/120/120
f 124/124/124 125/125/125 126/126/126
f 123/123/123 124/124/124 126/126/126
f 130/130/130 127/127/127 128/128/128
f 129/129/129 130/130/130 128/128/128
f 132/132/132 133/133/133 134/134/134
f 131/131/131 132/132/132 134/134/134
f 135/135/135 136/136/136 137/137/137
f 138/138/138 139/139/139 140/140/140
f 141/141/141 142/142/142 143/143/143
f 144/144/144 145/145/145 146/146/146
f 147/147/147 148/148/148 149/149/149
f 150/150/150 151/151/151 152/152/152
f 153/153/153 154/154/154 155/155/155
f 156/156/156 157/157/157 158/158/158
f 159/159/159 160/160/160 161/161/161
f 162/162/162 163/163/163 164/164/164
f 165/165/165 166/166/166 167/167/167
f 168/168/168 170/170/170 171/171/171
f 168/168/168 169/169/169 170/170/170
f 172/172/172 174/174/174 175/175/175
f 172/172/172 173/173/173 174/174/174
f 177/177/177 178/178/178 179/179/179
f 176/176/176 177/177/177 179/179/179
f 182/182/182 180/180/180 181/181/181
f 180/180/180 182/182/182 183/183/183
f 184/184/184 186/186/186 187/187/187
f 184/184/184 185/185/185 186/186/186
f 189/189/189 190/190/190 188/188/188
f 188/188/188 190/190/190 191/191/191
f 192/192/192 193/193/193 194/194/194
f 195/195/195 196/196/196 197/197/197
f 198/198/198 199/199/199 200/200/200
f 201/201/201 202/202/202 203/203/203
f 204/204/204 205/205/205 206/206/206
f 207/207/207 208/208/208 209/209/209
f 210/210/210 211/211/211 212/212/212
f 216/216/216 213/213/213 215/215/215
f 215/215/215 213/213/213 214/214/214
f 220/220/220 218/218/218 219/219/219
f 240/240/240 217/217/217 231/231/231
f 240/240/240 238/238/238 239/239/239
f 231/231/231 217/217/217 225/225/225
f 220/220/220 221/221/221 222/222/222
f 238/238/238 240/240/240 232/232/232
f 220/220/220 217/217/217 218/218/218
f 238/238/238 232/232/232 235/235/235
f 222/222/222 217/217/217 220/220/220
f 222/222/222 224/224/224 225/225/225
f 224/224/224 222/222/222 223/223/223
f 225/225/225 226/226/226 227/227/227
f 225/225/225 217/217/217 222/222/222
f 228/228/228 229/229/229 230/230/230
f 227/227/227 228/228/228 225/225/225
f 228/228/228 230/230/230 231/231/231
f 238/238/238 236/236/236 237/237/237
f 228/228/228 231/231/231 225/225/225
f 231/231/231 232/232/232 240/240/240
f 232/232/232 233/233/233 234/234/234
f 232/232/232 234/234/234 235/235/235
f 238/238/238 235/235/235 236/236/236
