v -4.405896 4.363653 -10.46217
v -3.533896 4.363653 -12.04117
v -4.218896 4.363653 -12.42017
v -5.091896 4.363653 -10.84117
v 0.7511038 4.363653 -18.69917
v 1.860104 4.363653 -18.13217
v 1.067104 4.363653 -19.27217
v 1.067104 4.363653 -19.27217
v 1.860104 4.363653 -18.13217
v 2.352104 4.363653 -19.23917
v 1.067104 4.363653 -19.27217
v 2.352104 4.363653 -19.23917
v 1.409104 4.363653 -19.73017
v -25.9329 3.700653 6.815828
v -6.575896 3.700653 17.38083
v -11.8459 3.700653 4.160829
v -8.871896 3.700653 -24.53817
v 0.7511038 3.700653 -18.69917
v 1.067104 3.700653 -19.27217
v -4.405896 3.700653 -10.46217
v 0.7511038 3.700653 -18.69917
v -3.533896 3.700653 -12.04117
v -4.218896 3.700653 -12.42017
v -3.533896 3.700653 -12.04117
v 0.7511038 3.700653 -18.69917
v -11.8459 3.700653 4.160829
v 0.7511038 3.700653 -18.69917
v -4.405896 3.700653 -10.46217
v -8.871896 3.700653 -24.53817
v -5.091896 3.700653 -10.84117
v -4.218896 3.700653 -12.42017
v -8.871896 3.700653 -24.53817
v -4.218896 3.700653 -12.42017
v 0.7511038 3.700653 -18.69917
v -11.8459 3.700653 4.160829
v -4.405896 3.700653 -10.46217
v -5.091896 3.700653 -10.84117
v -11.8459 3.700653 4.160829
v -5.091896 3.700653 -10.84117
v -8.871896 3.700653 -24.53817
v -25.9329 3.700653 6.815828
v -11.8459 3.700653 4.160829
v -8.871896 3.700653 -24.53817
v -11.8459 3.700653 4.160829
v -6.575896 3.700653 17.38083
v -2.215896 3.700653 9.467829
v -6.575896 3.700653 17.38083
v 7.833104 3.700653 25.32083
v -2.215896 3.700653 9.467829
v -11.8459 3.700653 4.160829
v -2.215896 3.700653 9.467829
v 5.766104 3.700653 -16.68317
v -2.215896 3.700653 9.467829
v 7.833104 3.700653 25.32083
v 25.9361 3.700653 -7.532172
v -2.215896 3.700653 9.467829
v 25.9361 3.700653 -7.532172
v 5.766104 3.700653 -16.68317
v 5.766104 3.700653 -16.68317
v 25.9361 3.700653 -7.532172
v 6.596104 3.700653 -18.18917
v -11.8459 3.700653 4.160829
v 5.766104 3.700653 -16.68317
v 1.860104 3.700653 -18.13217
v 1.860104 3.700653 -18.13217
v 5.766104 3.700653 -16.68317
v 1.905801 3.700653 -18.23499
v -11.8459 3.700653 4.160829
v 1.860104 3.700653 -18.13217
v 0.7511038 3.700653 -18.69917
v 1.905801 3.700653 -18.23499
v 5.766104 3.700653 -16.68317
v 2.111118 3.700653 -18.69695
v -4.405896 3.700653 -10.46217
v -3.533896 3.700653 -12.04117
v -3.533896 4.363653 -12.04117
v -4.405896 4.363653 -10.46217
v -4.218896 4.363653 -12.42017
v -3.533896 4.363653 -12.04117
v -3.533896 3.700653 -12.04117
v -4.218896 3.700653 -12.42017
v -5.091896 4.363653 -10.84117
v -4.218896 4.363653 -12.42017
v -4.218896 3.700653 -12.42017
v -5.091896 3.700653 -10.84117
v -5.091896 3.700653 -10.84117
v -4.405896 3.700653 -10.46217
v -4.405896 4.363653 -10.46217
v -5.091896 4.363653 -10.84117
v 0.7511038 4.363653 -18.69917
v 1.067104 4.363653 -19.27217
v 1.067104 3.700653 -19.27217
v 0.7511038 3.700653 -18.69917
v 1.067104 4.363653 -19.27217
v 1.409104 4.363653 -19.73017
v 1.067104 3.700653 -19.27217
v 1.067104 3.700653 -19.27217
v 1.409104 4.363653 -19.73017
v 1.409104 -3.702097 -19.73017
v 1.067104 -3.702097 -19.27217
v 0.7511038 3.700653 -18.69917
v 1.860104 3.700653 -18.13217
v 1.860104 4.363653 -18.13217
v 0.7511038 4.363653 -18.69917
v 2.111118 -3.702097 -18.69695
v 2.352104 -3.702097 -19.23917
v 2.352104 4.363653 -19.23917
v 2.111118 3.700653 -18.69695
v 1.905801 3.700653 -18.23499
v 2.111118 3.700653 -18.69695
v 2.352104 4.363653 -19.23917
v 1.860104 4.363653 -18.13217
v 1.860104 4.363653 -18.13217
v 1.860104 3.700653 -18.13217
v 1.905801 3.700653 -18.23499
v 1.409104 4.363653 -19.73017
v 2.352104 4.363653 -19.23917
v 2.352104 -3.702097 -19.23917
v 1.409104 -3.702097 -19.73017
v -8.871896 3.700653 -24.53817
v 1.067104 3.700653 -19.27217
v 1.067104 -3.702097 -19.27217
v -8.871896 -3.702097 -24.53817
v -25.9329 3.700653 6.815828
v -8.871896 3.700653 -24.53817
v -8.871896 -3.702097 -24.53817
v -25.9329 -3.702097 6.815828
v -25.9329 -3.702097 6.815828
v -6.575896 -3.702097 17.38083
v -6.575896 3.700653 17.38083
v -25.9329 3.700653 6.815828
v -6.575896 -3.702097 17.38083
v 7.833104 -3.702097 25.32083
v 7.833104 3.700653 25.32083
v -6.575896 3.700653 17.38083
v 7.833104 -3.702097 25.32083
v 25.9361 -3.702097 -7.532172
v 25.9361 3.700653 -7.532172
v 7.833104 3.700653 25.32083
v 6.596104 3.700653 -18.18917
v 25.9361 3.700653 -7.532172
v 25.9361 -3.702097 -7.532172
v 6.596104 -3.702097 -18.18917
v 5.766104 3.700653 -16.68317
v 6.596104 3.700653 -18.18917
v 6.596104 -3.702097 -18.18917
v 5.766104 -3.702097 -16.68317
v 2.111118 3.700653 -18.69695
v 5.766104 3.700653 -16.68317
v 5.766104 -3.702097 -16.68317
v 2.111118 -3.702097 -18.69695
v 1.409104 -3.702097 -19.73017
v 2.352104 -3.702097 -19.23917
v 2.111118 -3.702097 -18.69695
v 5.766104 -3.702097 -16.68317
v 6.596104 -3.702097 -18.18917
v 25.9361 -3.702097 -7.532172
v 7.833104 -3.702097 25.32083
v -6.575896 -3.702097 17.38083
v -25.9329 -3.702097 6.815828
v -8.871896 -3.702097 -24.53817
v 1.067104 -3.702097 -19.27217
vt 0.781421 0.798045
vt 0.805272 0.788955
vt 0.810792 0.796373
vt 0.786941 0.805474
vt 0.764095 0.806074
vt 0.755920 0.794054
vt 0.772682 0.802775
vt 0.772682 0.802775
vt 0.755920 0.794054
vt 0.772484 0.788955
vt 0.772682 0.802775
vt 0.772484 0.788955
vt 0.779567 0.799177
vt 0.278037 0.575236
vt 0.119846 0.358020
vt 0.322211 0.419002
vt 0.764914 0.391019
vt 0.677246 0.282910
vt 0.686146 0.279496
vt 0.549164 0.338827
vt 0.677246 0.282910
vt 0.573689 0.329405
vt 0.579365 0.337094
vt 0.573689 0.329405
vt 0.677246 0.282910
vt 0.322211 0.419002
vt 0.677246 0.282910
vt 0.549164 0.338827
vt 0.764914 0.391019
vt 0.554840 0.346527
vt 0.579365 0.337094
vt 0.764914 0.391019
vt 0.579365 0.337094
vt 0.677246 0.282910
vt 0.322211 0.419002
vt 0.549164 0.338827
vt 0.554840 0.346527
vt 0.322211 0.419002
vt 0.554840 0.346527
vt 0.764914 0.391019
vt 0.278037 0.575236
vt 0.322211 0.419002
vt 0.764914 0.391019
vt 0.322211 0.419002
vt 0.119846 0.358020
vt 0.242726 0.310918
vt 0.119846 0.358020
vt 0.000911 0.196291
vt 0.242726 0.310918
vt 0.322211 0.419002
vt 0.242726 0.310918
vt 0.647374 0.226748
vt 0.242726 0.310918
vt 0.000911 0.196291
vt 0.511153 0.000657
vt 0.242726 0.310918
vt 0.511153 0.000657
vt 0.647374 0.226748
vt 0.647374 0.226748
vt 0.511153 0.000657
vt 0.670766 0.217779
vt 0.322211 0.419002
vt 0.647374 0.226748
vt 0.668774 0.270469
vt 0.668774 0.270469
vt 0.647374 0.226748
vt 0.670368 0.269979
vt 0.322211 0.419002
vt 0.668774 0.270469
vt 0.677246 0.282910
vt 0.670368 0.269979
vt 0.647374 0.226748
vt 0.677532 0.267776
vt 0.888927 0.797868
vt 0.912549 0.788955
vt 0.910709 0.790431
vt 0.887067 0.799351
vt 0.958639 0.797575
vt 0.953552 0.790419
vt 0.955246 0.788955
vt 0.960329 0.796106
vt 0.858834 0.798010
vt 0.882610 0.788955
vt 0.884475 0.791256
vt 0.860718 0.800304
vt 0.962659 0.788955
vt 0.962659 0.788955
vt 0.962659 0.788955
vt 0.962659 0.788955
vt 0.914390 0.795630
vt 0.923095 0.792437
vt 0.924876 0.792871
vt 0.916177 0.796062
vt 0.923095 0.792437
vt 0.930075 0.788955
vt 0.924876 0.792871
vt 0.924876 0.792871
vt 0.930075 0.788955
vt 0.951474 0.794220
vt 0.944563 0.797669
vt 0.967213 0.788955
vt 0.967213 0.788955
vt 0.967213 0.788955
vt 0.967213 0.788955
vt 0.745862 0.791463
vt 0.753986 0.788955
vt 0.732595 0.806734
vt 0.726172 0.807790
vt 0.719189 0.809946
vt 0.726172 0.807790
vt 0.732595 0.806734
vt 0.715847 0.811905
vt 0.715847 0.811905
vt 0.717634 0.810426
vt 0.719189 0.809946
vt 0.692062 0.817139
vt 0.684882 0.806827
vt 0.706118 0.788955
vt 0.713228 0.799168
vt 0.611436 0.916335
vt 0.532787 0.805766
vt 0.552683 0.788955
vt 0.630633 0.898542
vt 0.000911 0.762564
vt 0.487943 0.576594
vt 0.507575 0.602895
vt 0.024887 0.787201
vt 0.976321 0.788955
vt 0.976321 0.788955
vt 0.976321 0.788955
vt 0.976321 0.788955
vt 0.976321 0.788955
vt 0.976321 0.788955
vt 0.976321 0.788955
vt 0.976321 0.788955
vt 0.027041 0.983251
vt 0.530687 0.788955
vt 0.509071 0.803338
vt 0.000911 0.999375
vt 0.926844 0.230794
vt 0.766849 0.015045
vt 0.788393 0.000657
vt 0.946964 0.214490
vt 0.813297 0.797543
vt 0.836239 0.788955
vt 0.856130 0.794398
vt 0.833392 0.802910
vt 0.662809 0.845618
vt 0.632969 0.805199
vt 0.653033 0.788955
vt 0.682607 0.829015
vt 0.971767 0.788955
vt 0.971767 0.788955
vt 0.971767 0.788955
vt 0.971767 0.788955
vt 0.971767 0.788955
vt 0.971767 0.788955
vt 0.971767 0.788955
vt 0.971767 0.788955
vt 0.971767 0.788955
vt 0.971767 0.788955
vt 0.971767 0.788955
vn 0 1 0
vn 0 1 0
vn 0 1 0
vn 0 1 0
vn 0 1 0
vn 0 1 0
vn 0 1 0
vn 0 1 0
vn 0 1 0
vn 0 1 0
vn 0 1 0
vn 0 1 0
vn 0 1 0
vn 0 1 0
vn 0 1 0
vn 0 1 0
vn 0 1 0
vn 0 1 0
vn 0 1 0
vn 0 1 0
vn 0 1 0
vn 0 1 0
vn 0 1 0
vn 0 1 0
vn 0 1 0
vn 0 1 0
vn 0 1 0
vn 0 1 0
vn 0 1 0
vn 0 1 0
vn 0 1 0
vn 0 1 0
vn 0 1 0
vn 0 1 0
vn 0 1 0
vn 0 1 0
vn 0 1 0
vn 0 1 0
vn 0 1 0
vn 0 1 0
vn 0 1 0
vn 0 1 0
vn 0 1 0
vn 0 1 0
vn 0 1 0
vn 0 1 0
vn 0 1 0
vn 0 1 0
vn 0 1 0
vn 0 1 0
vn 0 1 0
vn 0 1 0
vn 0 1 0
vn 0 1 0
vn 0 1 0
vn 0 1 0
vn 0 1 0
vn 0 1 0
vn 0 1 0
vn 0 1 0
vn 0 1 0
vn 0 1 0
vn 0 1 0
vn 0 1 0
vn 0 1 0
vn 0 1 0
vn 0 1 0
vn 0 1 0
vn 0 1 0
vn 0 1 0
vn 0 1 0
vn 0 1 0
vn 0 1 0
vn 0.8753836 0 0.483429
vn 0.8753836 0 0.483429
vn 0.8753836 0 0.483429
vn 0.8753836 0 0.483429
vn 0.4841238 0 -0.8749995
vn 0.4841238 0 -0.8749995
vn 0.4841238 0 -0.8749995
vn 0.4841238 0 -0.8749995
vn -0.8751489 0 -0.4838537
vn -0.8751489 0 -0.4838537
vn -0.8751489 0 -0.4838537
vn -0.8751489 0 -0.4838537
vn -0.4835832 0 0.8752984
vn -0.4835832 0 0.8752984
vn -0.4835832 0 0.8752984
vn -0.4835832 0 0.8752984
vn -0.8756668 0 -0.4829157
vn -0.8756668 0 -0.4829157
vn -0.8756668 0 -0.4829157
vn -0.8756668 0 -0.4829157
vn -0.8012578 0 -0.5983192
vn -0.8012578 0 -0.5983192
vn -0.8012578 0 -0.5983192
vn -0.8012578 0 -0.5983192
vn -0.8012578 0 -0.5983192
vn -0.8012578 0 -0.5983192
vn -0.8012578 0 -0.5983192
vn -0.4552242 0 0.8903768
vn -0.4552242 0 0.8903768
vn -0.4552242 0 0.8903768
vn -0.4552242 0 0.8903768
vn 0.9138116 0 0.4061385
vn 0.9138116 0 0.4061385
vn 0.9138116 0 0.4061385
vn 0.9138116 0 0.4061385
vn 0.9138116 -5.459879E-09 0.4061385
vn 0.9138116 -2.814627E-09 0.4061385
vn 0.9138116 -1.693749E-10 0.4061385
vn 0.9138116 -2.814627E-09 0.4061385
vn 0.9138116 0 0.4061384
vn 0.9138116 0 0.4061384
vn 0.9138116 0 0.4061384
vn 0.4618265 0 -0.8869703
vn 0.4618265 0 -0.8869703
vn 0.4618265 0 -0.8869703
vn 0.4618265 0 -0.8869703
vn 0.4681777 0 -0.8836343
vn 0.4681777 0 -0.8836343
vn 0.4681777 0 -0.8836343
vn 0.4681777 0 -0.8836343
vn -0.8783801 0 -0.4779627
vn -0.8783801 0 -0.4779627
vn -0.8783801 0 -0.4779627
vn -0.8783801 0 -0.4779627
vn -0.479084 0 0.8777691
vn -0.479084 0 0.8777691
vn -0.479084 0 0.8777691
vn -0.479084 0 0.8777691
vn -0.4826209 0 0.8758293
vn -0.4826209 0 0.8758293
vn -0.4826209 0 0.8758293
vn -0.4826209 0 0.8758293
vn 0.8758346 0 0.4826114
vn 0.8758346 0 0.4826114
vn 0.8758346 0 0.4826114
vn 0.8758346 0 0.4826114
vn 0.482614 0 -0.8758332
vn 0.482614 0 -0.8758332
vn 0.482614 0 -0.8758332
vn 0.482614 0 -0.8758332
vn -0.8757981 0 -0.4826776
vn -0.8757981 0 -0.4826776
vn -0.8757981 0 -0.4826776
vn -0.8757981 0 -0.4826776
vn 0.4825697 0 -0.8758575
vn 0.4825697 0 -0.8758575
vn 0.4825697 0 -0.8758575
vn 0.4825697 0 -0.8758575
vn 0 -1 0
vn 0 -1 0
vn 0 -1 0
vn 0 -1 0
vn 0 -1 0
vn 0 -1 0
vn 0 -1 0
vn 0 -1 0
vn 0 -1 0
vn 0 -1 0
vn 0 -1 0

g CDNNDG01_0002790
f 1/1/1 2/2/2 4/4/4
f 4/4/4 2/2/2 3/3/3
f 5/5/5 6/6/6 7/7/7
f 8/8/8 9/9/9 10/10/10
f 11/11/11 12/12/12 13/13/13
f 14/14/14 15/15/15 16/16/16
f 17/17/17 18/18/18 19/19/19
f 20/20/20 21/21/21 22/22/22
f 23/23/23 24/24/24 25/25/25
f 26/26/26 27/27/27 28/28/28
f 29/29/29 30/30/30 31/31/31
f 32/32/32 33/33/33 34/34/34
f 35/35/35 36/36/36 37/37/37
f 38/38/38 39/39/39 40/40/40
f 41/41/41 42/42/42 43/43/43
f 44/44/44 45/45/45 46/46/46
f 47/47/47 48/48/48 49/49/49
f 50/50/50 51/51/51 52/52/52
f 53/53/53 54/54/54 55/55/55
f 56/56/56 57/57/57 58/58/58
f 59/59/59 60/60/60 61/61/61
f 62/62/62 63/63/63 64/64/64
f 65/65/65 66/66/66 67/67/67
f 68/68/68 69/69/69 70/70/70
f 71/71/71 72/72/72 73/73/73
f 77/77/77 74/74/74 76/76/76
f 75/75/75 76/76/76 74/74/74
f 78/78/78 80/80/80 81/81/81
f 78/78/78 79/79/79 80/80/80
f 85/85/85 82/82/82 84/84/84
f 84/84/84 82/82/82 83/83/83
f 89/89/89 86/86/86 88/88/88
f 88/88/88 86/86/86 87/87/87
f 90/90/90 92/92/92 93/93/93
f 90/90/90 91/91/91 92/92/92
f 94/94/94 95/95/95 96/96/96
f 97/97/97 99/99/99 100/100/100
f 99/99/99 97/97/97 98/98/98
f 104/104/104 101/101/101 103/103/103
f 103/103/103 101/101/101 102/102/102
f 106/106/106 107/107/107 108/108/108
f 105/105/105 106/106/106 108/108/108
f 112/112/112 109/109/109 110/110/110
f 110/110/110 111/111/111 112/112/112
f 113/113/113 114/114/114 115/115/115
f 117/117/117 118/118/118 119/119/119
f 116/116/116 117/117/117 119/119/119
f 120/120/120 122/122/122 123/123/123
f 120/120/120 121/121/121 122/122/122
f 127/127/127 124/124/124 126/126/126
f 126/126/126 124/124/124 125/125/125
f 131/131/131 128/128/128 130/130/130
f 130/130/130 128/128/128 129/129/129
f 132/132/132 134/134/134 135/135/135
f 132/132/132 133/133/133 134/134/134
f 139/139/139 136/136/136 138/138/138
f 137/137/137 138/138/138 136/136/136
f 141/141/141 142/142/142 143/143/143
f 140/140/140 141/141/141 143/143/143
f 144/144/144 145/145/145 146/146/146
f 147/147/147 144/144/144 146/146/146
f 149/149/149 150/150/150 148/148/148
f 148/148/148 150/150/150 151/151/151
f 160/160/160 161/161/161 162/162/162
f 152/152/152 153/153/153 154/154/154
f 159/159/159 160/160/160 162/162/162
f 152/152/152 154/154/154 162/162/162
f 154/154/154 159/159/159 162/162/162
f 157/157/157 155/155/155 156/156/156
f 154/154/154 155/155/155 159/159/159
f 155/155/155 157/157/157 159/159/159
f 157/157/157 158/158/158 159/159/159
