v -9.041709 4.622396 3.358029
v 2.052291 5.193395 8.76403
v -8.827709 5.193395 2.957029
v -9.041709 4.622396 3.358029
v 2.253291 4.622396 9.39903
v 2.052291 5.193395 8.76403
v 2.052291 5.193395 8.76403
v 9.047291 4.622396 -3.345971
v 8.434291 5.193395 -3.191971
v 2.052291 5.193395 8.76403
v 2.253291 4.622396 9.39903
v 9.047291 4.622396 -3.345971
v -2.222709 4.622396 -9.39397
v 8.434291 5.193395 -3.191971
v 9.047291 4.622396 -3.345971
v -2.444709 5.193395 -8.99997
v 8.434291 5.193395 -3.191971
v -2.222709 4.622396 -9.39397
v -3.615709 5.193395 -6.806971
v 8.434291 5.193395 -3.191971
v -2.444709 5.193395 -8.99997
v 2.052291 5.193395 8.76403
v 8.434291 5.193395 -3.191971
v -3.615709 5.193395 -6.806971
v -8.827709 5.193395 2.957029
v -9.041709 -5.166536 3.358029
v 2.253291 4.622396 9.39903
v -9.041709 4.622396 3.358029
v 2.253291 -5.166536 9.39903
v -9.041709 4.622396 3.358029
v -8.93471 -5.166536 3.157529
v -9.041709 -5.166536 3.358029
v -8.93471 -5.166536 3.157529
v -8.827709 5.193395 2.957029
v -8.827709 -5.166536 2.957029
v -9.041709 4.622396 3.358029
v -8.827709 5.193395 2.957029
v -8.93471 -5.166536 3.157529
v -2.444709 5.193395 -8.99997
v -2.333709 -5.166536 -9.196971
v -2.444709 -5.166536 -8.99997
v -2.333709 -5.166536 -9.196971
v -2.222709 4.622396 -9.39397
v -2.222709 -5.166536 -9.39397
v -2.444709 5.193395 -8.99997
v -2.222709 4.622396 -9.39397
v -2.333709 -5.166536 -9.196971
v -8.827709 5.193395 2.957029
v -3.615709 -5.166536 -6.806971
v -8.827709 -5.166536 2.957029
v -3.615709 5.193395 -6.806971
v -3.615709 5.193395 -6.806971
v -2.444709 5.193395 -8.99997
v -2.444709 -5.166536 -8.99997
v -3.615709 -5.166536 -6.806971
v 5.650291 -5.166536 3.026529
v 9.047291 -5.166536 -3.345971
v 9.047291 4.622396 -3.345971
v 2.253291 4.622396 9.39903
v 2.253291 -5.166536 9.39903
v 5.650291 -5.166536 3.026529
v 2.253291 4.622396 9.39903
v 5.650291 -5.166536 3.026529
v 9.047291 4.622396 -3.345971
v -2.222709 -5.166536 -9.39397
v -2.222709 4.622396 -9.39397
v 9.047291 -5.166536 -3.345971
v 9.047291 4.622396 -3.345971
v -2.333709 -5.166536 -9.196971
v -2.222709 -5.166536 -9.39397
v 9.047291 -5.166536 -3.345971
v -8.93471 -5.166536 3.157529
v -8.827709 -5.166536 2.957029
v 2.253291 -5.166536 9.39903
v -9.041709 -5.166536 3.358029
v 5.650291 -5.166536 3.026529
v -2.444709 -5.166536 -8.99997
v -3.615709 -5.166536 -6.806971
vt 0.209327 0.415278
vt 0.370381 0.681614
vt 0.195730 0.424251
vt 0.209327 0.415278
vt 0.390889 0.682271
vt 0.370381 0.681614
vt 0.776726 0.693056
vt 0.412811 0.865013
vt 0.415664 0.847362
vt 0.776726 0.693056
vt 0.797434 0.700857
vt 0.412811 0.865013
vt 0.001779 0.423954
vt 0.191437 0.671934
vt 0.188597 0.689638
vt 0.011886 0.415278
vt 0.191437 0.671934
vt 0.001779 0.423954
vt 0.068257 0.126494
vt 0.180550 0.412050
vt 0.001779 0.154601
vt 0.542980 0.258886
vt 0.180550 0.412050
vt 0.068257 0.126494
vt 0.364254 0.001389
vt 0.573147 0.001389
vt 0.729677 0.335461
vt 0.548043 0.068192
vt 0.752627 0.265492
vt 0.781818 0.481952
vt 0.801022 0.417760
vt 0.807032 0.415278
vt 0.801022 0.417760
vt 0.768156 0.490917
vt 0.795012 0.420241
vt 0.781818 0.481952
vt 0.768156 0.490917
vt 0.801022 0.417760
vt 0.405217 0.640840
vt 0.430720 0.570862
vt 0.436625 0.568287
vt 0.430720 0.570862
vt 0.395018 0.642005
vt 0.424816 0.573437
vt 0.405217 0.640840
vt 0.395018 0.642005
vt 0.430720 0.570862
vt 0.768156 0.490917
vt 0.502353 0.541128
vt 0.795012 0.420241
vt 0.471780 0.613337
vt 0.471780 0.613337
vt 0.405217 0.640840
vt 0.436625 0.568287
vt 0.502353 0.541128
vt 0.219071 0.828849
vt 0.029003 0.910085
vt 0.001779 0.857488
vt 0.386494 0.693056
vt 0.409147 0.747609
vt 0.219071 0.828849
vt 0.386494 0.693056
vt 0.219071 0.828849
vt 0.001779 0.857488
vt 0.785570 0.057254
vt 0.756228 0.001389
vt 0.970365 0.319962
vt 0.943246 0.267260
vt 0.706406 0.913889
vt 0.706406 0.913889
vt 0.706406 0.913889
vt 0.706406 0.913889
vt 0.706406 0.913889
vt 0.706406 0.913889
vt 0.706406 0.913889
vt 0.706406 0.913889
vt 0.706406 0.913889
vt 0.706406 0.913889
vn -0.3683948 0.6227962 0.6902248
vn -0.3683948 0.6227962 0.6902248
vn -0.3683948 0.6227962 0.6902248
vn -0.3656521 0.6315821 0.6836684
vn -0.3656521 0.6315821 0.6836684
vn -0.3656521 0.6315821 0.6836684
vn 0.6821417 0.6341125 0.3641208
vn 0.6821417 0.6341125 0.3641208
vn 0.6821417 0.6341125 0.3641208
vn 0.677771 0.6403815 0.3613006
vn 0.677771 0.6403815 0.3613006
vn 0.677771 0.6403815 0.3613006
vn 0.3791436 0.5975779 -0.7065061
vn 0.3791436 0.5975779 -0.7065061
vn 0.3791436 0.5975779 -0.7065061
vn 0.3692278 0.6207708 -0.6916028
vn 0.3692278 0.6207708 -0.6916028
vn 0.3692278 0.6207708 -0.6916028
vn 0 1 0
vn 0 1 0
vn 0 1 0
vn 0 1 0
vn 0 1 0
vn 0 1 0
vn 0 1 0
vn -0.4716212 0 0.8818012
vn -0.4716212 0 0.8818012
vn -0.4716212 0 0.8818012
vn -0.4716212 0 0.8818012
vn -0.8822311 0 -0.4708166
vn -0.8822311 0 -0.4708166
vn -0.8822311 0 -0.4708166
vn -0.8822311 0 -0.4708166
vn -0.8822311 0 -0.4708166
vn -0.8822311 0 -0.4708166
vn -0.8822311 2.176213E-11 -0.4708166
vn -0.8822311 2.176213E-11 -0.4708166
vn -0.8822311 2.176213E-11 -0.4708166
vn -0.871221 0 -0.490891
vn -0.871221 0 -0.490891
vn -0.871221 0 -0.490891
vn -0.871221 0 -0.490891
vn -0.871221 0 -0.490891
vn -0.871221 0 -0.490891
vn -0.871221 -2.516854E-12 -0.490891
vn -0.871221 -2.516854E-12 -0.490891
vn -0.871221 -2.516854E-12 -0.490891
vn -0.8821828 0 -0.4709071
vn -0.8821828 0 -0.4709071
vn -0.8821828 0 -0.4709071
vn -0.8821828 0 -0.4709071
vn -0.882119 0 -0.4710266
vn -0.882119 0 -0.4710266
vn -0.882119 0 -0.4710266
vn -0.882119 0 -0.4710266
vn 0.8824487 0 0.4704085
vn 0.8824487 0 0.4704085
vn 0.8824487 0 0.4704085
vn 0.8824487 0 0.4704085
vn 0.8824487 0 0.4704085
vn 0.8824487 0 0.4704085
vn 0.8824487 2.237744E-11 0.4704085
vn 0.8824487 2.237744E-11 0.4704085
vn 0.8824487 2.237744E-11 0.4704085
vn 0.4728592 0 -0.881138
vn 0.4728592 0 -0.881138
vn 0.4728592 0 -0.881138
vn 0.4728592 0 -0.881138
vn 0 -1 0
vn 0 -1 0
vn 0 -1 0
vn 0 -1 0
vn 0 -1 0
vn 0 -1 0
vn 0 -1 0
vn 0 -1 0
vn 0 -1 0
vn 0 -1 0

g CDNNDG01_0003880
f 1/1/1 2/2/2 3/3/3
f 4/4/4 5/5/5 6/6/6
f 7/7/7 8/8/8 9/9/9
f 10/10/10 11/11/11 12/12/12
f 13/13/13 14/14/14 15/15/15
f 16/16/16 17/17/17 18/18/18
f 19/19/19 20/20/20 21/21/21
f 22/22/22 23/23/23 24/24/24
f 25/25/25 22/22/22 24/24/24
f 26/26/26 27/27/27 28/28/28
f 27/27/27 26/26/26 29/29/29
f 30/30/30 31/31/31 32/32/32
f 33/33/33 34/34/34 35/35/35
f 36/36/36 37/37/37 38/38/38
f 39/39/39 40/40/40 41/41/41
f 42/42/42 43/43/43 44/44/44
f 45/45/45 46/46/46 47/47/47
f 48/48/48 49/49/49 50/50/50
f 48/48/48 51/51/51 49/49/49
f 52/52/52 53/53/53 54/54/54
f 55/55/55 52/52/52 54/54/54
f 56/56/56 57/57/57 58/58/58
f 59/59/59 60/60/60 61/61/61
f 62/62/62 63/63/63 64/64/64
f 65/65/65 66/66/66 67/67/67
f 68/68/68 67/67/67 66/66/66
f 69/69/69 70/70/70 71/71/71
f 72/72/72 73/73/73 74/74/74
f 75/75/75 72/72/72 74/74/74
f 73/73/73 76/76/76 74/74/74
f 77/77/77 69/69/69 71/71/71
f 78/78/78 77/77/77 71/71/71
f 78/78/78 71/71/71 76/76/76
f 73/73/73 78/78/78 76/76/76
