v -5.115664 3.714702 3.931236
v -2.170665 2.728702 7.347236
v 7.557335 2.728702 0.1712361
v -5.115664 3.714702 3.931236
v 7.557335 2.728702 0.1712361
v 5.275335 3.731702 -3.752764
v -7.568665 2.873702 -0.1347639
v -5.115664 3.714702 3.931236
v 5.275335 3.731702 -3.752764
v -7.568665 2.873702 -0.1347639
v 5.275335 3.731702 -3.752764
v 2.170335 2.873702 -7.305764
v -2.170665 -3.279552 7.347236
v 7.557335 -3.279552 0.1712361
v 7.557335 2.728702 0.1712361
v -2.170665 2.728702 7.347236
v 5.275335 3.731702 -3.752764
v 6.416336 -3.279552 -1.790764
v 5.275335 -3.279552 -3.752764
v 6.416336 -3.279552 -1.790764
v 7.557335 2.728702 0.1712361
v 7.557335 -3.279552 0.1712361
v 5.275335 3.731702 -3.752764
v 7.557335 2.728702 0.1712361
v 6.416336 -3.279552 -1.790764
v -5.115664 -3.279552 3.931236
v -2.170665 -3.279552 7.347236
v -2.170665 2.728702 7.347236
v -5.115664 3.714702 3.931236
v -7.568665 -3.279552 -0.1347639
v -5.115664 -3.279552 3.931236
v -5.115664 3.714702 3.931236
v -7.568665 2.873702 -0.1347639
v 2.170335 2.873702 -7.305764
v 5.275335 3.731702 -3.752764
v 5.275335 -3.279552 -3.752764
v 2.170335 -3.279552 -7.305764
v -7.568665 2.873702 -0.1347639
v 2.170335 2.873702 -7.305764
v 2.170335 -3.279552 -7.305764
v -7.568665 -3.279552 -0.1347639
v -7.568665 -3.279552 -0.1347639
v 2.170335 -3.279552 -7.305764
v 5.275335 -3.279552 -3.752764
v 6.416336 -3.279552 -1.790764
v 7.557335 -3.279552 0.1712361
v -2.170665 -3.279552 7.347236
v -5.115664 -3.279552 3.931236
vt 0.614020 0.401131
vt 0.470862 0.301511
vt 0.757195 0.001832
vt 0.614020 0.401131
vt 0.757195 0.001832
vt 0.921157 0.080780
vt 0.285293 0.001832
vt 0.464101 0.078013
vt 0.160877 0.406058
vt 0.285293 0.001832
vt 0.160877 0.406058
vt 0.002331 0.308956
vt 0.398601 0.707529
vt 0.682384 0.410256
vt 0.740017 0.453276
vt 0.454154 0.752722
vt 0.766209 0.778388
vt 0.713970 0.864404
vt 0.636364 0.829673
vt 0.713970 0.864404
vt 0.903856 0.855756
vt 0.791576 0.899136
vt 0.766209 0.778388
vt 0.903856 0.855756
vt 0.713970 0.864404
vt 0.135615 0.923931
vt 0.002331 0.833335
vt 0.058530 0.778388
vt 0.202252 0.860663
vt 0.294370 0.999441
vt 0.135615 0.923931
vt 0.202252 0.860663
vt 0.354124 0.944405
vt 0.471761 0.778388
vt 0.629603 0.867896
vt 0.499739 0.919291
vt 0.358974 0.824167
vt 0.393379 0.465168
vt 0.114586 0.772904
vt 0.002331 0.715687
vt 0.279026 0.410256
vt 0.909091 0.778388
vt 0.909091 0.778388
vt 0.909091 0.778388
vt 0.909091 0.778388
vt 0.909091 0.778388
vt 0.909091 0.778388
vt 0.909091 0.778388
vn 0.1271311 0.9767987 0.1723427
vn 0.1271311 0.9767987 0.1723427
vn 0.1271311 0.9767987 0.1723427
vn 0.127913 0.9761997 0.1751353
vn 0.127913 0.9761997 0.1751353
vn 0.127913 0.9761997 0.1751353
vn -0.1052441 0.9845221 -0.1401425
vn -0.1052441 0.9845221 -0.1401425
vn -0.1052441 0.9845221 -0.1401425
vn -0.1064344 0.9837567 -0.1445495
vn -0.1064344 0.9837567 -0.1445495
vn -0.1064344 0.9837567 -0.1445495
vn 0.5936279 0 0.8047397
vn 0.5936279 0 0.8047397
vn 0.5936279 0 0.8047397
vn 0.5936279 0 0.8047397
vn 0.8644493 0 -0.50272
vn 0.8644493 0 -0.50272
vn 0.8644493 0 -0.50272
vn 0.8644493 0 -0.50272
vn 0.8644493 0 -0.50272
vn 0.8644493 0 -0.50272
vn 0.8644493 -3.982578E-11 -0.50272
vn 0.8644493 -3.982578E-11 -0.50272
vn 0.8644493 -3.982578E-11 -0.50272
vn -0.757391 0 0.6529616
vn -0.757391 0 0.6529616
vn -0.757391 0 0.6529616
vn -0.757391 0 0.6529616
vn -0.8562455 0 0.5165691
vn -0.8562455 0 0.5165691
vn -0.8562455 0 0.5165691
vn -0.8562455 0 0.5165691
vn 0.7529835 0 -0.6580394
vn 0.7529835 0 -0.6580394
vn 0.7529835 0 -0.6580394
vn 0.7529835 0 -0.6580394
vn -0.5929254 0 -0.8052574
vn -0.5929254 0 -0.8052574
vn -0.5929254 0 -0.8052574
vn -0.5929254 0 -0.8052574
vn 0 -1 0
vn 0 -1 0
vn 0 -1 0
vn 0 -1 0
vn 0 -1 0
vn 0 -1 0
vn 0 -1 0

g CDNNDG01_0003470
f 1/1/1 2/2/2 3/3/3
f 4/4/4 5/5/5 6/6/6
f 7/7/7 8/8/8 9/9/9
f 10/10/10 11/11/11 12/12/12
f 13/13/13 15/15/15 16/16/16
f 13/13/13 14/14/14 15/15/15
f 17/17/17 18/18/18 19/19/19
f 20/20/20 21/21/21 22/22/22
f 23/23/23 24/24/24 25/25/25
f 26/26/26 27/27/27 28/28/28
f 29/29/29 26/26/26 28/28/28
f 33/33/33 30/30/30 31/31/31
f 31/31/31 32/32/32 33/33/33
f 34/34/34 36/36/36 37/37/37
f 36/36/36 34/34/34 35/35/35
f 41/41/41 38/38/38 40/40/40
f 39/39/39 40/40/40 38/38/38
f 48/48/48 42/42/42 44/44/44
f 45/45/45 48/48/48 44/44/44
f 42/42/42 43/43/43 44/44/44
f 45/45/45 46/46/46 47/47/47
f 48/48/48 45/45/45 47/47/47
