v -2.680492 8.087465 -2.65943
v -1.953492 8.087465 -2.22843
v -1.412492 8.087465 -3.14143
v -2.139492 8.087465 -3.57143
v 2.897508 8.078465 0.5565698
v 3.689508 8.078465 0.9605698
v 4.231508 8.078465 -0.1024302
v 3.439508 8.078465 -0.5064302
v 4.132508 6.753388 8.22057
v 9.305508 6.753388 -1.00443
v 8.742508 6.753388 -1.32043
v 3.510508 6.753388 7.87257
v -3.648492 6.753388 -8.18243
v 8.742508 6.753388 -1.32043
v 8.895508 6.753388 -1.59343
v -3.459492 6.753388 -8.520431
v -3.648492 6.753388 -8.18243
v -2.139492 6.753388 -3.57143
v -1.412492 6.753388 -3.14143
v -3.648492 6.753388 -8.18243
v -2.680492 6.753388 -2.65943
v -2.139492 6.753388 -3.57143
v -3.648492 6.753388 -8.18243
v -1.412492 6.753388 -3.14143
v 8.742508 6.753388 -1.32043
v 3.439508 6.753388 -0.5064302
v 4.231508 6.753388 -0.1024302
v 8.742508 6.753388 -1.32043
v -1.412492 6.753388 -3.14143
v 3.439508 6.753388 -0.5064302
v 8.742508 6.753388 -1.32043
v 3.689508 6.753388 0.9605698
v 8.742508 6.753388 -1.32043
v 4.231508 6.753388 -0.1024302
v -1.953492 6.753388 -2.22843
v 3.439508 6.753388 -0.5064302
v -1.412492 6.753388 -3.14143
v -8.691492 6.753388 1.11757
v -1.953492 6.753388 -2.22843
v -2.680492 6.753388 -2.65943
v -8.691492 6.753388 1.11757
v -2.680492 6.753388 -2.65943
v -3.648492 6.753388 -8.18243
v -8.691492 6.753388 1.11757
v 3.510508 6.753388 7.87257
v -1.953492 6.753388 -2.22843
v -1.953492 6.753388 -2.22843
v 2.897508 6.753388 0.5565698
v 3.439508 6.753388 -0.5064302
v 2.897508 6.753388 0.5565698
v 3.510508 6.753388 7.87257
v 3.689508 6.753388 0.9605698
v -1.953492 6.753388 -2.22843
v 3.510508 6.753388 7.87257
v 2.897508 6.753388 0.5565698
v 3.510508 6.753388 7.87257
v 8.742508 6.753388 -1.32043
v 3.689508 6.753388 0.9605698
v -8.691492 6.753388 1.11757
v -3.648492 6.753388 -8.18243
v -4.022492 6.753388 -8.39143
v -9.195492 6.753388 0.8345698
v -8.956492 6.753388 1.59057
v 3.208508 6.753388 8.41057
v 3.510508 6.753388 7.87257
v -8.691492 6.753388 1.11757
v -2.680492 6.753388 -2.65943
v -1.953492 6.753388 -2.22843
v -1.953492 8.087465 -2.22843
v -2.680492 8.087465 -2.65943
v -1.953492 6.753388 -2.22843
v -1.412492 6.753388 -3.14143
v -1.412492 8.087465 -3.14143
v -1.953492 8.087465 -2.22843
v -2.139492 8.087465 -3.57143
v -1.412492 8.087465 -3.14143
v -1.412492 6.753388 -3.14143
v -2.139492 6.753388 -3.57143
v -2.680492 8.087465 -2.65943
v -2.139492 8.087465 -3.57143
v -2.139492 6.753388 -3.57143
v -2.680492 6.753388 -2.65943
v 2.897508 6.753388 0.5565698
v 3.689508 6.753388 0.9605698
v 3.689508 8.078465 0.9605698
v 2.897508 8.078465 0.5565698
v 3.689508 6.753388 0.9605698
v 4.231508 6.753388 -0.1024302
v 4.231508 8.078465 -0.1024302
v 3.689508 8.078465 0.9605698
v 3.439508 8.078465 -0.5064302
v 4.231508 8.078465 -0.1024302
v 4.231508 6.753388 -0.1024302
v 3.439508 6.753388 -0.5064302
v 2.897508 8.078465 0.5565698
v 3.439508 8.078465 -0.5064302
v 3.439508 6.753388 -0.5064302
v 2.897508 6.753388 0.5565698
v -8.956492 6.753388 1.59057
v -8.691492 6.753388 1.11757
v -8.691492 -6.769769 1.11757
v -8.956492 -6.769769 1.59057
v -8.956492 -6.769769 1.59057
v 3.208508 -6.769769 8.41057
v 3.208508 6.753388 8.41057
v -8.956492 6.753388 1.59057
v 3.208508 -6.769769 8.41057
v 3.510508 -6.769769 7.87257
v 3.510508 6.753388 7.87257
v 3.208508 6.753388 8.41057
v 3.510508 -6.769769 7.87257
v 4.132508 -6.769769 8.22057
v 4.132508 6.753388 8.22057
v 3.510508 6.753388 7.87257
v 4.132508 -6.769769 8.22057
v 9.305508 -6.769769 -1.00443
v 9.305508 6.753388 -1.00443
v 4.132508 6.753388 8.22057
v 8.742508 6.753388 -1.32043
v 9.024008 -6.769769 -1.16243
v 8.742508 -6.769769 -1.32043
v 9.024008 -6.769769 -1.16243
v 9.305508 6.753388 -1.00443
v 9.305508 -6.769769 -1.00443
v 8.742508 6.753388 -1.32043
v 9.305508 6.753388 -1.00443
v 9.024008 -6.769769 -1.16243
v 8.742508 -6.769769 -1.32043
v 8.895508 -6.769769 -1.59343
v 8.895508 6.753388 -1.59343
v 8.742508 6.753388 -1.32043
v -3.459492 6.753388 -8.520431
v 8.895508 6.753388 -1.59343
v 8.895508 -6.769769 -1.59343
v -3.459492 -6.769769 -8.520431
v -3.648492 6.753388 -8.18243
v -3.553992 -6.769769 -8.35143
v -3.648492 -6.769769 -8.18243
v -3.553992 -6.769769 -8.35143
v -3.459492 6.753388 -8.520431
v -3.459492 -6.769769 -8.520431
v -3.648492 6.753388 -8.18243
v -3.459492 6.753388 -8.520431
v -3.553992 -6.769769 -8.35143
v -4.022492 6.753388 -8.39143
v -3.648492 6.753388 -8.18243
v -3.648492 -6.769769 -8.18243
v -4.022492 -6.769769 -8.39143
v -9.195492 6.753388 0.8345698
v -4.022492 6.753388 -8.39143
v -4.022492 -6.769769 -8.39143
v -9.195492 -6.769769 0.8345698
v -8.943492 -6.769769 0.9760698
v -8.691492 -6.769769 1.11757
v -8.691492 6.753388 1.11757
v -9.195492 6.753388 0.8345698
v -9.195492 -6.769769 0.8345698
v -8.943492 -6.769769 0.9760698
v -9.195492 6.753388 0.8345698
v -8.943492 -6.769769 0.9760698
v -8.691492 6.753388 1.11757
v -9.195492 -6.769769 0.8345698
v -4.022492 -6.769769 -8.39143
v -3.648492 -6.769769 -8.18243
v -3.553992 -6.769769 -8.35143
v -3.459492 -6.769769 -8.520431
v 8.895508 -6.769769 -1.59343
v 8.742508 -6.769769 -1.32043
v 9.024008 -6.769769 -1.16243
v 9.305508 -6.769769 -1.00443
v 4.132508 -6.769769 8.22057
v 3.510508 -6.769769 7.87257
v 3.208508 -6.769769 8.41057
v -8.956492 -6.769769 1.59057
v -8.691492 -6.769769 1.11757
v -8.943492 -6.769769 0.9760698
vt 0.867756 0.919236
vt 0.855379 0.904762
vt 0.881779 0.894032
vt 0.894127 0.908506
vt 0.819413 0.920599
vt 0.807760 0.904800
vt 0.838651 0.894032
vt 0.850304 0.909831
vt 0.007550 0.108188
vt 0.284975 0.001218
vt 0.294412 0.012905
vt 0.017942 0.121099
vt 0.499305 0.270106
vt 0.294412 0.012905
vt 0.302622 0.009741
vt 0.509470 0.266199
vt 0.499305 0.270106
vt 0.361010 0.238657
vt 0.348166 0.223566
vt 0.499305 0.270106
vt 0.333581 0.249844
vt 0.361010 0.238657
vt 0.499305 0.270106
vt 0.348166 0.223566
vt 0.294412 0.012905
vt 0.269495 0.122856
vt 0.257437 0.106418
vt 0.294412 0.012905
vt 0.348166 0.223566
vt 0.269495 0.122856
vt 0.294412 0.012905
vt 0.225474 0.117622
vt 0.294412 0.012905
vt 0.257437 0.106418
vt 0.320707 0.234754
vt 0.269495 0.122856
vt 0.348166 0.223566
vt 0.219648 0.374361
vt 0.320707 0.234754
vt 0.333581 0.249844
vt 0.219648 0.374361
vt 0.333581 0.249844
vt 0.499305 0.270106
vt 0.219648 0.374361
vt 0.017942 0.121099
vt 0.320707 0.234754
vt 0.320707 0.234754
vt 0.237532 0.134060
vt 0.269495 0.122856
vt 0.237532 0.134060
vt 0.017942 0.121099
vt 0.225474 0.117622
vt 0.320707 0.234754
vt 0.017942 0.121099
vt 0.237532 0.134060
vt 0.017942 0.121099
vt 0.294412 0.012905
vt 0.225474 0.117622
vt 0.219648 0.374361
vt 0.499305 0.270106
vt 0.505545 0.277869
vt 0.228099 0.384821
vt 0.205424 0.379839
vt 0.001764 0.127343
vt 0.017942 0.121099
vt 0.219648 0.374361
vt 0.936197 0.916038
vt 0.924162 0.901622
vt 0.935752 0.894032
vt 0.947805 0.908471
vt 0.132275 0.988616
vt 0.158593 0.978076
vt 0.170429 0.984714
vt 0.144068 0.995272
vt 0.017586 0.978076
vt 0.030155 0.992531
vt 0.014312 0.999474
vt 0.001764 0.985042
vt 0.128643 0.985559
vt 0.102233 0.996487
vt 0.086420 0.988985
vt 0.112787 0.978076
vt 0.908917 0.917513
vt 0.897707 0.901772
vt 0.909016 0.894032
vt 0.920244 0.909799
vt 0.174603 0.988590
vt 0.205404 0.978076
vt 0.217079 0.984462
vt 0.186228 0.994994
vt 0.968188 0.894032
vt 0.979980 0.909835
vt 0.964153 0.916565
vt 0.952381 0.900788
vt 0.082152 0.985687
vt 0.051199 0.996675
vt 0.035273 0.989046
vt 0.066176 0.978076
vt 0.180521 0.969880
vt 0.166408 0.975483
vt 0.001764 0.899542
vt 0.015645 0.894032
vt 0.712766 0.331057
vt 0.513228 0.082224
vt 0.630988 0.001218
vt 0.833823 0.254174
vt 0.537919 0.900107
vt 0.553657 0.894032
vt 0.669902 0.961754
vt 0.653903 0.967930
vt 0.410452 0.810597
vt 0.400353 0.797990
vt 0.517255 0.717418
vt 0.527521 0.730234
vt 0.001764 0.822455
vt 0.274020 0.717418
vt 0.395630 0.783829
vt 0.118865 0.890601
vt 0.524271 0.894032
vt 0.362782 0.968130
vt 0.358025 0.962414
vt 0.362782 0.968130
vt 0.533944 0.905655
vt 0.367539 0.973846
vt 0.524271 0.894032
vt 0.533944 0.905655
vt 0.362782 0.968130
vt 0.673721 0.897106
vt 0.681707 0.894032
vt 0.802516 0.959891
vt 0.794398 0.963016
vt 0.165253 0.387333
vt 0.378441 0.645323
vt 0.211449 0.714430
vt 0.001764 0.460693
vt 0.834826 0.795121
vt 0.669860 0.719383
vt 0.674817 0.717418
vt 0.669860 0.719383
vt 0.824746 0.799118
vt 0.664903 0.721349
vt 0.834826 0.795121
vt 0.824746 0.799118
vt 0.669860 0.719383
vt 0.347808 0.894032
vt 0.354204 0.901754
vt 0.191476 0.974354
vt 0.185185 0.966759
vt 0.820481 0.463739
vt 0.543622 0.574014
vt 0.382716 0.495802
vt 0.655030 0.387333
vt 0.536734 0.798702
vt 0.532628 0.793600
vt 0.652934 0.717418
vt 0.661283 0.727790
vt 0.540840 0.803804
vt 0.536734 0.798702
vt 0.661283 0.727790
vt 0.536734 0.798702
vt 0.652934 0.717418
vt 0.222222 0.978076
vt 0.222222 0.978076
vt 0.222222 0.978076
vt 0.222222 0.978076
vt 0.222222 0.978076
vt 0.222222 0.978076
vt 0.222222 0.978076
vt 0.222222 0.978076
vt 0.222222 0.978076
vt 0.222222 0.978076
vt 0.222222 0.978076
vt 0.222222 0.978076
vt 0.222222 0.978076
vt 0.222222 0.978076
vt 0.222222 0.978076
vn 0 1 0
vn 0 1 0
vn 0 1 0
vn 0 1 0
vn 0 1 0
vn 0 1 0
vn 0 1 0
vn 0 1 0
vn 0 1 0
vn 0 1 0
vn 0 1 0
vn 0 1 0
vn 0 1 0
vn 0 1 0
vn 0 1 0
vn 0 1 0
vn 0 1 0
vn 0 1 0
vn 0 1 0
vn 0 1 0
vn 0 1 0
vn 0 1 0
vn 0 1 0
vn 0 1 0
vn 0 1 0
vn 0 1 0
vn 0 1 0
vn 0 1 0
vn 0 1 0
vn 0 1 0
vn 0 1 0
vn 0 1 0
vn 0 1 0
vn 0 1 0
vn 0 1 0
vn 0 1 0
vn 0 1 0
vn 0 1 0
vn 0 1 0
vn 0 1 0
vn 0 1 0
vn 0 1 0
vn 0 1 0
vn 0 1 0
vn 0 1 0
vn 0 1 0
vn 0 1 0
vn 0 1 0
vn 0 1 0
vn 0 1 0
vn 0 1 0
vn 0 1 0
vn 0 1 0
vn 0 1 0
vn 0 1 0
vn 0 1 0
vn 0 1 0
vn 0 1 0
vn 0 1 0
vn 0 1 0
vn 0 1 0
vn 0 1 0
vn 0 1 0
vn 0 1 0
vn 0 1 0
vn 0 1 0
vn -0.5099645 0 0.8601954
vn -0.5099645 0 0.8601954
vn -0.5099645 0 0.8601954
vn -0.5099645 0 0.8601954
vn 0.8603069 0 0.5097765
vn 0.8603069 0 0.5097765
vn 0.8603069 0 0.5097765
vn 0.8603069 0 0.5097765
vn 0.5090883 0 -0.8607143
vn 0.5090883 0 -0.8607143
vn 0.5090883 0 -0.8607143
vn 0.5090883 0 -0.8607143
vn -0.8600616 0 -0.5101901
vn -0.8600616 0 -0.5101901
vn -0.8600616 0 -0.5101901
vn -0.8600616 0 -0.5101901
vn -0.4543975 0 0.890799
vn -0.4543975 0 0.890799
vn -0.4543975 0 0.890799
vn -0.4543975 0 0.890799
vn 0.8908796 0 0.4542396
vn 0.8908796 0 0.4542396
vn 0.8908796 0 0.4542396
vn 0.8908796 0 0.4542396
vn 0.4543975 0 -0.890799
vn 0.4543975 0 -0.890799
vn 0.4543975 0 -0.890799
vn 0.4543975 0 -0.890799
vn -0.8908796 0 -0.4542396
vn -0.8908796 0 -0.4542396
vn -0.8908796 0 -0.4542396
vn -0.8908796 0 -0.4542396
vn -0.8724117 0 -0.4887719
vn -0.8724117 0 -0.4887719
vn -0.8724117 0 -0.4887719
vn -0.8724117 0 -0.4887719
vn -0.4890182 0 0.8722736
vn -0.4890182 0 0.8722736
vn -0.4890182 0 0.8722736
vn -0.4890182 0 0.8722736
vn 0.8720081 0 0.4894915
vn 0.8720081 0 0.4894915
vn 0.8720081 0 0.4894915
vn 0.8720081 0 0.4894915
vn -0.4882616 0 0.8726974
vn -0.4882616 0 0.8726974
vn -0.4882616 0 0.8726974
vn -0.4882616 0 0.8726974
vn 0.8722237 0 0.4891071
vn 0.8722237 0 0.4891071
vn 0.8722237 0 0.4891071
vn 0.8722237 0 0.4891071
vn 0.4894521 0 -0.8720302
vn 0.4894521 0 -0.8720302
vn 0.4894521 0 -0.8720302
vn 0.4894521 0 -0.8720302
vn 0.4894521 0 -0.8720302
vn 0.4894521 0 -0.8720302
vn 0.4894521 1.053375E-12 -0.8720302
vn 0.4894521 1.053375E-12 -0.8720302
vn 0.4894521 1.053375E-12 -0.8720302
vn 0.8723425 0 0.4888952
vn 0.8723425 0 0.4888952
vn 0.8723425 0 0.4888952
vn 0.8723425 0 0.4888952
vn 0.489044 0 -0.8722591
vn 0.489044 0 -0.8722591
vn 0.489044 0 -0.8722591
vn 0.489044 0 -0.8722591
vn -0.8728141 0 -0.4880528
vn -0.8728141 0 -0.4880528
vn -0.8728141 0 -0.4880528
vn -0.8728141 0 -0.4880528
vn -0.8728141 0 -0.4880528
vn -0.8728141 0 -0.4880528
vn -0.8728141 0 -0.4880528
vn -0.8728141 0 -0.4880528
vn -0.8728141 0 -0.4880528
vn 0.4878214 0 -0.8729435
vn 0.4878214 0 -0.8729435
vn 0.4878214 0 -0.8729435
vn 0.4878214 0 -0.8729435
vn -0.8722463 0 -0.4890668
vn -0.8722463 0 -0.4890668
vn -0.8722463 0 -0.4890668
vn -0.8722463 0 -0.4890668
vn -0.489604 0 0.8719449
vn -0.489604 0 0.8719449
vn -0.489604 0 0.8719449
vn -0.489604 0 0.8719449
vn -0.489604 0 0.8719449
vn -0.489604 0 0.8719449
vn -0.489604 -2.897117E-11 0.8719449
vn -0.489604 -2.897117E-11 0.8719449
vn -0.489604 -2.897117E-11 0.8719449
vn 0 -1 0
vn 0 -1 0
vn 0 -1 0
vn 0 -1 0
vn 0 -1 0
vn 0 -1 0
vn 0 -1 0
vn 0 -1 0
vn 0 -1 0
vn 0 -1 0
vn 0 -1 0
vn 0 -1 0
vn 0 -1 0
vn 0 -1 0
vn 0 -1 0

g CDNNDG01_0000170
f 2/2/2 3/3/3 4/4/4
f 1/1/1 2/2/2 4/4/4
f 5/5/5 7/7/7 8/8/8
f 5/5/5 6/6/6 7/7/7
f 12/12/12 9/9/9 11/11/11
f 11/11/11 9/9/9 10/10/10
f 13/13/13 14/14/14 16/16/16
f 16/16/16 14/14/14 15/15/15
f 17/17/17 18/18/18 19/19/19
f 20/20/20 21/21/21 22/22/22
f 23/23/23 24/24/24 25/25/25
f 26/26/26 27/27/27 28/28/28
f 29/29/29 30/30/30 31/31/31
f 32/32/32 33/33/33 34/34/34
f 35/35/35 36/36/36 37/37/37
f 38/38/38 39/39/39 40/40/40
f 41/41/41 42/42/42 43/43/43
f 44/44/44 45/45/45 46/46/46
f 47/47/47 48/48/48 49/49/49
f 50/50/50 51/51/51 52/52/52
f 53/53/53 54/54/54 55/55/55
f 56/56/56 57/57/57 58/58/58
f 59/59/59 60/60/60 62/62/62
f 62/62/62 60/60/60 61/61/61
f 63/63/63 64/64/64 66/66/66
f 66/66/66 64/64/64 65/65/65
f 67/67/67 69/69/69 70/70/70
f 69/69/69 67/67/67 68/68/68
f 71/71/71 73/73/73 74/74/74
f 71/71/71 72/72/72 73/73/73
f 75/75/75 77/77/77 78/78/78
f 75/75/75 76/76/76 77/77/77
f 82/82/82 79/79/79 81/81/81
f 81/81/81 79/79/79 80/80/80
f 86/86/86 83/83/83 85/85/85
f 85/85/85 83/83/83 84/84/84
f 90/90/90 87/87/87 89/89/89
f 88/88/88 89/89/89 87/87/87
f 94/94/94 91/91/91 93/93/93
f 92/92/92 93/93/93 91/91/91
f 95/95/95 97/97/97 98/98/98
f 95/95/95 96/96/96 97/97/97
f 99/99/99 100/100/100 101/101/101
f 102/102/102 99/99/99 101/101/101
f 103/103/103 105/105/105 106/106/106
f 105/105/105 103/103/103 104/104/104
f 108/108/108 109/109/109 107/107/107
f 107/107/107 109/109/109 110/110/110
f 111/111/111 113/113/113 114/114/114
f 113/113/113 111/111/111 112/112/112
f 118/118/118 115/115/115 117/117/117
f 116/116/116 117/117/117 115/115/115
f 119/119/119 120/120/120 121/121/121
f 122/122/122 123/123/123 124/124/124
f 125/125/125 126/126/126 127/127/127
f 128/128/128 130/130/130 131/131/131
f 128/128/128 129/129/129 130/130/130
f 135/135/135 132/132/132 134/134/134
f 133/133/133 134/134/134 132/132/132
f 136/136/136 137/137/137 138/138/138
f 139/139/139 140/140/140 141/141/141
f 142/142/142 143/143/143 144/144/144
f 147/147/147 145/145/145 146/146/146
f 145/145/145 147/147/147 148/148/148
f 149/149/149 151/151/151 152/152/152
f 149/149/149 150/150/150 151/151/151
f 153/153/153 154/154/154 155/155/155
f 156/156/156 157/157/157 158/158/158
f 159/159/159 160/160/160 161/161/161
f 176/176/176 164/164/164 175/175/175
f 168/168/168 164/164/164 165/165/165
f 175/175/175 164/164/164 172/172/172
f 175/175/175 172/172/172 173/173/173
f 176/176/176 162/162/162 163/163/163
f 164/164/164 176/176/176 163/163/163
f 165/165/165 166/166/166 167/167/167
f 173/173/173 174/174/174 175/175/175
f 167/167/167 168/168/168 165/165/165
f 172/172/172 169/169/169 171/171/171
f 172/172/172 168/168/168 169/169/169
f 168/168/168 172/172/172 164/164/164
f 169/169/169 170/170/170 171/171/171
