v 1.850772 2.122199 -4.372195
v 5.469772 2.122199 -2.370195
v 6.777772 2.122199 -4.734195
v 3.158772 2.122199 -6.736195
v -1.195228 6.191199 -6.057195
v -0.5562277 6.191199 -5.704195
v -0.2672276 6.191199 -6.228195
v -0.9062276 6.191199 -6.581195
v -6.338228 5.3322 3.238805
v -0.3402277 5.3322 6.557805
v 1.850772 5.3322 -4.372195
v -0.5562277 5.3322 -5.704195
v -0.3402277 5.3322 6.557805
v 5.469772 5.3322 -2.370195
v 1.850772 5.3322 -4.372195
v -0.3402277 5.3322 6.557805
v 5.530772 5.3322 -2.336195
v 5.469772 5.3322 -2.370195
v -0.3402277 5.3322 6.557805
v 0.2857724 5.3322 7.144804
v 5.530772 5.3322 -2.336195
v -6.338228 5.3322 3.238805
v -0.5562277 5.3322 -5.704195
v -1.195228 5.3322 -6.057195
v -0.4422277 5.3322 6.741805
v 0.2857724 5.3322 7.144804
v -0.3402277 5.3322 6.557805
v 5.469772 -5.06138 -2.370195
v 6.777772 -5.06138 -4.734195
v 6.777772 2.122199 -4.734195
v 5.469772 2.122199 -2.370195
v 3.158772 2.122199 -6.736195
v 6.777772 2.122199 -4.734195
v 6.777772 -5.06138 -4.734195
v 3.158772 -5.06138 -6.736195
v 1.850772 2.122199 -4.372195
v 3.158772 2.122199 -6.736195
v 3.158772 -5.06138 -6.736195
v 1.850772 -5.06138 -4.372195
v -1.195228 5.3322 -6.057195
v -0.5562277 5.3322 -5.704195
v -0.5562277 6.191199 -5.704195
v -1.195228 6.191199 -6.057195
v -0.4117277 -5.06138 -5.966195
v -0.2672276 -5.06138 -6.228195
v -0.2672276 6.191199 -6.228195
v -0.5562277 6.191199 -5.704195
v -0.4117277 -5.06138 -5.966195
v -0.2672276 6.191199 -6.228195
v -0.5562277 6.191199 -5.704195
v -0.5562277 5.3322 -5.704195
v -0.4117277 -5.06138 -5.966195
v -0.5562277 5.3322 -5.704195
v -0.5562277 -5.06138 -5.704195
v -0.4117277 -5.06138 -5.966195
v -0.9062276 6.191199 -6.581195
v -0.5867277 -5.06138 -6.404696
v -0.9062276 -5.06138 -6.581195
v -0.5867277 -5.06138 -6.404696
v -0.2672276 6.191199 -6.228195
v -0.2672276 -5.06138 -6.228195
v -0.9062276 6.191199 -6.581195
v -0.2672276 6.191199 -6.228195
v -0.5867277 -5.06138 -6.404696
v -1.195228 6.191199 -6.057195
v -0.9062276 6.191199 -6.581195
v -1.195228 5.3322 -6.057195
v -1.195228 5.3322 -6.057195
v -0.9062276 6.191199 -6.581195
v -0.9062276 -5.06138 -6.581195
v -1.195228 -5.06138 -6.057195
v -6.338228 5.3322 3.238805
v -1.195228 5.3322 -6.057195
v -1.195228 -5.06138 -6.057195
v -6.338228 -5.06138 3.238805
v -6.338228 -5.06138 3.238805
v -0.3402277 -5.06138 6.557805
v -0.3402277 5.3322 6.557805
v -6.338228 5.3322 3.238805
v -0.4422277 5.3322 6.741805
v -0.3402277 5.3322 6.557805
v -0.3402277 -5.06138 6.557805
v -0.4422277 -5.06138 6.741805
v -0.4422277 -5.06138 6.741805
v 0.2857724 -5.06138 7.144804
v 0.2857724 5.3322 7.144804
v -0.4422277 5.3322 6.741805
v 0.2857724 -5.06138 7.144804
v 5.530772 -5.06138 -2.336195
v 5.530772 5.3322 -2.336195
v 0.2857724 5.3322 7.144804
v 5.469772 5.3322 -2.370195
v 5.530772 5.3322 -2.336195
v 5.469772 2.122199 -2.370195
v 5.469772 2.122199 -2.370195
v 5.530772 5.3322 -2.336195
v 5.530772 -5.06138 -2.336195
v 5.469772 -5.06138 -2.370195
v -0.5562277 5.3322 -5.704195
v 1.850772 2.122199 -4.372195
v 1.850772 -5.06138 -4.372195
v -0.5562277 -5.06138 -5.704195
v -0.5562277 5.3322 -5.704195
v 1.850772 5.3322 -4.372195
v 1.850772 2.122199 -4.372195
v 1.850772 5.3322 -4.372195
v 5.469772 5.3322 -2.370195
v 5.469772 2.122199 -2.370195
v 1.850772 2.122199 -4.372195
v -0.9062276 -5.06138 -6.581195
v -0.5867277 -5.06138 -6.404696
v -0.2672276 -5.06138 -6.228195
v -0.4117277 -5.06138 -5.966195
v -0.5562277 -5.06138 -5.704195
v 1.850772 -5.06138 -4.372195
v 3.158772 -5.06138 -6.736195
v 6.777772 -5.06138 -4.734195
v 5.469772 -5.06138 -2.370195
v 5.530772 -5.06138 -2.336195
v 0.2857724 -5.06138 7.144804
v -0.4422277 -5.06138 6.741805
v -0.3402277 -5.06138 6.557805
v -6.338228 -5.06138 3.238805
v -1.195228 -5.06138 -6.057195
vt 0.804265 0.720805
vt 0.726218 0.620042
vt 0.818825 0.583882
vt 0.896872 0.684647
vt 0.252120 0.940697
vt 0.238979 0.923735
vt 0.258581 0.916118
vt 0.271721 0.933080
vt 0.156618 0.334671
vt 0.025538 0.165860
vt 0.458955 0.105225
vt 0.511559 0.172973
vt 0.025538 0.165860
vt 0.379890 0.003362
vt 0.458955 0.105225
vt 0.025538 0.165860
vt 0.378547 0.001645
vt 0.379890 0.003362
vt 0.025538 0.165860
vt 0.002320 0.148220
vt 0.378547 0.001645
vt 0.156618 0.334671
vt 0.511559 0.172973
vt 0.525499 0.190958
vt 0.018237 0.168710
vt 0.002320 0.148220
vt 0.025538 0.165860
vt 0.233741 0.963158
vt 0.142292 0.999559
vt 0.002320 0.952839
vt 0.094574 0.916118
vt 0.658042 0.732264
vt 0.580046 0.631624
vt 0.642062 0.583882
vt 0.719377 0.683645
vt 0.338747 0.841394
vt 0.431737 0.805921
vt 0.492530 0.865185
vt 0.400350 0.900348
vt 0.294587 0.916118
vt 0.307995 0.932956
vt 0.291844 0.939863
vt 0.278422 0.923007
vt 0.837020 0.886300
vt 0.826880 0.890324
vt 0.605568 0.814079
vt 0.626130 0.805921
vt 0.837020 0.886300
vt 0.605568 0.814079
vt 0.626130 0.805921
vt 0.643219 0.811824
vt 0.837020 0.886300
vt 0.643219 0.811824
vt 0.847161 0.882277
vt 0.837020 0.886300
vt 0.236499 0.901035
vt 0.325932 0.814674
vt 0.332719 0.823427
vt 0.325932 0.814674
vt 0.222738 0.883287
vt 0.319146 0.805921
vt 0.236499 0.901035
vt 0.222738 0.883287
vt 0.325932 0.814674
vt 0.365598 0.346774
vt 0.386521 0.338816
vt 0.373102 0.353932
vt 0.373102 0.353932
vt 0.386521 0.338816
vt 0.483295 0.431516
vt 0.462658 0.439365
vt 0.002320 0.495400
vt 0.373102 0.353932
vt 0.462658 0.439365
vt 0.096554 0.579042
vt 0.733019 0.001645
vt 0.866125 0.167026
vt 0.666140 0.254404
vt 0.531322 0.086905
vt 0.498840 0.808695
vt 0.506050 0.805921
vt 0.600236 0.890722
vt 0.593117 0.893460
vt 0.201451 0.805921
vt 0.217550 0.825818
vt 0.018627 0.912649
vt 0.002320 0.892497
vt 0.574604 0.654899
vt 0.205651 0.802618
vt 0.002320 0.733492
vt 0.375984 0.583882
vt 0.490897 0.410602
vt 0.489559 0.408892
vt 0.519495 0.388762
vt 0.519495 0.388762
vt 0.489559 0.408892
vt 0.581366 0.338816
vt 0.582686 0.340504
vt 0.622071 0.579533
vt 0.597953 0.489819
vt 0.660459 0.440681
vt 0.712203 0.507307
vt 0.622071 0.579533
vt 0.569665 0.512057
vt 0.597953 0.489819
vt 0.569665 0.512057
vt 0.490897 0.410602
vt 0.519495 0.388762
vt 0.597953 0.489819
vt 0.313225 0.916118
vt 0.313225 0.916118
vt 0.313225 0.916118
vt 0.313225 0.916118
vt 0.313225 0.916118
vt 0.313225 0.916118
vt 0.313225 0.916118
vt 0.313225 0.916118
vt 0.313225 0.916118
vt 0.313225 0.916118
vt 0.313225 0.916118
vt 0.313225 0.916118
vt 0.313225 0.916118
vt 0.313225 0.916118
vt 0.313225 0.916118
vn 0 1 0
vn 0 1 0
vn 0 1 0
vn 0 1 0
vn 0 1 0
vn 0 1 0
vn 0 1 0
vn 0 1 0
vn 0 1 0
vn 0 1 0
vn 0 1 0
vn 0 1 0
vn 0 1 0
vn 0 1 0
vn 0 1 0
vn 0 1 0
vn 0 1 0
vn 0 1 0
vn 0 1 0
vn 0 1 0
vn 0 1 0
vn 0 1 0
vn 0 1 0
vn 0 1 0
vn 0 1 0
vn 0 1 0
vn 0 1 0
vn 0.874994 0 0.4841338
vn 0.874994 0 0.4841338
vn 0.874994 0 0.4841338
vn 0.874994 0 0.4841338
vn 0.4840614 0 -0.875034
vn 0.4840614 0 -0.875034
vn 0.4840614 0 -0.875034
vn 0.4840614 0 -0.875034
vn -0.874994 0 -0.4841338
vn -0.874994 0 -0.4841338
vn -0.874994 0 -0.4841338
vn -0.874994 0 -0.4841338
vn -0.483548 0 0.8753178
vn -0.483548 0 0.8753178
vn -0.483548 0 0.8753178
vn -0.483548 0 0.8753178
vn 0.8756508 0 0.4829448
vn 0.8756508 0 0.4829448
vn 0.8756508 0 0.4829448
vn 0.8756508 0 0.4829448
vn 0.8756508 0 0.4829448
vn 0.8756508 0 0.4829448
vn 0.8756508 0 0.4829448
vn 0.8756508 0 0.4829448
vn 0.8756508 0 0.4829448
vn 0.8756508 0 0.4829448
vn 0.8756508 0 0.4829448
vn 0.8756508 0 0.4829448
vn 0.483548 0 -0.8753178
vn 0.483548 0 -0.8753178
vn 0.483548 0 -0.8753178
vn 0.483548 0 -0.8753178
vn 0.483548 0 -0.8753178
vn 0.483548 0 -0.8753178
vn 0.483548 0 -0.8753178
vn 0.483548 0 -0.8753178
vn 0.483548 0 -0.8753178
vn -0.8756508 0 -0.4829448
vn -0.8756508 0 -0.4829448
vn -0.8756508 0 -0.4829448
vn -0.8756508 0 -0.4829448
vn -0.8756508 0 -0.4829448
vn -0.8756508 0 -0.4829448
vn -0.8756508 0 -0.4829448
vn -0.8750128 0 -0.4840997
vn -0.8750128 0 -0.4840997
vn -0.8750128 0 -0.4840997
vn -0.8750128 0 -0.4840997
vn -0.4841683 0 0.8749748
vn -0.4841683 0 0.8749748
vn -0.4841683 0 0.8749748
vn -0.4841683 0 0.8749748
vn -0.8746053 0 -0.4848356
vn -0.8746053 0 -0.4848356
vn -0.8746053 0 -0.4848356
vn -0.8746053 0 -0.4848356
vn -0.4843159 0 0.8748932
vn -0.4843159 0 0.8748932
vn -0.4843159 0 0.8748932
vn -0.4843159 0 0.8748932
vn 0.8750266 0 0.4840749
vn 0.8750266 0 0.4840749
vn 0.8750266 0 0.4840749
vn 0.8750266 0 0.4840749
vn 0.4868582 0 -0.873481
vn 0.4868582 0 -0.873481
vn 0.4868582 0 -0.873481
vn 0.4868582 0 -0.873481
vn 0.4868582 0 -0.873481
vn 0.4868582 0 -0.873481
vn 0.4868582 0 -0.873481
vn 0.4841917 0 -0.874962
vn 0.4841917 0 -0.874962
vn 0.4841917 0 -0.874962
vn 0.4841917 0 -0.874962
vn 0.4841917 0 -0.874962
vn 0.4841917 0 -0.874962
vn 0.4841917 0 -0.874962
vn 0.4840614 0 -0.875034
vn 0.4840614 0 -0.875034
vn 0.4840614 0 -0.875034
vn 0.4840614 0 -0.875034
vn 0 -1 0
vn 0 -1 0
vn 0 -1 0
vn 0 -1 0
vn 0 -1 0
vn 0 -1 0
vn 0 -1 0
vn 0 -1 0
vn 0 -1 0
vn 0 -1 0
vn 0 -1 0
vn 0 -1 0
vn 0 -1 0
vn 0 -1 0
vn 0 -1 0

g CDNNDG01_0002200
f 2/2/2 3/3/3 4/4/4
f 1/1/1 2/2/2 4/4/4
f 8/8/8 5/5/5 7/7/7
f 7/7/7 5/5/5 6/6/6
f 12/12/12 9/9/9 11/11/11
f 11/11/11 9/9/9 10/10/10
f 13/13/13 14/14/14 15/15/15
f 16/16/16 17/17/17 18/18/18
f 19/19/19 20/20/20 21/21/21
f 22/22/22 23/23/23 24/24/24
f 25/25/25 26/26/26 27/27/27
f 28/28/28 30/30/30 31/31/31
f 28/28/28 29/29/29 30/30/30
f 33/33/33 34/34/34 32/32/32
f 32/32/32 34/34/34 35/35/35
f 36/36/36 37/37/37 38/38/38
f 39/39/39 36/36/36 38/38/38
f 40/40/40 42/42/42 43/43/43
f 42/42/42 40/40/40 41/41/41
f 44/44/44 45/45/45 46/46/46
f 47/47/47 48/48/48 49/49/49
f 50/50/50 51/51/51 52/52/52
f 53/53/53 54/54/54 55/55/55
f 56/56/56 57/57/57 58/58/58
f 59/59/59 60/60/60 61/61/61
f 62/62/62 63/63/63 64/64/64
f 65/65/65 66/66/66 67/67/67
f 68/68/68 70/70/70 71/71/71
f 70/70/70 68/68/68 69/69/69
f 73/73/73 74/74/74 75/75/75
f 72/72/72 73/73/73 75/75/75
f 76/76/76 78/78/78 79/79/79
f 78/78/78 76/76/76 77/77/77
f 80/80/80 81/81/81 82/82/82
f 83/83/83 80/80/80 82/82/82
f 85/85/85 86/86/86 87/87/87
f 87/87/87 84/84/84 85/85/85
f 91/91/91 88/88/88 90/90/90
f 89/89/89 90/90/90 88/88/88
f 92/92/92 93/93/93 94/94/94
f 95/95/95 97/97/97 98/98/98
f 97/97/97 95/95/95 96/96/96
f 100/100/100 101/101/101 102/102/102
f 99/99/99 100/100/100 102/102/102
f 103/103/103 104/104/104 105/105/105
f 106/106/106 108/108/108 109/109/109
f 106/106/106 107/107/107 108/108/108
f 114/114/114 123/123/123 124/124/124
f 110/110/110 111/111/111 124/124/124
f 111/111/111 112/112/112 113/113/113
f 111/111/111 113/113/113 124/124/124
f 113/113/113 114/114/114 124/124/124
f 114/114/114 115/115/115 123/123/123
f 118/118/118 115/115/115 116/116/116
f 122/122/122 118/118/118 119/119/119
f 120/120/120 121/121/121 122/122/122
f 116/116/116 117/117/117 118/118/118
f 119/119/119 120/120/120 122/122/122
f 115/115/115 118/118/118 122/122/122
f 115/115/115 122/122/122 123/123/123
