v -15.30706 3.89526 -10.57379
v 17.48394 3.89526 6.29421
v -14.65806 2.63726 -11.82079
v -14.65806 2.63726 -11.82079
v 17.48394 3.89526 6.29421
v 18.04994 2.63726 5.20921
v -15.88706 4.57526 -9.45879
v 16.76694 4.57526 7.67121
v -15.30706 3.89526 -10.57379
v -15.30706 3.89526 -10.57379
v 16.76694 4.57526 7.67121
v 17.48394 3.89526 6.29421
v -15.88706 4.57526 -9.45879
v -16.43706 4.57526 -8.40279
v 16.76694 4.57526 7.67121
v 16.22594 4.57526 8.711209
v -17.15706 3.92926 -7.02079
v 15.42294 3.92926 10.25321
v 16.22594 4.57526 8.711209
v -17.15706 3.92926 -7.02079
v 16.22594 4.57526 8.711209
v -16.43706 4.57526 -8.40279
v -18.11406 2.63726 -5.18279
v 14.59394 2.63726 11.84621
v 15.42294 3.92926 10.25321
v -18.11406 2.63726 -5.18279
v 15.42294 3.92926 10.25321
v -17.15706 3.92926 -7.02079
v 18.04994 -3.924534 5.20921
v 18.04994 2.63726 5.20921
v 17.48394 -3.924534 6.29421
v 17.48394 3.89526 6.29421
v 17.12544 -3.924534 6.98271
v 17.48394 -3.924534 6.29421
v 17.48394 3.89526 6.29421
v 16.76694 4.57526 7.67121
v 16.76694 -3.924534 7.67121
v 17.12544 -3.924534 6.98271
v 16.76694 4.57526 7.67121
v 17.12544 -3.924534 6.98271
v 17.48394 3.89526 6.29421
v 16.76694 -3.924534 7.67121
v 16.76694 4.57526 7.67121
v 16.22594 -3.924534 8.711209
v 16.22594 4.57526 8.711209
v 16.22594 -3.924534 8.711209
v 16.22594 4.57526 8.711209
v 15.42294 3.92926 10.25321
v 15.42294 -3.924534 10.25321
v 15.00844 -3.924534 11.04971
v 15.42294 -3.924534 10.25321
v 15.42294 3.92926 10.25321
v 14.59394 2.63726 11.84621
v 14.59394 -3.924534 11.84621
v 15.00844 -3.924534 11.04971
v 14.59394 2.63726 11.84621
v 15.00844 -3.924534 11.04971
v 15.42294 3.92926 10.25321
v -14.65806 2.63726 -11.82079
v 18.04994 -3.924534 5.20921
v -14.65806 -3.924534 -11.82079
v 18.04994 2.63726 5.20921
v -15.30706 -3.924534 -10.57379
v -15.30706 3.89526 -10.57379
v -14.65806 2.63726 -11.82079
v -14.65806 -3.924534 -11.82079
v -15.30706 3.89526 -10.57379
v -15.30706 -3.924534 -10.57379
v -15.88706 -3.924534 -9.45879
v -15.88706 4.57526 -9.45879
v -16.43706 4.57526 -8.40279
v -15.88706 -3.924534 -9.45879
v -16.43706 -3.924534 -8.40279
v -15.88706 4.57526 -9.45879
v -17.15706 3.92926 -7.02079
v -16.79706 -3.924534 -7.71179
v -17.15706 -3.924534 -7.02079
v -16.79706 -3.924534 -7.71179
v -16.43706 4.57526 -8.40279
v -16.43706 -3.924534 -8.40279
v -17.15706 3.92926 -7.02079
v -16.43706 4.57526 -8.40279
v -16.79706 -3.924534 -7.71179
v -18.11406 2.63726 -5.18279
v -17.63556 -3.924534 -6.10179
v -18.11406 -3.924534 -5.18279
v -17.63556 -3.924534 -6.10179
v -17.15706 3.92926 -7.02079
v -17.15706 -3.924534 -7.02079
v -18.11406 2.63726 -5.18279
v -17.15706 3.92926 -7.02079
v -17.63556 -3.924534 -6.10179
v -18.11406 2.63726 -5.18279
v -18.11406 -3.924534 -5.18279
v 14.59394 2.63726 11.84621
v 14.59394 -3.924534 11.84621
v -18.11406 -3.924534 -5.18279
v -17.63556 -3.924534 -6.10179
v 15.00844 -3.924534 11.04971
v 15.42294 -3.924534 10.25321
v -17.15706 -3.924534 -7.02079
v -16.79706 -3.924534 -7.71179
v 14.59394 -3.924534 11.84621
v -16.43706 -3.924534 -8.40279
v 16.76694 -3.924534 7.67121
v 16.22594 -3.924534 8.711209
v -15.88706 -3.924534 -9.45879
v -15.30706 -3.924534 -10.57379
v 17.12544 -3.924534 6.98271
v 17.48394 -3.924534 6.29421
v -14.65806 -3.924534 -11.82079
v 18.04994 -3.924534 5.20921
vt 0.201012 0.684248
vt 0.290683 0.814553
vt 0.192027 0.688231
vt 0.192027 0.688231
vt 0.290683 0.814553
vt 0.282394 0.817994
vt 0.298682 0.684248
vt 0.389777 0.814098
vt 0.291540 0.687350
vt 0.291540 0.687350
vt 0.389777 0.814098
vt 0.381209 0.817655
vt 0.481534 0.814434
vt 0.476072 0.816562
vt 0.395824 0.684248
vt 0.390444 0.686342
vt 0.182959 0.818531
vt 0.097079 0.688154
vt 0.106022 0.684248
vt 0.182959 0.818531
vt 0.106022 0.684248
vt 0.191138 0.815048
vt 0.084788 0.819720
vt 0.000304 0.689055
vt 0.010428 0.684248
vt 0.084788 0.819720
vt 0.010428 0.684248
vt 0.096313 0.814626
vt 0.815783 0.922175
vt 0.825324 0.927620
vt 0.810277 0.924354
vt 0.821613 0.930873
vt 0.806784 0.925734
vt 0.810277 0.924354
vt 0.821613 0.930873
vt 0.815549 0.934234
vt 0.803290 0.927114
vt 0.806784 0.925734
vt 0.815549 0.934234
vt 0.806784 0.925734
vt 0.821613 0.930873
vt 0.803290 0.927114
vt 0.815549 0.934234
vt 0.798013 0.929197
vt 0.810218 0.936338
vt 0.798013 0.929197
vt 0.810218 0.936338
vt 0.801383 0.938911
vt 0.790189 0.932288
vt 0.786147 0.933884
vt 0.790189 0.932288
vt 0.801383 0.938911
vt 0.791380 0.941029
vt 0.782106 0.935479
vt 0.786147 0.933884
vt 0.791380 0.941029
vt 0.786147 0.933884
vt 0.801383 0.938911
vt 0.868671 0.473746
vt 0.945110 0.609255
vt 0.855447 0.480523
vt 0.959052 0.603512
vt 0.740959 0.933215
vt 0.756342 0.941909
vt 0.747470 0.943072
vt 0.734632 0.935768
vt 0.756342 0.941909
vt 0.740959 0.933215
vt 0.746616 0.930934
vt 0.763409 0.940368
vt 0.768823 0.938182
vt 0.746616 0.930934
vt 0.751974 0.928771
vt 0.763409 0.940368
vt 0.774609 0.934601
vt 0.755480 0.927355
vt 0.758986 0.925939
vt 0.755480 0.927355
vt 0.768823 0.938182
vt 0.751974 0.928771
vt 0.774609 0.934601
vt 0.768823 0.938182
vt 0.755480 0.927355
vt 0.781419 0.929371
vt 0.763649 0.924057
vt 0.768312 0.922175
vt 0.763649 0.924057
vt 0.774609 0.934601
vt 0.758986 0.925939
vt 0.781419 0.929371
vt 0.774609 0.934601
vt 0.763649 0.924057
vt 0.854639 0.604414
vt 0.844616 0.611507
vt 0.770162 0.473746
vt 0.760803 0.481871
vt 0.515216 0.990624
vt 0.515216 0.990624
vt 0.515216 0.990624
vt 0.515216 0.990624
vt 0.515216 0.990624
vt 0.515216 0.990624
vt 0.515216 0.990624
vt 0.515216 0.990624
vt 0.515216 0.990624
vt 0.515216 0.990624
vt 0.515216 0.990624
vt 0.515216 0.990624
vt 0.515216 0.990624
vt 0.515216 0.990624
vt 0.515216 0.990624
vt 0.515216 0.990624
vn 0.3050441 0.7451851 -0.5929986
vn 0.3050441 0.7451851 -0.5929986
vn 0.3050441 0.7451851 -0.5929986
vn 0.3310296 0.6972837 -0.635779
vn 0.3310296 0.6972837 -0.635779
vn 0.3310296 0.6972837 -0.635779
vn 0.2210614 0.8795204 -0.4213975
vn 0.2210614 0.8795204 -0.4213975
vn 0.2210614 0.8795204 -0.4213975
vn 0.1835286 0.915985 -0.3567754
vn 0.1835286 0.915985 -0.3567754
vn 0.1835286 0.915985 -0.3567754
vn 0 1 0
vn 0 1 0
vn 0 1 0
vn 0 1 0
vn -0.1631618 0.937378 0.3077349
vn -0.1631618 0.937378 0.3077349
vn -0.1631618 0.937378 0.3077349
vn -0.1777313 0.9237685 0.3392098
vn -0.1777313 0.9237685 0.3392098
vn -0.1777313 0.9237685 0.3392098
vn -0.2696965 0.8117431 0.5180124
vn -0.2696965 0.8117431 0.5180124
vn -0.2696965 0.8117431 0.5180124
vn -0.2478413 0.8485686 0.4674464
vn -0.2478413 0.8485686 0.4674464
vn -0.2478413 0.8485686 0.4674464
vn 0.886614 0 0.4625101
vn 0.886614 0 0.4625101
vn 0.886614 0 0.4625101
vn 0.886614 0 0.4625101
vn 0.8869635 0 0.4618394
vn 0.8869635 0 0.4618394
vn 0.8869635 0 0.4618394
vn 0.8869635 0 0.4618394
vn 0.8869635 0 0.4618394
vn 0.8869635 0 0.4618394
vn 0.8869635 -3.163566E-12 0.4618394
vn 0.8869635 -3.163566E-12 0.4618394
vn 0.8869635 -3.163566E-12 0.4618394
vn 0.8871469 0 0.461487
vn 0.8871469 0 0.461487
vn 0.8871469 0 0.461487
vn 0.8871469 0 0.461487
vn 0.8869435 0 0.4618779
vn 0.8869435 0 0.4618779
vn 0.8869435 0 0.4618779
vn 0.8869435 0 0.4618779
vn 0.8870709 0 0.4616332
vn 0.8870709 0 0.4616332
vn 0.8870709 0 0.4616332
vn 0.8870709 0 0.4616332
vn 0.8870709 0 0.4616332
vn 0.8870709 0 0.4616332
vn 0.8870709 0 0.4616332
vn 0.8870709 0 0.4616332
vn 0.8870709 0 0.4616332
vn 0.4618189 0 -0.8869743
vn 0.4618189 0 -0.8869743
vn 0.4618189 0 -0.8869743
vn 0.4618189 0 -0.8869743
vn -0.8870537 0 -0.4616663
vn -0.8870537 0 -0.4616663
vn -0.8870537 0 -0.4616663
vn -0.8870537 0 -0.4616663
vn -0.8871517 0 -0.461478
vn -0.8871517 0 -0.461478
vn -0.8871517 0 -0.461478
vn -0.8871517 0 -0.461478
vn -0.8869141 0 -0.4619344
vn -0.8869141 0 -0.4619344
vn -0.8869141 0 -0.4619344
vn -0.8869141 0 -0.4619344
vn -0.8868593 0 -0.4620396
vn -0.8868593 0 -0.4620396
vn -0.8868593 0 -0.4620396
vn -0.8868593 0 -0.4620396
vn -0.8868593 0 -0.4620396
vn -0.8868593 0 -0.4620396
vn -0.8868593 0 -0.4620396
vn -0.8868593 0 -0.4620396
vn -0.8868593 0 -0.4620396
vn -0.8869718 0 -0.4618237
vn -0.8869718 0 -0.4618237
vn -0.8869718 0 -0.4618237
vn -0.8869718 0 -0.4618237
vn -0.8869718 0 -0.4618237
vn -0.8869718 0 -0.4618237
vn -0.8869718 -2.625479E-11 -0.4618237
vn -0.8869718 -2.625479E-11 -0.4618237
vn -0.8869718 -2.625479E-11 -0.4618237
vn -0.4617975 0 0.8869854
vn -0.4617975 0 0.8869854
vn -0.4617975 0 0.8869854
vn -0.4617975 0 0.8869854
vn 0 -1 0
vn 0 -1 0
vn 0 -1 0
vn 0 -1 0
vn 0 -1 0
vn 0 -1 0
vn 0 -1 0
vn 0 -1 0
vn 0 -1 0
vn 0 -1 0
vn 0 -1 0
vn 0 -1 0
vn 0 -1 0
vn 0 -1 0
vn 0 -1 0
vn 0 -1 0

g CDNNDG01_0004210
f 1/1/1 2/2/2 3/3/3
f 4/4/4 5/5/5 6/6/6
f 7/7/7 8/8/8 9/9/9
f 10/10/10 11/11/11 12/12/12
f 13/13/13 14/14/14 15/15/15
f 15/15/15 14/14/14 16/16/16
f 17/17/17 18/18/18 19/19/19
f 20/20/20 21/21/21 22/22/22
f 23/23/23 24/24/24 25/25/25
f 26/26/26 27/27/27 28/28/28
f 29/29/29 30/30/30 31/31/31
f 31/31/31 30/30/30 32/32/32
f 33/33/33 34/34/34 35/35/35
f 36/36/36 37/37/37 38/38/38
f 39/39/39 40/40/40 41/41/41
f 42/42/42 43/43/43 44/44/44
f 44/44/44 43/43/43 45/45/45
f 46/46/46 47/47/47 48/48/48
f 49/49/49 46/46/46 48/48/48
f 50/50/50 51/51/51 52/52/52
f 53/53/53 54/54/54 55/55/55
f 56/56/56 57/57/57 58/58/58
f 59/59/59 60/60/60 61/61/61
f 59/59/59 62/62/62 60/60/60
f 63/63/63 64/64/64 65/65/65
f 65/65/65 66/66/66 63/63/63
f 67/67/67 68/68/68 69/69/69
f 70/70/70 67/67/67 69/69/69
f 71/71/71 72/72/72 73/73/73
f 71/71/71 74/74/74 72/72/72
f 75/75/75 76/76/76 77/77/77
f 78/78/78 79/79/79 80/80/80
f 81/81/81 82/82/82 83/83/83
f 84/84/84 85/85/85 86/86/86
f 87/87/87 88/88/88 89/89/89
f 90/90/90 91/91/91 92/92/92
f 93/93/93 94/94/94 95/95/95
f 95/95/95 94/94/94 96/96/96
f 97/97/97 98/98/98 99/99/99
f 98/98/98 100/100/100 99/99/99
f 101/101/101 102/102/102 100/100/100
f 97/97/97 99/99/99 103/103/103
f 98/98/98 101/101/101 100/100/100
f 104/104/104 105/105/105 106/106/106
f 107/107/107 108/108/108 109/109/109
f 108/108/108 110/110/110 109/109/109
f 108/108/108 111/111/111 110/110/110
f 111/111/111 112/112/112 110/110/110
f 102/102/102 104/104/104 106/106/106
f 102/102/102 106/106/106 100/100/100
f 107/107/107 109/109/109 105/105/105
f 104/104/104 107/107/107 105/105/105
