v 5.260331 6.850305 -0.4440168
v 6.032331 6.850305 -1.902017
v 5.263331 6.850305 -2.310017
v 4.491331 6.850305 -0.8520168
v -0.4266688 7.037305 4.667983
v 0.05433121 7.037305 4.928983
v 0.4143312 7.037305 4.263983
v -0.06666879 7.037305 4.003983
v -2.638669 5.406782 3.642983
v 3.902331 5.406008 -4.949017
v -1.609669 5.40601 -7.911017
v -6.658669 5.406783 1.481983
v 3.902331 5.406008 -4.949017
v 6.053331 5.40601 -3.753017
v 6.290331 5.405974 -4.194017
v 4.122331 5.405975 -5.359017
v -4.141669 5.407012 6.438983
v 0.3383312 5.40701 8.846983
v -2.638669 5.406782 3.642983
v -2.638669 5.406782 3.642983
v 6.053331 5.40601 -3.753017
v 3.902331 5.406008 -4.949017
v 5.402679 5.406129 -2.236085
v 6.032331 5.406129 -1.902017
v 6.874331 5.40601 -3.312017
v -0.06666879 5.406716 4.003983
v 5.260331 5.406249 -0.4440168
v 4.491331 5.406249 -0.8520168
v 5.260331 5.406249 -0.4440168
v 6.874331 5.40601 -3.312017
v 6.032331 5.406129 -1.902017
v -2.638669 5.406782 3.642983
v 4.491331 5.406249 -0.8520168
v 5.111443 5.406153 -2.023161
v 0.3383312 5.40701 8.846983
v 6.874331 5.40601 -3.312017
v 5.260331 5.406249 -0.4440168
v -2.638669 5.406782 3.642983
v -0.4266688 5.40677 4.667983
v -0.06666879 5.406716 4.003983
v -2.638669 5.406782 3.642983
v -0.06666879 5.406716 4.003983
v 4.491331 5.406249 -0.8520168
v -2.638669 5.406782 3.642983
v 0.3383312 5.40701 8.846983
v -0.4266688 5.40677 4.667983
v 0.05433121 5.40677 4.928983
v 0.3383312 5.40701 8.846983
v 0.4143312 5.406715 4.263983
v -0.4266688 5.40677 4.667983
v 0.3383312 5.40701 8.846983
v 0.05433121 5.40677 4.928983
v 0.3383312 5.40701 8.846983
v 5.260331 5.406249 -0.4440168
v 0.4143312 5.406715 4.263983
v -0.06666879 5.406716 4.003983
v 0.4143312 5.406715 4.263983
v 5.260331 5.406249 -0.4440168
v -2.638669 5.406782 3.642983
v 5.111443 5.406153 -2.023161
v 5.263331 5.406129 -2.310017
v -2.638669 5.406782 3.642983
v 5.263331 5.406129 -2.310017
v 6.053331 5.40601 -3.753017
v 5.263331 5.406129 -2.310017
v 6.874331 5.40601 -3.312017
v 6.053331 5.40601 -3.753017
v 5.263331 5.406129 -2.310017
v 5.402679 5.406129 -2.236085
v 6.874331 5.40601 -3.312017
v 5.260331 5.406249 -0.4440168
v 6.032331 5.406129 -1.902017
v 6.032331 6.850305 -1.902017
v 5.260331 6.850305 -0.4440168
v 5.263331 6.850305 -2.310017
v 5.402679 5.406129 -2.236085
v 5.263331 5.406129 -2.310017
v 5.402679 5.406129 -2.236085
v 6.032331 6.850305 -1.902017
v 6.032331 5.406129 -1.902017
v 5.263331 6.850305 -2.310017
v 6.032331 6.850305 -1.902017
v 5.402679 5.406129 -2.236085
v 4.491331 6.850305 -0.8520168
v 5.111443 5.406153 -2.023161
v 4.491331 5.406249 -0.8520168
v 5.111443 5.406153 -2.023161
v 5.263331 6.850305 -2.310017
v 5.263331 5.406129 -2.310017
v 4.491331 6.850305 -0.8520168
v 5.263331 6.850305 -2.310017
v 5.111443 5.406153 -2.023161
v 4.491331 5.406249 -0.8520168
v 5.260331 5.406249 -0.4440168
v 5.260331 6.850305 -0.4440168
v 4.491331 6.850305 -0.8520168
v -0.4266688 5.40677 4.667983
v 0.05433121 5.40677 4.928983
v 0.05433121 7.037305 4.928983
v -0.4266688 7.037305 4.667983
v 0.05433121 5.40677 4.928983
v 0.4143312 5.406715 4.263983
v 0.4143312 7.037305 4.263983
v 0.05433121 7.037305 4.928983
v -0.06666879 7.037305 4.003983
v 0.4143312 7.037305 4.263983
v 0.4143312 5.406715 4.263983
v -0.06666879 5.406716 4.003983
v -0.4266688 7.037305 4.667983
v -0.06666879 7.037305 4.003983
v -0.06666879 5.406716 4.003983
v -0.4266688 5.40677 4.667983
v -4.648669 -5.432414 2.562483
v -2.638669 -5.432414 3.642983
v -2.638669 5.406782 3.642983
v -6.658669 5.406783 1.481983
v -6.658669 -5.432414 1.481983
v -4.648669 -5.432414 2.562483
v -6.658669 5.406783 1.481983
v -4.648669 -5.432414 2.562483
v -2.638669 5.406782 3.642983
v -4.141669 5.407012 6.438983
v -2.638669 5.406782 3.642983
v -2.638669 -5.432414 3.642983
v -4.141669 -5.432414 6.438983
v -1.901669 -5.432414 7.642983
v 0.3383312 -5.432414 8.846983
v 0.3383312 5.40701 8.846983
v -4.141669 5.407012 6.438983
v -4.141669 -5.432414 6.438983
v -1.901669 -5.432414 7.642983
v -4.141669 5.407012 6.438983
v -1.901669 -5.432414 7.642983
v 0.3383312 5.40701 8.846983
v 0.3383312 -5.432414 8.846983
v 6.874331 -5.432414 -3.312017
v 6.874331 5.40601 -3.312017
v 0.3383312 5.40701 8.846983
v 6.053331 5.40601 -3.753017
v 6.463831 -5.432414 -3.532517
v 6.053331 -5.432414 -3.753017
v 6.463831 -5.432414 -3.532517
v 6.874331 5.40601 -3.312017
v 6.874331 -5.432414 -3.312017
v 6.053331 5.40601 -3.753017
v 6.874331 5.40601 -3.312017
v 6.463831 -5.432414 -3.532517
v 6.171831 -5.432414 -3.973517
v 6.290331 -5.432414 -4.194017
v 6.290331 5.405974 -4.194017
v 6.053331 5.40601 -3.753017
v 6.053331 -5.432414 -3.753017
v 6.171831 -5.432414 -3.973517
v 6.053331 5.40601 -3.753017
v 6.171831 -5.432414 -3.973517
v 6.290331 5.405974 -4.194017
v 4.122331 5.405975 -5.359017
v 6.290331 5.405974 -4.194017
v 6.290331 -5.432414 -4.194017
v 4.122331 -5.432414 -5.359017
v 3.902331 5.406008 -4.949017
v 4.122331 5.405975 -5.359017
v 4.122331 -5.432414 -5.359017
v 3.902331 -5.432414 -4.949017
v -1.609669 5.40601 -7.911017
v 1.146331 -5.432414 -6.430017
v -1.609669 -5.432414 -7.911017
v 1.146331 -5.432414 -6.430017
v 3.902331 5.406008 -4.949017
v 3.902331 -5.432414 -4.949017
v -1.609669 5.40601 -7.911017
v 3.902331 5.406008 -4.949017
v 1.146331 -5.432414 -6.430017
v -6.658669 5.406783 1.481983
v -4.134169 -5.432414 -3.214517
v -6.658669 -5.432414 1.481983
v -4.134169 -5.432414 -3.214517
v -1.609669 5.40601 -7.911017
v -1.609669 -5.432414 -7.911017
v -6.658669 5.406783 1.481983
v -1.609669 5.40601 -7.911017
v -4.134169 -5.432414 -3.214517
v -1.609669 -5.432414 -7.911017
v 1.146331 -5.432414 -6.430017
v 3.902331 -5.432414 -4.949017
v 4.122331 -5.432414 -5.359017
v 6.290331 -5.432414 -4.194017
v 6.171831 -5.432414 -3.973517
v 6.053331 -5.432414 -3.753017
v 6.463831 -5.432414 -3.532517
v 6.874331 -5.432414 -3.312017
v 0.3383312 -5.432414 8.846983
v -1.901669 -5.432414 7.642983
v -4.141669 -5.432414 6.438983
v -2.638669 -5.432414 3.642983
v -4.648669 -5.432414 2.562483
v -6.658669 -5.432414 1.481983
v -4.134169 -5.432414 -3.214517
vt 0.910064 0.839544
vt 0.962125 0.820000
vt 0.976642 0.839615
vt 0.924581 0.859159
vt 0.321615 0.988422
vt 0.312634 0.976528
vt 0.335595 0.967692
vt 0.344541 0.979586
vt 0.192451 0.251004
vt 0.507284 0.079790
vt 0.615394 0.224906
vt 0.271328 0.356832
vt 0.507284 0.079790
vt 0.463626 0.023154
vt 0.479781 0.016961
vt 0.522303 0.074041
vt 0.090038 0.290276
vt 0.002141 0.172336
vt 0.192451 0.251004
vt 0.192451 0.251004
vt 0.463626 0.023154
vt 0.507284 0.079790
vt 0.408067 0.040133
vt 0.395873 0.023555
vt 0.447529 0.001538
vt 0.179376 0.183377
vt 0.342465 0.043728
vt 0.357357 0.063974
vt 0.342465 0.043728
vt 0.447529 0.001538
vt 0.395873 0.023555
vt 0.192451 0.251004
vt 0.357357 0.063974
vt 0.400257 0.047770
vt 0.002141 0.172336
vt 0.447529 0.001538
vt 0.342465 0.043728
vt 0.192451 0.251004
vt 0.155054 0.192784
vt 0.179376 0.183377
vt 0.192451 0.251004
vt 0.179376 0.183377
vt 0.357357 0.063974
vt 0.192451 0.251004
vt 0.002141 0.172336
vt 0.155054 0.192784
vt 0.145527 0.180121
vt 0.002141 0.172336
vt 0.169885 0.170713
vt 0.155054 0.192784
vt 0.002141 0.172336
vt 0.145527 0.180121
vt 0.002141 0.172336
vt 0.342465 0.043728
vt 0.169885 0.170713
vt 0.179376 0.183377
vt 0.169885 0.170713
vt 0.342465 0.043728
vt 0.192451 0.251004
vt 0.400257 0.047770
vt 0.410765 0.043801
vt 0.192451 0.251004
vt 0.410765 0.043801
vt 0.463626 0.023154
vt 0.410765 0.043801
vt 0.447529 0.001538
vt 0.463626 0.023154
vt 0.410765 0.043801
vt 0.408067 0.040133
vt 0.447529 0.001538
vt 0.073489 0.979001
vt 0.021712 0.998841
vt 0.002141 0.987567
vt 0.054012 0.967692
vt 0.093296 0.998348
vt 0.108098 0.983516
vt 0.110643 0.987018
vt 0.108098 0.983516
vt 0.079229 0.978988
vt 0.096600 0.967692
vt 0.093296 0.998348
vt 0.079229 0.978988
vt 0.108098 0.983516
vt 0.154176 0.986640
vt 0.214157 0.980034
vt 0.172153 0.995227
vt 0.214157 0.980034
vt 0.206559 0.967692
vt 0.224445 0.976313
vt 0.154176 0.986640
vt 0.206559 0.967692
vt 0.214157 0.980034
vt 0.134706 0.967692
vt 0.149211 0.986918
vt 0.130163 0.995668
vt 0.115632 0.976408
vt 0.370115 0.967692
vt 0.379353 0.979506
vt 0.358293 0.988952
vt 0.349036 0.977115
vt 0.307874 0.980498
vt 0.284671 0.989582
vt 0.263383 0.976794
vt 0.286634 0.967692
vt 0.238049 0.992633
vt 0.229122 0.980623
vt 0.249077 0.967692
vt 0.257985 0.979679
vt 0.385439 0.976307
vt 0.408908 0.967692
vt 0.429222 0.976920
vt 0.405799 0.985518
vt 0.913214 0.676346
vt 0.953104 0.728075
vt 0.806761 0.792810
vt 0.725910 0.687968
vt 0.873323 0.624615
vt 0.913214 0.676346
vt 0.725910 0.687968
vt 0.913214 0.676346
vt 0.806761 0.792810
vt 0.340471 0.858296
vt 0.442882 0.820000
vt 0.580823 0.883587
vt 0.479760 0.921379
vt 0.675586 0.682299
vt 0.720045 0.739982
vt 0.576192 0.805769
vt 0.486081 0.688861
vt 0.631127 0.624615
vt 0.675586 0.682299
vt 0.486081 0.688861
vt 0.675586 0.682299
vt 0.576192 0.805769
vt 0.588256 0.448823
vt 0.151218 0.621412
vt 0.002141 0.534902
vt 0.444989 0.360000
vt 0.200119 0.927525
vt 0.326448 0.830539
vt 0.334325 0.841079
vt 0.326448 0.830539
vt 0.184154 0.906166
vt 0.318570 0.820000
vt 0.200119 0.927525
vt 0.184154 0.906166
vt 0.326448 0.830539
vt 0.742702 0.908968
vt 0.734850 0.912064
vt 0.586724 0.826275
vt 0.602637 0.820000
vt 0.750555 0.905872
vt 0.742702 0.908968
vt 0.602637 0.820000
vt 0.742702 0.908968
vt 0.586724 0.826275
vt 0.044400 0.963282
vt 0.002141 0.906677
vt 0.136406 0.820000
vt 0.178109 0.875862
vt 0.755889 0.825572
vt 0.770827 0.820000
vt 0.903701 0.885472
vt 0.888959 0.890971
vt 0.700928 0.592338
vt 0.780657 0.431297
vt 0.833836 0.502593
vt 0.780657 0.431297
vt 0.593148 0.447848
vt 0.727476 0.360000
vt 0.700928 0.592338
vt 0.593148 0.447848
vt 0.780657 0.431297
vt 0.002141 0.754175
vt 0.310164 0.752888
vt 0.139661 0.816815
vt 0.310164 0.752888
vt 0.347705 0.624615
vt 0.480674 0.688958
vt 0.002141 0.754175
vt 0.347705 0.624615
vt 0.310164 0.752888
vt 0.434690 0.967692
vt 0.434690 0.967692
vt 0.434690 0.967692
vt 0.434690 0.967692
vt 0.434690 0.967692
vt 0.434690 0.967692
vt 0.434690 0.967692
vt 0.434690 0.967692
vt 0.434690 0.967692
vt 0.434690 0.967692
vt 0.434690 0.967692
vt 0.434690 0.967692
vt 0.434690 0.967692
vt 0.434690 0.967692
vt 0.434690 0.967692
vt 0.434690 0.967692
vn 0 1 0
vn 0 1 0
vn 0 1 0
vn 0 1 0
vn 0 1 0
vn 0 1 0
vn 0 1 0
vn 0 1 0
vn 3.452301E-05 1 -6.36858E-05
vn 3.452241E-05 1 -6.368586E-05
vn 3.452301E-05 1 -6.36858E-05
vn 3.452361E-05 1 -6.368575E-05
vn 3.45257E-05 1 -6.36919E-05
vn 3.452526E-05 1 -6.36905E-05
vn 3.45257E-05 1 -6.36919E-05
vn 3.452614E-05 1 -6.369329E-05
vn 3.452114E-05 1 -6.368552E-05
vn 3.452114E-05 1 -6.368552E-05
vn 3.452114E-05 1 -6.368552E-05
vn 3.45226E-05 1 -6.368571E-05
vn 3.45226E-05 1 -6.368571E-05
vn 3.45226E-05 1 -6.368571E-05
vn 3.453099E-05 1 -6.367724E-05
vn 3.453099E-05 1 -6.367724E-05
vn 3.453099E-05 1 -6.367724E-05
vn 3.451963E-05 1 -6.369018E-05
vn 3.451963E-05 1 -6.369018E-05
vn 3.451963E-05 1 -6.369018E-05
vn 3.442294E-05 1 -6.374176E-05
vn 3.442294E-05 1 -6.374176E-05
vn 3.442294E-05 1 -6.374176E-05
vn 3.452643E-05 1 -6.368111E-05
vn 3.452643E-05 1 -6.368111E-05
vn 3.452643E-05 1 -6.368111E-05
vn 3.450263E-05 1 -6.369692E-05
vn 3.450263E-05 1 -6.369692E-05
vn 3.450263E-05 1 -6.369692E-05
vn 3.452096E-05 1 -6.36784E-05
vn 3.452096E-05 1 -6.36784E-05
vn 3.452096E-05 1 -6.36784E-05
vn 3.452226E-05 1 -6.368771E-05
vn 3.452226E-05 1 -6.368771E-05
vn 3.452226E-05 1 -6.368771E-05
vn 3.452538E-05 1 -6.368794E-05
vn 3.452538E-05 1 -6.368794E-05
vn 3.452538E-05 1 -6.368794E-05
vn 3.452314E-05 1 -6.368672E-05
vn 3.452314E-05 1 -6.368672E-05
vn 3.452314E-05 1 -6.368672E-05
vn 3.451579E-05 1 -6.368619E-05
vn 3.451579E-05 1 -6.368619E-05
vn 3.451579E-05 1 -6.368619E-05
vn 3.452184E-05 1 -6.368674E-05
vn 3.452184E-05 1 -6.368674E-05
vn 3.452184E-05 1 -6.368674E-05
vn 3.452658E-05 1 -6.368186E-05
vn 3.452658E-05 1 -6.368186E-05
vn 3.452658E-05 1 -6.368186E-05
vn 3.453248E-05 1 -6.367283E-05
vn 3.453248E-05 1 -6.367283E-05
vn 3.453248E-05 1 -6.367283E-05
vn 3.452408E-05 1 -6.368398E-05
vn 3.452408E-05 1 -6.368398E-05
vn 3.452408E-05 1 -6.368398E-05
vn 3.452442E-05 1 -6.368379E-05
vn 3.452442E-05 1 -6.368379E-05
vn 3.452442E-05 1 -6.368379E-05
vn 3.451429E-05 1 -6.370008E-05
vn 3.451429E-05 1 -6.370008E-05
vn 3.451429E-05 1 -6.370008E-05
vn 0.8837584 0 0.4679434
vn 0.8837584 0 0.4679434
vn 0.8837584 0 0.4679434
vn 0.8837584 0 0.4679434
vn 0.4686792 0 -0.8833684
vn 0.4686792 0 -0.8833684
vn 0.4686792 0 -0.8833684
vn 0.4686792 0 -0.8833684
vn 0.4686792 0 -0.8833684
vn 0.4686792 0 -0.8833684
vn 0.4686792 -1.710459E-09 -0.8833684
vn 0.4686792 -1.710459E-09 -0.8833684
vn 0.4686792 -1.710459E-09 -0.8833684
vn -0.8837584 0 -0.4679434
vn -0.8837584 0 -0.4679434
vn -0.8837584 0 -0.4679434
vn -0.8837584 0 -0.4679434
vn -0.8837584 0 -0.4679434
vn -0.8837584 0 -0.4679434
vn -0.8837584 2.505096E-09 -0.4679434
vn -0.8837584 2.505096E-09 -0.4679434
vn -0.8837584 2.505096E-09 -0.4679434
vn -0.4686792 0 0.8833684
vn -0.4686792 0 0.8833684
vn -0.4686792 0 0.8833684
vn -0.4686792 0 0.8833684
vn -0.4769306 0 0.878941
vn -0.4769306 0 0.878941
vn -0.4769306 0 0.878941
vn -0.4769306 0 0.878941
vn 0.8794073 0 0.4760701
vn 0.8794073 0 0.4760701
vn 0.8794073 0 0.4760701
vn 0.8794073 0 0.4760701
vn 0.475517 0 -0.8797065
vn 0.475517 0 -0.8797065
vn 0.475517 0 -0.8797065
vn 0.475517 0 -0.8797065
vn -0.8791071 0 -0.4766243
vn -0.8791071 0 -0.4766243
vn -0.8791071 0 -0.4766243
vn -0.8791071 0 -0.4766243
vn -0.4734856 0 0.8808016
vn -0.4734856 0 0.8808016
vn -0.4734856 0 0.8808016
vn -0.4734856 0 0.8808016
vn -0.4734856 0 0.8808016
vn -0.4734856 0 0.8808016
vn -0.4734856 -2.199409E-10 0.8808016
vn -0.4734856 -2.199409E-10 0.8808016
vn -0.4734856 -2.199409E-10 0.8808016
vn -0.8808047 0 -0.4734798
vn -0.8808047 0 -0.4734798
vn -0.8808047 0 -0.4734798
vn -0.8808047 0 -0.4734798
vn -0.4734431 0 0.8808244
vn -0.4734431 0 0.8808244
vn -0.4734431 0 0.8808244
vn -0.4734431 0 0.8808244
vn -0.4734431 0 0.8808244
vn -0.4734431 0 0.8808244
vn -0.4734431 -3.784018E-11 0.8808244
vn -0.4734431 -3.784018E-11 0.8808244
vn -0.4734431 -3.784018E-11 0.8808244
vn 0.8808082 0 0.4734733
vn 0.8808082 0 0.4734733
vn 0.8808082 0 0.4734733
vn 0.8808082 0 0.4734733
vn 0.4732037 0 -0.880953
vn 0.4732037 0 -0.880953
vn 0.4732037 0 -0.880953
vn 0.4732037 0 -0.880953
vn 0.4732037 0 -0.880953
vn 0.4732037 0 -0.880953
vn 0.4732037 3.78492E-11 -0.880953
vn 0.4732037 3.78492E-11 -0.880953
vn 0.4732037 3.78492E-11 -0.880953
vn 0.8808556 0 0.473385
vn 0.8808556 0 0.473385
vn 0.8808556 0 0.473385
vn 0.8808556 0 0.473385
vn 0.8808556 0 0.473385
vn 0.8808556 0 0.473385
vn 0.8808556 2.365317E-12 0.473385
vn 0.8808556 2.365317E-12 0.473385
vn 0.8808556 2.365317E-12 0.473385
vn 0.4733485 0 -0.8808752
vn 0.4733485 0 -0.8808752
vn 0.4733485 0 -0.8808752
vn 0.4733485 0 -0.8808752
vn -0.8811603 0 -0.4728177
vn -0.8811603 0 -0.4728177
vn -0.8811603 0 -0.4728177
vn -0.8811603 0 -0.4728177
vn 0.4733563 0 -0.8808711
vn 0.4733563 0 -0.8808711
vn 0.4733563 0 -0.8808711
vn 0.4733563 0 -0.8808711
vn 0.4733563 0 -0.8808711
vn 0.4733563 0 -0.8808711
vn 0.4733563 3.911676E-11 -0.8808711
vn 0.4733563 3.911676E-11 -0.8808711
vn 0.4733563 3.911676E-11 -0.8808711
vn -0.8808141 0 -0.4734622
vn -0.8808141 0 -0.4734622
vn -0.8808141 0 -0.4734622
vn -0.8808141 0 -0.4734622
vn -0.8808141 0 -0.4734622
vn -0.8808141 0 -0.4734622
vn -0.8808141 2.213867E-10 -0.4734622
vn -0.8808141 2.213867E-10 -0.4734622
vn -0.8808141 2.213867E-10 -0.4734622
vn 0 -1 0
vn 0 -1 0
vn 0 -1 0
vn 0 -1 0
vn 0 -1 0
vn 0 -1 0
vn 0 -1 0
vn 0 -1 0
vn 0 -1 0
vn 0 -1 0
vn 0 -1 0
vn 0 -1 0
vn 0 -1 0
vn 0 -1 0
vn 0 -1 0
vn 0 -1 0

g CDNNDG01_0001330
f 1/1/1 2/2/2 4/4/4
f 4/4/4 2/2/2 3/3/3
f 6/6/6 7/7/7 8/8/8
f 5/5/5 6/6/6 8/8/8
f 12/12/12 9/9/9 11/11/11
f 11/11/11 9/9/9 10/10/10
f 16/16/16 13/13/13 15/15/15
f 13/13/13 14/14/14 15/15/15
f 17/17/17 18/18/18 19/19/19
f 20/20/20 21/21/21 22/22/22
f 23/23/23 24/24/24 25/25/25
f 26/26/26 27/27/27 28/28/28
f 29/29/29 30/30/30 31/31/31
f 32/32/32 33/33/33 34/34/34
f 35/35/35 36/36/36 37/37/37
f 38/38/38 39/39/39 40/40/40
f 41/41/41 42/42/42 43/43/43
f 44/44/44 45/45/45 46/46/46
f 47/47/47 48/48/48 49/49/49
f 50/50/50 51/51/51 52/52/52
f 53/53/53 54/54/54 55/55/55
f 56/56/56 57/57/57 58/58/58
f 59/59/59 60/60/60 61/61/61
f 62/62/62 63/63/63 64/64/64
f 65/65/65 66/66/66 67/67/67
f 68/68/68 69/69/69 70/70/70
f 74/74/74 71/71/71 73/73/73
f 72/72/72 73/73/73 71/71/71
f 75/75/75 76/76/76 77/77/77
f 78/78/78 79/79/79 80/80/80
f 81/81/81 82/82/82 83/83/83
f 84/84/84 85/85/85 86/86/86
f 87/87/87 88/88/88 89/89/89
f 90/90/90 91/91/91 92/92/92
f 93/93/93 95/95/95 96/96/96
f 95/95/95 93/93/93 94/94/94
f 98/98/98 99/99/99 100/100/100
f 100/100/100 97/97/97 98/98/98
f 101/101/101 103/103/103 104/104/104
f 101/101/101 102/102/102 103/103/103
f 107/107/107 108/108/108 106/106/106
f 105/105/105 106/106/106 108/108/108
f 112/112/112 110/110/110 111/111/111
f 112/112/112 109/109/109 110/110/110
f 113/113/113 114/114/114 115/115/115
f 116/116/116 117/117/117 118/118/118
f 119/119/119 120/120/120 121/121/121
f 123/123/123 124/124/124 125/125/125
f 122/122/122 123/123/123 125/125/125
f 126/126/126 127/127/127 128/128/128
f 129/129/129 130/130/130 131/131/131
f 132/132/132 133/133/133 134/134/134
f 138/138/138 135/135/135 137/137/137
f 136/136/136 137/137/137 135/135/135
f 139/139/139 140/140/140 141/141/141
f 142/142/142 143/143/143 144/144/144
f 145/145/145 146/146/146 147/147/147
f 148/148/148 149/149/149 150/150/150
f 151/151/151 152/152/152 153/153/153
f 154/154/154 155/155/155 156/156/156
f 159/159/159 160/160/160 158/158/158
f 157/157/157 158/158/158 160/160/160
f 162/162/162 163/163/163 164/164/164
f 161/161/161 162/162/162 164/164/164
f 165/165/165 166/166/166 167/167/167
f 168/168/168 169/169/169 170/170/170
f 171/171/171 172/172/172 173/173/173
f 174/174/174 175/175/175 176/176/176
f 177/177/177 178/178/178 179/179/179
f 180/180/180 181/181/181 182/182/182
f 196/196/196 197/197/197 198/198/198
f 195/195/195 196/196/196 198/198/198
f 185/185/185 195/195/195 198/198/198
f 188/188/188 185/185/185 186/186/186
f 184/184/184 185/185/185 198/198/198
f 183/183/183 184/184/184 198/198/198
f 186/186/186 187/187/187 188/188/188
f 185/185/185 188/188/188 189/189/189
f 193/193/193 194/194/194 195/195/195
f 195/195/195 189/189/189 190/190/190
f 195/195/195 190/190/190 191/191/191
f 192/192/192 193/193/193 195/195/195
f 185/185/185 189/189/189 195/195/195
f 191/191/191 192/192/192 195/195/195
