v 2.434421 3.077327 4.850612
v 2.976421 3.077327 3.779612
v 2.113421 3.077327 4.414612
v 3.297421 3.077327 4.216612
v -2.281579 3.077327 -4.254388
v -2.633579 3.077327 -4.733388
v -3.538579 3.077327 -4.067388
v -3.185579 3.077327 -3.588388
v 2.492421 3.077327 -1.438388
v 2.055421 3.077327 -2.245388
v 1.200421 3.077327 -1.616388
v 1.738421 3.077327 -0.8843881
v 1.943421 3.077327 -2.397388
v 2.055421 3.077327 -2.245388
v 2.138421 3.077327 -2.540388
v 2.055421 3.077327 -2.245388
v 2.492421 3.077327 -1.438388
v 2.902421 3.077327 -1.501388
v 2.055421 3.077327 -2.245388
v 2.902421 3.077327 -1.501388
v 2.138421 3.077327 -2.540388
v 2.492421 3.077327 -1.438388
v 2.606421 3.077327 -1.283388
v 2.902421 3.077327 -1.501388
v 1.738421 3.443326 -0.8843881
v 2.113421 3.443326 4.414612
v 2.976421 3.443326 3.779612
v 1.173421 3.443326 5.108612
v 2.113421 3.443326 4.414612
v 1.738421 3.443326 -0.8843881
v 1.738421 3.443326 -0.8843881
v 2.976421 3.443326 3.779612
v 4.403421 3.443326 2.728612
v -4.514579 3.443326 -2.609388
v 1.738421 3.443326 -0.8843881
v 1.200421 3.443326 -1.616388
v -4.514579 3.443326 -2.609388
v 1.173421 3.443326 5.108612
v 1.738421 3.443326 -0.8843881
v -2.281579 3.443326 -4.254388
v 1.200421 3.443326 -1.616388
v -1.285579 3.443326 -4.989388
v -3.185579 3.443326 -3.588388
v 1.200421 3.443326 -1.616388
v -2.281579 3.443326 -4.254388
v -4.514579 3.443326 -2.609388
v 1.200421 3.443326 -1.616388
v -3.185579 3.443326 -3.588388
v 2.434421 3.077327 4.850612
v 3.297421 -3.421716 4.216612
v 3.297421 3.077327 4.216612
v 2.434421 -3.421716 4.850612
v 2.976421 -3.421716 3.779612
v 2.976421 3.077327 3.779612
v 3.297421 -3.421716 4.216612
v 3.297421 3.077327 4.216612
v 2.113421 -3.421716 4.414612
v 2.434421 3.077327 4.850612
v 2.113421 3.077327 4.414612
v 2.434421 -3.421716 4.850612
v -2.633579 -3.421716 -4.733388
v -2.633579 3.077327 -4.733388
v -2.281579 -3.421716 -4.254388
v -2.281579 3.077327 -4.254388
v -2.633579 3.077327 -4.733388
v -2.633579 -3.421716 -4.733388
v -3.538579 -3.421716 -4.067388
v -3.538579 3.077327 -4.067388
v -3.538579 -3.421716 -4.067388
v -3.185579 3.077327 -3.588388
v -3.538579 3.077327 -4.067388
v -3.185579 -3.421716 -3.588388
v 1.738421 3.077327 -0.8843881
v 2.492421 -3.421716 -1.438388
v 2.492421 3.077327 -1.438388
v 1.738421 -3.421716 -0.8843881
v 2.549421 -3.421716 -1.360888
v 2.606421 -3.421716 -1.283388
v 2.606421 3.077327 -1.283388
v 2.492421 3.077327 -1.438388
v 2.492421 -3.421716 -1.438388
v 2.549421 -3.421716 -1.360888
v 2.492421 3.077327 -1.438388
v 2.549421 -3.421716 -1.360888
v 2.606421 3.077327 -1.283388
v 2.754421 -3.421716 -1.392388
v 2.902421 -3.421716 -1.501388
v 2.902421 3.077327 -1.501388
v 2.606421 3.077327 -1.283388
v 2.606421 -3.421716 -1.283388
v 2.754421 -3.421716 -1.392388
v 2.606421 3.077327 -1.283388
v 2.754421 -3.421716 -1.392388
v 2.902421 3.077327 -1.501388
v 2.138421 3.077327 -2.540388
v 2.902421 -3.421716 -1.501388
v 2.138421 -3.421716 -2.540388
v 2.902421 3.077327 -1.501388
v 1.943421 3.077327 -2.397388
v 2.040921 -3.421716 -2.468888
v 1.943421 -3.421716 -2.397388
v 2.040921 -3.421716 -2.468888
v 2.138421 3.077327 -2.540388
v 2.138421 -3.421716 -2.540388
v 1.943421 3.077327 -2.397388
v 2.138421 3.077327 -2.540388
v 2.040921 -3.421716 -2.468888
v 1.999421 -3.421716 -2.321388
v 2.055421 -3.421716 -2.245388
v 2.055421 3.077327 -2.245388
v 1.943421 3.077327 -2.397388
v 1.943421 -3.421716 -2.397388
v 1.999421 -3.421716 -2.321388
v 1.943421 3.077327 -2.397388
v 1.999421 -3.421716 -2.321388
v 2.055421 3.077327 -2.245388
v 1.200421 3.077327 -1.616388
v 2.055421 -3.421716 -2.245388
v 1.200421 -3.421716 -1.616388
v 2.055421 3.077327 -2.245388
v -3.185579 3.077327 -3.588388
v -3.185579 -3.421716 -3.588388
v -4.514579 -3.421716 -2.609388
v -4.514579 3.443326 -2.609388
v -4.514579 3.443326 -2.609388
v -3.185579 3.443326 -3.588388
v -3.185579 3.077327 -3.588388
v -2.281579 3.443326 -4.254388
v -1.285579 3.443326 -4.989388
v -2.281579 3.077327 -4.254388
v -1.285579 3.443326 -4.989388
v -1.285579 -3.421716 -4.989388
v -2.281579 3.077327 -4.254388
v -2.281579 -3.421716 -4.254388
v -3.185579 3.077327 -3.588388
v -3.185579 3.443326 -3.588388
v -2.281579 3.077327 -4.254388
v -2.281579 3.443326 -4.254388
v -4.514579 3.443326 -2.609388
v -4.514579 -3.421716 -2.609388
v 1.173421 3.443326 5.108612
v 1.173421 -3.421716 5.108612
v 1.173421 3.443326 5.108612
v 2.113421 3.077327 4.414612
v 2.113421 3.443326 4.414612
v 1.173421 -3.421716 5.108612
v 2.113421 -3.421716 4.414612
v 2.113421 3.077327 4.414612
v 1.173421 3.443326 5.108612
v 3.689921 -3.421716 3.254112
v 4.403421 -3.421716 2.728612
v 4.403421 3.443326 2.728612
v 2.976421 3.443326 3.779612
v 3.689921 -3.421716 3.254112
v 4.403421 3.443326 2.728612
v 2.976421 3.443326 3.779612
v 2.976421 3.077327 3.779612
v 3.689921 -3.421716 3.254112
v 2.976421 3.077327 3.779612
v 2.976421 -3.421716 3.779612
v 3.689921 -3.421716 3.254112
v 2.113421 3.077327 4.414612
v 2.976421 3.443326 3.779612
v 2.113421 3.443326 4.414612
v 2.976421 3.077327 3.779612
v 1.738421 3.443326 -0.8843881
v 4.403421 3.443326 2.728612
v 1.738421 3.077327 -0.8843881
v 1.738421 3.077327 -0.8843881
v 4.403421 -3.421716 2.728612
v 1.738421 -3.421716 -0.8843881
v 4.403421 3.443326 2.728612
v -1.285579 3.443326 -4.989388
v -0.04257913 -3.421716 -3.302888
v -1.285579 -3.421716 -4.989388
v -1.285579 3.443326 -4.989388
v 1.200421 3.443326 -1.616388
v -0.04257913 -3.421716 -3.302888
v -0.04257913 -3.421716 -3.302888
v 1.200421 3.443326 -1.616388
v 1.200421 3.077327 -1.616388
v -0.04257913 -3.421716 -3.302888
v 1.200421 3.077327 -1.616388
v 1.200421 -3.421716 -1.616388
v 1.200421 3.443326 -1.616388
v 1.738421 3.077327 -0.8843881
v 1.200421 3.077327 -1.616388
v 1.738421 3.443326 -0.8843881
v -4.514579 -3.421716 -2.609388
v -3.185579 -3.421716 -3.588388
v 1.200421 -3.421716 -1.616388
v -2.281579 -3.421716 -4.254388
v -1.285579 -3.421716 -4.989388
v -0.04257913 -3.421716 -3.302888
v -3.538579 -3.421716 -4.067388
v -2.633579 -3.421716 -4.733388
v 1.738421 -3.421716 -0.8843881
v 1.173421 -3.421716 5.108612
v 2.113421 -3.421716 4.414612
v 2.976421 -3.421716 3.779612
v 2.434421 -3.421716 4.850612
v 2.492421 -3.421716 -1.438388
v 3.297421 -3.421716 4.216612
v 3.689921 -3.421716 3.254112
v 1.999421 -3.421716 -2.321388
v 2.040921 -3.421716 -2.468888
v 2.055421 -3.421716 -2.245388
v 4.403421 -3.421716 2.728612
v 2.754421 -3.421716 -1.392388
v 2.549421 -3.421716 -1.360888
v 2.606421 -3.421716 -1.283388
v 2.902421 -3.421716 -1.501388
v 2.138421 -3.421716 -2.540388
v 1.943421 -3.421716 -2.397388
vt 0.458819 0.978939
vt 0.443455 0.984838
vt 0.452509 0.975513
vt 0.449780 0.988264
vt 0.431708 0.989081
vt 0.424755 0.985315
vt 0.434277 0.975513
vt 0.441229 0.979289
vt 0.414249 0.989611
vt 0.402361 0.984890
vt 0.411500 0.975513
vt 0.422298 0.981341
vt 0.400119 0.983677
vt 0.402361 0.984890
vt 0.398041 0.985816
vt 0.402361 0.984890
vt 0.414249 0.989611
vt 0.413368 0.994092
vt 0.402361 0.984890
vt 0.413368 0.994092
vt 0.398041 0.985816
vt 0.414249 0.989611
vt 0.416535 0.990846
vt 0.413368 0.994092
vt 0.063274 0.944352
vt 0.143418 0.948213
vt 0.133913 0.957944
vt 0.153808 0.937613
vt 0.143418 0.948213
vt 0.063274 0.944352
vt 0.063274 0.944352
vt 0.133913 0.957944
vt 0.118180 0.974035
vt 0.036517 0.874255
vt 0.063274 0.944352
vt 0.052150 0.938360
vt 0.036517 0.874255
vt 0.153808 0.937613
vt 0.063274 0.944352
vt 0.011893 0.899437
vt 0.052150 0.938360
vt 0.000890 0.910669
vt 0.021862 0.889243
vt 0.052150 0.938360
vt 0.011893 0.899437
vt 0.036517 0.874255
vt 0.052150 0.938360
vt 0.021862 0.889243
vt 0.838256 0.874255
vt 0.852555 0.901467
vt 0.829029 0.883874
vt 0.861709 0.891925
vt 0.332321 0.979031
vt 0.286043 0.996130
vt 0.325936 0.975513
vt 0.279608 0.992585
vt 0.024369 0.975513
vt 0.007308 0.999636
vt 0.000890 0.996104
vt 0.030736 0.979017
vt 0.277623 0.979374
vt 0.232341 0.996975
vt 0.270627 0.975513
vt 0.225289 0.993084
vt 0.723334 0.874255
vt 0.769159 0.894980
vt 0.759172 0.904807
vt 0.713268 0.884160
vt 0.057448 0.975513
vt 0.040009 0.999499
vt 0.032947 0.995615
vt 0.064454 0.979366
vt 0.871820 0.874255
vt 0.887945 0.900287
vt 0.863758 0.882649
vt 0.895944 0.891959
vt 0.193492 0.976133
vt 0.194619 0.976753
vt 0.170572 0.997320
vt 0.168299 0.996070
vt 0.192364 0.975513
vt 0.193492 0.976133
vt 0.168299 0.996070
vt 0.193492 0.976133
vt 0.170572 0.997320
vt 0.360455 0.994658
vt 0.358889 0.996283
vt 0.334817 0.978788
vt 0.337974 0.975513
vt 0.362020 0.993034
vt 0.360455 0.994658
vt 0.337974 0.975513
vt 0.360455 0.994658
vt 0.334817 0.978788
vt 0.946766 0.899945
vt 0.977196 0.874255
vt 0.992409 0.882674
vt 0.931434 0.891460
vt 0.066785 0.977632
vt 0.113845 0.997556
vt 0.112775 0.998607
vt 0.113845 0.997556
vt 0.068942 0.975513
vt 0.114915 0.996504
vt 0.066785 0.977632
vt 0.068942 0.975513
vt 0.113845 0.997556
vt 0.222076 0.976122
vt 0.223181 0.976732
vt 0.199023 0.997251
vt 0.196794 0.996023
vt 0.220970 0.975513
vt 0.222076 0.976122
vt 0.196794 0.996023
vt 0.222076 0.976122
vt 0.199023 0.997251
vt 0.771149 0.883609
vt 0.826768 0.895380
vt 0.817335 0.904661
vt 0.780656 0.874255
vt 0.482333 0.896449
vt 0.528541 0.917329
vt 0.513782 0.931901
vt 0.464826 0.909957
vt 0.464826 0.909957
vt 0.479709 0.895263
vt 0.482333 0.896449
vt 0.489834 0.885268
vt 0.501007 0.874255
vt 0.492453 0.886458
vt 0.501007 0.874255
vt 0.549663 0.896496
vt 0.492453 0.886458
vt 0.538582 0.907417
vt 0.482333 0.896449
vt 0.479709 0.895263
vt 0.492453 0.886458
vt 0.489834 0.885268
vt 0.155833 0.895816
vt 0.182095 0.874255
vt 0.272101 0.959621
vt 0.297396 0.937531
vt 0.587168 0.874255
vt 0.578291 0.885878
vt 0.576940 0.884861
vt 0.612224 0.893266
vt 0.602080 0.903783
vt 0.578291 0.885878
vt 0.587168 0.874255
vt 0.585120 0.921420
vt 0.577440 0.929403
vt 0.552093 0.910696
vt 0.567582 0.894597
vt 0.585120 0.921420
vt 0.552093 0.910696
vt 0.567582 0.894597
vt 0.568937 0.895609
vt 0.585120 0.921420
vt 0.568937 0.895609
vt 0.592800 0.913438
vt 0.585120 0.921420
vt 0.578291 0.885878
vt 0.567582 0.894597
vt 0.576940 0.884861
vt 0.568937 0.895609
vt 0.353020 0.922741
vt 0.299199 0.892613
vt 0.355646 0.921741
vt 0.355646 0.921741
vt 0.348519 0.874255
vt 0.401894 0.904134
vt 0.299199 0.892613
vt 0.414169 0.956927
vt 0.437623 0.924102
vt 0.462538 0.938038
vt 0.414169 0.956927
vt 0.363924 0.928823
vt 0.437623 0.924102
vt 0.437623 0.924102
vt 0.363924 0.928823
vt 0.366546 0.927821
vt 0.437623 0.924102
vt 0.366546 0.927821
vt 0.412709 0.910167
vt 0.363924 0.928823
vt 0.355646 0.921741
vt 0.366546 0.927821
vt 0.353020 0.922741
vt 0.470169 0.975513
vt 0.470169 0.975513
vt 0.470169 0.975513
vt 0.470169 0.975513
vt 0.470169 0.975513
vt 0.470169 0.975513
vt 0.470169 0.975513
vt 0.470169 0.975513
vt 0.470169 0.975513
vt 0.470169 0.975513
vt 0.470169 0.975513
vt 0.470169 0.975513
vt 0.470169 0.975513
vt 0.470169 0.975513
vt 0.470169 0.975513
vt 0.470169 0.975513
vt 0.470169 0.975513
vt 0.470169 0.975513
vt 0.470169 0.975513
vt 0.470169 0.975513
vt 0.470169 0.975513
vt 0.470169 0.975513
vt 0.470169 0.975513
vt 0.470169 0.975513
vt 0.470169 0.975513
vt 0.470169 0.975513
vn 0 1 0
vn 0 1 0
vn 0 1 0
vn 0 1 0
vn 0 1 0
vn 0 1 0
vn 0 1 0
vn 0 1 0
vn 0 1 0
vn 0 1 0
vn 0 1 0
vn 0 1 0
vn 0 1 0
vn 0 1 0
vn 0 1 0
vn 0 1 0
vn 0 1 0
vn 0 1 0
vn 0 1 0
vn 0 1 0
vn 0 1 0
vn 0 1 0
vn 0 1 0
vn 0 1 0
vn 0 1 0
vn 0 1 0
vn 0 1 0
vn 0 1 0
vn 0 1 0
vn 0 1 0
vn 0 1 0
vn 0 1 0
vn 0 1 0
vn 0 1 0
vn 0 1 0
vn 0 1 0
vn 0 1 0
vn 0 1 0
vn 0 1 0
vn 0 1 0
vn 0 1 0
vn 0 1 0
vn 0 1 0
vn 0 1 0
vn 0 1 0
vn 0 1 0
vn 0 1 0
vn 0 1 0
vn 0.5920517 0 0.8059
vn 0.5920517 0 0.8059
vn 0.5920517 0 0.8059
vn 0.5920517 0 0.8059
vn 0.8059357 0 -0.5920031
vn 0.8059357 0 -0.5920031
vn 0.8059357 0 -0.5920031
vn 0.8059357 0 -0.5920031
vn -0.8052879 0 0.592884
vn -0.8052879 0 0.592884
vn -0.8052879 0 0.592884
vn -0.8052879 0 0.592884
vn 0.8058163 0 -0.5921656
vn 0.8058163 0 -0.5921656
vn 0.8058163 0 -0.5921656
vn 0.8058163 0 -0.5921656
vn -0.5927132 0 -0.8054136
vn -0.5927132 0 -0.8054136
vn -0.5927132 0 -0.8054136
vn -0.5927132 0 -0.8054136
vn -0.8050136 0 0.5932564
vn -0.8050136 0 0.5932564
vn -0.8050136 0 0.5932564
vn -0.8050136 0 0.5932564
vn 0.5921048 0 0.805861
vn 0.5921048 0 0.805861
vn 0.5921048 0 0.805861
vn 0.5921048 0 0.805861
vn -0.8055781 0 0.5924897
vn -0.8055781 0 0.5924897
vn -0.8055781 0 0.5924897
vn -0.8055781 0 0.5924897
vn -0.8055781 0 0.5924897
vn -0.8055781 0 0.5924897
vn -0.8055781 -4.605985E-11 0.5924897
vn -0.8055781 -4.605985E-11 0.5924897
vn -0.8055781 -4.605985E-11 0.5924897
vn 0.5930135 0 0.8051925
vn 0.5930135 0 0.8051925
vn 0.5930135 0 0.8051925
vn 0.5930135 0 0.8051925
vn 0.5930135 0 0.8051925
vn 0.5930135 0 0.8051925
vn 0.5930135 -2.655615E-12 0.8051925
vn 0.5930135 -2.655615E-12 0.8051925
vn 0.5930135 -2.655615E-12 0.8051925
vn 0.8056401 0 -0.5924053
vn 0.8056401 0 -0.5924053
vn 0.8056401 0 -0.5924053
vn 0.8056401 0 -0.5924053
vn -0.5913637 0 -0.806405
vn -0.5913637 0 -0.806405
vn -0.5913637 0 -0.806405
vn -0.5913637 0 -0.806405
vn -0.5913637 0 -0.806405
vn -0.5913637 0 -0.806405
vn -0.5913637 5.51313E-11 -0.806405
vn -0.5913637 5.51313E-11 -0.806405
vn -0.5913637 5.51313E-11 -0.806405
vn -0.8050559 0 0.593199
vn -0.8050559 0 0.593199
vn -0.8050559 0 0.593199
vn -0.8050559 0 0.593199
vn -0.8050559 0 0.593199
vn -0.8050559 0 0.593199
vn -0.8050559 4.610834E-11 0.593199
vn -0.8050559 4.610834E-11 0.593199
vn -0.8050559 4.610834E-11 0.593199
vn -0.5925882 0 -0.8055055
vn -0.5925882 0 -0.8055055
vn -0.5925882 0 -0.8055055
vn -0.5925882 0 -0.8055055
vn -0.5930957 0 -0.805132
vn -0.5930957 0 -0.805132
vn -0.5930957 0 -0.805132
vn -0.5930957 0 -0.805132
vn -0.5930957 0 -0.805132
vn -0.5930957 0 -0.805132
vn -0.5930957 0 -0.805132
vn -0.5937776 0 -0.8046292
vn -0.5937776 0 -0.8046292
vn -0.5937776 0 -0.8046292
vn -0.5937776 0 -0.8046292
vn -0.5937776 0 -0.8046292
vn -0.5937776 0 -0.8046292
vn -0.5937776 0 -0.8046292
vn -0.5931383 0 -0.8051006
vn -0.5931383 0 -0.8051006
vn -0.5931383 0 -0.8051006
vn -0.5931383 0 -0.8051006
vn -0.8050034 0 0.5932702
vn -0.8050034 0 0.5932702
vn -0.8050034 0 0.5932702
vn -0.8050034 0 0.5932702
vn 0.5939578 0 0.8044962
vn 0.5939578 0 0.8044962
vn 0.5939578 0 0.8044962
vn 0.5939578 0 0.8044962
vn 0.5939578 0 0.8044962
vn 0.5939578 0 0.8044962
vn 0.5939578 0 0.8044962
vn 0.5930258 0 0.8051835
vn 0.5930258 0 0.8051835
vn 0.5930258 0 0.8051835
vn 0.5930258 -5.461622E-11 0.8051835
vn 0.5930258 -5.461622E-11 0.8051835
vn 0.5930258 -5.461622E-11 0.8051835
vn 0.5930258 0 0.8051835
vn 0.5930258 0 0.8051835
vn 0.5930258 0 0.8051835
vn 0.5930258 0 0.8051835
vn 0.5930258 0 0.8051835
vn 0.5930258 0 0.8051835
vn 0.5926577 0 0.8054544
vn 0.5926577 0 0.8054544
vn 0.5926577 0 0.8054544
vn 0.5926577 0 0.8054544
vn 0.804759 0 -0.5936016
vn 0.804759 0 -0.5936016
vn 0.804759 0 -0.5936016
vn 0.804759 0 -0.5936016
vn 0.804759 0 -0.5936016
vn 0.804759 0 -0.5936016
vn 0.804759 0 -0.5936016
vn 0.8049839 0 -0.5932967
vn 0.8049839 0 -0.5932967
vn 0.8049839 0 -0.5932967
vn 0.8049839 3.412685E-12 -0.5932967
vn 0.8049839 3.412685E-12 -0.5932967
vn 0.8049839 3.412685E-12 -0.5932967
vn 0.8049839 0 -0.5932967
vn 0.8049839 0 -0.5932967
vn 0.8049839 0 -0.5932967
vn 0.8049839 0 -0.5932967
vn 0.8049839 0 -0.5932967
vn 0.8049839 0 -0.5932967
vn 0.8057746 0 -0.5922223
vn 0.8057746 0 -0.5922223
vn 0.8057746 0 -0.5922223
vn 0.8057746 0 -0.5922223
vn 0 -1 0
vn 0 -1 0
vn 0 -1 0
vn 0 -1 0
vn 0 -1 0
vn 0 -1 0
vn 0 -1 0
vn 0 -1 0
vn 0 -1 0
vn 0 -1 0
vn 0 -1 0
vn 0 -1 0
vn 0 -1 0
vn 0 -1 0
vn 0 -1 0
vn 0 -1 0
vn 0 -1 0
vn 0 -1 0
vn 0 -1 0
vn 0 -1 0
vn 0 -1 0
vn 0 -1 0
vn 0 -1 0
vn 0 -1 0
vn 0 -1 0
vn 0 -1 0

g CDNNDG01_0003970
f 1/1/1 2/2/2 3/3/3
f 1/1/1 4/4/4 2/2/2
f 5/5/5 6/6/6 7/7/7
f 8/8/8 5/5/5 7/7/7
f 9/9/9 10/10/10 11/11/11
f 12/12/12 9/9/9 11/11/11
f 13/13/13 14/14/14 15/15/15
f 16/16/16 17/17/17 18/18/18
f 19/19/19 20/20/20 21/21/21
f 22/22/22 23/23/23 24/24/24
f 25/25/25 26/26/26 27/27/27
f 28/28/28 29/29/29 30/30/30
f 31/31/31 32/32/32 33/33/33
f 34/34/34 35/35/35 36/36/36
f 37/37/37 38/38/38 39/39/39
f 40/40/40 41/41/41 42/42/42
f 43/43/43 44/44/44 45/45/45
f 46/46/46 47/47/47 48/48/48
f 49/49/49 50/50/50 51/51/51
f 49/49/49 52/52/52 50/50/50
f 53/53/53 54/54/54 55/55/55
f 55/55/55 54/54/54 56/56/56
f 57/57/57 58/58/58 59/59/59
f 57/57/57 60/60/60 58/58/58
f 61/61/61 62/62/62 63/63/63
f 63/63/63 62/62/62 64/64/64
f 65/65/65 66/66/66 67/67/67
f 68/68/68 65/65/65 67/67/67
f 69/69/69 70/70/70 71/71/71
f 69/69/69 72/72/72 70/70/70
f 73/73/73 74/74/74 75/75/75
f 73/73/73 76/76/76 74/74/74
f 77/77/77 78/78/78 79/79/79
f 80/80/80 81/81/81 82/82/82
f 83/83/83 84/84/84 85/85/85
f 86/86/86 87/87/87 88/88/88
f 89/89/89 90/90/90 91/91/91
f 92/92/92 93/93/93 94/94/94
f 95/95/95 96/96/96 97/97/97
f 96/96/96 95/95/95 98/98/98
f 99/99/99 100/100/100 101/101/101
f 102/102/102 103/103/103 104/104/104
f 105/105/105 106/106/106 107/107/107
f 108/108/108 109/109/109 110/110/110
f 111/111/111 112/112/112 113/113/113
f 114/114/114 115/115/115 116/116/116
f 117/117/117 118/118/118 119/119/119
f 117/117/117 120/120/120 118/118/118
f 121/121/121 122/122/122 123/123/123
f 124/124/124 121/121/121 123/123/123
f 125/125/125 126/126/126 127/127/127
f 128/128/128 129/129/129 130/130/130
f 131/131/131 132/132/132 133/133/133
f 133/133/133 132/132/132 134/134/134
f 135/135/135 136/136/136 137/137/137
f 138/138/138 137/137/137 136/136/136
f 139/139/139 140/140/140 141/141/141
f 142/142/142 141/141/141 140/140/140
f 143/143/143 144/144/144 145/145/145
f 146/146/146 147/147/147 148/148/148
f 149/149/149 146/146/146 148/148/148
f 150/150/150 151/151/151 152/152/152
f 153/153/153 154/154/154 155/155/155
f 156/156/156 157/157/157 158/158/158
f 159/159/159 160/160/160 161/161/161
f 162/162/162 163/163/163 164/164/164
f 162/162/162 165/165/165 163/163/163
f 166/166/166 167/167/167 168/168/168
f 169/169/169 170/170/170 171/171/171
f 170/170/170 169/169/169 172/172/172
f 173/173/173 174/174/174 175/175/175
f 176/176/176 177/177/177 178/178/178
f 179/179/179 180/180/180 181/181/181
f 182/182/182 183/183/183 184/184/184
f 185/185/185 186/186/186 187/187/187
f 185/185/185 188/188/188 186/186/186
f 189/189/189 190/190/190 191/191/191
f 192/192/192 193/193/193 194/194/194
f 190/190/190 192/192/192 194/194/194
f 195/195/195 196/196/196 192/192/192
f 195/195/195 192/192/192 190/190/190
f 190/190/190 194/194/194 191/191/191
f 189/189/189 197/197/197 198/198/198
f 198/198/198 197/197/197 199/199/199
f 199/199/199 200/200/200 201/201/201
f 191/191/191 202/202/202 197/197/197
f 201/201/201 200/200/200 203/203/203
f 197/197/197 200/200/200 199/199/199
f 197/197/197 204/204/204 200/200/200
f 205/205/205 206/206/206 207/207/207
f 197/197/197 208/208/208 204/204/204
f 191/191/191 207/207/207 202/202/202
f 202/202/202 209/209/209 210/210/210
f 210/210/210 209/209/209 211/211/211
f 202/202/202 212/212/212 209/209/209
f 207/207/207 212/212/212 202/202/202
f 189/189/189 191/191/191 197/197/197
f 207/207/207 213/213/213 212/212/212
f 206/206/206 213/213/213 207/207/207
f 214/214/214 206/206/206 205/205/205
