v 1.441404 5.616564 -6.197493
v 4.615404 4.792564 -6.113492
v 2.172404 4.792564 -7.493493
v 1.441404 5.616564 -6.197493
v 3.884404 5.616564 -4.818492
v 4.615404 4.792564 -6.113492
v -1.413596 7.061564 -7.513493
v -0.7575961 7.061564 -7.143493
v -0.3785962 7.061564 -7.817492
v -1.034596 7.061564 -8.186493
v -5.608596 7.087564 -1.253493
v -4.901596 7.087564 -0.8544926
v -4.605596 7.087564 -1.377493
v -5.313596 7.087564 -1.777493
v 0.7454038 5.616971 7.249507
v 1.319404 5.61704 7.573507
v 7.243404 5.617923 -2.922493
v -6.567596 5.616106 2.097507
v 0.4254038 5.616923 7.815507
v 0.7454038 5.616971 7.249507
v -7.607596 5.615959 3.280507
v 0.4254038 5.616923 7.815507
v -6.567596 5.616106 2.097507
v -7.607596 5.615959 3.280507
v -6.567596 5.616106 2.097507
v -6.849596 5.616072 1.937507
v 0.7454038 5.616971 7.249507
v 7.243404 5.617923 -2.922493
v 3.884404 5.61752 -4.818492
v -4.605596 5.616398 -1.377493
v -6.567596 5.616106 2.097507
v 0.7454038 5.616971 7.249507
v -4.901596 5.616354 -0.8544926
v -4.605596 5.616398 -1.377493
v 3.884404 5.61752 -4.818492
v 1.441404 5.617227 -6.197493
v -4.901596 5.616354 -0.8544926
v 0.7454038 5.616971 7.249507
v -4.605596 5.616398 -1.377493
v -4.605596 5.616398 -1.377493
v 1.441404 5.617227 -6.197493
v -0.7575961 5.616959 -7.143493
v -0.7575961 5.616959 -7.143493
v 1.441404 5.617227 -6.197493
v -0.6316206 5.616978 -7.367523
v -4.605596 5.616398 -1.377493
v -0.7575961 5.616959 -7.143493
v -1.207997 5.616905 -7.39753
v 3.884404 -5.617933 -4.818492
v 4.615404 -5.617933 -6.113492
v 4.615404 4.792564 -6.113492
v 3.884404 5.616564 -4.818492
v 2.172404 4.792564 -7.493493
v 4.615404 4.792564 -6.113492
v 4.615404 -5.617933 -6.113492
v 2.172404 -5.617933 -7.493493
v 1.441404 5.616564 -6.197493
v 1.806904 -5.617933 -6.845493
v 1.441404 -5.617933 -6.197493
v 1.806904 -5.617933 -6.845493
v 2.172404 4.792564 -7.493493
v 2.172404 -5.617933 -7.493493
v 1.441404 5.616564 -6.197493
v 2.172404 4.792564 -7.493493
v 1.806904 -5.617933 -6.845493
v -1.207997 5.616905 -7.39753
v -0.7575961 5.616959 -7.143493
v -0.7575961 7.061564 -7.143493
v -1.413596 7.061564 -7.513493
v -1.207997 5.616905 -7.39753
v -0.7575961 7.061564 -7.143493
v -1.413596 -5.617933 -7.513493
v -1.207997 -5.617933 -7.39753
v -1.207997 5.616905 -7.39753
v -1.413596 7.061564 -7.513493
v -1.413596 -5.617933 -7.513493
v -1.207997 5.616905 -7.39753
v -0.6316206 -5.617933 -7.367523
v -0.3785962 -5.617933 -7.817492
v -0.3785962 7.061564 -7.817492
v -0.6316206 5.616978 -7.367523
v -0.7575961 7.061564 -7.143493
v -0.6316206 5.616978 -7.367523
v -0.3785962 7.061564 -7.817492
v -0.7575961 7.061564 -7.143493
v -0.7575961 5.616959 -7.143493
v -0.6316206 5.616978 -7.367523
v -1.034596 7.061564 -8.186493
v -0.7065961 -5.617933 -8.001992
v -1.034596 -5.617933 -8.186493
v -0.7065961 -5.617933 -8.001992
v -0.3785962 7.061564 -7.817492
v -0.3785962 -5.617933 -7.817492
v -1.034596 7.061564 -8.186493
v -0.3785962 7.061564 -7.817492
v -0.7065961 -5.617933 -8.001992
v -1.413596 7.061564 -7.513493
v -1.034596 7.061564 -8.186493
v -1.034596 -5.617933 -8.186493
v -1.413596 -5.617933 -7.513493
v -5.608596 7.087564 -1.253493
v -4.901596 5.616354 -0.8544926
v -4.901596 7.087564 -0.8544926
v -5.608596 -5.617933 -1.253493
v -4.901596 -5.617933 -0.8544926
v -4.901596 5.616354 -0.8544926
v -5.608596 7.087564 -1.253493
v -4.901596 5.616354 -0.8544926
v -4.605596 5.616398 -1.377493
v -4.605596 7.087564 -1.377493
v -4.901596 7.087564 -0.8544926
v -5.313596 7.087564 -1.777493
v -4.605596 5.616398 -1.377493
v -4.605596 -5.617933 -1.377493
v -5.313596 -5.617933 -1.777493
v -5.313596 7.087564 -1.777493
v -4.605596 7.087564 -1.377493
v -4.605596 5.616398 -1.377493
v -5.608596 7.087564 -1.253493
v -5.313596 7.087564 -1.777493
v -5.313596 -5.617933 -1.777493
v -5.608596 -5.617933 -1.253493
v -7.607596 5.615959 3.280507
v -6.849596 5.616072 1.937507
v -6.849596 -5.617933 1.937507
v -7.607596 -5.617933 3.280507
v -7.607596 -5.617933 3.280507
v 0.4254038 -5.617933 7.815507
v 0.4254038 5.616923 7.815507
v -7.607596 5.615959 3.280507
v 0.5854038 -5.617933 7.532507
v 0.7454038 -5.617933 7.249507
v 0.7454038 5.616971 7.249507
v 0.4254038 5.616923 7.815507
v 0.4254038 -5.617933 7.815507
v 0.5854038 -5.617933 7.532507
v 0.4254038 5.616923 7.815507
v 0.5854038 -5.617933 7.532507
v 0.7454038 5.616971 7.249507
v 1.032404 -5.617933 7.411508
v 1.319404 -5.617933 7.573507
v 1.319404 5.61704 7.573507
v 0.7454038 5.616971 7.249507
v 0.7454038 -5.617933 7.249507
v 1.032404 -5.617933 7.411508
v 0.7454038 5.616971 7.249507
v 1.032404 -5.617933 7.411508
v 1.319404 5.61704 7.573507
v 4.281404 -5.617933 2.325507
v 7.243404 -5.617933 -2.922493
v 7.243404 5.617923 -2.922493
v 1.319404 5.61704 7.573507
v 1.319404 -5.617933 7.573507
v 4.281404 -5.617933 2.325507
v 1.319404 5.61704 7.573507
v 4.281404 -5.617933 2.325507
v 7.243404 5.617923 -2.922493
v 3.884404 5.616564 -4.818492
v 3.884404 5.61752 -4.818492
v 7.243404 5.617923 -2.922493
v 3.884404 5.616564 -4.818492
v 7.243404 5.617923 -2.922493
v 7.243404 -5.617933 -2.922493
v 3.884404 -5.617933 -4.818492
v -0.6316206 5.616978 -7.367523
v 0.4048916 -5.617933 -6.782508
v -0.6316206 -5.617933 -7.367523
v -0.6316206 5.616978 -7.367523
v 1.441404 5.617227 -6.197493
v 0.4048916 -5.617933 -6.782508
v 0.4048916 -5.617933 -6.782508
v 1.441404 5.617227 -6.197493
v 1.441404 5.616564 -6.197493
v 0.4048916 -5.617933 -6.782508
v 1.441404 5.616564 -6.197493
v 1.441404 -5.617933 -6.197493
v 1.441404 5.617227 -6.197493
v 3.884404 5.61752 -4.818492
v 3.884404 5.616564 -4.818492
v 1.441404 5.616564 -6.197493
v -6.567596 5.616106 2.097507
v -4.901596 5.616354 -0.8544926
v -4.901596 -5.617933 -0.8544926
v -6.567596 -5.617933 2.097507
v -6.849596 5.616072 1.937507
v -6.708596 -5.617933 2.017507
v -6.849596 -5.617933 1.937507
v -6.708596 -5.617933 2.017507
v -6.567596 5.616106 2.097507
v -6.567596 -5.617933 2.097507
v -6.849596 5.616072 1.937507
v -6.567596 5.616106 2.097507
v -6.708596 -5.617933 2.017507
v -4.605596 5.616398 -1.377493
v -1.207997 5.616905 -7.39753
v -1.207997 -5.617933 -7.39753
v -4.605596 -5.617933 -1.377493
v -4.605596 -5.617933 -1.377493
v -1.207997 -5.617933 -7.39753
v -1.413596 -5.617933 -7.513493
v -1.034596 -5.617933 -8.186493
v -0.7065961 -5.617933 -8.001992
v -0.3785962 -5.617933 -7.817492
v -0.6316206 -5.617933 -7.367523
v 0.4048916 -5.617933 -6.782508
v 1.441404 -5.617933 -6.197493
v 1.806904 -5.617933 -6.845493
v 2.172404 -5.617933 -7.493493
v 4.615404 -5.617933 -6.113492
v 3.884404 -5.617933 -4.818492
v 7.243404 -5.617933 -2.922493
v 4.281404 -5.617933 2.325507
v 1.319404 -5.617933 7.573507
v 1.032404 -5.617933 7.411508
v 0.7454038 -5.617933 7.249507
v 0.5854038 -5.617933 7.532507
v 0.4254038 -5.617933 7.815507
v -7.607596 -5.617933 3.280507
v -6.849596 -5.617933 1.937507
v -6.708596 -5.617933 2.017507
v -6.567596 -5.617933 2.097507
v -4.901596 -5.617933 -0.8544926
v -5.608596 -5.617933 -1.253493
v -5.313596 -5.617933 -1.777493
vt 0.270109 0.791322
vt 0.281882 0.904999
vt 0.221080 0.820354
vt 0.270109 0.791322
vt 0.330930 0.876054
vt 0.281882 0.904999
vt 0.634710 0.915289
vt 0.650558 0.937201
vt 0.622490 0.950203
vt 0.606684 0.928290
vt 0.679693 0.915289
vt 0.696606 0.938907
vt 0.675052 0.949060
vt 0.658098 0.925410
vt 0.648270 0.296124
vt 0.662835 0.316309
vt 0.204033 0.530232
vt 0.417625 0.039359
vt 0.673012 0.284568
vt 0.648270 0.296124
vt 0.469142 0.002066
vt 0.673012 0.284568
vt 0.417625 0.039359
vt 0.469142 0.002066
vt 0.417625 0.039359
vt 0.410433 0.029442
vt 0.648270 0.296124
vt 0.204033 0.530232
vt 0.118797 0.412116
vt 0.265720 0.110217
vt 0.417625 0.039359
vt 0.648270 0.296124
vt 0.288582 0.099528
vt 0.265720 0.110217
vt 0.118797 0.412116
vt 0.056801 0.326207
vt 0.288582 0.099528
vt 0.648270 0.296124
vt 0.265720 0.110217
vt 0.265720 0.110217
vt 0.056801 0.326207
vt 0.013992 0.248757
vt 0.013992 0.248757
vt 0.056801 0.326207
vt 0.004199 0.253307
vt 0.265720 0.110217
vt 0.013992 0.248757
vt 0.002571 0.232918
vt 0.364919 0.954288
vt 0.309911 0.979635
vt 0.228792 0.943858
vt 0.278051 0.915289
vt 0.740360 0.915289
vt 0.740360 0.915289
vt 0.740360 0.915289
vt 0.740360 0.915289
vt 0.614938 0.855323
vt 0.675197 0.803939
vt 0.702800 0.791322
vt 0.675197 0.803939
vt 0.565553 0.876126
vt 0.647594 0.816556
vt 0.614938 0.855323
vt 0.565553 0.876126
vt 0.675197 0.803939
vt 0.353332 0.861222
vt 0.364415 0.876806
vt 0.352932 0.885045
vt 0.336761 0.862308
vt 0.353332 0.861222
vt 0.352932 0.885045
vt 0.436421 0.791322
vt 0.441411 0.798339
vt 0.353332 0.861222
vt 0.336761 0.862308
vt 0.436421 0.791322
vt 0.353332 0.861222
vt 0.489271 0.966047
vt 0.470202 0.974794
vt 0.370180 0.928596
vt 0.401066 0.925064
vt 0.399190 0.915289
vt 0.401066 0.925064
vt 0.370180 0.928596
vt 0.399190 0.915289
vt 0.410692 0.920649
vt 0.401066 0.925064
vt 0.766067 0.915289
vt 0.766067 0.915289
vt 0.766067 0.915289
vt 0.766067 0.915289
vt 0.766067 0.915289
vt 0.766067 0.915289
vt 0.766067 0.915289
vt 0.766067 0.915289
vt 0.766067 0.915289
vt 0.885126 0.862124
vt 0.856041 0.875404
vt 0.956616 0.804399
vt 0.985254 0.791322
vt 0.447301 0.860188
vt 0.475991 0.876567
vt 0.464768 0.884696
vt 0.543176 0.791322
vt 0.560373 0.815452
vt 0.475991 0.876567
vt 0.447301 0.860188
vt 0.733792 0.920551
vt 0.712482 0.930090
vt 0.701800 0.924846
vt 0.723148 0.915289
vt 0.791774 0.915289
vt 0.791774 0.915289
vt 0.791774 0.915289
vt 0.791774 0.915289
vt 0.791774 0.915289
vt 0.791774 0.915289
vt 0.791774 0.915289
vt 0.125439 0.983893
vt 0.102828 0.994218
vt 0.199188 0.925456
vt 0.221450 0.915289
vt 0.767536 0.851022
vt 0.709512 0.877554
vt 0.792626 0.817492
vt 0.849858 0.791322
vt 0.761727 0.002066
vt 0.959814 0.280520
vt 0.879486 0.345131
vt 0.678663 0.062824
vt 0.587425 0.961144
vt 0.575468 0.966645
vt 0.496144 0.926444
vt 0.520389 0.915289
vt 0.599382 0.955642
vt 0.587425 0.961144
vt 0.520389 0.915289
vt 0.587425 0.961144
vt 0.496144 0.926444
vt 0.088779 0.925059
vt 0.095731 0.934828
vt 0.016667 0.998701
vt 0.002571 0.978892
vt 0.081827 0.915289
vt 0.088779 0.925059
vt 0.002571 0.978892
vt 0.088779 0.925059
vt 0.016667 0.998701
vt 0.315560 0.681375
vt 0.089505 0.786426
vt 0.002571 0.748137
vt 0.460948 0.535124
vt 0.541623 0.576319
vt 0.315560 0.681375
vt 0.460948 0.535124
vt 0.315560 0.681375
vt 0.002571 0.748137
vt 0.778920 0.915289
vt 0.778920 0.915289
vt 0.778920 0.915289
vt 0.778920 0.915289
vt 0.778920 0.915289
vt 0.778920 0.915289
vt 0.778920 0.915289
vt 0.778920 0.915289
vt 0.778920 0.915289
vt 0.778920 0.915289
vt 0.778920 0.915289
vt 0.778920 0.915289
vt 0.778920 0.915289
vt 0.778920 0.915289
vt 0.778920 0.915289
vt 0.778920 0.915289
vt 0.778920 0.915289
vt 0.778920 0.915289
vt 0.778920 0.915289
vt 0.778920 0.915289
vt 0.778920 0.915289
vt 0.778920 0.915289
vt 0.778920 0.915289
vt 0.130882 0.851906
vt 0.002571 0.910595
vt 0.087843 0.849210
vt 0.214404 0.791322
vt 0.753213 0.915289
vt 0.753213 0.915289
vt 0.753213 0.915289
vt 0.753213 0.915289
vt 0.753213 0.915289
vt 0.753213 0.915289
vt 0.753213 0.915289
vt 0.753213 0.915289
vt 0.753213 0.915289
vt 0.810433 0.597017
vt 0.547558 0.717410
vt 0.637126 0.653874
vt 0.896415 0.535124
vt 0.804627 0.915289
vt 0.804627 0.915289
vt 0.804627 0.915289
vt 0.804627 0.915289
vt 0.804627 0.915289
vt 0.804627 0.915289
vt 0.804627 0.915289
vt 0.804627 0.915289
vt 0.804627 0.915289
vt 0.804627 0.915289
vt 0.804627 0.915289
vt 0.804627 0.915289
vt 0.804627 0.915289
vt 0.804627 0.915289
vt 0.804627 0.915289
vt 0.804627 0.915289
vt 0.804627 0.915289
vt 0.804627 0.915289
vt 0.804627 0.915289
vt 0.804627 0.915289
vt 0.804627 0.915289
vt 0.804627 0.915289
vt 0.804627 0.915289
vt 0.804627 0.915289
vt 0.804627 0.915289
vt 0.804627 0.915289
vt 0.804627 0.915289
vn 0.2382732 0.8748142 -0.4218127
vn 0.2382732 0.8748142 -0.4218127
vn 0.2382732 0.8748142 -0.4218127
vn 0.238249 0.874694 -0.4220756
vn 0.238249 0.874694 -0.4220756
vn 0.238249 0.874694 -0.4220756
vn 0 1 0
vn 0 1 0
vn 0 1 0
vn 0 1 0
vn 0 1 0
vn 0 1 0
vn 0 1 0
vn 0 1 0
vn -0.0001271267 1 1.240964E-05
vn -0.0001271267 1 1.240964E-05
vn -0.0001271267 1 1.240964E-05
vn -0.0001271205 1 1.240536E-05
vn -0.0001271205 1 1.240536E-05
vn -0.0001271205 1 1.240536E-05
vn -0.0001271242 1 1.240984E-05
vn -0.0001271242 1 1.240984E-05
vn -0.0001271242 1 1.240984E-05
vn -0.0001271397 1 1.239621E-05
vn -0.0001271397 1 1.239621E-05
vn -0.0001271397 1 1.239621E-05
vn -0.0001271249 1 1.24109E-05
vn -0.0001271245 1 1.241101E-05
vn -0.0001271249 1 1.24109E-05
vn -0.0001271254 1 1.241079E-05
vn -0.0001271234 1 1.240938E-05
vn -0.0001271234 1 1.240938E-05
vn -0.0001271234 1 1.240938E-05
vn -0.0001271266 1 1.240777E-05
vn -0.0001271266 1 1.240777E-05
vn -0.0001271266 1 1.240777E-05
vn -0.0001271254 1 1.241084E-05
vn -0.0001271254 1 1.241084E-05
vn -0.0001271254 1 1.241084E-05
vn -0.0001271226 1 1.241282E-05
vn -0.0001271226 1 1.241282E-05
vn -0.0001271226 1 1.241282E-05
vn -0.0001271146 1 1.239418E-05
vn -0.0001271146 1 1.239418E-05
vn -0.0001271146 1 1.239418E-05
vn -0.0001271342 1 1.240505E-05
vn -0.0001271342 1 1.240505E-05
vn -0.0001271342 1 1.240505E-05
vn 0.8708382 0 0.4915697
vn 0.8708382 0 0.4915697
vn 0.8708382 0 0.4915697
vn 0.8708382 0 0.4915697
vn 0.4918341 0 -0.8706889
vn 0.4918341 0 -0.8706889
vn 0.4918341 0 -0.8706889
vn 0.4918341 0 -0.8706889
vn -0.8710006 0 -0.491282
vn -0.8710006 0 -0.491282
vn -0.8710006 0 -0.491282
vn -0.8710006 0 -0.491282
vn -0.8710006 0 -0.491282
vn -0.8710006 0 -0.491282
vn -0.8710006 2.342292E-12 -0.491282
vn -0.8710006 2.342292E-12 -0.491282
vn -0.8710006 2.342292E-12 -0.491282
vn -0.4912695 0 0.8710076
vn -0.4912695 0 0.8710076
vn -0.4912695 0 0.8710076
vn -0.4912695 2.958178E-10 0.8710076
vn -0.4912695 2.958178E-10 0.8710076
vn -0.4912695 2.958178E-10 0.8710076
vn -0.4912695 0 0.8710076
vn -0.4912695 0 0.8710076
vn -0.4912695 0 0.8710076
vn -0.4912695 0 0.8710076
vn -0.4912695 0 0.8710076
vn -0.4912695 0 0.8710076
vn 0.8716446 0 0.4901384
vn 0.8716446 0 0.4901384
vn 0.8716446 0 0.4901384
vn 0.8716446 0 0.4901384
vn 0.8716446 1.806788E-09 0.4901384
vn 0.8716446 1.806788E-09 0.4901384
vn 0.8716446 1.806788E-09 0.4901384
vn 0.8716446 0 0.4901384
vn 0.8716446 0 0.4901384
vn 0.8716446 0 0.4901384
vn 0.4902612 0 -0.8715755
vn 0.4902612 0 -0.8715755
vn 0.4902612 0 -0.8715755
vn 0.4902612 0 -0.8715755
vn 0.4902612 0 -0.8715755
vn 0.4902612 0 -0.8715755
vn 0.4902612 3.088376E-11 -0.8715755
vn 0.4902612 3.088376E-11 -0.8715755
vn 0.4902612 3.088376E-11 -0.8715755
vn -0.8713334 0 -0.4906915
vn -0.8713334 0 -0.4906915
vn -0.8713334 0 -0.4906915
vn -0.8713334 0 -0.4906915
vn -0.4914889 -3.344625E-09 0.8708838
vn -0.4914889 -3.344625E-09 0.8708838
vn -0.4914889 -3.344625E-09 0.8708838
vn -0.4914889 2.190014E-10 0.8708838
vn -0.4914889 4.380027E-10 0.8708838
vn -0.4914889 2.190014E-10 0.8708838
vn -0.4914889 0 0.8708838
vn 0.8702838 5.922357E-09 0.4925507
vn 0.8702838 7.637397E-09 0.4925507
vn 0.8702838 9.352438E-09 0.4925507
vn 0.8702838 7.637397E-09 0.4925507
vn 0.4918952 0 -0.8706545
vn 0.4918952 1.777919E-10 -0.8706545
vn 0.4918952 3.555838E-10 -0.8706545
vn 0.4918952 1.777919E-10 -0.8706545
vn 0.4918952 -2.715359E-09 -0.8706545
vn 0.4918952 -2.715359E-09 -0.8706545
vn 0.4918952 -2.715359E-09 -0.8706545
vn -0.8713979 0 -0.490577
vn -0.8713979 0 -0.490577
vn -0.8713979 0 -0.490577
vn -0.8713979 0 -0.490577
vn -0.8708646 0 -0.491523
vn -0.8708646 0 -0.491523
vn -0.8708646 0 -0.491523
vn -0.8708646 0 -0.491523
vn -0.4916143 0 0.8708131
vn -0.4916143 0 0.8708131
vn -0.4916143 0 0.8708131
vn -0.4916143 0 0.8708131
vn 0.8705056 0 0.4921586
vn 0.8705056 0 0.4921586
vn 0.8705056 0 0.4921586
vn 0.8705056 0 0.4921586
vn 0.8705056 0 0.4921586
vn 0.8705056 0 0.4921586
vn 0.8705056 0 0.4921586
vn 0.8705056 0 0.4921586
vn 0.8705056 0 0.4921586
vn -0.4915572 0 0.8708453
vn -0.4915572 0 0.8708453
vn -0.4915572 0 0.8708453
vn -0.4915572 0 0.8708453
vn -0.4915572 0 0.8708453
vn -0.4915572 0 0.8708453
vn -0.4915572 3.609445E-11 0.8708453
vn -0.4915572 3.609445E-11 0.8708453
vn -0.4915572 3.609445E-11 0.8708453
vn 0.8708656 0 0.4915213
vn 0.8708656 0 0.4915213
vn 0.8708656 0 0.4915213
vn 0.8708656 0 0.4915213
vn 0.8708656 0 0.4915213
vn 0.8708656 0 0.4915213
vn 0.8708656 2.03715E-11 0.4915213
vn 0.8708656 2.03715E-11 0.4915213
vn 0.8708656 2.03715E-11 0.4915213
vn 0.4915532 -5.150811E-06 -0.8708476
vn 0.4915532 -5.150811E-06 -0.8708476
vn 0.4915532 -5.150811E-06 -0.8708476
vn 0.4915532 0 -0.8708476
vn 0.4915532 0 -0.8708476
vn 0.4915532 0 -0.8708476
vn 0.4915532 0 -0.8708476
vn 0.4915226 0 -0.8708648
vn 0.4915226 0 -0.8708648
vn 0.4915226 0 -0.8708648
vn 0.4915226 -3.609495E-11 -0.8708648
vn 0.4915226 -3.609495E-11 -0.8708648
vn 0.4915226 -3.609495E-11 -0.8708648
vn 0.4909338 7.161214E-05 -0.8711969
vn 0.4909338 7.161214E-05 -0.8711969
vn 0.4909338 7.161214E-05 -0.8711969
vn 0.4915226 0 -0.8708648
vn 0.4915226 0 -0.8708648
vn 0.4915226 0 -0.8708648
vn 0.4915639 3.326619E-05 -0.8708416
vn 0.4915638 -5.150924E-06 -0.8708416
vn 0.4915639 3.326619E-05 -0.8708416
vn 0.4915639 7.168331E-05 -0.8708416
vn -0.8708813 3.880539E-10 -0.4914933
vn -0.8708813 7.761078E-10 -0.4914933
vn -0.8708813 3.880539E-10 -0.4914933
vn -0.8708813 0 -0.4914933
vn 0.4934794 0 -0.8697575
vn 0.4934794 0 -0.8697575
vn 0.4934794 0 -0.8697575
vn 0.4934794 0 -0.8697575
vn 0.4934794 0 -0.8697575
vn 0.4934794 0 -0.8697575
vn 0.4934794 0 -0.8697575
vn 0.4934794 0 -0.8697575
vn 0.4934794 0 -0.8697575
vn -0.8708744 6.121505E-10 -0.4915057
vn -0.8708744 0 -0.4915057
vn -0.8708744 6.121505E-10 -0.4915057
vn -0.8708744 1.224301E-09 -0.4915057
vn 0 -1 0
vn 0 -1 0
vn 0 -1 0
vn 0 -1 0
vn 0 -1 0
vn 0 -1 0
vn 0 -1 0
vn 0 -1 0
vn 0 -1 0
vn 0 -1 0
vn 0 -1 0
vn 0 -1 0
vn 0 -1 0
vn 0 -1 0
vn 0 -1 0
vn 0 -1 0
vn 0 -1 0
vn 0 -1 0
vn 0 -1 0
vn 0 -1 0
vn 0 -1 0
vn 0 -1 0
vn 0 -1 0
vn 0 -1 0
vn 0 -1 0
vn 0 -1 0
vn 0 -1 0

g CDNNDG01_0001440
f 1/1/1 2/2/2 3/3/3
f 4/4/4 5/5/5 6/6/6
f 7/7/7 9/9/9 10/10/10
f 7/7/7 8/8/8 9/9/9
f 11/11/11 13/13/13 14/14/14
f 11/11/11 12/12/12 13/13/13
f 15/15/15 16/16/16 17/17/17
f 18/18/18 19/19/19 20/20/20
f 21/21/21 22/22/22 23/23/23
f 24/24/24 25/25/25 26/26/26
f 27/27/27 29/29/29 30/30/30
f 27/27/27 28/28/28 29/29/29
f 31/31/31 32/32/32 33/33/33
f 34/34/34 35/35/35 36/36/36
f 37/37/37 38/38/38 39/39/39
f 40/40/40 41/41/41 42/42/42
f 43/43/43 44/44/44 45/45/45
f 46/46/46 47/47/47 48/48/48
f 49/49/49 51/51/51 52/52/52
f 49/49/49 50/50/50 51/51/51
f 53/53/53 55/55/55 56/56/56
f 53/53/53 54/54/54 55/55/55
f 57/57/57 58/58/58 59/59/59
f 60/60/60 61/61/61 62/62/62
f 63/63/63 64/64/64 65/65/65
f 66/66/66 67/67/67 68/68/68
f 69/69/69 70/70/70 71/71/71
f 72/72/72 73/73/73 74/74/74
f 75/75/75 76/76/76 77/77/77
f 81/81/81 78/78/78 79/79/79
f 79/79/79 80/80/80 81/81/81
f 82/82/82 83/83/83 84/84/84
f 85/85/85 86/86/86 87/87/87
f 88/88/88 89/89/89 90/90/90
f 91/91/91 92/92/92 93/93/93
f 94/94/94 95/95/95 96/96/96
f 97/97/97 99/99/99 100/100/100
f 97/97/97 98/98/98 99/99/99
f 101/101/101 102/102/102 103/103/103
f 104/104/104 106/106/106 107/107/107
f 106/106/106 104/104/104 105/105/105
f 109/109/109 110/110/110 111/111/111
f 108/108/108 109/109/109 111/111/111
f 113/113/113 115/115/115 112/112/112
f 115/115/115 113/113/113 114/114/114
f 116/116/116 117/117/117 118/118/118
f 119/119/119 121/121/121 122/122/122
f 119/119/119 120/120/120 121/121/121
f 123/123/123 125/125/125 126/126/126
f 125/125/125 123/123/123 124/124/124
f 128/128/128 129/129/129 130/130/130
f 130/130/130 127/127/127 128/128/128
f 131/131/131 132/132/132 133/133/133
f 134/134/134 135/135/135 136/136/136
f 137/137/137 138/138/138 139/139/139
f 140/140/140 141/141/141 142/142/142
f 143/143/143 144/144/144 145/145/145
f 146/146/146 147/147/147 148/148/148
f 149/149/149 150/150/150 151/151/151
f 152/152/152 153/153/153 154/154/154
f 155/155/155 156/156/156 157/157/157
f 158/158/158 159/159/159 160/160/160
f 163/163/163 161/161/161 162/162/162
f 161/161/161 163/163/163 164/164/164
f 165/165/165 166/166/166 167/167/167
f 168/168/168 169/169/169 170/170/170
f 171/171/171 172/172/172 173/173/173
f 174/174/174 175/175/175 176/176/176
f 180/180/180 177/177/177 179/179/179
f 178/178/178 179/179/179 177/177/177
f 184/184/184 181/181/181 183/183/183
f 183/183/183 181/181/181 182/182/182
f 185/185/185 186/186/186 187/187/187
f 188/188/188 189/189/189 190/190/190
f 191/191/191 192/192/192 193/193/193
f 197/197/197 194/194/194 196/196/196
f 196/196/196 194/194/194 195/195/195
f 198/198/198 223/223/223 224/224/224
f 198/198/198 199/199/199 205/205/205
f 199/199/199 200/200/200 201/201/201
f 199/199/199 201/201/201 202/202/202
f 199/199/199 202/202/202 204/204/204
f 202/202/202 203/203/203 204/204/204
f 199/199/199 204/204/204 205/205/205
f 198/198/198 205/205/205 206/206/206
f 210/210/210 206/206/206 207/207/207
f 209/209/209 207/207/207 208/208/208
f 198/198/198 206/206/206 210/210/210
f 215/215/215 221/221/221 222/222/222
f 207/207/207 209/209/209 210/210/210
f 223/223/223 198/198/198 222/222/222
f 198/198/198 210/210/210 212/212/212
f 218/218/218 220/220/220 221/221/221
f 210/210/210 211/211/211 212/212/212
f 198/198/198 212/212/212 222/222/222
f 218/218/218 219/219/219 220/220/220
f 212/212/212 213/213/213 214/214/214
f 212/212/212 214/214/214 215/215/215
f 212/212/212 215/215/215 222/222/222
f 215/215/215 216/216/216 221/221/221
f 217/217/217 218/218/218 221/221/221
f 216/216/216 217/217/217 221/221/221
