v -0.7619521 5.002074 -12.25426
v 0.5350479 5.004074 -13.08726
v -0.4559521 5.003074 -12.79726
v -0.4559521 5.003074 -12.79726
v 0.2270479 5.004074 -13.26026
v -0.09395208 5.004074 -13.44126
v -0.4559521 5.003074 -12.79726
v 0.5350479 5.004074 -13.08726
v 0.2270479 5.004074 -13.26026
v -2.143952 4.998074 -9.80126
v 9.104048 4.998074 -3.46626
v 0.5350479 5.004074 -13.08726
v 0.5350479 5.004074 -13.08726
v 9.104048 4.998074 -3.46626
v 10.27505 4.999074 -5.65926
v 10.27505 4.999074 -5.65926
v 10.49705 4.999074 -6.05326
v 10.89505 4.998074 -7.25126
v 10.49705 4.999074 -6.05326
v 11.10505 4.998074 -7.13326
v 10.89505 4.998074 -7.25126
v 0.5350479 5.004074 -13.08726
v 10.27505 4.999074 -5.65926
v 10.89505 4.998074 -7.25126
v -2.143952 4.998074 -9.80126
v 0.5350479 5.004074 -13.08726
v -0.7619521 5.002074 -12.25426
v -7.931952 3.880165 2.00874
v 3.892048 3.880165 6.29774
v 9.104048 3.880165 -3.46626
v -2.143952 3.880165 -9.80126
v -7.931952 3.880165 2.00874
v 2.122048 3.880165 9.61374
v 3.678048 3.880165 6.69874
v -8.333952 3.880165 1.79474
v -7.931952 3.880165 2.00874
v -2.143952 3.880165 -9.80126
v -11.13195 3.880165 8.00574
v 0.3710479 3.880165 12.89374
v 2.122048 3.880165 9.61374
v -7.931952 3.880165 2.00874
v -11.13195 3.880165 8.00574
v -0.1489521 3.880165 13.86774
v 0.3710479 3.880165 12.89374
v -7.931952 3.880165 2.00874
v 3.678048 3.880165 6.69874
v 3.892048 3.880165 6.29774
v -2.143952 4.998074 -9.80126
v -0.7619521 5.002074 -12.25426
v -2.143952 3.880165 -9.80126
v -2.143952 3.880165 -9.80126
v -0.7619521 5.002074 -12.25426
v -0.7619521 -4.099083 -12.25426
v -2.143952 -4.099083 -9.80126
v -0.4559521 5.003074 -12.79726
v -0.2749521 -4.099083 -13.11926
v -0.4559521 -4.099083 -12.79726
v -0.2749521 -4.099083 -13.11926
v -0.09395208 5.004074 -13.44126
v -0.09395208 -4.099083 -13.44126
v -0.4559521 5.003074 -12.79726
v -0.09395208 5.004074 -13.44126
v -0.2749521 -4.099083 -13.11926
v -0.7619521 5.002074 -12.25426
v -0.4559521 5.003074 -12.79726
v -0.4559521 -4.099083 -12.79726
v -0.7619521 -4.099083 -12.25426
v -8.333952 3.880165 1.79474
v -2.143952 3.880165 -9.80126
v -2.143952 -4.099083 -9.80126
v -8.333952 -4.099083 1.79474
v -2.143952 3.880165 -9.80126
v 9.104048 3.880165 -3.46626
v 9.104048 4.998074 -3.46626
v -2.143952 4.998074 -9.80126
v 9.104048 -4.099083 -3.46626
v 10.27505 -4.099083 -5.65926
v 10.27505 4.999074 -5.65926
v 9.104048 3.880165 -3.46626
v 9.104048 4.998074 -3.46626
v 9.104048 3.880165 -3.46626
v 10.27505 4.999074 -5.65926
v 10.27505 -4.099083 -5.65926
v 10.49705 -4.099083 -6.05326
v 10.49705 4.999074 -6.05326
v 10.27505 4.999074 -5.65926
v 10.49705 -4.099083 -6.05326
v 11.10505 -4.099083 -7.13326
v 11.10505 4.998074 -7.13326
v 10.49705 4.999074 -6.05326
v -0.1489521 -4.099083 13.86774
v 0.3710479 -4.099083 12.89374
v 0.3710479 3.880165 12.89374
v -0.1489521 3.880165 13.86774
v 0.3710479 -4.099083 12.89374
v 2.122048 -4.099083 9.61374
v 2.122048 3.880165 9.61374
v 0.3710479 3.880165 12.89374
v 2.122048 -4.099083 9.61374
v 3.678048 -4.099083 6.69874
v 3.678048 3.880165 6.69874
v 2.122048 3.880165 9.61374
v 3.678048 -4.099083 6.69874
v 3.892048 -4.099083 6.29774
v 3.892048 3.880165 6.29774
v 3.678048 3.880165 6.69874
v 3.892048 -4.099083 6.29774
v 9.104048 -4.099083 -3.46626
v 9.104048 3.880165 -3.46626
v 3.892048 3.880165 6.29774
v 10.89505 4.998074 -7.25126
v 11.10505 4.998074 -7.13326
v 11.10505 -4.099083 -7.13326
v 10.89505 -4.099083 -7.25126
v 0.5350479 5.004074 -13.08726
v 10.89505 4.998074 -7.25126
v 10.89505 -4.099083 -7.25126
v 0.5350479 -4.099083 -13.08726
v 0.2270479 5.004074 -13.26026
v 0.5350479 5.004074 -13.08726
v 0.5350479 -4.099083 -13.08726
v 0.2270479 -4.099083 -13.26026
v -0.09395208 5.004074 -13.44126
v 0.06654792 -4.099083 -13.35076
v -0.09395208 -4.099083 -13.44126
v 0.06654792 -4.099083 -13.35076
v 0.2270479 5.004074 -13.26026
v 0.2270479 -4.099083 -13.26026
v -0.09395208 5.004074 -13.44126
v 0.2270479 5.004074 -13.26026
v 0.06654792 -4.099083 -13.35076
v -8.333952 -4.099083 1.79474
v -7.931952 -4.099083 2.00874
v -7.931952 3.880165 2.00874
v -8.333952 3.880165 1.79474
v -11.13195 3.880165 8.00574
v -7.931952 3.880165 2.00874
v -7.931952 -4.099083 2.00874
v -11.13195 -4.099083 8.00574
v -11.13195 -4.099083 8.00574
v -0.1489521 -4.099083 13.86774
v -0.1489521 3.880165 13.86774
v -11.13195 3.880165 8.00574
v -7.931952 -4.099083 2.00874
v -8.333952 -4.099083 1.79474
v -2.143952 -4.099083 -9.80126
v -0.7619521 -4.099083 -12.25426
v -0.4559521 -4.099083 -12.79726
v -0.2749521 -4.099083 -13.11926
v -0.09395208 -4.099083 -13.44126
v 0.06654792 -4.099083 -13.35076
v 0.2270479 -4.099083 -13.26026
v 0.5350479 -4.099083 -13.08726
v 10.89505 -4.099083 -7.25126
v 11.10505 -4.099083 -7.13326
v 10.49705 -4.099083 -6.05326
v 10.27505 -4.099083 -5.65926
v 9.104048 -4.099083 -3.46626
v 3.892048 -4.099083 6.29774
v 3.678048 -4.099083 6.69874
v 2.122048 -4.099083 9.61374
v 0.3710479 -4.099083 12.89374
v -0.1489521 -4.099083 13.86774
v -11.13195 -4.099083 8.00574
vt 0.033340 0.610302
vt 0.011192 0.632701
vt 0.018810 0.615622
vt 0.018810 0.615622
vt 0.006493 0.627420
vt 0.001577 0.621916
vt 0.018810 0.615622
vt 0.011192 0.632701
vt 0.006493 0.627420
vt 0.098979 0.586276
vt 0.271013 0.779142
vt 0.011192 0.632701
vt 0.011192 0.632701
vt 0.271013 0.779142
vt 0.212330 0.799508
vt 0.212330 0.799508
vt 0.201790 0.803366
vt 0.169695 0.810333
vt 0.201790 0.803366
vt 0.172900 0.813934
vt 0.169695 0.810333
vt 0.011192 0.632701
vt 0.212330 0.799508
vt 0.169695 0.810333
vt 0.098979 0.586276
vt 0.011192 0.632701
vt 0.033340 0.610302
vt 0.318338 0.056687
vt 0.435753 0.259718
vt 0.173954 0.350382
vt 0.001577 0.157484
vt 0.318338 0.056687
vt 0.524668 0.228927
vt 0.446505 0.255995
vt 0.312511 0.049791
vt 0.318338 0.056687
vt 0.001577 0.157484
vt 0.479153 0.001009
vt 0.612621 0.198465
vt 0.524668 0.228927
vt 0.318338 0.056687
vt 0.479153 0.001009
vt 0.638739 0.189419
vt 0.612621 0.198465
vt 0.318338 0.056687
vt 0.446505 0.255995
vt 0.435753 0.259718
vt 0.099440 0.964615
vt 0.033490 0.988202
vt 0.102622 0.959169
vt 0.102622 0.959169
vt 0.033490 0.988202
vt 0.059869 0.944032
vt 0.125081 0.920724
vt 0.018891 0.993425
vt 0.036874 0.952245
vt 0.045434 0.949193
vt 0.036874 0.952245
vt 0.001577 0.999603
vt 0.028313 0.955298
vt 0.018891 0.993425
vt 0.001577 0.999603
vt 0.036874 0.952245
vt 0.033490 0.988202
vt 0.018891 0.993425
vt 0.045434 0.949193
vt 0.059869 0.944032
vt 0.413908 0.853776
vt 0.102622 0.959169
vt 0.125081 0.920724
vt 0.433361 0.816347
vt 0.454268 0.586276
vt 0.622694 0.779045
vt 0.619760 0.784757
vt 0.451104 0.591725
vt 0.123265 0.549092
vt 0.065194 0.569478
vt 0.041028 0.531752
vt 0.102668 0.515851
vt 0.099750 0.511142
vt 0.102668 0.515851
vt 0.041028 0.531752
vt 0.065194 0.569478
vt 0.054765 0.573338
vt 0.030482 0.535655
vt 0.041028 0.531752
vt 0.054765 0.573338
vt 0.026176 0.583911
vt 0.001577 0.546350
vt 0.030482 0.535655
vt 0.582305 0.387997
vt 0.556510 0.397051
vt 0.540148 0.362321
vt 0.566196 0.353179
vt 0.556510 0.397051
vt 0.469645 0.427537
vt 0.452434 0.393106
vt 0.540148 0.362321
vt 0.469645 0.427537
vt 0.392448 0.454628
vt 0.374483 0.420462
vt 0.452434 0.393106
vt 0.392448 0.454628
vt 0.381829 0.458354
vt 0.363759 0.424224
vt 0.374483 0.420462
vt 0.381829 0.458354
vt 0.123265 0.549092
vt 0.102668 0.515851
vt 0.363759 0.424224
vt 0.756169 0.541327
vt 0.759398 0.544922
vt 0.783868 0.582482
vt 0.780675 0.578927
vt 0.596439 0.363947
vt 0.756169 0.541327
vt 0.780675 0.578927
vt 0.622728 0.403534
vt 0.591704 0.358674
vt 0.596439 0.363947
vt 0.622728 0.403534
vt 0.618045 0.398319
vt 0.586751 0.353179
vt 0.615595 0.395602
vt 0.613146 0.392884
vt 0.615595 0.395602
vt 0.591704 0.358674
vt 0.618045 0.398319
vt 0.586751 0.353179
vt 0.591704 0.358674
vt 0.615595 0.395602
vt 0.636600 0.816347
vt 0.641930 0.823053
vt 0.623678 0.859916
vt 0.618297 0.853145
vt 0.597076 0.853116
vt 0.436909 0.907308
vt 0.456206 0.870017
vt 0.614826 0.816347
vt 0.292194 0.586276
vt 0.446510 0.772808
vt 0.430271 0.811633
vt 0.274448 0.623284
vt 0.645110 0.816347
vt 0.645110 0.816347
vt 0.645110 0.816347
vt 0.645110 0.816347
vt 0.645110 0.816347
vt 0.645110 0.816347
vt 0.645110 0.816347
vt 0.645110 0.816347
vt 0.645110 0.816347
vt 0.645110 0.816347
vt 0.645110 0.816347
vt 0.645110 0.816347
vt 0.645110 0.816347
vt 0.645110 0.816347
vt 0.645110 0.816347
vt 0.645110 0.816347
vt 0.645110 0.816347
vt 0.645110 0.816347
vt 0.645110 0.816347
vt 0.645110 0.816347
vt 0.645110 0.816347
vn -0.0005630059 0.9999987 0.001524344
vn -0.0005630059 0.9999987 0.001524344
vn -0.0005630059 0.9999987 0.001524344
vn -0.0006648393 0.9999991 0.00117908
vn -0.0006648393 0.9999991 0.00117908
vn -0.0006648393 0.9999991 0.00117908
vn -0.0006634371 0.9999991 0.001181148
vn -0.0006634371 0.9999991 0.001181148
vn -0.0006634371 0.9999991 0.001181148
vn -0.0007047705 0.999999 0.001251343
vn -0.0007047705 0.999999 0.001251343
vn -0.0007047705 0.999999 0.001251343
vn 0.0001176725 0.9999999 0.00051883
vn 0.0001176725 0.9999999 0.00051883
vn 0.0001176725 0.9999999 0.00051883
vn -0.003609879 0.9999914 -0.002033993
vn -0.003609879 0.9999914 -0.002033993
vn -0.003609879 0.9999914 -0.002033993
vn 0.0003952515 0.9999997 -0.0007034137
vn 0.0003952515 0.9999997 -0.0007034137
vn 0.0003952515 0.9999997 -0.0007034137
vn 0.0007651364 0.9999996 -0.0003301602
vn 0.0007651364 0.9999996 -0.0003301602
vn 0.0007651364 0.9999996 -0.0003301602
vn -0.0007752407 0.999999 0.00119389
vn -0.0007752407 0.999999 0.00119389
vn -0.0007752407 0.999999 0.00119389
vn 0 1 0
vn 0 1 0
vn 0 1 0
vn 0 1 0
vn 0 1 0
vn 0 1 0
vn 0 1 0
vn 0 1 0
vn 0 1 0
vn 0 1 0
vn 0 1 0
vn 0 1 0
vn 0 1 0
vn 0 1 0
vn 0 1 0
vn 0 1 0
vn 0 1 0
vn 0 1 0
vn 0 1 0
vn 0 1 0
vn -0.8712434 0 -0.4908513
vn -0.8712434 0 -0.4908513
vn -0.8712434 0 -0.4908513
vn -0.8712434 0 -0.4908513
vn -0.8712434 0 -0.4908513
vn -0.8712434 0 -0.4908513
vn -0.8712434 0 -0.4908513
vn -0.8717201 0 -0.4900042
vn -0.8717201 0 -0.4900042
vn -0.8717201 0 -0.4900042
vn -0.8717201 0 -0.4900042
vn -0.8717201 0 -0.4900042
vn -0.8717201 0 -0.4900042
vn -0.8717201 0 -0.4900042
vn -0.8717201 0 -0.4900042
vn -0.8717201 0 -0.4900042
vn -0.8711897 0 -0.4909467
vn -0.8711897 0 -0.4909467
vn -0.8711897 0 -0.4909467
vn -0.8711897 0 -0.4909467
vn -0.8821802 0 -0.470912
vn -0.8821802 0 -0.470912
vn -0.8821802 0 -0.470912
vn -0.8821802 0 -0.470912
vn -0.4907319 0 0.8713106
vn -0.4907319 0 0.8713106
vn -0.4907319 0 0.8713106
vn -0.4907319 0 0.8713106
vn 0.882119 0 0.4710266
vn 0.882119 0 0.4710266
vn 0.882119 0 0.4710266
vn 0.882119 0 0.4710266
vn 0.882119 0 0.4710266
vn 0.882119 0 0.4710266
vn 0.882119 0 0.4710266
vn 0.871221 0 0.490891
vn 0.871221 0 0.490891
vn 0.871221 0 0.490891
vn 0.871221 0 0.490891
vn 0.8714031 0 0.4905677
vn 0.8714031 0 0.4905677
vn 0.8714031 0 0.4905677
vn 0.8714031 0 0.4905677
vn 0.8821523 0 0.4709643
vn 0.8821523 0 0.4709643
vn 0.8821523 0 0.4709643
vn 0.8821523 0 0.4709643
vn 0.8821667 0 0.4709372
vn 0.8821667 0 0.4709372
vn 0.8821667 0 0.4709372
vn 0.8821667 0 0.4709372
vn 0.8821853 0 0.4709024
vn 0.8821853 0 0.4709024
vn 0.8821853 0 0.4709024
vn 0.8821853 0 0.4709024
vn 0.8822311 0 0.4708166
vn 0.8822311 0 0.4708166
vn 0.8822311 0 0.4708166
vn 0.8822311 0 0.4708166
vn 0.8821828 0 0.4709071
vn 0.8821828 0 0.4709071
vn 0.8821828 0 0.4709071
vn 0.8821828 0 0.4709071
vn 0.489867 0 -0.8717972
vn 0.489867 0 -0.8717972
vn 0.489867 0 -0.8717972
vn 0.489867 0 -0.8717972
vn 0.4908042 0 -0.8712699
vn 0.4908042 0 -0.8712699
vn 0.4908042 0 -0.8712699
vn 0.4908042 0 -0.8712699
vn 0.4897236 0 -0.8718778
vn 0.4897236 0 -0.8718778
vn 0.4897236 0 -0.8718778
vn 0.4897236 0 -0.8718778
vn 0.4911628 0 -0.8710678
vn 0.4911628 0 -0.8710678
vn 0.4911628 0 -0.8710678
vn 0.4911628 0 -0.8710678
vn 0.4911628 0 -0.8710678
vn 0.4911628 0 -0.8710678
vn 0.4911628 0 -0.8710678
vn 0.4911628 0 -0.8710678
vn 0.4911628 0 -0.8710678
vn -0.4699043 0 0.8827174
vn -0.4699043 0 0.8827174
vn -0.4699043 0 0.8827174
vn -0.4699043 0 0.8827174
vn -0.8822552 0 -0.4707715
vn -0.8822552 0 -0.4707715
vn -0.8822552 0 -0.4707715
vn -0.8822552 0 -0.4707715
vn -0.4708634 0 0.8822061
vn -0.4708634 0 0.8822061
vn -0.4708634 0 0.8822061
vn -0.4708634 0 0.8822061
vn 0 -1 0
vn 0 -1 0
vn 0 -1 0
vn 0 -1 0
vn 0 -1 0
vn 0 -1 0
vn 0 -1 0
vn 0 -1 0
vn 0 -1 0
vn 0 -1 0
vn 0 -1 0
vn 0 -1 0
vn 0 -1 0
vn 0 -1 0
vn 0 -1 0
vn 0 -1 0
vn 0 -1 0
vn 0 -1 0
vn 0 -1 0
vn 0 -1 0
vn 0 -1 0

g CDNNDG01_0001180
f 1/1/1 2/2/2 3/3/3
f 4/4/4 5/5/5 6/6/6
f 7/7/7 8/8/8 9/9/9
f 10/10/10 11/11/11 12/12/12
f 13/13/13 14/14/14 15/15/15
f 16/16/16 17/17/17 18/18/18
f 19/19/19 20/20/20 21/21/21
f 22/22/22 23/23/23 24/24/24
f 25/25/25 26/26/26 27/27/27
f 31/31/31 28/28/28 29/29/29
f 30/30/30 31/31/31 29/29/29
f 32/32/32 33/33/33 34/34/34
f 35/35/35 36/36/36 37/37/37
f 38/38/38 39/39/39 40/40/40
f 41/41/41 38/38/38 40/40/40
f 42/42/42 43/43/43 44/44/44
f 45/45/45 46/46/46 47/47/47
f 48/48/48 49/49/49 50/50/50
f 51/51/51 53/53/53 54/54/54
f 53/53/53 51/51/51 52/52/52
f 55/55/55 56/56/56 57/57/57
f 58/58/58 59/59/59 60/60/60
f 61/61/61 62/62/62 63/63/63
f 64/64/64 66/66/66 67/67/67
f 66/66/66 64/64/64 65/65/65
f 71/71/71 68/68/68 70/70/70
f 70/70/70 68/68/68 69/69/69
f 75/75/75 72/72/72 74/74/74
f 74/74/74 72/72/72 73/73/73
f 77/77/77 78/78/78 79/79/79
f 76/76/76 77/77/77 79/79/79
f 80/80/80 81/81/81 82/82/82
f 84/84/84 85/85/85 83/83/83
f 83/83/83 85/85/85 86/86/86
f 88/88/88 89/89/89 87/87/87
f 87/87/87 89/89/89 90/90/90
f 92/92/92 93/93/93 91/91/91
f 91/91/91 93/93/93 94/94/94
f 95/95/95 97/97/97 98/98/98
f 95/95/95 96/96/96 97/97/97
f 99/99/99 101/101/101 102/102/102
f 99/99/99 100/100/100 101/101/101
f 104/104/104 105/105/105 103/103/103
f 103/103/103 105/105/105 106/106/106
f 110/110/110 107/107/107 108/108/108
f 108/108/108 109/109/109 110/110/110
f 111/111/111 113/113/113 114/114/114
f 111/111/111 112/112/112 113/113/113
f 118/118/118 115/115/115 116/116/116
f 116/116/116 117/117/117 118/118/118
f 121/121/121 119/119/119 120/120/120
f 119/119/119 121/121/121 122/122/122
f 123/123/123 124/124/124 125/125/125
f 126/126/126 127/127/127 128/128/128
f 129/129/129 130/130/130 131/131/131
f 135/135/135 132/132/132 134/134/134
f 134/134/134 132/132/132 133/133/133
f 136/136/136 138/138/138 139/139/139
f 136/136/136 137/137/137 138/138/138
f 143/143/143 140/140/140 142/142/142
f 142/142/142 140/140/140 141/141/141
f 161/161/161 162/162/162 164/164/164
f 144/144/144 161/161/161 164/164/164
f 158/158/158 146/146/146 153/153/153
f 164/164/164 162/162/162 163/163/163
f 144/144/144 145/145/145 146/146/146
f 144/144/144 146/146/146 159/159/159
f 146/146/146 147/147/147 153/153/153
f 147/147/147 148/148/148 153/153/153
f 148/148/148 149/149/149 153/153/153
f 144/144/144 160/160/160 161/161/161
f 149/149/149 150/150/150 151/151/151
f 149/149/149 151/151/151 152/152/152
f 149/149/149 152/152/152 153/153/153
f 153/153/153 154/154/154 157/157/157
f 144/144/144 159/159/159 160/160/160
f 154/154/154 155/155/155 156/156/156
f 154/154/154 156/156/156 157/157/157
f 153/153/153 157/157/157 158/158/158
f 146/146/146 158/158/158 159/159/159
