v 2.812276 6.86379 8.450929
v 3.031276 6.86379 8.671929
v 3.596276 6.86379 8.023929
v 2.504276 6.86379 8.202929
v 2.812276 6.86379 8.450929
v 3.596276 6.86379 8.023929
v 2.716276 6.86379 7.353929
v 2.203276 6.86379 7.970929
v 2.504276 6.86379 8.202929
v 2.716276 6.86379 7.353929
v -2.682724 5.67379 -7.644071
v 8.233276 5.67379 0.768929
v 8.887276 4.91679 0.461929
v -2.874724 4.91679 -8.483071
v -2.682724 5.67379 -7.644071
v 8.887276 4.91679 0.461929
v -8.918724 4.91679 -0.535071
v -8.412724 5.67379 -0.210071
v -2.682724 5.67379 -7.644071
v -8.918724 4.91679 -0.535071
v -2.682724 5.67379 -7.644071
v -2.874724 4.91679 -8.483071
v 3.282294 4.982424 7.784875
v 3.305387 4.91679 7.802457
v 8.887276 4.91679 0.461929
v 3.282294 4.982424 7.784875
v 8.887276 4.91679 0.461929
v 8.233276 5.67379 0.768929
v 2.995011 5.67379 7.566147
v 3.282294 4.982424 7.784875
v 8.233276 5.67379 0.768929
v -8.412724 5.67379 -0.210071
v 2.203276 5.67379 7.970929
v 2.716276 5.67379 7.353929
v -8.412724 5.67379 -0.210071
v 2.716276 5.67379 7.353929
v -2.682724 5.67379 -7.644071
v -2.682724 5.67379 -7.644071
v 2.716276 5.67379 7.353929
v 8.233276 5.67379 0.768929
v 2.716276 5.67379 7.353929
v 2.718471 5.67379 7.3556
v 8.233276 5.67379 0.768929
v 2.718471 5.67379 7.3556
v 2.995011 5.67379 7.566147
v 8.233276 5.67379 0.768929
v 2.504276 5.67379 8.202929
v 2.812276 4.91679 8.450929
v 2.812276 6.86379 8.450929
v 2.504276 6.86379 8.202929
v 2.812276 -5.638019 8.450929
v 3.031276 -5.638019 8.671929
v 3.031276 6.86379 8.671929
v 2.812276 4.91679 8.450929
v 2.812276 6.86379 8.450929
v 2.812276 4.91679 8.450929
v 3.031276 6.86379 8.671929
v 2.203276 5.67379 7.970929
v 2.504276 5.67379 8.202929
v 2.504276 6.86379 8.202929
v 2.203276 6.86379 7.970929
v -8.665724 -5.638019 -0.372571
v -8.412724 -5.638019 -0.210071
v -8.412724 5.67379 -0.210071
v -8.918724 4.91679 -0.535071
v -8.918724 -5.638019 -0.535071
v -8.665724 -5.638019 -0.372571
v -8.918724 4.91679 -0.535071
v -8.665724 -5.638019 -0.372571
v -8.412724 5.67379 -0.210071
v -8.412724 -5.638019 -0.210071
v 2.203276 -5.638019 7.970929
v 2.203276 5.67379 7.970929
v -8.412724 5.67379 -0.210071
v 2.504276 -5.638019 8.202929
v 2.812276 -5.638019 8.450929
v 2.812276 4.91679 8.450929
v 2.504276 5.67379 8.202929
v 2.203276 -5.638019 7.970929
v 2.504276 -5.638019 8.202929
v 2.504276 5.67379 8.202929
v 2.203276 5.67379 7.970929
v 3.031276 -5.638019 8.671929
v 3.596276 -5.638019 8.023929
v 3.596276 6.86379 8.023929
v 3.031276 6.86379 8.671929
v 2.716276 6.86379 7.353929
v 2.718471 5.67379 7.3556
v 2.716276 5.67379 7.353929
v 2.716276 6.86379 7.353929
v 2.995011 5.67379 7.566147
v 2.718471 5.67379 7.3556
v 2.716276 6.86379 7.353929
v 3.596276 6.86379 8.023929
v 2.995011 5.67379 7.566147
v 3.282294 4.982424 7.784875
v 3.596276 6.86379 8.023929
v 3.305387 4.91679 7.802457
v 2.995011 5.67379 7.566147
v 3.596276 6.86379 8.023929
v 3.282294 4.982424 7.784875
v 3.305387 4.91679 7.802457
v 3.596276 6.86379 8.023929
v 3.596276 -5.638019 8.023929
v 3.305387 -5.638019 7.802457
v 2.203276 6.86379 7.970929
v 2.716276 6.86379 7.353929
v 2.716276 5.67379 7.353929
v 2.203276 5.67379 7.970929
v -2.874724 4.91679 -8.483071
v 3.006276 -5.638019 -4.010571
v -2.874724 -5.638019 -8.483071
v 3.006276 -5.638019 -4.010571
v 8.887276 4.91679 0.461929
v 8.887276 -5.638019 0.461929
v -2.874724 4.91679 -8.483071
v 8.887276 4.91679 0.461929
v 3.006276 -5.638019 -4.010571
v -8.918724 4.91679 -0.535071
v -2.874724 4.91679 -8.483071
v -2.874724 -5.638019 -8.483071
v -8.918724 -5.638019 -0.535071
v 3.305387 -5.638019 7.802457
v 8.887276 -5.638019 0.461929
v 8.887276 4.91679 0.461929
v 3.305387 4.91679 7.802457
v -8.412724 -5.638019 -0.210071
v -8.665724 -5.638019 -0.372571
v -8.918724 -5.638019 -0.535071
v -2.874724 -5.638019 -8.483071
v 3.006276 -5.638019 -4.010571
v 8.887276 -5.638019 0.461929
v 3.305387 -5.638019 7.802457
v 3.596276 -5.638019 8.023929
v 3.031276 -5.638019 8.671929
v 2.812276 -5.638019 8.450929
v 2.504276 -5.638019 8.202929
v 2.203276 -5.638019 7.970929
vt 0.628482 0.871618
vt 0.621771 0.866841
vt 0.641463 0.854497
vt 0.636013 0.878338
vt 0.628482 0.871618
vt 0.641463 0.854497
vt 0.661806 0.873697
vt 0.643057 0.884904
vt 0.636013 0.878338
vt 0.661806 0.873697
vt 0.404013 0.383736
vt 0.673584 0.631995
vt 0.651687 0.649541
vt 0.365314 0.382275
vt 0.404013 0.383736
vt 0.651687 0.649541
vt 0.253009 0.854497
vt 0.275589 0.867742
vt 0.040464 0.999546
vt 0.253009 0.854497
vt 0.040464 0.999546
vt 0.001845 0.993418
vt 0.281426 0.979496
vt 0.280443 0.978749
vt 0.512675 0.854497
vt 0.281426 0.979496
vt 0.512675 0.854497
vt 0.508093 0.871644
vt 0.292831 0.988370
vt 0.281426 0.979496
vt 0.508093 0.871644
vt 0.260181 0.378589
vt 0.001845 0.138117
vt 0.021345 0.126479
vt 0.260181 0.378589
vt 0.021345 0.126479
vt 0.495137 0.248608
vt 0.495137 0.248608
vt 0.021345 0.126479
vt 0.229475 0.001323
vt 0.021345 0.126479
vt 0.021293 0.126430
vt 0.229475 0.001323
vt 0.021293 0.126430
vt 0.014644 0.120165
vt 0.229475 0.001323
vt 0.090967 0.397508
vt 0.078100 0.392630
vt 0.091096 0.387238
vt 0.098928 0.394219
vt 0.008719 0.421418
vt 0.001845 0.416530
vt 0.084116 0.382275
vt 0.078100 0.392630
vt 0.091096 0.387238
vt 0.078100 0.392630
vt 0.084116 0.382275
vt 0.098283 0.404320
vt 0.090967 0.397508
vt 0.098928 0.394219
vt 0.106255 0.401042
vt 0.283139 0.677617
vt 0.278086 0.671970
vt 0.356259 0.644579
vt 0.361197 0.657878
vt 0.288192 0.683265
vt 0.283139 0.677617
vt 0.361197 0.657878
vt 0.283139 0.677617
vt 0.356259 0.644579
vt 0.278086 0.671970
vt 0.023649 0.435012
vt 0.098283 0.404320
vt 0.356259 0.644579
vt 0.016433 0.428293
vt 0.008719 0.421418
vt 0.078100 0.392630
vt 0.090967 0.397508
vt 0.023649 0.435012
vt 0.016433 0.428293
vt 0.090967 0.397508
vt 0.098283 0.404320
vt 0.516605 0.866751
vt 0.536657 0.854497
vt 0.617905 0.896214
vt 0.597545 0.908657
vt 0.666052 0.854497
vt 0.666052 0.854497
vt 0.666052 0.854497
vt 0.666052 0.854497
vt 0.666052 0.854497
vt 0.666052 0.854497
vt 0.666052 0.854497
vt 0.666052 0.854497
vt 0.666052 0.854497
vt 0.666052 0.854497
vt 0.666052 0.854497
vt 0.666052 0.854497
vt 0.666052 0.854497
vt 0.666052 0.854497
vt 0.666052 0.854497
vt 0.666052 0.854497
vt 0.666052 0.854497
vt 0.666052 0.854497
vt 0.666052 0.854497
vt 0.684502 0.854497
vt 0.684502 0.854497
vt 0.684502 0.854497
vt 0.684502 0.854497
vt 0.664616 0.001323
vt 0.641607 0.171689
vt 0.500000 0.039709
vt 0.641607 0.171689
vt 0.951523 0.268738
vt 0.783204 0.303660
vt 0.664616 0.001323
vt 0.951523 0.268738
vt 0.641607 0.171689
vt 0.417408 0.711487
vt 0.165673 0.850557
vt 0.001845 0.823781
vt 0.250317 0.686508
vt 0.422509 0.809347
vt 0.652180 0.686508
vt 0.724507 0.720694
vt 0.491851 0.845126
vt 0.675277 0.854497
vt 0.675277 0.854497
vt 0.675277 0.854497
vt 0.675277 0.854497
vt 0.675277 0.854497
vt 0.675277 0.854497
vt 0.675277 0.854497
vt 0.675277 0.854497
vt 0.675277 0.854497
vt 0.675277 0.854497
vt 0.675277 0.854497
vt 0.675277 0.854497
vn 0 1 0
vn 0 1 0
vn 0 1 0
vn 0 1 0
vn 0 1 0
vn 0 1 0
vn 0 1 0
vn 0 1 0
vn 0 1 0
vn 0 1 0
vn 0.4654416 0.6470298 -0.6039178
vn 0.4654416 0.6470298 -0.6039178
vn 0.4654416 0.6470298 -0.6039178
vn 0.4892339 0.5889042 -0.6433056
vn 0.4892339 0.5889042 -0.6433056
vn 0.4892339 0.5889042 -0.6433056
vn -0.6210344 0.6206279 -0.4786828
vn -0.6210344 0.6206279 -0.4786828
vn -0.6210344 0.6206279 -0.4786828
vn -0.5997092 0.6575502 -0.4560446
vn -0.5997092 0.6575502 -0.4560446
vn -0.5997092 0.6575502 -0.4560446
vn 0.7279952 0.4044372 0.5535825
vn 0.7279952 0.4044372 0.5535825
vn 0.7279952 0.4044372 0.5535825
vn 0.7279952 0.4044372 0.5535825
vn 0.7279952 0.4044372 0.5535825
vn 0.7279952 0.4044372 0.5535825
vn 0.7020996 0.4629227 0.5410719
vn 0.7020996 0.4629227 0.5410719
vn 0.7020996 0.4629227 0.5410719
vn 0 1 0
vn 0 1 0
vn 0 1 0
vn 0 1 0
vn 0 1 0
vn 0 1 0
vn 0 1 0
vn 0 1 0
vn 0 1 0
vn 0 1 0
vn 0 1 0
vn 0 1 0
vn 0 1 0
vn 0 1 0
vn 0 1 0
vn -0.6271591 0 0.7788911
vn -0.6271591 0 0.7788911
vn -0.6271591 0 0.7788911
vn -0.6271591 0 0.7788911
vn -0.7103136 0 0.7038854
vn -0.7103136 0 0.7038854
vn -0.7103136 0 0.7038854
vn -0.7103136 0 0.7038854
vn -0.7103136 0 0.7038854
vn -0.7103136 0 0.7038854
vn -0.7103136 0 0.7038854
vn -0.6104735 0 0.7920367
vn -0.6104735 0 0.7920367
vn -0.6104735 0 0.7920367
vn -0.6104735 0 0.7920367
vn -0.5404214 0 0.8413945
vn -0.5404214 0 0.8413945
vn -0.5404214 0 0.8413945
vn -0.5404214 0 0.8413945
vn -0.5404214 0 0.8413945
vn -0.5404214 0 0.8413945
vn -0.5404214 -3.727446E-11 0.8413945
vn -0.5404214 -3.727446E-11 0.8413945
vn -0.5404214 -3.727446E-11 0.8413945
vn -0.6104065 0 0.7920883
vn -0.6104065 0 0.7920883
vn -0.6104065 0 0.7920883
vn -0.6104065 0 0.7920883
vn -0.6271591 0 0.7788911
vn -0.6271591 0 0.7788911
vn -0.6271591 0 0.7788911
vn -0.6271591 0 0.7788911
vn -0.6104735 0 0.7920367
vn -0.6104735 0 0.7920367
vn -0.6104735 0 0.7920367
vn -0.6104735 0 0.7920367
vn 0.7537284 0 0.657186
vn 0.7537284 0 0.657186
vn 0.7537284 0 0.657186
vn 0.7537284 0 0.657186
vn 0.6057693 0 -0.7956403
vn 0.6057693 0 -0.7956403
vn 0.6057693 0 -0.7956403
vn 0.6057708 4.119907E-09 -0.7956392
vn 0.6057708 4.119907E-09 -0.7956392
vn 0.6057708 4.119907E-09 -0.7956392
vn 0.6057708 1.193463E-09 -0.7956392
vn 0.6057708 1.193463E-09 -0.7956392
vn 0.6057708 1.193463E-09 -0.7956392
vn 0.6057708 -8.301999E-10 -0.7956392
vn 0.6057708 -8.301999E-10 -0.7956392
vn 0.6057708 -8.301999E-10 -0.7956392
vn 0.6057708 -5.359576E-10 -0.7956392
vn 0.6057708 -5.359576E-10 -0.7956392
vn 0.6057708 -5.359576E-10 -0.7956392
vn 0.6057708 0 -0.7956392
vn 0.6057708 0 -0.7956392
vn 0.6057708 0 -0.7956392
vn 0.6057708 0 -0.7956392
vn -0.7689359 0 -0.6393259
vn -0.7689359 0 -0.6393259
vn -0.7689359 0 -0.6393259
vn -0.7689359 0 -0.6393259
vn 0.6053355 0 -0.7959704
vn 0.6053355 0 -0.7959704
vn 0.6053355 0 -0.7959704
vn 0.6053355 0 -0.7959704
vn 0.6053355 0 -0.7959704
vn 0.6053355 0 -0.7959704
vn 0.6053355 -3.511692E-11 -0.7959704
vn 0.6053355 -3.511692E-11 -0.7959704
vn 0.6053355 -3.511692E-11 -0.7959704
vn -0.7959923 0 -0.6053067
vn -0.7959923 0 -0.6053067
vn -0.7959923 0 -0.6053067
vn -0.7959923 0 -0.6053067
vn 0.7960009 0 0.6052955
vn 0.7960009 0 0.6052955
vn 0.7960009 0 0.6052955
vn 0.7960009 0 0.6052955
vn 0 -1 0
vn 0 -1 0
vn 0 -1 0
vn 0 -1 0
vn 0 -1 0
vn 0 -1 0
vn 0 -1 0
vn 0 -1 0
vn 0 -1 0
vn 0 -1 0
vn 0 -1 0
vn 0 -1 0

g CDNNDG01_0002370
f 1/1/1 2/2/2 3/3/3
f 4/4/4 6/6/6 7/7/7
f 5/5/5 6/6/6 4/4/4
f 8/8/8 9/9/9 10/10/10
f 11/11/11 12/12/12 13/13/13
f 14/14/14 15/15/15 16/16/16
f 17/17/17 18/18/18 19/19/19
f 20/20/20 21/21/21 22/22/22
f 23/23/23 24/24/24 25/25/25
f 26/26/26 27/27/27 28/28/28
f 29/29/29 30/30/30 31/31/31
f 32/32/32 33/33/33 34/34/34
f 35/35/35 36/36/36 37/37/37
f 38/38/38 39/39/39 40/40/40
f 41/41/41 42/42/42 43/43/43
f 44/44/44 45/45/45 46/46/46
f 47/47/47 49/49/49 50/50/50
f 49/49/49 47/47/47 48/48/48
f 54/54/54 51/51/51 52/52/52
f 53/53/53 54/54/54 52/52/52
f 55/55/55 56/56/56 57/57/57
f 61/61/61 58/58/58 60/60/60
f 60/60/60 58/58/58 59/59/59
f 62/62/62 63/63/63 64/64/64
f 65/65/65 66/66/66 67/67/67
f 68/68/68 69/69/69 70/70/70
f 71/71/71 73/73/73 74/74/74
f 73/73/73 71/71/71 72/72/72
f 75/75/75 77/77/77 78/78/78
f 77/77/77 75/75/75 76/76/76
f 79/79/79 81/81/81 82/82/82
f 81/81/81 79/79/79 80/80/80
f 84/84/84 85/85/85 86/86/86
f 83/83/83 84/84/84 86/86/86
f 87/87/87 88/88/88 89/89/89
f 90/90/90 91/91/91 92/92/92
f 93/93/93 94/94/94 95/95/95
f 96/96/96 97/97/97 98/98/98
f 99/99/99 100/100/100 101/101/101
f 104/104/104 102/102/102 103/103/103
f 102/102/102 104/104/104 105/105/105
f 107/107/107 108/108/108 109/109/109
f 106/106/106 107/107/107 109/109/109
f 110/110/110 111/111/111 112/112/112
f 113/113/113 114/114/114 115/115/115
f 116/116/116 117/117/117 118/118/118
f 120/120/120 121/121/121 122/122/122
f 119/119/119 120/120/120 122/122/122
f 126/126/126 123/123/123 125/125/125
f 124/124/124 125/125/125 123/123/123
f 138/138/138 131/131/131 133/133/133
f 127/127/127 130/130/130 131/131/131
f 134/134/134 135/135/135 136/136/136
f 128/128/128 130/130/130 127/127/127
f 129/129/129 130/130/130 128/128/128
f 137/137/137 133/133/133 136/136/136
f 138/138/138 127/127/127 131/131/131
f 131/131/131 132/132/132 133/133/133
f 136/136/136 133/133/133 134/134/134
f 133/133/133 137/137/137 138/138/138
