v 3.384094 5.246927 -5.764521
v 6.491095 4.861927 -5.384521
v 3.954095 4.861927 -6.792521
v 3.384094 5.246927 -5.764521
v 5.920094 5.246927 -4.356521
v 6.491095 4.861927 -5.384521
v -2.129905 5.670081 -3.465521
v 5.920094 5.670081 -4.356521
v 3.384094 5.670081 -5.764521
v -2.129905 5.670081 -3.465521
v 3.384094 5.670081 -5.764521
v 0.1410946 5.670081 -7.561521
v -2.129905 5.670081 -3.465521
v -0.08290541 5.670081 7.293479
v 5.920094 5.670081 -4.356521
v -7.459906 5.670081 3.130479
v -2.129905 5.670081 -3.465521
v -3.409905 5.670081 -4.175521
v 0.7150946 5.670081 7.735479
v 7.066094 5.670081 -3.722521
v 5.920094 5.670081 -4.356521
v -0.08290541 5.670081 7.293479
v -7.459906 5.670081 3.130479
v -2.716905 5.670081 5.759479
v -2.129905 5.670081 -3.465521
v -3.033906 5.670081 6.330479
v -0.3679054 5.670081 7.808479
v -0.08290541 5.670081 7.293479
v -2.716905 5.670081 5.759479
v -2.716905 5.670081 5.759479
v -0.08290541 5.670081 7.293479
v -2.129905 5.670081 -3.465521
v 5.920094 -5.653664 -4.356521
v 6.491095 -5.653664 -5.384521
v 6.491095 4.861927 -5.384521
v 5.920094 5.246927 -4.356521
v 3.954095 4.861927 -6.792521
v 5.222595 -5.653664 -6.088521
v 3.954095 -5.653664 -6.792521
v 5.222595 -5.653664 -6.088521
v 6.491095 4.861927 -5.384521
v 6.491095 -5.653664 -5.384521
v 3.954095 4.861927 -6.792521
v 6.491095 4.861927 -5.384521
v 5.222595 -5.653664 -6.088521
v 3.384094 5.246927 -5.764521
v 3.954095 4.861927 -6.792521
v 3.954095 -5.653664 -6.792521
v 3.384094 -5.653664 -5.764521
v -3.033906 5.670081 6.330479
v -2.875405 -5.653664 6.044979
v -3.033906 -5.653664 6.330479
v -2.875405 -5.653664 6.044979
v -2.716905 5.670081 5.759479
v -2.716905 -5.653664 5.759479
v -3.033906 5.670081 6.330479
v -2.716905 5.670081 5.759479
v -2.875405 -5.653664 6.044979
v -3.033906 -5.653664 6.330479
v -0.3679054 -5.653664 7.808479
v -0.3679054 5.670081 7.808479
v -3.033906 5.670081 6.330479
v -0.2254054 -5.653664 7.550979
v -0.08290541 -5.653664 7.293479
v -0.08290541 5.670081 7.293479
v -0.3679054 5.670081 7.808479
v -0.3679054 -5.653664 7.808479
v -0.2254054 -5.653664 7.550979
v -0.3679054 5.670081 7.808479
v -0.2254054 -5.653664 7.550979
v -0.08290541 5.670081 7.293479
v -0.08290541 -5.653664 7.293479
v 0.7150946 -5.653664 7.735479
v 0.7150946 5.670081 7.735479
v -0.08290541 5.670081 7.293479
v 0.7150946 -5.653664 7.735479
v 7.066094 -5.653664 -3.722521
v 7.066094 5.670081 -3.722521
v 0.7150946 5.670081 7.735479
v 5.920094 5.670081 -4.356521
v 7.066094 5.670081 -3.722521
v 5.920094 5.246927 -4.356521
v 5.920094 5.246927 -4.356521
v 7.066094 5.670081 -3.722521
v 7.066094 -5.653664 -3.722521
v 5.920094 -5.653664 -4.356521
v 0.1410946 5.670081 -7.561521
v 1.762595 -5.653664 -6.663021
v 0.1410946 -5.653664 -7.561521
v 0.1410946 5.670081 -7.561521
v 3.384094 5.670081 -5.764521
v 1.762595 -5.653664 -6.663021
v 1.762595 -5.653664 -6.663021
v 3.384094 5.670081 -5.764521
v 3.384094 5.246927 -5.764521
v 1.762595 -5.653664 -6.663021
v 3.384094 5.246927 -5.764521
v 3.384094 -5.653664 -5.764521
v 3.384094 5.670081 -5.764521
v 5.920094 5.670081 -4.356521
v 5.920094 5.246927 -4.356521
v 3.384094 5.246927 -5.764521
v -2.129905 5.670081 -3.465521
v -0.9944054 -5.653664 -5.513521
v -2.129905 -5.653664 -3.465521
v -0.9944054 -5.653664 -5.513521
v 0.1410946 5.670081 -7.561521
v 0.1410946 -5.653664 -7.561521
v -2.129905 5.670081 -3.465521
v 0.1410946 5.670081 -7.561521
v -0.9944054 -5.653664 -5.513521
v -3.409905 5.670081 -4.175521
v -2.129905 5.670081 -3.465521
v -2.129905 -5.653664 -3.465521
v -3.409905 -5.653664 -4.175521
v -7.459906 5.670081 3.130479
v -3.409905 5.670081 -4.175521
v -3.409905 -5.653664 -4.175521
v -7.459906 -5.653664 3.130479
v -7.459906 -5.653664 3.130479
v -2.716905 -5.653664 5.759479
v -2.716905 5.670081 5.759479
v -7.459906 5.670081 3.130479
v -3.409905 -5.653664 -4.175521
v -2.129905 -5.653664 -3.465521
v -0.9944054 -5.653664 -5.513521
v 0.1410946 -5.653664 -7.561521
v 1.762595 -5.653664 -6.663021
v 3.384094 -5.653664 -5.764521
v 3.954095 -5.653664 -6.792521
v 5.222595 -5.653664 -6.088521
v 6.491095 -5.653664 -5.384521
v 5.920094 -5.653664 -4.356521
v 7.066094 -5.653664 -3.722521
v 0.7150946 -5.653664 7.735479
v -0.08290541 -5.653664 7.293479
v -0.2254054 -5.653664 7.550979
v -0.3679054 -5.653664 7.808479
v -3.033906 -5.653664 6.330479
v -2.875405 -5.653664 6.044979
v -2.716905 -5.653664 5.759479
v -7.459906 -5.653664 3.130479
vt 0.890094 0.879567
vt 0.881450 0.799406
vt 0.930283 0.863132
vt 0.890094 0.879567
vt 0.841237 0.815836
vt 0.881450 0.799406
vt 0.400958 0.236138
vt 0.432923 0.030780
vt 0.482619 0.095605
vt 0.400958 0.236138
vt 0.482619 0.095605
vt 0.546042 0.178500
vt 0.400958 0.236138
vt 0.020302 0.183078
vt 0.432923 0.030780
vt 0.167246 0.371634
vt 0.400958 0.236138
vt 0.426017 0.268854
vt 0.004701 0.162681
vt 0.410546 0.001486
vt 0.432923 0.030780
vt 0.020302 0.183078
vt 0.167246 0.371634
vt 0.074454 0.250408
vt 0.400958 0.236138
vt 0.054231 0.258453
vt 0.002062 0.190311
vt 0.020302 0.183078
vt 0.074454 0.250408
vt 0.074454 0.250408
vt 0.020302 0.183078
vt 0.400958 0.236138
vt 0.179605 0.985227
vt 0.144199 0.999619
vt 0.002062 0.942414
vt 0.032669 0.925706
vt 0.051417 0.921701
vt 0.149714 0.831063
vt 0.174075 0.862719
vt 0.149714 0.831063
vt 0.002062 0.857567
vt 0.125353 0.799406
vt 0.051417 0.921701
vt 0.002062 0.857567
vt 0.149714 0.831063
vt 0.348454 0.810338
vt 0.389246 0.799406
vt 0.510972 0.884980
vt 0.475178 0.898900
vt 0.678351 0.807253
vt 0.825838 0.893215
vt 0.815902 0.897084
vt 0.825838 0.893215
vt 0.698501 0.799406
vt 0.835775 0.889345
vt 0.678351 0.807253
vt 0.698501 0.799406
vt 0.825838 0.893215
vt 0.549088 0.606241
vt 0.601708 0.672659
vt 0.453360 0.764758
vt 0.400000 0.697409
vt 0.341392 0.993328
vt 0.332531 0.996917
vt 0.185567 0.932985
vt 0.203536 0.925706
vt 0.350252 0.989739
vt 0.341392 0.993328
vt 0.203536 0.925706
vt 0.341392 0.993328
vt 0.185567 0.932985
vt 0.327641 0.799406
vt 0.343342 0.819211
vt 0.195303 0.911343
vt 0.179381 0.891260
vt 0.553342 0.440490
vt 0.155646 0.602719
vt 0.002062 0.540429
vt 0.405314 0.375929
vt 0.572855 0.093508
vt 0.550515 0.064340
vt 0.577928 0.091112
vt 0.577928 0.091112
vt 0.550515 0.064340
vt 0.684778 0.001486
vt 0.706809 0.030252
vt 0.685782 0.240589
vt 0.786955 0.134607
vt 0.818176 0.175306
vt 0.685782 0.240589
vt 0.622466 0.158052
vt 0.786955 0.134607
vt 0.786955 0.134607
vt 0.622466 0.158052
vt 0.627513 0.155623
vt 0.786955 0.134607
vt 0.627513 0.155623
vt 0.755735 0.093907
vt 0.622466 0.158052
vt 0.572855 0.093508
vt 0.577928 0.091112
vt 0.627513 0.155623
vt 0.606186 0.662744
vt 0.811406 0.725443
vt 0.739727 0.753303
vt 0.811406 0.725443
vt 0.751547 0.606241
vt 0.883086 0.697582
vt 0.606186 0.662744
vt 0.751547 0.606241
vt 0.811406 0.725443
vt 0.540349 0.897187
vt 0.515464 0.864898
vt 0.649143 0.799406
vt 0.673685 0.831249
vt 0.002062 0.707227
vt 0.261887 0.606241
vt 0.395376 0.696552
vt 0.139132 0.796142
vt 0.709712 0.375929
vt 0.803481 0.494366
vt 0.653851 0.585856
vt 0.558763 0.465760
vt 0.354639 0.925706
vt 0.354639 0.925706
vt 0.354639 0.925706
vt 0.354639 0.925706
vt 0.354639 0.925706
vt 0.354639 0.925706
vt 0.354639 0.925706
vt 0.354639 0.925706
vt 0.354639 0.925706
vt 0.354639 0.925706
vt 0.354639 0.925706
vt 0.354639 0.925706
vt 0.354639 0.925706
vt 0.354639 0.925706
vt 0.354639 0.925706
vt 0.354639 0.925706
vt 0.354639 0.925706
vt 0.354639 0.925706
vt 0.354639 0.925706
vn 0.1510444 0.9503237 -0.2721589
vn 0.1510444 0.9503237 -0.2721589
vn 0.1510444 0.9503237 -0.2721589
vn 0.1510336 0.9503617 -0.2720321
vn 0.1510336 0.9503617 -0.2720321
vn 0.1510336 0.9503617 -0.2720321
vn 0 1 0
vn 0 1 0
vn 0 1 0
vn 0 1 0
vn 0 1 0
vn 0 1 0
vn 0 1 0
vn 0 1 0
vn 0 1 0
vn 0 1 0
vn 0 1 0
vn 0 1 0
vn 0 1 0
vn 0 1 0
vn 0 1 0
vn 0 1 0
vn 0 1 0
vn 0 1 0
vn 0 1 0
vn 0 1 0
vn 0 1 0
vn 0 1 0
vn 0 1 0
vn 0 1 0
vn 0 1 0
vn 0 1 0
vn 0.8741974 0 0.4855707
vn 0.8741974 0 0.4855707
vn 0.8741974 0 0.4855707
vn 0.8741974 0 0.4855707
vn 0.4852625 0 -0.8743685
vn 0.4852625 0 -0.8743685
vn 0.4852625 0 -0.8743685
vn 0.4852625 0 -0.8743685
vn 0.4852625 0 -0.8743685
vn 0.4852625 0 -0.8743685
vn 0.4852625 4.006266E-11 -0.8743685
vn 0.4852625 4.006266E-11 -0.8743685
vn 0.4852625 4.006266E-11 -0.8743685
vn -0.8745583 0 -0.4849204
vn -0.8745583 0 -0.4849204
vn -0.8745583 0 -0.4849204
vn -0.8745583 0 -0.4849204
vn -0.8743017 0 -0.4853829
vn -0.8743017 0 -0.4853829
vn -0.8743017 0 -0.4853829
vn -0.8743017 0 -0.4853829
vn -0.8743017 0 -0.4853829
vn -0.8743017 0 -0.4853829
vn -0.8743017 -2.247095E-12 -0.4853829
vn -0.8743017 -2.247095E-12 -0.4853829
vn -0.8743017 -2.247095E-12 -0.4853829
vn -0.4848628 0 0.8745902
vn -0.4848628 0 0.8745902
vn -0.4848628 0 0.8745902
vn -0.4848628 0 0.8745902
vn 0.8749575 0 0.4841998
vn 0.8749575 0 0.4841998
vn 0.8749575 0 0.4841998
vn 0.8749575 0 0.4841998
vn 0.8749575 0 0.4841998
vn 0.8749575 0 0.4841998
vn 0.8749575 0 0.4841998
vn 0.8749575 0 0.4841998
vn 0.8749575 0 0.4841998
vn -0.4845257 0 0.8747771
vn -0.4845257 0 0.8747771
vn -0.4845257 0 0.8747771
vn -0.4845257 0 0.8747771
vn 0.8746285 0 0.4847937
vn 0.8746285 0 0.4847937
vn 0.8746285 0 0.4847937
vn 0.8746285 0 0.4847937
vn 0.4840863 0 -0.8750203
vn 0.4840863 0 -0.8750203
vn 0.4840863 0 -0.8750203
vn 0.4840863 0 -0.8750203
vn 0.4840863 0 -0.8750203
vn 0.4840863 0 -0.8750203
vn 0.4840863 0 -0.8750203
vn 0.4846808 0 -0.8746911
vn 0.4846808 0 -0.8746911
vn 0.4846808 0 -0.8746911
vn 0.4846808 -3.596953E-11 -0.8746911
vn 0.4846808 -3.596953E-11 -0.8746911
vn 0.4846808 -3.596953E-11 -0.8746911
vn 0.4846808 0 -0.8746911
vn 0.4846808 0 -0.8746911
vn 0.4846808 0 -0.8746911
vn 0.4846808 0 -0.8746911
vn 0.4846808 0 -0.8746911
vn 0.4846808 0 -0.8746911
vn 0.4854088 0 -0.8742874
vn 0.4854088 0 -0.8742874
vn 0.4854088 0 -0.8742874
vn 0.4854088 0 -0.8742874
vn -0.8745699 0 -0.4848995
vn -0.8745699 0 -0.4848995
vn -0.8745699 0 -0.4848995
vn -0.8745699 0 -0.4848995
vn -0.8745699 0 -0.4848995
vn -0.8745699 0 -0.4848995
vn -0.8745699 1.769251E-11 -0.4848995
vn -0.8745699 1.769251E-11 -0.4848995
vn -0.8745699 1.769251E-11 -0.4848995
vn 0.4850627 0 -0.8744794
vn 0.4850627 0 -0.8744794
vn 0.4850627 0 -0.8744794
vn 0.4850627 0 -0.8744794
vn -0.8746086 0 -0.4848296
vn -0.8746086 0 -0.4848296
vn -0.8746086 0 -0.4848296
vn -0.8746086 0 -0.4848296
vn -0.4847972 0 0.8746266
vn -0.4847972 0 0.8746266
vn -0.4847972 0 0.8746266
vn -0.4847972 0 0.8746266
vn 0 -1 0
vn 0 -1 0
vn 0 -1 0
vn 0 -1 0
vn 0 -1 0
vn 0 -1 0
vn 0 -1 0
vn 0 -1 0
vn 0 -1 0
vn 0 -1 0
vn 0 -1 0
vn 0 -1 0
vn 0 -1 0
vn 0 -1 0
vn 0 -1 0
vn 0 -1 0
vn 0 -1 0
vn 0 -1 0
vn 0 -1 0

g CDNNDG01_0000620
f 1/1/1 2/2/2 3/3/3
f 4/4/4 5/5/5 6/6/6
f 7/7/7 8/8/8 9/9/9
f 10/10/10 11/11/11 12/12/12
f 13/13/13 14/14/14 15/15/15
f 16/16/16 17/17/17 18/18/18
f 19/19/19 20/20/20 22/22/22
f 22/22/22 20/20/20 21/21/21
f 23/23/23 24/24/24 25/25/25
f 26/26/26 27/27/27 28/28/28
f 29/29/29 26/26/26 28/28/28
f 30/30/30 31/31/31 32/32/32
f 34/34/34 35/35/35 33/33/33
f 33/33/33 35/35/35 36/36/36
f 37/37/37 38/38/38 39/39/39
f 40/40/40 41/41/41 42/42/42
f 43/43/43 44/44/44 45/45/45
f 47/47/47 48/48/48 49/49/49
f 46/46/46 47/47/47 49/49/49
f 50/50/50 51/51/51 52/52/52
f 53/53/53 54/54/54 55/55/55
f 56/56/56 57/57/57 58/58/58
f 62/62/62 59/59/59 61/61/61
f 61/61/61 59/59/59 60/60/60
f 63/63/63 64/64/64 65/65/65
f 66/66/66 67/67/67 68/68/68
f 69/69/69 70/70/70 71/71/71
f 72/72/72 74/74/74 75/75/75
f 74/74/74 72/72/72 73/73/73
f 79/79/79 76/76/76 78/78/78
f 77/77/77 78/78/78 76/76/76
f 80/80/80 81/81/81 82/82/82
f 85/85/85 83/83/83 84/84/84
f 83/83/83 85/85/85 86/86/86
f 87/87/87 88/88/88 89/89/89
f 90/90/90 91/91/91 92/92/92
f 93/93/93 94/94/94 95/95/95
f 96/96/96 97/97/97 98/98/98
f 99/99/99 101/101/101 102/102/102
f 99/99/99 100/100/100 101/101/101
f 103/103/103 104/104/104 105/105/105
f 106/106/106 107/107/107 108/108/108
f 109/109/109 110/110/110 111/111/111
f 114/114/114 112/112/112 113/113/113
f 112/112/112 114/114/114 115/115/115
f 119/119/119 116/116/116 118/118/118
f 118/118/118 116/116/116 117/117/117
f 123/123/123 120/120/120 122/122/122
f 122/122/122 120/120/120 121/121/121
f 124/124/124 125/125/125 142/142/142
f 136/136/136 140/140/140 141/141/141
f 128/128/128 126/126/126 127/127/127
f 125/125/125 141/141/141 142/142/142
f 125/125/125 126/126/126 129/129/129
f 126/126/126 128/128/128 129/129/129
f 137/137/137 139/139/139 140/140/140
f 131/131/131 129/129/129 130/130/130
f 125/125/125 129/129/129 133/133/133
f 137/137/137 138/138/138 139/139/139
f 129/129/129 131/131/131 133/133/133
f 136/136/136 137/137/137 140/140/140
f 131/131/131 132/132/132 133/133/133
f 125/125/125 133/133/133 136/136/136
f 125/125/125 136/136/136 141/141/141
f 133/133/133 134/134/134 136/136/136
f 134/134/134 135/135/135 136/136/136
