v -4.823555 5.865626 -0.6193814
v -4.635555 5.415626 0.1556187
v -4.125556 5.415626 -0.7893813
v 1.347445 5.185626 7.332619
v 6.561793 5.023626 -1.979905
v 6.392445 5.185626 -2.049381
v 1.347445 5.185626 7.332619
v 6.899445 4.700626 -1.841381
v 6.561793 5.023626 -1.979905
v 1.347445 5.185626 7.332619
v 1.578445 4.700626 7.970619
v 6.899445 4.700626 -1.841381
v -7.513556 4.700626 3.033619
v 1.578445 4.700626 7.970619
v 1.347445 5.185626 7.332619
v -7.513556 4.700626 3.033619
v 1.347445 5.185626 7.332619
v -7.277555 5.185626 2.596619
v -1.464556 5.023626 -7.505381
v 6.392445 5.023626 -2.049381
v -1.251555 5.023626 -7.882381
v -4.635555 5.023626 0.1556187
v 1.347445 5.023626 7.332619
v -4.125556 5.023626 -0.7893813
v -4.125556 5.023626 -0.7893813
v 1.347445 5.023626 7.332619
v 6.392445 5.023626 -2.049381
v -7.277555 5.023626 2.596619
v 1.347445 5.023626 7.332619
v -4.635555 5.023626 0.1556187
v -4.823555 5.023626 -0.6193814
v -4.125556 5.023626 -0.7893813
v -1.464556 5.023626 -7.505381
v -4.125556 5.023626 -0.7893813
v 6.392445 5.023626 -2.049381
v -1.464556 5.023626 -7.505381
v -7.277555 5.023626 2.596619
v -4.635555 5.023626 0.1556187
v -4.823555 5.023626 -0.6193814
v -7.277555 5.023626 2.596619
v -4.823555 5.023626 -0.6193814
v -1.464556 5.023626 -7.505381
v -7.277555 5.023626 2.596619
v -1.464556 5.023626 -7.505381
v -1.754555 5.023626 -7.640381
v -1.251555 5.023626 -7.882381
v 6.392445 5.023626 -2.049381
v 7.504445 5.023626 -2.953381
v 6.392445 5.023626 -2.049381
v 6.561793 5.023626 -1.979905
v 7.504445 5.023626 -2.953381
v 6.561793 5.023626 -1.979905
v 6.899445 5.023626 -1.841381
v 7.504445 5.023626 -2.953381
v -4.823555 5.865626 -0.6193814
v -4.635555 5.023626 0.1556187
v -4.635555 5.415626 0.1556187
v -4.823555 5.865626 -0.6193814
v -4.823555 5.023626 -0.6193814
v -4.635555 5.023626 0.1556187
v -4.635555 5.023626 0.1556187
v -4.125556 5.023626 -0.7893813
v -4.125556 5.415626 -0.7893813
v -4.635555 5.415626 0.1556187
v -4.823555 5.865626 -0.6193814
v -4.125556 5.023626 -0.7893813
v -4.823555 5.023626 -0.6193814
v -4.823555 5.865626 -0.6193814
v -4.125556 5.415626 -0.7893813
v -4.125556 5.023626 -0.7893813
v 1.578445 -5.01868 7.970619
v 6.899445 -5.01868 -1.841381
v 6.899445 4.700626 -1.841381
v 1.578445 4.700626 7.970619
v 6.899445 -5.01868 -1.841381
v 7.504445 -5.01868 -2.953381
v 7.504445 5.023626 -2.953381
v 6.899445 4.700626 -1.841381
v 6.899445 5.023626 -1.841381
v 6.899445 4.700626 -1.841381
v 7.504445 5.023626 -2.953381
v 6.392445 5.185626 -2.049381
v 6.561793 5.023626 -1.979905
v 6.392445 5.023626 -2.049381
v 1.347445 5.185626 7.332619
v 6.392445 5.185626 -2.049381
v 6.392445 5.023626 -2.049381
v 1.347445 5.023626 7.332619
v -7.513556 -5.01868 3.033619
v 1.578445 -5.01868 7.970619
v 1.578445 4.700626 7.970619
v -7.513556 4.700626 3.033619
v -7.277555 5.185626 2.596619
v 1.347445 5.185626 7.332619
v 1.347445 5.023626 7.332619
v -7.277555 5.023626 2.596619
v -7.513556 4.700626 3.033619
v -7.395555 -5.01868 2.815119
v -7.513556 -5.01868 3.033619
v -7.513556 4.700626 3.033619
v -7.277555 5.185626 2.596619
v -7.395555 -5.01868 2.815119
v -7.395555 -5.01868 2.815119
v -7.277555 5.185626 2.596619
v -7.277555 5.023626 2.596619
v -7.395555 -5.01868 2.815119
v -7.277555 5.023626 2.596619
v -7.277555 -5.01868 2.596619
v -7.277555 5.023626 2.596619
v -1.754555 5.023626 -7.640381
v -1.754555 -5.01868 -7.640381
v -7.277555 -5.01868 2.596619
v -1.251555 5.023626 -7.882381
v 7.504445 5.023626 -2.953381
v 7.504445 -5.01868 -2.953381
v -1.251555 -5.01868 -7.882381
v -1.464556 5.023626 -7.505381
v -1.251555 5.023626 -7.882381
v -1.251555 -5.01868 -7.882381
v -1.464556 -5.01868 -7.505381
v -1.754555 5.023626 -7.640381
v -1.464556 5.023626 -7.505381
v -1.464556 -5.01868 -7.505381
v -1.754555 -5.01868 -7.640381
v 6.561793 5.023626 -1.979905
v 6.899445 4.700626 -1.841381
v 6.899445 5.023626 -1.841381
v -7.277555 -5.01868 2.596619
v -1.754555 -5.01868 -7.640381
v -1.464556 -5.01868 -7.505381
v -1.251555 -5.01868 -7.882381
v 7.504445 -5.01868 -2.953381
v 6.899445 -5.01868 -1.841381
v 1.578445 -5.01868 7.970619
v -7.513556 -5.01868 3.033619
v -7.395555 -5.01868 2.815119
vt 0.848425 0.852900
vt 0.880103 0.860346
vt 0.850204 0.872092
vt 0.314389 0.852900
vt 0.006995 0.981387
vt 0.001969 0.976112
vt 0.314389 0.852900
vt 0.017011 0.991897
vt 0.006995 0.981387
vt 0.314389 0.852900
vt 0.343540 0.862040
vt 0.017011 0.991897
vt 0.024311 0.632249
vt 0.193419 0.849995
vt 0.164246 0.847249
vt 0.024311 0.632249
vt 0.164246 0.847249
vt 0.001969 0.640579
vt 0.499329 0.217871
vt 0.316899 0.028142
vt 0.511985 0.212767
vt 0.242232 0.293694
vt 0.001969 0.148998
vt 0.273952 0.281478
vt 0.273952 0.281478
vt 0.001969 0.148998
vt 0.316899 0.028142
vt 0.160210 0.357164
vt 0.001969 0.148998
vt 0.242232 0.293694
vt 0.268206 0.298283
vt 0.273952 0.281478
vt 0.499329 0.217871
vt 0.273952 0.281478
vt 0.316899 0.028142
vt 0.499329 0.217871
vt 0.160210 0.357164
vt 0.242232 0.293694
vt 0.268206 0.298283
vt 0.160210 0.357164
vt 0.268206 0.298283
vt 0.499329 0.217871
vt 0.160210 0.357164
vt 0.499329 0.217871
vt 0.503837 0.224868
vt 0.511985 0.212767
vt 0.316899 0.028142
vt 0.347287 0.001414
vt 0.316899 0.028142
vt 0.314580 0.024056
vt 0.347287 0.001414
vt 0.314580 0.024056
vt 0.309958 0.015909
vt 0.347287 0.001414
vt 0.956693 0.856483
vt 0.994926 0.856380
vt 0.988788 0.858049
vt 0.956693 0.856483
vt 0.969909 0.852900
vt 0.994926 0.856380
vt 0.937719 0.855767
vt 0.907658 0.867298
vt 0.901575 0.864436
vt 0.931650 0.852900
vt 0.885827 0.866399
vt 0.896780 0.854796
vt 0.891653 0.870459
vt 0.885827 0.866399
vt 0.894072 0.852900
vt 0.896780 0.854796
vt 0.852872 0.435003
vt 0.529544 0.563788
vt 0.373065 0.491001
vt 0.700241 0.360679
vt 0.529544 0.563788
vt 0.492903 0.578430
vt 0.330709 0.503375
vt 0.373065 0.491001
vt 0.367800 0.488552
vt 0.373065 0.491001
vt 0.330709 0.503375
vt 0.012326 0.999764
vt 0.011811 0.995757
vt 0.012978 0.998827
vt 0.348425 0.971132
vt 0.664376 0.852900
vt 0.665664 0.853784
vt 0.349776 0.971993
vt 0.157592 0.360679
vt 0.325386 0.576119
vt 0.171773 0.628654
vt 0.001969 0.410641
vt 0.356112 0.840705
vt 0.198819 0.633514
vt 0.200169 0.632249
vt 0.357432 0.839399
vt 0.362205 0.769379
vt 0.447982 0.815295
vt 0.440703 0.818038
vt 0.362205 0.769379
vt 0.372979 0.761367
vt 0.447982 0.815295
vt 0.447982 0.815295
vt 0.372979 0.761367
vt 0.374301 0.762190
vt 0.447982 0.815295
vt 0.374301 0.762190
vt 0.455261 0.812553
vt 0.374301 0.762190
vt 0.719542 0.632249
vt 0.796306 0.684195
vt 0.455261 0.812553
vt 0.682069 0.287901
vt 0.517717 0.077201
vt 0.596573 0.001414
vt 0.758925 0.209557
vt 0.755906 0.857831
vt 0.768404 0.852900
vt 0.843740 0.904107
vt 0.831393 0.908978
vt 0.675689 0.937296
vt 0.671260 0.930400
vt 0.747046 0.852900
vt 0.751421 0.859712
vt 0.942913 0.852900
vt 0.951382 0.858170
vt 0.946941 0.859694
vt 0.001969 0.995757
vt 0.001969 0.995757
vt 0.001969 0.995757
vt 0.001969 0.995757
vt 0.001969 0.995757
vt 0.001969 0.995757
vt 0.001969 0.995757
vt 0.001969 0.995757
vt 0.001969 0.995757
vn 0.5673866 0.7644008 0.3062086
vn 0.5673866 0.7644008 0.3062086
vn 0.5673866 0.7644008 0.3062086
vn 0.5854796 0.7470577 0.314831
vn 0.5854796 0.7470577 0.314831
vn 0.5854796 0.7470577 0.314831
vn 0.5854796 0.7470577 0.314831
vn 0.5854796 0.7470577 0.314831
vn 0.5854796 0.7470577 0.314831
vn 0.6075273 0.7227499 0.3294591
vn 0.6075273 0.7227499 0.3294591
vn 0.6075273 0.7227499 0.3294591
vn -0.3496526 0.6805202 0.6439217
vn -0.3496526 0.6805202 0.6439217
vn -0.3496526 0.6805202 0.6439217
vn -0.3362805 0.7154424 0.6124195
vn -0.3362805 0.7154424 0.6124195
vn -0.3362805 0.7154424 0.6124195
vn 0 1 0
vn 0 1 0
vn 0 1 0
vn 0 1 0
vn 0 1 0
vn 0 1 0
vn 0 1 0
vn 0 1 0
vn 0 1 0
vn 0 1 0
vn 0 1 0
vn 0 1 0
vn 0 1 0
vn 0 1 0
vn 0 1 0
vn 0 1 0
vn 0 1 0
vn 0 1 0
vn 0 1 0
vn 0 1 0
vn 0 1 0
vn 0 1 0
vn 0 1 0
vn 0 1 0
vn 0 1 0
vn 0 1 0
vn 0 1 0
vn 0 1 0
vn 0 1 0
vn 0 1 0
vn 0 1 0
vn 0 1 0
vn 0 1 0
vn 0 1 0
vn 0 1 0
vn 0 1 0
vn -0.9718153 0 0.2357436
vn -0.9718153 0 0.2357436
vn -0.9718153 0 0.2357436
vn -0.9718153 0 0.2357436
vn -0.9718153 0 0.2357436
vn -0.9718153 0 0.2357436
vn 0.8800222 0 0.4749326
vn 0.8800222 0 0.4749326
vn 0.8800222 0 0.4749326
vn 0.8800222 0 0.4749326
vn -0.2366357 0 -0.9715984
vn -0.2366357 0 -0.9715984
vn -0.2366357 0 -0.9715984
vn -0.2366357 0 -0.9715984
vn -0.2366357 0 -0.9715984
vn -0.2366357 0 -0.9715984
vn 0.8790605 0 0.4767102
vn 0.8790605 0 0.4767102
vn 0.8790605 0 0.4767102
vn 0.8790605 0 0.4767102
vn 0.8784083 0 0.477911
vn 0.8784083 0 0.477911
vn 0.8784083 0 0.477911
vn 0.8784083 0 0.477911
vn 0.8784083 0 0.477911
vn 0.8784083 0 0.477911
vn 0.8784083 0 0.477911
vn 0.3795564 0 -0.9251686
vn 0.3795564 0 -0.9251686
vn 0.3795564 0 -0.9251686
vn -0.8807392 0 -0.4736015
vn -0.8807392 0 -0.4736015
vn -0.8807392 0 -0.4736015
vn -0.8807392 0 -0.4736015
vn -0.4771921 0 0.878799
vn -0.4771921 0 0.878799
vn -0.4771921 0 0.878799
vn -0.4771921 0 0.878799
vn 0.4813139 0 -0.8765483
vn 0.4813139 0 -0.8765483
vn 0.4813139 0 -0.8765483
vn 0.4813139 0 -0.8765483
vn -0.8798885 0 -0.4751801
vn -0.8798885 0 -0.4751801
vn -0.8798885 0 -0.4751801
vn -0.8798885 -2.221213E-11 -0.4751801
vn -0.8798885 -2.221213E-11 -0.4751801
vn -0.8798885 -2.221213E-11 -0.4751801
vn -0.8798885 0 -0.4751801
vn -0.8798885 0 -0.4751801
vn -0.8798885 0 -0.4751801
vn -0.8798885 0 -0.4751801
vn -0.8798885 0 -0.4751801
vn -0.8798885 0 -0.4751801
vn -0.8800843 0 -0.4748174
vn -0.8800843 0 -0.4748174
vn -0.8800843 0 -0.4748174
vn -0.8800843 0 -0.4748174
vn 0.4905447 0 -0.871416
vn 0.4905447 0 -0.871416
vn 0.4905447 0 -0.871416
vn 0.4905447 0 -0.871416
vn -0.8706489 0 -0.4919051
vn -0.8706489 0 -0.4919051
vn -0.8706489 0 -0.4919051
vn -0.8706489 0 -0.4919051
vn 0.4220296 0 -0.9065821
vn 0.4220296 0 -0.9065821
vn 0.4220296 0 -0.9065821
vn 0.4220296 0 -0.9065821
vn -0.3795564 0 0.9251686
vn -0.3795564 0 0.9251686
vn -0.3795564 0 0.9251686
vn 0 -1 0
vn 0 -1 0
vn 0 -1 0
vn 0 -1 0
vn 0 -1 0
vn 0 -1 0
vn 0 -1 0
vn 0 -1 0
vn 0 -1 0

g CDNNDG01_0002810
f 1/1/1 2/2/2 3/3/3
f 4/4/4 5/5/5 6/6/6
f 7/7/7 8/8/8 9/9/9
f 10/10/10 11/11/11 12/12/12
f 13/13/13 14/14/14 15/15/15
f 16/16/16 17/17/17 18/18/18
f 19/19/19 20/20/20 21/21/21
f 22/22/22 23/23/23 24/24/24
f 25/25/25 26/26/26 27/27/27
f 28/28/28 29/29/29 30/30/30
f 31/31/31 32/32/32 33/33/33
f 34/34/34 35/35/35 36/36/36
f 37/37/37 38/38/38 39/39/39
f 40/40/40 41/41/41 42/42/42
f 43/43/43 44/44/44 45/45/45
f 46/46/46 47/47/47 48/48/48
f 49/49/49 50/50/50 51/51/51
f 52/52/52 53/53/53 54/54/54
f 55/55/55 56/56/56 57/57/57
f 58/58/58 59/59/59 60/60/60
f 64/64/64 61/61/61 63/63/63
f 62/62/62 63/63/63 61/61/61
f 65/65/65 66/66/66 67/67/67
f 68/68/68 69/69/69 70/70/70
f 74/74/74 71/71/71 73/73/73
f 72/72/72 73/73/73 71/71/71
f 76/76/76 77/77/77 78/78/78
f 75/75/75 76/76/76 78/78/78
f 79/79/79 80/80/80 81/81/81
f 82/82/82 83/83/83 84/84/84
f 85/85/85 87/87/87 88/88/88
f 85/85/85 86/86/86 87/87/87
f 89/89/89 91/91/91 92/92/92
f 91/91/91 89/89/89 90/90/90
f 93/93/93 95/95/95 96/96/96
f 93/93/93 94/94/94 95/95/95
f 97/97/97 98/98/98 99/99/99
f 100/100/100 101/101/101 102/102/102
f 103/103/103 104/104/104 105/105/105
f 106/106/106 107/107/107 108/108/108
f 109/109/109 111/111/111 112/112/112
f 109/109/109 110/110/110 111/111/111
f 116/116/116 113/113/113 115/115/115
f 114/114/114 115/115/115 113/113/113
f 117/117/117 118/118/118 119/119/119
f 120/120/120 117/117/117 119/119/119
f 121/121/121 123/123/123 124/124/124
f 121/121/121 122/122/122 123/123/123
f 125/125/125 126/126/126 127/127/127
f 136/136/136 134/134/134 135/135/135
f 136/136/136 128/128/128 134/134/134
f 130/130/130 131/131/131 132/132/132
f 134/134/134 128/128/128 133/133/133
f 130/130/130 128/128/128 129/129/129
f 132/132/132 133/133/133 130/130/130
f 133/133/133 128/128/128 130/130/130
