v -1.1545 3.14425 -5.657
v -5.4165 3.14425 1.999
v 5.4165 3.14425 -1.999
v 1.1545 3.14425 5.657
v -5.4165 3.14425 1.999
v -5.4165 -3.14425 1.999
v 1.1545 3.14425 5.657
v 1.1545 -3.14425 5.657
v 1.1545 3.14425 5.657
v 1.1545 -3.14425 5.657
v 5.4165 3.14425 -1.999
v 5.4165 -3.14425 -1.999
v -1.1545 -3.14425 -5.657
v -1.1545 3.14425 -5.657
v 5.4165 -3.14425 -1.999
v 5.4165 3.14425 -1.999
v -5.4165 3.14425 1.999
v -1.1545 -3.14425 -5.657
v -5.4165 -3.14425 1.999
v -1.1545 3.14425 -5.657
v -5.4165 -3.14425 1.999
v -1.1545 -3.14425 -5.657
v 5.4165 -3.14425 -1.999
v 1.1545 -3.14425 5.657
vt 0.001919 0.427971
vt 0.251390 0.328841
vt 0.122880 0.578217
vt 0.372345 0.479095
vt 0.976967 0.800539
vt 0.976967 0.800539
vt 0.976967 0.800539
vt 0.976967 0.800539
vt 0.457030 0.800539
vt 0.414831 0.842399
vt 0.207268 0.899532
vt 0.166987 0.940632
vt 0.001919 0.842901
vt 0.041066 0.800539
vt 0.121374 0.992239
vt 0.161443 0.951032
vt 0.749774 0.835367
vt 0.462572 0.898549
vt 0.709158 0.800539
vt 0.501287 0.934131
vt 0.986564 0.800539
vt 0.986564 0.800539
vt 0.986564 0.800539
vt 0.986564 0.800539
vn 0 1 0
vn 0 1 0
vn 0 1 0
vn 0 1 0
vn -0.4863992 0 0.8737367
vn -0.4863992 0 0.8737367
vn -0.4863992 0 0.8737367
vn -0.4863992 0 0.8737367
vn 0.873737 0 0.4863985
vn 0.873737 0 0.4863985
vn 0.873737 0 0.4863985
vn 0.873737 0 0.4863985
vn 0.4863992 0 -0.8737367
vn 0.4863992 0 -0.8737367
vn 0.4863992 0 -0.8737367
vn 0.4863992 0 -0.8737367
vn -0.873737 0 -0.4863985
vn -0.873737 0 -0.4863985
vn -0.873737 0 -0.4863985
vn -0.873737 0 -0.4863985
vn 0 -1 0
vn 0 -1 0
vn 0 -1 0
vn 0 -1 0

g CDNNDG01_0003950
f 1/1/1 2/2/2 3/3/3
f 3/3/3 2/2/2 4/4/4
f 5/5/5 6/6/6 7/7/7
f 7/7/7 6/6/6 8/8/8
f 9/9/9 10/10/10 11/11/11
f 12/12/12 11/11/11 10/10/10
f 13/13/13 14/14/14 15/15/15
f 16/16/16 15/15/15 14/14/14
f 17/17/17 18/18/18 19/19/19
f 17/17/17 20/20/20 18/18/18
f 21/21/21 22/22/22 23/23/23
f 23/23/23 24/24/24 21/21/21
