v 2.232368 6.802401 9.609561
v 2.975368 6.802401 8.641561
v 2.310367 6.802401 8.130561
v 1.566368 6.802401 9.09856
v 9.595367 6.802401 0.04356056
v 9.920367 6.802401 -0.8774394
v 9.612368 6.802401 -1.125439
v 8.766368 6.802401 -0.6004394
v 9.595367 6.802401 0.04356056
v 10.13937 6.802401 -0.6564394
v 9.920367 6.802401 -0.8774394
v 8.766368 6.802401 -0.6004394
v 9.612368 6.802401 -1.125439
v 9.311367 6.802401 -1.357439
v -9.183633 5.612401 0.6855606
v -1.304633 5.612401 -9.53844
v -1.810633 4.855401 -9.86344
v -10.00363 4.855401 0.9095606
v -9.183633 5.612401 0.6855606
v -1.810633 4.855401 -9.86344
v -10.00363 4.855401 0.9095606
v 1.758367 4.855401 9.854561
v -9.183633 5.612401 0.6855606
v -9.183633 5.612401 0.6855606
v 1.566368 5.480806 9.09856
v 1.62812 5.612401 9.018216
v -9.183633 5.612401 0.6855606
v 1.758367 4.855401 9.854561
v 1.566368 5.480806 9.09856
v 1.566368 5.480806 9.09856
v 1.758367 4.855401 9.854561
v 1.736866 5.481409 9.229379
v 2.310367 5.612401 8.130561
v 2.389785 5.612401 8.191586
v 9.311367 5.612401 -1.357439
v -1.304633 5.612401 -9.53844
v 2.310367 5.612401 8.130561
v 9.311367 5.612401 -1.357439
v -9.183633 5.612401 0.6855606
v 1.62812 5.612401 9.018216
v 2.310367 5.612401 8.130561
v -9.183633 5.612401 0.6855606
v 2.310367 5.612401 8.130561
v -1.304633 5.612401 -9.53844
v 2.389785 5.612401 8.191586
v 2.415924 5.612401 8.211672
v 9.042438 5.612401 -0.3859772
v 2.389785 5.612401 8.191586
v 8.766368 5.612401 -0.6004394
v 9.311367 5.612401 -1.357439
v 2.389785 5.612401 8.191586
v 9.042438 5.612401 -0.3859772
v 8.766368 5.612401 -0.6004394
v 2.443136 5.546688 8.232583
v 9.332222 4.909776 -0.1608614
v 9.042438 5.612401 -0.3859772
v 2.415924 5.612401 8.211672
v 2.443136 5.546688 8.232583
v 9.042438 5.612401 -0.3859772
v 2.789507 4.855401 8.498742
v 9.359357 4.855401 -0.1397816
v 9.332222 4.909776 -0.1608614
v 2.443136 5.546688 8.232583
v 2.789507 4.855401 8.498742
v 9.332222 4.909776 -0.1608614
v 1.736866 5.481409 9.229379
v 1.758367 4.855401 9.854561
v 2.050704 4.855401 9.470176
v 2.603868 -5.586608 9.125561
v 2.975368 -5.586608 8.641561
v 2.975368 6.802401 8.641561
v 2.232368 6.802401 9.609561
v 2.232368 -5.586608 9.609561
v 2.603868 -5.586608 9.125561
v 2.232368 6.802401 9.609561
v 2.603868 -5.586608 9.125561
v 2.975368 6.802401 8.641561
v 2.310367 6.802401 8.130561
v 2.389785 5.612401 8.191586
v 2.310367 5.612401 8.130561
v 2.310367 6.802401 8.130561
v 2.415924 5.612401 8.211672
v 2.389785 5.612401 8.191586
v 2.310367 6.802401 8.130561
v 2.443136 5.546688 8.232583
v 2.415924 5.612401 8.211672
v 2.443136 5.546688 8.232583
v 2.975368 6.802401 8.641561
v 2.789507 4.855401 8.498742
v 2.310367 6.802401 8.130561
v 2.975368 6.802401 8.641561
v 2.443136 5.546688 8.232583
v 2.789507 4.855401 8.498742
v 2.975368 -5.586608 8.641561
v 2.789507 -5.586608 8.498742
v 2.789507 4.855401 8.498742
v 2.975368 6.802401 8.641561
v 2.975368 -5.586608 8.641561
v 1.566368 6.802401 9.09856
v 1.62812 5.612401 9.018216
v 1.566368 5.480806 9.09856
v 1.62812 5.612401 9.018216
v 2.310367 6.802401 8.130561
v 2.310367 5.612401 8.130561
v 1.566368 6.802401 9.09856
v 2.310367 6.802401 8.130561
v 1.62812 5.612401 9.018216
v 2.050704 4.855401 9.470176
v 2.232368 -5.586608 9.609561
v 2.232368 6.802401 9.609561
v 1.736866 5.481409 9.229379
v 2.050704 4.855401 9.470176
v 2.232368 6.802401 9.609561
v 2.050704 4.855401 9.470176
v 2.050704 -5.586608 9.470176
v 2.232368 -5.586608 9.609561
v 1.566368 6.802401 9.09856
v 1.566368 5.480806 9.09856
v 1.736866 5.481409 9.229379
v 1.566368 6.802401 9.09856
v 1.736866 5.481409 9.229379
v 2.232368 6.802401 9.609561
v 9.359357 4.855401 -0.1397816
v 9.595367 -5.586608 0.04356056
v 9.595367 6.802401 0.04356056
v 9.332222 4.909776 -0.1608614
v 9.359357 4.855401 -0.1397816
v 9.595367 6.802401 0.04356056
v 9.359357 4.855401 -0.1397816
v 9.359357 -5.586608 -0.1397816
v 9.595367 -5.586608 0.04356056
v 8.766368 6.802401 -0.6004394
v 8.766368 5.612401 -0.6004394
v 9.042438 5.612401 -0.3859772
v 9.042438 5.612401 -0.3859772
v 9.332222 4.909776 -0.1608614
v 9.595367 6.802401 0.04356056
v 8.766368 6.802401 -0.6004394
v 9.042438 5.612401 -0.3859772
v 9.595367 6.802401 0.04356056
v 9.595367 -5.586608 0.04356056
v 10.13937 -5.586608 -0.6564394
v 10.13937 6.802401 -0.6564394
v 9.595367 6.802401 0.04356056
v 9.920367 6.802401 -0.8774394
v 10.13937 6.802401 -0.6564394
v 9.920367 4.855401 -0.8774394
v 9.920367 4.855401 -0.8774394
v 10.13937 6.802401 -0.6564394
v 10.13937 -5.586608 -0.6564394
v 9.920367 -5.586608 -0.8774394
v 9.612368 6.802401 -1.125439
v 9.920367 6.802401 -0.8774394
v 9.612368 5.612401 -1.125439
v 9.612368 5.612401 -1.125439
v 9.920367 6.802401 -0.8774394
v 9.920367 4.855401 -0.8774394
v 9.311367 6.802401 -1.357439
v 9.612368 6.802401 -1.125439
v 9.612368 5.612401 -1.125439
v 9.311367 5.612401 -1.357439
v -1.810633 4.855401 -9.86344
v -1.557633 -5.586608 -9.700939
v -1.810633 -5.586608 -9.86344
v -1.557633 -5.586608 -9.700939
v -1.304633 5.612401 -9.53844
v -1.304633 -5.586608 -9.53844
v -1.810633 4.855401 -9.86344
v -1.304633 5.612401 -9.53844
v -1.557633 -5.586608 -9.700939
v -1.304633 5.612401 -9.53844
v 9.311367 5.612401 -1.357439
v 9.311367 -5.586608 -1.357439
v -1.304633 -5.586608 -9.53844
v 9.612368 5.612401 -1.125439
v 9.920367 4.855401 -0.8774394
v 9.920367 -5.586608 -0.8774394
v 9.612368 -5.586608 -1.125439
v 9.311367 5.612401 -1.357439
v 9.612368 5.612401 -1.125439
v 9.612368 -5.586608 -1.125439
v 9.311367 -5.586608 -1.357439
v 8.766368 6.802401 -0.6004394
v 9.311367 6.802401 -1.357439
v 9.311367 5.612401 -1.357439
v 8.766368 5.612401 -0.6004394
v -10.00363 4.855401 0.9095606
v -1.810633 4.855401 -9.86344
v -1.810633 -5.586608 -9.86344
v -10.00363 -5.586608 0.9095606
v -10.00363 -5.586608 0.9095606
v 1.758367 -5.586608 9.854561
v 1.758367 4.855401 9.854561
v -10.00363 4.855401 0.9095606
v 1.758367 -5.586608 9.854561
v 2.050704 -5.586608 9.470176
v 2.050704 4.855401 9.470176
v 1.758367 4.855401 9.854561
v 2.789507 -5.586608 8.498742
v 9.359357 -5.586608 -0.1397816
v 9.359357 4.855401 -0.1397816
v 2.789507 4.855401 8.498742
v 1.758367 -5.586608 9.854561
v -10.00363 -5.586608 0.9095606
v -1.810633 -5.586608 -9.86344
v -1.557633 -5.586608 -9.700939
v -1.304633 -5.586608 -9.53844
v 9.311367 -5.586608 -1.357439
v 9.612368 -5.586608 -1.125439
v 9.920367 -5.586608 -0.8774394
v 10.13937 -5.586608 -0.6564394
v 9.595367 -5.586608 0.04356056
v 9.359357 -5.586608 -0.1397816
v 2.789507 -5.586608 8.498742
v 2.975368 -5.586608 8.641561
v 2.603868 -5.586608 9.125561
v 2.232368 -5.586608 9.609561
v 2.050704 -5.586608 9.470176
vt 0.842829 0.862384
vt 0.874312 0.847375
vt 0.890920 0.860789
vt 0.859437 0.875819
vt 0.895874 0.858346
vt 0.925779 0.851784
vt 0.933827 0.857987
vt 0.916772 0.875041
vt 0.895874 0.858346
vt 0.918607 0.847375
vt 0.925779 0.851784
vt 0.916772 0.875041
vt 0.933827 0.857987
vt 0.941355 0.864049
vt 0.014812 0.826228
vt 0.358291 0.661783
vt 0.363547 0.674030
vt 0.001965 0.844870
vt 0.014812 0.826228
vt 0.363547 0.674030
vt 0.674985 0.638297
vt 0.375246 0.392967
vt 0.687822 0.619623
vt 0.687822 0.619623
vt 0.404764 0.395502
vt 0.408340 0.393903
vt 0.687822 0.619623
vt 0.375246 0.392967
vt 0.404764 0.395502
vt 0.404764 0.395502
vt 0.375246 0.392967
vt 0.400380 0.391941
vt 0.031851 0.147879
vt 0.029798 0.146218
vt 0.351320 0.001221
vt 0.626565 0.223273
vt 0.031851 0.147879
vt 0.351320 0.001221
vt 0.282312 0.388296
vt 0.001965 0.162170
vt 0.031851 0.147879
vt 0.282312 0.388296
vt 0.031851 0.147879
vt 0.626565 0.223273
vt 0.029798 0.146218
vt 0.029122 0.145672
vt 0.318614 0.006864
vt 0.029798 0.146218
vt 0.325830 0.012639
vt 0.351320 0.001221
vt 0.029798 0.146218
vt 0.318614 0.006864
vt 0.325830 0.012639
vt 0.015413 0.992122
vt 0.294473 0.848116
vt 0.306889 0.856427
vt 0.016547 0.992914
vt 0.015413 0.992122
vt 0.306889 0.856427
vt 0.001965 0.982551
vt 0.293391 0.847375
vt 0.294473 0.848116
vt 0.015413 0.992122
vt 0.001965 0.982551
vt 0.294473 0.848116
vt 0.970283 0.855035
vt 0.946955 0.852681
vt 0.959001 0.847375
vt 0.328326 0.854823
vt 0.344276 0.847375
vt 0.425090 0.888005
vt 0.392704 0.903129
vt 0.312377 0.862271
vt 0.328326 0.854823
vt 0.392704 0.903129
vt 0.328326 0.854823
vt 0.425090 0.888005
vt 0.011788 0.996337
vt 0.011788 0.996337
vt 0.011788 0.996337
vt 0.011788 0.996337
vt 0.011788 0.996337
vt 0.011788 0.996337
vt 0.011788 0.996337
vt 0.011788 0.996337
vt 0.011788 0.996337
vt 0.011788 0.996337
vt 0.011788 0.996337
vt 0.011788 0.996337
vt 0.011788 0.996337
vt 0.011788 0.996337
vt 0.011788 0.996337
vt 0.011788 0.996337
vt 0.011788 0.996337
vt 0.011788 0.996337
vt 0.011788 0.996337
vt 0.011788 0.996337
vt 0.011788 0.996337
vt 0.001965 0.996337
vt 0.001965 0.996337
vt 0.001965 0.996337
vt 0.001965 0.996337
vt 0.001965 0.996337
vt 0.001965 0.996337
vt 0.001965 0.996337
vt 0.001965 0.996337
vt 0.001965 0.996337
vt 0.812906 0.855483
vt 0.740668 0.875273
vt 0.821101 0.847375
vt 0.824986 0.860400
vt 0.812906 0.855483
vt 0.821101 0.847375
vt 0.812906 0.855483
vt 0.745218 0.878894
vt 0.740668 0.875273
vt 0.838035 0.860851
vt 0.829310 0.863846
vt 0.824986 0.860400
vt 0.838035 0.860851
vt 0.824986 0.860400
vt 0.821101 0.847375
vt 0.706531 0.856974
vt 0.628684 0.877636
vt 0.714046 0.847375
vt 0.707608 0.857390
vt 0.706531 0.856974
vt 0.714046 0.847375
vt 0.706531 0.856974
vt 0.634679 0.882358
vt 0.628684 0.877636
vt 0.735426 0.864215
vt 0.727082 0.867137
vt 0.719973 0.861537
vt 0.719973 0.861537
vt 0.707608 0.857390
vt 0.714046 0.847375
vt 0.735426 0.864215
vt 0.719973 0.861537
vt 0.714046 0.847375
vt 0.430255 0.858256
vt 0.453313 0.847375
vt 0.538761 0.885713
vt 0.515351 0.896760
vt 0.984283 0.847375
vt 0.984283 0.847375
vt 0.984283 0.847375
vt 0.984283 0.847375
vt 0.984283 0.847375
vt 0.984283 0.847375
vt 0.984283 0.847375
vt 0.984283 0.847375
vt 0.984283 0.847375
vt 0.984283 0.847375
vt 0.984283 0.847375
vt 0.984283 0.847375
vt 0.984283 0.847375
vt 0.984283 0.847375
vt 0.984283 0.847375
vt 0.984283 0.847375
vt 0.984283 0.847375
vt 0.984283 0.847375
vt 0.984283 0.847375
vt 0.984283 0.847375
vt 0.984283 0.847375
vt 0.984283 0.847375
vt 0.984283 0.847375
vt 0.984283 0.847375
vt 0.984283 0.847375
vt 0.984283 0.847375
vt 0.984283 0.847375
vt 0.984283 0.847375
vt 0.984283 0.847375
vt 0.984283 0.847375
vt 0.984283 0.847375
vt 0.984283 0.847375
vt 0.984283 0.847375
vt 0.984283 0.847375
vt 0.984283 0.847375
vt 0.984283 0.847375
vt 0.984283 0.847375
vt 0.984283 0.847375
vt 0.974460 0.847375
vt 0.974460 0.847375
vt 0.974460 0.847375
vt 0.974460 0.847375
vt 0.031434 0.996337
vt 0.031434 0.996337
vt 0.031434 0.996337
vt 0.031434 0.996337
vt 0.298181 0.658376
vt 0.001965 0.416065
vt 0.070478 0.391941
vt 0.370495 0.637365
vt 0.544204 0.853187
vt 0.556782 0.847375
vt 0.623909 0.881491
vt 0.611169 0.887377
vt 0.369352 0.795390
vt 0.657358 0.661783
vt 0.729870 0.694772
vt 0.438160 0.830094
vt 0.021611 0.996337
vt 0.021611 0.996337
vt 0.021611 0.996337
vt 0.021611 0.996337
vt 0.021611 0.996337
vt 0.021611 0.996337
vt 0.021611 0.996337
vt 0.021611 0.996337
vt 0.021611 0.996337
vt 0.021611 0.996337
vt 0.021611 0.996337
vt 0.021611 0.996337
vt 0.021611 0.996337
vt 0.021611 0.996337
vt 0.021611 0.996337
vt 0.021611 0.996337
vn 0 1 0
vn 0 1 0
vn 0 1 0
vn 0 1 0
vn 0 1 0
vn 0 1 0
vn 0 1 0
vn 0 1 0
vn 0 1 0
vn 0 1 0
vn 0 1 0
vn 0 1 0
vn 0 1 0
vn 0 1 0
vn -0.6210762 0.6206309 -0.4786247
vn -0.6210762 0.6206309 -0.4786247
vn -0.6210762 0.6206309 -0.4786247
vn -0.6572608 0.5640507 -0.499855
vn -0.6572608 0.5640507 -0.499855
vn -0.6572608 0.5640507 -0.499855
vn -0.4519043 0.6653458 0.59422
vn -0.4519043 0.6653458 0.59422
vn -0.4519043 0.6653458 0.59422
vn -0.4836612 0.6101171 0.627558
vn -0.4836612 0.6101171 0.627558
vn -0.4836612 0.6101171 0.627558
vn -0.4836612 0.6101171 0.627558
vn -0.4836612 0.6101171 0.627558
vn -0.4836612 0.6101171 0.627558
vn -0.4836612 0.6101171 0.627558
vn -0.4836612 0.6101171 0.627558
vn -0.4836612 0.6101171 0.627558
vn 0 1 0
vn 0 1 0
vn 0 1 0
vn 0 1 0
vn 0 1 0
vn 0 1 0
vn 0 1 0
vn 0 1 0
vn 0 1 0
vn 0 1 0
vn 0 1 0
vn 0 1 0
vn 0 1 0
vn 0 1 0
vn 0 1 0
vn 0 1 0
vn 0 1 0
vn 0 1 0
vn 0 1 0
vn 0 1 0
vn 0 1 0
vn 0.7020698 0.4629231 0.5411102
vn 0.7020698 0.4629231 0.5411102
vn 0.7020698 0.4629231 0.5411102
vn 0.7020698 0.4629231 0.5411102
vn 0.7020698 0.4629231 0.5411102
vn 0.7020698 0.4629231 0.5411102
vn 0.6728805 0.5341802 0.5117453
vn 0.6728805 0.5341802 0.5117453
vn 0.6728805 0.5341802 0.5117453
vn 0.6728805 0.5341802 0.5117453
vn 0.6728805 0.5341802 0.5117453
vn 0.6728805 0.5341802 0.5117453
vn 0.6728805 0.5341802 0.5117453
vn 0.6728805 0.5341802 0.5117453
vn 0.6728805 0.5341802 0.5117453
vn 0.7932633 0 0.6088787
vn 0.7932633 0 0.6088787
vn 0.7932633 0 0.6088787
vn 0.7932633 0 0.6088787
vn 0.7932633 0 0.6088787
vn 0.7932633 0 0.6088787
vn 0.7932633 0 0.6088787
vn 0.7932633 0 0.6088787
vn 0.7932633 0 0.6088787
vn 0.6093073 0 -0.7929342
vn 0.6093073 0 -0.7929342
vn 0.6093073 0 -0.7929342
vn 0.6093075 2.195091E-08 -0.7929341
vn 0.6093075 2.195091E-08 -0.7929341
vn 0.6093075 2.195091E-08 -0.7929341
vn 0.6093073 6.289826E-09 -0.7929341
vn 0.6093073 6.289826E-09 -0.7929341
vn 0.6093073 6.289826E-09 -0.7929341
vn 0.6093073 -1.041348E-10 -0.7929342
vn 0.6093073 -1.041348E-10 -0.7929342
vn 0.6093073 -1.041348E-10 -0.7929342
vn 0.6093073 -2.611894E-09 -0.7929342
vn 0.6093073 -2.611894E-09 -0.7929342
vn 0.6093073 -2.611894E-09 -0.7929342
vn 0.6093073 0 -0.7929342
vn 0.6093073 0 -0.7929342
vn 0.6093073 0 -0.7929342
vn 0.6093073 0 -0.7929342
vn 0.6093073 0 -0.7929342
vn 0.6093073 0 -0.7929342
vn -0.7928675 0 -0.6093941
vn -0.7928675 0 -0.6093941
vn -0.7928675 0 -0.6093941
vn -0.7928675 0 -0.609394
vn -0.7928675 0 -0.609394
vn -0.7928675 0 -0.609394
vn -0.7928675 -2.243415E-09 -0.609394
vn -0.7928675 -2.243415E-09 -0.609394
vn -0.7928675 -2.243415E-09 -0.609394
vn -0.6087316 0 0.7933762
vn -0.6087316 0 0.7933762
vn -0.6087316 0 0.7933762
vn -0.6087316 -2.302203E-09 0.7933762
vn -0.6087316 -2.302203E-09 0.7933762
vn -0.6087316 -2.302203E-09 0.7933762
vn -0.6087316 0 0.7933762
vn -0.6087316 0 0.7933762
vn -0.6087316 0 0.7933762
vn -0.6087316 0 0.7933762
vn -0.6087316 0 0.7933762
vn -0.6087316 0 0.7933762
vn -0.6087316 4.497339E-09 0.7933762
vn -0.6087316 4.497339E-09 0.7933762
vn -0.6087316 4.497339E-09 0.7933762
vn -0.6134788 0 0.7897111
vn -0.6134788 0 0.7897111
vn -0.6134788 0 0.7897111
vn -0.613479 1.31237E-08 0.7897111
vn -0.613479 1.31237E-08 0.7897111
vn -0.613479 1.31237E-08 0.7897111
vn -0.6134788 0 0.7897111
vn -0.6134788 0 0.7897111
vn -0.6134788 0 0.7897111
vn -0.6134788 0 0.7897111
vn -0.6134788 0 0.7897111
vn -0.6134788 0 0.7897111
vn -0.6134788 -4.690252E-09 0.7897112
vn -0.6134788 -4.690252E-09 0.7897112
vn -0.6134788 -4.690252E-09 0.7897112
vn -0.6134788 5.045928E-10 0.7897111
vn -0.6134788 5.045928E-10 0.7897111
vn -0.6134788 5.045928E-10 0.7897111
vn 0.7895951 0 0.6136282
vn 0.7895951 0 0.6136282
vn 0.7895951 0 0.6136282
vn 0.7895951 0 0.6136282
vn 0.7103136 0 -0.7038854
vn 0.7103136 0 -0.7038854
vn 0.7103136 0 -0.7038854
vn 0.7103136 0 -0.7038854
vn 0.7103136 0 -0.7038854
vn 0.7103136 0 -0.7038854
vn 0.7103136 0 -0.7038854
vn 0.6271591 0 -0.7788911
vn 0.6271591 0 -0.7788911
vn 0.6271591 0 -0.7788911
vn 0.6271591 0 -0.7788911
vn 0.6271591 0 -0.7788911
vn 0.6271591 0 -0.7788911
vn 0.6104735 0 -0.7920367
vn 0.6104735 0 -0.7920367
vn 0.6104735 0 -0.7920367
vn 0.6104735 0 -0.7920367
vn 0.5404214 0 -0.8413945
vn 0.5404214 0 -0.8413945
vn 0.5404214 0 -0.8413945
vn 0.5404214 0 -0.8413945
vn 0.5404214 0 -0.8413945
vn 0.5404214 0 -0.8413945
vn 0.5404214 3.766304E-11 -0.8413945
vn 0.5404214 3.766304E-11 -0.8413945
vn 0.5404214 3.766304E-11 -0.8413945
vn 0.6104065 0 -0.7920883
vn 0.6104065 0 -0.7920883
vn 0.6104065 0 -0.7920883
vn 0.6104065 0 -0.7920883
vn 0.6271591 0 -0.7788911
vn 0.6271591 0 -0.7788911
vn 0.6271591 0 -0.7788911
vn 0.6271591 0 -0.7788911
vn 0.6104735 0 -0.7920367
vn 0.6104735 0 -0.7920367
vn 0.6104735 0 -0.7920367
vn 0.6104735 0 -0.7920367
vn -0.8115547 0 -0.5842765
vn -0.8115547 0 -0.5842765
vn -0.8115547 0 -0.5842765
vn -0.8115547 0 -0.5842765
vn -0.7959657 0 -0.6053417
vn -0.7959657 0 -0.6053417
vn -0.7959657 0 -0.6053417
vn -0.7959657 0 -0.6053417
vn -0.6053355 0 0.7959704
vn -0.6053355 0 0.7959704
vn -0.6053355 0 0.7959704
vn -0.6053355 0 0.7959704
vn 0.7959592 0 0.6053503
vn 0.7959592 0 0.6053503
vn 0.7959592 0 0.6053503
vn 0.7959592 0 0.6053503
vn 0.7959592 0 0.6053503
vn 0.7959592 0 0.6053503
vn 0.7959592 0 0.6053503
vn 0.7959592 0 0.6053503
vn 0 -1 0
vn 0 -1 0
vn 0 -1 0
vn 0 -1 0
vn 0 -1 0
vn 0 -1 0
vn 0 -1 0
vn 0 -1 0
vn 0 -1 0
vn 0 -1 0
vn 0 -1 0
vn 0 -1 0
vn 0 -1 0
vn 0 -1 0
vn 0 -1 0
vn 0 -1 0

g CDNNDG01_0002390
f 1/1/1 3/3/3 4/4/4
f 1/1/1 2/2/2 3/3/3
f 5/5/5 7/7/7 8/8/8
f 5/5/5 6/6/6 7/7/7
f 9/9/9 10/10/10 11/11/11
f 12/12/12 13/13/13 14/14/14
f 15/15/15 16/16/16 17/17/17
f 18/18/18 19/19/19 20/20/20
f 21/21/21 22/22/22 23/23/23
f 24/24/24 25/25/25 26/26/26
f 27/27/27 28/28/28 29/29/29
f 30/30/30 31/31/31 32/32/32
f 33/33/33 34/34/34 35/35/35
f 36/36/36 37/37/37 38/38/38
f 39/39/39 40/40/40 41/41/41
f 42/42/42 43/43/43 44/44/44
f 45/45/45 46/46/46 47/47/47
f 48/48/48 49/49/49 50/50/50
f 51/51/51 52/52/52 53/53/53
f 54/54/54 55/55/55 56/56/56
f 57/57/57 58/58/58 59/59/59
f 60/60/60 61/61/61 62/62/62
f 63/63/63 64/64/64 65/65/65
f 66/66/66 67/67/67 68/68/68
f 69/69/69 70/70/70 71/71/71
f 72/72/72 73/73/73 74/74/74
f 75/75/75 76/76/76 77/77/77
f 78/78/78 79/79/79 80/80/80
f 81/81/81 82/82/82 83/83/83
f 84/84/84 85/85/85 86/86/86
f 87/87/87 88/88/88 89/89/89
f 90/90/90 91/91/91 92/92/92
f 93/93/93 94/94/94 95/95/95
f 96/96/96 97/97/97 98/98/98
f 99/99/99 100/100/100 101/101/101
f 102/102/102 103/103/103 104/104/104
f 105/105/105 106/106/106 107/107/107
f 108/108/108 109/109/109 110/110/110
f 111/111/111 112/112/112 113/113/113
f 114/114/114 115/115/115 116/116/116
f 117/117/117 118/118/118 119/119/119
f 120/120/120 121/121/121 122/122/122
f 123/123/123 124/124/124 125/125/125
f 126/126/126 127/127/127 128/128/128
f 129/129/129 130/130/130 131/131/131
f 132/132/132 133/133/133 134/134/134
f 135/135/135 136/136/136 137/137/137
f 138/138/138 139/139/139 140/140/140
f 142/142/142 143/143/143 141/141/141
f 141/141/141 143/143/143 144/144/144
f 145/145/145 146/146/146 147/147/147
f 151/151/151 148/148/148 150/150/150
f 150/150/150 148/148/148 149/149/149
f 152/152/152 153/153/153 154/154/154
f 155/155/155 156/156/156 157/157/157
f 158/158/158 160/160/160 161/161/161
f 158/158/158 159/159/159 160/160/160
f 162/162/162 163/163/163 164/164/164
f 165/165/165 166/166/166 167/167/167
f 168/168/168 169/169/169 170/170/170
f 174/174/174 171/171/171 172/172/172
f 172/172/172 173/173/173 174/174/174
f 176/176/176 177/177/177 178/178/178
f 175/175/175 176/176/176 178/178/178
f 179/179/179 181/181/181 182/182/182
f 179/179/179 180/180/180 181/181/181
f 183/183/183 185/185/185 186/186/186
f 183/183/183 184/184/184 185/185/185
f 187/187/187 189/189/189 190/190/190
f 187/187/187 188/188/188 189/189/189
f 191/191/191 193/193/193 194/194/194
f 193/193/193 191/191/191 192/192/192
f 196/196/196 197/197/197 198/198/198
f 195/195/195 196/196/196 198/198/198
f 199/199/199 201/201/201 202/202/202
f 199/199/199 200/200/200 201/201/201
f 204/204/204 214/214/214 218/218/218
f 218/218/218 216/216/216 217/217/217
f 214/214/214 215/215/215 216/216/216
f 203/203/203 204/204/204 218/218/218
f 204/204/204 205/205/205 206/206/206
f 204/204/204 206/206/206 207/207/207
f 204/204/204 207/207/207 214/214/214
f 207/207/207 213/213/213 214/214/214
f 207/207/207 208/208/208 213/213/213
f 216/216/216 218/218/218 214/214/214
f 208/208/208 209/209/209 213/213/213
f 211/211/211 212/212/212 213/213/213
f 209/209/209 210/210/210 213/213/213
f 210/210/210 211/211/211 213/213/213
