v -6.871994 5.150605 2.062775
v -2.236994 5.149605 5.251775
v -1.961993 5.149605 4.749775
v -7.163993 5.180605 2.596775
v -2.236994 5.149605 5.251775
v -6.871994 5.150605 2.062775
v -6.871994 5.150605 2.062775
v -1.961993 5.149605 4.749775
v -2.486994 5.154605 -5.949225
v -2.486994 5.154605 -5.949225
v 2.934641 5.151795 -4.186224
v -2.002994 5.151605 -6.835225
v -2.486994 5.154605 -5.949225
v -1.961993 5.149605 4.749775
v 2.934641 5.151795 -4.186224
v 2.934641 5.151795 -4.186224
v 5.521988 5.149605 -1.454332
v 6.081007 5.149866 -2.498225
v -1.961993 5.149605 4.749775
v 5.521988 5.149605 -1.454332
v 2.934641 5.151795 -4.186224
v -1.459246 5.149605 5.127252
v 0.3900065 5.149605 6.620775
v 0.4229408 5.149605 6.540451
v -1.674994 5.149605 5.529775
v 0.3900065 5.149605 6.620775
v -1.459246 5.149605 5.127252
v 0.6110066 5.149605 6.081775
v 1.316007 5.149605 6.399775
v 5.521988 5.149605 -1.454332
v -1.257993 5.149605 4.751775
v 0.6110066 5.149605 6.081775
v 5.521988 5.149605 -1.454332
v -1.961993 5.149605 4.749775
v -1.257993 5.149605 4.751775
v 5.521988 5.149605 -1.454332
v -1.459246 5.149605 5.127252
v 0.4229408 5.149605 6.540451
v 0.6110066 5.149605 6.081775
v -1.459246 5.149605 5.127252
v 0.6110066 5.149605 6.081775
v -1.257993 5.149605 4.751775
v -1.961993 5.149605 4.749775
v -1.674994 5.795605 5.529775
v -1.257993 5.795605 4.751775
v -2.520993 5.149605 5.771775
v -1.674994 5.795605 5.529775
v -2.236994 5.149605 5.251775
v -2.236994 5.149605 5.251775
v -1.674994 5.795605 5.529775
v -1.961993 5.149605 4.749775
v -2.002994 5.795605 -6.835225
v 6.081007 5.795605 -2.498225
v -1.585994 5.149605 -7.598225
v -1.585994 5.149605 -7.598225
v 6.081007 5.795605 -2.498225
v 7.160007 5.149605 -2.812225
v 1.316007 5.795605 6.399775
v 1.615007 5.149605 7.321775
v 6.081007 5.795605 -2.498225
v 1.615007 5.149605 7.321775
v 7.160007 5.149605 -2.812225
v 6.081007 5.795605 -2.498225
v 0.6110066 5.795605 6.081775
v 1.056007 5.149605 7.015775
v 1.316007 5.795605 6.399775
v 1.056007 5.149605 7.015775
v 1.615007 5.149605 7.321775
v 1.316007 5.795605 6.399775
v 0.3900065 5.795605 6.620775
v 0.7550066 5.149605 7.564775
v 1.056007 5.149605 7.015775
v 0.3900065 5.795605 6.620775
v 1.056007 5.149605 7.015775
v 0.6110066 5.795605 6.081775
v -2.520993 5.149605 5.771775
v 0.3900065 5.795605 6.620775
v -1.674994 5.795605 5.529775
v -2.520993 5.149605 5.771775
v 0.7550066 5.149605 7.564775
v 0.3900065 5.795605 6.620775
v -4.700493 -5.205037 3.924275
v -2.236994 -5.205037 5.251775
v -2.236994 5.149605 5.251775
v -7.163993 5.180605 2.596775
v -7.163993 -5.205037 2.596775
v -4.700493 -5.205037 3.924275
v -7.163993 5.180605 2.596775
v -4.700493 -5.205037 3.924275
v -2.236994 5.149605 5.251775
v -7.163993 5.180605 2.596775
v -6.871994 5.150605 2.062775
v -6.871994 -5.205037 2.062775
v -7.163993 -5.205037 2.596775
v -2.002994 5.795605 -6.835225
v -1.585994 5.149605 -7.598225
v -2.002994 5.151605 -6.835225
v -2.486994 5.154605 -5.949225
v -2.002994 5.151605 -6.835225
v -2.002994 -5.205037 -6.835225
v -2.486994 -5.205037 -5.949225
v -6.871994 5.150605 2.062775
v -4.679493 -5.205037 -1.943225
v -6.871994 -5.205037 2.062775
v -4.679493 -5.205037 -1.943225
v -2.486994 5.154605 -5.949225
v -2.486994 -5.205037 -5.949225
v -6.871994 5.150605 2.062775
v -2.486994 5.154605 -5.949225
v -4.679493 -5.205037 -1.943225
v -2.002994 5.151605 -6.835225
v -1.585994 5.149605 -7.598225
v -1.585994 -5.205037 -7.598225
v -2.002994 -5.205037 -6.835225
v -2.520993 5.149605 5.771775
v -2.236994 5.149605 5.251775
v -2.236994 -5.205037 5.251775
v -2.520993 -5.205037 5.771775
v -1.459246 5.149605 5.127252
v -1.257993 5.149605 4.751775
v -1.257993 5.795605 4.751775
v -1.674994 5.795605 5.529775
v -1.674994 5.149605 5.529775
v -1.459246 5.149605 5.127252
v -1.674994 5.795605 5.529775
v -1.459246 5.149605 5.127252
v -1.257993 5.795605 4.751775
v -1.961993 5.149605 4.749775
v -1.257993 5.795605 4.751775
v -1.257993 5.149605 4.751775
v 2.934641 5.151795 -4.186224
v 6.081007 5.149866 -2.498225
v 6.081007 5.795605 -2.498225
v -2.002994 5.795605 -6.835225
v -2.002994 5.151605 -6.835225
v 2.934641 5.151795 -4.186224
v -2.002994 5.795605 -6.835225
v 2.934641 5.151795 -4.186224
v 6.081007 5.795605 -2.498225
v -1.585994 5.149605 -7.598225
v 7.160007 5.149605 -2.812225
v 7.160007 -5.205037 -2.812225
v -1.585994 -5.205037 -7.598225
v 1.615007 -5.205037 7.321775
v 7.160007 -5.205037 -2.812225
v 7.160007 5.149605 -2.812225
v 1.615007 5.149605 7.321775
v 1.316007 5.795605 6.399775
v 6.081007 5.795605 -2.498225
v 5.521988 5.149605 -1.454332
v 1.316007 5.149605 6.399775
v 5.521988 5.149605 -1.454332
v 6.081007 5.795605 -2.498225
v 6.081007 5.149866 -2.498225
v 1.056007 -5.205037 7.015775
v 1.615007 -5.205037 7.321775
v 1.615007 5.149605 7.321775
v 1.056007 5.149605 7.015775
v 0.6110066 5.795605 6.081775
v 1.316007 5.795605 6.399775
v 1.316007 5.149605 6.399775
v 0.6110066 5.149605 6.081775
v 0.7550066 -5.205037 7.564775
v 1.056007 -5.205037 7.015775
v 1.056007 5.149605 7.015775
v 0.7550066 5.149605 7.564775
v 0.3900065 5.795605 6.620775
v 0.4229408 5.149605 6.540451
v 0.3900065 5.149605 6.620775
v 0.3900065 5.795605 6.620775
v 0.6110066 5.795605 6.081775
v 0.6110066 5.149605 6.081775
v 0.4229408 5.149605 6.540451
v -0.8829935 -5.205037 6.668275
v 0.7550066 -5.205037 7.564775
v 0.7550066 5.149605 7.564775
v -2.520993 5.149605 5.771775
v -2.520993 -5.205037 5.771775
v -0.8829935 -5.205037 6.668275
v -2.520993 5.149605 5.771775
v -0.8829935 -5.205037 6.668275
v 0.7550066 5.149605 7.564775
v -1.674994 5.795605 5.529775
v 0.3900065 5.795605 6.620775
v 0.3900065 5.149605 6.620775
v -1.674994 5.149605 5.529775
v -7.163993 -5.205037 2.596775
v -6.871994 -5.205037 2.062775
v -4.679493 -5.205037 -1.943225
v -2.486994 -5.205037 -5.949225
v -2.002994 -5.205037 -6.835225
v -1.585994 -5.205037 -7.598225
v 7.160007 -5.205037 -2.812225
v 1.615007 -5.205037 7.321775
v 1.056007 -5.205037 7.015775
v 0.7550066 -5.205037 7.564775
v -0.8829935 -5.205037 6.668275
v -2.520993 -5.205037 5.771775
v -2.236994 -5.205037 5.251775
v -4.700493 -5.205037 3.924275
vt 0.157602 0.327263
vt 0.048716 0.210321
vt 0.065911 0.203435
vt 0.138968 0.334566
vt 0.048716 0.210321
vt 0.157602 0.327263
vt 0.157602 0.327263
vt 0.065911 0.203435
vt 0.432000 0.217471
vt 0.432000 0.217471
vt 0.371985 0.080825
vt 0.462384 0.205354
vt 0.432000 0.217471
vt 0.065911 0.203435
vt 0.371985 0.080825
vt 0.371985 0.080825
vt 0.278646 0.015468
vt 0.314402 0.001471
vt 0.065911 0.203435
vt 0.278646 0.015468
vt 0.371985 0.080825
vt 0.053019 0.190748
vt 0.002000 0.144072
vt 0.004751 0.143249
vt 0.039231 0.196149
vt 0.002000 0.144072
vt 0.053019 0.190748
vt 0.020459 0.138549
vt 0.009612 0.120774
vt 0.278646 0.015468
vt 0.065880 0.185710
vt 0.020459 0.138549
vt 0.278646 0.015468
vt 0.065911 0.203435
vt 0.065880 0.185710
vt 0.278646 0.015468
vt 0.053019 0.190748
vt 0.004751 0.143249
vt 0.020459 0.138549
vt 0.053019 0.190748
vt 0.020459 0.138549
vt 0.065880 0.185710
vt 0.381386 0.939370
vt 0.349088 0.927577
vt 0.374521 0.917647
vt 0.348000 0.952678
vt 0.349088 0.927577
vt 0.364987 0.945917
vt 0.364987 0.945917
vt 0.349088 0.927577
vt 0.381386 0.939370
vt 0.895478 0.235819
vt 0.748000 0.032577
vt 0.928520 0.221188
vt 0.928520 0.221188
vt 0.748000 0.032577
vt 0.765902 0.001471
vt 0.306243 0.761765
vt 0.346468 0.773138
vt 0.003510 0.883443
vt 0.346468 0.773138
vt 0.002000 0.914569
vt 0.003510 0.883443
vt 0.470000 0.917647
vt 0.509558 0.923340
vt 0.480859 0.934163
vt 0.509558 0.923340
vt 0.519947 0.936411
vt 0.480859 0.934163
vt 0.403854 0.917647
vt 0.443711 0.929937
vt 0.425567 0.937171
vt 0.403854 0.917647
vt 0.425567 0.937171
vt 0.386000 0.922993
vt 0.838303 0.761765
vt 0.859645 0.838782
vt 0.822000 0.787641
vt 0.838303 0.761765
vt 0.900069 0.842815
vt 0.859645 0.838782
vt 0.672734 0.613753
vt 0.718636 0.674564
vt 0.581403 0.750267
vt 0.488000 0.627314
vt 0.626831 0.552941
vt 0.672734 0.613753
vt 0.488000 0.627314
vt 0.672734 0.613753
vt 0.581403 0.750267
vt 0.002000 0.475376
vt 0.020733 0.468401
vt 0.136963 0.541835
vt 0.118804 0.548934
vt 0.320099 0.343766
vt 0.353484 0.338235
vt 0.327182 0.348490
vt 0.296633 0.360387
vt 0.327182 0.348490
vt 0.439566 0.423445
vt 0.409434 0.435214
vt 0.020733 0.468401
vt 0.273196 0.488525
vt 0.136963 0.541835
vt 0.273196 0.488525
vt 0.296633 0.360387
vt 0.409434 0.435214
vt 0.020733 0.468401
vt 0.296633 0.360387
vt 0.273196 0.488525
vt 0.327182 0.348490
vt 0.353484 0.338235
vt 0.465515 0.413306
vt 0.439566 0.423445
vt 0.002000 0.924566
vt 0.019725 0.917647
vt 0.136098 0.991754
vt 0.118596 0.998585
vt 0.554332 0.926513
vt 0.542206 0.931226
vt 0.534000 0.927421
vt 0.559144 0.917647
vt 0.567330 0.921460
vt 0.554332 0.926513
vt 0.559144 0.917647
vt 0.554332 0.926513
vt 0.534000 0.927421
vt 0.529636 0.934335
vt 0.524000 0.917647
vt 0.529612 0.917900
vt 0.571390 0.461714
vt 0.630322 0.540379
vt 0.621472 0.545335
vt 0.470000 0.343017
vt 0.478947 0.338235
vt 0.571390 0.461714
vt 0.470000 0.343017
vt 0.571390 0.461714
vt 0.621472 0.545335
vt 0.631222 0.285071
vt 0.468000 0.065120
vt 0.582459 0.001471
vt 0.743621 0.218655
vt 0.482743 0.617758
vt 0.142059 0.757748
vt 0.002000 0.694719
vt 0.347027 0.552941
vt 0.352000 0.878567
vt 0.658046 0.761765
vt 0.629375 0.780335
vt 0.359450 0.883351
vt 0.629375 0.780335
vt 0.658046 0.761765
vt 0.665249 0.766640
vt 0.805792 0.761765
vt 0.816317 0.775443
vt 0.680660 0.851701
vt 0.670000 0.837848
vt 0.457839 0.938175
vt 0.448000 0.921532
vt 0.454788 0.917647
vt 0.464619 0.934277
vt 0.294962 0.981891
vt 0.276666 0.989391
vt 0.142000 0.925243
vt 0.160529 0.917647
vt 0.572000 0.922314
vt 0.581544 0.925753
vt 0.578968 0.926448
vt 0.572000 0.922314
vt 0.589301 0.917647
vt 0.596255 0.921785
vt 0.581544 0.925753
vt 0.891768 0.593292
vt 0.922712 0.633643
vt 0.786683 0.710140
vt 0.724000 0.628407
vt 0.860823 0.552941
vt 0.891768 0.593292
vt 0.724000 0.628407
vt 0.891768 0.593292
vt 0.786683 0.710140
vt 0.335878 0.972620
vt 0.300000 0.921721
vt 0.307220 0.917647
vt 0.343069 0.968506
vt 0.602000 0.917647
vt 0.602000 0.917647
vt 0.602000 0.917647
vt 0.602000 0.917647
vt 0.602000 0.917647
vt 0.602000 0.917647
vt 0.602000 0.917647
vt 0.602000 0.917647
vt 0.602000 0.917647
vt 0.602000 0.917647
vt 0.602000 0.917647
vt 0.602000 0.917647
vt 0.602000 0.917647
vt 0.602000 0.917647
vn 0.0001566916 1 8.583704E-05
vn 0.0001566916 1 8.583704E-05
vn 0.0001566916 1 8.583704E-05
vn 0.02820851 0.9987737 -0.040686
vn 0.02820851 0.9987737 -0.040686
vn 0.02820851 0.9987737 -0.040686
vn -5.351964E-05 0.9999999 0.0004699595
vn -5.351964E-05 0.9999999 0.0004699595
vn -5.351964E-05 0.9999999 0.0004699595
vn 0.00137508 0.9999956 -0.002634817
vn 0.00137508 0.9999956 -0.002634817
vn 0.00137508 0.9999956 -0.002634817
vn 0.0003722688 0.9999998 0.0004490661
vn 0.0003722688 0.9999998 0.0004490661
vn 0.0003722688 0.9999998 0.0004490661
vn 0.0003722702 0.9999998 0.0004490652
vn 0.0003722702 0.9999998 0.0004490652
vn 0.0003722702 0.9999998 0.0004490652
vn 0.0003722691 0.9999998 0.0004490662
vn 0.0003722691 0.9999998 0.0004490662
vn 0.0003722691 0.9999998 0.0004490662
vn 0 1 0
vn 0 1 0
vn 0 1 0
vn 0 1 0
vn 0 1 0
vn 0 1 0
vn 0 1 0
vn 0 1 0
vn 0 1 0
vn 0 1 0
vn 0 1 0
vn 0 1 0
vn 0 1 0
vn 0 1 0
vn 0 1 0
vn 0 1 0
vn 0 1 0
vn 0 1 0
vn 0 1 0
vn 0 1 0
vn 0 1 0
vn -0.6351886 0.693272 -0.3404546
vn -0.6351886 0.693272 -0.3404546
vn -0.6351886 0.693272 -0.3404546
vn -0.6300268 0.6961804 -0.3440916
vn -0.6300268 0.6961804 -0.3440916
vn -0.6300268 0.6961804 -0.3440916
vn -0.629604 0.6961616 -0.3449026
vn -0.629604 0.6961616 -0.3449026
vn -0.629604 0.6961616 -0.3449026
vn 0.2819406 0.8027026 -0.5255264
vn 0.2819406 0.8027026 -0.5255264
vn 0.2819406 0.8027026 -0.5255264
vn 0.303093 0.7754713 -0.5538762
vn 0.303093 0.7754713 -0.5538762
vn 0.303093 0.7754713 -0.5538762
vn 0.598396 0.7343259 0.3204492
vn 0.598396 0.7343259 0.3204492
vn 0.598396 0.7343259 0.3204492
vn 0.5528744 0.7764113 0.3025151
vn 0.5528744 0.7764113 0.3025151
vn 0.5528744 0.7764113 0.3025151
vn -0.2857401 0.7190655 0.6334804
vn -0.2857401 0.7190655 0.6334804
vn -0.2857401 0.7190655 0.6334804
vn -0.3345285 0.7173758 0.6111159
vn -0.3345285 0.7173758 0.6111159
vn -0.3345285 0.7173758 0.6111159
vn 0.5619124 0.7676858 0.3080795
vn 0.5619124 0.7676858 0.3080795
vn 0.5619124 0.7676858 0.3080795
vn 0.5964664 0.7644718 0.2445623
vn 0.5964664 0.7644718 0.2445623
vn 0.5964664 0.7644718 0.2445623
vn -0.3398632 0.6860648 0.6432792
vn -0.3398632 0.6860648 0.6432792
vn -0.3398632 0.6860648 0.6432792
vn -0.337694 0.7108238 0.6170027
vn -0.337694 0.7108238 0.6170027
vn -0.337694 0.7108238 0.6170027
vn -0.4743768 0 0.8803219
vn -0.4743768 0 0.8803219
vn -0.4743768 0 0.8803219
vn -0.4743768 0 0.8803219
vn -0.4743768 0 0.8803219
vn -0.4743768 0 0.8803219
vn -0.4743768 -3.819866E-11 0.8803219
vn -0.4743768 -3.819866E-11 0.8803219
vn -0.4743768 -3.819866E-11 0.8803219
vn -0.8773928 0 -0.4797728
vn -0.8773928 0 -0.4797728
vn -0.8773928 0 -0.4797728
vn -0.8773928 0 -0.4797728
vn -0.8774997 0 -0.4795772
vn -0.8774997 0 -0.4795772
vn -0.8774997 0 -0.4795772
vn -0.8775926 0 -0.4794072
vn -0.8775926 0 -0.4794072
vn -0.8775926 0 -0.4794072
vn -0.8775926 0 -0.4794072
vn -0.8772126 0 -0.480102
vn -0.8772126 0 -0.480102
vn -0.8772126 0 -0.480102
vn -0.8772126 0 -0.480102
vn -0.8772126 0 -0.480102
vn -0.8772126 0 -0.480102
vn -0.8772126 0 -0.480102
vn -0.8772126 0 -0.480102
vn -0.8772126 0 -0.480102
vn -0.8774997 0 -0.4795772
vn -0.8774997 0 -0.4795772
vn -0.8774997 0 -0.4795772
vn -0.8774997 0 -0.4795772
vn -0.8776374 0 -0.4793251
vn -0.8776374 0 -0.4793251
vn -0.8776374 0 -0.4793251
vn -0.8776374 0 -0.4793251
vn 0.8813789 0 0.47241
vn 0.8813789 0 0.47241
vn 0.8813789 0 0.47241
vn 0.8813789 0 0.47241
vn 0.8813789 0 0.47241
vn 0.8813789 0 0.47241
vn 0.8813789 1.718834E-09 0.47241
vn 0.8813789 1.718834E-09 0.47241
vn 0.8813789 1.718834E-09 0.47241
vn 0.002840898 0 -0.9999959
vn 0.002840898 0 -0.9999959
vn 0.002840898 0 -0.9999959
vn -0.4727537 0 0.8811946
vn -0.4727537 0 0.8811946
vn -0.4727537 0 0.8811946
vn -0.4727537 0 0.8811946
vn -0.4727537 0 0.8811946
vn -0.4727537 0 0.8811946
vn -0.4727537 -6.541542E-09 0.8811946
vn -0.4727537 -6.541542E-09 0.8811946
vn -0.4727537 -6.541542E-09 0.8811946
vn 0.4800464 0 -0.8772431
vn 0.4800464 0 -0.8772431
vn 0.4800464 0 -0.8772431
vn 0.4800464 0 -0.8772431
vn 0.8772629 0 0.4800102
vn 0.8772629 0 0.4800102
vn 0.8772629 0 0.4800102
vn 0.8772629 0 0.4800102
vn -0.8815536 3.874065E-09 -0.4720839
vn -0.8815536 7.74813E-09 -0.472084
vn -0.8815536 3.874065E-09 -0.4720839
vn -0.8815536 0 -0.4720839
vn -0.8815536 0 -0.472084
vn -0.8815536 0 -0.472084
vn -0.8815536 0 -0.472084
vn -0.4801709 0 0.877175
vn -0.4801709 0 0.877175
vn -0.4801709 0 0.877175
vn -0.4801709 0 0.877175
vn 0.411171 0 -0.9115583
vn 0.411171 0 -0.9115583
vn 0.411171 0 -0.9115583
vn 0.411171 0 -0.9115583
vn 0.8768559 0 0.4807534
vn 0.8768559 0 0.4807534
vn 0.8768559 0 0.4807534
vn 0.8768559 0 0.4807534
vn -0.9252459 0 -0.3793679
vn -0.9252459 0 -0.3793679
vn -0.9252459 0 -0.3793679
vn -0.9252459 5.575008E-09 -0.379368
vn -0.9252459 2.787504E-09 -0.379368
vn -0.9252459 0 -0.379368
vn -0.9252459 2.787504E-09 -0.379368
vn -0.4801086 0 0.8772091
vn -0.4801086 0 0.8772091
vn -0.4801086 0 0.8772091
vn -0.4801086 0 0.8772091
vn -0.4801086 0 0.8772091
vn -0.4801086 0 0.8772091
vn -0.4801086 1.349442E-12 0.8772091
vn -0.4801086 1.349442E-12 0.8772091
vn -0.4801086 1.349442E-12 0.8772091
vn 0.46714 0 -0.8841833
vn 0.46714 0 -0.8841833
vn 0.46714 0 -0.8841833
vn 0.46714 0 -0.8841833
vn 0 -1 0
vn 0 -1 0
vn 0 -1 0
vn 0 -1 0
vn 0 -1 0
vn 0 -1 0
vn 0 -1 0
vn 0 -1 0
vn 0 -1 0
vn 0 -1 0
vn 0 -1 0
vn 0 -1 0
vn 0 -1 0
vn 0 -1 0

g CDNNDG01_0000520
f 1/1/1 2/2/2 3/3/3
f 4/4/4 5/5/5 6/6/6
f 7/7/7 8/8/8 9/9/9
f 10/10/10 11/11/11 12/12/12
f 13/13/13 14/14/14 15/15/15
f 16/16/16 17/17/17 18/18/18
f 19/19/19 20/20/20 21/21/21
f 22/22/22 23/23/23 24/24/24
f 25/25/25 26/26/26 27/27/27
f 28/28/28 29/29/29 30/30/30
f 31/31/31 32/32/32 33/33/33
f 34/34/34 35/35/35 36/36/36
f 37/37/37 38/38/38 39/39/39
f 40/40/40 41/41/41 42/42/42
f 43/43/43 44/44/44 45/45/45
f 46/46/46 47/47/47 48/48/48
f 49/49/49 50/50/50 51/51/51
f 52/52/52 53/53/53 54/54/54
f 55/55/55 56/56/56 57/57/57
f 58/58/58 59/59/59 60/60/60
f 61/61/61 62/62/62 63/63/63
f 64/64/64 65/65/65 66/66/66
f 67/67/67 68/68/68 69/69/69
f 70/70/70 71/71/71 72/72/72
f 73/73/73 74/74/74 75/75/75
f 76/76/76 77/77/77 78/78/78
f 79/79/79 80/80/80 81/81/81
f 82/82/82 83/83/83 84/84/84
f 85/85/85 86/86/86 87/87/87
f 88/88/88 89/89/89 90/90/90
f 92/92/92 93/93/93 94/94/94
f 91/91/91 92/92/92 94/94/94
f 95/95/95 96/96/96 97/97/97
f 99/99/99 100/100/100 101/101/101
f 98/98/98 99/99/99 101/101/101
f 102/102/102 103/103/103 104/104/104
f 105/105/105 106/106/106 107/107/107
f 108/108/108 109/109/109 110/110/110
f 112/112/112 113/113/113 114/114/114
f 111/111/111 112/112/112 114/114/114
f 115/115/115 117/117/117 118/118/118
f 115/115/115 116/116/116 117/117/117
f 119/119/119 120/120/120 121/121/121
f 122/122/122 123/123/123 124/124/124
f 125/125/125 126/126/126 127/127/127
f 128/128/128 129/129/129 130/130/130
f 131/131/131 132/132/132 133/133/133
f 134/134/134 135/135/135 136/136/136
f 137/137/137 138/138/138 139/139/139
f 143/143/143 140/140/140 142/142/142
f 141/141/141 142/142/142 140/140/140
f 147/147/147 144/144/144 146/146/146
f 145/145/145 146/146/146 144/144/144
f 148/148/148 150/150/150 151/151/151
f 148/148/148 149/149/149 150/150/150
f 152/152/152 153/153/153 154/154/154
f 155/155/155 157/157/157 158/158/158
f 157/157/157 155/155/155 156/156/156
f 159/159/159 161/161/161 162/162/162
f 159/159/159 160/160/160 161/161/161
f 164/164/164 165/165/165 163/163/163
f 163/163/163 165/165/165 166/166/166
f 167/167/167 168/168/168 169/169/169
f 173/173/173 170/170/170 171/171/171
f 172/172/172 173/173/173 171/171/171
f 174/174/174 175/175/175 176/176/176
f 177/177/177 178/178/178 179/179/179
f 180/180/180 181/181/181 182/182/182
f 183/183/183 185/185/185 186/186/186
f 183/183/183 184/184/184 185/185/185
f 187/187/187 188/188/188 200/200/200
f 197/197/197 198/198/198 199/199/199
f 193/193/193 189/189/189 190/190/190
f 193/193/193 195/195/195 199/199/199
f 189/189/189 199/199/199 200/200/200
f 193/193/193 191/191/191 192/192/192
f 190/190/190 191/191/191 193/193/193
f 195/195/195 197/197/197 199/199/199
f 195/195/195 196/196/196 197/197/197
f 189/189/189 193/193/193 199/199/199
f 188/188/188 189/189/189 200/200/200
f 193/193/193 194/194/194 195/195/195
