v -4.6531 -0.2574656 6.097419
v -4.0081 -0.2574656 10.22242
v -1.7521 -0.2574656 5.979419
v -4.6531 -0.2574656 6.097419
v -1.7521 -0.2574656 5.979419
v -3.9981 -0.2574656 4.736419
v -7.2751 -0.2574656 8.52142
v -4.6531 -0.2574656 6.097419
v -5.5701 -0.2574656 5.613419
v -7.2751 -0.2574656 8.52142
v -4.0081 -0.2574656 10.22242
v -4.6531 -0.2574656 6.097419
v -4.6531 5.310534 6.097419
v -3.9981 5.310534 4.736419
v -4.4891 5.701534 4.464419
v -7.4741 5.310534 4.607419
v -6.0481 5.701534 3.602419
v -6.6601 5.310534 3.264419
v -5.5701 5.310534 5.613419
v -4.6531 5.310534 6.097419
v -4.4891 5.701534 4.464419
v -6.0481 5.701534 3.602419
v -5.5701 5.310534 5.613419
v -4.4891 5.701534 4.464419
v -7.4741 5.310534 4.607419
v -5.5701 5.310534 5.613419
v -6.0481 5.701534 3.602419
v -1.7521 5.701534 5.979419
v 4.2349 5.701534 -4.842581
v -1.3731 5.701534 -7.047581
v -3.9981 5.701534 4.736419
v -6.0481 5.701534 3.602419
v -4.4891 5.701534 4.464419
v -1.3731 5.701534 -7.047581
v -0.3411002 5.701534 -8.749581
v 4.2679 5.701534 -6.164581
v 4.5129 5.701534 -6.607581
v -0.1111002 5.701534 -9.165581
v -6.6601 5.701534 3.264419
v -6.0481 5.701534 3.602419
v -1.3731 5.701534 -7.047581
v 4.2349 5.701534 -4.842581
v 5.2019 5.701534 -4.307581
v 5.7699 5.701534 -5.334581
v 4.2349 5.701534 -4.842581
v 5.7699 5.701534 -5.334581
v 4.2679 5.701534 -6.164581
v -1.3731 5.701534 -7.047581
v -0.3411002 5.701534 -8.749581
v -0.8571002 5.701534 -9.034581
v -1.8191 5.701534 -7.294581
v -6.9801 5.701534 3.086419
v -6.6601 5.701534 3.264419
v -1.3731 5.701534 -7.047581
v -1.3731 5.701534 -7.047581
v 4.2349 5.701534 -4.842581
v 4.2679 5.701534 -6.164581
v -1.3731 5.701534 -7.047581
v 4.2679 5.701534 -6.164581
v -0.3411002 5.701534 -8.749581
v -4.4891 5.701534 4.464419
v -3.9981 5.701534 4.736419
v -1.3731 5.701534 -7.047581
v -1.7521 6.093534 5.979419
v 1.5109 6.093534 7.784419
v 1.6209 6.093534 7.585419
v 1.6209 6.093534 7.585419
v 7.4979 6.093534 -3.037581
v 5.2019 6.093534 -4.307581
v -1.7521 6.093534 5.979419
v -1.7521 6.093534 5.979419
v 5.2019 6.093534 -4.307581
v 4.2349 6.093534 -4.842581
v -7.2751 -5.518092 8.52142
v -4.0081 -5.518092 10.22242
v -4.0081 -0.2574656 10.22242
v -7.2751 -0.2574656 8.52142
v -4.0081 -5.518092 10.22242
v -1.7521 -5.518092 5.979419
v -1.7521 -0.2574656 5.979419
v -4.0081 -0.2574656 10.22242
v -7.2751 -0.2574656 8.52142
v -5.5701 -0.2574656 5.613419
v -5.5701 -5.518092 5.613419
v -7.2751 -5.518092 8.52142
v -7.4741 5.310534 4.607419
v -6.6601 5.310534 3.264419
v -6.6601 -5.518092 3.264419
v -7.4741 -5.518092 4.607419
v -7.4741 5.310534 4.607419
v -5.5701 -0.2574656 5.613419
v -5.5701 5.310534 5.613419
v -7.4741 -5.518092 4.607419
v -5.5701 -5.518092 5.613419
v -5.5701 -0.2574656 5.613419
v -7.4741 5.310534 4.607419
v -7.4741 -5.518092 4.607419
v -5.5701 -0.2574656 5.613419
v -5.5701 -0.2574656 5.613419
v -4.6531 -0.2574656 6.097419
v -4.6531 5.310534 6.097419
v -5.5701 5.310534 5.613419
v -6.9801 5.701534 3.086419
v -6.6601 5.310534 3.264419
v -6.6601 5.701534 3.264419
v -6.9801 -5.518092 3.086419
v -6.6601 -5.518092 3.264419
v -6.6601 5.310534 3.264419
v -6.9801 5.701534 3.086419
v -6.6601 5.701534 3.264419
v -6.6601 5.310534 3.264419
v -6.0481 5.701534 3.602419
v 5.2019 -5.518092 -4.307581
v 5.7699 -5.518092 -5.334581
v 5.7699 5.701534 -5.334581
v 5.2019 5.701534 -4.307581
v 4.2679 5.701534 -6.164581
v 5.7699 5.701534 -5.334581
v 5.7699 -5.518092 -5.334581
v 4.2679 -5.518092 -6.164581
v 4.2679 -5.518092 -6.164581
v 4.5129 -5.518092 -6.607581
v 4.5129 5.701534 -6.607581
v 4.2679 5.701534 -6.164581
v -0.1111002 5.701534 -9.165581
v 2.2009 -5.518092 -7.886581
v -0.1111002 -5.518092 -9.165581
v 2.2009 -5.518092 -7.886581
v 4.5129 5.701534 -6.607581
v 4.5129 -5.518092 -6.607581
v -0.1111002 5.701534 -9.165581
v 4.5129 5.701534 -6.607581
v 2.2009 -5.518092 -7.886581
v -0.3411002 5.701534 -8.749581
v -0.2261002 -5.518092 -8.957581
v -0.3411002 -5.518092 -8.749581
v -0.2261002 -5.518092 -8.957581
v -0.1111002 5.701534 -9.165581
v -0.1111002 -5.518092 -9.165581
v -0.3411002 5.701534 -8.749581
v -0.1111002 5.701534 -9.165581
v -0.2261002 -5.518092 -8.957581
v -0.8571002 5.701534 -9.034581
v -0.3411002 5.701534 -8.749581
v -0.3411002 -5.518092 -8.749581
v -0.8571002 -5.518092 -9.034581
v -1.8191 5.701534 -7.294581
v -1.3381 -5.518092 -8.164581
v -1.8191 -5.518092 -7.294581
v -1.3381 -5.518092 -8.164581
v -0.8571002 5.701534 -9.034581
v -0.8571002 -5.518092 -9.034581
v -1.8191 5.701534 -7.294581
v -0.8571002 5.701534 -9.034581
v -1.3381 -5.518092 -8.164581
v -1.8191 -5.518092 -7.294581
v -1.3731 -5.518092 -7.047581
v -1.3731 5.701534 -7.047581
v -1.8191 5.701534 -7.294581
v -6.9801 5.701534 3.086419
v -1.3731 5.701534 -7.047581
v -1.3731 -5.518092 -7.047581
v -6.9801 -5.518092 3.086419
v -4.4891 5.701534 4.464419
v -3.9981 5.310534 4.736419
v -3.9981 5.701534 4.736419
v -1.7521 -0.2574656 5.979419
v 1.5109 -5.518092 7.784419
v 1.5109 6.093534 7.784419
v -1.7521 5.701534 5.979419
v -1.7521 6.093534 5.979419
v -1.7521 5.701534 5.979419
v 1.5109 6.093534 7.784419
v -1.7521 -0.2574656 5.979419
v -1.7521 -5.518092 5.979419
v 1.5109 -5.518092 7.784419
v -3.9981 -0.2574656 4.736419
v -1.7521 -0.2574656 5.979419
v -1.7521 5.701534 5.979419
v -3.9981 5.310534 4.736419
v -3.9981 5.701534 4.736419
v -3.9981 5.310534 4.736419
v -1.7521 5.701534 5.979419
v 1.5109 -5.518092 7.784419
v 1.6209 -5.518092 7.585419
v 1.6209 6.093534 7.585419
v 1.5109 6.093534 7.784419
v 1.6209 -5.518092 7.585419
v 7.4979 -5.518092 -3.037581
v 7.4979 6.093534 -3.037581
v 1.6209 6.093534 7.585419
v 5.2019 6.093534 -4.307581
v 7.4979 6.093534 -3.037581
v 5.2019 5.701534 -4.307581
v 5.2019 5.701534 -4.307581
v 7.4979 6.093534 -3.037581
v 7.4979 -5.518092 -3.037581
v 5.2019 -5.518092 -4.307581
v 4.2349 6.093534 -4.842581
v 5.2019 6.093534 -4.307581
v 5.2019 5.701534 -4.307581
v 4.2349 5.701534 -4.842581
v -1.7521 6.093534 5.979419
v 4.2349 6.093534 -4.842581
v 4.2349 5.701534 -4.842581
v -1.7521 5.701534 5.979419
v -4.6531 -0.2574656 6.097419
v -3.9981 -0.2574656 4.736419
v -3.9981 5.310534 4.736419
v -4.6531 5.310534 6.097419
v -1.8191 -5.518092 -7.294581
v -1.3381 -5.518092 -8.164581
v -0.8571002 -5.518092 -9.034581
v -0.3411002 -5.518092 -8.749581
v -0.2261002 -5.518092 -8.957581
v -0.1111002 -5.518092 -9.165581
v 2.2009 -5.518092 -7.886581
v 4.5129 -5.518092 -6.607581
v 4.2679 -5.518092 -6.164581
v 5.7699 -5.518092 -5.334581
v 5.2019 -5.518092 -4.307581
v 7.4979 -5.518092 -3.037581
v 1.6209 -5.518092 7.585419
v 1.5109 -5.518092 7.784419
v -1.7521 -5.518092 5.979419
v -4.0081 -5.518092 10.22242
v -7.2751 -5.518092 8.52142
v -5.5701 -5.518092 5.613419
v -7.4741 -5.518092 4.607419
v -6.6601 -5.518092 3.264419
v -6.9801 -5.518092 3.086419
v -1.3731 -5.518092 -7.047581
vt 0.686276 0.708165
vt 0.829080 0.724804
vt 0.683372 0.788933
vt 0.686276 0.708165
vt 0.683372 0.788933
vt 0.639511 0.726825
vt 0.768980 0.634426
vt 0.686276 0.708165
vt 0.669180 0.682799
vt 0.768980 0.634426
vt 0.829080 0.724804
vt 0.686276 0.708165
vt 0.174578 0.957377
vt 0.128631 0.974781
vt 0.118126 0.961536
vt 0.047093 0.957377
vt 0.012460 0.998625
vt 0.002037 0.979739
vt 0.717937 0.885418
vt 0.734758 0.910766
vt 0.677614 0.917921
vt 0.647658 0.874813
vt 0.717937 0.885418
vt 0.677614 0.917921
vt 0.682975 0.832787
vt 0.717937 0.885418
vt 0.647658 0.874813
vt 0.532125 0.148145
vt 0.155328 0.320460
vt 0.075741 0.163027
vt 0.487640 0.085206
vt 0.447056 0.027758
vt 0.477906 0.071447
vt 0.075741 0.163027
vt 0.016520 0.192677
vt 0.109013 0.321816
vt 0.093590 0.328867
vt 0.002037 0.199297
vt 0.434958 0.010607
vt 0.447056 0.027758
vt 0.075741 0.163027
vt 0.155328 0.320460
vt 0.174476 0.347556
vt 0.138719 0.363903
vt 0.155328 0.320460
vt 0.138719 0.363903
vt 0.109013 0.321816
vt 0.075741 0.163027
vt 0.016520 0.192677
vt 0.006319 0.178218
vt 0.066901 0.150529
vt 0.428588 0.001639
vt 0.434958 0.010607
vt 0.075741 0.163027
vt 0.075741 0.163027
vt 0.155328 0.320460
vt 0.109013 0.321816
vt 0.075741 0.163027
vt 0.109013 0.321816
vt 0.016520 0.192677
vt 0.477906 0.071447
vt 0.487640 0.085206
vt 0.075741 0.163027
vt 0.378725 0.367213
vt 0.443302 0.458541
vt 0.436375 0.461703
vt 0.436375 0.461703
vt 0.066618 0.630644
vt 0.021179 0.566386
vt 0.378725 0.367213
vt 0.378725 0.367213
vt 0.021179 0.566386
vt 0.002037 0.539322
vt 0.015549 0.832787
vt 0.073633 0.922409
vt 0.060497 0.953609
vt 0.002037 0.863408
vt 0.364093 0.880632
vt 0.219793 0.944213
vt 0.205703 0.896779
vt 0.350934 0.832787
vt 0.887535 0.863189
vt 0.788187 0.910526
vt 0.802468 0.879821
vt 0.901178 0.832787
vt 0.612002 0.895855
vt 0.566191 0.918647
vt 0.596612 0.855278
vt 0.641817 0.832787
vt 0.835031 0.697954
vt 0.884886 0.717749
vt 0.869753 0.750988
vt 0.864731 0.634426
vt 0.898995 0.686760
vt 0.884886 0.717749
vt 0.835031 0.697954
vt 0.864731 0.634426
vt 0.884886 0.717749
vt 0.884886 0.717749
vt 0.901478 0.743116
vt 0.886459 0.776529
vt 0.869753 0.750988
vt 0.525458 0.898419
vt 0.532537 0.904958
vt 0.531455 0.907280
vt 0.556201 0.832787
vt 0.562115 0.841526
vt 0.532537 0.904958
vt 0.525458 0.898419
vt 0.531455 0.907280
vt 0.532537 0.904958
vt 0.542842 0.924226
vt 0.199782 0.932047
vt 0.165402 0.948049
vt 0.130346 0.849011
vt 0.165203 0.832787
vt 0.906314 0.634426
vt 0.935241 0.676219
vt 0.970206 0.775511
vt 0.941675 0.734290
vt 0.418569 0.932269
vt 0.403902 0.939162
vt 0.368635 0.839776
vt 0.383506 0.832787
vt 0.448065 0.367213
vt 0.530041 0.532908
vt 0.485409 0.469183
vt 0.530041 0.532908
vt 0.538567 0.496433
vt 0.574671 0.596632
vt 0.448065 0.367213
vt 0.538567 0.496433
vt 0.530041 0.532908
vt 0.920327 0.900707
vt 0.950074 0.835958
vt 0.956985 0.832787
vt 0.950074 0.835958
vt 0.906314 0.907137
vt 0.943163 0.839129
vt 0.920327 0.900707
vt 0.906314 0.907137
vt 0.950074 0.835958
vt 0.079430 0.832787
vt 0.089247 0.847109
vt 0.125412 0.948470
vt 0.115730 0.934345
vt 0.483339 0.900442
vt 0.490556 0.846109
vt 0.520004 0.832787
vt 0.490556 0.846109
vt 0.423625 0.927457
vt 0.461108 0.859432
vt 0.483339 0.900442
vt 0.423625 0.927457
vt 0.490556 0.846109
vt 0.775109 0.832787
vt 0.783396 0.844936
vt 0.747710 0.912550
vt 0.739308 0.900232
vt 0.933632 0.433537
vt 0.580448 0.592557
vt 0.617562 0.524059
vt 0.965913 0.367213
vt 0.105906 0.656724
vt 0.116548 0.668066
vt 0.115446 0.670446
vt 0.175407 0.696733
vt 0.252093 0.754907
vt 0.221289 0.826857
vt 0.159040 0.733211
vt 0.157955 0.735630
vt 0.159040 0.733211
vt 0.221289 0.826857
vt 0.175407 0.696733
vt 0.189657 0.664971
vt 0.252093 0.754907
vt 0.132131 0.634426
vt 0.175407 0.696733
vt 0.159040 0.733211
vt 0.116548 0.668066
vt 0.115446 0.670446
vt 0.116548 0.668066
vt 0.159040 0.733211
vt 0.944463 0.106784
vt 0.937645 0.109909
vt 0.906872 0.004809
vt 0.913789 0.001639
vt 0.937645 0.109909
vt 0.573679 0.276818
vt 0.537678 0.174121
vt 0.906872 0.004809
vt 0.020889 0.661428
vt 0.065641 0.725540
vt 0.022124 0.664966
vt 0.022124 0.664966
vt 0.065641 0.725540
vt 0.101098 0.827988
vt 0.056980 0.764786
vt 0.002037 0.634426
vt 0.020889 0.661428
vt 0.022124 0.664966
vt 0.003281 0.637977
vt 0.633914 0.636842
vt 0.256619 0.806326
vt 0.257896 0.803827
vt 0.635008 0.634426
vt 0.113857 0.965847
vt 0.068119 0.983595
vt 0.052953 0.975247
vt 0.099006 0.957377
vt 0.179226 0.957377
vt 0.179226 0.957377
vt 0.179226 0.957377
vt 0.179226 0.957377
vt 0.179226 0.957377
vt 0.179226 0.957377
vt 0.179226 0.957377
vt 0.179226 0.957377
vt 0.179226 0.957377
vt 0.179226 0.957377
vt 0.179226 0.957377
vt 0.179226 0.957377
vt 0.179226 0.957377
vt 0.179226 0.957377
vt 0.179226 0.957377
vt 0.179226 0.957377
vt 0.179226 0.957377
vt 0.179226 0.957377
vt 0.179226 0.957377
vt 0.179226 0.957377
vt 0.179226 0.957377
vt 0.179226 0.957377
vn 0 1 0
vn 0 1 0
vn 0 1 0
vn 0 1 0
vn 0 1 0
vn 0 1 0
vn 0 1 0
vn 0 1 0
vn 0 1 0
vn 0 1 0
vn 0 1 0
vn 0 1 0
vn 0.515611 0.8201033 0.2481449
vn 0.515611 0.8201033 0.2481449
vn 0.515611 0.8201033 0.2481449
vn -0.417684 0.8726109 -0.2531606
vn -0.417684 0.8726109 -0.2531606
vn -0.417684 0.8726109 -0.2531606
vn -0.1162345 0.9685 0.2202211
vn -0.1162345 0.9685 0.2202211
vn -0.1162345 0.9685 0.2202211
vn -0.1199102 0.9688085 0.2168678
vn -0.1199102 0.9688085 0.2168678
vn -0.1199102 0.9688085 0.2168678
vn -0.1139365 0.9698027 0.2156412
vn -0.1139365 0.9698027 0.2156412
vn -0.1139365 0.9698027 0.2156412
vn 0 1 0
vn 0 1 0
vn 0 1 0
vn 0 1 0
vn 0 1 0
vn 0 1 0
vn 0 1 0
vn 0 1 0
vn 0 1 0
vn 0 1 0
vn 0 1 0
vn 0 1 0
vn 0 1 0
vn 0 1 0
vn 0 1 0
vn 0 1 0
vn 0 1 0
vn 0 1 0
vn 0 1 0
vn 0 1 0
vn 0 1 0
vn 0 1 0
vn 0 1 0
vn 0 1 0
vn 0 1 0
vn 0 1 0
vn 0 1 0
vn 0 1 0
vn 0 1 0
vn 0 1 0
vn 0 1 0
vn 0 1 0
vn 0 1 0
vn 0 1 0
vn 0 1 0
vn 0 1 0
vn 0 1 0
vn 0 1 0
vn 0 1 0
vn 0 1 0
vn 0 1 0
vn 0 1 0
vn 0 1 0
vn 0 1 0
vn 0 1 0
vn 0 1 0
vn -0.4618143 0 0.8869767
vn -0.4618143 0 0.8869767
vn -0.4618143 0 0.8869767
vn -0.4618143 0 0.8869767
vn 0.8829513 0 0.4694646
vn 0.8829513 0 0.4694646
vn 0.8829513 0 0.4694646
vn 0.8829513 0 0.4694646
vn -0.8626578 0 -0.505788
vn -0.8626578 0 -0.505788
vn -0.8626578 0 -0.505788
vn -0.8626578 0 -0.505788
vn -0.8551807 0 -0.5183299
vn -0.8551807 0 -0.5183299
vn -0.8551807 0 -0.5183299
vn -0.8551807 0 -0.5183299
vn -0.4671621 0 0.8841717
vn -0.4671621 0 0.8841717
vn -0.4671621 0 0.8841717
vn -0.4671621 0 0.8841717
vn -0.4671621 0 0.8841717
vn -0.4671621 0 0.8841717
vn -0.4671621 0 0.8841717
vn -0.4671621 0 0.8841717
vn -0.4671621 0 0.8841717
vn -0.4667796 0 0.8843737
vn -0.4667796 0 0.8843737
vn -0.4667796 0 0.8843737
vn -0.4667796 0 0.8843737
vn -0.4861066 0 0.8738995
vn -0.4861066 0 0.8738995
vn -0.4861066 0 0.8738995
vn -0.4861066 0 0.8738995
vn -0.4861066 0 0.8738995
vn -0.4861066 0 0.8738995
vn -0.4861066 0 0.8738995
vn -0.4834554 0 0.875369
vn -0.4834554 0 0.875369
vn -0.4834554 0 0.875369
vn 0.8750801 0 0.4839781
vn 0.8750801 0 0.4839781
vn 0.8750801 0 0.4839781
vn 0.8750801 0 0.4839781
vn 0.4836626 0 -0.8752545
vn 0.4836626 0 -0.8752545
vn 0.4836626 0 -0.8752545
vn 0.4836626 0 -0.8752545
vn 0.8750874 0 0.4839648
vn 0.8750874 0 0.4839648
vn 0.8750874 0 0.4839648
vn 0.8750874 0 0.4839648
vn 0.4840676 0 -0.8750306
vn 0.4840676 0 -0.8750306
vn 0.4840676 0 -0.8750306
vn 0.4840676 0 -0.8750306
vn 0.4840676 0 -0.8750306
vn 0.4840676 0 -0.8750306
vn 0.4840676 -1.255668E-12 -0.8750306
vn 0.4840676 -1.255668E-12 -0.8750306
vn 0.4840676 -1.255668E-12 -0.8750306
vn -0.8751478 0 -0.4838557
vn -0.8751478 0 -0.4838557
vn -0.8751478 0 -0.4838557
vn -0.8751478 0 -0.4838558
vn -0.8751478 0 -0.4838558
vn -0.8751478 0 -0.4838558
vn -0.8751478 2.008203E-11 -0.4838558
vn -0.8751478 2.008203E-11 -0.4838558
vn -0.8751478 2.008203E-11 -0.4838558
vn 0.4834809 0 -0.8753549
vn 0.4834809 0 -0.8753549
vn 0.4834809 0 -0.8753549
vn 0.4834809 0 -0.8753549
vn -0.8751519 0 -0.4838483
vn -0.8751519 0 -0.4838483
vn -0.8751519 0 -0.4838483
vn -0.8751519 0 -0.4838483
vn -0.8751519 0 -0.4838483
vn -0.8751519 0 -0.4838483
vn -0.8751519 2.270156E-12 -0.4838483
vn -0.8751519 2.270156E-12 -0.4838483
vn -0.8751519 2.270156E-12 -0.4838483
vn -0.4844767 0 0.8748041
vn -0.4844767 0 0.8748041
vn -0.4844767 0 0.8748041
vn -0.4844767 0 0.8748041
vn -0.874999 0 -0.4841247
vn -0.874999 0 -0.4841247
vn -0.874999 0 -0.4841247
vn -0.874999 0 -0.4841247
vn -0.4845837 0 0.8747449
vn -0.4845837 0 0.8747449
vn -0.4845837 0 0.8747449
vn -0.4840483 0 0.8750413
vn -0.4840483 0 0.8750413
vn -0.4840483 0 0.8750413
vn -0.4840483 0 0.8750413
vn -0.4840483 0 0.8750413
vn -0.4840483 0 0.8750413
vn -0.4840483 0 0.8750413
vn -0.4840483 0 0.8750413
vn -0.4840483 0 0.8750413
vn -0.4840483 0 0.8750413
vn -0.48422 0 0.8749462
vn -0.48422 0 0.8749462
vn -0.48422 0 0.8749462
vn -0.48422 0 0.8749462
vn -0.48422 0 0.8749462
vn -0.48422 0 0.8749462
vn -0.48422 0 0.8749462
vn 0.8751925 0 0.4837748
vn 0.8751925 0 0.4837748
vn 0.8751925 0 0.4837748
vn 0.8751925 0 0.4837748
vn 0.8750185 0 0.4840896
vn 0.8750185 0 0.4840896
vn 0.8750185 0 0.4840896
vn 0.8750185 0 0.4840896
vn 0.4840241 0 -0.8750547
vn 0.4840241 0 -0.8750547
vn 0.4840241 0 -0.8750547
vn 0.4840241 0 -0.8750547
vn 0.4840241 0 -0.8750547
vn 0.4840241 0 -0.8750547
vn 0.4840241 0 -0.8750547
vn 0.4841056 0 -0.8750096
vn 0.4841056 0 -0.8750096
vn 0.4841056 0 -0.8750096
vn 0.4841056 0 -0.8750096
vn -0.8750216 0 -0.4840838
vn -0.8750216 0 -0.4840838
vn -0.8750216 0 -0.4840838
vn -0.8750216 0 -0.4840838
vn 0.9010783 0 0.4336564
vn 0.9010783 0 0.4336564
vn 0.9010783 0 0.4336564
vn 0.9010783 0 0.4336564
vn 0 -1 0
vn 0 -1 0
vn 0 -1 0
vn 0 -1 0
vn 0 -1 0
vn 0 -1 0
vn 0 -1 0
vn 0 -1 0
vn 0 -1 0
vn 0 -1 0
vn 0 -1 0
vn 0 -1 0
vn 0 -1 0
vn 0 -1 0
vn 0 -1 0
vn 0 -1 0
vn 0 -1 0
vn 0 -1 0
vn 0 -1 0
vn 0 -1 0
vn 0 -1 0
vn 0 -1 0

g CDNNDG01_0001020
f 1/1/1 2/2/2 3/3/3
f 4/4/4 5/5/5 6/6/6
f 7/7/7 8/8/8 9/9/9
f 10/10/10 11/11/11 12/12/12
f 13/13/13 14/14/14 15/15/15
f 16/16/16 17/17/17 18/18/18
f 19/19/19 20/20/20 21/21/21
f 22/22/22 23/23/23 24/24/24
f 25/25/25 26/26/26 27/27/27
f 28/28/28 29/29/29 31/31/31
f 31/31/31 29/29/29 30/30/30
f 32/32/32 33/33/33 34/34/34
f 35/35/35 36/36/36 37/37/37
f 38/38/38 35/35/35 37/37/37
f 39/39/39 40/40/40 41/41/41
f 42/42/42 43/43/43 44/44/44
f 45/45/45 46/46/46 47/47/47
f 48/48/48 49/49/49 50/50/50
f 51/51/51 48/48/48 50/50/50
f 52/52/52 53/53/53 54/54/54
f 55/55/55 56/56/56 57/57/57
f 58/58/58 59/59/59 60/60/60
f 61/61/61 62/62/62 63/63/63
f 64/64/64 65/65/65 66/66/66
f 67/67/67 68/68/68 69/69/69
f 70/70/70 67/67/67 69/69/69
f 71/71/71 72/72/72 73/73/73
f 75/75/75 76/76/76 77/77/77
f 77/77/77 74/74/74 75/75/75
f 78/78/78 80/80/80 81/81/81
f 78/78/78 79/79/79 80/80/80
f 85/85/85 82/82/82 84/84/84
f 84/84/84 82/82/82 83/83/83
f 86/86/86 88/88/88 89/89/89
f 86/86/86 87/87/87 88/88/88
f 90/90/90 91/91/91 92/92/92
f 93/93/93 94/94/94 95/95/95
f 96/96/96 97/97/97 98/98/98
f 102/102/102 99/99/99 101/101/101
f 101/101/101 99/99/99 100/100/100
f 103/103/103 104/104/104 105/105/105
f 106/106/106 108/108/108 109/109/109
f 108/108/108 106/106/106 107/107/107
f 110/110/110 111/111/111 112/112/112
f 114/114/114 115/115/115 113/113/113
f 113/113/113 115/115/115 116/116/116
f 119/119/119 120/120/120 118/118/118
f 117/117/117 118/118/118 120/120/120
f 122/122/122 123/123/123 121/121/121
f 121/121/121 123/123/123 124/124/124
f 125/125/125 126/126/126 127/127/127
f 128/128/128 129/129/129 130/130/130
f 131/131/131 132/132/132 133/133/133
f 134/134/134 135/135/135 136/136/136
f 137/137/137 138/138/138 139/139/139
f 140/140/140 141/141/141 142/142/142
f 145/145/145 143/143/143 144/144/144
f 143/143/143 145/145/145 146/146/146
f 147/147/147 148/148/148 149/149/149
f 150/150/150 151/151/151 152/152/152
f 153/153/153 154/154/154 155/155/155
f 156/156/156 158/158/158 159/159/159
f 158/158/158 156/156/156 157/157/157
f 160/160/160 162/162/162 163/163/163
f 160/160/160 161/161/161 162/162/162
f 164/164/164 165/165/165 166/166/166
f 167/167/167 169/169/169 170/170/170
f 169/169/169 167/167/167 168/168/168
f 171/171/171 172/172/172 173/173/173
f 174/174/174 175/175/175 176/176/176
f 178/178/178 179/179/179 180/180/180
f 180/180/180 177/177/177 178/178/178
f 181/181/181 182/182/182 183/183/183
f 184/184/184 186/186/186 187/187/187
f 184/184/184 185/185/185 186/186/186
f 191/191/191 188/188/188 190/190/190
f 189/189/189 190/190/190 188/188/188
f 192/192/192 193/193/193 194/194/194
f 197/197/197 195/195/195 196/196/196
f 195/195/195 197/197/197 198/198/198
f 202/202/202 199/199/199 200/200/200
f 200/200/200 201/201/201 202/202/202
f 203/203/203 205/205/205 206/206/206
f 203/203/203 204/204/204 205/205/205
f 208/208/208 209/209/209 207/207/207
f 207/207/207 209/209/209 210/210/210
f 221/221/221 225/225/225 232/232/232
f 228/228/228 229/229/229 230/230/230
f 211/211/211 212/212/212 232/232/232
f 225/225/225 228/228/228 230/230/230
f 212/212/212 213/213/213 214/214/214
f 217/217/217 214/214/214 215/215/215
f 217/217/217 215/215/215 216/216/216
f 212/212/212 214/214/214 232/232/232
f 231/231/231 232/232/232 230/230/230
f 214/214/214 217/217/217 232/232/232
f 226/226/226 227/227/227 228/228/228
f 217/217/217 218/218/218 219/219/219
f 217/217/217 219/219/219 232/232/232
f 225/225/225 226/226/226 228/228/228
f 219/219/219 220/220/220 221/221/221
f 219/219/219 221/221/221 232/232/232
f 232/232/232 225/225/225 230/230/230
f 221/221/221 222/222/222 223/223/223
f 221/221/221 223/223/223 225/225/225
f 223/223/223 224/224/224 225/225/225
