v 5.892094 0.3835326 -3.325256
v 7.518095 0.09453263 -4.632256
v 6.698094 0.3835326 -5.069256
v 5.892094 0.3835326 -3.325256
v 6.657094 0.09453263 -2.907256
v 7.518095 0.09453263 -4.632256
v 5.223094 0.2095326 -3.690256
v 6.698094 0.3835326 -5.069256
v 6.030094 0.2222551 -5.168256
v 5.756163 0.1436992 -5.317806
v 6.030094 0.2222551 -5.168256
v 5.806094 0.1375326 -5.470256
v 5.806094 0.1375326 -5.470256
v 6.030094 0.2222551 -5.168256
v 6.698094 0.3835326 -5.069256
v 5.732513 0.1375326 -5.330717
v 5.756163 0.1436992 -5.317806
v 5.806094 0.1375326 -5.470256
v 5.223094 0.2095326 -3.690256
v 5.892094 0.3835326 -3.325256
v 6.698094 0.3835326 -5.069256
v 3.856094 5.656533 -4.436256
v 4.947094 5.267533 -3.841256
v 6.030094 5.169533 -5.168256
v 4.947094 5.267533 -3.841256
v 5.223094 5.169533 -3.690256
v 6.030094 5.169533 -5.168256
v 1.642094 5.169533 -5.645256
v 2.823094 5.656533 -5.000256
v 2.449094 5.169533 -7.123256
v 2.449094 5.169533 -7.123256
v 2.823094 5.656533 -5.000256
v 3.856094 5.656533 -4.436256
v 2.449094 5.169533 -7.123256
v 3.856094 5.656533 -4.436256
v 6.030094 5.169533 -5.168256
v -1.860906 5.656533 -6.548256
v 1.642094 5.656533 -5.645256
v -1.435906 5.656533 -7.326256
v 0.8170943 5.656533 8.063744
v 2.823094 5.656533 -5.000256
v 1.642094 5.656533 -5.645256
v -7.390906 5.656533 3.581744
v -7.390906 5.656533 3.581744
v 1.642094 5.656533 -5.645256
v -1.860906 5.656533 -6.548256
v 0.8170943 5.656533 8.063744
v 6.773094 5.656533 -2.844256
v 6.657094 5.656533 -2.907256
v 0.8170943 5.656533 8.063744
v 6.657094 5.656533 -2.907256
v 5.892094 5.656533 -3.325256
v 0.8170943 5.656533 8.063744
v 5.892094 5.656533 -3.325256
v 5.223094 5.656533 -3.690256
v 0.8170943 5.656533 8.063744
v 5.223094 5.656533 -3.690256
v 4.947094 5.656533 -3.841256
v 0.8170943 5.656533 8.063744
v 4.947094 5.656533 -3.841256
v 3.856094 5.656533 -4.436256
v 0.8170943 5.656533 8.063744
v 3.856094 5.656533 -4.436256
v 2.823094 5.656533 -5.000256
v 6.657094 -5.570434 -2.907256
v 7.518095 -5.570434 -4.632256
v 7.518095 0.09453263 -4.632256
v 6.657094 0.09453263 -2.907256
v 6.698094 0.3835326 -5.069256
v 7.108094 -5.570434 -4.850756
v 6.698094 -5.570434 -5.069256
v 7.108094 -5.570434 -4.850756
v 7.518095 0.09453263 -4.632256
v 7.518095 -5.570434 -4.632256
v 6.698094 0.3835326 -5.069256
v 7.518095 0.09453263 -4.632256
v 7.108094 -5.570434 -4.850756
v 5.806094 0.1375326 -5.470256
v 6.698094 0.3835326 -5.069256
v 6.698094 -5.570434 -5.069256
v 5.806094 -5.570434 -5.470256
v 5.732513 0.1375326 -5.330717
v 5.806094 0.1375326 -5.470256
v 5.806094 -5.570434 -5.470256
v 5.732513 -5.570434 -5.330717
v 1.642094 5.169533 -5.645256
v 2.045594 -5.570434 -6.384256
v 1.642094 -5.570434 -5.645256
v 2.045594 -5.570434 -6.384256
v 2.449094 5.169533 -7.123256
v 2.449094 -5.570434 -7.123256
v 1.642094 5.169533 -5.645256
v 2.449094 5.169533 -7.123256
v 2.045594 -5.570434 -6.384256
v -1.435906 5.656533 -7.326256
v 0.1030943 -5.570434 -6.485756
v -1.435906 -5.570434 -7.326256
v -1.435906 5.656533 -7.326256
v 1.642094 5.656533 -5.645256
v 0.1030943 -5.570434 -6.485756
v 0.1030943 -5.570434 -6.485756
v 1.642094 5.656533 -5.645256
v 1.642094 5.169533 -5.645256
v 0.1030943 -5.570434 -6.485756
v 1.642094 5.169533 -5.645256
v 1.642094 -5.570434 -5.645256
v 1.642094 5.656533 -5.645256
v 2.823094 5.656533 -5.000256
v 1.642094 5.169533 -5.645256
v -1.860906 5.656533 -6.548256
v -1.435906 5.656533 -7.326256
v -1.435906 -5.570434 -7.326256
v -1.860906 -5.570434 -6.548256
v -7.390906 5.656533 3.581744
v -1.860906 5.656533 -6.548256
v -1.860906 -5.570434 -6.548256
v -7.390906 -5.570434 3.581744
v -7.390906 -5.570434 3.581744
v 0.8170943 -5.570434 8.063744
v 0.8170943 5.656533 8.063744
v -7.390906 5.656533 3.581744
v 0.8170943 -5.570434 8.063744
v 6.773094 -5.570434 -2.844256
v 6.773094 5.656533 -2.844256
v 0.8170943 5.656533 8.063744
v 6.657094 5.656533 -2.907256
v 6.773094 5.656533 -2.844256
v 6.657094 0.09453263 -2.907256
v 6.657094 0.09453263 -2.907256
v 6.773094 -5.570434 -2.844256
v 6.657094 -5.570434 -2.907256
v 6.657094 0.09453263 -2.907256
v 6.773094 5.656533 -2.844256
v 6.773094 -5.570434 -2.844256
v 4.947094 5.656533 -3.841256
v 5.223094 5.656533 -3.690256
v 5.223094 5.169533 -3.690256
v 4.947094 5.267533 -3.841256
v 3.856094 5.656533 -4.436256
v 4.947094 5.656533 -3.841256
v 4.947094 5.267533 -3.841256
v 5.892094 5.656533 -3.325256
v 6.657094 5.656533 -2.907256
v 6.657094 0.09453263 -2.907256
v 5.892094 0.3835326 -3.325256
v 5.223094 5.656533 -3.690256
v 5.892094 5.656533 -3.325256
v 5.223094 5.169533 -3.690256
v 5.223094 5.169533 -3.690256
v 5.892094 5.656533 -3.325256
v 5.892094 0.3835326 -3.325256
v 5.223094 0.2095326 -3.690256
v 5.223094 0.2095326 -3.690256
v 6.030094 0.2222551 -5.168256
v 6.030094 5.169533 -5.168256
v 5.223094 5.169533 -3.690256
v 2.449094 5.169533 -7.123256
v 5.732513 0.1375326 -5.330717
v 2.449094 -5.570434 -7.123256
v 2.449094 5.169533 -7.123256
v 6.030094 5.169533 -5.168256
v 5.732513 0.1375326 -5.330717
v 2.449094 -5.570434 -7.123256
v 5.732513 0.1375326 -5.330717
v 5.732513 -5.570434 -5.330717
v 5.756163 0.1436992 -5.317806
v 6.030094 5.169533 -5.168256
v 6.030094 0.2222551 -5.168256
v 5.732513 0.1375326 -5.330717
v 6.030094 5.169533 -5.168256
v 5.756163 0.1436992 -5.317806
v 0.1030943 -5.570434 -6.485756
v 1.642094 -5.570434 -5.645256
v 2.045594 -5.570434 -6.384256
v 2.449094 -5.570434 -7.123256
v 5.732513 -5.570434 -5.330717
v 5.806094 -5.570434 -5.470256
v 6.698094 -5.570434 -5.069256
v 7.108094 -5.570434 -4.850756
v 7.518095 -5.570434 -4.632256
v 6.657094 -5.570434 -2.907256
v 6.773094 -5.570434 -2.844256
v 0.8170943 -5.570434 8.063744
v -7.390906 -5.570434 3.581744
v -1.860906 -5.570434 -6.548256
v -1.435906 -5.570434 -7.326256
vt 0.974363 0.832226
vt 0.929449 0.878056
vt 0.908257 0.854889
vt 0.974363 0.832226
vt 0.994779 0.853902
vt 0.929449 0.878056
vt 0.018230 0.998931
vt 0.068878 0.958472
vt 0.074526 0.977395
vt 0.081145 0.985243
vt 0.074526 0.977395
vt 0.087038 0.983961
vt 0.087038 0.983961
vt 0.074526 0.977395
vt 0.068878 0.958472
vt 0.081708 0.985918
vt 0.081145 0.985243
vt 0.087038 0.983961
vt 0.018230 0.998931
vt 0.002294 0.979843
vt 0.068878 0.958472
vt 0.866028 0.832226
vt 0.894633 0.863586
vt 0.846330 0.894457
vt 0.894633 0.863586
vt 0.901878 0.871513
vt 0.846330 0.894457
vt 0.406949 0.992883
vt 0.376147 0.958472
vt 0.463834 0.971431
vt 0.520369 0.932513
vt 0.432181 0.923436
vt 0.410550 0.894490
vt 0.520369 0.932513
vt 0.410550 0.894490
vt 0.445437 0.832226
vt 0.573548 0.246462
vt 0.538435 0.147198
vt 0.603997 0.234499
vt 0.002294 0.169311
vt 0.513279 0.113700
vt 0.538435 0.147198
vt 0.177111 0.402103
vt 0.177111 0.402103
vt 0.538435 0.147198
vt 0.573548 0.246462
vt 0.002294 0.169311
vt 0.429188 0.001661
vt 0.431645 0.004951
vt 0.002294 0.169311
vt 0.431645 0.004951
vt 0.447949 0.026650
vt 0.002294 0.169311
vt 0.447949 0.026650
vt 0.462185 0.045626
vt 0.002294 0.169311
vt 0.462185 0.045626
vt 0.468074 0.053455
vt 0.002294 0.169311
vt 0.468074 0.053455
vt 0.491281 0.084400
vt 0.002294 0.169311
vt 0.491281 0.084400
vt 0.513279 0.113700
vt 0.237905 0.975029
vt 0.172341 0.998918
vt 0.091743 0.982527
vt 0.157760 0.958472
vt 0.746706 0.872558
vt 0.817760 0.843457
vt 0.826022 0.854687
vt 0.817760 0.843457
vt 0.733945 0.849068
vt 0.809498 0.832226
vt 0.746706 0.872558
vt 0.733945 0.849068
vt 0.817760 0.843457
vt 0.765267 0.896411
vt 0.746706 0.872558
vt 0.826022 0.854687
vt 0.841177 0.879114
vt 0.470183 0.960387
vt 0.475509 0.958472
vt 0.550897 0.982954
vt 0.545608 0.984856
vt 0.525229 0.854177
vt 0.698691 0.889937
vt 0.670218 0.900770
vt 0.698691 0.889937
vt 0.582924 0.832226
vt 0.727164 0.879105
vt 0.525229 0.854177
vt 0.582924 0.832226
vt 0.698691 0.889937
vt 0.092506 0.954968
vt 0.211452 0.874886
vt 0.243606 0.917545
vt 0.092506 0.954968
vt 0.027310 0.868474
vt 0.211452 0.874886
vt 0.211452 0.874886
vt 0.027310 0.868474
vt 0.033989 0.866881
vt 0.211452 0.874886
vt 0.033989 0.866881
vt 0.179298 0.832226
vt 0.027310 0.868474
vt 0.002294 0.835287
vt 0.033989 0.866881
vt 0.400808 0.418726
vt 0.431416 0.406977
vt 0.583293 0.455291
vt 0.553101 0.466881
vt 0.002294 0.571598
vt 0.400808 0.418726
vt 0.553101 0.466881
vt 0.159995 0.617672
vt 0.768445 0.001661
vt 0.945701 0.230058
vt 0.789806 0.280068
vt 0.610092 0.048514
vt 0.583207 0.657658
vt 0.164040 0.827822
vt 0.002294 0.793780
vt 0.427248 0.621262
vt 0.252431 0.869747
vt 0.250000 0.866490
vt 0.328572 0.852633
vt 0.328572 0.852633
vt 0.402671 0.832226
vt 0.405069 0.835439
vt 0.328572 0.852633
vt 0.250000 0.866490
vt 0.402671 0.832226
vt 0.288469 0.917765
vt 0.282643 0.910015
vt 0.289333 0.908483
vt 0.293811 0.916538
vt 0.311426 0.948401
vt 0.288469 0.917765
vt 0.293811 0.916538
vt 0.268559 0.891229
vt 0.252431 0.869747
vt 0.328572 0.852633
vt 0.340665 0.874861
vt 0.282643 0.910015
vt 0.268559 0.891229
vt 0.289333 0.908483
vt 0.289333 0.908483
vt 0.268559 0.891229
vt 0.340665 0.874861
vt 0.357019 0.892985
vt 0.371017 0.973350
vt 0.314422 0.995741
vt 0.243119 0.981038
vt 0.299875 0.958472
vt 0.665155 0.746686
vt 0.664304 0.638787
vt 0.809577 0.712311
vt 0.665155 0.746686
vt 0.589450 0.646079
vt 0.664304 0.638787
vt 0.809577 0.712311
vt 0.664304 0.638787
vt 0.741067 0.621262
vt 0.663724 0.638146
vt 0.589450 0.646079
vt 0.656904 0.630739
vt 0.664304 0.638787
vt 0.589450 0.646079
vt 0.663724 0.638146
vt 0.557339 0.958472
vt 0.557339 0.958472
vt 0.557339 0.958472
vt 0.557339 0.958472
vt 0.557339 0.958472
vt 0.557339 0.958472
vt 0.557339 0.958472
vt 0.557339 0.958472
vt 0.557339 0.958472
vt 0.557339 0.958472
vt 0.557339 0.958472
vt 0.557339 0.958472
vt 0.557339 0.958472
vt 0.557339 0.958472
vt 0.557339 0.958472
vn 0.2699913 0.9547435 0.1247781
vn 0.2699913 0.9547435 0.1247781
vn 0.2699913 0.9547435 0.1247781
vn 0.2817272 0.9491345 0.1406186
vn 0.2817272 0.9491345 0.1406186
vn 0.2817272 0.9491345 0.1406186
vn -0.2177417 0.9697263 -0.1105414
vn -0.2177417 0.9697263 -0.1105414
vn -0.2177417 0.9697263 -0.1105414
vn -0.2177417 0.9697263 -0.1105414
vn -0.2177417 0.9697263 -0.1105414
vn -0.2177417 0.9697263 -0.1105414
vn -0.2177417 0.9697263 -0.1105414
vn -0.2177417 0.9697263 -0.1105414
vn -0.2177417 0.9697263 -0.1105414
vn -0.197357 0.9747921 -0.1040698
vn -0.197357 0.9747921 -0.1040698
vn -0.197357 0.9747921 -0.1040698
vn -0.2024814 0.9748048 -0.093578
vn -0.2024814 0.9748048 -0.093578
vn -0.2024814 0.9748048 -0.093578
vn 0.2620657 0.9543364 0.1434003
vn 0.2620657 0.9543364 0.1434003
vn 0.2620657 0.9543364 0.1434003
vn 0.2610304 0.9547512 0.1425247
vn 0.2610304 0.9547512 0.1425247
vn 0.2610304 0.9547512 0.1425247
vn -0.298683 0.940315 -0.1630833
vn -0.298683 0.940315 -0.1630833
vn -0.298683 0.940315 -0.1630833
vn 0.1331187 0.9606423 -0.243815
vn 0.1331187 0.9606423 -0.243815
vn 0.1331187 0.9606423 -0.243815
vn 0.1331037 0.9606462 -0.2438078
vn 0.1331037 0.9606462 -0.2438078
vn 0.1331037 0.9606462 -0.2438078
vn 0 1 0
vn 0 1 0
vn 0 1 0
vn 0 1 0
vn 0 1 0
vn 0 1 0
vn 0 1 0
vn 0 1 0
vn 0 1 0
vn 0 1 0
vn 0 1 0
vn 0 1 0
vn 0 1 0
vn 0 1 0
vn 0 1 0
vn 0 1 0
vn 0 1 0
vn 0 1 0
vn 0 1 0
vn 0 1 0
vn 0 1 0
vn 0 1 0
vn 0 1 0
vn 0 1 0
vn 0 1 0
vn 0 1 0
vn 0 1 0
vn 0 1 0
vn 0.8947382 0 0.446591
vn 0.8947382 0 0.446591
vn 0.8947382 0 0.446591
vn 0.8947382 0 0.446591
vn 0.4703089 0 -0.8825018
vn 0.4703089 0 -0.8825018
vn 0.4703089 0 -0.8825018
vn 0.4703089 0 -0.8825018
vn 0.4703089 0 -0.8825018
vn 0.4703089 0 -0.8825018
vn 0.4703089 6.838136E-11 -0.8825018
vn 0.4703089 6.838136E-11 -0.8825018
vn 0.4703089 6.838136E-11 -0.8825018
vn 0.4100245 0 -0.9120745
vn 0.4100245 0 -0.9120745
vn 0.4100245 0 -0.9120745
vn 0.4100245 0 -0.9120745
vn -0.8845528 0 -0.4664401
vn -0.8845528 0 -0.4664401
vn -0.8845528 0 -0.4664401
vn -0.8845528 0 -0.4664401
vn -0.8776913 0 -0.4792266
vn -0.8776913 0 -0.4792266
vn -0.8776913 0 -0.4792266
vn -0.8776913 0 -0.4792266
vn -0.8776913 0 -0.4792266
vn -0.8776913 0 -0.4792266
vn -0.8776913 2.378417E-12 -0.4792266
vn -0.8776913 2.378417E-12 -0.4792266
vn -0.8776913 2.378417E-12 -0.4792266
vn 0.4793116 0 -0.8776448
vn 0.4793116 0 -0.8776448
vn 0.4793116 0 -0.8776448
vn 0.4793116 -1.242526E-12 -0.8776448
vn 0.4793116 -1.242526E-12 -0.8776448
vn 0.4793116 -1.242526E-12 -0.8776448
vn 0.4793116 0 -0.8776448
vn 0.4793116 0 -0.8776448
vn 0.4793116 0 -0.8776448
vn 0.4793116 0 -0.8776448
vn 0.4793116 0 -0.8776448
vn 0.4793116 0 -0.8776448
vn 0.4793207 0 -0.8776398
vn 0.4793207 0 -0.8776398
vn 0.4793207 0 -0.8776398
vn -0.8775936 0 -0.4794053
vn -0.8775936 0 -0.4794053
vn -0.8775936 0 -0.4794053
vn -0.8775936 0 -0.4794053
vn -0.87773 0 -0.4791556
vn -0.87773 0 -0.4791556
vn -0.87773 0 -0.4791556
vn -0.87773 0 -0.4791556
vn -0.4792566 0 0.8776748
vn -0.4792566 0 0.8776748
vn -0.4792566 0 0.8776748
vn -0.4792566 0 0.8776748
vn 0.8776864 0 0.4792354
vn 0.8776864 0 0.4792354
vn 0.8776864 0 0.4792354
vn 0.8776864 0 0.4792354
vn 0.477259 0 -0.8787627
vn 0.477259 0 -0.8787627
vn 0.477259 0 -0.8787627
vn 0.477259 0 -0.8787627
vn 0.477259 0 -0.8787627
vn 0.477259 0 -0.8787627
vn 0.477259 0 -0.8787627
vn 0.477259 0 -0.8787627
vn 0.477259 0 -0.8787627
vn 0.4799653 0 -0.8772875
vn 0.4799653 0 -0.8772875
vn 0.4799653 0 -0.8772875
vn 0.4799653 0 -0.8772875
vn 0.4787957 0 -0.8779263
vn 0.4787957 0 -0.8779263
vn 0.4787957 0 -0.8779263
vn 0.479495 0 -0.8775446
vn 0.479495 0 -0.8775446
vn 0.479495 0 -0.8775446
vn 0.479495 0 -0.8775446
vn 0.4789441 0 -0.8778454
vn 0.4789441 0 -0.8778454
vn 0.4789441 0 -0.8778454
vn 0.4789441 0 -0.8778454
vn 0.4789441 0 -0.8778454
vn 0.4789441 0 -0.8778454
vn 0.4789441 0 -0.8778454
vn 0.8776913 0 0.4792266
vn 0.8776913 0 0.4792266
vn 0.8776913 0 0.4792266
vn 0.8776913 0 0.4792266
vn 0.4791784 0 -0.8777176
vn 0.4791784 0 -0.8777176
vn 0.4791784 0 -0.8777176
vn 0.4791784 -5.243815E-10 -0.8777176
vn 0.4791784 -5.243815E-10 -0.8777176
vn 0.4791784 -5.243815E-10 -0.8777176
vn 0.4791784 0 -0.8777176
vn 0.4791784 0 -0.8777176
vn 0.4791784 0 -0.8777176
vn 0.4791784 0 -0.8777176
vn 0.4791784 0 -0.8777176
vn 0.4791784 0 -0.8777176
vn 0.4791782 1.550224E-08 -0.8777177
vn 0.4791782 1.550224E-08 -0.8777177
vn 0.4791782 1.550224E-08 -0.8777177
vn 0 -1 0
vn 0 -1 0
vn 0 -1 0
vn 0 -1 0
vn 0 -1 0
vn 0 -1 0
vn 0 -1 0
vn 0 -1 0
vn 0 -1 0
vn 0 -1 0
vn 0 -1 0
vn 0 -1 0
vn 0 -1 0
vn 0 -1 0
vn 0 -1 0

g CDNNDG01_0001270
f 1/1/1 2/2/2 3/3/3
f 4/4/4 5/5/5 6/6/6
f 7/7/7 8/8/8 9/9/9
f 10/10/10 11/11/11 12/12/12
f 13/13/13 14/14/14 15/15/15
f 16/16/16 17/17/17 18/18/18
f 19/19/19 20/20/20 21/21/21
f 22/22/22 23/23/23 24/24/24
f 25/25/25 26/26/26 27/27/27
f 28/28/28 29/29/29 30/30/30
f 31/31/31 32/32/32 33/33/33
f 34/34/34 35/35/35 36/36/36
f 37/37/37 38/38/38 39/39/39
f 40/40/40 41/41/41 43/43/43
f 43/43/43 41/41/41 42/42/42
f 44/44/44 45/45/45 46/46/46
f 47/47/47 48/48/48 49/49/49
f 50/50/50 51/51/51 52/52/52
f 53/53/53 54/54/54 55/55/55
f 56/56/56 57/57/57 58/58/58
f 59/59/59 60/60/60 61/61/61
f 62/62/62 63/63/63 64/64/64
f 65/65/65 67/67/67 68/68/68
f 65/65/65 66/66/66 67/67/67
f 69/69/69 70/70/70 71/71/71
f 72/72/72 73/73/73 74/74/74
f 75/75/75 76/76/76 77/77/77
f 80/80/80 78/78/78 79/79/79
f 78/78/78 80/80/80 81/81/81
f 82/82/82 83/83/83 84/84/84
f 85/85/85 82/82/82 84/84/84
f 86/86/86 87/87/87 88/88/88
f 89/89/89 90/90/90 91/91/91
f 92/92/92 93/93/93 94/94/94
f 95/95/95 96/96/96 97/97/97
f 98/98/98 99/99/99 100/100/100
f 101/101/101 102/102/102 103/103/103
f 104/104/104 105/105/105 106/106/106
f 107/107/107 108/108/108 109/109/109
f 110/110/110 112/112/112 113/113/113
f 110/110/110 111/111/111 112/112/112
f 114/114/114 116/116/116 117/117/117
f 114/114/114 115/115/115 116/116/116
f 118/118/118 120/120/120 121/121/121
f 120/120/120 118/118/118 119/119/119
f 125/125/125 122/122/122 124/124/124
f 123/123/123 124/124/124 122/122/122
f 126/126/126 127/127/127 128/128/128
f 129/129/129 130/130/130 131/131/131
f 132/132/132 133/133/133 134/134/134
f 138/138/138 135/135/135 136/136/136
f 136/136/136 137/137/137 138/138/138
f 139/139/139 140/140/140 141/141/141
f 144/144/144 145/145/145 143/143/143
f 142/142/142 143/143/143 145/145/145
f 146/146/146 147/147/147 148/148/148
f 151/151/151 149/149/149 150/150/150
f 149/149/149 151/151/151 152/152/152
f 154/154/154 155/155/155 156/156/156
f 153/153/153 154/154/154 156/156/156
f 157/157/157 158/158/158 159/159/159
f 160/160/160 161/161/161 162/162/162
f 163/163/163 164/164/164 165/165/165
f 166/166/166 167/167/167 168/168/168
f 169/169/169 170/170/170 171/171/171
f 185/185/185 173/173/173 184/184/184
f 185/185/185 172/172/172 173/173/173
f 186/186/186 172/172/172 185/185/185
f 183/183/183 184/184/184 173/173/173
f 174/174/174 175/175/175 176/176/176
f 176/176/176 173/173/173 174/174/174
f 181/181/181 178/178/178 179/179/179
f 183/183/183 173/173/173 181/181/181
f 178/178/178 176/176/176 177/177/177
f 181/181/181 179/179/179 180/180/180
f 176/176/176 178/178/178 181/181/181
f 181/181/181 173/173/173 176/176/176
f 181/181/181 182/182/182 183/183/183
