v 4.024827 6.665305 1.076699
v 4.854827 7.013305 0.6416991
v 4.704827 6.656305 -0.2653009
v 4.024827 6.665305 1.076699
v 4.871827 6.665305 1.504699
v 4.854827 7.013305 0.6416991
v 4.704827 6.656305 -0.2653009
v 4.854827 7.013305 0.6416991
v 5.550827 6.665305 0.1636991
v 4.854827 7.013305 0.6416991
v 4.871827 6.665305 1.504699
v 5.550827 6.665305 0.1636991
v -3.302173 7.447305 -3.483301
v -2.485173 7.447305 -3.042301
v -2.064173 7.447305 -3.821301
v -2.881173 7.447305 -4.262301
v -8.935173 -0.6536948 7.932699
v -6.378173 -0.6536948 9.267699
v -4.580173 -0.6536948 5.823699
v -7.137173 -0.6536948 4.488699
v -6.081173 -0.9936948 -1.292301
v -5.083825 -0.9936948 -0.7708541
v -4.161827 -0.9936948 -2.588835
v -5.138173 -0.9936948 -3.099301
v -8.429173 6.284305 3.697699
v -6.152173 6.284305 1.335699
v -7.058173 6.284305 0.8736991
v -2.485173 6.284305 -3.042301
v 8.452827 6.284305 -4.544301
v -2.064173 6.284305 -3.821301
v -2.064173 6.284305 -3.821301
v 8.452827 6.284305 -4.544301
v -0.6231729 6.284305 -9.566301
v -6.152173 6.284305 1.335699
v 8.452827 6.284305 -4.544301
v -2.485173 6.284305 -3.042301
v -3.302173 6.284305 -3.483301
v -2.881173 6.284305 -4.262301
v -0.6231729 6.284305 -9.566301
v -2.881173 6.284305 -4.262301
v -2.064173 6.284305 -3.821301
v -0.6231729 6.284305 -9.566301
v -6.152173 6.284305 1.335699
v -2.485173 6.284305 -3.042301
v -3.302173 6.284305 -3.483301
v -6.152173 6.284305 1.335699
v -3.302173 6.284305 -3.483301
v -0.6231729 6.284305 -9.566301
v 1.264827 6.284305 9.043699
v 4.871827 6.284305 1.504699
v 4.024827 6.284305 1.076699
v 1.264827 6.284305 9.043699
v 8.452827 6.284305 -4.544301
v 4.871827 6.284305 1.504699
v -6.152173 6.284305 1.335699
v 1.264827 6.284305 9.043699
v 4.024827 6.284305 1.076699
v 4.704827 6.284305 -0.2653009
v 5.550827 6.284305 0.1636991
v 8.452827 6.284305 -4.544301
v 4.871827 6.284305 1.504699
v 8.452827 6.284305 -4.544301
v 5.550827 6.284305 0.1636991
v -6.152173 6.284305 1.335699
v 4.024827 6.284305 1.076699
v 4.704827 6.284305 -0.2653009
v -6.152173 6.284305 1.335699
v 4.704827 6.284305 -0.2653009
v 8.452827 6.284305 -4.544301
v -6.152173 6.284305 1.335699
v -4.580173 6.284305 5.823699
v 1.264827 6.284305 9.043699
v -8.429173 6.284305 3.697699
v -7.137173 6.284305 4.488699
v -6.152173 6.284305 1.335699
v -7.137173 6.284305 4.488699
v -4.580173 6.284305 5.823699
v -6.152173 6.284305 1.335699
v 4.024827 6.665305 1.076699
v 4.704827 6.656305 -0.2653009
v 4.704827 6.284305 -0.2653009
v 4.024827 6.284305 1.076699
v 4.024827 6.284305 1.076699
v 4.871827 6.284305 1.504699
v 4.871827 6.665305 1.504699
v 4.024827 6.665305 1.076699
v 4.704827 6.656305 -0.2653009
v 5.550827 6.665305 0.1636991
v 5.550827 6.284305 0.1636991
v 4.704827 6.284305 -0.2653009
v 4.871827 6.284305 1.504699
v 5.550827 6.284305 0.1636991
v 5.550827 6.665305 0.1636991
v 4.871827 6.665305 1.504699
v -3.302173 6.284305 -3.483301
v -2.485173 6.284305 -3.042301
v -2.485173 7.447305 -3.042301
v -3.302173 7.447305 -3.483301
v -2.485173 6.284305 -3.042301
v -2.064173 6.284305 -3.821301
v -2.064173 7.447305 -3.821301
v -2.485173 7.447305 -3.042301
v -2.881173 7.447305 -4.262301
v -2.064173 7.447305 -3.821301
v -2.064173 6.284305 -3.821301
v -2.881173 6.284305 -4.262301
v -3.302173 7.447305 -3.483301
v -2.881173 7.447305 -4.262301
v -2.881173 6.284305 -4.262301
v -3.302173 6.284305 -3.483301
v -8.935173 -6.050326 7.932699
v -6.378173 -6.050326 9.267699
v -6.378173 -0.6536948 9.267699
v -8.935173 -0.6536948 7.932699
v -6.378173 -6.050326 9.267699
v -4.580173 -6.050326 5.823699
v -4.580173 -0.6536948 5.823699
v -6.378173 -0.6536948 9.267699
v -8.935173 -0.6536948 7.932699
v -7.137173 -0.6536948 4.488699
v -7.137173 -6.050326 4.488699
v -8.935173 -6.050326 7.932699
v -6.081173 -6.050326 -1.292301
v -5.083825 -6.050326 -0.7708541
v -5.083825 -0.9936948 -0.7708541
v -6.081173 -0.9936948 -1.292301
v -5.138173 -0.9936948 -3.099301
v -4.161827 -0.9936948 -2.588835
v -4.161827 -6.050326 -2.588835
v -5.138173 -6.050326 -3.099301
v -6.081173 -0.9936948 -1.292301
v -5.138173 -0.9936948 -3.099301
v -5.138173 -6.050326 -3.099301
v -6.081173 -6.050326 -1.292301
v -8.429173 6.284305 3.697699
v -7.137173 -0.6536948 4.488699
v -7.137173 6.284305 4.488699
v -8.429173 -6.050326 3.697699
v -7.137173 -6.050326 4.488699
v -7.137173 -0.6536948 4.488699
v -8.429173 6.284305 3.697699
v -8.429173 -6.050326 3.697699
v -7.137173 -0.6536948 4.488699
v -4.580173 -0.6536948 5.823699
v 1.264827 -6.050326 9.043699
v 1.264827 6.284305 9.043699
v -4.580173 6.284305 5.823699
v -4.580173 -0.6536948 5.823699
v -4.580173 -6.050326 5.823699
v 1.264827 -6.050326 9.043699
v -7.137173 -0.6536948 4.488699
v -4.580173 -0.6536948 5.823699
v -4.580173 6.284305 5.823699
v -7.137173 6.284305 4.488699
v 1.264827 -6.050326 9.043699
v 8.452827 -6.050326 -4.544301
v 8.452827 6.284305 -4.544301
v 1.264827 6.284305 9.043699
v -0.6231729 6.284305 -9.566301
v 8.452827 6.284305 -4.544301
v 8.452827 -6.050326 -4.544301
v -0.6231729 -6.050326 -9.566301
v -7.058173 6.284305 0.8736991
v -6.152173 6.284305 1.335699
v -6.152173 -6.050326 1.335699
v -7.058173 -6.050326 0.8736991
v -8.429173 6.284305 3.697699
v -7.058173 6.284305 0.8736991
v -7.058173 -6.050326 0.8736991
v -8.429173 -6.050326 3.697699
v -6.152173 6.284305 1.335699
v -5.083825 -0.9936948 -0.7708541
v -6.152173 -6.050326 1.335699
v -6.152173 6.284305 1.335699
v -4.161827 -0.9936948 -2.588835
v -5.083825 -0.9936948 -0.7708541
v -6.152173 -6.050326 1.335699
v -5.083825 -0.9936948 -0.7708541
v -5.083825 -6.050326 -0.7708541
v -4.161827 -0.9936948 -2.588835
v -0.6231729 6.284305 -9.566301
v -3.387673 -6.050326 -4.115301
v -6.152173 6.284305 1.335699
v -0.6231729 6.284305 -9.566301
v -4.161827 -0.9936948 -2.588835
v -4.161827 -0.9936948 -2.588835
v -3.387673 -6.050326 -4.115301
v -4.161827 -6.050326 -2.588835
v -3.387673 -6.050326 -4.115301
v -0.6231729 6.284305 -9.566301
v -0.6231729 -6.050326 -9.566301
v -6.152173 -6.050326 1.335699
v -5.083825 -6.050326 -0.7708541
v -6.081173 -6.050326 -1.292301
v -5.138173 -6.050326 -3.099301
v -4.161827 -6.050326 -2.588835
v -3.387673 -6.050326 -4.115301
v -0.6231729 -6.050326 -9.566301
v 8.452827 -6.050326 -4.544301
v 1.264827 -6.050326 9.043699
v -4.580173 -6.050326 5.823699
v -6.378173 -6.050326 9.267699
v -8.935173 -6.050326 7.932699
v -7.137173 -6.050326 4.488699
v -8.429173 -6.050326 3.697699
v -7.058173 -6.050326 0.8736991
vt 0.591899 0.922652
vt 0.576583 0.943731
vt 0.548134 0.938119
vt 0.490424 0.922652
vt 0.504309 0.941720
vt 0.475442 0.943731
vt 0.597250 0.922652
vt 0.625123 0.923658
vt 0.611296 0.941470
vt 0.644782 0.922652
vt 0.674275 0.924844
vt 0.630648 0.940374
vt 0.408390 0.922652
vt 0.423114 0.941304
vt 0.397828 0.951179
vt 0.383104 0.932527
vt 0.678430 0.705801
vt 0.724129 0.765565
vt 0.609551 0.808761
vt 0.563851 0.748998
vt 0.359928 0.922652
vt 0.377548 0.945568
vt 0.317839 0.967358
vt 0.300589 0.944924
vt 0.450723 0.001381
vt 0.371164 0.056560
vt 0.355058 0.034987
vt 0.223483 0.145577
vt 0.176729 0.407928
vt 0.197112 0.155872
vt 0.197112 0.155872
vt 0.176729 0.407928
vt 0.001965 0.191947
vt 0.371164 0.056560
vt 0.176729 0.407928
vt 0.223483 0.145577
vt 0.208128 0.126131
vt 0.181757 0.136426
vt 0.001965 0.191947
vt 0.181757 0.136426
vt 0.197112 0.155872
vt 0.001965 0.191947
vt 0.371164 0.056560
vt 0.223483 0.145577
vt 0.208128 0.126131
vt 0.371164 0.056560
vt 0.208128 0.126131
vt 0.001965 0.191947
vt 0.636764 0.232094
vt 0.381365 0.320527
vt 0.366442 0.300360
vt 0.636764 0.232094
vt 0.176729 0.407928
vt 0.381365 0.320527
vt 0.371164 0.056560
vt 0.636764 0.232094
vt 0.366442 0.300360
vt 0.320995 0.317010
vt 0.335952 0.337153
vt 0.176729 0.407928
vt 0.381365 0.320527
vt 0.176729 0.407928
vt 0.335952 0.337153
vt 0.371164 0.056560
vt 0.366442 0.300360
vt 0.320995 0.317010
vt 0.371164 0.056560
vt 0.320995 0.317010
vt 0.176729 0.407928
vt 0.371164 0.056560
vt 0.524708 0.092987
vt 0.636764 0.232094
vt 0.450723 0.001381
vt 0.478194 0.032110
vt 0.371164 0.056560
vt 0.478194 0.032110
vt 0.524708 0.092987
vt 0.371164 0.056560
vt 0.756928 0.925108
vt 0.713163 0.940367
vt 0.714509 0.937962
vt 0.758286 0.922652
vt 0.529747 0.922652
vt 0.542905 0.941711
vt 0.541652 0.944209
vt 0.528487 0.925141
vt 0.508841 0.922652
vt 0.522160 0.941628
vt 0.523416 0.943892
vt 0.510073 0.924871
vt 0.840638 0.924892
vt 0.797032 0.940415
vt 0.795678 0.938182
vt 0.839305 0.922652
vt 0.432434 0.922652
vt 0.446290 0.941206
vt 0.442167 0.948669
vt 0.428291 0.930088
vt 0.708772 0.929734
vt 0.684002 0.939345
vt 0.679764 0.932277
vt 0.704571 0.922652
vt 0.451866 0.922652
vt 0.465894 0.941214
vt 0.470004 0.948445
vt 0.455996 0.929910
vt 0.787169 0.929920
vt 0.762279 0.939408
vt 0.766588 0.932125
vt 0.791442 0.922652
vt 0.809270 0.705801
vt 0.853348 0.765142
vt 0.836120 0.799556
vt 0.791749 0.739821
vt 0.989961 0.740329
vt 0.876573 0.783134
vt 0.858546 0.748892
vt 0.972689 0.705801
vt 0.116507 0.956566
vt 0.001965 0.999026
vt 0.020530 0.964831
vt 0.134314 0.922652
vt 0.239868 0.922652
vt 0.256689 0.945564
vt 0.238930 0.977667
vt 0.222004 0.954612
vt 0.261297 0.922652
vt 0.278054 0.945200
vt 0.295960 0.976973
vt 0.279307 0.954565
vt 0.198955 0.954612
vt 0.139489 0.976715
vt 0.158254 0.944619
vt 0.217352 0.922652
vt 0.642436 0.080801
vt 0.693875 0.066307
vt 0.669498 0.111540
vt 0.685898 0.001381
vt 0.712550 0.031655
vt 0.693875 0.066307
vt 0.642436 0.080801
vt 0.685898 0.001381
vt 0.693875 0.066307
vt 0.739237 0.126651
vt 0.866223 0.228600
vt 0.825534 0.311505
vt 0.715252 0.172405
vt 0.739237 0.126651
vt 0.757611 0.091601
vt 0.866223 0.228600
vt 0.693875 0.066307
vt 0.739237 0.126651
vt 0.715252 0.172405
vt 0.669498 0.111540
vt 0.727352 0.489412
vt 0.275161 0.662566
vt 0.227898 0.587420
vt 0.687033 0.411602
vt 0.001965 0.411602
vt 0.175794 0.627272
vt 0.222826 0.702475
vt 0.051629 0.490071
vt 0.728880 0.705801
vt 0.744522 0.727158
vt 0.787595 0.806982
vt 0.772190 0.785949
vt 0.515244 0.784601
vt 0.420432 0.817460
vt 0.465101 0.738164
vt 0.558478 0.705801
vt 0.371314 0.785887
vt 0.327209 0.763849
vt 0.416157 0.705801
vt 0.371314 0.785887
vt 0.266169 0.785865
vt 0.327209 0.763849
vt 0.416157 0.705801
vt 0.327209 0.763849
vt 0.345866 0.731154
vt 0.266169 0.785865
vt 0.001965 0.919104
vt 0.234271 0.771405
vt 0.371314 0.785887
vt 0.001965 0.919104
vt 0.266169 0.785865
vt 0.266169 0.785865
vt 0.234271 0.771405
vt 0.285205 0.753034
vt 0.234271 0.771405
vt 0.001965 0.919104
vt 0.052394 0.837006
vt 0.844794 0.922652
vt 0.844794 0.922652
vt 0.844794 0.922652
vt 0.844794 0.922652
vt 0.844794 0.922652
vt 0.844794 0.922652
vt 0.844794 0.922652
vt 0.844794 0.922652
vt 0.844794 0.922652
vt 0.844794 0.922652
vt 0.844794 0.922652
vt 0.844794 0.922652
vt 0.844794 0.922652
vt 0.844794 0.922652
vt 0.844794 0.922652
vn -0.4830156 0.8390523 -0.2503741
vn -0.4830156 0.8390523 -0.2503741
vn -0.4830156 0.8390523 -0.2503741
vn -0.1872384 0.9097485 0.3705394
vn -0.1872384 0.9097485 0.3705394
vn -0.1872384 0.9097485 0.3705394
vn 0.1863146 0.9033307 -0.3863685
vn 0.1863146 0.9033307 -0.3863685
vn 0.1863146 0.9033307 -0.3863685
vn 0.5814219 0.7584718 0.2943963
vn 0.5814219 0.7584718 0.2943963
vn 0.5814219 0.7584718 0.2943963
vn 0 1 0
vn 0 1 0
vn 0 1 0
vn 0 1 0
vn 0 1 0
vn 0 1 0
vn 0 1 0
vn 0 1 0
vn 0 1 0
vn 0 1 0
vn 0 1 0
vn 0 1 0
vn 0 1 0
vn 0 1 0
vn 0 1 0
vn 0 1 0
vn 0 1 0
vn 0 1 0
vn 0 1 0
vn 0 1 0
vn 0 1 0
vn 0 1 0
vn 0 1 0
vn 0 1 0
vn 0 1 0
vn 0 1 0
vn 0 1 0
vn 0 1 0
vn 0 1 0
vn 0 1 0
vn 0 1 0
vn 0 1 0
vn 0 1 0
vn 0 1 0
vn 0 1 0
vn 0 1 0
vn 0 1 0
vn 0 1 0
vn 0 1 0
vn 0 1 0
vn 0 1 0
vn 0 1 0
vn 0 1 0
vn 0 1 0
vn 0 1 0
vn 0 1 0
vn 0 1 0
vn 0 1 0
vn 0 1 0
vn 0 1 0
vn 0 1 0
vn 0 1 0
vn 0 1 0
vn 0 1 0
vn 0 1 0
vn 0 1 0
vn 0 1 0
vn 0 1 0
vn 0 1 0
vn 0 1 0
vn 0 1 0
vn 0 1 0
vn 0 1 0
vn 0 1 0
vn 0 1 0
vn 0 1 0
vn -0.8920215 0 -0.451993
vn -0.8920215 0 -0.451993
vn -0.8920215 0 -0.451993
vn -0.8920215 0 -0.451993
vn -0.451003 0 0.8925224
vn -0.451003 0 0.8925224
vn -0.451003 0 0.8925224
vn -0.451003 0 0.8925224
vn 0.4522668 0 -0.8918827
vn 0.4522668 0 -0.8918827
vn 0.4522668 0 -0.8918827
vn 0.4522668 0 -0.8918827
vn 0.8921537 0 0.4517319
vn 0.8921537 0 0.4517319
vn 0.8921537 0 0.4517319
vn 0.8921537 0 0.4517319
vn -0.4749988 0 0.8799865
vn -0.4749988 0 0.8799865
vn -0.4749988 0 0.8799865
vn -0.4749988 0 0.8799865
vn 0.8797448 0 0.4754462
vn 0.8797448 0 0.4754462
vn 0.8797448 0 0.4754462
vn 0.8797448 0 0.4754462
vn 0.4749988 0 -0.8799865
vn 0.4749988 0 -0.8799865
vn 0.4749988 0 -0.8799865
vn 0.4749988 0 -0.8799865
vn -0.8797448 0 -0.4754462
vn -0.8797448 0 -0.4754462
vn -0.8797448 0 -0.4754462
vn -0.8797448 0 -0.4754462
vn -0.4628148 0 0.886455
vn -0.4628148 0 0.886455
vn -0.4628148 0 0.886455
vn -0.4628148 0 0.886455
vn 0.8864655 0 0.4627947
vn 0.8864655 0 0.4627947
vn 0.8864655 0 0.4627947
vn 0.8864655 0 0.4627947
vn -0.8864655 0 -0.4627947
vn -0.8864655 0 -0.4627947
vn -0.8864655 0 -0.4627947
vn -0.8864655 0 -0.4627947
vn -0.4633279 0 0.8861869
vn -0.4633279 0 0.8861869
vn -0.4633279 0 0.8861869
vn -0.4633279 0 0.8861869
vn 0.4633279 0 -0.8861869
vn 0.4633279 0 -0.8861869
vn 0.4633279 0 -0.8861869
vn 0.4633279 0 -0.8861869
vn -0.8865411 0 -0.4626499
vn -0.8865411 0 -0.4626499
vn -0.8865411 0 -0.4626499
vn -0.8865411 0 -0.4626499
vn -0.5221441 0 0.8528573
vn -0.5221441 0 0.8528573
vn -0.5221441 0 0.8528573
vn -0.5221441 0 0.8528573
vn -0.5221441 0 0.8528573
vn -0.5221441 0 0.8528573
vn -0.5221441 0 0.8528573
vn -0.5221441 0 0.8528573
vn -0.5221441 0 0.8528573
vn -0.4825226 0 0.8758835
vn -0.4825226 0 0.8758835
vn -0.4825226 0 0.8758835
vn -0.4825226 0 0.8758835
vn -0.4825226 0 0.8758835
vn -0.4825226 0 0.8758835
vn -0.4825226 0 0.8758835
vn -0.4628148 0 0.886455
vn -0.4628148 0 0.886455
vn -0.4628148 0 0.886455
vn -0.4628148 0 0.886455
vn 0.8839398 0 0.4676008
vn 0.8839398 0 0.4676008
vn 0.8839398 0 0.4676008
vn 0.8839398 0 0.4676008
vn 0.4841525 0 -0.8749837
vn 0.4841525 0 -0.8749837
vn 0.4841525 0 -0.8749837
vn 0.4841525 0 -0.8749837
vn 0.4542793 0 -0.8908593
vn 0.4542793 0 -0.8908593
vn 0.4542793 0 -0.8908593
vn 0.4542793 0 -0.8908593
vn -0.8995904 0 -0.4367346
vn -0.8995904 0 -0.4367346
vn -0.8995904 0 -0.4367346
vn -0.8995904 0 -0.4367346
vn -0.8918602 0 -0.4523111
vn -0.8918602 0 -0.4523111
vn -0.8918602 0 -0.4523111
vn -0.8918602 -2.784814E-11 -0.4523111
vn -0.8918602 -2.784814E-11 -0.4523111
vn -0.8918602 -2.784814E-11 -0.4523111
vn -0.8918602 0 -0.4523111
vn -0.8918602 0 -0.4523111
vn -0.8918602 0 -0.4523111
vn -0.8918602 5.528643E-10 -0.4523111
vn -0.8918602 5.528643E-10 -0.4523111
vn -0.8918602 5.528643E-10 -0.4523111
vn -0.8918602 -6.789874E-10 -0.4523111
vn -0.8918602 -6.789874E-10 -0.4523111
vn -0.8918602 -6.789874E-10 -0.4523111
vn -0.8918602 0 -0.4523111
vn -0.8918602 0 -0.4523111
vn -0.8918602 0 -0.4523111
vn -0.8918602 0 -0.4523111
vn -0.8918602 0 -0.4523111
vn -0.8918602 0 -0.4523111
vn 0 -1 0
vn 0 -1 0
vn 0 -1 0
vn 0 -1 0
vn 0 -1 0
vn 0 -1 0
vn 0 -1 0
vn 0 -1 0
vn 0 -1 0
vn 0 -1 0
vn 0 -1 0
vn 0 -1 0
vn 0 -1 0
vn 0 -1 0
vn 0 -1 0

g CDNNDG01_0003230
f 1/1/1 2/2/2 3/3/3
f 4/4/4 5/5/5 6/6/6
f 7/7/7 8/8/8 9/9/9
f 10/10/10 11/11/11 12/12/12
f 16/16/16 13/13/13 14/14/14
f 15/15/15 16/16/16 14/14/14
f 17/17/17 19/19/19 20/20/20
f 17/17/17 18/18/18 19/19/19
f 21/21/21 23/23/23 24/24/24
f 23/23/23 21/21/21 22/22/22
f 25/25/25 26/26/26 27/27/27
f 28/28/28 29/29/29 30/30/30
f 31/31/31 32/32/32 33/33/33
f 34/34/34 35/35/35 36/36/36
f 37/37/37 38/38/38 39/39/39
f 40/40/40 41/41/41 42/42/42
f 43/43/43 44/44/44 45/45/45
f 46/46/46 47/47/47 48/48/48
f 49/49/49 50/50/50 51/51/51
f 52/52/52 53/53/53 54/54/54
f 55/55/55 56/56/56 57/57/57
f 58/58/58 59/59/59 60/60/60
f 61/61/61 62/62/62 63/63/63
f 64/64/64 65/65/65 66/66/66
f 67/67/67 68/68/68 69/69/69
f 70/70/70 71/71/71 72/72/72
f 73/73/73 74/74/74 75/75/75
f 76/76/76 77/77/77 78/78/78
f 80/80/80 81/81/81 82/82/82
f 79/79/79 80/80/80 82/82/82
f 83/83/83 85/85/85 86/86/86
f 83/83/83 84/84/84 85/85/85
f 87/87/87 89/89/89 90/90/90
f 87/87/87 88/88/88 89/89/89
f 91/91/91 93/93/93 94/94/94
f 91/91/91 92/92/92 93/93/93
f 98/98/98 95/95/95 97/97/97
f 97/97/97 95/95/95 96/96/96
f 99/99/99 101/101/101 102/102/102
f 99/99/99 100/100/100 101/101/101
f 106/106/106 103/103/103 105/105/105
f 104/104/104 105/105/105 103/103/103
f 110/110/110 107/107/107 109/109/109
f 109/109/109 107/107/107 108/108/108
f 114/114/114 111/111/111 113/113/113
f 113/113/113 111/111/111 112/112/112
f 115/115/115 117/117/117 118/118/118
f 115/115/115 116/116/116 117/117/117
f 122/122/122 119/119/119 121/121/121
f 121/121/121 119/119/119 120/120/120
f 124/124/124 125/125/125 126/126/126
f 126/126/126 123/123/123 124/124/124
f 129/129/129 127/127/127 128/128/128
f 127/127/127 129/129/129 130/130/130
f 131/131/131 132/132/132 133/133/133
f 134/134/134 131/131/131 133/133/133
f 135/135/135 136/136/136 137/137/137
f 138/138/138 139/139/139 140/140/140
f 141/141/141 142/142/142 143/143/143
f 147/147/147 144/144/144 146/146/146
f 146/146/146 144/144/144 145/145/145
f 148/148/148 149/149/149 150/150/150
f 151/151/151 153/153/153 154/154/154
f 153/153/153 151/151/151 152/152/152
f 158/158/158 155/155/155 157/157/157
f 156/156/156 157/157/157 155/155/155
f 160/160/160 161/161/161 162/162/162
f 159/159/159 160/160/160 162/162/162
f 165/165/165 163/163/163 164/164/164
f 163/163/163 165/165/165 166/166/166
f 167/167/167 168/168/168 169/169/169
f 170/170/170 167/167/167 169/169/169
f 171/171/171 172/172/172 173/173/173
f 174/174/174 175/175/175 176/176/176
f 177/177/177 178/178/178 179/179/179
f 180/180/180 181/181/181 182/182/182
f 183/183/183 184/184/184 185/185/185
f 186/186/186 187/187/187 188/188/188
f 189/189/189 190/190/190 191/191/191
f 196/196/196 194/194/194 195/195/195
f 203/203/203 201/201/201 202/202/202
f 206/206/206 192/192/192 205/205/205
f 204/204/204 192/192/192 201/201/201
f 200/200/200 196/196/196 199/199/199
f 196/196/196 197/197/197 199/199/199
f 196/196/196 193/193/193 194/194/194
f 204/204/204 201/201/201 203/203/203
f 197/197/197 198/198/198 199/199/199
f 196/196/196 200/200/200 193/193/193
f 192/192/192 204/204/204 205/205/205
f 200/200/200 201/201/201 193/193/193
f 201/201/201 192/192/192 193/193/193
