v 4.415617 6.951624 -1.649025
v 4.935617 6.951624 -2.551025
v 4.436618 6.951624 -2.839025
v 3.916618 6.951624 -1.937025
v -2.553382 6.339624 -0.7820246
v -2.262382 5.608624 -0.03202458
v -1.653382 5.608624 -1.112025
v -2.945382 6.339624 -0.9950246
v -2.553382 6.339624 -0.7820246
v -2.942382 5.608624 -1.839025
v -2.942382 5.608624 -1.839025
v -2.553382 6.339624 -0.7820246
v -1.653382 5.608624 -1.112025
v -3.551382 5.608624 -0.7600246
v -2.553382 6.339624 -0.7820246
v -2.945382 6.339624 -0.9950246
v -3.551382 5.608624 -0.7600246
v -2.262382 5.608624 -0.03202458
v -2.553382 6.339624 -0.7820246
v -3.551382 5.608624 -0.7600246
v -2.945382 6.339624 -0.9950246
v -2.942382 5.608624 -1.839025
v -4.807383 5.370624 6.615975
v -0.9473823 5.370624 8.753976
v -4.238382 5.370624 5.587976
v 4.436618 5.370624 -2.839025
v 4.935617 5.370624 -2.551025
v 6.716618 5.370624 -5.085024
v -4.238382 5.370624 5.587976
v 4.436618 5.370624 -2.839025
v 6.716618 5.370624 -5.085024
v 4.415617 5.370624 -1.649025
v 6.716618 5.370624 -5.085024
v 4.935617 5.370624 -2.551025
v -4.238382 5.370624 5.587976
v 4.415617 5.370624 -1.649025
v 3.916618 5.370624 -1.937025
v -4.238382 5.370624 5.587976
v 3.916618 5.370624 -1.937025
v 4.436618 5.370624 -2.839025
v -0.9473823 5.370624 8.753976
v 6.716618 5.370624 -5.085024
v 4.415617 5.370624 -1.649025
v -4.238382 5.370624 5.587976
v -0.9473823 5.370624 8.753976
v 4.415617 5.370624 -1.649025
v -4.238382 5.370624 5.587976
v -2.262382 5.370624 -0.03202458
v -2.282171 5.370624 -0.04320095
v -4.238382 5.370624 5.587976
v 6.716618 5.370624 -5.085024
v -2.262382 5.370624 -0.03202458
v -1.868689 5.370624 -1.233458
v -1.653382 5.370624 -1.112025
v 6.716618 5.370624 -5.085024
v -2.262382 5.370624 -0.03202458
v 6.716618 5.370624 -5.085024
v -1.653382 5.370624 -1.112025
v -1.868689 5.370624 -1.233458
v 6.716618 5.370624 -5.085024
v 0.6386176 5.370624 -8.451025
v -2.942382 5.36237 -1.839025
v -1.868689 5.370624 -1.233458
v 0.6386176 5.370624 -8.451025
v -3.551382 5.360864 -0.7600246
v -2.942382 5.36237 -1.839025
v 0.6386176 5.370624 -8.451025
v -6.456382 5.353624 4.359975
v -2.282171 5.370624 -0.04320095
v -3.551382 5.360864 -0.7600246
v -6.456382 5.353624 4.359975
v -3.551382 5.360864 -0.7600246
v 0.6386176 5.370624 -8.451025
v -6.456382 5.353624 4.359975
v -4.238382 5.370624 5.587976
v -2.282171 5.370624 -0.04320095
v 4.415617 5.370624 -1.649025
v 4.935617 5.370624 -2.551025
v 4.935617 6.951624 -2.551025
v 4.415617 6.951624 -1.649025
v 4.436618 6.951624 -2.839025
v 4.935617 6.951624 -2.551025
v 4.935617 5.370624 -2.551025
v 4.436618 5.370624 -2.839025
v 3.916618 6.951624 -1.937025
v 4.436618 6.951624 -2.839025
v 4.436618 5.370624 -2.839025
v 3.916618 5.370624 -1.937025
v 3.916618 5.370624 -1.937025
v 4.415617 5.370624 -1.649025
v 4.415617 6.951624 -1.649025
v 3.916618 6.951624 -1.937025
v -2.262382 5.370624 -0.03202458
v -1.653382 5.370624 -1.112025
v -1.653382 5.608624 -1.112025
v -2.262382 5.608624 -0.03202458
v -2.942382 5.608624 -1.839025
v -1.868689 5.370624 -1.233458
v -2.942382 5.36237 -1.839025
v -1.868689 5.370624 -1.233458
v -1.653382 5.608624 -1.112025
v -1.653382 5.370624 -1.112025
v -2.942382 5.608624 -1.839025
v -1.653382 5.608624 -1.112025
v -1.868689 5.370624 -1.233458
v -2.282171 5.370624 -0.04320095
v -2.262382 5.370624 -0.03202458
v -2.262382 5.608624 -0.03202458
v -3.551382 5.608624 -0.7600246
v -3.551382 5.360864 -0.7600246
v -2.282171 5.370624 -0.04320095
v -3.551382 5.608624 -0.7600246
v -2.282171 5.370624 -0.04320095
v -2.262382 5.608624 -0.03202458
v -3.551382 5.608624 -0.7600246
v -2.942382 5.608624 -1.839025
v -2.942382 5.36237 -1.839025
v -3.551382 5.360864 -0.7600246
v -2.877382 -5.389235 7.684976
v -0.9473823 -5.389235 8.753976
v -0.9473823 5.370624 8.753976
v -4.807383 5.370624 6.615975
v -4.807383 -5.389235 6.615975
v -2.877382 -5.389235 7.684976
v -4.807383 5.370624 6.615975
v -2.877382 -5.389235 7.684976
v -0.9473823 5.370624 8.753976
v -0.9473823 -5.389235 8.753976
v 6.716618 -5.389235 -5.085024
v 6.716618 5.370624 -5.085024
v -0.9473823 5.370624 8.753976
v 0.6386176 5.370624 -8.451025
v 6.716618 5.370624 -5.085024
v 6.716618 -5.389235 -5.085024
v 0.6386176 -5.389235 -8.451025
v -6.456382 5.353624 4.359975
v -2.908882 -5.389235 -2.045525
v -6.456382 -5.389235 4.359975
v -2.908882 -5.389235 -2.045525
v 0.6386176 5.370624 -8.451025
v 0.6386176 -5.389235 -8.451025
v -6.456382 5.353624 4.359975
v 0.6386176 5.370624 -8.451025
v -2.908882 -5.389235 -2.045525
v -5.347383 -5.389235 4.973975
v -4.238382 -5.389235 5.587976
v -4.238382 5.370624 5.587976
v -6.456382 5.353624 4.359975
v -6.456382 -5.389235 4.359975
v -5.347383 -5.389235 4.973975
v -6.456382 5.353624 4.359975
v -5.347383 -5.389235 4.973975
v -4.238382 5.370624 5.587976
v -4.807383 5.370624 6.615975
v -4.238382 5.370624 5.587976
v -4.238382 -5.389235 5.587976
v -4.807383 -5.389235 6.615975
v -4.238382 -5.389235 5.587976
v -5.347383 -5.389235 4.973975
v -6.456382 -5.389235 4.359975
v -2.908882 -5.389235 -2.045525
v 0.6386176 -5.389235 -8.451025
v 6.716618 -5.389235 -5.085024
v -0.9473823 -5.389235 8.753976
v -2.877382 -5.389235 7.684976
v -4.807383 -5.389235 6.615975
vt 0.190701 0.975601
vt 0.153321 0.990930
vt 0.141058 0.976597
vt 0.178437 0.961268
vt 0.100653 0.961268
vt 0.135084 0.973132
vt 0.090680 0.991098
vt 0.981235 0.705986
vt 0.990237 0.717427
vt 0.949622 0.710172
vt 0.949622 0.710172
vt 0.990237 0.717427
vt 0.980295 0.747749
vt 0.052991 0.961268
vt 0.049329 0.992622
vt 0.040302 0.981222
vt 0.052991 0.961268
vt 0.083790 0.998711
vt 0.049329 0.992622
vt 0.472625 0.961268
vt 0.459936 0.980391
vt 0.428212 0.978672
vt 0.656341 0.051203
vt 0.751500 0.167902
vt 0.611831 0.068868
vt 0.249047 0.335679
vt 0.261855 0.350760
vt 0.152346 0.405810
vt 0.611831 0.068868
vt 0.249047 0.335679
vt 0.152346 0.405810
vt 0.300895 0.334631
vt 0.152346 0.405810
vt 0.261855 0.350760
vt 0.611831 0.068868
vt 0.300895 0.334631
vt 0.288087 0.319550
vt 0.611831 0.068868
vt 0.288087 0.319550
vt 0.249047 0.335679
vt 0.751500 0.167902
vt 0.152346 0.405810
vt 0.300895 0.334631
vt 0.611831 0.068868
vt 0.751500 0.167902
vt 0.300895 0.334631
vt 0.611831 0.068868
vt 0.367922 0.130919
vt 0.367425 0.130320
vt 0.611831 0.068868
vt 0.152346 0.405810
vt 0.367922 0.130919
vt 0.315766 0.143309
vt 0.321169 0.149818
vt 0.152346 0.405810
vt 0.367922 0.130919
vt 0.152346 0.405810
vt 0.321169 0.149818
vt 0.315766 0.143309
vt 0.152346 0.405810
vt 0.002519 0.222070
vt 0.288860 0.110827
vt 0.315766 0.143309
vt 0.002519 0.222070
vt 0.335576 0.091924
vt 0.288860 0.110827
vt 0.002519 0.222070
vt 0.557247 0.001761
vt 0.367425 0.130320
vt 0.335576 0.091924
vt 0.557247 0.001761
vt 0.335576 0.091924
vt 0.002519 0.222070
vt 0.557247 0.001761
vt 0.611831 0.068868
vt 0.367425 0.130320
vt 0.240657 0.968801
vt 0.203590 0.983871
vt 0.196474 0.976367
vt 0.233613 0.961268
vt 0.503778 0.961268
vt 0.503778 0.961268
vt 0.503778 0.961268
vt 0.503778 0.961268
vt 0.284034 0.966160
vt 0.246851 0.981142
vt 0.254022 0.976221
vt 0.291132 0.961268
vt 0.409682 0.961268
vt 0.421106 0.975152
vt 0.414468 0.980037
vt 0.403023 0.966126
vt 0.395696 0.962441
vt 0.351182 0.979873
vt 0.350126 0.978705
vt 0.394653 0.961268
vt 0.478589 0.961268
vt 0.478589 0.961268
vt 0.478589 0.961268
vt 0.478589 0.961268
vt 0.478589 0.961268
vt 0.478589 0.961268
vt 0.478589 0.961268
vt 0.478589 0.961268
vt 0.478589 0.961268
vt 0.033266 0.998154
vt 0.033730 0.998729
vt 0.032706 0.999437
vt 0.002519 0.961993
vt 0.003594 0.961268
vt 0.033266 0.998154
vt 0.002519 0.961993
vt 0.033266 0.998154
vt 0.032706 0.999437
vt 0.341766 0.961963
vt 0.297229 0.979368
vt 0.298336 0.978671
vt 0.342865 0.961268
vt 0.700370 0.763135
vt 0.746636 0.820283
vt 0.703345 0.853401
vt 0.609572 0.737575
vt 0.654102 0.705986
vt 0.700370 0.763135
vt 0.609572 0.737575
vt 0.700370 0.763135
vt 0.703345 0.853401
vt 0.644362 0.466471
vt 0.054117 0.701296
vt 0.002519 0.648180
vt 0.600655 0.410211
vt 0.491184 0.961268
vt 0.491184 0.961268
vt 0.491184 0.961268
vt 0.491184 0.961268
vt 0.556789 0.737029
vt 0.329729 0.814379
vt 0.603175 0.705986
vt 0.329729 0.814379
vt 0.002519 0.956759
vt 0.056296 0.922767
vt 0.556789 0.737029
vt 0.002519 0.956759
vt 0.329729 0.814379
vt 0.824946 0.738633
vt 0.851328 0.771280
vt 0.806547 0.802914
vt 0.753149 0.736697
vt 0.798564 0.705986
vt 0.824946 0.738633
vt 0.753149 0.736697
vt 0.824946 0.738633
vt 0.806547 0.802914
vt 0.899842 0.736849
vt 0.856423 0.753979
vt 0.901077 0.722890
vt 0.943922 0.705986
vt 0.516373 0.961268
vt 0.516373 0.961268
vt 0.516373 0.961268
vt 0.516373 0.961268
vt 0.516373 0.961268
vt 0.516373 0.961268
vt 0.516373 0.961268
vt 0.516373 0.961268
vt 0.516373 0.961268
vn 0 1 0
vn 0 1 0
vn 0 1 0
vn 0 1 0
vn 0.6634637 0.6479586 0.3741198
vn 0.6634637 0.6479586 0.3741198
vn 0.6634637 0.6479586 0.3741198
vn 0.3348342 0.712852 -0.6162208
vn 0.3348342 0.712852 -0.6162208
vn 0.3348342 0.712852 -0.6162208
vn 0.3477112 0.7064117 -0.6165058
vn 0.3477112 0.7064117 -0.6165058
vn 0.3477112 0.7064117 -0.6165058
vn -0.3951242 0.5613294 0.7271768
vn -0.3951242 0.5613294 0.7271768
vn -0.3951242 0.5613294 0.7271768
vn -0.4033275 0.5721365 0.7141335
vn -0.4033275 0.5721365 0.7141335
vn -0.4033275 0.5721365 0.7141335
vn -0.7585583 0.4912089 -0.4281391
vn -0.7585583 0.4912089 -0.4281391
vn -0.7585583 0.4912089 -0.4281391
vn 0 1 0
vn 0 1 0
vn 0 1 0
vn 0 1 0
vn 0 1 0
vn 0 1 0
vn 0 1 0
vn 0 1 0
vn 0 1 0
vn 0 1 0
vn 0 1 0
vn 0 1 0
vn 0 1 0
vn 0 1 0
vn 0 1 0
vn 0 1 0
vn 0 1 0
vn 0 1 0
vn 0 1 0
vn 0 1 0
vn 0 1 0
vn 0 1 0
vn 0 1 0
vn 0 1 0
vn 0 1 0
vn 0 1 0
vn 0 1 0
vn 0 1 0
vn 0 1 0
vn 0 1 0
vn 0 1 0
vn 0 1 0
vn 0 1 0
vn 0 1 0
vn 0 1 0
vn 0 1 0
vn 0 1 0
vn 0 1 0
vn 0 1 0
vn -0.006428057 0.9999769 -0.002233039
vn -0.006428057 0.9999769 -0.002233039
vn -0.006428057 0.9999769 -0.002233039
vn -0.006427952 0.9999769 -0.002232982
vn -0.006427952 0.9999769 -0.002232982
vn -0.006427952 0.9999769 -0.002232982
vn -0.006428056 0.9999769 -0.002233037
vn -0.006428056 0.9999769 -0.002233037
vn -0.006428056 0.9999769 -0.002233037
vn -0.006428123 0.9999769 -0.002233075
vn -0.006428123 0.9999769 -0.002233075
vn -0.006428123 0.9999769 -0.002233075
vn -0.006428059 0.9999769 -0.00223304
vn -0.006428059 0.9999769 -0.00223304
vn -0.006428059 0.9999769 -0.00223304
vn 0.8663455 0 0.4994453
vn 0.8663455 0 0.4994453
vn 0.8663455 0 0.4994453
vn 0.8663455 0 0.4994453
vn 0.4998727 0 -0.8660989
vn 0.4998727 0 -0.8660989
vn 0.4998727 0 -0.8660989
vn 0.4998727 0 -0.8660989
vn -0.8663455 0 -0.4994453
vn -0.8663455 0 -0.4994453
vn -0.8663455 0 -0.4994453
vn -0.8663455 0 -0.4994453
vn -0.4998727 0 0.8660989
vn -0.4998727 0 0.8660989
vn -0.4998727 0 0.8660989
vn -0.4998727 0 0.8660989
vn 0.8710581 0 0.49118
vn 0.8710581 0 0.49118
vn 0.8710581 0 0.49118
vn 0.8710581 0 0.49118
vn 0.4912555 0 -0.8710155
vn 0.4912555 0 -0.8710155
vn 0.4912555 0 -0.8710155
vn 0.4912555 0 -0.8710155
vn 0.4912555 0 -0.8710155
vn 0.4912555 0 -0.8710155
vn 0.4912555 1.027243E-08 -0.8710155
vn 0.4912555 1.027243E-08 -0.8710155
vn 0.4912555 1.027243E-08 -0.8710155
vn -0.4917679 0 0.8707263
vn -0.4917679 0 0.8707263
vn -0.4917679 0 0.8707263
vn -0.4917679 0 0.8707263
vn -0.4917679 0 0.8707263
vn -0.4917679 0 0.8707263
vn -0.4917679 4.614564E-11 0.8707263
vn -0.4917679 4.614564E-11 0.8707263
vn -0.4917679 4.614564E-11 0.8707263
vn -0.8708633 0 -0.4915253
vn -0.8708633 0 -0.4915253
vn -0.8708633 0 -0.4915253
vn -0.8708633 0 -0.4915253
vn -0.4845265 0 0.8747766
vn -0.4845265 0 0.8747766
vn -0.4845265 0 0.8747766
vn -0.4845265 0 0.8747766
vn -0.4845265 0 0.8747766
vn -0.4845265 0 0.8747766
vn -0.4845265 -1.310573E-12 0.8747766
vn -0.4845265 -1.310573E-12 0.8747766
vn -0.4845265 -1.310573E-12 0.8747766
vn 0.8748095 0 0.4844671
vn 0.8748095 0 0.4844671
vn 0.8748095 0 0.4844671
vn 0.8748095 0 0.4844671
vn 0.4844693 0 -0.8748083
vn 0.4844693 0 -0.8748083
vn 0.4844693 0 -0.8748083
vn 0.4844693 0 -0.8748083
vn -0.8748007 0 -0.4844829
vn -0.8748007 0 -0.4844829
vn -0.8748007 0 -0.4844829
vn -0.8748007 0 -0.4844829
vn -0.8748007 0 -0.4844829
vn -0.8748007 0 -0.4844829
vn -0.8748007 2.098386E-11 -0.4844829
vn -0.8748007 2.098386E-11 -0.4844829
vn -0.8748007 2.098386E-11 -0.4844829
vn -0.4843698 0 0.8748634
vn -0.4843698 0 0.8748634
vn -0.4843698 0 0.8748634
vn -0.4843698 0 0.8748634
vn -0.4843698 0 0.8748634
vn -0.4843698 0 0.8748634
vn -0.4843698 0 0.8748634
vn -0.4843698 0 0.8748634
vn -0.4843698 0 0.8748634
vn -0.8749189 0 -0.4842694
vn -0.8749189 0 -0.4842694
vn -0.8749189 0 -0.4842694
vn -0.8749189 0 -0.4842694
vn 0 -1 0
vn 0 -1 0
vn 0 -1 0
vn 0 -1 0
vn 0 -1 0
vn 0 -1 0
vn 0 -1 0
vn 0 -1 0
vn 0 -1 0

g CDNNDG01_0002900
f 1/1/1 2/2/2 4/4/4
f 4/4/4 2/2/2 3/3/3
f 5/5/5 6/6/6 7/7/7
f 8/8/8 9/9/9 10/10/10
f 11/11/11 12/12/12 13/13/13
f 14/14/14 15/15/15 16/16/16
f 17/17/17 18/18/18 19/19/19
f 20/20/20 21/21/21 22/22/22
f 23/23/23 24/24/24 25/25/25
f 26/26/26 27/27/27 28/28/28
f 29/29/29 30/30/30 31/31/31
f 32/32/32 33/33/33 34/34/34
f 35/35/35 36/36/36 37/37/37
f 38/38/38 39/39/39 40/40/40
f 41/41/41 42/42/42 43/43/43
f 44/44/44 45/45/45 46/46/46
f 47/47/47 48/48/48 49/49/49
f 50/50/50 51/51/51 52/52/52
f 53/53/53 54/54/54 55/55/55
f 56/56/56 57/57/57 58/58/58
f 59/59/59 60/60/60 61/61/61
f 62/62/62 63/63/63 64/64/64
f 65/65/65 66/66/66 67/67/67
f 68/68/68 69/69/69 70/70/70
f 71/71/71 72/72/72 73/73/73
f 74/74/74 75/75/75 76/76/76
f 77/77/77 79/79/79 80/80/80
f 77/77/77 78/78/78 79/79/79
f 83/83/83 81/81/81 82/82/82
f 81/81/81 83/83/83 84/84/84
f 88/88/88 85/85/85 87/87/87
f 87/87/87 85/85/85 86/86/86
f 89/89/89 91/91/91 92/92/92
f 91/91/91 89/89/89 90/90/90
f 93/93/93 95/95/95 96/96/96
f 93/93/93 94/94/94 95/95/95
f 97/97/97 98/98/98 99/99/99
f 100/100/100 101/101/101 102/102/102
f 103/103/103 104/104/104 105/105/105
f 106/106/106 107/107/107 108/108/108
f 109/109/109 110/110/110 111/111/111
f 112/112/112 113/113/113 114/114/114
f 115/115/115 117/117/117 118/118/118
f 115/115/115 116/116/116 117/117/117
f 119/119/119 120/120/120 121/121/121
f 122/122/122 123/123/123 124/124/124
f 125/125/125 126/126/126 127/127/127
f 131/131/131 128/128/128 130/130/130
f 129/129/129 130/130/130 128/128/128
f 135/135/135 132/132/132 133/133/133
f 133/133/133 134/134/134 135/135/135
f 136/136/136 137/137/137 138/138/138
f 139/139/139 140/140/140 141/141/141
f 142/142/142 143/143/143 144/144/144
f 145/145/145 146/146/146 147/147/147
f 148/148/148 149/149/149 150/150/150
f 151/151/151 152/152/152 153/153/153
f 154/154/154 156/156/156 157/157/157
f 154/154/154 155/155/155 156/156/156
f 158/158/158 159/159/159 161/161/161
f 165/165/165 158/158/158 164/164/164
f 159/159/159 160/160/160 161/161/161
f 165/165/165 166/166/166 158/158/158
f 164/164/164 158/158/158 161/161/161
f 163/163/163 164/164/164 161/161/161
f 161/161/161 162/162/162 163/163/163
