v -0.5181798 5.653262 -8.121443
v 3.25282 5.050261 -8.238442
v 0.2998202 5.033261 -9.735443
v -0.5181798 5.653262 -8.121443
v 2.43482 5.653262 -6.625443
v 3.25282 5.050261 -8.238442
v 2.43482 5.842261 -6.625443
v 3.57882 5.842261 -0.3574428
v 5.98182 5.842261 -4.912443
v -6.85918 5.842261 3.943557
v -6.46118 5.842261 4.187557
v 3.57882 5.842261 -0.3574428
v -0.5181798 5.842261 -8.121443
v 3.57882 5.842261 -0.3574428
v 2.43482 5.842261 -6.625443
v -6.73118 5.842261 4.676557
v -3.69718 5.842261 6.348557
v -3.46418 5.842261 5.823557
v -3.46418 5.842261 5.823557
v 1.54082 5.842261 8.359557
v 3.57882 5.842261 -0.3574428
v -6.73118 5.842261 4.676557
v -3.46418 5.842261 5.823557
v -6.46118 5.842261 4.187557
v -6.85918 5.842261 3.943557
v 3.57882 5.842261 -0.3574428
v -0.5181798 5.842261 -8.121443
v 1.54082 5.842261 8.359557
v 5.53582 5.842261 0.6225572
v 3.57882 5.842261 -0.3574428
v -6.46118 5.842261 4.187557
v -3.46418 5.842261 5.823557
v 3.57882 5.842261 -0.3574428
v 2.84382 -5.820041 -7.431943
v 3.25282 -5.820041 -8.238442
v 3.25282 5.050261 -8.238442
v 2.43482 5.653262 -6.625443
v 2.43482 -5.820041 -6.625443
v 2.84382 -5.820041 -7.431943
v 2.43482 5.653262 -6.625443
v 2.84382 -5.820041 -7.431943
v 3.25282 5.050261 -8.238442
v 0.2998202 5.033261 -9.735443
v 1.77632 -5.820041 -8.986943
v 0.2998202 -5.820041 -9.735443
v 1.77632 -5.820041 -8.986943
v 3.25282 5.050261 -8.238442
v 3.25282 -5.820041 -8.238442
v 0.2998202 5.033261 -9.735443
v 3.25282 5.050261 -8.238442
v 1.77632 -5.820041 -8.986943
v -0.5181798 5.653262 -8.121443
v 0.2998202 5.033261 -9.735443
v 0.2998202 -5.820041 -9.735443
v -0.5181798 -5.820041 -8.121443
v -6.85918 5.842261 3.943557
v -3.68868 -5.820041 -2.088943
v -6.85918 -5.820041 3.943557
v -6.85918 5.842261 3.943557
v -0.5181798 5.842261 -8.121443
v -3.68868 -5.820041 -2.088943
v -3.68868 -5.820041 -2.088943
v -0.5181798 5.842261 -8.121443
v -0.5181798 5.653262 -8.121443
v -3.68868 -5.820041 -2.088943
v -0.5181798 5.653262 -8.121443
v -0.5181798 -5.820041 -8.121443
v -6.73118 -5.820041 4.676557
v -3.69718 -5.820041 6.348557
v -3.69718 5.842261 6.348557
v -6.73118 5.842261 4.676557
v -3.58068 -5.820041 6.086057
v -3.46418 -5.820041 5.823557
v -3.46418 5.842261 5.823557
v -3.69718 5.842261 6.348557
v -3.69718 -5.820041 6.348557
v -3.58068 -5.820041 6.086057
v -3.69718 5.842261 6.348557
v -3.58068 -5.820041 6.086057
v -3.46418 5.842261 5.823557
v -0.9616799 -5.820041 7.091557
v 1.54082 -5.820041 8.359557
v 1.54082 5.842261 8.359557
v -3.46418 5.842261 5.823557
v -3.46418 -5.820041 5.823557
v -0.9616799 -5.820041 7.091557
v -3.46418 5.842261 5.823557
v -0.9616799 -5.820041 7.091557
v 1.54082 5.842261 8.359557
v 3.53832 -5.820041 4.491057
v 5.53582 -5.820041 0.6225572
v 5.53582 5.842261 0.6225572
v 1.54082 5.842261 8.359557
v 1.54082 -5.820041 8.359557
v 3.53832 -5.820041 4.491057
v 1.54082 5.842261 8.359557
v 3.53832 -5.820041 4.491057
v 5.53582 5.842261 0.6225572
v 3.57882 5.842261 -0.3574428
v 5.53582 5.842261 0.6225572
v 5.53582 -5.820041 0.6225572
v 3.57882 -5.820041 -0.3574428
v 3.57882 -5.820041 -0.3574428
v 5.98182 -5.820041 -4.912443
v 5.98182 5.842261 -4.912443
v 3.57882 5.842261 -0.3574428
v 2.43482 5.842261 -6.625443
v 4.20832 -5.820041 -5.768943
v 2.43482 5.653262 -6.625443
v 2.43482 5.653262 -6.625443
v 4.20832 -5.820041 -5.768943
v 2.43482 -5.820041 -6.625443
v 4.20832 -5.820041 -5.768943
v 5.98182 5.842261 -4.912443
v 5.98182 -5.820041 -4.912443
v 2.43482 5.842261 -6.625443
v 5.98182 5.842261 -4.912443
v 4.20832 -5.820041 -5.768943
v -0.5181798 5.842261 -8.121443
v 2.43482 5.842261 -6.625443
v 2.43482 5.653262 -6.625443
v -0.5181798 5.653262 -8.121443
v -6.85918 -5.820041 3.943557
v -6.46118 -5.820041 4.187557
v -6.46118 5.842261 4.187557
v -6.85918 5.842261 3.943557
v -6.73118 5.842261 4.676557
v -6.46118 5.842261 4.187557
v -6.46118 -5.820041 4.187557
v -6.73118 -5.820041 4.676557
v -6.46118 -5.820041 4.187557
v -6.85918 -5.820041 3.943557
v -3.68868 -5.820041 -2.088943
v -0.5181798 -5.820041 -8.121443
v 0.2998202 -5.820041 -9.735443
v 1.77632 -5.820041 -8.986943
v 3.25282 -5.820041 -8.238442
v 2.84382 -5.820041 -7.431943
v 2.43482 -5.820041 -6.625443
v 4.20832 -5.820041 -5.768943
v 5.98182 -5.820041 -4.912443
v 3.57882 -5.820041 -0.3574428
v 5.53582 -5.820041 0.6225572
v 3.53832 -5.820041 4.491057
v 1.54082 -5.820041 8.359557
v -0.9616799 -5.820041 7.091557
v -3.46418 -5.820041 5.823557
v -3.58068 -5.820041 6.086057
v -3.69718 -5.820041 6.348557
v -6.73118 -5.820041 4.676557
vt 0.062949 0.886667
vt 0.062870 0.999027
vt 0.002315 0.915183
vt 0.062949 0.886667
vt 0.123587 0.970699
vt 0.062870 0.999027
vt 0.063868 0.273954
vt 0.316414 0.304981
vt 0.134426 0.375975
vt 0.484388 0.001667
vt 0.494387 0.013099
vt 0.316414 0.304981
vt 0.002315 0.189039
vt 0.316414 0.304981
vt 0.063868 0.273954
vt 0.513920 0.005128
vt 0.582583 0.092335
vt 0.561585 0.099247
vt 0.561585 0.099247
vt 0.665917 0.243174
vt 0.316414 0.304981
vt 0.513920 0.005128
vt 0.561585 0.099247
vt 0.494387 0.013099
vt 0.484388 0.001667
vt 0.316414 0.304981
vt 0.002315 0.189039
vt 0.665917 0.243174
vt 0.356744 0.361258
vt 0.316414 0.304981
vt 0.494387 0.013099
vt 0.561585 0.099247
vt 0.316414 0.304981
vt 0.268624 0.980231
vt 0.237431 0.992044
vt 0.189815 0.914969
vt 0.250415 0.886667
vt 0.299817 0.968418
vt 0.268624 0.980231
vt 0.250415 0.886667
vt 0.268624 0.980231
vt 0.189815 0.914969
vt 0.474537 0.681667
vt 0.552705 0.801767
vt 0.522865 0.760160
vt 0.552705 0.801767
vt 0.534949 0.765885
vt 0.582545 0.843374
vt 0.474537 0.681667
vt 0.534949 0.765885
vt 0.552705 0.801767
vt 0.064018 0.659425
vt 0.002315 0.677918
vt 0.052102 0.585645
vt 0.115779 0.562140
vt 0.546049 0.476264
vt 0.353758 0.471072
vt 0.591750 0.380000
vt 0.546049 0.476264
vt 0.063153 0.661050
vt 0.353758 0.471072
vt 0.353758 0.471072
vt 0.063153 0.661050
vt 0.064018 0.659425
vt 0.353758 0.471072
vt 0.064018 0.659425
vt 0.115779 0.562140
vt 0.403324 0.681667
vt 0.469168 0.767313
vt 0.425599 0.864539
vt 0.358796 0.777648
vt 0.427614 0.975551
vt 0.417598 0.978920
vt 0.375000 0.893503
vt 0.395323 0.886667
vt 0.437630 0.972182
vt 0.427614 0.975551
vt 0.395323 0.886667
vt 0.427614 0.975551
vt 0.375000 0.893503
vt 0.879029 0.450812
vt 0.929254 0.521622
vt 0.886638 0.621215
vt 0.784722 0.477535
vt 0.828802 0.380000
vt 0.879029 0.450812
vt 0.784722 0.477535
vt 0.879029 0.450812
vt 0.886638 0.621215
vt 0.200797 0.823931
vt 0.049068 0.882022
vt 0.002315 0.799544
vt 0.310194 0.681667
vt 0.352531 0.765838
vt 0.200797 0.823931
vt 0.310194 0.681667
vt 0.200797 0.823931
vt 0.002315 0.799544
vt 0.821759 0.681667
vt 0.861183 0.737518
vt 0.907005 0.819688
vt 0.868147 0.764638
vt 0.815721 0.764735
vt 0.637718 0.834404
vt 0.587963 0.752351
vt 0.768555 0.681667
vt 0.658246 0.464765
vt 0.743356 0.598854
vt 0.659078 0.466145
vt 0.659078 0.466145
vt 0.743356 0.598854
vt 0.708880 0.548663
vt 0.743356 0.598854
vt 0.728202 0.566608
vt 0.777831 0.649044
vt 0.658246 0.464765
vt 0.728202 0.566608
vt 0.743356 0.598854
vt 0.597222 0.380000
vt 0.658246 0.464765
vt 0.659078 0.466145
vt 0.598069 0.381399
vt 0.173674 0.886667
vt 0.183080 0.897826
vt 0.139173 0.993301
vt 0.129630 0.981980
vt 0.324524 0.981983
vt 0.305556 0.989766
vt 0.349716 0.894338
vt 0.368413 0.886667
vt 0.444444 0.886667
vt 0.444444 0.886667
vt 0.444444 0.886667
vt 0.444444 0.886667
vt 0.444444 0.886667
vt 0.444444 0.886667
vt 0.444444 0.886667
vt 0.444444 0.886667
vt 0.444444 0.886667
vt 0.444444 0.886667
vt 0.444444 0.886667
vt 0.444444 0.886667
vt 0.444444 0.886667
vt 0.444444 0.886667
vt 0.444444 0.886667
vt 0.444444 0.886667
vt 0.444444 0.886667
vt 0.444444 0.886667
vt 0.444444 0.886667
vt 0.444444 0.886667
vn 0.1422309 0.9459965 -0.2913091
vn 0.1422309 0.9459965 -0.2913091
vn 0.1422309 0.9459965 -0.2913091
vn 0.1429408 0.9486603 -0.2821553
vn 0.1429408 0.9486603 -0.2821553
vn 0.1429408 0.9486603 -0.2821553
vn 0 1 0
vn 0 1 0
vn 0 1 0
vn 0 1 0
vn 0 1 0
vn 0 1 0
vn 0 1 0
vn 0 1 0
vn 0 1 0
vn 0 1 0
vn 0 1 0
vn 0 1 0
vn 0 1 0
vn 0 1 0
vn 0 1 0
vn 0 1 0
vn 0 1 0
vn 0 1 0
vn 0 1 0
vn 0 1 0
vn 0 1 0
vn 0 1 0
vn 0 1 0
vn 0 1 0
vn 0 1 0
vn 0 1 0
vn 0 1 0
vn 0.8918692 0 0.4522933
vn 0.8918692 0 0.4522933
vn 0.8918692 0 0.4522933
vn 0.8918692 0 0.4522933
vn 0.8918692 0 0.4522933
vn 0.8918692 0 0.4522933
vn 0.8918692 -2.323426E-12 0.4522933
vn 0.8918692 -2.323426E-12 0.4522933
vn 0.8918692 -2.323426E-12 0.4522933
vn 0.4521603 0 -0.8919367
vn 0.4521603 0 -0.8919367
vn 0.4521603 0 -0.8919367
vn 0.4521603 0 -0.8919367
vn 0.4521603 0 -0.8919367
vn 0.4521603 0 -0.8919367
vn 0.4521603 -1.211555E-12 -0.8919367
vn 0.4521603 -1.211555E-12 -0.8919367
vn 0.4521603 -1.211555E-12 -0.8919367
vn -0.8919823 0 -0.4520703
vn -0.8919823 0 -0.4520703
vn -0.8919823 0 -0.4520703
vn -0.8919823 0 -0.4520703
vn -0.8851902 0 -0.4652293
vn -0.8851902 0 -0.4652293
vn -0.8851902 0 -0.4652293
vn -0.8851902 0 -0.4652293
vn -0.8851902 0 -0.4652293
vn -0.8851902 0 -0.4652293
vn -0.8851902 0 -0.4652293
vn -0.8851902 0 -0.4652293
vn -0.8851902 0 -0.4652293
vn -0.8851902 0 -0.4652293
vn -0.8851902 0 -0.4652293
vn -0.8851902 0 -0.4652293
vn -0.48265 0 0.8758134
vn -0.48265 0 0.8758134
vn -0.48265 0 0.8758134
vn -0.48265 0 0.8758134
vn 0.9140268 0 0.4056538
vn 0.9140268 0 0.4056538
vn 0.9140268 0 0.4056538
vn 0.9140268 0 0.4056538
vn 0.9140268 0 0.4056538
vn 0.9140268 0 0.4056538
vn 0.9140268 0 0.4056538
vn 0.9140268 0 0.4056538
vn 0.9140268 0 0.4056538
vn -0.4519837 0 0.8920262
vn -0.4519837 0 0.8920262
vn -0.4519837 0 0.8920262
vn -0.4519837 0 0.8920262
vn -0.4519837 0 0.8920262
vn -0.4519837 0 0.8920262
vn -0.4519837 0 0.8920262
vn -0.4519837 0 0.8920262
vn -0.4519837 0 0.8920262
vn 0.8885406 0 0.458798
vn 0.8885406 0 0.458798
vn 0.8885406 0 0.458798
vn 0.8885406 0 0.458798
vn 0.8885406 0 0.458798
vn 0.8885406 0 0.458798
vn 0.8885406 0 0.458798
vn 0.8885406 0 0.458798
vn 0.8885406 0 0.458798
vn 0.4477618 0 -0.8941529
vn 0.4477618 0 -0.8941529
vn 0.4477618 0 -0.8941529
vn 0.4477618 0 -0.8941529
vn 0.8844671 0 0.4666025
vn 0.8844671 0 0.4666025
vn 0.8844671 0 0.4666025
vn 0.8844671 0 0.4666025
vn 0.434884 0 -0.9004865
vn 0.434884 0 -0.9004865
vn 0.434884 0 -0.9004865
vn 0.434884 0 -0.9004865
vn 0.434884 0 -0.9004865
vn 0.434884 0 -0.9004865
vn 0.434884 0 -0.9004865
vn 0.434884 0 -0.9004865
vn 0.434884 0 -0.9004865
vn 0.434884 -3.595531E-11 -0.9004865
vn 0.434884 -3.595531E-11 -0.9004865
vn 0.434884 -3.595531E-11 -0.9004865
vn 0.4519199 0 -0.8920585
vn 0.4519199 0 -0.8920585
vn 0.4519199 0 -0.8920585
vn 0.4519199 0 -0.8920585
vn -0.5226625 0 0.8525397
vn -0.5226625 0 0.8525397
vn -0.5226625 0 0.8525397
vn -0.5226625 0 0.8525397
vn -0.875421 0 -0.4833613
vn -0.875421 0 -0.4833613
vn -0.875421 0 -0.4833613
vn -0.875421 0 -0.4833613
vn 0 -1 0
vn 0 -1 0
vn 0 -1 0
vn 0 -1 0
vn 0 -1 0
vn 0 -1 0
vn 0 -1 0
vn 0 -1 0
vn 0 -1 0
vn 0 -1 0
vn 0 -1 0
vn 0 -1 0
vn 0 -1 0
vn 0 -1 0
vn 0 -1 0
vn 0 -1 0
vn 0 -1 0
vn 0 -1 0
vn 0 -1 0
vn 0 -1 0

g CDNNDG01_0003160
f 1/1/1 2/2/2 3/3/3
f 4/4/4 5/5/5 6/6/6
f 7/7/7 8/8/8 9/9/9
f 10/10/10 11/11/11 12/12/12
f 13/13/13 14/14/14 15/15/15
f 16/16/16 17/17/17 18/18/18
f 19/19/19 20/20/20 21/21/21
f 22/22/22 23/23/23 24/24/24
f 25/25/25 26/26/26 27/27/27
f 28/28/28 29/29/29 30/30/30
f 31/31/31 32/32/32 33/33/33
f 34/34/34 35/35/35 36/36/36
f 37/37/37 38/38/38 39/39/39
f 40/40/40 41/41/41 42/42/42
f 43/43/43 44/44/44 45/45/45
f 46/46/46 47/47/47 48/48/48
f 49/49/49 50/50/50 51/51/51
f 53/53/53 54/54/54 55/55/55
f 52/52/52 53/53/53 55/55/55
f 56/56/56 57/57/57 58/58/58
f 59/59/59 60/60/60 61/61/61
f 62/62/62 63/63/63 64/64/64
f 65/65/65 66/66/66 67/67/67
f 71/71/71 68/68/68 70/70/70
f 70/70/70 68/68/68 69/69/69
f 72/72/72 73/73/73 74/74/74
f 75/75/75 76/76/76 77/77/77
f 78/78/78 79/79/79 80/80/80
f 81/81/81 82/82/82 83/83/83
f 84/84/84 85/85/85 86/86/86
f 87/87/87 88/88/88 89/89/89
f 90/90/90 91/91/91 92/92/92
f 93/93/93 94/94/94 95/95/95
f 96/96/96 97/97/97 98/98/98
f 99/99/99 101/101/101 102/102/102
f 99/99/99 100/100/100 101/101/101
f 104/104/104 105/105/105 103/103/103
f 103/103/103 105/105/105 106/106/106
f 107/107/107 108/108/108 109/109/109
f 110/110/110 111/111/111 112/112/112
f 113/113/113 114/114/114 115/115/115
f 116/116/116 117/117/117 118/118/118
f 122/122/122 119/119/119 121/121/121
f 120/120/120 121/121/121 119/119/119
f 126/126/126 123/123/123 125/125/125
f 125/125/125 123/123/123 124/124/124
f 127/127/127 129/129/129 130/130/130
f 127/127/127 128/128/128 129/129/129
f 148/148/148 149/149/149 150/150/150
f 131/131/131 148/148/148 150/150/150
f 131/131/131 132/132/132 133/133/133
f 131/131/131 133/133/133 147/147/147
f 133/133/133 134/134/134 139/139/139
f 131/131/131 147/147/147 148/148/148
f 134/134/134 135/135/135 136/136/136
f 134/134/134 136/136/136 139/139/139
f 144/144/144 146/146/146 147/147/147
f 136/136/136 137/137/137 138/138/138
f 136/136/136 138/138/138 139/139/139
f 133/133/133 139/139/139 142/142/142
f 139/139/139 140/140/140 142/142/142
f 140/140/140 141/141/141 142/142/142
f 144/144/144 145/145/145 146/146/146
f 133/133/133 142/142/142 147/147/147
f 142/142/142 144/144/144 147/147/147
f 142/142/142 143/143/143 144/144/144
