v -5.577576 5.948056 -3.581365
v -3.559576 5.948056 -2.438365
v -2.960576 5.948056 -3.494365
v -4.978576 5.948056 -4.638365
v -8.524576 3.985056 6.325635
v 5.212424 3.985056 13.99664
v 9.931424 3.985056 5.571635
v -3.689576 3.985056 -2.207365
v -3.559576 3.985056 -2.438365
v 9.931424 3.985056 5.571635
v -2.960576 3.985056 -3.494365
v -2.960576 3.985056 -3.494365
v 9.931424 3.985056 5.571635
v 14.59142 3.985056 -3.116365
v 0.9884242 3.985056 -10.46437
v -3.689576 3.985056 -2.207365
v 9.931424 3.985056 5.571635
v -3.559576 3.985056 -2.438365
v -4.564576 5.192056 -13.72936
v -2.669576 5.192056 -12.53636
v -2.617576 5.192056 -12.62737
v -14.12858 5.192056 3.150635
v -8.524576 5.192056 6.325635
v -3.689576 5.192056 -2.207365
v -2.960576 5.192056 -3.494365
v 0.9884242 5.192056 -10.46437
v -2.669576 5.192056 -12.53636
v -4.564576 5.192056 -13.72936
v -2.960576 5.192056 -3.494365
v -2.669576 5.192056 -12.53636
v -4.564576 5.192056 -13.72936
v -3.824506 5.192056 -3.984125
v -3.690395 5.192056 -3.908098
v -3.71375 5.192056 -2.525689
v -3.689576 5.192056 -2.207365
v -3.559576 5.192056 -2.438365
v -14.12858 5.192056 3.150635
v -5.577576 5.192056 -3.581365
v -4.978576 5.192056 -4.638365
v -14.12858 5.192056 3.150635
v -4.978576 5.192056 -4.638365
v -4.564576 5.192056 -13.72936
v -4.978576 5.192056 -4.638365
v -3.824506 5.192056 -3.984125
v -4.564576 5.192056 -13.72936
v -14.12858 5.192056 3.150635
v -3.689576 5.192056 -2.207365
v -5.577576 5.192056 -3.581365
v -5.577576 5.192056 -3.581365
v -3.689576 5.192056 -2.207365
v -3.71375 5.192056 -2.525689
v -4.564576 5.192056 -13.72936
v -3.690395 5.192056 -3.908098
v -2.960576 5.192056 -3.494365
v -3.71375 5.192056 -2.525689
v -3.559576 5.192056 -2.438365
v -3.559576 5.948056 -2.438365
v -5.577576 5.192056 -3.581365
v -3.71375 5.192056 -2.525689
v -3.559576 5.948056 -2.438365
v -5.577576 5.948056 -3.581365
v -3.559576 5.192056 -2.438365
v -2.960576 5.192056 -3.494365
v -2.960576 5.948056 -3.494365
v -3.559576 5.948056 -2.438365
v -8.524576 3.985056 6.325635
v -3.689576 3.985056 -2.207365
v -3.689576 5.192056 -2.207365
v -8.524576 5.192056 6.325635
v -3.689576 3.985056 -2.207365
v -3.559576 3.985056 -2.438365
v -3.559576 5.192056 -2.438365
v -3.689576 5.192056 -2.207365
v -2.960576 3.985056 -3.494365
v 0.9884242 3.985056 -10.46437
v 0.9884242 5.192056 -10.46437
v -2.960576 5.192056 -3.494365
v -3.559576 3.985056 -2.438365
v -2.960576 3.985056 -3.494365
v -2.960576 5.192056 -3.494365
v -3.559576 5.192056 -2.438365
v -4.978576 5.948056 -4.638365
v -3.824506 5.192056 -3.984125
v -4.978576 5.192056 -4.638365
v -4.978576 5.948056 -4.638365
v -2.960576 5.948056 -3.494365
v -3.824506 5.192056 -3.984125
v -3.690395 5.192056 -3.908098
v -2.960576 5.948056 -3.494365
v -2.960576 5.192056 -3.494365
v -3.824506 5.192056 -3.984125
v -2.960576 5.948056 -3.494365
v -3.690395 5.192056 -3.908098
v -5.577576 5.948056 -3.581365
v -4.978576 5.948056 -4.638365
v -4.978576 5.192056 -4.638365
v -5.577576 5.192056 -3.581365
v -8.524576 -4.37704 6.325635
v 5.212424 -4.37704 13.99664
v 5.212424 3.985056 13.99664
v -8.524576 3.985056 6.325635
v -14.12858 5.192056 3.150635
v -8.524576 3.985056 6.325635
v -8.524576 5.192056 6.325635
v -14.12858 -4.37704 3.150635
v -8.524576 -4.37704 6.325635
v -8.524576 3.985056 6.325635
v -14.12858 5.192056 3.150635
v 5.212424 -4.37704 13.99664
v 9.931424 -4.37704 5.571635
v 9.931424 3.985056 5.571635
v 5.212424 3.985056 13.99664
v 9.931424 -4.37704 5.571635
v 14.59142 -4.37704 -3.116365
v 14.59142 3.985056 -3.116365
v 9.931424 3.985056 5.571635
v 0.9884242 3.985056 -10.46437
v 14.59142 3.985056 -3.116365
v 14.59142 -4.37704 -3.116365
v 0.9884242 -4.37704 -10.46437
v -2.669576 5.192056 -12.53636
v 0.9884242 3.985056 -10.46437
v 0.9884242 -4.37704 -10.46437
v -2.669576 -4.37704 -12.53636
v -2.669576 5.192056 -12.53636
v 0.9884242 5.192056 -10.46437
v 0.9884242 3.985056 -10.46437
v -2.669576 -4.37704 -12.53636
v -2.617576 -4.37704 -12.62737
v -2.617576 5.192056 -12.62737
v -2.669576 5.192056 -12.53636
v -4.564576 5.192056 -13.72936
v -3.591076 -4.37704 -13.17836
v -4.564576 -4.37704 -13.72936
v -3.591076 -4.37704 -13.17836
v -2.617576 5.192056 -12.62737
v -2.617576 -4.37704 -12.62737
v -4.564576 5.192056 -13.72936
v -2.617576 5.192056 -12.62737
v -3.591076 -4.37704 -13.17836
v -14.12858 5.192056 3.150635
v -4.564576 5.192056 -13.72936
v -4.564576 -4.37704 -13.72936
v -14.12858 -4.37704 3.150635
v -3.591076 -4.37704 -13.17836
v -2.617576 -4.37704 -12.62737
v -2.669576 -4.37704 -12.53636
v 0.9884242 -4.37704 -10.46437
v 14.59142 -4.37704 -3.116365
v 9.931424 -4.37704 5.571635
v 5.212424 -4.37704 13.99664
v -8.524576 -4.37704 6.325635
v -14.12858 -4.37704 3.150635
v -4.564576 -4.37704 -13.72936
vt 0.028401 0.999464
vt 0.001464 0.960186
vt 0.027271 0.948956
vt 0.054231 0.988234
vt 0.186183 0.452024
vt 0.001464 0.179959
vt 0.211876 0.089943
vt 0.399309 0.359782
vt 0.405078 0.357302
vt 0.211876 0.089943
vt 0.431455 0.345873
vt 0.431455 0.345873
vt 0.211876 0.089943
vt 0.428796 0.001160
vt 0.605558 0.270528
vt 0.399309 0.359782
vt 0.211876 0.089943
vt 0.405078 0.357302
vt 0.500039 0.564801
vt 0.471196 0.527223
vt 0.473471 0.526231
vt 0.078017 0.747274
vt 0.001464 0.636270
vt 0.214794 0.544019
vt 0.246971 0.530109
vt 0.421240 0.454756
vt 0.471196 0.527223
vt 0.500039 0.564801
vt 0.246971 0.530109
vt 0.471196 0.527223
vt 0.500039 0.564801
vt 0.258780 0.547224
vt 0.256946 0.544567
vt 0.222674 0.544593
vt 0.214794 0.544019
vt 0.220569 0.541539
vt 0.078017 0.747274
vt 0.248127 0.581515
vt 0.274554 0.570085
vt 0.078017 0.747274
vt 0.274554 0.570085
vt 0.500039 0.564801
vt 0.274554 0.570085
vt 0.258780 0.547224
vt 0.500039 0.564801
vt 0.078017 0.747274
vt 0.214794 0.544019
vt 0.248127 0.581515
vt 0.248127 0.581515
vt 0.214794 0.544019
vt 0.222674 0.544593
vt 0.500039 0.564801
vt 0.256946 0.544567
vt 0.246971 0.530109
vt 0.159590 0.948956
vt 0.159590 0.948956
vt 0.159590 0.948956
vt 0.159590 0.948956
vt 0.159590 0.948956
vt 0.159590 0.948956
vt 0.159590 0.948956
vt 0.677930 0.841733
vt 0.704222 0.830285
vt 0.701436 0.833013
vt 0.675119 0.844471
vt 0.464532 0.932113
vt 0.676663 0.839852
vt 0.672179 0.844217
vt 0.459736 0.936613
vt 0.676663 0.839852
vt 0.682406 0.837372
vt 0.677930 0.841733
vt 0.672179 0.844217
vt 0.708660 0.825941
vt 0.881950 0.750580
vt 0.877766 0.754814
vt 0.704222 0.830285
vt 0.682406 0.837372
vt 0.708660 0.825941
vt 0.704222 0.830285
vt 0.677930 0.841733
vt 0.085094 0.990528
vt 0.072575 0.965595
vt 0.087732 0.987822
vt 0.085094 0.990528
vt 0.058565 0.951626
vt 0.072575 0.965595
vt 0.070813 0.963012
vt 0.058565 0.951626
vt 0.061228 0.948956
vt 0.072575 0.965595
vt 0.058565 0.951626
vt 0.070813 0.963012
vt 0.127379 0.959397
vt 0.152645 0.948956
vt 0.155294 0.950092
vt 0.130051 0.960523
vt 0.174231 0.948956
vt 0.174231 0.948956
vt 0.174231 0.948956
vt 0.174231 0.948956
vt 0.174231 0.948956
vt 0.174231 0.948956
vt 0.174231 0.948956
vt 0.174231 0.948956
vt 0.174231 0.948956
vt 0.174231 0.948956
vt 0.174231 0.948956
vt 0.538378 0.631937
vt 0.745766 0.542749
vt 0.713151 0.569969
vt 0.503660 0.660061
vt 0.745766 0.542749
vt 0.959589 0.454756
vt 0.929142 0.481085
vt 0.713151 0.569969
vt 0.786382 0.295540
vt 0.609078 0.027555
vt 0.639448 0.001160
vt 0.814970 0.266455
vt 0.832324 0.371973
vt 0.786382 0.295540
vt 0.814970 0.266455
vt 0.864510 0.337812
vt 0.832324 0.371973
vt 0.782208 0.299787
vt 0.786382 0.295540
vt 0.121797 0.949913
vt 0.123951 0.948956
vt 0.092955 0.982107
vt 0.090776 0.983075
vt 0.911950 0.822221
vt 0.930278 0.769327
vt 0.943203 0.788073
vt 0.930278 0.769327
vt 0.885798 0.784292
vt 0.917353 0.750580
vt 0.911950 0.822221
vt 0.885798 0.784292
vt 0.930278 0.769327
vt 0.001464 0.932697
vt 0.423368 0.750580
vt 0.455432 0.766170
vt 0.038381 0.946189
vt 0.166911 0.948956
vt 0.166911 0.948956
vt 0.166911 0.948956
vt 0.166911 0.948956
vt 0.166911 0.948956
vt 0.166911 0.948956
vt 0.166911 0.948956
vt 0.166911 0.948956
vt 0.166911 0.948956
vt 0.166911 0.948956
vn 0 1 0
vn 0 1 0
vn 0 1 0
vn 0 1 0
vn 0 1 0
vn 0 1 0
vn 0 1 0
vn 0 1 0
vn 0 1 0
vn 0 1 0
vn 0 1 0
vn 0 1 0
vn 0 1 0
vn 0 1 0
vn 0 1 0
vn 0 1 0
vn 0 1 0
vn 0 1 0
vn 0 1 0
vn 0 1 0
vn 0 1 0
vn 0 1 0
vn 0 1 0
vn 0 1 0
vn 0 1 0
vn 0 1 0
vn 0 1 0
vn 0 1 0
vn 0 1 0
vn 0 1 0
vn 0 1 0
vn 0 1 0
vn 0 1 0
vn 0 1 0
vn 0 1 0
vn 0 1 0
vn 0 1 0
vn 0 1 0
vn 0 1 0
vn 0 1 0
vn 0 1 0
vn 0 1 0
vn 0 1 0
vn 0 1 0
vn 0 1 0
vn 0 1 0
vn 0 1 0
vn 0 1 0
vn 0 1 0
vn 0 1 0
vn 0 1 0
vn 0 1 0
vn 0 1 0
vn 0 1 0
vn -0.4928385 0 0.8701208
vn -0.4928385 0 0.8701208
vn -0.4928385 0 0.8701208
vn -0.4928385 0 0.8701208
vn -0.4928385 -1.3615E-09 0.8701208
vn -0.4928385 -2.723E-09 0.8701208
vn -0.4928385 -1.3615E-09 0.8701208
vn 0.8698101 0 0.4933866
vn 0.8698101 0 0.4933866
vn 0.8698101 0 0.4933866
vn 0.8698101 0 0.4933866
vn 0.8700382 0 0.4929843
vn 0.8700382 0 0.4929843
vn 0.8700382 0 0.4929843
vn 0.8700382 0 0.4929843
vn 0.8714747 0 0.4904403
vn 0.8714747 0 0.4904403
vn 0.8714747 0 0.4904403
vn 0.8714747 0 0.4904403
vn 0.8700579 0 0.4929496
vn 0.8700579 0 0.4929496
vn 0.8700579 0 0.4929496
vn 0.8700579 0 0.4929496
vn 0.8698101 0 0.4933866
vn 0.8698101 0 0.4933866
vn 0.8698101 0 0.4933866
vn 0.8698101 0 0.4933866
vn 0.4931648 0 -0.8699359
vn 0.4931648 0 -0.8699359
vn 0.4931648 0 -0.8699359
vn 0.4931648 -4.787622E-09 -0.8699359
vn 0.4931648 -4.787622E-09 -0.8699359
vn 0.4931648 -4.787622E-09 -0.8699359
vn 0.4931648 0 -0.8699359
vn 0.4931648 0 -0.8699359
vn 0.4931648 0 -0.8699359
vn 0.4931648 -1.352019E-09 -0.8699359
vn 0.4931648 -1.352019E-09 -0.8699359
vn 0.4931648 -1.352019E-09 -0.8699359
vn -0.8700104 0 -0.4930333
vn -0.8700104 0 -0.4930333
vn -0.8700104 0 -0.4930333
vn -0.8700104 0 -0.4930333
vn -0.4875521 0 0.8730939
vn -0.4875521 0 0.8730939
vn -0.4875521 0 0.8730939
vn -0.4875521 0 0.8730939
vn -0.4929421 0 0.8700621
vn -0.4929421 0 0.8700621
vn -0.4929421 0 0.8700621
vn -0.4929421 0 0.8700621
vn -0.4929421 0 0.8700621
vn -0.4929421 0 0.8700621
vn -0.4929421 0 0.8700621
vn 0.8724619 0 0.4886822
vn 0.8724619 0 0.4886822
vn 0.8724619 0 0.4886822
vn 0.8724619 0 0.4886822
vn 0.8812386 0 0.4726717
vn 0.8812386 0 0.4726717
vn 0.8812386 0 0.4726717
vn 0.8812386 0 0.4726717
vn 0.4752681 0 -0.879841
vn 0.4752681 0 -0.879841
vn 0.4752681 0 -0.879841
vn 0.4752681 0 -0.879841
vn 0.4928565 0 -0.8701106
vn 0.4928565 0 -0.8701106
vn 0.4928565 0 -0.8701106
vn 0.4928565 0 -0.8701106
vn 0.4928565 0 -0.8701106
vn 0.4928565 0 -0.8701106
vn 0.4928565 0 -0.8701106
vn 0.8682432 0 0.4961389
vn 0.8682432 0 0.4961389
vn 0.8682432 0 0.4961389
vn 0.8682432 0 0.4961389
vn 0.4925727 0 -0.8702713
vn 0.4925727 0 -0.8702713
vn 0.4925727 0 -0.8702713
vn 0.4925727 0 -0.8702713
vn 0.4925727 0 -0.8702713
vn 0.4925727 0 -0.8702713
vn 0.4925727 0 -0.8702713
vn 0.4925727 0 -0.8702713
vn 0.4925727 0 -0.8702713
vn -0.8700517 0 -0.4929605
vn -0.8700517 0 -0.4929605
vn -0.8700517 0 -0.4929605
vn -0.8700517 0 -0.4929605
vn 0 -1 0
vn 0 -1 0
vn 0 -1 0
vn 0 -1 0
vn 0 -1 0
vn 0 -1 0
vn 0 -1 0
vn 0 -1 0
vn 0 -1 0
vn 0 -1 0

g CDNNDG01_0002780
f 1/1/1 2/2/2 4/4/4
f 4/4/4 2/2/2 3/3/3
f 5/5/5 7/7/7 8/8/8
f 5/5/5 6/6/6 7/7/7
f 9/9/9 10/10/10 11/11/11
f 12/12/12 13/13/13 14/14/14
f 15/15/15 12/12/12 14/14/14
f 16/16/16 17/17/17 18/18/18
f 19/19/19 20/20/20 21/21/21
f 22/22/22 23/23/23 24/24/24
f 25/25/25 26/26/26 27/27/27
f 28/28/28 29/29/29 30/30/30
f 31/31/31 32/32/32 33/33/33
f 34/34/34 35/35/35 36/36/36
f 37/37/37 38/38/38 39/39/39
f 40/40/40 41/41/41 42/42/42
f 43/43/43 44/44/44 45/45/45
f 46/46/46 47/47/47 48/48/48
f 49/49/49 50/50/50 51/51/51
f 52/52/52 53/53/53 54/54/54
f 55/55/55 56/56/56 57/57/57
f 61/61/61 58/58/58 59/59/59
f 60/60/60 61/61/61 59/59/59
f 65/65/65 62/62/62 64/64/64
f 63/63/63 64/64/64 62/62/62
f 69/69/69 66/66/66 68/68/68
f 67/67/67 68/68/68 66/66/66
f 71/71/71 72/72/72 70/70/70
f 70/70/70 72/72/72 73/73/73
f 74/74/74 76/76/76 77/77/77
f 74/74/74 75/75/75 76/76/76
f 81/81/81 78/78/78 80/80/80
f 79/79/79 80/80/80 78/78/78
f 82/82/82 83/83/83 84/84/84
f 85/85/85 86/86/86 87/87/87
f 88/88/88 89/89/89 90/90/90
f 91/91/91 92/92/92 93/93/93
f 94/94/94 96/96/96 97/97/97
f 94/94/94 95/95/95 96/96/96
f 101/101/101 98/98/98 100/100/100
f 100/100/100 98/98/98 99/99/99
f 102/102/102 103/103/103 104/104/104
f 105/105/105 107/107/107 108/108/108
f 107/107/107 105/105/105 106/106/106
f 112/112/112 109/109/109 111/111/111
f 110/110/110 111/111/111 109/109/109
f 116/116/116 113/113/113 114/114/114
f 114/114/114 115/115/115 116/116/116
f 120/120/120 117/117/117 119/119/119
f 118/118/118 119/119/119 117/117/117
f 122/122/122 123/123/123 124/124/124
f 121/121/121 122/122/122 124/124/124
f 125/125/125 126/126/126 127/127/127
f 129/129/129 130/130/130 131/131/131
f 128/128/128 129/129/129 131/131/131
f 132/132/132 133/133/133 134/134/134
f 135/135/135 136/136/136 137/137/137
f 138/138/138 139/139/139 140/140/140
f 141/141/141 143/143/143 144/144/144
f 141/141/141 142/142/142 143/143/143
f 154/154/154 145/145/145 153/153/153
f 153/153/153 147/147/147 152/152/152
f 147/147/147 153/153/153 145/145/145
f 152/152/152 148/148/148 150/150/150
f 147/147/147 145/145/145 146/146/146
f 152/152/152 150/150/150 151/151/151
f 148/148/148 152/152/152 147/147/147
f 150/150/150 148/148/148 149/149/149
