v -3.462193 7.653697 2.985526
v -3.015193 7.653697 2.077526
v -3.325193 7.653697 1.925526
v -3.772193 7.653697 2.833526
v -0.08619339 7.738697 4.888526
v 0.2818066 7.738697 4.218526
v -0.01019339 7.738697 4.057526
v -0.3781934 7.738697 4.727526
v -5.848193 7.190697 -8.689474
v -3.325193 7.190697 1.925526
v -3.015193 7.190697 2.077526
v -10.48319 7.190697 -0.383474
v -3.325193 7.190697 1.925526
v -5.848193 7.190697 -8.689474
v -3.462193 7.190697 2.985526
v -0.01019339 7.190697 4.057526
v -3.015193 7.190697 2.077526
v -5.848193 7.190697 -8.689474
v -3.015193 7.190697 2.077526
v 10.47481 7.190697 0.414526
v -3.015193 7.190697 2.077526
v 0.2818066 7.190697 4.218526
v 10.47481 7.190697 0.414526
v -3.015193 7.190697 2.077526
v -0.01019339 7.190697 4.057526
v 0.2818066 7.190697 4.218526
v 0.2818066 7.190697 4.218526
v 5.899806 7.190697 8.674526
v 10.47481 7.190697 0.414526
v -3.772193 7.190697 2.833526
v -0.3781934 7.190697 4.727526
v -3.462193 7.190697 2.985526
v -10.48319 7.190697 -0.383474
v -3.772193 7.190697 2.833526
v -3.325193 7.190697 1.925526
v -10.48319 7.190697 -0.383474
v -0.3781934 7.190697 4.727526
v -3.772193 7.190697 2.833526
v -0.3781934 7.190697 4.727526
v 5.899806 7.190697 8.674526
v -0.08619339 7.190697 4.888526
v -10.48319 7.190697 -0.383474
v 5.899806 7.190697 8.674526
v -0.3781934 7.190697 4.727526
v -0.08619339 7.190697 4.888526
v 5.899806 7.190697 8.674526
v 0.2818066 7.190697 4.218526
v -3.462193 7.190697 2.985526
v -0.3781934 7.190697 4.727526
v -0.01019339 7.190697 4.057526
v -3.462193 7.190697 2.985526
v -3.015193 7.190697 2.077526
v -3.015193 7.653697 2.077526
v -3.462193 7.653697 2.985526
v -3.325193 7.653697 1.925526
v -3.015193 7.653697 2.077526
v -3.015193 7.190697 2.077526
v -3.325193 7.190697 1.925526
v -3.772193 7.653697 2.833526
v -3.325193 7.653697 1.925526
v -3.325193 7.190697 1.925526
v -3.772193 7.190697 2.833526
v -3.772193 7.190697 2.833526
v -3.462193 7.190697 2.985526
v -3.462193 7.653697 2.985526
v -3.772193 7.653697 2.833526
v -0.08619339 7.190697 4.888526
v 0.2818066 7.190697 4.218526
v 0.2818066 7.738697 4.218526
v -0.08619339 7.738697 4.888526
v -0.01019339 7.738697 4.057526
v 0.2818066 7.738697 4.218526
v 0.2818066 7.190697 4.218526
v -0.01019339 7.190697 4.057526
v -0.3781934 7.738697 4.727526
v -0.01019339 7.738697 4.057526
v -0.01019339 7.190697 4.057526
v -0.3781934 7.190697 4.727526
v -0.3781934 7.190697 4.727526
v -0.08619339 7.190697 4.888526
v -0.08619339 7.738697 4.888526
v -0.3781934 7.738697 4.727526
v -10.48319 -7.192457 -0.383474
v 5.899806 -7.192457 8.674526
v 5.899806 7.190697 8.674526
v -10.48319 7.190697 -0.383474
v 5.899806 -7.192457 8.674526
v 10.47481 -7.192457 0.414526
v 10.47481 7.190697 0.414526
v 5.899806 7.190697 8.674526
v -5.848193 7.190697 -8.689474
v 10.47481 7.190697 0.414526
v 10.47481 -7.192457 0.414526
v -5.848193 -7.192457 -8.689474
v -10.48319 7.190697 -0.383474
v -8.165693 -7.192457 -4.536474
v -10.48319 -7.192457 -0.383474
v -8.165693 -7.192457 -4.536474
v -5.848193 7.190697 -8.689474
v -5.848193 -7.192457 -8.689474
v -10.48319 7.190697 -0.383474
v -5.848193 7.190697 -8.689474
v -8.165693 -7.192457 -4.536474
v -8.165693 -7.192457 -4.536474
v -5.848193 -7.192457 -8.689474
v 10.47481 -7.192457 0.414526
v 5.899806 -7.192457 8.674526
v -10.48319 -7.192457 -0.383474
vt 0.409009 0.880663
vt 0.435560 0.871391
vt 0.439993 0.877815
vt 0.413442 0.887087
vt 0.445045 0.878972
vt 0.464350 0.871391
vt 0.468977 0.877400
vt 0.449673 0.884981
vt 0.535023 0.366508
vt 0.208913 0.310154
vt 0.204252 0.303219
vt 0.279641 0.470301
vt 0.208913 0.310154
vt 0.535023 0.366508
vt 0.176336 0.313230
vt 0.143501 0.235994
vt 0.204252 0.303219
vt 0.535023 0.366508
vt 0.204252 0.303219
vt 0.255777 0.001312
vt 0.204252 0.303219
vt 0.138562 0.229461
vt 0.255777 0.001312
vt 0.204252 0.303219
vt 0.143501 0.235994
vt 0.138562 0.229461
vt 0.138562 0.229461
vt 0.001802 0.103784
vt 0.255777 0.001312
vt 0.180997 0.320166
vt 0.122901 0.244236
vt 0.176336 0.313230
vt 0.279641 0.470301
vt 0.180997 0.320166
vt 0.208913 0.310154
vt 0.279641 0.470301
vt 0.122901 0.244236
vt 0.180997 0.320166
vt 0.122901 0.244236
vt 0.001802 0.103784
vt 0.117963 0.237703
vt 0.279641 0.470301
vt 0.001802 0.103784
vt 0.122901 0.244236
vt 0.117963 0.237703
vt 0.001802 0.103784
vt 0.138562 0.229461
vt 0.176336 0.313230
vt 0.122901 0.244236
vt 0.143501 0.235994
vt 0.509910 0.880315
vt 0.536446 0.871391
vt 0.541209 0.872306
vt 0.514658 0.881234
vt 0.608038 0.871391
vt 0.612052 0.877398
vt 0.607615 0.878318
vt 0.603604 0.872315
vt 0.505441 0.872984
vt 0.478892 0.882418
vt 0.473874 0.880819
vt 0.500408 0.871391
vt 0.620097 0.878897
vt 0.616216 0.872922
vt 0.620405 0.871391
vt 0.624288 0.877370
vt 0.574775 0.878623
vt 0.594066 0.871391
vt 0.599580 0.872413
vt 0.580275 0.879650
vt 0.648681 0.871391
vt 0.653047 0.876889
vt 0.647606 0.877906
vt 0.643243 0.872412
vt 0.571125 0.873299
vt 0.551841 0.880943
vt 0.545946 0.879030
vt 0.565217 0.871391
vt 0.633060 0.878875
vt 0.628829 0.873246
vt 0.633895 0.871391
vt 0.638129 0.877024
vt 0.810494 0.420191
vt 0.538739 0.059258
vt 0.688453 0.001312
vt 0.964987 0.368613
vt 0.001802 0.971350
vt 0.251102 0.871391
vt 0.404723 0.897272
vt 0.151023 0.998992
vt 0.157680 0.473753
vt 0.444311 0.841065
vt 0.283427 0.868352
vt 0.001802 0.507473
vt 0.858586 0.524701
vt 0.573825 0.526469
vt 0.699005 0.473753
vt 0.573825 0.526469
vt 0.603773 0.632003
vt 0.448649 0.579183
vt 0.858586 0.524701
vt 0.603773 0.632003
vt 0.573825 0.526469
vt 0.657658 0.871391
vt 0.657658 0.871391
vt 0.657658 0.871391
vt 0.657658 0.871391
vt 0.657658 0.871391
vn 0 1 0
vn 0 1 0
vn 0 1 0
vn 0 1 0
vn 0 1 0
vn 0 1 0
vn 0 1 0
vn 0 1 0
vn 0 1 0
vn 0 1 0
vn 0 1 0
vn 0 1 0
vn 0 1 0
vn 0 1 0
vn 0 1 0
vn 0 1 0
vn 0 1 0
vn 0 1 0
vn 0 1 0
vn 0 1 0
vn 0 1 0
vn 0 1 0
vn 0 1 0
vn 0 1 0
vn 0 1 0
vn 0 1 0
vn 0 1 0
vn 0 1 0
vn 0 1 0
vn 0 1 0
vn 0 1 0
vn 0 1 0
vn 0 1 0
vn 0 1 0
vn 0 1 0
vn 0 1 0
vn 0 1 0
vn 0 1 0
vn 0 1 0
vn 0 1 0
vn 0 1 0
vn 0 1 0
vn 0 1 0
vn 0 1 0
vn 0 1 0
vn 0 1 0
vn 0 1 0
vn 0 1 0
vn 0 1 0
vn 0 1 0
vn 0.8971767 0 0.4416718
vn 0.8971767 0 0.4416718
vn 0.8971767 0 0.4416718
vn 0.8971767 0 0.4416718
vn 0.4402488 0 -0.8978758
vn 0.4402488 0 -0.8978758
vn 0.4402488 0 -0.8978758
vn 0.4402488 0 -0.8978758
vn -0.8971767 0 -0.4416718
vn -0.8971767 0 -0.4416718
vn -0.8971767 0 -0.4416718
vn -0.8971767 0 -0.4416718
vn -0.4402488 0 0.8978758
vn -0.4402488 0 0.8978758
vn -0.4402488 0 0.8978758
vn -0.4402488 0 0.8978758
vn 0.876492 0 0.4814165
vn 0.876492 0 0.4814165
vn 0.876492 0 0.4814165
vn 0.876492 0 0.4814165
vn 0.4828395 0 -0.8757089
vn 0.4828395 0 -0.8757089
vn 0.4828395 0 -0.8757089
vn 0.4828395 0 -0.8757089
vn -0.876492 0 -0.4814165
vn -0.876492 0 -0.4814165
vn -0.876492 0 -0.4814165
vn -0.876492 0 -0.4814165
vn -0.4828395 0 0.8757089
vn -0.4828395 0 0.8757089
vn -0.4828395 0 0.8757089
vn -0.4828395 0 0.8757089
vn -0.4838595 0 0.8751457
vn -0.4838595 0 0.8751457
vn -0.4838595 0 0.8751457
vn -0.4838595 0 0.8751457
vn 0.874781 0 0.4845185
vn 0.874781 0 0.4845185
vn 0.874781 0 0.4845185
vn 0.874781 0 0.4845185
vn 0.4871005 0 -0.8733459
vn 0.4871005 0 -0.8733459
vn 0.4871005 0 -0.8733459
vn 0.4871005 0 -0.8733459
vn -0.8732383 0 -0.4872935
vn -0.8732383 0 -0.4872935
vn -0.8732383 0 -0.4872935
vn -0.8732383 0 -0.4872935
vn -0.8732383 0 -0.4872935
vn -0.8732383 0 -0.4872935
vn -0.8732383 0 -0.4872935
vn -0.8732383 0 -0.4872935
vn -0.8732383 0 -0.4872935
vn 0 -1 0
vn 0 -1 0
vn 0 -1 0
vn 0 -1 0
vn 0 -1 0

g CDNNDG01_0003330
f 1/1/1 2/2/2 3/3/3
f 4/4/4 1/1/1 3/3/3
f 5/5/5 6/6/6 8/8/8
f 8/8/8 6/6/6 7/7/7
f 9/9/9 10/10/10 11/11/11
f 12/12/12 13/13/13 14/14/14
f 15/15/15 16/16/16 17/17/17
f 18/18/18 19/19/19 20/20/20
f 21/21/21 22/22/22 23/23/23
f 24/24/24 25/25/25 26/26/26
f 27/27/27 28/28/28 29/29/29
f 30/30/30 31/31/31 32/32/32
f 33/33/33 34/34/34 35/35/35
f 36/36/36 37/37/37 38/38/38
f 39/39/39 40/40/40 41/41/41
f 42/42/42 43/43/43 44/44/44
f 45/45/45 46/46/46 47/47/47
f 48/48/48 49/49/49 50/50/50
f 51/51/51 53/53/53 54/54/54
f 51/51/51 52/52/52 53/53/53
f 55/55/55 57/57/57 58/58/58
f 55/55/55 56/56/56 57/57/57
f 62/62/62 59/59/59 61/61/61
f 61/61/61 59/59/59 60/60/60
f 66/66/66 63/63/63 65/65/65
f 65/65/65 63/63/63 64/64/64
f 70/70/70 67/67/67 69/69/69
f 68/68/68 69/69/69 67/67/67
f 74/74/74 71/71/71 73/73/73
f 72/72/72 73/73/73 71/71/71
f 75/75/75 77/77/77 78/78/78
f 75/75/75 76/76/76 77/77/77
f 82/82/82 79/79/79 81/81/81
f 81/81/81 79/79/79 80/80/80
f 83/83/83 85/85/85 86/86/86
f 85/85/85 83/83/83 84/84/84
f 87/87/87 89/89/89 90/90/90
f 87/87/87 88/88/88 89/89/89
f 91/91/91 93/93/93 94/94/94
f 91/91/91 92/92/92 93/93/93
f 95/95/95 96/96/96 97/97/97
f 98/98/98 99/99/99 100/100/100
f 101/101/101 102/102/102 103/103/103
f 104/104/104 106/106/106 107/107/107
f 108/108/108 104/104/104 107/107/107
f 106/106/106 104/104/104 105/105/105
